<?xml version="1.0" encoding="UTF-8"?>
<!-- Generator: Adobe Illustrator 25.2.3, SVG Export Plug-In . SVG Version: 6.00 Build 0)  -->
<svg xmlns="http://www.w3.org/2000/svg" xmlns:xlink="http://www.w3.org/1999/xlink" version="1.1" id="Capa_1" x="0px" y="0px" viewBox="0 0 512 512" style="enable-background:new 0 0 512 512;" xml:space="preserve" width="512" height="512">
<g>
	<path style="fill:#7C3E25;" d="M365.127,109.703c0,0,15.059,123.024-5.052,192.961l-56.194,10.482l33.695,129.619   c0,0-254.41,132.792-232.544-56.561c0,0-54.725,27.028-90.783-19.406c-36.058-46.432,0.197-91.718,65.306-47.172   c0,0-18.275-45.752-16.605-85.561L365.127,109.703z"/>
	<g>
		<path style="opacity:0.1;fill:#FFFFFF;" d="M205.036,371.204c1.466,10.116-9.032,20.008-23.457,22.1    c-14.421,2.091-27.298-4.408-28.766-14.525c-1.468-10.119,9.031-20.013,23.45-22.106    C190.691,354.581,203.568,361.083,205.036,371.204z"/>
		<path style="opacity:0.1;fill:#FFFFFF;" d="M181.78,417.942c1.467,10.111-9.03,20.007-23.45,22.098    c-14.421,2.091-27.303-4.414-28.77-14.523c-1.468-10.122,9.035-20.018,23.452-22.111    C167.436,401.314,180.312,407.82,181.78,417.942z"/>
		<path style="fill:#FFFFFF;" d="M213.365,375.375l-31.67,52.421l-29.404,0.597c-41.184-11.243-22.52-70.66,11.101-79.88    C144.871,389.127,189.239,380.959,213.365,375.375z"/>
		<path style="fill:#091438;" d="M253.932,215.894l3.512,108.407c0,0,25.26-20.77,29.339,12.15l-85.189,16.55    c0,0-7.425-31.737,16.094-21.188c0,0-15.736-2.606-12.713,15.807l76.961-13.258c0,0-0.29-23.794-27.568-7.173    C254.369,327.188,245.02,250.704,253.932,215.894z"/>
		<path style="fill:#091438;" d="M273.102,469.942c0,0-4.932-42.82-70.141-13.465l2.712-34.254c0,0-70.184,31.129-77.177-17.082    c-6.994-48.203,38.512-59.345,38.512-59.345s-39.884,59.545,74.497,17.822l-6.348-19.674l11.953,21.303    c0,0-109.654,48.72-86.682-14.302c0,0-34.458,17.563-29.394,54.876c5.065,37.317,79.938,11.795,79.938,11.795l-5.137,34.604    C205.834,452.22,272.806,421.373,273.102,469.942z"/>
		<path style="fill:#091438;" d="M173.269,348.03c0,0-19.106-1.769-35.404,8.628c0,0,21.216-17.388,36.661-11.951L173.269,348.03z"/>
	</g>
	<path style="fill:#EA4A0C;" d="M503.674,68.108c0,0-152.418,42.213-445.846,207.657c0,0-44.248-157.413,110.953-229.735   c155.202-72.309,195.287,56.381,195.287,56.381S553.41-34.992,503.674,68.108z"/>
	<g>
		<path style="fill:#091438;" d="M242.904,288.532c2.565,17.659-11.359,34.289-31.089,37.151    c-19.733,2.863-37.803-9.126-40.365-26.786c-2.56-17.65,11.357-34.282,31.09-37.145    C222.271,258.89,240.345,270.882,242.904,288.532z"/>
		<path style="fill:#091438;" d="M332.444,275.542c2.562,17.661-11.354,34.289-31.084,37.15    c-19.733,2.863-37.806-9.124-40.367-26.785c-2.559-17.648,11.364-34.282,31.094-37.142    C311.816,245.901,329.886,257.894,332.444,275.542z"/>
		
			<rect x="187.776" y="250.707" transform="matrix(0.9896 -0.1437 0.1437 0.9896 -33.8681 38.1084)" style="fill:#FFC524;" width="118.11" height="5.526"/>
		
			<rect x="242.552" y="283.509" transform="matrix(0.9992 -0.04 0.04 0.9992 -11.2578 10.3081)" style="fill:#FFC524;" width="18.449" height="5.529"/>
		
			<rect x="69.538" y="305.386" transform="matrix(0.9792 -0.2029 0.2029 0.9792 -60.5714 31.0562)" style="fill:#FFC524;" width="103.252" height="11.053"/>
		<path style="fill:#FFC524;" d="M205.992,328.87c-19.113,0-34.79-12.438-37.275-29.575c-2.777-19.133,12.22-37.2,33.428-40.276    c2.064-0.3,4.155-0.453,6.219-0.453c19.116,0,34.792,12.437,37.275,29.568c1.354,9.329-1.413,18.667-7.799,26.296    c-6.309,7.537-15.41,12.506-25.626,13.988C210.149,328.717,208.055,328.87,205.992,328.87z M208.363,264.093    c-1.798,0-3.625,0.134-5.425,0.394c-18.192,2.64-31.09,17.899-28.753,34.013c2.088,14.394,15.465,24.842,31.806,24.842    c1.8,0,3.625-0.133,5.426-0.394c8.87-1.288,16.748-5.573,22.183-12.067c5.361-6.404,7.695-14.202,6.569-21.953    C238.083,274.537,224.707,264.093,208.363,264.093z"/>
		<path style="fill:#FFC524;" d="M295.537,315.878c-19.115,0-34.795-12.438-37.279-29.575c-1.354-9.325,1.419-18.66,7.803-26.287    c6.312-7.539,15.413-12.507,25.628-13.986c2.064-0.3,4.157-0.453,6.217-0.453c19.115,0,34.788,12.435,37.272,29.567    c1.354,9.331-1.416,18.669-7.796,26.296c-6.309,7.537-15.41,12.505-25.625,13.986    C299.694,315.725,297.601,315.878,295.537,315.878z M297.907,251.105c-1.797,0-3.623,0.134-5.423,0.394    c-8.867,1.286-16.748,5.571-22.184,12.065c-5.361,6.405-7.695,14.199-6.572,21.945c2.09,14.395,15.465,24.842,31.81,24.842    c1.8,0,3.626-0.134,5.426-0.394c8.87-1.287,16.745-5.571,22.178-12.064c5.361-6.405,7.692-14.203,6.569-21.955    C327.623,261.549,314.248,251.105,297.907,251.105z"/>
	</g>
	
		<rect x="167.345" y="229.98" transform="matrix(0.9224 -0.3863 0.3863 0.9224 -77.1731 95.2669)" style="fill:#091438;" width="62.218" height="19.347"/>
	
		<rect x="279.297" y="196.443" transform="matrix(0.2359 -0.9718 0.9718 0.2359 3.1238 451.9597)" style="fill:#091438;" width="19.345" height="55.1"/>
	
		<rect x="153.539" y="402.734" transform="matrix(0.4969 -0.8678 0.8678 0.4969 -259.5473 360.5252)" style="fill:#091438;" width="55.263" height="2.764"/>
	
		<rect x="132.109" y="401.319" transform="matrix(0.5985 -0.8011 0.8011 0.5985 -258.4599 289.7096)" style="fill:#091438;" width="55.364" height="2.763"/>
	
		<rect x="125.488" y="384.838" transform="matrix(0.8389 -0.5443 0.5443 0.8389 -186.7619 141.5089)" style="fill:#091438;" width="40.316" height="2.763"/>
	<path style="fill:#091438;" d="M176.804,400.704c-31.488,0-43.283-26.063-43.424-26.388l2.533-1.105   c0.675,1.544,17.135,37.631,65.459,19.923l0.95,2.594C192.667,399.267,184.19,400.704,176.804,400.704z"/>
	
		<rect x="191.887" y="287.439" transform="matrix(0.7554 -0.6553 0.6553 0.7554 -139.239 204.6292)" style="fill:#FFFFFF;" width="25.173" height="2.762"/>
	
		<rect x="191.173" y="295.567" transform="matrix(0.7072 -0.7071 0.7071 0.7072 -148.1666 236.151)" style="fill:#FFFFFF;" width="39.668" height="2.762"/>
	
		<rect x="275.573" y="274.404" transform="matrix(0.7695 -0.6387 0.6387 0.7695 -108.5671 250.7729)" style="fill:#FFFFFF;" width="35.081" height="2.762"/>
	
		<rect x="276.43" y="284.537" transform="matrix(0.7753 -0.6316 0.6316 0.7753 -113.3445 253.239)" style="fill:#FFFFFF;" width="45.619" height="2.763"/>
	<path style="fill:#EA4A0C;" d="M161.69,43.837c0.532,2.433-3.814,5.451-9.719,6.748c-5.9,1.297-11.115,0.379-11.652-2.052   c-0.537-2.432,3.817-5.454,9.718-6.753C155.941,40.486,161.156,41.406,161.69,43.837z"/>
	<path style="fill:#FFC524;" d="M361.022,107.042l-202.369,103.36c0,0-17.708-128.502,69.707-170.827   C315.772-2.753,361.022,107.042,361.022,107.042z"/>
	<polygon style="fill:#EA4A0C;" points="240.287,143.174 316.468,104.739 311.497,70.478 288.633,98.926 261.882,60.453    263.138,112.476 223,121.477  "/>
	<path style="fill:#EA4A0C;" d="M217.806,115.521c0.275,1.906-1.507,3.75-3.983,4.11c-2.469,0.356-4.701-0.903-4.977-2.809   c-0.277-1.909,1.507-3.745,3.975-4.103C215.295,112.361,217.53,113.612,217.806,115.521z"/>
	<path style="fill:#EA4A0C;" d="M263.552,52.066c0.231,1.634-1.683,3.273-4.297,3.651c-2.601,0.378-4.909-0.648-5.147-2.282   c-0.241-1.636,1.686-3.272,4.287-3.649C261.006,49.407,263.311,50.429,263.552,52.066z"/>
	<path style="fill:#EA4A0C;" d="M315.586,63.368c0.221,1.509-1.742,3.044-4.388,3.428c-2.647,0.382-4.964-0.527-5.182-2.04   c-0.221-1.514,1.742-3.047,4.388-3.429C313.05,60.941,315.368,61.853,315.586,63.368z"/>
	<path style="fill:#091438;" d="M27.164,348.495c0,0,11.764-15.301,34.157-9.533c22.401,5.755,40.101,43.48,9.58,45.972   c-30.53,2.49-19.922-18.69-8.839-20.82l-17.936-1.844l25.718,0.169c0,0-21.562,12.599-12.798,18.263   c8.76,5.663,34.362,1.423,24.472-19.347C64.103,324.807,27.164,348.495,27.164,348.495z"/>
</g>















</svg>
