<?xml version="1.0" encoding="UTF-8"?>
<!-- Generator: Adobe Illustrator 25.3.1, SVG Export Plug-In . SVG Version: 6.00 Build 0)  -->
<svg xmlns="http://www.w3.org/2000/svg" xmlns:xlink="http://www.w3.org/1999/xlink" version="1.1" id="Capa_1" x="0px" y="0px" viewBox="0 0 512 512" style="enable-background:new 0 0 512 512;" xml:space="preserve" width="512" height="512">
<g>
	<g>
		<g>
			<g>
				<g>
					<g>
						<g>
							<path style="fill:#FFBBEC;" d="M406.501,338.205c0,0.18,0,0.361-0.018,0.541c-0.002,26.485-14.084,34.813-32.545,26.392         c-22.373-10.206-60.448-46.611-77.123-72.214c-6.274-9.61-9.518-17.705-7.769-22.303c0.848-2.218,2.308-3.011,4.652-2.704         c28.252,3.644,100.364,66.77,94,59.089c-0.721-0.883-15.613-12.207-17.452-14.046c-2.506-2.507,8.185,0.037,27.28-12.979         c0.829-0.559,1.587-1.496,2.181-0.235C402.988,306.545,407.007,327.928,406.501,338.205z"/>
							<path style="fill:#FFBBEC;" d="M261.461,275.956c-1.19,5.084-4.184,11.051-8.349,17.397         c-15.056,23.004-45.42,51.182-60.89,62.142c-32.563,23.093-49.023,11.643-48.84-17.546c0.037-8.113,1.39-17.597,4.023-28.107         c0.739-2.921,1.569-5.806,2.507-8.654c0.487-1.478,0.992-2.488,2.236-1.569c17.091,12.442,30.216,10.91,27.944,13.254         c-0.757,0.793,0.018,0.108-16.822,13.358c-1.334,1.064-0.541,1.46-0.145,1.172c16.894-12.71,68.299-55.688,93.541-59.489         C261.371,267.194,262.2,272.747,261.461,275.956z"/>
							<path style="fill:#FFBBEC;" d="M323.668,199.877c-0.487,1.604-1.19,3.659-2.038,6.039         c-10.926,6.093-27.694,10.004-46.499,10.003c-18.895-0.001-35.752-3.951-46.677-10.118c-0.667-1.983-1.298-3.949-1.928-5.896         c-0.829-2.633-0.829-2.668,1.821-3.516c10.295-3.334,21.059-5.912,31.75-6.614c22.392-1.477,40.494-0.52,61.93,6.73         C324.804,197.443,324.461,197.299,323.668,199.877z"/>
						</g>
						<g>
							<path style="fill:#915EFD;" d="M212.982,454.415c-12.312-4.154-28.654-12.032-36.206-22.658         c-10.435-14.683,5.935-20.016,17.705-64.263c3.554-13.358,1.583-13.815,4.828-16.273         c19.85-15.031,44.908-41.519,58.455-63.729c1.862-3.052,3.103-6.779,3.438-7.471c0.915-1.892,26.282-0.633,27.017-0.598         c0.888,0.042,0.913,0.896,1.143,1.511c7.411,19.849,42.49,56.083,62.467,71.078c2.142,1.608,0.768,5.924,5.677,21.925         c8.446,27.529,18.561,39.943,19.106,46.906c0.983,12.575-12.983,21.172-22.528,26.125         C317.423,465.994,266.841,472.588,212.982,454.415z"/>
							<path style="fill:#915EFD;" d="M206.909,291.937c0.277,1.045-0.381,1.575-1.265,2.183         c-26.757,18.376-20.945,17.527-26.03,16.569c-9.524-1.793-18.143-5.729-26.098-11.187         c-6.506-4.464-13.055-9.332-16.668-16.31c-1.071-2.068-1.08-4.076,0.436-5.998c26.704-33.841,44.18-64.911,85.377-79.632         c3.003-1.073-0.052,2.097,14.398,35.157c15.269,34.933,20.817,33.652,16.151,34.848         c-12.93,3.315-31.428,15.472-42.473,23.006c-1.422,0.97-1.859,1.513-2.584,1.07c-0.605-0.369-0.54-1.057-0.534-1.659         c0.238-24.954,7.896-35.943,6.987-36.503c-0.356-0.219-0.555,0.114-0.676,0.356         C207.489,266.705,206.13,288.99,206.909,291.937z"/>
							<path style="fill:#915EFD;" d="M413.333,283.212c-3.131,6.209-9.83,11.582-15.549,15.53         c-8.678,5.99-16.726,10.067-28.784,12.299c-0.838,0.155-1.459,0.002-2.11-0.501c-22.342-17.275-24.07-16.695-23.658-18.299         c0.925-3.605-0.936-22.78-4.319-31.956c-0.79-2.144-1.719-4.238-2.595-6.35c-0.143-0.346-0.441-0.792-0.783-0.637         c-0.819,0.373,2.16,3.249,4.787,16.031c1.385,6.74,2.248,13.528,2.042,20.424c-0.136,4.545,0.04,1.624-22.85-11.878         c-22.525-13.287-26.275-8.773-23.182-13.205c11.044-15.824,22.733-44.6,28.486-62.72c1.276-4.018,0.975-5.049,2.988-4.32         c23.246,8.432,40.625,22.934,56.183,42.118c3.197,3.943,28.584,36.755,29.726,38.873         C414.541,280.154,414.099,281.694,413.333,283.212z"/>
						</g>
						<g style="opacity:0.5;">
							<path style="fill:#4217A6;" d="M341.536,360.088c2.221-3.192,1.434-7.581-1.758-9.803c-3.193-2.221-7.581-1.434-9.803,1.758         c-2.221,3.192-1.434,7.581,1.758,9.803C334.926,364.068,339.314,363.281,341.536,360.088z"/>
							<path style="fill:#4217A6;" d="M341.533,401.345c2.222-3.192,1.434-7.581-1.758-9.803c-3.193-2.221-7.581-1.434-9.803,1.758         c-2.221,3.192-1.434,7.581,1.758,9.803S339.311,404.537,341.533,401.345z"/>
							<path style="fill:#4217A6;" d="M352.359,392.791c3.193,2.221,7.581,1.434,9.803-1.758c0.356-0.512,0.608-1.061,0.812-1.622         c-1.057-2.637-2.121-5.474-3.179-8.52c-3.123-1.743-7.108-0.901-9.194,2.097         C348.379,386.181,349.167,390.569,352.359,392.791z"/>
							<path style="fill:#4217A6;" d="M339.776,370.914c-3.193-2.222-7.581-1.435-9.803,1.758c-2.221,3.192-1.434,7.581,1.758,9.802         c3.192,2.222,7.581,1.434,9.803-1.758C343.756,377.524,342.969,373.135,339.776,370.914z"/>
							<path style="fill:#4217A6;" d="M352.361,372.162c1.508,1.049,3.281,1.406,4.969,1.175c-1.842-6.09-2.762-10.438-3.323-13.57         c-1.331,0.477-2.535,1.343-3.404,2.592C348.381,365.552,349.168,369.941,352.361,372.162z"/>
							<path style="fill:#4217A6;" d="M371.225,434.56c-0.124,0.178-0.204,0.371-0.309,0.555c0.577-0.629,1.118-1.278,1.627-1.943         C372.059,433.573,371.602,434.019,371.225,434.56z"/>
							<path style="fill:#4217A6;" d="M354.085,446.967c2.034-1.056,4.27-2.287,6.518-3.677c-0.073-0.055-0.129-0.123-0.204-0.175         c-3.192-2.221-7.582-1.435-9.803,1.758c-0.937,1.345-1.308,2.901-1.22,4.42C350.967,448.538,352.543,447.768,354.085,446.967         z"/>
							<path style="fill:#4217A6;" d="M371.227,413.932c-2.222,3.192-1.434,7.581,1.758,9.802c1.042,0.726,2.213,1.099,3.394,1.204         c0.241-1.317,0.344-2.677,0.233-4.095c-0.178-2.274-1.388-5.147-3.216-8.92C372.565,412.42,371.817,413.085,371.227,413.932z         "/>
							<path style="fill:#4217A6;" d="M352.356,434.047c3.193,2.221,7.581,1.434,9.803-1.758c2.222-3.192,1.434-7.581-1.758-9.803         c-3.192-2.222-7.582-1.434-9.803,1.758C348.376,427.437,349.163,431.826,352.356,434.047z"/>
							<path style="fill:#4217A6;" d="M339.773,412.171c-3.193-2.222-7.581-1.434-9.803,1.758c-2.221,3.192-1.434,7.581,1.758,9.802         c3.192,2.222,7.581,1.435,9.803-1.758C343.752,418.781,342.965,414.392,339.773,412.171z"/>
							<path style="fill:#4217A6;" d="M352.357,413.419c3.193,2.221,7.581,1.435,9.803-1.758c2.222-3.192,1.434-7.581-1.758-9.803         c-3.192-2.221-7.582-1.434-9.803,1.758C348.378,406.809,349.165,411.197,352.357,413.419z"/>
							<path style="fill:#4217A6;" d="M329.967,455.186c-0.452,0.649-0.747,1.353-0.955,2.073c3.687-1.157,7.29-2.423,10.791-3.803         c-0.012-0.008-0.021-0.019-0.033-0.028C336.577,451.206,332.189,451.993,329.967,455.186z"/>
							<path style="fill:#4217A6;" d="M315.742,318.136c-2.43-0.21-4.9,0.818-6.392,2.964c-2.222,3.192-1.435,7.581,1.758,9.803         c3.193,2.222,7.581,1.434,9.803-1.758c0.882-1.266,1.271-2.719,1.243-4.152C319.987,322.739,317.84,320.448,315.742,318.136z         "/>
							<path style="fill:#4217A6;" d="M319.149,360.598c-3.192-2.221-7.581-1.434-9.803,1.758c-2.222,3.192-1.435,7.581,1.758,9.803         c3.193,2.222,7.581,1.434,9.803-1.758C323.128,367.208,322.341,362.82,319.149,360.598z"/>
							<path style="fill:#4217A6;" d="M298.521,350.282c-3.193-2.222-7.582-1.434-9.803,1.758c-2.221,3.193-1.434,7.581,1.758,9.803         c3.192,2.221,7.581,1.434,9.803-1.758C302.501,356.893,301.714,352.504,298.521,350.282z"/>
							<path style="fill:#4217A6;" d="M329.452,332.359c-1.501,3.068-0.608,6.848,2.283,8.859c2.3,1.6,5.211,1.617,7.494,0.32         C336.06,338.696,332.768,335.605,329.452,332.359z"/>
							<path style="fill:#4217A6;" d="M319.15,339.97c-3.192-2.222-7.581-1.435-9.803,1.758c-2.222,3.193-1.435,7.581,1.758,9.803         c3.193,2.221,7.581,1.435,9.803-1.758C323.13,346.58,322.343,342.191,319.15,339.97z"/>
							<path style="fill:#4217A6;" d="M298.523,329.654c-3.193-2.221-7.582-1.434-9.803,1.758s-1.434,7.582,1.758,9.803         c3.192,2.221,7.581,1.434,9.803-1.758C302.502,336.264,301.715,331.875,298.523,329.654z"/>
							<path style="fill:#4217A6;" d="M319.145,401.855c-3.192-2.221-7.581-1.434-9.803,1.758c-2.222,3.193-1.434,7.581,1.758,9.803         c3.193,2.221,7.582,1.434,9.803-1.758C323.125,408.465,322.338,404.077,319.145,401.855z"/>
							<path style="fill:#4217A6;" d="M298.518,391.539c-3.193-2.221-7.582-1.434-9.803,1.758c-2.221,3.192-1.434,7.581,1.758,9.803         c3.192,2.221,7.581,1.434,9.803-1.758C302.497,398.149,301.71,393.76,298.518,391.539z"/>
							<path style="fill:#4217A6;" d="M319.147,381.227c-3.192-2.221-7.581-1.435-9.803,1.758c-2.221,3.192-1.434,7.581,1.758,9.803         c3.193,2.221,7.581,1.434,9.803-1.758C323.126,387.837,322.339,383.448,319.147,381.227z"/>
							<path style="fill:#4217A6;" d="M298.52,370.911c-3.193-2.222-7.582-1.435-9.803,1.758c-2.221,3.192-1.434,7.581,1.758,9.802         c3.192,2.222,7.581,1.434,9.803-1.758C302.499,377.521,301.712,373.132,298.52,370.911z"/>
							<path style="fill:#4217A6;" d="M341.529,442.602c2.221-3.193,1.434-7.581-1.758-9.803c-3.192-2.222-7.581-1.435-9.803,1.758         c-2.221,3.192-1.434,7.581,1.758,9.803C334.919,446.581,339.308,445.794,341.529,442.602z"/>
							<path style="fill:#4217A6;" d="M319.142,443.112c-3.192-2.221-7.581-1.435-9.803,1.758c-2.222,3.192-1.434,7.581,1.758,9.803         c3.193,2.221,7.582,1.434,9.803-1.758C323.122,449.722,322.334,445.333,319.142,443.112z"/>
							<path style="fill:#4217A6;" d="M298.514,432.796c-3.192-2.222-7.581-1.435-9.803,1.758c-2.221,3.192-1.434,7.581,1.758,9.803         c3.192,2.222,7.581,1.434,9.802-1.758C302.494,439.406,301.707,435.017,298.514,432.796z"/>
							<path style="fill:#4217A6;" d="M319.144,422.483c-3.192-2.221-7.581-1.434-9.803,1.758c-2.222,3.192-1.434,7.581,1.758,9.803         c3.193,2.221,7.581,1.434,9.803-1.758C323.123,429.094,322.336,424.705,319.144,422.483z"/>
							<path style="fill:#4217A6;" d="M298.516,412.168c-3.192-2.222-7.581-1.434-9.803,1.758c-2.221,3.192-1.434,7.581,1.758,9.802         c3.192,2.222,7.581,1.435,9.803-1.758C302.496,418.778,301.709,414.389,298.516,412.168z"/>
							<path style="fill:#4217A6;" d="M298.513,453.424c-3.192-2.221-7.581-1.434-9.803,1.758c-2.117,3.041-1.475,7.147,1.349,9.452         c3.335-0.246,6.625-0.59,9.873-1.012c0.11-0.136,0.237-0.249,0.339-0.395C302.492,460.034,301.705,455.645,298.513,453.424z"/>
							<path style="fill:#4217A6;" d="M269.854,289.642c3.192,2.222,7.581,1.435,9.803-1.758c1.925-2.766,1.584-6.425-0.616-8.8         c-3.332-0.087-7.051-0.139-10.234-0.074c-0.249,0.261-0.498,0.524-0.71,0.829         C265.874,283.032,266.662,287.42,269.854,289.642z"/>
							<path style="fill:#4217A6;" d="M290.48,320.587c3.192,2.221,7.581,1.434,9.803-1.758c2.222-3.193,1.434-7.581-1.758-9.803         c-3.192-2.222-7.582-1.435-9.803,1.758C286.5,313.976,287.287,318.365,290.48,320.587z"/>
							<path style="fill:#4217A6;" d="M277.895,319.338c-3.192-2.221-7.581-1.434-9.803,1.758c-2.221,3.192-1.434,7.581,1.758,9.803         c3.192,2.221,7.581,1.434,9.803-1.758C281.874,325.948,281.088,321.56,277.895,319.338z"/>
							<path style="fill:#4217A6;" d="M288.723,290.155c-2.221,3.192-1.434,7.581,1.758,9.803c2.979,2.073,6.977,1.498,9.307-1.18         c-2.897-3.977-5.391-7.789-7.335-11.307C290.995,287.917,289.662,288.807,288.723,290.155z"/>
							<path style="fill:#4217A6;" d="M277.897,298.71c-3.192-2.221-7.581-1.434-9.803,1.758c-2.221,3.193-1.434,7.582,1.758,9.803         c3.192,2.221,7.581,1.434,9.803-1.758C281.876,305.32,281.089,300.931,277.897,298.71z"/>
							<path style="fill:#4217A6;" d="M257.269,288.394c-0.018-0.013-0.038-0.019-0.056-0.031         c-2.348,3.786-5.008,7.683-7.925,11.628c3.187,2.168,7.531,1.378,9.739-1.794         C261.249,295.004,260.462,290.615,257.269,288.394z"/>
							<path style="fill:#4217A6;" d="M277.892,360.595c-3.192-2.221-7.581-1.434-9.803,1.758c-2.222,3.192-1.434,7.581,1.758,9.803         c3.192,2.222,7.581,1.434,9.803-1.758C281.871,367.205,281.084,362.817,277.892,360.595z"/>
							<path style="fill:#4217A6;" d="M257.264,350.279c-3.192-2.221-7.581-1.434-9.803,1.758c-2.222,3.193-1.434,7.581,1.758,9.803         c3.192,2.221,7.581,1.434,9.803-1.758C261.244,356.889,260.457,352.501,257.264,350.279z"/>
							<path style="fill:#4217A6;" d="M277.893,339.967c-3.192-2.222-7.581-1.435-9.803,1.758c-2.221,3.193-1.434,7.582,1.758,9.803         c3.192,2.221,7.581,1.435,9.803-1.758C281.873,346.577,281.086,342.188,277.893,339.967z"/>
							<path style="fill:#4217A6;" d="M257.266,329.651c-3.192-2.221-7.581-1.434-9.803,1.758s-1.434,7.581,1.758,9.803         c3.192,2.221,7.581,1.434,9.803-1.758C261.246,336.261,260.459,331.872,257.266,329.651z"/>
							<path style="fill:#4217A6;" d="M277.889,401.851c-3.192-2.221-7.581-1.434-9.803,1.758c-2.222,3.193-1.434,7.581,1.758,9.803         c3.193,2.222,7.582,1.435,9.803-1.758C281.868,408.462,281.081,404.073,277.889,401.851z"/>
							<path style="fill:#4217A6;" d="M257.261,391.536c-3.193-2.222-7.581-1.434-9.803,1.758c-2.222,3.193-1.434,7.582,1.758,9.803         c3.192,2.221,7.581,1.434,9.803-1.758C261.241,398.146,260.454,393.757,257.261,391.536z"/>
							<path style="fill:#4217A6;" d="M277.89,381.223c-3.192-2.221-7.581-1.435-9.803,1.758c-2.222,3.192-1.434,7.581,1.758,9.803         c3.193,2.221,7.582,1.434,9.803-1.758C281.87,387.834,281.082,383.445,277.89,381.223z"/>
							<path style="fill:#4217A6;" d="M257.263,370.908c-3.193-2.222-7.581-1.435-9.803,1.758c-2.222,3.192-1.434,7.581,1.758,9.802         c3.192,2.222,7.581,1.434,9.803-1.758C261.242,377.518,260.455,373.129,257.263,370.908z"/>
							<path style="fill:#4217A6;" d="M277.885,443.109c-3.192-2.221-7.581-1.435-9.803,1.758c-2.221,3.192-1.434,7.581,1.758,9.803         c3.192,2.221,7.582,1.434,9.803-1.758C281.865,449.719,281.078,445.33,277.885,443.109z"/>
							<path style="fill:#4217A6;" d="M257.258,432.793c-3.193-2.222-7.581-1.435-9.803,1.758c-2.222,3.193-1.434,7.582,1.758,9.803         c3.192,2.222,7.581,1.434,9.803-1.758C261.237,439.403,260.451,435.014,257.258,432.793z"/>
							<path style="fill:#4217A6;" d="M277.887,422.48c-3.192-2.221-7.581-1.434-9.803,1.758c-2.221,3.192-1.434,7.582,1.758,9.803         c3.193,2.221,7.582,1.434,9.803-1.758S281.079,424.702,277.887,422.48z"/>
							<path style="fill:#4217A6;" d="M257.26,412.164c-3.193-2.222-7.581-1.434-9.803,1.758c-2.222,3.192-1.434,7.581,1.758,9.802         c3.192,2.222,7.581,1.435,9.803-1.758C261.239,418.774,260.452,414.386,257.26,412.164z"/>
							<path style="fill:#4217A6;" d="M277.884,463.736c-2.988-2.079-7.002-1.494-9.328,1.204c3.62,0.156,7.204,0.206,10.746,0.154         C278.895,464.594,278.44,464.124,277.884,463.736z"/>
							<path style="fill:#4217A6;" d="M257.256,453.421c-3.192-2.221-7.581-1.434-9.803,1.758c-1.635,2.35-1.628,5.342-0.244,7.647         c3.682,0.573,7.335,1.032,10.957,1.387c0.305-0.301,0.594-0.625,0.848-0.989         C261.236,460.031,260.449,455.642,257.256,453.421z"/>
							<path style="fill:#4217A6;" d="M249.223,320.583c3.192,2.221,7.581,1.434,9.803-1.758c2.222-3.193,1.435-7.581-1.758-9.803         c-3.192-2.221-7.581-1.435-9.803,1.758C245.243,313.973,246.03,318.362,249.223,320.583z"/>
							<path style="fill:#4217A6;" d="M236.638,319.335c-0.727-0.506-1.52-0.837-2.332-1.037c-2.731,3.053-5.532,6.05-8.368,8.969         c0.456,1.419,1.337,2.712,2.655,3.629c3.192,2.221,7.581,1.434,9.803-1.758C240.618,325.945,239.831,321.556,236.638,319.335         z"/>
							<path style="fill:#4217A6;" d="M236.635,360.592c-3.192-2.221-7.581-1.434-9.803,1.758c-2.222,3.192-1.434,7.581,1.758,9.803         c3.193,2.221,7.581,1.434,9.803-1.758C240.615,367.202,239.827,362.813,236.635,360.592z"/>
							<path style="fill:#4217A6;" d="M236.637,339.963c-3.192-2.222-7.581-1.435-9.803,1.758c-2.222,3.193-1.434,7.582,1.758,9.803         c3.193,2.221,7.581,1.435,9.803-1.758C240.616,346.574,239.829,342.185,236.637,339.963z"/>
							<path style="fill:#4217A6;" d="M236.632,401.848c-3.192-2.221-7.581-1.434-9.803,1.758c-2.221,3.193-1.434,7.581,1.758,9.803         c3.193,2.221,7.581,1.435,9.803-1.758C240.611,408.459,239.824,404.07,236.632,401.848z"/>
							<path style="fill:#4217A6;" d="M236.634,381.22c-3.192-2.221-7.581-1.435-9.803,1.758c-2.222,3.192-1.434,7.581,1.758,9.803         c3.193,2.221,7.581,1.434,9.803-1.758C240.613,387.83,239.826,383.441,236.634,381.22z"/>
							<path style="fill:#4217A6;" d="M206.203,372.663c-2.221,3.192-1.434,7.581,1.758,9.802c3.192,2.222,7.582,1.434,9.803-1.758         c2.221-3.193,1.434-7.581-1.758-9.803C212.814,368.683,208.425,369.47,206.203,372.663z"/>
							<path style="fill:#4217A6;" d="M236.629,443.105c-3.192-2.222-7.581-1.435-9.803,1.758c-2.221,3.193-1.434,7.581,1.758,9.803         c3.192,2.221,7.581,1.434,9.803-1.758C240.608,449.716,239.821,445.327,236.629,443.105z"/>
							<path style="fill:#4217A6;" d="M236.63,422.477c-3.192-2.221-7.581-1.434-9.803,1.758c-2.221,3.192-1.434,7.582,1.758,9.803         c3.192,2.221,7.581,1.434,9.803-1.758C240.61,429.087,239.823,424.698,236.63,422.477z"/>
							<path style="fill:#4217A6;" d="M206.2,413.919c-2.221,3.192-1.434,7.581,1.758,9.802c3.192,2.222,7.581,1.435,9.803-1.758         c2.221-3.192,1.434-7.581-1.758-9.803C212.81,409.939,208.422,410.727,206.2,413.919z"/>
							<path style="fill:#4217A6;" d="M215.999,453.418c-2.188-1.522-4.924-1.601-7.153-0.492c1.413,0.536,2.802,1.039,4.136,1.489         c1.769,0.597,3.534,1.164,5.295,1.707C217.768,455.076,217.022,454.129,215.999,453.418z"/>
							<path style="fill:#4217A6;" d="M207.963,361.837c3.192,2.221,7.582,1.434,9.803-1.758c2.221-3.192,1.434-7.581-1.758-9.803         c-3.192-2.221-7.581-1.434-9.803,1.758C203.983,355.226,204.771,359.615,207.963,361.837z"/>
							<path style="fill:#4217A6;" d="M195.994,361.115c-0.351,1.722-0.828,3.807-1.512,6.379c-0.531,1.998-1.075,3.889-1.622,5.733         c1.673-0.366,3.222-1.32,4.277-2.837C199.201,367.425,198.639,363.449,195.994,361.115z"/>
							<path style="fill:#4217A6;" d="M217.767,339.45c1.095-1.573,1.452-3.436,1.158-5.187c-2.905,2.794-5.806,5.454-8.67,7.97         C213.018,342.934,216.043,341.928,217.767,339.45z"/>
							<path style="fill:#4217A6;" d="M207.96,403.093c3.192,2.221,7.581,1.434,9.803-1.758c2.221-3.192,1.434-7.581-1.758-9.803         c-3.192-2.221-7.581-1.434-9.803,1.758C203.98,396.483,204.767,400.872,207.96,403.093z"/>
							<path style="fill:#4217A6;" d="M195.375,401.845c-3.193-2.221-7.581-1.434-9.803,1.758c-2.222,3.193-1.434,7.581,1.758,9.803         c3.193,2.221,7.581,1.435,9.803-1.758C199.355,408.456,198.568,404.067,195.375,401.845z"/>
							<path style="fill:#4217A6;" d="M197.135,391.02c2.222-3.193,1.434-7.582-1.758-9.803c-1.418-0.987-3.069-1.348-4.665-1.2         c-1.486,4.402-2.989,8.327-4.459,11.836c0.322,0.337,0.681,0.648,1.079,0.924         C190.525,394.999,194.913,394.212,197.135,391.02z"/>
							<path style="fill:#4217A6;" d="M207.956,444.35c3.192,2.222,7.581,1.434,9.803-1.758c2.221-3.193,1.434-7.582-1.758-9.803         c-3.193-2.222-7.581-1.435-9.803,1.758C203.977,437.74,204.764,442.129,207.956,444.35z"/>
							<path style="fill:#4217A6;" d="M195.372,443.102c-2.141-1.489-4.808-1.598-7.01-0.564c3.14,2.139,6.535,4.075,9.976,5.796         C198.178,446.304,197.174,444.356,195.372,443.102z"/>
							<path style="fill:#4217A6;" d="M197.132,432.276c2.222-3.193,1.434-7.581-1.758-9.803c-3.193-2.221-7.582-1.434-9.803,1.758         c-2.222,3.192-1.434,7.581,1.758,9.803C190.521,436.256,194.91,435.468,197.132,432.276z"/>
							<path style="fill:#4217A6;" d="M173.559,424.359c1.145-0.504,2.178-1.297,2.945-2.399c1.873-2.691,1.585-6.218-0.457-8.594         C174.132,417.583,173.11,420.956,173.559,424.359z"/>
							<path style="fill:#4217A6;" d="M226.844,217.951c-2.221,3.193-1.434,7.582,1.758,9.803c2.02,1.406,4.516,1.6,6.642,0.749         c-2.175-5.12-3.892-9.437-5.249-13.053C228.765,215.943,227.657,216.782,226.844,217.951z"/>
							<path style="fill:#4217A6;" d="M206.216,207.635c-2.222,3.192-1.434,7.582,1.758,9.803c3.193,2.221,7.582,1.435,9.803-1.758         c2.221-3.192,1.434-7.581-1.758-9.803C212.827,203.656,208.438,204.443,206.216,207.635z"/>
							<path style="fill:#4217A6;" d="M254.809,266.687c-2.676-0.607-5.561,0.391-7.26,2.742c1.968-0.762,3.872-1.403,5.661-1.862         C254.263,267.297,254.791,267.15,254.809,266.687z"/>
							<path style="fill:#4217A6;" d="M226.839,279.836c-0.095,0.136-0.153,0.285-0.236,0.425c1.908-1.162,3.85-2.308,5.806-3.419         C230.258,276.909,228.163,277.934,226.839,279.836z"/>
							<path style="fill:#4217A6;" d="M249.228,258.698c0.4,0.279,0.82,0.509,1.252,0.695c-1.162-1.918-2.557-4.334-4.182-7.379         C245.972,254.535,246.997,257.145,249.228,258.698z"/>
							<path style="fill:#4217A6;" d="M236.643,257.45c-3.192-2.221-7.581-1.434-9.803,1.758c-2.221,3.192-1.434,7.582,1.758,9.803         c3.192,2.221,7.581,1.434,9.803-1.758C240.623,264.06,239.836,259.671,236.643,257.45z"/>
							<path style="fill:#4217A6;" d="M216.016,247.134c-3.192-2.221-7.581-1.435-9.803,1.758c-2.222,3.192-1.434,7.581,1.758,9.803         c1.069,0.744,2.274,1.122,3.485,1.213c0.726-2.16,1.546-4.215,2.475-6.07c0.121-0.241,0.319-0.575,0.676-0.356         c0.379,0.233-0.737,2.312-2.179,6.43c2.071-0.13,4.069-1.14,5.346-2.976C219.995,253.744,219.208,249.355,216.016,247.134z"/>
							<path style="fill:#4217A6;" d="M228.601,248.382c3.192,2.222,7.581,1.434,9.803-1.758c2.221-3.193,1.434-7.581-1.758-9.803         c-3.192-2.222-7.581-1.435-9.803,1.758C224.621,241.772,225.408,246.161,228.601,248.382z"/>
							<path style="fill:#4217A6;" d="M207.657,288.661c-0.009,0.448-0.033,0.867-0.037,1.325c-0.006,0.602-0.071,1.289,0.534,1.659         c0.725,0.442,1.161-0.1,2.584-1.07c1.287-0.879,2.685-1.824,4.154-2.807C212.487,286.676,209.7,287.055,207.657,288.661z"/>
							<path style="fill:#4217A6;" d="M217.775,236.308c2.221-3.192,1.434-7.581-1.758-9.803c-3.192-2.222-7.581-1.434-9.803,1.758         c-2.222,3.193-1.434,7.581,1.758,9.803C211.165,240.288,215.554,239.501,217.775,236.308z"/>
							<path style="fill:#4217A6;" d="M187.345,227.75c3.192,2.222,7.581,1.435,9.803-1.758c2.221-3.192,1.434-7.582-1.758-9.803         c-1.343-0.935-2.896-1.307-4.413-1.221c-2.219,1.733-4.372,3.527-6.452,5.39C183.883,223.088,184.904,226.052,187.345,227.75         z"/>
							<path style="fill:#4217A6;" d="M206.211,269.52c-2.081,2.991-1.493,7.01,1.212,9.335c0.444-3.706,1.113-7.825,2.056-11.888         C208.202,267.453,207.051,268.314,206.211,269.52z"/>
							<path style="fill:#4217A6;" d="M217.772,277.565c2.221-3.192,1.434-7.581-1.758-9.803c-1.701-1.183-3.736-1.489-5.607-1.055         c-0.874,3.496-1.672,7.734-2.192,12.752C211.384,281.482,215.605,280.679,217.772,277.565z"/>
							<path style="fill:#4217A6;" d="M174.757,267.759c-3.192-2.222-7.581-1.434-9.803,1.758c-2.221,3.193-1.434,7.582,1.758,9.803         c3.192,2.221,7.581,1.435,9.803-1.758C178.737,274.369,177.95,269.981,174.757,267.759z"/>
							<path style="fill:#4217A6;" d="M187.342,269.007c3.192,2.221,7.581,1.434,9.803-1.758c2.222-3.192,1.435-7.582-1.758-9.803         c-3.193-2.221-7.581-1.434-9.803,1.758C183.363,262.397,184.15,266.786,187.342,269.007z"/>
							<path style="fill:#4217A6;" d="M187.344,248.379c3.192,2.222,7.581,1.434,9.803-1.758c2.222-3.193,1.435-7.581-1.758-9.803         c-3.193-2.222-7.581-1.434-9.803,1.758C183.364,241.768,184.151,246.157,187.344,248.379z"/>
							<path style="fill:#4217A6;" d="M175.672,309.802c-0.283-0.28-0.579-0.551-0.917-0.786c-1.602-1.114-3.504-1.47-5.283-1.146         C171.494,308.617,173.561,309.26,175.672,309.802z"/>
							<path style="fill:#4217A6;" d="M206.909,291.937c-0.112-0.422-0.177-1.25-0.193-2.379c-0.171,0.195-0.355,0.373-0.507,0.591         c-0.937,1.346-1.308,2.903-1.22,4.422c0.222-0.153,0.428-0.296,0.654-0.451C206.528,293.512,207.185,292.982,206.909,291.937         z"/>
							<path style="fill:#4217A6;" d="M195.383,298.703c-3.193-2.221-7.581-1.434-9.803,1.758c-1.776,2.552-1.601,5.853,0.161,8.216         c2.055-1.628,5.381-4.265,11.192-8.445C196.501,299.663,196.002,299.134,195.383,298.703z"/>
							<path style="fill:#4217A6;" d="M174.756,288.387c-3.192-2.221-7.582-1.434-9.803,1.758c-2.221,3.192-1.434,7.581,1.758,9.803         c3.192,2.221,7.581,1.434,9.803-1.758C178.735,294.998,177.948,290.609,174.756,288.387z"/>
							<path style="fill:#4217A6;" d="M187.34,289.635c3.192,2.222,7.581,1.435,9.803-1.758c2.222-3.192,1.435-7.581-1.758-9.803         c-3.193-2.222-7.581-1.434-9.803,1.758C183.361,283.026,184.148,287.414,187.34,289.635z"/>
							<path style="fill:#4217A6;" d="M167.328,238.403c3.122,1.741,7.105,0.898,9.191-2.098c1.748-2.513,1.608-5.751-0.076-8.106         C173.308,231.466,170.287,234.874,167.328,238.403z"/>
							<path style="fill:#4217A6;" d="M166.714,258.692c3.193,2.221,7.581,1.434,9.803-1.758c2.221-3.193,1.434-7.581-1.758-9.803         c-3.192-2.221-7.581-1.435-9.803,1.758C162.735,252.081,163.522,256.47,166.714,258.692z"/>
							<path style="fill:#4217A6;" d="M146.085,269.004c3.192,2.221,7.581,1.434,9.803-1.758c2.221-3.193,1.434-7.582-1.758-9.803         c-0.395-0.275-0.808-0.502-1.233-0.686c-2.699,3.568-5.427,7.201-8.231,10.887         C145.073,268.146,145.529,268.617,146.085,269.004z"/>
							<path style="fill:#4217A6;" d="M154.127,298.7c-1.069-0.744-2.273-1.122-3.485-1.213c0.954,0.683,1.912,1.356,2.874,2.016         c0.95,0.652,1.911,1.279,2.881,1.886C155.887,300.349,155.144,299.408,154.127,298.7z"/>
							<path style="fill:#4217A6;" d="M146.084,289.632c3.192,2.222,7.581,1.435,9.803-1.758c2.222-3.192,1.435-7.581-1.758-9.803         c-3.193-2.222-7.581-1.434-9.803,1.758C142.104,283.022,142.891,287.411,146.084,289.632z"/>
							<path style="fill:#4217A6;" d="M413.895,279.033c-0.054-0.137-0.107-0.275-0.181-0.412c-0.179-0.332-0.957-1.423-2.152-3.038         C411.961,276.909,412.747,278.114,413.895,279.033z"/>
							<path style="fill:#4217A6;" d="M391.868,259.221c-2.221,3.192-1.434,7.581,1.758,9.803c3.192,2.221,7.581,1.434,9.803-1.758         c0.319-0.459,0.559-0.947,0.756-1.445c-2.331-3.052-4.862-6.346-7.329-9.545         C394.914,256.496,393.071,257.491,391.868,259.221z"/>
							<path style="fill:#4217A6;" d="M381.043,247.147c-3.193-2.221-7.581-1.435-9.803,1.758c-2.222,3.192-1.434,7.581,1.758,9.803         c3.192,2.221,7.582,1.434,9.803-1.758C385.022,253.757,384.235,249.368,381.043,247.147z"/>
							<path style="fill:#4217A6;" d="M371.47,310.516c2.907-0.63,5.593-1.378,8.106-2.245         C376.721,307.152,373.409,308.014,371.47,310.516z"/>
							<path style="fill:#4217A6;" d="M391.864,300.478c-0.587,0.844-0.951,1.772-1.129,2.721c2.364-1.349,4.686-2.825,7.049-4.457         c0.495-0.342,1.004-0.709,1.512-1.071C396.556,297.009,393.572,298.024,391.864,300.478z"/>
							<path style="fill:#4217A6;" d="M381.04,288.404c-3.193-2.221-7.581-1.434-9.803,1.758c-2.222,3.192-1.434,7.581,1.758,9.803         c3.192,2.221,7.581,1.434,9.803-1.758C385.019,295.014,384.232,290.625,381.04,288.404z"/>
							<path style="fill:#4217A6;" d="M393.624,289.652c3.192,2.222,7.581,1.435,9.803-1.758c2.221-3.193,1.434-7.582-1.758-9.803         c-3.192-2.222-7.581-1.434-9.803,1.758C389.645,283.042,390.432,287.431,393.624,289.652z"/>
							<path style="fill:#4217A6;" d="M373,238.079c2.831,1.97,6.594,1.565,8.961-0.775c-3.055-3.648-6.185-7.119-9.42-10.4         c-0.478,0.397-0.927,0.838-1.299,1.373C369.02,231.469,369.807,235.858,373,238.079z"/>
							<path style="fill:#4217A6;" d="M352.372,227.763c3.193,2.222,7.581,1.435,9.803-1.758c2.222-3.192,1.435-7.581-1.758-9.803         c-3.192-2.222-7.581-1.434-9.803,1.758C348.393,221.154,349.18,225.542,352.372,227.763z"/>
							<path style="fill:#4217A6;" d="M329.986,207.645c-2.221,3.193-1.434,7.582,1.758,9.803c3.193,2.221,7.581,1.435,9.803-1.758         c2.221-3.192,1.434-7.581-1.758-9.803C336.597,203.665,332.208,204.453,329.986,207.645z"/>
							<path style="fill:#4217A6;" d="M382.799,277.578c2.222-3.193,1.434-7.581-1.758-9.803c-3.193-2.221-7.581-1.434-9.803,1.758         c-2.222,3.192-1.434,7.581,1.758,9.803C376.189,281.558,380.578,280.771,382.799,277.578z"/>
							<path style="fill:#4217A6;" d="M342.37,275.903c0.812-2.284,0.383-4.818-1.12-6.712         C341.68,271.378,342.058,273.655,342.37,275.903z"/>
							<path style="fill:#4217A6;" d="M352.369,269.02c3.193,2.221,7.581,1.434,9.803-1.758c2.222-3.192,1.434-7.581-1.758-9.803         c-3.192-2.222-7.581-1.434-9.803,1.758C348.389,262.41,349.177,266.799,352.369,269.02z"/>
							<path style="fill:#4217A6;" d="M352.371,248.392c3.193,2.222,7.581,1.434,9.803-1.758c2.222-3.193,1.435-7.581-1.758-9.803         c-3.192-2.222-7.581-1.435-9.803,1.758C348.391,241.781,349.178,246.171,352.371,248.392z"/>
							<path style="fill:#4217A6;" d="M360.41,298.716c-2.709-1.886-6.268-1.584-8.645,0.496c2.747,1.973,6.336,4.609,11.028,8.183         C364.169,304.361,363.243,300.687,360.41,298.716z"/>
							<path style="fill:#4217A6;" d="M352.367,289.649c3.193,2.222,7.581,1.435,9.803-1.758c2.222-3.193,1.434-7.582-1.758-9.803         c-3.192-2.222-7.581-1.434-9.803,1.758C348.388,283.039,349.175,287.427,352.367,289.649z"/>
							<path style="fill:#4217A6;" d="M331.743,238.076c3.192,2.221,7.581,1.434,9.803-1.758c2.221-3.192,1.434-7.581-1.758-9.803         c-3.192-2.221-7.581-1.434-9.803,1.758C327.764,231.466,328.551,235.855,331.743,238.076z"/>
							<path style="fill:#4217A6;" d="M319.158,236.828c-2.363-1.645-5.379-1.632-7.689-0.223c-1.071,2.384-2.165,4.741-3.281,7.054         c0.279,1.846,1.272,3.579,2.925,4.729c3.193,2.222,7.581,1.434,9.803-1.758C323.138,243.438,322.351,239.05,319.158,236.828z         "/>
							<path style="fill:#4217A6;" d="M320.918,226.002c2.087-2.999,1.49-7.03-1.232-9.352c-1.505,3.999-3.156,8.158-4.911,12.343         C317.123,229.112,319.477,228.074,320.918,226.002z"/>
							<path style="fill:#4217A6;" d="M331.74,279.333c3.192,2.222,7.581,1.435,9.803-1.758c0.045-0.065,0.071-0.138,0.114-0.204         c-0.351-2.69-0.785-5.371-1.334-8.042c-0.097-0.471-0.195-0.901-0.292-1.345c-0.087-0.067-0.155-0.148-0.246-0.211         c-3.192-2.221-7.581-1.434-9.803,1.758C327.76,272.723,328.547,277.111,331.74,279.333z"/>
							<path style="fill:#4217A6;" d="M295.42,266.597c0.172,0.547,1.247,0.811,3.58,1.577c-0.16-0.134-0.299-0.284-0.473-0.405         C297.57,267.102,296.503,266.739,295.42,266.597z"/>
							<path style="fill:#4217A6;" d="M329.983,248.902c-2.221,3.192-1.434,7.581,1.758,9.803c1.825,1.27,4.033,1.526,6.012,0.942         c-1.61-4.711-2.766-6.1-2.217-6.35c0.342-0.155,0.64,0.291,0.783,0.637c0.75,1.809,1.524,3.61,2.232,5.435         c1.165-0.502,2.216-1.305,2.994-2.423c2.221-3.193,1.434-7.582-1.758-9.803C336.594,244.923,332.205,245.709,329.983,248.902         z"/>
							<path style="fill:#4217A6;" d="M319.157,257.456c-3.192-2.222-7.581-1.434-9.803,1.758c-2.222,3.193-1.434,7.582,1.758,9.803         c3.193,2.221,7.581,1.434,9.803-1.758C323.136,264.067,322.349,259.678,319.157,257.456z"/>
							<path style="fill:#4217A6;" d="M342.207,291.396c-0.502-1.165-1.306-2.217-2.424-2.996c-1.597-1.111-3.494-1.469-5.269-1.15         C340.431,291.194,341.836,292.422,342.207,291.396z"/>
						</g>
						<g>
							<path style="fill:#4217A6;" d="M205.633,430.718c38.323,20.334,99.013,21.654,138.914-0.093         c17.678-9.326,19.517-16.17,21.851-13.557c0.55,0.615,0.524,1.548-0.027,2.141c-43.471,46.261-143.826,43.388-182.396-0.121         c-1.251-1.411,0.759-3.359,2.13-2.077C186.104,417.011,198.259,426.919,205.633,430.718z"/>
							<path style="fill:#4217A6;" d="M304.174,347.85c-13.274,24.147-38.85,46.506-65.386,56.267         c-1.809,0.665-3.011-1.877-1.36-2.859c54.553-32.481,62.376-58.582,66.385-55.283         C304.377,346.44,304.512,347.233,304.174,347.85z"/>
							<path style="fill:#4217A6;" d="M309.828,389.695c-11.893,14.894-33.909,26.09-53.658,26.458         c-0.882,0.017-1.61-0.685-1.626-1.567c-0.041-2.165,1.97-1.24,15.099-6.061c31.759-11.822,37.722-24.082,40.224-20.653         C310.274,388.43,310.236,389.18,309.828,389.695z"/>
							<path style="fill:#4217A6;" d="M401.982,272.887c-2.579,3.719-5.705,7.042-9.121,10.024         c-9.836,8.666-23.913,15.286-36.704,16.396c-1.814,0.158-2.441-2.38-0.735-3.079c4.043-1.651,8.006-3.274,11.884-5.061         c8.618-4.024,14.85-7.62,22.142-12.621c10.184-7.057,11.043-9.284,12.483-7.444         C402.345,271.631,402.342,272.359,401.982,272.887z"/>
							<path style="fill:#4217A6;" d="M150.535,270.829c31.961,24.878,46.224,23.618,44.412,27.684         c-0.291,0.654-0.978,1.015-1.653,0.938c-16.347-1.958-35.502-12.765-44.935-26.591c-0.965-1.414,0.82-3.086,2.167-2.039         L150.535,270.829z"/>
						</g>
						<g style="opacity:0.25;">
							<path style="fill:#000E3F;" d="M324.864,328.401c0.476-0.213,1.116,0.536,1.783,1.199         c24.336,24.198,25.877,21.213,26.349,24.391c3.448,23.245,12.188,41.212,21.698,60.424         c13.076,26.416-43.414,44.007-72.468,48.608c-19.559,3.097-34.539,4.618-66.406-2.351         c-15.267-3.339-35.167-9.676-47.528-18.422c-0.694-0.491-0.705-0.811-0.082-1.486c37.466-40.565,128.23,23.435,139.77-50.434         C331.537,367.567,323.266,329.117,324.864,328.401z"/>
							<path style="fill:#000E3F;" d="M324.593,279.764c1.277-6.991,5.772-22.698,9.519-26.666c0.943-0.999,2.056-1.259,3.335-0.783         c11.072,4.114,18.268,18.626,24.111,25.93c7.539,9.423,17.719,17.376,29.721,19.055c2.158,0.302,4.356,0.849,6.586,0.421         c0.387-0.074,0.669,0.434,0.221,0.746c-8.633,6.001-16.484,10.223-28.696,12.503c-2.93,0.547-0.928-0.155-25.584-17.426         c-1.519-1.064,0.46-1.429-0.486-7.268c-0.416-2.568,0.474-4.256-2.42-18.561c-0.416-2.054-3.765-14.732-5.43-14.366         c-0.937,0.206,3.263,4.101,6.029,22.828c0.97,6.567,0.995,13.016,0.83,14.817c-0.111,1.21-1.099,0.847-2.091,0.145         c-7.681-5.434-12.007-7.906-15.112-9.924C324.619,280.884,324.427,280.432,324.593,279.764z"/>
							<path style="fill:#000E3F;" d="M181.591,311.063c-1.421-0.278-2.851-0.514-4.26-0.84         c-13.849-3.202-28.053-12.704-24.993-12.512c6.86,0.43,16.453-1.994,25.254-8.548c11.545-8.598,15.372-18.196,22.668-27.002         c3.369-4.066,8.273-8.656,13.322-10.032c0.691-0.188,1.375-0.002,1.643,0.776c0.02,0.057-0.177,0.266-0.284,0.275         c-0.852,0.068-1.093,0.739-1.373,1.362c-6.208,13.813-7.432,34.719-6.647,37.469c0.286,1.004-0.467,1.555-1.334,2.15         c-12.663,8.687-21.401,15.811-22.683,16.619C182.508,311.027,182.07,311.154,181.591,311.063z"/>
						</g>
						<path style="fill:#FFCF00;" d="M321.63,205.91c-5.717,14.911-18.628,43.75-27.156,54.97c-0.74,0.965-1.443,1.642-2.885,1.777        c-2.163,0.186-3.516,1.591-4.201,3.486c-1.659,4.637,0.847,5.788-1.082,8.056c-2.398,2.826-2.759,4.722-8.204,9.748        c-2.56,2.369-3.372,2.251-5.139,0.744c-4.29-3.639-6.273-6.77-9.338-10.799c-0.523-0.694-0.739-1.202-0.324-3.097        c0.685-3.148-6.616-8.649-7.139-9.343c-12.295-16.604-20.893-36.339-27.707-55.651c10.925,5.789,27.783,9.497,46.677,9.499        C293.936,215.301,310.704,211.63,321.63,205.91z"/>
						<g style="opacity:0.35;">
							<g>
								<path style="fill:#FC09B2;" d="M253.111,293.353c-15.056,23.004-45.42,51.182-60.89,62.142          c-32.563,23.093-49.023,11.643-48.84-17.546c3.966-1.478,8.87-0.558,13.27-0.143c11.25,1.083,22.609-2.035,32.706-7.299          c10.079-5.282,19.022-12.637,27.46-20.443c5.157-4.759,10.223-9.771,16.245-13.322c6.022-3.533,13.234-5.516,19.923-3.695          L253.111,293.353z"/>
							</g>
							<g>
								<path style="fill:#FC09B2;" d="M406.501,338.205c0,0.18,0,0.361-0.018,0.541c-0.002,26.485-14.084,34.813-32.545,26.392          c-22.373-10.206-60.448-46.611-77.123-72.214c6.545-1.586,13.54,0.38,19.417,3.824c6.022,3.552,11.088,8.565,16.243,13.325          c8.437,7.807,17.379,15.164,27.457,20.448c10.096,5.265,21.454,8.385,32.705,7.304          C397.252,337.374,402.427,336.401,406.501,338.205z"/>
							</g>
						</g>
					</g>
					<path style="fill:#000E3F;" d="M357.002,357.149c0.201,0.184,0.4,0.365,0.613,0.512c4.953,3.456,9.854,6.764,15.328,9.248       c10.071,4.555,18.71,4.596,24.988,0.117c8.189-5.843,11.963-19.028,10.355-36.175c-1.784-19.137-4.534-26.152-5.856-29.522       c-0.982-2.505-0.982-2.505,1.411-4.521c1.368-1.152,3.434-2.892,6.436-5.947c1.804-1.822,3.204-3.915,4.451-5.906       c2.049-3.319,1.852-6.416-0.602-9.466c-4.686-5.848-9.125-11.757-13.417-17.471c-22.023-29.32-42.825-57.013-91.455-68.247       c-18.743-4.322-43.231-3.68-55.115-2.192c-21.254,2.658-41.685,10.041-57.529,20.788       c-19.694,13.355-32.937,30.854-46.956,49.381l-1.397,1.846c-2.874,3.796-5.276,6.852-7.206,9.307       c-6.026,7.663-7.845,9.976-6.877,12.909c2.329,7.044,8.154,11.715,13.293,15.836l0.561,0.45       c0.586,0.474,0.621,0.502-0.339,3.434c-0.243,0.743-0.543,1.658-0.898,2.797c-0.908,2.97-1.665,5.779-2.314,8.589       c-4.535,19.839-5.011,46.038,8.574,54.581c13.533,8.527,31.246-4.058,38.811-9.432c1.202-0.854,2.171-1.543,2.797-1.913       c0.539,2.472-4.978,25.393-16.212,47.806c-0.987,1.97-1.843,3.637-2.581,5.079c-3.325,6.484-4.329,8.441-4.435,12.795       c-0.112,4.946,2.172,10.04,6.606,14.734c10.413,11.037,25.958,16.942,41.206,21.681c19.895,6.195,37.739,9.266,55.647,9.267       c15.329,0.001,30.705-2.248,47.447-6.712c12.518-3.344,28.589-8.351,41.869-17.465c15.018-10.341,15.739-20.114,13.699-26.494       c-0.632-1.967-1.854-4.335-3.546-7.612c-2.642-5.117-6.262-12.125-10.45-22.951c-5.268-13.614-8.493-27.838-8.282-29.855       C356.18,356.378,356.566,356.75,357.002,357.149z M326.361,200.768c0.311-1.097,0.535-1.89,0.768-2.004       c0.132-0.065,0.46,0.055,0.698,0.15c34.008,13.387,47.814,31.508,68.712,58.937c1.659,2.179,3.362,4.413,5.121,6.706       c2.246,2.927,4.09,5.274,5.59,7.181c5.863,7.462,6.342,8.071,5.167,10.566c-6.148,13.065-28.955,24.773-42.6,27.417       c-1.718,0.334-1.834,0.279-6.1-3.014c-3.181-2.456-8.506-6.568-18.396-13.444c-0.859-0.598-0.871-1.011-0.793-3.105       c0.108-2.921,0.312-8.358-2.032-20.502c-1.278-6.709-3.029-12.226-5.206-16.396c-0.325-0.633-0.874-1.113-1.432-1.251       c-0.114-0.029-0.228-0.043-0.339-0.043c-0.27,0-0.528,0.083-0.762,0.247c-1.087,0.781-0.53,1.984,0.01,3.152       c4.745,9.947,6.704,26.106,6.58,34.4c-0.01,0.43-0.046,0.555-0.006,0.555c-0.003,0-0.006,0-0.009,0       c-0.296,0-1.439-0.79-3.013-1.878c-0.575-0.397-1.242-0.858-2.015-1.383c-24.482-16.722-35.142-19.574-38.644-20.512       c-0.445-0.119-0.762-0.203-0.967-0.283c-0.005-0.001-0.008-0.003-0.011-0.005c0.096-0.194,0.362-0.583,0.684-1.053       c1.495-2.187,5.467-7.995,13.029-23.562c4.133-8.508,10.413-23.584,15.131-38.087       C325.896,202.409,326.156,201.492,326.361,200.768z M228.458,196.734c11.771-3.813,22.128-5.972,31.663-6.597       c21.065-1.392,39.637-0.782,61.874,6.739c2.044,0.691,2.044,0.691,1.576,2.12c-0.074,0.227-0.159,0.484-0.248,0.775       c-0.368,1.196-0.859,2.667-1.447,4.343c-0.174,0.037-0.348,0.072-0.512,0.163c-11.292,6.297-28.143,9.908-46.233,9.906       c-18.214-0.001-35.129-3.654-46.405-10.019c-0.154-0.087-0.319-0.119-0.483-0.157c-0.461-1.409-0.941-2.851-1.374-4.209       C226.138,197.475,226.138,197.475,228.458,196.734z M144.15,290.77L144.15,290.77c-2.794-2.517-4.43-4.921-6.311-8.224       c-0.906-1.578-0.808-3.051,0.3-4.506c2.767-3.623,5.586-7.394,8.313-11.04c21.227-28.389,43.177-57.744,76.452-68.267       c0.138-0.043,0.18-0.042,0.18-0.044c0.164,0.103,0.45,1.051,0.846,2.363c1.017,3.372,3.135,10.387,9.165,25.365       c6.135,15.212,12.742,28.231,19.636,38.697c0.306,0.465,0.57,0.866,0.625,0.988c-0.091,0.187-1.061,0.504-2.087,0.84       c-4.579,1.5-16.743,5.482-41.452,22.884c-0.648,0.45-0.848,0.485-0.84,0.522c0-0.001-0.016-0.033-0.018-0.128       c-0.209-7.743,1.56-20.278,4.027-28.536c0.34-1.152,1.11-3.342,2.845-7.227l0.088-0.201c0.347-0.981-0.101-1.811-0.723-2.125       c-0.548-0.276-1.424-0.241-2.097,0.757c-4.54,6.754-8.641,32.597-7.505,38.975c0.146,0.779,0.146,0.779-2.177,2.384       c-1.038,0.717-2.46,1.699-4.462,3.173c-4.467,3.29-7.742,5.736-10.167,7.548c-6.796,5.077-6.81,5.07-7.755,4.845l-0.134-0.033       c-0.78-0.19-1.563-0.371-2.344-0.551c-1.344-0.311-2.734-0.632-4.083-0.997C164.574,305.527,153.24,298.999,144.15,290.77z        M179.608,362.119c-9.266,5.058-17.312,6.28-23.265,3.534c-5.232-2.412-8.881-7.897-10.554-15.861       c-0.822-3.897-1.155-7.513-1.019-11.056c0.18-6.211,0.609-11.707,1.315-16.801c1.09-7.866,4.125-18.394,5.115-20.732       c0.137-0.327,0.235-0.416,0.293-0.433c0.016-0.004,0.034-0.007,0.055-0.007c0.292,0,1.012,0.486,1.909,1.091       c0.864,0.582,2.045,1.38,3.665,2.333c9.57,5.606,16.11,7.124,19.252,7.854c0.997,0.232,1.938,0.45,2.056,0.593       c0.008,0.026,0.016,0.049,0.026,0.077c-0.218,0.267-1.308,1.123-3.721,3.017c-2.35,1.843-6.282,4.929-12.482,9.88       c-0.505,0.398-0.815,0.754-0.978,1.12c-0.225,0.504-0.15,1.014,0.214,1.475c0.592,0.759,1.459,0.822,2.322,0.175       c1.32-0.995,3.44-2.662,6.124-4.773c17.312-13.611,63.298-49.766,85.217-54.327c2.249-0.456,3.904-0.435,4.669,1.155       C267.273,285.95,208.929,346.135,179.608,362.119z M362.01,390.227c4.326,10.48,7.551,16.681,9.686,20.785       c3.05,5.864,4.078,7.84,3.646,12.709c-0.383,4.41-3.016,8.719-8.049,13.174c-3.118,2.765-6.872,5.35-11.475,7.906       c-25.57,14.206-70.498,24.67-113.231,16.016c-20.667-4.186-42.048-9.867-58.403-22.973c-5.767-4.628-8.867-9.374-9.476-14.511       c-0.479-3.962,0.802-6.462,3.894-12.504c0.977-1.907,2.193-4.283,3.575-7.145c10.982-22.758,15.433-42.115,15.867-47.913       c0.016-0.144,0.049-0.273,0.085-0.422c0.386-2.027,0.386-2.027,2.013-3.297c11.852-9.143,22.472-19.16,34.432-32.476       c9.414-10.474,36.159-40.587,27.435-51.625c-1.006-1.273-2.327-1.97-3.815-2.016c-0.851-0.032-1.281-0.411-1.736-1.054       c-12.35-17.777-20.637-38.435-26.636-56.128c11.687,5.746,27.933,9.038,45.311,9.039c17.197,0.001,33.324-3.229,45.002-8.873       c-2.292,6.141-22.112,56.444-28.578,57.092c-4.124,0.377-5.557,5.259-4.97,9.322c0.817,5.645,4.144,11.018,7.063,15.828       c3.264,5.378,6.938,10.503,10.812,15.456c8.148,10.419,17.197,20.154,26.766,29.278c5.901,5.627,12.015,11.109,18.553,15.993       c0.16,0.12,0.321,0.229,0.479,0.337c0.822,0.56,1.472,1.002,1.723,2.794C353.515,366.301,358.123,380.833,362.01,390.227z        M320.486,320.435c-26.959-28.687-36.746-51.406-27.284-51.394c8.743,0.001,29.987,11.945,60.139,33.843       c16.05,11.636,24.349,18.477,28.807,22.152c4.476,3.691,5.28,4.355,6.264,3.441c0.391-0.366,0.57-0.741,0.549-1.148       c-0.057-1.106-1.554-2.245-5.171-4.997c-2.687-2.045-6.715-5.108-11.996-9.618c0.499-0.191,1.299-0.4,2.299-0.66       c4.212-1.098,12.05-3.144,22.008-9.754c0.255-0.168,0.503-0.348,0.749-0.526c0.602-0.438,1.175-0.853,1.835-1.084       c1.56,2.485,6.184,20.1,6.338,30.235v0.002c0.005,0.229,0.045,0.637,0.099,1.201c0.338,3.478,1.238,12.714-1.94,21.95       c-1.959,5.733-5.064,9.614-9.224,11.538c-4.802,2.218-10.99,1.865-18.393-1.049       C362.874,359.586,340.224,341.438,320.486,320.435z"/>
				</g>
				<g>
					<g>
						<path style="fill:#FFBBEC;" d="M301.582,291.044c7.436-1.178,9.098-1.533,10.205-5.583        c4.566-16.698-9.013-37.813-20.118-51.179c-1.961-2.361-6.382-7.059-9.368-7.939c-1.877-0.553-2.013,2.517-1.872,4.458        c0.154,2.119,0.787,4.133,1.324,6.172c1.139,4.325,3.329,3.951,10.304,12.464c0.057,0.069-0.002,0.318-0.087,0.395        c-0.087,0.079-0.342,0.119-0.404,0.057c-5.069-5.1-22.156-23.393-30.754-27.981c-2.374-1.267-3.548-0.788-4.454,1.705        c-0.36,0.99-0.452,1.94-0.278,2.977c0.631,3.76,0.59,3.79,3.549,6.206c6.266,5.116,20.99,19.233,22.155,20.515        c0.178,0.197-0.253,0.424-0.366,0.389c-1.929-0.6-24.605-25.158-34.623-28.308c-1.659-0.521-2.491-0.018-2.904,1.691        c-0.624,2.587,0.438,5.218,1.519,7.917c0.246,0.614,0.696,0.985,1.227,1.353c9.003,6.226,15.943,12.478,27.016,22.067        c0.266,0.231,0.927,0.78,0.756,1.068c-0.753,1.268-20.936-18.866-30.305-23.463c-1.616-0.793-2.801-0.493-2.651,1.932        c0.395,6.379,6.16,11.985,11.166,16.119c13.566,11.205,14.538,10.924,14.52,12.157c-0.704,0.06-0.413,0.277-6.767-4.795        c-2.161-1.725-14.768-8.675-18.175-8.117c-2.22,0.363-3.137,2.263-1.908,4.152c0.85,1.306,1.806,2.573,3.021,3.565        c2.318,1.891,8.651,8.877,21.891,18.309c3.5,2.493,7.234,4.594,10.873,6.858c4.51,2.806,9.425,4.479,14.461,5.888        C292.207,292.562,299.334,291.401,301.582,291.044z"/>
						<path style="fill:#000E3F;" d="M314.643,277.241c-0.367-11.018-5.81-21.811-10.312-28.924        c-3.084-4.873-11.036-16.801-18.241-22.284c-1.938-1.476-3.975-2.071-5.442-1.579c-0.997,0.331-1.706,1.141-2.05,2.343        c-0.61,2.142-0.307,4.087-0.086,5.508c0.092,0.593,0.177,1.132,0.172,1.549c-0.473-0.408-1.272-1.139-2.101-1.901        c-7.537-6.914-14.941-13.235-18.161-12.863c-3.903,0.483-4.166,3.925-4.324,5.982c-0.043,0.572-0.109,1.436-0.267,1.535        c0-0.003-0.083,0.019-0.326-0.131c-2.83-1.741-6.349-3.899-8.931-3.19c-0.949,0.264-1.691,0.904-2.208,1.902        c-1.363,2.636-0.671,5.121-0.213,6.765c0.154,0.553,0.3,1.078,0.26,1.304c-0.023,0.127-0.085,0.168-0.508,0.236        c-0.216,0.034-0.461,0.074-0.676,0.192c-0.77,0.421-1.28,1.115-1.514,2.062c-1.617,6.58,3.856,12.352,6.486,15.126        c0.48,0.506,0.972,1.025,1.217,1.345c-0.277-0.049-0.792-0.181-1.747-0.504c-2.798-0.946-5.416-0.522-7,1.134        c-1.127,1.179-1.462,2.755-0.895,4.219c0.838,2.16,2.391,3.809,3.78,5.185c12.194,12.074,35.781,32.429,56.73,33.093        l1.766,0.086l-1.893-2.896c-0.322-0.492-0.85-0.792-1.436-0.837c-18.94-1.458-41.528-21.488-49.912-29.136        c-1.422-1.297-2.45-2.235-3.064-2.723c-0.725-0.578-1.316-1.391-1.887-2.177l-0.314-0.428        c-0.605-0.819-0.887-1.468-0.424-2.173c1.397-2.127,9.18,2.01,12.921,3.999c0.51,0.27,0.971,0.516,1.369,0.722        c3.527,1.825,6.112,3.989,7.999,5.57c2.232,1.868,3.707,3.101,4.795,1.958c0.344-0.36,0.504-0.755,0.473-1.175        c-0.044-0.594-0.473-1.201-1.312-1.852c-1.097-0.853-2.219-1.716-3.353-2.587c-9.56-7.347-20.395-15.675-21.284-22.777        l-0.037-0.274c-0.087-0.62-0.186-1.322,0.197-1.614c0.77-0.596,5.989,2.494,26.413,20.405c1.171,1.026,2.054,1.8,2.533,2.206        l0.124,0.106c0.941,0.802,2.231,1.901,3.369,0.757c0.315-0.316,0.461-0.638,0.446-0.985c-0.039-0.882-1.051-1.729-3.495-3.776        c-1.364-1.142-3.062-2.564-5.222-4.517c-9.523-8.611-14.965-12.431-17.888-14.485c-1.5-1.053-2.326-1.632-2.556-2.066        c-1.104-2.089-1.68-4.3-1.712-6.572c-0.017-1.21,0.453-1.416,0.607-1.483c3.598-1.567,20.68,14.597,28.89,22.369        c3.483,3.299,5.785,5.478,6.512,5.914c0.599,0.359,1.431,0.2,1.937-0.372c0.394-0.446,0.601-1.194,0.002-1.957        c-0.627-0.8-14.359-13.572-15.027-14.188c-2.85-2.625-4.911-4.356-6.416-5.619c-2.921-2.451-3.615-3.033-3.86-4.898        c-0.018-0.142-0.056-0.315-0.102-0.518c-0.192-0.855-0.482-2.148,0.197-3.911c0.209-0.543,0.451-0.863,0.741-0.98        c0.306-0.122,0.741-0.047,1.335,0.231c6.725,3.159,19.677,16.458,26.635,23.601c2.021,2.076,3.618,3.715,4.465,4.495        c0.573,0.53,1.386,0.508,1.975-0.055c0.239-0.228,0.514-0.549,0.521-1.015c0.016-0.992-1.185-2.216-4.75-5.847        c-1.076-1.096-2.365-2.409-3.896-3.996l-0.204-0.209c-0.464-0.472-0.902-0.918-1.093-1.514        c-1.713-5.358-2.329-9.747-1.467-10.437c0.255-0.202,0.719-0.005,1.066,0.2c7.604,4.473,26.244,27.851,28.225,46.632        c0.069,0.655,0.451,1.22,1.042,1.511L314.643,277.241z"/>
					</g>
					<g>
						<path style="fill:#FFBBEC;" d="M250.553,291.555c-7.32-1.76-10.795-2.926-11.58-7.051        c-3.236-17.006,11.964-36.985,24.088-49.435c2.141-2.199,6.918-6.535,9.965-7.176c1.915-0.403,1.808,2.668,1.515,4.591        c-0.32,2.1-1.11,4.058-1.806,6.048c-1.476,4.222-3.63,3.677-11.254,11.614c-0.062,0.065-0.024,0.317,0.055,0.401        c0.08,0.085,0.332,0.145,0.398,0.088c5.455-4.685,23.93-21.575,32.862-25.472c2.467-1.076,3.599-0.506,4.306,2.051        c0.281,1.015,0.298,1.969,0.043,2.989c-0.926,3.699-0.887,3.732-4.027,5.907c-6.65,4.607-22.439,17.52-23.702,18.706        c-0.194,0.182,0.219,0.443,0.334,0.416c1.97-0.446,26.51-23.142,36.745-25.492c1.694-0.389,2.485,0.178,2.762,1.915        c0.419,2.628-0.848,5.168-2.138,7.773c-0.294,0.593-0.771,0.928-1.329,1.252c-9.465,5.498-16.876,11.183-28.67,19.87        c-0.284,0.209-0.986,0.705-0.838,1.005c0.651,1.324,22.357-17.158,32.059-21.002c1.673-0.663,2.831-0.27,2.491,2.135        c-0.896,6.328-7.085,11.462-12.402,15.19c-14.407,10.101-15.353,9.745-15.432,10.975c0.697,0.115,0.39,0.308,7.123-4.247        c2.29-1.549,15.406-7.484,18.758-6.661c2.184,0.537,2.949,2.503,1.575,4.29c-0.95,1.235-2.003,2.423-3.293,3.316        c-2.459,1.702-9.323,8.167-23.265,16.528c-3.685,2.21-7.574,4.01-11.379,5.98c-4.717,2.442-9.748,3.722-14.88,4.73        C257.932,293.125,252.765,292.087,250.553,291.555z"/>
						<path style="fill:#000E3F;" d="M314.429,257.753c-1.449-1.775-4.023-2.405-6.888-1.683c-0.978,0.246-1.501,0.337-1.781,0.364        c0.268-0.3,0.8-0.778,1.318-1.245c2.841-2.557,8.753-7.879,7.657-14.567c-0.16-0.977-0.6-1.688-1.346-2.176        c-0.204-0.134-0.446-0.193-0.659-0.245c-0.417-0.101-0.475-0.146-0.487-0.274c-0.023-0.231,0.164-0.741,0.361-1.282        c0.586-1.603,1.471-4.025,0.319-6.759c-0.436-1.036-1.126-1.733-2.051-2.07c-2.518-0.924-6.198,0.964-9.154,2.476        c-0.246,0.124-0.332,0.107-0.334,0.107c-0.151-0.114-0.149-0.98-0.148-1.553c0.005-2.063,0.015-5.515-3.838-6.304        c-3.168-0.639-11.058,5.093-19.118,11.393c-0.889,0.696-1.744,1.363-2.244,1.73c0.028-0.417,0.154-0.947,0.293-1.531        c0.333-1.399,0.789-3.316,0.349-5.5c-0.247-1.224-0.89-2.087-1.858-2.497c-1.424-0.601-3.498-0.175-5.551,1.146        c-7.611,4.897-16.479,16.163-19.939,20.778c-5.048,6.737-11.324,17.067-12.559,28.023l-0.068,0.6l3.45-1.385l0.031-0.203        c2.863-18.779,23.968-41.757,32.048-45.689c0.362-0.175,0.841-0.34,1.079-0.115c0.805,0.755-0.156,5.082-2.286,10.288        c-0.237,0.579-0.709,0.99-1.209,1.423l-0.22,0.192c-1.653,1.463-3.043,2.672-4.202,3.68c-3.838,3.338-5.131,4.463-5.193,5.452        c-0.029,0.464,0.22,0.806,0.439,1.052c0.543,0.607,1.351,0.696,1.966,0.21c0.905-0.711,2.626-2.22,4.804-4.129        c7.499-6.575,21.458-18.811,28.412-21.431c0.61-0.232,1.053-0.273,1.348-0.125c0.281,0.139,0.498,0.478,0.663,1.036        c0.537,1.812,0.147,3.077-0.112,3.914c-0.061,0.198-0.113,0.367-0.143,0.508c-0.391,1.841-1.129,2.367-4.236,4.582        c-1.6,1.14-3.79,2.702-6.836,5.094c-0.745,0.585-15.42,12.223-16.098,12.961c-0.658,0.713-0.511,1.476-0.153,1.95        c0.457,0.611,1.274,0.833,1.902,0.525c0.76-0.379,3.228-2.37,6.963-5.386c8.795-7.1,27.083-21.886,30.557-20.02        c0.148,0.079,0.6,0.321,0.488,1.526c-0.211,2.263-0.959,4.421-2.225,6.417c-0.263,0.414-1.133,0.928-2.712,1.86        c-3.076,1.816-8.803,5.198-18.972,13.029c-2.306,1.777-4.11,3.06-5.56,4.091c-2.599,1.848-3.674,2.613-3.783,3.489        c-0.043,0.344,0.078,0.677,0.366,1.018c1.046,1.227,2.418,0.235,3.42-0.491l0.132-0.095c0.508-0.366,1.446-1.066,2.688-1.992        c21.791-16.261,27.234-18.91,27.948-18.268c0.36,0.321,0.206,1.014,0.069,1.625l-0.058,0.268        c-1.446,7.012-12.906,14.46-23.018,21.033c-1.196,0.777-2.382,1.548-3.54,2.311c-0.887,0.584-1.363,1.155-1.453,1.744        c-0.064,0.417,0.063,0.823,0.379,1.209c0.998,1.226,2.565,0.113,4.934-1.575c2.005-1.427,4.752-3.381,8.413-4.923        c0.413-0.173,0.893-0.382,1.422-0.612c3.884-1.688,11.97-5.195,13.196-2.969c0.406,0.741,0.074,1.365-0.595,2.134        l-0.347,0.403c-0.631,0.738-1.284,1.503-2.052,2.02c-0.652,0.44-1.75,1.294-3.271,2.475        c-9.108,7.077-33.281,25.844-52.429,25.224l-0.229-0.008l-0.104,0.203c-0.461,0.899-0.944,1.786-1.434,2.67l-0.282,0.508        l0.58,0.027c0.541,0.025,1.084,0.038,1.631,0.038c20.596,0.001,44.76-17.769,57.529-28.559        c1.495-1.263,3.173-2.785,4.177-4.871C315.669,260.615,315.46,259.016,314.429,257.753z"/>
					</g>
				</g>
			</g>
			<g>
				<g>
					<g>
						<path style="fill:#FFBBEC;" d="M250.432,200.173c1.948-9.448,3.084-17.002,3.734-22.681        c0.848-7.338,0.921-11.593,1.065-12.837c0.036-0.234-0.269-24.141,12.947-32.776c13.036-8.527,26.701,8.638,26.717,32.743        c0,3.786,0.378,8.312,0.972,12.982c0.991,7.987,2.577,16.443,3.802,22.573"/>
						<path style="opacity:0.35;fill:#FC09B2;" d="M295.868,177.604c-5.121,7.229-12.549,11.79-20.824,11.79        c-8.312-0.001-15.757-4.599-20.877-11.901c0.848-7.338,0.921-11.593,1.065-12.837c0.036-0.234-0.269-24.141,12.947-32.776        c13.036-8.527,26.701,8.638,26.717,32.743C294.895,168.409,295.274,172.935,295.868,177.604z"/>
					</g>
					<path style="fill:#000E3F;" d="M250.434,201.977c-0.12,0-0.243-0.012-0.365-0.037c-0.975-0.201-1.603-1.155-1.402-2.13       c1.688-8.186,2.935-15.763,3.708-22.521c0.595-5.143,0.803-8.728,0.927-10.87c0.055-0.93,0.094-1.586,0.139-1.97       c0.079-5.948,1.327-25.96,13.752-34.078c4.645-3.039,9.784-3.315,14.475-0.781c8.98,4.853,15.02,18.931,15.032,35.032       c0,3.469,0.322,7.76,0.959,12.755c0.777,6.266,2.014,13.607,3.781,22.447c0.195,0.976-0.438,1.926-1.414,2.122       c-0.977,0.191-1.926-0.438-2.122-1.414c-1.786-8.929-3.036-16.355-3.823-22.705c-0.655-5.139-0.987-9.583-0.987-13.203       c-0.01-14.584-5.414-27.686-13.14-31.861c-3.571-1.929-7.2-1.72-10.788,0.627c-11.217,7.329-12.07,27.196-12.126,31.104       c-0.005,0.263-0.021,0.413-0.025,0.438c-0.031,0.277-0.063,0.865-0.111,1.697c-0.127,2.18-0.34,5.83-0.946,11.072       c-0.784,6.863-2.049,14.548-3.758,22.838C252.022,201.39,251.271,201.977,250.434,201.977z"/>
				</g>
				<g>
					<g>
						<g>
							<g>
								<path style="fill:#FFBBEC;" d="M316.794,117.404c-0.001,6.962-1.673,14.645,4.833,14.646          c19.311,0.002,22.158-27.248,6.948-27.25C322.069,104.8,316.794,110.443,316.794,117.404z"/>
								<path style="fill:#FFBBEC;" d="M233.321,117.398c-0.001,6.962,1.671,14.645-4.836,14.645          c-19.311-0.002-22.153-27.252-6.943-27.251C228.048,104.792,233.322,110.436,233.321,117.398z"/>
							</g>
							<g style="opacity:0.35;">
								<path style="fill:#FC09B2;" d="M328.919,121.28c-3.389,2.149-4.484,0.674-3.799-0.338c1.133-1.674,2.597-2.888,4.838-5.872          c1.133-1.534,1.707-3.151,2.709-2.453C333.972,113.526,333.146,118.558,328.919,121.28z"/>
								<path style="fill:#FC09B2;" d="M220.158,115.062c1.598,2.128,2.456,2.944,3.103,3.732c1.39,1.575,1.855,2.319,1.732,2.139          c0.486,0.713-0.137,1.656-0.984,1.494c-4.181-0.816-7.869-5.459-6.894-9.332c0.178-0.707,1.1-0.861,1.508-0.278          C218.622,112.816,219.694,114.432,220.158,115.062z"/>
							</g>
						</g>
						<g>
							<path style="fill:#000E3F;" d="M321.626,133.853c-1.999,0-3.594-0.605-4.738-1.797c-2.348-2.447-2.177-6.648-1.996-11.096         c0.049-1.178,0.098-2.377,0.098-3.556c0.001-7.944,6.094-14.407,13.584-14.406c3.613,0,6.625,1.345,8.709,3.889         c1.822,2.223,2.825,5.302,2.825,8.671C340.108,124.551,333.195,133.854,321.626,133.853z M328.574,106.603         c-5.501-0.001-9.977,4.844-9.978,10.801c0,1.227-0.05,2.476-0.101,3.703c-0.143,3.498-0.29,7.113,0.994,8.451         c0.164,0.171,0.66,0.688,2.137,0.689c9.662,0.001,14.876-7.568,14.876-14.69c0-2.537-0.713-4.805-2.008-6.385         C333.098,107.468,331.106,106.604,328.574,106.603z"/>
							<path style="fill:#000E3F;" d="M228.486,133.845c-11.569-0.001-18.48-9.305-18.48-18.298c0-3.369,1.004-6.448,2.827-8.671         c2.086-2.543,5.096-3.887,8.71-3.887c7.49,0.001,13.582,6.465,13.581,14.409c0,1.179,0.049,2.378,0.098,3.556         c0.181,4.448,0.351,8.649-1.998,11.095C232.079,133.241,230.485,133.846,228.486,133.845z M221.542,106.595         c-2.532,0-4.523,0.863-5.92,2.567c-1.296,1.58-2.009,3.848-2.009,6.385c-0.001,7.122,5.212,14.691,14.874,14.692         c1.476,0,1.973-0.517,2.137-0.688c1.284-1.338,1.138-4.953,0.995-8.451c-0.05-1.226-0.1-2.476-0.1-3.703         C231.518,111.441,227.043,106.595,221.542,106.595z"/>
						</g>
					</g>
					<g>
						<path style="fill:#FFBBEC;" d="M314.524,151.04c-6.153,10.005-20.698,24.32-39.292,24.534h-0.359        c-18.594-0.218-33.136-14.534-39.288-24.541c-11.262-18.319-8.712-54.684-0.422-72.099        c8.016-16.839,22.475-25.762,39.719-26.139c0.068-0.018,0.12-0.018,0.188-0.018c0.051,0,0.119,0,0.17,0.018        c17.244,0.38,31.702,9.306,39.716,26.146C323.245,96.357,325.788,132.723,314.524,151.04z"/>
						<g style="opacity:0.35;">
							<path style="fill:#FC09B2;" d="M302.302,121.854c-6.307-0.001-11.439,4.195-11.44,9.352c0,5.157,5.132,9.353,11.438,9.354         c6.308,0.001,11.441-4.195,11.442-9.352C313.743,126.05,308.611,121.854,302.302,121.854z"/>
							<path style="fill:#FC09B2;" d="M247.966,121.849c-6.309-0.001-11.441,4.195-11.442,9.352         c-0.001,5.157,5.132,9.353,11.44,9.354c6.307,0.001,11.44-4.195,11.44-9.352C259.405,126.046,254.272,121.85,247.966,121.849         z"/>
						</g>
						<g>
							<path style="fill:#000E3F;" d="M316.586,78.166c-8.136-17.095-22.778-26.743-41.236-27.172         c-0.215-0.025-0.334-0.039-0.643,0.002c-18.426,0.448-33.043,10.091-41.171,27.164c-7.983,16.772-11.752,53.866,0.513,73.819         c5.732,9.323,20.777,25.164,40.824,25.399h0.38c20.027-0.232,35.074-16.07,40.807-25.393         C328.329,132.033,324.566,94.938,316.586,78.166z M312.988,150.095c-5.346,8.694-19.319,23.463-37.756,23.676h-0.337         c-18.458-0.216-32.429-14.988-37.773-23.682c-10.562-17.181-8.816-52.551-0.33-70.38         c7.533-15.82,21.075-24.739,38.131-25.112c0.046-0.001,0.093-0.004,0.139-0.008c0.047,0.004,0.093,0.007,0.14,0.008         c17.057,0.376,30.598,9.297,38.128,25.118C321.813,97.545,323.552,132.915,312.988,150.095z"/>
							<path style="fill:#000E3F;" d="M288.46,93.522c-0.023,6.978,17.139,10.993,18.957,3.733         C309.559,88.701,288.49,84.423,288.46,93.522z"/>
							<path style="fill:#000E3F;" d="M261.659,93.52c-0.029-9.099-21.099-4.824-18.958,3.73         C244.518,104.51,261.681,100.499,261.659,93.52z"/>
							<path style="fill:#000E3F;" d="M303.127,105.581c-0.996,0-1.803,0.807-1.803,1.803c0,4.082-2.503,6.128-4.827,6.301         c-2.167,0.151-4.969-1.266-5.655-5.829c-0.148-0.987-1.079-1.664-2.05-1.515c-0.985,0.148-1.663,1.066-1.515,2.05         c0.935,6.225,5.029,8.913,8.875,8.913c0.206,0,0.411-0.008,0.614-0.023c4.056-0.303,8.164-3.8,8.164-9.897         C304.929,106.388,304.122,105.581,303.127,105.581z"/>
							<path style="fill:#000E3F;" d="M261.326,106.338c-0.979-0.149-1.904,0.528-2.05,1.515c-0.687,4.563-3.47,5.984-5.656,5.828         c-2.324-0.174-4.826-2.22-4.826-6.302c0-0.996-0.807-1.803-1.803-1.803s-1.803,0.807-1.803,1.803         c0,6.097,4.106,9.594,8.163,9.898c0.203,0.015,0.409,0.023,0.614,0.023c3.846,0,7.94-2.687,8.876-8.912         C262.988,107.405,262.31,106.486,261.326,106.338z"/>
							<path style="fill:#000E3F;" d="M286.756,134.379c-0.973-0.195-1.924,0.448-2.114,1.425c-0.876,4.5-4.902,7.753-9.586,7.753         c-0.018,0-0.038,0-0.056,0c-4.653-0.026-8.661-3.287-9.53-7.754c-0.191-0.976-1.133-1.624-2.113-1.425         c-0.977,0.19-1.616,1.136-1.425,2.113c1.195,6.148,6.683,10.637,13.049,10.672c0.026,0,0.05,0,0.076,0         c6.406,0,11.919-4.476,13.125-10.67C288.371,135.516,287.734,134.569,286.756,134.379z"/>
							<path style="fill:#000E3F;" d="M276.454,130.815c0.993-0.005,1.792-0.828,1.812-1.816c-0.005-0.992-0.828-1.792-1.816-1.812         c-1.829,0.012-5.814-0.908-6.797-2.415c-0.162-0.264-0.284-0.599-0.015-1.229c0.109-0.243,6.4-15.078,6.492-15.594         c0.319-1.786-1.677-2.865-2.917-1.603c-0.796,0.81-7.035,16.074-7.166,16.543c-0.144,0.514-0.215,1.05-0.186,1.584         c0.045,0.824,0.328,1.621,0.799,2.297C268.855,130.11,274.942,130.806,276.454,130.815z"/>
						</g>
					</g>
					<g>
						<path style="fill:#000E3F;" d="M348.266,26.413c-13.58-12.278-34.378-5.083-43.328,9.478        c-6.802-2.366-14.238-2.643-21.719-0.097c-9.395,3.197-6.326,4.179-12.387,1.44c-8.356-3.777-17.534-3.637-25.891-0.72        c-8.73-14.978-29.915-22.563-43.689-10.114c-19.633,17.745-9.115,47.774,14.241,51.023        c-0.637,9.274,1.196,18.359,4.941,25.653c2.489,4.847,7.687,5.006,11.674,2.225c13.191-9.201,31.173-30.34,40.744-49.598        c0.011-0.022,0.019-0.041,0.03-0.063c-2.249,11.158,0.008,21.052,6.695,28.297c0.356,0.385,0.84,0.58,1.326,0.58        c0.437,0,0.875-0.158,1.222-0.478c0.732-0.675,0.777-1.816,0.102-2.548c-6.266-6.789-8.096-16.35-5.361-27.209        c3.316,6.746,8.083,17.465,25.077,36.393c4.11,4.578,13.933,13.967,17.586,15.536c6.663,2.863,9.824-1.012,12.142-7.649        c2.497-7.15,3.29-14.338,2.752-21.197C357.492,73.826,367.78,44.056,348.266,26.413z"/>
						<g>
							<path style="fill:#FFCF00;" d="M245.28,37.586c-3.846,2.154-7.371,4.583-10.551,7.399c-3.162,2.819-6.024,5.961-8.371,9.406         c-2.422,3.416-4.32,7.195-5.829,11.122c-1.481,3.952-2.418,8.085-2.912,12.422l-0.006,0.051         c-0.108,0.95-0.966,1.632-1.916,1.524c-0.761-0.087-1.35-0.657-1.499-1.368c-0.982-4.722-0.713-9.716,0.492-14.425         c1.19-4.726,3.28-9.211,6.064-13.223c2.835-3.994,6.294-7.5,10.293-10.243c3.969-2.763,8.46-4.809,13.159-5.702         c0.884-0.168,1.738,0.412,1.905,1.297c0.134,0.706-0.209,1.392-0.802,1.726L245.28,37.586z"/>
							<path style="fill:#FFCF00;" d="M305.312,34.554c4.699,0.894,9.191,2.941,13.159,5.705c3.999,2.743,7.457,6.25,10.292,10.244         c2.783,4.012,4.873,8.498,6.062,13.224c1.204,4.709,1.472,9.703,0.489,14.425c-0.195,0.936-1.111,1.537-2.047,1.342         c-0.75-0.156-1.284-0.775-1.368-1.497l-0.005-0.053c-0.494-4.336-1.43-8.47-2.91-12.422         c-1.508-3.927-3.406-7.707-5.827-11.123c-2.347-3.445-5.209-6.587-8.37-9.407c-3.18-2.816-6.705-5.246-10.55-7.4         l-0.026-0.014c-0.785-0.44-1.065-1.433-0.625-2.219C303.937,34.731,304.643,34.428,305.312,34.554z"/>
						</g>
						<g>
							<path style="fill:#4217A6;" d="M260.856,44.979c-0.707-0.242-1.477,0.135-1.719,0.843         c-2.954,8.511-7.663,16.031-13.531,22.688c-5.839,6.692-12.717,12.443-20.117,17.757c-0.519,0.373-0.749,1.066-0.509,1.69         c0.286,0.742,1.119,1.111,1.86,0.826c4.432-1.706,8.595-4.086,12.457-6.881c3.876-2.785,7.421-6.044,10.597-9.653         c3.132-3.641,5.901-7.646,7.978-12.021c2.091-4.352,3.54-9.068,3.895-13.869C261.809,45.763,261.449,45.182,260.856,44.979z"/>
							<path style="fill:#4217A6;" d="M229.734,68.634c1.852-0.587,3.523-1.513,5.076-2.598c1.567-1.073,2.975-2.357,4.282-3.74         c2.532-2.817,4.67-6.167,5.403-10.035c0.078-0.424-0.039-0.886-0.357-1.224c-0.532-0.566-1.421-0.593-1.986-0.062         l-0.028,0.026c-2.65,2.491-4.846,4.966-7.204,7.427c-2.295,2.511-4.672,4.914-6.848,7.883         c-0.269,0.372-0.372,0.873-0.223,1.345C228.1,68.447,228.944,68.885,229.734,68.634z"/>
							<path style="fill:#4217A6;" d="M209.154,62.649c-1.949-3.124-3.453-6.117-4.722-9.406c-1.302-3.27-2.241-6.634-3.309-10.292         l-0.014-0.049c-0.126-0.421-0.449-0.777-0.898-0.927c-0.733-0.245-1.526,0.151-1.771,0.884         c-0.677,2.028-0.826,4.167-0.676,6.263c0.134,2.106,0.631,4.173,1.358,6.164c0.78,1.97,1.795,3.876,3.17,5.544         c1.352,1.669,3.036,3.146,5.048,4.026c0.431,0.184,0.951,0.166,1.379-0.101c0.695-0.434,0.907-1.348,0.473-2.043         L209.154,62.649z"/>
							<path style="fill:#4217A6;" d="M221.954,26.345c-3.773-0.963-7.87-0.761-11.272,1.026c-0.398,0.212-0.703,0.605-0.781,1.085         c-0.132,0.816,0.422,1.584,1.237,1.716l0.053,0.009c3.409,0.553,6.4,0.892,9.338,1.672c2.959,0.714,5.684,1.815,8.861,3.122         L229.449,35c0.387,0.157,0.84,0.14,1.231-0.084c0.675-0.387,0.908-1.249,0.52-1.924         C229.265,29.621,225.705,27.353,221.954,26.345z"/>
							<path style="fill:#4217A6;" d="M212.71,37.244c-1.205-0.651-2.428-1.27-3.734-1.74c-1.297-0.486-2.644-0.882-4.133-1.024         c-0.375-0.035-0.766,0.064-1.09,0.31c-0.686,0.52-0.821,1.498-0.301,2.184c0.903,1.191,1.948,2.13,3.044,2.978         c1.086,0.863,2.256,1.578,3.443,2.261c2.423,1.278,4.948,2.374,7.908,2.69c0.361,0.038,0.74-0.058,1.049-0.298         c0.637-0.494,0.753-1.411,0.259-2.047C217.33,40.205,215.071,38.633,212.71,37.244z"/>
							<path style="fill:#4217A6;" d="M324.02,86.275c-7.4-5.316-14.276-11.068-20.114-17.761         c-5.867-6.657-10.575-14.178-13.527-22.689c-0.196-0.565-0.755-0.959-1.38-0.912c-0.745,0.055-1.305,0.704-1.25,1.45         c0.354,4.801,1.803,9.516,3.893,13.869c2.076,4.376,4.845,8.38,7.976,12.022c3.175,3.609,6.719,6.868,10.595,9.654         c3.862,2.796,8.025,5.176,12.456,6.883c0.597,0.227,1.302,0.036,1.69-0.509C324.82,87.634,324.668,86.736,324.02,86.275z"/>
							<path style="fill:#4217A6;" d="M310.421,62.302c1.307,1.384,2.715,2.668,4.282,3.741c1.553,1.085,3.224,2.011,5.076,2.599         c0.439,0.134,0.947,0.071,1.345-0.223c0.667-0.492,0.81-1.432,0.318-2.099c-2.175-2.97-4.552-5.373-6.846-7.884         c-2.358-2.461-4.553-4.936-7.203-7.428l-0.034-0.032c-0.316-0.293-0.762-0.438-1.218-0.351         c-0.763,0.145-1.264,0.88-1.12,1.642C305.752,56.135,307.89,59.485,310.421,62.302z"/>
							<path style="fill:#4217A6;" d="M351.752,49.134c0.15-2.095,0.002-4.235-0.675-6.263c-0.142-0.417-0.481-0.768-0.935-0.901         c-0.742-0.217-1.519,0.209-1.736,0.951l-0.012,0.041c-1.068,3.658-2.008,7.022-3.31,10.292         c-1.27,3.289-2.774,6.282-4.723,9.405l-0.044,0.069c-0.245,0.4-0.298,0.909-0.096,1.371c0.328,0.75,1.202,1.093,1.953,0.766         c2.012-0.879,3.697-2.357,5.049-4.025c1.376-1.668,2.391-3.573,3.171-5.543C351.12,53.306,351.617,51.239,351.752,49.134z"/>
							<path style="fill:#4217A6;" d="M320.075,35.004l0.053-0.021c3.177-1.308,5.902-2.408,8.861-3.121         c2.938-0.78,5.929-1.119,9.339-1.671l0.061-0.01c0.445-0.075,0.851-0.35,1.077-0.78c0.384-0.731,0.103-1.636-0.629-2.02         c-3.402-1.787-7.498-1.99-11.272-1.028c-3.751,1.008-7.311,3.275-9.248,6.647c-0.206,0.364-0.253,0.821-0.081,1.238         C318.532,34.957,319.356,35.3,320.075,35.004z"/>
							<path style="fill:#4217A6;" d="M346.375,35.895c-0.082-0.857-0.843-1.486-1.7-1.404c-1.489,0.142-2.836,0.537-4.133,1.023         c-1.306,0.47-2.529,1.089-3.734,1.739c-2.362,1.389-4.621,2.961-6.445,5.312c-0.222,0.287-0.34,0.66-0.298,1.049         c0.085,0.801,0.804,1.382,1.605,1.296c2.96-0.315,5.485-1.41,7.908-2.688c1.187-0.683,2.356-1.398,3.443-2.261         c1.095-0.847,2.14-1.785,3.044-2.977C346.291,36.685,346.413,36.299,346.375,35.895z"/>
						</g>
					</g>
				</g>
			</g>
		</g>
	</g>
	<g>
		<path style="fill:#000E3F;" d="M109.846,210.823c-2.146-1.694-9.598-7.689-11.245-9.013c-2.548,2.409-3.193,2.616-3.709,3.175    c4.866,12.325,11.955,24.461,12.37,25.498c0.054,0.007,0.054,0.007,0.088-0.019c2.81-2.267,4.116-3.041,4.384-3.407    c0.031-0.023,0.038-0.078,0.068-0.104c-0.362-1.936-2.257-4.532-2.73-6.281c0.934-0.737,0.776-0.813,1.959-1.492    c1.514,0.775,3.913,2.976,5.465,3.923l0.031-0.023c1.556-0.775,3.221-1.937,4.271-3.166l-0.024-0.031L109.846,210.823z     M105.959,217.168c-4.163-7.073-7.411-11.58,2.304-1.816C107.485,215.966,106.701,216.635,105.959,217.168z"/>
		<path style="fill:#000E3F;" d="M128.333,214.426c-10.12-14.071-11.8-16.43-12.095-17.14c-0.021-0.033-0.014-0.088-0.039-0.12    l0.032-0.021l0.066-0.047c1.988-1.518,3.053-2.351,3.979-2.752c-0.853-1.723-2.277-3.777-3.363-5.146    c-4.806,2.601-9.557,6.127-13.969,9.229c0.024,0.031,0.056,0.009,0.08,0.04c1.259,2.169,3.283,4.817,3.674,5.031    c0.634-0.198,2.812-2.139,4.182-2.317l0.057,0.011c8.935,11.803,11.884,16.901,12.249,17.225c1.386-1.344,3.775-2.562,5.192-3.929    l-0.021-0.033L128.333,214.426z"/>
		<path style="fill:#000E3F;" d="M153.97,193.683c-0.097-0.264-0.25-0.542-0.381-0.787c-1.041,0.751-8.372,3.953-9.126,4.728    l-0.018-0.034c-3.174-6.04-7.222-12.685-10.338-18.799c-1.627,0.167-4.893,2.047-5.624,2.944    c5.491,9.698,7.666,13.255,12.963,23.919l0.341,0.626c11.3-5.962,12.693-7.131,13.722-7.561c0.976-0.533,1.172-0.416-0.827-3.66    C154.435,194.694,154.186,194.153,153.97,193.683z"/>
		<path style="fill:#000E3F;" d="M163.919,179.34c-1.7-2.139-7.583-9.682-8.885-11.351c-3.031,1.764-3.705,1.815-4.341,2.243    c1.918,13.113,6.039,26.555,6.202,27.66c0.058,0.018,0.058,0.018,0.092,0c3.256-1.562,4.703-2.017,5.051-2.31    c0.035-0.018,0.056-0.07,0.091-0.087c0.089-1.967-1.162-4.93-1.219-6.74c1.078-0.504,0.937-0.614,2.245-1.005    c1.303,1.099,3.128,3.795,4.427,5.071l0.032-0.015c1.697-0.398,3.584-1.146,4.883-2.102l-0.015-0.036L163.919,179.34z     M158.68,184.628c-2.433-7.839-4.562-12.974,2.659-1.24C160.441,183.807,159.526,184.278,158.68,184.628z"/>
		<path style="fill:#000E3F;" d="M183.542,172.556c-2.261-1.546-5.163-2.121-7.904-1.395c-1.091,0.254-2.157,0.371-3.02-0.655    c-0.166-0.319-0.372-0.622-0.387-1c-0.671-2.93,4.522-3.8,4.982-0.873c1.922-0.195,3.934-1.147,5.557-2.119l0.036-0.015    c-0.736-3.968-3.186-5.784-6.025-6.083c-2.783-0.152-6.353,0.853-8.369,2.786c-3.967,3.799-3.607,11.406,2.623,13.962    c0.931,0.319,1.934,0.484,3.002,0.279c2.231-0.399,5.281-1.202,6.497,1.049c1.927,3.209-3.498,5.235-4.906,2.164    c-1.648,0.684-4.006,1.303-5.641,2.236l0.043,0.113l0.045,0.11c1.525,4.812,7.301,5.759,11.67,4.187    c3.074-1.068,5.477-3.534,5.483-7.027C187.415,177.263,186.143,174.099,183.542,172.556z"/>
		<path style="fill:#000E3F;" d="M202.537,179.778l-0.012-0.038c-5.323-16.504-6.199-19.265-6.27-20.03    c-0.005-0.04,0.019-0.088,0.006-0.127l0.036-0.009l0.08-0.025c2.356-0.838,3.625-1.304,4.632-1.401    c-0.287-1.902-1.011-4.294-1.63-5.932c-5.375,1.003-10.974,2.905-16.13,4.507c0.014,0.036,0.05,0.026,0.062,0.064    c0.536,2.45,1.652,5.593,1.954,5.917c0.667,0.005,3.335-1.175,4.699-0.924l0.046,0.027c4.895,13.98,6.138,19.738,6.391,20.16    c1.731-0.855,4.378-1.283,6.147-2.151L202.537,179.778z"/>
		<path style="fill:#000E3F;" d="M93.191,172.627c4.584-2.249,6.59-8.31,4.177-12.777c-0.153-0.28-0.359-0.57-0.566-0.861    l-0.021-0.033c-5.621-7.047-14.816-1.504-19.125,3.716c5.37,6.981,11.373,15.996,16.099,22.072    c1.568-0.874,4.332-2.801,5.299-3.977c0.028-0.022,0.039-0.077,0.07-0.1l-0.021-0.033    C94.472,174.489,94.139,173.752,93.191,172.627z M89.435,168.39l-0.094,0.069c-1.343-0.991-2.546-3.152-3.75-4.632    c0.011-0.055,0.042-0.078,0.074-0.1c1.137-1.347,2.81-2.202,4.5-2.093c1.614-0.129,2.88,1.306,2.86,2.78    C92.73,166.183,90.723,167.325,89.435,168.39z"/>
		<path style="fill:#000E3F;" d="M123.173,165.514c-0.454-1.582-1.439-3.211-2.426-4.606l-0.04-0.069    c-3.026,1.974-6.006,3.412-8.991,5.222l-0.055-0.014c-0.757-1.023-2.003-2.772-2.568-4.24c0.247-0.66,2.71-1.644,3.876-2.862    c-1.039-1.642-1.762-3.291-2.927-4.672l-0.018-0.034c-1.413,0.81-2.819,1.709-4.235,2.429l-0.054-0.013    c-1.046-1.036-1.604-2.645-2.44-3.948l0.012-0.053l0.102-0.062c2.82-2.081,6.145-3.404,8.637-5.796l-0.021-0.033    c-0.967-1.594-1.717-3.365-2.919-4.816c-0.123-0.205-8.824,5.261-13.915,8.719c4.269,8.032,9.263,15.347,14.037,23.213    C113.83,171.598,118.537,168.278,123.173,165.514z"/>
		<path style="fill:#000E3F;" d="M124.796,164.68c3.189-1.693,4.618-2.21,4.949-2.516c0.039-0.018,0.055-0.071,0.089-0.09    c0.009-1.969-1.358-4.878-1.492-6.684c1.058-0.548,0.913-0.652,2.2-1.095c1.348,1.045,3.281,3.663,4.629,4.884l0.035-0.017    c1.678-0.466,3.526-1.289,4.793-2.301l-0.018-0.035l-9.021-10.962c-1.784-2.069-7.968-9.364-9.34-10.977    c-2.953,1.886-3.628,1.966-4.242,2.419c2.452,13.02,7.121,26.279,7.331,27.375C124.762,164.699,124.762,164.699,124.796,164.68z     M128.552,150.011c-0.879,0.455-1.778,0.965-2.606,1.349C123.196,143.628,120.856,138.587,128.552,150.011z"/>
		<path style="fill:#000E3F;" d="M131.023,137.538c3.335,7.89,5.01,11.615,6.718,15.024c2.187,3.891,7.121,3.199,10.365,1.213    c5.252-2.433,6.276-9.377,2.448-13.674c-1.556,0.207-3.505,1.493-4.963,1.917c0.272,1.309,1.158,2.437,1.106,3.801    c-0.043,1.19-0.919,2.049-2.018,2.402c-1.596,0.223-2.773-1.078-3.537-2.433c-1.74-3.178-4.429-10.095-4.397-10.412    c-0.01-0.127-0.049-0.411,0.01-0.567c0.226-0.576,0.992-0.998,1.563-1.38c2.782-1.349,3.526,1.919,4.66,3.715    c1.993-0.483,3.761-0.999,5.365-2.178c-0.623-7.739-10.197-10.815-15.889-5.719c-0.607,0.482-1.115,1.009-1.485,1.646    c-0.541,1.234-0.735,2.574-0.611,4.036C130.383,135.783,130.548,136.749,131.023,137.538z"/>
		<path style="fill:#000E3F;" d="M174.113,143.215c-0.117-1.642-0.748-3.438-1.425-5.009l-0.03-0.073    c-3.365,1.313-6.575,2.107-9.867,3.267l-0.052-0.022c-0.531-1.159-1.393-3.126-1.648-4.677c0.379-0.597,2.997-1.057,4.383-2.008    c-0.685-1.819-1.054-3.583-1.907-5.174l-0.015-0.037c-1.546,0.504-3.103,1.095-4.641,1.511l-0.05-0.026    c-0.812-1.227-1.03-2.917-1.582-4.363l0.026-0.051l0.113-0.039c3.187-1.46,6.714-2.073,9.64-3.903l-0.009-0.04    c-0.624-1.756-0.994-3.645-1.876-5.309c-0.078-0.227-9.716,3.34-15.406,5.682c2.532,8.74,5.921,16.924,8.983,25.603    C163.721,147.257,169.013,144.971,174.113,143.215z"/>
	</g>
	<g>
		<g>
			<path style="fill:#915EFD;" d="M171.139,490.893c-0.442,4.039,2.473,7.671,6.511,8.113c4.038,0.442,7.671-2.473,8.113-6.511     c0.442-4.039-2.473-7.671-6.512-8.113C175.214,483.939,171.581,486.854,171.139,490.893z"/>
			<path style="fill:#915EFD;" d="M59.237,108.903c-0.442,4.038,2.473,7.67,6.511,8.113s7.671-2.473,8.113-6.511     c0.442-4.039-2.473-7.671-6.511-8.113C63.311,101.949,59.679,104.864,59.237,108.903z"/>
			<path style="fill:#915EFD;" d="M258.814,6.556c-0.442,4.038,2.473,7.67,6.512,8.113c4.038,0.442,7.67-2.473,8.113-6.511     c0.442-4.038-2.473-7.671-6.511-8.113C262.888-0.398,259.256,2.518,258.814,6.556z"/>
			<path style="fill:#915EFD;" d="M436.98,254.103c-0.442,4.038,2.473,7.67,6.511,8.113c4.038,0.442,7.67-2.473,8.113-6.511     s-2.473-7.67-6.511-8.113C441.055,247.15,437.422,250.065,436.98,254.103z"/>
		</g>
		<g>
			<path style="fill:#FD8A02;" d="M80.919,274.961c-1.49,3.529-4.132,5.367-7.652,6.022c-4.157,0.773-6.523-1.223-6.547,1.614     c-0.033,3.755,1.223,7.128,3.457,10.059c2.003,2.628,2.086,2.464,4.125,0.201c2.986-3.311,6.769-4.619,11.22-4.016     c4.8,0.65,7.572,6.776,3.505,10.709c-7.005,6.775-15.678-0.093-12.688,6.545c2.064,4.583,7.773,6.641,5.679,9.36     c-0.953,1.237-2.916,0.973-3.985,0.117c-4.238-3.396-7.255-7.542-7.4-13.184c-0.046-1.78-0.638-2.979-1.904-4.163     c-4.192-3.922-6.354-8.862-6.807-14.55c-0.372-4.679,1.547-5.032-0.958-7.948c-3.891-4.53-4.737-12.242,0.359-17.568     c2.712-2.834,5.174-0.643,4.212,0.89c-1.421,2.265-5.305,5.9-1.562,12.931c0.768,1.443,1.835-0.408,3.781-1.816     c4.133-2.988,10.026-3.559,12.858,0.707C81.499,272.201,81.374,273.666,80.919,274.961z M85.041,293.846     c-3.39-1.46-8.267,2.247-7.602,3.667c0.51,1.091,5.435,1.154,7.99-1.333C86.164,295.463,85.944,294.234,85.041,293.846z      M70.133,276.107c3.106,1.45,7.734-2.634,5.471-3.305C72.619,271.918,68.173,275.19,70.133,276.107z"/>
			<path style="fill:#FD8A02;" d="M383.014,91.846c2.832-2.578,6.001-3.139,9.472-2.257c4.098,1.042,5.408,3.845,6.62,1.28     c1.604-3.395,1.879-6.984,1.08-10.581c-0.716-3.226-0.86-3.112-3.66-1.913c-4.1,1.754-8.082,1.354-11.87-1.06     c-2.165-1.38-3.008-3.504-2.855-5.83c0.435-6.618,8.874-7.261,14.963-4.036c2.7,1.43,3.435,1.022,3.463-1.946     c0.03-3.151-1.972-6.891-2.263-8.47c-0.564-3.069,3.34-3.569,4.7-0.844c2.423,4.86,3.423,9.89,1.188,15.072     c-0.705,1.635-0.67,2.972-0.018,4.578c3.477,8.559,0.159,17.331-1.565,19.249c-3.28,3.648,2.836,7.013-2.872,15.908     c-1.643,2.56-5.726,5.224-8.401,4.554c-1.414-0.354-1.656-2.179-0.692-2.807c2.25-1.466,7.291-3.131,6.841-11.084     c-0.092-1.632-1.837-0.399-4.194,0.063c-5.005,0.979-10.595-0.974-11.376-6.034C381.331,94.109,382.058,92.831,383.014,91.846z      M387.193,72.974c1.588,1.77,5.093,2.136,7.811,0.764c2.579-1.3-3.254-4.43-7.184-3.045     C386.851,71.034,386.536,72.242,387.193,72.974z M393.286,95.329c-2.209-2.617-8.126-0.853-6.352,0.706     C388.452,97.369,394.678,96.981,393.286,95.329z"/>
			<path style="fill:#FD8A02;" d="M300.805,507.827c-2.962-2.429-3.975-5.484-3.606-9.045c0.437-4.206,3.022-5.908,0.308-6.736     c-3.592-1.095-7.182-0.847-10.626,0.464c-3.088,1.176-2.954,1.302-1.363,3.899c2.329,3.802,2.51,7.801,0.67,11.899     c-1.052,2.342-3.031,3.483-5.355,3.669c-6.641,0.53-8.457-7.765-6.16-14.221c1.024-2.878,0.514-3.547-2.427-3.145     c-4.981,0.681-8.572,5.572-10.586,2.793c-0.916-1.264-0.106-3.073,1.017-3.855c4.458-3.102,9.289-4.819,14.741-3.359     c1.72,0.461,3.037,0.233,4.532-0.645c4.949-2.908,10.299-3.581,15.882-2.403c4.592,0.97,4.386,2.91,7.894,1.334     c8.241-3.702,17.924,2.545,17.376,8.02c-0.145,1.448-1.915,1.956-2.677,1.092c-1.769-2.005-4.154-6.76-11.958-5.164     c-2.748,0.562,4.058,5.334,0.275,13.105c-0.825,1.694-2.224,2.641-3.928,3.166C303.288,509.165,301.918,508.63,300.805,507.827z      M281.526,506.426c1.521-1.828,1.376-5.349-0.375-7.839c-1.663-2.368-3.91,3.87-1.973,7.55     C279.657,507.045,280.898,507.181,281.526,506.426z M302.764,497.159c-2.269,2.564,0.333,8.163,1.619,6.183     C306.076,500.729,304.199,495.539,302.764,497.159z"/>
			<path style="fill:#FD8A02;" d="M451.517,361.634c-3.505,1.545-6.688,1.071-9.698-0.867c-3.555-2.29-3.907-5.365-5.871-3.317     c-2.6,2.71-4,6.025-4.385,9.69c-0.345,3.287-0.172,3.223,2.863,2.976c4.444-0.361,8.094,1.283,10.919,4.775     c1.614,1.996,1.739,4.277,0.855,6.435c-2.526,6.164-10.747,4.039-15.47-0.925c-2.106-2.213-2.933-2.06-3.902,0.745     c-1.642,4.751,1.1,10.164-2.289,10.706c-1.541,0.246-2.789-1.293-2.98-2.648c-0.754-5.378-0.105-10.465,3.661-14.669     c1.188-1.327,1.579-2.605,1.471-4.335c-0.36-5.729,1.456-10.806,5.029-15.256c2.939-3.66,4.577-2.6,4.755-6.44     c0.418-9.025,10.365-14.843,15.003-11.882c1.226,0.783,0.88,2.592-0.235,2.882c-2.588,0.673-7.907,0.653-10.007,8.337     c-0.739,2.706,6.592-1.212,11.817,5.673c1.139,1.501,1.352,3.177,1.05,4.935C453.832,360.023,452.736,361.003,451.517,361.634z      M441.561,378.202c-0.944-2.183-4.151-3.643-7.164-3.205c-2.864,0.415,1.687,5.236,5.845,5.169     C441.27,380.149,441.951,379.104,441.561,378.202z M442.883,355.069c1.263,3.183,7.434,3.389,6.247,1.348     C447.565,353.725,442.086,353.057,442.883,355.069z"/>
		</g>
		<g>
			<g>
				<path style="fill:#FC09B2;" d="M161.274,24.153c-1.735-1.733-5.373-1.348-6.858-1.1c-0.088,0.015-4.098,0.733-8.381,1.871      c3.173-3.093,5.846-6.167,5.904-6.235c1.424-1.68,3.597-4.855,2.167-7.247c-0.765-1.279-1.788-1.618-2.511-1.678      c-2.407-0.193-4.969,2.447-5.944,3.596c-0.058,0.068-2.652,3.209-5.184,6.847c0.421-4.412,0.473-8.486,0.473-8.575      c0-2.202-0.394-6.029-3.033-6.929c-1.407-0.482-2.409-0.08-3,0.343c-1.995,1.427-2.21,5.081-2.21,6.586      c0,0.083,0.044,3.585,0.384,7.608c-1.433-2.254-2.984-4.494-4.346-6.253h-0.001c-1.348-1.74-4.007-4.526-6.64-3.622      c-1.411,0.484-1.954,1.414-2.162,2.108c-0.703,2.349,1.364,5.37,2.284,6.56c1.54,1.987,3.611,4.359,5.676,6.524      c-2.848-0.918-5.884-1.751-8.343-2.273c-2.155-0.457-5.98-0.865-7.408,1.53c-0.762,1.28-0.576,2.342-0.286,3.006      c0.982,2.246,4.512,3.215,5.985,3.527c2.458,0.521,5.571,0.992,8.546,1.308c-2.766,1.141-5.621,2.468-7.834,3.66      c-1.938,1.044-5.121,3.206-4.661,5.956c0.246,1.47,1.074,2.159,1.725,2.479c0.54,0.265,1.147,0.371,1.775,0.371      c1.935,0,4.071-1.011,5.071-1.55c2.209-1.19,4.884-2.842,7.356-4.522c-2.014,3.964-3.565,7.759-3.6,7.85      c-0.804,2.05-1.836,5.757,0.294,7.559c0.79,0.668,1.551,0.868,2.178,0.869c0.275,0,0.526-0.039,0.741-0.093      c2.375-0.6,3.911-3.924,4.46-5.325c0.914-2.332,1.884-5.313,2.683-8.186c1.03,4.32,2.303,8.206,2.335,8.297      c0.712,2.083,2.321,5.576,5.109,5.576c0.001,0,0.002,0,0.003,0c1.491-0.001,2.306-0.705,2.728-1.296      c1.426-1.996,0.447-5.522-0.04-6.946c-0.028-0.085-1.392-3.919-3.214-7.956c3.57,2.621,7.037,4.751,7.114,4.797v0.001      c1.28,0.764,3.293,1.755,5.12,1.755c0.871,0,1.699-0.225,2.385-0.808c1.137-0.965,1.303-2.029,1.243-2.752      c-0.202-2.443-3.228-4.501-4.521-5.273c-0.077-0.046-3.6-2.09-7.602-3.99c4.421-0.309,8.446-0.927,8.534-0.942      c2.172-0.36,5.883-1.376,6.338-4.128C162.348,25.584,161.788,24.665,161.274,24.153z"/>
				<path style="fill:#FFFFFF;" d="M131.094,30.48c0,3.154,2.556,5.711,5.711,5.711c3.154,0,5.711-2.556,5.712-5.711      s-2.556-5.711-5.711-5.712C133.651,24.769,131.094,27.325,131.094,30.48z"/>
			</g>
			<g>
				<path style="fill:#FC09B2;" d="M442.511,459.907c-1.735-1.733-5.374-1.347-6.858-1.1c-0.088,0.015-4.098,0.733-8.381,1.871      c3.173-3.093,5.846-6.167,5.904-6.236c1.424-1.68,3.597-4.855,2.167-7.247c-0.765-1.279-1.788-1.618-2.511-1.678      c-2.407-0.193-4.969,2.447-5.944,3.595c-0.058,0.068-2.652,3.21-5.185,6.847c0.421-4.412,0.473-8.486,0.473-8.575      c0-2.202-0.394-6.029-3.033-6.929c-1.407-0.482-2.409-0.08-3,0.343c-1.995,1.427-2.21,5.081-2.21,6.586      c0,0.083,0.044,3.585,0.384,7.608c-1.434-2.254-2.984-4.494-4.346-6.253h-0.001c-1.348-1.74-4.007-4.526-6.639-3.622      c-1.411,0.483-1.955,1.414-2.162,2.108c-0.703,2.349,1.364,5.37,2.284,6.56c1.54,1.987,3.611,4.359,5.676,6.524      c-2.848-0.918-5.884-1.751-8.343-2.273c-2.155-0.458-5.98-0.865-7.408,1.53c-0.762,1.28-0.576,2.342-0.286,3.006      c0.982,2.246,4.512,3.215,5.985,3.527c2.458,0.521,5.571,0.992,8.546,1.308c-2.766,1.141-5.621,2.468-7.834,3.66      c-1.938,1.044-5.121,3.206-4.661,5.956c0.246,1.47,1.074,2.159,1.725,2.479c0.54,0.264,1.147,0.371,1.775,0.371      c1.935,0,4.07-1.011,5.07-1.55c2.209-1.19,4.884-2.841,7.356-4.522c-2.014,3.964-3.565,7.759-3.6,7.85      c-0.805,2.05-1.836,5.757,0.294,7.559c0.79,0.668,1.551,0.868,2.178,0.868c0.275,0,0.525-0.038,0.741-0.093      c2.375-0.6,3.91-3.924,4.46-5.326c0.914-2.332,1.885-5.312,2.683-8.186c1.03,4.319,2.303,8.206,2.335,8.297      c0.712,2.083,2.321,5.575,5.109,5.576c0.001,0,0.002,0,0.003,0c1.491-0.001,2.306-0.705,2.728-1.296      c1.426-1.996,0.447-5.522-0.04-6.946c-0.028-0.084-1.391-3.919-3.214-7.956c3.57,2.621,7.037,4.751,7.114,4.797v0.001      c1.28,0.764,3.293,1.755,5.12,1.756c0.871,0,1.699-0.225,2.385-0.808c1.136-0.965,1.303-2.029,1.243-2.752      c-0.202-2.443-3.228-4.501-4.52-5.273c-0.077-0.046-3.6-2.09-7.603-3.99c4.421-0.309,8.446-0.927,8.534-0.942      c2.172-0.361,5.883-1.376,6.338-4.128C443.585,461.339,443.025,460.419,442.511,459.907z"/>
				<path style="fill:#FFFFFF;" d="M412.33,466.234c0,3.154,2.556,5.711,5.711,5.712c3.154,0,5.711-2.556,5.712-5.711      s-2.556-5.711-5.711-5.712C414.888,460.523,412.331,463.08,412.33,466.234z"/>
			</g>
			<g>
				<path style="fill:#FC09B2;" d="M417.48,176.219c-1.735-1.733-5.373-1.347-6.858-1.1c-0.088,0.015-4.098,0.733-8.381,1.871      c3.173-3.094,5.846-6.167,5.904-6.235c1.424-1.68,3.597-4.855,2.167-7.247c-0.765-1.279-1.788-1.618-2.511-1.678      c-2.407-0.193-4.969,2.447-5.944,3.595c-0.058,0.068-2.652,3.21-5.185,6.847c0.421-4.412,0.473-8.486,0.473-8.575      c0-2.202-0.394-6.029-3.033-6.929c-1.407-0.482-2.409-0.08-3,0.343c-1.995,1.427-2.21,5.081-2.21,6.586      c0,0.083,0.044,3.585,0.384,7.608c-1.433-2.254-2.984-4.494-4.346-6.253h-0.001c-1.348-1.74-4.007-4.525-6.639-3.622      c-1.411,0.484-1.955,1.414-2.162,2.108c-0.703,2.349,1.364,5.37,2.284,6.56c1.54,1.987,3.611,4.359,5.676,6.524      c-2.848-0.918-5.884-1.751-8.343-2.273c-2.155-0.458-5.98-0.865-7.408,1.53c-0.762,1.28-0.576,2.342-0.286,3.006      c0.982,2.246,4.512,3.215,5.985,3.527c2.458,0.521,5.571,0.992,8.546,1.308c-2.766,1.141-5.621,2.468-7.834,3.66      c-1.939,1.044-5.121,3.206-4.661,5.956c0.246,1.47,1.074,2.159,1.725,2.479c0.54,0.264,1.147,0.371,1.775,0.371      c1.935,0,4.071-1.011,5.071-1.55c2.209-1.19,4.884-2.841,7.356-4.522c-2.014,3.964-3.565,7.759-3.6,7.85      c-0.804,2.05-1.835,5.757,0.294,7.559c0.79,0.668,1.551,0.868,2.178,0.868c0.275,0,0.526-0.038,0.741-0.093      c2.375-0.6,3.911-3.924,4.46-5.325c0.914-2.332,1.884-5.312,2.683-8.186c1.03,4.319,2.303,8.206,2.335,8.297      c0.711,2.082,2.321,5.575,5.109,5.576c0.001,0,0.002,0,0.003,0c1.491-0.002,2.306-0.705,2.728-1.296      c1.426-1.996,0.447-5.522-0.04-6.946c-0.028-0.084-1.391-3.919-3.214-7.956c3.57,2.621,7.037,4.751,7.114,4.797v0.001      c1.28,0.764,3.293,1.755,5.12,1.756c0.871,0,1.699-0.225,2.385-0.808c1.137-0.965,1.303-2.029,1.243-2.752      c-0.202-2.443-3.228-4.501-4.521-5.273c-0.077-0.046-3.6-2.09-7.602-3.99c4.421-0.309,8.446-0.927,8.534-0.942      c2.172-0.361,5.883-1.376,6.338-4.128C418.554,177.651,417.994,176.732,417.48,176.219z"/>
				<path style="fill:#FFFFFF;" d="M387.3,182.546c0,3.154,2.556,5.711,5.711,5.712c3.154,0,5.711-2.556,5.712-5.711      c0-3.154-2.556-5.711-5.711-5.712C389.857,176.835,387.3,179.392,387.3,182.546z"/>
			</g>
			<g>
				<path style="fill:#FC09B2;" d="M135.189,407.977c-1.735-1.733-5.373-1.347-6.858-1.1c-0.088,0.015-4.098,0.733-8.381,1.871      c3.173-3.094,5.846-6.167,5.904-6.236c1.424-1.68,3.597-4.855,2.167-7.247c-0.765-1.279-1.788-1.618-2.511-1.678      c-2.407-0.193-4.969,2.447-5.944,3.595c-0.058,0.068-2.652,3.21-5.184,6.847c0.421-4.412,0.473-8.486,0.473-8.575      c0-2.202-0.394-6.029-3.033-6.929c-1.407-0.482-2.409-0.08-3,0.343c-1.995,1.427-2.21,5.081-2.21,6.586      c0,0.083,0.044,3.585,0.384,7.608c-1.433-2.254-2.984-4.494-4.346-6.253h-0.001c-1.348-1.74-4.007-4.525-6.64-3.622      c-1.411,0.484-1.955,1.414-2.162,2.108c-0.703,2.349,1.364,5.37,2.284,6.56c1.54,1.987,3.611,4.359,5.676,6.524      c-2.848-0.918-5.884-1.751-8.343-2.273c-2.155-0.458-5.98-0.865-7.408,1.53c-0.762,1.28-0.576,2.341-0.286,3.006      c0.982,2.246,4.512,3.215,5.985,3.527c2.458,0.521,5.571,0.992,8.546,1.308c-2.766,1.141-5.621,2.468-7.834,3.66      c-1.938,1.044-5.121,3.206-4.661,5.956c0.246,1.47,1.074,2.159,1.725,2.479c0.54,0.264,1.147,0.371,1.775,0.371      c1.935,0,4.071-1.011,5.071-1.55c2.209-1.19,4.884-2.841,7.356-4.522c-2.014,3.964-3.565,7.759-3.6,7.85      c-0.804,2.05-1.836,5.757,0.294,7.559c0.79,0.668,1.551,0.868,2.178,0.868c0.275,0,0.526-0.039,0.741-0.093      c2.375-0.6,3.911-3.924,4.46-5.325c0.914-2.332,1.884-5.312,2.683-8.186c1.03,4.319,2.303,8.206,2.335,8.298      c0.712,2.082,2.321,5.575,5.109,5.576c0.001,0,0.002,0,0.003,0c1.491-0.002,2.306-0.705,2.728-1.296      c1.426-1.996,0.447-5.522-0.04-6.946c-0.028-0.084-1.391-3.919-3.214-7.956c3.57,2.621,7.037,4.751,7.114,4.797v0.001      c1.28,0.764,3.293,1.755,5.12,1.755c0.871,0,1.699-0.225,2.385-0.808c1.137-0.965,1.303-2.029,1.243-2.752      c-0.202-2.443-3.228-4.501-4.521-5.273c-0.077-0.046-3.6-2.09-7.602-3.991c4.421-0.309,8.446-0.927,8.534-0.941      c2.172-0.361,5.883-1.376,6.338-4.128C136.263,409.409,135.703,408.489,135.189,407.977z"/>
				<path style="fill:#FFFFFF;" d="M105.009,414.304c0,3.154,2.556,5.711,5.711,5.712c3.154,0,5.711-2.556,5.712-5.711      c0-3.154-2.556-5.711-5.711-5.712C107.566,408.593,105.009,411.15,105.009,414.304z"/>
			</g>
		</g>
	</g>
</g>















</svg>
