<?xml version="1.0" encoding="UTF-8"?>
<!-- Generator: Adobe Illustrator 25.2.3, SVG Export Plug-In . SVG Version: 6.00 Build 0)  -->
<svg xmlns="http://www.w3.org/2000/svg" xmlns:xlink="http://www.w3.org/1999/xlink" version="1.1" id="Capa_1" x="0px" y="0px" viewBox="0 0 512 512" style="enable-background:new 0 0 512 512;" xml:space="preserve" width="512" height="512">
<g>
	<g>
		<path style="fill:#A85E43;" d="M394.773,211.089c2.023,13.869-22.216,71.728-22.216,71.728    c4.782,51.214,7.362,117.757-3.628,166.947l2.211,21.765l-214.46,9.518l-31.686-13.813l-15.436-212.797l47.122-121.947    l89.316-18.688l109.747,38.187L394.773,211.089z"/>
	</g>
	<path style="fill:#091438;" d="M451.218,230.806c0,0,23.96,10.972,21.522,34.513c-2.438,23.573-39.804,29.249-61.741,14.234   c0,0,2.436,17.062-7.728,20.307c-7.066,2.241-22.156-9.606-30.714-17.044c-2.216-23.808-4.922-44.309-6.945-58.178   c-22.254-0.172-24.081-38.535-24.081-38.535c-29.25,34.538-29.25-15.843-29.25-15.843c-51.185,73.536-91.406,7.727-91.406,7.727   c-2.852,47.111-39.83,9.335-39.83,9.335c22.354,88.575-28.833,65.809-28.833,65.809s9.335,29.667,2.437,34.953   c-6.9,5.264-22.353-6.504-22.353-6.504l13.406,176.714c0,0,142.449,30.225,223.227-8.531l42.46,32.905   c0,0-167.358,72.321-308.73-10.16c0,0-3.266-132.016,8.921-153.956l-49.552-19.109c0,0-49.167-70.27,0-74.727   c0,0-14.626-11.801-8.947-19.113c5.703-7.312,28.446-7.702,28.446-7.702s-35.344-21.55-28.836-29.249   c6.339-7.558,27.909-0.316,28.81-0.021c-0.681-1.542-32.129-72.542-1.609-94.24c30.543-21.69,68.252,2.318,69.053,2.827   c-0.39-0.801-9.551-19.155-1.609-22.741c8.12-3.656,28.032,16.261,28.032,16.261s0.806-30.471,12.601-31.275   c11.311-0.808,24.646,15.306,25.036,16.574c0.411-2.318,10.332-57.964,50.527-55.986c41.021,2.019,59.303,52.408,59.303,52.408   s12.601-19.913,23.571-17.065c10.968,2.852,7.702,17.476,7.702,17.476s39.827-25.203,57.281-14.235   c17.476,10.968,2.852,42.655,2.852,42.655s33.709-7.702,47.114,8.949c13.237,16.429-10.72,67.323-11.328,68.64   c0.824-0.537,17.522-11.214,21.494-5.268c4.07,6.097-17.062,23.959-17.062,23.959s32.905,3.66,35.344,25.203   C492.239,224.298,451.218,230.806,451.218,230.806z"/>
	<g>
		<path style="fill:#A85E43;" d="M119.713,306.366c0,0-45.095-65.409-82.063-48.348c-36.968,17.062,0.407,56.06,24.783,74.344    c24.374,18.277-14.624,36.561,3.654,49.966c18.282,13.409,44.692-3.249,53.626-23.155    C119.713,359.173,104.225,362.275,119.713,306.366z"/>
	</g>
	<path style="fill:#091438;" d="M330.958,230.392c0,0,18.686,71.499,2.034,144.22l-76.374-6.501c0,0,2.847-34.534,24.374-12.598   c0,0-18.282-6.093-18.282,8.534l67.03,5.69C329.74,369.738,340.708,297.42,330.958,230.392z"/>
	<path style="fill:#FFFFFF;" d="M261.38,303.517c-2.796,14.35-13.446,24.346-23.798,22.33   c-10.354-2.013-16.475-15.274-13.681-29.628c2.79-14.344,13.449-24.343,23.799-22.33   C258.049,275.905,264.176,289.17,261.38,303.517z"/>
	<path style="fill:#FFFFFF;" d="M314.917,306.151c-2.79,14.35-13.448,24.346-23.8,22.33c-10.35-2.016-16.479-15.278-13.683-29.632   c2.796-14.347,13.45-24.342,23.798-22.326C311.589,278.536,317.711,291.801,314.917,306.151z"/>
	<path style="fill:#091438;" d="M244.429,302.502c0,5.496-3.819,9.957-8.529,9.957c-4.713,0-8.535-4.46-8.535-9.957   c0-5.5,3.821-9.957,8.535-9.957C240.61,292.545,244.429,297.002,244.429,302.502z"/>
	<path style="fill:#091438;" d="M298.258,304.536c0,5.496-3.816,9.95-8.531,9.95c-4.712,0-8.531-4.453-8.531-9.95   c0-5.5,3.819-9.957,8.531-9.957C294.441,294.579,298.258,299.036,298.258,304.536z"/>
	<path style="fill:#091438;" d="M318.357,247.218c-13.594-23.191-36.195-13.609-37.152-13.192l-4.896-11.161   c11.529-5.057,37.348-7.758,52.564,18.185L318.357,247.218z"/>
	<path style="fill:#091438;" d="M227.65,265.52l-9.895-7.116c7.323-10.238,28.135-25.761,54.476-11.225l-5.886,10.67   C243.418,245.202,229.196,263.406,227.65,265.52z"/>
	<g>
		<path style="fill:#FFFFFF;" d="M234.406,378.978c-5.04-1.02-13.896-6.147-17.943-9.273c-4.122-5.39-5.225-7.998-5.813-14.792    c-16.449,8.085-21.509,13.955-31.7,28.73c-3.029,10.686-4.897,16.782-3.073,28.25c-0.001,0,3.706,7.994,3.706,7.994    c2.223,1.765,7.86,6.607,10.7,7.228L234.406,378.978z"/>
		<path style="fill:#091438;" d="M176.039,387.993c-1.398,4.211-2.279,8.868-2.432,14.013    c-1.092,35.999,38.145,25.171,38.145,25.171s-36.297,7.818-34.875-24.915c1.412-32.736,32.947-45.369,32.947-45.369    c1.205,28.69,48.593,25.238,48.593,25.238s-44.442,0.439-47.081-28.49C211.335,353.642,184.41,362.717,176.039,387.993"/>
		<path style="fill:#091438;" d="M215.98,357.944c0,0-4.81-4.489-15.399-4.165c0,0,10.7-3.252,16.465,1.18L215.98,357.944z"/>
		<polygon style="fill:#091438;" points="185.3,423.374 183.449,421.787 222.8,375.779 224.651,377.366   "/>
		
			<rect x="168.286" y="389.563" transform="matrix(0.7463 -0.6656 0.6656 0.7463 -210.3293 229.7417)" style="fill:#091438;" width="55.852" height="2.438"/>
		
			<rect x="173.201" y="377.075" transform="matrix(0.822 -0.5695 0.5695 0.822 -180.7075 178.4752)" style="fill:#091438;" width="43.859" height="2.436"/>
		<path style="fill:#091438;" d="M220.214,393.367c-7.576,0.004-13.599-2.258-17.928-6.733c-8.473-8.759-7.338-22.716-7.286-23.306    l2.427,0.214c-0.01,0.137-1.078,13.458,6.62,21.406c4.23,4.372,10.378,6.346,18.27,5.925l0.133,2.43    C221.692,393.346,220.946,393.367,220.214,393.367z"/>
	</g>
	<g style="opacity:0.1;">
		<path style="fill:#FFFFFF;" d="M170.985,229.279c-24.234,4.752-65.213-5.591-61.316-38.236c2.262-18.951,41.271-3.474,48.53,1.739    c6.736,4.836-1.884,8.706-6.443,4.801c-3.784-3.241-7.256-7.414-9.621-11.797c-15.153-28.034-6.281-93.302,36.349-86.341    c2.197,0.362,8.329-3.136,4.337-3.786c-74.509-12.169-61.584,123.236-18.748,111.758c14.482-3.881,1.554-17.371-5.391-21.371    c-11.997-6.908-35-11.945-47.654-3.8c-14.758,9.497-7.469,24.894,1.433,36.354c13.441,17.308,37.962,18.368,57.541,14.529    C173.282,232.482,175.844,228.327,170.985,229.279L170.985,229.279z"/>
		<path style="fill:#FFFFFF;" d="M268.104,95.254c-27.386,13.455-41.833,85.298-3.442,93.155    c34.951,7.151,47.083-44.052,45.499-68.858c-0.474-7.425-8.167-15.503-14.867-8.271c-7.756,8.369,7.702,24.978,13.146,29.431    c23.826,19.474,58.318,1.039,59.802-27.64c0.181-3.467-6.975-2.29-7.126,0.646c-1.231,23.773-22.685,36.364-44.129,25.125    c-7.707-4.039-12.884-11.635-15.206-19.776c-3.275-11.474,0.847-0.467,1.317,2.377c0.753,4.555,0.044,9.697-0.395,14.287    c-1.941,20.307-21.225,67.53-46.9,41.144c-15.576-16.008-4.522-68.085,15.329-77.835    C275.487,96.897,271.558,93.557,268.104,95.254L268.104,95.254z"/>
		<path style="fill:#FFFFFF;" d="M382.533,225.465c-8.467,16.082-10.861,52.495,15.018,53.233    c17.134,0.488,31.913-25.284,24.149-39.574c-1.315-2.42-7.381-1.955-8.912-0.293c-7.983,8.671-0.579,19.979,6.383,27.453    c11.695,12.548,29.482,2.072,28.114-13.209c-1.178,0.316-2.355,0.632-3.533,0.948c2.501,13.223,17.406,13.56,22.915,2.42    c0.764-1.549-2.773-1.152-3.294-0.098c-10.51,5.205-15.873,4.112-16.087-3.27c-0.239-1.261-3.649-0.365-3.533,0.948    c1.157,12.918-15.367,17.237-23.812,8.176c-3.452-3.705-5.177-8.829-6.403-13.62c-1.47-7.886,8.417-13.198,6.763,3.382    c-0.453,4.545-2.868,8.735-5.154,12.573c-5.038,8.464-16.106,16.714-26.892,7.821c-3.897-3.213-5.688-8.345-7.154-12.984    c-3.466-10.965-0.471-23.939,4.728-33.807C386.627,224.045,383.081,224.425,382.533,225.465L382.533,225.465z"/>
		<path style="fill:#FFFFFF;" d="M410.82,215.5c-20.964-5.011-36.501-18.754-43.733-39.089c-2.715-7.635-3.11-16.689-0.573-24.346    c5.376-16.215,26.208-10.8,36.234-5.03c5.588,3.217,9.367,8.521,11.755,14.365c2.455,5.998,3.14,15.105-5.273-0.183    c-2.761-5.015-3.89-10.856-5.049-16.384c-2.557-12.197-0.781-25.564,4.002-36.919c5.607-13.318,26.63-19.977,34.317-6.403    c2.025,3.572,2.142,8.397,2.474,12.356c0.053,0.629,3.611-0.014,3.533-0.948c-0.983-11.72-6.659-24.732-21.007-21.807    c-14.252,2.908-21.807,12.363-25.97,26.253c-4.41,14.712-3.358,46.297,12.173,54.69c4.598,2.483,5.307-5.602,5.209-7.656    c-0.963-19.952-32.715-31.321-48.091-20.539c-12.836,8.998-10.352,24.813-5.665,37.994c6.566,18.463,24.451,30.618,42.756,34.994    C408.723,217.043,411.801,215.736,410.82,215.5L410.82,215.5z"/>
		<path style="fill:#FFFFFF;" d="M202.251,179.93c-10.806-1.763-17.548-6.529-23.694-15.464c-6.261-9.1-1.261-23.573,12.988-22.137    c4.887,0.495,10.837,6.617,13.599,9.96c4.395,5.317-1.823,6.831-5.361,0.734c-9.936-17.111-7.974-40.343-1.477-57.886    c5.451-14.716,30.753-43.438,41.938-18.681c3.709,8.208-2.529,19.636-6.685,26.474c-3.31,1.394-4.959,0.379-4.943-3.049    c-0.142-4.12,0.634-8.025,2.329-11.72c1.803-5.022,5.003-9.665,8.023-14.017c18.359-26.446,63.925-34.208,75.462-0.432    c0.518,1.517,7.502-0.604,7.063-1.889c-9.448-27.662-38.421-26.555-61.341-17.697c-11.263,4.351-20.639,12.004-28.135,21.325    c-4.088,5.082-17.525,26.341-7.465,32.08c12.633,7.203,20.848-14.101,23.087-22.457c7.029-26.246-24.246-22.544-37.284-14.319    c-19.308,12.18-26.687,40.8-23.759,62.147c1.464,10.68,6.42,36.834,22.736,27.229c15.785-9.29-14.331-22.832-24.393-20.135    c-29.312,7.853-11.04,38.875,11.481,42.552C198.021,182.814,204.028,180.218,202.251,179.93L202.251,179.93z"/>
		<path style="fill:#FFFFFF;" d="M348.435,119.951c-9.795-4.281-3.236-31.391-0.976-37.794c3.552-10.062,11.307-15.91,20.112-20.953    c10.887-6.237,19.239-4.966,12.856,9.068c-4.176,9.18-1.786-3.877-0.588-6.445c2.41-5.159,26.105-27.984,28.842-10.02    c0.498,3.273,7.579,1.496,7.063-1.89c-1.592-10.459-10.459-10.055-19.164-8.46c-11.88,2.17-20.869,12.914-25.185,23.475    c-1.867,4.573-3.775,16.215,4.905,14.354c9.08-1.953,13.268-13.198,14.147-21.529c2.033-19.299-31.179,0.197-36.025,3.677    c-10.417,7.481-15.214,19.324-17.273,31.63c-1.407,8.418-2.051,25.603,7.21,29.649    C347.321,126.009,352.56,121.753,348.435,119.951L348.435,119.951z"/>
		<path style="fill:#FFFFFF;" d="M94.495,77.307c-15.572,15.393-27.981,42.05-8.338,59.579c12.865,11.481,25.206-9.247,23.97-20.331    c-0.56-5.012-4.353-6.476-8.601-5.5c-6.696,1.535-7.145,12.724-7.481,17.799c-1.16,17.585,6.475,36.322,26.464,33.432    c3.563-0.516,5.704-5.05,0.847-4.348c-14.069,2.033-17.829-9.686-19.701-20.149c-0.759-4.243-0.586-8.608-0.304-12.886    c0.186-2.813,2.61-13.251,1.812-0.874c-0.574,8.882-10.383,11.126-15.446,4.625c-4.079-5.236-4.726-12.124-4.519-18.421    c0.406-12.345,8.694-23.19,17.046-31.443C103.273,75.793,96.344,75.481,94.495,77.307L94.495,77.307z"/>
		<path style="fill:#FFFFFF;" d="M136.39,264.256c-13.3,6.62-26.47,7.309-37.345-3.744c-4.791-4.868-10.352-13.111-8.276-20.268    c2.106-7.263,14.507-4.425,18.619-1.77c4.896,3.161-0.526,5.707-3.868,4.717c-2.155-0.636-4.095-1.928-5.979-3.115    c-5.874-3.702-19.255-15.584-9.931-22.256c1.951-1.394-0.915-2.697-2.356-1.665c-13.216,9.454,6.102,24.693,14.759,28.876    c3.364,1.623,11.588,2.985,13.65-1.478c2.262-4.896-6.317-9.451-9.876-10.052c-13.455-2.262-23.693,5.83-16.498,19.324    c3.686,6.912,9.593,14.02,17.055,17.083c11.209,4.601,21.151,1.707,31.628-3.509C140.129,265.323,138.199,263.353,136.39,264.256    L136.39,264.256z"/>
	</g>
	<path style="fill:#091438;" d="M51.891,314.724c0,0,5.858-19.608,25.631-17.072c19.773,2.543,43.589,42.444,19.192,50.81   c-24.39,8.362-23.415-14.656-14.861-19.081l-12.67-1.984l21.118-4.46c0,0-14.558,18.298-5.979,23.19   c8.573,4.896,28.506-4.587,15.278-26.527C76.306,280.977,51.891,314.724,51.891,314.724z"/>
</g>















</svg>
