<?xml version="1.0" encoding="UTF-8"?>
<!-- Generator: Adobe Illustrator 25.3.1, SVG Export Plug-In . SVG Version: 6.00 Build 0)  -->
<svg xmlns="http://www.w3.org/2000/svg" xmlns:xlink="http://www.w3.org/1999/xlink" version="1.1" id="Capa_1" x="0px" y="0px" viewBox="0 0 512 512" style="enable-background:new 0 0 512 512;" xml:space="preserve" width="512" height="512">
<g>
	<g>
		<g>
			<g>
				<path style="fill:#FFBBEC;" d="M108.049,510.72c-64.692,0-64.81-0.116-66.267-1.53c-0.086-0.083-0.119-0.115-0.202-0.162      c-3.209-1.754-5.541-5.505-5.781-9.32l-0.01-0.334c-0.021-0.582-0.056-1.556,0.255-2.964c0.903-4.207,1.355-6.309,1.713-7.36      l-0.101-0.022c0.032-0.147,22.544-103.664,22.544-103.664c0.154-0.707,0.27-1.241,0.379-1.642l-0.02-0.004l0.767-3.519      c1.154-5.342,5.969-9.221,11.447-9.221c55.913,0.064,103.358,0.087,143.59,0.087c73.87,0,123.834-0.08,156.896-0.132      c16.955-0.027,29.735-0.048,39.392-0.048c29.968,0,30.158,0.137,31.645,1.207c0.095,0.068,0.197,0.144,0.35,0.226      c1.537,0.791,2.875,1.926,3.965,3.365c0.108,0.148,0.189,0.239,0.262,0.324c1.263,1.445,1.263,1.445,12.129,51.578      c3.621,16.704,8.455,39.011,14.951,68.842c0.76,3.469-0.084,7.049-2.314,9.82c-2.237,2.779-5.565,4.373-9.134,4.373      c-28.938-0.008-55.903-0.011-80.991-0.011c-92.031,0-159.087,0.046-207.979,0.079      C147.495,510.705,125.428,510.72,108.049,510.72z"/>
				<g style="opacity:0.35;">
					<polygon style="fill:#FC09B2;" points="455.1,406.585 56.893,406.585 55.499,412.983 456.495,412.983      "/>
					<polygon style="fill:#FC09B2;" points="464.095,447.937 47.899,447.937 46.504,454.335 465.49,454.335      "/>
					<polygon style="fill:#FC09B2;" points="473.089,489.302 38.904,489.302 37.51,495.7 474.484,495.7      "/>
					<polygon style="fill:#FC09B2;" points="450.187,383.99 61.807,383.99 59.58,394.226 452.413,394.226      "/>
					<polygon style="fill:#FC09B2;" points="459.182,425.342 52.812,425.342 50.586,435.578 461.408,435.578      "/>
					<polygon style="fill:#FC09B2;" points="468.176,466.707 43.817,466.707 41.591,476.943 470.403,476.943      "/>
				</g>
				<g style="opacity:0.35;">
					<path style="fill:#FC09B2;" d="M471.938,506.23c-5.821,5.98,15.829,1.869-424.449,3.122c-5.527,0-10.078-4.359-10.415-9.724       c4.18-4.179,8.938-7.572,14.061-10.325c25.254-13.564,41.049-10.418,316.628-14.471c13.038-0.192,27.189-0.793,37.693-8.125       c28.592-19.678,6.656-67.027,26.894-94.437c4.392,0.479,10.752-1.746,15.239,4.184c2.194,3.018,0.58-1.752,25.5,112.849       c0.036,0.167,1.714,7.865,1.612,7.395C475.495,500.318,474.305,503.837,471.938,506.23z"/>
				</g>
			</g>
			<path style="fill:#000E3F;" d="M412.661,372.165c33.231,0,29.424,0.241,31.385,1.282c1.397,0.72,2.592,1.749,3.544,3.007     c1.902,2.617-0.511-6.626,27.112,120.244c1.423,6.492-3.537,12.641-10.197,12.641c-28.856-0.008-55.764-0.011-80.791-0.011     c-144.969,0-227.976,0.114-275.673,0.114c-71.345,0-63.618-0.254-65.822-1.522c-2.603-1.423-4.911-4.594-5.143-8.291     c0-0.488-0.118-1.426,0.218-2.942c0.026-0.121,1.532-7.015,1.614-7.389c-0.001,0.003-0.001,0.005-0.001,0.006c0,0,0,0,0,0.001     c0,0,0-0.001,0-0.001c0.003-0.015,0.005-0.022,0.005-0.022s-0.001,0.005-0.003,0.016c0.215-0.987,22.94-105.49,22.942-105.493     c0,0-0.013,0.062-0.041,0.188l0.768-3.519c1.036-4.798,5.284-8.214,10.197-8.214c55.911,0.064,103.344,0.087,143.576,0.087     C327.71,372.345,383.979,372.165,412.661,372.165 M61.848,383.802h0.006 M412.675,369.606v2.559l-0.005-2.559     c-9.661,0-22.437,0.02-39.385,0.048c-33.071,0.053-83.048,0.132-156.936,0.132c-44.526,0-92.832-0.029-143.574-0.087     c-6.081,0-11.421,4.303-12.701,10.233l-0.726,3.325l-0.041,0.188l0.007,0.001c-0.011,0.078-0.018,0.157-0.022,0.236     c-0.761,3.33-4.032,18.369-19.433,89.193l-3.452,15.873c0,0.001,0,0.001-0.001,0.003l-1.613,7.388     c-0.346,1.564-0.305,2.682-0.283,3.282c0.003,0.079,0.006,0.148,0.006,0.207c0,0.054,0.002,0.107,0.005,0.161     c0.268,4.263,2.764,8.301,6.37,10.321C42.847,512,43.305,512,108.04,512c17.387,0,39.466-0.015,67.527-0.034     c48.964-0.033,116.022-0.079,208.146-0.079c25.027,0,51.935,0.003,80.79,0.011c3.959,0,7.652-1.768,10.132-4.851     c2.474-3.075,3.409-7.046,2.565-10.896c-6.49-29.81-11.322-52.106-14.942-68.806c-10.942-50.487-10.942-50.487-12.423-52.18     c-0.052-0.059-0.11-0.123-0.176-0.214c-1.234-1.632-2.719-2.89-4.442-3.777c-0.061-0.032-0.119-0.079-0.174-0.119     C443.185,369.715,443.033,369.606,412.675,369.606L412.675,369.606z"/>
		</g>
		<g>
			<g>
				<g>
					<path style="fill:#FF967F;" d="M75.584,223.897c-0.605-1.623,0.822-3.454,2.527-3.22c5.753,0.79,10.764,8.174,14.168,12.873       l-0.095-0.151c1.386-2.176,3.328-2.554,5.699-1.9c7.859,2.168,12.367,8.544,14.006,8.585c6.028,0.15,10.667,2.496,11.735,8.73       c1.072,6.256,0.455,12.343-1.243,18.44c-5.308,19.056-20.236,22.134-36.413,1.407c-4.864-6.232-13.221-20.231-12.305-27.924       c0.158-1.328,1.046-1.585,2.388-1.655l0.049,0.169l-0.07-0.161c-1.563-2.449-5.374-7.907-5.655-10.509       c-0.215-1.993,2.729-2.824,4.86-2.093c0.813,0.279,1.564,0.737,2.342,1.114l0.068,0.155       C76.117,224.999,75.812,224.509,75.584,223.897z"/>
					<path style="fill:#000E3F;" d="M72.354,243.513c-0.588-5.041,2.324-4.665,0.382-7.468c-2.836-4.093-5.866-8.952-1.214-10.7       c0.502-0.189,1.064-0.216,1.597-0.323c1.353-0.271,1.095-0.312,1.129-1.823c0.053-2.336,1.633-3.879,3.952-3.762       c5.373,0.272,10.176,6.943,13.252,10.872c1.362,1.739,2.779-1.389,6.821-0.021c11.016,3.726,10.861,8.588,16.165,8.639       c3.03,0.029,8.608,2.212,9.955,7.575c4.05,16.122-4.113,39.471-18.476,37.439C89.003,281.549,73.716,255.206,72.354,243.513z        M119.88,270.936c2.83-5.582,4.408-14.024,2.367-23.961c-0.727-3.54-4.55-5.63-8.184-5.877c-1.992-0.135-2.415,0.8-3.687,1.756       c-0.87,0.653-1.759,1.281-2.64,1.92c-0.361,0.262-0.379,0.786-0.042,1.128c3.592,3.636,7.063,1.629,7.158,3.764       c0.073,1.644-2.461,0.861-5.636,3.334c-2.752,2.144-4.175,4.955-4.048,8.495c0.116,3.216,2.597,6.252,1.134,7.044       c-1.866,1.009-3.371-4.651-3.351-7.575c0.026-3.698,1.368-6.784,4.18-9.202c0.577-0.496,1.207-0.931,1.809-1.4       c0.812-0.632-1.224-1.379-3.218-3.194c-0.997-0.908-2.065-1.644-3.388-1.86c-3.517-0.573-6.72-3.982-8.605-7.464       c-1.355-2.504-2.999-4.813-4.658-7.107c-2.744-3.794-6.562-8.093-10.805-9.047c-0.55-0.124-1.075,0.058-1.486,0.478       c-1.303,1.333,0.828,3.837,13.213,20.446c1.44,1.931,1.783,2.043,1.934,2.972c0.101,0.619-0.692,0.92-1.047,0.873       c-0.816-0.107-0.704,0.048-9.056-11.04c-5.099-6.768-5.505-9.08-9.487-7.967c-0.723,0.202-1.13,0.826-0.875,1.489       c0.854,2.221,1.016,3.118,4.604,8.241c10.635,15.187,9.072,11.886,10.565,14.538c0.252,0.449,0.09,1.065-0.131,1.189       c-0.26,0.146-0.675,0.322-0.873,0.213c-2.008-1.111-5.413-6.892-9.992-12.426c-0.155-0.188-0.775-0.045-0.852,0.204       c-2.139,6.915,14.162,39.309,32.328,40.924c2.956,0.263,5.787-0.592,9.426-4.923       C118.039,275.111,118.92,273.006,119.88,270.936z M97.462,232.371c-2.124-0.693-3.993,0.424-3.461,1.465       c2.711,5.3,4.626,8.123,9.249,9.328c2.197,0.573,4.662-0.707,6.021-2.388c0.262-0.324,0.206-1.136-0.459-1.675       C104.398,235.528,103.293,234.275,97.462,232.371z"/>
				</g>
				<g>
					<path style="fill:#FF967F;" d="M465.138,227.757l0.068-0.155c0.779-0.377,1.53-0.836,2.342-1.114       c2.131-0.732,5.075,0.1,4.86,2.093c-0.28,2.602-4.092,8.059-5.655,10.509l-0.07,0.161l0.049-0.169       c1.341,0.069,2.229,0.327,2.388,1.655c0.915,7.692-7.441,21.691-12.305,27.924c-16.177,20.727-31.105,17.65-36.413-1.407       c-1.698-6.096-2.315-12.184-1.243-18.44c1.069-6.234,5.707-8.58,11.735-8.73c1.639-0.041,6.148-6.418,14.006-8.585       c2.37-0.654,4.313-0.276,5.699,1.9l-0.095,0.151c3.405-4.699,8.415-12.083,14.168-12.873c1.706-0.234,3.133,1.597,2.527,3.22       C466.971,224.509,466.666,224.999,465.138,227.757z"/>
					<path style="fill:#000E3F;" d="M436.867,283.941c-14.363,2.032-22.526-21.317-18.476-37.439       c1.347-5.363,6.925-7.546,9.955-7.575c5.304-0.051,5.149-4.913,16.165-8.639c4.043-1.367,5.46,1.761,6.822,0.021       c3.075-3.928,7.879-10.6,13.252-10.872c2.319-0.118,3.899,1.426,3.952,3.762c0.034,1.511-0.224,1.551,1.129,1.823       c0.533,0.107,1.095,0.135,1.597,0.323c4.652,1.748,1.622,6.607-1.214,10.7c-1.942,2.803,0.97,2.427,0.382,7.468       C469.068,255.206,453.781,281.549,436.867,283.941z M426.248,276.901c3.638,4.332,6.469,5.186,9.426,4.923       c18.166-1.614,34.467-34.008,32.328-40.924c-0.077-0.249-0.697-0.392-0.852-0.204c-4.579,5.534-7.984,11.315-9.992,12.426       c-0.198,0.11-0.612-0.067-0.873-0.213c-0.221-0.124-0.384-0.74-0.131-1.189c1.493-2.653-0.07,0.648,10.565-14.538       c3.588-5.123,3.75-6.02,4.604-8.241c0.255-0.663-0.152-1.287-0.875-1.489c-3.982-1.113-4.388,1.198-9.487,7.967       c-8.352,11.087-8.24,10.933-9.056,11.04c-0.355,0.047-1.148-0.253-1.047-0.873c0.151-0.929,0.494-1.041,1.934-2.972       c12.384-16.61,14.515-19.114,13.213-20.446c-0.411-0.42-0.936-0.602-1.486-0.478c-4.243,0.954-8.061,5.253-10.805,9.047       c-1.659,2.294-3.302,4.604-4.658,7.107c-1.885,3.482-5.089,6.89-8.605,7.464c-1.324,0.216-2.391,0.952-3.388,1.86       c-1.994,1.816-4.03,2.562-3.218,3.194c0.602,0.469,1.231,0.903,1.809,1.4c2.812,2.419,4.154,5.504,4.18,9.202       c0.02,2.924-1.485,8.585-3.351,7.575c-1.462-0.791,1.019-3.828,1.134-7.044c0.127-3.541-1.296-6.352-4.048-8.495       c-3.174-2.473-5.709-1.69-5.636-3.334c0.095-2.135,3.566-0.128,7.158-3.764c0.338-0.342,0.319-0.866-0.042-1.128       c-0.881-0.639-1.77-1.267-2.64-1.92c-1.272-0.956-1.695-1.891-3.687-1.756c-3.634,0.247-7.457,2.337-8.184,5.877       c-2.041,9.937-0.463,18.379,2.367,23.961C423.864,273.006,424.744,275.111,426.248,276.901z M433.973,239.102       c-0.665,0.539-0.721,1.35-0.459,1.675c1.358,1.681,3.824,2.96,6.021,2.388c4.622-1.205,6.538-4.028,9.249-9.328       c0.532-1.041-1.337-2.158-3.461-1.465C439.49,234.275,438.385,235.528,433.973,239.102z"/>
				</g>
			</g>
			<g>
				<g>
					<g>
						<path style="fill:#915EFD;" d="M169.039,418.749c8.799,0.168,9.567-0.087,11.755,1.157c4.151,2.361,1.452,1.066,11.632,5.622        c3.749,1.678,3.002,1.331,3.82,1.953c0.316,0.24,0.403,0.917,0.154,1.203c-1.629,1.873-1.17,0.436-4.516,4.805        c-2.162,2.823-2.747,5.988-2.04,9.405c1.166,5.641,3.753,7.593,5.036,9.146c0.58,0.703,0.297,1.471-0.654,1.741        c-0.53,0.15-1.065,0.315-1.609,0.381c-14.086,1.702-22.487,6.054-41.414,10.453c-0.87,0.202-1.475-0.186-1.966-0.881        c-3.073-4.35-5.14-13.675-2.584-23.082c2.526-9.297,6.571-14.397,10.316-19.499c0.325-0.443,0.748-0.813,1.118-1.224        c1.226-1.361,2.645-1.154,4.647-1.156c2.101-0.002,4.203-0.001,6.304-0.001C169.038,418.764,169.038,418.757,169.039,418.749z        "/>
						<path style="fill:#915EFD;" d="M397.003,449.482c0.167,5.1-1.182,10.22-3.67,14.275c-0.439,0.716-1.116,1.079-1.98,0.874        c-18.069-4.291-21.859-6.762-36.205-9.666c-3.8-0.769-3.749-0.328-7.464-1.486c-0.339-0.106-0.506-0.853-0.285-1.167        c1.73-2.459,6.575-5.624,5.31-14.296c-0.761-5.219-5.943-8.1-6.606-9.686c-0.661-1.582,4.731-2.608,11.884-6.359        c7.555-3.962,2.032-2.992,23.844-3.185c1.316-0.012,2.267,0.524,3.128,1.543c5.655,6.695,10.457,15.246,11.8,24.515        C396.98,446.369,396.929,447.935,397.003,449.482z"/>
						<path style="fill:#915EFD;" d="M443.528,282.324c-2.201-3.519-14.24-15.955-22.033-21.457        c-1.855-1.305-4.836-1.305-6.794,0.422c-1.267,1.113-1.049,1.011-28.762,28.519c-1.087,1.088-1.535,1.343-2.444,2.226        c-1.599-9.11-28.796-89.338-36.726-85.196c-5.936,3.106-10.176,10.49-12.669,16.692c-5.563,13.863-5.718,25.846-5.987,26.932        c-0.562,2.426-0.324,4.651-0.406,12.116c-0.106,10.09,2.741,23.532,5.339,33.179c0.998,3.697,3.173,8.687,3.762,10.261        c5.233,13.908,10.632,28.187,19.614,41.25c1.254,1.817,2.546,3.365,3.902,4.631c4.069,3.877,8.598,5.336,13.69,4.466        c3.186-0.538,6.589-1.97,10.223-4.286c6.896-4.389,9.698-7.805,11.656-9.289c2.661-2.035,2.968-2.585,11.311-11.643        c22.851-24.809,25.257-29.812,36.055-43.335C444.718,285.996,444.718,284.218,443.528,282.324z M382.831,292.714        c-10.428,10.427-14.33,14.304-14.739,14.675c0.704-0.767,11.899-12.014,15.225-15.174        C383.163,292.368,383.01,292.521,382.831,292.714z"/>
						<path style="fill:#915EFD;" d="M212.266,283.104c-1.164,7.818-4.043,17.03-4.235,17.388        c-2.341,4.222-10.581,32.524-24.092,49.694c-0.409,0.512-0.844,1.011-1.305,1.471c-3.493,3.557-8.495,5.643-13.908,4.696        h-0.013c-12.411-2.162-23.785-15.277-33.202-24.937c-2.226-2.93-14.087-15.11-22.646-26.037        c-1.51-1.919-12.872-16.582-13.754-17.9c-3.429-5.118,4.248-9.174,7.677-13.972c0.307-0.435,0.704-0.857,1.139-1.19        c7.062-5.438,13.613-16.032,19.755-11.08c0.102,0.077,23.951,23.453,31.244,30.681c-0.013,0.038-0.026,0.077-0.038,0.115        c1.331,1.28,1.983,1.894,2.098,1.97c-0.141-0.166-0.883-0.908-2.06-2.085c4.273-14.368,22.944-73.022,34.303-84.242        c1.319-1.302,1.906-1.415,3.357-0.438C217.722,221.484,215.656,260.305,212.266,283.104z"/>
						<path style="fill:#915EFD;" d="M256.008,272.15c0,8.979,0.223,10.687-1.101,18.848c-1.136,7.004-2.216,12.62-6.272,21.598        c-3.269,7.235-7.14,14.718-12.305,20.787c-1.176,1.381-2.109,2.99-2.975,2.954c-2.678-0.111-0.489,2.237-7.011,8.312        c-1.942,1.81-3.752,3.758-5.903,5.343c-1.23,0.906-1.844,2.007-4.866,3.99c-0.811,0.532-0.975,0.378-9.672-1.608        c-0.487-0.111-0.902-0.788-0.872-1.291c0.053-0.883,0.417-2.86,1.381-9.512c0.363-2.508,0.159-5.041,0.698-7.596        c0.534-2.533,0.226-29.178,0.145-33.533c-0.081-4.326-0.309-0.193-0.617-8.931c-0.201-5.709-0.547-4.541-0.529-5.608        c0.054-3.332-0.682-6.598-0.824-9.915c-0.056-1.308-0.542-4.029-0.572-4.605c-0.165-3.21,0.517-8.41,0.224-11.561        c-1.134-12.175-5.632-35.141-9.188-49.981c-0.542-2.264-0.985-3.364,0.174-4.236c3.576-2.69,19.568-10.781,23.914-12.259        c1.738-0.591-0.085-3.6,4.885-8.092c2.016-1.822,5.716-5.604,14.901-10.754c2.281-1.279,2.591,1.877,3.189,4.6        c5.856,26.649,8.709,37.333,11.333,58.591c2.35,19.04,1.848,27.447,1.952,34.457        C256.068,272.15,256.038,272.15,256.008,272.15z"/>
						<path style="fill:#915EFD;" d="M301.66,174.106c0.412,0.12,0.849,0.169,1.206,0.365c5.298,2.915,10.335,6.343,15.121,10.974        c5.547,5.368,2.989,9.337,4.249,8.415c0.477-0.349,1.005-0.381,1.527-0.173c5.685,2.268,20.189,9.822,22.964,11.982        c0.556,0.433,0.847,0.996,0.682,1.7c-2.646,11.316-5.82,30.442-9.756,66.022c-1.235,11.162-1.088,8.449-1.241,11.865        c-0.324,7.226-0.403,1.657-0.705,10.584c-0.238,7.024-0.529,3.903-0.539,7.601c-0.071,27.344-0.156,27.295,0.33,29.19        c0.109,0.423,0.139,0.879,0.128,1.318c-0.087,3.445,0.518,6.832,0.859,10.24c0.546,5.449,2.122,7.862-0.002,8.321        c-9.828,2.124-8.493,1.853-9.689,1.409c-0.202-0.075-7.663-6.025-12.622-11.242c-1.418-1.492-1.755-2.55-3.838-6.558        c-0.382-0.735-1.09,0.926-2.042-0.182c-11.943-13.892-19.557-32.934-20.671-45.27c-1.608-6.309-1.605-27.928-1.384-29.17        c0.579-3.241,0.29-5.209,0.754-10.128c2.953-31.302,6.319-42.889,13.061-73.473c0.231-1.046,0.547-2.075,0.889-3.089        C301.03,174.549,301.372,174.377,301.66,174.106z"/>
					</g>
					<path style="fill:#FC09B2;" d="M260.317,209.904c-0.935-3.77,1.671-1.143,7.617-16.857c1.667-4.405,2.402-6.782,2.726-7.266       c0.253-0.378,0.906-0.396,1.087-0.117c0.855,1.318,2.38,5.836,2.717,6.898c1.541,4.857,5.222,11.907,6.89,13.89       c1.096,1.304,1.113,2.727,0.666,4.279c-0.665,2.312-1.654,4.466-2.944,6.488c-1.106,1.735,0.549,1.427,0.56,6.946       c0.003,1.484,0.07,11.202,0.539,13.361c1.049,4.835,0.442,10.413,0.607,15.356c0.382,11.409,0.503,22.978,1.451,34.353       c0.749,17.553,1.499,35.107,2.248,52.66c0,6.283,1.628,13.135,0.387,19.321c-0.661,3.295-0.279,6.573-6.12,14.084       c-1.228,1.58-2.623,3.014-4.293,4.125c-2.835,1.885-3.723,1.906-6.591-0.13c-3.312-2.351-6.34-6.755-8.131-10.363       c-3.572-7.195-2.056-16.041-1.733-23.739c0.368-8.777,0.737-17.554,1.105-26.332c0.737-17.554,1.473-35.109,2.21-52.663       c0.459-10.932,1.147-21.856,1.394-32.788c0.051-2.282,0-4.563,0.426-6.83c0.536-2.853-0.652-5.486,1.574-5.702       c3.791,3.834,0.632,0.632,2.065,2.057c-0.346-0.359-0.515-0.534-1.392-1.424C265.162,219.297,261.382,214.198,260.317,209.904z       "/>
					<g>
						<path style="fill:#FFFFFF;" d="M249.834,203.905c-2.648-4.711-1.245,0.969-7.592-28.534c-0.179-0.833-0.234-1.906,0.47-2.387        c1.426-0.973,2.944-1.774,4.638-2.16c0.402-0.092,0.85,0.02,1.276,0.038l0.128,0.128l-0.144-0.112        c0.417-0.813,1.1-1.297,1.938-1.605c4.671-1.715,12.88-4.531,18.079-4.376c1.285,0.038,2.514-0.348,3.836-0.228        c11.136,1.01,12.223,2.443,18.464,4.189c1.475,0.413,2.527,1.638,4.06,1.896c1.459,0.246,4.428,1.866,4.971,2.253        c1.034,0.736,0.72,1.288-3.24,18.803c-2.226,9.845-1.075,7.202-4.265,12.205l0.103-0.104c1.115,0.466,1.282,0.691,1.096,1.586        c-7.421,35.862-8.133,65.517-7.605,71.147c1.102,11.736,0.415,20.475,9.056,39.131c12.988,28.04,35.36,37.815,29.486,39.423        c-52.276,14.31-40.003,18.088-39.395,1.975c0.036-0.951-0.114-13.5-0.288-14.913c-0.68-5.526-0.478-15.258-0.641-16.245        c-0.956-5.783-0.168-13.9-0.997-18.543c-0.168-0.94-0.184-6.6-0.273-10.952c-0.123-5.946-0.406-2.864-0.492-6.942        c-0.474-22.714-0.538-5.287-1.012-25.611c-0.218-9.366-0.43-3.547-0.584-10.806c-0.463-21.799-0.162,0.413-0.764-21.899        c-0.203-7.525-0.506-1.955-0.58-13.34c-0.011-1.651,1.66-2.931,2.871-7.891c0.159-0.651,0.539-1.174,1.065-1.587        c0.177,0.053,0.206,0.5,0.517,0.198c-0.177-0.061-0.354-0.121-0.531-0.182c-4.936-4.499-9.076-16.155-11.096-22.501        c-0.235-0.738-0.28-1.462,0.084-2.173c2.543-0.221,2.079-0.151,2.29-0.308c-0.083-0.049-0.163-0.136-0.249-0.142        c-0.721-0.05-1.425-0.009-2.026,0.469c-2.753-0.096-1.288,1.545-7.229,15.184c-3.54,8.127-5.982,7.91-5.291,10.471        c3.902,14.456,3.14-3.7,2.168,32.355c-0.202,7.468-0.426,3.674-0.517,7.827c-0.229,10.468-0.08,11.609-0.568,13.757        c-0.243,1.07-0.213,15.093-0.866,17.963c-0.281,1.233,0.016,12.738-0.655,15.905c-0.167,0.789-0.123,5.396-0.259,10.617        c-0.206,7.874-0.435,3.885-0.53,8.268c-0.204,9.39-0.091,11.302-0.556,13.919c-0.22,1.238-0.131,5.943-0.256,10.617        c-0.162,6.068-0.458,3.961-0.494,6.275c-0.271,17.125-0.046,12.476,1.654,19.7c0.11,0.468-0.588,1.112-1.06,1.002        c-3.311-0.776-5.977-2.587-39.588-12.344c-0.424-0.123-0.852-0.231-1.27-0.37c-0.564-0.188-0.812-0.937-0.445-1.339        c2.02-2.21,32.99-24.138,38.563-63.021c0.875-6.104,0.429-6.009,0.691-7.256c0.586-2.791,0.564-7.544,0.466-15.243        c-0.095-7.537-0.13-6.389-0.248-10.264c-0.228-7.483-0.572-5.886-0.619-7.833c-0.111-4.541-0.595-8.542-3.25-26.545        c-2.595-17.603-4.793-19.206-2.488-19.55c0.213,0.223,0.559,0.577,0.746,0.769l-0.087-0.122        C250.278,204.332,250.056,204.118,249.834,203.905z"/>
						<path style="fill:#FFFFFF;" d="M348.58,450.88c-0.525,0.563-1.113,1.087-1.638,1.651c-0.844,0.883-1.881,1.164-3.032,0.883        c-3.685-0.87-8.905-0.179-12.193-0.96c-0.563-0.141-15.162-0.077-15.238-0.077c-1.216,0-1.714,0.243-2.661,0.256        c-0.269,0.013-0.576,0-0.947-0.051c-0.397-0.051-0.794-0.665-0.64-0.998c1.254-2.584,4.018-7.05,7.088-12.718        c0.729-1.369,1.74-2.188,3.173-2.7c22.314-7.856,21.52-8.611,23.017-7.498c0.217,0.167,0.435,0.32,0.64,0.486        c0.013,0.013,0.013,0.013,0.026,0.025c0.916,0.712,1.762,1.508,2.555,2.349c0.233,0.229,0.441,0.444,0.619,0.645        c0.55,0.601,1.036,1.228,1.51,1.88C353.762,438.175,353.186,445.878,348.58,450.88z"/>
						<path style="fill:#FFFFFF;" d="M229.001,452.684c-0.051,0-0.103,0-0.154-0.013c-0.026,0-0.064-0.013-0.089-0.013        c-0.346-0.026-0.538-0.077-0.793-0.128c-0.077-0.013-0.166-0.026-0.256-0.038c-0.179-0.026-0.409-0.064-0.717-0.077        c-0.153-0.026-0.32-0.038-0.473-0.038c-0.33-0.03-0.612-0.031-0.918-0.044c-0.613-0.021-1.374-0.032-2.383-0.032        c-0.064,0.012-0.115,0.012-0.166,0h-1.74c-8.048-0.013-10.261,0.038-12.168,0.396c-2.073,0.409-6.769-0.09-10.249,0.742        c-0.307,0.077-0.652,0.064-0.985,0.077c-0.806,0.025-1.523-0.218-2.137-0.755c-2.022-1.791-3.544-3.941-4.619-6.41        c-0.793-1.842-1.318-3.762-1.151-5.681c-0.218-3.224,0.883-5.847,2.827-8.138c0.051-0.064,0.103-0.128,0.166-0.192        c0.013-0.013,0.013-0.013,0.026-0.025c0.064-0.077,0.115-0.141,0.179-0.205c0.609-0.671,1.248-1.314,1.917-1.92        c0.351-0.329,0.636-0.577,0.872-0.767c0.409-0.333,0.691-0.499,0.96-0.665c0.781-0.448,1.561-0.537,2.457-0.192        c21.009,8.137,21.942,7.344,23.017,9.084c1.958,3.186,6.73,11.349,7.741,13.524        C230.511,451.93,229.871,452.735,229.001,452.684z"/>
					</g>
					<g>
						<path style="fill:#4217A6;" d="M166.717,427.786c-0.141-0.346-0.474-0.614-0.87-0.665c-2.828-0.371-0.218,7.741-2.892,15.98        c-0.512,1.535-1.203,3.058-1.881,4.722c-0.026,0-0.269,0.665,0.154,1.203c0.396,0.499,1.126,0.589,1.625,0.192        C169.289,444.125,169.826,435.373,166.717,427.786z"/>
						<path style="fill:#4217A6;" d="M174.176,426.43c-1.689,0.384-0.333,1.983,0.218,6.577c1.062,9.66-4.465,14.381-3.16,16.032        c0.396,0.499,1.126,0.576,1.625,0.179C183.862,440.466,177.004,425.764,174.176,426.43z"/>
						<path style="fill:#4217A6;" d="M380.285,449.217c0.499,0.397,1.228,0.307,1.625-0.192c0.422-0.537,0.179-1.203,0.154-1.203        c-0.678-1.663-1.369-3.186-1.881-4.722c-2.674-8.24-0.064-16.351-2.892-15.98c-0.397,0.051-0.729,0.32-0.87,0.665        C373.312,435.373,373.849,444.125,380.285,449.217z"/>
						<path style="fill:#4217A6;" d="M370.279,449.217c0.499,0.397,1.228,0.32,1.625-0.179c1.305-1.651-4.222-6.372-3.16-16.032        c0.55-4.593,1.906-6.193,0.218-6.577C366.134,425.764,359.276,440.466,370.279,449.217z"/>
						<path style="fill:#4217A6;" d="M390.827,420.148c-2.009-0.589-3.979-1.433-6.154-0.96c-0.205,0.051-0.448,0.013-0.652-0.051        c-0.256-0.076-0.601-0.14-1.049-0.192c0.768,0.217,1.395,0.678,1.983,1.381c5.656,6.692,10.466,15.251,11.81,24.515        c0.218,1.523,0.166,3.096,0.243,4.644c0.166,5.092-1.19,10.21-3.672,14.266c-0.268,0.422-0.601,0.729-1.024,0.857        c0.729,0.09,1.535,0.167,2.419,0.256c4.964,0.461,9.225-1.817,11.016-7.114c0.64-1.894,1.075-3.838,1.1-5.847        C406.936,440.35,402.151,423.423,390.827,420.148z"/>
						<path style="fill:#4217A6;" d="M364.419,418.471c2.418-2.239,12.245-7.523,19.192-15.174        c8.586-9.494,9.827-21.892,6.142-29.863c-3.48-7.549-9.187-13.422-15.737-17.068c-5.092,0.87-9.621-0.589-13.69-4.466        c-20.024-2.904-45.293,5.975-69.36,13.946c-7.203,2.38-8.956,2.84-10.376,5.31c-1.42,2.482-4.721,6.18-8.137,7.587        c-1.241,0.512-2.342,0.166-3.467-0.512c-7.216-4.363-6.193-8.483-10.389-9.954c-1.676-0.589-3.301-1.292-4.977-1.842        c-35.71-11.771-41.275-12.59-53.405-14.561c-1.855-0.307-3.723-0.64-5.592-0.678c-3.979-0.077-7.945-0.231-11.924,0.448        c-0.026,0-0.038,0.013-0.064,0.013c-3.493,3.557-8.495,5.643-13.908,4.696h-0.013c-18.181,9.724-24.706,30.681-8.956,47.852        c2.406,2.623,5.271,4.708,8.061,6.896c19.294,15.149,46.7,22.084,55.567,26.216c0.307,1.817-0.755,0.819,9.57,17.695        c0.87,1.433,1.996,2.661,3.263,3.736c3.711,3.148,9.046,1.356,29.709-4.619c1.996-0.576,2.7-0.768,3.263-1.932        c2.265-0.025,3.774,0.973,16.607,4.542c3.941,1.088,7.932,2.034,11.886,3.096c1.292,0.345,2.61,0.384,3.941,0.448        c2.137,0.09,3.864-0.716,5.361-2.175c1.676-1.65,3.045-3.506,4.235-5.514c3.083-5.246,6.18-10.479,8.969-15.891        c0.448-0.857,0.857-1.599,1.983-0.921c4.158-0.883,13.332-4.875,23.439-8.175c0.141,0.371,0.397,0.755,0.755,1.151        c-0.128-0.153-0.218-0.294-0.269-0.435c-0.653-1.574,4.734-2.597,11.886-6.359c4.414-2.303,4.363-2.943,7.894-3.109        C364.765,418.804,364.189,418.689,364.419,418.471z"/>
						<path style="fill:#4217A6;" d="M156.046,419.137c-4.568,1.088-10.313,2.111-14.381,9.443        c-4.197,7.561-7.459,19.857-5.143,28.404c2.508,9.199,12.884,8.931,12.078,6.743c-0.396-1.075-0.755-2.149-1.075-3.211        c-1.715-5.732-2.316-11.413-1.484-17.081c0.026-0.192,0.064-0.384,0.09-0.563c0.576-3.544,1.715-7.075,3.493-10.62        c2.149-4.286,4.926-8.137,7.6-12.104C157.466,419.789,157.07,418.881,156.046,419.137z"/>
					</g>
					<g style="opacity:0.18;">
						<path style="fill:#000E3F;" d="M346.174,429.181c-0.013-0.013-0.013-0.013-0.026-0.025c-0.205-0.167-0.422-0.32-0.64-0.486        c-1.497-1.113-0.704-0.358-23.017,7.498c-1.433,0.512-2.444,1.331-3.173,2.7c-3.071,5.668-5.834,10.133-7.088,12.718        c-0.154,0.333,0.243,0.947,0.64,0.998c0.371,0.051,0.678,0.064,0.947,0.051c5.642-0.998,8.419,0.755,10.21-1.714        c2.456-3.391,3.301-4.696,4.657-6.449c6.743-8.777,13.307-6.717,19.499-9.174c2.278-0.896,2.419-1.689,1.165-3.122        C348.669,431.407,347.569,430.447,346.174,429.181z M222.424,437.65c-1.075-1.74-2.008-0.947-23.017-9.084        c-0.896-0.346-1.676-0.256-2.457,0.192c-0.268,0.166-0.55,0.333-0.96,0.665c-0.589,0.473-1.459,1.28-2.968,2.892        c-0.012,0.013-0.012,0.013-0.026,0.025c-0.064,0.064-0.115,0.128-0.166,0.192c-0.768,0.96-0.499,1.766,0.051,2.06        c0.576,0.307,1.164,0.665,1.791,0.832c2.239,0.55,4.478,1.152,6.756,1.523c3.928,0.64,7.331,2.226,10.159,5.067        c1.779,1.817,3.48,3.685,4.837,5.847c0.474,0.742,1.024,1.433,1.459,2.201c0.96,1.689,1.983,2.137,3.429,2.239        c0.512,0.038,1.088,0.026,1.74,0c0.051,0.012,0.102,0.012,0.166,0c0.934-0.013,2.022-0.038,3.301,0.077        c0.153,0,0.32,0.013,0.473,0.038c0.23,0.013,0.474,0.038,0.717,0.077c0.09,0.013,0.166,0.026,0.256,0.038        c0.256,0.038,0.525,0.077,0.793,0.128c0.025,0,0.064,0.013,0.089,0.013c0.051,0.013,0.102,0.013,0.154,0.013        c0.87,0.051,1.51-0.755,1.164-1.51C229.155,449,224.382,440.836,222.424,437.65z"/>
						<path style="fill:#000E3F;" d="M285.012,345.403c0.043-1.787-0.607-3.614,1.469-6.607c7.863-11.336,7.362-21.445,9.141-20.966        c0.615,0.166,0.821,0.696,1.066,1.18c11.836,23.388,31.744,34.287,28.881,35.739c-2.852,1.446,5.935-2.245-35.742,11.187        c-1.788,0.576-3.569,1.174-5.359,1.743c-0.521,0.165-1.151-0.429-1.042-0.948c0.068-0.324,0.121-0.657,0.233-0.966        C286.23,358.647,284.874,351.141,285.012,345.403z"/>
						<path style="fill:#000E3F;" d="M251.573,359.007c3.169-0.052,5.22-1.236,5.73,0.688c1.865,7.033,1.919,7.052,1.68,7.364        c-0.185,0.242-0.479,0.571-0.721,0.566c-0.536-0.011-1.085-0.157-1.598-0.336c-8.893-3.097-18.336-5.838-24.208-8.1        c-0.155-0.06-0.236-0.323-0.33-0.503c-0.006-0.011,0.166-0.164,0.262-0.173C237.817,358.008,234.948,359.278,251.573,359.007z        "/>
					</g>
					<g>
						<path style="fill:#915EFD;" d="M312.087,417.721c-3.097,11.91-11.584,26.525-20.445,35.12        c-0.939,0.91-2.426-0.243-1.772-1.382c2.461-4.278,7.06-11.585,10.295-17.176c9.896-16.609,9.782-18.728,11.434-17.748        C312.016,416.783,312.202,417.273,312.087,417.721z"/>
						<path style="fill:#915EFD;" d="M247.674,448.201c2.242,2.745,2.142,5.865,2.138,5.729c0.071,2.888-4.713,0.986-5.699-4.025        c-0.246-1.393-0.08-2.386-0.083-2.257c0.087-0.693,0.719-1.186,1.412-1.099C246.187,446.641,247.148,447.583,247.674,448.201z        "/>
					</g>
					<g style="opacity:0.25;">
						<path style="fill:#000E3F;" d="M384.699,420.032c-1.228-1.459-2.584-1.279-4.926-1.254        c-12.884,0.09-15.776,0.269-15.353-0.269c1.676-2.111,17.657-10.133,23.568-21.392c0.23-0.448-0.09-1.228-0.538-1.407        c-2.623-1.036-4.9-0.768-10.466,0.256c-11.797,2.162-27.137,8.841-37.821,14.15c-11.336,5.63-16.454,7.191-14.919,8.227        c3.723,2.546,5.08,1.842-0.499,12.219c-0.179,0.333-0.499,0.371-0.819,0.167c-1.1-0.678-0.857,0.256-9.801,2.661        c-8.47,2.29-12.513,1.996-13.716,2.278c-3.02,0.703-7.255,0.345-11.925,0.448c-4.107,0.102-8.163-0.665-12.245-0.832        c-1.766-0.064-3.519-0.41-5.258-0.742c-50.04-9.391-75.028-34.814-109.483-39.408c-1.766-0.23-3.544-0.128-5.246,0.461        c-0.704,0.243-0.972,0.896-0.627,1.599c1.241,2.559,4.696,7.037,8.431,10.159c17.158,14.394,23.644,11.08-2.482,11.451        c-0.934,0.013-1.727,0.333-2.38,1.011c-0.448,0.486-0.947,0.934-1.343,1.471c-3.672,4.964-7.651,10.146-10.159,19.23        c-2.239,8.086-1.177,16.07,1.497,21.393c0.384,0.768,1.293,0.973,1.958,0.512c3.889-2.725,5.105-10.491,6.218-14.356        c3.506-12.245,15.008-19.576,25.576-22.365c4.555-1.203,5.386-1.113,6.193-2.085h-0.013l-0.154-0.141l0.179,0.128        l-0.013,0.013c3.173,0.985,6.09,2.508,9.11,3.864c0.256,0.115,0.461,0.358,0.691,0.538c-0.422,0.384-0.691,0.563-0.985,0.742        c0.781-0.448,1.561-0.537,2.457-0.192c21.009,8.137,21.942,7.344,23.017,9.084c1.958,3.186,6.73,11.349,7.741,13.524        c0.298,0.65-0.137,1.335-0.819,1.48c0.588-0.084,1.036-0.512,1.305-1.135l-0.128-0.128l0.141,0.115        c7.395,11.311,6.116,11.055,35.275,2.61c2.047-0.576,2.699-0.781,3.25-1.919c-0.026-0.013-0.051-0.038-0.077-0.064        c0.038,0.013,0.064,0.013,0.102,0.025c-0.013,0.013-0.013,0.026-0.026,0.038c1.113,0.013,2.188,0.243,3.25,0.589        c11.528,3.659,10.94,3.224,25.218,7.037c1.408,0.371,2.828,0.422,4.261,0.448c3.954,0.076,5.809-2.764,9.186-7.306        c0.704-0.96,1.651-0.141,2.456-0.295c0.09-0.013,0.166-0.025,0.256-0.038c-0.269,0.013-0.576,0-0.947-0.051        c-0.397-0.051-0.794-0.665-0.64-0.998c1.254-2.584,4.018-7.05,7.088-12.718c0.729-1.369,1.74-2.188,3.173-2.7        c22.314-7.856,21.52-8.611,23.017-7.498c0.217,0.167,0.435,0.32,0.64,0.486c-0.346-0.307-0.704-0.64-1.075-0.985        c-0.653-0.614,1.177-1.28,8.867-4.427c0.294-0.115,0.653-0.09,0.985-0.128l-0.013-0.013l0.128-0.14l-0.115,0.153        c0.921,0.857,0.166,0.717,3.493,1.548c3.007,0.755,6.001,1.497,8.816,2.879c24.924,12.232,16.172,26.613,25.052,34.201        c0.691,0.588,1.599,0.46,1.97-0.307C401.037,448.04,394.806,431.906,384.699,420.032z M223.359,438.892h-0.012        c-0.435-0.665-0.883-1.318-1.305-1.983c-0.013,0-0.013,0-0.026,0l-0.128-0.166l0.141,0.154c0,0,0,0.013,0.013,0.013        c0.294,0.038,0.601,0.051,0.883,0.14C223.627,437.241,223.525,437.472,223.359,438.892z M268.651,452.006        c0.269-0.307,0.333-0.039,0.448,0.115C268.946,452.083,268.792,452.044,268.651,452.006z M312.396,450.868l-0.115,0.102        l0.102-0.128l0.115-0.103L312.396,450.868z M317.719,441.553l-0.115,0.115l0.103-0.128l0.102-0.115L317.719,441.553z         M320.393,436.858c0,0.013-0.013,0.025-0.013,0.038l-0.153,0.128l0.128-0.141C320.367,436.87,320.38,436.87,320.393,436.858        c0.601-1.484,0.346-1.126,0.998-1.216C321.442,436.345,321.749,436.051,320.393,436.858z M360.901,420.301l-0.115,0.09        l0.103-0.115l0.115-0.09L360.901,420.301z"/>
						<path style="fill:#000E3F;" d="M284.164,363.183c-1.202,5.179-5.837,11.531-9.48,14.075c-3.031,2.117-4.058,2.14-7.112-0.198        c-3.552-2.719-6.759-7.473-8.558-11.667c-0.439-1.023-0.427-1.918,0.414-2.722c17.11-16.372,10.565-55.803,10.992-85.577        c0.108-7.506,2.947-30.826,5.208-39.103c0.658-2.411,1.492-4.774,2.29-7.142c0.168-0.499,0.498-0.952,0.81-1.385        c0.092-0.127,0.378-0.131,0.578-0.147c0.647-0.052,0.29,3.881,0.912,9.279c0.374,3.248-0.057,10.362,0.628,15.691        c0.365,2.837,0.208,12.622,0.866,17.86c0.369,2.942,0.007,10.581,0.661,15.903c0.385,3.128-0.003,10.155,0.659,15.903        c0.487,4.226-0.079,11.722,0.68,15.903c0.174,0.956,0.164,7.641,0.289,11.612c0.048,1.534,0.425,4.299,0.462,5.944        c0.241,10.723,0.056,12.339,0.587,14.914C285.249,353.291,285.468,357.565,284.164,363.183z"/>
						<path style="fill:#000E3F;" d="M175.711,245.039c0.645,0.422,0.128-1.065-2.545,16.614        c-2.784,18.414,7.531,41.484,2.935,47.223c-0.189,0.237-0.746,0.189-0.813-0.11c-0.235-1.043,0.291-0.504-15.145-15.746        c-0.822-0.811-0.991-1.675-0.707-2.708C160.764,285.475,174.162,245.806,175.711,245.039z"/>
						<path style="fill:#000E3F;" d="M371.545,268.171c0.087-6.267-3.26-13.489-4.759-21.861c-0.031-0.171,0.154-0.379,0.238-0.569        c1.845,1.175,15.054,40.869,15.654,42.93c0.919,3.156,1.134,2.92-1.466,5.464c-4.191,4.099-8.286,8.296-12.432,12.442        c-0.555,0.555-1.007,1.154-1.346,1.869c-0.276,0.583-1.011,0.587-1.259,0.038c-0.27-0.597-0.593-1.214-0.668-1.848        c-0.182-1.54-0.164-3.098,0.153-4.625C368.859,286.617,371.34,282.859,371.545,268.171z"/>
						<path style="fill:#000E3F;" d="M270.021,222.27c-1.492,0.029-3.482-1.298-4.985-3.468c-1.171-1.691,4.544-1.588,8.038-9.983        c2.263-5.437,1.578-6.609,2.45-10.356c0.083-0.356,0.474-0.636,0.682-0.518c1.335,0.758,0.023,1.255,5.515,9.052        c0.608,0.863,0.723,1.804,0.508,2.788c-0.777,3.562-2.352,6.759-4.715,9.51C275.903,221.17,273.802,222.238,270.021,222.27z"/>
					</g>
					<g>
						<path style="fill:#4217A6;" d="M110.117,292.965l-0.005,0.007c-0.811,0.967-2.362,0.089-1.954-1.105        c3.243-9.422,12.657-18.651,21.879-21.794c1.116-0.38,1.943,1.071,1.042,1.836        C120.577,280.824,119.759,281.465,110.117,292.965z"/>
						<path style="fill:#4217A6;" d="M432.667,292.965l0.005,0.007c0.811,0.967,2.362,0.089,1.954-1.105        c-3.243-9.422-12.657-18.651-21.879-21.794c-1.116-0.38-1.943,1.071-1.042,1.836        C422.206,280.824,423.024,281.465,432.667,292.965z"/>
						<path style="fill:#4217A6;" d="M312.95,194.763c-3.536,6.136-9.078,11.557-9.126,18.186c-0.052,4.063,2.307,4.195,4.323,8.814        c1.766,4.134,1.525,8.124-0.108,12.211c-1.617,4.082-15.531,28.14-10.694,64.816c0.193,1.406-1.885,1.798-2.211,0.399        c-4.575-20.361-2.357-43.65,5.711-60.524c2.008-4.275,4.72-7.678,4.216-12.365c-0.612-6.454-5.447-6.385-5.043-13.487        c0.572-11.173,12.414-17.623,13.111-25.466l0.005-0.055c0.05-0.566,0.549-0.982,1.114-0.929        C316.558,186.578,314.236,192.529,312.95,194.763z"/>
						<path style="fill:#4217A6;" d="M232.519,194.337c3.715,5.153,10.665,12.046,9.974,19.684        c-0.524,6.331-4.953,7.702-5.162,12.98c-0.185,3.642,1.822,6.166,3.172,8.893c4.339,8.248,7.271,21.252,8.576,33.789        c0.948,10.001-0.366,19.765-1.182,29.394c-0.052,0.619-0.597,1.078-1.216,1.026c-4.18-0.354,6.003-33.304-10.843-63.735        c-0.373-0.851-3.101-4.735-2.728-9.614c0.441-6.766,4.928-8.081,5.595-13.107c1.174-8.195-10.479-16.909-11.178-24.871        c-0.113-1.295,1.792-1.562,2.032-0.291C229.702,188.829,229.522,190.11,232.519,194.337z"/>
					</g>
					<path style="fill:#FF967F;" d="M249.587,170.629c1.574-5.702,2.585-9.799,3.288-12.852c1.05-4.619,1.382-6.876,1.817-8.729       c0.076-0.209,2.239-17.68,11.835-22.808c8.585-4.58,18.68,5.128,21.111,22.769c0.358,2.557,0.998,5.65,1.766,8.925       c0.973,4.137,2.162,8.547,3.301,12.527c-3.993,8.242-12.153,13.556-21.112,13.741       C262.356,184.391,253.773,179.098,249.587,170.629z"/>
				</g>
				<path style="fill:#000E3F;" d="M432.125,268.125c-0.973-0.923-1.971-1.871-3.044-2.869l-0.1-0.1      c-5.514-5.239-10.279-9.755-15.867-4.166c-7.335,7.26-10.953,10.778-11.352,11.027c-0.249,0.075-1.173,0.998-11.427,11.252      l-1.921,1.921c-3.119,3.119-3.119,3.119-3.867,3.443c-0.798-0.324-2.495-5.489-5.09-13.273      c-3.044-9.181-7.659-23.053-14.47-40.442c-7.011-17.788-12.075-27.668-20.408-32.309c-5.788-3.193-12.649-6.911-19.884-10.104      c-1.347-0.574-1.522-1.222-1.821-2.27c-0.374-1.322-0.898-3.144-3.942-5.938c-6.936-6.462-16.142-12.15-25.473-15.967      c-1.542-5.311-3.77-13.676-4.566-19.186c-1.547-11.052-6.437-19.959-12.774-23.202c-3.418-1.771-6.936-1.771-10.179-0.075      c-11.371,5.966-11.32,21.815-17.14,42.637c-8.458,3.443-16.292,8.208-23.776,14.42c-2.195,1.846-4.566,4.191-5.389,7.659      c-0.349,1.422-1.347,1.871-4.591,3.318c-3.393,1.522-9.056,4.067-18.836,9.855c-4.441,2.62-7.135,6.811-9.206,10.528      c-11.801,21.581-23.452,58.106-27.843,71.877l-0.674,2.071c-0.075,0.274-0.249,0.449-0.424,0.499      c-0.2,0.05-0.349-0.05-0.449-0.15c-3.243-2.969-6.636-6.387-10.578-10.354c-4.965-5.015-10.578-10.703-17.215-16.791      c-0.2-0.175-0.374-0.349-0.574-0.549c-1.198-1.173-2.694-2.645-5.613-2.47c-3.942,0.249-10.254,6.636-19.011,15.443      c-1.347,1.347-2.719,2.744-4.166,4.191c-1.173,1.173-2.171,2.52-2.994,4.042c-1.771,3.343-0.15,5.464,2.071,8.383l0.574,0.748      c7.809,10.279,11.027,14.52,17.09,21.606c10.004,11.676,23.701,26.321,23.776,26.396c4.166,4.316,14.745,14.545,23.826,17.714      c-4.466,2.969-8.083,6.861-11.626,12.549c-2.62,4.166-3.867,8.857-3.817,14.37c0,1.098,0.2,2.22,0.399,3.318      c0.05,0.324,0.1,0.649,0.15,0.973c2.121,13.422,12.674,20.907,19.635,25.872c1.672,1.173,3.094,2.195,4.141,3.094      c0.025,0.025,0,0.075,0,0.1c-3.992,0.125-7.061,0.075-9.505,0.05c-5.938-0.05-8.907-0.075-14.52,2.171      c-3.643,1.422-6.437,3.792-8.383,7.011c-2.769,4.616-5.115,10.853-6.262,16.691c-0.923,4.815-1.522,11.551,1.023,16.491      c4.067,7.909,12.05,7.185,17.714,5.938c5.514-1.198,10.379-2.645,15.518-4.191c11.526-3.468,23.427-7.036,43.111-7.51      l2.794-0.05c12.699-0.324,15.343-0.399,17.614,3.368c1.198,1.971,4.391,4.616,7.41,4.616h0.175      c1.572-0.05,3.742-0.125,7.884-1.297c2.57-0.724,4.092-1.123,5.564-1.472c2.844-0.724,5.788-1.472,16.466-4.765      c1.023-0.299,1.447-0.175,2.994,0.349c0.823,0.274,1.946,0.649,3.593,1.098c3.069,0.873,5.788,1.622,8.183,2.32      c14.77,4.191,18.287,5.189,22.554,1.522c0.798-0.699,1.422-1.522,1.996-2.345c0.549-0.773,1.073-1.497,1.746-2.096      c1.397-1.272,3.967-1.223,6.038-1.198h1.198c8.757-0.175,17.539,0.399,26.047,0.973c9.98,0.649,20.757,3.917,30.288,6.811      c8.433,2.57,15.743,4.79,20.932,4.79h0.399c3.218-0.1,6.187-1.497,8.358-4.017c3.069-3.518,4.341-8.907,3.593-15.169      c-0.649-5.539-3.742-23.926-16.092-28.217c-5.364-1.871-7.36-1.846-14.695-1.846c-2.121,0-4.765,0.025-8.083-0.025      c-0.05,0-0.125,0-0.15-0.05c-0.025-0.075,0.025-0.225,0.05-0.249c0.848-0.624,1.697-1.247,2.52-1.846      c9.955-7.26,18.537-13.522,20.982-27.319c2.42-13.622-6.162-24.799-15.144-30.812c11.95-4.017,24.724-18.163,35.976-30.687      c0.898-0.973,1.771-1.971,2.645-2.919c11.452-12.649,18.387-21.705,28.442-35.103      C448.342,283.369,442.928,278.28,432.125,268.125z M301.244,177.811l0.05-0.274c0.2-0.923,0.399-1.771,0.773-1.946      c0.025-0.025,0.1-0.025,0.15-0.025c0.125,0,0.299,0.05,0.499,0.175c8.333,4.79,11.352,7.485,15.818,12.075      c1.871,1.921,2.47,4.266,1.846,6.961c-1.048,4.441-3.169,6.487-5.414,8.657c-0.923,0.898-1.896,1.821-2.819,2.944      c-1.247,1.547,0.05,2.994,1.721,4.79c2.395,2.57,5.663,6.112,3.967,12.325c-1.048,3.817-2.595,8.308-4.366,13.522      c-6.537,19.136-15.493,45.357-12.1,73.424c0.699,5.863,2.595,11.726,4.391,17.414c0.249,0.748,0.499,1.522,0.748,2.27      c0.05,0.2,0.125,0.524,0.2,0.848c0.1,0.499,0.225,0.998,0.349,1.447c-4.092-3.767-14.495-21.606-17.564-37.648      C282.704,259.228,293.346,213.562,301.244,177.811z M285.376,325.208c-0.374-8.283-0.823-18.612-1.372-31.56      c-0.599-14.046-1.148-27.02-1.721-39.619c-0.225-4.79-0.449-9.58-0.674-14.37l-0.499-10.379      c-0.15-2.869-0.274-5.838-0.349-8.757c0-0.249,0-0.499-0.025-0.748c-0.025-0.973-0.075-1.971,0.175-2.819      c0.1-0.324,0.249-0.599,0.424-0.898c0.075-0.125,0.15-0.249,0.225-0.399c0.499-0.973,0.923-2.021,1.322-3.044      c0.225-0.599,0.449-1.173,0.699-1.746c0.25-0.549,0.549-0.549,1.347-0.474c1.098,0.125,2.794,0.274,5.239-1.921      c1.447-1.297,1.697-1.447,1.871-1.472c-0.025,0.948-0.424,2.819-0.973,5.364c-1.023,4.715-2.545,11.851-3.418,20.932      c-0.025,0.175-0.1,0.748-0.225,1.622c-0.524,3.418-1.572,10.578-1.622,13.971c-0.025,0.499-0.1,1.472-0.2,2.844      c-0.599,7.185-2.195,26.296,1.497,44.658c5.838,29.115,26.296,47.677,34.005,54.663c1.522,1.397,2.62,2.395,2.969,2.894      c-0.274,0.225-1.672,0.599-3.717,1.198c-2.37,0.649-5.963,1.672-11.127,3.293c-7.559,2.37-12.898,4.141-16.416,5.289      c-5.065,1.672-7.36,2.445-7.684,2.195c0,0-0.025-0.05-0.025-0.249v-0.15c0-0.05-0.025-0.1,0-0.125      C286.898,359.114,286.798,357.193,285.376,325.208z M256.236,358.889c0.075,1.697,0.649,4.241,0.998,5.738      c0.075,0.324,0.15,0.599,0.175,0.798c0.025,0.075-0.025,0.249-0.175,0.374c-0.125,0.1-0.349,0.25-0.674,0.15      c-28.092-9.156-32.733-10.404-34.729-10.953c-0.873-0.225-1.247-0.324-2.919-0.923c-0.15-0.05-0.2-0.2-0.2-0.249      c-0.05-0.175,0-0.374,0.125-0.474c1.048-1.023,2.146-1.946,3.318-2.944c3.767-3.193,8.483-7.21,16.441-17.564      c8.732-11.352,14.745-24.974,17.414-39.394c4.291-23.277-0.499-57.706-2.071-67.686c-1.347-8.632-2.42-13.697-2.994-16.391      c-0.249-1.247-0.449-2.171-0.474-2.545c0.125,0.1,0.274,0.249,0.449,0.399c0.823,0.798,2.37,2.245,4.74,3.094      c0.773,0.299,1.522,0.2,2.22,0.125c0.25-0.025,0.499-0.05,0.748-0.075c0.299,0,0.474,0.524,0.599,0.923l0.05,0.125      c0.699,2.27,1.297,3.543,1.746,4.491c0.574,1.222,0.873,1.846,0.773,3.393c-0.225,3.717-0.374,7.46-0.524,11.102      c-0.05,1.223-0.1,2.42-0.15,3.618c-0.399,8.957-0.798,17.913-1.173,26.87c-0.399,9.805-0.823,19.585-1.223,29.39      c-0.324,7.41-0.624,14.845-0.923,22.279c0,6.611-0.449,13.373-0.873,19.884C256.386,341.126,255.812,350.082,256.236,358.889z       M261.775,207.7c5.594-6.821,8.664-19.452,9.58-19.834c1.617,3.709,3.979,11.977,8.832,19.036      c0.923,1.347,1.173,1.721,0.898,2.819c-0.299,1.198-0.748,2.769-1.572,4.191c-1.921,3.418-4.541,8.108-9.605,6.961      c-3.792-0.848-6.761-5.464-7.909-9.381c-0.075-0.324-0.175-0.624-0.274-0.923C261.301,209.221,261.076,208.548,261.775,207.7z       M259.504,333.342c0.225-5.115,0.474-10.903,0.748-17.813c0.374-9.356,0.773-19.011,1.173-28.641      c0.449-10.553,0.873-19.934,1.297-28.691c0.349-7.51,0.748-15.543,1.198-23.427c0.075-1.148,0.125-2.32,0.175-3.493      c0.1-3.094,0.225-6.312,0.773-9.331v-0.05c0.05-0.324,0.1-0.524,0.125-0.649c0.2,0.125,0.374,0.249,0.549,0.374      c0.549,0.374,1.098,0.748,1.697,1.073c4.416,2.47,7.759,0.249,9.53-0.948c0.449-0.299,1.023-0.699,1.173-0.649      c0.025,0,0.05,0.075,0.075,0.249c0.848,8.982,1.098,18.188,1.322,27.069c0.125,4.94,0.249,10.079,0.474,15.119      c0.2,3.942,0.374,6.611,0.549,9.181c0.374,5.364,0.773,10.928,1.198,28.591c0.324,13.797,0.923,24.624,1.397,33.332      c1.347,24.4,1.771,31.76-6.861,39.843c-2.27,2.146-4.516,3.917-6.961,2.195c-3.767-2.645-7.061-6.986-9.031-11.926      C258.332,360.261,258.606,354.024,259.504,333.342z M298.674,173.669c1.056,0.528,0.62,1.105-4.042,22.08      c-0.1,0.424-0.175,0.823-0.249,1.198c-0.524,2.545-0.898,4.366-4.566,8.308c-1.771,1.896-2.595,2.395-4.142,2.545      c-1.023-0.2-1.921-0.699-2.645-1.422c-3.36-3.36-9.928-20.187-9.431-21.182c0.15-0.225,0.674-0.349,1.497-0.524      c8.92-2.022,16.468-7.674,19.111-11.901C295.033,171.711,295.113,171.739,298.674,173.669z M256.011,149.319      c5-31.604,26.502-27.182,30.363,0.175c0.518,3.745,1.447,7.453,2.346,11.12c2.993,12.212,4.348,9.94,0.99,13.43      c-7.988,8.301-19.521,10.851-29.933,5.136c-3.3-1.812-7.454-5.387-8.515-6.794c-0.953-1.262-0.424-0.254,2.307-12.035      C254.414,156.706,255.426,153.02,256.011,149.319z M247.18,172.073c1.39-0.541,5.692,9.574,20.458,12.699      c0.955,0.197,0.866,0.196,1.272,0.873c-0.973,3.942-6.087,17.764-9.955,21.281c-1.198,1.073-2.121,1.198-3.593,0.449      c-2.47-1.222-6.512-5.888-7.185-10.429l-0.025-0.15c-0.15-1.023-0.15-1.023-1.222-5.763c-0.674-2.944-1.746-7.759-3.543-15.818      C243.113,174.044,243.038,173.694,247.18,172.073z M223.304,188.589c3.164-4.616,16.467-13.36,17.19-12.998      c0.731,0.346,1.344,5.061,4.092,17.29c0.898,4.042,1.622,7.26,2.245,10.004c1.871,8.283,2.744,12.075,3.992,20.159      c3.967,26.047,7.51,58.904-0.399,81.757c-1.247,3.593-2.395,6.437-3.692,9.007c-0.249,0.524-0.474,1.048-0.724,1.547      c-0.848,1.871-1.721,3.792-2.744,5.589c-3.767,6.636-6.786,10.478-8.283,12.225c0.225-1.048,0.724-2.495,1.347-4.341      c2.67-7.734,7.609-22.179,5.115-42.787c-2.62-21.356-8.433-38.072-12.674-50.272c-1.846-5.314-3.443-9.905-4.266-13.472      c-1.148-5.139,1.372-7.984,3.792-10.728c0.898-1.023,1.746-1.971,2.37-3.019c0.823-1.322-0.474-2.545-2.245-4.241      c-2.495-2.345-5.888-5.564-6.462-11.302C221.807,191.608,222.256,190.161,223.304,188.589z M158.761,350.955      c-15.618-10.179-42.712-43.136-54.862-59.154c-0.549-0.724-1.073-1.397-1.547-1.996c-2.944-3.767-3.942-5.04-1.622-7.909      c5.015-6.262,12.799-14.845,21.381-20.159c0.724-0.449,1.472-0.674,2.171-0.674c0.973,0,1.871,0.399,2.694,1.173      c7.609,7.31,16.741,16.516,24.774,24.624c11.901,12,21.306,21.456,23.177,22.304c0.349,0.15,0.674,0.125,0.948-0.1      c0.324-0.25,0.499-0.798,0.399-1.272c-0.125-0.549-0.574-0.998-2.245-2.67l-0.649-0.649c-2.869-2.894-5.115-5.115-6.861-6.836      c-6.038-5.988-6.038-5.988-5.838-7.011c1.048-5.738,14.445-45.981,24.774-67.686c7.036-14.77,8.408-15.743,24.375-23.701      l1.297-0.674c5.214-2.595,7.385-3.692,8.133-3.343c0.349,0.15,0.499,0.674,0.724,1.447c0.399,1.497,1.123,3.992,4.191,6.986      c0.524,0.499,0.998,0.948,1.422,1.347c2.769,2.62,2.769,2.62,1.148,4.416c-0.699,0.724-1.622,1.746-2.744,3.318      c-4.665,6.437-2.27,12.774,2.046,24.25c3.044,8.083,7.235,19.186,10.354,34.654c3.568,17.689,3.817,31.909,0.848,44.758      c-1.472,6.362-5.938,21.506-9.58,25.098c-0.624,0.624-1.247,1.272-1.896,1.896c-2.121,2.171-4.316,4.416-6.786,6.262      c-0.524,0.374-0.998,0.823-1.447,1.247c-1.272,1.198-2.47,2.345-4.566,1.871c-0.574-0.125-1.198-0.225-1.846-0.324      c-1.322-0.2-2.694-0.399-3.717-0.923c-1.098-0.599-0.923-1.996-0.349-6.112c0.923-6.811,2.819-20.932,0.973-50.421      c-1.347-21.531-2.42-34.205-6.262-57.307c-0.175-1.073-0.324-2.021-0.449-2.844c-0.699-4.316-0.848-5.214-1.846-5.364      c-0.324-0.05-0.599,0.075-0.823,0.324c-0.324,0.324-0.474,0.823-0.399,1.247c4.042,22.155,7.335,58.729,7.51,71.703      c-0.699,1.771-1.372,3.518-2.046,5.264c-8.907,22.978-16.591,42.812-28.417,46.604      C170.387,356.22,164.973,354.997,158.761,350.955z M203.644,349.933c-0.175,1.048-1.073,0.948-3.842,0.474      c-2.146-0.349-5.09-0.848-9.081-0.848c-1.422,0-2.969,0.05-4.665,0.225c2.47-3.119,4.441-6.636,6.038-9.481      c0.624-1.073,1.198-2.096,1.721-2.994c4.042-6.686,9.106-19.36,12.025-27.02c0.025,1.622,0.05,3.418,0.075,5.414h-0.05v4.117      C205.889,331.595,205.889,336.46,203.644,349.933z M146.836,463.524c-0.2,0.2-0.449,0.274-0.724,0.274      c-0.2,0-0.424-0.025-0.649-0.075c-3.318-0.574-5.713-2.395-7.11-5.389c-3.468-7.36-0.324-20.882,4.715-29.714      c2.046-3.593,4.965-5.963,8.907-7.235l0.474-0.15c0.848-0.274,1.796-0.574,2.37-0.574c0.175,0,0.324,0.05,0.424,0.125      c0.05,0.025,0.05,0.05,0.05,0.075c0.025,0.175-0.299,0.524-0.524,0.798c-0.125,0.15-0.249,0.274-0.349,0.399      c-6.487,8.532-10.404,18.712-10.454,27.244c-0.025,5.988,1.472,9.705,2.37,11.926      C146.811,462.427,147.135,463.225,146.836,463.524z M192.891,452.771c-0.873,0.274-1.572,0.349-2.52,0.474      c-1.921,0.225-5.139,0.624-13.697,3.019c-4.516,1.297-6.611,1.946-8.458,2.52c-2.994,0.948-5.164,1.622-15.793,4.341      c-1.272,0.349-1.721,0.399-2.27-0.125c-0.748-0.699-4.067-7.909-3.443-15.443c0.798-9.231,5.065-18.687,12.075-26.645      c0.773-0.873,2.445-1.098,4.765-1.098c1.048,0,2.245,0.05,3.543,0.1c2.495,0.1,5.314,0.2,8.483,0.05      c2.545-0.1,3.967,0.649,7.41,2.42c1.222,0.624,2.769,1.422,4.69,2.345c1.422,0.699,2.744,1.247,3.817,1.697      c1.796,0.748,3.218,1.347,3.293,1.821c0.025,0.125-0.075,0.274-0.274,0.424c-1.322,1.123-2.37,2.42-3.543,4.017      c-4.591,6.287-2.37,14.545,2.22,19.435c0.1,0.1,0.075,0.2,0.075,0.299C193.215,452.572,193.066,452.721,192.891,452.771z       M218.888,451.274c-6.063-0.125-13.647-0.225-19.66,0.773l-0.424,0.075c-1.672,0.274-1.672,0.274-3.193-1.297l-0.2-0.2      c-4.616-4.765-5.189-11.127-3.343-14.67c1.198-2.345,3.019-4.366,5.414-6.038c0.274-0.2,0.499-0.299,0.798-0.299      c0.549,0,1.372,0.299,3.193,1.048c2.67,1.098,7.609,3.119,17.04,6.137c1.946,0.624,3.268,1.721,4.266,3.593      c1.422,2.67,2.794,5.04,3.792,6.786c0.998,1.771,1.896,3.293,1.896,3.568C228.418,451.424,223.354,451.324,218.888,451.274z       M248.003,457.811l-1.073,0.274c-4.64,1.198-8.333,2.146-11.252-1.597c-4.341-5.514-9.805-15.493-10.204-16.865      c0.025-0.025,0.1-0.125,0.1-0.125c3.992,1.198,4.591,1.422,6.387,2.071c0.823,0.299,1.896,0.699,3.643,1.297      c4.316,1.522,11.626,3.767,18.063,5.738c5.813,1.771,10.853,3.318,12.474,3.967      C265.068,453.445,255.238,455.965,248.003,457.811z M346.925,450.85c-1.447,1.597-1.447,1.597-5.938,1.247      c-3.618-0.274-10.329-0.773-23.053-0.823h-0.274c-2.919,0.125-3.543-0.15-3.667-0.324c0-0.025-0.025-0.05,0-0.1      c0.324-0.699,1.123-2.096,2.345-4.216c1.023-1.821,2.445-4.266,4.142-7.31c0.823-1.497,1.322-1.672,5.339-3.069      c0.898-0.299,1.946-0.674,3.218-1.123l5.364-1.946c6.362-2.27,6.611-2.37,8.932-3.318c0.898-0.374,1.597-0.274,2.195,0.324      c0.449,0.449,0.873,0.873,1.322,1.297c0.649,0.649,1.347,1.297,1.971,1.971c3.468,3.767,3.892,11.077-1.397,16.815      C347.249,450.476,347.074,450.676,346.925,450.85z M387.716,420.762c0.125-0.025,0.249-0.025,0.399-0.025      c2.37,0,7.809,2.47,10.628,6.661c5.638,8.358,9.131,23.452,5.339,31.211c-1.572,3.168-4.191,4.915-7.784,5.139      c-0.274,0.025-0.649,0-0.773-0.2c-0.249-0.349,0.225-1.297,0.549-1.996c0.15-0.299,0.274-0.574,0.374-0.823      c2.22-5.514,4.616-17.065-4.092-32.259c-1.347-2.37-2.57-4.117-3.468-5.414c-0.724-1.023-1.422-2.021-1.322-2.245      C387.566,420.812,387.616,420.787,387.716,420.762z M375.99,419.939c1.447-0.025,2.595-0.05,3.543-0.05      c3.468,0,3.692,0.2,4.341,1.023c5.838,7.41,9.58,13.472,11.352,22.454c1.322,6.636-0.474,16.641-2.769,19.236      c-0.349,0.399-0.699,0.599-1.023,0.574c-3.468-0.324-8.782-1.921-14.944-3.767c-7.41-2.22-15.793-4.74-24.525-6.237      c-0.724-0.125-1.422-0.299-2.121-0.474l-0.449-0.1c-0.15-0.05-0.225-0.075-0.225-0.125c-0.075-0.2,0.449-0.823,0.923-1.447      c1.497-1.846,3.967-4.915,3.892-9.655v-0.324c0.549-5.688-2.819-9.156-4.84-11.252c-0.823-0.823-1.522-1.572-1.272-1.821      c0.349-0.349,0.798-0.524,1.946-0.973c0.424-0.175,0.923-0.399,1.572-0.649c6.262-2.645,8.907-4.216,10.503-5.139      c1.697-0.998,2.046-1.222,4.216-1.222C370.402,419.989,373.645,419.964,375.99,419.939z M389.912,377.775      c1.472,6.262,0.2,13.622-3.468,19.66c-1.123,1.871-2.52,3.692-4.117,5.414c-14.37,15.368-37.473,23.751-56.06,30.487      l-1.173,0.424c-1.173,0.424-1.247,0.349-1.522,0.15l-0.025-0.025c0.05-0.15,0.274-0.624,0.624-1.297      c0.449-0.848,1.123-2.121,2.071-4.117c1.946-4.042,2.794-6.412,2.171-8.058c-0.524-1.397-1.971-2.195-4.84-3.418      c-7.809-3.268-14.37-6.038-19.909-8.358c-22.279-9.331-28.267-11.851-28.491-12.424c0-0.025,0.05-0.05,0.225-0.125      c3.667-1.697,11.676-5.189,20.957-9.206c16.641-7.21,35.527-15.393,37.548-16.89c0.399-0.299,0.449-1.173,0.175-1.547      c-0.05-0.075-0.075-0.125-0.1-0.175c-0.424-0.773-0.424-0.773-8.508,2.869c-7.834,3.543-22.429,10.104-51.769,22.678      c-0.175,0.075-0.349,0.15-0.499,0.225c-1.098,0.499-1.971,0.898-3.443,0.225c-3.343-1.522-9.955-4.366-17.589-7.659      c-9.63-4.166-20.533-8.882-29.564-12.923c-4.216-1.871-7.036-3.193-8.907-4.092c-3.867-1.821-4.092-1.921-4.915-1.322      c-0.175,0.15-0.274,0.374-0.274,0.674c-0.025,0.349,0.1,0.699,0.299,0.898c3.568,3.418,112.419,49.074,113.517,49.523      c1.223,0.499,3.992,1.846,3.418,3.468c-1.946,5.564-10.853,21.032-15.967,29.739c-1.023,1.746-2.295,3.318-3.917,4.865      c-2.694,2.57-5.389,1.896-11.876,0.2c-0.848-0.225-1.796-0.449-2.794-0.699c-16.366-4.117-69.882-20.832-93.308-30.537      c-8.233-3.443-17.739-7.609-26.246-13.996l-1.123-0.848c-6.861-5.139-12.3-9.206-15.693-16.541      c-3.094-6.686-3.343-14.221-0.674-21.182c2.57-6.761,7.634-12.449,14.246-15.967c5.589,0.923,10.478-0.748,14.994-5.115      c9.181-1.422,29.614,0.299,74.796,16.666c1.522,0.549,2.37,1.771,3.418,3.293c1.447,2.121,3.268,4.765,7.809,7.16      c3.069,1.597,7.51-1.971,10.379-5.539c0.823-1.048,1.372-1.821,1.821-2.47c0.823-1.148,1.173-1.697,2.195-2.121      c5.339-2.295,19.834-7.36,35.352-11.526c12.799-3.443,29.864-7.21,38.396-5.638c0.449,0.075,0.973,0.175,1.647,0.274      c4.366,4.216,9.381,5.888,14.944,4.965C380.132,361.035,388.065,369.966,389.912,377.775z M336.671,310.014      c4.441,11.576,13.572,33.007,19.685,39.669c-5.239-0.449-9.256,0.175-12.2,0.649c-3.568,0.549-5.04,0.724-5.339-0.998      C336.621,336.335,336.646,323.537,336.671,310.014z M442.304,286.987c-0.599,0.798-1.472,1.946-2.545,3.343      c-3.867,5.115-10.329,13.647-17.614,22.155c-8.383,9.805-14.445,16.292-18.063,20.159c-1.697,1.796-2.919,3.119-3.692,4.017      c-2.245,2.645-3.393,3.593-4.715,4.665c-0.823,0.699-1.697,1.397-2.969,2.62c-12.799,12.624-23.227,13.098-28.716,9.356      c-4.64-3.268-9.73-10.478-15.094-21.456c-4.466-9.131-8.183-18.986-10.429-24.874c-0.724-1.946-1.322-3.493-1.746-4.541      c0.2-11.152,2.195-46.779,5.738-65.291c0.599-3.218,1.148-5.988,1.622-8.383c0.125-0.624-0.299-1.222-0.948-1.372      c-0.324-0.05-0.624,0-0.898,0.2c-0.274,0.175-0.449,0.449-0.499,0.773c-6.512,34.354-7.11,57.557-7.335,66.264      c-0.05,2.071-0.1,3.443-0.175,3.742l-0.05,0.249c-0.125,4.316-0.798,26.57,0.574,41.116c0.424,4.466,0.948,7.285,1.247,8.982      c0.424,2.32,0.399,2.545-0.075,2.645c-1.048,0.25-1.946,0.449-2.744,0.624c-5.015,1.173-5.414,1.272-7.46-0.449l-0.798-0.674      c-12.125-10.254-12.125-10.254-16.192-22.703l-0.299-0.873c-6.836-20.882-6.711-41.041,0.424-67.387      c1.572-5.813,3.593-11.576,5.539-17.14c1.647-4.69,3.343-9.555,4.765-14.395c1.023-3.518,1.921-6.936,1.572-10.329      c-0.324-3.193-2.071-5.289-3.917-7.535c-0.724-0.873-1.472-1.796-2.146-2.794c-0.15-0.225,0.449-0.724,0.798-1.023l0.175-0.15      c4.89-4.166,6.237-7.934,6.936-9.955c0.299-0.848,0.524-1.447,0.798-1.572c0.075-0.05,0.2-0.075,0.474,0.05      c3.268,1.372,6.736,2.994,10.603,4.965c14.171,7.26,16.242,9.256,22.179,21.331c0.923,1.896,1.871,3.942,2.919,6.262      c0.948,2.171,1.921,4.441,2.944,6.936c0.973,2.37,1.921,4.79,2.944,7.385c0.923,2.42,1.896,4.99,2.869,7.609      c0.898,2.47,1.846,5.015,2.744,7.609c0.873,2.445,1.746,4.94,2.57,7.385c0.798,2.32,1.572,4.616,2.345,6.936      c0.674,2.096,1.347,4.166,2.021,6.262c0.574,1.771,1.123,3.543,1.697,5.339c0.424,1.397,0.848,2.794,1.272,4.191      c0.15,0.549,0.299,1.073,0.449,1.622l0.075,0.249c0.349,1.198,0.624,2.146-0.1,2.994c-0.449,0.524-2.37,2.42-4.591,4.64      c-4.391,4.341-9.83,9.755-10.454,10.853c-0.225,0.349,0.025,0.948,0.1,1.123c0.1,0.2,0.299,0.374,0.599,0.474      c0.249,0.075,0.624,0.125,0.898-0.025c0.973-0.549,12.549-12.125,24.799-24.4c10.828-10.803,22.005-21.98,23.227-22.878      c1.447-1.048,2.994-1.148,4.416-0.249c6.212,3.792,16.666,14.695,21.805,20.683      C443.277,283.619,443.327,285.714,442.304,286.987z"/>
			</g>
			<g>
				<g>
					<g>
						<path style="fill:#FF967F;" d="M299.618,151.497c-4.366,7.101-14.687,17.26-27.883,17.413h-0.254        c-13.195-0.153-23.516-10.312-27.882-17.413c-7.993-13-6.185-38.806-0.303-51.166c5.688-11.95,15.948-18.284,28.185-18.552        c0.048-0.013,0.085-0.013,0.134-0.013c0.036,0,0.085,0,0.121,0.013c12.238,0.268,22.498,6.602,28.186,18.552        C305.803,112.691,307.611,138.497,299.618,151.497z"/>
						<g>
							<path style="fill:#DB5E43;" d="M281.118,110.681c0.021-6.457,14.973-3.422,13.453,2.648         C293.281,118.48,281.102,115.633,281.118,110.681z"/>
							<path style="fill:#DB5E43;" d="M262.099,110.681c-0.021-6.457-14.974-3.422-13.454,2.648         C249.935,118.48,262.115,115.633,262.099,110.681z"/>
						</g>
						<g style="opacity:0.65;">
							<path style="fill:#DB5E43;" d="M290.943,130.785c-4.476,0-8.118,2.978-8.118,6.637c0,3.66,3.642,6.637,8.118,6.637         c4.477,0,8.119-2.978,8.119-6.637C299.062,133.763,295.42,130.785,290.943,130.785z"/>
							<path style="fill:#DB5E43;" d="M252.383,130.785c-4.477,0-8.119,2.978-8.119,6.637c0,3.66,3.642,6.637,8.119,6.637         c4.476,0,8.118-2.978,8.118-6.637C260.501,133.763,256.858,130.785,252.383,130.785z"/>
						</g>
					</g>
					<g>
						<path style="fill:#000E3F;" d="M301.078,99.781c-5.775-12.131-16.168-18.976-29.265-19.281        c-0.151-0.018-0.236-0.028-0.456,0.001c-13.077,0.319-23.449,7.163-29.217,19.279c-5.664,11.902-8.336,38.227,0.37,52.386        c4.067,6.616,14.744,17.857,28.972,18.023h0.269c14.214-0.166,24.891-11.407,28.958-18.023        C309.413,138.009,306.741,111.684,301.078,99.781z M298.529,150.827c-3.793,6.17-13.708,16.652-26.794,16.804h-0.239        c-13.1-0.152-23.014-10.634-26.808-16.804c-7.497-12.192-6.26-37.293-0.238-49.946c5.343-11.227,14.953-17.557,27.058-17.823        c0.034-0.001,0.066-0.002,0.099-0.005c0.034,0.003,0.066,0.005,0.1,0.005c12.104,0.266,21.714,6.596,27.059,17.823        C304.787,113.535,306.024,138.635,298.529,150.827z"/>
						<path style="fill:#000E3F;" d="M291.527,119.238c-0.707,0-1.28,0.573-1.28,1.279c0,2.896-1.775,4.348-3.424,4.472        c-1.555,0.122-3.526-0.9-4.013-4.137c-0.106-0.698-0.752-1.184-1.456-1.075c-0.699,0.105-1.181,0.756-1.076,1.455        c0.665,4.418,3.57,6.325,6.3,6.325c0.146,0,0.291-0.005,0.436-0.016c2.879-0.215,5.792-2.696,5.792-7.024        C292.806,119.811,292.234,119.238,291.527,119.238z"/>
						<path style="fill:#000E3F;" d="M261.863,119.777c-0.7-0.109-1.349,0.377-1.456,1.075c-0.486,3.237-2.469,4.248-4.013,4.137        c-1.649-0.124-3.425-1.576-3.425-4.472c0-0.707-0.572-1.279-1.279-1.279c-0.707,0-1.279,0.573-1.279,1.279        c0,4.327,2.914,6.809,5.793,7.024c0.145,0.011,0.29,0.016,0.436,0.016c2.73,0,5.635-1.907,6.3-6.325        C263.044,120.534,262.561,119.882,261.863,119.777z"/>
						<path style="fill:#000E3F;" d="M279.911,139.676c-0.707-0.136-1.366,0.317-1.501,1.011c-0.621,3.193-3.478,5.501-6.801,5.501        c-0.014,0-0.027,0-0.04,0c-3.304-0.018-6.148-2.332-6.765-5.501c-0.136-0.694-0.814-1.148-1.501-1.011        c-0.694,0.135-1.146,0.807-1.011,1.5c0.848,4.363,4.744,7.548,9.261,7.572c0.019,0,0.036,0,0.055,0        c4.546,0,8.458-3.177,9.312-7.572C281.057,140.482,280.605,139.81,279.911,139.676z"/>
						<path style="fill:#000E3F;" d="M272.605,137.137c0.698,0,1.272-0.574,1.272-1.272c0-0.724-0.574-1.298-1.272-1.298        c-1.297,0-4.117-0.649-4.84-1.696c-0.124-0.2-0.199-0.424-0.025-0.873c0.025-0.05,3.318-7.859,4.591-10.902        c0.53-1.59-1.846-2.49-2.37-0.923c-1.272,2.994-4.516,10.703-4.566,10.803c-0.624,1.472-0.199,2.62,0.25,3.293        C267.216,136.638,271.532,137.137,272.605,137.137z"/>
					</g>
				</g>
				<g>
					<g>
						<g>
							<path style="fill:#FF967F;" d="M301.227,127.627c0,4.94-1.187,10.393,3.43,10.393c13.705,0,15.723-19.338,4.929-19.338         C304.97,118.682,301.227,122.687,301.227,127.627z"/>
							<path style="fill:#FF967F;" d="M241.99,127.627c0,4.94,1.186,10.393-3.431,10.393c-13.704,0-15.723-19.338-4.929-19.338         C238.247,118.682,241.99,122.687,241.99,127.627z"/>
						</g>
						<g style="opacity:0.65;">
							<path style="fill:#DB5E43;" d="M309.831,130.377c-2.405,1.526-3.182,0.479-2.696-0.24c0.804-1.188,1.843-2.049,3.433-4.167         c0.804-1.089,1.212-2.236,1.922-1.741C313.417,124.874,312.831,128.445,309.831,130.377z"/>
							<path style="fill:#DB5E43;" d="M232.648,125.97c1.134,1.51,1.743,2.089,2.202,2.648c0.986,1.117,1.317,1.645,1.229,1.517         c0.345,0.506-0.097,1.176-0.698,1.061c-2.967-0.579-5.585-3.874-4.893-6.623c0.126-0.501,0.781-0.611,1.07-0.197         C231.558,124.377,232.319,125.524,232.648,125.97z"/>
						</g>
					</g>
					<g>
						<path style="fill:#000E3F;" d="M304.657,139.299c-1.418,0-2.55-0.429-3.362-1.275c-1.667-1.737-1.546-4.718-1.417-7.875        c0.034-0.836,0.069-1.687,0.069-2.523c0-5.638,4.324-10.225,9.64-10.225c2.564,0,4.701,0.954,6.181,2.759        c1.293,1.578,2.005,3.763,2.005,6.153C317.773,132.697,312.866,139.299,304.657,139.299z M309.586,119.961        c-3.905,0-7.081,3.439-7.081,7.666c0,0.87-0.036,1.756-0.071,2.626c-0.101,2.483-0.205,5.049,0.706,5.999        c0.116,0.121,0.47,0.488,1.517,0.488c6.857,0,10.557-5.371,10.557-10.426c0-1.8-0.507-3.409-1.426-4.53        C312.796,120.574,311.383,119.961,309.586,119.961z"/>
						<path style="fill:#000E3F;" d="M238.559,139.299c-8.209,0-13.114-6.602-13.114-12.984c0-2.39,0.712-4.576,2.005-6.153        c1.479-1.806,3.616-2.76,6.18-2.76c5.315,0,9.64,4.587,9.64,10.225c0,0.836,0.035,1.687,0.069,2.523        c0.129,3.157,0.25,6.138-1.417,7.875C241.109,138.87,239.977,139.299,238.559,139.299z M233.63,119.961        c-1.797,0-3.21,0.613-4.201,1.823c-0.92,1.121-1.426,2.731-1.426,4.531c0,5.054,3.7,10.426,10.556,10.426        c1.047,0,1.401-0.367,1.517-0.488c0.911-0.95,0.807-3.516,0.706-5.999c-0.035-0.87-0.071-1.756-0.071-2.626        C240.71,123.4,237.534,119.961,233.63,119.961z"/>
					</g>
					<g>
						<path style="fill:#DB5E43;" d="M307.639,75.498c-20.077-25.018-53.815-21.12-61.492-3.653        c-6.726-1.236-16.648,5.968-20.945,20.162c-1.564,5.165-2.139,10.836-0.779,16.114c1.251,4.854,4.671,11.317,10.131,12.055        c7.754,1.048,12.805-9.033,15.244-14.948c1.068-2.588,1.925-5.288,2.538-8.046c6.957,7.047,19.06,11.822,27.831,5.544        c6.077-4.349-4.929-11.526-4.456-12.405c0.442-0.822,15.637,0.8,21.018,15.885c1.584,4.442,4.251,15.96,11.272,12.959        C316.113,115.697,322.521,94.041,307.639,75.498z"/>
						<g style="opacity:0.25;">
							<path style="fill:#000E3F;" d="M250.508,87.773c0.995,3.442,1.152,4.12,1.12,3.989c0.227,0.917-0.91,1.55-1.57,0.867         c-3.815-3.961-5.659-11.432-4.138-16.717c0.246-0.855,1.464-0.831,1.687,0.022C247.607,75.935,248.722,81.607,250.508,87.773         z"/>
							<path style="fill:#000E3F;" d="M231.27,100.97c-0.418,3.649,0.049,6.828,0.023,6.592c0.11,1.02-1.299,1.41-1.73,0.479         c-4.184-9.083,0.741-21.498,9.739-25.356c0.886-0.38,1.627,0.781,0.908,1.424C239.199,85.41,232.552,90.343,231.27,100.97z"/>
							<path style="fill:#000E3F;" d="M239.563,107.071c-0.292,1.372-0.733,5.242-0.715,5.114c-0.135,0.964-1.498,1.07-1.775,0.131         c-2.173-7.391,1.11-16.221,6.121-20.59c0.687-0.599,1.719,0.159,1.343,0.996C242.416,97.443,240.683,101.241,239.563,107.071         z"/>
							<path style="fill:#000E3F;" d="M268.309,94.92c2.364,1.385,4.854,2.218,4.725,2.171c0.93,0.337,0.733,1.715-0.259,1.774         c-3.987,0.231-8.001-1.613-10.946-4.344c-2.918-2.797-4.975-6.691-4.981-10.657c-0.001-0.933,1.283-1.198,1.653-0.343         C258.501,83.522,261.17,90.66,268.309,94.92z"/>
							<path style="fill:#000E3F;" d="M255.581,76.367c25.459-7.171,49.208,10.099,49.785,34.411         c0.012,0.497-0.382,0.91-0.879,0.921c-0.805,0.019-0.987-0.9-0.913-0.772c-3.294-21.755-22.148-36.656-47.634-32.908         C254.896,78.18,254.567,76.66,255.581,76.367z"/>
							<path style="fill:#000E3F;" d="M253.951,68.142c22.728-13.017,52.526,1.332,55.752,26.295         c0.144,1.115-1.487,1.425-1.766,0.336c-5.877-22.87-31.053-34.363-53.232-25.118l-0.008,0.003         c-0.431,0.18-0.927-0.024-1.107-0.456C253.424,68.804,253.585,68.351,253.951,68.142z"/>
						</g>
					</g>
					<path style="fill:#000E3F;" d="M235.704,121.533c-0.436,0-0.877-0.03-1.321-0.09c-6.002-0.812-9.785-7.513-11.2-13.004       c-1.291-5.014-1.016-10.825,0.795-16.804c4.319-14.27,14.044-21.753,21.407-21.178c3.618-7.253,11.661-12.33,21.736-13.658       c15.373-2.031,30.896,4.662,41.518,17.897l0,0c7.919,9.868,11.003,22.327,8.248,33.329c-1.533,6.123-4.666,10.727-8.382,12.314       c-1.801,0.769-3.52,0.796-5.104,0.075c-3.975-1.807-5.961-7.93-7.276-11.982c-0.219-0.673-0.417-1.284-0.6-1.799       c-3.735-10.47-12.697-14.19-17.061-15.031c2.139,2.132,5.057,5.201,4.803,8.364c-0.12,1.487-0.912,2.765-2.354,3.797       c-8.561,6.127-20.093,2.668-27.858-4.149c-0.557,2.066-1.252,4.11-2.073,6.1C246.648,116.221,241.515,121.533,235.704,121.533z        M244.56,72.983c-6.137,0-14.37,6.961-18.134,19.394c-1.676,5.531-1.939,10.864-0.765,15.424       c1.313,5.096,4.624,10.506,9.064,11.106c6.305,0.852,11.03-7.234,13.889-14.168c1.051-2.545,1.883-5.182,2.471-7.835       c0.103-0.457,0.445-0.823,0.896-0.952c0.449-0.127,0.933-0.003,1.264,0.331c6.77,6.855,18.244,11.079,26.176,5.403       c0.812-0.582,1.236-1.21,1.292-1.922c0.173-2.148-2.685-4.984-4.393-6.679c-1.493-1.481-2.315-2.297-1.737-3.371       c0.461-0.86,1.545-0.905,2.665-0.818c5.212,0.391,16.241,4.422,20.684,16.881c0.191,0.534,0.397,1.169,0.625,1.868       c1.104,3.404,2.952,9.102,5.901,10.443c0.917,0.416,1.912,0.384,3.04-0.099c2.939-1.256,5.584-5.311,6.903-10.583       c2.561-10.229-0.34-21.858-7.762-31.106l0,0c-11.84-14.753-27.991-18.437-39.187-16.962       c-9.579,1.263-17.107,6.131-20.137,13.023c-0.237,0.542-0.817,0.849-1.402,0.743C245.478,73.023,245.025,72.983,244.56,72.983z       "/>
				</g>
			</g>
		</g>
		<g>
			<g>
				<g>
					<path style="fill:#FFCF00;" d="M115.473,435.917c-1.321,0-2.396-1.074-2.396-2.396v-3.833c0-1.32,1.075-2.394,2.396-2.394h8.93       c0.861,0,1.562-0.7,1.562-1.562v-19.643c0-0.862-0.701-1.562-1.562-1.562h-8.93c-1.321,0-2.396-1.074-2.396-2.394v-3.833       c0-1.321,1.075-2.396,2.396-2.396h8.93c5.616,0,10.185,4.569,10.185,10.185v19.643c0,5.616-4.569,10.185-10.185,10.185H115.473       z"/>
					<path style="fill:#000E3F;" d="M124.403,397.168c4.919,0,8.921,4.002,8.921,8.921v19.643c0,4.919-4.002,8.921-8.921,8.921       h-8.93c-0.624,0-1.131-0.506-1.131-1.131v-3.833c0-0.624,0.506-1.131,1.131-1.131h8.93c1.559,0,2.826-1.268,2.826-2.827       v-19.643c0-1.558-1.268-2.826-2.826-2.826h-8.93c-0.624,0-1.131-0.506-1.131-1.131v-3.833c0-0.624,0.506-1.131,1.131-1.131       H124.403 M124.403,394.639h-8.93c-2.018,0-3.66,1.642-3.66,3.66v3.833c0,2.018,1.642,3.66,3.66,3.66h8.93       c0.161,0,0.297,0.136,0.297,0.297v19.643c0,0.161-0.136,0.298-0.297,0.298h-8.93c-2.018,0-3.66,1.642-3.66,3.66v3.833       c0,2.018,1.642,3.66,3.66,3.66h8.93c6.314,0,11.45-5.137,11.45-11.45v-19.643C135.853,399.775,130.716,394.639,124.403,394.639       L124.403,394.639z"/>
				</g>
				<g>
					<g>
						<path style="fill:#FFCF00;" d="M79.903,445.696c-3.448,0-6.254-2.806-6.254-6.253V391.08c0-2.733,2.223-4.956,4.956-4.956        h33.762c2.048,0,3.906,1.283,4.625,3.193c0.216,0.526,0.332,1.13,0.332,1.762v48.363c0,3.448-2.805,6.253-6.253,6.253H79.903z        "/>
						<path style="opacity:0.5;fill:#FD8A02;" d="M116.06,391.08v48.363c0,2.761-2.238,4.989-4.989,4.989H79.902        c-2.751,0-4.989-2.228-4.989-4.989v-0.837c0.429-0.69,0.921-1.318,1.464-1.893c5.763-6.046,15.751-2.448,22.801-5.721        c14.026-6.506,5.282-23.857,9.842-35.258c1.381-3.42,3.996-5.533,6.788-5.972C115.976,390.17,116.06,390.609,116.06,391.08z"/>
						<path style="opacity:0.75;fill:#FFFFFF;" d="M83.334,393.543c0.458,2.516,0.704,5.032,0.875,7.548        c0.185,2.516,0.244,5.033,0.279,7.55c-0.005,2.517-0.037,5.034-0.195,7.552c-0.144,2.517-0.364,5.035-0.797,7.554        c-0.1,0.58-0.651,0.969-1.231,0.869c-0.454-0.078-0.791-0.434-0.868-0.862c-0.45-2.516-0.686-5.032-0.847-7.548        c-0.174-2.517-0.223-5.033-0.244-7.551c0.018-2.517,0.061-5.034,0.229-7.552c0.155-2.517,0.384-5.035,0.825-7.554        c0.096-0.545,0.615-0.91,1.161-0.815C82.945,392.809,83.26,393.143,83.334,393.543z"/>
					</g>
					<path style="fill:#000E3F;" d="M112.368,387.388c1.579,0,2.918,0.983,3.441,2.374c0.167,0.408,0.251,0.847,0.251,1.318v48.363       c0,2.761-2.238,4.989-4.989,4.989H79.902c-2.751,0-4.989-2.228-4.989-4.989V391.08c0-2.04,1.653-3.692,3.692-3.692H112.368        M112.368,384.859H78.605c-3.43,0-6.221,2.791-6.221,6.221v48.363c0,4.145,3.373,7.518,7.518,7.518h31.169       c4.145,0,7.518-3.373,7.518-7.518V391.08c0-0.786-0.143-1.54-0.426-2.242C117.251,386.457,114.927,384.859,112.368,384.859       L112.368,384.859z"/>
				</g>
			</g>
			<g>
				<g>
					<path style="fill:#FFFFFF;" d="M86.44,380.194c-1.406,0-3.124-0.587-4.095-1.167c-3.152-1.813-5.91-6.749-4.777-12.305       c1.523-7.254,7.401-8.468,12.587-9.54c4.32-0.893,8.052-1.663,9.246-5.494c1.387-4.176-4.209-8.282-4.587-8.552       c-0.045-0.026-0.089-0.055-0.131-0.089c-0.794-0.617-1.099-1.625-0.776-2.566c0.328-0.957,1.208-1.6,2.187-1.6       c0.35,0,0.695,0.08,1.024,0.238c6.204,2.981,9.422,7.965,8.605,13.329c-0.872,5.735-6.183,10.14-13.531,11.221l-0.864,0.141       c-2.934,0.474-5.468,0.883-6.764,2.434c-1.349,1.598-1.668,4.367-0.762,6.589c0.393,0.964,1.352,2.61,3.358,2.803       c0.594,0.053,1.138,0.339,1.525,0.803c0.386,0.463,0.569,1.048,0.515,1.65C89.109,379.107,88.335,380.194,86.44,380.194z"/>
					<path style="fill:#000E3F;" d="M96.095,340.145c0.151,0,0.311,0.035,0.475,0.114c12.88,6.189,9.403,20.104-4.561,22.16       c-3.421,0.568-6.665,0.92-8.414,3.016c-3.062,3.627-1.511,10.985,3.446,11.46c0.548,0.05,0.951,0.533,0.901,1.081       c-0.063,0.697-0.69,0.953-1.501,0.953c-1.134,0-2.629-0.499-3.447-0.987c-2.952-1.698-5.164-6.17-4.186-10.967       c2.546-12.123,18.784-5.229,21.801-14.91c1.755-5.28-5.109-10.016-5.149-10.016c-0.001,0,0,0.001,0.001,0.002       C94.605,341.385,95.194,340.145,96.095,340.145 M96.095,337.616L96.095,337.616c-1.52,0-2.88,0.986-3.384,2.455       c-0.501,1.46-0.032,3.021,1.196,3.976c0.07,0.055,0.143,0.106,0.217,0.152c0.416,0.304,5.145,3.874,4.084,7.069       c-0.94,3.014-3.769,3.739-8.309,4.677c-5.291,1.093-11.875,2.453-13.567,10.511c-1.268,6.217,1.757,11.583,5.4,13.679       c1.051,0.627,2.998,1.325,4.709,1.325c2.574,0,3.874-1.634,4.02-3.254c0.175-1.935-1.257-3.652-3.192-3.827       c-1.263-0.121-1.946-1.165-2.295-2.02c-0.727-1.782-0.489-4.056,0.553-5.29c1.002-1.2,3.432-1.592,6.005-2.007l0.891-0.145       c7.865-1.158,13.595-5.979,14.552-12.276c0.89-5.855-2.677-11.472-9.309-14.659C97.164,337.738,96.635,337.616,96.095,337.616       L96.095,337.616z"/>
				</g>
				<g>
					<path style="fill:#FFFFFF;" d="M101.662,382.439c-1.781,0-3.44-1.958-4.068-2.995c-1.711-2.892-1.261-5.628-0.679-7.691       c1.725-5.598,6.845-7.034,10.959-8.187c2.407-0.675,4.68-1.313,5.848-2.589c0.685-0.735,1.227-1.952,1.494-3.35       c0.803-3.999-2.21-7.377-2.505-7.694c-0.037-0.032-0.072-0.067-0.106-0.104c-0.626-0.69-0.784-1.64-0.413-2.476       c0.381-0.862,1.221-1.419,2.138-1.419c0.487,0,0.961,0.159,1.372,0.462c3.157,2.315,5.133,5.671,5.564,9.447       c0.399,3.5-0.602,7.029-2.679,9.442c-2.507,2.932-6.065,3.939-9.203,4.83c-3.43,0.973-5.57,1.672-6.29,3.695       c-1.045,2.801,0.032,4.549,0.236,4.842c0.046,0.044,0.089,0.091,0.128,0.143c0.761,0.991,0.575,2.418-0.416,3.18       C102.645,382.279,102.169,382.439,101.662,382.439z"/>
					<path style="fill:#000E3F;" d="M114.33,347.199c0.205,0,0.419,0.065,0.624,0.216c6.33,4.643,6.295,12.838,2.675,17.045       c-4.686,5.477-13.841,3.627-15.726,8.925c-1.432,3.835,0.492,6.184,0.552,6.184c0.001,0,0.002-0.001,0.001-0.004       c0.338,0.44,0.255,1.07-0.184,1.408c-0.183,0.14-0.389,0.203-0.609,0.203c-1.033,0-2.368-1.364-2.987-2.385       c-1.292-2.186-1.223-4.286-0.543-6.693c2.475-8.027,12.888-6.292,16.524-10.266c0.97-1.04,1.536-2.572,1.803-3.967       c0.979-4.878-2.876-8.886-2.916-8.886c-0.001,0-0.001,0.001,0,0.002C112.859,348.226,113.517,347.199,114.33,347.199        M114.33,344.67c-1.416,0-2.709,0.851-3.294,2.169c-0.577,1.3-0.335,2.771,0.631,3.838c0.051,0.056,0.104,0.11,0.158,0.16       c0.324,0.359,2.811,3.253,2.153,6.529c-0.225,1.176-0.661,2.191-1.172,2.739c-0.941,1.029-3.045,1.619-5.273,2.244       c-4.177,1.171-9.898,2.776-11.818,9.003c-0.668,2.363-1.165,5.43,0.783,8.725c0.827,1.363,2.825,3.627,5.164,3.627       c0.789,0,1.532-0.251,2.15-0.726c1.544-1.187,1.835-3.409,0.649-4.953c-0.046-0.06-0.095-0.118-0.145-0.173       c-0.182-0.299-0.805-1.544-0.044-3.582c0.525-1.474,2.416-2.076,5.457-2.939c3.147-0.892,7.063-2.002,9.821-5.227       c2.298-2.671,3.41-6.563,2.971-10.406c-0.472-4.13-2.628-7.796-6.073-10.322C115.822,344.914,115.088,344.67,114.33,344.67       L114.33,344.67z"/>
				</g>
			</g>
		</g>
	</g>
	<g>
		<g>
			<path style="fill:#915EFD;" d="M173.323,137.573c0.072-1.077-0.463-2.145-1.195-2.406c-5.675-2.015-14.918-1.322-19.671,2.695     c-1.134,0.976-0.601,4.297,0.75,4.834C160.839,145.755,173.136,140.426,173.323,137.573z"/>
			<path style="fill:#915EFD;" d="M178.696,156.962c-0.143-1.07-0.877-2.009-1.645-2.117c-5.842-0.811-14.824,1.667-18.717,6.621     c-0.916,1.187,0.266,4.337,1.695,4.591C168.146,167.504,179.077,159.794,178.696,156.962z"/>
			<path style="fill:#915EFD;" d="M185.859,173.12c-5.87,0.371-14.158,4.62-16.991,10.267c-0.663,1.35,1.107,4.208,2.554,4.171     c7.683-0.125,17.489-9.651,16.457-12.683C187.531,173.85,186.63,173.073,185.859,173.12z"/>
			<path style="fill:#915EFD;" d="M356.772,171.765c-0.744,0.778-1.021,1.945-0.631,2.622c2.964,5.138,10.418,10.736,16.685,10.765     c1.488-0.007,3.216-2.892,2.534-4.184C371.516,173.649,358.74,169.705,356.772,171.765z"/>
			<path style="fill:#915EFD;" d="M365.316,153.547c-0.58,0.908-0.625,2.102-0.111,2.686c3.951,4.459,12.387,8.396,18.514,7.172     c1.466-0.306,2.592-3.478,1.672-4.6C380.181,152.423,366.849,151.144,365.316,153.547z"/>
			<path style="fill:#915EFD;" d="M369.988,133.977c-0.39,1.006-0.198,2.185,0.423,2.652c4.787,3.588,13.823,5.706,19.582,3.274     c1.369-0.593,1.859-3.92,0.726-4.838C384.348,129.878,371.021,131.303,369.988,133.977z"/>
			<path style="fill:#915EFD;" d="M391.157,110.767c-7.287-3.812-20.056,0.236-20.53,3.066c-0.179,1.066,0.245,2.184,0.947,2.518     c5.43,2.573,14.706,2.814,19.842-0.705C392.641,114.79,392.446,111.437,391.157,110.767z"/>
			<path style="fill:#915EFD;" d="M367.246,93.989c0.037,1.079,0.675,2.086,1.429,2.272c5.753,1.405,14.934-0.159,19.295-4.679     c1.028-1.085,0.17-4.338-1.231-4.737C378.838,84.573,367.148,91.135,367.246,93.989z"/>
			<path style="fill:#915EFD;" d="M359.93,75.245c0.248,1.052,1.069,1.914,1.843,1.944c5.912,0.22,14.578-3.182,17.945-8.492     c0.792-1.274-0.691-4.293-2.137-4.401C369.557,63.632,359.259,72.394,359.93,75.245z"/>
			<path style="fill:#915EFD;" d="M367.022,47.961c0.526-1.411-1.51-4.085-2.943-3.904c-8.403,1.239-16.282,11.668-15.1,14.283     c0.446,0.988,1.415,1.675,2.176,1.552C357.024,58.927,364.777,53.832,367.022,47.961z"/>
			<path style="fill:#915EFD;" d="M346.732,27.01c-6.032,2.176-11.3,9.836-12.352,15.535c-0.081,0.416,0.116,0.887,0.477,1.408     c0.627,0.888,1.706,1.377,2.424,1.107c5.568-2.107,12.114-8.663,13.156-14.865C350.665,28.751,348.276,26.455,346.732,27.01z"/>
			<path style="fill:#915EFD;" d="M326.324,13.776c-7.243,4.399-10.407,17.258-8.217,18.966c0.853,0.628,1.952,0.993,2.614,0.559     c5.018-3.16,10.111-10.896,9.902-17.203C330.56,14.586,327.781,12.924,326.324,13.776z"/>
			<path style="fill:#915EFD;" d="M303.661,4.921c-6.195,5.748-6.69,18.999-4.208,20.247c0.965,0.438,2.146,0.46,2.689-0.041     c4.204-4.027,7.7-12.645,6.215-18.85C307.925,4.577,304.679,3.972,303.661,4.921z"/>
			<path style="fill:#915EFD;" d="M279.689,0.827c-4.886,6.851-2.746,19.95-0.036,20.683c1.033,0.261,2.204-0.027,2.632-0.61     c3.345-4.844,4.963-13.964,2.274-19.717C283.769-0.375,280.481-0.288,279.689,0.827z"/>
			<path style="fill:#915EFD;" d="M255.404,1.592c-3.428,7.697,1.286,20.098,4.086,20.273c0.844,0.053,2.145-0.366,2.459-1.103     c2.331-5.45,2.062-14.7-1.697-19.775C259.186-0.39,255.966,0.323,255.404,1.592z"/>
			<path style="fill:#915EFD;" d="M231.742,7.235c-1.808,8.212,5.331,19.414,8.105,19.034c1.055-0.152,2.01-0.899,2.175-1.601     c1.157-5.693-0.892-14.764-5.656-19.024C235.071,4.539,232.035,5.885,231.742,7.235z"/>
			<path style="fill:#915EFD;" d="M213.9,15.024c-1.284-0.702-4.165,1.049-4.183,2.534c-0.125,8.367,9.128,17.928,11.795,17.012     c1.012-0.347,1.802-1.263,1.784-2.053C223.253,26.481,219.323,18.186,213.9,15.024z"/>
			<path style="fill:#915EFD;" d="M193.849,28.804c-1.421-0.431-3.889,1.853-3.617,3.289c1.473,7.887,12.352,15.823,14.98,14.31     c0.93-0.535,1.53-1.581,1.356-2.348C205.164,37.988,199.596,30.568,193.849,28.804z"/>
			<path style="fill:#915EFD;" d="M176.973,46.308c-1.478-0.142-3.476,2.562-2.924,3.919c2.993,7.416,15.262,13.01,17.556,11.029     c0.814-0.703,1.203-1.84,0.882-2.555C190.051,53.294,183.2,46.96,176.973,46.308z"/>
			<path style="fill:#915EFD;" d="M181.254,78.522c0.665-0.847,0.828-2.032,0.374-2.666c-3.463-4.81-11.445-9.62-17.689-9.018     c-1.481,0.155-2.923,3.196-2.115,4.412C166.375,78.141,179.497,80.759,181.254,78.522z"/>
			<path style="fill:#915EFD;" d="M174.61,97.51c0.488-0.962,0.415-2.153-0.156-2.681c-4.358-4.014-13.156-7.091-19.148-5.247     c-1.426,0.452-2.239,3.718-1.208,4.743C159.922,100.141,173.322,100.054,174.61,97.51z"/>
			<path style="fill:#915EFD;" d="M171.952,117.471c0.286-1.043-0.024-2.197-0.688-2.6c-5.071-3.058-14.303-4.294-19.813-1.283     c-1.306,0.728-1.451,4.084-0.234,4.881C158.096,122.997,171.196,120.23,171.952,117.471z"/>
		</g>
		<g>
			<path style="fill:#FD8A02;" d="M192.817,114.15c1.132,0.285,2.066,0.153,2.391-2.038c0.067-0.69,0.324-2.295,0.494-3.907     c0.186-1.61,0.459-3.205,0.441-3.9c-0.022-1.073-0.501-1.625-1.692-1.655c-3.066-0.058-6.376-0.031-8.895,1.617     c-2.376,1.529-2.175,4.137-0.291,6.113C186.417,111.561,189.166,113.24,192.817,114.15z"/>
			<path style="fill:#FD8A02;" d="M196.716,94.01c1.028,0.573,1.942,0.68,2.821-1.35c0.311-0.623,0.886-2.141,1.501-3.641     c0.656-1.481,1.217-3.005,1.448-3.649c0.298-1.022-0.07-1.706-1.195-2.035c-2.9-0.832-6.201-1.715-9.022-0.761     c-1.309,0.444-2.124,1.293-2.448,2.331c-0.281,1.056-0.075,2.293,0.593,3.504C191.161,89.827,193.422,92.181,196.716,94.01z"/>
			<path style="fill:#FD8A02;" d="M212.882,66.424c-2.596-1.559-5.489-3.204-8.508-3.052c-1.412,0.062-2.366,0.715-2.943,1.635     c-0.574,0.925-0.711,2.161-0.35,3.523c0.4,1.595,1.897,4.401,4.622,7.035c0.848,0.822,1.683,1.15,3.103-0.556     c0.811-1.126,3.98-5.135,4.728-6.29C214.068,67.792,213.881,67.03,212.882,66.424z"/>
			<path style="fill:#FD8A02;" d="M221.028,47.95c-1.352-0.264-2.505,0.036-3.279,0.805c-0.774,0.77-1.216,1.94-1.243,3.318     c-0.053,1.61,0.736,4.783,2.668,8.004c0.599,1.003,1.352,1.57,3.12,0.237c0.565-0.404,1.857-1.39,3.115-2.414     c1.31-0.954,2.573-1.971,3.076-2.441c0.771-0.732,0.795-1.506-0.018-2.354C226.362,50.927,223.948,48.529,221.028,47.95z"/>
			<path style="fill:#FD8A02;" d="M241.1,37.33c-2.468-1.187-4.697,0.119-5.427,2.84c-0.455,1.574-0.561,4.747,0.496,8.406     c0.333,1.154,0.872,1.808,2.961,1.06c1.28-0.532,5.992-2.498,7.232-3.079c0.928-0.526,1.149-1.275,0.587-2.301     C245.481,41.603,243.798,38.725,241.1,37.33z"/>
			<path style="fill:#FD8A02;" d="M263.25,32.339c-1.041-0.956-2.179-1.185-3.236-0.929c-1.056,0.275-2.034,1.003-2.741,2.233     c-0.847,1.41-1.767,4.489-1.71,8.246c0.014,1.166,0.382,2.036,2.586,1.804c1.369-0.225,6.448-0.805,7.794-1.099     c1.034-0.279,1.441-0.951,1.163-2.085C266.372,37.573,265.49,34.365,263.25,32.339z"/>
			<path style="fill:#FD8A02;" d="M279.815,32.909c-1.18,1.152-2.86,3.902-3.77,7.553c-0.285,1.132-0.153,2.066,2.038,2.391     c0.69,0.067,2.295,0.324,3.907,0.494c1.61,0.185,3.206,0.459,3.9,0.441c1.073-0.022,1.626-0.501,1.655-1.692     c0.058-3.066,0.03-6.375-1.617-8.895C284.399,30.825,281.792,31.026,279.815,32.909z"/>
			<path style="fill:#FD8A02;" d="M305.291,37.466c-1.056-0.282-2.294-0.075-3.504,0.594c-1.419,0.747-3.772,3.008-5.602,6.302     c-0.573,1.028-0.68,1.942,1.35,2.821c0.623,0.311,2.141,0.886,3.641,1.501c1.481,0.656,3.005,1.216,3.649,1.448     c1.022,0.298,1.706-0.07,2.036-1.195c0.832-2.9,1.714-6.202,0.761-9.022C307.179,38.605,306.328,37.789,305.291,37.466z"/>
			<path style="fill:#FD8A02;" d="M325.189,49.076c-0.925-0.573-2.161-0.711-3.522-0.35c-1.596,0.4-4.401,1.897-7.035,4.621     c-0.822,0.848-1.15,1.683,0.555,3.103c1.127,0.811,5.136,3.98,6.29,4.728c0.927,0.534,1.689,0.348,2.295-0.651     c1.559-2.596,3.204-5.489,3.052-8.508C326.762,50.607,326.109,49.653,325.189,49.076z"/>
			<path style="fill:#FD8A02;" d="M332.296,73.054c0.954,1.31,1.972,2.573,2.441,3.076c0.732,0.771,1.506,0.794,2.354-0.018     c2.177-2.106,4.575-4.52,5.154-7.44c0.264-1.352-0.036-2.505-0.805-3.279c-0.769-0.774-1.94-1.215-3.319-1.243     c-1.61-0.053-4.783,0.736-8.003,2.668c-1.003,0.599-1.57,1.352-0.237,3.121C330.286,70.504,331.271,71.796,332.296,73.054z"/>
			<path style="fill:#FD8A02;" d="M340.559,86.774c0.532,1.28,2.498,5.992,3.079,7.232c0.525,0.929,1.275,1.149,2.301,0.587     c2.654-1.468,5.532-3.151,6.926-5.849c1.187-2.468-0.12-4.697-2.841-5.427c-1.573-0.455-4.746-0.56-8.406,0.496     C340.464,84.147,339.811,84.685,340.559,86.774z"/>
			<path style="fill:#FD8A02;" d="M346.502,105.794c0.226,1.368,0.805,6.448,1.099,7.794c0.279,1.034,0.951,1.441,2.085,1.163     c2.937-0.733,6.145-1.615,8.17-3.855c0.956-1.042,1.185-2.179,0.929-3.236c-0.275-1.056-1.003-2.034-2.233-2.741     c-1.41-0.847-4.489-1.767-8.246-1.71C347.14,103.222,346.27,103.59,346.502,105.794z"/>
			<path style="fill:#FD8A02;" d="M349.734,123.69c-1.132-0.285-2.066-0.153-2.391,2.038c-0.067,0.69-0.324,2.295-0.494,3.907     c-0.185,1.61-0.459,3.205-0.441,3.9c0.022,1.073,0.501,1.626,1.692,1.655c3.066,0.058,6.376,0.031,8.895-1.617     c2.376-1.529,2.175-4.137,0.292-6.113C356.134,126.279,353.385,124.6,349.734,123.69z"/>
			<path style="fill:#FD8A02;" d="M345.835,143.83c-1.028-0.573-1.942-0.68-2.821,1.35c-0.311,0.623-0.886,2.142-1.501,3.641     c-0.656,1.481-1.216,3.005-1.447,3.65c-0.298,1.022,0.07,1.706,1.195,2.035c2.9,0.832,6.202,1.715,9.022,0.761     c1.308-0.444,2.124-1.294,2.448-2.331c0.281-1.056,0.075-2.294-0.593-3.504C351.39,148.013,349.129,145.66,345.835,143.83z"/>
			<path style="fill:#FD8A02;" d="M336.848,162.276c-0.848-0.822-1.683-1.15-3.103,0.556c-0.811,1.126-3.98,5.136-4.728,6.29     c-0.534,0.927-0.348,1.689,0.651,2.294c2.596,1.559,5.489,3.204,8.508,3.053c1.412-0.062,2.366-0.715,2.943-1.635     c0.573-0.925,0.711-2.16,0.35-3.523C341.069,167.715,339.572,164.909,336.848,162.276z"/>
			<path style="fill:#FD8A02;" d="M210.255,164.786c-0.954-1.31-1.972-2.573-2.441-3.076c-0.732-0.771-1.507-0.794-2.354,0.018     c-2.177,2.106-4.575,4.52-5.154,7.44c-0.264,1.352,0.036,2.505,0.804,3.279c0.77,0.774,1.941,1.216,3.319,1.243     c1.61,0.053,4.783-0.736,8.003-2.668c1.004-0.599,1.57-1.352,0.238-3.121C212.265,167.336,211.28,166.044,210.255,164.786z"/>
			<path style="fill:#FD8A02;" d="M201.991,151.066c-0.532-1.28-2.497-5.992-3.079-7.232c-0.526-0.928-1.275-1.149-2.301-0.587     c-2.653,1.468-5.531,3.151-6.926,5.848c-1.188,2.468,0.119,4.698,2.84,5.427c1.573,0.455,4.746,0.561,8.406-0.496     C202.086,153.693,202.74,153.155,201.991,151.066z"/>
			<path style="fill:#FD8A02;" d="M196.049,132.046c-0.226-1.368-0.805-6.448-1.099-7.794c-0.279-1.034-0.951-1.441-2.085-1.163     c-2.937,0.733-6.145,1.615-8.17,3.855c-0.956,1.041-1.185,2.179-0.929,3.236c0.275,1.055,1.003,2.034,2.233,2.741     c1.41,0.846,4.489,1.766,8.247,1.71C195.411,134.618,196.281,134.25,196.049,132.046z"/>
		</g>
	</g>
	<g>
		<path style="fill:#000E3F;" d="M45.414,191.366c-1.024-1.647-4.559-7.439-5.341-8.72c-2.278,0.997-2.759,0.98-3.24,1.228    c0.287,9.398,2.104,19.204,2.132,19.997c0.034,0.017,0.034,0.017,0.063,0.008c2.42-0.837,3.48-1.041,3.743-1.219    c0.029-0.009,0.047-0.045,0.073-0.054c0.223-1.379-0.419-3.568-0.312-4.85c0.801-0.268,0.711-0.356,1.663-0.526    c0.829,0.881,1.895,2.928,2.706,3.933l0.029-0.009c1.224-0.142,2.616-0.516,3.611-1.086l-0.008-0.027L45.414,191.366z     M41.293,194.668c-1.077-5.722-2.163-9.513,1.977-0.659C42.603,194.232,41.917,194.491,41.293,194.668z"/>
		<path style="fill:#000E3F;" d="M56.947,198.211c-3.36-11.833-3.913-13.812-3.938-14.358c-0.008-0.027,0.012-0.061,0.004-0.089    l0.029-0.008l0.053-0.014c1.692-0.534,2.602-0.834,3.318-0.876c-0.154-1.356-0.607-3.071-1.003-4.247    c-3.838,0.577-7.855,1.783-11.549,2.788c0.009,0.028,0.035,0.021,0.043,0.048c0.315,1.75,1.028,4.007,1.237,4.242    c0.47,0.022,2.393-0.748,3.351-0.535l0.035,0.02c3.116,10.034,3.855,14.147,4.02,14.453c1.249-0.563,3.136-0.8,4.411-1.37    l-0.006-0.027L56.947,198.211z"/>
		<path style="fill:#000E3F;" d="M76.478,174.842c-0.62,0.038-1.235,0.105-1.876,0.203c-0.668,0.103-1.33,0.232-1.949,0.47    l0.006,0.027c0.191,3.301,1.127,8.653,1.313,11.898c-0.615-1.044-1.99-4.99-2.363-5.189c-0.024,0.031-0.02,0.059-0.035,0.147    c-0.159,1.733-0.279,3.374-0.495,5.116c-1.298-3.075-1.557-8.274-2.365-11.509c-0.674,0.075-1.431,0.134-2.183,0.249    c-0.638,0.098-1.243,0.247-1.787,0.417l0.003,0.028c1.097,6.408,3.114,12.674,4.98,18.88l0.024-0.004    c0.428-0.009,0.765-0.032,1.072-0.08c0.527-0.081,0.881-0.192,1.342-0.348c0.439-1.035,0.227-4.078,0.793-4.848l0.027-0.003    c0.825,0.925,1.593,3.712,2.368,4.476l0.334-0.051l1-0.154c0.364-0.055,0.699-0.079,0.936-0.201    c-0.462-6.534-0.684-12.991-1.113-19.501L76.478,174.842z"/>
		<path style="fill:#000E3F;" d="M91.023,178.213c-0.133-0.582-0.298-1.161-0.598-1.7c-0.283-0.625-0.727-1.18-1.3-1.611    c-2.302-1.468-5.784-1.221-8.149,0.199c-0.239,0.162-0.421,0.348-0.6,0.561c-1.035,1.418-1.187,3.24-1.068,4.925    c0.059,2.961,0.54,5.887,0.907,8.793c0.12,1.091,0.33,2.175,0.94,3.054c0.805,1.427,2.32,1.635,3.873,1.642    c1.102-0.011,2.164-0.16,3.174-0.559c1.121-0.409,2.171-1.009,2.738-1.961c0.58-1.153,0.767-2.554,0.738-3.879l0.004-0.933    c-0.028-1.947-0.3-3.76-0.362-5.761C91.269,180.055,91.19,179.13,91.023,178.213z M87.868,189.026    c-1.038,1.39-3.407,1.427-4.265,0.003c-0.473-1.202-0.566-2.607-0.879-3.908c-0.218-1.563-0.33-3.164-0.147-4.62    c0.156-0.806,0.549-1.488,1.149-2.05c0.552-0.5,1.371-0.826,2.155-0.583c0.905,0.345,1.491,1.227,1.666,2.258    c0.084,0.642,0.248,1.56,0.249,1.588l0.223,1.902l0.118,1.346c0.005,0.084,0.031,0.703,0.069,1.463    C88.208,188.063,88.489,188.04,87.868,189.026z"/>
		<path style="fill:#000E3F;" d="M102.126,184.286l-0.001-0.029l0.028,0.001l0.115-0.002c1.799-0.132,2.942-1.13,3.631-2.49    c2.292-3.937-0.632-8.774-5.084-8.95c-2.734-0.279-5.291,0.143-7.397,0.477c0.303,1.882,0.643,19.668,0.419,19.671    c0.362-0.089,3.631,0.184,4.89-0.365c-0.099-1.434-0.425-5.174-0.213-6.866l0.054,0.084c1.629,1.952,3.243,5.313,3.992,7.021    l0.028,0c1.692,0.093,3.349-0.094,4.672-0.109l-0.028,0.001C106.07,189.646,103.734,187.054,102.126,184.286z M100.622,180.615    c-0.898,0.151-1.968,0.107-2.843,0.032l-0.028,0c-0.151-0.843-0.083-2.504-0.179-3.46c1.318-0.55,2.693-0.706,3.519,0.045    C102.143,178.037,102.055,180.29,100.622,180.615z"/>
		<path style="fill:#000E3F;" d="M122.601,174.204c-1.193-0.28-2.611-0.181-3.812-0.35c-1.727,2.109-2.674,4.385-4.389,6.325    c-0.091,0.078-0.154,0.187-0.152,0.158c0.064-2.14,0.35-4.603,0.411-6.742c-1.204-0.084-2.52-0.26-3.757-0.318    c-0.426,6.544-1.273,13.03-1.409,19.481c0.965,0.293,3.066,0.495,4.097,0.285c0.145-2.105,0.185-5.094,0.42-7.25    c1.035,2.161,1.919,5.691,3.366,7.597c1.205,0.113,2.68,0.385,3.906,0.215l-4.109-10.301    C118.741,180.255,121.484,177.287,122.601,174.204z"/>
		<path style="fill:#000E3F;" d="M47.336,168.168c-0.45-1.366-1.678-4.913-1.888-6.604l0.073,0.067    c2.055,1.495,4.441,4.358,5.587,5.831l0.026-0.007c1.661-0.323,3.227-0.911,4.504-1.248l-0.029,0.007    c-1.878-2.706-4.777-4.647-7.01-6.939l-0.008-0.027l0.029-0.007l0.107-0.028c1.713-0.569,2.577-1.817,2.912-3.302    c1.259-4.378-2.76-8.353-7.117-7.435c-2.718,0.398-5.093,1.434-7.055,2.271c0.752,1.751,5.434,18.913,5.216,18.969    C43.012,169.543,46.246,169.009,47.336,168.168z M45.866,152.692c1.214,0.523,1.683,2.728,0.375,3.395    c-0.836,0.366-1.883,0.585-2.75,0.726l-0.026,0.007c-0.349-0.78-0.694-2.407-1.021-3.31    C43.586,152.654,44.884,152.166,45.866,152.692z"/>
		<path style="fill:#000E3F;" d="M67.826,163.93c0.097-1.164-0.152-2.491-0.458-3.665l-0.009-0.055    c-2.503,0.555-4.84,0.764-7.273,1.221l-0.033-0.022c-0.251-0.87-0.639-2.343-0.649-3.458c0.331-0.376,2.214-0.415,3.289-0.931    c-0.283-1.351-0.35-2.626-0.776-3.835l-0.003-0.027c-1.141,0.185-2.298,0.431-3.418,0.555l-0.035-0.022    c-0.434-0.95-0.402-2.158-0.633-3.231l0.024-0.033l0.083-0.016c2.393-0.677,4.931-0.724,7.185-1.69l-0.006-0.028    c-0.244-1.3-0.297-2.664-0.735-3.928c-0.033-0.165-7.177,1.288-11.422,2.312c0.83,6.402,2.316,12.509,3.519,18.925    C60.1,165.635,64.058,164.606,67.826,163.93z"/>
		<path style="fill:#000E3F;" d="M69.442,163.803c9.019-0.923,10.249-1.323,11.042-1.331c0.782-0.094,0.885,0.037,0.426-2.631    c-0.063-0.304-0.085-0.727-0.1-1.094c0.003-0.2-0.022-0.422-0.046-0.618c-0.881,0.217-6.56,0.377-7.26,0.687l-0.003-0.028    c-0.484-4.818-1.382-10.268-1.812-15.121c-1.117-0.321-3.762,0.048-4.482,0.444c1.037,7.843,1.524,10.761,2.178,19.187    L69.442,163.803z"/>
		<path style="fill:#000E3F;" d="M93.83,161.688l-2.623-9.726c-0.546-1.86-2.409-8.386-2.821-9.829    c-2.462,0.354-2.92,0.209-3.448,0.32c-2.23,9.135-3.095,19.071-3.28,19.841c0.029,0.027,0.029,0.027,0.059,0.026    c2.555-0.161,3.629-0.076,3.934-0.177c0.028-0.001,0.057-0.031,0.083-0.031c0.581-1.27,0.55-3.552,0.991-4.758    c0.847-0.044,0.782-0.153,1.745-0.063c0.562,1.07,1.048,3.328,1.56,4.512l0.028-0.001c1.222,0.189,2.658,0.199,3.772-0.085    L93.83,161.688z M86.357,154.045c0.488-5.802,0.45-9.745,2.08-0.109C87.734,153.974,87.004,154.039,86.357,154.045z"/>
		<path style="fill:#000E3F;" d="M103.083,142.25l0.001,0.028c-0.565,1.651-1.355,4.874-2.056,6.381    c-0.513-1.445-1.326-4.669-1.748-6.253c-0.109-0.198-0.446-0.147-1.46-0.167c-0.675-0.011-1.605,0-2.816,0.062    c1.182,3.204,2.447,6.379,3.033,9.683c-0.731,3.139-2.287,6.686-3.094,9.459c0.696,0.266,1.625,0.283,2.497,0.298    c0.449,0.008,0.902-0.012,1.325-0.032c0.934-1.898,1.231-4.285,2.227-6.406l0.027,0.029c0.868,1.789,1.016,4.522,1.8,6.337    l0.029,0.03c0.365,0.09,0.755,0.125,1.235,0.134c0.649,0.011,1.212-0.035,1.802-0.025c0.254,0.005,0.48,0.009,0.732,0.042    c-0.704-3.109-1.969-6.398-2.445-9.587c0.596-3.48,2.118-6.746,3.219-9.992c-0.001-0.028,0.027-0.028,0.026-0.056l-0.028,0    C105.253,142.177,104.07,142.184,103.083,142.25z"/>
	</g>
</g>















</svg>
