<?xml version="1.0" encoding="UTF-8"?>
<!-- Generator: Adobe Illustrator 25.3.1, SVG Export Plug-In . SVG Version: 6.00 Build 0)  -->
<svg xmlns="http://www.w3.org/2000/svg" xmlns:xlink="http://www.w3.org/1999/xlink" version="1.1" id="Capa_1" x="0px" y="0px" viewBox="0 0 512 512" style="enable-background:new 0 0 512 512;" xml:space="preserve" width="512" height="512">
<g>
	<g>
		<g>
			<g>
				<path style="fill:#FC09B2;" d="M489.028,429.602c0,44.8-104.331,81.117-233.034,81.117c-88.745,0-165.904-17.269-205.255-42.69      c-17.71-11.435-27.765-24.524-27.765-38.428c0-44.786,104.331-81.103,233.021-81.103c94.938,0,176.621,19.766,212.938,48.11      C481.842,406.678,489.028,417.851,489.028,429.602z"/>
				<g style="opacity:0.5;">
					<path style="fill:#FFBBEC;" d="M439.029,401.704c-32.471-21.445-104.317-35.301-183.035-35.301       c-53.15,0-103.187,6.116-140.892,17.221c-40.192,11.838-61.437,27.737-61.437,45.98c0,11.757,8.803,22.529,26.161,32.012       c35.206,19.244,102.71,31.199,176.168,31.199c53.156,0,103.197-6.116,140.904-17.223c40.193-11.838,61.438-27.74,61.438-45.988       C458.336,419.546,451.84,410.159,439.029,401.704z M394.005,465.769c-36.793,10.838-85.806,16.806-138.01,16.806       c-71.844,0-137.466-11.474-171.256-29.944c-9.504-5.192-20.832-13.401-20.832-23.026c0-12.664,20.22-26.18,54.089-36.156       c36.793-10.837,85.803-16.804,138-16.804c76.849,0,146.479,13.191,177.393,33.606c6.71,4.428,14.708,11.38,14.708,19.354       C448.096,442.273,427.875,455.793,394.005,465.769z"/>
					<path style="fill:#FFBBEC;" d="M389.436,411.311c-23.727-12.559-76.105-20.674-133.44-20.674       c-59.703,0-148.524,10.378-148.524,38.969c0,7.899,6.78,14.873,20.152,20.728c25.692,11.255,74.882,18.247,128.372,18.247       c59.705,0,148.533-10.38,148.533-38.975C404.529,422.764,399.45,416.608,389.436,411.311z M356.228,448.562       c-26.713,6.307-62.309,9.779-100.232,9.779c-52.167,0-99.782-6.662-124.263-17.387c-10.338-4.526-14.02-8.83-14.02-11.348       c0-3.702,8.015-11.859,38.059-18.95c26.712-6.306,62.306-9.779,100.224-9.779c55.79,0,106.287,7.648,128.651,19.485       c6.038,3.194,9.642,6.65,9.642,9.244C394.289,433.31,386.272,441.47,356.228,448.562z"/>
				</g>
				<path style="opacity:0.25;fill:#000E3F;" d="M489.028,429.602c0,44.8-104.331,81.117-233.034,81.117      c-88.745,0-165.904-17.269-205.255-42.69c9.518-4.607,19.807-7.821,30.083-9.531c32.414-5.366,65.42,0.952,98.11,4.166      c57.269,5.627,116.759,1.407,170.552-20.207c30.138-12.124,55.048-33.227,87.145-41.062c8.731-2.124,20.152-4,32.303-4.786      C481.842,406.678,489.028,417.851,489.028,429.602z"/>
			</g>
			<path style="fill:#000E3F;" d="M255.993,512c-86.075,0-164.99-16.436-205.949-42.894c-18.547-11.975-28.351-25.636-28.351-39.503     c0-22.247,24.544-43.043,69.111-58.555c44.147-15.366,102.812-23.828,165.19-23.828c92.177,0,176.069,18.991,213.726,48.382     c13.662,10.653,20.589,22.094,20.589,34.002c0,22.254-24.545,43.053-69.112,58.568C377.05,503.537,318.38,512,255.993,512z      M255.993,349.779c-127.782,0-231.74,35.809-231.74,79.824c0,12.956,9.399,25.871,27.18,37.353     c40.568,26.205,118.952,42.484,204.56,42.484c127.79,0,231.754-35.815,231.754-79.837c0-11.079-6.595-21.84-19.603-31.984     C430.909,368.557,347.635,349.779,255.993,349.779z"/>
		</g>
		<g>
			<g>
				<g>
					<g>
						<path style="fill:#FFBBEC;" d="M105.924,310.275c20.061,0.194,42.926,1.073,42.926,1.073s2.811-9.941,3.401-12.132        c3.605-13.372,3.956-6.851,35.308,1.74c1.211,0.332,3.86,1.343,5.081,1.639c1.159,0.284-3.604,11.711-4.059,12.865        c-4.478,11.358-10.337,25.112-23.535,28.029c-14.386,3.2-53.079-5.704-67.92-10.265        C88.52,330.576,94.243,310.162,105.924,310.275z"/>
						<path style="fill:#000E3F;" d="M96.751,334.446c13.829,4.25,43.368,10.981,60.668,10.981c3.075,0,5.76-0.213,7.905-0.689        c14.342-3.171,20.425-18.599,24.45-28.809c2.482-7.236,6.191-13.836,3.172-14.578c-0.252-0.061-15.628-4.628-25.882-8.349        c-14.7-5.333-13.155-4.25-19.172,17.029c-4.643-0.171-24.476-0.868-41.956-1.036        C92.573,308.995,86.813,331.391,96.751,334.446z M105.83,311.554c23.141,0,45.689,1.317,54.515,1.65        c0.02,0.001,0.04,0.001,0.06,0.001c0.68,0,1.246-0.536,1.277-1.222c0.033-0.706-0.515-1.304-1.22-1.337l-9.956-0.453        c3.584-12.695,4.221-16.27,5.857-17.122c2.11-1.096,4.451,1.053,35.114,10.522c-0.205,1.046-0.998,3.773-3.849,10.805        c-4.581,11.615-10.274,25.056-22.859,27.838c-13.757,3.054-51.199-5.3-67.267-10.239        C90.506,329.846,95.56,311.554,105.83,311.554z"/>
					</g>
					<g>
						<path style="fill:#FFBBEC;" d="M45.532,268.817c-0.633,0.005-1.227,0.392-1.572,0.922c-1.313,2.018-2.206,10.689,0.441,19.432        c-1.835-5.708-1.836-11.081-3.394-13.914c-0.892-1.622-3.198-3.898-4.596-1.355c-1.666,3.029-0.343,11.146,0.433,14.661        c0.714,3.236,1.784,5.341,2.998,6.948l-0.101,0.131c-4.98-5.525-7.061-11.284-10.38-10.364        c-4.308,1.193,1.458,11.022,2.624,13.029c7.371,12.689,27.855,30.5,45.548,27.153c7.648-1.447,16.786-8.007,14.459-16.909        c-2.523-9.653-13.954-14.579-21.607-25.333c-1.325-1.862-2.488-5.533-5.026-6.076c-3.07-0.656-4.057,4.537-3.569,6.657        c1.377,5.973,5.585,6.24,6.087,15.239c0.006,0.11,0.033,0.218,0.042,0.328c-1.669-0.21-3.898-1.211-6.221-4.356        c-3.23-4.375-2.982-9.223-2.503-11.852c0.345-0.963,0.787-1.895,1.345-2.772c0.897-1.409,2.065-2.922,2.304-4.623        c0.205-1.459-0.601-3.212-2.301-3.164c-2.303,0.065-6.948,5.116-9.259,8.164l-0.036-0.002l-1.488,1.924        C48.369,275.405,49.078,268.79,45.532,268.817z M44.461,289.367c0.012,0.04,0.028,0.079,0.04,0.119l-0.002,0.003        C44.485,289.448,44.474,289.408,44.461,289.367z"/>
						<path style="fill:#000E3F;" d="M45.523,267.626c-1.001,0.008-1.982,0.57-2.562,1.465c-0.589,0.906-1.059,2.678-1.303,4.969        c-0.774-1.124-2.122-2.489-3.684-2.489c-0.748-0.001-1.807,0.304-2.606,1.756c-0.994,1.808-1.075,4.927-0.84,7.918        c0.226,2.879,0.745,5.632,1.03,7.001c-2.071-2.837-3.896-4.842-6.516-4.117c-1.016,0.282-1.757,0.931-2.144,1.877        c-0.255,0.626-0.347,1.384-0.277,2.279c0.192,2.455,1.613,5.94,4.292,10.549c7.866,13.541,29.035,31.164,46.84,27.795        c5.723-1.083,11.156-4.523,13.84-8.765c1.882-2.974,2.419-6.303,1.55-9.615c-1.553-5.945-6.268-10.182-11.259-14.669        c-3.634-3.267-7.392-6.645-10.531-11.054c-0.317-0.447-0.649-1.055-0.998-1.697c-1.053-1.936-2.364-4.343-4.748-4.852        c-0.555-0.119-1.094-0.094-1.604,0.04c0.005-0.031,0.017-0.059,0.022-0.09c0.171-1.249-0.197-2.565-0.974-3.433        c-0.651-0.729-1.554-1.115-2.54-1.088c-2.904,0.083-7.664,5.398-10.007,8.428c-0.155-1.13-0.279-2.234-0.395-3.283        C49.577,271.748,49.119,267.598,45.523,267.626z M45.541,270.007c1.376-0.01,1.733,2.58,2.201,6.807        c0.562,5.08,1.331,12.037,5.652,17.414c0.412,0.513,1.161,0.595,1.675,0.182c0.513-0.413,0.592-1.162,0.182-1.675        c-2.332-2.903-3.512-6.33-4.206-9.7c0.116-0.084,0.223-0.186,0.306-0.314c2.038-3.166,7.47-8.884,9.228-8.933        c0.289-0.009,0.511,0.086,0.698,0.294c0.311,0.346,0.468,0.95,0.39,1.514c-0.163,1.161-0.929,2.321-1.669,3.444        c-0.158,0.237-0.313,0.473-0.46,0.705c-2.873,4.513-2.781,9.994,0.248,14.666c1.876,2.892,4.531,4.77,6.949,5.05        c0.387,4.18,2.955,8.545,6.871,11.522c0.524,0.399,1.272,0.297,1.669-0.227c0.398-0.521,0.297-1.271-0.227-1.669        c-2.734-2.077-5.742-5.788-5.98-10.116c-0.01-0.183-0.026-0.354-0.04-0.531c0.016-0.108,0.037-0.214,0.025-0.327        c-0.009-0.064-0.044-0.115-0.063-0.174c-0.464-4.903-2.096-7.275-3.551-9.357c-1.015-1.453-1.975-2.826-2.487-5.051        c-0.276-1.196,0.081-3.836,1.12-4.891c0.317-0.322,0.627-0.423,1.039-0.335c1.313,0.282,2.291,2.077,3.154,3.663        c0.385,0.707,0.749,1.375,1.15,1.938c3.291,4.625,7.322,8.249,10.878,11.446c4.923,4.425,9.174,8.246,10.547,13.499        c0.705,2.701,0.282,5.304-1.259,7.74c-2.669,4.219-8.085,6.907-12.269,7.698c-16.74,3.167-36.818-13.707-44.297-26.58        c-4.412-7.596-4.202-10.083-3.91-10.804c0.077-0.188,0.2-0.376,0.573-0.48c1.327-0.367,2.644,1.374,4.858,4.482        c1.902,2.669,4.207,5.876,7.591,8.695c0.472,0.428,0.943,0.854,1.4,1.31c0.215,0.214,0.492,0.318,0.773,0.334        c0.539,0.336,1.25,0.2,1.612-0.331c0.372-0.542,0.23-1.285-0.312-1.655c-0.667-0.455-1.284-0.938-1.878-1.43        c-0.009-0.008-0.017-0.016-0.026-0.024c-2.309-2.094-4.491-4.073-5.689-9.499c-1.127-5.099-1.778-11.601-0.551-13.832        c0.086-0.156,0.31-0.521,0.518-0.521c0.453-0.001,1.4,0.802,1.991,1.878c0.729,1.326,1.102,3.465,1.535,5.94        c0.437,2.505,0.934,5.326,1.911,8.226c0.374,1.174,0.804,2.345,1.307,3.498c0.077,0.176,0.198,0.314,0.337,0.43        c0.728,1.418,1.615,2.831,2.712,4.21c0.409,0.515,1.159,0.6,1.674,0.19c0.515-0.409,0.598-1.158,0.19-1.674        c-1.925-2.42-3.149-4.998-3.994-7.532c-2.696-8.659-1.693-17.167-0.677-18.73C45.103,270.165,45.343,270.01,45.541,270.007z         M60.629,284.067c0.617,2.674,1.755,4.305,2.856,5.881c1.27,1.818,2.469,3.574,2.984,7.054        c-1.568-0.415-3.376-1.868-4.686-3.887c-0.82-1.265-3.054-5.356-1.276-10.029C60.527,283.445,60.564,283.784,60.629,284.067z"/>
					</g>
					<g>
						<g>
							<path style="fill:#FC09B2;" d="M105.942,321.521c-1.993,6.576-6.44,13.368-14.01,13.607         c-4.38,0.128-16.122-2.997-15.825-9.095c0.025-0.465,0.117-0.942,0.278-1.433c1.405-4.148,5.752-6.056,7.689-16.241         c1.276-6.781,2.137-12.221,16.302-6.199c2.469,1.053,4.169,2.504,5.269,4.23         C108.319,310.547,107.554,316.241,105.942,321.521z"/>
							<g style="opacity:0.45;">
								<path style="fill:#000E3F;" d="M100.122,310.579c1.597,1.117,3.998,3.35,2.346,4.392c-0.485,0.306-1.094,0.136-0.964,0.143          c-1.92-0.45-7.565-2.403-9.304-3.064c-2.512-0.992-3.311-1.532-3.193-1.463c-0.544-0.318-0.728-1.017-0.41-1.561          C89.225,307.949,95.346,307.307,100.122,310.579z"/>
								<path style="fill:#000E3F;" d="M88.324,318.686c6.853,0.45,11.478,5.514,9.459,6.786c-0.666,0.42-1.121,0.207-7.198-1.826          c-5.178-1.77-6.384-2.611-6.264-2.558c-0.545-0.318-0.728-1.017-0.41-1.561C84.449,318.606,87.261,318.628,88.324,318.686z"/>
							</g>
							<path style="opacity:0.25;fill:#000E3F;" d="M105.942,321.521c-1.993,6.576-6.44,13.368-14.01,13.607         c-4.38,0.128-16.122-2.997-15.825-9.095l0.045-0.03c5.749-3.487,12.982,2.18,18.497-2.122         c5.561-4.332,5.733-12.748,10.996-17.49C108.319,310.547,107.554,316.241,105.942,321.521z"/>
						</g>
						<path style="fill:#000E3F;" d="M76.921,330.937c-1.476-1.504-2.18-3.175-2.092-4.969c0.03-0.57,0.144-1.164,0.344-1.778        c0.556-1.643,1.509-2.956,2.519-4.345c1.748-2.408,3.923-5.404,5.125-11.722l0.04-0.213c0.699-3.718,1.359-7.23,4.339-8.826        c2.82-1.509,7.04-0.925,13.683,1.9c2.585,1.103,4.553,2.69,5.843,4.715c2.459,3.821,2.605,9.12,0.445,16.197        c-1.291,4.263-5.356,14.202-15.197,14.514c-0.09,0.003-0.184,0.004-0.28,0.004C88.17,336.412,80.571,334.661,76.921,330.937z         M88.404,301.341c-1.9,1.016-2.424,3.808-3.033,7.042l-0.04,0.216c-1.31,6.884-3.671,10.136-5.569,12.75        c-0.969,1.334-1.734,2.387-2.16,3.649c-0.126,0.386-0.199,0.756-0.216,1.098c-0.052,1.063,0.394,2.061,1.363,3.049        c2.843,2.898,9.498,4.707,12.888,4.707c0.086,0,0.171-0.001,0.255-0.002c8.182-0.259,11.694-8.967,12.826-12.699        c0-0.001,0-0.001,0.001-0.002c1.926-6.314,1.878-10.915-0.153-14.069c-1.011-1.586-2.59-2.844-4.692-3.74        c-3.932-1.672-6.936-2.502-9.084-2.502C89.823,300.837,89.03,301.005,88.404,301.341z"/>
					</g>
				</g>
				<g>
					<g>
						<path style="fill:#FFBBEC;" d="M406.077,310.275c-20.061,0.194-42.926,1.073-42.926,1.073s-2.811-9.941-3.402-12.132        c-3.605-13.372-3.956-6.851-35.308,1.74c-1.211,0.332-3.86,1.343-5.081,1.639c-1.159,0.284,3.604,11.711,4.059,12.865        c4.478,11.358,10.338,25.112,23.535,28.029c14.386,3.2,53.079-5.704,67.92-10.265        C423.481,330.576,417.758,310.162,406.077,310.275z"/>
						<path style="fill:#000E3F;" d="M406.065,308.995c-17.48,0.169-37.313,0.866-41.956,1.036        c-6.017-21.279-4.472-22.363-19.172-17.029c-10.254,3.721-25.63,8.288-25.882,8.349c-3.019,0.741,0.69,7.342,3.173,14.578        c4.025,10.21,10.108,25.638,24.45,28.809c2.145,0.476,4.83,0.689,7.905,0.689c17.3,0,46.838-6.73,60.668-10.981        C425.188,331.391,419.428,308.995,406.065,308.995z M414.498,331.998c-16.068,4.939-53.51,13.293-67.267,10.239        c-12.585-2.782-18.277-16.223-22.858-27.838c-2.851-7.032-3.644-9.759-3.849-10.805c30.663-9.469,33.004-11.618,35.114-10.522        c1.637,0.852,2.273,4.427,5.857,17.122l-9.956,0.453c-0.705,0.033-1.253,0.631-1.22,1.337        c0.031,0.686,0.598,1.222,1.278,1.222c0.02,0,0.04,0,0.06-0.001c8.826-0.333,31.374-1.65,54.515-1.65        C416.441,311.554,421.495,329.846,414.498,331.998z"/>
					</g>
					<g>
						<path style="fill:#FFBBEC;" d="M462.24,282.684l-1.488-1.924l-0.036,0.002c-2.311-3.048-6.956-8.099-9.259-8.164        c-1.7-0.048-2.506,1.705-2.301,3.164c0.239,1.701,1.406,3.214,2.304,4.623c0.559,0.877,1,1.809,1.345,2.772        c0.479,2.629,0.728,7.477-2.503,11.852c-2.322,3.145-4.552,4.147-6.221,4.356c0.009-0.11,0.036-0.218,0.042-0.328        c0.502-8.999,4.71-9.266,6.087-15.239c0.488-2.12-0.499-7.313-3.569-6.657c-2.538,0.543-3.701,4.214-5.026,6.076        c-7.653,10.754-19.084,15.68-21.607,25.333c-2.327,8.902,6.81,15.462,14.459,16.909c17.693,3.347,38.177-14.464,45.548-27.153        c1.166-2.007,6.933-11.836,2.625-13.029c-3.32-0.92-5.4,4.84-10.381,10.364l-0.101-0.131c1.214-1.606,2.284-3.712,2.998-6.948        c0.776-3.515,2.098-11.632,0.432-14.661c-1.398-2.542-3.705-0.267-4.596,1.355c-1.558,2.833-1.558,8.206-3.394,13.914        c2.648-8.743,1.754-17.414,0.441-19.432c-0.345-0.531-0.939-0.918-1.572-0.922C462.923,268.79,463.632,275.405,462.24,282.684        z M467.503,289.489l-0.002-0.003c0.012-0.04,0.028-0.079,0.04-0.119C467.527,289.408,467.516,289.448,467.503,289.489z"/>
						<path style="fill:#000E3F;" d="M461.892,276.552c-0.116,1.049-0.24,2.152-0.395,3.283c-2.343-3.03-7.102-8.345-10.007-8.428        c-0.986-0.027-1.889,0.359-2.54,1.088c-0.777,0.868-1.145,2.184-0.974,3.433c0.004,0.031,0.017,0.059,0.022,0.09        c-0.511-0.134-1.05-0.159-1.604-0.04c-2.384,0.509-3.695,2.916-4.748,4.852c-0.349,0.642-0.681,1.25-0.998,1.697        c-3.139,4.41-6.897,7.788-10.531,11.054c-4.991,4.486-9.706,8.724-11.259,14.669c-0.87,3.311-0.332,6.641,1.55,9.615        c2.684,4.242,8.117,7.683,13.84,8.765c17.806,3.369,38.975-14.255,46.84-27.795c2.679-4.609,4.1-8.094,4.292-10.549        c0.071-0.895-0.021-1.654-0.277-2.279c-0.386-0.946-1.127-1.595-2.144-1.877c-2.62-0.725-4.444,1.28-6.516,4.117        c0.285-1.37,0.805-4.122,1.031-7.001c0.235-2.991,0.154-6.11-0.84-7.918c-0.799-1.451-1.858-1.756-2.606-1.756        c-1.562,0-2.91,1.365-3.685,2.489c-0.243-2.291-0.714-4.064-1.303-4.969c-0.581-0.895-1.562-1.458-2.562-1.465        C462.883,267.598,462.424,271.748,461.892,276.552z M467.043,270.389c1.016,1.563,2.019,10.072-0.677,18.73        c-0.845,2.534-2.069,5.112-3.994,7.532c-0.408,0.516-0.325,1.265,0.19,1.674c0.515,0.409,1.265,0.325,1.674-0.19        c1.097-1.379,1.984-2.791,2.712-4.21c0.139-0.116,0.26-0.253,0.337-0.43c0.503-1.152,0.933-2.324,1.306-3.498        c0.977-2.899,1.474-5.721,1.911-8.226c0.433-2.476,0.806-4.614,1.535-5.94c0.591-1.076,1.539-1.879,1.991-1.878        c0.208,0,0.432,0.365,0.518,0.521c1.227,2.23,0.576,8.733-0.551,13.832c-1.198,5.426-3.379,7.404-5.689,9.499        c-0.009,0.008-0.017,0.016-0.026,0.024c-0.595,0.492-1.211,0.975-1.879,1.43c-0.542,0.37-0.684,1.113-0.312,1.655        c0.362,0.53,1.073,0.667,1.612,0.331c0.281-0.016,0.558-0.12,0.773-0.334c0.457-0.457,0.927-0.883,1.399-1.31        c3.385-2.819,5.69-6.026,7.592-8.695c2.214-3.108,3.531-4.849,4.858-4.482c0.373,0.104,0.496,0.292,0.574,0.48        c0.292,0.721,0.502,3.208-3.91,10.804c-7.479,12.873-27.557,29.747-44.297,26.58c-4.183-0.792-9.6-3.479-12.269-7.698        c-1.541-2.436-1.964-5.039-1.259-7.74c1.373-5.252,5.624-9.073,10.547-13.499c3.556-3.197,7.586-6.821,10.878-11.446        c0.401-0.564,0.766-1.231,1.15-1.938c0.863-1.585,1.841-3.381,3.154-3.663c0.412-0.088,0.722,0.012,1.039,0.335        c1.039,1.055,1.396,3.694,1.12,4.891c-0.512,2.225-1.472,3.598-2.487,5.051c-1.454,2.082-3.087,4.454-3.551,9.357        c-0.019,0.06-0.053,0.111-0.063,0.174c-0.012,0.113,0.009,0.219,0.025,0.327c-0.013,0.177-0.029,0.348-0.04,0.531        c-0.238,4.328-3.246,8.039-5.98,10.116c-0.524,0.399-0.625,1.148-0.227,1.669c0.397,0.524,1.145,0.626,1.669,0.227        c3.916-2.977,6.484-7.342,6.871-11.522c2.418-0.28,5.073-2.158,6.949-5.05c3.029-4.672,3.121-10.153,0.248-14.666        c-0.147-0.232-0.303-0.467-0.46-0.705c-0.74-1.122-1.506-2.283-1.669-3.444c-0.078-0.564,0.079-1.168,0.39-1.514        c0.187-0.208,0.409-0.303,0.697-0.294c1.758,0.05,7.191,5.767,9.228,8.933c0.083,0.128,0.189,0.23,0.306,0.314        c-0.694,3.37-1.874,6.797-4.206,9.7c-0.41,0.512-0.332,1.262,0.182,1.675c0.513,0.413,1.263,0.33,1.675-0.182        c4.32-5.377,5.089-12.334,5.652-17.414c0.468-4.228,0.825-6.818,2.201-6.807C466.658,270.01,466.898,270.165,467.043,270.389z         M451.496,283.085c1.777,4.673-0.457,8.764-1.277,10.029c-1.31,2.019-3.118,3.472-4.686,3.887        c0.514-3.48,1.714-5.236,2.984-7.054c1.1-1.576,2.239-3.206,2.856-5.881C451.437,283.784,451.474,283.445,451.496,283.085z"/>
					</g>
					<g>
						<g>
							<path style="fill:#FC09B2;" d="M406.059,321.521c1.993,6.576,6.44,13.368,14.01,13.607c4.38,0.128,16.122-2.997,15.825-9.095         c-0.025-0.465-0.118-0.942-0.278-1.433c-1.405-4.148-5.752-6.056-7.689-16.241c-1.276-6.781-2.137-12.221-16.302-6.199         c-2.469,1.053-4.169,2.504-5.268,4.23C403.682,310.547,404.448,316.241,406.059,321.521z"/>
							<g style="opacity:0.45;">
								<path style="fill:#000E3F;" d="M411.879,310.579c-1.597,1.117-3.998,3.35-2.346,4.392c0.486,0.306,1.094,0.136,0.964,0.143          c1.92-0.45,7.565-2.403,9.304-3.064c2.513-0.992,3.311-1.532,3.193-1.463c0.544-0.318,0.728-1.017,0.41-1.561          C422.776,307.949,416.655,307.307,411.879,310.579z"/>
								<path style="fill:#000E3F;" d="M423.677,318.686c-6.853,0.45-11.478,5.514-9.459,6.786c0.666,0.42,1.121,0.207,7.198-1.826          c5.178-1.77,6.384-2.611,6.264-2.558c0.544-0.318,0.728-1.017,0.41-1.561C427.553,318.606,424.74,318.628,423.677,318.686z"/>
							</g>
							<path style="opacity:0.25;fill:#000E3F;" d="M406.059,321.521c1.993,6.576,6.44,13.368,14.01,13.607         c4.38,0.128,16.122-2.997,15.825-9.095l-0.045-0.03c-5.749-3.487-12.981,2.18-18.497-2.122         c-5.561-4.332-5.733-12.748-10.996-17.49C403.682,310.547,404.448,316.241,406.059,321.521z"/>
						</g>
						<path style="fill:#000E3F;" d="M420.312,336.412c-0.096,0-0.19-0.001-0.28-0.004c-9.84-0.311-13.906-10.251-15.197-14.514        c-2.16-7.077-2.014-12.376,0.445-16.197c1.29-2.025,3.258-3.612,5.843-4.715c6.643-2.824,10.863-3.409,13.683-1.9        c2.98,1.596,3.64,5.108,4.339,8.826l0.04,0.213c1.203,6.318,3.378,9.315,5.125,11.722c1.01,1.39,1.963,2.702,2.519,4.345        c0.2,0.614,0.314,1.208,0.344,1.778c0.087,1.794-0.616,3.465-2.093,4.969C431.43,334.661,423.831,336.412,420.312,336.412z         M421.211,300.837c-2.148,0-5.153,0.829-9.084,2.502c-2.101,0.896-3.68,2.154-4.691,3.74        c-2.03,3.154-2.079,7.755-0.153,14.069c0.001,0.001,0.001,0.002,0.001,0.002c1.131,3.732,4.644,12.441,12.825,12.699        c0.084,0.001,0.169,0.002,0.255,0.002c3.39,0,10.046-1.809,12.888-4.707c0.969-0.988,1.415-1.986,1.363-3.049        c-0.017-0.342-0.09-0.712-0.216-1.098c-0.426-1.262-1.191-2.315-2.16-3.649c-1.898-2.614-4.259-5.866-5.569-12.75l-0.04-0.216        c-0.609-3.233-1.132-6.025-3.033-7.042C422.971,301.005,422.178,300.837,421.211,300.837z"/>
					</g>
				</g>
			</g>
			<g>
				<g>
					<g>
						<path style="fill:#FFFFFF;" d="M219.404,389.242c-0.192,0.781-0.576,1.626-1.152,2.548c-2.189,3.584-3.789,7.629-5.338,11.546        l-0.179,0.461l-0.038,0.09c-0.717,1.818-1.113,3.456-1.459,4.902c-0.627,2.611-1.216,5.108-3.763,5.492        c-0.231,0.051-0.474,0.064-0.743,0.064c-0.755,0-1.613-0.154-2.663-0.487c-8.09-2.573-26.254-5.363-52.521-8.077        c-4.954-0.512-11.546-1.19-16.82-2.919c-2.931-0.96-5.466-2.24-7.091-4.006c-2.496-2.688-2.65-5.21-2.342-6.836        c0.499-2.598,2.509-4.877,5.658-6.413c1.049-0.512,2.176-0.909,3.392-1.242c4.506-1.229,10.049-1.318,16.27-1.434        c10.125-0.192,21.607-0.397,32.398-5.581c1.088-0.525,2.099-0.999,3.059-1.447h0.012c4.148-1.933,7.297-3.046,11.649-3.046        c1.229,0,2.547,0.089,4.019,0.269c5.479,0.653,8.115,3.353,12.481,7.808c1.062,1.075,2.227,2.278,3.597,3.61        C219.328,386.004,219.852,387.463,219.404,389.242z"/>
						<path style="fill:#FFFFFF;" d="M386.477,395.809c-1.523,4.378-8.807,6.029-12.66,6.976        c-12.455,3.085-26.51,0.832-39.208,0.013c-10.445-0.666-20.942-1.267-31.323-2.624c-1.203-0.166-2.189-0.269-3.033-0.448        c-2.356-0.525-3.623-1.626-5.517-6.067c-0.819-1.895-1.421-2.663-1.958-3.968c-1.165-3.187,0.602-3.981,4.557-8.218        c5.338-5.684,8.359-8.436,15.796-8.436c5.927,0,10.817,2.291,14.503,3.904c14.183,6.208,30.811,5.568,42.907,6.579        c7.271,0.615,12.903,1.818,15.386,5.479C387.207,390.868,387.386,393.159,386.477,395.809z"/>
					</g>
					<g style="opacity:0.5;">
						<path style="fill:#FD8A02;" d="M294.226,451.873c-1.849-0.563-37.664-12.013-37.226-13.291        c0.112-0.327,0.372-0.608,0.595-0.889c0.154-0.195,14.498-6.518,28.178-6.489c6.41,0.013,10.38-0.362,21.787,1.945        c30.712,6.21,63.244,26.37,96.142,7.812c5.468-3.085,8.833-5.832,12.558-8.41c0.344-0.238,1.244,0.074,1.371,0.896        c0.963,6.276-0.231,12.004-4.133,17.138C394.171,476.01,325.417,461.366,294.226,451.873z"/>
						<path style="fill:#FD8A02;" d="M130.471,464.149c-17.805-1.391-36.571-9.244-36.383-25.961        c0.018-1.633,0.152-3.267,0.284-4.897c0.049-0.61,0.967-0.984,1.487-0.638c5.254,3.503,3.22,3.2,13.234,8.742        c23.766,13.155,49.166,5.745,75.066-2.809c24.763-8.178,39.291-8.466,53.145-6.277c1.324,0.209,2.135,0.52,13.432,5.089        c0.462,0.187,0.884,0.476,1.312,0.737c0.404,0.247,0.392,1.044-0.003,1.328c-0.304,0.219-0.421,0.49-1.975,1.071        C212.104,454.74,171.489,467.353,130.471,464.149z"/>
					</g>
					<path style="fill:#FFBBEC;" d="M256.274,175.281c18.397,0,10.186,0.313,16.21,0.702c4.576,0.296,14.925,1.95,17.084,2.888       c0.634,0.275,1.207,1.209,0.769,2.649c-7.095,23.311-32.625,37.932-53.982,22.081c-7.678-5.699-14.179-17.172-14.888-23.032       c-0.123-1.017,0.814-1.878,1.814-2.069c12.372-2.379,16.517-3.311,32.993-3.311       C256.274,175.22,256.274,175.251,256.274,175.281z"/>
					<path style="fill:#4217A6;" d="M353.67,264.27c-6.938-22.439-14.222-46.876-27.496-65.257       c-7.54-10.432-19.854-15.873-32.181-19.201c-0.486-0.128-0.999-0.179-1.485-0.256c-2.445-0.371-1.587,6.708-9.69,17.037       c-4.8,6.106-10.739,10.624-18.138,13.108c-14.759,4.954-30.465-4.007-38.274-16.846c-5.722-9.421-4.8-13.236-6.81-13.185       c-3.814,0.09-19.649,5.427-27.573,12.57c-15.412,13.927-24.577,42.741-30.887,62.428c-0.039,0.09-9.818,30.939-11.354,36.878       c-0.282,1.101-0.474,2.227-0.627,3.341c-0.256,1.984,6.413,4.621,8.269,5.363c12.289,4.826,21.735,6.132,34.984,7.578       c1.498,0.166,3.021,0.179,4.531,0.179c1.178-0.013,1.908-0.729,1.997-1.83c0.103-1.37,0.077-2.048,0.077-9.844h-0.064       c0-10.778-0.102-9.306,0.282-9.831c0.179,0.64,0.231,20.519,0.231,21.172c0,2.893,0.077,5.799-0.589,8.666       c-0.115,0.487-0.986,23.809-10.215,51.804c-1.075,3.277-1.92,5.799-2.573,7.757c4.148-1.933,7.297-3.046,11.649-3.046       c1.229,0,2.547,0.089,4.019,0.269c5.479,0.653,8.115,3.353,12.481,7.808c1.062,1.075,2.227,2.278,3.597,3.61       c1.498,1.459,2.023,2.919,1.574,4.698c0.64,0.192,1.242-0.217,2.266-1.472c2.931-3.61,5.107-2.599,19.521,1.638       c14.798,4.352,14.516,4.852,18.228,3.61c14.273-4.787,18.036-5.325,24.667-7.271c5.824-1.702,6.631,4.685,8.538,3.533       c-0.525-1.536-0.205-2.88,2.01-5.018c0.896-0.87,1.779-1.805,2.701-2.79c3.405-3.623,6.925-7.36,11.892-8.129       c1.318-0.205,2.624-0.307,3.904-0.307c4.8,0,8.704,1.421,12.66,3.111c-7.092-20.839-9.447-33.499-11.674-48.578       c-1.049-7.066-0.742-7.411-1.331-12.019c-0.281-2.24-0.166-4.532-0.217-6.797c-0.013-0.358,0.371-0.819,0.653-0.794       c4.352,0.346,16.705-1.408,21.019-2.086c6.963-1.101,22.567-5.146,27.688-9.536C363.756,294.774,363.014,294.518,353.67,264.27       z"/>
					<g>
						<path style="fill:#FFCF00;" d="M371.941,404.84c-9.921,0.248-19.842-0.223-29.745-0.79        c-8.514-0.488-17.634-0.173-25.995-1.737c-3.968-0.742-8.039-0.602-12.02-1.267c-6.759-1.114-9.485-0.499-8.96-1.498        c0.397-0.755,0.23-1.485-0.115-2.176c-3.866-7.847-5.274-12.429-10.266-11.418c-5.888,1.203-21.71,5.952-24.321,7.079        c-1.229,0.525,0.025,1.843-0.794,1.779c-4.724-0.36-26.387-7.917-32.833-8.884c-4.839-0.704-5.85,2.419-12.084,15.694        c-2.227,4.749-2.125,6.605-3.469,11.968c-0.455,1.802-1.334,1.371-3.865,0.691c-0.969,0.215-2.397-0.103-3.405-0.423        c-18.201-5.788-58.4-7.41-69.341-10.996c-11.789,2.957-23.297,6.477-32.257,16.026c-8.563,9.114-8.423,14.81-8.384,19.547        c0.038,5.901,2.547,10.778,6.643,14.785c10.65,10.381,30.465,10.817,31.886,11.15c2.919,0.653,16.68,0.473,17.755,0.269        c9.251-1.743,35.474,0.345,98.642-23.706l7.224-1.885c16.022,5.466,92.446,35.444,139.264,22.596        C436.931,450.294,416.519,403.726,371.941,404.84z"/>
						<path style="fill:#FFCF00;" d="M271.76,295.878c-0.966,0.074-0.903-0.252-0.834-0.545c1.264-5.408,5.569-22.09,6.982-27.45        c0.328-1.244,0.037-1.923-0.978-2.636c-2.472-1.736-4.861-3.59-7.284-5.395c-1.698-1.264-1.71-1.271-0.533-3.013        c25.543-37.801,14.235-20.975,21.488-31.991c0.198-0.301,0.413-0.79,0.814-0.648c0.458,0.163,0.215,0.657,0.131,0.997        c-1.563,6.329-4.987,20.189-6.832,26.788c-0.4,1.429-0.004,2.205,1.146,3.006c2.478,1.727,4.873,3.574,7.283,5.397        c1.398,1.058,1.401,1.094,0.48,2.494c-7.469,11.364-8.052,12.042-21.214,31.628C272.074,295.005,271.888,295.6,271.76,295.878        z"/>
					</g>
					<g>
						<path style="fill:#915EFD;" d="M187.271,404.795c-0.216,1.147-1.875,1.133-2.068-0.023c-1.173-7.081,1.502-16.019,6.801-21.77        c1.467-1.61,6.654-6.303,7.594-4.191c0.172,0.387,0.076,0.825-0.209,1.106C188.744,390.411,187.18,405.278,187.271,404.795z"/>
						<path style="fill:#915EFD;" d="M206.195,389.665c-7.246,12.28-4.892,18.86-7.432,18.4c-2.862-0.518-1.898-18.15,9.678-25.102        c0.923-0.554,1.948,0.564,1.312,1.436C209.753,384.399,207.31,387.806,206.195,389.665z"/>
						<path style="fill:#915EFD;" d="M325.806,398.411c-0.05,0.589-0.567,1.025-1.155,0.975c-1.583-0.134-2.046-6.112-7.822-14.21        c-2.767-3.804-4.309-4.342-3.193-5.362C315.358,378.238,326.78,386.914,325.806,398.411z"/>
						<path style="fill:#915EFD;" d="M177.227,395.513c-0.195,1.619-0.984,7.622-0.962,7.482c-0.168,1.026-1.552,1.253-2.038,0.319        c-2.431-4.745-1.278-12.294,2.5-16.114c0.685-0.693,1.866-0.119,1.741,0.85C178.403,388.566,177.545,393.308,177.227,395.513z        "/>
						<path style="fill:#915EFD;" d="M164.587,398.447c-0.066,1.05-0.133,3.721-0.129,3.583c-0.033,1.025-1.346,1.44-1.963,0.607        c-3.254-4.445-1.854-12.323,2.701-15.386c0.802-0.539,1.832,0.234,1.55,1.152        C165.699,391.808,164.936,393.852,164.587,398.447z"/>
						<path style="fill:#915EFD;" d="M152.963,397.401c-0.379,2.203-0.628,2.981-0.59,2.841c-0.256,0.948-1.511,1.119-2.026,0.306        c-2.242-3.545-1.137-9.636,2.211-12.21c0.724-0.556,1.764,0.013,1.697,0.915C154.143,390.776,152.939,397.539,152.963,397.401        z"/>
						<path style="fill:#915EFD;" d="M312.699,396.273c0.033,1.02-1.217,1.538-1.917,0.8c-3.141-3.312-7.417-11.952-7.153-11.385        c-0.243-0.522-0.016-1.143,0.506-1.386C305.973,383.449,312.483,389.578,312.699,396.273z"/>
						<path style="fill:#915EFD;" d="M351.25,396.398c-0.27,1.799-1.388,4.437-2.825,3.342c-0.82-0.625-0.069-1.188-2.637-10.815        l-0.015-0.055c-0.155-0.565,0.176-1.149,0.741-1.304C348.095,387.129,352.069,391.36,351.25,396.398z"/>
						<path style="fill:#915EFD;" d="M361.558,400.001c-0.6,0.72-1.75,0.459-2.002-0.422c-1.325-4.644-0.853-9.984-0.867-9.293        c0.088-0.603,0.647-1.019,1.25-0.932C361.974,389.651,364.62,396.328,361.558,400.001z"/>
						<path style="fill:#915EFD;" d="M338.314,398.652c-0.467,0.846-1.704,0.753-2.053-0.133c-0.682-1.731-1.601-5.697-1.945-7.503        c-0.366-1.762-0.973-3.755,0.537-3.889C336.491,386.981,341.16,393.5,338.314,398.652z"/>
						<path style="fill:#915EFD;" d="M141.52,397.927c-0.358,0.797-1.436,0.935-1.985,0.243c-2.157-2.745-0.543-7.91,2.826-8.928        c0.792-0.239,1.547,0.444,1.409,1.245C143.109,394.328,141.35,398.306,141.52,397.927z"/>
						<path style="fill:#915EFD;" d="M373.813,396.234c-0.219,1.747-1.32,3.724-2.637,2.672c-1.117-0.891-2.386-8.285-2.369-8.147        c-0.073-0.61,0.362-1.162,0.971-1.235C371.291,389.342,374.339,392.493,373.813,396.234z"/>
						<path style="fill:#915EFD;" d="M210.704,186.884c7.632,22.465,26.998,35.607,44.975,35.011        c17.936-0.34,36.848-12.518,45.627-35.047l0.01-0.026c0.516-1.322,2.509-0.654,2.131,0.712        c-4.733,16.868-17.652,30.167-31.49,35.543c-29.265,11.469-57.118-9.017-63.292-35.637c-0.301-1.298,1.598-1.839,2.03-0.584        L210.704,186.884z"/>
						<path style="fill:#915EFD;" d="M355.229,280.21c-5.261,3.739-11.679,6.343-17.827,8.044        c-6.186,1.625-13.046,2.588-19.383,2.252c-1.296-0.069-1.478-1.926-0.207-2.238c5.557-1.362,11.695-2.505,18.434-4.341        c3.032-0.781,6.027-1.682,9.023-2.616c2.993-0.948,5.965-1.98,9.002-2.984c0.56-0.187,1.165,0.114,1.353,0.673        C355.776,279.455,355.6,279.944,355.229,280.21z"/>
						<path style="fill:#915EFD;" d="M184.332,286.241l9.087,2.032c0.612,0.137,0.996,0.744,0.86,1.355        c-0.193,0.862-1.168,0.938-1.04,0.885c-11.723,0.795-26.89-3.338-36.591-9.631c-0.495-0.321-0.636-0.983-0.315-1.478        C157.393,277.771,159.581,280.513,184.332,286.241z"/>
						<path style="fill:#915EFD;" d="M222.745,293.896c13.12,27.373,36.14,54.516,65.369,63.202c0.596,0.177,1.223-0.162,1.4-0.759        c1.307-4.396-26.376-2.543-64.919-63.465C223.89,291.756,222.173,292.7,222.745,293.896z"/>
						<path style="fill:#915EFD;" d="M216.514,331.376c13.027,17.269,32.414,30.89,53.555,33.426c1.361,0.164,1.772-1.799,0.461-2.2        c-22.848-7.011-35.343-16.924-52.449-32.645c-0.431-0.397-1.102-0.37-1.5,0.061        C216.228,330.4,216.212,330.975,216.514,331.376z"/>
					</g>
					<g style="opacity:0.25;">
						<path style="fill:#000E3F;" d="M353.324,300.15c0,0.384-0.512,0.717-0.704,0.793c-9.063,3.303-14.017,4.352-23.079,5.633        c-7.079,0.998-11.188,1.574-15.399,1.395c-1.242-0.051-1.664,0.051-1.626,1.357c0.448,16.935,4.98,43.048,13.21,66.793        c-3.93-1.677-7.821-3.085-12.596-3.085c-1.28,0-2.586,0.103-3.904,0.307c-4.967,0.768-8.487,4.506-11.892,8.129        c-0.922,0.986-1.805,1.92-2.701,2.79c-2.214,2.138-2.534,3.482-2.01,5.018c0.051,0.141,0.103,0.269,0.154,0.41        c-0.013,0.013-0.038,0.038-0.051,0.051c-1.664-0.307-1.639-1.165-3.072-2.624c-1.434-1.459-3.111-2.035-5.159-1.472        c-4.135,1.152-8.295,2.176-12.404,3.379c-13.146,3.853-14.516,5.351-18.164,4.199c-25.896-8.192-14.375-1.523,3.61-17.857        c2.419-2.202,4.992-3.738,9.652-10.074c24.731-33.691,18.702-79.594,48.002-114.898c1.331-1.613,2.816-1.6,4.084,0.038        c8.653,11.239,8.026,41.691,32.155,48.809c0.589,0.179,1.178,0.384,1.754,0.602        C353.26,299.882,353.311,300.048,353.324,300.15z"/>
						<path style="fill:#000E3F;" d="M198.885,306.536c-0.056,0.68-0.82,1.417-1.55,1.419c-15.626,0.046-41.814-6.599-38.599-8.112        c0.673-0.316,1.358-0.643,2.075-0.823c24.551-6.176,24.119-43.402,32.919-49.465c0.267-0.184,0.904-0.002,0.989,0.279        c0.728,2.406-0.48-2.758,1.732,12.293C198.563,276.491,200.091,292.001,198.885,306.536z"/>
					</g>
					<path style="fill:#FD8A02;" d="M238.676,393.826c-1.009,4.083-7.05,23.463-8.922,28.289c-0.45,1.171-2.198,0.862-2.211-0.406       c-0.032-8.888,3.844-21.287,9.215-28.772C237.445,391.981,238.958,392.672,238.676,393.826z"/>
					<g style="opacity:0.18;">
						<path style="fill:#000E3F;" d="M219.404,389.242c-0.192,0.781-0.576,1.626-1.152,2.548c-2.189,3.584-3.789,7.629-5.338,11.546        l-0.179,0.461c-1.984-0.538-3.917-1.37-5.735-2.317c-3.699-1.946-7.117-4.429-10.906-6.208        c-7.859-3.687-16.833-4.173-25.512-3.764c-5.479,0.269-10.97,0.858-16.449,0.615c-5.492-0.243-11.072-1.382-15.706-4.326        c-1.498-0.947-2.88-2.112-4.084-3.431c4.506-1.229,10.049-1.318,16.27-1.434c10.125-0.192,21.607-0.397,32.398-5.581        c1.088-0.525,2.099-0.999,3.059-1.447h0.012c4.148-1.933,7.297-3.046,11.649-3.046c1.229,0,2.547,0.089,4.019,0.269        c5.479,0.653,8.115,3.353,12.481,7.808c1.062,1.075,2.227,2.278,3.597,3.61C219.328,386.004,219.852,387.463,219.404,389.242z        "/>
						<path style="fill:#000E3F;" d="M370.541,383.52c-1.357,1.677-3.008,3.124-4.813,4.276c-4.634,2.944-10.215,4.083-15.694,4.326        c-5.492,0.243-10.97-0.346-16.461-0.615c-8.666-0.409-17.652,0.077-25.512,3.764c-2.713,1.28-5.235,2.905-7.808,4.454        c-2.356-0.525-3.623-1.626-5.517-6.067c-0.819-1.895-1.421-2.663-1.958-3.968c-1.165-3.187,0.602-3.981,4.557-8.218        c5.338-5.684,8.359-8.436,15.796-8.436c5.927,0,10.817,2.291,14.503,3.904C341.816,383.149,358.444,382.509,370.541,383.52z"/>
					</g>
				</g>
				<path style="fill:#000E3F;" d="M391.892,406.28c-6.182-1.907-12.378-2.381-16.077-2.714c5.453-1.485,10.663-3.84,11.866-7.335      c1.318-3.802,0.358-6.426-0.691-7.962c-3.866-5.671-14.861-6.132-24.577-6.541c-17.412-0.969-23.03-0.791-35.188-6.375      c-6.4-19.866-12.289-41.832-12.98-62.121c-0.064-1.856-0.051-3.418,1.024-3.482c3.597-0.243,4.467,0.589,19.931-2.407      c6.912-1.331,13.645-3.418,20.238-5.875c3.213-1.203,9.933-3.315,8.704-7.988c-0.64-2.445-1.216-4.903-1.971-7.309      c-11.008-35.483-20.993-72.413-37.647-91.485c-6.003-6.861-14.593-11.137-23.067-14.106      c-27.956-9.831-72.541-9.703-99.704,3.699c-5.287,2.611-10.369,5.939-14.273,10.407c-16.653,19.073-26.638,56.002-37.646,91.485      c-0.755,2.407-1.331,4.864-1.971,7.309c-1.229,4.672,5.492,6.784,8.704,7.988c6.592,2.458,13.325,4.544,20.238,5.875      c15.463,2.996,16.334,2.164,19.93,2.407c1.076,0.064,1.088,1.626,1.024,3.482c-0.704,20.353-6.63,42.05-13.069,61.891      c-0.704,0.346-1.459,0.691-2.24,1.075c-10.522,5.056-21.863,5.261-31.861,5.453c-8.026,0.141-14.951,0.269-20.199,2.804      c-3.52,1.715-5.786,4.314-6.349,7.335c-0.512,2.701,0.435,5.529,2.663,7.936c0.999,1.075,2.266,1.984,3.725,2.752      c-10.419,2.983-25.281,7.91-33.973,21.774c-12.685,20.251,2.816,50.767,73.463,39.925c28.366-4.352,57.987-13.005,82.397-23.079      c3.059-1.267,4.941,0.012,6.182,0.448c37.634,13.249,88.58,29.454,128.313,23.374c10.151-1.549,20.02-4.749,26.907-12.442      C428.822,435.606,412.181,412.54,391.892,406.28z M293.801,397.409c0.166,0.32-0.154,0.832-0.499,0.793      c-7.54-0.652-28.43-3.75-29.288-4.134c-1.907-0.845,1.818-1.715,2.547-1.946c3.392-1.062,12.327-3.635,17.319-4.864      C288.95,386.03,289.219,388.346,293.801,397.409z M336.03,381.447c2.919,1.626,20.878,2.599,24.219,2.752      c11.406,0.512,28.686,0.576,25.012,11.188c-1.398,4.038-8.904,5.483-12.414,6.306c-11.552,2.707-27.43,1.713-58.091-1.071      c-18.471-1.677-17.255-1.242-19.086-5.262c-3.736-8.128-2.854-7.443,4.122-14.605      C312.588,367.491,323.178,377.899,336.03,381.447z M231.373,178.046c5.581-0.832,11.444-1.703,17.063-1.703      c8.961,0.013,20.148-0.486,35.329,2.202c2.88,0.512,6.298,0.41,5.389,3.264c-6.81,21.428-25.46,30.798-39.758,26.919v0.039      c-11.738-2.765-22.017-12.852-26.548-26.958C222.156,179.646,222.976,179.287,231.373,178.046z M200.306,291.727      c-0.717-13.069-2.163-26.062-3.687-39.042c-0.64-5.44-2.752-3.251-2.752-2.393c0,2.534,1.895,9.805,3.277,32.705      c0.32,5.312,1.216,22.35,0.179,23.387c-2.829,2.829-32.769-4.404-41-7.719c-3.494-1.396-6.067-2.688-5.862-4.634      c0.333-3.123,10.714-35.893,11.636-38.76c6.733-21.018,17.396-54.774,36.148-66.204c6.042-3.687,14.977-7.04,19.521-8.09      c2.33-0.538,2.534,1.37,3.494,4.02c6.016,16.589,22.491,29.915,40.284,26.651c13.146-2.343,24.577-13.901,29.198-26.651      c0.96-2.65,1.165-4.557,3.494-4.02c4.544,1.05,13.479,4.404,19.521,8.09c18.753,11.431,29.416,45.186,36.149,66.204      c0.922,2.867,11.303,35.637,11.636,38.76c0.205,1.946-2.368,3.238-5.862,4.634c-8.231,3.315-38.171,10.547-41,7.719      c-1.037-1.037-0.141-18.074,0.179-23.387c1.383-22.9,3.277-30.171,3.277-32.705c0-0.858-2.112-3.047-2.752,2.393      c-1.523,12.98-3.072,25.973-3.687,39.042c-1.83,38.517,7.411,67.817,12.417,82.346c-5.057-1.964-9.643-2.852-15.079-1.997      c-6.725,1.052-10.908,7.003-15.297,11.265c-1.472,1.421-2.214,2.624-2.483,3.738c-1.832-1.827-3.424-3.225-6.464-2.586      c-6.887,1.434-17.268,4.634-24.001,6.861c-7.181,2.381-3.008,1.255-27.88-5.414c-4.813-1.293-7.757-3.034-11.495,0.371      c-0.166,0.154-0.41,0.448-0.691,0.729c-0.218-1.1-0.819-2.265-2.01-3.418c-1.344-1.306-2.522-2.522-3.571-3.584      c-4.404-4.493-7.309-7.475-13.236-8.192c-1.523-0.179-2.893-0.269-4.173-0.269c-3.751,0-6.605,0.768-9.856,2.125      C192.856,358.393,202.252,327.479,200.306,291.727z M128.584,397.985c-3.879-4.186-2.176-8.755,2.931-11.226      c10.996-5.325,32.667,1.063,52.073-8.256c1.165-0.563,2.214-1.076,3.213-1.523c3.981-1.844,6.874-2.842,10.932-2.842      c8.654,0,10.733,2.699,16.807,8.935c0.026,0.013,0.039,0.038,0.064,0.064c3.206,3.206,4.94,4.072,2.56,7.988      c-10.098,16.618-5.114,23.943-12.698,21.517c-11.687-3.712-40.501-6.874-52.777-8.128c-5.159-0.537-12.109-1.255-17.345-3.136      C131.951,400.532,129.916,399.432,128.584,397.985z M127.215,462.692c-43.061-5.299-39.285-41.666-6.797-54.275      c4.557-1.766,9.216-3.161,13.94-4.314c5.299,1.741,11.802,2.407,17.063,2.944c26.177,2.701,44.252,5.479,52.265,8.026      c1.165,0.371,2.164,0.55,3.047,0.55c0.41,0,0.781-0.038,1.127-0.115c0.921,0.333,1.446,0.73,1.664,1.6      c0.973,3.777,4.186,5.581,12.557,9.498c12.391,5.799,25.294,10.509,27.893,11.776c0.141,0.077,0.205,0.384,0.243,0.602      C250.407,439.92,176.484,468.734,127.215,462.692z M413.09,449.162c-15.105,21.134-65.462,14.362-90.487,8.82      c-35.214-7.821-68.803-20.443-101.918-34.767c-2.432-1.049-4.723-2.368-6.835-4.019c-6.427-5.025,4.032-24.568,8.781-31.157      c3.008-4.173,20.801,4.774,36.84,7.834c29.172,5.568,75.971,9.652,93.88,9.831c17.319,0.166,27.201-0.691,40.027,3.802      C410.363,415.483,423.625,434.416,413.09,449.162z"/>
			</g>
			<g>
				<g>
					<path style="fill:#000E3F;" d="M229.162,169.85c-6.143-2.113-8.763-7.521-6.642-13.483c0.794-2.235,0.656-2.175-1.341-3.213       c-6.021-3.129-7.685-10.9-4.703-16.735c3.632-7.107,13.299-7.315,18.423-1.57c5.268,5.908,7.789,12.988,8.171,20.858       C243.478,164.121,237.093,172.578,229.162,169.85z"/>
					<path style="fill:#000E3F;" d="M275.874,136.108c4.82-6.29,15.097-7.479,19.399-0.023c2.964,5.138,3.072,11.155-1.937,15.362       c-0.717,0.602-1.548,1.071-2.33,1.594c-0.709,0.475-1.892,0.491-2.141,1.272c-0.272,0.851,1.045,2.159,1.307,5.673       c0.648,8.687-12.724,15.595-19.059,4.823C266.197,156.45,270.05,143.71,275.874,136.108z"/>
				</g>
				<g>
					<g>
						<path style="fill:#FFBBEC;" d="M238.522,186.394c1.383-6.708,2.189-12.071,2.65-16.103c0.602-5.21,0.653-8.231,0.755-9.114        c0.026-0.166-0.192-17.14,9.191-23.271c9.255-6.055,18.958,6.132,18.971,23.246c0,2.688,0.269,5.901,0.691,9.217        c0.704,5.671,1.831,11.674,2.701,16.027"/>
						<path style="opacity:0.35;fill:#FC09B2;" d="M270.779,170.367c-3.635,5.133-8.909,8.372-14.785,8.372        c-5.901,0-11.188-3.264-14.823-8.449c0.602-5.21,0.653-8.231,0.755-9.114c0.026-0.166-0.192-17.14,9.191-23.271        c9.255-6.055,18.958,6.132,18.971,23.246C270.088,163.839,270.357,167.052,270.779,170.367z"/>
					</g>
					<path style="fill:#000E3F;" d="M238.523,187.674c-0.085,0-0.172-0.008-0.26-0.026c-0.693-0.143-1.138-0.82-0.995-1.512       c1.199-5.815,2.084-11.195,2.631-15.99c0.421-3.653,0.57-6.198,0.658-7.719c0.039-0.659,0.067-1.125,0.099-1.398       c0.054-4.22,0.936-18.428,9.762-24.195c3.297-2.159,6.944-2.355,10.275-0.556c6.377,3.444,10.667,13.44,10.676,24.872       c0,2.46,0.229,5.506,0.68,9.057c0.553,4.444,1.431,9.655,2.686,15.937c0.139,0.693-0.311,1.368-1.004,1.506       c-0.705,0.137-1.368-0.311-1.506-1.004c-1.267-6.343-2.156-11.616-2.716-16.119c-0.465-3.654-0.7-6.809-0.7-9.375       c-0.009-10.354-3.845-19.656-9.332-22.62c-2.537-1.369-5.113-1.219-7.658,0.446c-7.969,5.207-8.569,19.312-8.609,22.086       c-0.002,0.182-0.014,0.286-0.016,0.305c-0.022,0.201-0.046,0.618-0.08,1.208c-0.09,1.548-0.24,4.14-0.671,7.863       c-0.555,4.869-1.453,10.325-2.666,16.215C239.651,187.257,239.119,187.674,238.523,187.674z"/>
				</g>
				<g>
					<g>
						<g>
							<g>
								<path style="fill:#FFBBEC;" d="M285.633,127.625c0,4.943-1.187,10.398,3.432,10.398c13.711,0,15.73-19.347,4.931-19.347          C289.378,118.676,285.633,122.682,285.633,127.625z"/>
								<path style="fill:#FFBBEC;" d="M226.368,127.625c0,4.943,1.187,10.398-3.432,10.398c-13.711,0-15.73-19.347-4.931-19.347          C222.624,118.676,226.368,122.682,226.368,127.625z"/>
							</g>
							<g style="opacity:0.35;">
								<path style="fill:#FC09B2;" d="M294.242,130.376c-2.406,1.526-3.183,0.479-2.697-0.24c0.804-1.188,1.844-2.05,3.434-4.17          c0.804-1.089,1.212-2.237,1.923-1.742C297.829,124.87,297.242,128.443,294.242,130.376z"/>
								<path style="fill:#FC09B2;" d="M217.022,125.967c1.135,1.511,1.744,2.09,2.203,2.65c0.987,1.118,1.317,1.646,1.23,1.518          c0.345,0.506-0.097,1.176-0.699,1.061c-2.968-0.579-5.587-3.875-4.895-6.625c0.126-0.502,0.781-0.611,1.071-0.197          C215.932,124.373,216.693,125.52,217.022,125.967z"/>
							</g>
						</g>
						<g>
							<path style="fill:#000E3F;" d="M289.065,139.303c-1.419,0-2.551-0.429-3.364-1.276c-1.668-1.737-1.545-4.719-1.416-7.877         c0.034-0.837,0.069-1.689,0.069-2.526c0-5.64,4.325-10.229,9.643-10.229c2.565,0,4.703,0.954,6.184,2.761         c1.294,1.578,2.006,3.765,2.006,6.156C302.186,132.697,297.279,139.303,289.065,139.303z M293.996,119.955         c-3.905,0-7.083,3.44-7.083,7.669c0,0.871-0.036,1.759-0.071,2.63c-0.101,2.483-0.206,5.05,0.706,5.999         c0.115,0.121,0.469,0.489,1.516,0.489c6.86,0,10.562-5.374,10.562-10.431c0-1.801-0.506-3.411-1.426-4.533         C297.209,120.569,295.794,119.955,293.996,119.955z"/>
							<path style="fill:#000E3F;" d="M222.937,139.303c-8.214,0-13.122-6.605-13.122-12.991c0-2.391,0.713-4.577,2.006-6.156         c1.481-1.806,3.619-2.761,6.184-2.761c5.318,0,9.643,4.589,9.643,10.229c0,0.837,0.035,1.689,0.069,2.526         c0.129,3.158,0.251,6.14-1.416,7.877C225.488,138.873,224.355,139.303,222.937,139.303z M218.005,119.955         c-1.797,0-3.212,0.614-4.204,1.823c-0.92,1.122-1.426,2.732-1.426,4.533c0,5.056,3.701,10.431,10.562,10.431         c1.048,0,1.401-0.368,1.516-0.489c0.913-0.949,0.807-3.516,0.706-5.999c-0.035-0.871-0.071-1.759-0.071-2.63         C225.088,123.396,221.91,119.955,218.005,119.955z"/>
						</g>
					</g>
					<g>
						<g>
							<path style="fill:#FFBBEC;" d="M284.024,151.505c-4.368,7.104-14.694,17.268-27.896,17.422h-0.255         c-13.201-0.154-23.527-10.317-27.895-17.422c-7.997-13.005-6.188-38.824-0.304-51.189         c5.691-11.956,15.956-18.292,28.199-18.561c0.049-0.013,0.085-0.013,0.134-0.013c0.036,0,0.085,0,0.121,0.013         c12.243,0.269,22.508,6.605,28.199,18.561C290.212,112.681,292.019,138.5,284.024,151.505z"/>
							<g style="opacity:0.35;">
								<path style="fill:#FC09B2;" d="M275.344,130.785c-4.478,0-8.122,2.979-8.122,6.64s3.644,6.64,8.122,6.64          c4.479,0,8.123-2.979,8.123-6.64S279.823,130.785,275.344,130.785z"/>
								<path style="fill:#FC09B2;" d="M236.766,130.785c-4.479,0-8.123,2.979-8.123,6.64s3.644,6.64,8.123,6.64          c4.478,0,8.122-2.979,8.122-6.64S241.244,130.785,236.766,130.785z"/>
							</g>
							<path style="fill:#FFFFFF;" d="M247.811,139.655c-0.71,0-1.236,0.662-1.085,1.357c1.214,5.585,4.952,9.537,9.219,9.57         c4.307,0.033,8.103-3.933,9.328-9.569c0.151-0.695-0.374-1.358-1.085-1.358H247.811z"/>
						</g>
						<g>
							<path style="fill:#000E3F;" d="M285.483,99.766c-5.777-12.137-16.173-18.986-29.279-19.29         c-0.151-0.018-0.236-0.028-0.456,0.001c-13.083,0.319-23.46,7.167-29.23,19.288c-5.667,11.907-8.34,38.244,0.37,52.411         c4.069,6.619,14.751,17.865,28.985,18.031h0.27c14.219-0.165,24.901-11.412,28.97-18.031         C293.823,138.01,291.15,111.673,285.483,99.766z M282.933,150.835c-3.795,6.173-13.714,16.66-26.805,16.812h-0.24         c-13.106-0.153-23.025-10.639-26.82-16.812c-7.5-12.198-6.263-37.311-0.238-49.969c5.345-11.232,14.96-17.565,27.07-17.831         c0.034,0,0.067-0.002,0.1-0.005c0.032,0.003,0.066,0.005,0.1,0.005c12.111,0.266,21.725,6.599,27.07,17.831         C289.196,113.524,290.433,138.637,282.933,150.835z"/>
							<path style="fill:#000E3F;" d="M265.514,110.67c-0.016,4.955,12.169,7.804,13.46,2.649         C280.495,107.246,265.535,104.21,265.514,110.67z"/>
							<path style="fill:#000E3F;" d="M246.487,110.67c-0.021-6.46-14.98-3.424-13.46,2.649         C234.318,118.474,246.503,115.625,246.487,110.67z"/>
							<path style="fill:#000E3F;" d="M275.929,119.231c-0.708,0-1.28,0.573-1.28,1.28c0,2.898-1.776,4.351-3.426,4.474         c-1.544,0.122-3.529-0.9-4.015-4.138c-0.106-0.698-0.751-1.183-1.456-1.076c-0.699,0.105-1.181,0.757-1.076,1.456         c0.665,4.42,3.571,6.328,6.303,6.328c0.145,0,0.291-0.005,0.435-0.016c2.88-0.216,5.797-2.698,5.797-7.027         C277.209,119.804,276.637,119.231,275.929,119.231z"/>
							<path style="fill:#000E3F;" d="M246.25,119.771c-0.699-0.107-1.35,0.377-1.456,1.076c-0.488,3.238-2.458,4.25-4.015,4.138         c-1.65-0.123-3.426-1.576-3.426-4.474c0-0.707-0.573-1.28-1.28-1.28c-0.708,0-1.28,0.573-1.28,1.28         c0,4.329,2.916,6.811,5.797,7.027c0.144,0.011,0.29,0.016,0.435,0.016c2.731,0,5.638-1.908,6.303-6.328         C247.432,120.528,246.949,119.876,246.25,119.771z"/>
							<path style="fill:#000E3F;" d="M256.999,134.571c-1.298,0-4.119-0.649-4.843-1.697c-0.125-0.2-0.199-0.425-0.025-0.874         c0.025-0.05,3.32-7.862,4.593-10.907c0.53-1.591-1.847-2.491-2.371-0.924c-1.273,2.995-4.518,10.708-4.568,10.808         c-0.624,1.472-0.2,2.621,0.25,3.295c1.572,2.371,5.891,2.87,6.964,2.87c0.699,0,1.273-0.574,1.273-1.273         C258.272,135.145,257.697,134.571,256.999,134.571z"/>
						</g>
					</g>
					<g>
						<g>
							<path style="fill:#000E3F;" d="M237.271,85.687c0.813-1.875,2.335-3.176,4.966-4.09c9.247-3.211,21.593-1.274,28.814,5.647         c3.825,3.667,7.061,11.559,1.754,15.531c-3.802,2.846-8.84,1.884-11.637-0.615c-3.177-2.839-1.664-3.012-4.936,0.402         c-4.128,4.308-10.999,3.645-15.129-0.287c-3.17-3.019-4.678-7.501-4.636-11.818         C236.485,88.552,236.709,86.982,237.271,85.687z"/>
							<path style="fill:#FFCF00;" d="M219.573,117.986c-0.41,0-0.809-0.09-1.19-0.268c-0.06-0.023-0.118-0.051-0.174-0.082         c-1.101-0.632-1.964-2.006-2.564-4.084c-0.078-0.246-0.151-0.535-0.224-0.853c-0.123-0.516-0.234-1.127-0.339-1.854         c-0.109-0.773-0.18-1.466-0.215-2.121c-0.25-3.762-0.171-13.882,5.936-26.548c6.638-13.729,20.446-22.6,35.177-22.6         c4.504,0,8.959,0.829,13.244,2.465c9.493,3.593,17.493,10.932,21.945,20.134c3.664,7.579,5.79,15.797,5.99,23.142         c0.065,2.404-0.075,4.556-0.416,6.445c-0.125,0.652-0.263,1.252-0.411,1.782c-1.064,3.608-2.716,4.362-3.918,4.362         c-1.063,0-2.058-0.6-2.957-1.784c-1.538-2.028-2.764-4.224-3.949-6.347c-1.52-2.725-2.957-5.298-5.007-7.573         c-1.873-2.087-4.073-3.892-6.54-5.364c-5.033-3.013-11.044-4.604-17.383-4.604c-11.492,0-21.923,5.055-27.906,13.524         c-1.905,2.69-3.191,5.113-4.225,7.061c-1.091,2.054-1.879,3.54-2.884,4.382c-0.46,0.378-0.939,0.621-1.432,0.73         C219.916,117.97,219.743,117.986,219.573,117.986z"/>
							<path style="fill:#FD8A02;" d="M295.484,111.534c-0.115,0.602-0.243,1.165-0.384,1.664c-1.011,3.431-2.803,4.544-4.621,2.15         c-3.38-4.454-5.197-9.754-9.024-14.004c-0.397-0.435-0.806-0.857-1.216-1.267c-0.423-0.41-0.845-0.806-1.28-1.19         c-0.435-0.384-0.884-0.755-1.344-1.101c-0.448-0.345-0.896-0.678-1.357-0.998c-0.038-0.025-0.064-0.051-0.102-0.064         c-0.397-0.281-0.806-0.537-1.216-0.781c-0.102-0.077-0.217-0.141-0.32-0.205c-14.823-8.871-36.763-5.197-46.991,9.28         c-3.853,5.44-5.235,9.818-6.887,11.2c-0.295,0.243-0.589,0.397-0.883,0.461c-0.346,0.077-0.678,0.026-0.998-0.154h-0.013         c-0.794-0.423-1.485-1.587-1.971-3.328c-0.077-0.243-0.141-0.499-0.205-0.781c-0.128-0.538-0.23-1.126-0.32-1.754         c-0.089-0.627-0.154-1.293-0.205-2.01v-0.013c-0.064-1.024-0.077-2.125-0.051-3.29c3.917-8.858,9.895-15.476,16.897-19.879         c7.002-4.416,15.015-6.618,22.99-6.656c0,0,0,0,0.012,0c7.501,0.038,15.015,1.984,21.697,5.862         c7.552,4.391,14.029,11.265,18.189,20.673v0.051C295.945,107.758,295.791,109.832,295.484,111.534z"/>
							<g>
								<path style="fill:#FFCF00;" d="M255.357,88.644c-1.434-0.642-1.202-8.849,0.687-7.99          C257.384,81.264,257.352,89.533,255.357,88.644z"/>
								<path style="fill:#FFCF00;" d="M246.614,89.794c-1.542-0.302-3.169-8.349-1.135-7.939          C246.923,82.147,248.759,90.21,246.614,89.794z"/>
								<path style="fill:#FFCF00;" d="M237.697,93.582c-1.566-0.122-4.113-7.927-2.045-7.754          C237.119,85.951,239.875,93.748,237.697,93.582z"/>
								<path style="fill:#FFCF00;" d="M229.498,99.817c-1.571,0.002-4.725-7.577-2.65-7.569          C228.321,92.255,231.683,99.81,229.498,99.817z"/>
								<path style="fill:#FFCF00;" d="M223.106,108.023c-1.571,0.002-4.725-7.577-2.651-7.569          C221.929,100.461,225.291,108.016,223.106,108.023z"/>
								<path style="fill:#FFCF00;" d="M264.738,89.794c1.542-0.302,3.169-8.349,1.135-7.939          C264.43,82.147,262.594,90.21,264.738,89.794z"/>
								<path style="fill:#FFCF00;" d="M273.656,93.582c1.566-0.122,4.113-7.927,2.045-7.754          C274.233,85.951,271.477,93.748,273.656,93.582z"/>
								<path style="fill:#FFCF00;" d="M281.854,99.817c1.571,0.002,4.725-7.577,2.65-7.569          C283.032,92.255,279.67,99.81,281.854,99.817z"/>
								<path style="fill:#FFCF00;" d="M288.246,108.023c1.571,0.002,4.725-7.577,2.651-7.569          C289.424,100.461,286.061,108.016,288.246,108.023z"/>
							</g>
							<path style="opacity:0.5;fill:#FD8A02;" d="M295.881,105.351c-4.16-9.409-10.637-16.283-18.189-20.673         c0.307-7.936-3.418-15.348-8.922-21.441c9.063,3.431,16.846,10.394,21.249,19.495         C294.102,91.181,295.714,99.22,295.881,105.351z"/>
							<path style="opacity:0.18;fill:#000E3F;" d="M295.484,111.534c-0.115,0.602-0.243,1.165-0.384,1.664         c-1.011,3.431-2.803,4.544-4.621,2.15c-3.38-4.454-5.197-9.754-9.024-14.004c-0.397-0.435-0.794-0.857-1.216-1.267         c-0.41-0.41-0.845-0.819-1.28-1.19c-0.435-0.384-0.884-0.755-1.344-1.101c-0.448-0.345-0.896-0.678-1.357-0.998         c-0.038-0.025-0.064-0.051-0.102-0.064c-0.397-0.281-0.806-0.537-1.216-0.781c-0.102-0.077-0.217-0.141-0.32-0.205         c1.997-3.738,2.957-7.45,3.072-11.06c7.552,4.391,14.029,11.265,18.189,20.673v0.051         C295.945,107.758,295.791,109.832,295.484,111.534z"/>
							<path style="opacity:0.75;fill:#FFFFFF;" d="M226.745,83.265c4.527-10.228,17.612-19.442,34.675-15.637         c1.24,0.276,1.129,2.093-0.139,2.212c-3.158,0.298-9.64-0.277-18.164,3.444c-8.583,3.613-14.733,11.225-14.605,11.102         c-0.383,0.442-1.051,0.49-1.493,0.108C226.66,84.182,226.562,83.679,226.745,83.265z"/>
						</g>
						<path style="fill:#000E3F;" d="M255.982,60.856c4.404,0,8.73,0.832,12.787,2.381c9.063,3.431,16.846,10.394,21.249,19.495        c4.083,8.448,5.696,16.487,5.863,22.619v0.051c0.064,2.355-0.09,4.429-0.397,6.131c-0.115,0.602-0.243,1.165-0.384,1.664        c-0.643,2.183-1.603,3.428-2.684,3.428c-0.618,0-1.276-0.407-1.937-1.277c-3.379-4.455-5.197-9.754-9.024-14.004        c-2.01-2.24-4.326-4.109-6.836-5.606c-5.376-3.217-11.689-4.785-18.039-4.785c-11.159,0-22.433,4.838-28.952,14.065        c-3.853,5.44-5.236,9.818-6.887,11.2c-0.295,0.243-0.589,0.397-0.884,0.461c-0.096,0.018-0.191,0.027-0.285,0.027        c-0.244,0-0.482-0.06-0.713-0.18h-0.013c-0.781-0.448-1.472-1.6-1.971-3.328c-0.077-0.243-0.141-0.499-0.205-0.781        c-0.128-0.538-0.23-1.126-0.32-1.754c-0.089-0.627-0.166-1.306-0.205-2.01v-0.013c-0.422-6.362,0.947-15.821,5.812-25.908        C228.332,69.548,241.799,60.856,255.982,60.856 M255.982,58.296c-15.219,0-29.479,9.154-36.329,23.322        c-6.214,12.885-6.317,23.235-6.065,27.14c0.001,0.012,0.001,0.024,0.002,0.035c0.038,0.7,0.112,1.43,0.226,2.231        c0.11,0.767,0.229,1.416,0.364,1.985c0.072,0.32,0.152,0.631,0.245,0.928c0.695,2.392,1.754,4.009,3.147,4.809        c0.106,0.061,0.216,0.114,0.328,0.158c0.534,0.24,1.095,0.361,1.673,0.361c0.249,0,0.502-0.023,0.751-0.069        c0.026-0.005,0.052-0.01,0.078-0.016c0.695-0.151,1.358-0.483,1.968-0.987c1.213-1.015,2.05-2.594,3.21-4.779        c1.016-1.914,2.281-4.296,4.136-6.917c5.66-8.011,15.952-12.985,26.863-12.985c6.108,0,11.892,1.529,16.724,4.421        c2.361,1.409,4.46,3.13,6.245,5.119c1.957,2.173,3.358,4.684,4.843,7.343c1.207,2.163,2.455,4.399,4.048,6.499        c1.437,1.893,2.956,2.29,3.976,2.29c1.34,0,3.79-0.684,5.14-5.264c0.164-0.578,0.31-1.21,0.443-1.907        c0.36-1.991,0.507-4.22,0.442-6.651c0-0.03,0-0.067-0.001-0.082c-0.204-7.521-2.377-15.925-6.117-23.663        c-4.594-9.494-12.849-17.066-22.648-20.776C265.251,59.154,260.641,58.296,255.982,58.296L255.982,58.296z"/>
					</g>
				</g>
			</g>
		</g>
		<g>
			<g>
				<g>
					<path style="fill:#FFFFFF;" d="M145.91,370.801c-0.149,0-0.3-0.026-0.445-0.081c-15.134-5.703-20.664-18.343-19.396-27.675       c0.979-7.204,5.842-12.065,12.693-12.686c0.81-0.073,1.597-0.083,2.192-0.083l1.812,0.012c1.963,0,3.87-0.104,5.62-1.344       c3.231-2.294,3.385-7.398,1.667-11.007c-1.069-2.241-2.821-4.108-4.676-6.083c-1.959-2.087-3.985-4.245-5.288-6.983       c-3.52-7.394-3.424-14.985,0.264-20.824c2.887-4.574,7.523-7.304,12.399-7.304c3.309,0,6.454,1.276,9.097,3.692       c1.577,1.439,2.742,3.178,3.87,4.858c1.684,2.514,3.276,4.887,6.047,5.949c1.103,0.421,2.173,0.635,3.182,0.635       c1.863,0,3.345-0.728,4.172-2.049c1.11-1.772,0.926-4.48-0.505-7.429c-0.396-0.817-0.834-1.597-1.264-2.367       c-1.579-2.826-3.213-5.746-2.483-9.676c1.046-5.635,5.917-9.571,11.846-9.571c2.444,0,4.92,0.697,7.16,2.014       c6.794,3.987,10.113,12.383,8.659,21.913c-1.466,9.605-8.389,22.027-23.075,25.428c-0.578,0.134-1.236,0.256-1.943,0.387       c-3.621,0.671-8.128,1.506-9.514,5.3c-0.717,1.962,0.396,4.249,1.575,6.67c0.625,1.285,1.272,2.613,1.621,3.91       c1.31,4.842,0.708,9.667-1.742,13.951c-4.128,7.213-10.069,7.292-14.843,7.355c-4.779,0.064-8.553,0.114-10.596,6.188       c-1.71,5.022,0.167,11.28,2.903,14.868c0.342,0.449,0.346,1.07,0.009,1.522C146.682,370.62,146.302,370.801,145.91,370.801z"/>
					<g style="opacity:0.18;">
						<path style="fill:#000E3F;" d="M179.169,308.907c-3.606,0.836-10.424,1.187-12.36,6.485        c-1.349,3.693,2.206,7.784,3.163,11.344c1.204,4.449,0.68,8.975-1.618,12.994c-7.605,13.29-20.924,0.041-25.539,13.769        c-0.989-3.005-0.415-6.588,1.836-8.81c4.199-4.155,12.316-2.522,15.752-7.322c4.615-6.444-3.196-13.803-3.179-20.789        c0.011-4.798,3.425-9.015,7.484-11.574c9.81-6.183,30.72-6.145,27.339-27.691c-0.75-4.754-2.381-9.638,1.184-13.423        C208.572,272.889,202.211,303.571,179.169,308.907z"/>
						<path style="fill:#000E3F;" d="M148.898,303.659c-6.799-4.085-7.996-17.418,5.861-20.833c1.108-0.273,1.81,1.166,0.911,1.871        c-1.508,1.182-3.244,2.364-4.537,3.603c-6.846,6.632-0.182,15.279-0.892,13.95c0.307,0.458,0.184,1.078-0.274,1.384        C149.636,303.855,149.219,303.851,148.898,303.659z"/>
						<path style="fill:#000E3F;" d="M132.321,343.907c0.889-2.134,0.596-1.45,1.537-2.885c0.752-1.264,2.883-3.202,6.389-4.166        c0.561-0.154,1.14,0.175,1.294,0.736c0.108,0.391-0.02,0.791-0.298,1.05l-0.105,0.097c-1.304,1.208-2.587,2.222-3.417,3.508        c-4.618,6.556,0.523,14.538-1.82,15.038C134.428,357.599,130.197,350.318,132.321,343.907z"/>
						<path style="fill:#000E3F;" d="M180.578,274.9c-1.149-7.127,7.459-10.89,7.941-8.3c0.055,0.295-0.015,0.584-0.172,0.812        l-0.107,0.155c-0.805,1.164-2.064,2.025-3.317,4.702c-1.638,3.618-0.003,6.781-1.955,6.686        C181.746,278.897,180.768,276.127,180.578,274.9z"/>
					</g>
				</g>
				<path style="fill:#000E3F;" d="M186.712,262.049c2.13,0,4.371,0.577,6.518,1.84c15.342,8.999,8.982,39.682-14.06,45.018      c-3.606,0.836-10.424,1.187-12.36,6.485c-1.349,3.692,2.206,7.784,3.163,11.344c1.204,4.449,0.68,8.975-1.618,12.994      c-7.605,13.29-20.924,0.041-25.539,13.769c-1.8,5.285-0.045,11.919,3.097,16.038c-23.705-8.932-23.651-36.412-7.036-37.917      c0.694-0.062,1.387-0.077,2.075-0.077c0.609,0,1.215,0.011,1.816,0.011c2.199,0,4.341-0.153,6.35-1.578      c3.769-2.675,4.063-8.41,2.077-12.581c-2.332-4.89-7.553-7.998-9.963-13.067c-6.9-14.494,1.999-26.319,11.52-26.319      c2.825,0,5.704,1.04,8.243,3.36c3.811,3.478,5.209,9.098,10.319,11.053c1.277,0.488,2.506,0.719,3.635,0.719      c5.016,0,8.076-4.55,4.805-11.296c-1.823-3.755-4.474-6.777-3.642-11.26C177.071,265.414,181.567,262.05,186.712,262.049       M186.712,259.519L186.712,259.519c-6.548,0-11.931,4.361-13.089,10.605c-0.813,4.38,1.013,7.644,2.623,10.524      c0.44,0.787,0.855,1.529,1.231,2.303c1.236,2.549,1.444,4.811,0.571,6.205c-0.588,0.938-1.688,1.455-3.099,1.455      c-0.854,0-1.773-0.186-2.732-0.552c-2.395-0.917-3.81-3.027-5.448-5.47c-1.169-1.743-2.378-3.546-4.068-5.089      c-2.878-2.63-6.319-4.021-9.948-4.021c-5.313,0-10.348,2.951-13.469,7.893c-3.924,6.214-4.046,14.249-0.335,22.044      c1.386,2.916,3.481,5.147,5.507,7.305c1.786,1.902,3.473,3.699,4.457,5.764c1.46,3.067,1.395,7.546-1.258,9.429      c-1.316,0.934-2.733,1.111-4.886,1.111c-0.292,0-0.585-0.003-0.879-0.006c-0.311-0.003-0.624-0.006-0.937-0.006      c-0.62,0-1.443,0.01-2.302,0.088c-7.47,0.676-12.77,5.955-13.833,13.776c-1.333,9.812,4.421,23.081,20.203,29.028      c0.292,0.11,0.593,0.163,0.892,0.163c0.783,0,1.543-0.364,2.031-1.02c0.674-0.906,0.666-2.148-0.018-3.045      c-2.533-3.322-4.279-9.09-2.713-13.688c1.76-5.234,4.642-5.272,9.417-5.336c5.096-0.068,11.437-0.152,15.924-7.992      c2.62-4.581,3.265-9.737,1.865-14.912c-0.379-1.411-1.053-2.794-1.704-4.131c-1.012-2.077-2.057-4.225-1.525-5.683      c1.053-2.881,4.498-3.738,8.555-4.489c0.711-0.132,1.383-0.256,2-0.399c15.302-3.544,22.514-16.474,24.04-26.469      c1.535-10.053-2.018-18.941-9.271-23.196C192.079,260.276,189.381,259.519,186.712,259.519L186.712,259.519z"/>
			</g>
			<g>
				<g>
					<g>
						<path style="fill:#915EFD;" d="M147.77,492.503c-5.684,0-11.507-0.688-16.838-1.99c-17.703-4.327-26.931-15.654-27.427-33.67        c-0.458-16.618,10.988-37.418,18.324-48.976c-7.012-5.299-11.225-13.559-11.903-23.402c-0.058-0.741,0.097-1.882,1.166-3.038        c4.466-4.826,22.145-6.546,37.2-6.546c3.989,0,38.971,0.26,38.971,9.25c0,0.066-0.005,0.131-0.015,0.195l-0.014,0.21        c-0.324,5.162-2.387,17.692-14.381,25.005c6.956,11.229,17.717,31.289,17.275,47.302c-0.455,16.527-8.272,27.525-23.234,32.69        c-5.7,1.971-12.134,2.97-19.122,2.97C147.77,492.503,147.77,492.503,147.77,492.503z"/>
						<path style="opacity:0.5;fill:#FFFFFF;" d="M115.805,438.683c-1.114,2.224-2.205,4.469-3.402,6.715        c-0.576,1.091-2.098,0.531-1.907-0.715c1.509-9.468,7.646-20.897,14.457-27.032c0.418-0.377,1.029-0.318,1.365,0.13        C127.219,418.988,125.668,419.254,115.805,438.683z"/>
						<g>
							<path style="fill:#4217A6;" d="M187.245,384.152c0,1.048-0.524,2.047-1.572,2.945h-0.025         c-2.321,2.022-7.139,3.619-14.427,4.792c-0.324,0.05-0.649,0.1-0.998,0.15c-6.29,0.973-13.653,1.498-21.416,1.498         c-13.029,0-37.915-1.897-38.863-8.986c-0.025-0.1-0.05-0.399-0.05-0.424c0-7.438,25.485-9.41,38.938-9.41         c8.312,0,16.224,0.599,22.889,1.722C182.028,378.186,187.27,380.782,187.245,384.152z"/>
							<path style="fill:#4217A6;" d="M147.032,484.34c-4.351,0-8.751-0.534-12.727-1.542c-7.677-1.935-13.89-7.028-17.047-13.974         c-2.452-5.4-2.933-11.443-1.389-17.473c3.427-13.445,16.497-22.836,31.784-22.836c2.234,0,4.469,0.206,6.642,0.615         c8.68,1.634,16.521,7.588,20.976,15.925c4.163,7.792,4.724,16.548,1.537,24.021l-0.185,0.43         C172.451,478.806,161.395,484.34,147.032,484.34z"/>
						</g>
						<g style="opacity:0.25;">
							<path style="fill:#000E3F;" d="M188.867,456.811c-0.399,14.777-6.739,26.084-22.589,31.625         c16.549-9.959,19.394-32.274,11.806-49.072c-9.385-20.767-24.262-23.388-38.589-25.559c-0.15-0.025-0.1-0.15,0.05-0.25         c-0.15,0.1-0.474,0-0.599-0.075c2.296-1.498,6.165-1.822,8.811-2.845c3.12-1.173,6.165-2.621,9.036-4.343         c5.466-3.295,10.458-7.763,13.179-13.653c0.075-0.15,0.15-0.349,0.25-0.599c0.349-0.05,0.674-0.1,0.998-0.15         c7.288-1.173,12.106-2.771,14.427-4.792c-1.398,9.635-5.791,17.073-14.602,21.965         C177.934,419.97,189.316,440.587,188.867,456.811z"/>
							<path style="fill:#000E3F;" d="M175.644,468.579c-0.063,0.152-0.127,0.291-0.19,0.443         c-6.237,13.904-26.833,16.105-40.838,12.55c-7.629-1.923-13.309-6.895-16.206-13.271         C134.148,458.28,160.096,458.369,175.644,468.579z"/>
						</g>
						<path style="fill:#915EFD;" d="M118.512,384.135c9.633-3.206,19.855-4.655,30.044-4.695        c10.189,0.018,20.417,1.447,30.058,4.64c0.501,0.166,0.772,0.706,0.606,1.207c-0.151,0.454-0.61,0.719-1.068,0.641        c-9.847-1.671-19.701-2.705-29.597-2.693c-9.896-0.036-19.756,0.979-29.611,2.638c-0.489,0.083-0.952-0.246-1.035-0.735        C117.835,384.695,118.099,384.273,118.512,384.135z"/>
						<path style="fill:#4217A6;" d="M169.567,410.201c-6.687,3.733-14.466,5.631-22.238,5.59c-3.887-0.047-7.781-0.555-11.52-1.625        c-3.744-1.041-7.323-2.661-10.528-4.796c-0.44-0.293-0.559-0.887-0.266-1.326c0.256-0.385,0.743-0.524,1.156-0.356        l0.009,0.004c6.821,2.771,13.959,4.253,21.184,4.306c7.23,0.103,14.416-1.239,21.492-3.439        c0.473-0.151,0.979,0.111,1.13,0.584C170.117,409.555,169.929,409.995,169.567,410.201z"/>
					</g>
					<g>
						<path style="fill:#000E3F;" d="M174.582,409.938c9.419-6.27,12.506-14.835,13.924-25.476        c0.723-5.475-8.437-7.771-13.842-8.792c-14.443-2.727-66.548-4.952-65.991,8.995c0,0.003,0.002,0.006,0.002,0.009        c0.694,9.717,4.739,17.966,11.474,23.481c-35.246,56.278-14.04,85.613,27.619,85.613c24.55,0,42.921-11.446,43.622-36.891        C191.829,441.037,181.614,421.463,174.582,409.938z M148.29,376.146c51.03,0,48.969,16.117,0.511,16.117        C99.098,392.262,98.385,376.146,148.29,376.146z M131.232,489.283c-17.902-4.375-25.999-15.632-26.463-32.475        c-0.47-17.021,12.066-38.853,18.769-49.267c-6.432-4.445-10.248-11.133-11.719-18.631c7.597,4.952,27.91,5.882,36.983,5.882        c9.199,0,29.004-0.982,36.614-6.001c-1.076,5.553-4.298,14.769-14.328,20.312c6.873,10.919,18.223,31.494,17.776,47.706        C188.015,487.553,158.368,495.913,131.232,489.283z"/>
						<path style="fill:#000E3F;" d="M147.655,427.249h-0.002c-41.17,0.002-48.941,58.356-0.621,58.356        c25.208,0,30.489-15.345,30.757-15.609l0.08-0.186l0.11-0.256C185.624,451.624,171.849,427.249,147.655,427.249z         M147.032,483.075c-48.087,0-35.235-60.637,7.029-52.703C182.628,435.754,190.687,483.075,147.032,483.075z"/>
					</g>
				</g>
				<g>
					<g>
						<path style="fill:#FFFFFF;" d="M160.546,457.76l-0.094-0.908l-0.032-0.53c0.086-0.24,0.042-0.493-0.194-0.764        c-2.506-2.968-22.843-3.032-26.735-0.359c-0.28,0.187-0.51,0.433-0.581,0.694c-0.028,0.018-0.071,0.033-0.097,0.051        c-0.047,0.483-0.094,1.014-0.165,1.628c-0.307,3.268-0.826,8.529-1.651,16.963h0.023c0,4.506,31.32,4.447,31.32,0h0.023        L160.546,457.76z"/>
						<path style="opacity:0.18;fill:#000E3F;" d="M162.321,475.454c0,3.602-31.32,3.648-31.343,0c0,0,0.118-1.646,0.118-1.647        c0.23-1.39,9.238-1.509,10.381-1.729c6.083-1.17,10.69-4.475,15.162-8.568c0.285-0.261,3.77-2.576,3.795-2.387        C160.434,461.122,162.345,475.454,162.321,475.454z"/>
						<path style="fill:#FFCF00;" d="M146.79,451.232c-1.873,0-3.567-0.81-4.647-2.224c-0.699-0.909-1.101-2.008-1.192-3.26        c-0.369-4.928,2.929-9.151,4.364-10.737c0.397-0.422,0.929-0.655,1.477-0.655c0.556,0,1.091,0.237,1.468,0.652        c1.438,1.579,4.747,5.788,4.375,10.743c-0.091,1.249-0.509,2.383-1.211,3.279C150.345,450.427,148.654,451.232,146.79,451.232        z"/>
						<path style="fill:#FD8A02;" d="M150.428,448.25c-1.774,2.295-5.525,2.285-7.28-0.009c0.521-3.404,2.353-6.172,3.202-7.309        c0.241-0.328,0.636-0.328,0.877,0C148.085,442.069,149.918,444.836,150.428,448.25z"/>
					</g>
					<path style="fill:#000E3F;" d="M161.433,455.178L161.433,455.178c-1.41-2.585-9.294-3.026-12.229-3.127       c7.268-2.519,5.24-12.132-0.01-17.896c-0.615-0.676-1.491-1.065-2.402-1.065c-0.896,0-1.764,0.378-2.383,1.037       c-5.287,5.846-7.272,15.426-0.027,17.927c-2.764,0.095-11.238,0.538-12.474,3.01h-0.025c-0.441,0.496-0.161-0.487-1.722,14.926       l-0.424,4.418c-0.025,0.15,0,0.3,0.05,0.449c0.275,2.122,3.445,2.97,5.866,3.445c2.895,0.549,6.789,0.849,10.958,0.849       c6.14,0,16.324-0.549,16.973-4.243c0.05-0.175,0.05-0.349,0.05-0.499C161.329,454.028,161.778,455.679,161.433,455.178z        M134.553,456.038c1.899-0.994,6.297-1.445,10.874-1.485c0.062,0.262-0.389,2.378,1.265,2.378c1.671,0,1.198-2.078,1.265-2.357       c4.796,0.114,9.322,0.655,10.882,1.488C154.74,457.821,139.414,458.122,134.553,456.038z M146.253,435.859       c0.15-0.159,0.345-0.239,0.539-0.239c0.194,0,0.387,0.08,0.532,0.239c3.25,3.568,5.499,9.332,3.105,12.391       c-0.631,0.817-1.518,1.328-2.471,1.562c-0.166-1.112,0.649-3.791-1.265-3.791c-1.885,0-1.104,2.665-1.265,3.727       C139.926,448.146,142.101,440.451,146.253,435.859z M146.06,476.63c-8.561-0.05-13.304-1.348-13.778-2.097v-0.125l0.399-4.168       c0.549-5.391,0.899-9.16,1.148-11.781c5.121,2.201,20.458,1.927,25.534,0.1l1.722,15.875       C160.387,475.407,154.846,476.655,146.06,476.63z"/>
				</g>
			</g>
		</g>
	</g>
	<g>
		<g>
			<path style="fill:#FD8A02;" d="M153.793,140.671c3.164-0.851,5.25-4.052,4.645-7.145c-0.297-1.564-1.26-2.856-2.483-3.745     c-1.158-0.896-2.689-1.371-4.31-1.152s-3.022,1.108-3.971,2.42c-0.884,1.297-1.2,2.999-0.868,4.755     C147.494,139.344,150.629,141.522,153.793,140.671z"/>
			<path style="fill:#FD8A02;" d="M163.908,152.79c-0.58-1.475-1.809-2.53-3.129-3.17c-1.309-0.639-2.903-0.792-4.451-0.248     c-1.548,0.544-2.75,1.703-3.426,3.182c-0.668,1.471-0.615,3.189,0.037,4.847c1.356,3.328,4.848,4.821,7.787,3.339     C163.665,159.258,165.095,155.696,163.908,152.79z"/>
			<path style="fill:#FD8A02;" d="M169.275,168.09c-1.405-0.36-2.996-0.184-4.41,0.666c-1.414,0.85-2.372,2.231-2.754,3.819     c-0.344,1.559,0.008,3.249,0.966,4.738c1.955,2.99,5.657,3.745,8.258,1.695c2.601-2.05,3.331-5.838,1.619-8.452     C172.101,169.23,170.722,168.429,169.275,168.09z"/>
			<path style="fill:#FD8A02;" d="M346.153,170.485c-2.758-1.696-6.475-1.01-8.18,1.608c-0.867,1.319-1.109,2.912-0.83,4.459     c0.246,1.516,0.964,2.949,2.266,3.995c1.281,1.03,2.913,1.459,4.436,1.198c1.485-0.286,2.907-1.226,3.88-2.704     C349.675,176.049,349.015,172.247,346.153,170.485z"/>
			<path style="fill:#FD8A02;" d="M355.057,151.265c-3.001-1.092-6.512,0.334-7.707,3.239c-1.171,2.916,0.183,6.502,3.023,8.007     c2.981,1.577,6.508,0.162,7.855-3.171C359.594,156.017,358.223,152.42,355.057,151.265z"/>
			<path style="fill:#FD8A02;" d="M360.137,130.61c-3.149-0.456-6.323,1.66-6.941,4.75c-0.609,3.092,1.438,6.34,4.503,7.235     c3.228,0.939,6.381-1.178,7.084-4.718C365.489,134.338,363.463,131.094,360.137,130.61z"/>
			<path style="fill:#FD8A02;" d="M361.214,109.32c-3.263,0.194-5.93,2.913-5.941,6.072c-0.005,1.595,0.656,3.056,1.723,4.177     c1.086,1.117,2.403,1.885,4.062,1.999c1.602,0.112,3.241-0.475,4.3-1.576c1.076-1.097,1.746-2.7,1.753-4.488     C367.124,111.894,364.478,109.126,361.214,109.32z"/>
			<path style="fill:#FD8A02;" d="M358.208,88.229c-3.164,0.851-5.25,4.051-4.645,7.145c0.297,1.563,1.259,2.855,2.483,3.745     c1.158,0.896,2.689,1.37,4.31,1.152c1.621-0.218,3.023-1.108,3.972-2.42c0.884-1.297,1.2-2.999,0.868-4.756     C364.507,89.556,361.372,87.378,358.208,88.229z"/>
			<path style="fill:#FD8A02;" d="M348.094,76.11c0.579,1.475,1.809,2.529,3.129,3.169c1.309,0.64,2.903,0.792,4.451,0.248     c1.548-0.544,2.75-1.703,3.426-3.182c0.668-1.471,0.615-3.189-0.037-4.847c-1.357-3.329-4.849-4.821-7.788-3.339     C348.336,69.642,346.906,73.204,348.094,76.11z"/>
			<path style="fill:#FD8A02;" d="M342.726,60.81c1.405,0.36,2.996,0.184,4.41-0.666c1.414-0.849,2.371-2.231,2.754-3.819     c0.344-1.56-0.008-3.249-0.966-4.739c-1.954-2.99-5.657-3.745-8.257-1.695c-2.601,2.05-3.33,5.838-1.619,8.452     C339.9,59.669,341.279,60.471,342.726,60.81z"/>
			<path style="fill:#FD8A02;" d="M335.216,34.127c-2.473-2.542-6.226-2.558-8.41-0.003c-2.148,2.514-2.172,6.399-0.005,8.625     c1.092,1.125,2.561,1.667,4.084,1.671c1.459,0.057,2.974-0.426,4.203-1.549c1.222-1.116,1.914-2.676,1.976-4.298     C337.068,37.01,336.439,35.39,335.216,34.127z"/>
			<path style="fill:#FD8A02;" d="M318.496,19.763c-2.897-2.005-6.562-1.298-8.258,1.7c-1.605,2.844-0.919,6.692,1.618,8.447     c1.279,0.891,2.818,1.133,4.309,0.835c1.492-0.307,2.847-1.029,3.855-2.394c0.978-1.324,1.403-3.049,1.111-4.582     C320.846,22.23,319.93,20.762,318.496,19.763z"/>
			<path style="fill:#FD8A02;" d="M299.399,9.03c-3.208-1.416-6.686,0.06-7.784,3.339c-1.04,3.117,0.371,6.708,3.178,7.951     c2.815,1.221,6.289-0.243,7.722-3.188C304.02,14.031,302.614,10.428,299.399,9.03z"/>
			<path style="fill:#FD8A02;" d="M278.643,2.357c-3.415-0.731-6.545,1.398-7.003,4.84c-0.431,3.263,1.627,6.52,4.615,7.163     c2.989,0.638,6.126-1.522,6.974-4.697C284.122,6.314,282.057,3.089,278.643,2.357z"/>
			<path style="fill:#FD8A02;" d="M257.038,0c-3.483-0.011-6.155,2.73-5.968,6.108s2.815,6.137,5.871,6.146     c1.542,0.004,2.955-0.68,4.037-1.786c1.08-1.135,1.818-2.493,1.926-4.213c0.105-1.657-0.465-3.359-1.53-4.443     C260.313,0.7,258.765,0.006,257.038,0z"/>
			<path style="fill:#FD8A02;" d="M239.997,2.878c-1.253-0.928-2.894-1.25-4.59-0.912c-3.418,0.707-5.528,3.949-4.716,7.227     c0.812,3.278,3.899,5.442,6.892,4.819c1.513-0.302,2.762-1.305,3.626-2.559c0.868-1.199,1.328-2.783,1.12-4.461     C242.119,5.313,241.261,3.861,239.997,2.878z"/>
			<path style="fill:#FD8A02;" d="M219.217,8.227c-1.428-0.726-3.079-0.656-4.684,0.005c-3.218,1.391-4.675,5.003-3.26,8.053     c1.415,3.051,4.848,4.545,7.661,3.323c1.43-0.589,2.448-1.88,3.082-3.216c0.624-1.354,0.777-3.005,0.258-4.609     C221.755,10.18,220.641,8.931,219.217,8.227z"/>
			<path style="fill:#FD8A02;" d="M199.835,17.649c-1.526-0.403-3.142-0.02-4.59,0.955c-2.897,2.008-3.648,5.84-1.686,8.547     c1.961,2.707,5.613,3.483,8.147,1.722c1.291-0.869,2.056-2.322,2.415-3.781c0.356-1.455,0.195-3.104-0.617-4.573     C202.693,19.051,201.365,18.053,199.835,17.649z"/>
			<path style="fill:#FD8A02;" d="M182.592,30.788c-1.527-0.038-3.079,0.619-4.31,1.874c-2.473,2.542-2.499,6.445-0.067,8.706     c2.431,2.262,6.166,2.297,8.331,0.069c1.097-1.12,1.615-2.656,1.648-4.21c0.079-1.496-0.388-3.08-1.46-4.358     C185.661,31.593,184.17,30.878,182.592,30.788z"/>
			<path style="fill:#FD8A02;" d="M172.592,48.353c-1.281-1.03-2.913-1.459-4.436-1.198c-1.484,0.286-2.907,1.226-3.88,2.705     c-1.95,2.991-1.29,6.794,1.572,8.556c2.758,1.696,6.475,1.011,8.181-1.608c0.866-1.319,1.109-2.912,0.83-4.46     C174.612,50.831,173.893,49.398,172.592,48.353z"/>
			<path style="fill:#FD8A02;" d="M156.944,77.635c3.001,1.092,6.512-0.335,7.706-3.239c1.172-2.915-0.183-6.502-3.023-8.007     c-2.981-1.576-6.508-0.162-7.855,3.171C152.407,72.883,153.778,76.48,156.944,77.635z"/>
			<path style="fill:#FD8A02;" d="M151.864,98.29c3.149,0.456,6.323-1.661,6.941-4.75c0.61-3.092-1.438-6.34-4.503-7.234     c-3.229-0.939-6.381,1.178-7.084,4.717C146.512,94.561,148.538,97.806,151.864,98.29z"/>
			<path style="fill:#FD8A02;" d="M156.728,113.508c0.005-1.595-0.655-3.056-1.723-4.177c-1.086-1.118-2.403-1.886-4.062-2     c-1.603-0.111-3.241,0.475-4.299,1.577c-1.076,1.097-1.747,2.699-1.754,4.488c-0.013,3.609,2.634,6.377,5.898,6.183     S156.717,116.667,156.728,113.508z"/>
		</g>
		<g>
			<path style="fill:#915EFD;" d="M171.323,129.596c4.313,1.747,8.578,3.164,12.934,4.21c0.912,0.219,1.801-0.579,1.602-1.414     c-0.89-3.985-1.473-8.041-1.754-12.128c-0.03-0.861-1.095-1.36-1.913-0.875c-1.961,1.158-3.8,2.39-5.677,3.71     c-1.881,1.32-3.732,2.722-5.505,4.199C170.249,127.923,170.427,129.224,171.323,129.596z"/>
			<path style="fill:#915EFD;" d="M193.469,152.396c-2.065-3.745-3.819-7.67-5.236-11.719c-0.25-0.736-1.254-0.96-1.94-0.421     c-5.391,4.259-10.458,9.014-15.245,14.27c-0.802,0.883-0.06,2.53,1.111,2.467c3.438-0.165,6.933-0.521,10.314-0.98     c3.372-0.452,6.748-1.072,10.057-1.817C193.372,154.004,193.854,153.068,193.469,152.396z"/>
			<path style="fill:#915EFD;" d="M198.101,159.721c-0.489-0.697-1.653-0.512-2.08,0.35c-2.04,4.113-3.767,8.403-5.269,12.932     c-0.307,0.947,0.535,1.931,1.486,1.738c2.234-0.441,4.475-1.002,6.658-1.62c2.174-0.61,4.298-1.287,6.412-2.073     c0.885-0.329,1.211-1.494,0.601-2.08C203.074,166.105,200.461,163.01,198.101,159.721z"/>
			<path style="fill:#915EFD;" d="M319.451,165.705c-0.896-2.144-1.837-4.219-2.892-6.275c-0.441-0.861-1.6-1.029-2.072-0.321     c-2.336,3.306-4.926,6.421-7.738,9.305c-0.597,0.601-0.254,1.768,0.63,2.083c4.221,1.506,8.569,2.67,13.114,3.57     c0.949,0.18,1.769-0.823,1.449-1.771C321.204,170.068,320.357,167.857,319.451,165.705z"/>
			<path style="fill:#915EFD;" d="M337.764,149.927c-1.253-1.243-2.527-2.457-3.81-3.634c-2.571-2.357-5.165-4.568-7.905-6.679     c-0.695-0.534-1.688-0.297-1.917,0.446c-1.39,4.06-3.115,7.996-5.153,11.754c-0.368,0.681,0.13,1.617,0.97,1.799     c3.288,0.699,6.672,1.288,10.078,1.725c3.379,0.423,6.823,0.717,10.323,0.878c1.179,0.055,1.876-1.613,1.063-2.489     C340.21,152.427,338.994,151.16,337.764,149.927z"/>
			<path style="fill:#915EFD;" d="M334.524,131.13c2.137-0.728,4.255-1.546,6.404-2.443c0.925-0.376,1.088-1.679,0.302-2.298     c-1.837-1.464-3.648-2.841-5.531-4.141c-1.902-1.302-3.81-2.521-5.719-3.658c-0.808-0.477-1.887,0.031-1.94,0.893     c-0.19,4.101-0.739,8.174-1.614,12.163c-0.175,0.841,0.731,1.632,1.634,1.4C330.195,132.489,332.352,131.851,334.524,131.13z"/>
			<path style="fill:#915EFD;" d="M347.918,99.879c-6.795-1.682-13.544-2.786-20.31-3.29c-0.858-0.062-1.581,0.694-1.401,1.452     c0.958,4.191,1.568,8.466,1.831,12.772c0.027,0.782,0.922,1.291,1.73,0.974c3.186-1.256,6.296-2.65,9.372-4.185     c3.09-1.536,6.177-3.217,9.146-5.029C349.301,101.962,349.055,100.163,347.918,99.879z"/>
			<path style="fill:#915EFD;" d="M323.304,76.581c-1.13,0.028-2.253,0.075-3.363,0.14c-0.938,0.058-1.568,1.083-1.143,1.823     c1.943,3.566,3.609,7.29,4.979,11.126c0.275,0.811,1.439,0.974,2.087,0.273c3.087-3.35,5.905-6.961,8.573-10.868     c0.553-0.82,0.016-2.012-0.948-2.103c-2.258-0.231-4.581-0.334-6.831-0.38C325.53,76.569,324.412,76.566,323.304,76.581z"/>
			<path style="fill:#915EFD;" d="M316.224,71.12c4.001-5.658,7.574-11.7,10.744-18.139c0.529-1.079-0.633-2.439-1.74-2.036     c-3.259,1.165-6.499,2.507-9.631,3.939c-1.567,0.717-3.105,1.456-4.626,2.227c-1.537,0.788-3.048,1.6-4.534,2.437     c-0.757,0.43-0.964,1.467-0.411,1.999c2.999,2.998,5.752,6.26,8.217,9.739C314.688,71.916,315.715,71.837,316.224,71.12z"/>
			<path style="fill:#915EFD;" d="M301.15,39.743c-1.02,0.548-2.019,1.102-3.007,1.677c-0.998,0.594-1.979,1.197-2.942,1.812     c-1.927,1.233-3.77,2.478-5.587,3.856c-0.76,0.576-0.756,1.786-0.01,2.166c3.49,1.923,6.833,4.134,9.987,6.606     c0.659,0.525,1.728,0.008,1.904-0.942c0.842-4.538,1.339-9.156,1.556-13.946C303.089,39.976,302.012,39.279,301.15,39.743z"/>
			<path style="fill:#915EFD;" d="M280.606,22.448c-4.275,5.645-8.058,11.636-11.292,17.754c-0.413,0.799-0.038,1.748,0.699,1.914     c4.092,0.808,8.095,2.044,11.977,3.586c0.705,0.277,1.529-0.37,1.583-1.255c0.2-3.47,0.27-6.998,0.208-10.573     c-0.081-3.518-0.296-7.083-0.645-10.687C283.029,21.94,281.326,21.494,280.606,22.448z"/>
			<path style="fill:#915EFD;" d="M256.744,26.52c-0.49-0.865-1.759-0.899-2.241-0.011c-1.142,2.092-2.203,4.183-3.184,6.269     c-0.98,2.089-1.874,4.268-2.689,6.384c-0.341,0.9,0.296,1.928,1.124,1.851c3.938-0.329,7.92-0.423,11.873-0.064     c0.834,0.037,1.457-0.958,1.109-1.873C261.061,34.869,259.066,30.59,256.744,26.52z"/>
			<path style="fill:#915EFD;" d="M236.83,31.321c-1.903-2.915-3.964-5.88-6.12-8.652c-0.73-0.949-2.413-0.43-2.521,0.778     c-0.638,7.188-0.725,14.265-0.236,21.272c0.064,0.889,0.89,1.518,1.588,1.221c3.871-1.581,7.871-2.815,11.945-3.69     c0.741-0.146,1.099-1.14,0.682-1.921C240.521,37.274,238.734,34.232,236.83,31.321z"/>
			<path style="fill:#915EFD;" d="M210.226,40.223c-0.862-0.449-1.923,0.273-1.873,1.274c0.103,2.35,0.327,4.732,0.607,7.052     c0.272,2.309,0.625,4.588,1.076,6.864c0.189,0.953,1.257,1.453,1.905,0.911c3.138-2.499,6.465-4.737,9.942-6.688     c0.736-0.4,0.725-1.619-0.039-2.18C218.2,44.779,214.343,42.403,210.226,40.223z"/>
			<path style="fill:#915EFD;" d="M189.765,62.959c0.907,1.503,1.836,2.978,2.785,4.424c0.968,1.46,1.963,2.896,2.974,4.3     c0.518,0.714,1.539,0.78,1.968,0.137c2.441-3.496,5.171-6.776,8.15-9.795c0.541-0.546,0.319-1.587-0.438-2.007     c-2.965-1.625-6.07-3.192-9.202-4.586c-3.128-1.391-6.365-2.689-9.667-3.858c-1.107-0.388-2.241,0.996-1.699,2.074     C186.212,56.824,187.947,59.949,189.765,62.959z"/>
			<path style="fill:#915EFD;" d="M181.527,85.51c1.471,1.804,2.898,3.503,4.485,5.169c0.666,0.699,1.806,0.514,2.078-0.297     c1.324-3.855,2.975-7.585,4.884-11.166c0.406-0.751-0.242-1.772-1.174-1.817c-2.198-0.092-4.488-0.139-6.725-0.061     c-2.241,0.075-4.521,0.225-6.834,0.452c-0.957,0.105-1.467,1.31-0.899,2.126C178.672,81.845,180.054,83.704,181.527,85.51z"/>
			<path style="fill:#915EFD;" d="M182.315,112.484c0.801,0.31,1.71-0.207,1.758-0.989c0.189-4.32,0.765-8.61,1.708-12.806     c0.156-0.764-0.576-1.515-1.433-1.443c-3.34,0.295-6.716,0.731-10.118,1.307c-3.395,0.579-6.728,1.316-10.127,2.186     c-0.572,0.148-0.933,0.667-1.014,1.228c-0.063,0.563,0.144,1.164,0.656,1.466c3.045,1.79,6.054,3.433,9.177,4.944     C176.043,109.887,179.178,111.256,182.315,112.484z"/>
		</g>
	</g>
	<g>
		<path style="fill:#000E3F;" d="M61.597,222.881c-0.293-0.064-0.428-0.104-0.465-0.392c-0.142-1.471-0.565-3.085-1.502-4.353    c-3.753-5.071-9.2-1.216-12.086,2.459l-0.007,0.039c3.978,5.186,7.54,10.431,11.591,15.528c0.205-0.049,0.35-0.189,0.53-0.323    c3.35-2.337,9.033-5.07,6.595-9.885C65.174,223.739,63.419,223.355,61.597,222.881z M55.329,224.4    c-1.058-0.864-1.58-2.089-2.168-2.741c0.27-0.585,1.067-1.069,1.762-1.408c0.558-0.238,1.128-0.275,1.73,0.017    c0.597,0.292,0.735,0.996,0.8,1.51C57.649,223.034,56.319,223.843,55.329,224.4z M60.109,230.672l-0.063,0.01    c-1.035-0.356-1.987-2.069-2.412-3.119c0.618-0.351,1.215-0.865,1.9-1.125c0.453-0.194,1.095-0.179,1.543,0.05    c0.59,0.37,1.175,1.021,1.17,1.726C62.172,229.39,60.947,230.052,60.109,230.672z"/>
		<path style="fill:#000E3F;" d="M72.505,216.675l-0.017-0.024l0.025-0.015l0.095-0.059c1.477-1.043,1.94-2.488,1.828-4.007    c-0.068-4.558-5.073-7.193-8.973-5.047c-2.488,1.172-4.46,2.854-6.095,4.227c1.233,1.457,10.701,16.523,10.511,16.64    c0.267-0.264,3.208-1.716,4.005-2.837c-0.828-1.177-3.033-4.215-3.73-5.771l0.095,0.042c2.398,0.833,5.515,2.879,7.04,3.956    l0.025-0.015c1.495-0.791,2.82-1.808,3.945-2.504l-0.022,0.015C78.65,219.232,75.31,218.218,72.505,216.675z M69.32,214.307    c-0.692,0.593-1.633,1.107-2.42,1.495l-0.022,0.014c-0.562-0.645-1.365-2.103-1.94-2.873c0.845-1.15,1.942-1.995,3.038-1.777    C69.29,211.313,70.38,213.288,69.32,214.307z"/>
		<path style="fill:#000E3F;" d="M90.788,212.033c-2.227,1.266-4.405,2.152-6.6,3.303l-0.037-0.012    c-0.492-0.759-1.3-2.054-1.638-3.119c0.205-0.458,1.995-1.046,2.873-1.857c-0.662-1.209-1.1-2.411-1.868-3.442l-0.01-0.025    c-1.035,0.512-2.07,1.086-3.105,1.535l-0.04-0.012c-0.697-0.78-1.022-1.946-1.558-2.905l0.012-0.038l0.075-0.039    c2.093-1.351,4.508-2.141,6.378-3.727l-0.012-0.025c-0.615-1.173-1.07-2.461-1.86-3.542c-0.077-0.149-6.483,3.338-10.245,5.566    c2.67,5.883,5.888,11.288,8.923,17.075c3.36-1.413,6.848-3.56,10.253-5.315c-0.248-1.141-0.875-2.339-1.515-3.372L90.788,212.033z    "/>
		<path style="fill:#000E3F;" d="M98.649,201.888c-1.175-1.543-5.243-6.98-6.146-8.183c-2.173,1.209-2.655,1.236-3.11,1.53    c1.173,9.334,3.91,18.932,4.013,19.718c0.037,0.015,0.037,0.015,0.06,0.003c2.335-1.062,3.368-1.366,3.618-1.569    c0.027-0.012,0.04-0.049,0.068-0.06c0.09-1.395-0.755-3.516-0.77-4.802c0.77-0.342,0.677-0.422,1.608-0.681    c0.91,0.799,2.165,2.738,3.067,3.663l0.027-0.011c1.21-0.259,2.555-0.762,3.495-1.424l-0.015-0.025L98.649,201.888z     M94.856,205.567c-1.613-5.599-3.055-9.272,1.907-0.842C96.118,205.009,95.461,205.331,94.856,205.567z"/>
		<path style="fill:#000E3F;" d="M110.776,207.538c-4.575-11.428-5.328-13.341-5.413-13.88c-0.01-0.026,0.005-0.063-0.002-0.09    l0.027-0.01l0.053-0.02c1.627-0.708,2.5-1.1,3.21-1.218c-0.293-1.334-0.923-2.993-1.443-4.121    c-3.755,0.972-7.63,2.592-11.203,3.976c0.01,0.027,0.038,0.017,0.048,0.042c0.497,1.71,1.44,3.882,1.672,4.095    c0.473-0.028,2.303-0.994,3.283-0.882l0.032,0.017c4.145,9.662,5.308,13.679,5.508,13.966c1.183-0.69,3.038-1.121,4.245-1.821    l-0.007-0.026L110.776,207.538z"/>
		<path style="fill:#000E3F;" d="M120.457,183.823c-1.105,0.241-2.778,0.829-3.608,1.4c0.883,2.557,1.468,4.527,1.993,7.073    l-0.027,0.008c-0.863,0.346-1.95,0.847-2.903,0.896l-0.027,0.008c-1.117-2.164-1.62-4.54-2.685-6.925    c-1.112,0.008-2.305,0.835-3.448,0.941l-0.057,0.016l-0.025,0.008l0.008,0.027c1.535,5.535,4.868,15.705,5.993,18.689    c0.542-0.544,2.88-0.478,3.618-1.257c-0.325-2.371-1.47-4.731-1.998-7.278c0.98-0.556,2.005-0.863,3.113-0.988l0.037,0.019    c0.987,2.231,1.56,5.028,2.625,7.324l0.027-0.007c0.87-0.348,2.553-0.704,3.73-1.29L120.457,183.823z"/>
		<path style="fill:#000E3F;" d="M55.162,194.964c-1.183,0.658-2.46-0.864-3.155-1.791l-0.077-0.118l-0.015-0.024    c-1.257,0.539-2.973,1.572-3.705,2.308c1.433,2.495,4.203,5.872,7.273,4.974c1.617-0.603,3.288-1.706,4.19-3.221    c2.24-2.975-0.472-6.524-2.01-9.184c-1.888-3.104-4.085-6.011-5.915-9.02l-3.433,2.266l0.11,0.166    c2.298,3.846,4.785,7.57,7.12,11.057C56.066,193.348,56.231,194.546,55.162,194.964z"/>
		<path style="fill:#000E3F;" d="M61.924,191.327c1.78,2.976,5.855,2.329,8.5,0.534c2.255-1.516,2.75-3.966,1.838-6.292    c-1.85-4.511-4.183-8.854-6.683-12.977c-1.048-0.039-2.778,1.32-3.653,1.892c1.988,3.889,4.315,8.043,6.298,12.096    c0.497,1.685-1.63,3.133-2.975,1.781c-2.56-3.932-4.843-7.949-6.838-12.027l-0.012-0.025c-1.14,0.268-2.543,1.224-3.558,1.776    l-0.025,0.014l0.037,0.011C57.299,182.425,59.552,186.973,61.924,191.327z"/>
		<path style="fill:#000E3F;" d="M74.765,178.743c0.675,0.19,1.39,0.269,2.143,0.084c1.563-0.367,3.695-1.052,4.645,0.498    c1.49,2.202-2.285,3.844-3.398,1.72c-1.143,0.547-2.79,1.075-3.915,1.8l0.032,0.077l0.035,0.078    c1.267,3.353,5.398,3.805,8.438,2.525c2.137-0.874,3.748-2.714,3.62-5.19c0.023-2.143-1.002-4.339-2.905-5.334    c-1.663-1.011-3.745-1.307-5.655-0.689c-0.768,0.223-1.518,0.344-2.173-0.35c-0.128-0.219-0.283-0.428-0.313-0.693    c-0.585-2.054,3.065-2.867,3.5-0.808c1.358-0.211,2.748-0.963,3.863-1.714l0.028-0.012c-0.673-2.787-2.48-3.98-4.505-4.085    c-1.98-0.003-4.473,0.845-5.825,2.292C69.707,171.786,70.252,177.166,74.765,178.743z"/>
		<path style="fill:#000E3F;" d="M84.263,167.971c0.47-0.023,2.313-0.97,3.285-0.849l0.037,0.017    c4.045,9.701,5.17,13.728,5.363,14.016c1.193-0.678,3.05-1.091,4.268-1.779l-0.007-0.026l-0.012-0.026    c-4.458-11.471-5.193-13.389-5.273-13.931c-0.01-0.026,0.007-0.063-0.002-0.089l0.027-0.01l0.05-0.019    c1.638-0.692,2.515-1.075,3.225-1.186c-0.28-1.336-0.895-3.001-1.4-4.134c-3.765,0.935-7.653,2.515-11.238,3.863    c0.007,0.027,0.035,0.017,0.045,0.044C83.11,165.574,84.033,167.756,84.263,167.971z"/>
	</g>
</g>















</svg>
