<?xml version="1.0" encoding="UTF-8"?>
<!-- Generator: Adobe Illustrator 25.2.3, SVG Export Plug-In . SVG Version: 6.00 Build 0)  -->
<svg xmlns="http://www.w3.org/2000/svg" xmlns:xlink="http://www.w3.org/1999/xlink" version="1.1" id="Capa_1" x="0px" y="0px" viewBox="0 0 512 512" style="enable-background:new 0 0 512 512;" xml:space="preserve" width="512" height="512">
<g>
	<path style="fill:#FFC524;" d="M268.955,509.296c0,0-33.71-9.437,26.961-41.12c60.678-31.687,161.792-53.937,136.85-83.597   c-24.942-29.664-20.22-39.778,18.878-82.24c39.101-42.481,122.025-159.775-41.793-266.292   C246.032-70.467,49.853,79.192,11.429,223.457c-38.428,144.262,89.662,146.958,172.583,157.745   c82.917,10.798,0,53.934-10.114,77.537c-10.11,23.589,52.583,0,52.583,0S159.069,526.147,268.955,509.296z"/>
	<path style="fill:#FF783E;" d="M352.329,278.595c-3.076,44.602-20.33,79.625-40.502,105.943   c-83.188-29.979-213.896-26.391-213.896-26.391C48.504,168.463,198.167,65.105,198.167,65.105S360.42,161.292,352.329,278.595z"/>
	<g>
		<path style="opacity:0.7;fill:#EA4A0C;" d="M232.33,307.916c0.446,4.81,8.248,8.014,17.436,7.165    c9.188-0.852,16.262-5.439,15.82-10.253c-0.447-4.802-8.252-8.014-17.436-7.154C238.965,298.523,231.88,303.113,232.33,307.916z"/>
		<path style="fill:#091438;" d="M264.405,292.158c0,0-0.091,19.017-36.178,17.59C228.226,309.748,264.876,316.127,264.405,292.158z    "/>
	</g>
	<g>
		
			<rect x="260.45" y="241.101" transform="matrix(0.9257 -0.3781 0.3781 0.9257 -72.0021 120.3567)" style="fill:#091438;" width="20.031" height="4.836"/>
		
			<rect x="256.556" y="230.099" transform="matrix(0.8453 -0.5343 0.5343 0.8453 -82.5978 179.7552)" style="fill:#091438;" width="25.128" height="4.833"/>
		<path style="fill:#FFFFFF;" d="M192.6,270.585l79.358-9.47c0,0,2.798-34.81-26.262-39.542    C216.638,216.842,192.6,270.585,192.6,270.585z"/>
		<path style="fill:#091438;" d="M194.805,271.572l-4.411-1.975c1.009-2.262,25.165-55.354,55.689-50.411    c30.904,5.031,28.315,41.751,28.285,42.122l-4.821-0.386c0.106-1.329,2.25-32.65-24.24-36.963    C218.464,219.596,195.04,271.053,194.805,271.572z"/>
		<path style="fill:#091438;" d="M236.416,245.283c0.029,7.753,4.473,14.029,9.942,14.011c5.468-0.022,9.883-6.321,9.868-14.066    c-0.029-7.763-4.488-14.027-9.949-14.011C240.805,231.228,236.387,237.53,236.416,245.283z"/>
	</g>
	<g>
		
			<rect x="94.628" y="238.894" transform="matrix(0.1848 -0.9828 0.9828 0.1848 -167.4658 299.9199)" style="fill:#091438;" width="4.834" height="24.013"/>
		
			<rect x="95.131" y="225.964" transform="matrix(0.4502 -0.8929 0.8929 0.4502 -162.1274 219.9648)" style="fill:#091438;" width="4.835" height="31.332"/>
		<path style="fill:#FFFFFF;" d="M161.275,271.569l-65.956-6.858c0,0-1.244-39.672,21.566-38.893    C139.702,226.593,161.275,271.569,161.275,271.569z"/>
		<path style="fill:#091438;" d="M159.095,272.615c-0.208-0.437-21.2-43.664-42.291-44.381c-4.137-0.113-7.385,1.148-10.172,3.928    c-9.484,9.452-8.903,32.245-8.896,32.474l-4.836,0.15c-0.029-1.019-0.655-25.105,10.311-36.043    c3.738-3.725,8.266-5.556,13.757-5.34c24.002,0.815,45.579,45.231,46.486,47.12L159.095,272.615z"/>
		<path style="fill:#091438;" d="M127.181,252.452c1.167,6.136,5.633,10.452,9.964,9.622c4.334-0.823,6.895-6.467,5.732-12.612    c-1.17-6.143-5.63-10.452-9.964-9.622C128.579,240.661,126.015,246.309,127.181,252.452z"/>
	</g>
	<path style="fill:#091438;" d="M204.012,293.12l-30.341,7.861c1.127-59.998-6.514-80.56-6.514-80.56l3.435,82.798   c0,0,22.052,3.76,35.396-9.89c0,0-5.315-9.602-15.889-0.907C190.098,292.421,199.067,287.952,204.012,293.12z"/>
	<g>
		<path style="fill:#091438;" d="M60.721,299.77l-12.572-93.595l108.605-11.612l9.624,93.711L60.721,299.77z M57.271,213.336    l10.414,77.538l89.826-9.77l-7.978-77.635L57.271,213.336z"/>
		<path style="fill:#091438;" d="M184.213,286.946l-9.298-94.011l114.11-7.259l6.2,94.013L184.213,286.946z M183.788,200.477    l7.703,77.888l95.13-6.22l-5.139-77.884L183.788,200.477z"/>
		
			<rect x="158.174" y="243.26" transform="matrix(0.9944 -0.1058 0.1058 0.9944 -25.2064 19.5066)" style="fill:#091438;" width="26.116" height="8.089"/>
		
			<rect x="288.464" y="233.728" transform="matrix(0.9989 -0.047 0.047 0.9989 -10.8198 15.2739)" style="fill:#091438;" width="62.001" height="8.089"/>
	</g>
	
		<rect x="102.325" y="208.96" transform="matrix(0.9757 -0.2191 0.2191 0.9757 -44.0295 31.6773)" style="fill:#091438;" width="36.966" height="10.785"/>
	<rect x="212.326" y="200.534" style="fill:#091438;" width="48.867" height="10.787"/>
	<path style="fill:#091438;" d="M188.09,59.894c0,0,167.125,96.178,158.793,213.481c-8.333,117.303-117.589,168.54-117.589,168.54   s149.978-56.859,125.903-199.849C335.189,123.254,188.09,59.894,188.09,59.894z"/>
	<g>
		<path style="fill:#091438;" d="M338.701,372.156c53.728-91.068,70.394-213.368-38.962-269.594    c113.409,53.271,99.83,181.099,48.231,275.118L338.701,372.156z"/>
		<path style="fill:#091438;" d="M195.683,30.656c121.022,9.301,250.6,70.834,211.468,214.597    c34.145-142.175-92.747-198.161-211.885-203.818L195.683,30.656z"/>
	</g>
</g>















</svg>
