<?xml version="1.0" encoding="UTF-8"?>
<!-- Generator: Adobe Illustrator 25.2.3, SVG Export Plug-In . SVG Version: 6.00 Build 0)  -->
<svg xmlns="http://www.w3.org/2000/svg" xmlns:xlink="http://www.w3.org/1999/xlink" version="1.1" id="Capa_1" x="0px" y="0px" viewBox="0 0 512 512" style="enable-background:new 0 0 512 512;" xml:space="preserve" width="512" height="512">
<g>
	<path style="fill:#7C3E25;" d="M58.97,143.658c-9.694-4.017-18.143-8.98-24.907-14.977c0,0,4.434-85.703,89.366-122.987   l-3.692,23.1c0,0,65.736-44.165,130.731-23.1L232.74,14.2c0,0,44.316-4.017,70.166,14.593l-26.588,8.304   c0,0,115.958,22.156,186.117,101.924L406.334,258.02l11.789,35.757l-94.655,26.399l-220.475-84.551L58.97,143.658z"/>
	<path style="fill:#FFDEC7;" d="M476.471,270.486c-14.773,50.963-115.217,73.477-115.217,73.477s-48.008,254.448-254.07,129.63   l8.123-156.928c0,0-110.107-44.672-56.337-173.006c83.398,34.889,259.448,3.487,259.448,3.487   c-50.967,104.139,28.064,92.323,28.064,92.323l11.077,48.686c10.876-10.635,29.451-21.861,48.776-30.134   C444.8,241.536,486.308,236.572,476.471,270.486z"/>
	<path style="fill:#FFFFFF;" d="M184.732,309.141c0,15.498-10.909,28.065-24.371,28.065c-13.459,0-24.371-12.567-24.371-28.065   c0-15.502,10.912-28.067,24.371-28.067C173.824,281.073,184.732,293.638,184.732,309.141z"/>
	<path style="fill:#FFFFFF;" d="M275.933,303.87c0,18.075-12.729,32.723-28.423,32.723c-15.695,0-28.416-14.649-28.416-32.723   s12.722-32.727,28.416-32.727C263.205,271.143,275.933,285.795,275.933,303.87z"/>
	
		<rect x="112.026" y="263.841" transform="matrix(0.9892 -0.1466 0.1466 0.9892 -38.0038 23.7673)" style="fill:#7C3E25;" width="60.48" height="11.818"/>
	
		<rect x="236.938" y="196.406" transform="matrix(0.26 -0.9656 0.9656 0.26 -40.1191 402.9457)" style="fill:#7C3E25;" width="11.819" height="62.487"/>
	<path style="fill:#091438;" d="M176.859,310.368c0,5.573-3.696,10.096-8.251,10.096c-4.551,0-8.247-4.522-8.247-10.096   c0-5.573,3.696-10.091,8.247-10.091C173.163,300.277,176.859,304.795,176.859,310.368z"/>
	<path style="fill:#091438;" d="M260,303.87c0,5.573-3.689,10.094-8.243,10.094c-4.555,0-8.248-4.52-8.248-10.094   c0-5.575,3.692-10.093,8.248-10.093C256.312,293.776,260,298.294,260,303.87z"/>
	<g>
		<path style="fill:#FFFFFF;" d="M249.239,385.29c11.675-0.709,22.242-6.409,25.483-18.269    c10.487,10.926,13.741,21.006,16.861,35.381c-0.113,11.157-2.455,27.138-10.71,35.453c-2.165,1.162-7.914,4.677-10.459,4.674    C270.413,442.529,249.239,385.29,249.239,385.29z"/>
		<path style="fill:#091438;" d="M292.652,407.33c-0.088,4.447-0.708,9.22-2.033,14.307c-9.286,35.608-37.126,16.113-37.126,16.113    s26.368,15.874,34.479-16.595c8.104-32.47-13.158-52-13.158-52c-9.033,27.904-45.362,13.819-45.362,13.819    s34.857,10.462,45.091-17.35C274.542,365.624,293.18,380.614,292.652,407.33"/>
		<polyline style="fill:#091438;" points="288.754,389.967 272.138,407.57 289.613,393.414 289.121,389.967   "/>
		<path style="fill:#091438;" d="M269.675,368.797c0,0,5.047-3.324,13.291-0.616c0,0-7.506-5.607-13.291-2.556V368.797z"/>
	</g>
	<path style="fill:#7C3E25;" d="M237.42,369.219c0,0-50.717,23.628,10.09,115.211l61.306-37.425c0,0,5.414-124.207-61.306-82.292   c0,0,29.789-38.834,58.348-2.399c28.563,36.439,13.793,92.075,13.793,92.075L264.5,512C264.5,512,149.775,412.551,237.42,369.219z"/>
	<path style="fill:#091438;" d="M440.223,287.992c0,0-13.059-14.872-38.172-9.436c-25.112,5.432-45.2,41.816-11.044,44.415   c34.145,2.595,22.429-17.957,10.038-20.084l20.092-1.676h-28.794c0,0,24.052,12.325,14.201,17.75   c-9.851,5.431-38.484,1.165-27.26-18.862C399.038,264.85,440.223,287.992,440.223,287.992z"/>
	<g style="opacity:0.2;">
		<path style="fill:#FFFFFF;" d="M347.85,141.628c-25.119,32.91-28.734,72.368,17.835,86.021    c-50.433-10.373-48.545-55.509-25.007-91.232L347.85,141.628z"/>
		<path style="fill:#FFFFFF;" d="M369.407,163.583c-16.119,22.284-5.889,45.164,17.699,55.942    c-28.132-8.829-39.706-34.7-25.142-60.754L369.407,163.583z"/>
		<path style="fill:#FFFFFF;" d="M380.454,98.399c0,0-169.872,65.732-332.359,25.113C48.095,123.511,215.754,150.098,380.454,98.399    z"/>
		<path style="fill:#FFFFFF;" d="M67.298,76.241c0,0,33.235,43.319,180.212,33.479C247.51,109.72,108.664,107.999,67.298,76.241z"/>
		<path style="fill:#FFFFFF;" d="M312.505,98.399c0,0-132.203,9.357-200.153-41.852C112.352,56.547,220.184,101.353,312.505,98.399z    "/>
	</g>
	<path style="fill:#091438;" d="M188.226,262.505c0,0-10.688,1.971-9.77,10.62c0.921,8.646,21.053,68.858,21.053,68.858   s-19.226-1.603-14.777,21.616c0,0,44.03,7.376,51.605-9.013c7.572-16.388-8.555-18.257-12.571-8.259c0,0,13.096-6.219,12.127,2.171   c-0.976,8.389-25.381,20.114-46.06,10.703c0,0-1.901-16.405,12.982-15.181c0,0-16.264-50.69-20.224-66.808   C180.111,267.083,188.226,262.505,188.226,262.505z"/>
</g>















</svg>
