<?xml version="1.0" encoding="UTF-8"?>
<!-- Generator: Adobe Illustrator 25.2.3, SVG Export Plug-In . SVG Version: 6.00 Build 0)  -->
<svg xmlns="http://www.w3.org/2000/svg" xmlns:xlink="http://www.w3.org/1999/xlink" version="1.1" id="Capa_1" x="0px" y="0px" viewBox="0 0 512 512" style="enable-background:new 0 0 512 512;" xml:space="preserve" width="512" height="512">
<g>
	<path style="fill:#091438;" d="M356.328,274.038c0,0,85.718,2.923,77.33,93.018c0,0,28.818-4.01,23.344-24.438   c0,0,27.722,2.914,20.061-16.053c0,0,28.451,8.754,22.251-14.591c0,0,21.832-8.027,0.884-47.783c0,0,15.897,1.091,10.79-21.888   c0,0-52.165-111.618-158.308,2.556L356.328,274.038z"/>
	<path style="fill:#FF6C7E;" d="M339.547,280.602c1.096,0,26.628,2.19,26.628,2.19l-11.671-48.876l-22.615,19.698L339.547,280.602z"/>
	<g style="opacity:0.1;">
		<path style="fill:#FFFFFF;" d="M455.182,338.965c0,0-2.923-77.872-87.181-73.588C368.002,265.377,459.92,247.776,455.182,338.965z    "/>
		<path style="fill:#FFFFFF;" d="M474.15,322.187c0,0-5.473-56.045-65.662-61.766C408.487,260.421,479.617,260.177,474.15,322.187z"/>
		<path style="fill:#FFFFFF;" d="M496.764,307.96c0,0-20.431-80.027-121.105-56.173C375.659,251.787,474.877,212.395,496.764,307.96    z"/>
		<path style="fill:#FFFFFF;" d="M494.938,262.733c0,0-34.105-52.89-103.502-28.818C391.436,233.916,469.767,196.71,494.938,262.733    z"/>
	</g>
	<path style="fill:#091438;" d="M63.731,184.97c30.923-40.317,76.731-72.703,144.557-81.745   c166.175-22.126,150.109,108.358,133.172,171.412l-16.632,26.93l-57.723,13.134c0,0-171.258-35.295-170.711-34.475   c0.547,0.82-27.905-45.686-27.905-45.686L63.731,184.97z"/>
	<path style="fill:#7C3E25;" d="M263.174,344.889c-17.572,28.213-40.416,66.384-75.071,66.384   c-24.685,0-26.858-13.078-26.858-13.078S96.098,424.927,0,385.447c1.358-37.406,10.307-130.793,63.731-200.477   c21.751,27.053,82.181-19.369,82.181-19.369c16.961,53.073,108.335,32.282,108.335,32.282   c-15.78,58.325,10.615,90.127,21.71,100.413c13.764-11.732,42.588-32.546,65.503-23.658c3.766,1.466,7.375,3.723,10.723,6.956   C380.92,309.327,330.72,357.932,263.174,344.889z"/>
	<path style="fill:#091438;" d="M328.278,300.067c0,0-10.626-7.14-26.73-0.314c-16.103,6.831-24.897,31.642-1.725,28.393   c23.17-3.257,15.719-13.334,7.166-12.863l10.214-4.54l-19.261,4.069c0,0,17.659,4.048,11.764,8.713   c-5.892,4.673-25.587,6.142-20.64-7.541C297.785,291.9,328.278,300.067,328.278,300.067z"/>
	<path style="fill:#7C3E25;" d="M130.886,191.717c14.281-40.756,51.441-75.114,94.478-81.928   c-40.878,9.315-74.913,44.228-86.084,84.412L130.886,191.717z"/>
	<path style="fill:#7C3E25;" d="M157.947,162.137c0,0,46.692,44.139,163.781,9.487C321.728,171.624,199.145,188.529,157.947,162.137   z"/>
	<path style="fill:#7C3E25;" d="M175.461,140.977c0,0,45.59,38.668,149.914,13.137C325.375,154.113,212.663,163.6,175.461,140.977z"/>
	<path style="fill:#7C3E25;" d="M201.719,123.108c0,0,15.684,28.085,89.368,24.441C291.087,147.549,229.077,143.533,201.719,123.108   z"/>
	<path style="fill:#7C3E25;" d="M142.63,158.857c0,0-25.537,29.179-68.21,21.152C74.419,180.008,112.718,178.915,142.63,158.857z"/>
	<path style="fill:#7C3E25;" d="M99.221,151.374c0,0,12.624,14.268,58.726-10.397C157.947,140.977,121.472,156.3,99.221,151.374z"/>
	<path style="fill:#7C3E25;" d="M180.221,123.108c0,0-31.904,24.924-57.912,9.176C122.309,132.284,159.82,137.702,180.221,123.108z"/>
	<g>
		
			<rect x="191.839" y="286.608" transform="matrix(0.9259 -0.3777 0.3777 0.9259 -94.1946 97.1846)" style="fill:#091438;" width="17.67" height="4.265"/>
		
			<rect x="188.401" y="276.902" transform="matrix(0.8452 -0.5345 0.5345 0.8452 -118.2511 149.8121)" style="fill:#091438;" width="22.169" height="4.267"/>
		<path style="fill:#FFFFFF;" d="M131.971,312.619l70.01-8.353c0,0,2.478-30.717-23.167-34.887    C153.184,265.203,131.971,312.619,131.971,312.619z"/>
		<path style="fill:#091438;" d="M133.919,313.491l-3.897-1.745c0.896-1.995,22.222-48.827,49.135-44.473    c27.271,4.435,24.976,36.839,24.95,37.164l-4.252-0.34c0.093-1.175,1.992-28.812-21.384-32.613    C154.745,267.622,134.123,313.029,133.919,313.491z"/>
		<path style="fill:#091438;" d="M170.63,290.298c0.02,6.84,3.95,12.372,8.768,12.354c4.828-0.012,8.722-5.569,8.704-12.409    c-0.02-6.837-3.952-12.372-8.777-12.357C174.498,277.903,170.61,283.461,170.63,290.298z"/>
	</g>
	<g>
		
			<rect x="45.533" y="284.664" transform="matrix(0.1847 -0.9828 0.9828 0.1847 -251.3132 287.5793)" style="fill:#091438;" width="4.267" height="21.181"/>
		
			<rect x="45.98" y="273.253" transform="matrix(0.4501 -0.893 0.893 0.4501 -229.8949 200.8226)" style="fill:#091438;" width="4.266" height="27.647"/>
		<path style="fill:#FFFFFF;" d="M104.337,313.491l-58.194-6.052c0,0-1.099-35.004,19.029-34.32    C85.299,273.805,104.337,313.491,104.337,313.491z"/>
		<path style="fill:#091438;" d="M102.414,314.413c-0.186-0.384-18.712-38.529-37.316-39.163c-3.577-0.14-6.517,1.015-8.978,3.472    c-8.384,8.362-7.852,28.449-7.846,28.649l-4.264,0.134c-0.029-0.899-0.582-22.149,9.097-31.802    c3.298-3.292,7.32-4.889,12.136-4.717c21.175,0.721,40.215,39.913,41.015,41.582L102.414,314.413z"/>
		<path style="fill:#091438;" d="M74.254,296.621c1.035,5.424,4.967,9.225,8.791,8.492c3.824-0.724,6.084-5.706,5.052-11.13    c-1.027-5.421-4.961-9.222-8.786-8.492C75.484,286.224,73.224,291.199,74.254,296.621z"/>
	</g>
	<path style="fill:#091438;" d="M116.298,262.664l-10.51,77.79l29.713,4.359c0,0,0.105-10.79-8.678-7.23c0,0,6.587,1.003,5.77,4.889   l-20.718-5.799C111.875,336.673,119.648,292.299,116.298,262.664z"/>
	<polygon style="fill:#091438;" points="42.481,254.122 99.221,243.745 44.703,262.591  "/>
	<polygon style="fill:#091438;" points="139.884,225.272 205.549,237.822 138.808,233.962  "/>
	<g>
		<path style="fill:#FF6C7E;" d="M179.87,340.454c0,3.19,2.873,5.782,6.416,5.782c3.542,0,6.416-2.592,6.416-5.782    c0-3.193-2.873-5.788-6.416-5.788C182.743,334.666,179.87,337.26,179.87,340.454z"/>
		<path style="fill:#FF6C7E;" d="M191.849,371.101c3.679,4.679,9.833,4.493,13.733-0.413c3.906-4.903,4.086-12.668,0.395-17.351    c-3.679-4.668-9.827-4.476-13.733,0.422C188.344,358.668,188.167,366.427,191.849,371.101z"/>
		<path style="fill:#091438;" d="M179.02,342.737c2.616,0.054,7.392-1.718,9.682-2.92c0,0,3.202-3.274,3.202-3.274l1.852-4.368    c6.434,6.954,7.689,11.504,9.751,20.448c-0.277,8.714-1.774,21.278-12.24,23.19L179.02,342.737z"/>
		<path style="fill:#091438;" d="M204.13,355.472c-0.052,2.568-0.41,5.328-1.178,8.268c-5.368,20.573-21.474,9.306-21.474,9.306    s15.257,9.175,19.945-9.589c4.688-18.764-7.611-30.051-7.611-30.051c-5.22,16.124-26.235,7.983-26.235,7.983    s20.16,6.049,26.078-10.025C193.655,331.365,204.43,340.029,204.13,355.472"/>
		<path style="fill:#091438;" d="M190.839,333.198c0,0,2.917-1.916,7.69-0.355c0,0-4.339-3.24-7.69-1.477V333.198z"/>
		<path style="fill:#FFFFFF;" d="M193.349,334.672c0,0-4.886,10.016-13.48,8.745l2.975,5.872l15.684-7.303    C198.529,341.986,196.627,334.463,193.349,334.672z"/>
		<path style="fill:#FF6C7E;" d="M193.966,373.457c0,0,6.843-1.64,8.457-16.414C202.423,357.042,192.666,361.832,193.966,373.457z"/>
	</g>
	<polygon style="fill:#FFC524;" points="355.086,322.187 344.291,310.935 355.086,295.902 366.175,309.042  "/>
</g>















</svg>
