<?xml version="1.0" encoding="UTF-8"?>
<!-- Generator: Adobe Illustrator 25.3.1, SVG Export Plug-In . SVG Version: 6.00 Build 0)  -->
<svg xmlns="http://www.w3.org/2000/svg" xmlns:xlink="http://www.w3.org/1999/xlink" version="1.1" id="Capa_1" x="0px" y="0px" viewBox="0 0 512 512" style="enable-background:new 0 0 512 512;" xml:space="preserve" width="512" height="512">
<g>
	<g>
		<g>
			<g>
				<g>
					<path style="fill:#FFBBEC;" d="M216.473,236.17c-6.568-9.318-13.761-23.964-18.368-33.783       c-10.6-22.593-9.091-23.894-11.549-20.902c-6.654,8.099-6.275,7.951-6.866,8.256c-0.876,0.452,0.128-0.961,0.213-1.141       c0.862-1.85,2.738-3.596,4.017-5.157c5.767-7.036,11.734-13.909,17.641-20.827c7.999-9.369,15.98-18.753,23.899-28.189       c22.705-27.058,40.171-41.231,40.146-52.57c-0.117-52.64,0.734-48.895-1.174-49.714c2.228-1.798,1.754-3.307,1.722-12.116       c-0.011-2.871-1.137-3.577-2.927-2.737c-1.76,0.825-3.127,2.059-4.296,3.615c-2.749,3.659-4.63,7.741-6.102,12.037       c-3.791,11.066-4.869,22.376-6.818,33.816c-4.261,25.019-20.953,29.078-31.127,35.147c-5.827,3.476-11.59,7.06-17.308,10.713       c-8.744,5.587-17.453,11.276-25.889,17.323c-0.722,0.518-1.443,1.038-2.154,1.571c-10.111,7.575-19.172,14.844-24.524,25.297       c-2.541,4.962-3.044,12.46-2.757,13.64c0.749,3.084-0.662,0.37,3.518,20.979c4.561,22.486,1.093,14.268,22.773,95.562       c11.059,41.467,10.39,41.55,11.336,43.866c1.288,3.155,26.977-21.393,38.418-63.345c3.083-11.305,3.601-18.123,4.268-23.15       C222.754,242.944,221.024,242.626,216.473,236.17z"/>
					<path style="fill:#FFBBEC;" d="M355.671,321.101c7.878-32.134,26.621-95.413,33.859-143.307       c0.432-2.856,1.205-5.681,0.894-8.351c0.164-4.112-0.491-7.801-1.967-11.376c-1.71-4.143-4.272-7.72-7.184-11.051       c-6.384-7.304-14.522-13.204-22.352-18.84c-10.336-7.44-21.064-14.342-31.967-20.918c-5.094-3.072-10.236-6.064-15.428-8.967       c-7.241-4.047-13.608-7.341-18.415-14.313c-4.4-6.383-6.668-13.873-7.388-21.55c-3.87-41.269-18.712-49.242-18.807-43.6       c-0.212,12.655-0.206,11.492,0.992,13.318c-1.676,1.403-0.977-1.799-1.084,50.01c-0.015,7.108,7.034,14.267,11.371,19.219       c16.067,18.346,3.156,2.252,29.145,33.253c5.629,6.715,11.317,13.38,17.073,19.987c5.507,6.32,10.991,12.658,16.378,19.081       c6.817,8.128,13.217,15.609,12.823,15.82c-0.109,0.059-0.285,0.156-0.346,0.112c-1.129-0.795-5.678-6.792-7.626-8.96       c-2.334-2.597-6.145,16.375-23.892,46.955c-9.142,15.752-11.691,14.346-11.298,17.287c2.14,16.016,4.98,29.405,13.615,47.935       c5.874,12.606,14.043,25.563,24.261,35.004c1.113,1.028,2.298,1.982,3.49,2.92c0.772,0.607,1.253,0.451,1.573-0.429       C353.652,329.624,353.871,328.439,355.671,321.101z"/>
					<path style="fill:#FFBBEC;" d="M272,256.101c-9.261,0.559-19.942-0.316-30.73-3.111c-2.11-0.547-3.485-1.28-3.365,0.307       c0.967,12.801,10.56,46.002,21.401,53.121c2.173,1.427,4.565,2.246,7.288,2.467c0.702-0.12,1.525-0.219,2.327-0.406       c2.823-0.658,5.297-1.991,7.274-4.112c9.487-10.172,16.954-35.619,18.678-49.773C295.524,249.264,294.357,254.752,272,256.101z       "/>
				</g>
				<path style="fill:#FFCF00;" d="M183.283,346.067c-3.233-15.301-4.162-12.457-0.166-15.643      c8.834-7.043,16.659-18.58,22.089-28.439c16.404-29.777,17.891-55.899,17.909-55.991c0.225-1.144,1.141-0.967,2.052-0.217      c7.667,6.315,11.889,3.727,12.03,8.462c0.212,7.127,6.773,32.851,15.531,46.164c7.896,12.002,18.792,11.742,26.084,2.053      c8.762-11.641,16.146-37.21,17.126-49.627c0.071-0.901,0.548-1.351,1.343-1.616c18.855-6.285,8.099-15.748,16.288,15.165      c5.358,20.228,15.807,42.447,30.188,58.041c7.487,8.118,9.454,6.861,8.814,9.481c-7.573,31.025-11.169,55.8-5.707,92.792      c3.299,22.346,5.33,20.732,0.107,25.276c-22.602,19.665-54.005,29.918-83.807,29.121c-27.104-0.725-59.461-11.557-78.954-31.112      c-2.705-2.714-0.25-8.639,0.287-11.767C189.743,407.673,189.895,377.363,183.283,346.067z"/>
				<g>
					<path style="fill:#FD8A02;" d="M345.044,436.796c-0.61-0.738-1.704-0.842-2.442-0.232       c-10.778,8.837-22.819,15.927-35.666,20.783c-12.848,4.842-26.533,7.318-40.207,7.216c-13.684-0.017-27.318-2.676-40.213-7.433       l-4.79-1.925c-1.592-0.656-3.229-1.222-4.734-2.069c-3.043-1.615-6.208-3.034-9.173-4.81c-2.935-1.822-5.964-3.531-8.853-5.458       c-2.788-2.065-5.612-4.1-8.468-6.121l-0.122-0.086c-0.667-0.468-1.595-0.371-2.149,0.253c-0.596,0.672-0.534,1.7,0.137,2.296       c2.67,2.368,5.372,4.722,8.11,7.046c2.821,2.211,5.807,4.215,8.719,6.339c1.431,1.106,3.076,1.865,4.617,2.798l4.701,2.682       c1.538,0.956,3.216,1.633,4.852,2.4l4.935,2.257c13.333,5.649,27.849,8.614,42.4,8.735c14.549,0.067,29.136-2.732,42.512-8.374       c13.412-5.554,25.572-13.851,35.72-23.962C345.55,438.505,345.617,437.489,345.044,436.796z"/>
					<path style="fill:#FD8A02;" d="M246.161,316.775c2.676,2.636,5.845,4.916,9.407,6.523c3.535,1.562,7.591,2.422,11.585,2.214       c8.018-0.555,15.009-4.583,20.299-9.777c5.393-5.31,8.873-11.858,11.503-18.45c5.188-13.336,6.804-27.317,7.698-41.045       c0.051-0.819-0.522-1.57-1.349-1.713c-0.888-0.154-1.732,0.441-1.885,1.329l-0.004,0.02       c-1.168,6.743-2.277,13.466-3.911,20.029c-1.564,6.567-3.515,13.005-6.149,19.053c-2.721,5.974-5.964,11.758-10.548,15.975       c-2.282,2.128-4.802,3.992-7.527,5.348c-2.729,1.328-5.63,2.176-8.511,2.34c-2.869,0.147-5.7-0.408-8.453-1.582       c-2.709-1.197-5.199-2.971-7.454-5.097c-4.517-4.301-7.91-9.999-10.719-15.953c-2.765-6.005-4.917-12.385-6.649-18.894       c-1.809-6.5-3.055-13.17-4.117-19.88l-0.006-0.038c-0.14-0.864-0.912-1.501-1.806-1.452c-0.956,0.052-1.689,0.87-1.637,1.826       c0.754,13.851,3.117,27.766,8.56,40.93C237.226,305.028,240.861,311.422,246.161,316.775z"/>
				</g>
				<g style="opacity:0.35;">
					<path style="fill:#FC09B2;" d="M196.76,247.758c2.548,12.28-1.862,28.078-10.137,37.181c-1.008,1.109-2.808-0.029-2.239-1.415       c2.374-5.782,4.568-10.963,6.314-17.46c4.299-15.005,2.374-19.691,5.009-19.3C196.246,246.844,196.654,247.255,196.76,247.758z       "/>
					<path style="fill:#FC09B2;" d="M341.872,265.853c2.308,8.311,6.946,17.17,6.87,17.016c0.659,1.336-1.049,2.606-2.138,1.564       c-9.138-8.78-13.549-24.756-10.383-36.869c0.357-1.365,2.344-1.2,2.483,0.194C338.704,247.758,340.025,259.608,341.872,265.853       z"/>
				</g>
				<path style="opacity:0.5;fill:#FD8A02;" d="M295.056,440.604c37.5-33.853,19.549-73.908,56.803-107.141      c4.211-3.758-12.155,32.419-6.412,81.844c3.919,33.728,7.322,31.624,1.764,36.451c-41.537,36.071-104.14,38.83-151.344,7.352      c-0.892-0.594-1.245-0.885-0.643-1.545c4.623-5.062,11.833-7.5,18.615-8.635C244.187,443.848,268.7,464.396,295.056,440.604z"/>
				<path style="opacity:0.75;fill:#FFFFFF;" d="M198.249,338.647c8.287,19.446,12.002,51.547,2.683,79.719      c-0.263,0.796-1.122,1.228-1.917,0.965c-1.24-0.411-1.052-1.859-1.02-1.708c3.133-24.428,4.334-45.985-2.438-78.046      l-0.016-0.075c-0.163-0.771,0.33-1.528,1.101-1.691C197.32,337.667,197.987,338.033,198.249,338.647z"/>
			</g>
			<g>
				<path style="fill:#000E3F;" d="M237.579,402.459l-0.037-0.03c-0.218-1.045-0.549-2.813-0.462-4.126      c0.424-0.415,2.642-0.294,3.954-0.809c-0.214-1.613-0.18-3.121-0.576-4.581l-0.005-0.033c-1.357,0.118-2.741,0.305-4.072,0.354      l-0.035-0.029c-0.431-1.156-0.287-2.575-0.464-3.858l0.028-0.037l0.099-0.011c2.877-0.588,5.872-0.421,8.606-1.361      c-0.006-0.156-0.187-3.441-0.527-4.721c-0.023-0.198-8.558,0.888-13.644,1.723c0.413,7.607,1.633,14.924,2.486,22.582      c4.302-0.112,9.048-0.976,13.543-1.444c0.262-1.656-0.053-3.214-0.228-4.42C243.253,402.094,240.482,402.134,237.579,402.459z"/>
				<path style="fill:#000E3F;" d="M259.296,393.839C259.913,396.082,259.608,394.95,259.296,393.839L259.296,393.839z"/>
				<path style="fill:#000E3F;" d="M259.296,393.839c-0.448-1.627-1.378-5.019-3.155-11.531c-2.912,0.38-3.449,0.203-4.078,0.326      c-2.766,10.75-3.933,22.465-4.165,23.372c0.012,0.011,4.567-0.071,4.719-0.119c0.032-0.002,0.062-0.036,0.098-0.037      c0.705-1.492,0.698-4.185,1.239-5.602c0.997-0.039,0.927-0.169,2.062-0.047c0.648,1.27,1.184,3.942,1.772,5.348      c0.791,0.068,2.654,0.4,4.487-0.044C258.234,390.183,258.766,391.949,259.296,393.839z M253.568,396.34      c0.662-6.842,0.676-11.497,2.456-0.097C255.197,396.276,254.334,396.343,253.568,396.34z"/>
				<path style="fill:#000E3F;" d="M276.642,395.053c-3.048-4.698-7.01-2.673-7.781-5.111c-0.314-3.7,4.777-2.51,4.15,0.037      c1.892,0.573,3.869,0.262,5.016,0.159c0.712-3.305-0.597-5.497-2.693-6.645c-2.102-1.017-5.183-1.392-7.361-0.549      c-6.397,2.464-5.633,11.679-0.255,12.817c1.852,0.411,4.468,0.775,4.679,2.907c0.456,3.102-4.393,2.914-4.486,0.088      c-1.497-0.004-3.515-0.287-5.08-0.093l-0.002,0.1l-0.004,0.099c-0.37,4.21,3.785,6.805,7.665,7.001      C277.323,406.283,279.348,398.694,276.642,395.053z"/>
				<path style="fill:#000E3F;" d="M291.413,384.223c-0.965,1.708-2.329,5.413-3.375,6.913c-0.633-1.731-1.598-5.495-1.837-7.488      c-1.149-0.676-3.047-0.364-4.394-0.497c0.529,3.824,2.471,7.851,3.054,11.813l-0.006,0.066      c-1.93,3.717-3.943,7.558-5.448,11.016c0.172,0.009,4.586,0.388,4.798,0.435c3.403-7.51,8.735-14.266,11.953-21.928l0.002-0.033      C295.013,384.262,292.402,384.117,291.413,384.223z"/>
				<path style="fill:#000E3F;" d="M302.53,385.171c-0.9-0.419-2.674-0.543-4.149-0.545c-1.243,5.928-1.726,11.698-2.68,17.467      c1.038,0.142,3.254,0.431,4.297,0.465C300.563,396.9,301.602,390.775,302.53,385.171z"/>
				<path style="fill:#000E3F;" d="M295.752,403.812c-0.039,0.153-0.913,3.828-0.671,3.864c1.477,0.209,2.176,0.256,4.011,0.591      c0.188-1.282,0.465-2.718,0.679-3.929C298.488,404.149,296.866,403.54,295.752,403.812z"/>
				<path style="fill:#000E3F;" d="M233.58,352.831c-0.03-1.611-0.367-3.675-0.704-5.101c-4.57,0.247-9.428,1.213-13.881,1.978      c0.057,0.267,0.603,4.603,1.023,5.185c0.552,0.078,2.895-0.611,3.996-0.254l0.038,0.027c2.533,12.139,2.938,17.053,3.102,17.431      c1.532-0.521,3.775-0.587,5.338-1.112c-3.489-19.114-2.529-13.716-3.008-17.48C230.962,353.186,232.634,352.799,233.58,352.831z      "/>
				<path style="fill:#000E3F;" d="M239.547,364.654c0.99-0.105,0.91-0.231,2.048-0.187c0.734,1.225,1.449,3.855,2.129,5.218      c0.794,0.015,2.665,0.222,4.473-0.345c0.05,0.151-1.955-6.243-7.673-22.729c-2.879,0.575-3.427,0.433-4.048,0.598      c-2.038,10.909-2.416,22.674-2.586,23.594c0.151,0.12,0.735-0.054,4.793-0.479C239.288,368.791,239.098,366.105,239.547,364.654      z M241.343,360.521c-0.825,0.088-1.681,0.212-2.444,0.262C239.1,353.912,238.803,349.267,241.343,360.521z"/>
				<path style="fill:#000E3F;" d="M254.44,368.928c-0.087-2.49-0.411-6.002-0.404-8.563c1.484,2.408,2.955,6.444,4.891,8.502      c1.429-0.017,3.197,0.118,4.612-0.231l-6.099-11.583c1.461-3.776,4.318-7.599,5.244-11.357c-1.433-0.18-3.084,0.111-4.516,0.062      c-1.765,2.69-2.596,5.479-4.37,7.968c-0.097,0.103-0.158,0.238-0.158,0.205c-0.192-2.519-0.161-5.445-0.351-7.965      c-1.429,0.051-2.992,0.008-4.452,0.093c0.311,7.735,0.12,15.453,0.755,23.043C250.767,369.326,253.259,369.303,254.44,368.928z"/>
				<path style="fill:#000E3F;" d="M278.958,369.132c0.492-1.588,0.41-3.188,0.412-4.407c-3.027-0.001-5.772-0.358-8.693-0.454      l-0.034-0.033c-0.064-1.066-0.14-2.864,0.137-4.151c0.475-0.349,2.654,0.088,4.03-0.232c0.02-1.628,0.269-3.115,0.084-4.618      l0.002-0.032c-1.359-0.078-2.753-0.09-4.079-0.234l-0.032-0.034c-0.259-1.205,0.083-2.591,0.096-3.885l0.033-0.033l0.099,0.004      c2.933-0.169,5.87,0.427,8.712-0.112c0.016-0.155,0.309-3.43,0.157-4.748c0.006-0.199-8.595-0.349-13.752-0.254      c-0.682,7.589-0.526,15.007-0.783,22.708C269.617,369.123,274.44,368.949,278.958,369.132z"/>
				<path style="fill:#000E3F;" d="M288.82,370.286c0.957-0.152,5.228,1.063,6.038,0.424c0.352-5.64,2.778-22.869,2.801-23.02      l-0.795-0.096c-2.894-0.298-4.593-0.771-4.96-0.762l-0.008,0.066C290.218,354.192,290.402,362.411,288.82,370.286z"/>
				<path style="fill:#000E3F;" d="M308.809,354.973c1.493,0.185,3.211,0.374,4.089,0.716c0.503-1.53,0.865-3.591,1.021-5.046      c-4.397-1.275-9.301-1.965-13.753-2.71c-0.086,0.458-0.943,4.585-0.748,5.23c0.496,0.255,2.934,0.378,3.858,1.079l0.026,0.039      c-1.612,12.291-2.852,17.065-2.823,17.474c1.616,0.013,3.758,0.691,5.405,0.71C309.196,350.933,308.678,355.892,308.809,354.973      z"/>
				<path style="fill:#000E3F;" d="M350.944,439.505c-0.889-4.867-2.239-12.195-3.576-23.752      c-4.683-40.653,5.262-77.498,17.873-124.148c7.361-27.331,15.752-58.315,23.003-96.184c0.452-2.373,0.889-4.606,1.304-6.677      c2.73-13.705,4.205-21.248,1.307-29.565c-1.346-3.842-3.455-7.537-6.272-11.023c-5.586-6.912-12.755-12.589-19.806-17.921      c-8.568-6.479-17.517-12.451-26.59-18.194c-7.912-5.009-15.942-9.832-24.053-14.512c-10.022-5.783-19.767-8.916-24.659-25.386      c-2.214-7.453-2.538-15.248-3.891-22.869c-7.677-43.252-29.499-48.749-38.865,0.811c-1.288,6.818-1.929,13.742-3.614,20.484      c-4.832,19.329-15.273,21.107-37.361,34.598c-12.169,7.44-22.989,14.611-33.061,21.944l-0.361,0.259      c-7.799,5.665-15.851,11.548-22.28,18.753c-8.806,9.926-11.337,19.936-8.476,33.509c1.191,5.673,5.562,29.336,6.445,33.287      c8.589,38.051,16.233,66.483,22.346,89.338c16.117,59.982,22.13,82.425,10.957,143.689c-0.666,3.732,1.646,5.681,5.163,8.643      c19.459,16.445,53.15,28.458,80.101,28.547c0.102-0.02,0.197-0.016,0.315-0.007c27.993-0.026,65.162-14.105,83.032-31.455      C352.703,448.969,352.346,447.161,350.944,439.505z M268.728,18.968c3.868-0.93,12.742,17.077,15.024,38.253      c3.172,29.426,12.887,33.594,22.659,39.104c14.238,8.029,31.623,18.633,44.699,27.688l1.536,1.034      c17.752,12.261,39.881,27.51,36.664,47.04c-7.011,42.649-11.666,62.76-31.118,134.556c-2.509,9.247-3.809,15.06-4.591,18.518      c-0.619,2.711-1.004,4.502-1.299,4.611c-0.022-0.006-0.073,0.003-0.287-0.177c-1.062-0.756-2.108-1.651-3.457-2.921      c-17.565-16.512-29.077-43.845-34.003-63.914c-1.889-7.721-2.265-11.505-2.585-14.553c-0.119-1.284-0.244-2.377-0.439-3.562      c-0.12-0.683-0.114-0.706,1.399-2.491c0.75-0.87,1.867-2.191,3.443-4.199c10.201-12.827,26.529-51.337,28.353-55.68l0.085-0.216      c0.066-0.15,0.151-0.366,0.205-0.471c0.038,0.035,0.099,0.076,0.147,0.161c2.229,2.671,3.714,4.484,4.761,5.717      c2.223,2.694,2.255,2.751,2.816,3.149c0.478,0.351,1.158,0.326,1.631-0.07c0.472-0.396,0.575-1.016,0.306-1.597      c-0.657-1.339-8.17-10.091-19.536-23.342c-8.863-10.362-17.728-20.722-26.509-31.153c-47.236-56.109-40.503-42.225-40.47-68.882      c0.006-5.056-0.012-10.113-0.05-15.169c-0.035-4.696-0.501-9.642,0.047-14.323c0.057-0.488,0.156-1.77,0.841-0.997      c4.147,4.654,5.925,16.696,5.897,22.939c-0.061,9.264-0.381,11.938,1.364,11.973c2.076,0.056,1.525-4.475,1.535-10.146      l-0.067-0.019c-0.01-27.965-9.829-26.307-9.749-32.054C268.111,19.708,267.62,19.233,268.728,18.968z M249.724,252.986      c-27.775-5.443-31.649-10.212-59.516-72.951l-0.09-0.194c-0.365-0.752-0.359-0.774,5.465-7.453      c3.633-4.166,7.253-8.343,10.848-12.541c6.519-7.615,12.975-15.285,19.397-22.982c35.555-42.631,40.287-48.858,41.493-47.417      c4.032,4.811,5.569,8.445,15.724,19.438c9.945,13.091,26.86,31.675,43.82,51.359c4.923,5.738,9.853,11.454,14.646,17.06      c0.179,0.219,0.326,0.38,0.473,0.542c1.06,1.188,1.06,1.188-0.138,3.904c-0.47,1.07-0.964,2.229-1.494,3.426      c-7.201,16.605-20.586,47.481-32.622,58.204C297.479,252.54,270.37,257.022,249.724,252.986z M275.311,303.759      c-4.994,5.013-11.612,5.289-16.839,0.715c-9.087-7.945-17.958-36.627-19.312-49.149c-0.06-0.81-0.114-1.643,0.012-1.752      c0.121-0.086,0.767,0.096,1.301,0.247c10.757,3.126,22.369,4.064,35.488,2.902c8.586-0.779,13.267-2.033,15.786-2.694      c1.099-0.316,2.032-0.557,2.185-0.418c0.137,0.111,0.019,0.871-0.105,1.653l-0.028,0.184      C291.668,269.584,284.305,294.703,275.311,303.759z M181.097,329.757c-0.092,0.07-0.225,0.201-0.225,0.201      c-0.414-0.237-1.285-3.632-3.583-12.718c-2.011-7.971-5.405-21.358-10.977-42.378c-14.253-53.88-16.342-65.84-18.012-75.447      c-0.478-2.828-0.955-5.487-1.667-8.933l-0.336-1.537c-4.607-22.143-6.934-33.257,19.673-53.46      c6.147-4.664,13.045-9.525,21.753-15.344c9.721-6.483,19.565-12.808,29.704-18.622c13.011-7.461,23.386-10.159,28.706-29.049      c2.547-9.044,4.117-45.435,16.99-53.495c0.377-0.23,0.998,0.041,1.06,0.419c0.035,0.13,0.138,0.279,0.129,0.396      c0.075,9.638,0.537,9.961-1.577,11.746c-4.284,3.602-6.389,10.991-7.338,16.494c-1.142,6.531-0.803,13.094-0.727,19.655      c0.026,1.017,0.387,2.297,1.414,2.322c3.485,0.091-0.925-10.888,3.648-27.464c1.088-3.949,4.508-10.199,4.603-6.013      c0.073,3.411-0.045,37.037,0.103,45.133c0.122,6.894-2.673,8.552-9.126,15.402c-7.876,8.359-14.812,17.615-22.13,26.46      c-7.042,8.51-14.131,16.981-21.257,25.42c-4.009,4.747-8.022,9.49-12.058,14.213c-11.441,13.391-20.452,23.957-21.536,25.671      c-0.541,0.81-0.283,1.604,0.166,1.97c0.472,0.374,1.279,0.408,2.014-0.322c0.203-0.208,1.035-1.2,2.649-3.173      c1.073-1.333,2.493-3.048,4.218-5.159c0.209-0.23,0.323-0.294,0.368-0.281c0.022,0.006,0.149,0.066,0.313,0.425      c0.484,1.098,1.094,2.52,1.815,4.142c6.205,14.25,19.13,43.905,30.426,56.126c0.881,0.969,1.202,1.877,1.07,3.114      c-4.152,37.275-23.708,71.029-40.018,83.866C181.259,329.61,181.167,329.68,181.097,329.757z M342.785,454.133      c-10.298,8.135-23.383,14.644-40.008,19.891c-7.528,2.4-13.87,4.003-19.989,5.069c-20.049,3.49-45.352-0.656-69.444-11.409      c-7.709-3.446-15.467-8.083-23.676-14.194c-0.714-0.538-1.387-1.136-2.066-1.712c-0.52-0.459-1.04-0.918-1.572-1.333      c-2.611-2.082-2.012-5.063-0.535-12.268c2.05-10.097,5.465-27,3.919-59.244c-0.628-13.136-5.751-37.372-7.81-44.828      c-0.197-0.753-0.084-1.154,0.525-1.607c20.931-15.839,37.466-53.377,41.357-80.508c0.136-0.996,0.225-1.908,0.321-2.675      c0.144-1.282,0.304-2.703,0.533-2.831c0,0,0.095,0.003,0.287,0.177c2.019,1.795,4.462,2.94,6.627,3.958      c1.235,0.564,2.168,0.923,2.868,1.169c1.461,0.532,1.76,0.664,1.876,1.706c1.57,15.085,9.313,39.409,17.866,50.185      c3.6,4.548,7.846,6.97,12.291,7.068c0.073-0.004,0.146-0.007,0.241-0.004c4.33-0.007,8.581-2.296,12.281-6.639      c4.048-4.726,6.751-10.481,8.67-14.989c4.931-11.618,8.211-23.774,9.487-35.22c0.169-1.539,1.191-1.925,3.229-2.673      c2.146-0.79,5.048-1.873,8.727-4.948c0.065,0.283,0.14,0.953,0.219,1.697c0.239,2.568,0.777,7.912,3.132,17.135      c5.619,21.707,15.87,42.506,28.153,57.025c5.508,6.48,10.433,10.079,10.471,10.114c1.026,0.625,1.02,0.816-0.041,5.182      c-0.683,2.765-1.716,6.946-3.029,13.741c-6.978,36.214-5.226,58.419,1.388,94.519      C349.579,448.449,348.414,449.684,342.785,454.133z"/>
			</g>
		</g>
		<g>
			<g>
				<g>
					<path style="fill:#FFBBEC;" d="M245.16,257.095c1.681-8.19,2.66-14.738,3.218-19.661c0.729-6.361,0.788-10.048,0.913-11.127       c0.031-0.203-0.252-20.923,11.195-28.418c11.291-7.401,23.149,7.466,23.182,28.358c0.003,3.282,0.334,7.204,0.853,11.25       c0.865,6.922,2.247,14.249,3.314,19.561c-5.227,1.499-12.631,3.028-21.575,3.008       C257.546,260.047,250.314,258.563,245.16,257.095z"/>
					<path style="opacity:0.35;fill:#FC09B2;" d="M284.522,237.497c-4.432,6.27-10.867,10.229-18.039,10.235       c-7.204,0.006-13.661-3.973-18.104-10.298c0.729-6.36,0.788-10.048,0.913-11.127c0.031-0.203-0.252-20.923,11.195-28.418       c11.291-7.401,23.149,7.465,23.182,28.357C283.671,229.528,284.003,233.45,284.522,237.497z"/>
				</g>
				<path style="fill:#000E3F;" d="M245.163,258.658c-0.104,0-0.211-0.01-0.318-0.032c-0.846-0.173-1.389-1-1.216-1.845      c1.456-7.092,2.531-13.66,3.197-19.523c0.51-4.456,0.688-7.563,0.793-9.419c0.047-0.807,0.08-1.376,0.119-1.71      c0.061-5.152,1.124-22.497,11.891-29.547c4.02-2.638,8.476-2.882,12.546-0.688c7.786,4.199,13.032,16.396,13.055,30.351      c0.003,3.006,0.285,6.725,0.841,11.054c0.678,5.423,1.754,11.784,3.294,19.453c0.17,0.846-0.379,1.67-1.224,1.839      c-0.855,0.171-1.671-0.379-1.84-1.224c-1.556-7.745-2.644-14.18-3.331-19.675c-0.572-4.454-0.863-8.305-0.866-11.443      c-0.02-12.639-4.713-23.991-11.414-27.604c-3.098-1.668-6.244-1.484-9.349,0.552c-9.723,6.365-10.441,23.584-10.487,26.971      c-0.003,0.223-0.016,0.349-0.02,0.372c-0.029,0.246-0.056,0.755-0.096,1.478c-0.108,1.889-0.289,5.053-0.81,9.595      c-0.676,5.954-1.766,12.615-3.24,19.797C246.539,258.148,245.889,258.657,245.163,258.658z"/>
			</g>
			<g>
				<g>
					<g>
						<g>
							<path style="fill:#DB5E43;" d="M286.584,199.168c7.577-12.287,23.411-11.739,30.359,0.534         c6.825,12.055,1.826,29.298-13.149,32.236C289.794,234.684,276.72,215.165,286.584,199.168z"/>
							<path style="opacity:0.45;fill:#000E3F;" d="M312.45,202.511c1.394,2.228,2.079,4.948,2.02,7.66         c-0.036,2.722-0.837,5.424-2.187,7.795c-1.378,2.357-3.311,4.387-5.606,5.809c-2.279,1.438-4.888,2.29-7.485,2.434         c-0.547,0.03-1.015-0.388-1.045-0.935c-0.024-0.431,0.231-0.814,0.609-0.971l0.028-0.012         c2.181-0.903,4.163-1.992,5.881-3.375c1.705-1.388,3.164-3.033,4.238-4.908c1.105-1.855,1.818-3.932,2.145-6.09         c0.316-2.167,0.202-4.412-0.299-6.699l-0.003-0.015c-0.11-0.504,0.209-1.002,0.713-1.112         C311.854,202.007,312.246,202.187,312.45,202.511z"/>
						</g>
						<path style="fill:#000E3F;" d="M301.154,233.759c-5.722,0.005-11.358-3.172-15.219-8.744c-4.38-6.321-6.86-16.646-0.68-26.667        l0,0c3.874-6.284,9.982-9.805,16.697-9.687c6.667,0.124,12.781,3.964,16.352,10.271c3.871,6.838,4.256,15.481,1.002,22.555        c-2.934,6.38-8.335,10.636-15.212,11.985C303.118,233.663,302.133,233.758,301.154,233.759z M287.914,199.987        c-5.388,8.739-3.229,17.739,0.589,23.247c3.804,5.49,9.548,8.238,14.99,7.17c5.864-1.15,10.471-4.782,12.973-10.224        c2.841-6.178,2.502-13.73-0.883-19.71c-3.02-5.335-8.138-8.582-13.69-8.686C296.345,191.655,291.194,194.669,287.914,199.987        L287.914,199.987z"/>
					</g>
					<g>
						<g>
							<path style="fill:#DB5E43;" d="M246.312,199.202c-7.597-12.274-23.43-11.699-30.358,0.586         c-6.805,12.067-1.776,29.302,13.204,32.214C243.162,234.724,256.203,215.182,246.312,199.202z"/>
							<path style="opacity:0.45;fill:#000E3F;" d="M222.154,203.296c-0.497,2.287-0.608,4.533-0.288,6.699         c0.332,2.158,1.048,4.234,2.156,6.087c1.076,1.873,2.538,3.515,4.246,4.901c1.721,1.38,3.705,2.466,5.887,3.365l0.026,0.011         c0.506,0.208,0.748,0.788,0.539,1.295c-0.165,0.4-0.562,0.634-0.97,0.612c-2.598-0.14-5.207-0.988-7.489-2.421         c-2.297-1.418-4.234-3.445-5.616-5.8c-1.355-2.369-2.159-5.07-2.2-7.792c-0.065-2.712,0.617-5.433,2.007-7.663         c0.273-0.438,0.849-0.572,1.286-0.299c0.344,0.214,0.5,0.615,0.419,0.989L222.154,203.296z"/>
						</g>
						<path style="fill:#000E3F;" d="M231.8,233.817c-0.981,0.001-1.964-0.092-2.941-0.282c-6.879-1.337-12.287-5.584-15.23-11.959        c-3.266-7.069-2.896-15.712,0.964-22.557c3.559-6.313,9.666-10.163,16.333-10.299c6.789-0.152,12.83,3.383,16.715,9.658l0,0        c6.196,10.01,3.735,20.339-0.635,26.667C243.154,230.625,237.523,233.812,231.8,233.817z M231.288,191.842        c-0.099,0-0.199,0.001-0.299,0.004c-5.552,0.113-10.662,3.369-13.673,8.709c-3.376,5.986-3.701,13.539-0.85,19.712        c2.51,5.438,7.124,9.061,12.989,10.201c5.441,1.058,11.184-1.699,14.979-7.196c3.807-5.515,5.951-14.518,0.549-23.248l0,0        C241.753,194.807,236.774,191.837,231.288,191.842z"/>
					</g>
				</g>
				<g>
					<g>
						<g>
							<path style="fill:#FFBBEC;" d="M302.61,185.304c0.005,6.034-1.438,12.695,4.201,12.69c16.737-0.014,19.182-23.634,6-23.623         C307.172,174.376,302.604,179.271,302.61,185.304z"/>
							<path style="fill:#FFBBEC;" d="M230.263,185.366c0.005,6.034,1.46,12.692-4.179,12.697         c-16.737,0.014-19.222-23.602-6.04-23.613C225.682,174.445,230.258,179.332,230.263,185.366z"/>
						</g>
						<g style="opacity:0.35;">
							<path style="fill:#FC09B2;" d="M313.122,188.654c-2.936,1.866-3.886,0.588-3.293-0.29c0.98-1.451,2.249-2.505,4.188-5.093         c0.98-1.33,1.477-2.732,2.346-2.129C317.495,181.929,316.783,186.291,313.122,188.654z"/>
							<path style="fill:#FC09B2;" d="M218.852,183.351c1.387,1.843,2.131,2.55,2.693,3.232c1.206,1.364,1.609,2.008,1.503,1.852         c0.421,0.617-0.118,1.436-0.852,1.296c-3.624-0.704-6.825-4.725-5.983-8.083c0.153-0.613,0.953-0.747,1.306-0.242         C217.519,181.407,218.449,182.807,218.852,183.351z"/>
						</g>
					</g>
					<g>
						<path style="fill:#000E3F;" d="M306.812,199.557c-1.732,0.001-3.115-0.521-4.108-1.554c-2.037-2.12-1.893-5.761-1.739-9.616        c0.04-1.021,0.082-2.06,0.081-3.081c-0.006-6.885,5.271-12.492,11.762-12.497c3.132-0.003,5.742,1.16,7.551,3.364        c1.581,1.925,2.453,4.593,2.456,7.513C322.822,191.48,316.838,199.548,306.812,199.557z M312.812,175.934        c-4.769,0.004-8.644,4.207-8.64,9.369c0.001,1.063-0.042,2.145-0.084,3.208c-0.121,3.032-0.245,6.167,0.868,7.326        c0.142,0.148,0.574,0.596,1.853,0.595c8.373-0.007,12.886-6.571,12.881-12.744c-0.002-2.199-0.622-4.164-1.746-5.533        C316.733,176.679,315.006,175.932,312.812,175.934z"/>
						<path style="fill:#000E3F;" d="M226.085,199.625c-10.026,0.008-16.024-8.05-16.03-15.845        c-0.003-2.919,0.865-5.589,2.443-7.517c1.805-2.207,4.413-3.374,7.545-3.377c6.492-0.005,11.778,5.592,11.784,12.477        c0.001,1.021,0.044,2.06,0.086,3.081c0.161,3.855,0.312,7.496-1.722,9.619C229.199,199.098,227.817,199.624,226.085,199.625z         M220.045,176.013c-2.195,0.002-3.92,0.752-5.129,2.23c-1.122,1.371-1.738,3.337-1.736,5.536        c0.005,6.173,4.529,12.729,12.902,12.722c1.279-0.001,1.71-0.45,1.852-0.598c1.111-1.161,0.982-4.295,0.856-7.327        c-0.043-1.063-0.089-2.145-0.09-3.208C228.696,180.205,224.814,176.008,220.045,176.013z"/>
					</g>
				</g>
				<g>
					<g>
						<path style="fill:#FFBBEC;" d="M300.67,214.458c-5.325,8.677-17.92,21.095-34.035,21.296l-0.311,0        c-16.116-0.174-28.731-12.57-34.071-21.238c-9.775-15.868-7.595-47.388-0.423-62.489        c6.934-14.601,19.459-22.347,34.404-22.687c0.059-0.016,0.104-0.016,0.164-0.016c0.044,0,0.103,0,0.147,0.016        c14.946,0.315,27.484,8.04,34.443,22.629C308.184,167.057,310.417,198.574,300.67,214.458z"/>
						<g>
							<path style="fill:#DB5E43;" d="M278.033,164.628c0.019-7.886,18.284-4.195,16.434,3.22         C292.896,174.142,278.018,170.676,278.033,164.628z"/>
							<path style="fill:#DB5E43;" d="M254.805,164.648c-0.032-7.886-18.291-4.164-16.428,3.248         C239.958,174.187,254.829,170.696,254.805,164.648z"/>
						</g>
						<g style="opacity:0.35;">
							<path style="fill:#FC09B2;" d="M290.053,189.172c-5.466,0.005-9.911,3.645-9.907,8.115c0.004,4.47,4.455,8.102,9.921,8.098         c5.468-0.004,9.913-3.645,9.909-8.115C299.972,192.8,295.521,189.167,290.053,189.172z"/>
							<path style="fill:#FC09B2;" d="M242.959,189.212c-5.468,0.005-9.913,3.645-9.909,8.115s4.455,8.102,9.923,8.098         c5.466-0.004,9.911-3.645,9.907-8.115C252.877,192.84,248.425,189.207,242.959,189.212z"/>
						</g>
						<path style="fill:#FFFFFF;" d="M256.452,200.574c-0.867,0.001-1.507,0.81-1.323,1.657c1.487,6.817,6.056,11.637,11.264,11.673        c5.258,0.037,9.888-4.81,11.378-11.691c0.184-0.848-0.457-1.657-1.325-1.656L256.452,200.574z"/>
					</g>
					<g>
						<path style="fill:#000E3F;" d="M302.397,151.296c-7.064-14.808-19.76-23.158-35.757-23.517        c-0.18-0.021-0.278-0.037-0.565,0.002c-15.968,0.405-28.628,8.774-35.658,23.576c-6.905,14.542-10.143,46.695,0.505,63.979        c4.975,8.076,18.027,21.794,35.402,21.981l0.329,0c17.357-0.216,30.386-13.957,35.348-22.041        C312.618,197.973,309.327,165.825,302.397,151.296z M299.339,213.64c-4.628,7.539-16.728,20.352-32.706,20.551l-0.293,0        c-15.996-0.172-28.117-12.964-32.758-20.496c-9.167-14.882-7.682-45.539-0.34-60.999        c6.513-13.717,18.243-21.458,33.025-21.796c0.041-0.001,0.082-0.003,0.122-0.007c0.04,0.004,0.081,0.006,0.122,0.007        c14.784,0.312,26.527,8.033,33.064,21.74C306.944,168.087,308.481,198.741,299.339,213.64z"/>
						<path style="fill:#000E3F;" d="M290.755,175.068c-0.864,0.001-1.562,0.701-1.561,1.564c0.003,3.537-2.164,5.312-4.178,5.465        c-1.893,0.149-4.307-1.095-4.906-5.048c-0.129-0.853-0.918-1.445-1.779-1.312c-0.853,0.129-1.441,0.925-1.312,1.778        c0.816,5.395,4.366,7.72,7.7,7.717c0.179,0,0.356-0.006,0.531-0.02c3.517-0.266,7.073-3.299,7.069-8.584        C292.318,175.767,291.618,175.067,290.755,175.068z"/>
						<path style="fill:#000E3F;" d="M254.526,175.758c-0.855-0.132-1.648,0.462-1.777,1.315c-0.592,3.953-2.993,5.189-4.897,5.056        c-2.015-0.149-4.184-1.921-4.187-5.458c-0.001-0.863-0.7-1.562-1.564-1.561c-0.864,0.001-1.562,0.701-1.561,1.564        c0.004,5.285,3.566,8.312,7.083,8.572c0.176,0.014,0.353,0.02,0.531,0.02c3.334-0.003,6.88-2.335,7.688-7.73        C255.969,176.681,255.379,175.886,254.526,175.758z"/>
						<path style="fill:#000E3F;" d="M267.654,193.823c-1.588,0.001-5.033-0.791-5.895-2.089c-0.151-0.229-0.26-0.518-0.019-1.087        c0.098-0.235,6.166-14.622,6.166-14.622c0.335-0.795-0.036-1.712-0.832-2.047c-0.792-0.334-1.712,0.036-2.047,0.832        c-6.025,14.283-6.171,14.632-6.171,14.632c-0.761,1.804-0.257,3.183,0.299,4.021c1.925,2.898,7.195,3.486,8.501,3.485        c0.864,0,1.562-0.701,1.561-1.564C269.218,194.522,268.518,193.822,267.654,193.823z"/>
					</g>
				</g>
				<g>
					<g>
						<path style="fill:#DB5E43;" d="M296.2,117.32c1.041,3.662,0.211,3.715,3.457,3.728c19.398,0.072,31.715,27.7,21.068,46.56        c-2.171,3.846-4.599,6.963-9.576,7.126c-6.95,0.227-13.141-7.217-16.19-12.597c-5.273-9.303-5.39-14.947-5.976-16.945        c-0.493-1.684-1.587,1.434-6.206,4.765c-9.647,6.956-22.948,7.242-33.075-0.235c-4.043-2.985-4.516-4.912-5.25-4.95        c-1.591-0.082-0.976,16.946-15.73,27.487c-3.981,2.844-10.472,3.881-13.787-0.436c-15.962-20.785-1.172-50.861,18.084-50.715        c3.234,0.024,2.673-0.236,3.262-2.463C243.445,91.559,289.211,92.731,296.2,117.32z"/>
						<g style="opacity:0.45;">
							<path style="fill:#000E3F;" d="M244.559,116.886c-0.091,3.344-0.208,6.705,0.84,9.829c0.849,3.123,2.25,6.12,4.398,8.508         c2.107,2.369,4.563,4.519,7.51,5.756c2.89,1.291,6.023,2.052,9.197,2.05c3.163-0.068,6.307-0.729,9.225-2.034         c0.735-0.306,1.404-0.762,2.113-1.132c0.71-0.381,1.413-0.769,2.014-1.252c1.237-0.939,2.4-2.004,3.374-3.252         c1.995-2.46,3.354-5.476,4.179-8.647c0.88-3.172,1.144-6.525,1.039-9.877l0-0.014c-0.017-0.542,0.408-0.995,0.95-1.012         c0.499-0.016,0.922,0.343,1,0.823c0.574,3.522,0.502,7.153-0.132,10.726c-0.714,3.55-2.065,7.059-4.269,10.102         c-4.524,6.21-12.049,9.281-19.493,9.474c-3.753-0.041-7.461-0.947-10.83-2.546l-2.453-1.35l-2.241-1.674         c-0.78-0.517-1.371-1.257-2.042-1.899l-0.969-1.002c-0.304-0.35-0.557-0.745-0.836-1.115         c-2.32-2.909-3.758-6.429-4.495-9.987c-0.139-0.904-0.323-1.799-0.415-2.7l-0.046-2.716c-0.06-0.904,0.051-1.796,0.181-2.686         l0.379-2.652c0.071-0.502,0.536-0.85,1.038-0.778c0.466,0.067,0.8,0.473,0.787,0.933L244.559,116.886z"/>
							<path style="fill:#000E3F;" d="M253.759,108.157c-0.389,4.909,0.023,9.92,2.178,13.958c0.998,2.045,2.517,3.747,4.328,4.905         c1.788,1.166,3.902,1.902,6.04,1.772c2.129-0.048,4.213-0.768,6.021-1.968l1.301-1c0.412-0.363,0.754-0.811,1.141-1.208         c0.806-0.785,1.359-1.738,1.881-2.718c2.037-4.006,1.864-9.131,2.23-14.213c0.039-0.541,0.509-0.949,1.051-0.91         c0.487,0.035,0.866,0.42,0.908,0.891l0.001,0.016c0.225,2.498,0.452,5.026,0.474,7.664c-0.025,2.618-0.339,5.404-1.491,8.017         c-0.569,1.286-1.263,2.585-2.232,3.614c-0.469,0.53-0.896,1.101-1.412,1.591l-1.657,1.374         c-2.356,1.655-5.21,2.666-8.144,2.753c-5.959,0.182-11.462-3.934-13.53-9.087c-0.661-1.244-0.925-2.599-1.29-3.915         c-0.278-1.33-0.353-2.682-0.494-4.01c0.064-1.332,0.078-2.66,0.196-3.967c0.203-1.297,0.433-2.584,0.68-3.857         c0.097-0.499,0.58-0.826,1.08-0.729c0.465,0.09,0.78,0.515,0.743,0.977L253.759,108.157z"/>
							<path style="fill:#000E3F;" d="M234.609,130.096c2.428,2.979,3.358,7.033,3.157,10.797         c-0.158,3.809-1.256,7.449-2.763,10.823c-1.549,3.366-3.573,6.477-5.997,9.247c-2.412,2.766-5.268,5.225-8.634,6.851         c-0.489,0.236-1.077,0.031-1.313-0.458c-0.204-0.423-0.079-0.92,0.275-1.199l0.032-0.025         c2.651-2.094,4.888-4.669,6.921-7.365c1.994-2.728,3.788-5.621,5.167-8.682c1.409-3.041,2.454-6.238,2.892-9.471         c0.403-3.223,0.184-6.522-1.279-9.51l-0.008-0.017c-0.225-0.46-0.035-1.015,0.424-1.24         C233.878,129.656,234.343,129.769,234.609,130.096z"/>
							<path style="fill:#000E3F;" d="M261.631,103.515c0.316,2.328,0.54,4.628,1.24,6.482c0.363,0.91,0.816,1.647,1.371,2.02         c0.523,0.391,1.195,0.578,2.045,0.566c0.75,0.01,1.383-0.237,1.996-0.735c0.631-0.479,1.156-1.25,1.603-2.11         c0.846-1.752,1.286-3.924,1.066-5.932l-0.012-0.115c-0.059-0.54,0.331-1.025,0.87-1.084c0.422-0.046,0.811,0.184,0.989,0.543         c1.226,2.491,1.19,5.294,0.326,7.901c-0.441,1.313-1.192,2.596-2.338,3.675c-1.143,1.069-2.835,1.763-4.451,1.762         c-1.492-0.002-3.234-0.432-4.524-1.576c-1.273-1.138-1.932-2.602-2.23-3.936c-0.604-2.697-0.298-5.187,0.206-7.544         c0.108-0.505,0.605-0.826,1.109-0.718c0.395,0.085,0.678,0.408,0.73,0.786L261.631,103.515z"/>
							<path style="fill:#000E3F;" d="M225.872,134.978c0.572,3.817-0.058,7.784-1.534,11.415c-1.51,3.6-3.97,6.957-7.34,8.991         c-0.473,0.286-1.088,0.134-1.373-0.34c-0.209-0.347-0.184-0.77,0.032-1.083l0.012-0.017c2.041-2.965,3.749-5.875,5.068-9.059         c1.364-3.162,2.278-6.494,3.297-10.017l0.004-0.013c0.145-0.5,0.667-0.788,1.167-0.643         C225.566,134.319,225.818,134.626,225.872,134.978z"/>
							<path style="fill:#000E3F;" d="M300.214,131.048c-1.458,2.99-1.672,6.289-1.263,9.512c0.444,3.232,1.494,6.428,2.908,9.466         c1.385,3.058,3.184,5.948,5.182,8.673c2.037,2.692,4.279,5.264,6.933,7.353l0.031,0.025c0.427,0.336,0.501,0.955,0.165,1.381         c-0.291,0.369-0.793,0.474-1.199,0.278c-3.368-1.62-6.228-4.075-8.645-6.837c-2.428-2.766-4.458-5.874-6.012-9.237         c-1.512-3.372-2.617-7.01-2.781-10.818c-0.208-3.764,0.715-7.82,3.139-10.803c0.322-0.397,0.906-0.458,1.303-0.135         c0.341,0.277,0.434,0.746,0.249,1.124L300.214,131.048z"/>
							<path style="fill:#000E3F;" d="M309.256,134.796c1.025,3.521,1.944,6.851,3.314,10.011c1.324,3.181,3.037,6.088,5.083,9.05         l0.011,0.016c0.314,0.455,0.2,1.078-0.255,1.392c-0.333,0.23-0.758,0.23-1.084,0.034c-3.374-2.029-5.839-5.381-7.355-8.979         c-1.482-3.628-2.12-7.594-1.553-11.412c0.076-0.514,0.555-0.87,1.07-0.793c0.375,0.056,0.666,0.326,0.766,0.667         L309.256,134.796z"/>
						</g>
					</g>
					<path style="fill:#000E3F;" d="M310.85,176.301c-7.108,0.007-13.554-6.872-17.251-13.394       c-4.145-7.312-5.203-12.458-5.737-15.384c-0.945,1.006-2.27,2.329-4.172,3.7c-10.462,7.546-24.497,7.449-34.916-0.244       c-1.852-1.368-3.004-2.53-3.777-3.413c-0.049,0.217-0.099,0.439-0.148,0.654c-1.263,5.588-3.89,17.218-15.217,25.31       c-4.876,3.481-12.168,4.152-15.937-0.756c-9.744-12.688-8.065-27.56-3.244-37.249c4.908-9.864,13.485-15.973,22.414-15.981       c0.171,0,0.348,0.003,0.507,0.002c0.499,0,0.87-0.011,1.111-0.034c0.017-0.08,0.033-0.169,0.053-0.267       c0.061-0.284,0.131-0.615,0.233-1c3.369-12.737,15.619-21.059,31.209-21.203c0.113-0.001,0.226-0.002,0.337-0.002       c12.869-0.011,27.478,6.094,31.388,19.852l0,0c0.225,0.789,0.366,1.419,0.479,1.92c0.049,0.222,0.104,0.462,0.15,0.642       c0.339,0.026,0.894,0.028,1.331,0.03c8.581,0.032,16.423,5.075,21.515,13.836c6.379,10.974,6.735,24.733,0.907,35.055       c-2.104,3.728-4.855,7.723-10.884,7.92C311.083,176.299,310.966,176.301,310.85,176.301z M288.571,143.151       c0.144,0,0.291,0.017,0.449,0.054c0.495,0.116,1.15,0.478,1.463,1.547c0.129,0.441,0.242,1.041,0.379,1.803       c0.48,2.658,1.372,7.604,5.456,14.811c3.157,5.567,8.946,12.031,14.78,11.806c3.998-0.131,6.058-2.421,8.267-6.332       c5.292-9.375,4.944-21.915-0.888-31.948c-4.521-7.777-11.382-12.253-18.826-12.281c-3.049-0.012-3.89-0.319-4.518-3.112       c-0.103-0.457-0.231-1.031-0.435-1.751c-3.494-12.294-16.919-17.64-28.692-17.579c-10.738,0.099-24.572,5.102-28.215,18.876       c-0.087,0.327-0.146,0.608-0.196,0.849c-0.541,2.555-1.753,2.801-4.588,2.777c-0.046-0.001-0.093-0.001-0.139-0.001       c-7.735,0.007-15.242,5.454-19.618,14.248c-4.401,8.843-5.943,22.406,2.925,33.953c2.849,3.713,8.631,2.266,11.64,0.116       c10.357-7.399,12.807-18.244,13.984-23.456c0.605-2.678,0.978-4.322,2.6-4.323c0.044,0,0.089,0.001,0.133,0.004       c0.99,0.05,1.54,0.736,2.124,1.462c0.634,0.788,1.694,2.108,3.974,3.792c9.323,6.883,21.875,6.972,31.233,0.224       c2.021-1.458,3.343-2.892,4.218-3.841C286.969,143.885,287.645,143.152,288.571,143.151z M298.412,119.705h0.015H298.412z"/>
				</g>
			</g>
		</g>
	</g>
	<g>
		<g>
			<path style="fill:#FC09B2;" d="M210.628,38.187c0.524-0.007,1.415-0.016,2.879,0c-0.615-0.002,9.069,0.024,9.214,0.024     c-0.146,0.001,1.005-0.006,1.152-0.006c3.081-0.118,4.397-2.615,3.591-4.944c0.054,0.138-0.169-0.434-0.223-0.572     c0.062,0.158-1.597-4.084-1.678-4.289c0.046,0.114-1.817-4.529-2.785-6.941c1.648-0.044,4.967-0.15,11.395-0.326     c-0.15,0.005,4.015,0.523,4.745-2.938c0.327-1.487-0.353-2.408-0.472-2.825c0.05,0.116-3.912-9.033-5.041-11.64     c3.446-0.183,16.245-0.87,16.305-2.125c0.079-1.67-1.065-1.187-13.38-1.552c0.24,0.003-3.691-0.049-3.84-0.051     c-1.865-0.035-3.481,1.667-3.263,3.652c0.053,0.546,0.229,0.886,0.349,1.239c-0.053-0.141,1.849,4.886,1.902,5.026     c-0.153-0.397,1.634,4.243,2.52,6.543c-9.043,0.129-11.519,0.164-12.067,0.172c0.094-0.001,0.152-0.002-0.114,0.002     c0.008,0,0.016,0,0.025-0.001c-0.045,0.001-0.058,0.001-0.049,0.001c-3.24,0.005-5.099,2.424-3.974,5.386     c-0.065-0.158,0.966,2.348,1.023,2.484c-0.235-0.561,2.679,6.416,3.86,9.246c-3.342,0.155-12.226,0.567-12.348,0.573     c0.151-0.01-1.598-0.168-2.722,1.042c-0.839,0.858-1.115,2.243-0.662,3.349c2.923,6.353,3.445,7.582,5.201,11.206     c0.263,0.54,0.894,0.819,1.479,0.623C215.281,50.001,214.44,49.092,210.628,38.187z"/>
			<path style="fill:#FC09B2;" d="M98.582,259.666c0.388-0.352,1.051-0.948,2.159-1.904c-0.462,0.405,6.817-5.981,6.926-6.077     c-0.11,0.097,0.75-0.669,0.859-0.767c2.232-2.126,1.568-4.87-0.578-6.083c0.132,0.068-0.414-0.213-0.546-0.282     c0.151,0.078-3.899-2.006-4.096-2.107c0.11,0.055-4.359-2.195-6.68-3.364c1.207-1.123,3.626-3.399,8.33-7.783     c-0.109,0.103,3.357-2.263,1.615-5.343c-0.739-1.332-1.858-1.573-2.223-1.806c0.114,0.054-8.909-4.187-11.48-5.395     c2.464-2.417,11.608-11.398,10.822-12.38c-1.045-1.305-1.584-0.186-11.061,7.687c0.182-0.157-2.801,2.405-2.914,2.502     c-1.422,1.207-1.508,3.553-0.031,4.897c0.402,0.374,0.758,0.513,1.082,0.698c-0.133-0.07,4.619,2.441,4.752,2.511     c-0.377-0.196,4.032,2.101,6.218,3.24c-6.697,6.079-8.53,7.743-8.936,8.111c0.069-0.063,0.113-0.102-0.085,0.077     c0.006-0.005,0.012-0.011,0.019-0.017c-0.033,0.03-0.043,0.039-0.036,0.033c-2.427,2.147-2.22,5.191,0.582,6.668     c-0.154-0.075,2.278,1.122,2.41,1.187c-0.547-0.266,6.253,3.039,9.011,4.38c-2.404,2.328-8.794,8.513-8.881,8.598     c0.107-0.107-1.31,0.931-1.352,2.582c-0.062,1.198,0.647,2.42,1.719,2.949c6.394,2.83,7.599,3.407,11.313,4.963     c0.555,0.231,1.212,0.023,1.522-0.511C109.887,265.447,108.656,265.322,98.582,259.666z"/>
			<path style="fill:#FC09B2;" d="M410.823,255.95c0.432-0.296,1.168-0.799,2.394-1.598c-0.512,0.34,7.557-5.014,7.677-5.094     c-0.121,0.082,0.833-0.562,0.955-0.644c2.497-1.808,2.206-4.616,0.243-6.106c-0.073-0.051-0.406-0.285-0.502-0.352     c0.139,0.097-3.596-2.511-3.777-2.637c0.102,0.07-4.025-2.759-6.169-4.228c1.346-0.951,4.048-2.882,9.297-6.597     c-0.122,0.088,3.63-1.793,2.317-5.078c-0.554-1.419-1.63-1.808-1.961-2.087c0.105,0.068-8.269-5.343-10.654-6.885     c2.765-2.065,13.03-9.74,12.383-10.818c-0.86-1.433-1.545-0.396-11.991,6.136c0.201-0.131-3.097,2.008-3.223,2.089     c-1.571,1.006-1.97,3.32-0.687,4.849c0.348,0.425,0.682,0.61,0.978,0.837c-0.122-0.088,4.25,3.038,4.373,3.125     c-0.347-0.245,3.713,2.622,5.728,4.044c-7.925,5.453-9.728,6.693-10.011,6.888c-0.01,0.007-0.019,0.013-0.03,0.021     c0.002-0.002,0.006-0.004,0.009-0.006c-0.008,0.005-0.011,0.007-0.015,0.01c0.001-0.001,0.002-0.001,0.003-0.003     c-0.004,0.004-0.007,0.005-0.012,0.009c-0.004,0.003-0.004,0.002,0,0c-2.692,1.803-2.896,4.847-0.317,6.686     c-0.141-0.095,2.087,1.403,2.225,1.496c0.383,0.255,5.974,3.972,8.348,5.551c-2.697,1.986-9.855,7.258-9.954,7.331     c0.121-0.092-1.422,0.747-1.685,2.378c-0.221,1.179,0.318,2.485,1.309,3.153c5.957,3.661,7.075,4.395,10.546,6.434     c0.518,0.303,1.198,0.185,1.577-0.302C421.251,263.195,420.047,262.905,410.823,255.95z"/>
			<path style="fill:#FC09B2;" d="M338.797,499.283c0.515,0.093,1.392,0.253,2.826,0.547c-0.603-0.118,8.899,1.746,9.041,1.774     c-0.144-0.027,0.988,0.186,1.132,0.213c3.047,0.47,4.814-1.732,4.465-4.172c-0.016-0.088-0.089-0.488-0.11-0.604     c0.031,0.167-0.793-4.314-0.832-4.531c0.023,0.121-0.923-4.791-1.415-7.343c1.626,0.27,4.905,0.796,11.249,1.844     c-0.149-0.024,3.842,1.277,5.218-1.983c0.604-1.399,0.111-2.432,0.073-2.863c0.027,0.122-2.125-9.613-2.738-12.386     c3.418,0.475,16.114,2.233,16.412,1.011c0.396-1.624-0.82-1.368-12.842-4.065c0.235,0.048-3.614-0.749-3.76-0.78     c-1.824-0.389-3.735,0.976-3.897,2.965c-0.051,0.547,0.056,0.914,0.108,1.283c-0.025-0.148,0.887,5.148,0.913,5.297     c-0.075-0.419,0.798,4.475,1.23,6.903c-9.469-1.694-11.624-2.079-11.962-2.139c-0.012-0.002-0.022-0.004-0.036-0.006     c0.003,0,0.007,0.001,0.011,0.002c-0.009-0.002-0.012-0.002-0.018-0.004c0.002,0,0.002,0,0.004,0.001     c-0.006-0.001-0.009-0.002-0.015-0.003c-0.005,0-0.004-0.001,0,0c-3.182-0.611-5.467,1.412-4.925,4.532     c-0.034-0.167,0.498,2.465,0.531,2.628c0.094,0.451,1.456,7.025,2.035,9.816c-3.314-0.483-12.111-1.766-12.232-1.784     c0.151,0.02-1.537-0.468-2.87,0.506c-0.986,0.683-1.521,1.991-1.285,3.162c1.663,6.792,1.942,8.099,2.977,11.99     c0.156,0.58,0.722,0.973,1.334,0.894C341.12,511.766,340.468,510.715,338.797,499.283z"/>
			<path style="fill:#FC09B2;" d="M110.908,438.254c0.262-0.454,0.709-1.225,1.47-2.475c-0.315,0.528,4.653-7.784,4.728-7.909     c-0.074,0.126,0.509-0.867,0.583-0.993c1.473-2.709-0.002-5.116-2.416-5.613c-0.088-0.015-0.489-0.082-0.605-0.101     c0.168,0.028-4.328-0.713-4.545-0.749c0.122,0.019-4.821-0.752-7.389-1.152c0.804-1.439,2.408-4.347,5.54-9.963     c-0.073,0.132,2.501-3.184-0.102-5.58c-1.112-1.041-2.251-0.927-2.67-1.037c0.124,0.016-9.765-1.251-12.582-1.613     c1.603-3.056,7.551-14.409,6.502-15.103c-1.394-0.921-1.564,0.31-8.169,10.71c0.125-0.205-1.928,3.148-2.006,3.275     c-0.983,1.585-0.345,3.845,1.473,4.67c0.497,0.233,0.879,0.256,1.244,0.333c-0.148-0.026,5.145,0.906,5.293,0.932     c-0.419-0.071,4.481,0.763,6.912,1.176c-4.796,8.339-5.887,10.236-6.059,10.534c-0.006,0.01-0.012,0.02-0.018,0.032     c0.001-0.003,0.003-0.006,0.005-0.009c-0.005,0.008-0.007,0.011-0.009,0.015c0.001-0.001,0.001-0.002,0.002-0.004     c-0.002,0.005-0.004,0.008-0.007,0.013c-0.002,0.004-0.002,0.004,0,0c-1.651,2.788-0.521,5.622,2.599,6.168     c-0.169-0.025,2.488,0.365,2.653,0.389c0.456,0.065,7.103,1.006,9.926,1.405c-1.575,2.955-5.758,10.8-5.815,10.908     c0.07-0.135-0.96,1.288-0.494,2.872c0.309,1.159,1.359,2.105,2.541,2.279c6.954,0.732,8.278,0.911,12.29,1.253     c0.598,0.049,1.16-0.35,1.292-0.953C123.442,440.289,122.231,440.548,110.908,438.254z"/>
		</g>
		<g>
			<path style="fill:#FFCF00;" d="M309.216,44.386c-0.266,2.974,1.929,5.6,4.903,5.866c2.974,0.266,5.6-1.929,5.866-4.903     c0.266-2.974-1.929-5.6-4.903-5.866C312.108,39.216,309.482,41.412,309.216,44.386z"/>
			<path style="fill:#FFCF00;" d="M69.168,183.153c-0.266,2.974,1.929,5.6,4.903,5.866c2.974,0.266,5.6-1.929,5.866-4.903     c0.266-2.974-1.929-5.6-4.903-5.866C72.06,177.984,69.434,180.179,69.168,183.153z"/>
			<path style="fill:#FFCF00;" d="M415.703,304.378c-0.266,2.974,1.929,5.6,4.903,5.866c2.974,0.266,5.6-1.929,5.866-4.903     c0.266-2.974-1.929-5.6-4.903-5.866C418.595,299.209,415.969,301.405,415.703,304.378z"/>
			<path style="fill:#FFCF00;" d="M144.746,400.431c-0.266,2.974,1.929,5.6,4.903,5.866c2.974,0.266,5.6-1.929,5.866-4.903     c0.266-2.974-1.929-5.6-4.903-5.866C147.638,395.262,145.012,397.457,144.746,400.431z"/>
			<path style="fill:#FFCF00;" d="M254.972,504.95c-0.266,2.974,1.929,5.6,4.903,5.866c2.974,0.266,5.6-1.929,5.866-4.903     c0.266-2.974-1.929-5.6-4.903-5.866C257.864,499.781,255.238,501.976,254.972,504.95z"/>
		</g>
		<g>
			<path style="fill:#FD8A02;" d="M125.34,130.529c-3.34-2.077-7.534-3.339-11.436-4.044c0.096-4.644-0.297-9.808-1.791-14.203     c-0.31-0.907-1.556-1.023-2.023-0.181c-2.259,4.076-3.554,9.093-4.279,13.64c-3.947-0.014-8.276,0.463-11.929,1.91     c-0.91,0.36-1.044,1.623-0.192,2.151c3.326,2.064,7.481,3.302,11.382,3.992c-0.123,5.038,0.804,13.968,2.296,14.793     c0.571,0.315,1.289,0.109,1.604-0.462c2.245-4.059,3.528-9.076,4.233-13.624c3.955-0.003,8.292-0.497,11.953-1.951     c0.218-0.086,0.412-0.241,0.546-0.456C126.037,131.562,125.873,130.861,125.34,130.529z"/>
			<path style="fill:#FD8A02;" d="M419.768,440.701c-3.34-2.077-7.534-3.339-11.436-4.043c0.097-4.644-0.296-9.809-1.791-14.203     c-0.31-0.907-1.556-1.023-2.023-0.181c-2.259,4.076-3.554,9.094-4.279,13.64c-3.947-0.014-8.276,0.463-11.929,1.91     c-0.91,0.36-1.044,1.623-0.192,2.151c3.326,2.064,7.482,3.302,11.382,3.992c-0.122,5.038,0.804,13.968,2.296,14.793     c0.571,0.316,1.289,0.109,1.604-0.462c2.245-4.059,3.528-9.076,4.233-13.624c3.955-0.003,8.292-0.497,11.953-1.951     c0.218-0.086,0.412-0.241,0.546-0.456C420.464,441.734,420.301,441.033,419.768,440.701z"/>
			<path style="fill:#FD8A02;" d="M377.285,80.336c-2.762-1.718-6.231-2.762-9.458-3.344c0.08-3.841-0.245-8.112-1.481-11.746     c-0.257-0.75-1.287-0.846-1.673-0.15c-1.868,3.371-2.939,7.521-3.539,11.281c-3.264-0.012-6.844,0.383-9.865,1.58     c-0.753,0.297-0.863,1.342-0.159,1.779c2.751,1.707,6.187,2.731,9.414,3.301c-0.101,4.167,0.665,11.552,1.899,12.234     c0.472,0.261,1.066,0.09,1.327-0.382c1.857-3.357,2.917-7.506,3.501-11.268c3.271-0.002,6.858-0.411,9.885-1.613     c0.181-0.072,0.341-0.2,0.452-0.377C377.862,81.191,377.726,80.611,377.285,80.336z"/>
			<path style="fill:#FD8A02;" d="M90.584,303.802c-2.763-1.718-6.231-2.762-9.458-3.344c0.08-3.841-0.245-8.112-1.481-11.746     c-0.257-0.75-1.287-0.846-1.673-0.15c-1.868,3.371-2.94,7.521-3.539,11.281c-3.264-0.012-6.844,0.383-9.866,1.58     c-0.753,0.297-0.863,1.342-0.159,1.779c2.751,1.707,6.187,2.731,9.413,3.301c-0.101,4.167,0.665,11.552,1.899,12.234     c0.472,0.261,1.066,0.09,1.327-0.382c1.857-3.357,2.918-7.506,3.501-11.268c3.271-0.002,6.858-0.411,9.885-1.613     c0.181-0.072,0.341-0.2,0.452-0.377C91.16,304.656,91.025,304.076,90.584,303.802z"/>
			<path style="fill:#FD8A02;" d="M175.355,477.563c-2.762-1.718-6.231-2.762-9.458-3.344c0.08-3.841-0.245-8.112-1.481-11.746     c-0.257-0.75-1.287-0.846-1.673-0.149c-1.868,3.371-2.939,7.521-3.539,11.281c-3.264-0.012-6.844,0.383-9.865,1.58     c-0.753,0.298-0.863,1.342-0.159,1.779c2.751,1.707,6.187,2.731,9.413,3.301c-0.101,4.167,0.665,11.552,1.899,12.234     c0.472,0.261,1.066,0.09,1.327-0.382c1.857-3.357,2.917-7.506,3.501-11.268c3.271-0.002,6.858-0.411,9.885-1.613     c0.181-0.072,0.341-0.2,0.452-0.377C175.931,478.417,175.796,477.837,175.355,477.563z"/>
		</g>
		<g>
			<path style="fill:#915EFD;" d="M166.032,71.207l3.666,12.058c0.392,1.289-0.997,2.392-2.164,1.718l-10.915-6.302     c-0.671-0.388-1.527-0.194-1.966,0.445l-7.142,10.384c-0.763,1.11-2.492,0.712-2.692-0.62l-1.878-12.463     c-0.115-0.766-0.801-1.315-1.573-1.26l-12.572,0.891c-1.344,0.095-2.11-1.504-1.194-2.492l8.573-9.238     c0.527-0.568,0.529-1.446,0.004-2.016l-8.535-9.274c-0.912-0.991-0.139-2.588,1.204-2.487l12.568,0.942     c0.773,0.058,1.46-0.488,1.579-1.254l1.929-12.455c0.206-1.331,1.936-1.722,2.695-0.609l7.099,10.414     c0.437,0.64,1.292,0.837,1.964,0.453l10.94-6.257c1.169-0.669,2.554,0.44,2.157,1.727l-3.716,12.043     c-0.228,0.741,0.151,1.532,0.871,1.818l11.713,4.652c1.252,0.497,1.248,2.271-0.006,2.763l-11.732,4.604     C166.189,69.676,165.806,70.466,166.032,71.207z"/>
			<path style="fill:#915EFD;" d="M434.509,371.318l3.666,12.058c0.392,1.289-0.997,2.392-2.164,1.718l-10.914-6.302     c-0.671-0.388-1.527-0.194-1.966,0.444l-7.142,10.385c-0.763,1.11-2.491,0.712-2.692-0.62l-1.878-12.463     c-0.115-0.766-0.8-1.315-1.573-1.26l-12.572,0.891c-1.344,0.095-2.11-1.504-1.194-2.492l8.573-9.238     c0.527-0.568,0.529-1.446,0.004-2.016l-8.535-9.274c-0.912-0.991-0.14-2.587,1.204-2.487l12.568,0.942     c0.773,0.058,1.46-0.488,1.579-1.254l1.929-12.455c0.206-1.331,1.936-1.722,2.695-0.609l7.099,10.414     c0.436,0.64,1.292,0.837,1.965,0.453l10.94-6.257c1.169-0.669,2.554,0.44,2.156,1.727l-3.715,12.043     c-0.228,0.741,0.151,1.532,0.871,1.818l11.713,4.652c1.252,0.497,1.248,2.271-0.006,2.763l-11.732,4.604     C434.666,369.787,434.284,370.577,434.509,371.318z"/>
			<path style="fill:#915EFD;" d="M148.786,351.824l3.103,10.206c0.384,1.263-0.977,2.345-2.121,1.684l-9.238-5.334     c-0.658-0.38-1.497-0.19-1.927,0.436l-6.045,8.789c-0.748,1.088-2.442,0.698-2.639-0.608l-1.589-10.548     c-0.113-0.751-0.785-1.289-1.542-1.235l-10.641,0.754c-1.317,0.093-2.068-1.474-1.17-2.442l7.256-7.819     c0.517-0.557,0.518-1.417,0.004-1.976l-7.224-7.849c-0.894-0.972-0.137-2.536,1.18-2.437l10.638,0.798     c0.757,0.057,1.431-0.478,1.547-1.229l1.633-10.542c0.202-1.305,1.898-1.688,2.641-0.597l6.009,8.814     c0.428,0.628,1.266,0.821,1.925,0.444l9.26-5.296c1.146-0.656,2.503,0.431,2.114,1.693l-3.145,10.193     c-0.224,0.726,0.148,1.502,0.854,1.782l9.914,3.937c1.227,0.487,1.223,2.226-0.006,2.708l-9.93,3.897     C148.94,350.323,148.565,351.097,148.786,351.824z"/>
			<path style="fill:#915EFD;" d="M428.463,140.815l-2.242,8.993c-0.282,1.131-1.803,1.332-2.369,0.314l-4.505-8.099     c-0.326-0.586-1.047-0.823-1.657-0.544l-8.429,3.854c-1.06,0.485-2.165-0.579-1.722-1.657l3.523-8.572     c0.255-0.62-0.01-1.332-0.608-1.635l-8.268-4.187c-1.04-0.526-0.898-2.054,0.221-2.38l8.898-2.59     c0.644-0.187,1.035-0.838,0.899-1.494l-1.882-9.075c-0.237-1.141,1.046-1.982,1.999-1.311l7.573,5.342     c0.548,0.386,1.301,0.287,1.729-0.229l5.922-7.129c0.745-0.896,2.202-0.418,2.271,0.745l0.545,9.252     c0.039,0.669,0.587,1.196,1.257,1.209l9.266,0.185c1.165,0.023,1.7,1.461,0.833,2.24l-6.893,6.194     c-0.499,0.448-0.569,1.204-0.161,1.737l5.633,7.36c0.708,0.925-0.082,2.24-1.232,2.048l-9.141-1.527     C429.26,139.748,428.625,140.164,428.463,140.815z"/>
		</g>
	</g>
</g>















</svg>
