<?xml version="1.0" encoding="UTF-8"?>
<!-- Generator: Adobe Illustrator 25.2.3, SVG Export Plug-In . SVG Version: 6.00 Build 0)  -->
<svg xmlns="http://www.w3.org/2000/svg" xmlns:xlink="http://www.w3.org/1999/xlink" version="1.1" id="Capa_1" x="0px" y="0px" viewBox="0 0 512 512" style="enable-background:new 0 0 512 512;" xml:space="preserve" width="512" height="512">
<g>
	<g>
		<polygon style="fill:#091438;" points="375.919,133.459 344.518,159.63 367.025,310.887 454.428,267.967 464.042,121.418   "/>
		<polygon style="opacity:0.1;fill:#FFFFFF;" points="375.919,133.459 344.518,159.63 367.025,310.887 454.428,267.967     464.042,121.418   "/>
	</g>
	<path style="fill:#FFDC9F;" d="M128.623,366.889l8.513,121.029l114.15-8.224l-4.238,24.113   c170.614-5.433,129.255-174.469,129.255-174.469c76.402-16.232,102.596-51.823,73.286-69.612   c-29.311-17.793-77.983,22.315-77.983,22.315s-1.427-231.004,0.141-231.004c1.573,0-293.616,23.934-293.616,23.934l4.555,131.891   l-14.665,8.257l2.506,4.74l10.467,37.385l27.479,112.261l4.445-1.114L128.623,366.889z"/>
	<path style="fill:#091438;" d="M59.794,188.938l46.06,183.709l89.497-15.974c0,0-10.465-40.028-34.018-10.718   c0,0,11.514-14.661,23.03,4.711l-73.274,15.024L65.554,188.938H59.794z"/>
	<path style="fill:#091438;" d="M112.765,296.091c22.251,3.226,53.4-2.293,61.394-26.705c-4.539,27.709-37.748,38.681-62.125,39.243   L112.765,296.091z"/>
	<path style="fill:#091438;" d="M207.178,256.025c31.391-11.872,74.077-8.047,95.2,20.871c-22.637-24.304-62.33-24.08-90.075-9.405   L207.178,256.025z"/>
	<g>
		<path style="fill:#FFFFFF;" d="M246.726,375.112c13.948-3.507,24.584-13.376,26.114-28.086    c14.092,11.361,19.672,23.819,25.52,40.341c1.788,13.869,1.9,34.146-6.17,46.287c-2.25,1.863-8.221,7.468-11.207,8.033    C280.983,441.688,246.726,375.112,246.726,375.112z"/>
		<path style="fill:#091438;" d="M300.44,393.264c0.669,5.543,0.783,11.601,0.139,18.194c-4.498,46.178-39.876,27.883-39.876,27.883    s33.062,14.112,36.754-27.916c3.686-42.033-24.134-61.773-24.134-61.773c-5.543,36.562-49.745,26.781-49.745,26.781    s41.877,5.594,48.817-31.107C272.395,345.326,296.417,359.991,300.44,393.264"/>
		<path style="fill:#091438;" d="M267.352,350.294c0,0,5.224-5.193,15.17-3.58c0,0-9.596-5.361-15.725-0.354L267.352,350.294z"/>
		
			<rect x="270.869" y="369.856" transform="matrix(0.9033 -0.4291 0.4291 0.9033 -147.4037 155.9704)" style="fill:#091438;" width="2.697" height="70.098"/>
		
			<rect x="279.612" y="363.456" transform="matrix(0.8412 -0.5407 0.5407 0.8412 -168.7135 214.557)" style="fill:#091438;" width="2.7" height="62.171"/>
		
			<rect x="282.551" y="355.183" transform="matrix(0.7664 -0.6424 0.6424 0.7664 -176.9384 270.8263)" style="fill:#091438;" width="2.697" height="47.018"/>
		<path style="fill:#091438;" d="M260.933,395.101c-1.648,0-3.362-0.177-5.137-0.528l0.523-2.643    c5.988,1.178,11.149,0.122,15.339-3.132c10.91-8.485,12.147-29.099,12.158-29.305l2.693,0.143    c-0.048,0.899-1.323,22.057-13.194,31.289C269.744,393.704,265.594,395.101,260.933,395.101z"/>
	</g>
	<path style="fill:#091438;" d="M22.115,226.589l168.527-37.651l4.709-35.591l6.808,35.591l238.14-3.139l2.096-27.222l12.033,26.698   L512,181.609c0,0-14.652-225.831-309.841-173.102C-93.031,61.23,22.115,226.589,22.115,226.589z"/>
	<g>
		<path style="fill:#FFFFFF;" d="M203.847,324.915l82.966-26.08C286.813,298.835,244.194,256.595,203.847,324.915z"/>
		<path style="fill:#091438;" d="M259.728,295.234c1.319,4.551-3.042,9.819-9.751,11.765c-6.701,1.955-13.211-0.156-14.537-4.707    c-1.317-4.551,3.044-9.819,9.753-11.765C251.898,288.572,258.405,290.683,259.728,295.234z"/>
	</g>
	<g>
		<path style="fill:#FFFFFF;" d="M192.31,327.57l-76.995,3.601C115.315,331.171,129.397,283.629,192.31,327.57z"/>
		<path style="fill:#091438;" d="M170.28,318.27c0,3.664-4.331,6.645-9.677,6.645c-5.34,0-9.671-2.98-9.671-6.645    c0-3.673,4.331-6.657,9.671-6.657C165.949,311.613,170.28,314.598,170.28,318.27z"/>
	</g>
	<path style="fill:#091438;" d="M253.956,468.681l-19.218,42.793l23.748-9.034v9.034l18.14-11.782l3.863,9.815l40.216-23.944   l6.281,4.517l14.585-21.398C341.569,468.681,257.073,510.688,253.956,468.681z"/>
	<path style="fill:#091438;" d="M235.208,356.643c0,0-41.833,5.944-35.978,39.5C199.231,396.143,205.816,370.937,235.208,356.643z"/>
	<path style="fill:#091438;" d="M241.46,353.338c0,0,43.646-44.068,62.15-13.458C303.61,339.88,279.364,329.567,241.46,353.338z"/>
	<path style="fill:#091438;" d="M433.587,292.904c0,0-8.219-11.508-27.252-10.359c-19.037,1.136-37.311,23.961-12.365,29.233   c24.938,5.277,18.243-9.975,9.31-12.694l14.98,0.907l-21.236-2.951c0,0,16.567,10.887,8.78,13.593   c-7.771,2.697-28.493-3.149-18.312-15.695C405.417,272.856,433.587,292.904,433.587,292.904z"/>
	<g style="opacity:0.1;">
		<path style="fill:#FFFFFF;" d="M138.784,186.111C123.78,127.288,161.321,68.212,209.74,37.609    c-44.462,31.622-79.138,90.095-61.965,145.695L138.784,186.111z"/>
		<path style="fill:#FFFFFF;" d="M33.868,218.788C-4.008,123.788,84.421,57.663,164.476,30.775    C90.039,58.721,3.071,125.579,42.286,214.558L33.868,218.788z"/>
		<path style="fill:#FFFFFF;" d="M79.069,181.814c-10.925-57.419,39.034-106.159,85.407-130.777    c-42.354,26.045-88.973,74.057-76.322,128.273L79.069,181.814z"/>
		<path style="fill:#FFFFFF;" d="M354.462,171.974c0.566-72.723-35.545-149.638-119.254-145.288    c85.797-8.047,126.086,70.738,128.676,145.305L354.462,171.974z"/>
		<path style="fill:#FFFFFF;" d="M410.329,151.819C399.787,102.816,363.587,33.956,303.61,33.751    c61.652-2.867,102.313,66.21,115.883,115.889L410.329,151.819z"/>
		<path style="fill:#FFFFFF;" d="M471.679,163.86C448.474,91.95,385.704,6.025,299.78,19.643    c86.824-17.121,154.688,69.034,180.836,141.239L471.679,163.86z"/>
	</g>
</g>















</svg>
