<?xml version="1.0" encoding="UTF-8"?>
<!-- Generator: Adobe Illustrator 25.2.3, SVG Export Plug-In . SVG Version: 6.00 Build 0)  -->
<svg xmlns="http://www.w3.org/2000/svg" xmlns:xlink="http://www.w3.org/1999/xlink" version="1.1" id="Capa_1" x="0px" y="0px" viewBox="0 0 512 512" style="enable-background:new 0 0 512 512;" xml:space="preserve" width="512" height="512">
<g>
	<path style="fill:#FFC524;" d="M352.542,341.069c-19.489,53.62,20.596,48.112,50.854,40.43c34.57-8.744-14.824,31.811,5.752,37.566   c20.6,5.776,66.68-37.566,66.68-37.566c-62.559,6.076,12.354-83.455-23.854-90.022c-36.232-6.595,34.574-74.934,55.964-120.503   c21.412-45.589-46.087-68.854-102.891-79.97C348.24,79.892,362.22,39.561,362.22,39.561C108.676,58.478,0.82,230.548,0.006,266.776   c-0.842,36.207,80.663,7.434,80.663,7.434c-63.376,72.464,14.817,51.718,14.817,51.718S8.23,431.412,74.099,410.84   c65.844-20.575-9.88,36.232,7.409,56.605c17.289,20.402,124.301-28.299,124.301-28.299c-15.73-21.147-26.301-42.262-32.697-63.005   l15.411-30.334L347,295.55L352.542,341.069z"/>
	<path style="fill:#FFDEC7;" d="M406.677,340.871c0,0-22.004-1.035-54.135,0.198c-50.16,1.93-124.998,9.413-179.431,35.072   C126.285,224.35,302.131,91.005,302.131,91.005C447.853,153.169,406.677,340.871,406.677,340.871z"/>
	<g>
		<path style="fill:#FF6C7E;" d="M254.894,305.349c0,5.745-9.015,10.399-20.124,10.399c-11.122,0-20.13-4.654-20.13-10.399    c0-5.741,9.007-10.389,20.13-10.389C245.879,294.961,254.894,299.608,254.894,305.349z"/>
		<path style="fill:#091438;" d="M214.64,290.223c0,0,2.237,22.495,45.382,16.841C260.022,307.064,216.748,318.637,214.64,290.223z"/>
	</g>
	<path style="fill:#091438;" d="M299.975,203.378l18.663,76.874c0,0,23.321-7.72,27.024,0c3.707,7.717-38.469,21.3-58.595,12.347   c0,0,1.484-17.29,14.448-5.867c0,0-11.427-1.85-11.427,5.25c0,0,35.079,2.135,51.251-8.953c10.807-7.407-26.24-0.927-26.24-0.927   S300.898,241.355,299.975,203.378z"/>
	<polygon style="fill:#FFC524;" points="233.824,194.811 280.315,179.506 243.662,211.944  "/>
	<polygon style="fill:#FFC524;" points="320.756,166.153 369.23,186.917 316.519,185.45  "/>
	<g>
		
			<rect x="247.937" y="229.907" transform="matrix(0.1227 -0.9924 0.9924 0.1227 -20.1531 460.525)" style="fill:#091438;" width="4.943" height="23.509"/>
		
			<rect x="246.497" y="220.099" transform="matrix(0.2996 -0.9541 0.9541 0.2996 -48.7183 401.3163)" style="fill:#091438;" width="4.937" height="27.48"/>
		<path style="fill:#FFFFFF;" d="M284.047,248.574c-5.661,13.249-17.365,20.952-26.148,17.196    c-8.781-3.749-11.31-17.531-5.651-30.779c5.661-13.249,17.369-20.948,26.152-17.196    C287.178,221.542,289.708,235.324,284.047,248.574z"/>
		<path style="fill:#091438;" d="M251.722,247.943l-4.936-0.195c0.176-4.501,1.28-9.249,3.191-13.726    c6.186-14.482,19.365-22.781,29.395-18.499c6.181,2.637,9.974,9.494,10.152,18.336l-4.94,0.097    c-0.136-6.846-2.808-12.037-7.152-13.89c-7.389-3.139-17.883,4.125-22.912,15.897    C252.842,239.892,251.875,244.034,251.722,247.943z"/>
		<path style="fill:#091438;" d="M268.145,246.19c0,4.543-2.716,8.232-6.071,8.232c-3.357,0-6.076-3.689-6.076-8.232    c0-4.546,2.719-8.236,6.076-8.236C265.429,237.955,268.145,241.644,268.145,246.19z"/>
	</g>
	<g>
		
			<rect x="348.149" y="217.973" transform="matrix(0.9264 -0.3764 0.3764 0.9264 -56.672 150.8731)" style="fill:#091438;" width="19.11" height="4.941"/>
		
			<rect x="344.988" y="209.759" transform="matrix(0.8294 -0.5586 0.5586 0.8294 -57.6967 235.517)" style="fill:#091438;" width="23.578" height="4.939"/>
		<path style="fill:#FFFFFF;" d="M353.455,241.181c-5.661,13.242-17.367,20.948-26.146,17.196    c-8.783-3.748-11.308-17.534-5.647-30.783c5.658-13.246,17.363-20.945,26.146-17.196    C356.587,214.15,359.113,227.932,353.455,241.181z"/>
		<path style="fill:#091438;" d="M321.247,238.868l-4.919-0.474c0.38-3.944,1.411-7.905,3.062-11.772    c6.187-14.479,19.384-22.774,29.386-18.496c5.818,2.484,9.493,8.57,10.086,16.705l-4.926,0.362    c-0.453-6.229-3.041-10.793-7.097-12.525c-7.406-3.156-17.879,4.129-22.906,15.893    C322.48,231.962,321.574,235.429,321.247,238.868z"/>
		<path style="fill:#091438;" d="M335.656,237.955c0,4.546-2.721,8.236-6.072,8.236c-3.358,0-6.076-3.689-6.076-8.236    c0-4.543,2.717-8.232,6.076-8.232C332.935,229.722,335.656,233.412,335.656,237.955z"/>
	</g>
	<g style="opacity:0.2;">
		<g>
			<path style="fill:#FFFFFF;" d="M146.045,121.64c0,0-107.835,71.192-101.911,96.007c5.916,24.812,77.531,18.82,77.531,18.82     s-66.801,86.399-28.944,83.619c37.854-2.79,51.373,1.477,20.433,50.582c0,0,34.216-40.468,18.91-49.432     c-15.31-8.953-55.581,4.501-47.021-15.482c8.566-19.99,46.392-70.673,46.392-70.673s-84.225,1.233-83.107-20.523     C49.454,192.79,146.045,121.64,146.045,121.64z"/>
		</g>
		<path style="fill:#FFFFFF;" d="M220.012,146.576c0,0-107.436,167.093-44.457,275.569    C175.555,422.145,92.201,336.129,220.012,146.576z"/>
		<path style="fill:#FFFFFF;" d="M148.849,254.423c0,0,4.479-125.754,163.165-177.618    C312.015,76.805,146.221,97.387,148.849,254.423z"/>
	</g>
</g>















</svg>
