<?xml version="1.0" encoding="UTF-8"?>
<!-- Generator: Adobe Illustrator 25.3.1, SVG Export Plug-In . SVG Version: 6.00 Build 0)  -->
<svg xmlns="http://www.w3.org/2000/svg" xmlns:xlink="http://www.w3.org/1999/xlink" version="1.1" id="Capa_1" x="0px" y="0px" viewBox="0 0 512 512" style="enable-background:new 0 0 512 512;" xml:space="preserve" width="512" height="512">
<g>
	<g>
		<g>
			<g>
				<path style="fill:#FC09B2;" d="M335.426,318.881c0.105,2.537,0.209,5.075,0.28,7.614c0.04,1.41,0.167,2.945-1.129,2.575      c-1.147-0.327-27.717-10.855-47.678-15.767c-4.768-1.173-11.612-2.517-16.268-0.643c-6.014,2.422-5.304,8.901-2.064,14.532      c6.727,11.691,41.676,41.277,68.607,52.717c3.921,1.665,2.388-0.21,4.547,13.712c5.44,35.085,8.798,42.985,9.288,47.391      c0.392,3.528-0.958,6.093-4.019,7.984c-28.177,17.403-40.253-0.67-60.4,8.382c-9.618,4.321-13.709,8.88-26.874,11.102      c-7.589,1.281-17.755-2.584-25.072-6.937c-19.567-11.641-24.797-6.413-40.901-5.53c-10.338,0.567-21.149-3.415-29.324-9.366      c-3.474-2.529-3.052-6.341-1.794-10.449c2.578-8.42,5.945-25.453,7.592-34.124c4.014-21.145,2.327-21.696,4.884-22.716      c17.591-7.015,42.83-23.124,63.712-43.527c5.446-5.321,7.342-8.942,8.539-11.506c2.199-4.711,1.611-9.815-3.078-11.812      c-5.156-2.196-13.765-0.395-19.173,1c-22.614,5.831-40.904,13.195-45.036,14.334c-1.438,0.396-1.109-0.791-1.057-5.73      c0.068-6.559,0.646-14.07,0.583-20.547c-0.042-4.238-0.396-8.461-0.348-12.704c0.12-10.58-2.626-33.912-3.479-34.663      c-0.091-0.08-0.267-0.138-0.374-0.106c-0.357,0.105-0.187,0.599-0.138,0.922c2.348,15.635,3.814,22.801,2.998,64.238      c-0.045,2.271-0.206,2.359-2.395,2.532c-13.596,1.075-32.544,0.224-44.78-5.533c-0.875-0.412-1.319-1.16-1.139-2.07      c1.033-5.228,0.219-65.072,57.057-98.31c9.193-5.376,20.21-9.825,23.909-10.806c1.122-0.298,0.915,0.733,1.673,5.856      c2.361,15.949,11.106,29.929,26.398,36.41c8.09,3.428,13.365,3.384,17.491,3.871c0.49,0.058,0.986,0.151,1.474,0.127      c7.904-0.385,15.577-1.735,22.66-5.504c14.428-7.679,21.802-22.005,23.659-38.205c0.229-2,0.566-2.108,2.2-1.54      c42.621,14.809,73.016,51.592,77.643,100.486c0.961,10.161,0.848,10.856-1.021,11.747c-4.909,2.339-13.304,3.82-18.681,4.494      c-9.246,1.158-23.355,0.652-26.639,0.059c-0.967-0.175-1.302-0.486-1.311-1.806c-0.059-9.313-0.791-7.292,0.27-31.342      c1.132-25.653,4.19-33.305,3.481-34.248c-0.084-0.112-0.294-0.117-0.348-0.043c-0.357,0.489-1.419,6.863-1.507,7.447      c-2.313,15.469-1.91,21.009-2.515,28.028C335.378,296.135,335.261,314.908,335.426,318.881z"/>
				<g>
					<path style="fill:#FFBBEC;" d="M179.745,434.73c18.174,8.588,26.849-5.609,51.447,4.192       c9.288,3.992,15.745,11.491,25.325,11.742c7.439,0.353,13.732-3.589,20.047-7.609c26.09-17.049,44.745,6.101,66.731-12.668       c1.242-1.063,2.879,0.736,1.735,1.908c-6.519,6.628-16.619,10.617-27.919,9.89c-3.274-0.122-10.294-1.429-17.236-1.297       c-16.244,0.174-19.795,7.311-31.152,12.355c-23.689,10.63-30.726-13.343-55.397-13.585c-10.83-0.204-21.062,5.411-34.966-2.11       c-3.561-1.898-6.754-4.226-9.929-6.455c-0.547-0.384-0.683-1.144-0.304-1.698C169.367,427.584,171.293,430.718,179.745,434.73z       "/>
					<path style="fill:#FFBBEC;" d="M318.961,218.869c-18.218,63.817-96.529,65.155-118.666,9.662       c-1.271-3.286-2.44-6.547-2.86-10.264c-0.081-0.711,0.431-1.353,1.142-1.434c1.242-0.14,1.542,1.305,1.434,1.131       c1.225,7.118,9.252,23.186,21.174,32.878c26.829,21.305,76.413,18.49,95.46-32.737c0.235-0.632,0.938-0.954,1.57-0.719       C318.814,217.61,319.132,218.263,318.961,218.869z"/>
					<path style="fill:#FFBBEC;" d="M154.5,301.467c7.841,1.056,13.203,1.619,18.013,2.694c1.371,0.306,1.293,2.401-0.103,2.592       c-11.2,1.503-26.531-0.061-36.454-5.845c-0.569-0.332-0.774-1.085-0.458-1.682C136.334,297.645,137.731,299.378,154.5,301.467z       "/>
					<path style="fill:#FFBBEC;" d="M378.065,303.332c-9.982,4.324-25.707,6.439-36.578,4.765c-0.68-0.105-1.15-0.772-1.051-1.491       c0.211-1.519,0.737-1.394,28.02-4.824c9.445-1.073,10.262-1.194,10.334,0.344C378.817,302.662,378.51,303.138,378.065,303.332z       "/>
				</g>
				<g style="opacity:0.25;">
					<path style="fill:#000E3F;" d="M257.88,427.239c11.958-1.635,22.185-5.853,30.869-14.105       c15.114-14.361,17.973-46.134,18.916-49.246c0.391-1.289,0.391-0.439,9.568,5.447c4.293,2.754,12.926,7.494,20.805,10.939       c3.298,1.442,1.102-0.5,5.857,26.816c4.798,27.561,7.316,31.338,7.138,35.704c-0.094,2.3-1.091,4.26-3.409,5.773       c-21.859,14.274-36.003,5.969-48.345,6.138c-16.342,0.224-20.255,10.46-39.428,13.763c-3.745,0.645-7.316,0.025-10.892-0.839       c-13.777-3.328-18.246-11.077-31.917-13.233c-11.426-1.802-22.013,4.611-37.178-0.119c-1.063-0.331-2.549-0.647-2.055-1.565       c0.412-0.766,6.568-8.428,12.372-13.636c14.503-13.015,30.437-12.3,43.026-12.208       C233.198,428.066,256.377,427.445,257.88,427.239z"/>
					<path style="fill:#000E3F;" d="M336.214,306.2c-0.272-5.515,0.463-10.998,0.525-16.504c0.171-15.314,3.588-32.671,3.577-34.259       c-0.002-0.334-0.283-0.679,0.037-0.995c0.205-0.202,0.965-0.034,1.335,0.389c7.695,8.806,3.149,21.518,8.959,39.857       c7.777,24.547,24.316,25.329,22.394,26.578c-1.794,1.165-20.435,3.385-35.123,1.616c-1.165-0.14-1.504-0.457-1.45-1.655       c0.16-3.535-0.49-7.041-0.298-10.576C336.251,309.171,336.204,307.684,336.214,306.2z"/>
					<path style="fill:#000E3F;" d="M178.255,319.222c-0.011,1.411,0.018,2.339-1.307,2.464       c-16.404,1.543-37.551-1.174-35.568-2.591c0.693-0.495,13.544-3.252,21.655-22.186c6.345-14.813,4.717-38.725,11.377-43.596       c0.144-0.105,0.396-0.107,0.588-0.08c0.09,0.012,0.228,0.212,0.219,0.316c-0.195,2.455,0.74,1.352,2.848,26.043       c0.072,0.844,0.015,1.697,0.069,2.543C178.739,291.692,178.437,296.042,178.255,319.222z"/>
					<path style="fill:#000E3F;" d="M336.616,277.306c-0.828,7.966-1.204,28.604-1.21,28.777       c-0.761,23.033,2.401,24.227-2.352,22.433c-5.752-2.17-11.527-4.28-17.318-6.342c-1.579-0.562-1.874-0.961-1.55-2.816       c2.326-13.293,8.68-35.031,14.543-47.289c5.78-12.085,6.878-12.678,9.899-16.748c0.162-0.219,0.407-0.463,0.715-0.33       C340.235,255.375,338.894,255.384,336.616,277.306z"/>
				</g>
				<path style="fill:#DB5E43;" d="M378.654,320.82c-0.184,0.047-4.993,1.626-11.372,2.499c-11.915,1.63-25.67,0.905-28.506,0.467      c-2.483-0.384-2.261,0.187-2.287,3.627c-0.03,3.856,0.746,1.854,25.931,13.236c6.493,2.934,7.568,3.435,7.448,3.81      c-0.231,0.717-1.927-0.498-9.206-3.735c-39.195-17.434-61.45-21.603-67.069-25.924c-9.398-7.228-13.952-20.056-14.926-31.454      c-0.863-10.092-3.431-24.555-7.604-35.093c11.978-3.323,22.603-11.367,28.069-24.005c2.905-6.717,4.439-15.312,4.376-17.818      c-0.031-1.231-0.036-1.464-2.138-2.132c-8.113-2.577-16.922-4.676-25.35-5.87c-15.935-2.258-22.111-2.241-38.1,0.107      c-9.842,1.446-19.955,4.057-24.13,5.536c-1.483,0.525-1.291,0.747-0.463,6.376c3.063,20.834,16.306,33.258,31.708,37.694      c-1.166-0.336-5.528,18.213-5.88,20.113c-1.09,5.876-1.689,11.825-2.685,17.715c-1.995,11.793-7.46,24.384-18.561,30.192      c-3.668,1.919-6.506,1.217-40.229,13.611c-1.623,0.596-32.981,13.859-33.355,13.236c0.004,0.006-0.074-0.033-0.068-0.033      c0.018-0.185,0.13-0.308,0.261-0.452c0.332-0.363,0.059-0.167,6.528-2.995c34.601-15.124,24.828-7.474,27.125-15.621      c0.037-0.13,0.006-0.281-0.005-0.422c-0.125-1.721-2.365-0.603-5.576-0.608c-9.077-0.015-13.681,0.153-19.259-0.428      c-16.38-1.706-18.367-4.957-18.904-2.656c-2.894,12.398-5.92,50.292,1.235,60.972c7.628,11.387,27.918,2.214,40.487-2.742      c24.712-9.745,58.487-36.73,68.083-49.731c4.501-6.097,7.485-10.259,10.843-16.754c2.5-4.836,1.83-1.517,2.387-59.045      c0.008-0.881-0.564-1.382-1.305-1.724c0.31-0.246,0.574-0.51,0.806-0.79c0.803,0.021,1.605,0.03,2.408,0.011      c0.162,0.274,0.335,0.544,0.509,0.813c-1.281,1.055-1.193,2.03-1.21,4.285c-0.408,54.162-0.946,51.686,1.137,55.941      c2.463,5.033,5.454,9.69,8.743,14.138c7.792,15.844,48.447,46.114,71.48,54.99c8.111,3.126,17.623,8.201,29.253,7.51      c13.245-0.788,13.176-19.622,13.269-32.361c0.029,0,0.059,0,0.088,0.001c0.001-0.18,0.293-11.065-0.659-20.098      C380.359,319.844,380.414,320.372,378.654,320.82z"/>
			</g>
			<path style="fill:#000E3F;" d="M317.063,208.387c-23.891-10.847-52.09-15.489-75.422-12.419     c-15.952,2.099-30.864,6.275-44.322,12.415c-16.483,7.518-30.613,18.235-41.995,31.852     c-16.634,19.901-26.805,47.677-27.208,74.302c-0.034,2.285,1.409,3.026,2.984,3.834l0.324,0.164     c1.142,0.575,1.142,0.575,0.683,3.061c-0.449,2.434-1.286,6.964-1.926,15.977l-0.117,1.642     c-1.353,18.816-3.397,47.251,14.591,48.831c8.419,0.75,18.924-3.073,23.973-4.906c1.269-0.46,2.186-0.793,2.644-0.902     c0.051-0.012,0.086-0.016,0.101-0.022c0.041,0.175-0.049,0.708-0.123,1.142c-0.051,0.304-0.109,0.647-0.159,1.025     c-1.417,10.685-4.604,28.58-8.526,44.474c-0.416,1.686-0.823,3.186-1.189,4.539c-1.547,5.721-2.4,8.872-0.333,12.341     c2.133,3.578,11.007,7.786,14.97,9.264c11.484,4.281,19.238,3.105,26.739,1.967c6.8-1.031,13.228-2.006,21.818,1.408     c2.497,0.993,6.202,3.139,9.178,4.863c1.825,1.057,3.401,1.97,4.412,2.459c2.648,1.28,10.853,4.921,18.471,4.977     c1.368,0.01,2.719-0.095,4.014-0.352c9.106-1.8,13.711-4.326,19.045-7.251c2.05-1.124,4.173-2.288,6.721-3.513     c7.624-3.667,14.975-2.635,22.757-1.544c11.01,1.542,23.48,3.291,39.528-7.94c3.395-2.377,5.06-4.712,4.131-10.234     c-0.053-0.314-0.22-0.953-0.497-2.013c-1.382-5.275-5.584-21.328-9.857-52.914c-0.114-0.84-0.127-1.31-0.042-1.397     c0.182-0.118,1.198,0.315,2.26,0.762c2.279,0.958,6.519,2.74,13.693,4.402c13.944,3.224,21.244-0.499,24.434-12.448     c3.553-13.313,1.508-40.77-0.615-54.949c-0.048-0.335,0.039-0.484,0.364-0.616c1.901-0.773,4.266-1.735,4.102-4.45     c-0.044-0.728-0.042-1.182-0.041-1.657c0.002-1.228,0.004-2.621-0.747-9.124C380.718,260.657,356.277,226.191,317.063,208.387z      M214.192,208.757c-0.06-0.496-0.121-0.927-0.172-1.302c-0.317-2.253-0.317-2.253,1.782-2.881     c29.145-8.729,56.204-8.496,85.157,0.737l0.156,0.05c1.159,0.367,1.489,0.506,1.398,1.254     c-2.116,17.099-8.811,28.947-20.469,36.219c-2.949,1.84-6.189,3.279-9.589,4.336c-1.277-3.062-2.706-5.91-4.328-8.191     c-2.936-4.127-7.715-8.062-12.421-6.318c-5.357,1.985-9.256,7.651-12.144,14.328c-1.781-0.581-3.521-1.27-5.2-2.074     C224.822,238.44,216.239,225.599,214.192,208.757z M131.144,313.3c0.019-0.235,0.042-0.497,0.062-0.79     c2.705-39.808,19.244-70.465,49.156-91.121c10.631-7.342,24.041-13.256,29.754-14.94c0.383-0.112,0.616-0.164,0.662-0.144     c0.03,0.035,0.073,0.165,0.11,0.593c1.873,21.279,13.692,36.93,31.568,42.813c-2.622,6.907-4.289,14.477-5.394,20.081     c-2.281,11.569-2.155,23.721-8.777,33.937c-6.32,9.75-6.842,8.356-43.385,21.329l-2.88,1.025     c-0.993,0.361-1.772,0.645-2.007,0.467c-0.382-0.288-0.258-2.063-0.051-5.004c0.465-6.631,1.433-20.429-0.48-48.12     c-0.359-5.211-1.655-16.053-2.57-19.574c-0.224-0.86-0.932-1.188-1.522-1.12c-0.724,0.076-1.255,0.663-1.293,1.427l-0.018,0.339     c-0.019,0.365-0.02,0.4,0.052,0.7c0.395,1.656,1.025,5.982,1.874,12.859c1.341,10.881,2.072,36.905,1.012,51.768     c-0.03,0.423-0.206,0.625-0.608,0.696c-8.73,1.549-31.793,0.225-42.647-4.261C130.992,315.116,130.992,315.116,131.144,313.3z      M142.371,384.553c-15.595-3.814-9.509-51.298-7.026-63.805c0.029-0.143,0.078-0.191,0.123-0.22     c0.09-0.058,0.235-0.083,0.429-0.082c0.588,0.004,1.634,0.256,3.04,0.594c4.281,1.03,13.183,3.176,29.329,3.073     c3.461-0.023,5.639-0.198,6.941-0.303c0.857-0.068,1.6-0.13,1.72-0.041c0.04,0.064,0.028,0.355,0.016,0.612l-0.004,0.096     c-0.029,0.733-0.031,1.312-0.031,1.776c-0.005,1.629-0.005,1.629-1.622,2.224c-0.413,0.151-0.918,0.336-1.536,0.584l-1.78,0.71     c-6.904,2.748-25.239,10.048-28.169,11.85c-0.723,0.445-0.783,1.119-0.599,1.601c0.24,0.626,0.867,1.04,1.428,0.934     c1.078-0.196,3.442-1.27,7.396-2.961c49.655-21.238,65.502-21.237,74.391-30.057c4.798-4.761,7.97-10.955,9.83-17.397     c1.113-3.855,1.58-7.915,2.174-11.873c0.818-5.448,1.648-10.897,2.789-16.288c5.051-23.847,14.934-32.384,14.936-28.011     c0,12.779,0.433,10.073-2.611,13.223c-0.092,0.095-0.915,1.129-0.962,1.123c-7.594,9.141-7.207,25.1-7.166,36.778     c0.004,1.1,0.397,2.481,1.498,2.517c3.715,0.12-0.893-11.67,4.131-29.353c1.204-4.235,4.905-10.876,4.975-6.394     c0.057,3.642-0.369,39.602-0.289,48.267c0.027,2.932-0.672,5.528-2.138,8.006c-7.747,13.099-17.375,24.918-29.159,34.581     c-11.037,9.05-22.875,17.308-35.36,24.238c-4.252,2.359-8.607,4.575-13.127,6.378c-0.775,0.309-1.587,0.639-2.431,0.982     C164.259,381.667,151.598,386.808,142.371,384.553z M340.258,390.434c0.865,6.543,2.314,17.493,5.723,33.37     c1.395,6.495,2.391,10.48,3.048,13.117c0.921,3.685,1.169,4.675,0.961,6.221c-0.262,1.948-1.237,3.441-2.981,4.563     c-15.877,10.215-26.94,8.499-36.705,6.987c-1.913-0.297-3.721-0.577-5.527-0.764c-12.546-1.305-18.925,2.304-25.682,6.12     c-5.218,2.947-10.615,5.995-19.354,7.349c-9.844,1.518-20.626-4.529-27.765-8.535c-2.096-1.177-3.904-2.192-5.31-2.807     c-5.185-2.264-9.797-3.004-14.1-3.035c-3.801-0.028-7.363,0.497-10.868,1.013c-9.839,1.45-20.016,2.948-35.43-7.376     c-4.591-3.075-3.724-6.218-1.997-12.48c0.314-1.137,0.654-2.368,0.99-3.709c2.6-10.372,4.753-20.26,8.062-40.111     c0.44-2.63,0.67-4.566,0.837-5.979c0.387-3.268,0.485-3.703,1.716-4.178c13.423-5.175,25.83-13.155,37.425-21.57     c46.07-33.437,41.103-52.648,46.146-44.091c6.257,10.618,14.543,28.922,57.515,55.671c6.855,4.267,13.944,8.287,21.408,11.395     C339.13,381.921,339.554,385.125,340.258,390.434z M378.396,379.813c-2.205,5.083-6.862,7.598-12.782,6.904     c-12.768-1.501-24.97-6.561-36.216-12.597c-10.806-5.801-20.993-12.737-30.668-20.26c-5.382-4.186-10.835-8.335-15.767-13.056     c-8.044-7.699-20.081-24.645-22.737-31.993c-0.34-0.94-0.669-1.952-0.65-2.964c1.036-53.762-0.424-51.116,1.054-52.041     c1.267-0.8,6.687,11.089,6.485,24.726c-0.146,9.92-0.495,12.771,1.372,12.831c0.382,0.013,0.979-0.314,1.125-0.649     c0.694-1.589,0.537-2.398,0.534-10.209c0.064-8.782-0.689-20.878-6.16-27.872c-0.167-0.214-2.943-3.418-3.121-3.408     c-0.568-0.76-0.9-1.627-0.867-3.087c0.199-8.649-0.306-9.162,0.872-9.43c0.806-0.183,1.47,0.408,2.046,0.928     c8.03,7.255,12.628,29.506,13.675,40.128c0.717,7.273,1.64,14.659,4.368,21.494c2.148,5.38,8.13,14.706,12.608,17.484     c2.881,1.788,6.739,2.322,9.952,3.354c8.737,2.807,20.223,6.84,29.982,10.637c18.517,7.204,27.589,11.396,31.951,13.41     c4.39,2.029,4.753,2.2,5.444,1.031c0.206-0.348,0.254-0.702,0.142-1.051c-0.29-0.918-1.659-1.536-2.564-1.946     c-15.579-7.033-23.397-10.164-27.153-11.669c-3.57-1.43-3.57-1.43-3.573-1.961l-0.022-0.847     c-0.042-1.445-0.066-2.317,0.185-2.575c0.059-0.06,0.185-0.141,0.589-0.138c2.178,0.016,4.399,0.131,6.547,0.244     c2.426,0.127,4.949,0.253,7.416,0.247c12.689-0.055,19.625-1.877,23.35-2.856c1.728-0.453,2.87-0.753,3.271-0.49     c0.084,0.055,0.205,0.176,0.265,0.58C381.733,338.44,383.58,367.847,378.396,379.813z M383.034,306.926     c0.156,1.399,0.243,2.829,0.327,4.212c0.068,1.126,0.137,2.253,0.241,3.378l0.025,0.258c0.194,2.075,0.194,2.075-1.333,2.737     l-0.663,0.29c-10.002,4.481-36.046,5.741-42.444,4.189l-0.54-0.126c-1.253-0.29-1.253-0.29-1.241-1.969     c0.049-6.506,0.064-11.285,0.076-15.01c0.042-13.162,0.042-13.162,1.355-29.79l0.021-0.27c0.627-7.928,1.555-12.894,2.112-15.862     c0.62-3.312,0.852-4.552-0.351-4.968c-0.406-0.142-0.799-0.106-1.14,0.096c-0.756,0.452-1.017,1.583-1.092,2.05     c-5.207,31.709-4.098,68.094-3.844,70.181c0.024,0.201,0.051,0.385,0.075,0.554c0.051,0.361,0.115,0.81,0.074,0.895     c-0.301,0.15-1.942-0.5-4.455-1.473c-3.778-1.464-10.104-3.914-21.056-7.516l-0.296-0.096     c-11.269-3.709-16.214-3.14-23.445-17.217c-2.696-5.249-3.857-10.994-4.666-16.793c-0.717-5.138-1.291-10.293-2.155-15.41     c-0.895-5.303-2.589-12.64-5.044-19.304c4.717-1.507,9.126-3.705,13.032-6.639c10.123-7.609,16.526-19.341,18.518-33.93     c0.027-0.196,0.068-0.388,0.109-0.581c0.032-0.149,0.061-0.298,0.087-0.446l0.085-0.511c0.06-0.375,0.123-0.763,0.181-0.826     c0.125-0.039,0.688,0.165,1.327,0.4C350.632,223.579,377.666,258.915,383.034,306.926z"/>
		</g>
		<g>
			<g>
				<g>
					<path style="fill:#DB5E43;" d="M234.926,209.707c1.928-9.018,3.066-16.232,3.726-21.656c0.861-7.009,0.96-11.076,1.107-12.264       c0.036-0.224-0.09-23.08,12.604-31.243c12.521-8.061,25.465,8.442,25.314,31.486c-0.026,3.619,0.304,7.948,0.84,12.416       c0.892,7.642,2.35,15.736,3.479,21.605"/>
					<path style="opacity:0.25;fill:#000E3F;" d="M278.517,188.446c-4.945,6.876-12.078,11.184-19.989,11.126       c-7.946-0.058-15.031-4.505-19.875-11.521c0.861-7.009,0.96-11.076,1.107-12.264c0.036-0.224-0.09-23.08,12.604-31.243       c12.521-8.061,25.465,8.442,25.314,31.486C277.651,179.649,277.981,183.978,278.517,188.446z"/>
				</g>
				<path style="fill:#000E3F;" d="M234.915,211.431c-0.114-0.001-0.232-0.013-0.35-0.038c-0.931-0.199-1.524-1.115-1.325-2.046      c1.669-7.809,2.914-15.044,3.702-21.505c0.603-4.91,0.827-8.335,0.96-10.382c0.059-0.89,0.1-1.518,0.147-1.885      c0.119-5.691,1.456-24.813,13.382-32.482c4.458-2.873,9.374-3.103,13.844-0.646c8.55,4.701,14.227,18.201,14.126,33.594      c-0.024,3.316,0.254,7.42,0.828,12.199c0.7,6.004,1.832,13.03,3.46,21.485c0.18,0.935-0.431,1.838-1.366,2.018      c-0.934,0.178-1.84-0.432-2.018-1.366c-1.644-8.539-2.789-15.647-3.499-21.731c-0.59-4.918-0.877-9.168-0.852-12.629      c0.092-13.941-4.982-26.503-12.34-30.549c-3.402-1.869-6.874-1.694-10.317,0.525c-10.768,6.925-11.726,25.911-11.809,29.647      c-0.005,0.258-0.023,0.404-0.028,0.428c-0.031,0.259-0.065,0.821-0.116,1.618c-0.136,2.083-0.364,5.571-0.979,10.576      c-0.799,6.56-2.061,13.898-3.751,21.806C236.437,210.882,235.716,211.437,234.915,211.431z"/>
			</g>
			<g>
				<g>
					<g>
						<g>
							<path style="fill:#DB5E43;" d="M298.937,131.042c-0.049,6.655-1.7,13.989,4.519,14.034         c18.461,0.135,21.37-25.895,6.83-26.002C304.067,119.029,298.985,124.387,298.937,131.042z"/>
							<path style="fill:#DB5E43;" d="M219.14,130.459c-0.048,6.655,1.496,14.012-4.724,13.967         c-18.461-0.135-20.989-26.205-6.45-26.099C214.187,118.372,219.189,123.804,219.14,130.459z"/>
						</g>
						<g style="opacity:0.25;">
							<path style="fill:#000E3F;" d="M310.501,134.831c-3.255,2.031-4.291,0.613-3.629-0.349c1.094-1.592,2.503-2.743,4.665-5.58         c1.093-1.458,1.654-3,2.606-2.326C315.385,127.454,314.561,132.258,310.501,134.831z"/>
							<path style="fill:#000E3F;" d="M206.573,128.135c1.513,2.046,2.328,2.832,2.941,3.589c1.318,1.515,1.757,2.23,1.641,2.056         c0.459,0.685-0.143,1.583-0.951,1.422c-3.991-0.809-7.485-5.273-6.526-8.969c0.175-0.674,1.058-0.816,1.443-0.255         C205.12,125.977,206.134,127.53,206.573,128.135z"/>
						</g>
					</g>
					<g>
						<path style="fill:#000E3F;" d="M303.444,146.8c-1.91-0.014-3.431-0.603-4.517-1.751c-2.228-2.356-2.035-6.371-1.831-10.622        c0.054-1.126,0.109-2.272,0.117-3.398c0.055-7.594,5.926-13.73,13.086-13.678c3.454,0.025,6.323,1.331,8.298,3.778        c1.727,2.138,2.665,5.088,2.641,8.308C321.175,138.035,314.502,146.881,303.444,146.8z M310.274,120.799        c-5.26-0.038-9.572,4.562-9.614,10.256c-0.009,1.172-0.066,2.365-0.122,3.537c-0.161,3.343-0.326,6.8,0.892,8.088        c0.155,0.164,0.628,0.663,2.038,0.673c9.235,0.068,14.272-7.132,14.322-13.94c0.018-2.425-0.648-4.598-1.876-6.118        C314.592,121.656,312.694,120.816,310.274,120.799z"/>
						<path style="fill:#000E3F;" d="M214.404,146.149c-11.058-0.081-17.601-9.023-17.538-17.62c0.024-3.22,1.004-6.156,2.762-8.269        c2.011-2.417,4.898-3.681,8.352-3.656c7.16,0.052,12.94,6.274,12.885,13.868c-0.008,1.126,0.031,2.273,0.068,3.399        c0.142,4.254,0.276,8.271-1.986,10.594C217.844,145.596,216.314,146.163,214.404,146.149z M207.955,120.051        c-2.42-0.018-4.33,0.794-5.677,2.413c-1.25,1.502-1.948,3.665-1.965,6.09c-0.05,6.808,4.881,14.081,14.117,14.148        c1.41,0.01,1.89-0.481,2.048-0.643c1.236-1.27,1.122-4.728,1.01-8.074c-0.039-1.173-0.079-2.366-0.07-3.539        C217.459,124.753,213.214,120.089,207.955,120.051z"/>
					</g>
				</g>
				<g>
					<path style="fill:#DB5E43;" d="M296.535,163.18c-5.951,9.522-19.954,23.106-37.731,23.183l-0.343-0.003       c-17.773-0.337-31.576-14.123-37.388-23.732c-10.639-17.59-7.95-52.336,0.095-68.927c7.78-16.042,21.663-24.472,38.15-24.714       c0.066-0.017,0.115-0.016,0.18-0.016c0.049,0,0.114,0.001,0.163,0.018c16.482,0.482,30.241,9.115,37.786,25.269       C305.249,110.967,307.429,145.748,296.535,163.18z"/>
					<g style="opacity:0.25;">
						<path style="fill:#000E3F;" d="M285.053,135.195c-6.029-0.044-10.965,3.931-11.001,8.861c-0.036,4.93,4.841,8.977,10.87,9.021        c6.031,0.044,10.966-3.931,11.002-8.861C295.96,139.286,291.083,135.239,285.053,135.195z"/>
						<path style="fill:#000E3F;" d="M233.11,134.816c-6.031-0.044-10.966,3.931-11.002,8.861c-0.036,4.93,4.841,8.977,10.872,9.021        c6.029,0.044,10.965-3.931,11.001-8.861C244.015,138.907,239.139,134.86,233.11,134.816z"/>
					</g>
					<g>
						<path style="fill:#000E3F;" d="M299.01,93.53c-7.66-16.396-21.588-25.72-39.228-26.26c-0.21-0.027-0.328-0.042-0.626-0.003        c-17.616,0.304-31.653,9.42-39.54,25.683c-7.747,15.977-11.608,51.412-0.019,70.571c5.415,8.952,19.689,24.2,38.851,24.562        l0.362,0.003c19.146-0.082,33.64-15.12,39.186-23.993C309.862,145.105,306.521,109.619,299.01,93.53z M295.074,162.266        c-5.172,8.274-18.633,22.297-36.259,22.373l-0.321-0.002c-17.643-0.334-30.897-14.552-35.948-22.901        c-9.977-16.497-8.064-50.297,0.173-67.282c7.308-15.071,20.315-23.503,36.624-23.743c0.045-0.001,0.089-0.003,0.133-0.006        c0.045,0.004,0.089,0.008,0.135,0.009c16.303,0.477,29.186,9.099,36.275,24.275        C303.872,112.092,305.291,145.916,295.074,162.266z"/>
						<path style="fill:#000E3F;" d="M272.016,108.016c-0.07,6.671,16.308,10.627,18.096,3.7        C292.22,103.553,272.107,99.318,272.016,108.016z"/>
						<path style="fill:#000E3F;" d="M246.396,107.829c0.036-8.698-20.137-4.758-18.149,3.435        C229.934,118.216,246.368,114.5,246.396,107.829z"/>
						<path style="fill:#000E3F;" d="M285.953,119.645c-0.953-0.007-1.729,0.759-1.736,1.711c-0.028,3.902-2.434,5.84-4.657,5.99        c-2.088,0.138-4.741-1.246-5.366-5.611c-0.134-0.941-1-1.601-1.95-1.463c-0.942,0.135-1.598,1.008-1.464,1.949        c0.852,5.957,4.747,8.555,8.424,8.581c0.197,0.001,0.392-0.004,0.586-0.018c3.882-0.261,7.831-3.575,7.874-9.404        C287.671,120.43,286.906,119.652,285.953,119.645z"/>
						<path style="fill:#000E3F;" d="M245.988,120.08c-0.941-0.152-1.822,0.495-1.971,1.434c-0.688,4.355-3.346,5.687-5.447,5.533        c-2.22-0.183-4.598-2.156-4.57-6.058c0.007-0.952-0.758-1.729-1.711-1.736c-0.953-0.007-1.729,0.759-1.736,1.711        c-0.043,5.829,3.858,9.2,7.735,9.518c0.193,0.016,0.389,0.025,0.586,0.026c3.678,0.027,7.61-2.514,8.549-8.457        C247.572,121.111,246.928,120.229,245.988,120.08z"/>
						<path style="fill:#000E3F;" d="M257.579,119.129c-6.773,15.7-6.938,16.083-6.938,16.083c-0.856,1.983-0.312,3.508,0.294,4.438        c2.097,3.213,7.905,3.91,9.345,3.92c0.953,0.007,1.729-0.759,1.736-1.711c0.007-0.952-0.758-1.729-1.711-1.736        c-1.752-0.013-5.543-0.917-6.483-2.357c-0.165-0.254-0.282-0.574-0.013-1.199c0.111-0.258,6.934-16.072,6.934-16.072        c0.377-0.874-0.025-1.889-0.899-2.266C258.972,117.852,257.956,118.256,257.579,119.129z"/>
					</g>
				</g>
			</g>
			<g>
				<g>
					<path style="fill:#000E3F;" d="M206.449,123.971c-8.339,0.471-16.581-9.284-17.678-19.699       c-0.477-4.531,2.583-15.812,9.521-23.866c6.671-7.746,14.093-7.156,16.168-18.386c4.472-24.204,33.154-23.895,44.075-12.859       c2.124,2.146,1.757-3.844,16.898-6.565c4.815-0.865,9.366-0.068,13.852,1.383c10.109,3.27,13.366,10.523,15.277,19.863       c1.357,6.635,5.836,9.467,9.768,12.2c12.03,8.363,23.012,31.724,6.354,45.251c-11.629,9.443-26.967-1.396-29.958-15.85       c-2.586-12.496-2.31-9.88-8.662-11.543c-9.305-2.436-15.907-8.373-22.181-15.582c-0.422-0.485-0.766-0.771-1.289-0.114       c-8.328,10.457-19.46,15.632-26.23,16.107c-1.58,0.111-2.417,0.982-2.808,2.438c-2.253,8.39-2.907,13.312-7.937,19.744       c-2.815,3.6-6.642,5.586-10.757,7.165C209.586,124.147,208.204,123.949,206.449,123.971z"/>
					<g>
						<path style="fill:#4217A6;" d="M268.666,60.677c0.368,5.923,5.052,10.277,10.115,13.322c2.486,1.495,5.321,2.494,8.411,3.711        c3.052,1.223,6.362,2.84,9.041,5.722c2.574,2.859,3.962,6.299,4.905,9.519c0.917,3.259,1.543,6.427,2.259,9.429        c0.748,2.98,1.629,5.821,3.255,7.993c1.549,2.246,4.041,3.589,6.933,4.386l0.05,0.014c0.729,0.201,1.157,0.955,0.957,1.684        c-0.175,0.636-0.771,1.042-1.404,1.003c-3.428-0.211-7.111-1.692-9.655-4.459c-2.523-2.768-3.824-6.146-4.821-9.299        c-1.022-3.174-1.688-6.304-2.65-9.182c-0.907-2.888-2.08-5.534-3.866-7.442c-3.336-3.986-10.147-5.026-16.007-9.063        c-2.81-1.937-5.421-4.301-7.4-7.253c-1.928-2.942-3.147-6.62-2.691-10.165c0.088-0.706,0.733-1.207,1.439-1.119        C268.163,59.556,268.627,60.073,268.666,60.677z"/>
						<path style="fill:#4217A6;" d="M282.165,52.837c-0.02,2.638,0.402,5.151,1.665,7.241c1.193,2.114,3.009,3.859,5.082,5.386        c2.099,1.501,4.423,2.834,6.876,4.057l3.726,1.869c1.25,0.634,2.537,1.224,3.935,2.068c2.671,1.669,5.054,3.841,6.895,6.44        c1.81,2.597,3.119,5.648,3.599,8.743c0.537,3.061,0.444,5.926,0.738,8.511c0.203,2.613,0.966,4.904,2.463,6.976l0.011,0.016        c0.444,0.615,0.306,1.473-0.309,1.917c-0.525,0.379-1.228,0.333-1.699-0.071c-2.395-2.056-3.805-5.212-4.485-8.142        c-0.665-2.965-0.87-5.768-1.488-8.228c-1.146-4.829-4.339-8.947-8.58-11.534c-0.999-0.636-2.26-1.257-3.51-1.916        c-1.244-0.654-2.521-1.289-3.778-2.007c-2.506-1.433-5.063-2.959-7.375-4.965c-2.317-1.965-4.439-4.447-5.675-7.442        c-1.194-3.009-1.346-6.332-0.636-9.263c0.168-0.692,0.865-1.118,1.558-0.95c0.594,0.144,0.991,0.677,0.987,1.263        L282.165,52.837z"/>
						<path style="fill:#4217A6;" d="M251.968,60.494c0.404,3.547-0.866,7.205-2.834,10.117c-2.019,2.922-4.661,5.248-7.496,7.143        c-5.928,3.955-12.694,4.889-16.174,8.822c-1.862,1.861-3.075,4.461-4.038,7.305c-1.008,2.841-1.694,5.957-2.746,9.123        c-1.022,3.144-2.388,6.523-4.963,9.232c-2.596,2.7-6.21,4.134-9.613,4.436c-0.753,0.067-1.418-0.489-1.485-1.242        c-0.058-0.658,0.359-1.248,0.967-1.431l0.059-0.017c2.881-0.869,5.406-2.212,7.002-4.43c1.669-2.142,2.587-4.945,3.36-7.914        c0.743-2.988,1.39-6.158,2.372-9.415c1.012-3.215,2.496-6.646,5.153-9.405c2.727-2.765,6.049-4.362,9.118-5.529        c3.104-1.169,5.949-2.127,8.454-3.586c5.101-2.971,9.841-7.253,10.296-13.165c0.054-0.71,0.674-1.241,1.384-1.186        C251.413,59.398,251.9,59.892,251.968,60.494z"/>
						<path style="fill:#4217A6;" d="M238.567,52.193c0.667,2.942,0.467,6.262-0.771,9.254c-1.28,2.976-3.438,5.427-5.784,7.358        c-2.342,1.972-4.92,3.46-7.447,4.856c-1.268,0.7-2.553,1.317-3.807,1.952c-1.259,0.64-2.529,1.242-3.537,1.865        c-4.278,2.524-7.534,6.6-8.744,11.406c-0.647,2.449-0.889,5.254-1.596,8.211c-0.719,2.918-2.177,6.073-4.642,8.072        l-0.029,0.023c-0.587,0.476-1.45,0.386-1.927-0.201c-0.419-0.517-0.399-1.247,0.012-1.739        c3.328-3.992,2.374-9.287,3.425-15.407c0.523-3.097,1.877-6.123,3.724-8.695c1.878-2.573,4.292-4.71,6.988-6.34        c1.41-0.824,2.706-1.395,3.965-2.011l3.754-1.815c2.471-1.187,4.815-2.486,6.935-3.956c2.095-1.496,3.937-3.215,5.161-5.311        c1.295-2.071,1.753-4.578,1.771-7.216v-0.03c0.005-0.713,0.587-1.286,1.299-1.281        C237.929,51.192,238.438,51.622,238.567,52.193z"/>
						<path style="fill:#4217A6;" d="M260.498,52.439c1.128,3.502,1.401,7.007,1.474,10.512c-0.011,1.753-0.057,3.506-0.266,5.26        c-0.192,1.754-0.482,3.508-1.05,5.263c-0.244,0.755-1.054,1.169-1.809,0.925c-0.449-0.146-0.78-0.499-0.921-0.914        c-0.581-1.751-0.884-3.503-1.088-5.255c-0.222-1.752-0.281-3.505-0.305-5.258c0.048-3.506,0.296-7.013,1.398-10.523        c0.223-0.71,0.979-1.104,1.688-0.881C260.05,51.702,260.367,52.04,260.498,52.439z"/>
					</g>
				</g>
				<g>
					<path style="fill:#000E3F;" d="M261.651,144.898c26.521,2.891,35.137,39.062,17.072,42.2c-4.274,0.742-7.128-2.032-7.924-0.12       c-0.959,2.307-0.698,3.762-4.036,6.984c-5.515,5.324-17.945,3.569-20.054-6.688c-0.219-1.063-0.803-1.236-2.174-0.996       c-0.602,0.105-1.238,0.142-1.798,0.336c-3.211,1.11-9.665-0.445-11.992-4.821C220.423,162.386,242.945,142.859,261.651,144.898       z"/>
					<g>
						<g>
							<path style="fill:#4217A6;" d="M247.579,164.675c-0.757,1.102-1.618,2.19-2.306,3.236c-0.695,1.063-1.334,2.095-1.825,3.186         c-0.534,1.067-0.985,2.173-1.353,3.368c-0.418,1.189-0.667,2.462-1.136,3.884l-0.053,0.16         c-0.248,0.751-1.057,1.159-1.808,0.911c-0.39-0.129-0.691-0.415-0.852-0.76c-0.699-1.516-1.064-3.217-0.961-4.943         c0.014-1.737,0.54-3.461,1.293-5.04c0.8-1.563,1.884-2.973,3.224-4.048c1.338-1.096,2.8-1.89,4.613-2.239         c0.714-0.138,1.405,0.33,1.543,1.044c0.069,0.359-0.014,0.712-0.205,0.992L247.579,164.675z"/>
							<path style="fill:#4217A6;" d="M273.09,165.471c0.324,1.297,0.569,2.662,0.897,3.871c0.337,1.225,0.686,2.387,1.178,3.477         c0.447,1.107,0.976,2.177,1.627,3.244c0.614,1.1,1.403,2.13,2.157,3.423l0.085,0.145c0.399,0.683,0.168,1.559-0.515,1.958         c-0.355,0.207-0.768,0.243-1.134,0.135c-1.599-0.481-3.115-1.333-4.34-2.553c-1.292-1.161-2.236-2.697-2.92-4.307         c-0.641-1.635-0.98-3.38-0.898-5.097c0.065-1.729,0.438-3.349,1.377-4.939c0.37-0.627,1.178-0.834,1.804-0.465         c0.315,0.186,0.524,0.483,0.607,0.811L273.09,165.471z"/>
							<path style="fill:#4217A6;" d="M260.528,169.383c-0.118,1.77-0.34,3.55-0.524,5.239c-0.156,1.703-0.363,3.362-0.378,4.979         c-0.064,1.615,0.009,3.175,0.167,4.715c0.232,1.522,0.606,2.974,1.147,4.621l0.054,0.165c0.242,0.736-0.159,1.53-0.896,1.771         c-0.442,0.145-0.911,0.054-1.263-0.198c-1.714-1.245-2.993-3.106-3.748-5.114c-0.729-2.015-0.943-4.128-0.897-6.168         c0.102-2.042,0.5-4.009,1.163-5.868c0.667-1.866,1.519-3.597,2.833-5.194c0.466-0.566,1.303-0.648,1.869-0.181         c0.341,0.281,0.506,0.696,0.482,1.106L260.528,169.383z"/>
						</g>
						<path style="fill:#DB5E43;" d="M258.809,162.447c-0.025,0-0.047,0-0.072-0.001c-5.845-0.074-10.854-4.232-11.911-9.887        c-0.175-0.936,0.441-1.836,1.378-2.011c0.929-0.181,1.835,0.441,2.01,1.377c0.756,4.045,4.359,7.02,8.566,7.073        c0.018,0,0.035,0,0.052,0c4.236,0.031,7.899-2.883,8.719-6.947c0.189-0.934,1.099-1.542,2.03-1.348        c0.934,0.189,1.537,1.098,1.349,2.03C269.783,158.417,264.692,162.49,258.809,162.447z"/>
					</g>
				</g>
			</g>
		</g>
		<g>
			<g>
				<path style="fill:#FFCF00;" d="M289.826,427.155c-0.367-0.003-0.728-0.066-1.079-0.187c-6.802-0.42-13.662-11.419-15.423-15.463      c-3.087-7.088-2.239-13.698-1.34-20.697l0.214-1.692c0.459-3.68,2.623-4.062,3.532-4.055c2.159,0.016,4.427,2.061,6.619,4.039      c0.811,0.731,1.577,1.422,2.093,1.767c5.372,3.581,12.164,5.549,20.769,6.018l0.456,0.008c0.662,0.005,1.303-0.021,1.902-0.045      c0.578-0.023,1.12-0.044,1.611-0.04c1.195,0.009,2.539,0.148,3.453,1.114c0.408,0.432,0.88,1.208,0.819,2.457      c-0.058,1.285-0.866,2.448-2.058,2.955c-4.307,1.829-8.589,2.741-12.726,2.711c0,0,0,0-0.002,0      c-1.03-0.008-2.056-0.073-3.079-0.198c2.649,1.358,5.026,2.125,6.913,2.734c2.576,0.833,4.277,1.382,4.986,2.912      c0.371,0.8,0.36,1.692-0.034,2.651c-0.494,1.194-1.644,2.015-2.931,2.093c-0.83,0.049-1.643,0.07-2.443,0.065      c-6.973-0.051-13.273-2.219-18.36-6.232c2.275,4.422,5.069,7.454,6.996,9.546c0.656,0.714,1.209,1.317,1.609,1.821l0.172,0.219      c0.814,1.024,0.967,2.393,0.395,3.566C292.313,426.405,291.11,427.165,289.826,427.155z"/>
				<path style="fill:#000E3F;" d="M275.717,386.784c2.223,0.017,5.845,4.232,7.769,5.516c6.374,4.251,14.079,5.894,21.632,6.305      c0.181,0.006,0.361,0.01,0.539,0.011c1.295,0.009,2.511-0.093,3.51-0.085c1.593,0.011,2.634,0.301,2.563,1.763      c-0.031,0.659-0.444,1.211-1.013,1.454c-4.215,1.79-8.221,2.601-12.039,2.573c-4.481-0.033-8.701-1.222-12.683-3.343      c11.086,10.888,21.516,8.487,19.861,12.509c-0.251,0.61-0.825,0.992-1.442,1.03c-0.789,0.047-1.563,0.067-2.324,0.061      c-10.244-0.075-17.971-4.815-22.892-11.783c2.709,11.266,9.618,16.994,11.773,19.712l0.169,0.214      c0.923,1.163-0.024,2.72-1.304,2.711c-0.234-0.002-0.48-0.056-0.727-0.175c-5.601-0.041-12.295-10.052-14.207-14.439      c-3.136-7.197-1.937-13.95-0.996-21.488C274.141,387.466,274.813,386.777,275.717,386.784 M275.742,383.337      c-1.07-0.008-4.607,0.371-5.255,5.566l-0.214,1.684c-0.93,7.242-1.808,14.082,1.471,21.607      c1.383,3.173,8.571,15.747,16.669,16.476c0.456,0.135,0.924,0.205,1.4,0.208c1.944,0.014,3.76-1.125,4.626-2.901      c0.866-1.775,0.637-3.844-0.596-5.399l-0.17-0.214c-0.456-0.576-1.028-1.197-1.691-1.916c-0.777-0.844-1.702-1.847-2.674-3.041      c3.89,1.689,8.188,2.584,12.759,2.618c0.839,0.006,1.698-0.017,2.554-0.067c1.951-0.12,3.685-1.36,4.425-3.159      c0.728-1.77,0.405-3.169,0.005-4.031c-0.886-1.912-2.651-2.704-4.914-3.465c2.622-0.459,5.274-1.254,7.93-2.382      c1.798-0.768,3.016-2.518,3.109-4.462c0.09-1.853-0.652-3.047-1.29-3.722c-1.367-1.445-3.225-1.643-4.692-1.653      c-0.516-0.004-1.085,0.017-1.691,0.041c-0.573,0.023-1.185,0.048-1.818,0.044c-0.149-0.001-0.298-0.004-0.449-0.009      c-8.218-0.447-14.729-2.322-19.836-5.728c-0.412-0.275-1.2-0.986-1.895-1.613c-2.431-2.193-4.945-4.461-7.76-4.482l0,0      C275.743,383.337,275.743,383.337,275.742,383.337L275.742,383.337z"/>
			</g>
			<g>
				<g>
					<path style="fill:#FFFFFF;" d="M288.167,302.025c2.668,0.126,5.389-3.098,5.463-4.432c0.189-2.965-2.432-5.626-5.41-5.471       C282.629,292.357,281.891,301.665,288.167,302.025z"/>
					<path style="fill:#FFFFFF;" d="M291.815,300.936c-3.181,2.389-2.998,7.478,1.063,8.758c2.763,0.851,6.009-1.66,6.403-2.913       C300.734,302.262,295.583,298.105,291.815,300.936z"/>
					<path style="fill:#FFFFFF;" d="M303.077,312.847c-0.827-2.896-3.777-4.379-6.403-3.284c-5.588,2.332-3.559,10.609,2.801,9.504       C302.193,318.599,303.934,315.794,303.077,312.847z"/>
					<path style="fill:#FFFFFF;" d="M299.475,319.067c-6.204,1.288-5.343,9.891,0.996,9.863c2.758-0.009,4.941-2.447,4.65-5.446       C304.862,320.478,302.123,318.512,299.475,319.067z"/>
					<path style="fill:#FFFFFF;" d="M299.896,338.831c2.716,0.398,5.253-1.671,5.425-4.649c0.216-2.976-2.145-5.342-4.85-5.252       C294.127,329.132,293.58,337.911,299.896,338.831z"/>
					<path style="fill:#FFFFFF;" d="M294.191,342.771c-0.497,2.553,1.166,5.129,3.822,5.801c2.67,0.677,5.39-1.067,5.942-3.894       c0.282-1.388-0.045-2.791-0.804-3.873C300.72,337.309,295.04,338.597,294.191,342.771z"/>
					<path style="fill:#FFFFFF;" d="M295.126,358.062c2.575,0.998,5.499-0.452,6.352-3.263c0.839-2.806-0.796-5.601-3.466-6.227       C291.833,347.123,289.117,355.732,295.126,358.062z"/>
					<path style="fill:#FFFFFF;" d="M290.932,367.044c2.339,1.424,5.531,0.437,6.808-2.304c1.252-2.736-0.016-5.745-2.613-6.678       C289.264,355.959,285.441,363.702,290.932,367.044z"/>
					<path style="fill:#FFFFFF;" d="M283.366,371.543c0.322,2.77,3.909,4.85,5.228,4.706c4.557-0.419,6.532-6.866,2.337-9.206       C287.458,365.098,282.944,367.247,283.366,371.543z"/>
					<path style="fill:#FFFFFF;" d="M278.289,374.254c-2.963,2.324-2.296,8.048,1.831,8.977c3.253,0.562,6.1-2.031,6.234-4.693       C286.688,374.337,281.354,372.017,278.289,374.254z"/>
					<path style="fill:#FFFFFF;" d="M268.341,380.304c-1.27,2.373,0.397,6.216,1.569,6.857c3.056,1.599,6.301-0.155,7.313-2.443       C279.443,379.389,271.118,374.866,268.341,380.304z"/>
					<path style="fill:#FFFFFF;" d="M259.662,380.851c-1.988,1.797-2.65,4.862-0.769,6.992c2.843,3.465,9.736,1.164,8.82-3.771       C267.085,380.694,263.247,377.891,259.662,380.851z"/>
					<path style="fill:#FFFFFF;" d="M254.639,378.265c-3.321-1.399-7.927,2.555-6.365,6.566c1.065,2.642,4.641,3.983,7.396,2.516       C259.26,385.405,258.201,379.449,254.639,378.265z"/>
					<path style="fill:#FFFFFF;" d="M248.977,377.252c-0.952-4.288-5.8-4.895-8.554-2.006c-1.923,2.014-1.57,5.293,0.946,7.173       C245.705,385.269,249.948,381.604,248.977,377.252z"/>
					<path style="fill:#FFFFFF;" d="M241.832,371.715c0.06-4.371-4.742-6.217-8.001-3.866c-2.192,1.573-2.67,4.915-0.588,7.158       C236.09,378.393,241.698,376.629,241.832,371.715z"/>
					<path style="fill:#FFFFFF;" d="M228.572,359.444c-2.481,1.261-3.283,4.371-1.765,6.936c1.644,2.503,4.724,3.179,7.023,1.469       C238.89,364.088,234.292,356.538,228.572,359.444z"/>
					<path style="fill:#FFFFFF;" d="M224.579,350.366c-2.597,0.918-3.906,3.913-2.701,6.612c1.18,2.709,4.306,3.762,6.693,2.466       C234.215,356.393,230.561,348.252,224.579,350.366z"/>
					<path style="fill:#FFFFFF;" d="M221.749,340.86c-2.643,0.576-4.388,3.407-3.498,6.212c0.801,2.832,3.775,4.263,6.329,3.293       C230.553,348.099,227.961,339.495,221.749,340.86z"/>
					<path style="fill:#FFFFFF;" d="M220.115,331.077c-2.746,0.24-4.684,2.814-4.248,5.73c0.515,2.901,3.18,4.708,5.882,4.053       C227.936,339.356,226.534,330.513,220.115,331.077z"/>
					<path style="fill:#FFFFFF;" d="M224.778,325.973c-0.031-3.996-5.378-6.522-8.523-3.43c-3.178,3.217-0.677,9.042,3.859,8.534       C222.869,330.772,224.863,328.484,224.778,325.973z"/>
					<path style="fill:#FFFFFF;" d="M219.845,321.164c4.088,0.127,6.956-4.231,4.41-7.753c-1.58-2.149-5.846-2.085-6.912-1.31       C213.669,314.735,215.135,321.023,219.845,321.164z"/>
					<path style="fill:#FFFFFF;" d="M221.073,311.329c4.043,0.802,7.605-2.889,5.739-6.73c-1.091-2.443-3.904-3.844-6.491-2.711       C216.058,303.932,216.55,310.43,221.073,311.329z"/>
					<path style="fill:#FFFFFF;" d="M224.186,301.929c3.699,1.615,7.948-1.021,7.142-5.069c-0.505-2.653-2.78-4.826-5.549-4.324       C220.93,293.458,219.931,300.08,224.186,301.929z"/>
				</g>
				<path style="fill:#000E3F;" d="M303.479,318.309c0.131-0.168,0.279-0.32,0.393-0.503c0.981-1.57,1.234-3.536,0.696-5.386      c-0.525-1.844-1.78-3.359-3.442-4.158c-0.24-0.115-0.491-0.182-0.738-0.265c0.164-0.257,0.297-0.508,0.37-0.742      c0.901-2.8-0.134-5.847-2.574-7.583c-0.983-0.7-2.08-1.076-3.184-1.165c0.095-0.284,0.163-0.561,0.177-0.816      c0.118-1.857-0.597-3.714-1.964-5.097c-1.367-1.381-3.218-2.122-5.058-2.022c-3.844,0.162-5.944,3.541-5.967,6.638      c-0.023,2.901,1.812,6.129,5.89,6.364c0.005,0,0.01,0,0.015,0.001c0.061,0.003,0.12,0.004,0.18,0.005      c0.025,0,0.05-0.009,0.076-0.009c-0.242,0.917-0.357,1.865-0.195,2.809c0.39,2.285,1.983,4.078,4.259,4.795      c0.003,0.001,0.007,0.002,0.01,0.003c0.069,0.021,0.139,0.013,0.208,0.032c-0.833,1.587-0.945,3.396-0.5,4.921      c0.444,1.526,1.471,2.955,3.006,3.802c-1.128,1.406-1.573,3.164-1.407,4.745c0.166,1.578,0.967,3.203,2.365,4.337      c-1.376,1.208-2.117,2.905-2.208,4.53c-0.092,1.629,0.459,3.403,1.707,4.755c-1.487,0.938-2.568,2.417-2.926,4.177      c-0.354,1.823,0.131,3.617,1.172,5.035c-1.67,0.826-2.828,2.33-3.323,3.933c-0.493,1.593-0.384,3.475,0.52,5.096      c-1.688,0.609-2.983,1.876-3.668,3.31c-0.7,1.467-0.857,3.327-0.198,5.067c-0.936,0.139-1.847,0.407-2.641,0.926      c-1.96,1.28-2.945,3.414-2.707,5.853c0.002,0.009,0.003,0.018,0.003,0.028c0.006,0.053,0.03,0.101,0.038,0.153      c-1.608-0.182-3.213,0.194-4.488,1.124c-0.015,0.011-0.031,0.022-0.044,0.033c-1.214,0.952-1.951,2.372-2.24,3.928      c-0.009-0.004-0.017-0.01-0.025-0.015c-3.214-1.485-6.54-0.399-8.099,2.639c-0.026,0.048-0.033,0.105-0.057,0.155      c-0.627-0.564-1.313-1.051-2.095-1.335c-2.066-0.751-4.249-0.309-6.139,1.249c-0.017,0.015-0.036,0.03-0.053,0.045      c-0.044,0.04-0.079,0.09-0.123,0.132c-0.758-1.404-1.896-2.53-3.315-3.019c-1.465-0.596-3.137-0.442-4.667,0.28      c-0.012-0.059-0.013-0.117-0.026-0.176c-0.534-2.412-2.118-4.15-4.34-4.769c-0.923-0.256-1.87-0.237-2.799-0.085      c0.008-0.11,0.028-0.215,0.031-0.327c0.033-2.483-1.21-4.623-3.326-5.724c-0.845-0.44-1.776-0.618-2.714-0.665      c0.452-1.79,0.083-3.625-0.784-5.024c-0.859-1.385-2.324-2.519-4.112-2.915c0.687-1.706,0.573-3.566-0.095-5.069      c-0.665-1.501-1.964-2.835-3.682-3.473c0.901-1.602,1.025-3.467,0.553-5.051c-0.472-1.585-1.597-3.081-3.224-3.933      c1.099-1.48,1.458-3.318,1.19-4.949c-0.27-1.643-1.219-3.279-2.765-4.324c1.219-1.226,1.96-2.879,1.905-4.669      c-0.02-1.786-0.859-3.448-2.232-4.631c0.782-0.58,1.475-1.28,1.94-2.155c1.135-2.139,0.94-4.626-0.524-6.652      c-0.003-0.004-0.005-0.008-0.008-0.011c-0.065-0.088-0.157-0.15-0.228-0.233c0.904-0.442,1.71-1.069,2.33-1.873      c1.432-1.856,1.661-4.263,0.611-6.443c-0.033-0.073-0.082-0.132-0.117-0.204c0.96-0.227,1.872-0.633,2.642-1.253      c1.773-1.427,2.56-3.641,2.107-5.926c-0.715-3.733-3.947-6.174-7.362-5.549c-2.953,0.561-5.162,2.958-5.497,5.965      c-0.13,1.164,0.053,2.27,0.473,3.251c-0.273,0.078-0.548,0.144-0.816,0.261c-2.618,1.255-4.128,4.067-3.759,6.997      c0.144,1.144,0.576,2.167,1.205,3.021c-0.246,0.099-0.479,0.205-0.654,0.333c-2.291,1.642-3.26,4.616-2.412,7.401      c0.341,1.119,0.937,2.056,1.702,2.79c-0.189,0.149-0.402,0.249-0.578,0.422c-1.982,2.006-2.443,4.989-1.178,7.6      c0.497,1.025,1.218,1.83,2.056,2.437c-0.122,0.131-0.259,0.242-0.371,0.385c-1.121,1.422-1.605,3.303-1.319,5.203      c0.325,1.84,1.379,3.461,2.886,4.447c0.167,0.109,0.355,0.156,0.528,0.247c-0.144,0.194-0.302,0.374-0.424,0.585      c-0.917,1.585-1.114,3.426-0.571,5.136c0.497,1.76,1.707,3.234,3.319,4.045c0.206,0.103,0.427,0.155,0.64,0.234      c-0.108,0.192-0.234,0.371-0.321,0.575c-0.721,1.682-0.698,3.552,0.061,5.249c0.74,1.699,2.149,3.012,3.87,3.603      c0.2,0.069,0.405,0.107,0.608,0.155c-0.062,0.162-0.145,0.311-0.194,0.48c-0.508,1.747-0.242,3.691,0.769,5.396      c1.07,1.629,2.65,2.702,4.448,3.021c0.194,0.034,0.387,0.038,0.58,0.053c-0.053,0.239-0.125,0.473-0.15,0.72      c-0.185,1.855,0.423,3.643,1.665,4.98c1.243,1.478,3.008,2.288,4.836,2.301c0.261,0.002,0.524-0.031,0.787-0.062      c-0.002,0.194-0.028,0.384-0.011,0.581c0.158,1.873,1.169,3.636,2.851,4.889c1.27,0.834,2.618,1.257,3.925,1.267      c0.737,0.005,1.456-0.137,2.143-0.396c0.066,0.277,0.145,0.553,0.251,0.824c0.671,1.662,2.097,2.995,3.914,3.656      c0.784,0.285,1.598,0.429,2.404,0.435c1.133,0.008,2.253-0.257,3.254-0.791c0.296-0.16,0.528-0.393,0.786-0.599      c0.158,0.241,0.3,0.487,0.501,0.715c1.185,1.445,2.973,2.223,4.865,2.237c1.049,0.008,2.129-0.219,3.158-0.697      c1.199-0.558,2.121-1.4,2.743-2.4c0.237,0.24,0.482,0.434,0.731,0.57c0.991,0.518,2.06,0.784,3.135,0.792      c0.773,0.006,1.548-0.123,2.302-0.385c1.794-0.627,3.295-1.972,4.026-3.628c0.127-0.305,0.192-0.605,0.268-0.906      c0.309,0.122,0.598,0.276,0.934,0.352c0.365,0.062,0.732,0.095,1.097,0.097c1.579,0.012,3.143-0.528,4.418-1.547      c1.499-1.199,2.445-2.954,2.53-4.649c0.025-0.322-0.038-0.626-0.061-0.938c0.213,0.039,0.43,0.083,0.618,0.085      c0.098,0.001,0.19-0.004,0.278-0.013c2.9-0.267,5.275-2.448,5.906-5.427c0.243-1.152,0.175-2.26-0.142-3.267      c0.191-0.039,0.383-0.07,0.572-0.127c1.781-0.539,3.265-1.844,4.079-3.588c0.796-1.741,0.84-3.637,0.125-5.339      c-0.082-0.195-0.202-0.367-0.303-0.551c0.193-0.072,0.391-0.113,0.579-0.204c1.628-0.793,2.871-2.266,3.413-4.048      c0.531-1.78,0.323-3.626-0.587-5.198c-0.108-0.186-0.248-0.343-0.372-0.515c0.182-0.093,0.379-0.139,0.554-0.251      c1.529-0.969,2.565-2.498,2.915-4.293c0.356-1.759-0.029-3.608-1.05-5.067c-0.14-0.202-0.332-0.341-0.491-0.522      c0.184-0.12,0.373-0.23,0.545-0.37c1.412-1.15,2.282-2.884,2.389-4.732c0.135-1.852-0.515-3.672-1.785-4.991      c-0.161-0.167-0.349-0.296-0.525-0.443c0.154-0.139,0.323-0.26,0.463-0.416c1.227-1.357,1.825-3.22,1.643-5.093      c-0.161-1.876-1.105-3.586-2.592-4.69C303.887,318.523,303.678,318.426,303.479,318.309z M222.081,342.375      c0.359-0.078,0.693-0.114,1.004-0.111c1.782,0.013,2.808,1.243,3.165,2.438c0.416,1.398,0.083,3.339-2.222,4.215      c-0.819,0.311-1.753,0.259-2.556-0.148c-0.85-0.427-1.463-1.179-1.743-2.164c-0.29-0.916-0.188-1.872,0.285-2.693      c0.457-0.789,1.21-1.349,2.065-1.535C222.08,342.375,222.081,342.375,222.081,342.375z M223.074,297.32      c0.142-1.268,1.011-2.884,2.981-3.258c0.182-0.033,0.359-0.048,0.532-0.046c1.653,0.012,2.908,1.513,3.217,3.134      c0,0.004,0.002,0.009,0.002,0.013c0.313,1.571-0.498,2.496-1.009,2.908c-1.065,0.856-2.637,1.028-3.993,0.436      C222.959,299.705,223.014,297.865,223.074,297.32z M218.968,307.099c-0.156-1.236,0.281-2.977,1.975-3.79      c0.438-0.191,0.874-0.277,1.295-0.273c1.39,0.01,2.612,0.974,3.157,2.196c0.007,0.015,0.015,0.031,0.022,0.046      c0.744,1.532,0.154,2.672-0.264,3.215c-0.841,1.087-2.328,1.597-3.777,1.316C219.408,309.416,219.034,307.635,218.968,307.099z       M218.23,313.373c0.24-0.134,0.799-0.222,1.464-0.217c1.173,0.009,2.671,0.31,3.309,1.17c0.762,1.059,0.869,2.289,0.292,3.375      c-0.64,1.206-1.97,1.957-3.404,1.913c-2.062-0.061-2.738-1.758-2.895-2.277C216.613,316.08,216.851,314.363,218.23,313.373z       M217.344,323.649c0.634-0.623,1.439-0.942,2.293-0.936c0.456,0.003,0.927,0.099,1.391,0.292c1.327,0.551,2.189,1.719,2.2,2.978      c0,0.013,0,0.027,0,0.04c0.06,1.759-1.382,3.3-3.284,3.511c-2.035,0.224-2.939-1.349-3.176-1.836      C216.246,326.627,216.09,324.919,217.344,323.649z M217.401,336.578c-0.154-1.03,0.094-2.019,0.695-2.783      c0.537-0.681,1.303-1.098,2.155-1.172c0.167-0.015,0.328-0.021,0.483-0.02c2.153,0.016,3.174,1.496,3.393,2.835      c0.238,1.441-0.339,3.331-2.744,3.915c-0.85,0.206-1.724,0.056-2.459-0.425C218.118,338.401,217.575,337.552,217.401,336.578z       M223.247,353.571c0.356-0.828,1.012-1.447,1.849-1.744c2.322-0.819,3.831,0.441,4.421,1.77c0.59,1.329,0.503,3.299-1.684,4.483      c-0.759,0.412-1.646,0.476-2.496,0.186c-0.913-0.315-1.637-0.992-2.041-1.922C222.888,355.434,222.872,354.449,223.247,353.571z       M228.143,365.59c-0.545-0.922-0.696-1.948-0.422-2.887c0.238-0.822,0.79-1.488,1.552-1.876c0.681-0.345,1.31-0.488,1.877-0.483      c1.279,0.009,2.245,0.765,2.771,1.614c0.762,1.228,0.953,3.183-1.015,4.647c-0.725,0.538-1.551,0.744-2.406,0.593      C229.552,367.03,228.701,366.437,228.143,365.59z M234.379,373.953c-0.678-0.731-0.998-1.66-0.901-2.616      c0.091-0.908,0.549-1.719,1.258-2.227c0-0.001,0.002-0.002,0.003-0.002c0.68-0.491,1.487-0.74,2.283-0.734      c0.556,0.004,1.107,0.133,1.603,0.391c0.629,0.328,1.68,1.143,1.657,2.908c-0.044,1.615-0.891,2.865-2.266,3.346      C236.994,375.379,235.514,375.298,234.379,373.953z M242.298,381.176c-0.896-0.669-1.456-1.62-1.54-2.609      c-0.069-0.818,0.205-1.587,0.748-2.185c0.039-0.039,0.072-0.083,0.11-0.124c0.792-0.797,1.838-1.245,2.854-1.237      c0.288,0.002,0.572,0.04,0.847,0.116c1.1,0.306,1.861,1.177,2.145,2.454c0.336,1.504-0.18,2.982-1.315,3.765      C245.041,382.119,243.609,382.035,242.298,381.176z M254.941,385.977c-0.934,0.496-2.073,0.558-3.13,0.173      c-0.992-0.361-1.756-1.053-2.092-1.883c-0.7-1.801,0.556-3.216,0.957-3.607c0.754-0.733,1.688-1.137,2.521-1.131      c0.296,0.002,0.58,0.055,0.839,0.165c0.037,0.016,0.075,0.03,0.114,0.042c1.149,0.382,2.043,1.707,2.175,3.222      C256.382,383.61,256.36,385.209,254.941,385.977z M264.409,387.553c-1.351,0.626-3.266,0.589-4.353-0.736      c-1.292-1.464-0.701-3.579,0.621-4.792c1.028-0.837,2.063-1.073,3.079-0.704c1.199,0.436,2.176,1.654,2.432,3.034      C266.554,386.325,265.064,387.247,264.409,387.553z M299.21,317.539c-2.412,0.417-3.702-0.902-4.102-2.279      c-0.434-1.492,0.067-3.39,2.164-4.265c0.393-0.165,0.803-0.245,1.21-0.242c0.443,0.003,0.885,0.105,1.299,0.305      c0.876,0.422,1.518,1.209,1.807,2.222c0.299,1.025,0.175,2.048-0.346,2.882c-0.463,0.741-1.184,1.23-2.03,1.376H299.21z       M296.384,302.2c1.11,0.79,1.979,2.366,1.426,4.09c-0.269,0.607-2.631,2.485-4.47,1.923c-1.589-0.502-2.016-1.692-2.131-2.357      c-0.232-1.36,0.371-2.804,1.537-3.68C294.375,300.954,295.944,301.885,296.384,302.2z M285.29,297.233      c0.012-1.707,1.045-3.48,3.01-3.562c0.955-0.041,1.962,0.351,2.705,1.105c0.745,0.754,1.137,1.745,1.078,2.696      c-0.137,0.728-2.123,3.087-3.836,3.004C285.481,300.312,285.284,297.953,285.29,297.233z M275.803,384.09      c-0.371,0.841-1.215,1.578-2.199,1.923c-0.694,0.242-1.772,0.402-2.918-0.193c-0.582-0.436-1.796-3.259-0.978-4.783      c0.005-0.009,0.01-0.018,0.015-0.028c0.656-1.286,1.638-1.612,2.476-1.606c0.727,0.005,1.35,0.26,1.563,0.359      C275.058,380.362,276.666,382.017,275.803,384.09z M284.806,378.46c-0.044,0.867-0.557,1.774-1.373,2.427      c-0.516,0.412-1.605,1.064-2.972,0.83c-1.692-0.381-2.201-1.87-2.342-2.493c-0.326-1.446,0.117-2.942,1.105-3.734      c1.029-0.733,2.581-0.741,3.878-0.017C283.66,375.786,284.945,376.698,284.806,378.46z M291.606,371.725      c-0.29,1.365-1.377,2.816-3.148,2.98c-0.752-0.012-3.333-1.56-3.549-3.327c-0.121-1.262,0.347-2.306,1.316-2.939      c1.13-0.74,2.679-0.753,3.951-0.04C291.898,369.358,291.749,371.045,291.606,371.725z M296.335,364.085      c-0.436,0.936-1.224,1.635-2.16,1.919c-0.847,0.258-1.711,0.156-2.437-0.284c-2.135-1.301-2.18-3.254-1.569-4.533      c0.475-0.996,1.504-1.945,3.014-1.934c0.434,0.003,0.908,0.086,1.42,0.27c0.824,0.296,1.47,0.91,1.814,1.729      C296.791,362.142,296.761,363.153,296.335,364.085z M299.994,354.348c-0.293,0.967-0.932,1.731-1.8,2.153      c-0.799,0.391-1.691,0.433-2.507,0.115c-2.323-0.901-2.64-2.856-2.206-4.257c0.433-1.4,1.783-2.841,4.178-2.275      c0.862,0.202,1.585,0.74,2.036,1.518C300.172,352.424,300.277,353.402,299.994,354.348z M302.432,344.382      c-0.187,0.961-0.732,1.77-1.533,2.279c-0.756,0.479-1.642,0.629-2.504,0.409c-1.85-0.468-3.027-2.226-2.684-3.989      c0.328-1.613,1.64-2.435,2.76-2.666c0.271-0.056,0.539-0.083,0.8-0.081c1.062,0.008,2.003,0.488,2.611,1.362      C302.421,342.466,302.623,343.44,302.432,344.382z M303.773,334.093c-0.059,1.021-0.504,1.919-1.254,2.529      c-0.689,0.56-1.553,0.801-2.399,0.674h-0.002c-2.443-0.355-3.216-2.15-3.135-3.579c0.081-1.443,1.057-3.158,3.54-3.236      c0.039-0.002,0.078-0.002,0.116-0.002c0.815,0.006,1.613,0.357,2.208,0.975C303.516,332.151,303.846,333.08,303.773,334.093z       M303.575,323.636c0.102,1.038-0.202,2.007-0.853,2.728c-0.59,0.652-1.391,1.013-2.256,1.015c0,0,0,0-0.002,0      c-2.474-0.014-3.503-1.624-3.649-3.027c-0.15-1.422,0.54-3.261,2.978-3.767c0.199-0.041,0.401-0.061,0.603-0.06      c0.639,0.005,1.283,0.221,1.827,0.626C303.008,321.735,303.488,322.61,303.575,323.636z"/>
			</g>
			<g>
				<g>
					<path style="fill:#915EFD;" d="M282.656,384.705c-0.013,1.793-0.525,3.478-1.432,4.902c-1.657,2.729-4.687,4.533-8.134,4.508       c-5.239-0.038-9.448-4.309-9.41-9.549c0.026-3.585,2.031-6.69,4.956-8.271c1.367-0.748,2.939-1.168,4.593-1.156       C278.468,375.178,282.695,379.465,282.656,384.705z"/>
					<path style="opacity:0.25;fill:#000E3F;" d="M281.224,389.607c-1.657,2.729-4.687,4.533-8.134,4.508       c-5.239-0.038-9.448-4.309-9.41-9.549c0.026-3.585,2.031-6.69,4.956-8.271C267.944,381.305,269.062,388.725,281.224,389.607z"/>
				</g>
				<path style="fill:#000E3F;" d="M273.078,395.839c-6.177-0.045-11.166-5.108-11.121-11.285c0.03-4.091,2.274-7.836,5.858-9.775      c1.653-0.904,3.531-1.377,5.427-1.363c6.187,0.045,11.183,5.115,11.138,11.302c-0.015,2.079-0.604,4.089-1.7,5.815      C280.68,393.822,276.995,395.867,273.078,395.839z M273.216,376.863c-1.309-0.01-2.608,0.317-3.754,0.944      c-2.486,1.344-4.038,3.938-4.059,6.772c-0.031,4.277,3.422,7.781,7.699,7.813c2.71,0.02,5.259-1.39,6.649-3.68      c0.768-1.208,1.17-2.588,1.181-4.019C280.964,380.406,277.502,376.895,273.216,376.863z"/>
			</g>
		</g>
	</g>
	<g>
		<path style="fill:#000E3F;" d="M190.849,27.206c1.064,7.189-7.362,8.257-12.637,9.814c-0.285,0.095-0.528,0.213-0.816,0.186    c-2.998-8.234-5.315-16.453-8.183-24.77l0.027-0.047c5.248-3.466,13.853-6.067,16.482,2.01c0.657,2.019,0.511,4.261,0.062,6.199    c-0.072,0.385,0.082,0.493,0.431,0.701C188.337,22.679,190.415,23.917,190.849,27.206z M181.011,15.852    c-0.64-0.628-1.382-0.824-2.198-0.758c-1.033,0.137-2.259,0.415-2.849,1.047c0.472,1.083,0.612,2.869,1.599,4.423    c1.499-0.289,3.542-0.754,3.83-2.442C181.53,17.44,181.656,16.482,181.011,15.852z M184.011,25.683    c-0.475-0.483-1.287-0.777-1.947-0.721c-0.984,0.041-1.969,0.442-2.907,0.626c0.097,1.524,0.581,4.118,1.753,5.014l0.084,0.013    c1.331-0.435,3.18-0.758,3.78-2.228C185.077,27.488,184.605,26.406,184.011,25.683z"/>
		<path style="fill:#000E3F;" d="M209.027,23.907c0.43,1.575,0.787,3.361,0.674,4.932c-5.067,0.97-10.383,2.42-15.263,2.968    c-1.721-8.628-3.824-16.834-5.039-25.447c5.707-1.447,15.308-3.519,15.352-3.296c0.61,1.697,0.706,3.533,1.056,5.282l0.006,0.037    c-3.019,1.338-6.442,1.44-9.656,2.391l-0.111,0.023l-0.031,0.045c0.328,1.442,0.304,3.071,0.906,4.344l0.045,0.028    c1.511-0.183,3.064-0.533,4.596-0.8l0.008,0.036c0.594,1.623,0.705,3.341,1.107,5.156c-1.444,0.713-3.98,0.793-4.42,1.307    c0.029,1.503,0.577,3.481,0.929,4.648l0.045,0.031c3.27-0.654,6.418-0.971,9.779-1.76L209.027,23.907z"/>
		<path style="fill:#000E3F;" d="M234.473,6.239c-0.958-0.13-2.242,0.027-4.619,0.292l-0.076,0.005l-0.039,0.002    c0.005,0.039-0.033,0.079-0.03,0.118c-0.105,0.728,0.106,3.488,1.46,20.01l0.001,0.038l0.003,0.037    c-1.836,0.421-4.393,0.241-6.192,0.658c-0.142-0.447-0.043-6.077-1.543-20.156L223.4,7.208c-1.213-0.531-3.957-0.017-4.576-0.167    c-0.211-0.365-0.565-3.536-0.527-5.933c-0.001-0.037-0.038-0.035-0.043-0.074c5.147-0.363,10.774-0.911,15.994-0.672    C234.47,2.02,234.621,4.406,234.473,6.239z"/>
		<path style="fill:#000E3F;" d="M253.781,26.602c-1.747,0.283-4.057,0.066-5.308,0.165l-0.037-0.001    c-0.455-3.379-0.068-7.203-0.447-10.468l-0.037-0.038c-1.474-0.282-2.918-0.301-4.398,0.024    c-0.343,3.485,0.185,6.978-0.345,10.157c-1.259,0.705-4.244-0.315-5.158,0.167c-0.255-4.287-0.463-18.694-0.221-26.425    l0.001-0.039l0.037,0l0.076,0.001c1.514,0.321,3.378-0.263,4.814,0.171c0.412,3.492,0.109,6.75,0.676,9.977l0.04,0.002    c1.247,0.317,2.84,0.108,4.093,0.01l0.037,0c0.345-3.484,0.377-6.251,0.269-9.892c1.294-0.4,3.681-0.487,5.199-0.355    L253.781,26.602z"/>
		<path style="fill:#000E3F;" d="M271.397,28.185l-0.004,0.039c-1.54,0.177-3.457-0.091-5.056-0.565l-0.037-0.002    c-0.473-1.675-0.716-4.776-1.275-6.306c-1.272-0.294-1.209-0.137-2.34-0.229c-0.812,1.533-1.175,4.585-2.18,6.177    c-0.035-0.002-0.076,0.032-0.115,0.029c-0.427,0.079-1.847-0.226-5.289-0.467c-0.039-0.004-0.039-0.004-0.074-0.044    c0.386-0.997,3.316-14.114,7.929-25.915c0.724-0.055,1.311,0.221,4.663,0.187c0.295,2.004,1.614,11.053,2.013,13.634    L271.397,28.185z M262.781,16.64c0.866,0.109,1.852,0.151,2.799,0.227C265.128,3.704,264.47,8.977,262.781,16.64z"/>
		<path style="fill:#000E3F;" d="M283.683,30.012c-1.099-3.957-2.304-7.7-2.995-11.06l-0.208-1.18    c-0.105-0.592-0.207-1.181-0.321-1.199c-0.15-0.021-1.053,5.286-1.677,9.485c-0.172,1.162-0.335,2.25-0.424,3.118    c-0.586,0.066-1.114,0.026-1.676-0.058c-1.202-0.178-2.404-0.587-3.569-0.761l0.391-2.624c0.706-4.762,1.201-8.867,1.898-13.553    c0.514-3.449,1.095-6.85,1.832-9.998c0.503-0.039,1.109,0.012,1.708,0.1c0.641,0.096,3.091,0.613,3.057,0.839    c0.44,1.943,0.739,2.256,1.326,4.489c0.193,0.756,2.105,6.712,2.22,6.73c0.166-0.09,0.441-1.161,0.567-2.024    c0.296-1.986,0.429-3.652,0.696-5.452c0.158-1.05,0.352-2.094,0.571-3.327c0.884-0.022,1.796,0.037,2.734,0.177    c0.935,0.139,1.75,0.337,2.441,0.593l-1.797,12.072c-0.275,2.106-0.595,4.281-0.914,6.418c-0.216,1.463-0.448,2.77-0.655,4.156    c-0.151,1.013-0.259,1.993-0.408,3.006l-0.111,0.75c-0.118,0.021-0.405,0.131-1.268,0.002    C286.092,30.562,284.696,30.163,283.683,30.012z"/>
		<path style="fill:#000E3F;" d="M306.153,34.401c-1.666-0.018-3.579-0.673-5.163-1.062c-1.553-2.828-2.027-7.709-2.976-10.791    c-0.739,2.828-1.384,6.8-1.997,9.577c-1.416,0.076-4.177-0.612-5.406-1.193c1.461-8.57,3.877-17.045,5.744-25.68    c1.637,0.322,3.354,0.818,4.945,1.17c-0.509,2.839-1.376,6.064-1.886,8.901c-0.009,0.038,0.099-0.094,0.232-0.181    c2.669-2.245,4.387-5.09,7.105-7.557c1.569,0.462,3.478,0.612,5.012,1.223c-2.1,3.884-6.347,7.296-9.041,11.051L306.153,34.401z"/>
		<path style="fill:#000E3F;" d="M316.977,27.998l-0.037-0.012c-1.173,2.974-2.098,6.061-2.966,8.809    c-1.943-0.385-5.984-1.561-6.317-1.9l-0.025-0.046c2.64-8.789,4.066-13.27,7.463-24.563l0.01-0.037    c2.635,0.318,12.491,2.567,16.252,4.806c-0.379,1.272-1.133,4.174-1.613,5.375c-2.67-0.605-6.771-1.718-9.87-2.333    c-0.927,1.107-1.118,2.396-0.911,3.289c0.027,0.048,0.027,0.048,0.064,0.059c1.322,0.596,3.451,1.156,4.575,1.377    c0.071,0.813-1.342,4.189-1.682,5.987c-0.01,0.038-0.061,0.062-0.13,0.04C320.224,28.657,318.506,28.18,316.977,27.998z"/>
		<path style="fill:#000E3F;" d="M341.71,40.717c-1.621,2.945-4.583,4.54-8.092,3.509c-4.134-1.198-8.306-4.862-6.758-9.264    c2.471-6.199,5.245-12.441,7.608-18.682l-0.02-0.049l0.034,0.013c1.443,0.576,3.644,1.207,4.896,2.156l-0.012,0.036    c-2.507,5.572-4.705,11.391-6.574,17.42c-0.244,2.556,3.088,3.517,4.401,1.55c2.494-5.536,4.796-11.518,7.109-16.921    c1.347,0.414,4.243,1.037,5.103,2.156C347.286,28.774,344.794,34.924,341.71,40.717z"/>
		<path style="fill:#000E3F;" d="M354.915,53.876c-0.89-0.592-2.562-1.081-13.301-6.902l0.318-0.604    c5.671-9.876,7.345-13.495,12.144-23.012c1.1,0.104,4.328,1.704,5.325,2.908c-3.206,5.729-6.344,12.478-9.465,18.207l-0.015,0.034    c1.014,0.187,7.455,4.322,8.604,4.749c-0.123,0.236-0.265,0.504-0.423,0.721c-0.26,0.421-0.557,0.908-0.718,1.295    C355.866,54.587,355.856,54.368,354.915,53.876z"/>
	</g>
	<g>
		<g>
			<path style="fill:#FFCF00;" d="M160.221,129.061c-3.297,2.075-7.045,3.591-11.105,4.366     c-17.472,3.333-34.329-8.124-37.659-25.582c-3.33-17.458,8.127-34.315,25.598-37.648c4.061-0.775,8.103-0.744,11.932-0.029     c-10.89,6.844-17.048,19.885-14.493,33.282C137.05,116.848,147.576,126.707,160.221,129.061z"/>
			<path style="fill:#FFCF00;" d="M117.102,416.463c-2.864,1.802-6.119,3.119-9.647,3.792c-15.177,2.895-29.819-7.057-32.712-22.221     c-2.892-15.164,7.059-29.807,22.236-32.702c3.527-0.673,7.039-0.646,10.365-0.025c-9.46,5.945-14.809,17.273-12.589,28.91     C96.974,405.854,106.118,414.418,117.102,416.463z"/>
			<path style="fill:#FFCF00;" d="M347.485,181.985c2.417,1.571,5.173,2.733,8.169,3.35c12.891,2.655,25.487-5.639,28.139-18.52     c2.653-12.88-5.641-25.476-18.532-28.131c-2.996-0.617-5.987-0.638-8.828-0.15c7.983,5.181,12.398,14.897,10.363,24.781     C364.76,173.199,356.866,180.379,347.485,181.985z"/>
			<path style="fill:#FFCF00;" d="M385.875,483.178c2.916,1.895,6.242,3.298,9.857,4.042c15.553,3.203,30.752-6.804,33.952-22.346     c3.2-15.541-6.807-30.739-22.361-33.943c-3.615-0.744-7.224-0.77-10.652-0.181c9.633,6.252,14.96,17.974,12.504,29.9     C406.719,472.578,397.194,481.241,385.875,483.178z"/>
		</g>
		<g>
			<path style="fill:#FC09B2;" d="M426.8,273.212c0.359,4.223,4.073,7.356,8.296,6.997c4.223-0.359,7.356-4.073,6.997-8.297     c-0.359-4.223-4.073-7.356-8.297-6.997C429.574,265.274,426.441,268.989,426.8,273.212z"/>
			<path style="fill:#FC09B2;" d="M392.3,57.971c0.359,4.223,4.073,7.356,8.296,6.997c4.223-0.359,7.356-4.073,6.997-8.296     c-0.359-4.223-4.073-7.356-8.297-6.997C395.074,50.033,391.941,53.748,392.3,57.971z"/>
			<path style="fill:#FC09B2;" d="M341.485,492.599c0.359,4.223,4.073,7.356,8.296,6.997c4.223-0.359,7.356-4.073,6.997-8.297     c-0.359-4.223-4.073-7.356-8.297-6.997C344.258,484.661,341.126,488.376,341.485,492.599z"/>
			<path style="fill:#FC09B2;" d="M58.992,197.771c0.359,4.223,4.073,7.356,8.297,6.997c4.223-0.359,7.356-4.073,6.997-8.297     c-0.359-4.223-4.073-7.356-8.296-6.997C61.766,189.834,58.633,193.548,58.992,197.771z"/>
			<path style="fill:#FC09B2;" d="M98.975,469.146c0.359,4.223,4.073,7.356,8.297,6.997c4.223-0.359,7.356-4.073,6.997-8.297     c-0.359-4.223-4.073-7.356-8.296-6.997C101.748,461.208,98.616,464.923,98.975,469.146z"/>
		</g>
		<g>
			<path style="fill:#915EFD;" d="M60.761,106.655c1.724,1.705,5.159,3.713,8.621,10.998c0.311,0.653,0.634,1.311,1.041,1.903     c0.568,0.826,1.626,0.792,2.141-0.09c1.163-1.995,0.987-4.996,4.957-10.543c2.33-3.255,4.767-4.422,2.45-6.078     c-5.776-4.13-8.205-10.844-9.34-12.579c-0.489-0.749-1.501-0.726-1.994,0.011c-0.529,0.791-0.758,1.714-1.041,2.611     c-2.088,6.643-5.464,9.882-6.823,11.433C60.433,104.71,60.167,106.068,60.761,106.655z"/>
			<path style="fill:#915EFD;" d="M162.269,498.502c1.724,1.705,5.158,3.713,8.62,10.998c0.311,0.653,0.634,1.311,1.041,1.904     c0.567,0.825,1.626,0.792,2.141-0.09c1.163-1.995,0.987-4.996,4.957-10.543c2.33-3.254,4.767-4.422,2.45-6.078     c-5.776-4.129-8.205-10.844-9.339-12.579c-0.49-0.749-1.501-0.726-1.994,0.011c-0.528,0.79-0.758,1.714-1.041,2.611     c-2.088,6.643-5.464,9.882-6.822,11.433C161.941,496.558,161.675,497.916,162.269,498.502z"/>
			<path style="fill:#915EFD;" d="M393.823,218.519c0.414,0.41,0.834,0.819,1.288,1.182c6.401,5.114,8.341,11.497,9.84,13.678     c0.654,0.951,1.873,0.913,2.466-0.104c0.413-0.708,0.704-1.512,0.922-2.309c3.399-12.427,11.601-13.981,7.609-16.835     c-6.653-4.756-9.45-12.49-10.757-14.489c-0.564-0.862-1.729-0.837-2.297,0.013c-0.609,0.91-0.874,1.974-1.198,3.007     c-2.41,7.665-6.312,11.403-7.858,13.168C393.446,216.279,393.137,217.841,393.823,218.519z"/>
			<path style="fill:#915EFD;" d="M85.744,272.447c1.731,1.699,5.172,3.693,8.662,10.965c0.313,0.652,0.639,1.308,1.049,1.9     c0.571,0.823,1.629,0.786,2.14-0.099c1.156-1.999,0.968-5,4.918-10.561c2.318-3.263,4.75-4.44,2.427-6.088     c-5.792-4.108-8.246-10.813-9.387-12.544c-0.493-0.747-1.504-0.72-1.994,0.019c-0.525,0.792-0.752,1.716-1.031,2.615     c-2.063,6.651-5.426,9.902-6.779,11.459C85.409,270.504,85.147,271.863,85.744,272.447z"/>
			<path style="fill:#915EFD;" d="M443.682,419.652c0.416,0.408,0.837,0.815,1.292,1.176c6.42,5.09,8.384,11.465,9.892,13.641     c0.657,0.948,1.877,0.905,2.465-0.113c0.41-0.71,0.698-1.515,0.913-2.312c3.352-12.44,11.548-14.025,7.546-16.864     c-6.671-4.731-9.498-12.454-10.812-14.448c-0.567-0.86-1.732-0.83-2.296,0.022c-0.605,0.912-0.866,1.977-1.187,3.012     c-2.381,7.675-6.268,11.427-7.808,13.198C443.296,417.414,442.993,418.977,443.682,419.652z"/>
		</g>
		<g>
			<g>
				<path style="fill:#FD8A02;" d="M235.951,494.81c-1.511-1.142-3.624-0.854-4.81,0.659c-1.145,1.509-0.858,3.657,0.648,4.805      c0.15,0.114,1.529,1.153,3.987,2.561c1.448,0.828,3.247,0.485,4.3-0.73c0.144-0.167,0.273-0.347,0.388-0.545      c0.943-1.646,0.371-3.746-1.276-4.688C237.118,495.689,235.962,494.82,235.951,494.81z"/>
				<path style="fill:#FD8A02;" d="M276.1,502.732c-2.394,0.53-4.834,0.883-7.252,1.055c-1.893,0.131-3.317,1.774-3.184,3.669      c0.136,1.892,1.777,3.318,3.669,3.185c2.753-0.196,5.528-0.599,8.247-1.199c0.75-0.167,1.387-0.564,1.854-1.104      c0.687-0.793,1.004-1.889,0.761-2.991C279.784,503.494,277.951,502.324,276.1,502.732z"/>
				<path style="fill:#FD8A02;" d="M257.146,503.236c-2.394-0.392-4.804-0.961-7.161-1.693c-1.81-0.561-3.731,0.445-4.298,2.263      c-0.562,1.812,0.451,3.737,2.263,4.298c2.658,0.825,5.379,1.469,8.085,1.914c1.222,0.2,2.398-0.272,3.154-1.145      c0.402-0.463,0.684-1.04,0.792-1.69C260.286,505.31,259.018,503.544,257.146,503.236z"/>
				<path style="fill:#FD8A02;" d="M293.753,495.388c-2.134,1.327-4.327,2.518-6.519,3.537c-1.719,0.796-2.464,2.843-1.665,4.564      c0.803,1.72,2.844,2.465,4.564,1.665c2.44-1.137,4.879-2.459,7.247-3.931c0.301-0.187,0.565-0.414,0.785-0.669      c0.959-1.107,1.132-2.751,0.319-4.061C297.482,494.882,295.363,494.387,293.753,495.388z"/>
				<path style="fill:#FD8A02;" d="M306.472,485.439c-1.021,0.974-2.043,1.903-3.059,2.786c-1.432,1.249-1.585,3.413-0.342,4.844      c1.244,1.433,3.413,1.585,4.844,0.342c1.097-0.951,2.192-1.949,3.293-2.996c0.082-0.079,0.159-0.16,0.23-0.243      c1.146-1.322,1.12-3.321-0.11-4.614C310.02,484.186,307.847,484.131,306.472,485.439z"/>
			</g>
			<g>
				<path style="fill:#FD8A02;" d="M121.612,225.823c0-0.015,0.155-1.453,0.707-3.772c0.438-1.846-0.704-3.698-2.55-4.135      c-0.223-0.052-0.444-0.081-0.663-0.09c-1.607-0.063-3.087,1.016-3.473,2.639c-0.652,2.757-0.837,4.474-0.856,4.661      c-0.191,1.883,1.181,3.562,3.065,3.757C119.757,229.052,121.412,227.706,121.612,225.823z"/>
				<path style="fill:#FD8A02;" d="M121.701,212.567c1.715,0.829,3.762,0.115,4.59-1.59c1.077-2.22,2.309-4.369,3.659-6.385      c1.054-1.577,0.632-3.709-0.943-4.766c-0.548-0.366-1.162-0.554-1.775-0.578c-1.153-0.045-2.302,0.491-2.991,1.52      c-1.526,2.279-2.916,4.704-4.13,7.209C119.282,209.684,119.994,211.739,121.701,212.567z"/>
				<path style="fill:#FD8A02;" d="M159.946,176.486c-0.337-0.013-0.683,0.024-1.025,0.117c-2.693,0.722-5.325,1.599-7.823,2.602      c-1.76,0.709-2.611,2.708-1.904,4.469c0.71,1.76,2.712,2.615,4.469,1.904c2.242-0.903,4.61-1.69,7.037-2.342      c1.831-0.49,2.919-2.375,2.428-4.207C162.727,177.541,161.409,176.543,159.946,176.486z"/>
				<path style="fill:#FD8A02;" d="M137.546,195.674c1.777-1.648,3.703-3.187,5.726-4.572c1.564-1.072,1.963-3.21,0.89-4.776      c-0.638-0.931-1.653-1.449-2.703-1.489c-0.712-0.028-1.438,0.166-2.072,0.599c-2.297,1.574-4.488,3.325-6.513,5.2      c-1.391,1.29-1.472,3.462-0.184,4.854C133.983,196.883,136.156,196.966,137.546,195.674z"/>
				<path style="fill:#FD8A02;" d="M176.596,173.893c-0.109-0.004-0.221-0.004-0.334,0.002c-1.517,0.089-2.993,0.206-4.438,0.356      c-1.885,0.195-3.257,1.882-3.062,3.77c0.195,1.885,1.879,3.253,3.769,3.061c1.34-0.137,2.715-0.248,4.124-0.328      c1.894-0.109,3.34-1.733,3.233-3.626C179.785,175.346,178.344,173.961,176.596,173.893z"/>
			</g>
			<g>
				<path style="fill:#FD8A02;" d="M85.276,333.02c-0.015-0.004-1.386-0.461-3.535-1.495c-1.71-0.821-3.763-0.1-4.584,1.61      c-0.099,0.207-0.173,0.416-0.229,0.628c-0.403,1.557,0.335,3.233,1.838,3.956c2.555,1.225,4.193,1.77,4.371,1.829      c1.8,0.588,3.732-0.395,4.325-2.193C88.036,335.519,87.074,333.616,85.276,333.02z"/>
				<path style="fill:#FD8A02;" d="M59.215,311.027c-1.231-2.088-2.325-4.298-3.247-6.569c-0.714-1.756-2.718-2.601-4.476-1.887      c-1.046,0.426-1.768,1.307-2.032,2.324c-0.178,0.69-0.144,1.44,0.144,2.152c1.048,2.579,2.292,5.094,3.692,7.472      c0.964,1.633,3.069,2.176,4.704,1.214C59.638,314.766,60.182,312.66,59.215,311.027z"/>
				<path style="fill:#FD8A02;" d="M66.31,320.35c-1.316-1.366-3.489-1.408-4.858-0.094c-0.474,0.457-0.789,1.016-0.943,1.611      c-0.289,1.117-0.01,2.353,0.848,3.246c1.901,1.976,3.976,3.851,6.163,5.571c1.491,1.173,3.651,0.915,4.823-0.575      c1.175-1.499,0.913-3.651-0.576-4.823C69.828,323.76,67.992,322.099,66.31,320.35z"/>
				<path style="fill:#FD8A02;" d="M52.786,293.129c-0.405-2.383-0.669-4.865-0.788-7.375c-0.089-1.894-1.699-3.357-3.593-3.268      c-1.54,0.074-2.796,1.15-3.164,2.567c-0.084,0.327-0.122,0.672-0.105,1.026c0.132,2.786,0.427,5.544,0.876,8.198      c0.318,1.87,2.089,3.128,3.96,2.813C51.844,296.771,53.106,294.997,52.786,293.129z"/>
				<path style="fill:#FD8A02;" d="M50.118,265.705c-1.762-0.278-3.423,0.835-3.862,2.528c-0.027,0.106-0.051,0.216-0.069,0.327      c-0.237,1.501-0.437,2.969-0.598,4.412c-0.211,1.884,1.145,3.583,3.03,3.795c1.884,0.211,3.579-1.143,3.795-3.031      c0.15-1.338,0.335-2.706,0.558-4.1C53.27,267.762,51.991,266.003,50.118,265.705z"/>
			</g>
			<g>
				<path style="fill:#FD8A02;" d="M435.311,330.832c0.46,1.84,2.325,2.96,4.165,2.5c0.222-0.056,0.431-0.132,0.63-0.226      c1.456-0.683,2.274-2.322,1.871-3.94c-0.689-2.749-1.313-4.358-1.382-4.532c-0.697-1.761-2.687-2.62-4.45-1.928      c-1.778,0.731-2.629,2.687-1.94,4.451C434.211,327.17,434.734,328.518,435.311,330.832z"/>
				<path style="fill:#FD8A02;" d="M438.31,359.187c-1.788-0.643-3.756,0.283-4.396,2.069c-0.821,2.28-1.824,4.533-2.984,6.693      c-0.896,1.671-0.267,3.753,1.405,4.65c0.995,0.534,2.134,0.526,3.086,0.081c0.645-0.303,1.201-0.808,1.565-1.485      c1.316-2.454,2.457-5.016,3.393-7.612C441.021,361.798,440.094,359.832,438.31,359.187z"/>
				<path style="fill:#FD8A02;" d="M440.219,338.969c-1.904,0.053-3.393,1.628-3.345,3.523c0.064,2.467-0.041,4.941-0.314,7.352      c-0.212,1.885,1.143,3.585,3.028,3.799c0.655,0.073,1.286-0.042,1.841-0.303c1.045-0.49,1.819-1.494,1.958-2.725      c0.307-2.725,0.425-5.519,0.354-8.301C443.693,340.418,442.115,338.92,440.219,338.969z"/>
				<path style="fill:#FD8A02;" d="M423.699,388.019c2.059-1.88,3.995-3.868,5.751-5.908c1.237-1.438,1.074-3.605-0.363-4.844      c-1.44-1.236-3.611-1.074-4.844,0.364c-1.576,1.832-3.317,3.621-5.173,5.314c-1.402,1.278-1.5,3.452-0.222,4.852      c1.04,1.138,2.67,1.418,3.995,0.796C423.148,388.451,423.437,388.259,423.699,388.019z"/>
				<path style="fill:#FD8A02;" d="M409.248,398.551c0.099-0.047,0.198-0.099,0.296-0.156c1.307-0.776,2.564-1.559,3.777-2.357      c1.586-1.04,2.028-3.169,0.987-4.755c-1.041-1.584-3.165-2.025-4.755-0.986c-1.126,0.739-2.297,1.469-3.512,2.187      c-1.632,0.968-2.169,3.075-1.203,4.707C405.748,398.727,407.665,399.294,409.248,398.551z"/>
			</g>
			<g>
				<path style="fill:#FD8A02;" d="M361.227,94.236c1.893,0.127,3.531-1.304,3.658-3.197c0.015-0.228,0.007-0.451-0.021-0.669      c-0.203-1.595-1.512-2.877-3.176-2.99c-2.828-0.188-4.551-0.087-4.738-0.075c-1.89,0.123-3.318,1.752-3.201,3.643      c0.15,1.917,1.75,3.327,3.641,3.213C357.404,94.159,358.848,94.074,361.227,94.236z"/>
				<path style="fill:#FD8A02;" d="M389.134,100.085c-1.161,1.504-0.884,3.662,0.62,4.819c1.918,1.481,3.754,3.127,5.453,4.894      c1.316,1.365,3.49,1.406,4.857,0.09c0.813-0.783,1.156-1.87,1.024-2.912c-0.09-0.707-0.4-1.391-0.933-1.945      c-1.931-2.006-4.019-3.878-6.203-5.566C392.45,98.306,390.295,98.585,389.134,100.085z"/>
				<path style="fill:#FD8A02;" d="M370.477,92.062c-0.534,1.828,0.508,3.729,2.326,4.264c2.367,0.696,4.69,1.556,6.901,2.555      c1.729,0.781,3.763,0.013,4.545-1.715c0.27-0.601,0.354-1.237,0.277-1.846c-0.146-1.145-0.864-2.189-1.992-2.7      c-2.499-1.128-5.122-2.098-7.792-2.885C372.923,89.201,371.013,90.243,370.477,92.062z"/>
				<path style="fill:#FD8A02;" d="M412.089,122.839c-1.157-2.537-2.455-4.989-3.858-7.286c-0.989-1.619-3.101-2.129-4.721-1.141      c-1.618,0.991-2.131,3.107-1.141,4.722c1.26,2.062,2.428,4.268,3.47,6.555c0.786,1.726,2.824,2.487,4.549,1.7      c1.403-0.641,2.17-2.106,1.985-3.558C412.331,123.497,412.237,123.162,412.089,122.839z"/>
				<path style="fill:#FD8A02;" d="M417.678,139.825c-0.014-0.108-0.033-0.219-0.057-0.329c-0.338-1.482-0.697-2.919-1.083-4.318      c-0.503-1.828-2.394-2.903-4.223-2.399c-1.827,0.504-2.898,2.39-2.398,4.223c0.357,1.298,0.693,2.637,1.003,4.014      c0.42,1.85,2.26,3.009,4.111,2.59C416.77,143.21,417.899,141.56,417.678,139.825z"/>
			</g>
		</g>
	</g>
</g>















</svg>
