<?xml version="1.0" encoding="UTF-8"?>
<!-- Generator: Adobe Illustrator 25.2.3, SVG Export Plug-In . SVG Version: 6.00 Build 0)  -->
<svg xmlns="http://www.w3.org/2000/svg" xmlns:xlink="http://www.w3.org/1999/xlink" version="1.1" id="Capa_1" x="0px" y="0px" viewBox="0 0 512 512" style="enable-background:new 0 0 512 512;" xml:space="preserve" width="512" height="512">
<g>
	<path style="fill:#091438;" d="M345.954,307.858c-21.492,57.126,24.802,54.511,50.89,50.072   c30.444-5.137,5.617,44.939,36.992,58.056C465.207,429.103,512,360.74,512,360.74c-152.114-15.451-24.798-57.572-40.249-160.091   C456.3,98.134,261.581,19.49,261.581,19.49C145.476,64.909,7.402,260.112,0.382,328.442   c-7.024,68.363,84.707,19.661,120.293,17.327c35.585-2.327-44.012,95.971-18.258,133.89   c25.754,37.915,149.334-20.138,149.334-20.138c-18.201-31.709-30.554-62.716-38.421-92.568l33.596-51.828l87.829-18.036   L345.954,307.858z"/>
	<path style="fill:#FF783E;" d="M434.759,289.6c-33.698,4.968-63.167,11.264-88.805,18.258   c-68.082,18.565-109.426,42.046-132.625,59.096c-45.832-173.801,60.893-308.138,60.893-308.138   C446.474,97.211,434.759,289.6,434.759,289.6z"/>
	<g>
		<path style="fill:#EA4A0C;" d="M275.925,278.017c0.24,8.832-10.206,16.284-23.338,16.64c-13.125,0.36-23.965-6.521-24.197-15.357    c-0.247-8.84,10.202-16.288,23.327-16.645C264.853,262.3,275.685,269.177,275.925,278.017z"/>
		<path style="fill:#091438;" d="M227.752,256.004c0,0,3.587,34.568,54.301,24.475C282.052,280.478,231.429,299.689,227.752,256.004    z"/>
	</g>
	<g>
		<path style="fill:#FFFFFF;" d="M318.684,224.298c0,0-65.654,33.004-90.932-17.548C227.752,206.75,259.697,153.732,318.684,224.298    z"/>
		<path style="fill:#091438;" d="M316.53,226.099c-20.858-24.951-40.399-36.962-57.94-35.551    c-18.449,1.422-28.336,17.488-28.433,17.65l-4.81-2.897c0.458-0.765,11.508-18.712,32.812-20.355    c19.417-1.467,40.59,11.125,62.679,37.551L316.53,226.099z"/>
		<path style="fill:#091438;" d="M262.879,211.26c0,7.609-3.572,13.781-7.981,13.781c-4.405,0-7.973-6.172-7.973-13.781    c0-7.613,3.568-13.781,7.973-13.781C259.307,197.478,262.879,203.646,262.879,211.26z"/>
	</g>
	<g>
		<path style="fill:#FFFFFF;" d="M334.754,223.784c0,0,62.277,10.611,70.337-37.315    C405.091,186.469,365.492,150.929,334.754,223.784z"/>
		<path style="fill:#091438;" d="M337.343,224.876l-5.178-2.184c11.564-27.405,25.814-43.175,42.361-46.879    c18.123-4.048,31.863,8.048,32.44,8.566l-3.748,4.184c-0.116-0.105-12.262-10.697-27.529-7.253    C361.045,184.624,348.142,199.279,337.343,224.876z"/>
		<path style="fill:#091438;" d="M365.394,204.705c0,7.609-3.572,13.785-7.977,13.785c-4.412,0-7.977-6.176-7.977-13.785    c0-7.613,3.564-13.778,7.977-13.778C361.822,190.927,365.394,197.092,365.394,204.705z"/>
	</g>
	<path style="fill:#091438;" d="M337.636,167.773l-9.827,94.793h-31.6c0,0,2.461-13.121,11.586-6.562c0,0-7.718-0.458-7.718,4.458   l24.921-1.756C324.999,258.705,326.758,202.885,337.636,167.773z"/>
	<polygon style="fill:#091438;" points="229.834,164.666 296.209,163.683 231.523,178.609  "/>
	<polygon style="fill:#091438;" points="349.298,148.701 394.987,154.787 349.583,162.741  "/>
	<path style="fill:#FFC524;" d="M334.754,128.507c0,7.752-2.653,14.04-5.928,14.04c-3.275,0-5.932-6.288-5.932-14.04   c0-7.759,2.657-14.044,5.932-14.044C332.102,114.463,334.754,120.748,334.754,128.507z"/>
	<path style="opacity:0.1;fill:#FFFFFF;" d="M230.678,93.931c0,0-94.091,118.953-10.296,333.292   C220.383,427.223,153.907,241.381,230.678,93.931z"/>
	<path style="opacity:0.1;fill:#FFFFFF;" d="M142.677,128.507c0,0-77.241,75.894-115.156,159.213   c-37.915,83.327,170.867-53.355,106.732,99.709c-64.135,153.067,73.909,71.62,73.909,71.62s-114.169,48.788-78.596-43.247   c35.578-92.032,30.824-111.201-9.361-111.201C87.904,304.601-60.485,369.64,142.677,128.507z"/>
	<path style="opacity:0.1;fill:#FFFFFF;" d="M121.143,182.402c0,0-60.386,59.444-66.003,98.297   c-5.617,38.853,128.727-32.767,105.795,74.431c0,0,29.338-66.499-33.236-64.375C65.113,292.879,20.97,304.574,121.143,182.402z"/>
	<path style="opacity:0.1;fill:#FFFFFF;" d="M444.027,165.548c0,0,32.276,31.499,16.791,77.294   c-15.485,45.791-69.207,138.7-8.311,137.5c0,0-45.453,14.701-29.695-46.181C438.575,273.274,483.274,218.925,444.027,165.548z"/>
	<path style="opacity:0.1;fill:#FFFFFF;" d="M354.723,310.66c0,0-26.678,56.702,40.264,40.286   C394.987,350.947,340.683,357.937,354.723,310.66z"/>
</g>















</svg>
