<?xml version="1.0" encoding="UTF-8"?>
<!-- Generator: Adobe Illustrator 25.2.3, SVG Export Plug-In . SVG Version: 6.00 Build 0)  -->
<svg xmlns="http://www.w3.org/2000/svg" xmlns:xlink="http://www.w3.org/1999/xlink" version="1.1" id="Capa_1" x="0px" y="0px" viewBox="0 0 512 512" style="enable-background:new 0 0 512 512;" xml:space="preserve" width="512" height="512">
<g>
	<path style="fill:#091438;" d="M213.587,431.093c0,0-34.63,45.258-44.468,42.5c-9.84-2.753-6.297-28.333-6.297-28.333   s-12.594,17.315-18.495,15.349c-5.905-1.969-4.33-13.382-4.33-13.382s-66.901,29.514-85.396,15.741   c-18.498-13.771,18.495-68.08,18.495-68.08s-28.728,13.776-35.024,7.083c-6.299-6.691,18.101-29.125,18.101-29.125   s-49.587,7.076-55.096-10.825c-5.508-17.9,46.441-43.888,46.441-43.888s-39.387,7.685-46.85-16.025   c-7.459-23.709,49.998-44.565,49.998-44.565s-27.939-7.872-25.973-15.347c1.967-7.478,22.825-11.413,22.825-11.413   s-33.056-33.45-26.368-47.618c6.691-14.168,49.979-7.871,49.979-7.871s-31.087-71.23,3.936-97.598   c35.023-26.367,87.758,5.905,87.758,5.905s-8.266-19.677,1.572-24.398c9.839-4.722,37.78,21.643,37.78,21.643   s-14.955-36.6,11.411-42.11c26.367-5.507,59.82,40.928,59.82,40.928s3.933-22.434,13.773-22.039   c9.841,0.392,9.446,23.611,9.446,23.611s37.386-50.37,69.264-37.383c31.875,12.985,24.792,91.693,24.792,91.693   s20.857-24.007,27.151-19.284c6.3,4.724-2.753,25.974-2.753,25.974s25.189-24.007,35.417-14.955   c10.235,9.052-5.901,51.554-5.901,51.554s53.911-10.625,65.715,24.398c11.805,35.025-42.105,92.871-42.105,92.871   s32.269,2.365,30.302,11.025c-1.969,8.655-27.545,13.376-27.545,13.376s29.513,14.168,26.364,27.946   c-3.144,13.766-55.878,21.64-55.878,21.64s16.129,20.859,11.414,30.697c-4.724,9.836-48.802-12.987-48.802-12.987L213.587,431.093z   "/>
	<g style="opacity:0.1;">
		<path style="fill:#FFFFFF;" d="M140.116,233.733c-18.939,11.605-38.587,13.813-56.983,0.097c-4.469-3.333-7.55-7.991-9.151-13.219    c-3.864-12.615,22.899-18.705,31.676-19.019c4.545-0.163,8.755,0.398,13.088,1.776c6.828,1.673,13.651,9.407-1.061,9.144    c-2.034-0.663-4.021-1.447-5.958-2.355c-6.382-2.755-11.095-6.848-15.489-12.128c-18.516-22.243-29.842-78.998,9.51-86.53    c3.055-0.585,5.772-4.309,1.037-3.403c-31.223,5.978-38.288,34.451-31.465,62.479c3.426,14.08,10.882,28.034,21.887,37.588    c6.771,5.878,21.819,12.374,30.667,7.367c12.486-7.067-1.97-15.15-9.513-16.89c-12.651-2.917-34.328-0.186-44.376,8.905    c-16.05,14.518,0.979,29.616,15.588,36.551c17.819,8.456,39.152,0.845,54.695-8.679    C148.202,233.008,142.119,232.506,140.116,233.733L140.116,233.733z"/>
		<path style="fill:#FFFFFF;" d="M307.503,196.793c9.548-23.789-20.525-78.968-50.251-72.512    c-40.367,8.766-17.663,59.924,0.527,79.314c3.716,3.963,15.159,11.049,19.059,2.602c4.364-9.449-15.71-14.549-21.357-15.417    c-32.34-4.969-53.451,32.099-33.38,56.988c2.004,2.486,8.499-0.265,6.256-3.046c-14.572-18.068-7.495-41.923,15.389-48.321    c6.348-1.774,14.119-0.53,19.899,2.471c1.006,0.523,9.096,7.411,4.458,4.999c-6.648-3.459-11.707-12.264-15.664-18.41    c-4.654-7.227-7.765-15.222-9.985-23.477c-5.217-19.389,9.453-41.255,30.79-28.089c15.197,9.377,35.117,43.57,27.7,62.052    C299.457,199.652,306.339,199.692,307.503,196.793L307.503,196.793z"/>
		<path style="fill:#FFFFFF;" d="M407.657,231.918c-1.963,15.156,7.257,50.672,29.308,45.779    c16.572-3.678,21.916-27.406,15.188-41.574c-1.452-3.057-6.399-5.828-9.965-3.773c-9.703,5.591,1.125,16.065,6.472,20.497    c13.475,11.165,36.325,1.816,27.575-16.893c-1.14,0.305-2.281,0.611-3.42,0.915c6.196,10.64,20.975,7.81,22.074-4.697    c0.113-1.282-3.316-0.592-3.409,0.47c0.444,7.092-4.636,8.196-15.245,3.312c-0.593-1.019-3.869-0.041-3.42,0.915    c3.657,7.82,6.187,33.609-20.966,14.679c-2.088-1.547-3.979-3.304-5.675-5.273c-2.951-2.659-4.023-5.029-3.216-7.109    c1.295-3.337,6.081-3.059,7.361,0.284c2.271,5.929,0.792,14.355-0.499,19.329c-0.952,3.666-2.893,6.963-5.042,10.037    c-9.169,13.125-21.172,2.009-26.625-4.979c-6.816-8.737-8.455-21.82-7.088-32.387    C411.229,230.194,407.795,230.845,407.657,231.918L407.657,231.918z"/>
		<path style="fill:#FFFFFF;" d="M109.194,389.033c11.085-10.717,17.545-25.756,13.981-41.128    c-2.162-9.33-11.71-13.931-20.524-11.581c-10.184,2.716-18.376,8.682-23.719,17.863c-2.749,4.722-2.904,17.65,5.699,14.51    c18.734-6.835,1.993-43.089-17.474-35.987c-3.148,1.149-5.047,3.268-6.957,5.908c-5.006,6.922,1.412,0.001,1.814,2.147    c-0.691-3.689-1.566-5.243-4.138-7.746c-5.013-4.878-12.857-0.685-16.636,3.129c-0.744,0.752,2.517,0.354,3.103-0.238    c9.538-9.624,14.673,2.655,13.812,8.997c-0.12,0.878,3.189,0.226,3.376-0.591c3.645-15.877,19.125-11.415,24.478,0.493    c1.051,2.338,1.476,5.018,1.747,7.639c0.277,2.671-0.186,5.394-1.516,7.727c-3.255,5.708-7.257,2.635-5.083-3.878    c0.673-1.893,1.569-3.673,2.686-5.343c4.988-8.571,19.015-16.095,28.368-12.251c5.385,2.212,7.266,8.935,8.435,13.98    c3.016,13.006-5.689,28.012-14.557,36.587C105.342,389.994,108.595,389.612,109.194,389.033L109.194,389.033z"/>
		<path style="fill:#FFFFFF;" d="M391.982,265.576c-20.872,2.651-39.906-5.156-52.805-21.673    c-14.891-19.068-4.734-39.628,19.629-38.475c9.676,0.459,17.908,6.076,22.017,14.675c-2.29-0.77-4.579-1.541-6.871-2.311    c-2.204-2.053-4.224-4.275-6.059-6.664c-3.866-4.622-6.464-10.19-8.869-15.661c-3.868-8.795-5.374-18.587-4.388-28.098    c0.62-5.976,3.434-11.208,7.349-15.655c13.814-15.692,23.53,1.441,27.294,9.44c0.615,1.308,3.973,0.258,3.42-0.915    c-4.888-10.389-14.382-20.441-26.731-13.746c-12.476,6.764-15.94,19.041-14.921,32.667c1.025,13.717,11.912,41.264,27.217,45.33    c6.241,1.658,8.305-2.584,4.57-8.223c-11.486-17.345-42.142-18.064-52.974,0.55c-7.426,12.761,5.852,29.52,14.456,37.548    c12.569,11.73,30.691,15.44,47.258,13.335C393.321,267.476,394.336,265.276,391.982,265.576L391.982,265.576z"/>
		<path style="fill:#FFFFFF;" d="M193.284,223.309c-14.966,3.226-37.707-8.351-28.902-26.061c5.012-10.08,20.82-6.009,25.856,0.679    c1.212,3.492-0.05,4.754-3.79,3.788c-2.926-1.643-5.581-5.15-7.554-7.587c-14.441-17.844-19.037-40.553-13.406-62.796    c1.823-7.199,5.777-13.391,11.06-18.529c10.527-10.242,19.388,2.327,21.044,10.415c0.88,4.288-0.138,23.26-3.466,21    c-9.648-6.551-1.627-29.238,1.698-37.189c10.007-23.934,44.845-44.429,64.439-20.165c1.288,1.596,7.26-1.315,6.841-1.834    c-15.86-19.64-40.221-13.924-58.361-0.792c-12.357,8.945-20.615,22.575-23.875,37.3c-1.529,6.908-4.342,23.535,5.151,26.432    c15.05,4.593,15.489-17.282,14.415-26.587c-2.753-23.857-29.755-13.925-39.263-2.3c-16.42,20.078-9.236,51.998,3.269,71.763    c4.516,7.138,24.691,26.019,29.055,7.337c1.481-6.344-13.308-9.533-17.122-9.832c-6.031-0.474-13.859,1.331-18.45,5.484    c-21.345,19.306,12.093,35.725,30.05,31.853C194.59,225.126,198.073,222.276,193.284,223.309L193.284,223.309z"/>
		<path style="fill:#FFFFFF;" d="M317.806,146.832c-11.557-1.373-13.62-29.606-13.276-36.899    c0.455-9.619,6.196-17.195,12.159-24.168c1.326-1.55,8.539-10.159,11.509-7.077c2.868,2.973,1.682,9.673,1.236,13.355    c-0.99,8.17-2.073-4.42-1.909-6.445c0.471-5.845,14.157-34.545,22.292-19.902c1.593,2.868,8.065,0.187,6.241-3.097    c-5.074-9.135-13.419-6.248-21.089-1.572c-9.863,6.013-14.263,18.143-14.609,29.132c-0.165,5.214,1.414,14.434,8.836,12.445    c7.092-1.9,8.288-12.704,7.581-18.648c-2.831-23.792-24.132-3.324-31.203,6.281c-6.465,8.78-9.596,19.642-7.896,30.597    c1.465,9.443,5.819,29.811,17.83,31.239C319.041,152.493,322.418,147.38,317.806,146.832L317.806,146.832z"/>
		<path style="fill:#FFFFFF;" d="M101.063,285.299c-13.946-17.704-35.066-28.9-56.194-17.574    c-17.281,9.263,0.3,28.028,14.497,25.223c3.663-0.722,8.249-2.053,7.743-6.509c-0.712-6.25-17.752-7.236-22.212-7.57    c-15.252-1.144-32.624,4.838-31.984,22.454c0.079,2.189,6.938,0.814,6.841-1.834c-0.427-11.759,7.976-16.316,19.301-16.795    c2.862-0.034,5.71,0.165,8.544,0.6c0.95,0.177,1.897,0.352,2.845,0.529c7.779,0.914,13.116,5.281,2.063,4.01    c-4.655-1.917-6.959-4.881-6.912-8.893c0.047-4.042,2.718-7.579,6.449-9.135c7.625-3.179,15.076-2.921,22.353,0.775    c8.419,3.339,14.853,10.467,20.312,17.395C96.165,289.825,102.754,287.445,101.063,285.299L101.063,285.299z"/>
		<path style="fill:#FFFFFF;" d="M476.649,210.809c-12.129-15.388-36.783-31.092-55.934-16.814    c-14.639,10.914-1.712,27.9,14.303,24.738c3.814-0.753,8.204-2.172,7.685-6.728c-0.733-6.441-17.644-7.413-22.263-7.759    c-15.473-1.159-32.576,4.94-31.931,22.645c0.091,2.502,6.946,1.045,6.841-1.833c-0.406-11.168,7.083-15.403,17.031-16.501    c2.881-0.181,5.753-0.12,8.62,0.183c1.693,0.268,7.3,0.416,8.994,0.684c6.724,0.672,7.96,4.099,3.092,5.381    c-1.343,0.354-2.778,0.244-4.078-0.245c-7.705-2.899-9.407-8.496-4.898-15.283c2.006-3.019,5.156-5.061,8.715-5.748    c5.803-1.121,11.534-0.211,17.196,2.73c8.426,3.343,14.841,10.413,20.304,17.345C471.94,215.652,478.518,213.181,476.649,210.809    L476.649,210.809z"/>
		<path style="fill:#FFFFFF;" d="M468.191,340.165c-10.822,10.505-25.667,20.704-41.166,11.892    c-4.573-2.602-7.526-6.969-9.221-11.789c-2.031-5.432,2.514-13.921,14.276-12.226c1.997,0.288,2.703,2.596,0.889,3.48    c-2.156,1.051-5.043,1.345-8.127,1.397c-16.767-0.352-30.001-11.181-25.741-28.587c0.759-3.101-6.852-1.996-7.54,0.814    c-5.116,20.899,11.85,30.89,30.471,32.444c4.945,0.413,16.505,0.105,19.354-5.293c3.046-5.77-3.278-8.4-8.168-9.307    c-17.321-3.22-28.79,14.646-17.876,28.128c16.193,20.004,44.971,4.199,58.959-9.381    C477.543,338.59,470.169,338.245,468.191,340.165L468.191,340.165z"/>
		<path style="fill:#FFFFFF;" d="M143.765,425.506c-8.819,9.376-18.289,14.942-31.401,10.689    c-6.039-1.958-11.545-6.193-15.431-11.122c-5.687-7.217,0.165-15.162,12.168-14.608c6.962,1.741,3.947,6.766-2.637,6.212    c-2.132-0.229-4.226-0.657-6.284-1.282c-5.96-1.594-19.896-7.358-14.132-16.258c1.192-1.84-1.995-2.41-2.874-1.055    c-8.291,12.801,12.736,19.827,22.12,21.137c4.609,0.643,11.429-0.519,13.046-5.45c1.523-4.648-6.632-6.922-11.438-5.991    c-15.38,2.981-19.941,13.579-7.91,24.236c15.862,14.048,34.477,8.548,47.646-5.456    C148.125,424.98,144.843,424.359,143.765,425.506L143.765,425.506z"/>
	</g>
	<g>
		<path style="fill:#091438;" d="M369.459,170.307c-21.603-16.672-51.921-24.606-94.093-17.829    c-160.519,25.738-146.183,161.886-134.756,213.287c16.576-4.697,48.942,3.052,63.772,13.578v-89.135l141.631-34.208l35.419-36.312    L369.459,170.307z"/>
		<path style="opacity:0.05;fill:#FFFFFF;" d="M369.459,170.307c-21.603-16.672-51.921-24.606-94.093-17.829    c-160.519,25.738-146.183,161.886-134.756,213.287c16.576-4.697,48.942,3.052,63.772,13.578v-89.135l141.631-34.208l35.419-36.312    L369.459,170.307z"/>
	</g>
	<path style="fill:#7C3E25;" d="M408.287,419.193c0,0,41.336-187.046-38.827-248.886c-21.061,110.409-186.96,105.64-186.96,105.64   l7.085,87.927c-14.829-10.532-33.837-9.719-50.413-5.021c-27.44,7.765-45.429,36.616-22.383,50.597   c26.679,16.199,61.58,2.655,75.157-10.105C191.945,399.345,179.649,512.273,408.287,419.193z"/>
	<g>
		<path style="fill:#FF6C7E;" d="M298.554,408.917c-0.101,8.584-10.691,15.417-23.652,15.264    c-12.969-0.155-23.391-7.239-23.288-15.82c0.101-8.588,10.688-15.419,23.656-15.264    C288.228,393.248,298.655,400.333,298.554,408.917z"/>
		<path style="fill:#091438;" d="M254.708,384.82c0,0,2.208,33.674,52.627,25.811C307.335,410.631,256.659,427.348,254.708,384.82z"/>
	</g>
	<path style="fill:#091438;" d="M338.715,309.923c0.791-1.361-3.541,55.881-3.541,55.881l25.579,6.297   c0,0-32.664,29.911-33.845,7.083c0,0-15.346,9.153-18.89,2.807c-3.539-6.348,12.201-9.89,12.201-9.89s-11.04,7.724-8.657,9.89   c2.38,2.163,16.527-6.348,16.527-6.348s0.394,20.067,26.367-2.758l-23.221-5.902C331.235,366.984,331.631,322.121,338.715,309.923z   "/>
	<g>
		<rect x="263.668" y="344.511" style="fill:#091438;" width="13.281" height="2.362"/>
		
			<rect x="268.587" y="333.368" transform="matrix(0.2059 -0.9786 0.9786 0.2059 -119.188 534.5328)" style="fill:#091438;" width="2.362" height="14.676"/>
		
			<rect x="269.983" y="325.219" transform="matrix(0.3561 -0.9344 0.9344 0.3561 -139.1588 469.5838)" style="fill:#091438;" width="2.36" height="21.101"/>
		<path style="fill:#FFFFFF;" d="M320.219,345.692c0,9.131-11.275,16.528-25.186,16.528c-13.911,0-25.188-7.397-25.188-16.528    c0-9.128,11.278-16.529,25.188-16.529C308.944,329.164,320.219,336.565,320.219,345.692z"/>
		<path style="fill:#091438;" d="M291.509,347.461c0,4.563-3.677,8.264-8.212,8.264c-4.536,0-8.211-3.701-8.211-8.264    c0-4.563,3.675-8.266,8.211-8.266C287.831,339.195,291.509,342.898,291.509,347.461z"/>
	</g>
	<g>
		
			<rect x="390.836" y="334.479" transform="matrix(0.9488 -0.316 0.316 0.9488 -85.7016 142.755)" style="fill:#091438;" width="13.068" height="2.362"/>
		
			<rect x="389.378" y="329.462" transform="matrix(0.917 -0.3988 0.3988 0.917 -98.9443 185.6712)" style="fill:#091438;" width="14.805" height="2.362"/>
		
			<rect x="386.961" y="324.887" transform="matrix(0.859 -0.5119 0.5119 0.859 -111.1152 248.6477)" style="fill:#091438;" width="17.867" height="2.363"/>
		<path style="fill:#FFFFFF;" d="M398.37,340.278c0,9.126-11.276,16.527-25.189,16.527c-13.911,0-25.184-7.401-25.184-16.527    c0-9.132,11.273-16.531,25.184-16.531C387.094,323.748,398.37,331.146,398.37,340.278z"/>
		<path style="fill:#091438;" d="M370.263,340.278c0,4.563-3.679,8.264-8.215,8.264c-4.534,0-8.21-3.701-8.21-8.264    c0-4.568,3.676-8.266,8.21-8.266C366.584,332.012,370.263,335.711,370.263,340.278z"/>
	</g>
	<g>
		<path style="fill:#EA4A0C;" d="M240.701,386.554l-7.276-69.343l96.147-8.591v59.82L240.701,386.554z M238.622,321.487l6.233,59.4    l79.994-16.304v-50.801L238.622,321.487z"/>
		<path style="fill:#EA4A0C;" d="M338.739,366.335l4.93-57.364l67.475-4.198v58.839L338.739,366.335z M348.026,313.431    l-4.125,47.982l62.521-2.349v-49.266L348.026,313.431z"/>
		<path style="fill:#EA4A0C;" d="M328.253,345.069l-2.086-1.104c0.52-0.988,5.208-9.676,10.691-9.085    c3.111,0.308,5.486,3.349,7.257,9.299l-2.263,0.675c-1.425-4.79-3.232-7.427-5.224-7.624    C333.319,336.862,329.387,342.93,328.253,345.069z"/>
		
			<rect x="168.609" y="355.727" transform="matrix(0.9912 -0.1322 0.1322 0.9912 -45.8507 30.1779)" style="fill:#EA4A0C;" width="71.547" height="9.444"/>
	</g>
	<polygon style="fill:#091438;" points="266.935,303.874 315.13,294.091 268.84,310.697  "/>
	<polygon style="fill:#091438;" points="351.403,285.666 395.449,295.372 350.425,292.682  "/>
	<path style="fill:#7C3E25;" d="M322.489,258.977c2.15-44.179-32.256-78.956-75.056-84.863   c46.004,2.899,83.587,38.692,84.497,85.145L322.489,258.977z"/>
	<g>
		<path style="fill:#7C3E25;" d="M320.338,222.46c-44.226,38.238-108.939,47.752-165.385,48.456    c55.185-2.981,118.264-14.483,160.28-53.365L320.338,222.46z"/>
		<path style="fill:#7C3E25;" d="M311.739,208.958c-35.178,32.591-87.254,49.402-134.75,42.683    c46.63,4.29,96.835-14.179,129.686-47.637L311.739,208.958z"/>
		<path style="fill:#7C3E25;" d="M316.902,213.51c19.686-4.041,41.611-18.129,45.146-39.396c-1.386,22.778-23.265,39.8-43.38,46.255    L316.902,213.51z"/>
		<path style="fill:#7C3E25;" d="M309.839,204.986c18.37-3.265,44.391-17.863,41.076-40.636    c5.888,23.777-20.416,41.95-39.374,47.512L309.839,204.986z"/>
		<path style="fill:#7C3E25;" d="M297.58,195.047c-36.064,33.829-91.684,45.775-139.087,34.524    c46.592,8.706,100.348-4.901,133.993-39.446L297.58,195.047z"/>
		<path style="fill:#7C3E25;" d="M297.869,191.941c17.621-2.043,44.915-14.426,31.419-36.716    c17.031,21.863-11.813,39.722-30.049,43.667L297.869,191.941z"/>
	</g>
	<path style="fill:#7C3E25;" d="M177.996,353.789l-2.012-1.236c2.306-3.755,2.737-6.835,1.282-9.154   c-4.891-7.792-29.609-7.107-38.725-6.188l-0.371-2.329c15.37-3.373,39.215-10.178,41.912-15.104c0.23-0.42,0.19-0.664,0.129-0.827   c-1.759-4.78-18.483-4.005-28.615-2.392l-7.771,1.238l7.065-3.464c10.287-5.043,26.841-14.588,27.475-18.734   c0.043-0.281-0.018-0.456-0.221-0.651c-3.569-3.382-25.052,2.411-37.756,6.857l-0.78-2.229c5.712-2.002,34.508-11.709,40.162-6.34   c0.768,0.728,1.091,1.669,0.93,2.719c-0.765,5-14.309,12.927-22.799,17.441c8.595-0.813,22.361-1.143,24.527,4.737   c0.229,0.623,0.367,1.608-0.275,2.779c-2.737,4.999-19.599,10.227-31.594,13.389c0.008,0,0.013,0,0.021,0   c10.518,0,24.579,1.299,28.686,7.844C181.238,345.287,180.811,349.205,177.996,353.789z"/>
	<path style="fill:#FFC524;" d="M164.287,429.768c0,3.783-2.667,6.848-5.956,6.848c-3.29,0-5.955-3.066-5.955-6.848   c0-3.785,2.666-6.85,5.955-6.85C161.62,422.918,164.287,425.983,164.287,429.768z"/>
	<path style="fill:#FFC524;" d="M162.392,413.87c0,2.578-1.819,4.669-4.061,4.669c-2.242,0-4.061-2.091-4.061-4.669   c0-2.579,1.818-4.67,4.061-4.67C160.574,409.2,162.392,411.291,162.392,413.87z"/>
	<path style="fill:#091438;" d="M125.682,375.474c0,0,8.907-6.557,23.605-1.666c14.695,4.887,24.172,25.267,3.465,23.758   c-20.703-1.51-12.192-11.102-4.599-11.162l-11.955-2.538l17.302,2.4c0,0-15.327,4.333-9.796,7.943   c5.527,3.609,23.042,3.807,17.725-7.426C152.071,367.009,125.682,375.474,125.682,375.474z"/>
</g>















</svg>
