<?xml version="1.0" encoding="UTF-8"?>
<!-- Generator: Adobe Illustrator 25.3.1, SVG Export Plug-In . SVG Version: 6.00 Build 0)  -->
<svg xmlns="http://www.w3.org/2000/svg" xmlns:xlink="http://www.w3.org/1999/xlink" version="1.1" id="Capa_1" x="0px" y="0px" viewBox="0 0 512 512" style="enable-background:new 0 0 512 512;" xml:space="preserve" width="512" height="512">
<g>
	<g style="opacity:0.25;">
		<path style="fill:#915EFD;" d="M231.309,24.053c-10.831,7.253-17.654,19.692-21.474,39.147    c-2.403,12.231-1.842,16.075-2.044,17.079c-0.191,0.952-0.368,2.109-0.434,5.622c-18.983-16.932-43.46-9.596-47.731,12.559    c-3.431-3.657-4.74-4.355-8.748-8.062c-13.92-12.856-34.702-25.57-54.058-28.405c-48.139-7.047-70.11,47.375-9.19,108.43    c-22.452,4.583-29.324,29.337-12.489,47.703c-5.192,0.082-5.933,0.553-7.156,0.535c-1.782-0.025-5.1-0.072-18.118,2.492    c-30.537,6.013-38.281,22.546-39.927,27.47c-6.642,19.859,4.77,37.421,29.781,45.814c13.982,4.692,27.678,5.318,35.559,5.582    c-16.672,18.201-10.485,43.423,12.524,47.838c-20.528,19.615-41.613,52.338-36.38,80.138    c6.554,34.809,55.393,45.125,108.179-8.373c4.502,22.783,29.138,29.479,47.712,12.743c1.46,78.466,59.418,85.64,76.398,35.264    c4.419-13.109,5.334-27.512,5.599-35.391c18.018,16.465,43.008,10.852,47.77-12.523c80.035,82.625,157.168,14.302,71.953-71.814    c20.6-3.775,30.516-27.643,12.512-47.762c5.58-0.045,5.768-0.562,7.197-0.532c1.734,0.036,4.963,0.101,18.118-2.493    c30.776-6.062,38.421-22.805,40.031-27.792c1.413-4.375,1.903-7.425,1.903-10.082c0-1.251-0.109-2.417-0.282-3.592    c-3.106-21.105-24.321-34.226-59.737-36.946c-0.705-0.054-1.195-0.087-1.351-0.108c-1.714-0.362-3.842-0.461-5.853-0.485    c16.46-18.124,10.332-43.204-12.566-47.708c17.554-16.715,37.754-46.847,37.245-71.13c-0.274-13.854-5.893-25.348-15.417-31.536    c-28.134-18.278-70.145,6.144-93.714,30.689c-4.366-22.047-28.799-29.579-47.723-12.511c-0.086-4.949-0.614-13.139-3.078-25.434    C278.288,20.408,250.249,11.367,231.309,24.053z M60.377,113.723c-5.87-21.057,0.677-41.599,22.645-44.243    c41.534-4.993,98.887,49.439,113.644,107.858c1.056,4.185-1.309,11.379,2.095,32.249c-1.677-0.274-3.999-0.687-7.245-1.186    c-1.195-0.184-3.055-0.15-3.619-0.224c-6.885-1.262-17.983,0.102-21.851-0.88C124.861,196.829,72.75,158.077,60.377,113.723z     M302.589,216.651c5.875-0.77,4.015-0.719,6.358-0.755c0.144-0.003,12.288-1.363,22.08-0.147c0.431,0.054,0.739,0.09,0.917,0.101    c16.269,1.042,34.957,7.923,45.297,21.943c10.67,14.453,8.611,36.062-4.584,48.166c-27.64,25.355-70.185,14.932-78.875,14.412    c-2.008-0.122-4.342,1.57-4.165,4.573c0.042,0.696,1.873,12.861,1.898,13.003c0.131,0.739,0.016,3.082,0.257,4.341    c0.532,2.766,0.527,11.561,0.374,15.306c-3.432,84.568-103.603,76.952-85.296-30.297c0.401-2.359,0.584-4.212-0.935-5.726    c-0.838-0.835-1.936-1.273-3.006-1.203l-0.341,0.021c-4.775,0.287-14.647,3.264-32.665,2.532    c-76.605-3.113-77.844-86.085,3.917-87.573c0.146-0.004,6.443-0.102,7.692,0.023c28.104,2.815,15.881,2.466,21.565,2.535    c2.211,0.029,4.198-2.055,4.051-4.226c-0.06-0.982-0.104-1.894-0.311-2.852c-0.708-3.276-0.997-7.015-1.61-10.509    c-0.139-0.794-0.01-3.056-0.257-4.338c-0.433-2.262-0.821-12.263,0.059-19.797c0.042-0.355,0.065-0.586,0.068-0.634    c1.213-18.947,10.586-36.847,18.576-42.567c1.347-0.964,2.276-1.924,3.368-2.73c13.133-9.693,32.86-8.922,44.911,1.756    c0.216,0.192,0.554,0.474,0.948,0.799c10.056,8.327,15.506,22.519,17.881,35.48c1.897,10.362,1.381,19.905,1.353,24.881    c-0.005,0.86-0.407,2.958-0.441,3.875c-0.46,12.424-3.869,16.731-0.823,19.703C292.612,218.467,295.528,217.576,302.589,216.651z     M91.838,340.624c-0.862-0.095-1.53-0.041-3.881-0.626c-10.264-2.549-16.212-11.52-14.017-21.413    c3.567-16.043,17.107-18.06,14.93-23.648c-1.086-2.78-3.782-2.345-7.886-2.436c-10.613-0.232-35.467-0.777-52.305-11.749    c-17.434-11.36-17.252-32.258,0.39-43.477c16.348-10.398,37.652-11.038,49.097-11.382c7.407-0.223,10.178-0.306,10.986-3.066    c0.321-1.092,0.222-2.725-2.058-4.285c-2.022-1.383-3.844-3.298-5.752-5.221c-11.634-11.624-10.761-29.841,5.735-34.833    c2.268-0.685,7.552-1.322,8.057-1.196c3.526,2.322,21.341,20.604,55.141,33.135c-25.743,6.04-40.227,21.847-43.936,37.697    c-0.572,2.402-1.165,4.711-1.236,7.149c-0.049,0.533-0.541,2.622-0.384,4.63c2.068,26.717,19.861,41.793,45.634,47.882    c-10.836,3.994-31.112,12.621-52.924,31.374c-0.437,0.376-1.173,0.781-1.893,1.54C95.139,341.121,93.491,340.873,91.838,340.624z     M69.877,443.992c-6.365-4.295-10.238-11.135-11.2-19.78c-2.248-20.182,9.179-44.823,31.35-67.58    c21.42-21.988,50.024-39.107,76.517-45.796c3.435-0.868,15.481,1.012,32.241-2.097c-1.943,11.794-1.127,9.76-1.398,11.057    c-1.221,5.863,0.091,17.921-0.935,21.924C178.651,411.075,103.959,466.998,69.877,443.992z M322.07,430.727    c-2.304,1.887-7.104,3.457-9.878,3.232l-0.176-0.015c-0.478-0.066-3.134,0.59-9.518-2.116    c-11.747-4.985-13.449-15.493-18.323-13.267c-2.296,1.048-2.366,3.42-2.572,10.462c-0.594,20.252-4.078,49.735-21.764,59.652    c-2.804,1.572-5.041,2.373-7.256,2.603c-1.212,0.124-2.499,0.452-3.412,0.469c-21.158,0.417-28.791-24.238-31.089-34.858    c-5.324-24.6-1.104-34.875-4.582-37.777c-0.727-0.607-1.682-0.86-2.619-0.695c-2.938,0.512-2.154,1.605-7.451,6.859    c-0.195,0.124-9.96,11.396-22.973,8.15c-6.133-1.53-10.656-6.138-12.734-12.978c-0.674-2.217-1.261-7.519-1.261-7.661    c0-1.599,21.164-21.962,33.104-55.313c13.962,59.262,82.562,61.079,97.514,0.058c1.478,4.083,3.873,9.886,8.096,18.142    c10.267,20.068,24.57,36.106,24.697,36.229c0.633,0.62,0.388,0.776,0.025,3.651C329.709,417.037,327.475,426.3,322.07,430.727z     M438.486,420.305c-0.918,16.458-10.052,26.852-25.06,28.515c-20.237,2.284-41.257-9.536-57.195-22.166    c-26.633-21.109-48.158-53.952-56.174-85.715c-0.707-2.801,0.774-18.101-2.033-32.186c16.829,3.273,28.226,1.094,32.644,2.219    C396,327.582,440.253,388.714,438.486,420.305z M420.022,185.521c0.825,1.012,1.495,2.289,2.107,4.02    c1.78,5.041,1.458,9.547-1.121,15.559c-5.245,12.228-16.425,13.503-12.819,18.864c1.207,1.812,1.805,1.816,9.12,1.851    c4.65,0.022,4.029,0.032,4.583,0.015c0.053-0.001,2.732,0.23,4.059,0.321c8.259,0.563,27.6,1.88,42.162,11.412    c24.959,16.336,14.861,52.379-41.082,54.402c-4.074,0.151-1.243,0.583-12.787,0.52c-3.109-0.018-5.357-0.032-6.35,2.434    c-1.742,4.315,4.038,4.867,10.413,13.54c10.573,14.382,3.257,30.343-12.457,32.082c-4.929,0.547-3.629,1.058-6.264-1.208    c-14.954-12.852-32.982-24.112-53.086-31.494c11.782-2.961,32.2-10.287,41.438-30.575c3.462-7.604,4.184-16.97,4.067-18.669    c-2.542-34.522-30.846-44.491-45.739-48.072c33.014-11.989,54.15-32.838,55.438-33.264    C409.785,177.963,415.097,179.487,420.022,185.521z M406.845,68.873c5.441,0.816,19.287,0.042,27.018,12.801    c21.906,36.159-37,108.917-103.711,125.768c-4.416,1.117-10.811-1.402-32.18,2.086c2.944-15.088,1.287-29.006,2.229-32.714    C316.15,114.039,375.112,68.704,406.845,68.873z M264.289,32.567c19.096,16.735,17.502,63.522,17.696,64.562    c0.526,2.818,4.636,4.126,7.023,0.678c9.978-14.344,29.694-19.531,38.106-4.382c2.179,3.922,2.651,7.244,3.121,11.862    c0.228,2.179-20.229,20.222-33.14,55.774c-6.657-26.733-22.244-40.351-37.829-43.977l-0.621-0.147    c-5.417-1.277-5.394-0.888-6.964-1.132c-1.293-0.202-2.656-0.393-3.849-0.318c-24.375,1.553-41.232,17.591-48.139,45.466    c-12.467-34.16-33.314-54.086-33.207-55.224c0.881-12.437,6.398-19.812,15.954-21.324c6.983-1.107,15.287,2.932,19.88,7.495    c1.964,1.932,4.008,3.857,5.419,5.944c1.26,1.872,3.661,2.762,5.513,1.425c1.789-1.291,1.825-3.43,1.931-9.776    c0.142-8.499,0.379-22.722,5.408-37.203c2.419-6.969,9.549-23.381,23.476-25.296C252.13,25.884,258.745,27.708,264.289,32.567z"/>
		<path style="fill:#915EFD;" d="M267.641,212.035c3.979-9.844,5.717-19.502,5.769-22.888c0.151-10.439,0.722-20.936-6.817-30.841    c-12.739-16.738-44.502-12.617-43.396,27.381c0.191,6.862,0.941,13.67,5.841,26.378c-8.284,0.943-10.874,10.069-8.856,18.904    c-11.72-2.671-18.176,2.726-18.888,8.871c-31.775-12.902-66.092-4.613-62.705,23.086c0.153,0.328,1.426,11.267,13.593,17.356    c14.081,7.046,34.888,4.071,49.114-1.834c0.672,7.942,9.934,10.976,18.888,8.879c-1.938,8.552,0.361,17.732,8.858,18.882    c-3.162,7.69-5.612,17.263-5.842,25.806h-0.356c0.592,10.418,0.691,19.15,7.184,27.806c6.786,9.048,17.918,11.975,27.702,7.285    c19.964-9.57,18.622-39.773,9.939-60.9c8.132-0.907,11.018-9.908,8.888-18.906c8.914,1.935,17.85-0.465,18.898-8.879    c34.875,13.907,61.257,2.397,62.917-17.371c0.053-0.635,0.079-1.268,0.079-1.899c0-20.382-25.793-33.655-63.017-19.349    c-0.959-8.577-10.491-10.765-18.886-8.877c0.395-1.823,0.711-4.281,0.587-7.535C276.935,218.249,273.482,212.715,267.641,212.035z     M265.902,187.227c-8.444-11.596-25.536-12.555-35.091-0.01C229.737,175.622,269.346,146.463,265.902,187.227z M233.649,201.938    c-1.334-4.305,4.736-16.267,14.93-16.095c6.893,0.117,12.598,5.318,14.535,13.251c1.148,4.707-8.189,23.579-14.718,30.344    C242.242,222.03,237.597,214.696,233.649,201.938z M156.512,273.802c-5.839-2.413-10.41-7.774-10.41-14.043    c0-9.068,5.61-14.764,17.136-17.405c3.678-0.843,8.161-0.676,12.899-0.623c-10.921,8.398-12.562,25.104,0.17,34.852    C165.46,276.87,161.661,275.929,156.512,273.802z M191.275,244.456c13.174,3.958,23.447,11.02,27.432,14.659    c-4.897,4.481-14.443,10.592-27.168,14.614c-1.255,0.397-2.347,0.424-3.439,0.087v-0.001    C165.773,266.91,178.365,240.581,191.275,244.456z M265.689,341.054L265.689,341.054c-0.072,1.537-1.065,6.272-2.786,10.239    c-7.307,16.834-34.176,14.727-31.898-20.036c9.191,11.919,25.504,11.932,34.759-0.127    C265.932,334.509,265.839,337.85,265.689,341.054z M262.944,315.923c0.385,1.212,0.782,2.465-1.101,6.947    c-1.323,3.147-3.662,5.745-7.152,7.943c-3.682,2.32-12.895,0.176-15.253-1.845c-3.296-2.826-6.884-8.966-5.766-12.712    c3.434-11.447,9.709-21.991,14.673-27.397C252.846,293.737,258.892,303.165,262.944,315.923z M328.122,241.716    c10.738,0.35,22.267,6.149,22.485,16.205c0.196,9.57-5.242,15.278-17.15,18.003c-2.618,0.298-1.33,0.796-12.99,0.611    c11.915-9.295,11.82-25.814,0.026-34.812C323.19,241.597,325.775,241.638,328.122,241.716z M305.49,273.825    c-11.773-3.529-22.116-9.847-27.454-14.689c4.855-4.458,14.343-10.532,27.103-14.581c1.217-0.387,2.476-0.786,6.946,1.092    c5.153,2.166,7.488,6.589,7.949,7.149c2.322,3.679,0.185,12.896-1.834,15.253C315.114,271.65,309.022,274.884,305.49,273.825z     M268.557,230.909c-1.383,3.988-3.102,6.619-0.618,8.89c3.682,3.368,7.01-2.708,16.595-1.644c4.046,0.447,4.008,4.908,1.452,6.288    c-4.007,2.166-12.856,7.88-16.147,11.897c-1.29,1.577-1.284,4.042,0.014,5.611c2.976,3.608,11.554,9.467,16.149,11.913    c0.786,0.419,1.002,0.641,1.084,0.846c0.504,1.254,0.827,2.13,0.68,2.874c-0.594,3.089-5.956,3.03-9.011,2.315    c-5.93-1.39-8.841-4.239-11.303-0.904c-2.854,3.86,2.892,6.536,1.897,16.26c-0.115,1.125-0.557,2.003-1.349,2.686    c-0.972,0.838-1.485,0.783-3.447,0.16c-0.322-0.151-0.866-0.166-1.253-0.938c-2.559-5.102-9.084-13.911-11.746-16.262    c-1.808-1.599-4.428-1.651-6.231-0.12c-2.365,2.007-8.365,9.656-11.494,15.708c-0.846,1.637-2.696,2.228-4.007,1.955    c-4.092-0.857-2.482-9.064-0.957-12.997c1.088-2.811,2.044-4.985-0.049-6.946c-2.109-1.977-4.293-0.843-8.215,0.561    c-2.774,0.993-3.923,1.403-8.063,1.101c-1.884-0.137-3.879-1.457-3.578-3.297c0.355-2.238,1.04-2.603,1.645-2.926    c4.256-2.27,13.652-8.482,16.434-12.266c1.122-1.523,1.118-3.575-0.015-5.101c-2.718-3.657-11.261-9.361-15.494-11.728    c-1.904-1.063-1.904-1.063-2.367-2.625c-0.528-1.785,0.099-3.073,1.815-3.726c4.989-1.898,11.968,1.634,14.37,2.259    c2.612,0.673,5.281-1.932,4.631-4.548c-0.167-0.673-0.356-1.267-0.576-1.819c-3.358-8.386-3.163-17.579,3.739-13.753    c0.53,0.819,1.632,4.12,10.489,15.205c2.701,3.378,5.792,3.394,7.922,1.54c5.404-4.705,11.786-16.417,12.115-16.778    C269.856,217.048,270.539,225.182,268.557,230.909z"/>
		<path style="fill:#915EFD;" d="M101.027,256.351c-7.243-7.826-19.771-14.563-32.694-17.584    c-48.62-11.363-54.944,37.922-19.044,42.075c17.22,1.992,39.459-6.146,51.729-18.929    C102.49,260.38,102.496,257.938,101.027,256.351z M75.42,249.067c-16.202-2.704-29.689-0.924-39.057,2.867    C37.766,249.877,63.063,244.236,75.42,249.067z M64.476,270.352c-10.32,2.825-21.507,4.574-27.942-3.936    C44.949,269.837,54.737,270.853,64.476,270.352z M59.974,262.943c-4.976-0.943-10.618,0.324-20.821-3.79    c13.866-5.649,31.903-3.861,46.31,0C73.043,262.43,68.378,262.148,59.974,262.943z"/>
		<path style="fill:#915EFD;" d="M119.447,310.887c0.601-0.449,1.35-1.011,2.952-2.571c1.818-1.77,1.236-4.87-0.959-6.078    c-9.111-5.015-39.768,3.379-40.927,20.126c-0.337,4.758,2.117,8.873,6.231,10.535    C100.868,338.605,112.873,315.812,119.447,310.887z M89.821,325.717c-0.65-0.095-1.046-0.384-1.322-0.966    c-2.745-5.799,9.938-15.012,22.112-15.928c-0.529,0.582-1.217,0.959-5.773,6.602C100.198,321.167,95.817,326.593,89.821,325.717z"/>
		<path style="fill:#915EFD;" d="M123.515,212.558c0-1.784-1.242-2.683-1.344-2.824c-2.937-2.908-1.871-0.49-10.932-11.298    c-2.77-3.304-5.386-6.424-7.625-8.42c-10.348-9.231-20.976-5.345-22.81,2.115c-2.324,9.46,6.781,18.221,16.981,21.98    c9.466,3.488,13.345,3.301,19.769,2.993C120.614,216.957,123.515,215.396,123.515,212.558z M88.125,195    c0-1.213,0.561-2.307,1.823-2.476c7.427-0.997,12.156,7.72,20.736,16.959C103.024,208.973,88.125,202.584,88.125,195z"/>
		<path style="fill:#915EFD;" d="M245.738,111.891c0.446,0.44,2.099,1.76,4.655,0.282c7.895-4.562,24.881-33.404,18.497-57.765    c-4.607-17.588-23.763-21.884-34.078-11.888C217.811,58.996,228.633,95.006,245.738,111.891z M241.068,47.352    c-4.908,12.187-4.866,26.187-2.65,39.25C234.633,77.173,230.876,54.98,241.068,47.352z M248.02,94.711v0.001    c-6.095-24.211-2.241-39.562,0.256-45.378c6.13,13.054,3.824,33.073,0.088,47.053C248.328,96.211,248.094,95.005,248.02,94.711z     M258.563,85.858c2.5-15.523,0.634-29.86-2.91-38.531C256.545,47.992,263.425,73.575,258.563,85.858z"/>
		<path style="fill:#915EFD;" d="M293.511,134.093c2.59,1.049,4.597-1.134,6.184-3.434c5.694-8.199,23.176-14.865,23.176-29.009    c0-7.598-7.306-12.326-14.271-9.84l-0.001,0.002c-14.094,5.039-18.173,23.497-18.361,32.555    C290.17,127.692,290.412,132.836,293.511,134.093z M307.029,101.479c2.85-2.499,4.372-2.606,5.929-2.49    c2.906,0.218,2.424,4.443,1.109,6.767c-4.007,7.082-7.651,7.366-15.955,15.521C298.725,114.775,301.783,106.079,307.029,101.479z"/>
		<path style="fill:#915EFD;" d="M173.934,102.998c1.229,12.664,15.532,18.747,23.023,27.617c2.037,2.417,2.972,3.812,5.175,3.624    c2.737-0.23,3.994-2.913,4.169-5.629c0.362-5.587,0.336-8.752-1.132-14.307C197.135,83.859,172.432,87.427,173.934,102.998z     M198.688,121.391c-8.849-8.296-18.011-12.931-16.913-20.774c0.311-2.207,3.755-1.947,5.717-0.774    C193.882,103.665,198.118,114.075,198.688,121.391z"/>
		<path style="fill:#915EFD;" d="M395.654,261.836c9.254,9.512,24.408,16.891,38.605,18.8c16.431,2.209,36.062-4.167,36.062-20.979    c0-31.396-51.752-26.948-74.697-3.182C394.225,257.927,394.239,260.382,395.654,261.836z M454.204,270.976    c-7.52,3.369-19.876,3.589-33.198-1.82c15.713,2.732,30.39,0.9,39.268-2.769C458.663,268.581,456.292,270.041,454.204,270.976z     M420.91,249.146c4.801-1.939,8.529-2.743,8.673-2.784c7.489-1.749,18.368-1.055,21.164-0.386    c3.493,0.837,7.277,2.917,9.505,5.954c-2.7-1.071-6.446-2.282-11.39-3.12C440.346,247.367,430.885,247.494,420.91,249.146z     M457.35,259.037c-12.354,4.28-24.661,5.74-45.969,0.098C426.26,255.188,443.037,253.557,457.35,259.037z"/>
		<path style="fill:#915EFD;" d="M384.35,199.71c-7.836,9.246-3.449,4.129-9.694,9.881c-2.439,2.248-1.609,5.882,1.601,6.876    c3.011,0.938,9.635,1.256,15.797-0.234c27.237-6.589,28.655-26.457,17.946-30.863C403.748,182.798,385.918,198.344,384.35,199.71z     M406.877,192.549c2.272,0.319,3.269,5.498-3.851,10.672c-5.777,4.198-12.384,5.705-16.846,6.181    c1.592-1.687,3.751-4.114,6.627-7.661C397.252,196.255,401.379,191.779,406.877,192.549z"/>
		<path style="fill:#915EFD;" d="M374.192,308.099c1.506,1.511,2.256,2.101,2.918,2.624c4.106,3.233,11.41,13.488,16.084,17.613    c11.407,10.073,23.082,4.398,23.082-4.832c0-19.109-36.084-27.227-42.273-20.228C372.746,304.698,372.827,306.726,374.192,308.099    z M407.63,319.967c1.296,2.134,1.461,5.644-1.098,5.822c-8.105,0.563-12.675-9.084-20.452-17.031    C392.211,309.251,403.366,312.941,407.63,319.967z"/>
		<path style="fill:#915EFD;" d="M251.015,406.389c-1.442-1.363-3.876-1.362-5.316,0.006c-18.714,17.761-28.765,59.167-7.264,71.959    c15.885,9.451,38.306-5.227,30.237-39.642C265.863,426.732,258.769,413.743,251.015,406.389z M234.067,452.711    c0-6.537,1.541-13.579,4.072-20.177c-0.932,5.782-0.614,7.691-0.854,8.873c-0.856,4.212,0.074,12.013,0.079,12.155    c0.327,7.936,2.309,13.861,3.934,17.713C235.824,467.715,234.067,459.22,234.067,452.711z M257.428,469.36    c-0.278,0.195-0.834,0.514-1.52,0.878c3.383-8.865,5.117-21.933,2.564-37.776C263.78,446.87,263.932,462.579,257.428,469.36z     M250.195,430.203v-0.001c2.43,12.546,2.787,25.889-1.718,37.896c-4.231-12.687-5.931-24.419,0.064-46.631    C248.954,423.287,250.018,429.287,250.195,430.203z"/>
		<path style="fill:#915EFD;" d="M302.83,390.908c-4.32-3.963-5.126-6.962-8.066-6.949c-0.617,0.003-1.799,0.189-2.793,1.406h-0.001    c-4.539,5.556-1.007,17.979,0.722,23.062c8.498,24.971,31.362,21.731,30.111,7C321.879,404.591,312.314,399.606,302.83,390.908z     M315.018,417.146c-0.042,5.594-14.068,1.669-16.826-20.238C310.207,407.954,315.018,409.735,315.018,417.146z"/>
		<path style="fill:#915EFD;" d="M206.344,390.373c-0.31-7.038-5.298-7.925-8.14-4.236c-5.911,7.669-13.76,11.618-19.336,18.164    c-3.424,4.023-6.572,10.753-4.17,16.499C180.957,435.776,207.809,423.521,206.344,390.373z M181.667,416.325    c0-6.752,8.462-11.6,16.694-19.146C195.788,418.134,181.667,423.698,181.667,416.325z"/>
		<path style="fill:#915EFD;" d="M344.683,120.451c-2.506,2.769-5.956,7.483-9.951,12.94c-0.218,0.373-20.316,25.846-29.979,62.917    c-1.001,3.866,1.138,7.655,6.642,6.378c53.053-12.252,132.779-74.605,104.593-110.476c-1.02-1.298-5.925-4.847-10.804-5.829h0.001    C388.293,82.973,368.503,94.116,344.683,120.451z M311.151,195.732l0.608,0.611l0.038,0.424c-0.468,0.117-0.936,0.231-1.398,0.338    c0.124-0.47,0.251-0.94,0.38-1.409L311.151,195.732z M407.046,128.588c-12.021,20.291-38.03,40.42-59.631,51.721    c20.696-13.922,45.717-34.076,49.897-53.578c1.434-6.689-0.931-12.643-6.173-15.524c-18.124-9.956-44.092,19.833-64.268,49.587    C373.768,72.638,434.899,81.577,407.046,128.588z M317.866,189.818c28.591-51.264,62.39-82.305,71.307-70.307    c2.219,2.987,0.684,9.034-4.212,16.58C371.667,156.587,333.422,181.207,317.866,189.818z"/>
		<path style="fill:#915EFD;" d="M304.538,319.77c0.154,5.259,6.5,22.869,10.254,30.725c11.637,24.349,23.715,42.025,39.16,57.313    c7.364,7.289,33.017,30.516,53.919,23.33c2.939-1.009,5.349-2.772,7.379-4.343c1.266-0.982,4.887-5.984,5.857-10.809    c0.12-0.812,0.533-2.447,0.533-5.509c0-26.421-34.299-62.498-81.878-84.877c-8.838-4.158-26.212-10.188-30.706-10.303    c-1.162-0.032-2.335,0.459-3.218,1.345C304.978,317.505,304.493,318.653,304.538,319.77z M413.764,406.84    c3.802,26.51-34.176,28.525-74.333-28.549c-4.467-6.349-8.318-12.755-11.566-18.789c7.504,11.031,17.247,23.554,29.292,34.844    c32.002,29.997,56.721,7.973,27.395-25.281c-10.902-12.36-24.981-23.054-37.389-31.327    C374.301,352.189,410.074,381.053,413.764,406.84z M389.256,398.877c-0.206,0.614-0.54,0.948-1.153,1.154    c-21.359,7.184-58.484-50.231-70.158-71.325C337.684,339.726,396.451,377.51,389.256,398.877z M311.819,321.506l-0.046,0.412    l-0.614,0.615l-0.448,0.039c-0.122-0.509-0.224-0.976-0.304-1.395C310.82,321.264,311.295,321.373,311.819,321.506z"/>
		<path style="fill:#915EFD;" d="M149.791,400.265c21.272-24.826,34.252-48.872,42.085-77.97c1.215-4.522-1.524-7.066-4.17-6.985    c-5.283,0.17-22.88,6.515-30.715,10.261c-23.527,11.248-40.198,22.496-55.742,37.613c-16.057,15.614-31.003,38.475-24.776,55.799    c1.001,2.787,2.646,5.015,4.244,7.058c1.018,1.302,5.922,4.86,10.804,5.842c6.537,1.315,11.707,0.232,15.903-1    C123.314,426.219,139.728,412.008,149.791,400.265z M185.572,322.547l-0.61-0.611l-0.04-0.453    c0.507-0.122,0.973-0.224,1.391-0.304c-0.127,0.47-0.257,0.942-0.387,1.409L185.572,322.547z M97.063,379.201    c9.936-12.578,30.619-30.09,52.987-41.754c-20.839,13.936-46.407,34.337-50.642,54.092c-4.347,20.256,24.235,34.955,69.689-32.679    c-16.571,30.492-43.65,62.125-68.444,65.68C83.388,427.014,72.532,410.258,97.063,379.201z M178.537,328.917    c-43.678,76.374-75.478,80.793-71.528,63.961C112.426,369.797,157.787,340.456,178.537,328.917z"/>
		<path style="fill:#915EFD;" d="M191.933,196.159C179.15,142.197,117.194,63.959,81.513,91.436    c-1.501,1.154-4.963,6.255-5.889,10.792c-3.419,16.727,8.535,38.351,32.788,59.349c22.568,19.541,51.388,34.928,77.093,41.159    C190.021,203.831,193.103,201.09,191.933,196.159z M84.405,100.453c2.861-5.975,9.451-6.83,12.151-6.92    c21.388-0.72,51.695,28.025,71.789,64.779c-14.92-21.598-41.689-54.53-62.074-47.415c-12.485,4.359-15.001,30.247,43.445,69.754    C105.632,156.886,75.092,119.907,84.405,100.453z M107.465,119.393c0.207-0.614,0.541-0.948,1.153-1.154    c21.542-7.247,58.348,50.587,69.946,71.201C157.711,177.678,100.204,140.939,107.465,119.393z M184.903,196.748l0.044-0.394    l0.622-0.617l0.422-0.037c0.119,0.47,0.236,0.943,0.348,1.411C185.862,196.994,185.383,196.872,184.903,196.748z"/>
	</g>
	<g>
		<g>
			<g>
				<g>
					<path style="fill:#FFBBEC;" d="M257.787,427.826c-6.121-21.026-3.274-26.789-6.884-25.39c-2.104,0.815-4.369,0.824-6.536,1.32       c-3.738,0.856-9.873-0.98-13.19-2.866c-3.806-2.164-7.964-3.328-12.421-3.193c-1.567,0.1-3.155,0.071-4.697,0.322       c-4.722,0.771-9.039,2.629-13.057,5.189c-0.746,0.476-1.852,0.862-1.792,1.906c0.073,1.271,1.351,1.404,2.292,1.772       c39.198,15.308,44.222,23.996,53.949,24.095C257.968,431.006,258.46,430.134,257.787,427.826z"/>
					<path style="fill:#FFBBEC;" d="M289.854,447.032c-1.968-7.682-8.378-12.473-16.111-14.487       c-2.705-0.704-11.332-2.223-15.148-1.294c-2.668,0.65-4.417-0.001-9.299-0.862c-0.414-0.073-1.109,0.333-1.271,0.754       c-0.234,0.607-0.453,1.223-0.637,1.847c-8.613,29.297-17.637,33.358-13.421,35.262c0.082,0.037,21.725,8.091,42.189,20.784       c21.833,13.542,17.059,12.55,31.32,19.42c1.898,0.914,3.983,1.276,6.034,1.696c1.572,0.322,3.116,0.136,4.652-0.32       c2.245-0.667,4.565-2.498,4.3-5.847c0.064-1.516-0.123-3.076-0.758-4.54C313.536,480.605,297.548,477.051,289.854,447.032z"/>
					<path style="fill:#FFBBEC;" d="M203.25,177.077c6.324,6.642,9.432,10.279,18.201,14.731       c12.476,6.335,25.605,7.745,36.204,5.818c8.49-1.545,16.387-4.481,23.525-9.385c4.639-3.187,3.864-2.45,12.172-11.061       c0.358-0.371,0.638-0.821,0.935-1.247c0.263-0.378,0.133-1.191-0.239-1.435c-2.578-1.691-10.375-4.139-13.181-4.99       c-15.179-4.606-20.193-4.179-26.564-4.85c-0.91-0.096-1.823-0.247-2.733-0.235c-3.528,0.045-7.072-0.288-10.574,0.451       c-1.216,0.257-2.449-0.164-8.59,0.77c-11.59,1.761-24.787,6.246-29.331,8.515c-0.745,0.372-1.022,1.381-0.562,2.001       C202.747,176.475,202.981,176.794,203.25,177.077z"/>
					<path style="fill:#FFBBEC;" d="M177.595,306.259c-0.489-0.172-0.981-0.349-1.486-0.457       c-15.357-3.277-30.893-8.346-41.219-12.633c-4.827-2.004-1.846,1.103-12.459,18.382c-1.789,2.913-2.064,3.238-1.481,4.578       c-2.733,0.064-5.479-0.11-8.182,0.508c-1.838,0.421-1.53-0.626-10.506,1.211c-33.625,6.885-59.27,30.467-54.719,65.686       c1.328,10.278,3.74,17.569,7.012,23.979c2.189,4.287,5.09,4.704,7.035,2.922c1.19-1.09,1.028-1.734,2.135-3.663       c0.614-1.071,2.226,5.859,4.866,9.457c0.403,0.548,1.59,0.763,2.172,0.378c5.702-3.771,3.417-9.785,4.142-11.934       c1.039,2.003-1.2,5.971,3.339,5.943c2.913-0.018,4.92-2.397,5.531-4.276c0.403-1.24,0.897-2.501,0.996-3.78       c0.866-11.207-0.913-16.082-1.281-23.061c-0.213-4.045-0.055-8.109-0.037-12.166c0.001-0.185,0.206-0.385,0.354-0.542       c0.037-0.039,0.233,0.045,0.34,0.104c2.735,1.509,4.131,3.876,4.53,6.931c0.627,4.804,1.695,9.844,4.534,13.624       c2.272,3.026,6.608,5.092,7.84,1.678c0.485-1.342,0.934-2.755,1.041-4.163c1.055-13.97-1.868-21.723-3.114-29.498       c9.915,0.402,17.532-0.199,43.934,0.152c1.987,0.027,3.59-0.461,4.816-2.063c0.246-0.322,7.428-7.791,19.771-26.818       c3.423-5.276,6.4-10.803,9.436-16.299c1-1.811,1.073-2.258,1.269-2.86C178.341,307.157,178.008,306.404,177.595,306.259z        M98.543,354.907c0.064-0.039,0.128-0.077,0.192-0.116c0.062,0.197,0.125,0.393,0.186,0.591       C98.795,355.224,98.668,355.065,98.543,354.907z M125.544,316.743c-4.345-0.077-3.599-0.141-4.507-0.586       c1.536,0.066,3.073,0.13,4.609,0.203c0.124,0.006,0.244,0.078,0.367,0.119C125.856,316.572,125.698,316.746,125.544,316.743z"/>
					<path style="fill:#FFBBEC;" d="M443.05,349.448c-8.823-14.949-25.21-25.333-41.361-29.839       c-12.316-3.436-16.575-2.695-17.751-2.969c-2.7-0.628-5.448-0.447-8.181-0.512c1.193-2.755-1.836-2.499-9.876-20.989       c-2.45-5.635-1.497-0.722-33.466,7.805c-6.094,1.626-11.236,2.587-13.303,3.314c-0.413,0.145-0.766,0.906-0.603,1.322       c3.429,8.794,20.942,36.257,31.602,47.071c1.006,1.02,2.154,0.957,4.863,0.94c29.083-0.179,33.578,0.294,42.757-0.122       c-0.836,5.873-1.267,5.467-2.668,14.62c-0.7,4.573-0.552,9.132-0.554,13.706c-0.001,1.725,0.388,3.381,0.964,4.988       c0.716,1.995,2.534,2.658,4.448,1.656c1.165-0.61,2.282-1.307,3.093-2.37c6.41-8.406,3.129-16.566,7.947-20.043       c0.624-0.451,1.285-0.851,1.929-1.274c0.797,0.718,0.429,1.679,0.442,2.513c0.073,4.575,0.314,9.16-0.585,13.7       c-0.193,0.972-0.175,4.274-0.459,5.866c-0.79,4.421-0.591,8.874-0.39,13.313c0.199,4.377,2.887,9.194,7.708,8.386       c2.701-0.453,1.385-3.156,2.182-5.881c0.617,2.919-1.311,8.307,4.13,11.947c0.59,0.395,1.73,0.177,2.18-0.346       c0.339-0.394,0.705-0.792,0.93-1.252c3.824-7.835,2.772-7.885,3.943-8.225c0.303-0.088,0.807,1.883,1.617,3.057       c1.318,1.909,3.788,2.098,5.474,0.535c5.582-5.174,9.848-26.313,9.666-34.238C449.492,365.755,448.148,358.086,443.05,349.448z        M371.163,316.743c-0.154,0.003-0.312-0.172-0.468-0.264c0.486-0.164-0.529-0.086,4.975-0.323       C374.763,316.602,375.511,316.666,371.163,316.743z M397.791,355.367c0.06-0.192,0.121-0.384,0.181-0.575       C398.332,355.135,397.951,355.211,397.791,355.367z"/>
				</g>
				<path style="fill:#FFCF00;" d="M222.087,360.95c-5.382-0.042-2.934-0.431-7.427-0.56c-8.193-0.235-10.517-0.041-13.326-0.663      c-0.759-0.168-1.563-0.162-2.347-0.183c-5.117-0.134-10.136-1.147-15.206-1.702c-0.801-0.088-1.434-0.785-1.511-1.569      c-0.24-2.463-0.022-23.043-0.292-24.353c-0.904-4.394-0.16-10.529-1.142-14.861c-0.327-1.445,0.048-3.814-0.707-8.206      c-0.309-1.797-0.307-3.648-0.451-5.474c-0.004-0.048-0.112-0.088-0.171-0.131c-0.06,0.107-0.151,0.208-0.174,0.323      c-0.051,0.256-0.035,0.528-0.104,0.777c-0.324,1.172-0.836,1.521-1.984,1.312c-18.366-3.335-45.05-13.479-47.453-15.052      c-1.201-0.786-1.795-1.904-1.576-3.344c2.102-13.791,16.106-48.851,21.019-61.212c4.183-10.527,9.314-19.732,17.395-27.734      c6.523-6.46,11.224-11.225,23.31-17.8c11.264-6.127,10.981-5.933,13.048-3.323c12.224,15.436,33.001,22.878,48.444,21.572      c29.17-2.467,41.124-20.821,43.521-22.927c0.398-0.349,0.955-0.53,1.47-0.325c1.823,0.725,3.694,1.371,5.422,2.284      c17.965,9.496,22.631,14.883,28.698,20.988c8.356,8.408,13.368,17.981,17.559,28.992c2.116,5.56,18.262,45.252,20.382,59.365      c0.19,1.264-0.17,2.332-1.158,3.157c-2.468,2.06-29.948,11.939-47.365,15.235c-1.875,0.355-1.967,0.273-2.562-1.851      c-0.034-0.121-0.037-0.271-0.112-0.356c-0.186-0.211-0.301-0.094-0.313,0.31c-0.127,4.188-1.125,8.307-1.003,12.515      c-0.784,4.011-0.541,8.09-0.834,12.132c-1.979,27.258,1.394,29.085-2.859,29.663c-1.167,0.158-2.328,0.396-3.499,0.476      c-3.787,0.257-7.504,1.198-11.323,1.128c-0.392-0.007-0.793-0.004-1.176,0.071c-4.276,0.828-8.613,0.576-12.926,0.733      c-7.174,0.262-3.413,0.534-8.213,0.578C243.603,361.23,250.94,361.175,222.087,360.95z"/>
				<g>
					<path style="fill:#FD8A02;" d="M138.287,272.962c-1.217-0.479-2.436-0.956-3.668-1.396c-1.074-0.383-2.107,0.116-2.549,1.2       c-0.32,0.787-3.09,9.549-3.84,14.387c-0.433,2.797,1.667,3.684,4.295,4.724c12.339,4.879,33.95,12.307,45.338,13.818       c0.391,0.052,1.107-0.478,1.193-0.859c0.058-0.254,0.111-0.508,0.202-0.927c-0.029-0.49-0.007-1.152-0.116-1.792       C174.551,275.124,185.682,291.593,138.287,272.962z"/>
					<path style="fill:#FD8A02;" d="M365.076,273.97c-1.482-4.807-2.367-1.986-19.458,3.666       c-14.373,4.753-18.699,5.359-24.141,6.889c-2.514,0.707-1.441,3.044-3.848,17.101c-0.299,1.746-0.145,2.33-0.012,3.112       c0.066,0.389,0.765,1.003,1.122,0.961c10.172-1.194,37.839-10.29,47.158-14.535       C369.237,289.643,369.551,288.486,365.076,273.97z"/>
					<path style="fill:#FD8A02;" d="M300.027,185.374c-12.074,15.015-30.633,24.625-50.116,24.457       c-19.675,0.14-36.81-10.353-51.949-23.054c-1.334-1.119-3.118,0.759-1.912,2.033c39.134,41.344,86.524,29.531,106.12-1.918       c0.347-0.558,0.232-1.301-0.294-1.722C301.31,184.716,300.482,184.807,300.027,185.374z"/>
					<path style="fill:#FD8A02;" d="M200.148,288.403c-0.964-1.319-3-0.033-2.22,1.403c16.036,29.504,47.864,52.121,80.753,58.473       c0.679,0.132,1.369-0.257,1.593-0.932c0.921-2.764-3.68-1.225-23.86-11.316C233.764,324.559,215.015,308.694,200.148,288.403z"/>
					<path style="fill:#FD8A02;" d="M263.213,314.347c0.112,0.121-6.252-6.195-15.335-16.633c-1.564-1.823-3.35-3.944-5.103-5.777       c-0.985-1.03-2.688-0.014-2.257,1.339c2.966,9.31,11.8,19.664,21.116,23.37C263.047,317.206,264.243,315.46,263.213,314.347z"/>
				</g>
				<path style="fill:#915EFD;" d="M198.046,404.193c1.048,1.057,2.448,1.485,3.746,2.092c7.799,3.646,30.819,14.848,44.207,22.28      c1.167,0.648,1.794,1.592,1.466,2.898c-0.255,1.015-0.555,2.021-0.872,3.019c-1.982,6.247-4.192,12.401-7.011,18.337      c-3.039,6.401-6.295,12.67-10.466,18.413c-1.536,2.114-3.247,4.107-4.96,6.085c-0.588,0.679-1.406,1.169-2.152,1.7      c-0.783,0.558-1.666,0.713-2.618,0.523c-2.182-0.437-4.363-0.882-6.552-1.28c-10.957-1.998-21.773-4.612-32.526-7.484      c-10.508-2.807-20.83-6.222-31.115-9.752c-8.305-2.851-16.486-6.019-24.5-9.611c-4.661-2.089-9.378-4.067-13.945-6.347      c-18.465-9.22-28.461-16.492-36.785-23.904c-0.772-0.687-1.39-1.559-2.013-2.396c-0.621-0.834-0.542-1.702,0.067-2.541      c1.075-1.479,2.24-2.896,2.944-4.622c0.118-0.289,0.599-0.566,0.938-0.601c1.249-0.129,4.674,1.037,7.203-2.826      c5.683-8.68-0.974-24.827,0.9-39.166c0.077-0.585,1.047-0.876,1.596-0.534c3.353,2.086,2.638,7.808,4.801,14.218      c1.351,4.004,6.08,9.807,9.074,8.371c1.229-0.589,2.148-1.551,2.41-2.922c0.393-2.054,0.903-4.093,0.861-6.215      c-0.515-26.146-7.8-25.828,2.812-25.817c48.529,0.05,48.05-0.051,51.469,0.536c2.523,0.433,10.024-0.023,14.496,0.851      c1.144,0.224,2.35,0.133,3.528,0.182c7.087,0.294,5.656,0.717,7.414,0.733c5.294,0.047,6.214,0.469,13.661,1.378      c0.163,0.02,15.878,1.186,19.598,1.127c3.136-0.05,6.267,0.071,9.404,0.482c2.097,0.274-0.17,0.225,44.019,0.125      c4.689-0.011-0.714-0.3,12.146-0.63c38.343-0.984,16.063-5.141,108.992-4.791c4.854,0.019,7.099-0.207,6.571,2.436      c-1.516,7.589-3.385,15.249-2.847,24.1c0.062,1.025,0.63,5.661,1.201,6.523c1.704,2.571,3.129,2.63,5.261,1.295      c8.88-5.565,6.054-18.22,10.246-21.725c0.366-0.306,1.192-0.537,1.447-0.285c0.26,0.256,0.571,0.609,0.589,0.935      c1.085,19.064-4.521,30.25,0.846,38.779c3.603,5.725,7.19,0.208,9.072,5.16c0.851,2.239,3.76,3.74,1.978,5.378      c-1.057,0.972-2.105,1.978-3.275,2.802c-33.806,23.804-85.419,31.825-126.564,30.922c-3.955-0.086-3.28-0.977-4.868-6.262      c-3.045-10.134-13.856-14.729-23.922-15.159c-4.118-0.176-6.761,0.425-7.449-1.944c-2.031-6.993-4.503-15.801-5.181-26.527      c-0.03-0.478,0.309-0.979,0.478-1.469c0.261-0.261,0.521-0.521,0.781-0.782c1.883-0.941,1.233-0.616,3.151-1.577l0.145-0.17      l-0.164,0.152c-1.955,0.982-1.23,0.619-3.152,1.576c-0.26,0.262-0.519,0.523-0.779,0.785c-2.62,0.786-5.205,1.653-7.929,2.097      c-8.675,1.415-12.903-1.971-16.086-3.369c-16.981-7.46-29.317,4.322-31.812,4.439l-0.158-0.162L198.046,404.193z"/>
				<g style="opacity:0.35;">
					<path style="fill:#000E3F;" d="M412.803,370.743c-0.308,0.832-0.5,1.72-0.5,2.659v0.004c0,1.025,0.21,1.999,0.573,2.893       C412.911,374.532,412.883,372.67,412.803,370.743z"/>
					<path style="fill:#000E3F;" d="M420.001,419.357c-4.251,0-7.697,3.446-7.698,7.697v0.004c0,0.068,0.018,0.131,0.02,0.199       c3.132-1.809,6.161-3.72,9.051-5.755c0.627-0.441,1.217-0.936,1.793-1.448C422.199,419.615,421.133,419.357,420.001,419.357z"/>
					<path style="fill:#000E3F;" d="M391.682,381.103h0.002c0.796,0,1.548-0.155,2.269-0.38c-0.114-4.994,0.479-9.63,1.297-14.103       c-1.071-0.565-2.273-0.915-3.568-0.915c-4.251,0-7.697,3.445-7.698,7.696v0.006       C383.986,377.657,387.432,381.102,391.682,381.103z"/>
					<path style="fill:#000E3F;" d="M406.74,392.227c2.494,0,4.58-1.653,5.286-3.915c0.075-0.713,0.148-1.446,0.222-2.191       c-0.276-2.799-2.599-4.993-5.466-5.014c-0.851,3.051-2.194,6.049-4.86,8.288C402.878,391.078,404.666,392.227,406.74,392.227z"/>
					<path style="fill:#000E3F;" d="M391.683,392.531c-4.251,0-7.697,3.445-7.698,7.696v0.006c0.001,4.25,3.446,7.694,7.697,7.696       h0.004c4.251-0.002,7.697-3.448,7.697-7.699C399.382,395.978,395.935,392.531,391.683,392.531z"/>
					<path style="fill:#000E3F;" d="M406.74,407.929c-3.072,0-5.562,2.49-5.562,5.562c0,3.072,2.49,5.562,5.562,5.562       c3.072,0,5.562-2.49,5.562-5.562C412.302,410.419,409.812,407.929,406.74,407.929z"/>
					<path style="fill:#000E3F;" d="M391.683,419.357c-4.251,0-7.697,3.445-7.698,7.696v0.006c0.001,4.25,3.446,7.695,7.697,7.696       h0.004c4.251-0.002,7.697-3.448,7.697-7.699C399.382,422.803,395.935,419.357,391.683,419.357z"/>
					<path style="fill:#000E3F;" d="M374.339,356.089c-0.91,0.99-1.478,2.3-1.478,3.75c0,3.072,2.49,5.562,5.562,5.562       c3.072,0,5.562-2.49,5.562-5.562c0-1.453-0.57-2.764-1.482-3.754C379.667,356.081,376.943,356.083,374.339,356.089z"/>
					<path style="fill:#000E3F;" d="M363.365,365.705c-4.251,0-7.697,3.445-7.698,7.696v0.006c0.002,4.25,3.447,7.695,7.698,7.696       h0.002c4.252-0.001,7.698-3.447,7.698-7.699C371.064,369.152,367.617,365.705,363.365,365.705z"/>
					<path style="fill:#000E3F;" d="M378.422,381.103c-3.072,0-5.562,2.49-5.562,5.562c0,3.072,2.49,5.562,5.562,5.562       c3.072,0,5.562-2.49,5.562-5.562C383.984,383.593,381.494,381.103,378.422,381.103z"/>
					<path style="fill:#000E3F;" d="M363.365,392.531c-4.251,0-7.697,3.445-7.698,7.696v0.006c0.002,4.25,3.447,7.694,7.697,7.696       h0.004c4.251-0.002,7.697-3.448,7.697-7.699C371.064,395.978,367.617,392.531,363.365,392.531z"/>
					<path style="fill:#000E3F;" d="M378.422,407.929c-3.072,0-5.562,2.49-5.562,5.562c0,3.072,2.49,5.562,5.562,5.562       c3.072,0,5.562-2.49,5.562-5.562C383.984,410.419,381.494,407.929,378.422,407.929z"/>
					<path style="fill:#000E3F;" d="M363.365,419.357c-4.251,0-7.697,3.445-7.698,7.696v0.006c0.002,4.25,3.447,7.695,7.697,7.696       h0.004c4.251-0.002,7.697-3.448,7.697-7.699C371.064,422.803,367.617,419.357,363.365,419.357z"/>
					<path style="fill:#000E3F;" d="M378.422,434.755c-3.072,0-5.562,2.49-5.562,5.562c0,1.001,0.285,1.927,0.749,2.739       c3.491-0.976,6.936-2.042,10.33-3.188C383.707,437.009,381.34,434.755,378.422,434.755z"/>
					<path style="fill:#000E3F;" d="M345.764,356.399c-0.753,0.949-1.222,2.134-1.222,3.44c0,3.072,2.49,5.562,5.562,5.562       c3.072,0,5.562-2.49,5.562-5.562c0-1.379-0.52-2.625-1.351-3.596C351.249,356.287,348.411,356.339,345.764,356.399z"/>
					<path style="fill:#000E3F;" d="M335.047,365.705c-4.251,0-7.697,3.445-7.698,7.696v0.006c0.002,4.25,3.447,7.695,7.698,7.696       h0.002c4.252-0.001,7.698-3.447,7.698-7.699C342.746,369.152,339.299,365.705,335.047,365.705z"/>
					<path style="fill:#000E3F;" d="M350.104,381.103c-3.072,0-5.562,2.49-5.562,5.562c0,3.072,2.49,5.562,5.562,5.562       c3.072,0,5.562-2.49,5.562-5.562C355.666,383.593,353.176,381.103,350.104,381.103z"/>
					<path style="fill:#000E3F;" d="M335.047,392.531c-4.251,0-7.697,3.445-7.698,7.696v0.006c0.002,4.25,3.447,7.694,7.697,7.696       h0.004c4.251-0.002,7.697-3.448,7.697-7.699C342.746,395.978,339.299,392.531,335.047,392.531z"/>
					<path style="fill:#000E3F;" d="M350.104,407.929c-3.072,0-5.562,2.49-5.562,5.562c0,3.072,2.49,5.562,5.562,5.562       c3.072,0,5.562-2.49,5.562-5.562C355.666,410.419,353.176,407.929,350.104,407.929z"/>
					<path style="fill:#000E3F;" d="M335.047,419.357c-4.251,0-7.697,3.445-7.698,7.696v0.006c0.002,4.25,3.447,7.695,7.697,7.696       h0.004c4.251-0.002,7.697-3.448,7.697-7.699C342.746,422.803,339.299,419.357,335.047,419.357z"/>
					<path style="fill:#000E3F;" d="M350.104,434.755c-3.072,0-5.562,2.49-5.562,5.562c0,3.072,2.49,5.562,5.562,5.562       c3.072,0,5.562-2.49,5.562-5.562C355.666,437.245,353.176,434.755,350.104,434.755z"/>
					<path style="fill:#000E3F;" d="M335.047,446.182c-3.326,0-6.133,2.122-7.209,5.076c4.525-0.415,9.083-0.943,13.646-1.584       C340.109,447.575,337.744,446.182,335.047,446.182z"/>
					<path style="fill:#000E3F;" d="M316.6,357.87c-0.233,0.614-0.376,1.273-0.376,1.969c0,3.072,2.49,5.562,5.562,5.562       s5.562-2.49,5.562-5.562c0-0.996-0.283-1.917-0.741-2.725C322.603,357.344,319.376,357.602,316.6,357.87z"/>
					<path style="fill:#000E3F;" d="M306.729,365.705c-4.251,0-7.697,3.445-7.698,7.696v0.006c0.002,4.25,3.447,7.695,7.698,7.696       h0.002c4.252-0.001,7.698-3.447,7.698-7.699C314.428,369.152,310.981,365.705,306.729,365.705z"/>
					<path style="fill:#000E3F;" d="M321.786,381.103c-3.072,0-5.562,2.49-5.562,5.562c0,3.072,2.49,5.562,5.562,5.562       s5.562-2.49,5.562-5.562C327.348,383.593,324.858,381.103,321.786,381.103z"/>
					<path style="fill:#000E3F;" d="M306.729,392.531c-4.251,0-7.697,3.445-7.698,7.696v0.006c0.002,4.25,3.447,7.694,7.697,7.696       h0.004c4.252-0.002,7.697-3.448,7.697-7.699C314.428,395.978,310.981,392.531,306.729,392.531z"/>
					<path style="fill:#000E3F;" d="M321.786,407.929c-3.072,0-5.562,2.49-5.562,5.562c0,3.072,2.49,5.562,5.562,5.562       s5.562-2.49,5.562-5.562C327.348,410.419,324.858,407.929,321.786,407.929z"/>
					<path style="fill:#000E3F;" d="M306.729,419.357c-4.251,0-7.697,3.445-7.698,7.696v0.006c0.002,4.25,3.447,7.695,7.697,7.696       h0.004c4.252-0.002,7.697-3.448,7.697-7.699C314.428,422.803,310.981,419.357,306.729,419.357z"/>
					<path style="fill:#000E3F;" d="M321.786,434.755c-3.072,0-5.562,2.49-5.562,5.562c0,3.072,2.49,5.562,5.562,5.562       s5.562-2.49,5.562-5.562C327.348,437.245,324.858,434.755,321.786,434.755z"/>
					<path style="fill:#000E3F;" d="M306.729,446.182c-3.773,0-6.898,2.719-7.558,6.301c4.904,0.032,9.938-0.063,15.056-0.294       C313.455,448.754,310.397,446.182,306.729,446.182z"/>
					<path style="fill:#000E3F;" d="M293.468,365.401c3.041,0,5.504-2.443,5.553-5.473c-2.998,0.287-6.495,0.541-11.032,0.738       C288.392,363.343,290.679,365.401,293.468,365.401z"/>
					<path style="fill:#000E3F;" d="M278.411,365.705c-4.251,0-7.697,3.445-7.698,7.696v0.006c0.001,4.25,3.447,7.695,7.698,7.696       h0.002c4.252-0.001,7.698-3.447,7.698-7.699C286.11,369.152,282.663,365.705,278.411,365.705z"/>
					<path style="fill:#000E3F;" d="M293.468,381.103c-3.072,0-5.562,2.49-5.562,5.562c0,3.072,2.49,5.562,5.562,5.562       c3.072,0,5.562-2.49,5.562-5.562C299.03,383.593,296.54,381.103,293.468,381.103z"/>
					<path style="fill:#000E3F;" d="M278.411,392.531c-4.251,0-7.697,3.445-7.698,7.696v0.006c0.001,4.25,3.447,7.694,7.696,7.696       h0.004c4.251-0.002,7.697-3.448,7.697-7.699C286.11,395.978,282.663,392.531,278.411,392.531z"/>
					<path style="fill:#000E3F;" d="M293.468,407.929c-3.072,0-5.562,2.49-5.562,5.562c0,3.072,2.49,5.562,5.562,5.562       c3.072,0,5.562-2.49,5.562-5.562C299.03,410.419,296.54,407.929,293.468,407.929z"/>
					<path style="fill:#000E3F;" d="M278.411,419.357c-4.251,0-7.697,3.445-7.698,7.696v0.006c0.001,1.829,0.665,3.486,1.731,4.807       c2.63,0.594,5.181,1.498,7.509,2.733c3.513-0.714,6.157-3.82,6.157-7.543C286.11,422.803,282.663,419.357,278.411,419.357z"/>
					<path style="fill:#000E3F;" d="M293.468,434.755c-3.072,0-5.562,2.49-5.562,5.562c0,0.74,0.151,1.442,0.413,2.088       c0.155,0.271,0.294,0.555,0.436,0.836c0.981,1.578,2.718,2.639,4.713,2.639c3.072,0,5.562-2.49,5.562-5.562       C299.03,437.245,296.54,434.755,293.468,434.755z"/>
					<path style="fill:#000E3F;" d="M265.15,365.401c2.486,0,4.566-1.642,5.278-3.892c-0.319,0.009-0.728,0.014-1.282,0.015       c-3.359,0.008-6.419,0.015-9.263,0.022C260.607,363.777,262.678,365.401,265.15,365.401z"/>
					<path style="fill:#000E3F;" d="M250.093,365.705c-4.251,0-7.697,3.445-7.698,7.696v0.006c0.002,4.25,3.447,7.695,7.698,7.696       h0.002c4.252-0.001,7.698-3.447,7.698-7.699C257.792,369.152,254.345,365.705,250.093,365.705z"/>
					<path style="fill:#000E3F;" d="M265.15,381.103c-3.072,0-5.562,2.49-5.562,5.562c0,3.072,2.49,5.562,5.562,5.562       s5.562-2.49,5.562-5.562C270.712,383.593,268.222,381.103,265.15,381.103z"/>
					<path style="fill:#000E3F;" d="M254.65,400.281c-0.261,0.261-0.521,0.521-0.781,0.782c-0.17,0.49-0.509,0.992-0.479,1.469       c0.096,1.512,0.234,2.977,0.395,4.414c2.377-1.311,4.007-3.81,4.007-6.717c0-0.495-0.057-0.977-0.146-1.447       C255.942,399.636,256.473,399.371,254.65,400.281z"/>
					<path style="fill:#000E3F;" d="M245.923,403.146c2.725-0.445,5.31-1.311,7.929-2.097c0.26-0.262,0.519-0.523,0.779-0.785       c1.868-0.931,1.256-0.624,3.013-1.506c-0.689-3.546-3.803-6.226-7.551-6.226c-4.251,0-7.697,3.445-7.698,7.696v0.006       c0.001,1.151,0.271,2.232,0.724,3.213C244,403.399,244.929,403.308,245.923,403.146z"/>
					<path style="fill:#000E3F;" d="M265.15,407.929c-3.072,0-5.562,2.49-5.562,5.562c0,3.072,2.49,5.562,5.562,5.562       s5.562-2.49,5.562-5.562C270.712,410.419,268.222,407.929,265.15,407.929z"/>
					<path style="fill:#000E3F;" d="M245.998,428.566c-1.118-0.621-2.323-1.275-3.561-1.941c-0.008,0.144-0.043,0.281-0.043,0.428       v0.006c0.001,3.045,1.784,5.651,4.349,6.9c0.256-0.827,0.51-1.655,0.72-2.494C247.792,430.159,247.165,429.214,245.998,428.566       z"/>
					<path style="fill:#000E3F;" d="M236.832,365.401c2.456,0,4.516-1.603,5.253-3.811c-4.849,0.011-8.179,0.016-10.503,0.013       C232.323,363.805,234.381,365.401,236.832,365.401z"/>
					<path style="fill:#000E3F;" d="M221.775,365.705c-4.251,0-7.697,3.445-7.698,7.696v0.006c0.001,4.25,3.447,7.695,7.698,7.696       h0.002c4.251-0.001,7.698-3.447,7.698-7.699C229.474,369.152,226.027,365.705,221.775,365.705z"/>
					<path style="fill:#000E3F;" d="M236.832,381.103c-3.072,0-5.562,2.49-5.562,5.562c0,3.072,2.49,5.562,5.562,5.562       c3.072,0,5.562-2.49,5.562-5.562C242.394,383.593,239.904,381.103,236.832,381.103z"/>
					<path style="fill:#000E3F;" d="M229.411,399.603c-0.324-3.954-3.599-7.072-7.636-7.072c-3.322,0-6.128,2.116-7.207,5.065       C218.899,396.962,223.906,397.278,229.411,399.603z"/>
					<path style="fill:#000E3F;" d="M221.775,419.357c-4.251,0-7.697,3.445-7.698,7.696v0.006c0.001,4.25,3.447,7.695,7.696,7.696       h0.004c4.251-0.002,7.697-3.448,7.697-7.699C229.474,422.803,226.027,419.357,221.775,419.357z"/>
					<path style="fill:#000E3F;" d="M236.832,434.755c-3.072,0-5.562,2.49-5.562,5.562c0,3.072,2.49,5.562,5.562,5.562       c3.072,0,5.562-2.49,5.562-5.562C242.394,437.245,239.904,434.755,236.832,434.755z"/>
					<path style="fill:#000E3F;" d="M221.775,446.182c-4.251,0-7.697,3.445-7.698,7.696v0.006c0.001,4.25,3.447,7.695,7.698,7.696       h0.002c4.251-0.001,7.698-3.447,7.698-7.699C229.474,449.629,226.027,446.182,221.775,446.182z"/>
					<path style="fill:#000E3F;" d="M231.27,467.142c0,0.267,0.042,0.523,0.079,0.78c1.272-1.958,2.481-3.952,3.607-5.994       C232.812,462.7,231.27,464.733,231.27,467.142z"/>
					<path style="fill:#000E3F;" d="M214.415,478.569c1.658,0.317,3.315,0.64,4.971,0.972c0.952,0.19,1.835,0.035,2.618-0.523       c0.745-0.531,1.564-1.021,2.152-1.7c0.77-0.89,1.537-1.786,2.291-2.692c-1.299-1-2.906-1.618-4.672-1.618       C218.27,473.009,215.346,475.365,214.415,478.569z"/>
					<path style="fill:#000E3F;" d="M208.514,365.401c2.711,0,4.963-1.941,5.456-4.509c-2.731-0.086-7.192-0.36-10.974-0.613       C203.224,363.141,205.593,365.401,208.514,365.401z"/>
					<path style="fill:#000E3F;" d="M193.457,365.705c-4.251,0-7.697,3.445-7.698,7.697v0.004c0.001,4.25,3.447,7.696,7.698,7.697       h0.002c4.251-0.001,7.698-3.447,7.698-7.699C201.156,369.152,197.709,365.705,193.457,365.705z"/>
					<path style="fill:#000E3F;" d="M208.514,381.103c-3.072,0-5.562,2.49-5.562,5.562c0,3.072,2.49,5.562,5.562,5.562       c3.072,0,5.562-2.49,5.562-5.562C214.076,383.593,211.586,381.103,208.514,381.103z"/>
					<path style="fill:#000E3F;" d="M193.457,392.531c-4.251,0-7.697,3.446-7.698,7.697v0.004c0.001,4.25,3.446,7.695,7.697,7.697       h0.004c2.376-0.001,4.473-1.1,5.885-2.792c-0.456-0.257-0.894-0.545-1.279-0.928c0.499-0.044,1.362-0.514,2.551-1.191       c0.338-0.867,0.54-1.802,0.54-2.789C201.156,395.978,197.709,392.531,193.457,392.531z"/>
					<path style="fill:#000E3F;" d="M206.268,408.41c-1.951,0.864-3.316,2.81-3.316,5.081c0,3.072,2.49,5.562,5.562,5.562       c3.072,0,5.562-2.49,5.562-5.562c0-0.484-0.081-0.945-0.197-1.393C211.045,410.712,208.464,409.462,206.268,408.41z"/>
					<path style="fill:#000E3F;" d="M193.457,419.357c-4.251,0-7.697,3.446-7.698,7.697v0.004c0.001,4.251,3.446,7.695,7.697,7.697       h0.004c4.251-0.002,7.697-3.448,7.697-7.699C201.156,422.803,197.709,419.357,193.457,419.357z"/>
					<path style="fill:#000E3F;" d="M208.514,434.755c-3.072,0-5.562,2.49-5.562,5.562c0,3.072,2.49,5.562,5.562,5.562       c3.072,0,5.562-2.49,5.562-5.562C214.076,437.245,211.586,434.755,208.514,434.755z"/>
					<path style="fill:#000E3F;" d="M193.457,446.182c-4.251,0-7.697,3.446-7.698,7.697v0.004c0.001,4.251,3.447,7.696,7.698,7.697       h0.002c4.251-0.001,7.698-3.447,7.698-7.699C201.156,449.629,197.709,446.182,193.457,446.182z"/>
					<path style="fill:#000E3F;" d="M208.514,461.58c-3.072,0-5.562,2.49-5.562,5.562c0,3.073,2.49,5.562,5.562,5.562       c3.072,0,5.562-2.49,5.562-5.562C214.076,464.07,211.586,461.58,208.514,461.58z"/>
					<path style="fill:#000E3F;" d="M190.883,473.482c2.705,0.668,5.417,1.308,8.135,1.923c-1.402-1.47-3.369-2.396-5.561-2.396       C192.549,473.009,191.691,473.194,190.883,473.482z"/>
					<path style="fill:#000E3F;" d="M182.465,358.413c-1.757-0.015-0.331-0.438-7.396-0.732c-0.28,0.664-0.435,1.393-0.435,2.158       c0,3.072,2.49,5.562,5.562,5.562c3.072,0,5.562-2.49,5.562-5.562c0-0.461-0.072-0.902-0.178-1.33       C184.685,358.456,183.695,358.424,182.465,358.413z"/>
					<path style="fill:#000E3F;" d="M165.139,365.705c-4.251,0-7.697,3.445-7.698,7.697v0.004c0.001,4.25,3.447,7.696,7.698,7.697       h0.002c4.252-0.001,7.698-3.447,7.698-7.699C172.838,369.152,169.391,365.705,165.139,365.705z"/>
					<path style="fill:#000E3F;" d="M180.196,381.103c-3.072,0-5.562,2.49-5.562,5.562c0,3.072,2.49,5.562,5.562,5.562       c3.072,0,5.562-2.49,5.562-5.562C185.758,383.593,183.268,381.103,180.196,381.103z"/>
					<path style="fill:#000E3F;" d="M165.139,392.531c-4.251,0-7.697,3.446-7.698,7.697v0.004c0.001,4.25,3.446,7.695,7.697,7.697       h0.004c4.251-0.002,7.697-3.448,7.697-7.699C172.838,395.978,169.391,392.531,165.139,392.531z"/>
					<path style="fill:#000E3F;" d="M180.196,407.929c-3.072,0-5.562,2.49-5.562,5.562c0,3.072,2.49,5.562,5.562,5.562       c3.072,0,5.562-2.49,5.562-5.562C185.758,410.419,183.268,407.929,180.196,407.929z"/>
					<path style="fill:#000E3F;" d="M165.139,419.357c-4.251,0-7.697,3.446-7.698,7.697v0.004c0.001,4.251,3.446,7.695,7.697,7.697       h0.004c4.251-0.002,7.697-3.448,7.697-7.699C172.838,422.803,169.391,419.357,165.139,419.357z"/>
					<path style="fill:#000E3F;" d="M180.196,434.755c-3.072,0-5.562,2.49-5.562,5.562c0,3.072,2.49,5.562,5.562,5.562       c3.072,0,5.562-2.49,5.562-5.562C185.758,437.245,183.268,434.755,180.196,434.755z"/>
					<path style="fill:#000E3F;" d="M165.139,446.182c-4.251,0-7.697,3.446-7.698,7.697v0.004c0.001,4.251,3.447,7.696,7.698,7.697       h0.002c4.252-0.001,7.698-3.447,7.698-7.699C172.838,449.629,169.391,446.182,165.139,446.182z"/>
					<path style="fill:#000E3F;" d="M180.196,461.58c-3.072,0-5.562,2.49-5.562,5.562c0,0.765,0.155,1.494,0.435,2.158       c1.744,0.5,3.485,1.008,5.239,1.476c1.059,0.283,2.122,0.55,3.182,0.828c1.369-1.014,2.269-2.627,2.269-4.461       C185.758,464.07,183.268,461.58,180.196,461.58z"/>
					<path style="fill:#000E3F;" d="M147.724,356.174c-0.866,0.98-1.408,2.254-1.408,3.665c0,3.072,2.49,5.562,5.562,5.562       c3.072,0,5.562-2.49,5.562-5.562c0-1.245-0.423-2.382-1.114-3.309C154.949,356.314,153.569,356.219,147.724,356.174z"/>
					<path style="fill:#000E3F;" d="M136.821,365.705c-4.251,0-7.697,3.445-7.698,7.696v0.006c0.002,4.25,3.447,7.695,7.698,7.696       h0.002c4.251-0.001,7.698-3.447,7.698-7.699C144.52,369.152,141.073,365.705,136.821,365.705z"/>
					<path style="fill:#000E3F;" d="M151.878,381.103c-3.072,0-5.562,2.49-5.562,5.562c0,3.072,2.49,5.562,5.562,5.562       c3.072,0,5.562-2.49,5.562-5.562C157.44,383.593,154.95,381.103,151.878,381.103z"/>
					<path style="fill:#000E3F;" d="M136.821,392.531c-4.251,0-7.697,3.445-7.698,7.696v0.006c0.002,4.25,3.447,7.694,7.697,7.696       h0.004c4.251-0.002,7.697-3.448,7.697-7.699C144.52,395.978,141.073,392.531,136.821,392.531z"/>
					<path style="fill:#000E3F;" d="M151.878,407.929c-3.072,0-5.562,2.49-5.562,5.562c0,3.072,2.49,5.562,5.562,5.562       c3.072,0,5.562-2.49,5.562-5.562C157.44,410.419,154.95,407.929,151.878,407.929z"/>
					<path style="fill:#000E3F;" d="M136.821,419.357c-4.251,0-7.697,3.445-7.698,7.696v0.006c0.002,4.25,3.447,7.695,7.697,7.696       h0.004c4.251-0.002,7.697-3.448,7.697-7.699C144.52,422.803,141.073,419.357,136.821,419.357z"/>
					<path style="fill:#000E3F;" d="M151.878,434.755c-3.072,0-5.562,2.49-5.562,5.562c0,3.072,2.49,5.562,5.562,5.562       c3.072,0,5.562-2.49,5.562-5.562C157.44,437.245,154.95,434.755,151.878,434.755z"/>
					<path style="fill:#000E3F;" d="M136.821,446.182c-4.071,0-7.37,3.17-7.645,7.172c4.48,1.908,9.005,3.704,13.576,5.381       c1.088-1.328,1.768-3.003,1.768-4.854C144.52,449.629,141.073,446.182,136.821,446.182z"/>
					<path style="fill:#000E3F;" d="M151.073,461.661c1.6,0.547,3.201,1.091,4.804,1.629c-1.012-1.051-2.426-1.71-4-1.71       C151.602,461.58,151.338,461.623,151.073,461.661z"/>
					<path style="fill:#000E3F;" d="M119.448,356.123c-0.892,0.987-1.451,2.282-1.451,3.716c0,3.072,2.49,5.562,5.562,5.562       c3.072,0,5.562-2.49,5.562-5.562c0-1.432-0.556-2.725-1.446-3.71C125.182,356.127,122.435,356.125,119.448,356.123z"/>
					<path style="fill:#000E3F;" d="M108.503,365.705c-2.846,0-5.303,1.561-6.635,3.857c0.319,2.444,0.593,5.342,0.754,8.755       c1.412,1.688,3.507,2.785,5.881,2.785h0.002c4.251-0.001,7.698-3.447,7.698-7.699       C116.201,369.152,112.755,365.705,108.503,365.705z"/>
					<path style="fill:#000E3F;" d="M123.56,381.103c-3.072,0-5.562,2.49-5.562,5.562c0,3.072,2.49,5.562,5.562,5.562       c3.072,0,5.562-2.49,5.562-5.562C129.122,383.593,126.632,381.103,123.56,381.103z"/>
					<path style="fill:#000E3F;" d="M108.503,392.531c-4.251,0-7.697,3.445-7.699,7.696v0.006c0.002,4.25,3.447,7.694,7.697,7.696       h0.004c4.251-0.002,7.697-3.448,7.697-7.699C116.201,395.978,112.755,392.531,108.503,392.531z"/>
					<path style="fill:#000E3F;" d="M123.56,407.929c-3.072,0-5.562,2.49-5.562,5.562c0,3.072,2.49,5.562,5.562,5.562       c3.072,0,5.562-2.49,5.562-5.562C129.122,410.419,126.632,407.929,123.56,407.929z"/>
					<path style="fill:#000E3F;" d="M108.503,419.357c-4.251,0-7.697,3.445-7.699,7.696v0.006c0.002,4.25,3.447,7.695,7.697,7.696       h0.004c4.251-0.002,7.697-3.448,7.697-7.699C116.201,422.803,112.755,419.357,108.503,419.357z"/>
					<path style="fill:#000E3F;" d="M123.56,434.755c-3.072,0-5.562,2.49-5.562,5.562c0,3.072,2.49,5.562,5.562,5.562       c3.072,0,5.562-2.49,5.562-5.562C129.122,437.245,126.632,434.755,123.56,434.755z"/>
					<path style="fill:#000E3F;" d="M100.478,361.644c0.196-0.569,0.325-1.17,0.325-1.805c0-1.042-0.304-2.005-0.803-2.839       C99.622,357.746,99.939,359.123,100.478,361.644z"/>
					<path style="fill:#000E3F;" d="M85.599,368.476c-0.549-0.342-1.52-0.051-1.596,0.534c-0.475,3.636-0.4,7.389-0.118,11.106       c2.373-1.311,4-3.809,4-6.713c0-1.308-0.357-2.522-0.933-3.601C86.588,369.273,86.153,368.821,85.599,368.476z"/>
					<path style="fill:#000E3F;" d="M95.242,392.227c1.15,0,2.219-0.35,3.106-0.948c-2.728-0.121-6.213-4.37-7.652-7.805       c-0.636,0.904-1.017,2.001-1.017,3.191C89.679,389.737,92.17,392.227,95.242,392.227z"/>
					<path style="fill:#000E3F;" d="M83.723,407.03c2.462-1.285,4.16-3.831,4.16-6.8c0-2.275-1.006-4.299-2.576-5.708       C85.634,399.333,85.43,403.647,83.723,407.03z"/>
					<path style="fill:#000E3F;" d="M95.242,407.929c-3.072,0-5.562,2.49-5.562,5.562c0,3.072,2.49,5.562,5.562,5.562       c3.072,0,5.562-2.49,5.562-5.562C100.804,410.419,98.314,407.929,95.242,407.929z"/>
					<path style="fill:#000E3F;" d="M80.185,419.357c-2.189,0-4.154,0.924-5.555,2.39c3.524,3.101,7.374,6.189,12.047,9.414       c0.755-1.19,1.207-2.592,1.207-4.105C87.884,422.803,84.437,419.357,80.185,419.357z"/>
					<path style="fill:#000E3F;" d="M95.242,434.755c-0.818,0-1.588,0.186-2.287,0.503c2.386,1.475,4.975,2.991,7.799,4.557       C100.496,436.982,98.142,434.755,95.242,434.755z"/>
				</g>
				<g>
					<path style="fill:#4217A6;" d="M221.661,425.523c-3.345,14.354-11.285,32.255-21.773,42.68       c-1.149,1.141-3.005-0.25-2.234-1.677c20.485-37.931,20.635-44.052,23.382-42.452       C221.551,424.375,221.789,424.97,221.661,425.523z"/>
					<path style="fill:#4217A6;" d="M285.34,428.672c0.476,1.46-1.391,2.537-2.418,1.393c-7.121-7.956-10.184-21.953-8.751-32.448       c0.101-0.735,0.777-1.249,1.512-1.149C278.013,396.785,276.835,402.589,285.34,428.672z"/>
					<path style="fill:#4217A6;" d="M248.556,394.174c-0.241,1.418-2.185,1.659-2.767,0.329c-3.057-7.125-1.924-17.939,2.503-24.191       c0.78-1.102,2.518-0.519,2.484,0.826C250.699,374.114,248.529,394.333,248.556,394.174z"/>
				</g>
				<g style="opacity:0.35;">
					<path style="fill:#FC09B2;" d="M296.749,465.603c-0.088,0.097-0.161,0.224-0.27,0.282       c-1.428,0.756-12.768-13.122-30.413-14.998c-7.385-0.785-14.434,3.862-19.957,7.958c-7.727,5.731-5.623,4.556-10.362,7.033       c-1.276,0.666-2.196-0.02-2.01-0.706c0.991-3.669,5.156-5.641,13.918-33.22c0.613-1.927,1.632-1.619,3.464-1.231       c8.53,1.81,7.439-0.389,12.449,0.281c6.154,0.823,22.152,1.181,26.369,16.314c3.366,12.078,3.46,10.197,6.758,17.532       C296.792,465.064,296.735,465.349,296.749,465.603z"/>
					<path style="fill:#FC09B2;" d="M385.294,355.505c0,0.054,0,0.107,0,0.161c2.87,0,5.74,0.002,8.61-0.001       c4.501-0.005,3.53-0.414,5.331-4.752c1.644-3.961,2.883-8.127,5.784-11.456c0.204-0.234-0.407-1.062-1.376-0.802       c-6.694,1.799-8.659,3.759-18.927,10.749c-6.131,4.174-10.722,4.167-10.473,5.495       C374.393,355.696,375.302,355.505,385.294,355.505z"/>
					<path style="fill:#FC09B2;" d="M98.236,353.096c0.971,3.167,1.3,2.568,12.75,2.568c0-0.051,0-0.101,0-0.152       c9.996,0,11.29,0.173,11.473-0.58c0.351-1.44-3.984-1.015-11.435-6.133c-2.473-1.699-5.014-3.308-7.406-5.113       c-4.122-3.112-9.977-5.139-10.907-5.049c-0.343,0.033-0.702,0.229-0.978,0.449c-0.611,0.486,0.997,0.579,3.335,6.014       C96.203,347.735,97.393,350.344,98.236,353.096z"/>
				</g>
				<g style="opacity:0.25;">
					<path style="fill:#000E3F;" d="M238.801,450.614c-0.016,0.003-4.228,0.927-8.067,1.674       c-51.006,9.928-118.13-36.217-131.236-42.277c-4.602-2.127-9.242-4.153-12.219-5.397c-2.329-0.973-2.367,0.247-3.71,2.776       c-1.451,2.731-3.674,4.204-6.761,3.617c-1.04-0.198-1.827,0.135-2.195,1.156c-1.448,4.011-5.8,4.655-0.468,9.191       c35.918,30.556,98.352,49.555,144.725,58.097c1.4,0.258,2.586,0.096,3.672-0.806c0.603-0.501,1.312-0.917,1.792-1.517       c7.72-9.642,4.211-4.075,13.918-21.319c0.7-1.243,1.112-2.651,1.626-3.994C240.126,451.172,239.499,450.495,238.801,450.614z"/>
					<path style="fill:#000E3F;" d="M421.698,411.543c-0.667-1.637-5.087,1.481-8.129-3.426c-1.507-2.431-1.084-2.711-2.173-5.007       c-1.11-2.341-5.138,5.034-35.02,14.759c-54.174,17.63-69.645,5.511-107.814,5.929c-2.896,0.032-5.714,0.665-8.483,1.477       c-1.93,0.566-2.292,1.302-1.711,3.199c1.685,5.512,8.558-0.935,22.438,6.56c11.016,5.948,8.901,16.614,11.813,17.099       c0.641,0.107,5.798,0.914,7,0.605c2.574-0.662,74.466,2.344,122.446-31.732c1.053-0.748,1.954-1.731,2.844-2.681       C426.195,416.954,423.042,414.838,421.698,411.543z"/>
				</g>
				<g style="opacity:0.5;">
					<path style="fill:#FD8A02;" d="M283.904,360.347c0.165-0.005,10.929-0.126,18.016-1.037c2.983-0.383,5.948-0.939,8.94-1.202       c3.932-0.345,3.637-0.92,3.682-4.853c0.094-8.369-0.31-16.742,0.582-25.105c0.429-4.021,0.086-8.115,0.853-12.125       c-0.125-4.207,0.889-8.322,1.011-12.51c0.004-0.125,0.068-0.248,0.105-0.372c0.929,1.925,0.405,2.845,2.605,2.461       c9.846-1.72,24.463-6.285,33.945-9.699c1.399-0.504,1.629-1.397,0.302-2.084c-4.596-2.381-8.823-4.415-12.823-11.629       c-8.496-15.319-8.349-41.41-13.649-38.154c-17.107,10.508-25.153,24.691-31.54,43.516       c-7.412,21.845-6.266,37.636-27.396,54.521c-25.515,20.39-61.87,19.019-14.054,19.019c0,0.02,0,0.04,0.001,0.06       c6.94-0.071,13.879-0.138,20.819-0.218C280.052,360.882,275.806,360.6,283.904,360.347z"/>
					<path style="fill:#FD8A02;" d="M142.522,295.665c1.786,0.928,23.179,8.101,35.405,10.031c0.4,0.063,1.035-0.509,1.155-0.919       c0.304-1.039,0.151-2.08,0.009-3.11c-6.653-48.13-10.767-50.483-9.637-54.006c-0.06-1.047-0.1-1.827-0.154-2.607       c-0.057-0.811-1.031-1.214-1.394-0.982c-0.429,0.274-0.935,0.55-1.179,0.961c-2.255,3.808-4.287,17.902-5.815,23.514       c-6.866,25.218-18.103,23.296-19.001,26.234C141.777,295.214,142.174,295.485,142.522,295.665z"/>
				</g>
			</g>
			<path style="fill:#000E3F;" d="M443.079,346.477c-3.942-6.023-11.991-14.649-22.757-20.796     c-13.53-7.726-24.531-9.865-41.322-11.293c-0.742-0.063-1.33-0.456-1.799-1.201c-3.162-5.017-6.817-11.213-9.945-19.12     c-0.474-1.201-0.423-1.362,0.677-2.147c3.72-2.654,4.472-6.575-18.901-66.201c-9.788-24.968-27.678-42.032-56.303-53.7     c-35.034-14.282-69.876-11.881-103.574,7.128c-30.512,17.213-37.736,36.358-44.721,54.874c-0.564,1.494-1.126,2.984-1.699,4.468     c-0.371,0.962-0.812,2.081-1.312,3.35c-2.559,6.488-6.843,17.348-11.201,31.389c-0.033,0.104-3.217,10.384-3.504,14.107     c-0.222,2.903,1.23,3.968,2.192,4.674c0.171,0.124,0.317,0.232,0.436,0.338c0.614,0.537,0.306,1.269-0.048,2.116     c-0.039,0.092-0.079,0.186-0.117,0.28c-2.232,5.469-5.077,11.013-8.952,17.443c-0.985,1.637-2.224,2.369-4.017,2.371     c-13.534,0.021-28.516,4.385-41.103,11.971c-13.755,8.29-23.487,19.756-27.401,32.285c-5.154,16.498-0.768,39.874,6.561,51.357     c0.904,1.414,2.462,2.525,3.968,2.831c1.17,0.238,2.294,0.008,3.262-0.66c0.426-0.292,0.817-0.641,1.196-0.978     c0.203-0.182,0.409-0.364,0.618-0.538c0.182-0.151,0.336-0.211,0.46-0.175c0.336,0.091,0.603,0.821,0.941,1.745     c0.671,1.83,1.684,4.596,4.481,6.28c0.575,0.345,1.28,1.053,2.347,2.125c2.445,2.455,6.537,6.563,14.814,12.162     c10.048,6.797,23.377,13.799,39.617,20.81c27.19,11.738,63.084,22.246,93.674,27.422c1.502,0.257,2.678-0.082,3.698-1.058     c4.028-3.844,4.425-4.382,6.1-6.653c0.53-0.718,1.188-1.612,2.129-2.839c0.662-0.859,1.407-0.998,2.669-0.486     c30.203,12.266,45.528,22.741,56.717,30.389c8.881,6.07,14.748,10.08,22.992,11.352c0.453,0.07,0.916,0.103,1.385,0.103     c2.216,0,4.537-0.76,6.202-2.083c1.55-1.233,2.442-2.852,2.578-4.684c0.604-8.122-6.992-17.394-12.758-23.661     c-6.533-7.1-11.559-13.041-16.794-24.903c-0.186-0.423-0.303-0.891-0.415-1.343c-0.043-0.173-0.087-0.345-0.134-0.517     c-0.025-0.09,0.02-0.228,0.117-0.36c0.127-0.171,0.307-0.289,0.45-0.293c2.85-0.085,5.506-0.104,9.527-0.132     c3.206-0.022,7.194-0.05,12.87-0.121c1.805-0.023,19.265-1.451,31.573-3.634c14.438-2.561,22.961-4.643,35.079-8.567     c25.154-8.149,37.938-18.245,43.397-22.557c0.587-0.464,1.094-0.863,1.516-1.182c0.827-0.623,1.491-1.458,1.976-2.481     c0.539-1.14,0.937-2.04,1.257-2.763c0.603-1.362,0.906-2.045,1.179-2.11c0.121-0.024,0.258,0.047,0.502,0.25     c0.291,0.241,0.559,0.475,0.814,0.696c1.595,1.388,2.653,2.304,4.753,1.385c1.842-0.808,3.217-2.138,4.2-4.068     c5.028-9.853,7.847-20.614,8.154-31.119C451.718,366.105,448.848,355.291,443.079,346.477z M434.779,404.372     c4.529-13.413,5.837-24.543,5.579-30c-0.234-4.948-2.639-12.199-5.007-13.294c-0.483-0.22-0.937-0.175-1.347,0.143     c-0.822,0.635-0.317,1.551,0.52,3.068c1.46,2.648,3.903,7.079,2.842,15.32c-0.116,0.9-0.216,1.817-0.31,2.705     c-0.222,2.048-0.451,4.166-0.904,6.225c-1.578,7.176-5.167,20.804-8.617,26.359c-0.176,0.282-0.443,0.454-0.75,0.482     c-0.371,0.033-0.758-0.133-1.059-0.46c-4.046-4.401-2.516-11.119-0.581-19.623c2.027-8.911,4.551-20.002,0.755-31.609     c-0.151-0.46-0.516-0.818-0.979-0.958c-0.124-0.038-0.246-0.057-0.356-0.057c-0.151,0-0.279,0.035-0.368,0.104l-0.095,0.073     c-0.207,0.157-0.44,0.335-0.46,0.554l-0.023,0.233c-0.14,1.484-0.183,1.931,0.867,6.757c1.44,6.613-0.926,20.766-2.977,28.249     c-0.85,3.098-1.286,6.239-1.298,9.337c-0.003,0.764-0.491,1.27-1.34,1.388c-1.474,0.199-4.057-0.949-4.955-4.068     c-1.701-6.239-0.91-13.798-0.144-21.109c0.853-8.15,1.736-16.577-0.8-23.303c-0.172-0.457-0.714-1.224-1.249-1.417     c-0.197-0.071-0.381-0.06-0.542,0.03c-0.996,0.565-0.951,1.058-0.767,2.031c0.162,0.86,0.317,1.578,0.441,2.155     c0.438,2.039,0.517,2.537-0.13,2.963c-3.265,2.153-3.818,5.701-4.456,9.809c-0.058,0.37-0.117,0.742-0.177,1.118     c-0.778,4.835-3.274,10.394-7.09,11.911c-0.506,0.2-1.092,0.168-1.572-0.081c-0.416-0.217-0.699-0.569-0.799-0.993     c-0.057-0.241-0.113-0.475-0.168-0.705c-0.75-3.116-1.342-5.577-0.242-16.017c0.306-2.908,0.817-5.978,1.606-9.661     c2.35-10.933,5.141-16.109,6.64-18.89c1.086-2.014,1.581-2.933,0.722-3.923c-0.169-0.195-0.463-0.312-0.783-0.29     c-0.337,0.011-0.646,0.149-0.806,0.359c-0.084,0.11-0.168,0.22-0.251,0.329c-0.39,0.507-0.792,1.032-1.097,1.603     c-2.689,5.06-3.85,8.251-4.545,10.159c-1.09,2.993-1.142,3.112-4.24,3.095l-9.495-0.046c-7.055-0.035-14.108-0.07-21.162-0.094     c-2.24-0.006-4.048,0.025-5.497,0.05c-4.847,0.084-5.849,0.103-7.23-1.611c-0.603-0.747-1.306-1.584-2.12-2.553     c-3.664-4.364-9.203-10.957-16.472-22.244c-2.855-4.432-9.254-15.014-11.119-19.396c-0.124-0.291-0.115-0.644,0.026-0.944     c0.12-0.257,0.323-0.445,0.556-0.515c1.839-0.552,3.369-0.882,5.141-1.263c5.237-1.129,12.412-2.676,35.75-11.31     c0.137-0.051,0.265-0.099,0.385-0.145c1.676-0.638,1.674-0.641,3.385,3.061c1.377,2.983,3.684,7.975,8.6,16.627     c0.075,0.131,0.076,0.305,0.003,0.465c-0.073,0.158-0.199,0.268-0.34,0.295c-0.096,0.019-0.193,0.047-0.289,0.077     c-0.151,0.045-0.292,0.088-0.428,0.088c-0.078,0.002-0.179-0.003-0.276-0.003c-3.333,0-11,1.222-17.41,3.627     c-1.766,0.662-1.623,1.648-1.538,1.935c0.188,0.636,0.899,1.047,1.546,0.901c0.433-0.099,1.129-0.291,2.008-0.534     c3.714-1.027,10.627-2.939,16.417-3.031l0.895-0.015c9.623-0.155,18.714-0.308,33.345,5.232     c11.851,4.487,22.004,11.631,29.363,20.66c11.228,13.777,11.773,30.019,10.254,41.218c-1.732,12.76-6.696,22.795-8.87,24.598     c-0.792,0.655-1.691,0.699-2.527,0.124C435.035,408.813,434.08,406.443,434.779,404.372z M202.834,404.663     c-0.141-0.096-0.234-0.306-0.228-0.51c0.006-0.143,0.059-0.255,0.149-0.307c5.292-3.105,10.619-4.675,15.857-4.675     c0.438,0,0.876,0.011,1.312,0.033c5.653,0.286,9.358,2.095,12.335,3.547c0.269,0.131,0.533,0.26,0.792,0.385     c6.421,3.092,11.538,1.982,14.928,1.246c1.684-0.363,2.9-0.628,3.507-0.178c0.276,0.204,0.432,0.565,0.477,1.104     c0.62,7.347,2.17,13.54,3.537,19.004c0.391,1.568,0.763,3.049,1.086,4.463c0.033,0.143-0.028,0.33-0.168,0.512     c-0.18,0.236-0.441,0.399-0.652,0.409c-0.135,0.006-0.27,0.008-0.407,0.008c-4.358,0-9.4-2.793-17.591-7.329     c-1.929-1.069-4.116-2.28-6.477-3.554c-1.274-0.687-6.343-3.169-11.712-5.797C212.135,409.378,203.698,405.248,202.834,404.663z      M234.699,465.93c0.371-0.961,0.996-2.062,1.859-3.588c2.389-4.213,6.385-11.264,11.212-26.204l0.082-0.253     c1.008-3.12,1.249-3.868,2.485-3.868c0.39,0,0.878,0.074,1.521,0.172c1.28,0.195,3.192,0.485,6.11,0.485     c0.101,0,0.202,0,0.306-0.001c0.722-0.005,1.414-0.012,2.077-0.019c7.208-0.075,11.175-0.113,17.879,2.898     c7.774,3.495,9.109,7.889,11.132,14.54c2.381,7.835,5.643,18.565,20.914,34.664c4.186,4.412,11.209,13.393,10.985,19.069     c-0.056,1.414-0.561,2.56-1.499,3.407c-1.198,1.077-2.953,1.624-4.956,1.542c-6.893-0.286-12.753-4.222-22.462-10.744     c-8.569-5.755-20.302-13.636-38.221-22.453c-7.27-3.578-11.99-5.47-15.113-6.722C235.122,467.296,234.313,466.931,234.699,465.93     z M269.256,429.985c-2.78-0.39-4.706-0.529-6.113-0.63c-3.226-0.232-3.352-0.241-4.006-2.694l-0.202-0.756     c-1.18-4.402-3.945-14.709-4.074-22.324c-0.017-0.991,0.374-1.734,1.163-2.209c8.156-4.91,32.974-19.852,91.711-33.046     c3.574-0.803,5.032-1.135,5.267-1.31c0.278-0.206,0.53-0.563,0.69-0.977c0.057-0.149,0.031-0.332-0.075-0.53     c-0.185-0.346-0.581-0.672-0.903-0.744c-1.137-0.255-2.226-0.044-3.159,0.17c-36.908,8.431-65.81,17.114-95.8,34.318     c-3.431,1.968-5.483,2.219-7.131,2.42c-0.489,0.06-0.951,0.116-1.392,0.214c-5.501,1.218-8.869-0.396-12.761-2.264     c-2.491-1.196-5.067-2.432-8.502-3.081c-7.427-1.406-13.999-0.144-21.965,4.218l-0.59,0.326c-3.072,1.693-3.071,1.691-6.91-0.06     c-17.678-8.058-55.946-24.329-68.594-27.27c-0.494-0.113-1.112,0.227-1.407,0.773c-0.165,0.307-0.198,0.577-0.098,0.827     c0.351,0.891,2.437,1.593,7.474,3.288c9.027,3.038,27.813,9.36,62.999,25.643c0.645,0.299,1.281,0.649,1.898,0.987     c0.74,0.406,1.502,0.825,2.289,1.163c4.89,2.096,9.714,4.533,14.378,6.89c2.116,1.069,4.304,2.175,6.469,3.234     c17.584,8.6,20.359,10.233,22.196,11.313c0.497,0.293,0.927,0.546,1.566,0.886c2.793,1.488,2.793,1.488,2.072,3.958     c-0.073,0.252-0.154,0.527-0.239,0.831c-1.44,5.128-3.223,10.096-5.297,14.768c-7.086,15.95-10.516,20.36-16.999,28.06     c-0.211,0.252-0.48,0.451-0.766,0.662c-0.143,0.106-0.287,0.212-0.422,0.325c-0.871,0.726-1.729,0.958-2.799,0.737     c-1.37-0.279-2.774-0.506-4.131-0.727c-1.184-0.192-2.407-0.391-3.603-0.623c-41.958-8.134-82.803-23.494-104.671-35.11     c-6.163-3.274-21.311-11.661-28.85-18.842c-0.904-0.86-1.612-1.448-2.237-1.966c-0.93-0.771-1.665-1.381-2.654-2.54     c-0.305-0.357-0.336-0.918-0.071-1.306c0.545-0.805,0.988-1.471,1.351-2.021c1.705-2.571,1.705-2.571,2.994-2.608     c0.373-0.011,0.837-0.024,1.468-0.093c2.443-0.27,4.288-1.457,5.486-3.528c1.409-2.435,2.134-4.762,2.217-7.116     c0.262-7.559-0.189-11.226-0.671-15.11c-0.464-3.764-0.946-7.656-0.776-15.438c0.003-0.128,0.138-0.291,0.256-0.434     c0.029-0.035,0.057-0.069,0.084-0.102c0.006-0.008,0.022-0.027,0.07-0.027c0.008,0,0.019,0.001,0.03,0.002     c0.188,0.025,0.474,0.252,0.604,0.551c0.794,1.832,1.148,3.844,1.525,5.974c0.775,4.399,1.656,9.385,6.87,13.843     c1.356,1.158,3.554,2.109,5.66,1.31c5.094-1.936,3.906-14.936,3.515-19.208c-0.575-6.281-1.505-10.069-2.061-12.333     c-0.416-1.695-0.626-2.546-0.329-2.927c0.287-0.369,1.148-0.376,2.709-0.388l0.368-0.003c46.249-0.427,55.202,0.37,74.803,2.121     c5.54,0.495,11.82,1.055,20.038,1.69c45.99,3.554,74.532,1.438,104.75-0.801c22.796-1.691,46.363-3.442,79.581-3.106     c1.079,0.004,2.174-0.022,3.338-0.057c2.715-0.08,5.52-0.165,8.035,0.339c0.244,0.048,0.618,0.488,0.602,0.655     c-0.085,0.816-0.329,1.945-0.637,3.376c-0.913,4.241-2.442,11.34-2.117,21.145c0.07,2.06,0.491,5.99,1.637,7.656     c0.999,1.455,2.248,2.192,3.714,2.192c0.043,0,0.087-0.001,0.13-0.002c2.535-0.075,5.567-2.438,7.726-6.019     c2.016-3.346,2.553-6.341,3.173-9.81c0.256-1.425,0.52-2.899,0.907-4.487c0.099-0.412,0.382-0.801,0.654-1.177     c0.107-0.147,0.214-0.295,0.307-0.439c0.025-0.022,0.149-0.048,0.292-0.022c0.101,0.018,0.149,0.051,0.155,0.063     c0.52,1.171,0.095,6.464-0.397,12.592c-0.493,6.123-1.05,13.064-0.89,18.258c0.071,2.342,0.778,4.674,2.158,7.132     c1.176,2.095,3.001,3.312,5.424,3.619c0.672,0.085,1.16,0.093,1.553,0.099c1.385,0.022,1.385,0.022,3.864,3.932l0.614,0.967     c0.073,0.116,0.031,0.468-0.065,0.562l-0.306,0.296c-0.637,0.62-1.294,1.261-2.024,1.763l-0.659,0.454     c-2.437,1.678-4.955,3.413-7.514,4.981c-15.361,9.408-38.059,17.195-63.913,21.927c-20.965,3.836-42.731,5.351-55.455,3.862     c-1.426-0.168-1.71-1.541-1.986-2.869C290.396,441.144,285.283,432.233,269.256,429.985z M62.209,364.277     c0.801-1.471,1.285-2.358,0.533-3.009c-0.2-0.173-0.444-0.263-0.714-0.263c-0.057,0-0.116,0.005-0.177,0.012     c-0.618,0.085-1.25,0.595-1.555,1.055c-5.708,8.619-4.301,18.408-2.041,29.386c0.884,4.293,1.918,7.467,2.673,9.785     c1.455,4.468,2.058,6.317-0.668,8.543c-0.401,0.327-0.862,0.432-1.369,0.325c-1.211-0.265-2.389-1.662-2.971-2.848     c-4.5-9.155-7.128-19.09-7.6-28.732c-0.517-10.564,1.657-20.287,6.29-28.118c6.624-11.196,17.629-20.459,30.986-26.08     c10.849-4.566,22.164-6.556,28.106-6.463c2.586,0.039,4.535,0.031,6.096,0.025c4.802-0.021,6.26-0.026,12.626,1.327     c1.645,0.349,3.078,0.749,4.464,1.136c1.592,0.445,3.095,0.864,4.677,1.131c0.261,0.049,0.632-0.188,0.857-0.4     c0.121-0.115,0.401-0.414,0.367-0.7c-0.028-0.248-0.132-0.853-0.469-1.104c-2.381-1.764-12.107-3.867-17.907-4.211     c-1.09-0.064-1.671-0.15-1.825-0.44c-0.227-0.423,0.368-1.438,1.553-3.461c1.698-2.897,4.539-7.746,8.199-16.243     c0.486-1.136,0.499-1.156,4.616,0.417c3.203,1.224,8.561,3.273,18.253,6.315c9.414,2.955,13.311,3.777,16.156,4.379     c0.887,0.187,1.653,0.348,2.446,0.546c1.626,0.404,2.386,0.663,2.589,1.125c0.202,0.464-0.121,1.202-0.877,2.582     c-8.555,15.615-16.412,28.21-29.133,42.724c-0.806,0.92-1.755,1.371-2.898,1.376l-0.12-0.014c-0.092,0-0.165-0.002-0.219,0.003     c-0.803,0.006-4.414,0.02-20.094,0.02v-0.116l-3.33,0.032c-5.349,0.051-10.7,0.102-16.049,0.148l-0.147,0.002     c-0.3,0.002-0.573,0.005-0.822,0.005c-2.597,0-2.692-0.254-3.763-3.147c-0.742-2.005-1.983-5.36-4.844-10.753     c-0.48-0.903-1.078-1.496-1.643-1.624c-0.317-0.074-0.623-0.005-0.906,0.203c-1.02,0.752-0.438,1.882,0.839,4.354     c1.927,3.737,5.517,10.692,7.618,24.249c0.537,3.46,2.991,20.77-1.468,21.806c-0.199,0.046-0.393,0.067-0.584,0.067     c-3.526,0-6.06-7.36-6.351-8.242c-0.606-1.836-0.944-3.744-1.272-5.588c-0.165-0.925-0.334-1.881-0.536-2.821     c-0.863-4.025-2.401-5.22-3.419-6.011c-0.654-0.509-1.016-0.789-0.868-1.543c0.233-1.191,0.412-2.073,0.547-2.734     c0.354-1.744,0.399-1.968,0.292-2.313c-0.126-0.399-0.534-0.872-1.044-0.962c-0.255-0.045-0.607-0.007-0.921,0.403     c-1.328,1.737-2.207,6.394-2.206,8.712c0.006,12.116,0.099,12.783,0.253,13.887c0.027,0.185,0.054,0.383,0.084,0.651     c0.101,0.928,0.224,1.932,0.354,2.996c0.977,7.971,2.314,18.888-2.457,22.596c-1.067,0.827-2.361,0.87-3.109,0.558     c-0.429-0.178-0.686-0.467-0.73-0.814c-0.13-1.055-0.14-1.681-0.149-2.286c-0.017-1.208-0.034-2.349-1.01-6.657     c-2.745-12.119-2.872-12.946-3.038-15.768c-0.02-0.336-0.087-0.839-0.171-1.479c-0.336-2.53-0.958-7.24-0.012-11.768     c0.363-1.733,0.704-3.552,1.01-5.407c0.236-1.435-0.283-2.213-0.901-2.347c-0.613-0.134-1.419,0.335-1.781,1.671     c-3.316,12.26-0.804,23.086,1.213,31.784c1.926,8.304,3.447,14.863-1.013,18.97c-0.227,0.209-0.536,0.307-0.834,0.265     c-0.287-0.039-0.53-0.196-0.683-0.442c-2.797-4.514-7.688-18.201-9.799-34.494C58.256,371.539,60.828,366.815,62.209,364.277z      M292.493,175.962c-0.037,0.051-0.068,0.107-0.098,0.163c-0.033,0.06-0.064,0.117-0.103,0.162     c-10.93,13.052-26.646,20.657-43.123,20.864c-16.813,0.218-32.723-7.228-44.812-20.948c-0.197-0.224-0.276-0.461-0.23-0.686     c0.056-0.266,0.284-0.505,0.646-0.673c1.701-0.795,10.206-3.725,12.545-4.456c12.596-3.935,20.557-4.332,28.924-4.332     c1.045,0,2.097,0.006,3.164,0.012c1.134,0.006,2.29,0.013,3.478,0.013c0.322,0,0.654,0,0.968-0.002     c12.469,0,26.53,4.41,33.817,7.045c1.159,0.419,2.308,0.933,3.419,1.429c0.418,0.187,0.835,0.374,1.255,0.557     c0.104,0.045,0.188,0.154,0.227,0.298C292.624,175.603,292.594,175.821,292.493,175.962z M202.603,178.685     c0.834,0.991,1.977,2.349,3.776,4.131c9.577,9.49,22.841,15.682,36.39,16.987c9.636,0.928,19.78-0.726,29.341-4.781     c9.142-3.878,16.986-9.719,22.086-16.45c0.516-0.68,1.269-1.677,2.044-1.677c0.076,0,0.152,0.009,0.23,0.03     c4.226,1.149,20.642,10.117,29.68,19.374c13.885,14.22,16.035,19.789,23.159,38.239c1.533,3.972,3.271,8.474,5.41,13.807     c1.601,3.993,12.71,33.545,12.16,39.621c-0.054,0.59-0.305,1.375-1.188,1.762c-19.328,8.475-41.681,14.051-45.569,14.356     c-0.402,0.028-0.773-0.092-1.021-0.347c-0.23-0.239-0.334-0.571-0.292-0.935c2.813-24.503,6.688-39.734,9.002-48.834     c1.298-5.11,2.015-7.924,1.628-9.017c-0.183-0.52-0.575-0.838-1.025-0.838c-0.012,0-0.026,0-0.04,0.001     c-0.348,0.014-1.215,0.261-1.733,2.235c-10.224,38.769-12.043,67.62-12.727,78.481c-0.116,1.847-0.2,3.182-0.287,3.969     c-0.283,2.556-0.283,4.494-0.275,15.251c0.001,2.331,0.003,5.077,0.001,8.335v0.531c0.005,3.455,0.005,3.662-2.435,3.921     c-9.266,0.988-10.549,1.286-10.97,1.384c-0.17,0.039-0.17,0.039-0.628,0.041h-0.07c-0.009,0.001-0.085,0.005-0.224,0.015     c-6.857,0.457-68.311,4.288-114.617-1.647c-1.058-0.136-1.078-0.371-1.103-12.58c-0.005-2.951-0.013-6.623-0.037-11.15     c-0.106-18.691-7.511-72.009-13.912-88.204c-0.099-0.251-0.446-0.464-1.031-0.63c-0.149-0.043-0.284-0.064-0.405-0.064     c-0.204,0-0.368,0.061-0.496,0.184c-0.738,0.714-0.061,3.426,1.426,9.367c2.159,8.637,6.177,24.714,9.055,49.477     c0.023,0.213-0.073,0.453-0.269,0.658c-0.23,0.245-0.548,0.391-0.842,0.391c-0.016,0-0.031,0-0.048-0.001     c-0.115-0.007-0.23-0.012-0.345-0.016c-0.399-0.018-0.811-0.035-1.196-0.12c-13.965-3.075-27.94-7.452-41.54-13.01l-0.575-0.234     c-2.914-1.177-3.605-1.458-3.238-4.879c0.214-1.99,2.327-9.299,2.988-11.358c5.109-15.936,6.57-19.602,9.223-26.257     c0.739-1.857,1.578-3.961,2.612-6.625c0.809-2.087,1.581-4.132,2.328-6.11c5.123-13.556,9.546-25.264,20.64-36.256     c0.545-0.54,1.073-1.069,1.595-1.592c3.945-3.956,7.353-7.372,14.275-11.763c5.565-3.529,11.018-6.867,16.546-8.918     C200.876,176.636,201.315,177.152,202.603,178.685z M318.273,311.619c0.288,0.086,1.544,2.28,3.133,5.058     c3.52,6.147,10.068,17.589,18.596,28.364c0.983,1.244,4.506,5.591,6.517,8.07l0.141,0.174c0.129,0.167,0.143,0.447,0.034,0.697     c-0.09,0.208-0.241,0.34-0.402,0.356c-9.06,0.858-18.672,1.423-28.569,1.68c-0.444,0.008-0.713-0.074-0.918-0.277     c-0.677-0.665-0.657-2.804-0.613-7.489c0.012-1.405,0.026-2.993,0.028-4.865h0.045v-0.12c0-6.926,0.441-13.93,0.868-20.704     c0.006-0.112,0.019-0.333,0.034-0.636C317.621,313.203,318.064,311.724,318.273,311.619z M180.291,355.043     c-0.171,1.42-3.422,1.147-8.35,0.727c-2.954-0.251-6.63-0.563-10.585-0.565c-2.386-0.001-4.792-0.253-7.117-0.496     c-1.246-0.13-2.532-0.266-3.802-0.361c-0.18-0.013-0.35-0.157-0.444-0.374c-0.104-0.24-0.088-0.498,0.04-0.658     c14.29-17.789,16.86-21.842,28.2-41.894c0.061-0.107,0.225-0.182,0.384-0.256c0.034-0.015,0.067-0.03,0.098-0.045     c0.034,0.042,0.073,0.099,0.078,0.125c0.065,1.338,0.208,3.54,0.39,6.326C179.867,328.159,181.146,347.867,180.291,355.043z"/>
		</g>
		<g>
			<g>
				<g>
					<path style="fill:#FFBBEC;" d="M227.393,178.557c1.718-8.334,2.72-14.998,3.292-20.008c0.748-6.473,0.811-10.227,0.939-11.324       c0.032-0.206-0.239-21.296,11.419-28.915c11.499-7.523,23.555,7.618,23.571,28.883c0,3.34,0.334,7.332,0.859,11.452       c0.875,7.045,2.275,14.505,3.356,19.913"/>
					<path style="opacity:0.35;fill:#FC09B2;" d="M267.473,158.644c-4.517,6.378-11.07,10.401-18.37,10.401       c-7.332,0-13.901-4.056-18.418-10.497c0.748-6.473,0.811-10.227,0.939-11.324c0.032-0.206-0.239-21.296,11.419-28.915       c11.499-7.523,23.555,7.618,23.571,28.883C266.614,150.533,266.948,154.525,267.473,158.644z"/>
				</g>
				<path style="fill:#000E3F;" d="M227.395,180.148c-0.106,0-0.214-0.01-0.323-0.033c-0.861-0.177-1.413-1.019-1.236-1.879      c1.488-7.217,2.587-13.901,3.271-19.868c0.523-4.535,0.707-7.697,0.816-9.586c0.048-0.822,0.082-1.401,0.123-1.74      c0.067-5.243,1.163-22.897,12.129-30.063c4.094-2.681,8.63-2.927,12.77-0.69c7.921,4.281,13.25,16.699,13.261,30.903      c0,3.06,0.284,6.845,0.846,11.251c0.685,5.52,1.775,11.995,3.336,19.802c0.172,0.861-0.387,1.699-1.247,1.871      c-0.868,0.175-1.699-0.388-1.872-1.248c-1.576-7.884-2.679-14.435-3.374-20.028c-0.578-4.534-0.871-8.454-0.871-11.647      c-0.009-12.864-4.776-24.422-11.593-28.105c-3.151-1.702-6.354-1.517-9.516,0.554c-9.902,6.47-10.647,23.995-10.697,27.443      c-0.003,0.227-0.017,0.356-0.02,0.378c-0.03,0.25-0.058,0.769-0.099,1.504c-0.112,1.923-0.298,5.143-0.832,9.766      c-0.693,6.059-1.808,12.838-3.315,20.146C228.796,179.631,228.134,180.148,227.395,180.148z"/>
			</g>
			<g>
				<g>
					<path style="fill:#FFBBEC;" d="M289.592,118.418c-1.018,6.378-2.847,12.215-5.662,16.796       c-5.424,8.827-18.258,21.455-34.656,21.646h-0.318c-16.414-0.191-29.233-12.819-34.656-21.646       c-2.815-4.564-4.644-10.418-5.662-16.796c-1.129-6.966-1.272-14.584-0.652-21.869c0.811-9.622,2.958-18.672,5.932-24.938       c7.062-14.855,19.817-22.728,35.038-23.062c0.063-0.016,0.095-0.016,0.159-0.016c0.048,0,0.112,0,0.159,0.016       c15.205,0.334,27.96,8.207,35.038,23.062c2.974,6.266,5.121,15.317,5.932,24.923       C290.865,103.818,290.722,111.452,289.592,118.418z"/>
					<g style="opacity:0.35;">
						<path style="fill:#FC09B2;" d="M273.144,109.463c-5.563,0-10.091,3.701-10.091,8.251c0,4.549,4.528,8.25,10.091,8.25        c5.565,0,10.093-3.701,10.093-8.25C283.237,113.164,278.71,109.463,273.144,109.463z"/>
						<path style="fill:#FC09B2;" d="M225.212,109.463c-5.565,0-10.093,3.701-10.093,8.251c0,4.549,4.528,8.25,10.093,8.25        c5.563,0,10.091-3.701,10.091-8.25C235.303,113.164,230.775,109.463,225.212,109.463z"/>
					</g>
					<g>
						<path style="fill:#000E3F;" d="M291.829,96.401c-0.825-9.784-3.041-19.068-6.081-25.474        c-7.174-15.059-20.069-23.566-36.314-23.965c-0.345-0.045-0.424-0.028-0.635,0c-16.262,0.398-29.158,8.905-36.318,23.967        c-3.038,6.401-5.254,15.69-6.079,25.485c-0.663,7.778-0.434,15.474,0.666,22.255c1.12,7.023,3.097,12.87,5.877,17.377        c5.053,8.224,18.32,22.198,36.011,22.404h0.337c17.672-0.206,30.939-14.18,35.992-22.404        c2.783-4.528,4.761-10.375,5.877-17.376C292.262,111.889,292.492,104.189,291.829,96.401z M288.022,118.164        c0,0.002,0,0.003,0,0.004c-1.052,6.588-2.883,12.043-5.445,16.214c-4.712,7.669-17.034,20.699-33.302,20.888h-0.3        c-16.286-0.189-28.608-13.219-33.321-20.89c-2.559-4.15-4.391-9.604-5.445-16.215c-1.059-6.53-1.28-13.958-0.638-21.48        c0.795-9.431,2.903-18.321,5.784-24.39c6.635-13.956,18.581-21.824,33.636-22.154c0.042-0.001,0.084-0.003,0.124-0.007        c0.042,0.004,0.084,0.006,0.126,0.007c15.041,0.331,26.987,8.199,33.636,22.154c2.881,6.072,4.989,14.957,5.784,24.376        C289.3,104.203,289.079,111.636,288.022,118.164z"/>
						<path style="fill:#000E3F;" d="M260.931,84.471c-0.02,6.156,15.12,9.696,16.724,3.292        C279.544,80.217,260.957,76.445,260.931,84.471z"/>
						<path style="fill:#000E3F;" d="M237.289,84.471c-0.026-8.027-18.613-4.254-16.724,3.292        C222.169,94.167,237.309,90.628,237.289,84.471z"/>
						<path style="fill:#000E3F;" d="M273.871,95.108c-0.879,0-1.591,0.712-1.591,1.591c0,3.6-2.207,5.405-4.257,5.559        c-1.935,0.145-4.385-1.117-4.989-5.142c-0.132-0.868-0.936-1.474-1.809-1.336c-0.868,0.13-1.468,0.941-1.337,1.809        c0.827,5.492,4.438,7.861,7.831,7.861c0.182,0,0.362-0.006,0.541-0.02c3.58-0.267,7.202-3.352,7.202-8.73        C275.461,95.821,274.75,95.108,273.871,95.108z"/>
						<path style="fill:#000E3F;" d="M236.997,95.779c-0.864-0.137-1.678,0.468-1.81,1.336c-0.604,4.024-3.057,5.274-4.989,5.142        c-2.05-0.154-4.257-1.958-4.257-5.559c0-0.878-0.711-1.591-1.591-1.591c-0.879,0-1.59,0.712-1.59,1.591        c0,5.379,3.622,8.463,7.202,8.73c0.179,0.014,0.359,0.02,0.541,0.02c3.394,0,7.005-2.371,7.831-7.861        C238.464,96.72,237.865,95.91,236.997,95.779z"/>
						<path style="fill:#000E3F;" d="M259.432,120.514c-0.862-0.172-1.698,0.394-1.865,1.256c-0.773,3.971-4.325,6.84-8.457,6.84        c-0.017,0-0.033,0-0.048,0c-4.105-0.023-7.64-2.9-8.407-6.84c-0.168-0.862-1.007-1.429-1.865-1.257        c-0.862,0.168-1.425,1.003-1.257,1.865c1.055,5.423,5.896,9.381,11.51,9.413c0.023,0,0.044,0,0.067,0        c5.651,0,10.515-3.949,11.579-9.412C260.856,121.517,260.294,120.681,259.432,120.514z"/>
						<path style="fill:#000E3F;" d="M250.344,117.362c0.891,0,1.583-0.717,1.583-1.584c0-0.891-0.693-1.608-1.583-1.608        c-1.608,0-5.122-0.792-5.988-2.128c-0.173-0.223-0.272-0.52-0.049-1.089c0.017-0.034,5.725-13.493,5.74-13.534        c0.624-1.74-1.946-3.173-2.994-1.089c-1.584,3.736-5.617,13.237-5.666,13.386c-0.767,1.831-0.272,3.242,0.297,4.082        C243.639,116.744,249.008,117.362,250.344,117.362z"/>
					</g>
				</g>
				<g>
					<path style="fill:#000E3F;" d="M289.816,149.491c-5.893,10.137-18.501,0.777-9.575-8.972       c9.666-10.559,10.454-25.812,10.363-40.558c-0.02-3.213-1.821-4.705-3.621-6.309c-2.125-1.894-2.547-5.391-1.968-8.04       c0.984-4.495-6.885-1.38-8.059-10.893c-0.214-1.734-0.84-2.543-2.633-2.646c-3.652-0.211-6.07-2.293-7.397-5.67       c-1.832-4.661-4.983,0.412-10.421-6.31c-0.732-0.904-1.501-1.132-2.615-0.785c-7.719,2.404-10.398-1.83-12.284,0.777       c-1.999,2.763-4.708,4.114-8.075,4.121c-1.167,0.003-1.773,0.665-2.163,1.731c-1.439,3.933-4.181,6.099-8.377,6.245       c-3.447,0.12,0.139,8.138-8.388,10.646c-3.735,1.099,3.946,7.122-4.888,12.108c-3.383,1.388-3.413,1.388-3.39,4.888       c0.084,13.101,4.746,33.902,14.106,43.256c7.965,7.96-6.063,16.854-11.891,6.593c-2.821-4.966-5.582-1.776-10.422-3.16       c-5.947-1.701-7.954-5.413-8.62-11.546c-0.237-2.183-1.588-1.76-4.203-3.008c-5.402-2.578-8.35-8.368-7.046-14.297       c0.435-1.977,0.113-3.165-1.522-4.387c-3.486-2.605-4.913-6.208-4.527-10.643c0.472-5.419,4.124-5.99,2.539-7.791       c-1.076-1.222-1.605-2.707-2.108-4.226c-1.162-3.509-0.785-6.841,1.018-10.026c1.35-2.386,2.362-3.047,1.527-4.646       c-3.029-5.799-2.207-10.763,1.643-14.792c1.789-1.871,2.52-3.653,2.274-6.105c-0.321-3.202,1.939-8.541,5.296-9.694       c5.155-1.771-0.643-5.852,6.412-11.718c3.393-2.822,6.526-0.426,7.144-5.047c0.514-3.842,4.693-8.638,10.074-8.252       c1.622,0.117,2.633-0.449,3.317-2.019c2.204-5.061,7.877-6.984,12.597-4.902c1.518,0.669,2.582,0.385,3.771-0.818       c3.213-3.251,7.078-3.531,11.051-1.77c1.689,0.749,2.796,0.709,4.152-0.64c3.431-3.413,8.395-2.955,11.78-0.643       c0.354,0.242,0.753,0.462,1.018,0.787c1.078,1.324,2.225,1.633,3.691,0.569c2.095-1.521,7.964-1.848,11.016,1.697       c3.009,3.494,6.108-2.899,13.152,1.731c3.832,2.518,2.766,6.25,6.093,6.014c5.178-0.367,9.045,2.262,10.659,8.536       c0.823,3.199,2.141,2.706,3.882,3.296c4.498,1.525,6.858,4.408,6.995,9.256c0.164,5.831,6.432,2.051,7.794,12.27       c0.295,2.21-0.96,4.333,2.307,7.395c3.716,3.484,4.533,9.086,2.156,13.993c-1.456,3.005-0.156,3.32,0.952,5.378       c2.555,4.75,2.601,9.404-0.685,13.823c-0.848,1.14-0.741,1.828,0.053,2.999c3.571,5.266,2.926,10.808-1.588,15.261       c-1.843,1.819-3.029,1.819-2.372,4.436c1.891,7.534-2.94,14.403-9.526,15.932c-2.11,0.49-1.522,2.387-1.929,4.332       c-0.851,4.067-3.197,7.18-7.114,8.538C296.977,147.263,292.389,145.065,289.816,149.491z"/>
					<g>
						<path style="fill:#4217A6;" d="M253.71,34.066c0.037-0.167-0.411,2.517-1.704,3.745c-1.712,1.595-4.219,1.41-5.815-0.046        c-1.024-0.944-1.925-3.779-1.925-3.779c-0.317-1.09-1.871-1.116-2.211-0.021c-1.553,4.994,2.066,9.696,7.041,9.738        c5.075,0.159,8.8-4.794,6.964-9.794C255.628,32.757,253.974,32.879,253.71,34.066z"/>
						<path style="fill:#4217A6;" d="M197.083,55.77c-0.114-0.324-0.369-0.602-0.716-0.728c-0.618-0.226-1.302,0.092-1.528,0.71        l-0.007,0.019c-0.896,2.452-1.359,4.781-2.636,5.256c-1.421,0.457-2.91-1.068-3.491-2.442l-0.122-0.29        c-0.129-0.3-0.377-0.548-0.709-0.666c-2.075-0.741-2.681,3.554-0.277,6.242C191.936,68.895,199.942,64.007,197.083,55.77z"/>
						<path style="fill:#4217A6;" d="M286.708,54.971c3.198,1.183,6.792-0.165,8.159-3.143c0.445-1.097,0.765-3.173-0.276-3.764        c-0.591-0.335-1.341-0.127-1.675,0.464c0.159-0.134-1.47,3.074-4.563,1.965c-2.922-1.114-2.511-4.608-2.577-4.767        c0.02-1.066-1.295-1.588-2.012-0.804C281.09,47.845,282.33,53.401,286.708,54.971z"/>
						<path style="fill:#4217A6;" d="M214.626,45.304c-0.382-1.055-1.887-1.035-2.24,0.03c-0.711,2.143-0.793,3.826-1.875,4.74        c-1.037,0.787-2.062,0.884-3.103,0.504c-1.568-0.567-2.115-1.906-2.245-2.066c-0.573-0.966-2.046-0.717-2.264,0.389        c-0.367,1.86,0.441,3.972,2.266,5.309c4.501,3.467,12.537-0.26,9.471-8.877L214.626,45.304z"/>
						<path style="fill:#4217A6;" d="M220.956,30.107c-0.639-0.009-1.166,0.501-1.175,1.141c0.03-0.159,0.14,1.542-0.977,2.965        c-2.376,2.804-4.565-0.387-6.357-2.399c-0.786-0.883-2.26-0.284-2.193,0.906c0.477,8.485,9.954,9.663,12.283,3.397        C223.799,33.074,222.165,30.125,220.956,30.107z"/>
						<path style="fill:#4217A6;" d="M287.378,31.651c-1.563-1.186-2.219,1.453-4.171,3.023c-1.747,1.241-4.159,0.485-4.839-3.557        c-0.055-0.324-0.245-0.624-0.548-0.808c-2.854-1.727-4.457,8.501,2.799,9.586C286.747,41.009,289.019,32.899,287.378,31.651z"/>
						<path style="fill:#4217A6;" d="M314.704,86.357c0.08-0.159-0.559,2.417-2.39,2.645c-0.923,0.186-1.612-0.405-2.158-1.168        c-1.001-1.594-0.823-2.722-0.867-2.964c-0.076-1.438-2.408-1.968-3.181,1.713c-1.021,6.566,6.854,9.634,10.168,5.034        c1.967-2.504,1.138-5.7-0.053-6.066C315.582,85.354,314.901,85.715,314.704,86.357z"/>
						<path style="fill:#4217A6;" d="M187.323,94.275c5.575-1.173,4.979-9.506,2.601-9.938c-1.773-0.322-1.121,1.988-2.397,4.172        c-0.821,1.322-1.815,1.432-2.748,0.807c-1.535-1.089-1.418-2.883-2.511-3.237C179.048,85.032,179.643,95.772,187.323,94.275z"/>
						<path style="fill:#4217A6;" d="M267.931,26.298c1.406-1.629,2.332-5.14,0.986-6.002c-0.582-0.372-1.356-0.203-1.729,0.38        l-0.053,0.083c-1.29,2.016-2.251,3.067-4.463,2.964c-2.193-0.182-2.786-1.418-3.979-3.779        c-0.154-0.305-0.437-0.54-0.796-0.621c-2.176-0.489-1.86,3.971-0.726,6.028C259.303,29.264,265.331,29.486,267.931,26.298z"/>
						<path style="fill:#4217A6;" d="M240.923,19.377c-1.777-0.715-1.616,2.155-3.286,3.572c-1.112,0.883-3.108,1.09-4.501,0.29        c-0.891-0.539-1.674-1.695-2.236-2.567c-0.636-0.986-2.165-0.629-2.296,0.538c-0.474,4.236,3.003,7.734,7.189,7.27        C242.667,27.921,242.365,19.957,240.923,19.377z"/>
						<path style="fill:#4217A6;" d="M210.654,66.437c-0.624,0.108-1.043,0.701-0.935,1.326l0.052,0.304        c0.679,3.937-3.018,5.577-5.79,2.246l-0.176-0.212c-0.702-0.839-2.083-0.403-2.169,0.693        c-0.142,1.805,0.827,3.652,2.358,4.789c3.611,2.821,9.008,0.656,9.519-3.951C213.924,68.544,211.78,66.243,210.654,66.437z"/>
						<path style="fill:#4217A6;" d="M235.588,45.372c-0.65-0.051-1.218,0.434-1.269,1.084c0.08-0.159-0.093,4.637-4.304,4.731        c-1.241-0.045-2.079-1.051-2.238-1.161c-0.798-0.745-2.124-0.186-2.123,0.924c0.006,3.661,4.491,6.123,8.542,3.928        C239.448,52.063,237.658,45.533,235.588,45.372z"/>
						<path style="fill:#4217A6;" d="M270.316,50.025l-0.137,0.127c-1.248,1.153-2.707,1.233-4.006,0.569        c-2.132-1.106-2.007-3.581-2.375-4.419c-0.227-1.021-1.585-1.258-2.144-0.374c-2.037,3.213-0.947,7.332,2.276,9.003        c5.462,2.934,9.913-2.95,8.172-4.836C271.628,49.584,270.829,49.553,270.316,50.025z"/>
						<path style="fill:#4217A6;" d="M298.304,132.809c0.16-0.124-1.75,2.634-3.759,1.914c-1.936-0.672-1.802-3.326-2.099-4.051        c-0.149-1.04-1.496-1.382-2.121-0.531c-2.213,3.014-1.225,7.787,2.686,9.098c2.074,0.723,4.277,0.078,5.641-1.134        c2.337-1.938,2.301-4.959,1.353-5.611C299.448,132.112,298.686,132.253,298.304,132.809z"/>
						<path style="fill:#4217A6;" d="M312.293,118.842l-0.106,0.089c-4.256,3.572-4.162,1.55-5.932-2.571        c-0.122-0.284-0.351-0.521-0.659-0.646c-1.918-0.777-2.384,2.896-2.137,4.845c0.563,4.769,5.882,6.367,8.896,3.477        c1.412-1.326,2.581-4.01,1.719-5.038C313.625,118.463,312.828,118.393,312.293,118.842z"/>
						<path style="fill:#4217A6;" d="M192.783,115.769c-0.647-0.004-1.174,0.517-1.177,1.164c0.05-0.347,0.208,3.492-2.652,3.662        c-1.888,0.122-2.788-2.071-3.999-2.043c-3.18,0.075,0.055,8.659,6.361,6.384c1.872-0.702,3.215-2.342,3.589-4.114        C195.535,118.151,193.938,115.775,192.783,115.769z"/>
						<path style="fill:#4217A6;" d="M314.312,62.318c-0.534-1.002-2.015-0.808-2.28,0.283l-0.057,0.236        c-0.597,2.459-2.925,2.866-4.332,1.701c-1.691-1.45-0.633-4.705-2.025-5.384c-0.587-0.286-1.296-0.042-1.582,0.545        c0.367-0.753-2.941,4.336,0.225,7.989C308.821,73.045,317.153,67.711,314.312,62.318z"/>
						<path style="fill:#4217A6;" d="M291.373,76.766c2.632-0.546,4.817-2.926,5.029-5.789c0.077-1.094-1.188-1.719-2.013-1.042        c-0.217,0.27-2.811,2.821-4.381,2.083c-0.159-0.02-0.59-0.365-0.75-0.482c-1.442-1.301-0.779-3.542-0.806-3.701        c0.195-0.986-0.893-1.738-1.747-1.192C282.035,69.634,285.46,78.039,291.373,76.766z"/>
						<path style="fill:#4217A6;" d="M207.507,129.766c-2.145-0.852-2.002,3.382-2.586,4.143c-1.144,1.622-3.842,0.802-5.283-0.923        l-0.191-0.228c-0.641-0.764-1.898-0.403-2.031,0.59c-0.233,1.746,0.682,3.577,2.083,4.685        c1.373,1.149,3.358,1.794,5.438,1.294c2.074-0.519,3.793-2.227,4.125-4.381c0.254-1.583-0.255-3.042-0.869-4.506        C208.069,130.143,207.83,129.894,207.507,129.766z"/>
					</g>
				</g>
				<g>
					<g>
						<g>
							<path style="fill:#FFBBEC;" d="M290.197,118.45c-0.207,0-0.414-0.016-0.604-0.032c1.129-6.966,1.272-14.6,0.652-21.884         c1.702-1.336,3.801-2.116,6.076-2.116C309.744,94.419,307.231,118.45,290.197,118.45z"/>
							<path style="fill:#FFBBEC;" d="M208.638,118.418c-0.191,0.016-0.398,0.032-0.604,0.032c-17.034,0-19.547-24.032-6.139-24.032         c2.274,0,4.374,0.779,6.091,2.131C207.365,103.834,207.509,111.452,208.638,118.418z"/>
						</g>
						<g style="opacity:0.35;">
							<path style="fill:#FC09B2;" d="M296.624,108.956c-2.99,1.896-3.955,0.595-3.351-0.298c0.999-1.476,2.291-2.548,4.267-5.181         c0.999-1.353,1.506-2.779,2.389-2.164C301.081,102.115,300.353,106.554,296.624,108.956z"/>
							<path style="fill:#FC09B2;" d="M200.68,103.477c1.41,1.878,2.167,2.597,2.738,3.292c1.226,1.389,1.636,2.045,1.528,1.886         c0.428,0.629-0.121,1.461-0.868,1.318c-3.688-0.72-6.942-4.815-6.083-8.232c0.157-0.624,0.97-0.76,1.33-0.245         C199.325,101.497,200.271,102.922,200.68,103.477z"/>
						</g>
					</g>
					<g>
						<path style="fill:#000E3F;" d="M290.196,120.041c-0.25,0-0.502-0.018-0.733-0.037c-0.443-0.036-0.849-0.255-1.123-0.604        c-0.274-0.35-0.39-0.797-0.319-1.236c1.058-6.528,1.278-13.961,0.638-21.494c-0.047-0.534,0.18-1.055,0.603-1.386        c2.045-1.606,4.486-2.455,7.058-2.455c3.187,0,5.845,1.186,7.685,3.429c1.608,1.961,2.493,4.677,2.493,7.647        C306.498,111.836,300.401,120.041,290.196,120.041z M291.902,97.305c0.517,6.777,0.357,13.462-0.463,19.506        c7.727-0.614,11.879-6.939,11.879-12.907c0-2.237-0.629-4.236-1.772-5.63c-1.232-1.504-2.99-2.265-5.225-2.265        C294.742,96.009,293.229,96.455,291.902,97.305z"/>
						<path style="fill:#000E3F;" d="M208.034,120.041c-10.206,0-16.305-8.208-16.305-16.142c0-2.97,0.884-5.684,2.49-7.643        c1.837-2.242,4.492-3.427,7.676-3.427c2.574,0,5.022,0.855,7.075,2.472c0.421,0.331,0.648,0.851,0.601,1.385        c-0.642,7.521-0.421,14.949,0.638,21.479c0.071,0.438-0.045,0.886-0.318,1.236c-0.273,0.35-0.68,0.569-1.123,0.604        C208.536,120.023,208.284,120.041,208.034,120.041z M201.894,96.009c-2.23,0-3.985,0.761-5.216,2.262        c-1.142,1.392-1.769,3.391-1.769,5.627c0,5.97,4.153,12.298,11.882,12.912c-0.82-6.046-0.98-12.726-0.463-19.493        C204.993,96.46,203.476,96.009,201.894,96.009z"/>
					</g>
				</g>
			</g>
		</g>
		<g>
			<g>
				<path style="fill:#FFFFFF;" d="M208.462,247.765c-1.395,1.493-1.395,3.795,0,5.288c5.749,6.156,21.47,20.924,39.962,20.924      c18.492,0,34.213-14.769,39.962-20.924c1.395-1.493,1.395-3.795,0-5.288c-5.749-6.155-21.47-20.924-39.962-20.924      C229.932,226.841,214.212,241.61,208.462,247.765z"/>
				
					<ellipse transform="matrix(0.4371 -0.8994 0.8994 0.4371 -85.3841 364.3897)" style="fill:#915EFD;" cx="248.424" cy="250.409" rx="23.568" ry="23.569"/>
			</g>
			<g>
				<path style="fill:#000E3F;" d="M289.549,246.68c-6.019-6.443-22.074-21.429-41.124-21.429      c-19.054,0-35.107,14.986-41.124,21.429c-1.954,2.092-1.954,5.368,0,7.459c6.015,6.443,22.067,21.429,41.124,21.429      c19.051,0,35.106-14.986,41.124-21.429C291.502,252.048,291.502,248.772,289.549,246.68z M270.402,250.41      c0,12.119-9.86,21.977-21.977,21.977c-12.12,0-21.979-9.859-21.979-21.977c0-12.119,9.86-21.978,21.979-21.978      C260.543,228.431,270.402,238.291,270.402,250.41z M209.625,251.968c-0.829-0.889-0.829-2.228,0-3.116      c3.633-3.889,11.093-11.036,20.596-15.759c-4.298,4.515-6.955,10.606-6.955,17.318c0,6.711,2.658,12.802,6.956,17.318      C220.718,263.004,213.257,255.857,209.625,251.968z M287.225,251.968c-3.632,3.889-11.094,11.035-20.595,15.758      c4.297-4.515,6.954-10.605,6.954-17.316c0-6.71-2.657-12.801-6.954-17.316c9.501,4.723,16.962,11.869,20.595,15.758      C288.054,249.74,288.054,251.079,287.225,251.968z"/>
				<path style="fill:#000E3F;" d="M248.424,259.561c5.054,0,9.152-4.098,9.152-9.152c0-5.055-4.098-9.152-9.152-9.152      c-5.054,0-9.152,4.097-9.152,9.152C239.272,255.464,243.37,259.561,248.424,259.561z"/>
			</g>
			<g>
				<circle style="fill:#FFFFFF;" cx="254.533" cy="243.394" r="4.666"/>
			</g>
		</g>
	</g>
	<g>
		<path style="fill:#FD8A02;" d="M142.566,20.732c-2.052,2.275-6.24,5.053-10.083,14.492c-0.344,0.846-0.705,1.699-1.176,2.476    c-0.656,1.082-1.995,1.116-2.707,0.04c-1.61-2.433-1.604-6.232-7.01-12.942c-3.173-3.937-6.331-5.235-3.527-7.491    c6.989-5.624,9.57-14.268,10.876-16.538c0.564-0.98,1.841-1.024,2.516-0.13c0.723,0.959,1.079,2.107,1.5,3.219    c3.111,8.229,7.602,12.072,9.427,13.931C142.84,18.256,143.273,19.949,142.566,20.732z"/>
		<path style="fill:#FD8A02;" d="M34.521,41.451c-2.363,2.618-7.181,5.807-11.614,16.691c-0.397,0.974-0.812,1.957-1.355,2.852    c-0.756,1.246-2.298,1.285-3.118,0.045c-1.857-2.805-1.847-7.177-8.074-14.905c-3.655-4.536-7.291-6.029-4.062-8.628    c8.05-6.478,11.023-16.433,12.527-19.048c0.649-1.128,2.121-1.179,2.898-0.149c0.833,1.104,1.243,2.427,1.727,3.707    c3.591,9.495,8.781,13.929,10.859,16.045C34.836,38.599,35.336,40.549,34.521,41.451z"/>
		<path style="fill:#FD8A02;" d="M427.412,486.402c-2.364,2.618-7.181,5.807-11.614,16.691c-0.397,0.975-0.812,1.957-1.355,2.852    c-0.756,1.246-2.298,1.285-3.118,0.045c-1.857-2.805-1.847-7.177-8.074-14.905c-3.655-4.535-7.291-6.029-4.062-8.628    c8.05-6.478,11.023-16.433,12.527-19.048c0.65-1.129,2.121-1.179,2.898-0.149c0.833,1.104,1.243,2.427,1.727,3.707    c3.591,9.495,8.78,13.929,10.859,16.045C427.727,483.55,428.227,485.5,427.412,486.402z"/>
		<path style="fill:#FD8A02;" d="M499.574,371.425c-0.493,0.546-0.993,1.092-1.539,1.582c-7.706,6.91-9.694,15.101-11.429,17.96    c-0.756,1.246-2.297,1.285-3.118,0.046c-0.572-0.864-0.996-1.857-1.328-2.846c-5.181-15.431-15.638-16.801-10.808-20.688    c8.05-6.478,11.023-16.433,12.527-19.048c0.65-1.128,2.121-1.179,2.898-0.149c0.833,1.104,1.243,2.427,1.727,3.707    c3.591,9.495,8.781,13.929,10.859,16.045C499.889,368.573,500.391,370.521,499.574,371.425z"/>
		<path style="fill:#FD8A02;" d="M37.867,158.328c-2.052,2.275-6.24,5.053-10.083,14.492c-0.344,0.846-0.705,1.699-1.176,2.476    c-0.656,1.082-1.995,1.117-2.707,0.04c-1.611-2.432-1.604-6.232-7.011-12.942c-3.173-3.937-6.33-5.235-3.527-7.491    c6.989-5.624,9.57-14.268,10.877-16.538c0.564-0.98,1.841-1.024,2.516-0.13c0.724,0.959,1.08,2.107,1.5,3.219    c3.111,8.229,7.602,12.072,9.427,13.931C38.141,155.851,38.575,157.545,37.867,158.328z"/>
		<path style="fill:#FD8A02;" d="M506.578,458.109c-2.052,2.275-6.24,5.054-10.083,14.492c-0.344,0.846-0.705,1.699-1.176,2.476    c-0.656,1.082-1.995,1.117-2.707,0.04c-1.61-2.432-1.604-6.231-7.011-12.942c-3.173-3.937-6.33-5.234-3.527-7.491    c6.989-5.624,9.57-14.268,10.876-16.538c0.564-0.98,1.841-1.024,2.516-0.13c0.724,0.959,1.08,2.107,1.5,3.219    c3.111,8.229,7.602,12.072,9.427,13.931C506.852,455.632,507.285,457.326,506.578,458.109z"/>
	</g>
</g>















</svg>
