<?xml version="1.0" encoding="UTF-8"?>
<!-- Generator: Adobe Illustrator 25.3.1, SVG Export Plug-In . SVG Version: 6.00 Build 0)  -->
<svg xmlns="http://www.w3.org/2000/svg" xmlns:xlink="http://www.w3.org/1999/xlink" version="1.1" id="Capa_1" x="0px" y="0px" viewBox="0 0 512 512" style="enable-background:new 0 0 512 512;" xml:space="preserve" width="512" height="512">
<g>
	<g style="opacity:0.75;">
		<path style="fill:#FFBBEC;" d="M367.188,345.458c11.965,1.847,15.01,1.495,23.252,0.572c10.466-1.136,14.913-8.318,13.568-15.033    c-3.16-15.748-14.153-27.679-20.286-33.981c15.598,2.549,30.466-1.016,42.279-12.183c0.274-0.259,0.528-0.54,0.77-0.83    c24.642-29.451,3.903-75.999-42.934-69.072c8.948-9.047,23.291-28.268,19.636-40.222c-3.544-11.588-24.347-10.033-36.357-8.181    c81.143-75.864,39.755-124.97-40.93-41.186c1.723-10.436,2.947-30.812-6.823-35.639c-11.359-5.61-32.549,9.926-41.714,19.142    c5.093-32.266-16.489-55.56-44.575-53.231c-24.932,2.072-42.499,24.056-37.304,53.297c-14.191-14.196-42.037-30.877-48.032-11.636    c-3.018,9.694-1.878,20.278-0.56,28.39C65.93,40.643,25.424,91.431,106.145,166.558c-10.55-1.73-27.629-3.46-34.688,5.252    c-8.537,10.541,8.392,33.406,18.133,43.256c-7.245-1.216-14.464-1.319-22.817,0.94c-36.927,9.987-40.185,57.584-11.908,74.888    c9.802,5.997,22.635,8.234,34.657,6.098c-8.613,8.485-18.17,21.892-20.218,33.63c-0.861,4.925,0.644,9.082,4.35,12.021    c6.778,5.376,23.87,4.341,32.383,2.856c-9.64,9.445-16.716,16.439-25.984,28.966c-5.846,7.901-15.93,23.178-17.796,36.718    c-1.16,8.423,2.029,15.298,8.326,17.94c2.369,0.995,4.955,1.439,7.688,1.439c21.956-0.003,53.778-27.881,68.866-43.988    c-0.866,4.738-1.892,12.255-0.674,22.302c2.898,23.916,28.532,14.664,49.171-5.77c-4.4,24.884,8.946,49.426,34.944,53.059    c28.702,4.01,52.351-19.237,47.034-53.023c13.904,14.121,41.778,30.577,47.852,11.718c3.223-10.012,1.731-21.576,0.611-28.37    c15.994,17.525,57.752,53.541,78.285,41.767c4.11-2.357,6.753-7.366,6.896-13.072c0.409-16.365-16.826-40.304-25.996-50.676    C382.554,361.449,378.934,356.67,367.188,345.458z M236.634,411.284c-3.814-12.107-12.171-22.692-24.268-27.171    c3.238-4.387,4.881-4.674,24.272-34.363c4.431,6.562,9.447,15.672,24.204,34.342C250.965,387.543,241.504,396.376,236.634,411.284    z M201.419,406.93c0.361-3.618,1.919-11.658,2.729-12.864c2.028-2.433,3.54-4.249,4.149-4.767    c0.318,0.034,0.633,0.072,0.828,0.139c8.215,2.821,14.305,8.219,18.619,16.503c5.969,11.465,5.442,22.996,5.786,25.248    c0.238,1.55,1.731,2.755,3.333,2.618c3.1-0.265,3.105-3.718,3.108-5.191c0-30.599,24.131-40.431,25.194-39.162    c3.835,4.539,3.948,4.456,4.112,5.003c9.274,31.156-5.864,52.081-25.424,55.169c-2.709,0.438-5.303,0.905-7.77,0.785    c-11.639-0.554-19.409-6.844-23.879-12.022C204.741,429.739,200.407,417.097,201.419,406.93z M236.532,340.712    c-2.888,0.181-2.54,2.994-15.888,22.093c-12.391,17.724-28.923,39.36-46.935,49.428c-7.648,4.274-13.614,5.913-16.806,4.62    c-3.956-1.604-4.304-8.512-4.694-13.023c-0.471-5.357,0.232-7.916,0.283-9.14c0.542-13.275,6.978-37.726,20.134-62.428    c5.837-10.961,12.564-19.742,13.208-20.935c1.469-2.716-1.6-5.955-4.348-4.618c-2.448,1.186-1.736,1.667-13.716,9.04    c-30.5,18.772-74.872,29.931-89.576,22.526c-9.562-4.815,6.895-27.994,14.93-36.197c22.822-23.3,54.781-41.43,57.718-43.923    c1.247-1.055,1.271-3.261,0.001-4.31c-5.653-4.699-67.622-38.689-75.479-73.697c-0.614-2.727,0.451-5.391,4.351-7.048    c18.983-8.065,70.624,9.956,98.824,30.253c2.673,1.923,4.602,3.307,6.686,1.17c2.052-2.105,0.688-3.972-1.2-6.557    c-19.726-26.991-37.516-76.477-30.441-98.614c0.699-2.189,1.781-3.574,3.304-4.232c8.492-3.67,31.418,13.871,37.284,21.017    c3.641,4.434,16.136,16.216,36.463,48.248c9.759,15.379,3.608,5.649,38.623-37.002c10.971-13.361,25.831-29.153,43.527-32.705    c16.52-3.309,9.282,57.522-24.243,104.295c-0.556,0.775-0.909,1.279-1.034,1.497c-1.714,2.975,1.695,6.345,4.547,4.682    c1.484-0.86,27.959-21.4,65.404-30.393c13.233-3.179,43.04-7.623,40.337,5.829c-2.54,12.654-12.217,22.891-17.678,29.317    c-2.689,3.199-3.93,3.681-5,4.778c-3.736,3.839-10.918,9.591-15.027,12.904c-37.078,29.999-47.485,24.408-31.067,34.917    c17.252,11.046,63.081,40.388,68.871,69.423c3.538,17.761-61.152,7.866-104.86-24.496c-3.641-2.695-7.034,0.806-5.712,3.606    c0.15,0.318,0.376,0.641,1.215,1.826c25.685,36.293,37.062,81.393,31.091,99.895c-2.117,6.553-8.316,5.064-14.795,2.122    c-32.777-14.881-61.943-68.032-65.948-73.021C238.284,341.117,237.477,340.649,236.532,340.712z M94.981,397.354    c-0.795-4.267,10.453-27.833,38.872-54.668c13.212-12.474,15.027-7.85,39.048-22.921c-16.144,26.818-9.71,22.396-20.022,35.566    C143.382,367.462,108.018,398.215,94.981,397.354z M117.668,343.453c0.983-0.836,4.658-1.41,9.371-2.888    c-13.133,12.355-34.744,37.55-38.154,55.169c-0.386,1.989,0.184,3.687,0.722,4.945c0.512,1.192,1.671,2.694,4.286,3.084    c10.177,1.522,38.048-17.185,58.185-38.257c-2.269,7.274-1.802,8.106-3.307,9.949c-15.158,18.559-46.674,46.006-69.279,48.917    c-2.105,0.27-4.287-0.029-6.492-0.89c-4.006-1.564-5.265-6.478-4.735-10.655C71.309,388.831,100.75,357.929,117.668,343.453z     M42.308,255.474c0.38-25.677,24.793-42.167,55.791-32.15c0.801,0.259,1.231,0.947,4.872,3.928c0.391,0.32,0.474,0.501,0.263,1.08    c-6.147,16.932-21.854,23.675-40.077,24.363c-0.557,0.021-0.968,0.038-1.211,0.062c-4.074,0.393-4.175,5.876-0.229,6.43    c3.32,0.465,19.688-0.188,31.707,10.07c6.37,5.436,9.371,11.911,9.889,15.084c-0.452,0.549-2.197,1.989-4.492,3.928    c-1.691,1.086-15.372,4.397-23.401,2.955c-0.788-0.142-1.584-0.234-2.38-0.325C54.734,288.832,42.034,273.919,42.308,255.474z     M108.512,231.748c23.424,18.244,27.448,19.517,34.409,24.197c-8.31,5.775-10.775,6.025-34.39,24.289    c-5.627-15.61-19.137-21.578-27.344-24.193C94.066,251.957,104.108,243.679,108.512,231.748z M95.235,114.605    c6.895-0.289,21.224,8.393,39.655,23.946c5.431,4.582,10.407,9.757,15.041,14.665c12.26,12.986,8.024,15.243,22.792,38.843    c-14.045-8.865-24.088-12.224-28.018-14.489C125.225,166.351,94.428,125.372,95.235,114.605z M89.638,111.259    c-0.518,1.132-1.16,2.879-0.754,4.983c3.143,16.342,22.662,40.232,38.359,55.282c-8.508-2.591-8.463-2.072-10.079-3.392    c-20.343-16.613-54.795-57.199-48.118-75.541c5.675-15.584,45.527,6.054,75.483,39.166c6.322,6.996,4.338,3.858,7.574,14.626    C137.045,130.115,95.732,97.967,89.638,111.259z M269.289,117.474c-0.244,0.752-4.084,5.11-4.345,5.242    c-0.014-0.003-0.236,0.031-0.976-0.229c-7.835-2.752-13.684-7.775-17.881-15.357c-4.831-8.719-6.326-19.397-6.134-24.08    c0.144-3.51-1.52-4.891-3.41-4.891c-3.202,0-3.202,3.611-3.292,5.833c-0.636,15.722-7.486,32.089-22.011,37.705    c-0.877,0.338-2.603,1.098-2.96,1.013c-2.223-2.627-4.141-4.641-4.272-5.081l-0.001-0.002    c-9.226-30.997,5.871-52.064,25.303-55.253C261.367,57.121,279.719,85.451,269.289,117.474z M236.647,100.553    c4.14,13.27,12.622,22.967,24.251,27.304c-2.813,3.827-3.732,3.447-23.941,33.718l-0.382,0.573    c-6.197-9.123-7.209-12.412-24.274-34.29C214.618,127.053,232.039,115.333,236.647,100.553z M339.402,169.292    c-12.849,12.132-15.823,8.347-39.048,22.921c16.135-26.805,9.712-22.397,20.022-35.566c10.683-13.645,44.63-42.038,57.396-42.038    c0.161,0,0.318,0.005,0.472,0.014C379.023,118.928,367.793,142.484,339.402,169.292z M361.072,163.683    c-0.851,0.769-1.569,1.429-2.19,1.999c-4.635,4.254-3.113,2.902-13.075,5.915c43.429-41.897,54.147-82.235,10.096-54.033    c-9.024,5.776-21.894,15.248-34.785,28.938c3.682-12.185,0.931-7.091,9.442-16.695c16.184-18.272,53.327-47.705,69.695-41.309    c2.586,1.009,4.105,2.924,4.643,5.855C407.475,108.398,387.815,139.5,361.072,163.683z M364.733,280.229    c-5.856-4.303-3.539-4.12-34.349-24.252c8.094-5.438,14.146-8.41,34.362-24.277c3.208,9.657,12.311,19.487,27.3,24.275    C389.849,256.669,369.298,268.916,364.733,280.229z M374.548,288.342c-0.684-0.562-1.353-1.141-2.024-1.719    c-2.74-2.365-2.824-2.114-2.501-2.976c3.192-8.548,8.034-14.203,15.7-18.335c7.672-4.135,17.796-6.215,23.857-5.996    c5.044,0.2,5.687-3.612,4.167-5.351c-1.038-1.187-2.582-1.251-5.14-1.356c-15.718-0.646-32.074-7.483-37.686-22.011    c-0.351-0.903-1.096-2.578-1.013-2.957c2.157-1.888,4.733-4.171,5.084-4.275c69.625-20.719,74.932,74.275,12.397,67.809    C382.852,290.708,375.641,289.11,374.548,288.342z M377.991,397.646c-4.255,0.72-28.275-10.928-54.665-38.884    c-12.374-13.106-8.033-15.308-22.883-38.986c18.24,11.128,23.29,11.857,28.108,14.632    C344.802,343.768,378.798,384.208,377.991,397.646z M321.153,365.596c15,16.206,56.366,48.427,62.463,35.124    c0.519-1.131,1.161-2.878,0.757-4.983c-3.144-16.346-22.67-40.243-38.37-55.291c12.318,3.729,7.148,0.921,16.809,9.477    c18.098,16.027,47.41,52.948,41.398,69.464c-5.469,15.019-42.792-3.622-77.443-41.311    C322.814,373.779,324.032,375.161,321.153,365.596z"/>
		<path style="fill:#FFBBEC;" d="M429.19,214.408l0.14,0.007c0.143-0.05,10.731-0.201,14.376-10.128    c2.039-5.553,0.714-11.992-3.299-16.022c-10.62-10.666-27.197-2.129-26.497,10.682    C413.674,207.192,420.365,213.974,429.19,214.408z M435.866,192.321c2.342,2.345,3.094,5.729,2.118,9.529    c-0.703,2.738-4.243,5.599-6.649,6.02c-8.797,1.543-13.893-7.272-9.938-13.958C422.573,191.923,432.084,188.536,435.866,192.321z"/>
		<path style="fill:#FFBBEC;" d="M43.692,214.416c0.141-0.032,6.752,0.238,11.703-5.086c5.094-5.48,5.842-15.153-0.555-21.477    c-11.481-11.346-30.643,0.599-25.426,16.036C32.905,214.222,43.547,214.362,43.692,214.416z M35.944,203.427    c-3.041-5.413,0.374-13.837,8.108-13.837c5.142,0,9.12,3.974,8.856,9.567C52.755,202.408,40.265,211.124,35.944,203.427z"/>
		<path style="fill:#FFBBEC;" d="M307.719,69.977c5.629-12.027-5.808-25.671-19.007-21.196    c-10.329,3.502-10.452,14.131-10.513,14.295l0.005,0.145C278.827,80.56,301.004,84.322,307.719,69.977z M302.92,61.938    c1.217,8.317-7.385,13.058-13.749,9.464c-4.926-2.778-6.168-9.49-2.592-13.905C291.145,51.863,301.751,53.925,302.92,61.938z"/>
		<path style="fill:#FFBBEC;" d="M168.512,437.754c-9.655,9.737-2.538,26.286,10.966,26.286c8.011,0,14.762-5.82,15.562-15.192    l0.012-0.141l-0.007-0.141C194.338,433.899,177.698,428.494,168.512,437.754z M179.126,457.764    c-6.201-0.367-11.408-7.339-7.985-13.178c5.158-8.802,16.443-5.503,17.335,3.343C189.082,453.927,184.552,458.097,179.126,457.764    z"/>
		<path style="fill:#FFBBEC;" d="M195.05,63.21l0.005-0.145l-0.015-0.144c-1.6-15.596-18.418-18.947-26.53-10.32    c-6.278,6.675-5.66,15.889-0.023,21.597C177.698,83.524,194.53,78.091,195.05,63.21z M182.39,54.604    c2.858,0.723,5.63,4.146,6.106,6.607c0.813,4.195-0.879,8.186-4.308,10.168c-7.003,4.05-17.558-3.302-12.919-12.194    C172.618,56.604,177.301,53.316,182.39,54.604z"/>
		<path style="fill:#FFBBEC;" d="M429.379,297.564l-0.14,0.006c-8.826,0.404-15.539,7.165-15.329,15.414    c-0.699,12.636,15.471,21.338,26.225,11.004c4.224-4.058,5.652-10.374,3.638-16.091    C440.357,298.203,429.526,297.617,429.379,297.564z M438.204,311.4c0.871,6.448-4.888,12.688-11.501,10.774    c-4.789-1.389-6.422-5.75-6.367-9.062C420.539,300.894,436.869,301.526,438.204,311.4z"/>
		<path style="fill:#FFBBEC;" d="M41.804,297.835c-5.788,1.015-10.696,5.342-12.506,11.023    c-3.372,10.591,5.452,19.722,14.769,19.722c8.401-0.003,15.731-7.155,15.28-15.515C59.623,303.921,50.839,296.245,41.804,297.835z     M40.604,321.697c-2.625-1.071-5.482-3.612-5.622-7.536c-0.058-1.56-0.066-3.073,0.438-4.425    c2.672-7.169,13.162-8.094,16.865-0.734C54.373,313.153,49.237,325.213,40.604,321.697z"/>
		<path style="fill:#FFBBEC;" d="M278.209,448.563l-0.007,0.141l0.012,0.141c0.815,9.574,7.619,15.169,15.469,15.169    c11.165,0,18.87-11.549,14.122-21.836C305.195,436.518,279.039,431.461,278.209,448.563z M300.129,454.732    c-2.342,2.539-5.844,3.515-9.363,2.613c-2.739-0.703-5.599-4.244-6.02-6.65c-0.991-5.671,3.019-9.808,7.493-10.964    C301.741,437.269,305.521,448.883,300.129,454.732z"/>
		<path style="fill:#FFBBEC;" d="M224.971,484.935c2.353,5.109,7.457,7.832,12.254,7.832c9.974,0,16.619-12.946,9.345-20.422    C237.395,460.368,219.103,472.194,224.971,484.935z M234.709,473.881c3.426-1.367,7.678,1.404,8.444,5.054    c0.897,4.287-4.415,9.377-9.367,6.773c-1.803-0.95-3.189-2.702-3.619-4.573C229.598,478.652,230.781,475.446,234.709,473.881z"/>
		<path style="fill:#FFBBEC;" d="M245.958,40.355c8.858-9.582-1.18-22.955-11.056-20.913c-8.496,1.767-12.444,9.576-10.707,15.296    C227.484,45.567,239.455,47.39,245.958,40.355z M238.351,25.841c6.17,2.155,6.766,9.732,0.15,12.269    c-5.309,2.039-12.228-5.538-6.067-10.918C234.09,25.748,237.721,25.621,238.351,25.841z"/>
		<path style="fill:#FFBBEC;" d="M470.768,248.65c-3.228-4.655-9.215-6.272-12.92-5.093c-11.118,3.537-12.823,16.304-4.862,22.384    c2.441,1.863,5.105,2.823,7.795,2.823c4.057,0,7.682-2.188,9.943-5.386C474.16,258.517,474.175,253.562,470.768,248.65z     M456.192,260.609c-3.284-3.371-2.305-8.552,2.021-10.672c3.793-1.862,8.123,1.188,8.851,5.38    C467.916,260.23,460.949,265.488,456.192,260.609z"/>
		<path style="fill:#FFBBEC;" d="M3.33,247.46c-3.472,3.823-5.029,10.292-0.675,16.123c3.326,4.456,10.604,6.306,15.274,3.857    c4.489-2.354,7.146-6.373,7.291-11.027C25.557,245.521,11.729,238.219,3.33,247.46z M11.555,249.506    c3.127-0.7,6.073,1.679,7.195,4.62v0.001c1.323,3.473-1.47,7.676-5.132,8.4c-1.378,0.271-3.016-0.131-4.389-1.076    C3.876,257.766,6.199,250.707,11.555,249.506z"/>
		<path style="fill:#FFBBEC;" d="M252.883,291.362c-2.729-0.81-5.976,0.706-7.386,3.456c-1.708,3.334-0.845,6.559-0.069,10.593    c3.218,17.302,12.299,38.562,12.387,38.803c6.527,16.075,21.552,53.993,38.857,53.993c5.215,0,9.632-3.564,9.47-12.261    c-0.004-0.268-0.023-2.167-0.03-2.89h-0.054c-1.406-27.878-29.884-67.558-45.121-85.033    C257.341,293.891,256.165,292.337,252.883,291.362z M251.382,297.401c2.654,0,29.691,35.201,37.193,51.508    c-8.322,9.662-18.401,8.189-18.541,8.23c-6.479-15.036-17.629-41.451-19.345-57.877    C250.614,298.557,250.886,297.401,251.382,297.401z M291.505,355.005c4.119,9.358,7.709,18.036,8.44,28.587    c0.039,5.294,0.081,9.704-5.038,8.174c-9.375-2.813-17.675-19.728-22.056-28.508C280.362,362.844,287.411,358.983,291.505,355.005    z"/>
		<path style="fill:#FFBBEC;" d="M215.906,294.022c-18.359,18.56-51.022,67.325-48.756,94.334c0.56,6.665,4.611,9.869,9.447,9.869    c23.25,0,48.052-74.51,51.991-97.261C230.016,292.725,222.174,287.688,215.906,294.022z M173.27,387.34    c-0.497-10.47,3.675-21.703,8.494-32.445c5.273,5.29,13.132,8.298,18.655,8.439C194.04,377.127,173.981,402.32,173.27,387.34z     M222.04,297.477c1.802,0.673-2.441,15.893-2.972,17.766c-4.417,15.564-9.976,28.348-15.794,41.887    c-7.281,0.157-13.72-2.513-18.557-8.175c8.731-16.949,23.557-37.463,33.301-47.983    C220.068,298.762,221.187,297.169,222.04,297.477z"/>
		<path style="fill:#FFBBEC;" d="M278.422,263.963c-5.286,0.767-7.399,5.169-6.441,8.249v0.001    c3.1,9.958,65.04,55.456,96.855,53.266c11.516-0.798,13.031-12.035,4.929-20.805C355.91,285.353,288.567,262.501,278.422,263.963z     M357.943,318.499c-8.539-1.597-14.748-4.247-22.355-7.614c5.328-5.46,8.188-13.262,8.399-18.664    c8.271,3.853,29.216,14.963,28.735,24.066c-0.168,3.204-4.36,3.024-7.419,3.022C363.065,319.467,360.47,318.976,357.943,318.499z     M337.75,289.338c0.53,7.14-3.501,15.181-8.19,18.591c-12.376-5.712-48.936-31.501-51.556-37.155    c-0.017-2.139,14.666,1.857,16.664,2.425C310.411,277.675,322.279,282.583,337.75,289.338z"/>
		<path style="fill:#FFBBEC;" d="M191.751,264.004c-18.286,3.074-34.39,9.398-50.644,16.159    c-17.712,7.367-41.766,18.717-46.132,32.164c-2.36,7.265,2.109,13.119,10.631,13.195l0.008,0.132l2.065-0.084    c29.499-1.2,70.586-29.944,91.006-48.972C204.705,270.988,200.224,262.592,191.751,264.004z M129.315,292.172    c0.449,7.445,4.226,14.57,8.321,18.747c-7.274,3.278-29.091,11.825-35.193,7.945C92.675,312.642,118.824,296.782,129.315,292.172z     M143.698,307.915c-5.549-4.635-8.669-11.707-8.193-18.572c17.137-7.553,37.101-15.863,57.504-19.268    c1.197-0.201,1.986,0.206,2.164,0.56C196.316,272.926,162.222,298.83,143.698,307.915z"/>
		<path style="fill:#FFBBEC;" d="M272.015,239.687c-0.822,2.731,0.667,5.984,3.39,7.406c10.071,5.248,67.781-18.271,86.203-29.927    c8.497-5.375,13.93-10.781,16.153-16.066c2.258-5.371,1.021-10.415-3.149-12.852v0.001c-7.453-4.353-17.739-1.231-25.912,1.242    c-24.461,7.391-52.201,26.627-70.005,42.163C274.53,235.28,272.999,236.43,272.015,239.687z M371.48,193.561    c1.757,0.915,1.121,3.504,0.885,4.276c-2.861,9.319-19.744,17.572-28.474,21.922c-0.471-7.577-4.222-14.531-8.226-18.654    C344.085,197.393,363.298,189.303,371.48,193.561z M329.548,204.042c9.277,7.907,8.206,18.256,8.258,18.54    c-0.507,0.43-38.901,17.333-57.891,19.345c-1.651,0.172-2.566-0.743-1.262-1.85c3.273-2.777,6.605-6.637,18.694-15.54    C311.559,214.071,327.605,204.936,329.548,204.042z"/>
		<path style="fill:#FFBBEC;" d="M201.096,239.211c-3.029-8.074-62.198-54.689-96.524-52.725    c-11.667,0.677-13.182,12.026-4.975,20.941c15.379,16.708,66.472,36.107,92.097,40.531    C198.535,249.137,202.823,243.811,201.096,239.211z M102.084,193.399c1.166-0.509,2.05-0.738,2.868-0.743h-0.001    c12.005-0.082,21.742,3.431,32.653,8.457c-5,5.153-8.045,12.916-8.341,18.642c-5.758-2.621-22.033-11.104-26.827-18.616    C100.871,198.687,99.371,194.582,102.084,193.399z M194.337,241.866c-7.95,0.464-29.397-6.535-58.858-19.242    c-0.193-1.949,0.527-7.173,2.525-11.429c1.701-3.619,4.89-6.616,5.682-7.15c15.516,7.161,52.437,34.821,51.516,37.319    C195.125,241.576,194.729,241.842,194.337,241.866z"/>
		<path style="fill:#FFBBEC;" d="M251.412,220.87c4.25,0,7.855-5.048,10.446-7.948c29.872-33.512,54.855-86.924,40.157-97.53    c-23.329-16.851-59.355,85.333-57.415,98.796C245.244,218.654,248.321,220.87,251.412,220.87z M288.572,163.047    c-6.024,13.642-34.922,52.751-37.36,51.511c-0.27-0.132-0.681-0.989-0.459-2.462c2.83-18.783,11.665-39.616,19.002-56.725    c0.073-0.172,0.162-0.388,0.235-0.535C277.589,154.413,285.645,158.796,288.572,163.047z M299.095,121.209    c0.898,1.792,0.885,2.642,0.858,4.696c-0.166,11.718-3.849,20.773-8.431,31.126c-5.439-5.31-13.207-8.17-18.613-8.399    c4.547-9.253,14.928-29.656,24.344-28.64C298.167,120.09,298.718,120.455,299.095,121.209z"/>
		<path style="fill:#FFBBEC;" d="M228.653,211.39c-2.771-20.768-19.464-62.085-30.68-80.088v-0.001    c-5.226-8.385-13.298-18.224-22.384-17.48c-20.829,1.726-2.478,57.13,40.263,104.063    C221.44,224.019,229.781,219.849,228.653,211.39z M200.4,148.715c-7.346,0.45-14.584,4.19-18.676,8.275    c-5.075-11.611-8.624-20.832-8.451-32.352c0.015-0.937,0.225-1.882,0.66-2.975c0.557-1.392,3.87-1.542,4.613-1.386    C187.811,123.161,196.09,140.037,200.4,148.715z M203.265,154.833c8.249,18.839,15.391,36.195,19.298,57.622    c0.041,0.395-0.201,2.077-0.597,2.116c-3.237,0.278-31.4-37.976-37.282-51.525C184.702,163.023,197.499,154.177,203.265,154.833z"/>
		<path style="fill:#FFBBEC;" d="M264.17,256.045c3.724-5.67,6.497-10.7,4.422-18.55c-3.375-12.765-18.745-19.454-31.98-8.991    c-18.58-14.864-43.19,5.357-27.487,27.576c0.001,0.001,0.003,0.002,0.003,0.003c-0.549,0.835-1.249,1.474-1.923,2.597    c-11.219,18.658,9.221,39.747,29.453,24.753c3.428,2.43,6.599,5.076,13.391,5.096C266.307,288.53,275.499,270.731,264.17,256.045z     M214.573,252.589c-7.418-7.5-5.053-20.138,5.247-22.647c14.702-1.996,13.487,10.471,20.251,3.957    c11.406-11.012,29.253,0.882,20.874,15.903c-1.434,2.571-5.485,4.785-3.587,7.853c1.657,2.679,3.256,2.695,5,7.687    c0.461,1.319,0.522,1.976,0.5,5.413c-0.07,10.944-14.456,15.64-22.612,7.465c-2.779-2.783-4.834-2.589-7.599,0.364    c-1.664,1.779-5.426,3.665-8.486,3.637c-0.945-0.01-1.603,0.011-2.356-0.001c-10.133-0.142-14.716-12.419-9.195-20.501    C213.103,260.996,218.793,256.862,214.573,252.589z"/>
		<path style="fill:#FFBBEC;" d="M258.496,275.871c1.608-2.807,1.55-6.533,0.889-8.143c-2.762-6.743-14.621-11.269-19.073-11.717    c-0.984-0.1-1.986,0.274-2.707,0.994c-1.213,1.208-1.122,2.746-0.626,4.622C242.129,281.1,254.586,282.696,258.496,275.871z     M253.835,272.243c-0.533,1.913-3.786,1.051-5.269-0.756c-1.944-2.372-3.442-5.046-4.541-8.112    C247.842,264.742,254.926,268.367,253.835,272.243z"/>
		<path style="fill:#FFBBEC;" d="M226.87,277.61c6.235-4.341,9.478-14.815,9.717-18.255c0.129-1.863-1.697-3.544-3.516-3.331    c-5.086,0.578-13.513,4.34-17.18,8.509c-2.404,2.731-3.337,6.36-2.435,9.471C214.985,279.274,221.54,281.32,226.87,277.61z     M229.224,263.392c-1.111,3.096-2.607,5.76-4.537,8.084l-0.001,0.001c-0.92,1.108-3.465,1.65-4.355,1.711    C218.109,272.479,218.614,267.175,229.224,263.392z"/>
		<path style="fill:#FFBBEC;" d="M239.997,255.949c6.234-0.435,22.939-7.408,19.769-18.08c-1.777-5.979-10.953-8.557-17.247,0.405    c-3.454,4.917-5.601,10.998-5.868,14.226c-0.071,0.888,0.282,1.795,0.968,2.49C238.257,255.636,239.113,256.008,239.997,255.949z     M243.992,248.601c1.108-3.038,2.802-6.008,4.776-8.304v-0.001c0.901-1.048,3.3-1.479,4.146-1.505    c1.753,0.555,1.098,3.629-0.445,4.95C250.005,245.853,247.162,247.482,243.992,248.601z"/>
		<path style="fill:#FFBBEC;" d="M233.348,255.978c1.894,0,3.532-1.821,3.239-3.786c-1.424-9.425-9.179-22.859-18.428-19.22    c-5.938,2.336-7.838,11.07,0.723,17.106C223.811,253.552,231.015,255.978,233.348,255.978z M219.322,240.576    c-0.046-3.351,5.855-3.372,9.938,8.031c-3.17-1.118-5.901-2.674-8.292-4.716c-1.091-0.932-1.63-2.015-1.646-3.313V240.576z"/>
	</g>
	<g>
		<g>
			<g>
				<path style="fill:#FF967F;" d="M34.419,430.714c-1.501,1.169-3.892,0.277-4.208-1.588c-1.067-6.291,5.023-13.975,8.826-19.092      l-0.126,0.149c-2.738-0.736-3.774-2.647-3.87-5.347c-0.316-8.952,4.882-15.778,4.385-17.51      c-1.829-6.368-0.898-12.003,5.284-15.177c6.204-3.185,12.788-4.543,19.738-4.771c21.723-0.714,29.867,13.92,13.47,37.704      c-4.93,7.152-16.851,20.522-25.216,22.097c-1.444,0.272-2.006-0.575-2.521-1.958l0.161-0.107l-0.146,0.126      c-2.053,2.445-6.518,8.238-9.153,9.389c-2.019,0.882-3.86-1.93-3.795-4.405c0.025-0.944,0.258-1.882,0.397-2.823l0.14-0.122      C35.399,429.792,34.986,430.273,34.419,430.714z"/>
				<path style="fill:#000E3F;" d="M56.044,427.638c-5.091,2.277-5.655-0.899-7.953,2.06c-3.356,4.321-7.451,9.098-10.815,4.797      c-0.363-0.464-0.577-1.044-0.865-1.567c-0.73-1.329-0.688-1.045-2.282-0.583c-2.466,0.714-4.604-0.434-5.245-2.903      c-1.484-5.721,3.926-12.954,7.031-17.472c1.375-2-2.371-2.455-2.27-7.143c0.276-12.774,5.423-14.213,3.73-19.79      c-0.967-3.185-0.517-9.751,4.661-12.93c15.565-9.556,42.728-8.692,45.33,7.033C90.429,397.657,67.853,422.358,56.044,427.638z       M69.133,368.788c-6.783-1.127-16.152-0.001-25.895,5.412c-3.471,1.928-4.402,6.624-3.464,10.515      c0.514,2.132,1.634,2.268,3.055,3.286c0.971,0.697,1.922,1.422,2.883,2.135c0.393,0.292,0.949,0.139,1.196-0.328      c2.628-4.963-0.619-7.94,1.588-8.743c1.699-0.618,1.713,2.296,5.351,4.809c3.154,2.178,6.569,2.744,10.238,1.444      c3.332-1.181,5.698-4.782,7.009-3.509c1.672,1.623-3.765,5.066-6.837,6.008c-3.884,1.191-7.561,0.8-11.023-1.35      c-0.711-0.441-1.374-0.959-2.063-1.435c-0.931-0.643-1.042,1.737-2.288,4.425c-0.623,1.344-1.043,2.706-0.833,4.164      c0.557,3.875-1.96,8.356-4.989,11.479c-2.178,2.246-4.057,4.729-5.915,7.224c-3.073,4.126-6.321,9.544-5.923,14.306      c0.052,0.617,0.415,1.108,0.991,1.4c1.826,0.927,3.749-2.132,17.079-20.585c1.55-2.146,1.555-2.542,2.479-3.006      c0.616-0.31,1.192,0.422,1.26,0.81c0.157,0.89,0.282,0.722-8.589,13.129c-5.415,7.574-7.704,8.761-5.225,12.568      c0.45,0.692,1.238,0.912,1.849,0.427c2.047-1.626,2.933-2.092,7.121-7.54c12.415-16.151,9.47-13.424,11.759-15.863      c0.387-0.412,1.086-0.445,1.289-0.254c0.239,0.225,0.56,0.601,0.51,0.845c-0.503,2.471-5.441,7.944-9.734,14.567      c-0.146,0.225,0.209,0.827,0.495,0.826c7.953-0.036,36.538-27.793,32.246-47.367c-0.698-3.185-2.526-5.871-8.266-8.258      C74.116,369.342,71.619,369.112,69.133,368.788z M36.095,404.991c-0.027,2.454,1.76,4.046,2.676,3.145      c4.662-4.588,6.991-7.525,6.731-12.767c-0.123-2.492-2.277-4.654-4.486-5.524c-0.426-0.168-1.258,0.159-1.604,1.033      C37.119,396.679,36.17,398.251,36.095,404.991z"/>
			</g>
			<g>
				<path style="fill:#FF967F;" d="M435.525,427.281l0.14,0.122c0.139,0.941,0.372,1.879,0.397,2.823      c0.065,2.475-1.776,5.286-3.795,4.405c-2.635-1.151-7.1-6.944-9.153-9.389l-0.146-0.126l0.161,0.107      c-0.515,1.383-1.077,2.23-2.521,1.958c-8.365-1.575-20.285-14.945-25.216-22.097c-16.397-23.784-8.254-38.418,13.469-37.704      c6.95,0.228,13.534,1.587,19.738,4.771c6.182,3.174,7.113,8.809,5.284,15.177c-0.497,1.732,4.702,8.558,4.385,17.51      c-0.096,2.7-1.132,4.611-3.87,5.347l-0.126-0.149c3.803,5.116,9.893,12.8,8.826,19.092c-0.316,1.865-2.707,2.757-4.208,1.588      C438.326,430.273,437.913,429.792,435.525,427.281z"/>
				<path style="fill:#000E3F;" d="M385.947,379.139c2.602-15.725,29.765-16.589,45.33-7.033c5.178,3.179,5.628,9.745,4.661,12.93      c-1.694,5.577,3.453,7.016,3.73,19.79c0.101,4.688-3.644,5.142-2.27,7.143c3.105,4.518,8.515,11.75,7.031,17.472      c-0.641,2.469-2.779,3.617-5.245,2.903c-1.595-0.462-1.552-0.746-2.282,0.583c-0.288,0.524-0.502,1.103-0.865,1.567      c-3.364,4.301-7.459-0.477-10.815-4.797c-2.298-2.959-2.863,0.217-7.953-2.06C405.459,422.358,382.883,397.657,385.947,379.139z       M396.825,370.328c-5.739,2.387-7.567,5.073-8.266,8.258c-4.292,19.574,24.293,47.331,32.246,47.367      c0.286,0.001,0.641-0.601,0.495-0.826c-4.293-6.623-9.23-12.096-9.734-14.567c-0.05-0.244,0.272-0.62,0.51-0.845      c0.203-0.191,0.902-0.158,1.289,0.254c2.288,2.439-0.656-0.287,11.759,15.863c4.188,5.448,5.074,5.914,7.121,7.54      c0.611,0.485,1.399,0.265,1.849-0.427c2.479-3.807,0.19-4.994-5.225-12.568c-8.87-12.407-8.745-12.239-8.589-13.129      c0.068-0.388,0.644-1.12,1.26-0.81c0.924,0.465,0.928,0.861,2.479,3.006c13.33,18.453,15.253,21.512,17.079,20.585      c0.576-0.292,0.939-0.783,0.991-1.4c0.398-4.762-2.851-10.18-5.923-14.306c-1.858-2.495-3.738-4.978-5.915-7.224      c-3.029-3.123-5.546-7.604-4.989-11.479c0.21-1.459-0.21-2.82-0.833-4.164c-1.246-2.688-1.358-5.068-2.288-4.425      c-0.689,0.476-1.353,0.993-2.063,1.435c-3.462,2.151-7.138,2.541-11.023,1.35c-3.072-0.942-8.509-4.385-6.837-6.008      c1.311-1.272,3.677,2.329,7.009,3.509c3.669,1.3,7.084,0.734,10.238-1.444c3.638-2.513,3.652-5.427,5.351-4.809      c2.207,0.803-1.04,3.78,1.588,8.743c0.247,0.467,0.803,0.62,1.196,0.328c0.96-0.713,1.911-1.438,2.883-2.135      c1.421-1.019,2.541-1.154,3.055-3.286c0.938-3.89,0.007-8.586-3.464-10.515c-9.743-5.413-19.112-6.54-25.895-5.412      C401.693,369.112,399.196,369.342,396.825,370.328z M433.9,390.877c-0.345-0.874-1.178-1.201-1.604-1.033      c-2.209,0.87-4.363,3.033-4.486,5.524c-0.259,5.242,2.069,8.179,6.731,12.767c0.915,0.901,2.703-0.691,2.676-3.145      C437.142,398.251,436.193,396.679,433.9,390.877z"/>
			</g>
		</g>
		<g>
			<g>
				<g>
					<path style="fill:#FF967F;" d="M230.704,420.414c-1.811,0.004-3.561-0.382-5.3-0.834c-0.452-0.117-0.822-0.827-0.644-1.22       c0.157-0.347,0.297-0.707,0.495-1.03c4.936-8.026,7.769-19.353,7.428-26.318c-0.106-2.174,0.842-3.682,2.512-4.87       c6.288-4.474,12.277-3.511,18.494,0.822c12.272,8.554,26.934,4.73,29.974,4.943c12.242,0.86,22.667,4.606,26.15,6.974       c0.347,0.236,0.346,1.202-0.02,1.368c-0.694,0.315-1.382,0.687-2.114,0.867c-7.35,1.811-14.537,4.157-21.702,6.576       c-16.587,5.601-18.072,8.262-33.094,11.131C242.439,420.819,238.435,420.396,230.704,420.414z"/>
					<path style="fill:#FF967F;" d="M236.767,189.895c16.024,0,20.436,0.288,37.536,4.747c1.752,0.457,1.675,1.58,1.088,2.904       c-1.361,3.076-3.316,5.77-5.521,8.276c-19.81,22.515-60.488,17.44-72.117-8.532c-0.399-0.892-0.454-1.269,0.104-2.088       c0.747-1.095,12.741-3.386,14.061-3.617c10.425-1.828,13.622-1.689,24.849-1.689       C236.767,189.896,236.767,189.896,236.767,189.895z"/>
					<path style="fill:#FF967F;" d="M217.369,446.065c-18.345,3.196-25.092,2.786-33.257,2.932       c-7.56,0.135-21.134-2.531-18.72-10.166c1.544-4.882,6.493-8.147,11.502-9.172c3.044-0.623,25.21-2.196,42.166-8.282       c7.788-2.795,9.821,0.691,22.476-0.738c20.264-2.288,20.834-4.086,28.787-6.41c0.729-0.213,1.6,0.38,1.709,1.145       c2.521,17.742,2.899,14.637,9.126,31.129c-3.522,0.217-7.404-0.921-11.014-1.464       C252.436,442.378,234.873,443.016,217.369,446.065z"/>
				</g>
				<path style="fill:#4217A6;" d="M236.668,369.673c-22.032,0-48.36-5.241-64.615-16.721c-4.842-3.419-0.5-2.154,2.924-26.193      c1.735-12.184,1.27-8.514,1.47-12.588c0.676-13.787,0.676,2.013,0.665-22.668c0-0.385,0.041-0.781-0.034-1.153      c-0.954-4.717-0.071-9.16-1.826-16.763c-0.036-0.155-0.525-0.25-0.601-0.09c-0.079,0.166-3.82,44.825-47.921,92.578      c-2.281,2.469-3.444,2.216-12.676,6.209C84.84,384.92,89.397,388.086,84.22,385.788c-12.889-5.722-26.096-16.627-32.005-24.131      c-2.646-3.361,25.266-17.879,65.33-83.765c6.617-10.883,36.545-68.966,76.071-81.599c4.19-1.339,2.179,0.337,8.116,8.016      c17.327,22.413,58.248,22.699,73.977-6.346c0.73-1.348,1.019-1.953,2.016-2.073c2.476-0.299,38.36,11.215,71.383,70.635      c10.392,18.7,26.235,42.549,43.702,63.678c25.647,31.023,31.584,28.44,27.161,32.821c-6.763,6.697-8.766,8.933-12.98,12.004      c-11.624,8.472-16.925,10.212-18.124,10.849c-1.504,0.799-2.854,0.677-4.309-0.314c-6.811-4.637-14.222-8.195-21.652-11.685      c-10.878-5.109-13.436-4.625-16.786-8.231c-19.258-20.726-38.952-52.554-45.185-79.931c-3.082-13.537-1.758-14.443-2.257-15.942      c-0.077,0.097-0.208,0.186-0.224,0.293c-2.613,17.003-1.26,16.64-2.172,20.623c-0.276,1.205-0.166,14.934-0.07,15.382      c1.07,5.003-0.551,11.508,4.95,35.345c1.696,7.351,3.312,8.409,1.549,10.227c-6.566,6.77-33.064,18.02-66.043,18.02      C236.668,369.666,236.668,369.67,236.668,369.673z"/>
				<path style="fill:#FFCF00;" d="M269.427,391.981c-6.599-0.34-11.3-2.404-15.408-5.293c-7.669-5.392-14.831-5.357-21.328,1.607      c-1.209,1.296,0.696,5.192-2.125,15.496c-2.379,8.689-4.446,11.228-5.842,13.746c-0.79,1.425-1.978,2.322-3.514,2.806      c-26.502,8.344-36.575,7.461-43.242,8.708c-3.852,0.721-7.403,2.227-10.135,5.126c-2.402,2.549-2.336,3.14-6.932,3.301      c-3.897,0.884-7.921,0.556-11.844,1.252c-1.375,0.244-2.814,0.169-4.224,0.176c-18.581,0.094-19.758,0.082-22.284-0.532      c-0.369-0.09-0.765-0.092-1.149-0.098c-3.607-0.05-7.122-0.789-10.67-1.325c-16.754-2.53-40.223-10.778-40.698-27.717      c-0.119-4.245,1.387-7.764,4.07-10.885c23.5-27.333,96.902-45.385,101.15-42.845c20.774,12.418,49.386,13.864,52.594,14.51      c1.146,0.231,11.185,0.16,14.233,0.142c5.45-0.032,4.57-0.539,6.884-0.621c12.567-0.445,35.002-5.609,48.808-13.896      c1.058-0.636,2.077-0.752,3.292-0.512c29.051,5.742,66.572,17.264,89.869,35.308c4.118,3.19,8.705,7.301,11.002,12.147      c3.206,6.764,3,15.184-2.661,22.828c-12.2,16.474-40.029,22.502-60.422,24.476c-3.575,0.346-7.175,0.396-10.725,0.814      c-7.046,0.829-14.09,0.42-21.136,0.427c-0.763,0.001-1.527-0.157-2.291-0.237c-9.395-0.983-0.051,0.632-17.936-2.032      c-7.767-1.157-12.481-18.975-13.453-26.558c-0.912-7.118-1.019-9.014,0.819-9.744c9.833-3.904,19.924-7.629,36.177-11.805      c2.07-0.532,1.944-0.528,2.283-0.953c0.242-0.305-9.394-4.912-18.992-7.028C288.645,391.679,278.37,392.442,269.427,391.981z"/>
				<g style="opacity:0.25;">
					<path style="fill:#000E3F;" d="M217.037,368.409c-1.652-0.211-10.917-1.645-12.407-2.415       c-2.638-1.362,12.646-2.438,26.401-7.93c16.574-6.618,31.214-19.572,38.623-35.944c11.199-24.75,10.754-57.499,32.583-73.196       c8.942-6.429,9.513,25.131,10.293,36.377c0.761,11.354,3.222,24.07,2.347,35.168c-9.799-10.202-13.88-31.692-15.849-45.023       c-0.366-2.476-0.054-5.023-0.388-5.632c-0.622,0.971-5.513,29.425-0.009,59.963c0.731,4.057,7.541,19.443,3.191,22.72       C278.645,369.957,245.846,372.093,217.037,368.409z"/>
					<path style="fill:#000E3F;" d="M156.565,319.094c1.451-7.725-0.389-27.256,2.715-49.807c0.266-1.935,6.86-22.489,9.212-20.053       c1.668,1.727,4.238,12.073,5.092,16.027c0.963,4.462,1.468,5.953,0.512,11.777c-4.019,24.49-15.999,45.024-16.346,45.304       c-0.59,0.476-1.106,0.164-1.177-0.187C156.4,321.301,156.459,319.66,156.565,319.094z"/>
				</g>
				<g style="opacity:0.5;">
					<path style="fill:#FD8A02;" d="M136.652,438.915c-9.184,0-11.264,0.107-13.818-0.501c-0.081-0.019-36.763-1.808-49.303-18.876       c-3.078-4.189-3.928-8.829-3.285-13.846c0.164-1.282,0.696-2.46,1.43-3.539c1.978-2.907,6.779,8.357,26.183,12.834       c15.226,3.513,30.635,1.259,45.884-0.677c25.422-3.228,55.016-8.227,79.65,2.869c0.675,0.304,0.726,1.484,0.059,1.933       c-0.631,0.425-1.284,0.874-1.994,1.116c-34.343,11.724-44.947,4.751-53.706,14.016c-2.317,2.451-2.136,3.077-6.954,3.242       c-3.889,0.944-7.914,0.578-11.845,1.236c-1.736,0.291-2.599,0.254-12.302,0.254       C136.652,438.956,136.652,438.935,136.652,438.915z"/>
					<path style="fill:#FD8A02;" d="M304.093,450.783c-2.711-0.652,2.774,0.841-16.419-1.759c-4.077-0.552-6.44-3.397-8.371-7.175       c-2.704-5.29-4.481-10.896-5.491-16.746c-0.135-0.779,0.474-1.562,1.273-1.612c0.894-0.055,1.815-0.179,2.685-0.033       c2.651,0.444,5.347,0.648,7.931,1.473c11.723,3.744,23.084,7.838,35.492,8.507c25.275,1.363,48.316-8.382,66.324-25.678       c7.164-6.881,7.684-9.262,9.406-10.618c0.437-0.344,1.285,0.182,1.659,0.595c3.292,3.645,5.274,7.848,5.352,12.832       c0.042,2.696,0.153,5.418-0.949,7.965c-0.762,1.762-1.493,3.572-2.522,5.178c-16.795,26.207-71.043,26.49-74.852,27.308       C324.824,451.187,306.61,451.388,304.093,450.783z"/>
				</g>
				<g>
					<path style="fill:#FD8A02;" d="M297.674,419.275c3.003,13.791,9.542,23.661,9.46,23.519c0.692,1.209-0.825,2.479-1.895,1.579       c-9.02-7.628-13.85-22.302-11.273-33.694c0.289-1.277,2.142-1.191,2.317,0.102C296.282,410.78,297.059,416.368,297.674,419.275       z"/>
					<path style="fill:#FD8A02;" d="M196.113,421.264c-0.928,1.02-2.589,0.003-2.105-1.287c0.812-2.164,2.08-5.231,2.972-7.492       c8.025-20.727,6.772-24.192,9.065-23.459C208.479,389.805,206.621,409.71,196.113,421.264z"/>
				</g>
				<g>
					<path style="fill:#915EFD;" d="M421.358,361.051c-0.683,1.202,0.545-0.005-5.221,5.912       c-10.783,11.066-21.559,15.955-27.707,19.087c-2.393,1.219-3.264-0.334-9.173-3.764c-16.645-9.662-26.218-11.633-24.078-13.023       c11.751-7.63,8.247-3.257,31.039-21.857c8.473-6.914,10.961-11.426,12.571-9.955c6.246,5.71-3.938-3.039,21.613,21.849       C421.417,360.289,421.192,360.257,421.358,361.051z"/>
					<path style="fill:#915EFD;" d="M86.303,386.527c-0.462-0.15-0.974-0.249-1.425-0.472c-11.162-5.538-15.687-7.274-31.189-22.625       c-0.542-0.536-0.996-1.163-1.471-1.764c-0.281-0.356-0.289-1.132-0.005-1.445c3.561-3.929,9.045-8.67,20.325-20.935       c0.602-0.655,1.285-1.237,1.956-1.824c1.157-1.014,2.886,1.027,5.716,3.781c16.825,16.376,32.737,24.785,37.59,27.732       c0.632,0.384,0.602,1.211-0.045,1.531c-6.156,3.04-16.905,7.174-28.646,14.772c-0.537,0.347-1.079,0.694-1.653,0.972       C87.125,386.408,86.725,386.43,86.303,386.527z"/>
					<path style="fill:#915EFD;" d="M249.807,244.926c0,8.979,0.834,36.417-14.192,34.546c-9.897-1.232-12.143-19.179-12.151-26.964       c-0.012-10.518,0.318-20.98,1.529-31.423c0.129-1.115,0.795-1.64,1.795-1.515c11.585,1.446,8.107,1.446,19.826-0.017       c0.817-0.102,1.485,0.386,1.622,1.258c1.826,11.608,1.53,19.06,1.53,24.115C249.779,244.926,249.793,244.926,249.807,244.926z"/>
					<path style="fill:#915EFD;" d="M259.968,292.943c-3.072,5.404-6.844,10.42-11.069,15.019c-4.216,4.613-8.928,8.772-13.96,12.49       c-5.06,3.681-10.444,6.921-16.11,9.559c-5.654,2.651-11.568,4.75-17.643,6.076c-0.668,0.146-1.328-0.278-1.474-0.946       c-0.131-0.599,0.198-1.191,0.748-1.413c5.629-2.277,11.107-4.786,16.388-7.648c5.27-2.875,10.363-6.051,15.188-9.599       c4.852-3.51,9.431-7.392,13.773-11.539c4.332-4.161,8.382-8.625,12.247-13.314c0.408-0.497,1.142-0.57,1.64-0.161       C260.139,291.832,260.242,292.46,259.968,292.943z"/>
					<path style="fill:#915EFD;" d="M258.551,325.719c-1.679,2.191-3.61,4.147-5.658,5.964       c-5.582,5.009-13.895,10.082-21.289,12.054c-0.671,0.179-1.359-0.22-1.538-0.891c-0.136-0.51,0.067-1.034,0.464-1.333       c2.163-1.621,4.368-3.086,6.566-4.546l6.576-4.361c7.103-4.688,10.351-6.883,13.341-8.625c0.563-0.331,1.288-0.143,1.619,0.42       C258.882,324.826,258.832,325.349,258.551,325.719z"/>
				</g>
				<g style="opacity:0.65;">
					<path style="fill:#DB5E43;" d="M235.427,420.406c-5.514,0-4.089,0.256-9.991-0.823c-0.608-0.111-0.905-0.962-0.581-1.56       c1.805-3.331,4.999-8.146,7.061-18.566c1.087-5.496,0.655-7.449,0.895-9.925c0.115-1.179,1.14-1.712,2.259-1.129       c9.874,5.151,10.25,22.864,31.584,24.108c2.903,0.169,3.784,0.162,3.716,0.417c-0.061,0.229-0.116,0.563-0.28,0.643       c-6.143,3.002-14.247,4.951-20.976,5.919C244.692,420.127,240.233,420.763,235.427,420.406z"/>
					<path style="fill:#DB5E43;" d="M225.732,420.22c0.919,0.073,1.822,0.085,2.705,0.226c8.294,1.325,13.394-0.056,15.683-0.112       c6.75-0.163,18.755-3.157,24.984-5.764c1.938-0.811,2.835-0.118,2.994,1.058c1.14,8.444,1.983,17.168,6.887,26.208       c1.131,2.084,1.308,2.006,2.218,4.025c0.187,0.415-0.324,1.144-0.775,1.086c-3.987-0.507-6.051-1.433-10.56-1.941       c-1.494-0.168-2.618-0.901-3.459-2.158c-5.04-7.533-14.396-9.517-23.925-11.502c-6.958-1.45-13.192-2.437-18.036-8.37       c-0.525-0.643-1.438-1.383-0.852-2.33C224.042,419.927,225.01,420.307,225.732,420.22z"/>
				</g>
			</g>
			<g>
				<path style="fill:#000E3F;" d="M423.025,359.914c-0.767-0.961-14.383-14.289-14.465-14.369      c-8.69-8.486-17.597-20.113-20.162-23.219c-11.17-13.527-21.253-29.347-25.06-35.018c-13.596-20.252-28.783-55.785-61.39-80.485      c-21.831-16.538-47.97-19.526-75.55-18.326c-16.95,0.737-34.292,5.003-48.81,13.981c-33.015,20.417-54.937,64.707-66.198,82.648      c-22.028,35.095-48.625,63.487-52.81,66.876c-2.031,1.644-7.857,7.293-8.368,7.929c-0.267,0.333-0.324,1.076-0.05,1.455      c10.87,15.016,31.814,24.999,32.449,25.366c0.431,0.249,0.501,0.984,0.115,1.352c-4.017,3.834-2.127,1.134-8.729,8.097      c-1.595,1.682-2.778,3.667-3.902,5.698c-2.063,3.728-1.909,7.692-1.104,11.615c1.071,5.219,5.721,10.197,9.976,13.271      c3.079,2.225,6.449,4.029,9.925,5.547c7.333,3.201,15.191,5.199,23.083,6.426c8.781,1.366,17.626,1.383,26.528,1.673      c8.425,0.274,21.522-1.361,23.639-1.352c2.161,0.01,0.654,5.078,5.56,7.77c8.03,4.405,16.91,3.715,27.113,3.601      c7.636-0.085,33.29-4.751,38.18-5.171c20.039-1.718,38.289,0.53,49.758,4.073c41.025,10.256,132.018-1.63,122.08-43.258      c-0.889-3.722-2.882-6.868-5.377-9.652c-5.752-6.418-6.733-6.185-8.967-8.4c-0.328-0.324-0.209-1.11,0.217-1.342      c11.827-6.426,18.23-9.854,31.681-24.023C422.919,362.116,423.713,360.776,423.025,359.914z M199.235,195.749      c6.525-1.682,9.451-2.779,21.463-4.186c6.27-0.735,22.982-0.894,30.32-0.138c6.41,0.661,10.931,0.932,22.994,4.326      c0.496,0.14,0.743,0.767,0.51,1.243c-3.388,6.937-9.821,13.082-16.103,16.59c-20.291,11.318-48.379,4.671-59.639-16.592      C198.523,196.506,198.734,195.878,199.235,195.749z M279.07,445.177c-1.737,1.136-1.054-1.357-25.738-3.207      c-22.838-1.711-36.865,5.306-64.53,6.019c0-0.015-0.001-0.031-0.001-0.047c-5.962,0-15.747-0.151-20.439-3.869      c-5.061-4.01,0.909-12.513,10.632-13.601c37.584-4.208,41.728-10.264,47.366-9.057c4.949,1.06,18.258,1.239,33.491-2.689      c8.081-2.084,10.994-4.024,11.186-2.55c0.28,2.157,0.559,4.315,0.835,6.473C273.727,437.182,279.78,444.713,279.07,445.177z       M227.844,415.029c2.89-5.509,4.566-11.419,5.621-17.513c0.286-1.65,0.313-6.353,0.335-7.3c0.02-0.812,0.341-1.515,0.925-2.049      c5.575-5.098,12.101-4.819,17.889-0.59c9.469,6.92,18.185,6.033,25.657,5.929c7.036-0.098,12.707-0.91,24.911,3.628      c1.319,0.491,2.607,1.069,3.894,1.643c0.194,0.086,0.41,0.37,0.414,0.566c0.004,0.2-0.199,0.515-0.386,0.589      c-0.833,0.327-1.686,0.611-2.546,0.864c-4.48,1.317-17.02,4.592-32.813,11.014c-0.51,0.208-8.48,4.193-20.963,6.201      c-5.357,0.862-15.826,2.058-20.666,1.171C226.023,418.432,225.629,419.252,227.844,415.029z M401.977,405.558      c5.229,16.556-10.95,29.132-27.175,35.355c-18.68,7.165-53.425,11.942-84.259,7.343c-3.261-0.486-5.018-0.116-7.336-2.717      c-5.332-5.983-8.507-18.614-9.325-27.314c-0.447-4.748-0.534-4.209,3.653-5.86c9.316-3.672,18.859-6.671,28.515-9.324      c35.902-9.863,46.57-7.664,46.261-10.799c-0.085-0.865-1.318-1.174-2.141-1.044c-35.542,5.586-35.487,8.245-39.202,6.459      c-20.464-9.837-31.113-6.308-38.665-6.518c-5.989-0.166-12.314-1.541-17.265-5.067c-5.155-3.671-11.201-5.941-16.902-3.191      c-1.391,0.671-2.81,1.313-3.933,2.387c-1.285,1.227-2.697,1.275-4.277,0.786c-22.676-7.016-85.194-4.569-92.762-0.55      c-0.909,0.483-0.552,1.979,0.403,1.978c3.105-0.005,4.896-0.838,11.778-1.656c24.816-2.948,69.201-1.93,80.687,3.079      c0.639,0.279,1.05,0.804,1.048,1.481c-0.022,9.107-2.255,19.02-7.432,26.658c-0.76,1.12-1.718,1.876-2.989,2.283      c-6.207,1.992-14.553,4.629-26.121,6.403c-13.755,2.109-13.241,1.366-17.517,2.363c-10.807,2.52-9.78,7.629-14.861,8.215      c-76.683,8.739-101.894-20.536-87.043-37.34c16.241-18.378,52.157-31.562,75.882-37.834c9.805-2.592,17.902-4.214,19.094-4.481      c2.595-0.581,5.084-0.604,7.204,1.35c29.875,16.458,85.526,19.422,120.689-1.119c0.947-0.553,1.839-0.743,2.921-0.525      c2.135,0.431,4.311,0.664,6.436,1.132c14.139,3.113,18.375,4.451,30.436,8.235c14.061,4.412,32.432,12.198,46.101,21.027      C390.55,391.065,399.597,398.023,401.977,405.558z M169.524,353.014c0.276,0.377,0.186,0.845-0.176,0.962      c-0.729,0.237-1.45,0.529-2.199,0.674c-20.212,3.908-33.477,9.353-36,9.474c0.1-0.784,0.509-1.411,1.02-1.986      c11.676-13.14,24.76-33.258,30.628-45.97c11.61-25.15,10.678-31.552,11.857-33.225c0.06,0.064,0.162,0.122,0.172,0.193      c2.031,14.041,1.096,40.06-6.631,66.48C167.736,351.184,168.731,351.93,169.524,353.014z M299.922,327.576      c-3.296-21.207-2.127-33.784-1.498-44.443c0.005-0.079,0.106-0.152,0.163-0.227c0.939,1.172,4.334,30.942,36.872,72.436      c2.135,2.722,4.452,5.302,6.672,7.958c0.151,0.18,0.185,0.457,0.273,0.689c-0.089,0.08-0.198,0.243-0.263,0.227      c-0.985-0.243-1.979-0.465-2.942-0.779c-21.895-7.137-29.601-7.762-35.275-9.441c-0.358-0.106-0.458-0.595-0.206-0.958      C307.109,348.137,303.827,352.703,299.922,327.576z M417.436,363.931c-9.207,9.771-18.915,16.392-29.543,21.107      c-1.663,0.738-2.066-0.261-6.074-2.631c-21.255-12.568-30.403-13.145-34.343-17.082c-10.607-10.599-29.489-36.698-39.105-60.42      c-7.049-17.391-7.587-26.241-8.358-30.704c-0.49-2.839,0.208-5.563,0.764-8.334c0.582-2.902,1.215-5.8,2.138-8.615      c2.084-6.354,2.705-7.066,2.209-8.049c-3.791-7.529-17.331,43.975-4.713,93.874c0.471,1.864,0.975,3.73,1.636,5.531      c0.502,1.369,0.004,2.241-1.007,2.99c-30.642,22.721-96.993,21.761-127.101,1.255c-5.471-3.726-1.311-2.611,2.077-25.225      c3.786-25.274,2.893-53.277-5.138-77.115c-0.28-0.832-0.97-2.193-1.916-2.008c-0.306,0.06-0.597,0.409-0.803,0.696      c-0.972,1.352,1.287,1.581,4.787,18.888c1.832,9.058-4.189,27.525-7.74,36.103c-7.597,18.351-16.762,33.297-28.44,48.225      c-7.93,10.137-11.219,14.02-15.154,15.501c-13.174,4.958-26.873,12.147-34.04,16.955c-0.692,0.464-1.385,0.542-2.17,0.181      c-4.904-2.25-9.703-4.684-14.063-7.9c-10.581-7.807-7.959-5.813-16.56-14.308c-0.36-0.356-0.648-0.789-0.954-1.197      c-0.258-0.344-0.217-1.091,0.099-1.443c4.009-4.453,34.246-30.659,66.122-84.142c5.401-9.063,11.714-21.802,25.374-39.436      c1.961-2.532,4.165-4.875,6.168-7.375c3.703-4.622,7.906-8.768,12.232-12.776c11.548-10.699,20.4-15.332,30.008-19.037      c1.094-0.422,2.039-0.093,2.681,0.875c1.442,2.175,1.6,3.43,6.345,9.156c1.398,1.687,3.137,3.01,4.839,4.382      c19.781,15.941,53.488,12.314,67.324-10.506c0.73-1.204,1.491-2.392,2.285-3.555c0.309-0.452,0.888-0.629,1.378-0.498      c6.865,1.836,15.939,7.346,21.62,11.523c8.211,6.037,18.699,16.155,29.867,30.862c13.799,18.172,19.399,31.467,32.231,51.05      c6.33,9.661,12.936,19.129,19.981,28.277c23.808,30.92,36.97,39.68,37.555,42.036      C419.37,362.239,418.307,363.007,417.436,363.931z"/>
				<path style="fill:#000E3F;" d="M236.681,229.151c-3.177,0-5.753,2.576-5.753,5.753s2.576,5.753,5.753,5.753      c3.177,0,5.753-2.575,5.753-5.753S239.859,229.151,236.681,229.151z"/>
				<path style="fill:#000E3F;" d="M236.681,251.999c-3.177,0-5.753,2.575-5.753,5.753c0,3.177,2.576,5.753,5.753,5.753      c3.177,0,5.753-2.575,5.753-5.753C242.434,254.574,239.859,251.999,236.681,251.999z"/>
			</g>
		</g>
		<g>
			<g>
				<g>
					<path style="fill:#DB5E43;" d="M248.954,185.794c-1.286,0-2.477-0.123-3.641-0.375c-2.16-0.469-3.078-1.085-3.169-3.689       c-0.483-13.611,16.696-39.903,30.89-43.127c0.46-0.104,0.903-0.158,1.317-0.158c2.13,0,3.576,1.354,3.963,3.712       c0.089,0.536,0.184,1.074,0.28,1.613c0.383,2.156,0.78,4.386,0.737,6.638c-0.342,18.131-9.882,31.736-24.305,34.659       C253.26,185.427,251.154,185.794,248.954,185.794z"/>
					<path style="fill:#000E3F;" d="M274.352,139.852c1.406,0,2.297,0.84,2.577,2.535c0.437,2.65,1.048,5.337,0.998,7.995       c-0.368,19.506-10.98,30.836-23.178,33.309c-1.913,0.388-3.845,0.697-5.794,0.697c-1.109,0-2.223-0.1-3.343-0.343       c-1.682-0.364-1.999-0.561-2.063-2.363c-0.467-13.167,16.597-38.708,29.798-41.707       C273.706,139.893,274.042,139.852,274.352,139.852 M274.352,137.041L274.352,137.041c-0.518,0-1.066,0.065-1.628,0.192       c-14.695,3.338-32.483,30.495-31.985,44.549c0.121,3.428,1.727,4.459,4.277,5.012c1.263,0.273,2.551,0.407,3.939,0.407       c2.323,0,4.515-0.381,6.352-0.753c15.093-3.06,25.075-17.195,25.43-36.011c0.045-2.39-0.364-4.689-0.759-6.912       c-0.094-0.532-0.189-1.063-0.276-1.593C279.206,138.914,277.156,137.041,274.352,137.041L274.352,137.041z"/>
				</g>
				<g>
					<path style="fill:#DB5E43;" d="M221.537,185.661c-8.459,0-16.243-3.867-21.92-10.888c-7.023-8.686-9.905-20.997-7.52-32.13       c0.247-1.156,0.905-4.228,4.118-4.228c0.63,0,1.341,0.121,2.173,0.369c11.765,3.51,28.528,24.753,30.208,42.504       c0.299,3.16-1.798,3.924-3.075,4.099C224.187,185.569,222.846,185.661,221.537,185.661z"/>
					<path style="fill:#000E3F;" d="M196.216,139.82c0.503,0,1.088,0.106,1.771,0.31c10.932,3.262,27.576,24.022,29.211,41.291       c0.15,1.586-0.381,2.371-1.865,2.573c-1.293,0.176-2.559,0.261-3.795,0.261c-19.924,0-32.178-22.118-28.067-41.318       C193.932,140.781,194.703,139.82,196.216,139.82 M196.216,137.009L196.216,137.009c-1.985,0-4.549,0.926-5.494,5.339       c-2.471,11.538,0.519,24.301,7.802,33.309c5.949,7.358,14.122,11.41,23.014,11.41c1.373,0,2.777-0.096,4.175-0.287       c2.978-0.406,4.579-2.508,4.284-5.624c-1.727-18.238-19.044-40.091-31.206-43.72       C197.827,137.148,196.984,137.009,196.216,137.009L196.216,137.009z"/>
				</g>
			</g>
			<g>
				<g>
					<path style="fill:#FF967F;" d="M216.02,199.231c1.518-7.367,2.404-13.257,2.91-17.685c0.661-5.722,0.717-9.039,0.829-10.009       c0.028-0.182-0.211-18.823,10.093-25.557c10.164-6.649,20.82,6.734,20.834,25.529c0,2.952,0.295,6.481,0.759,10.122       c0.773,6.227,2.01,12.82,2.966,17.6"/>
					<path style="opacity:0.35;fill:#DB5E43;" d="M251.446,181.63c-3.993,5.637-9.784,9.194-16.237,9.194       c-6.481,0-12.287-3.585-16.279-9.278c0.661-5.722,0.717-9.039,0.829-10.009c0.028-0.182-0.211-18.823,10.093-25.557       c10.164-6.649,20.82,6.734,20.834,25.529C250.687,174.461,250.982,177.989,251.446,181.63z"/>
				</g>
				<path style="fill:#000E3F;" d="M216.021,200.636c-0.093,0-0.189-0.009-0.285-0.029c-0.761-0.157-1.249-0.901-1.093-1.661      c1.315-6.379,2.287-12.287,2.891-17.561c0.463-4.008,0.625-6.803,0.721-8.474c0.043-0.725,0.073-1.237,0.108-1.537      c0.063-4.642,1.039-20.245,10.721-26.571c3.62-2.369,7.626-2.587,11.288-0.61c7.001,3.784,11.712,14.76,11.721,27.314      c0,2.705,0.251,6.051,0.748,9.945c0.607,4.895,1.572,10.618,2.95,17.502c0.152,0.761-0.34,1.502-1.102,1.654      c-0.765,0.153-1.503-0.341-1.654-1.102c-1.392-6.953-2.368-12.744-2.983-17.704c-0.511-4.007-0.77-7.472-0.77-10.295      c-0.008-11.371-4.221-21.586-10.247-24.842c-2.785-1.504-5.616-1.341-8.411,0.489c-8.741,5.712-9.41,21.202-9.455,24.25      c-0.003,0.211-0.016,0.329-0.021,0.349c-0.022,0.211-0.048,0.67-0.085,1.319c-0.099,1.7-0.263,4.546-0.736,8.633      c-0.612,5.356-1.598,11.347-2.93,17.807C217.26,200.179,216.675,200.636,216.021,200.636z"/>
			</g>
			<g>
				<g>
					<g>
						<g>
							<path style="fill:#FF967F;" d="M267.759,134.69c0,5.428-1.304,11.419,3.769,11.419c15.057,0,17.275-21.248,5.416-21.248         C271.871,124.861,267.759,129.262,267.759,134.69z"/>
							<path style="fill:#FF967F;" d="M202.673,134.69c0,5.428,1.304,11.419-3.769,11.419c-15.057,0-17.275-21.248-5.416-21.248         C198.56,124.861,202.673,129.262,202.673,134.69z"/>
						</g>
						<g style="opacity:0.65;">
							<path style="fill:#DB5E43;" d="M277.213,137.711c-2.643,1.676-3.496,0.526-2.962-0.263c0.883-1.305,2.025-2.252,3.772-4.579         c0.883-1.196,1.331-2.457,2.112-1.913C281.153,131.665,280.508,135.588,277.213,137.711z"/>
							<path style="fill:#DB5E43;" d="M192.409,132.869c1.246,1.66,1.915,2.296,2.42,2.91c1.084,1.228,1.446,1.808,1.35,1.667         c0.379,0.556-0.107,1.292-0.767,1.165c-3.26-0.636-6.136-4.256-5.376-7.276c0.139-0.551,0.858-0.671,1.176-0.217         C191.211,131.118,192.047,132.378,192.409,132.869z"/>
						</g>
					</g>
					<g>
						<path style="fill:#000E3F;" d="M271.528,147.515c-1.558,0-2.802-0.472-3.694-1.401c-1.831-1.908-1.698-5.184-1.557-8.652        c0.037-0.919,0.076-1.853,0.076-2.772c0-6.194,4.751-11.234,10.592-11.234c2.817,0,5.164,1.048,6.79,3.032        c1.421,1.733,2.203,4.134,2.203,6.761C285.937,140.261,280.547,147.515,271.528,147.515z M276.944,126.267        c-4.29,0-7.78,3.778-7.78,8.422c0,0.956-0.04,1.929-0.078,2.886c-0.111,2.728-0.225,5.548,0.776,6.591        c0.128,0.133,0.516,0.537,1.666,0.537c7.533,0,11.598-5.902,11.598-11.455c0-1.978-0.556-3.746-1.566-4.979        C280.471,126.941,278.918,126.267,276.944,126.267z"/>
						<path style="fill:#000E3F;" d="M198.903,147.515c-9.02,0-14.409-7.254-14.409-14.267c0-2.626,0.783-5.028,2.204-6.761        c1.625-1.984,3.973-3.032,6.79-3.032c5.84,0,10.591,5.04,10.591,11.234c0,0.919,0.039,1.853,0.076,2.772        c0.141,3.468,0.275,6.744-1.557,8.652C201.705,147.043,200.462,147.515,198.903,147.515z M193.488,126.267        c-1.974,0-3.527,0.673-4.615,2.002c-1.01,1.232-1.566,3-1.566,4.979c0,5.553,4.065,11.455,11.598,11.455        c1.151,0,1.539-0.404,1.667-0.537c1.001-1.043,0.887-3.863,0.776-6.591c-0.039-0.956-0.078-1.929-0.078-2.886        C201.267,130.045,197.778,126.267,193.488,126.267z"/>
					</g>
				</g>
				<g>
					<g>
						<path style="fill:#FF967F;" d="M265.991,160.916c-4.797,7.802-16.137,18.964-30.636,19.133h-0.28        c-14.498-0.169-25.838-11.331-30.635-19.133c-8.782-14.283-6.796-42.638-0.333-56.217c6.25-13.13,17.523-20.089,30.968-20.384        c0.053-0.014,0.094-0.014,0.147-0.014c0.04,0,0.093,0,0.133,0.014c13.446,0.295,24.719,7.254,30.969,20.384        C272.787,118.278,274.772,146.633,265.991,160.916z"/>
						<g>
							<path style="fill:#DB5E43;" d="M245.664,116.07c0.023-7.095,16.452-3.76,14.782,2.91         C259.028,124.64,245.646,121.511,245.664,116.07z"/>
							<path style="fill:#DB5E43;" d="M224.767,116.07c-0.023-7.095-16.452-3.76-14.782,2.91         C211.403,124.64,224.785,121.511,224.767,116.07z"/>
						</g>
						<g style="opacity:0.65;">
							<path style="fill:#DB5E43;" d="M256.459,138.16c-4.917,0-8.919,3.271-8.919,7.293c0,4.021,4.002,7.292,8.919,7.292         c4.919,0,8.921-3.271,8.921-7.292C265.38,141.431,261.378,138.16,256.459,138.16z"/>
							<path style="fill:#DB5E43;" d="M214.092,138.16c-4.919,0-8.921,3.271-8.921,7.293c0,4.021,4.002,7.292,8.921,7.292         c4.917,0,8.919-3.271,8.919-7.292C223.011,141.431,219.01,138.16,214.092,138.16z"/>
						</g>
					</g>
					<g>
						<path style="fill:#000E3F;" d="M267.593,104.095c-6.344-13.327-17.759-20.849-32.149-21.184        c-0.172-0.02-0.266-0.032-0.511,0.001c-14.365,0.353-25.76,7.872-32.095,21.183c-6.223,13.077-9.161,42.001,0.405,57.558        c4.47,7.269,16.202,19.621,31.832,19.802h0.297c15.615-0.181,27.347-12.533,31.817-19.802        C276.753,146.094,273.817,117.171,267.593,104.095z M264.794,160.179c-4.169,6.779-15.064,18.296-29.439,18.463h-0.263        c-14.39-0.167-25.285-11.684-29.454-18.463c-8.236-13.395-6.877-40.974-0.26-54.877c5.87-12.336,16.429-19.291,29.728-19.583        c0.037,0,0.074-0.003,0.11-0.006c0.036,0.003,0.073,0.005,0.11,0.006c13.3,0.293,23.859,7.247,29.729,19.583        C271.671,119.204,273.03,146.782,264.794,160.179z"/>
						<path style="fill:#000E3F;" d="M257.101,125.472c-0.777,0-1.406,0.63-1.406,1.406c0,3.182-1.951,4.777-3.763,4.913        c-1.716,0.133-3.876-0.989-4.41-4.545c-0.117-0.767-0.829-1.297-1.599-1.181c-0.768,0.115-1.297,0.831-1.182,1.599        c0.73,4.854,3.922,6.949,6.922,6.949c0.161,0,0.32-0.005,0.478-0.018c3.165-0.236,6.366-2.963,6.366-7.717        C258.507,126.101,257.878,125.472,257.101,125.472z"/>
						<path style="fill:#000E3F;" d="M224.507,126.065c-0.77-0.116-1.483,0.414-1.599,1.181c-0.535,3.56-2.714,4.665-4.408,4.545        c-1.812-0.136-3.763-1.731-3.763-4.913c0-0.776-0.629-1.406-1.406-1.406c-0.777,0-1.406,0.63-1.406,1.406        c0,4.754,3.201,7.481,6.365,7.717c0.159,0.012,0.318,0.018,0.479,0.018c2.998,0,6.19-2.095,6.921-6.949        C225.805,126.896,225.275,126.18,224.507,126.065z"/>
						<path style="fill:#000E3F;" d="M244.339,147.927c-0.762-0.15-1.5,0.348-1.649,1.111c-0.684,3.51-3.823,6.046-7.475,6.046        c-0.015,0-0.029,0-0.043,0c-3.628-0.021-6.753-2.563-7.431-6.045c-0.148-0.763-0.89-1.262-1.649-1.111        c-0.762,0.148-1.259,0.886-1.11,1.648c0.932,4.793,5.211,8.292,10.174,8.32c0.021,0,0.038,0,0.059,0        c4.994,0,9.294-3.491,10.234-8.32C245.598,148.814,245.101,148.076,244.339,147.927z"/>
						<path style="fill:#000E3F;" d="M236.304,145.138c0.777,0,1.406-0.63,1.406-1.406c0-0.777-0.629-1.406-1.406-1.406        c-1.429,0-4.526-0.715-5.302-1.883c-0.136-0.206-0.233-0.466-0.018-0.978c0.089-0.211,5.56-13.15,5.56-13.15        c0.302-0.715-0.032-1.54-0.747-1.843c-0.714-0.301-1.54,0.032-1.842,0.747c-5.431,12.845-5.563,13.159-5.563,13.159        c-0.686,1.623-0.233,2.863,0.266,3.618C230.389,144.605,235.129,145.138,236.304,145.138z"/>
					</g>
				</g>
				<g>
					<g>
						<path style="fill:#DB5E43;" d="M274.19,130.472c-1.719,0-3.023-1.306-3.874-3.882c-1.495-4.518-3.453-9.232-7.625-13.1        c-5.321-4.932-10.21-7.199-14.936-9.392c-2.698-1.251-5.246-2.433-7.816-4.057c-0.878-0.555-1.598-1.049-2.192-1.487        c1.488,3.764,3.553,6.982,4.699,8.768c0.351,0.547,0.627,0.979,0.796,1.277c0.907,1.596,0.651,2.7,0.274,3.345        c-0.386,0.663-1.251,1.453-3.182,1.453c-5.217,0-16.197-5.896-20.731-17.644c-0.943,2.449-2.666,6.685-6.463,11.489        c-2.01,2.543-3.517,4.188-4.846,5.639c-2.683,2.93-4.802,5.244-9.582,13.357c-0.806,1.368-2.231,2.153-3.908,2.153        c-2.514,0-6.034-1.874-7.681-7.154c-7.638-24.513-0.517-39.401,4.407-46.094c5.517-7.5,13.654-11.977,21.764-11.977        c3.372,0,6.601,0.749,9.597,2.226c2.283,1.126,3.696,2.24,4.631,2.976c0.288,0.228,0.631,0.498,0.85,0.636        c0.033-0.03,0.074-0.069,0.122-0.119c5.176-5.323,12.292-8.254,20.041-8.254c11.023,0,22.17,5.911,29.089,15.427        c8.389,11.537,10.064,26.978,4.717,43.482c-0.362,1.119-3.671,10.932-8.148,10.933        C274.191,130.472,274.191,130.472,274.19,130.472z"/>
						<g style="opacity:0.45;">
							<path style="fill:#000E3F;" d="M240.992,76.156c-0.713-0.986-2.242-0.07-1.707,1.022         c6.796,13.891,22.73,10.815,34.813,40.899c0.186,0.463,0.681,0.75,1.189,0.652c0.576-0.111,0.953-0.668,0.842-1.245         c-0.89-4.619-2.447-9.164-4.727-13.37C261.587,85.879,248.441,86.434,240.992,76.156z"/>
							<path style="fill:#000E3F;" d="M212.715,72.41l0.017-0.008c1.085-0.504,0.514-2.154-0.651-1.878         c-12.267,2.899-25.444,24.417-20.67,44.368c0.118,0.483,0.565,0.837,1.08,0.814c0.586-0.026,1.041-0.522,1.015-1.109         c-0.159-4.142,0.167-8.231,0.889-12.225C196.367,91.938,203.088,76.882,212.715,72.41z"/>
							<path style="fill:#000E3F;" d="M243.789,71.126l0.021,0.003c18.565,3.029,26.879,9.053,30.498,28.033         c-0.083-0.141,0.131,0.846,1.012,0.876c0.587,0.02,1.079-0.44,1.099-1.027c0.654-19.379-12.985-31.129-32.533-29.87         C242.703,69.217,242.622,70.936,243.789,71.126z"/>
							<path style="fill:#000E3F;" d="M224.258,81.781c-0.602-2.558-1.438-7.425-1.438-7.425c-0.195-1.105-1.792-1.109-1.989,0         c-1.851,10.483,2.639,22.988,11.424,28.776c1.002,0.657,2.17-0.582,1.446-1.542         C233.807,101.73,227.365,94.643,224.258,81.781z"/>
							<path style="fill:#000E3F;" d="M212.323,80.832c-9.367,7.66-11.516,23.579-9.064,24.376c1.762,0.572,1.606-2.389,3.275-6.522         c5.116-14.628,8.305-16.385,7.22-17.711C213.398,80.541,212.758,80.477,212.323,80.832z"/>
							<path style="fill:#000E3F;" d="M231.612,73.43c-2.399-0.936-3.277,7.967,1.198,14.166l0.01,0.014         c0.178,0.245,0.453,0.418,0.777,0.459c3.251,0.404-0.105-10.978-1.389-14.056C232.101,73.754,231.893,73.539,231.612,73.43z"/>
						</g>
					</g>
					<path style="fill:#000E3F;" d="M248.533,62.035c20.895,0,43.836,21.989,32.469,57.07c-1.586,4.896-4.445,9.96-6.811,9.96       c-0.971,0-1.858-0.852-2.541-2.918c-1.757-5.313-3.925-9.91-8.004-13.69c-8.492-7.871-15.917-9.157-22.956-13.606       c-4.783-3.022-4.574-4.109-5.334-4.109c-0.076,0-0.16,0.01-0.261,0.031c1.538,6.853,5.984,12.865,6.925,14.52       c1.014,1.786,0.171,2.697-1.686,2.697c-4.738,0-16.081-5.935-20.008-18.428c-0.118-0.376-0.284-0.843-0.691-0.847       c-0.001,0-0.002,0-0.002,0c-1.02,0-1.528,5.976-7.597,13.654c-6.029,7.628-7.311,6.889-14.537,19.154       c-0.562,0.954-1.554,1.46-2.697,1.46c-2.22,0-5.011-1.91-6.338-6.168c-10.855-34.83,7.515-56.243,24.827-56.246       c3.084,0,6.13,0.678,8.976,2.081c3.972,1.959,5.083,3.826,6.148,3.826c0.336,0,0.668-0.186,1.084-0.613       C234.685,64.532,241.493,62.035,248.533,62.035 M248.533,59.224c-7.758,0-14.918,2.806-20.286,7.926       c-0.981-0.772-2.435-1.885-4.735-3.019c-3.191-1.573-6.628-2.371-10.216-2.371c-8.56,0.001-17.12,4.695-22.902,12.554       c-5.08,6.906-12.436,22.24-4.613,47.341c1.873,6.01,6.031,8.143,9.022,8.143c2.155,0,4.069-1.063,5.119-2.844       c4.705-7.986,6.78-10.252,9.407-13.121c1.346-1.469,2.871-3.134,4.913-5.718c2.634-3.332,4.299-6.393,5.403-8.808       c5.499,10.764,15.867,15.498,20.689,15.498c2.737,0,3.93-1.348,4.398-2.152c0.459-0.789,1.035-2.454-0.267-4.746       c-0.178-0.313-0.467-0.767-0.835-1.342c-0.639-0.996-1.573-2.451-2.524-4.195c2.027,1.135,4.069,2.082,6.059,3.005       c4.628,2.146,9.413,4.366,14.571,9.147c3.183,2.951,5.283,6.575,7.245,12.511c1.325,4.006,3.565,4.847,5.211,4.847       c5.222,0,8.581-9.112,9.485-11.905c5.49-16.943,3.743-32.833-4.918-44.743C271.58,65.357,259.998,59.224,248.533,59.224       L248.533,59.224z"/>
				</g>
			</g>
		</g>
	</g>
	<g>
		<path style="fill:#FD8A02;" d="M480.374,445.978l9.669-5.058c0.617-0.323,1.354-0.321,1.969,0.004l9.648,5.098    c1.551,0.819,3.368-0.495,3.075-2.225l-1.822-10.758c-0.116-0.687,0.113-1.387,0.613-1.872l7.83-7.6    c1.259-1.222,0.57-3.356-1.165-3.612l-10.795-1.592c-0.689-0.101-1.284-0.535-1.591-1.161l-4.809-9.795    c-0.773-1.575-3.016-1.579-3.795-0.008l-4.85,9.775c-0.309,0.624-0.906,1.056-1.596,1.154l-10.802,1.547    c-1.736,0.248-2.434,2.38-1.181,3.607l7.798,7.633c0.498,0.487,0.724,1.188,0.605,1.874l-1.867,10.751    C477.008,445.469,478.82,446.791,480.374,445.978z"/>
		<path style="fill:#FD8A02;" d="M30.552,77.993l7.208-6.402c0.46-0.409,1.092-0.565,1.689-0.417l9.36,2.309    c1.504,0.371,2.782-1.144,2.161-2.564l-3.861-8.833c-0.247-0.564-0.2-1.213,0.125-1.736l5.088-8.188    c0.818-1.316-0.229-2.999-1.771-2.847l-9.594,0.942c-0.612,0.06-1.215-0.185-1.612-0.655l-6.215-7.37    c-0.999-1.184-2.923-0.709-3.255,0.804l-2.069,9.416c-0.132,0.601-0.551,1.099-1.121,1.331l-8.929,3.634    c-1.435,0.584-1.578,2.56-0.241,3.344l8.316,4.877c0.531,0.311,0.874,0.864,0.919,1.478l0.697,9.615    C27.558,78.276,29.393,79.022,30.552,77.993z"/>
		<path style="fill:#FD8A02;" d="M16.065,163.045l7.121-4.375c0.454-0.279,1.017-0.317,1.505-0.101l7.641,3.385    c1.228,0.544,2.548-0.556,2.232-1.862l-1.961-8.124c-0.125-0.519,0.013-1.065,0.369-1.463l5.581-6.221    c0.897-1,0.258-2.595-1.081-2.698l-8.332-0.646c-0.532-0.041-1.009-0.342-1.277-0.803l-4.192-7.23    c-0.674-1.162-2.388-1.047-2.9,0.195l-3.189,7.725c-0.203,0.493-0.637,0.854-1.158,0.966l-8.172,1.752    c-1.313,0.282-1.734,1.947-0.711,2.819l6.361,5.42c0.406,0.346,0.616,0.87,0.561,1.4l-0.858,8.313    C13.466,162.834,14.92,163.749,16.065,163.045z"/>
		<path style="fill:#FD8A02;" d="M113.761,78.139l7.121-4.375c0.454-0.279,1.017-0.317,1.505-0.101l7.641,3.385    c1.228,0.544,2.547-0.556,2.232-1.862l-1.961-8.124c-0.125-0.519,0.013-1.066,0.369-1.463l5.581-6.221    c0.897-1,0.258-2.595-1.081-2.698l-8.332-0.646c-0.532-0.041-1.009-0.341-1.277-0.803l-4.192-7.23    c-0.674-1.162-2.388-1.047-2.9,0.195l-3.189,7.725c-0.204,0.493-0.637,0.855-1.158,0.967l-8.172,1.752    c-1.314,0.282-1.734,1.947-0.711,2.818l6.361,5.42c0.406,0.346,0.616,0.869,0.561,1.4l-0.858,8.313    C111.162,77.928,112.616,78.842,113.761,78.139z"/>
		<path style="fill:#FD8A02;" d="M400.148,488.618l7.121-4.376c0.454-0.279,1.017-0.317,1.505-0.101l7.641,3.385    c1.228,0.544,2.547-0.556,2.232-1.863l-1.961-8.124c-0.125-0.519,0.013-1.065,0.369-1.463l5.581-6.221    c0.897-1,0.258-2.595-1.081-2.699l-8.332-0.646c-0.532-0.041-1.009-0.341-1.277-0.803l-4.192-7.23    c-0.674-1.162-2.388-1.047-2.9,0.195l-3.189,7.725c-0.204,0.493-0.637,0.854-1.158,0.966l-8.172,1.752    c-1.314,0.282-1.734,1.947-0.711,2.819l6.361,5.42c0.406,0.346,0.616,0.87,0.561,1.4l-0.858,8.313    C397.549,488.407,399.003,489.322,400.148,488.618z"/>
		<path style="fill:#FD8A02;" d="M470.567,364.125l7.121-4.376c0.454-0.279,1.017-0.317,1.505-0.101l7.641,3.386    c1.228,0.544,2.547-0.556,2.232-1.863l-1.961-8.124c-0.125-0.519,0.013-1.065,0.369-1.463l5.581-6.221    c0.897-1,0.258-2.595-1.081-2.698l-8.333-0.646c-0.532-0.041-1.009-0.341-1.277-0.803l-4.192-7.23    c-0.674-1.162-2.388-1.047-2.9,0.195l-3.189,7.725c-0.203,0.493-0.637,0.854-1.158,0.966l-8.172,1.752    c-1.313,0.282-1.734,1.947-0.711,2.819l6.362,5.42c0.406,0.346,0.616,0.87,0.561,1.4l-0.858,8.313    C467.968,363.913,469.422,364.828,470.567,364.125z"/>
	</g>
</g>















</svg>
