<?xml version="1.0" encoding="UTF-8"?>
<!-- Generator: Adobe Illustrator 25.2.3, SVG Export Plug-In . SVG Version: 6.00 Build 0)  -->
<svg xmlns="http://www.w3.org/2000/svg" xmlns:xlink="http://www.w3.org/1999/xlink" version="1.1" id="Capa_1" x="0px" y="0px" viewBox="0 0 512 512" style="enable-background:new 0 0 512 512;" xml:space="preserve" width="512" height="512">
<g>
	<path style="fill:#FFDC9F;" d="M168.241,371.35c0,0-74.414-7.809-94.62-73.951c-20.21-66.142,5.968-129.067,87.726-34.91   l12.403,101.97l-4.132,6.891"/>
	<path style="fill:#091438;" d="M412.599,293.02l-8.729,78.329c0,0,16.537-7.348,19.291-5.054   c2.755,2.298-15.615,17.914-15.615,17.914s14.235-4.593,13.321,0c-0.918,4.595-22.507,11.486-22.507,11.486   s17.912,0.917,15.615,5.049c-2.294,4.136-50.067,2.298-50.067,2.298L412.599,293.02z"/>
	<path style="fill:#091438;" d="M412.599,293.02l-8.729,78.329c0,0,16.537-7.348,19.291-5.054   c2.755,2.298-15.615,17.914-15.615,17.914s14.235-4.593,13.321,0c-0.918,4.595-22.507,11.486-22.507,11.486   s17.912,0.917,15.615,5.049c-2.294,4.136-50.067,2.298-50.067,2.298L412.599,293.02z"/>
	<path style="fill:#091438;" d="M437.347,96.912l-138.442,96.681l-75.328,206.498l-37.433,10.556v0.03   c-2.839,2.783-5.017,4.326-5.953,3.856c-4.606-2.315-1.377-22.984-1.377-22.984s-12.87,8.736-13.342,2.315   c-0.442-6.254,10.336-15.928,11-16.507c-1.133,0.248-30.704,7.194-29.354,1.791c1.381-5.512,22.959-17.912,22.959-17.912   s-21.139-33.983-13.78-88.192c0,0-56.497-106.544-42.717-185.554c0,0,112.608-152.679,276.501-54.652   C414.471,47.418,429.357,69.824,437.347,96.912z"/>
	<path style="fill:#FFDC9F;" d="M379.525,503.167c0,0-224.111,51.095-193.381-92.49v-0.03   c10.967-10.804,31.969-40.235,31.247-43.901c-0.904-4.461-19.203,8.49-20.196,9.178c0.355-0.938,9.12-22.516,6.861-23.398   c-2.287-0.938-11.463,9.176-11.463,9.176l-22.516-92.322c0,0,32.604-3.225,47.761-38.583C232.996,195.438,170.077,93,170.077,93   s107.48-53.741,167.202,27.56c0,0,61.32,3.059,100.068-23.648c38.144,129.088-80.78,364.471-80.78,364.471   S390.549,460.915,379.525,503.167z"/>
	<path style="fill:#091438;" d="M348.521,246.299c0,0-25.491,43.061-27.56,110.581c0,0,28.595-6.891,30.664,16.19   c0,0-59.81-0.345-64.356-9.646c-4.546-9.299,8.201-21.012,16.128-8.611c0,0-18.947-2.757-12.057,7.923   c6.889,10.68,56.147,5.167,56.147,5.167s-2.973-10.701-30.311-9.989C317.175,357.914,318.896,275.235,348.521,246.299z"/>
	
		<rect x="242.909" y="231.429" transform="matrix(0.9946 -0.1034 0.1034 0.9946 -23.569 30.2611)" style="fill:#091438;" width="74.35" height="22.049"/>
	
		<rect x="377.258" y="211.606" transform="matrix(0.3437 -0.9391 0.9391 0.3437 25.3809 525.0105)" style="fill:#091438;" width="22.049" height="65.484"/>
	<g>
		<path style="fill:#FFFFFF;" d="M249.575,461.788l30.527-69.119c-1.059,0.058-3.797-0.921-4.751-1.355    c-10.242-4.294-4.926-30.158-4.722-31.729c-0.915,0.802-28.017,24.059-35.659,68.19    C230.016,456.247,235.627,466.959,249.575,461.788z"/>
		<path style="fill:#09103F;" d="M235.28,428.695c9.482-43.087,34.238-67.519,34.238-67.519s-5.056,31.423,7.498,32.48    c17.743,1.49,28.865-23.269,28.865-23.269s-17.543,24.457-28.081,19.989c-10.545-4.46-5.538-33.888-5.538-33.888    s-31.012,26.92-38.791,71.764c-7.758,44.83,14.422,44.749,44.121,13.113c0,0-24.129,22.773-36.004,20.814    C229.717,460.224,235.28,428.695,235.28,428.695z"/>
		<path style="fill:#09103F;" d="M274.943,358.24c0,0-3.163-3.1-16.523,3.851c0,0,8.916-8.968,18.222-6.502L274.943,358.24z"/>
		<polygon style="fill:#09103F;" points="244.59,462.319 276.611,391.405 275.351,391.313 243.33,462.222   "/>
		<polygon style="fill:#09103F;" points="234.066,449.56 272.012,383.766 270.798,383.583 232.863,449.369   "/>
		<polygon style="fill:#09103F;" points="239.389,412.686 270.629,374.223 269.525,373.883 238.291,412.347   "/>
		<path style="fill:#09103F;" d="M272.638,411.027c-7.997-0.427-13.754-3.173-17.103-8.161c-6.541-9.736-1.573-24.365-1.358-24.983    l1.584,0.549c-0.049,0.144-4.905,14.468,1.172,23.503c3.04,4.523,8.356,7.019,15.798,7.417L272.638,411.027z"/>
	</g>
	<g>
		<path style="fill:#FFFFFF;" d="M238.161,277.383l84.249,16.282C322.411,293.664,288.683,246.584,238.161,277.383z"/>
		<path style="fill:#091438;" d="M284.221,275.924c0,3.49-4.577,6.317-10.221,6.317c-5.644,0-10.218-2.827-10.218-6.317    c0-3.487,4.574-6.312,10.218-6.312C279.644,269.612,284.221,272.437,284.221,275.924z"/>
	</g>
	<g>
		<path style="fill:#FFFFFF;" d="M401.041,289.792l-68.146,4.278C332.895,294.07,368.938,252.803,401.041,289.792z"/>
		<path style="fill:#091438;" d="M370.11,284.233c0,3.487-4.574,6.316-10.214,6.316c-5.644,0-10.221-2.829-10.221-6.316    c0-3.488,4.577-6.317,10.221-6.317C365.536,277.915,370.11,280.744,370.11,284.233z"/>
	</g>
	<g style="opacity:0.1;">
		<path style="fill:#FFFFFF;" d="M152.035,86.102c62.414-38.563,151.201-52.058,188.454,27.11    c-38.572-77.016-124.867-62.006-185.433-22.501L152.035,86.102z"/>
		<path style="fill:#FFFFFF;" d="M172.213,63.153C230.724,26.571,305.922,22.73,340.488,93    C304.68,25.034,231.833,30.194,175.285,67.73L172.213,63.153z"/>
		<path style="fill:#FFFFFF;" d="M121.717,85.105c48.302-47.504,132.68-83.963,195.342-40.334    c-62.786-41.487-144.949-3.89-191.396,44.183L121.717,85.105z"/>
		<path style="fill:#FFFFFF;" d="M144.314,110.8c45.697,27.049,77.473,80.616,46.897,131.655    c28.122-50.849-3.894-101.884-49.564-126.831L144.314,110.8z"/>
		<path style="fill:#FFFFFF;" d="M133.809,138.516c40.359,8.979,62.175,43.581,55.101,83.795    c4.931-38.589-16.835-71.734-56.051-78.366L133.809,138.516z"/>
	</g>
	<path style="fill:#091438;" d="M85.816,285.543c0,0,6.296-29.46,26.87-21.7c20.569,7.758,44.99,74.603,19.499,82.956   c-25.494,8.353-21.633-31.731-12.68-37.004l-15.798-1.147l22.041-2.894c0,0-15.342,25.743-6.458,35.019   c8.891,9.28,29.749-1.668,16.178-38.446C111.582,237.603,85.816,285.543,85.816,285.543z"/>
</g>















</svg>
