<?xml version="1.0" encoding="UTF-8"?>
<!-- Generator: Adobe Illustrator 25.3.1, SVG Export Plug-In . SVG Version: 6.00 Build 0)  -->
<svg xmlns="http://www.w3.org/2000/svg" xmlns:xlink="http://www.w3.org/1999/xlink" version="1.1" id="Capa_1" x="0px" y="0px" viewBox="0 0 512 512" style="enable-background:new 0 0 512 512;" xml:space="preserve" width="512" height="512">
<g>
	<g style="opacity:0.45;">
		<path style="fill:#FD8A02;" d="M390.123,206.043c7.104-7.293,19.116-20.551,24.272-33.955c0.822-2.133,1.749-4.543,1.939-7.18    c0.499-1.873,0.204-3.616-0.155-5.084c-3.063-12.472-19.78-10.187-29.143-8.356c35.542-42.051,5.133-71.711-36.415-36.229    c7.388-35.499-14.108-37.483-42.315-14.18c-7.351,6.076-10.198,8.89-12.197,10.971c9.661-36.76-13.677-77.18-55.691-77.781    c-41.611-0.627-67.157,38.918-57.254,77.662c-3.704-3.726-9.744-9.273-20.401-16.883c-23.577-16.835-40.684-11.802-34.108,20.062    c-12.82-10.837-35.699-22.55-47.315-10.73c-11.529,11.735,0.177,34.407,10.938,47.104c-6.528-1.397-6.993-0.874-8.997-1.236    c-2.109-0.377-4.402-0.344-6.546-0.019c-2.148,0.327-1.895-0.03-5.367,1.014c-0.161,0.088-6.231,1.397-8.03,7.331    c-4.082,13.462,15.779,37.771,25.926,47.509c-39.469-9.929-77.318,15.521-77.892,55.783    c-0.607,42.346,39.544,66.817,77.816,57.053c-30.995,31.818-40.058,62.806,2.993,54.626c-8.601,9.906-16.392,24.86-15.474,36.149    c0.435,5.37,2.705,9.571,6.743,12.485c12.469,8.998,33.037-1.929,45.212-12.345c-1.138,5.478-2.472,13.545-0.181,21.189    c1.341,4.478,5.692,8.784,12.407,8.326c13.386-0.925,33.085-16.805,42.366-26.476c-9.981,39.885,15.813,77.252,55.474,77.819    c0.274,0.004,0.549,0.006,0.824,0.006c42.198-0.001,66.338-40.135,56.581-77.684c7.34,7.142,20.563,19.088,33.905,24.218    c2.238,0.862,4.553,1.752,7.178,1.94c4.081,1.084,11.024-1.018,13.392-7.567c2.673-7.387,1.241-15.974,0.031-21.808    c13.72,11.863,38.037,23.669,48.703,8.896c9.016-12.498-2.294-33.598-12.312-45.194c2.445,0.518,5.221,1.032,7.82,1.095    c1.486,0.038,1.875,0.591,6.188,0.341c0.938-0.055,2.033-0.292,2.724-0.326c7.678-0.372,13.281-5.83,12.749-13.356    c-0.652-9.222-8.728-21.984-15.445-30.11c-6.125-7.409-8.934-10.243-11.02-12.244c37.12,9.34,73.034-12.7,77.491-49.371    C472.767,226.499,432.734,195.166,390.123,206.043z M407.3,367.669c-2.147,0.962-3.148,0.999-4.115,1.034    c-2.44,0.09-2.472,0.698-5.712,0.203c-0.576-0.088-1.173-0.179-1.849-0.202c-18.012-0.63-55.182-18.962-69.176-25.863    c-4.908-2.421-6.477-3.749-8.326-1.905c-0.708,0.706-1.012,1.643-0.815,2.514c0.384,1.657,5.352,11.04,5.941,12.059    c1.185,2.047,12.519,27.709,13.976,31.455c7.563,19.468,8.182,25.858,8.779,32.037c0.08,1.167,0.434,2.977,0.119,5.06    c-0.612,3.889-0.63,7.152-3.863,8.75c-12.421,6.135-70.817-37.225-83.539-96.44c0.074-0.146,10.191-11.439,13.919-36.154    c0.253-1.679,0.445-3.309,0.646-4.055c3.97-0.957,23.82-2.505,39.168-13.849c0.397-0.293,0.834-0.616,1.102-0.783    c48.709,9.351,97.99,61.398,96.851,81.69C410.287,365.36,409.3,366.774,407.3,367.669z M377.567,398.867    c-0.714,4.886-18.037,0.066-38.525-23.205c-1.006-1.14-4.221-10.077-12.356-26.176c20.621,10.183,25.159,11.403,26.282,12.495    c2.7,2.63,8.821,7.299,16.558,17.728C375.54,387.816,378.246,394.262,377.567,398.867z M344.639,389.966    c35.975,32.4,54.532,12.833,22.182-22.603c9.085,3.299,9.251,2.964,10.306,4.068c6.409,6.701,21.142,23.845,19.56,38.29    c-0.62,5.675-5.188,9.729-11.107,9.862c-12.122,0.236-27.256-9.64-36.915-19.582c-0.776-0.798-0.846-0.946-1.876-3.939    C346.311,394.672,345.676,392.844,344.639,389.966z M241.084,484.622h-1.575c-42.895,0-63.704-45.413-46.465-81.945    c1.966-4.169,24.061-27.666,32.495-61.238c9.484,7.535,19.994,6.985,28.255-0.045c6.322,29.639,30.875,57.815,32.692,61.758    c8.794,19.078,7.574,41.366-3.181,58.166C273.951,475.933,259.001,484.167,241.084,484.622z M103.28,400.388    c-5.244-0.743,0.993-19.39,23.129-38.477c2.124-1.646,14.251-6.028,26.181-12.356c-12.082,24.045-9.429,22.888-14.706,28.705    C135.549,380.841,113.593,401.854,103.28,400.388z M102.123,371.482c1.168-1.135,0.915-0.739,10.189-4.081    c-31.995,34.022-14.151,55.741,22.446,22.275c-3.264,8.942-2.941,9.196-4.064,10.268c-8.322,7.96-24.332,21.082-38.289,19.56    c-5.764-0.632-9.728-5.095-9.861-11.108C82.272,396.303,92.183,381.143,102.123,371.482z M161.531,344.845    c0.277-0.534,0.926-1.783,0.07-3.371c-1.576-2.905-4.807-0.851-9.858,1.818c-16.199,8.557-62.483,31.045-79.426,24.519    c-17.173-6.606,31.889-73.067,93.385-86.262c7.745,4.653,15.177,11.003,38.066,14.174c0.916,0.127,1.861,0.258,2.285,0.382    c0.266,1.113,1.575,17.971,10.071,33.477c2.306,4.21,3.865,5.901,4.48,6.763c-9.969,50.918-63.06,97.774-80.834,96.974    c-2.413-0.1-5.697-0.932-6.343-6.969C130.988,403.56,153.976,359.367,161.531,344.845z M24.79,289.684    c-6.421-10.53-7.27-18.778-7.306-29.463c-0.075-21.297,15.857-45.262,46.449-49.861c14.556-2.193,32.585,3.009,37.156,6.458    c7.302,5.503,14.641,11.367,24.309,16.677c20.138,11.059,30.642,13.835,35.299,14.861c-2.315,2.878-4.535,6.04-5.204,11.182    c-1.078,8.279,2.282,13.356,5.218,17.082c-22.064,5.442-41.626,17.479-59.603,31.506c-2.024,1.58-9.419,4.159-14.43,5.324    C61.855,319.216,36.979,309.668,24.79,289.684L24.79,289.684z M71.993,157.282c18.859-8.507,76.318,23.194,85.813,27.307    c1.861,0.807,2.941,0.244,3.518-0.37c1.536-1.636,0.647-3.379-3.096-10.712c-8.29-16.248-30.515-61.67-23.855-78.52    c6.758-17.077,73.032,32.333,86.219,93.595c-1.587,2.823-10.597,11.745-14.397,39.385c-0.066,0.483-0.121,0.754-0.161,0.905    c-0.481,0.111-13.458,1.252-26.417,6.652c-11.206,4.67-12.86,7.718-13.96,7.856c-45.972-8.719-94.782-57.082-96.756-79.78    l-0.005-0.966C68.861,160.122,69.524,158.395,71.993,157.282z M101.775,125.917L101.775,125.917    c0.332-2.212,4.824-1.521,6.959-0.865c12.796,3.933,27.329,19.498,31.479,24.174c0.846,0.956,0.933,2.197,12.393,26.204    c-4.066-2.041-11.448-5.665-24.678-11.528C123.817,162.081,99.905,138.484,101.775,125.917z M134.723,135.122    c-34.19-32.413-55.636-13.676-22.413,22.402c-8.999-3.191-9.185-3.025-10.127-4.011c-25.781-26.96-23.394-47.818-8.454-48.152    c15.503-0.326,36.704,17.314,38.004,21.296C132.623,129.38,133.701,132.364,134.723,135.122z M284.026,64.925    c9.93,16.556,10.888,37.728,2.566,56.635c-2.504,5.686-15.198,16.118-28.547,48.441c-2.727,6.607-3.739,10.943-4.271,13.517    c-9.07-7.559-20.081-6.816-28.228-0.156c-2.812-11.335-9.807-27.916-18.981-42.013c-10.684-16.42-11.771-14.77-14.594-21.494    c-8.397-20.026-6.373-41.744,5.414-58.092C217.719,33.561,263.826,31.245,284.026,64.925z M326.685,175.417    c9.582-19.276,11.312-25.077,12.488-26.267c2.514-2.55,7.219-8.804,17.942-16.709c5.064-3.732,12.757-8.689,18.995-7.867    c1.795,0.238,1.505,5.242,0.93,7.082c-3.241,10.407-14.633,23.067-24.154,31.396c-0.896,0.644-7.584,3.647-10.167,4.743    C335.156,171.007,329.96,173.695,326.685,175.417z M367.149,157.487c8.443-9.374,23.274-29.374,13.397-37.147    c-1.341-1.057-2.542-1.745-5.834-1.745c-10.444,0-22.603,9.683-30.132,16.591c3.268-8.96,2.933-9.134,4.034-10.186    c6.701-6.409,23.84-21.158,38.289-19.56c5.764,0.632,9.728,5.096,9.861,11.108c0.272,12.092-9.639,27.253-19.579,36.914    C376.005,154.607,376.245,154.209,367.149,157.487z M326.917,161.634c-6.779,16.2-11.543,19.581-8.956,22.269    c2.5,2.603,5.111-0.928,30.029-12.009c13.977-6.23,44.743-20.256,59.113-14.717c17.769,6.852-35.933,75.766-93.477,86.187    l-0.517-0.348c-19.276-13.034-36.545-13.262-39.839-14.163c-0.482-1.733-0.231-7.43-4.572-20.78    c-4.662-14.335-9.642-18.073-9.962-19.571c11.221-58.671,84.151-116.982,87.161-89.78    C348.021,117.899,333.669,145.512,326.917,161.634z M267.381,295.285c-4.227,41.319-30.438,61.892-46.82,30.11    c-4.666-9.053-7.085-18.941-8.498-29.108c-0.789-5.697-1.066-5.434-5.564-6.078c-60.192-8.623-61.193-47.478,1.835-55.719    c3.055-0.399,3.373-2.948,3.775-6.176c6.202-49.721,38.52-61.323,51.875-15.516c5.991,20.538,0.673,20.833,8.976,21.972    c14.87,2.039,35.387,7.426,43.16,20.267c2.629,4.347,1.079,13.215-0.373,15.484c-8.777,13.702-32.761,18.285-42.666,19.618    C268.854,290.707,267.853,290.671,267.381,295.285z M318.555,276.671c12.414-15.44,0.024-28.199,0.012-28.343    c29.442-6.396,58.492-31.146,61.309-32.473c37.675-17.733,83.136,4.923,82.116,47.939c-0.439,18.473-10.702,41.033-38.189,48.953    c-21.654,6.237-42.133-1.934-45.694-4.687C360.102,294.137,340.84,282.135,318.555,276.671z"/>
		<path style="fill:#FD8A02;" d="M176.595,227.36c0.651-0.005,3.959-0.121,5.167-1.977c0.509-0.782,0.584-1.727,0.204-2.599    l-0.066-0.16c-0.59-1.472-6.004-9.996-18.47-21.999c-6.28-6.048-19.821-14.048-28.353-12.611    c-2.502,0.427-2.911-0.023-6.584,1.409c-3.857-2.755-13.703-13.609-28.706-18.139c-4.697-1.417-10.654-1.072-12.624,3.036v0.001    C80.203,188.848,128.08,227.681,176.595,227.36z M92.438,177.073c0.895-0.913,3.319-0.739,4.631-0.436    c10.517,2.433,19.745,10.424,27.227,17.047c0.83,0.727,3.036,2.654,5.867,1.394c10.677-4.751,25.509,5.317,32.875,13.246    c5.923,6.377,6.363,6.92,11.096,13.142c-21.704-0.205-46.879-9.579-66.397-24.846C97.887,188.918,90.786,178.769,92.438,177.073z     M176.904,222.513l0.014,0.619h-0.001l-0.018-0.627C176.901,222.508,176.903,222.51,176.904,222.513z"/>
		<path style="fill:#FD8A02;" d="M166.604,151.291c-1.12,2.76-1.883,7.752-1.252,10.752c0.036,0.311,0.039,1.88,0.465,3.243    c4.345,13.925,12.032,22.346,23.841,32.188c1.661,1.385,6.447,5.099,9.843,7.113c1.991,1.179,4.701,0.147,5.014-4.631    c0.122-4.813-0.589-11.28-0.9-13.836c-4.922-40.501-32.491-72.51-45.864-76.442c-5.942-1.747-9.56,1.871-9.939,6.169    c-0.974,11.012,10.111,25.988,16.813,33.1C164.978,149.321,166.487,151.148,166.604,151.291z M161.139,135.225    c-6.344-9.247-9.769-20.181-6.059-20.03c8.949,0.389,42.159,35.571,43.472,81.679c-10.279-7.496-21.848-17.693-26.619-31.611    c-1.059-3.088-1.182-8.897,0.332-12.294C174.356,148.277,169.265,147.066,161.139,135.225z"/>
		<path style="fill:#FD8A02;" d="M280.401,320.669c-1.503-0.994-2.684-0.78-3.414-0.425c-1.882,0.92-2.073,3.422-2.2,5.078    c-0.084,1.098,0.149,5.991,0.366,7.699c1.056,8.328,1.461,22.501,12.009,43.274c6.48,12.758,21.184,35.373,35.206,39.213    c6.284,1.723,10.964-4.237,8.816-11.853c-3.691-13.105-10.546-20.942-18.482-30.003    C320.187,354.244,297.806,332.194,280.401,320.669z M308.807,378.23c7.917,8.474,12.891,15.921,15.652,23.435    c0.699,1.906,1.372,3.939,1.232,5.995c-0.149,2.186-0.888,2.204-1.284,2.213c-9.378,0-41.104-37.612-43.066-73.206    c-0.141-2.546-0.568-5.762-0.697-8.777c6.241,4.568,16.702,13.581,22.076,22.001c6.061,9.496,6.28,15.609,4.314,22.192    C306.288,374.577,306.43,375.686,308.807,378.23z"/>
		<path style="fill:#FD8A02;" d="M297.359,302.237c1.743,3.953,21.686,32.53,43.339,34.684c1.621,0.161,1.756,0.328,3.723-0.03    c2.602-0.471,1.476,0.35,6.402-1.368c4.418,3.659,6.31,6.066,14.373,11.36c24.104,15.827,37.622,3.748,19.249-14.549    C348.075,296.11,292.643,291.85,297.359,302.237z M310.346,303.888c31.797,0,73.763,29.44,76.706,43.064    c0.137,0.636-0.041,0.811-0.136,0.905c-0.62,0.608-2.564,0.937-4.758,0.43c-10.524-2.435-20.202-10.895-25.401-15.439    c-2.092-1.828-3.576-3.418-5.627-3.418c-1.155,0-2.026,0.486-2.598,0.686c-15.522,5.403-33.792-13.346-43.476-26.659    C308.432,303.435,307.654,303.888,310.346,303.888z"/>
		<path style="fill:#FD8A02;" d="M181.983,302.093c0.53-1.265-0.167-3.059-1.407-3.623c-0.14-0.01-3.036-1.688-11.351-0.513    c-1.891,0.267-3.915,0.294-5.971,0.554c-42.562,5.367-77.193,36.102-76.898,49.521c0.078,3.536,2.5,6.347,8.163,6.347    c11.559,0,25.336-11.112,33.947-18.861c11.502,4.626,25.66-2.547,34.787-11.018C174,314.528,181.006,304.428,181.983,302.093z     M103.41,346.068c-33.221,14.785,13.702-41.63,70.689-42.565c-8.761,11.575-17.393,21.446-30.889,26.441    c-3.189,1.181-8.697,1.516-12.488,0.121c-2.426-0.893-3.86-1.055-6.55,1.313C117.66,337.157,111.786,342.341,103.41,346.068z"/>
		<path style="fill:#FD8A02;" d="M170.682,406.398c11.107-11.091,14.081-16.987,21.876-30.892    c7.142-12.682,12.393-34.89,11.953-50.563c-0.117-4.109-2.584-5.672-4.591-4.775c-1.455,0.675-2.169,1.243-5.387,3.552    c-6.89,4.944-11.36,9.412-16.924,15.185c-3.617,3.752-7.474,9.687-9.827,15.12c-2.946,6.802-2.317,8.833-2.488,9.485    c-0.602,2.265,0.003,3.432,0.078,4.887c0.119,2.281,0.693,3.817,1.23,5.256c-3.09,3.862-13.737,14.047-18.147,28.723    c-1.498,4.983-0.831,9.362,1.783,11.712C155.797,419.085,165.367,411.706,170.682,406.398z M172.25,371.933    c-4.547-10.168,4.345-24.792,14.53-34.077c3.656-3.329,8.878-7.805,11.873-10.005c-0.297,8.483-1.787,16.523-2.678,20.913    c-5.391,26.558-28.148,57.912-40.571,61.059c-2.08,0.532-2.063-2.721-1.58-4.787c2.538-10.809,11.227-20.628,15.895-25.904    C171.607,376.98,173.628,375.013,172.25,371.933z"/>
		<path style="fill:#FD8A02;" d="M304.575,212.56c-1.421,1.706-5.145,6.599-6.725,9.157c-1.432,2.319-0.665,4.605,2.286,5.283    c2.651,0.609,8.403,0.335,10.186-0.082c5.874-1.136,36.973-0.416,71.981-31.918c4.231-4.763,8.582-8.9,10.36-15.152    c0.693-2.436,0.141-5.92-2.243-7.581c-10.448-7.276-29.901,8.816-39.607,17.1c-4.059-1.534-10.077-1.893-13.817-0.774    C323.163,192.731,314.335,200.832,304.575,212.56z M317.352,207.228c7.942-7.62,13.78-10.573,20.102-12.662    c1.983-0.656,3.353-0.515,5.852-0.554c7.592-0.137,6.554,4.326,13.064-1.568c2.33-2.109,5.85-5.295,10.64-8.562    c5.59-3.813,13.61-7.779,18.009-7.452c0.421,0.031,1.81,0.174,2.004,0.743c0.721,2.12-4.178,9.583-11.814,16.397    c-5.922,5.285-13.109,9.8-16.868,12.022c-27.605,16.321-46.683,14.835-50.063,15.627c-0.981,0.23-2.049,0.246-3.18,0.248    C308.158,217.348,315.162,209.331,317.352,207.228z"/>
		<path style="fill:#FD8A02;" d="M328.12,110.16c-3.288-1.836-6.063-0.848-8.857,0.425c-5.797,2.641-14.059,10.999-16.869,14.434    v0.001c-17.8,21.814-27.866,49.031-27.616,74.671c0.041,4.72,2.808,6.054,4.964,4.941c3.574-1.839,17.019-11.874,24.884-22.143    c7.295-9.523,12.089-19.946,8.082-31.198c3.178-3.911,5.839-5.968,11.34-14.333C328.965,129.475,336,114.556,328.12,110.16z     M308.084,157.567c0.019,3.036,0.513,5.035-1.704,10.504c-4.602,11.351-15.56,21.555-25.678,28.959    c0.458-33.536,21.254-66.321,34.425-76.446c2.285-1.756,10.045-8.418,10.496-4.197c0.702,6.583-5.38,17.591-16.687,30.2    C304.296,151.762,308.051,152.292,308.084,157.567z"/>
		<path style="fill:#FD8A02;" d="M242.653,247.211c9.72-9.366,16.67-28.487,11.525-42.023c-5.839-15.351-23.556-15.278-29.21,0.466    c-4.965,13.833,2.18,32.321,11.648,41.517C238.809,249.301,240.445,249.338,242.653,247.211z M246.276,202.965    c4.725,5.875,3.972,14.445,3.088,19.081c-0.595-0.556-1.322-1.356-1.994-2.284c-5.622-7.773-3.708-12.51-7.714-12.51    c-2.167,0-2.637,1.691-3.078,2.964c-0.868,2.503-2.997,8.64-6.647,11.754c-2.187-9.943,1.099-22.523,9.939-22.305    C242.335,199.723,244.61,200.895,246.276,202.965z M239.635,218.33c1.733,3.498,4.709,7.664,8.125,9.777    c-0.995,3.423-3.575,8.512-8.196,13.792c-2.425-2.353-7.396-10.847-8.015-13.781C234.678,226.093,237.389,222.81,239.635,218.33z"/>
		<path style="fill:#FD8A02;" d="M253.991,260.582c-0.864,1.096-0.863,2.687,0.003,3.784c3.863,4.9,11.381,9.26,17.117,11.406    c5.41,2.024,14.484,2.655,18.632,2.655c5.708,0,12.601-2.949,16.227-8.259c2.176-3.185,2.945-6.798,2.167-10.174    C303.321,239.103,266.784,244.271,253.991,260.582z M273.992,254.394c2.171,3.388,6.13,6.216,9.773,8.069    c-3.58,1.78-7.379,4.564-9.717,8.095c-5.665-1.972-10.894-5.303-13.773-8.023C264.353,258.967,268.103,256.43,273.992,254.394z     M280.108,272.224c4.192-4.724,11.988-6.536,13.444-7.328c1.715-0.931,1.816-3.665,0.183-4.731    c-1.567-1.02-9.876-2.831-13.684-7.464c12.272-2.697,25.237,3.172,22.042,12.154C300.061,270.563,291.923,274.76,280.108,272.224z    "/>
		<path style="fill:#FD8A02;" d="M224.393,259.473c-11.824-12.267-30.882-15.586-41.758-11.619    c-19.328,7.043-13.834,30.912,9.96,30.912c11.351,0,24.035-5.304,31.759-13.255C226.496,263.304,226.507,261.668,224.393,259.473z     M205.288,254.367c3.595,1.049,9.052,3.973,13.754,8.11c-4.975,4.404-8.384,6.051-13.813,8.064    c-1.066-1.594-3.19-4.742-9.703-8.053C198.978,260.769,203.192,257.781,205.288,254.367z M186.231,259.753    c-1.955,0.732-2.545,3.413-0.705,5c1.452,1.254,8.299,1.803,13.696,7.456c-13.401,2.929-24.754-3.641-22.014-12.074    c2.485-7.66,13.303-8.979,21.981-7.37C195.964,256.6,189.679,258.458,186.231,259.753z"/>
		<path style="fill:#FD8A02;" d="M242.174,277.314c-0.907-0.89-2.771-2.068-5.056-0.004c-9.838,8.873-17.19,28.46-12.009,42.381    c7.789,20.919,35.714,12.222,30.132-17.594C253.417,292.358,249.02,284.02,242.174,277.314z M249.159,316.261    c-2.178,9.107-11.242,11.875-16.234,5.658c-3.325-4.14-4.477-11.614-3.007-18.983c5.367,5.261,6.262,11.684,7.257,13.378    c0.999,1.697,3.655,1.941,4.831,0.165c0.814-1.236,2.728-9.566,7.4-13.531c0.421,3.346,0.426,1.46,0.638,6.037    C250.045,308.985,250.298,311.512,249.159,316.261z M239.65,306.578c-1.786-3.551-4.555-7.395-8.076-9.736    c2.081-5.959,5.424-11.044,8.078-13.809c3.658,3.927,6.182,8.821,8.111,13.812C247.656,296.916,241.561,302.756,239.65,306.578z"/>
		<path style="fill:#FD8A02;" d="M248.725,262.471c0.026-0.01,0.051-0.016,0.078-0.026c6.236-2.563,10.07-7.065,11.393-13.378    c0.406-1.93-0.111-3.572-0.536-4.638c-2.42-6.083-16.629-1.139-19.994,8.995c-2.331-5.956-6.839-10.112-13.409-11.494    c-1.926-0.407-3.568,0.109-4.634,0.53c-6.567,2.59-0.37,18.892,11.456,20.579c-5.331,1.891-12.709,7.107-13.923,12.633    c-0.503,2.291,0.001,5.949,2.695,6.909c0.924,0.329,1.926,0.489,2.972,0.489c5.674,0,12.54-4.773,14.776-11.666    c0.186,0.531,0.401,1.066,0.665,1.618c4.484,9.377,15.071,12.006,18.475,8.801c1.527-1.437,1.621-3.611,1.561-5.12    C260.095,271.613,255.566,265.081,248.725,262.471z M239.626,263.602c-0.306-0.402-0.719-0.755-1.276-0.993    c0.527-0.296,0.972-0.706,1.302-1.216c0.283,0.429,0.646,0.794,1.083,1.077C240.284,262.763,239.913,263.149,239.626,263.602z     M234.55,267.64c-0.169,3.468-4.447,9.307-9.408,9.351C225.204,272.459,230.411,267.806,234.55,267.64z M225.124,247.885    c4.592,0.183,9.194,5.53,9.424,9.403c-3.59-0.061-6.754-3.136-8.457-5.931v-0.001C225.446,250.3,225.084,249.383,225.124,247.885z     M244.764,267.664c4.219,0.137,9.184,4.747,9.395,9.337c-0.005,0-0.01,0-0.015,0c-1.195,0-2.296-0.305-3.346-0.922    C246.31,273.438,244.871,269.341,244.764,267.664z M254.171,247.95c-0.363,5.113-5.703,9.307-9.447,9.355    C245.038,253.601,249.351,247.981,254.171,247.95z"/>
		<path style="fill:#FD8A02;" d="M215.398,148.703c8.384,13.719,16.409,19.782,21.203,23.404c0.53,0.339,2.529,2.586,4.837,0.962    c25.447-17.962,37.542-50.72,35.959-74.188c-2.9-42.828-37.458-54.623-59.427-36.628    C194.225,81.709,199.236,122.255,215.398,148.703z M253.281,63.659c12.215,6.826,18.123,20.619,18.06,42.166    c-0.023,7.871-2.411,16.952-4.805,23.778c0.161-16.978-7.477-41.893-23.973-44.834c-19.137-3.417-30.155,25.152-29.792,44.773    c-7.361-20.936-7.993-47.478,7.728-61.776C229.637,59.46,242.807,57.808,253.281,63.659z M239.656,90.216    c11.303,0,18.964,18.473,20.371,30.478c0.338,2.854,0.817,5.668,0.616,8.004c-0.003,0.141-0.01,0.473-0.007,0.332    c0.031,5.172-0.25,4.738-0.401,6.159c-0.117,5.009-2.653,12.603-4.246,14.906c-5.783,8.357-12.078,13.569-16.335,16.978    c-6.343-5.107-10.184-8.368-16.494-17.213c-1.306-1.829-2.793-6.675-3.529-10.306C215.427,118.853,225.65,90.216,239.656,90.216z"/>
		<path style="fill:#FD8A02;" d="M252.09,360.87c-3.061-3.204-7.167-6.346-10.165-8.64c-0.141-0.056-1.952-1.873-4.147-0.294    c-30.626,22.035-42.003,63.598-32.664,91.698c6.974,20.984,25.68,29.97,40.583,26.54c20.465-4.716,29.963-21.616,31.46-42.235    c0.022-0.312,0.037-0.541,0.053-0.677C278.615,420.67,277.198,387.144,252.09,360.87z M260.268,401.846    c-1.19,12.048-6.122,26.795-16.389,32.05c-14.56,7.456-33.477-28.721-21.642-57.066c1.229-2.945,8.428-12.146,17.43-18.932    c8.755,6.506,15.929,15.673,17.372,18.873v0.001C259.445,382.105,260.665,397.845,260.268,401.846z M212.767,395.419    c0.058,18.321,7.854,42.589,26.047,45.386l0.732,0.113c0.406-0.066,0.296-0.06,1.449-0.231    c17.75-2.613,25.774-27.924,25.502-45.373c15.102,42.691-5.352,71.837-29.446,69.42    C214.863,462.497,199.089,434.549,212.767,395.419z"/>
		<path style="fill:#FD8A02;" d="M421.55,228.234c-20.07-7.135-46.912-3.158-68.394,10.133c-13.256,8.2-18.74,15.343-24.043,22.249    c-0.82,1.068-0.833,2.546-0.031,3.677l0.001,0.001c18.121,25.566,54.453,40.649,84.698,34.569    C456.397,290.293,459.339,241.669,421.55,228.234z M335.087,262.457c7.211-9.456,15.734-15.93,18.763-17.322    c26.191-12.034,64.998,6.367,57.229,21.557c-7.516,14.695-40.783,17.045-43.679,16.414l-0.394-0.047    c-2.908-0.074-8.051-1.04-13.76-3.528c-1.598-0.696-8.578-5.924-14.857-12.899C337.222,265.333,336.17,263.879,335.087,262.457z     M417.435,263.974c1.019-10.214-7.105-19.342-21.73-24.418c-9.436-3.275-16.905-4.055-23.165-3.954    c6.493-2.286,16.221-4.808,22.847-4.784c4.309,0.038,2.517-0.624,6.58-0.156c0.654,0.075,1.17,0.136,1.598,0.13    c15.23-0.172,33.251,8.712,37.273,23.793c7.201,27.002-22.639,50.678-68.27,34.803    C390.122,289.525,415.695,281.428,417.435,263.974z"/>
		<path style="fill:#FD8A02;" d="M96.546,298.406c21.922-4.649,39.96-16.095,53.611-34.019c0.893-1.172,0.879-2.629-0.036-3.895    c-15.773-21.862-42.849-35.612-70.69-35.901c-1.622-0.171-3.361,0.29-4.98,0.327c-11.104,0.243-26.889,5.347-35.307,15.977    c-9.325,11.773-10.318,26.829-2.591,39.292C48.555,299.547,74.249,303.135,96.546,298.406z M126.775,279.148    c-2.169,1.532-12.475,5.308-26.515,3.935c-21.847-2.146-37.138-14.691-32.067-24.751c7.515-14.919,36.521-20.173,53.51-14.628    c1.653,0.54,4.488,1.661,5.614,2.465c6.802,4.853,12.185,10.037,16.906,16.286C139.562,268.76,134.144,273.938,126.775,279.148z     M61.292,261.92c-0.414,4.863,3.084,12.648,11.741,18.248c10.119,6.542,23.12,9.265,33.569,9.218    c-6.943,2.438-15.853,4.883-22.298,4.734c-2.215-0.053-7.335,1.066-17.839-1.083c-43.197-8.838-38.17-62.512,12.798-62.554    c9.147,0.578,15.409,0.789,27.544,5.108C88.838,235.361,62.817,243.99,61.292,261.92z"/>
		<path style="fill:#FD8A02;" d="M242.093,153.995c13.587-13.644,13.417-27.945,13.551-28.328c0,0,0,0,0,0    c0.438-1.965-0.09-2.906-0.145-4.282c-0.128-3.018-1.085-6.046-2.931-9.259c-3.542-6.172-11.028-8.811-14.618-7.908    c-20.474,5.113-17.368,33.261-0.812,49.713C237.903,154.693,240.626,155.466,242.093,153.995z M231.727,115.235    c2.799-4.32,7.182-6.598,11.627-4.144c10.7,5.916,6.631,25.228-2.815,35.955c-0.291,0.33-0.63,0.79-0.918,1.155    c-4.336-4.516-10.034-15.006-9.961-22.978C229.665,121.366,229.574,118.556,231.727,115.235z"/>
		<path style="fill:#FD8A02;" d="M237.136,371.016c-3.919,3.97-6.948,7.76-9.936,14.38c-3.313,7.338-3.103,11.38-3.488,13.571    c-0.433,2.462-0.003,2.995,0.111,4.736c0.255,3.848,1.634,7.496,4.096,10.843v0.001c3.373,4.583,9.989,6.933,13.226,6.221    c20.475-4.466,17.891-32.964,0.955-49.817C241.191,370.047,238.681,369.451,237.136,371.016z M249.58,403.589    c-0.531,7.561-7.419,12.113-10.506,11.35c-14.72-3.64-10.355-25.386-0.305-37.036c0.297-0.345,0.624-0.791,0.908-1.154    c3.827,4.059,10.48,14.944,9.912,23.836l-0.004,0.134C249.586,401.722,249.643,402.701,249.58,403.589z"/>
		<path style="fill:#FD8A02;" d="M348.298,265.098c3.828,3.755,7.494,6.681,13.935,9.666c7.875,3.65,12.045,3.288,15.047,3.818    c0.754,0.132,1.661-0.014,2.498-0.14c2.466-0.37,5.217-0.186,10.208-3.047c6.184-3.547,8.823-11.024,7.924-14.615    c-5.263-20.976-33.626-16.637-49.279-1.252c-0.199,0.253-1.591,1.212-1.591,2.931    C347.039,263.863,347.986,264.793,348.298,265.098z M392.009,263.521c-3.758,13.843-25.32,10.062-36.93-0.167    c-0.336-0.296-0.779-0.62-1.14-0.905c2.682-2.493,8.308-6.247,14.094-8.297c4.282-1.517,7.624-1.94,12.774-1.602    C388.363,253.04,392.981,259.93,392.009,263.521z"/>
		<path style="fill:#FD8A02;" d="M81.426,260.648c-0.97,3.831,1.745,10.651,6.831,14.044c12.709,8.478,31.787,1.437,42.684-9.516    c2.322-2.335,1.056-4.331,0.093-5.313C115.337,243.844,86.666,239.956,81.426,260.648z M89.649,256.915    c2.897-3.216,7.035-4.535,11.568-4.535c8.921,0,17.322,4.456,24.127,10.163c-4.761,4.516-15.533,10.332-23.378,9.94    c-2.007-0.037-4.008-0.013-5.882-0.496c-3.61-0.933-7.847-3.821-8.915-9.131C86.916,261.589,88.19,258.536,89.649,256.915z"/>
	</g>
	<g>
		<g>
			<g>
				<g>
					<path style="fill:#FC09B2;" d="M239.427,313.748c-7.206-0.082-14.412-0.138-21.617-0.266c-2.628-0.047-6.776-0.692-7.607-0.699       c-5.465-0.043-17.774-2.018-18.294-2.182c-0.911-0.288-1.629-0.849-1.864-1.786c-2.378-9.475-9.264-26.526-9.299-37.914       c-0.011-3.483-1.399-1.712-0.715-21.554c0.245-7.108,2.268-12.289,6.506-41.298c1.548-10.596-0.045-15.575-0.193-22.87       c-0.02-0.963,0.493-1.739,1.322-2.213c2.956-1.689,18.313-7.466,19.502-5.435c0.375,0.641,0.733,1.309,0.973,2.009       c9.136,26.599,49.545,29.765,62.139,1.829c1.815-4.025,0.829-5.014,5.365-3.953c4.829,1.13,9.561,2.595,14.09,4.639       c2.978,1.344,3.237,1.852,3.079,5.21c-0.27,5.766-3.283,11.408,4.261,47.677c0.579,2.783,0.766,5.646,1.284,8.445       c1.419,7.669,1.06,21.974,0.301,25.118c-0.833,3.457,1.046,4.346-3.914,21.636c-2.359,8.221-2.686,7.726-5.592,18.513       c-0.304,1.13-1.083,1.795-2.197,2.006c-12.587,2.392-17.487,1.863-19.197,2.226c-4.013,0.851-7.431,0.712-28.331,0.712       C239.427,313.647,239.427,313.698,239.427,313.748z"/>
					<g>
						<path style="fill:#FFFFFF;" d="M288.49,226.668l-3.281-1.386c-0.209-0.088-0.362-0.274-0.408-0.497l-0.718-3.489        c-0.115-0.561-0.824-0.745-1.199-0.313l-2.332,2.692c-0.149,0.172-0.372,0.259-0.598,0.234l-3.54-0.395        c-0.569-0.064-0.964,0.553-0.668,1.043l1.84,3.05c0.118,0.195,0.132,0.435,0.038,0.642l-1.469,3.244        c-0.236,0.522,0.228,1.088,0.786,0.958l3.469-0.807c0.222-0.052,0.454,0.009,0.622,0.162l2.631,2.4        c0.423,0.386,1.105,0.119,1.153-0.451l0.305-3.548c0.02-0.226,0.149-0.429,0.347-0.542l3.095-1.761        C289.06,227.622,289.017,226.891,288.49,226.668z"/>
						<path style="fill:#FFFFFF;" d="M277.586,196.819c0.118,0.195,0.132,0.435,0.038,0.641l-1.469,3.244        c-0.236,0.522,0.228,1.087,0.786,0.958l3.469-0.807c0.222-0.051,0.454,0.009,0.622,0.163l2.631,2.4        c0.423,0.386,1.105,0.119,1.153-0.451l0.305-3.549c0.02-0.227,0.149-0.429,0.347-0.541l3.095-1.761        c0.498-0.283,0.455-1.014-0.073-1.237l-3.281-1.386c-0.209-0.088-0.362-0.274-0.408-0.497l-0.718-3.488        c-0.115-0.561-0.824-0.746-1.199-0.313l-2.332,2.692c-0.149,0.172-0.372,0.259-0.598,0.234l-3.54-0.395        c-0.569-0.063-0.964,0.553-0.668,1.043L277.586,196.819z"/>
						<path style="fill:#FFFFFF;" d="M288.49,288.245l-3.281-1.386c-0.209-0.089-0.362-0.274-0.408-0.497l-0.718-3.488        c-0.115-0.561-0.824-0.746-1.199-0.313l-2.332,2.692c-0.149,0.171-0.372,0.259-0.598,0.234l-3.54-0.395        c-0.569-0.063-0.964,0.553-0.668,1.043l1.84,3.05c0.118,0.195,0.132,0.435,0.038,0.642l-1.469,3.244        c-0.236,0.521,0.228,1.087,0.786,0.958l3.469-0.807c0.222-0.051,0.454,0.009,0.622,0.163l2.631,2.4        c0.423,0.386,1.105,0.119,1.153-0.451l0.305-3.549c0.02-0.227,0.149-0.429,0.347-0.541l3.095-1.761        C289.06,289.199,289.017,288.468,288.49,288.245z"/>
						<path style="fill:#FFFFFF;" d="M288.49,257.457l-3.281-1.386c-0.209-0.089-0.362-0.274-0.408-0.497l-0.718-3.488        c-0.115-0.561-0.824-0.746-1.199-0.313l-2.332,2.691c-0.149,0.172-0.372,0.26-0.598,0.235l-3.54-0.395        c-0.569-0.064-0.964,0.553-0.668,1.043l1.84,3.05c0.118,0.195,0.132,0.434,0.038,0.641l-1.469,3.244        c-0.236,0.522,0.228,1.088,0.786,0.958l3.469-0.807c0.222-0.051,0.454,0.009,0.622,0.163l2.631,2.4        c0.423,0.386,1.105,0.119,1.153-0.451l0.305-3.548c0.02-0.227,0.149-0.429,0.347-0.541l3.095-1.761        C289.06,258.41,289.017,257.679,288.49,257.457z"/>
						<path style="fill:#FFFFFF;" d="M218.309,226.668l-3.281-1.386c-0.209-0.088-0.362-0.274-0.408-0.497l-0.718-3.489        c-0.115-0.561-0.824-0.745-1.199-0.313l-2.332,2.692c-0.149,0.172-0.372,0.259-0.598,0.234l-3.54-0.395        c-0.569-0.064-0.964,0.553-0.668,1.043l1.84,3.05c0.118,0.195,0.131,0.435,0.038,0.642l-1.469,3.244        c-0.236,0.522,0.228,1.088,0.786,0.958l3.469-0.807c0.222-0.052,0.454,0.009,0.622,0.162l2.631,2.4        c0.423,0.386,1.105,0.119,1.153-0.451l0.305-3.548c0.019-0.226,0.149-0.429,0.347-0.542l3.095-1.761        C218.88,227.622,218.837,226.891,218.309,226.668z"/>
						<path style="fill:#FFFFFF;" d="M253.399,211.274l-3.281-1.386c-0.209-0.089-0.362-0.274-0.408-0.497l-0.718-3.489        c-0.115-0.561-0.824-0.746-1.199-0.313l-2.332,2.692c-0.149,0.172-0.373,0.259-0.599,0.234l-3.54-0.395        c-0.569-0.063-0.964,0.553-0.668,1.044l1.84,3.05c0.117,0.194,0.132,0.435,0.038,0.642l-1.469,3.244        c-0.236,0.522,0.228,1.088,0.786,0.958l3.469-0.807c0.221-0.051,0.454,0.009,0.622,0.163l2.631,2.4        c0.423,0.386,1.105,0.119,1.154-0.451l0.304-3.549c0.02-0.226,0.149-0.429,0.347-0.541l3.096-1.761        C253.97,212.227,253.927,211.496,253.399,211.274z"/>
						<path style="fill:#FFFFFF;" d="M218.309,195.879l-3.281-1.386c-0.209-0.088-0.362-0.274-0.408-0.497l-0.718-3.488        c-0.115-0.561-0.824-0.746-1.199-0.313l-2.332,2.692c-0.149,0.172-0.372,0.259-0.598,0.234l-3.54-0.395        c-0.569-0.063-0.964,0.553-0.668,1.043l1.84,3.05c0.118,0.195,0.131,0.435,0.038,0.641l-1.469,3.244        c-0.236,0.522,0.228,1.087,0.786,0.958l3.469-0.807c0.222-0.051,0.454,0.009,0.622,0.163l2.631,2.4        c0.423,0.386,1.105,0.119,1.153-0.451l0.305-3.549c0.019-0.227,0.149-0.429,0.347-0.541l3.095-1.761        C218.88,196.833,218.837,196.102,218.309,195.879z"/>
						<path style="fill:#FFFFFF;" d="M218.309,288.245l-3.281-1.386c-0.209-0.089-0.362-0.274-0.408-0.497l-0.718-3.488        c-0.115-0.561-0.824-0.746-1.199-0.313l-2.332,2.692c-0.149,0.171-0.372,0.259-0.598,0.234l-3.54-0.395        c-0.569-0.063-0.964,0.553-0.668,1.043l1.84,3.05c0.118,0.195,0.131,0.435,0.038,0.642l-1.469,3.244        c-0.236,0.521,0.228,1.087,0.786,0.958l3.469-0.807c0.222-0.051,0.454,0.009,0.622,0.163l2.631,2.4        c0.423,0.386,1.105,0.119,1.153-0.451l0.305-3.549c0.019-0.227,0.149-0.429,0.347-0.541l3.095-1.761        C218.88,289.199,218.837,288.468,218.309,288.245z"/>
						<path style="fill:#FFFFFF;" d="M253.399,272.851l-3.281-1.386c-0.209-0.088-0.362-0.274-0.408-0.497l-0.718-3.488        c-0.115-0.561-0.824-0.746-1.199-0.313l-2.332,2.692c-0.149,0.172-0.373,0.259-0.599,0.234l-3.54-0.395        c-0.569-0.064-0.964,0.553-0.668,1.043l1.84,3.05c0.117,0.195,0.132,0.435,0.038,0.642l-1.469,3.244        c-0.236,0.521,0.228,1.088,0.786,0.958l3.469-0.807c0.221-0.051,0.454,0.009,0.622,0.163l2.631,2.4        c0.423,0.386,1.105,0.119,1.154-0.451l0.304-3.548c0.02-0.226,0.149-0.429,0.347-0.541l3.096-1.761        C253.97,273.804,253.927,273.074,253.399,272.851z"/>
						<path style="fill:#FFFFFF;" d="M218.309,257.457l-3.281-1.386c-0.209-0.089-0.362-0.274-0.408-0.497l-0.718-3.488        c-0.115-0.561-0.824-0.746-1.199-0.313l-2.332,2.691c-0.149,0.172-0.372,0.26-0.598,0.235l-3.54-0.395        c-0.569-0.064-0.964,0.553-0.668,1.043l1.84,3.05c0.118,0.195,0.131,0.434,0.038,0.641l-1.469,3.244        c-0.236,0.522,0.228,1.088,0.786,0.958l3.469-0.807c0.222-0.051,0.454,0.009,0.622,0.163l2.631,2.4        c0.423,0.386,1.105,0.119,1.153-0.451l0.305-3.548c0.019-0.227,0.149-0.429,0.347-0.541l3.095-1.761        C218.88,258.41,218.837,257.679,218.309,257.457z"/>
						<path style="fill:#FFFFFF;" d="M253.399,242.063l-3.281-1.386c-0.209-0.089-0.362-0.274-0.408-0.497l-0.628-3.052l-0.09-0.436        c-0.115-0.561-0.824-0.746-1.199-0.313l-0.649,0.749l-1.683,1.943c-0.149,0.172-0.373,0.259-0.599,0.234l-3.54-0.395        c-0.569-0.063-0.964,0.553-0.668,1.043l1.84,3.05c0.117,0.195,0.132,0.435,0.038,0.642l-1.469,3.244        c-0.236,0.521,0.228,1.087,0.786,0.958l3.469-0.807c0.221-0.051,0.454,0.009,0.622,0.162l2.631,2.4        c0.423,0.386,1.105,0.119,1.154-0.451l0.304-3.548c0.02-0.227,0.149-0.429,0.347-0.541l3.096-1.761        C253.97,243.016,253.927,242.285,253.399,242.063z"/>
						<path style="fill:#FFFFFF;" d="M253.399,303.639l-3.281-1.386c-0.209-0.089-0.362-0.274-0.408-0.497l-0.628-3.052l-0.09-0.436        c-0.115-0.561-0.824-0.746-1.199-0.313l-0.649,0.749l-1.683,1.943c-0.149,0.172-0.373,0.26-0.599,0.234l-3.54-0.395        c-0.569-0.063-0.964,0.553-0.668,1.043l1.84,3.05c0.117,0.194,0.132,0.434,0.038,0.642l-1.469,3.244        c-0.236,0.521,0.228,1.087,0.786,0.957l3.469-0.807c0.221-0.052,0.454,0.009,0.622,0.162l2.631,2.4        c0.423,0.386,1.105,0.119,1.154-0.452l0.304-3.548c0.02-0.226,0.149-0.429,0.347-0.541l3.096-1.761        C253.97,304.593,253.927,303.862,253.399,303.639z"/>
					</g>
					<g>
						<path style="fill:#FFCF00;" d="M274.983,209.83l-3.071,0.32c-0.507,0.053-0.63-0.432-1.36-1.193l-1.162-1.362        c-0.322-0.378-0.937-0.222-1.041,0.264c-1.239,5.1,0.278,2.321-3.855,4.628c-0.458,0.19-0.5,0.823-0.07,1.072        c4.47,2.756,2.292,0.446,3.21,5.096c0.039,0.495,0.628,0.731,0.997,0.399c0.142-0.127,2.442-2.195,2.297-2.064        c0.408-0.367,0.679-0.019,3.542,0.585c0.483,0.116,0.889-0.372,0.687-0.825l-1.253-2.822        c-0.223-0.502,0.192-0.652,1.651-3.188C275.815,210.315,275.477,209.778,274.983,209.83z"/>
						<path style="fill:#FFCF00;" d="M268.632,188.263l1.921-1.726c0.251-0.181,0.469-0.582,0.916-0.474l3.002,0.722        c0.483,0.116,0.889-0.372,0.687-0.825c-1.995-4.854-1.588-1.717,0.398-6.01c0.259-0.423-0.079-0.96-0.573-0.908l-3.071,0.319        c-0.428,0.044-0.546-0.283-0.687-0.405c-0.707,1.952-1.576,4.202-3.709,7.411l0.117,1.498        C267.673,188.36,268.262,188.595,268.632,188.263z"/>
						<path style="fill:#FFCF00;" d="M274.983,271.407l-3.071,0.319c-0.508,0.052-0.632-0.434-1.36-1.193l-1.162-1.362        c-0.322-0.377-0.937-0.222-1.041,0.263c-1.24,5.103,0.285,2.318-3.855,4.628c-0.458,0.189-0.5,0.823-0.07,1.072        c4.47,2.756,2.292,0.446,3.21,5.096c0.039,0.495,0.628,0.73,0.997,0.399c0.142-0.127,2.442-2.195,2.297-2.064        c0.408-0.367,0.679-0.02,3.542,0.585c0.483,0.116,0.889-0.372,0.687-0.825l-1.253-2.822c-0.223-0.502,0.192-0.653,1.651-3.188        C275.815,271.892,275.477,271.356,274.983,271.407z"/>
						<path style="fill:#FFCF00;" d="M274.983,240.618l-3.071,0.32c-0.508,0.052-0.629-0.431-1.36-1.194l-1.162-1.362        c-0.322-0.377-0.937-0.222-1.041,0.264c-0.687,2.828-0.494,3.237-1.002,3.448l-2.853,1.18c-0.458,0.19-0.5,0.823-0.07,1.072        c2.481,1.53,2.926,1.47,2.969,2.018l0.241,3.078c0.039,0.495,0.628,0.73,0.997,0.398c0.161-0.144,2.441-2.193,2.297-2.063        c0.408-0.367,0.68-0.02,3.542,0.585c0.483,0.116,0.889-0.371,0.687-0.825l-1.253-2.822c-0.223-0.502,0.192-0.653,1.651-3.188        C275.815,241.104,275.477,240.567,274.983,240.618z"/>
						<path style="fill:#FFCF00;" d="M274.983,302.195l-3.071,0.32c-0.508,0.053-0.629-0.431-1.36-1.194l-1.162-1.362        c-0.322-0.378-0.937-0.222-1.041,0.263c-0.687,2.828-0.494,3.238-1.002,3.448l-2.853,1.18c-0.458,0.19-0.5,0.823-0.07,1.072        c2.481,1.53,2.926,1.47,2.969,2.018l0.241,3.078c0.039,0.494,0.628,0.73,0.997,0.398c0.161-0.144,2.441-2.194,2.297-2.064        c0.408-0.367,0.68-0.019,3.542,0.585c0.483,0.116,0.889-0.372,0.687-0.825l-1.253-2.822c-0.223-0.502,0.192-0.653,1.651-3.188        C275.815,302.681,275.477,302.144,274.983,302.195z"/>
						<path style="fill:#FFCF00;" d="M239.893,225.224l-3.071,0.32c-0.546,0.056-0.561-0.383-2.522-2.555        c-0.322-0.378-0.938-0.222-1.041,0.263l-0.645,3.019c-0.115,0.537-0.539,0.415-3.209,1.609        c-0.459,0.19-0.501,0.823-0.071,1.072l2.673,1.547c0.475,0.275,0.228,0.641,0.538,3.55c0.039,0.495,0.628,0.73,0.997,0.399        l2.297-2.064c0.408-0.367,0.68-0.019,3.542,0.585c0.482,0.116,0.888-0.371,0.687-0.825l-1.253-2.822        c-0.223-0.502,0.192-0.654,1.651-3.188C240.725,225.709,240.387,225.173,239.893,225.224z"/>
						<path style="fill:#FFCF00;" d="M204.803,209.83l-3.071,0.32c-0.507,0.053-0.63-0.432-1.36-1.193l-1.162-1.362        c-0.322-0.378-0.937-0.222-1.041,0.264c-1.239,5.1,0.278,2.321-3.855,4.628c-0.458,0.19-0.5,0.823-0.07,1.072        c4.469,2.756,2.292,0.446,3.21,5.096c0.039,0.495,0.628,0.731,0.997,0.399c0.142-0.127,2.442-2.195,2.297-2.064        c0.408-0.367,0.679-0.019,3.542,0.585c0.483,0.116,0.889-0.372,0.687-0.825l-1.253-2.822        c-0.223-0.502,0.192-0.652,1.651-3.188C205.635,210.315,205.297,209.778,204.803,209.83z"/>
						<path style="fill:#FFCF00;" d="M232.544,203.259c0.039,0.495,0.628,0.73,0.997,0.399c4-3.398,1.14-2.042,5.839-1.479        c0.482,0.116,0.888-0.372,0.687-0.825l-0.187-0.42c-2.55,0.015-5.094-0.247-7.582-0.766c0,0.005,0.004,0.008,0.004,0.012        L232.544,203.259z"/>
						<path style="fill:#FFCF00;" d="M204.803,179.041l-3.071,0.319c-0.508,0.053-0.629-0.431-1.36-1.193l-0.008-0.009        c-0.843,0.24-1.717,0.51-2.599,0.797c-0.25,0.892-0.132,1.369-0.599,1.562l-2.853,1.181c-0.458,0.19-0.5,0.823-0.07,1.071        c2.481,1.53,2.926,1.47,2.969,2.018l0.241,3.078c0.039,0.495,0.628,0.73,0.997,0.398c0.161-0.144,2.441-2.194,2.297-2.064        c0.408-0.367,0.679-0.019,3.542,0.585c0.483,0.116,0.889-0.372,0.687-0.825l-1.253-2.822        c-0.223-0.502,0.192-0.653,1.651-3.188C205.635,179.527,205.297,178.99,204.803,179.041z"/>
						<path style="fill:#FFCF00;" d="M239.893,286.801l-3.071,0.32c-0.546,0.057-0.561-0.384-2.522-2.555        c-0.322-0.377-0.938-0.221-1.041,0.264l-0.645,3.02c-0.115,0.537-0.539,0.415-3.209,1.609        c-0.459,0.19-0.501,0.823-0.071,1.072l2.673,1.547c0.475,0.275,0.228,0.641,0.538,3.55c0.039,0.495,0.628,0.73,0.997,0.399        l2.297-2.064c0.407-0.367,0.683-0.019,3.542,0.585c0.482,0.116,0.888-0.371,0.687-0.825l-1.253-2.822        c-0.223-0.502,0.192-0.654,1.651-3.188C240.725,287.287,240.387,286.75,239.893,286.801z"/>
						<path style="fill:#FFCF00;" d="M204.803,271.407l-3.071,0.319c-0.507,0.052-0.632-0.434-1.36-1.193l-1.162-1.362        c-0.322-0.377-0.937-0.222-1.041,0.263c-1.24,5.103,0.285,2.318-3.855,4.628c-0.458,0.189-0.5,0.823-0.07,1.072        c4.469,2.756,2.292,0.446,3.21,5.096c0.039,0.495,0.628,0.73,0.997,0.399c0.142-0.127,2.442-2.195,2.297-2.064        c0.408-0.367,0.679-0.02,3.542,0.585c0.483,0.116,0.889-0.372,0.687-0.825l-1.253-2.822c-0.223-0.502,0.192-0.653,1.651-3.188        C205.635,271.892,205.297,271.356,204.803,271.407z"/>
						<path style="fill:#FFCF00;" d="M239.893,256.012l-3.071,0.32c-0.546,0.057-0.561-0.384-2.522-2.555        c-0.322-0.377-0.938-0.222-1.041,0.264c-0.687,2.828-0.494,3.237-1.002,3.448l-2.853,1.181        c-0.459,0.19-0.501,0.823-0.071,1.071c2.481,1.53,2.927,1.47,2.97,2.018l0.241,3.078c0.039,0.495,0.628,0.73,0.997,0.399        l2.297-2.064c0.408-0.367,0.678-0.02,3.542,0.585c0.482,0.116,0.888-0.372,0.687-0.825l-1.253-2.822        c-0.223-0.501,0.193-0.655,1.651-3.188C240.725,256.498,240.387,255.961,239.893,256.012z"/>
						<path style="fill:#FFCF00;" d="M204.803,240.618c-2.94,0.223-3.234,0.527-3.588,0.113c-0.121-0.142-2.13-2.496-2.004-2.349        c-0.322-0.377-0.937-0.222-1.041,0.264c-0.687,2.828-0.494,3.237-1.001,3.448l-2.853,1.18c-0.458,0.19-0.5,0.823-0.07,1.072        c2.481,1.53,2.926,1.47,2.969,2.018l0.241,3.078c0.039,0.495,0.628,0.73,0.997,0.398c0.161-0.144,2.441-2.193,2.297-2.063        c0.408-0.367,0.68-0.02,3.542,0.585c0.483,0.116,0.889-0.371,0.687-0.825l-1.253-2.822c-0.223-0.502,0.192-0.653,1.651-3.188        C205.635,241.104,205.297,240.567,204.803,240.618z"/>
						<path style="fill:#FFCF00;" d="M204.803,302.195l-3.071,0.32c-0.508,0.053-0.629-0.431-1.36-1.194l-1.162-1.362        c-0.322-0.378-0.937-0.222-1.041,0.263c-0.687,2.828-0.494,3.238-1.001,3.448l-2.853,1.18c-0.458,0.19-0.5,0.823-0.07,1.072        c2.481,1.53,2.926,1.47,2.969,2.018l0.241,3.078c0.039,0.494,0.628,0.73,0.997,0.398c0.161-0.144,2.441-2.194,2.297-2.064        c0.408-0.367,0.68-0.019,3.542,0.585c0.483,0.116,0.889-0.372,0.687-0.825l-1.253-2.822c-0.223-0.502,0.192-0.653,1.651-3.188        C205.635,302.681,205.297,302.144,204.803,302.195z"/>
					</g>
					<g>
						<path style="fill:#915EFD;" d="M313.03,383.702c-0.601,0-1.221,0.1-1.799-0.016c-10.043-2.019-15.942,1.886-25.897-4.049        c-4.477-2.669-11.587-3.184-17.677,0.15c-12.412,6.796-16.356,12.668-19.696,10.512c-6.704-4.327-17.041-3.285-22.32-4.39        c-0.142-0.03-47.258-4.047-61.823-5.692c-1.779-0.201-2.032-1.761-1.686-3.511c2.314-11.703,7.396-21.026,14.662-30.036        c13.108-16.255,5.5-16.479,17.846-8.442c7.455,4.853,19.746,10.124,33.966,12.697c11.321,2.048,15.899,0.908,22.803-0.192        c11.767-1.876,27.197-7.766,36.796-15.05c7.203-5.466,2.63-2.816,14.413,11.335c12.446,14.947,17.846,36.042,13.096,36.58        c-0.89,0.101-1.786,0.149-2.68,0.219C313.033,383.778,313.031,383.74,313.03,383.702z"/>
						<path style="fill:#915EFD;" d="M129.716,378.062c19.003,0.349,7.287,0.235,36.768,2.9c19.721,1.783,23.185,2.182,24.632,2.331        c44.392,4.572,55.082,2.802,58.726,9.874c2.075,4.028,3.73,8.197,4.346,12.725c0.439,3.226,1.727,6.35-0.437,13.326        c-0.57,1.836-1.734,3.05-3.654,3.637c-6.031,1.844-12.01,3.855-18.052,5.661c-30.308,9.059-96.241,24.868-126.582,16.21        c-4.822-1.376-9.089-3.884-13.192-6.712c-14.937-10.293-19.847-32.069-6.301-46.369        c11.711-12.362,26.731-13.542,43.745-13.542C129.715,378.09,129.716,378.076,129.716,378.062z"/>
						<path style="fill:#915EFD;" d="M256.623,444.887c-0.929-0.249-1.503-1.016-1.627-1.974        c-0.955-7.322,1.691-10.556,0.059-18.831c-0.28-1.419-0.124-2.937,1.163-3.584c2.951-1.483,5.889-3.001,8.91-4.33        c33.857-14.894,67.183-15.611,74.083-22.918c1.025-1.085,0.919-2.64-0.17-3.61c-1.018-0.906-2.117-1.702-3.426-2.116        c-10.521-3.326-11.344-2.505-11.253-3.59c0.021-0.247,0.258-0.631,0.469-0.683c20.371-4.953,43.438-9.913,62.078,2.993        c21.096,14.606,17.896,41.479-4.059,54.379C354.01,457.567,281.638,451.602,256.623,444.887z"/>
					</g>
					<g>
						<path style="fill:#FF967F;" d="M188.151,332.939c-2.932-2.713,1.986-5.044,2.492-18.623c0.144-3.875-0.725-3.368,14.252-1.499        c6.966,0.87,8.813,0.374,13.424,1.162c1.016,0.173-1.5,0.272,37.334,0.185c8.001-0.018,6.848-0.788,9.851-0.716        c6.477,0.156,20.846-2.402,21.886-1.988c2.441,0.97-0.535,5.482,4.234,17.964c0.535,1.399,0.313,2.611-0.779,3.696        c-6.906,6.864-29.156,17.121-46.221,18.199C223.241,352.671,198.52,342.534,188.151,332.939z"/>
						<path style="fill:#FF967F;" d="M277.01,377.648c3.537,0.764,4.174,0.024,9.304,2.863c7.256,4.016,12.036,3.047,21.958,3.195        c8.101,0.121,4.195,0.543,9.858,0.771c5.944,0.239,16.65,2.207,20.632,5.386c0.803,0.642,0.995,2.092,0.327,2.849        c-2.083,2.36-5.169,3.559-8.196,4.376c-8.998,2.428-47.112,9.377-68.984,20.125c-2.01,0.988-4.136,1.747-6.241,2.522        c-0.224,0.082-0.684-0.416-1.001-0.684c-0.082-0.069-0.059-0.288-0.049-0.436c0.329-4.57,1.331-3.347,0.047-12.489        c-1.383-9.849-6.204-13.215-3.376-15.183c13.231-9.208,10.303-7.443,18.646-11.702        C272.122,378.125,274.576,378.105,277.01,377.648z"/>
						<path style="fill:#FF967F;" d="M263.014,175.511c5.536,0.847,8.465,2.892,5.614,8.308        c-12.6,23.931-51.809,22.401-60.342-5.423c-0.262-0.854,0.336-1.839,1.264-2.065        C226.773,172.128,245.558,172.84,263.014,175.511z"/>
						<path style="fill:#FF967F;" d="M237.778,445.043c-13.836,0-12.677,0.022-13.049-0.049c-6.025-1.149-16.311-0.251-21.069-1.339        c-0.722-0.165-1.493-0.189-2.239-0.17c-4.518,0.114-8.958-0.724-13.438-1.065c-1.225-0.093-1.775-0.943-1.641-1.21        c0.124-0.247,0.288-0.57,0.512-0.655c1.923-0.726,37.367-8.012,65.838-18.201c0.905-0.324,1.851,0.256,1.993,1.223        c0.421,2.871,0.291,9.584,0.21,11.677c-0.081,2.09-0.49,4.166-0.608,6.256c-0.162,2.874-0.654,3.52-3.907,3.531        c-4.201,0.014-8.401,0.003-12.602,0.003C237.777,445.044,237.777,445.043,237.778,445.043z"/>
					</g>
					<g>
						<path style="fill:#4217A6;" d="M201.724,361.311c-11.516-5.949-20.43-14.777-21.636-16.633        c-0.441-0.678-0.556-1.447-0.127-2.124c1.925-3.036,3.894-6.044,5.858-9.055c0.293-0.449,1.205-0.621,1.628-0.324        c0.613,0.43,1.214,0.878,1.809,1.334c28.603,21.93,69.898,23.064,99.006,1.138c1.077-0.812,2.168-1.607,3.264-2.392        c0.625-0.448,1.492-0.261,1.949,0.46c1.925,3.04,3.84,6.086,5.726,9.15c0.689,1.119-0.331,2.081-1.592,3.38        C272.294,372.34,232.386,377.149,201.724,361.311z"/>
						<path style="fill:#4217A6;" d="M225.96,407.593c-0.344-6.476-1.759-12.835-2.675-19.241c-0.13-0.909,0.655-1.858,1.531-1.87        c1.192-0.017,2.415-0.083,3.572,0.14c5.205,1.005,17.979-0.206,21.456,6.547c4.313,8.378,4.106,12.16,4.776,15.342        c0.764,3.63,0.202,7.154-0.851,10.63c-0.551,1.819-1.645,3.11-3.581,3.686c-0.095,0.029-18.406,5.982-22.342,6.751        C224.23,430.284,226.646,420.497,225.96,407.593z"/>
						<path style="fill:#4217A6;" d="M285.624,433.797c0.4,3.874-0.537,8.459-0.965,13.078c-0.099,1.071-0.788,2.202-1.869,2.13        c-5.111-0.345-2.429,0.207-21.341-3.002c-1.475-0.25-2.936-0.602-4.39-0.96c-1.298-0.32-2.123-1.225-2.133-2.553        c-0.018-2.395-0.12-4.82,0.204-7.178c1.462-10.663-1.782-13.28,1.035-14.78c10.274-5.468,22.892-10.063,25.368-10.214        c1.116-0.068,1.539,1.125,1.82,2.198c2.143,8.185,1.178,7.662,1.568,9.283C285.812,425.491,285.591,429.25,285.624,433.797z"/>
						<path style="fill:#4217A6;" d="M291.754,235.117l-0.728,2.01h3.509l-1.387-2.166        C292.798,234.415,291.975,234.507,291.754,235.117z"/>
						<path style="fill:#4217A6;" d="M290.382,208.119c-0.088,0.242-0.289,0.425-0.538,0.491l-3.9,1.018        c-0.627,0.164-0.794,0.975-0.283,1.374l3.181,2.476c0.203,0.158,0.315,0.406,0.3,0.663l-0.236,4.024        c-0.038,0.647,0.682,1.057,1.219,0.693l3.338-2.26c0.071-0.048,0.153-0.064,0.233-0.086c-0.78-5.13-1.239-9.261-1.477-12.622        c-0.2,0.075-0.381,0.206-0.465,0.438L290.382,208.119z"/>
						<path style="fill:#4217A6;" d="M289.142,183.352l-0.236,4.024c-0.038,0.647,0.682,1.057,1.219,0.693l2.72-1.842        c0.028-2.438-0.474-2.982-3.111-4.173c-1.196-0.54-2.409-1.035-3.632-1.499l2.741,2.134        C289.045,182.847,289.158,183.094,289.142,183.352z"/>
						<path style="fill:#4217A6;" d="M291.754,296.694l-0.728,2.011h1.039c0.268-0.818,0.526-1.591,0.796-2.416        C292.466,296.07,291.927,296.215,291.754,296.694z"/>
						<path style="fill:#4217A6;" d="M298.286,273.69c0.145-1.904,0.058-2.974,0.184-4.102l-2.515-0.083        c-0.257-0.009-0.494-0.143-0.633-0.36l-2.174-3.395c-0.35-0.546-1.173-0.454-1.393,0.156l-1.372,3.791        c-0.088,0.242-0.289,0.425-0.538,0.49l-3.9,1.019c-0.627,0.164-0.794,0.975-0.283,1.373l3.181,2.476        c0.203,0.159,0.315,0.406,0.3,0.663l-0.236,4.025c-0.038,0.647,0.682,1.057,1.219,0.693l3.338-2.26        c0.213-0.144,0.484-0.175,0.723-0.081l3.262,1.276c0.304-1.519,0.507-2.77,0.643-3.819l-0.232-0.807        c-0.071-0.247-0.017-0.514,0.146-0.713L298.286,273.69z"/>
						<path style="fill:#4217A6;" d="M290.382,238.907c-0.088,0.242-0.289,0.425-0.538,0.49l-3.9,1.018        c-0.627,0.164-0.794,0.976-0.283,1.374l3.181,2.476c0.203,0.158,0.315,0.406,0.3,0.663l-0.236,4.025        c-0.038,0.647,0.682,1.057,1.219,0.693l3.338-2.261c0.213-0.144,0.484-0.174,0.723-0.081l3.754,1.469        c0.455,0.178,0.913-0.097,1.035-0.51c-0.019-0.225-0.043-0.438-0.064-0.66l-1.053-3.649c-0.071-0.247-0.017-0.514,0.146-0.713        l0.276-0.336c-0.236-1.371-0.414-2.753-0.595-4.135l-1.731-0.057c-0.257-0.009-0.494-0.143-0.633-0.36l-0.787-1.229h-3.509        L290.382,238.907z"/>
						<path style="fill:#4217A6;" d="M290.382,300.484c-0.088,0.242-0.289,0.425-0.538,0.491l-3.9,1.018        c-0.627,0.164-0.794,0.976-0.283,1.373l3.181,2.477c0.203,0.158,0.315,0.406,0.3,0.663l-0.149,2.529        c0.053-0.127,0.12-0.24,0.158-0.381c1.396-5.183,2.196-7.757,2.913-9.949h-1.039L290.382,300.484z"/>
						<path style="fill:#4217A6;" d="M260.232,222.962l-2.174-3.395c-0.35-0.546-1.173-0.454-1.393,0.156l-1.373,3.79        c-0.087,0.242-0.288,0.426-0.537,0.491l-3.901,1.019c-0.627,0.164-0.794,0.975-0.283,1.374l3.181,2.476        c0.203,0.158,0.315,0.406,0.3,0.663l-0.237,4.024c-0.038,0.647,0.682,1.057,1.219,0.694l3.338-2.26        c0.213-0.144,0.484-0.174,0.723-0.081l3.754,1.468c0.604,0.236,1.216-0.322,1.036-0.945l-1.118-3.873        c-0.071-0.247-0.016-0.514,0.147-0.713l2.557-3.117c0.411-0.501,0.069-1.256-0.579-1.277l-4.029-0.134        C260.607,223.313,260.37,223.179,260.232,222.962z"/>
						<path style="fill:#4217A6;" d="M221.574,235.117l-0.728,2.01h3.509l-1.387-2.166        C222.618,234.415,221.794,234.507,221.574,235.117z"/>
						<path style="fill:#4217A6;" d="M254.052,198.746l-0.237,4.024c-0.038,0.647,0.682,1.057,1.219,0.693l3.338-2.26        c0.213-0.144,0.484-0.175,0.723-0.081l3.754,1.468c0.604,0.236,1.216-0.323,1.036-0.945l-1.118-3.873        c-0.071-0.247-0.016-0.514,0.147-0.713l2.557-3.116c0.411-0.501,0.069-1.256-0.579-1.277l-2.751-0.091        c-2.567,2.299-5.43,4.107-8.467,5.448l0.077,0.06C253.955,198.241,254.067,198.489,254.052,198.746z"/>
						<path style="fill:#4217A6;" d="M230.381,209.338c0.411-0.501,0.069-1.256-0.579-1.278l-4.029-0.133        c-0.257-0.009-0.494-0.143-0.633-0.36l-2.174-3.395c-0.349-0.546-1.173-0.454-1.393,0.156l-1.372,3.79        c-0.088,0.242-0.289,0.425-0.538,0.491l-3.9,1.018c-0.627,0.164-0.794,0.975-0.283,1.374l3.181,2.476        c0.203,0.158,0.315,0.406,0.3,0.663l-0.236,4.024c-0.038,0.647,0.682,1.057,1.219,0.693l3.338-2.26        c0.213-0.144,0.484-0.174,0.723-0.081l3.754,1.468c0.604,0.236,1.216-0.322,1.036-0.945l-1.118-3.873        c-0.071-0.247-0.016-0.514,0.146-0.713L230.381,209.338z"/>
						<path style="fill:#4217A6;" d="M265.471,286.309c0.411-0.501,0.069-1.256-0.579-1.277l-4.029-0.134        c-0.257-0.008-0.494-0.143-0.632-0.359l-2.174-3.395c-0.35-0.546-1.173-0.454-1.393,0.156l-1.373,3.79        c-0.087,0.242-0.288,0.426-0.537,0.49l-3.901,1.019c-0.627,0.164-0.794,0.975-0.283,1.373l3.181,2.476        c0.203,0.158,0.315,0.406,0.3,0.663l-0.237,4.024c-0.038,0.647,0.682,1.056,1.219,0.693l3.338-2.26        c0.213-0.144,0.484-0.175,0.723-0.081l3.754,1.469c0.604,0.236,1.216-0.323,1.036-0.945l-1.118-3.873        c-0.071-0.247-0.016-0.514,0.147-0.713L265.471,286.309z"/>
						<path style="fill:#4217A6;" d="M221.574,296.694l-0.728,2.011h3.509l-1.387-2.166        C222.618,295.993,221.794,296.084,221.574,296.694z"/>
						<path style="fill:#4217A6;" d="M265.471,255.521c0.411-0.501,0.069-1.256-0.579-1.277l-4.029-0.133        c-0.257-0.009-0.494-0.144-0.632-0.36l-2.174-3.395c-0.35-0.546-1.173-0.454-1.393,0.155l-1.373,3.791        c-0.087,0.242-0.288,0.426-0.537,0.49l-3.901,1.019c-0.627,0.163-0.794,0.975-0.283,1.373l3.181,2.476        c0.203,0.158,0.315,0.406,0.3,0.663l-0.237,4.024c-0.038,0.647,0.682,1.057,1.219,0.694l3.338-2.26        c0.213-0.144,0.484-0.174,0.723-0.081l3.754,1.469c0.604,0.236,1.216-0.322,1.036-0.945l-1.118-3.873        c-0.071-0.247-0.016-0.514,0.147-0.713L265.471,255.521z"/>
						<path style="fill:#4217A6;" d="M230.381,270.915c0.411-0.501,0.069-1.256-0.579-1.277l-4.029-0.133        c-0.257-0.009-0.494-0.143-0.633-0.36l-2.174-3.395c-0.349-0.546-1.173-0.454-1.393,0.156l-1.372,3.791        c-0.088,0.242-0.289,0.425-0.538,0.49l-3.9,1.019c-0.627,0.164-0.794,0.975-0.283,1.373l3.181,2.476        c0.203,0.159,0.315,0.406,0.3,0.663l-0.236,4.025c-0.038,0.647,0.682,1.057,1.219,0.693l3.338-2.26        c0.213-0.144,0.484-0.175,0.723-0.081l3.754,1.468c0.604,0.236,1.216-0.322,1.036-0.945l-1.118-3.873        c-0.071-0.247-0.016-0.514,0.146-0.713L230.381,270.915z"/>
						<path style="fill:#4217A6;" d="M220.202,238.907c-0.088,0.242-0.289,0.425-0.538,0.49l-3.9,1.018        c-0.627,0.164-0.794,0.976-0.283,1.374l3.181,2.476c0.203,0.158,0.315,0.406,0.3,0.663l-0.236,4.025        c-0.038,0.647,0.682,1.057,1.219,0.693l3.338-2.261c0.213-0.144,0.484-0.174,0.723-0.081l3.754,1.469        c0.604,0.236,1.216-0.322,1.036-0.945l-1.118-3.874c-0.071-0.247-0.016-0.514,0.146-0.713l2.557-3.117        c0.411-0.501,0.069-1.256-0.579-1.277l-4.029-0.134c-0.257-0.009-0.494-0.143-0.633-0.36l-0.787-1.229h-3.509L220.202,238.907        z"/>
						<path style="fill:#4217A6;" d="M220.202,300.484c-0.088,0.242-0.289,0.425-0.538,0.491l-3.9,1.018        c-0.627,0.164-0.794,0.976-0.283,1.373l3.181,2.477c0.203,0.158,0.315,0.406,0.3,0.663l-0.236,4.024        c-0.038,0.647,0.682,1.056,1.219,0.693l3.338-2.26c0.213-0.144,0.484-0.174,0.723-0.081l3.754,1.469        c0.604,0.236,1.216-0.322,1.036-0.945l-1.118-3.873c-0.071-0.247-0.016-0.514,0.146-0.713l2.557-3.117        c0.411-0.501,0.069-1.256-0.579-1.277l-4.029-0.134c-0.257-0.009-0.494-0.143-0.633-0.36l-0.787-1.229h-3.509L220.202,300.484        z"/>
						<path style="fill:#4217A6;" d="M195.291,224.732c0.411-0.501,0.069-1.256-0.579-1.277l-4.029-0.134        c-0.257-0.008-0.494-0.143-0.633-0.359l-2.174-3.395c-0.35-0.546-1.173-0.454-1.393,0.156l-1.372,3.79        c-0.088,0.242-0.288,0.426-0.537,0.491l-0.54,0.141c-0.269,1.616-0.523,3.106-0.764,4.493l0.302,0.234        c0.203,0.158,0.315,0.406,0.3,0.663l-0.237,4.024c-0.038,0.647,0.683,1.057,1.219,0.694l3.338-2.26        c0.213-0.144,0.484-0.174,0.723-0.081l3.754,1.468c0.604,0.236,1.216-0.322,1.036-0.945l-1.118-3.873        c-0.071-0.247-0.016-0.514,0.147-0.713L195.291,224.732z"/>
						<path style="fill:#4217A6;" d="M194.712,192.666l-4.029-0.134c-0.257-0.009-0.494-0.143-0.633-0.36l-2.174-3.394        c-0.333-0.52-1.083-0.446-1.344,0.088c0.313,4.09,0.854,7.853,0.607,13.05l1.053-0.713c0.213-0.144,0.484-0.175,0.723-0.081        l3.754,1.468c0.604,0.236,1.216-0.323,1.036-0.945l-1.118-3.873c-0.071-0.247-0.016-0.514,0.147-0.713l2.557-3.116        C195.702,193.443,195.36,192.688,194.712,192.666z"/>
						<path style="fill:#4217A6;" d="M195.291,286.309c0.411-0.501,0.069-1.256-0.579-1.277l-4.029-0.134        c-0.257-0.008-0.494-0.143-0.633-0.359l-2.174-3.395c-0.35-0.546-1.173-0.454-1.393,0.156l-1.372,3.79        c-0.088,0.242-0.288,0.426-0.537,0.49l-1.354,0.354c0.815,3.087,1.748,6.195,2.681,9.186l2.292-1.552        c0.213-0.144,0.484-0.175,0.723-0.081l3.754,1.469c0.604,0.236,1.216-0.323,1.036-0.945l-1.118-3.873        c-0.071-0.247-0.016-0.514,0.147-0.713L195.291,286.309z"/>
						<path style="fill:#4217A6;" d="M195.291,255.521c0.411-0.501,0.069-1.256-0.579-1.277l-4.029-0.133        c-0.257-0.009-0.494-0.144-0.633-0.36l-2.174-3.395c-0.35-0.546-1.173-0.454-1.393,0.155l-1.372,3.791        c-0.088,0.242-0.288,0.426-0.537,0.49l-3.901,1.019c-0.627,0.163-0.794,0.975-0.283,1.373l3.181,2.476        c0.203,0.158,0.315,0.406,0.3,0.663l-0.237,4.024c-0.038,0.647,0.683,1.057,1.219,0.694l3.338-2.26        c0.213-0.144,0.484-0.174,0.723-0.081l3.754,1.469c0.604,0.236,1.216-0.322,1.036-0.945l-1.118-3.873        c-0.071-0.247-0.016-0.514,0.147-0.713L195.291,255.521z"/>
					</g>
					<g style="opacity:0.65;">
						<path style="fill:#DB5E43;" d="M197.836,337.711c9.974-7.464,30.584,0.804,50.043-7.904        c6.339-2.837,11.359-7.222,14.313-13.685c1.729-3.783,3.488-1.958,14.989-3.667c3.697-0.55,6.251-0.825,9.824-1.096        c0.718-0.055,1.384,0.622,1.41,1.432c0.493,15.158,5.386,17.521,2.681,20.016c-1.209,1.116-2.402,2.291-3.767,3.188        c-13.402,8.808-26.138,13.031-41.429,15.217C227.227,353.881,193.711,340.799,197.836,337.711z"/>
						<path style="fill:#DB5E43;" d="M276.129,392.793c-10.942,3.482-10.02,14.144-19.235,17.37        c-0.492,0.172-1.373-0.188-1.537-0.644c-0.971-2.698-0.244-5.327-3.862-13.791c-1.614-3.775-1.823-3.797,1.723-6.124        c5.771-3.788,8.912-7.029,16.806-10.376c12.424-5.267,15.555,4.464,28.415,4.464c13.525,0,15.058-0.069,17.431,0.977        c0.189,0.083,0.269,0.471,0.34,0.733c0.046,0.171-0.297,0.617-0.462,0.717c-3.086,1.869-6.265,3.462-9.805,4.395        C288.424,395.13,283.122,390.567,276.129,392.793z"/>
					</g>
					<g style="opacity:0.25;">
						<path style="fill:#000E3F;" d="M239.617,313.748c-18.393-0.208-25.759,0.21-46.169-2.944c-1.069-0.165-1.55-1.1-1.37-1.459        c0.399-0.794,0.72-1.665,1.277-2.336c20.05-24.158,57.424-13.441,72.279-24.86c18.884-14.516,6.35-35.052,18.72-66.673        c0.992-2.536,4.146-9.05,6.068-10.973c0.51-0.511,1.357-0.243,1.452,0.175c1.708,7.546-0.311-0.213,3.89,23.955        c1.415,8.139,3.787,17.52,3.55,28.05c-0.182,8.074-0.365,16.714-2.273,24.586c-4.238,17.487-3.572,11.585-7.829,27.221        c-0.359,1.318-1.234,2.068-2.525,2.235c-5.644,0.73-11.233,1.942-16.956,2.004c-3.306,0.036,1.958,0.956-30.113,0.956        C239.618,313.707,239.618,313.727,239.617,313.748z"/>
						<path style="fill:#000E3F;" d="M128.78,446.976c-9.473,0-24.569,1.433-39.614-11.388c-2.085-1.777-3.622-4.004-5.259-6.149        c-6.594-8.642-6.872-20.863-4.945-23.32c1.196-1.525,15.684,8.562,17.408,9.34c21.144,9.538,45.868,10.772,68.659,9.073        c29.46-2.196,57.597-10.483,85.735-18.893c2.295-0.686,3.04-0.245,3.62,1.928c1.089,4.079,0.547,8.045-0.759,11.959        c-0.558,1.672-1.682,2.753-3.418,3.289c-36.279,11.208-83.239,24.227-121.427,24.227        C128.781,447.021,128.781,446.998,128.78,446.976z"/>
						<path style="fill:#000E3F;" d="M257.162,445.078c-1.518-0.382-2.26-1.249-2.261-2.935c-0.006-9.775,1.397-11.578,0.178-17.937        c-0.252-1.316-0.193-2.341,0.708-3.339c1.212-1.343,10.601-5.263,12.975-6.179c1.266-0.488,2.418-0.529,3.317,0.502        c43.711,50.133,132.185-13.002,127.934,4.231c-1.9,7.699-7.469,15.63-17.48,21.382        c-20.132,11.569-44.734,11.584-67.256,10.739C295.818,450.812,275.978,449.818,257.162,445.078z"/>
					</g>
					<path style="fill:#FFBBEC;" d="M201.947,182.53c1.881,8.725,6.801,16.539,13.587,21.916       c21.344,16.988,55.42,6.788,61.584-21.928c0.143-0.667,0.8-1.091,1.466-0.948c1.087,0.233,1.009,1.483,0.968,1.342       c-0.475,4.723-1.961,9.356-4.167,13.626c-14.871,28.007-56.711,28.069-71.583-0.029c-3.826-7.422-4.176-13.76-4.147-13.619       c-0.063-0.638,0.402-1.207,1.041-1.271C201.291,181.56,201.825,181.96,201.947,182.53z"/>
				</g>
				<path style="fill:#000E3F;" d="M290.665,180.668c4.267,1.939,4.421,2.368,3.797,6.931c-2.004,14.654,0.632,27.07,2.637,38.424      c5.819,32.957,5.978,47.158-4.431,76.49c-1.016,2.863-2.763,10.326-2.267,14.13c1.214,9.297,2.175,12.483,8.002,21.705      c4.872,7.711,9.69,10.987,15.587,23.619c5.363,11.488,4.686,16.977,5.443,19.4c0.475,1.521,2.858,1.423,4.402,1.075      c21.724-4.9,50.046-10.191,68.215,5.833c7.339,6.473,11.385,15.68,10.643,25.496c-1.144,15.147-12.723,26.936-26.478,32.036      c-15.177,5.628-29.315,6.18-34.315,6.755c-40.329,4.64-78.652-5.66-89.568-5.701c-14.923-0.057-54.309-0.759-69.643-3.128      c-6.181-0.955-12.713,1.287-18.747,2.273c-15.915,2.601-43.775,4.724-59.394,0.302c-15.287-4.329-29.719-20.079-28.251-36.887      c0.916-10.494,7.363-19.721,16.092-25.353c21.59-13.931,58.405-4.708,66.418-5.95c2.204-0.341,2.08-6.348,4.612-12.334      c8.018-18.948,13.547-19.294,20.941-33.502c1.875-3.602,3.254-7.42,3.733-11.506c0.011-0.097,1.023-5.116,0.595-8.041      c-0.498-3.405-1.034-6.8-2.193-10.094c-12.726-36.176-9.102-49.124-3.118-84.093c0.847-4.949,1.888-10.048,1.921-15.089      c0.142-21.569-3.633-19.766,3.866-23.101c17.672-7.859,37.924-7.891,56.788-7.755      C261.06,172.712,276.941,174.433,290.665,180.668z M286.305,309.348c1.697-0.656,1.576-1.387,2.106-3.233      c1.129-3.935,2.519-7.788,3.725-11.698c14.307-46.398-1.804-65.217-1.339-97.34c0.169-11.592,0.833-8.272,0.739-11.206      c-0.025-0.797-0.326-1.487-1.05-1.864c-4.292-2.238-9.949-4.663-14.912-5.285c-2.313-0.29-3.024,0.399-3.767,2.487      c-9.45,26.572-52.947,29.89-64.801-0.78c-0.752-1.946-1.359-2.182-3.49-1.688c-3.935,0.912-10.085,2.789-14.819,5.232      c-2.335,1.205-0.115,2.971-0.299,15.52c-0.167,11.83-2.677,23.628-4.797,35.238c-3.017,16.517-3.205,23.645-1.237,40.131      c1.416,11.858,5.157,20.251,8.551,31.941c0.23,0.791,0.289,2.421,1.981,2.679C232.528,315.532,282.352,310.875,286.305,309.348z       M83.005,397.944c-11.257,19.83,4.655,40.903,24.455,45.969c16.72,4.278,35.924,1.797,52.782-0.745      c34.791-5.246,56.867-11.162,89.546-21.63c7.202-2.308,2.878-18.968-0.522-26.787c-3.174-7.298-14.774-5.734-29.316-7.483      c-14.297-1.72-28.637-3.065-42.983-4.306C144.613,380.163,98.213,371.154,83.005,397.944z M362.341,446.651      c15.835-3.247,33.667-12.442,37.03-29.812c3.257-16.818-9.586-30.082-24.74-34.694c-10.513-3.199-20.749-1.731-31.363-0.126      c-0.283,0.043-11.702,1.783-12.35,2.159c1.956,1.664,5.797,1.732,9.146,4.542c2.005,1.682,1.666,5.088-1.697,7.028      c-7.805,4.502-15.323,4.528-36.365,9.875c-13.77,3.499-31.892,8.827-44.471,15.654c-0.721,0.392-1.062,0.998-1.011,1.838      c0.351,5.696,0.561,11.386-0.396,17.056c-0.121,0.719-0.015,1.502,0.12,2.231c0.257,1.379,0.759,1.664,14.831,3.788      C300.184,450.584,333.589,452.546,362.341,446.651z M302.287,348.745c-8.7-10.827-9.029-14.542-10.337-13.79      c-3.799,2.182-20.802,16.022-48.7,18.2c-15.223,1.189-37.961-5.995-50.648-14.693c-0.659-0.452-4.403-2.99-4.849-3.277      c-2.154-1.381-0.814,0.994-11.363,14.135c-6.031,7.512-11.099,17.511-13.038,28.315c-0.1,0.557,0.521,1.343,1.427,1.42      c13.809,1.167,28.265,2.572,42.392,3.891c26.196,2.445,34.329,2.213,40.465,5.582c6.916,3.797,19.248-20.053,39.152-9.63      c8.648,4.529,12.583,2.254,27.826,3.416c0.755,0.058,1.397-0.565,1.423-1.385C316.24,374.491,311.835,360.627,302.287,348.745z       M289.388,332.556c2.869-2.366-1.74-4.812-2.214-18.209c-0.111-3.134-8.195-0.719-9.761-0.514      c-13.14,1.723-26.406,1.674-39.624,1.711c-43.119,0.121-45.676-5.456-45.855-0.887c-0.604,15.353-6.564,15.348,0.106,19.851      C224.83,356.64,263.509,353.895,289.388,332.556z M337.619,391.464c-0.503-5.53-34.515-6.535-40.053-6.568      c-7.187-0.042-11.036-2.969-14.873-4.648c-3.663-1.603-10.18-1.409-15.57,1.711c-5.087,2.944-9.632,6.652-14.56,9.809      c-0.775,0.496-0.954,1.134-0.563,1.932c3.094,6.308,5.78,16.387,4.263,22.631c-0.092,0.377-0.165,1.735,0.211,1.654      c4.733-1.015,4.227-3.218,26.846-10.266C313.634,398.272,338.074,396.458,337.619,391.464z M210.3,177.571      c-0.369,0.062-0.609,0.668-0.462,1.12c4.69,14.502,19.677,23.475,37.728,19.645c16.522-3.505,23.385-20.127,21.344-20.684      C262.107,175.798,233.406,173.698,210.3,177.571z M251.445,443.137c0.733-0.122,1.378-0.806,1.44-1.523      c0.433-5.063,2.234-18.231-0.941-17.417c-8.114,2.082-19.433,6.794-48.85,13.854c-13.072,3.137-11.057,2.472-11.743,2.898      C193.458,442.668,239.251,445.164,251.445,443.137z"/>
			</g>
			<g>
				<g>
					<g>
						<path style="fill:#FF967F;" d="M187.811,302.065c-12.726-36.169-9.102-49.12-3.118-84.08c0.843-4.958,1.882-10.057,1.924-15.1        c0.084-11.939-1.053-16.715-0.786-19.159c-26.674,15.072-28.135,96.258-35.186,120.6        c-3.544,12.315-11.029,15.864-32.084,45.903c-5.967,8.513-8.315,12.538-10.04,15.139c-6.237-0.496-12.473,3.9-18.203,7.44        c-4.407,2.718-9.419,5.796-15.239,7.813c-0.704,0.245-1.506,0.423-2.356,0.603c-1.911,0.417-4.083,0.869-4.789,2.163        c-0.197,0.39-0.473,0.904-0.216,1.322c0.776,1.419,3.671,2.747,5.009,2.831c2.46,0.131,4.194-0.758,6.002-1.361        c6.495-2.184,11.117-0.84,11.356-0.711c4.793,0.982,9.102-0.176,12.9-3.017c1.44-1.013,2.895,1.126,1.543,2.077        c-4.292,3.165-9.617,4.518-14.087,3.641c-1.037,2.428-3.801,4.597-7.375,5.683c-5.786,1.706-11.526,0.123-15.337-4.237        c-0.2-0.229-0.377-0.46-0.578-0.689c-0.954-1.126-1.91-2.275-3.076-2.796c-0.559-0.261-1.251-0.278-1.693-0.045        c-0.28,0.131-0.438,0.329-0.521,0.618c-0.491,1.856,3.81,9.244,6.471,12.343c0.1,0.115,0.178,0.254,0.232,0.395        c3.706,0.314,7.629,0.143,11.374-1.402c0.655-0.267,1.408,0.057,1.675,0.713c0.29,0.654-0.034,1.407-0.689,1.674        c-6.927,2.852-14.394,1.534-19.844,0.558c-4.537-0.802-7.708-1.111-8.121,0.337c-0.04,0.192,0.045,0.498,0.221,0.705        c1.33,1.538,10.216,5.075,20.048,4.907c2.902-0.103,5.954-0.594,9.067-1.849c0.655-0.267,1.408,0.057,1.675,0.713        c0.267,0.655-0.058,1.408-0.713,1.675c-1.755,0.72-3.496,1.225-5.198,1.537c-0.162,0.102-0.281-0.046-0.495-0.037        c-1.35,0.178-2.772-0.487-4.104-0.453c-3.306,0.121-6.394-0.221-9.123-0.53c-2.705-0.311-5.359,0.324-6.964,0.68        c-1.299,0.271-2.433,1.012-2.555,1.493c-0.062,0.217,0.547,0.672,0.696,0.809c1.944,1.964,8.886,4.257,14.549,4.652        c5.997,0.405,8.737-1.239,11.637-3.034c0.694-0.459,1.387-1.966,2.078-2.52c0.552-0.453,1.365-0.37,1.818,0.183        c0.558,0.681-0.041,1.449-0.597,1.995c-0.69,0.678-1.502,0.934-2.324,1.43c-0.999,0.603-2.129,1.246-3.151,1.81        c-1.507,0.832-3.029,1.787-4.638,2.399c-1.051,0.4-2.11,0.789-3.177,1.144c-3.92,1.339-6.122,2.197-6.152,3.676        c-0.005,0.429,0.146,0.613,0.318,0.748c0.666,0.519,3.187,1.505,12.426-0.757c10.162-2.488,20.079-7.574,28.132-14.23        c6.098-5.04,11.511-11.558,13.183-19.223c1.607-7.364-0.229,2.112,31.563-26.97c8.534-7.807,16.753-15.983,24.529-24.547        c4.817-5.305,10.179-10.854,13.648-17.189C189.785,317.145,191.402,312.35,187.811,302.065z"/>
						<g style="opacity:0.65;">
							<path style="fill:#DB5E43;" d="M177.784,319.118c0.363,0.607,0.166,1.393-0.441,1.756c-1.238,0.741-2.362-0.867-10.322-5.017         c-7.845-4.366-10.712-4.411-9.77-6.253C158.197,307.753,172.492,310.282,177.784,319.118z"/>
							<path style="fill:#DB5E43;" d="M120.822,381.551c-0.365,0.935-1.746,0.76-1.864-0.239c-0.65-5.492-1.227-8.475-8.381-13.042         l-0.093-0.06c-0.424-0.271-0.548-0.834-0.278-1.258C111.624,364.729,125.158,370.431,120.822,381.551z"/>
						</g>
					</g>
					<path style="fill:#000E3F;" d="M189.136,301.605c-12.328-35.058-9.211-47.696-3.046-83.397       c3.903-22.682,0.666-30.274,1.142-34.344c0.119-1.047-1.047-1.952-2.094-1.357c-19.802,11.186-26.038,57.002-30.584,90.466       c-7.711,56.669-5.998,26.276-46.578,90.418c-0.119-0.024-0.214-0.024-0.333-0.024c-6.64-0.191-12.495,3.427-18.683,7.235       c-4.499,2.761-9.163,5.664-14.732,7.569c-0.547,0.19-1.285,0.357-2.047,0.524c-2.332,0.5-5.236,1.142-6.521,3.451       c-0.286,0.547-0.428,1.118-0.428,1.69c-0.047-0.024-0.071-0.047-0.095-0.071c-1.238-0.547-2.713-0.571-3.856-0.024       c-0.952,0.452-1.642,1.261-1.928,2.309c-0.785,3.046,3.284,9.615,5.712,12.995c-1.214-0.19-2.404-0.404-3.522-0.619       c-5.165-0.904-9.639-1.69-10.71,2.047c-0.286,1.047,0,2.237,0.762,3.118c0.761,0.904,2.475,1.904,4.76,2.88       c-1.404,0.452-3.237,1.428-3.713,3.07c-0.238,0.785-0.214,1.975,1.023,3.237c1.594,1.595,4.808,2.642,7.973,3.308       c3.094,0.642,6.093,0.952,7.616,1.071c-3.594,1.285-6.236,2.571-6.283,5.522c0,1.143,0.429,2.094,1.309,2.808       c0.571,0.429,1.309,0.762,2.285,0.952c2.618,0.571,6.664,0.143,12.281-1.214c15.97-3.927,39.842-19.707,43.007-38.485       c31.417-18.136,68.022-60.263,68.903-66.094C191.35,316.814,192.54,311.34,189.136,301.605z M179.926,331.309       c-7.14,8.854-15.066,17.089-23.301,24.871c-10.105,9.535-23.029,20.872-36.371,28.419c-0.499,0.282-0.824,0.767-0.921,1.333       c-2.977,17.425-24.565,32.712-41.036,36.771c-9.235,2.261-11.758,1.261-12.424,0.738c-0.167-0.119-0.333-0.309-0.309-0.738       c0.024-1.476,2.213-2.332,6.141-3.665c3.353-1.138,6.661-2.432,9.724-4.225c1.062-0.622,2.153-1.201,3.155-1.919       c0.827-0.592,1.822-1.615,1.02-2.638c-2.142-2.593-3.715,5.153-15.541,4.355c-17.484-1.176-19.794-7.235-5.736-5.617       c3.266,0.376,6.604,0.599,9.893,0.538c3.108-0.058,6.153-0.927,9.028-2.061c1.624-0.638,0.581-3.037-0.952-2.38       c-16.738,6.643-42.05-7.718-21.206-4.118c5.45,0.976,12.9,2.309,19.826-0.547c1.635-0.642,0.516-3.043-0.976-2.38       c-3.737,1.547-7.664,1.713-11.377,1.404c-0.079-0.238-8.935-11.877-6.188-13.376c1.866-0.883,4.065,1.933,5.355,3.547       c7.357,8.414,20.134,4.649,22.705-1.452c4.475,0.881,9.806-0.476,14.09-3.641c0.571-0.405,0.69-1.214,0.286-1.809       c-0.428-0.571-1.238-0.667-1.833-0.262c-10.617,7.221-12.363-0.178-24.252,3.713c-1.809,0.619-3.546,1.19-5.998,1.047       c-2.068-0.111-9.98-3.78,0-5.998c5.572-1.084,12.816-5.461,17.589-8.402c6.782-4.217,11.042-6.927,17.681-6.702       c0.974,0.033,1.911-0.422,2.436-1.243c41.349-64.6,39.195-34.996,46.905-91.518c4.284-31.631,10.139-74.496,27.132-87.062       c0.119,2.428,0.809,7.188,0.738,16.589c-0.024,5.189-1.88,14.875-1.904,14.875c-6.235,35.867-9.449,48.886,3.189,84.777       C191.802,317.838,187.97,321.336,179.926,331.309z M71.515,389.643c0.357,0.072,0.714,0.119,1.071,0.167       c2.951,0.167,4.998-0.5,6.974-1.19c2.261-0.762,4.474-1.452,8.235-0.928c-0.905,1.499-2.951,2.927-5.451,3.665       C80.773,391.833,75.823,392.904,71.515,389.643z"/>
				</g>
				<g>
					<g>
						<path style="fill:#FF967F;" d="M291.127,302.065c12.726-36.169,9.102-49.12,3.118-84.08c-0.843-4.958-1.882-10.057-1.924-15.1        c-0.085-11.939,1.053-16.715,0.786-19.159c26.674,15.072,28.135,96.258,35.186,120.6        c3.544,12.315,11.029,15.864,32.084,45.903c5.967,8.513,8.315,12.538,10.04,15.139c6.237-0.496,12.473,3.9,18.203,7.44        c4.407,2.718,9.419,5.796,15.239,7.813c0.704,0.245,1.506,0.423,2.356,0.603c1.911,0.417,4.083,0.869,4.789,2.163        c0.197,0.39,0.431,0.93,0.174,1.348c-0.776,1.419-3.586,2.552-4.924,2.636c-2.46,0.131-4.238-0.589-6.046-1.192        c-6.495-2.184-11.117-0.84-11.356-0.711c-4.793,0.982-9.102-0.176-12.9-3.017c-1.44-1.013-2.895,1.126-1.543,2.077        c4.292,3.165,9.617,4.518,14.087,3.641c1.037,2.428,3.801,4.597,7.375,5.683c5.786,1.706,11.526,0.123,15.337-4.237        c0.2-0.229,0.377-0.46,0.578-0.689c0.954-1.126,1.91-2.275,3.076-2.796c0.559-0.261,1.251-0.278,1.693-0.045        c0.28,0.131,0.438,0.329,0.521,0.618c0.491,1.856-3.422,9.404-6.083,12.504c-0.1,0.115-0.236,0.232-0.29,0.373        c-3.706,0.314-7.96,0.005-11.704-1.54c-0.655-0.267-1.408,0.057-1.675,0.713c-0.29,0.654,0.034,1.407,0.689,1.674        c6.927,2.852,14.394,1.534,19.844,0.558c4.537-0.802,7.717-1.281,8.13,0.167c0.039,0.192-0.045,0.498-0.221,0.705        c-1.33,1.538-10.225,5.245-20.057,5.077c-2.902-0.103-5.954-0.594-9.067-1.849c-0.655-0.267-1.408,0.057-1.675,0.713        c-0.267,0.655,0.058,1.408,0.713,1.675c1.755,0.72,3.552,0.884,5.253,1.197c0.162,0.102,0.514,0.187,0.728,0.196        c1.35,0.178,2.484-0.379,3.817-0.345c3.306,0.121,6.394-0.221,9.123-0.53c2.705-0.311,5.051,0.435,6.656,0.79        c1.299,0.271,2.504,0.549,2.626,1.03c0.062,0.217-0.309,1.025-0.458,1.161c-1.944,1.964-8.711,3.908-14.374,4.303        c-5.997,0.405-8.968-1.313-11.868-3.107c-0.694-0.459-1.33-1.544-2.021-2.098c-0.552-0.453-1.365-0.37-1.818,0.183        c-0.429,0.553-0.367,1.318,0.16,1.794c0.108,0.267,0.633,0.385,0.936,0.542c0.605,0.336,1.132,0.816,1.735,1.176        c3.958,2.651,7.813,3.867,11.168,5.038c3.92,1.339,6.009,2.426,6.039,3.905c0.005,0.429-0.146,0.613-0.318,0.748        c-0.666,0.519-3.187,1.505-12.426-0.757c-10.162-2.488-20.079-7.574-28.132-14.23c-6.098-5.04-11.511-11.558-13.183-19.223        c-1.607-7.364,0.229,2.112-31.563-26.97c-8.534-7.807-16.753-15.983-24.529-24.547c-4.817-5.305-10.179-10.854-13.648-17.189        C289.153,317.145,287.537,312.35,291.127,302.065z"/>
						<g style="opacity:0.65;">
							<path style="fill:#DB5E43;" d="M301.155,319.118c-0.363,0.607-0.166,1.393,0.441,1.756c1.238,0.741,2.362-0.867,10.322-5.017         c7.845-4.366,10.712-4.411,9.77-6.253C320.741,307.753,306.447,310.282,301.155,319.118z"/>
							<path style="fill:#DB5E43;" d="M358.117,381.551c0.365,0.935,1.746,0.76,1.864-0.239c0.65-5.492,1.227-8.475,8.381-13.042         l0.093-0.06c0.424-0.271,0.548-0.834,0.278-1.258C367.314,364.729,353.78,370.431,358.117,381.551z"/>
						</g>
					</g>
					<path style="fill:#000E3F;" d="M288.183,320.646c0.881,5.831,37.486,47.958,68.903,66.094       c3.165,18.779,27.037,34.558,43.007,38.485c5.617,1.357,9.663,1.785,12.281,1.214c0.976-0.191,1.714-0.524,2.285-0.952       c0.88-0.714,1.309-1.666,1.309-2.808c-0.047-2.951-2.689-4.236-6.283-5.522c1.523-0.119,4.522-0.428,7.616-1.071       c3.166-0.666,6.379-1.714,7.973-3.308c1.238-1.262,1.262-2.452,1.023-3.237c-0.476-1.642-2.309-2.618-3.713-3.07       c2.285-0.976,3.999-1.975,4.76-2.88c0.762-0.881,1.047-2.071,0.762-3.118c-1.071-3.737-5.546-2.952-10.71-2.047       c-1.119,0.214-2.309,0.428-3.522,0.619c2.428-3.379,6.498-9.948,5.712-12.995c-0.286-1.047-0.976-1.856-1.928-2.309       c-1.142-0.547-2.618-0.524-3.856,0.024c-0.024,0.024-0.048,0.048-0.095,0.071c0-0.571-0.143-1.142-0.428-1.69       c-1.285-2.309-4.189-2.951-6.521-3.451c-0.762-0.167-1.499-0.333-2.047-0.524c-5.569-1.904-10.234-4.808-14.732-7.569       c-6.188-3.808-12.043-7.426-18.683-7.235c-0.119,0-0.214,0-0.333,0.024c-40.58-64.142-38.866-33.749-46.578-90.418       c-4.546-33.463-10.781-79.279-30.584-90.466c-1.047-0.595-2.213,0.309-2.094,1.357c0.476,4.07-2.761,11.662,1.142,34.344       c6.164,35.701,9.282,48.339-3.046,83.397C286.398,311.34,287.588,316.814,288.183,320.646z M292.444,302.534       c12.638-35.891,9.425-48.91,3.189-84.777c-0.024,0-1.88-9.687-1.904-14.875c-0.071-9.401,0.619-14.161,0.738-16.589       c16.993,12.567,22.848,55.432,27.132,87.062c7.71,56.522,5.556,26.917,46.905,91.518c0.525,0.821,1.463,1.276,2.436,1.243       c6.638-0.226,10.899,2.484,17.681,6.702c4.773,2.941,12.016,7.318,17.589,8.402c9.98,2.217,2.068,5.887,0,5.998       c-2.451,0.143-4.189-0.428-5.998-1.047c-11.889-3.891-13.636,3.508-24.252-3.713c-0.595-0.405-1.404-0.309-1.833,0.262       c-0.405,0.595-0.286,1.404,0.286,1.809c4.284,3.165,9.615,4.522,14.09,3.641c2.571,6.101,15.348,9.866,22.705,1.452       c1.29-1.614,3.489-4.43,5.355-3.547c2.747,1.499-6.109,13.138-6.188,13.376c-3.713,0.309-7.64,0.143-11.377-1.404       c-1.492-0.663-2.61,1.738-0.976,2.38c6.926,2.856,14.375,1.523,19.826,0.547c20.844-3.601-4.468,10.761-21.206,4.118       c-1.532-0.657-2.576,1.742-0.952,2.38c2.002,0.787,4.076,1.407,6.2,1.756c2.148,0.353,4.292,0.325,6.459,0.245       c2.093-0.077,4.182-0.242,6.263-0.478c14.058-1.617,11.748,4.441-5.736,5.617c-11.827,0.798-13.4-6.948-15.541-4.356       c-1.388,1.681,2.131,3.333,3.16,3.952c1.803,1.083,3.677,2.048,5.606,2.887c1.68,0.731,3.407,1.331,5.133,1.943       c3.927,1.333,6.117,2.19,6.141,3.665c0.024,0.428-0.143,0.619-0.309,0.738c-0.666,0.524-3.189,1.523-12.424-0.738       c-16.471-4.058-38.059-19.346-41.036-36.771c-0.097-0.565-0.422-1.05-0.921-1.333c-13.341-7.547-26.265-18.884-36.371-28.419       c-8.235-7.783-16.161-16.017-23.301-24.871C290.968,321.336,287.136,317.838,292.444,302.534z M396.595,391.357       c-2.499-0.738-4.546-2.166-5.451-3.665c3.761-0.524,5.974,0.166,8.235,0.928c1.975,0.69,4.023,1.357,6.974,1.19       c0.357-0.047,0.714-0.095,1.071-0.167C403.116,392.904,398.165,391.833,396.595,391.357z"/>
				</g>
			</g>
		</g>
		<g>
			<g>
				<g>
					<path style="fill:#FF967F;" d="M220.548,183.256c1.517-7.361,2.402-13.246,2.907-17.67c0.66-5.717,0.716-9.032,0.829-10.001       c0.028-0.182-0.211-18.808,10.085-25.536c10.155-6.644,20.802,6.728,20.816,25.508c0,2.95,0.295,6.475,0.759,10.114       c0.772,6.222,2.009,12.81,2.964,17.586"/>
					<path style="opacity:0.65;fill:#DB5E43;" d="M255.945,165.671c-3.989,5.632-9.776,9.186-16.223,9.186       c-6.475,0-12.276-3.582-16.265-9.271c0.66-5.717,0.716-9.032,0.829-10.001c0.028-0.182-0.211-18.808,10.085-25.536       c10.155-6.644,20.802,6.728,20.816,25.508C255.186,158.507,255.481,162.032,255.945,165.671z"/>
				</g>
				<path style="fill:#000E3F;" d="M220.55,184.661c-0.093,0-0.189-0.009-0.285-0.029c-0.76-0.156-1.248-0.9-1.092-1.659      c1.315-6.381,2.286-12.285,2.887-17.546c0.464-4.008,0.625-6.801,0.722-8.47c0.043-0.724,0.074-1.235,0.108-1.534      c0.059-4.631,1.027-20.221,10.712-26.549c3.617-2.368,7.621-2.584,11.275-0.61c6.997,3.78,11.705,14.747,11.714,27.291      c0,2.704,0.251,6.046,0.748,9.937c0.605,4.876,1.569,10.596,2.947,17.488c0.152,0.76-0.342,1.501-1.101,1.652      c-0.768,0.153-1.502-0.342-1.653-1.102c-1.392-6.961-2.366-12.747-2.979-17.688c-0.51-4.003-0.769-7.465-0.769-10.286      c-0.01-11.362-4.219-21.568-10.24-24.821c-2.783-1.503-5.61-1.338-8.403,0.489c-8.745,5.714-9.403,21.191-9.447,24.235      c-0.003,0.2-0.015,0.314-0.018,0.334c-0.025,0.22-0.051,0.678-0.088,1.325c-0.099,1.699-0.263,4.543-0.737,8.628      c-0.609,5.343-1.594,11.33-2.926,17.792C221.787,184.204,221.203,184.661,220.55,184.661z"/>
			</g>
			<g>
				<g>
					<path style="fill:#000E3F;" d="M186.02,128.322c6.069,19.277,22.437,29.469,41.513,33.056L205.134,57.494       C182.768,71.558,178.471,104.341,186.02,128.322z"/>
					<path style="fill:#000E3F;" d="M249.224,47.953l4.007,113.299c4.577-0.789,8.71-2.003,12.452-3.557       c0.093,0.08,0.181,0.165,0.298,0.219l0.115,0.054c0.828,0.386,1.783,1.131,2.399,1.925c0.652,0.806,1.077,1.749,1.233,2.771       c0.168,1.019,0.103,2.114-0.163,3.209c-0.121,0.548-0.305,1.094-0.506,1.637l-0.712,1.742       c-1.008,2.543-1.382,5.525-0.597,8.288c0.787,2.779,2.498,5.078,4.871,6.713c0.451,0.309,1.073,0.224,1.419-0.209       c0.363-0.454,0.289-1.116-0.165-1.479l-0.089-0.071c-1.71-1.367-3.105-3.449-3.616-5.586c-0.529-2.172-0.182-4.488,0.744-6.617       c1.058-2.183,2.149-5.121,1.641-8.099c-0.24-1.487-0.909-2.934-1.869-4.088c-0.604-0.699-1.258-1.276-1.999-1.774       C316.02,132.87,291.029,48.562,249.224,47.953z"/>
				</g>
				<g>
					<g>
						<g>
							<path style="fill:#FF967F;" d="M272.243,118.769c0,5.423-1.303,11.41,3.766,11.41c15.045,0,17.261-21.23,5.411-21.23         C276.352,108.949,272.243,113.346,272.243,118.769z"/>
							<path style="fill:#FF967F;" d="M207.212,118.769c0,5.423,1.303,11.41-3.766,11.41c-15.045,0-17.261-21.23-5.411-21.23         C203.103,108.949,207.212,113.346,207.212,118.769z"/>
						</g>
						<g style="opacity:0.65;">
							<path style="fill:#DB5E43;" d="M281.69,121.788c-2.64,1.675-3.493,0.526-2.96-0.263c0.882-1.304,2.023-2.25,3.769-4.575         c0.882-1.195,1.33-2.455,2.11-1.912C285.626,115.747,284.983,119.667,281.69,121.788z"/>
							<path style="fill:#DB5E43;" d="M196.957,116.95c1.245,1.658,1.914,2.294,2.418,2.907c1.083,1.227,1.445,1.806,1.349,1.666         c0.378,0.555-0.107,1.291-0.767,1.164c-3.257-0.636-6.131-4.252-5.372-7.27c0.139-0.551,0.857-0.671,1.175-0.216         C195.76,115.201,196.595,116.46,196.957,116.95z"/>
						</g>
					</g>
					<g>
						<path style="fill:#000E3F;" d="M276.01,131.584c-1.558,0-2.8-0.471-3.693-1.4c-1.83-1.907-1.695-5.179-1.554-8.644        c0.037-0.918,0.075-1.852,0.075-2.77c0-6.19,4.747-11.225,10.582-11.225c2.815,0,5.16,1.047,6.785,3.029        c1.42,1.732,2.202,4.131,2.202,6.755C290.408,124.336,285.022,131.584,276.01,131.584z M281.421,110.354        c-4.286,0-7.773,3.776-7.773,8.416c0,0.956-0.04,1.929-0.078,2.885c-0.111,2.725-0.226,5.542,0.775,6.584        c0.128,0.132,0.514,0.536,1.665,0.536c7.526,0,11.588-5.898,11.588-11.446c0-1.976-0.556-3.743-1.565-4.974        C284.945,111.027,283.394,110.354,281.421,110.354z"/>
						<path style="fill:#000E3F;" d="M203.446,131.584c-9.012,0-14.399-7.248-14.399-14.255c0-2.624,0.782-5.023,2.202-6.756        c1.626-1.981,3.971-3.029,6.786-3.029c5.835,0,10.581,5.035,10.581,11.225c0,0.918,0.039,1.853,0.075,2.771        c0.141,3.465,0.276,6.738-1.554,8.644C206.246,131.113,205.003,131.584,203.446,131.584z M198.035,110.354        c-1.972,0-3.524,0.673-4.613,2.001c-1.008,1.231-1.565,2.998-1.565,4.974c0,5.549,4.062,11.446,11.589,11.446        c1.149,0,1.538-0.403,1.664-0.536c1.002-1.042,0.886-3.859,0.775-6.583c-0.039-0.956-0.078-1.929-0.078-2.885        C205.807,114.129,202.32,110.354,198.035,110.354z"/>
					</g>
				</g>
				<g>
					<g>
						<path style="fill:#FF967F;" d="M270.477,144.974c-4.793,7.795-16.124,18.948-30.61,19.117h-0.279        c-14.486-0.169-25.816-11.321-30.61-19.117c-8.775-14.271-6.791-42.602-0.333-56.17c6.244-13.119,17.508-20.072,30.942-20.367        c0.053-0.014,0.094-0.014,0.147-0.014c0.04,0,0.093,0,0.133,0.014c13.434,0.295,24.698,7.248,30.943,20.367        C277.268,102.372,279.251,130.703,270.477,144.974z"/>
						<g style="opacity:0.65;">
							<path style="fill:#DB5E43;" d="M260.954,122.236c-4.914,0-8.912,3.269-8.912,7.287c0,4.018,3.998,7.286,8.912,7.286         c4.915,0,8.913-3.269,8.913-7.286C269.867,125.505,265.868,122.236,260.954,122.236z"/>
							<path style="fill:#DB5E43;" d="M218.622,122.236c-4.915,0-8.913,3.269-8.913,7.287c0,4.018,3.998,7.286,8.913,7.286         c4.913,0,8.912-3.269,8.912-7.286C227.534,125.505,223.535,122.236,218.622,122.236z"/>
						</g>
					</g>
					<g>
						<path style="fill:#000E3F;" d="M272.079,88.199c-6.339-13.318-17.747-20.833-32.128-21.166        c-0.166-0.02-0.259-0.031-0.501,0.001c-14.355,0.35-25.741,7.864-32.074,21.165c-6.218,13.067-9.15,41.968,0.406,57.51        c4.465,7.263,16.186,19.603,31.806,19.785h0.296c15.603-0.182,27.324-12.522,31.789-19.785        C281.231,130.165,278.297,101.265,272.079,88.199z M269.281,144.238c-4.164,6.773-15.049,18.28-29.413,18.448h-0.263        c-14.38-0.167-25.265-11.674-29.43-18.448c-8.229-13.384-6.871-40.939-0.261-54.831c5.867-12.325,16.417-19.274,29.704-19.566        c0.037-0.001,0.074-0.003,0.11-0.006c0.036,0.004,0.073,0.006,0.11,0.006c13.289,0.292,23.839,7.241,29.704,19.566        C276.153,103.297,277.511,130.853,269.281,144.238z"/>
						<path style="fill:#000E3F;" d="M250.167,100.165c-0.017,5.437,13.353,8.563,14.769,2.907        C266.606,96.408,250.19,93.076,250.167,100.165z"/>
						<path style="fill:#000E3F;" d="M229.288,100.165c-0.023-7.089-16.438-3.757-14.769,2.907        C215.935,108.728,229.306,105.602,229.288,100.165z"/>
						<path style="fill:#000E3F;" d="M261.595,109.559c-0.776,0-1.404,0.629-1.404,1.405c0,3.18-1.949,4.773-3.76,4.909        c-1.712,0.127-3.872-0.988-4.406-4.542c-0.117-0.766-0.822-1.296-1.598-1.18c-0.767,0.115-1.296,0.831-1.181,1.597        c0.729,4.85,3.919,6.944,6.916,6.944c0.16,0,0.32-0.005,0.479-0.018c3.16-0.236,6.359-2.96,6.359-7.71        C262.999,110.188,262.371,109.559,261.595,109.559z"/>
						<path style="fill:#000E3F;" d="M229.029,110.151c-0.765-0.116-1.481,0.414-1.598,1.18c-0.534,3.554-2.689,4.657-4.406,4.542        c-1.811-0.136-3.76-1.73-3.76-4.909c0-0.776-0.628-1.405-1.404-1.405c-0.777,0-1.405,0.629-1.405,1.405        c0,4.75,3.199,7.474,6.359,7.71c0.159,0.012,0.318,0.018,0.479,0.018c2.997,0,6.186-2.094,6.916-6.944        C230.326,110.982,229.796,110.266,229.029,110.151z"/>
						<path style="fill:#000E3F;" d="M248.844,131.996c-0.779-0.151-1.499,0.349-1.647,1.11c-0.682,3.506-3.819,6.04-7.467,6.04        c-0.015,0-0.03,0-0.044,0c-3.625-0.02-6.747-2.559-7.425-6.04c-0.148-0.761-0.894-1.261-1.647-1.11        c-0.761,0.148-1.258,0.885-1.11,1.647c0.931,4.789,5.207,8.286,10.166,8.312c0.02,0,0.04,0,0.06,0        c4.991,0,9.286-3.487,10.224-8.312C250.101,132.881,249.605,132.144,248.844,131.996z"/>
						<path style="fill:#000E3F;" d="M240.816,129.209c0.776,0,1.404-0.629,1.404-1.405c0-0.776-0.628-1.404-1.404-1.404        c-1.428,0-4.523-0.715-5.298-1.882c-0.136-0.206-0.233-0.466-0.018-0.977c0.089-0.211,5.556-13.139,5.556-13.139        c0.302-0.715-0.032-1.539-0.746-1.841c-0.713-0.3-1.539,0.032-1.841,0.746c-5.427,12.834-5.558,13.148-5.558,13.148        c-0.686,1.621-0.233,2.861,0.266,3.615C234.906,128.677,239.642,129.209,240.816,129.209z"/>
					</g>
				</g>
				<g>
					<path style="fill:#000E3F;" d="M245.909,46.485c-5.199,0.141-9.921,1.773-13.558,4.884c-1.754-0.258-3.25-0.414-4.248-0.465       c-1.238-0.063-2.515-0.041-3.807,0.03c2.8-9.872,0.658-20.519-9.589-26.329c-5.074-2.877-12.552-4.848-17.917-1.617       c-3.672,2.212-4.775,6.143-5.71,10.361c-3.305,14.909-9.601,6.64-18.338,11.936c-11.362,6.888,0.623,28.698,20.98,29.047       c-1.805,11.555,5.329,24.75,8.939,30.963c11.512-7.826,22.907-17.929,32.946-26.739c-0.043,0.987-0.08,1.977-0.08,2.97       c0.117,1.03,0.103,2.062,0.358,3.085l0.325,1.534l0.524,1.497c0.786,1.963,1.974,3.806,3.552,5.252       c1.589,1.464,3.413,2.508,5.63,3c0.522,0.114,1.06-0.183,1.228-0.701c0.18-0.552-0.122-1.146-0.675-1.325l-0.125-0.04       c-1.534-0.499-3.13-1.523-4.325-2.739c-1.225-1.235-2.113-2.765-2.691-4.417c-0.631-1.64-0.809-3.454-0.938-5.251       c-0.009-0.91,0.015-1.828,0.039-2.744l0.114-1.151c7.934,7.589,19.938,16.272,36.895,21.785       c4.085,1.328,4.098-0.532,6.411-6.532C290.292,70.873,267.939,45.886,245.909,46.485z"/>
					<path style="fill:#FFBBEC;" d="M189.888,72.575c4.427-13.304,19.34-24.048,33.628-23.505c0.688,0.026,1.224,0.605,1.198,1.292       c-0.037,0.967-1.077,1.253-0.936,1.16c-22.544,6.013-31.928,22.248-31.827,22.108C191.17,74.713,189.467,73.844,189.888,72.575       z"/>
					<g>
						<path style="fill:#4217A6;" d="M216.037,38.759c0.263,2.381-0.196,7.031-2.386,6.082c-0.677-0.293-0.824-1.102-0.758-0.961        c-3.171-13.831-10.52-14.047-8.229-16.336C206.229,25.978,215.031,30.089,216.037,38.759z"/>
						<path style="fill:#4217A6;" d="M204.934,46.663c-0.376,1.011-1.703,1.223-2.38,0.405c-3.222-3.896-4.672-9.958-4.479-9.144        c-0.168-0.707,0.269-1.417,0.976-1.585C201.541,35.747,206.789,41.66,204.934,46.663z"/>
						<path style="fill:#4217A6;" d="M183.663,59.883c2.202,2.151,2.636,2.667,2.509,2.525c0.783,0.873,0.128,2.246-1.031,2.212        c-5.229-0.169-10.627-5.641-10.798-10.808c-0.036-1.098,1.256-1.695,2.072-0.986C176.98,53.317,183.806,60.023,183.663,59.883        z"/>
						<path style="fill:#4217A6;" d="M189.846,47.776c5.894,4.168,7.118,11.631,0.607,7.05c-2.769-2.011-6.871-7.728-3.941-8.417        C186.749,46.352,189.116,47.278,189.846,47.776z"/>
						<path style="fill:#4217A6;" d="M234.088,59.519c1.062,4.332,1.836,9.95,2.962,12.639l0.083,0.198        c0.228,0.543-0.028,1.168-0.571,1.395c-1.514,0.634-3.542-2.796-4.218-4.31c-1.955-4.404-2.37-10.371-1.517-14.272        c0.219-1.001,1.611-1.099,1.972-0.143C232.799,55.026,233.747,58.056,234.088,59.519z"/>
						<path style="fill:#4217A6;" d="M282.961,100.35c0.035,0.583-0.409,1.083-0.992,1.118c-0.938,0.055-1.2-1.025-1.109-0.885        c-2.309-9.195-3.835-19.533-10.654-29.562c-6.263-9.423-14.38-13.962-25.236-16.926c-1.178-0.322-0.843-2.087,0.372-1.952        C247.053,53.582,280.078,51.837,282.961,100.35z"/>
						<path style="fill:#4217A6;" d="M222.23,61.516c-8.024,3.138-14.963,8.345-19.911,15.1c-8.92,11.998-8.278,25.34-8.196,23.494        c-0.056,1.283-1.926,1.372-2.111,0.108c-2.753-18.795,11.357-37.31,29.683-40.616        C222.877,59.389,223.356,61.077,222.23,61.516z"/>
						<path style="fill:#4217A6;" d="M209.924,89.998l-0.979,1.748l-0.796,1.849c-0.382,0.864-1.516,4.137-1.465,4.003        c-0.419,1.123-2.091,0.781-2.045-0.412c0.069-1.723,0.218-3.029,0.248-3.402c1.756-11.017,12.402-19.69,22.647-21.465        c1.116-0.194,1.639,1.339,0.639,1.869C226.444,75.515,216.246,79.552,209.924,89.998z"/>
						<path style="fill:#4217A6;" d="M243.676,62.93l-0.091-0.044c-1.071-0.51-0.621-2.132,0.56-2.018        c11.548,1.131,20.402,11.533,22.676,21.025c0.259,1.085-1.194,1.717-1.81,0.786C256.641,70.042,251.352,66.581,243.676,62.93z        "/>
					</g>
				</g>
			</g>
		</g>
	</g>
	<g>
		<path style="fill:#915EFD;" d="M39.151,86.25c-4.271-2.137-9.482-3.193-14.278-3.607c-0.403-5.625-1.457-11.824-3.755-16.969    c-0.477-1.062-1.995-1.062-2.465,0.008c-2.274,5.18-3.278,11.391-3.645,16.969c-4.773,0.425-9.952,1.487-14.206,3.645    c-1.06,0.536-1.08,2.079,0.008,2.622c4.252,2.123,9.414,3.154,14.207,3.551c0.416,6.105,2.536,16.795,4.432,17.626    c0.725,0.318,1.57-0.013,1.888-0.738c2.26-5.158,3.248-11.367,3.591-16.944c4.781-0.446,9.968-1.529,14.231-3.696    c0.254-0.129,0.471-0.338,0.609-0.613C40.109,87.421,39.833,86.591,39.151,86.25z"/>
		<path style="fill:#915EFD;" d="M511.237,410.867c-4.271-2.137-9.482-3.193-14.278-3.607c-0.403-5.625-1.457-11.824-3.755-16.969    c-0.477-1.062-1.995-1.062-2.465,0.008c-2.274,5.18-3.278,11.391-3.645,16.969c-4.773,0.425-9.952,1.487-14.206,3.645    c-1.06,0.537-1.08,2.078,0.008,2.622c4.252,2.123,9.414,3.154,14.207,3.551c0.416,6.105,2.536,16.795,4.432,17.626    c0.725,0.318,1.57-0.013,1.888-0.738c2.26-5.159,3.248-11.367,3.591-16.944c4.781-0.446,9.968-1.529,14.231-3.696    c0.254-0.129,0.471-0.338,0.609-0.613C512.195,412.037,511.919,411.208,511.237,410.867z"/>
		<path style="fill:#915EFD;" d="M123.237,55.191c-3.532-1.767-7.842-2.641-11.808-2.983c-0.333-4.652-1.205-9.779-3.105-14.034    c-0.394-0.878-1.65-0.878-2.039,0.007c-1.881,4.284-2.711,9.421-3.014,14.033c-3.948,0.352-8.231,1.23-11.749,3.014    c-0.876,0.444-0.893,1.719,0.007,2.169c3.517,1.756,7.785,2.608,11.749,2.937c0.344,5.049,2.098,13.89,3.666,14.577    c0.6,0.263,1.299-0.01,1.562-0.61c1.869-4.266,2.686-9.401,2.97-14.013c3.954-0.369,8.244-1.265,11.77-3.057    c0.21-0.107,0.39-0.279,0.504-0.507C124.03,56.16,123.801,55.474,123.237,55.191z"/>
		<path style="fill:#915EFD;" d="M43.745,175.946c-3.532-1.767-7.842-2.641-11.808-2.983c-0.334-4.652-1.205-9.779-3.106-14.033    c-0.394-0.878-1.65-0.879-2.039,0.006c-1.881,4.284-2.711,9.421-3.014,14.033c-3.948,0.352-8.231,1.23-11.749,3.014    c-0.876,0.444-0.893,1.719,0.007,2.169c3.517,1.756,7.786,2.608,11.749,2.936c0.344,5.049,2.098,13.89,3.666,14.577    c0.6,0.263,1.299-0.011,1.561-0.61c1.869-4.266,2.686-9.401,2.97-14.013c3.954-0.369,8.244-1.264,11.77-3.057    c0.21-0.107,0.39-0.28,0.504-0.507C44.537,176.914,44.309,176.229,43.745,175.946z"/>
		<path style="fill:#915EFD;" d="M434.105,460.904c-3.532-1.767-7.842-2.641-11.808-2.983c-0.334-4.652-1.205-9.779-3.105-14.034    c-0.395-0.878-1.651-0.878-2.039,0.007c-1.881,4.284-2.711,9.421-3.014,14.033c-3.948,0.351-8.231,1.23-11.749,3.014    c-0.877,0.444-0.893,1.719,0.007,2.168c3.517,1.756,7.786,2.608,11.749,2.937c0.344,5.049,2.098,13.89,3.666,14.577    c0.6,0.263,1.299-0.011,1.561-0.61c1.869-4.266,2.686-9.401,2.97-14.013c3.954-0.369,8.244-1.265,11.77-3.057    c0.21-0.107,0.39-0.279,0.504-0.507C434.898,461.873,434.669,461.187,434.105,460.904z"/>
		<path style="fill:#915EFD;" d="M491.412,331.94c-3.532-1.767-7.841-2.641-11.808-2.983c-0.333-4.652-1.205-9.779-3.105-14.034    c-0.395-0.878-1.65-0.878-2.039,0.006c-1.881,4.284-2.711,9.421-3.014,14.034c-3.948,0.351-8.231,1.23-11.749,3.014    c-0.876,0.444-0.893,1.719,0.007,2.168c3.517,1.756,7.786,2.608,11.75,2.936c0.344,5.049,2.098,13.89,3.665,14.577    c0.6,0.263,1.299-0.011,1.562-0.61c1.869-4.266,2.686-9.401,2.97-14.013c3.954-0.369,8.244-1.264,11.77-3.057    c0.21-0.107,0.39-0.28,0.504-0.507C492.204,332.909,491.976,332.222,491.412,331.94z"/>
	</g>
</g>















</svg>
