<?xml version="1.0" encoding="UTF-8"?>
<!-- Generator: Adobe Illustrator 25.2.3, SVG Export Plug-In . SVG Version: 6.00 Build 0)  -->
<svg xmlns="http://www.w3.org/2000/svg" xmlns:xlink="http://www.w3.org/1999/xlink" version="1.1" id="Capa_1" x="0px" y="0px" viewBox="0 0 512 512" style="enable-background:new 0 0 512 512;" xml:space="preserve" width="512" height="512">
<g>
	<path style="fill:#7C3E25;" d="M407.91,363.836c-26.692,16.374-61.581,4.624-79.203-3.337c0,0-8.843-42.369-9.974-51.343   c16.163-13.212,36.991-16.083,49.454-18.558C419.333,280.401,437.612,345.619,407.91,363.836z"/>
	<path style="fill:#091438;" d="M109.408,174.328l8.735-174.064C317.436-6.952,416.35,136.008,416.35,136.008l-18.936,60.834   l-67.241,25.731l-185.192-6.925L109.408,174.328z"/>
	<path style="fill:#7C3E25;" d="M347.666,279.349c1.131,8.974-19.494,60.248-18.959,81.15c1.551,58.06-6.981,143.289-69.422,150.443   c-95.426,10.944-169.47-66.59-169.47-66.59c7.452-95.332,58.147-201.288,58.147-201.288l-41.748-5.486l3.193-63.25l198.603,15.536   l37.317,26.909L347.666,279.349z"/>
	<path style="fill:#091438;" d="M187.23,242.558l4.97,109.257c0,0-38.267-23.274-35.288-2.895   c2.982,20.375,80.327,11.614,80.327,11.614s-7.079-22.926-13.603-10.25c0,0,5.962-4.29,8.945,7.453c0,0-65.606,8.388-73.248-8.759   c-7.641-17.146,35.414,5.591,35.414,5.591S200.592,255.232,187.23,242.558z"/>
	<path style="fill:#091438;" d="M236.507,433.806c0,0,26.617,16.021,34.797-16.754c8.186-32.777-13.275-52.49-13.275-52.49   c-9.121,28.17-45.794,13.952-45.794,13.952s35.19,10.561,45.512-17.513c0,0,25.602,20.593,16.227,56.536   C264.607,453.486,236.507,433.806,236.507,433.806z"/>
	<path style="fill:#FFFFFF;" d="M132.061,312.139l52.683,10.438C184.744,322.577,159.891,269.897,132.061,312.139z"/>
	<path style="fill:#FFFFFF;" d="M205.62,325.064h77.036C282.656,325.064,248.36,264.427,205.62,325.064z"/>
	<path style="fill:#7C3E25;" d="M368.186,290.598c-12.462,2.475-26.865,9.454-43.027,22.666c1.131,8.974,3.013,26.332,3.548,47.234   c1.551,58.06-6.981,143.289-69.422,150.443c-95.426,10.944-169.47-66.59-169.47-66.59c2.742-35.278,11.416-71.954,21.258-104.221   l45.719,7.486c0,0.418,0.057,0.833,0.115,1.31c2.983,20.368,80.34,11.6,80.34,11.6s-1.016-3.277-2.627-6.68l74.016-6.918   c0,0,26.841-59.28-13.062-51.202l12.436-105.893l89.403,7.008L368.186,290.598z"/>
	<path style="opacity:0.4;fill:#091438;" d="M368.186,290.598c-12.462,2.475-26.865,9.454-43.027,22.666   c1.131,8.974,3.013,26.332,3.548,47.234c1.551,58.06-6.981,143.289-69.422,150.443c-95.426,10.944-169.47-66.59-169.47-66.59   c2.742-35.278,11.416-71.954,21.258-104.221l45.719,7.486c0,0.418,0.057,0.833,0.115,1.31c2.983,20.368,80.34,11.6,80.34,11.6   s-1.016-3.277-2.627-6.68l74.016-6.918c0,0,26.841-59.28-13.062-51.202l12.436-105.893l89.403,7.008L368.186,290.598z"/>
	<path style="fill:#091438;" d="M265.257,315.244c0,3.365-3.281,6.093-7.33,6.093c-4.049,0-7.333-2.727-7.333-6.093   c0-3.36,3.284-6.089,7.333-6.089C261.977,309.155,265.257,311.883,265.257,315.244z"/>
	<path style="fill:#091438;" d="M174.551,311.589c0,3.364-3.281,6.089-7.327,6.089c-4.056,0-7.337-2.725-7.337-6.089   c0-3.363,3.281-6.089,7.337-6.089C171.27,305.5,174.551,308.225,174.551,311.589z"/>
	<path style="fill:#7C3E25;" d="M294.282,402.819c6.412,28.31-6.947,55.461-29.837,60.646c-22.89,5.18-46.643-13.569-53.053-41.875   c-6.409-28.312,6.947-55.465,29.838-60.648C264.12,355.758,287.87,374.507,294.282,402.819z"/>
	<g>
		<path style="fill:#FFFFFF;" d="M238.663,388.393c12.148-0.94,22.144-6.152,25.724-18.443    c10.87,11.503,13.672,20.736,17.018,35.712c-0.313,14.847-3.421,37.574-21.366,40.508L238.663,388.393z"/>
		<path style="fill:#091438;" d="M282.487,410.638c-0.088,4.491-0.715,9.309-2.052,14.441    c-9.375,35.945-37.475,16.264-37.475,16.264s26.617,16.026,34.804-16.754c8.179-32.773-13.282-52.489-13.282-52.489    c-9.114,28.173-45.79,13.952-45.79,13.952s35.186,10.56,45.516-17.513C264.208,368.54,283.018,383.673,282.487,410.638"/>
		<polyline style="fill:#091438;" points="278.553,393.116 261.777,410.878 279.419,396.593 278.922,393.116   "/>
		<path style="fill:#091438;" d="M259.292,371.743c0,0,5.099-3.355,13.421-0.62c0,0-7.577-5.661-13.421-2.583V371.743z"/>
	</g>
	<path style="fill:#091438;" d="M402.967,342.664c0,0-5.996-17.202-29.654-22.005c-23.648-4.802-53.99,17.969-25.379,32.798   c28.605,14.832,25.791-6.59,15.845-12.953l17.964,6.06l-24.905-10.685c0,0,16.41,19.166,5.959,20.019   c-10.452,0.852-33.697-13.319-16.85-25.79C375.591,308.158,402.967,342.664,402.967,342.664z"/>
	<g style="opacity:0.05;">
		<path style="fill:#FFFFFF;" d="M141.998,15.921c0,0,0.609,2.145,1.436,5.908c0.826,3.763,1.923,9.143,2.901,15.613    c2.143,12.931,3.836,30.223,4.601,47.556c0.742,17.334,0.549,34.707-0.484,47.776c-0.42,6.529-1.056,11.984-1.561,15.804    c-0.501,3.821-0.928,6.01-0.928,6.01s-0.613-2.145-1.442-5.908c-0.829-3.763-1.93-9.141-2.911-15.611    c-2.15-12.931-3.833-30.225-4.584-47.558c-0.728-17.334-0.525-34.707,0.498-47.776c0.423-6.531,1.053-11.983,1.554-15.804    C141.575,18.11,141.998,15.921,141.998,15.921z"/>
		<path style="fill:#FFFFFF;" d="M163.618,40.821c0,0,0.626,1.447,1.48,4c0.874,2.551,1.964,6.206,3.057,10.609    c2.184,8.804,4.059,20.622,4.954,32.512c0.894,11.892,0.795,23.855-0.065,32.888c-0.43,4.515-0.975,8.293-1.459,10.944    c-0.47,2.651-0.88,4.176-0.88,4.176s-0.63-1.447-1.486-4c-0.877-2.549-1.974-6.204-3.067-10.607    c-2.19-8.804-4.056-20.624-4.936-32.514c-0.88-11.892-0.772-23.856,0.081-32.888c0.43-4.516,0.968-8.293,1.449-10.946    C163.212,42.346,163.618,40.821,163.618,40.821z"/>
		<path style="fill:#FFFFFF;" d="M194.932,25.987c11.882,41.038,11.81,104.769-0.372,145.748    C182.59,130.716,182.838,66.98,194.932,25.987z"/>
		<path style="fill:#FFFFFF;" d="M234.069,27.849c0,0,0.329,2.251,0.663,6.17c0.335,3.918,0.731,9.51,0.87,16.192    c0.46,13.377-0.085,31.117-1.557,48.778c-1.496,17.66-3.924,35.239-6.629,48.35c-1.256,6.563-2.59,12.009-3.579,15.816    c-0.992,3.807-1.696,5.971-1.696,5.971s-0.332-2.251-0.67-6.17c-0.338-3.919-0.738-9.51-0.877-16.192    c-0.471-13.38,0.085-31.117,1.571-48.778c1.51-17.658,3.948-35.237,6.643-48.348c1.259-6.563,2.583-12.011,3.572-15.818    C233.368,30.012,234.069,27.849,234.069,27.849z"/>
		<path style="fill:#FFFFFF;" d="M259.417,53.943c8.332,29.745,2.859,73.912-12.672,100.644    C238.326,124.85,243.968,80.7,259.417,53.943z"/>
		<path style="fill:#FFFFFF;" d="M285.513,69.226c6.106,33.954-2.679,83.604-20.256,113.32    C259.065,148.585,268.017,98.981,285.513,69.226z"/>
		<path style="fill:#FFFFFF;" d="M318.686,72.581c0,0,0.091,1.718,0.02,4.665c-0.054,2.951-0.281,7.129-0.765,12.087    c-0.972,9.918-3.27,22.883-6.524,35.603c-3.254,12.72-7.469,25.194-11.396,34.354c-1.964,4.579-3.779,8.349-5.153,10.961    c-1.361,2.617-2.271,4.078-2.271,4.078s-0.098-1.72-0.027-4.667c0.051-2.951,0.274-7.13,0.755-12.09    c0.965-9.918,3.274-22.882,6.541-35.598c3.267-12.716,7.492-25.189,11.413-34.349c1.961-4.581,3.772-8.351,5.143-10.964    C317.778,74.042,318.686,72.581,318.686,72.581z"/>
		<path style="fill:#FFFFFF;" d="M336.314,93.081c0,0,0.224,1.155,0.383,3.112c0.173,1.96,0.274,4.721,0.183,7.978    c-0.183,6.514-1.425,14.927-3.623,23.083c-2.197,8.156-5.353,16.053-8.481,21.771c-1.564,2.857-3.047,5.19-4.188,6.797    c-1.124,1.61-1.903,2.493-1.903,2.493s-0.227-1.154-0.389-3.113c-0.176-1.962-0.281-4.725-0.193-7.982    c0.176-6.514,1.429-14.925,3.639-23.078c2.211-8.153,5.373-16.048,8.495-21.766c1.564-2.859,3.043-5.194,4.181-6.8    C335.539,93.964,336.314,93.081,336.314,93.081z"/>
		<path style="fill:#FFFFFF;" d="M358.571,90.846c4.084,29.075-7.438,69.305-26.465,91.699    C327.937,153.466,339.623,113.278,358.571,90.846z"/>
		<path style="fill:#FFFFFF;" d="M369.639,108.737c0,0,0.298,1.092,0.582,2.951c0.301,1.862,0.582,4.493,0.704,7.604    c0.244,6.219-0.447,14.301-2.102,22.175c-1.656,7.877-4.283,15.549-7.025,21.138c-1.371,2.795-2.698,5.085-3.728,6.668    c-1.016,1.585-1.733,2.461-1.733,2.461s-0.301-1.092-0.589-2.952c-0.305-1.864-0.589-4.494-0.715-7.606    c-0.247-6.221,0.45-14.299,2.12-22.172c1.669-7.873,4.307-15.543,7.042-21.135c1.371-2.795,2.692-5.087,3.717-6.67    C368.925,109.614,369.639,108.737,369.639,108.737z"/>
		<path style="fill:#FFFFFF;" d="M392.864,123.454c0,0,0.122,1.151,0.108,3.081c0,1.935-0.142,4.647-0.514,7.824    c-0.752,6.352-2.726,14.46-5.624,22.22c-2.895,7.762-6.72,15.176-10.329,20.459c-1.805,2.642-3.484,4.779-4.757,6.236    c-1.26,1.464-2.109,2.251-2.109,2.251s-0.125-1.153-0.112-3.082c-0.007-1.937,0.132-4.65,0.505-7.827    c0.745-6.355,2.725-14.458,5.637-22.215c2.908-7.758,6.741-15.168,10.343-20.454c1.804-2.641,3.477-4.781,4.75-6.24    C392.018,124.243,392.864,123.454,392.864,123.454z"/>
		<path style="fill:#FFFFFF;" d="M402.967,138.932c7.527,14.649,0.31,36.477-14.572,43.613    C380.791,167.894,388.148,146.114,402.967,138.932z"/>
		<path style="fill:#FFFFFF;" d="M125.598,40.821c13.773,28.572,16.697,74.398,6.463,104.447    C118.205,116.724,115.449,70.876,125.598,40.821z"/>
	</g>
</g>















</svg>
