<?xml version="1.0" encoding="UTF-8"?>
<!-- Generator: Adobe Illustrator 25.2.3, SVG Export Plug-In . SVG Version: 6.00 Build 0)  -->
<svg xmlns="http://www.w3.org/2000/svg" xmlns:xlink="http://www.w3.org/1999/xlink" version="1.1" id="Capa_1" x="0px" y="0px" viewBox="0 0 512 512" style="enable-background:new 0 0 512 512;" xml:space="preserve" width="512" height="512">
<g>
	<path style="fill:#7C3E25;" d="M363.3,311.338c0,0,25.68,54.991,44.359,42.579c20.34-13.495-12.311-22.131,3.145-38.814   c15.463-16.676,31.792-59.396-5.755-103.663l-23.828,11.518L363.3,311.338z"/>
	<path style="fill:#091438;" d="M419.84,278.416c0,0-3.163-22.654-16.159-16.344c-13.008,6.314-29.926,58.302-14.276,64.356   c15.651,6.054,14.279-24.831,8.841-28.763l9.867-1.133l-13.643-1.895c0,0,8.881,19.647,3.112,26.943   c-5.773,7.311-18.474-0.83-9.076-29.434C405.035,241.799,419.84,278.416,419.84,278.416z"/>
	<path style="fill:#7C3E25;" d="M346.458,241.397l-43.666-13.935l-72.017-67.08l-78.344,43.857l6.106,132.079l33.994,40.37   c28.352-15.011,81.444-16.022,81.444-16.022l89.325-18.837l17.676-99.389L346.458,241.397z"/>
	<path style="fill:#091438;" d="M304.601,505.606C165.072,544.763,82.249,391.273,82.249,391.273s14.203-56.147,76.288-54.956   c6.968,0.13,14.553,0.967,22.788,2.726c4.516,22.358,11.206,37.644,11.206,37.644c28.352-15.011,81.444-16.022,81.444-16.022   c-2.748-7.553-5.427-12.066-7.881-14.604c32.456-42.229,92.513-25.431,92.513-25.431l2.729-75.265l5.372,1.428h14.015   C389.475,281.2,431.278,470.042,304.601,505.606z"/>
	<path style="fill:#FFFFFF;" d="M235.959,306.324c0,5.78-9.672,10.47-21.607,10.47c-11.925,0-21.607-4.69-21.607-10.47   c0-5.765,9.683-10.455,21.607-10.455C226.287,295.868,235.959,300.558,235.959,306.324z"/>
	<path style="fill:#FFFFFF;" d="M299.081,302.952c0,6.715-11.239,12.152-25.092,12.152c-13.856,0-25.088-5.437-25.088-12.152   c0-6.704,11.232-12.159,25.088-12.159C287.843,290.792,299.081,296.248,299.081,302.952z"/>
	<path style="fill:#091438;" d="M273.99,360.665c0,0-53.11,1.011-81.465,16.036c0,0-22.954-52.489-12.596-105.145l15.297,98.12   c0,0,36.005-13.051,72.013-13.051c0,0-5.895-13.38-14.856-5.852C252.382,350.773,262.293,328.722,273.99,360.665z"/>
	
		<rect x="165.394" y="260.814" transform="matrix(0.9035 -0.4287 0.4287 0.9035 -97.4123 110.6827)" style="fill:#091438;" width="63.272" height="21.602"/>
	
		<rect x="266.672" y="225.002" transform="matrix(0.2135 -0.977 0.977 0.2135 -36.3368 476.0446)" style="fill:#091438;" width="21.604" height="71.173"/>
	<path style="fill:#091438;" d="M228.082,304.349c0,2.195-2.217,3.975-4.949,3.975c-2.737,0-4.954-1.78-4.954-3.975   c0-2.195,2.217-3.979,4.954-3.979C225.865,300.37,228.082,302.154,228.082,304.349z"/>
	<path style="fill:#091438;" d="M282.423,302.952c0,2.206-2.217,3.979-4.95,3.979c-2.736,0-4.953-1.773-4.953-3.979   c0-2.195,2.217-3.978,4.953-3.978C280.207,298.973,282.423,300.757,282.423,302.952z"/>
	<g>
		<path style="fill:#FFFFFF;" d="M329.36,436.975l-36.113-53.981c0.852-0.123,1.675-0.393,2.358-0.892    c7.455-5.025-0.375-27.246-0.78-28.499c0.845,0.52,28.853,17.943,41.666,52.879C344.783,429.014,340.697,438.52,329.36,436.975z"/>
		<path style="fill:#091438;" d="M303.969,403.45l-0.664-1.177c0.801-0.451,19.485-11.351,11-36.149l1.278-0.44    C324.439,391.573,304.176,403.335,303.969,403.45z"/>
		
			<rect x="315.534" y="370.018" transform="matrix(0.8189 -0.574 0.574 0.8189 -176.2869 255.1932)" style="fill:#091438;" width="1.348" height="73.807"/>
		<polygon style="fill:#091438;" points="343.642,425.585 295.54,371.074 296.55,370.178 344.653,424.689   "/>
		
			<rect x="317.273" y="352.237" transform="matrix(0.683 -0.7304 0.7304 0.683 -179.4133 353.8354)" style="fill:#091438;" width="1.354" height="62.769"/>
	</g>
	<g>
		<path style="fill:#091438;" d="M427.01,244.511c0,0-117.452,49.553-201.398-64.316c0,0-40.739,49.962-92.946,40.962    c0,0-18.006-228.186,155.274-220.989C461.217,7.369,427.01,244.511,427.01,244.511z"/>
		<path style="fill:#FFFFFF;" d="M423.035,241.323c0,0-115.756,42.888-197.423-67.878c0,0-38.125,53.923-88.914,45.161    c0,0-17.513-221.971,151.05-214.969C456.307,10.644,423.035,241.323,423.035,241.323z"/>
		<g>
			<path style="fill:#091438;" d="M231.54,145.458c46.476,38.191,115.675,84.059,181.628,74.458     c-66.551,13.187-139.236-29.837-188.546-66.162L231.54,145.458z"/>
			<path style="fill:#091438;" d="M238.999,85.733c19.132,53.623,64.825,101.162,120.164,116.626     c-57.925-12.486-107.356-59.005-130.302-112.904L238.999,85.733z"/>
			<path style="fill:#091438;" d="M219.626,26.509c33.804,70.394,111.371,125.108,190.846,124.882     c-81.257,3.978-163.296-50.026-200.571-120.178L219.626,26.509z"/>
			<path style="fill:#091438;" d="M141.188,157.832c34.135-5.156,74.238-17.97,95.28-47.282     c-18.793,32.218-58.849,49.195-93.428,57.925L141.188,157.832z"/>
			<path style="fill:#091438;" d="M145.84,131.546c36.169-6.135,71.307-30.056,92.448-59.817     c-19.055,32.978-53.507,60.694-90.433,70.427L145.84,131.546z"/>
			<path style="fill:#091438;" d="M139.363,194.368c32.666-5.644,71.168-21.367,86.249-53.103     c-12.451,34.427-50.885,54.431-84.116,63.692L139.363,194.368z"/>
		</g>
	</g>
	<g>
		<path style="fill:#091438;" d="M241.021,164.399c0,17.254-6.314,31.238-14.098,31.238c-7.787,0-14.094-13.984-14.094-31.238    c0-17.25,6.307-31.236,14.094-31.236C234.706,133.163,241.021,147.149,241.021,164.399z"/>
		<path style="fill:#EA4A0C;" d="M236.468,164.399c0,14.64-4.859,26.512-10.856,26.512c-5.993,0-10.849-11.872-10.849-26.512    c0-14.641,4.856-26.51,10.849-26.51C231.609,137.889,236.468,149.758,236.468,164.399z"/>
		<path style="fill:#FFFFFF;" d="M224.255,149.606c0,2.478-1.108,4.486-2.473,4.486c-1.368,0-2.48-2.007-2.48-4.486    c0-2.477,1.112-4.486,2.48-4.486C223.147,145.12,224.255,147.129,224.255,149.606z"/>
		<path style="fill:#FFFFFF;" d="M223.038,174.937c1.499,6.793,1.628,12.544,0.296,12.836c-1.339,0.298-3.635-4.975-5.13-11.771    c-1.495-6.798-1.629-12.544-0.292-12.84C219.244,162.872,221.54,168.141,223.038,174.937z"/>
	</g>
</g>















</svg>
