<?xml version="1.0" encoding="UTF-8"?>
<!-- Generator: Adobe Illustrator 25.3.1, SVG Export Plug-In . SVG Version: 6.00 Build 0)  -->
<svg xmlns="http://www.w3.org/2000/svg" xmlns:xlink="http://www.w3.org/1999/xlink" version="1.1" id="Capa_1" x="0px" y="0px" viewBox="0 0 512.125 512.125" style="enable-background:new 0 0 512.125 512.125;" xml:space="preserve" width="512" height="512">
<g>
	<g>
		<g>
			<g>
				<g>
					<path style="fill:#FF967F;" d="M425.562,377.187c0.05,8.776-4.488,17.936-13.448,20.472       c-21.34,6.023-54.659-1.017-74.414-7.191c-14.015-4.371-36.807-12.647-47.568-18.753c-0.534-0.067-1.051-0.351-1.602-0.851       c-1.485-1.335-3.287-2.419-4.855-3.687c-1.785-1.418-5.022-5.172-7.925-9.544c-3.454-5.205-6.44-11.279-5.94-15.3       c0.567-4.471-0.251-9.11-0.251-13.598c0-12.063,0.067-24.143,0.067-36.223c0-2.186-0.084-3.137,1.135-4.154       c-1.235-1.902-1.235-0.684-1.001-13.798c0.05-2.87,4.087-1.385,6.173,1.451c8.326,11.246,10.445,24.443,12.313,37.941       c0.834,6.14,1.802,12.881,3.888,18.754c3.003,8.493,5.339,12.347,9.26,14.399c3.137,1.652,7.325,2.152,13.698,2.953       c17.219,2.169,33.486,1.635,46.901,0.117c20.906-2.352,34.938-7.158,34.938-8.059c0-0.017,0-0.033-0.017-0.05       c-0.467-0.651-0.534,0.2-19.07,4.572c-1.168,0.267-1.886-0.133-2.47-1.135c-4.238-7.308-7.658-12.23-12.63-23.258       c-1.218-2.736-3.237-5.956-3.721-9.06c-0.067-0.434-0.1-0.884-0.1-1.318c-0.017-4.037,5.423-42.346,16.301-75.115       c0.283-0.868,0.784-2.035,1.535-1.518C384.068,240.256,425.379,332.155,425.562,377.187z"/>
					<path style="fill:#FF967F;" d="M268.442,290.009c-0.134,55.694,0.501,52.473-1.885,57.178       c-1.202,2.369-2.503,4.655-3.938,6.941c-0.384,0.65-0.801,1.285-1.235,1.935c-0.985,6.04-5.957,10.728-11.146,13.948       c-1.051,1.118-1.919,1.785-2.886,1.685c-17.252,9.644-56.277,24.076-89.297,27.763c-4.638,0.517-20.939,1.818-30.283-1.051       c-8.893-2.736-12.997-7.775-14.566-14.099c-8.526-34.487,45.066-158.171,49.086-148.444       c2.069,5.006,11.646,36.056,16.635,76.299c0.05,0.284,0.083,0.584,0.117,0.868c0.05,0.434,0.05,0.834-0.233,1.185       c-2.569,3.27,0.734,2.169-15.634,30.199c-1.301,2.236-1.518,2.536-3.637,2.136c-13.698-2.603-18.203-5.556-18.487-4.405       c-0.417,1.652,16.501,5.473,33.937,7.558c7.975,0.951,16.051,1.552,22.624,1.402c16.901-0.384,23.809-1.168,38.508-3.087       c0.35-0.35,0.684-0.684,1.001-1.034c15.5-16.284,8.376-29.716,18.036-57.829c4.771-13.882,13.782-21.273,13.798-13.348       c0.034,9.127,0.551,10.645-1.785,12.547C267.892,288.674,268.442,289.159,268.442,290.009z"/>
					<path style="fill:#FF967F;" d="M313.255,209.336c0.329-0.943,0.065-1.404-0.904-1.697c-10.428-3.164-39.097-6.323-43.492-6.31       c-7.979,0.023-29.487,2.82-42.765,6.138c-1.74,0.435-1.944,0.678-1.001,3.21C242.402,257.137,296.736,256.758,313.255,209.336z       "/>
				</g>
				<path style="fill:#FC09B2;" d="M359.458,438.236c6.34,38.358,14.232,44.898,7.091,48.519c-2.686,1.368-5.406,2.669-8.192,3.954      v0.017c-0.768,0.367-1.552,0.717-2.319,1.068c-2.436,1.101-4.955,2.169-7.608,3.187c-0.918,0.35-1.819,0.7-2.736,1.051      c-1.418,0.517-2.82,1.018-4.238,1.502c-6.24,2.136-13.264,4.154-21.557,6.006c-3.07,0.701-6.423,1.385-9.494,1.969      c-1.568,0.317-3.187,0.601-4.855,0.901c-13.381,2.353-26.078,4.271-39.943,3.938c-4.272-0.1-8.026-0.384-12.163-0.851      c-0.834-0.1-1.685-0.2-2.519-0.3c-0.434-0.05-0.868-0.1-1.318-0.167c-0.918-0.117-1.819-0.217-2.736-0.35      c-0.484-0.067-0.968-0.133-1.452-0.2c-22.024-3.02-44.231-8.176-64.753-17.069c-1.835-0.784-7.391-3.454-9.177-4.588      c-0.334-0.217-0.634-0.417-0.901-0.617v-0.017c-0.15-0.1-0.284-0.2-0.4-0.317c-0.567-0.467-1.001-0.968-1.285-1.519      c-0.05-0.067-0.083-0.133-0.117-0.217c-0.034-0.05-0.05-0.1-0.067-0.15c-0.084-0.167-0.134-0.35-0.184-0.55      c-0.067-0.217-0.117-0.45-0.133-0.684c-0.034-0.233-0.05-0.484-0.05-0.751c0-0.3,0.017-0.601,0.05-0.918      c0.033-0.3,0.067-0.6,0.133-0.917c0.1-0.634,0.25-1.335,0.467-2.102c0.017-0.067,0.033-0.117,0.05-0.183      c1.819-7.008,6.908-20.239,10.912-49.487c0.117-0.851,0.234-1.685,0.333-2.503c0.117-0.951,0.251-1.902,0.367-2.886      c0.184-1.568,0.367-3.103,0.551-4.672c0.167-1.485,0.333-2.986,0.501-4.572c1.185-10.779,0.968-10.561,1.051-13.315      c0.234-6.908-1.301-2.503,24.193-11.112c1.702-0.567,1.685-0.567,2.203-0.751c0.734-0.25,1.501-0.517,2.286-0.801      c1.485-0.534,3.087-1.085,4.772-1.685c1.752-0.617,3.587-1.268,5.489-1.952c6.607-2.386,13.899-5.223,20.489-8.526      c0.634-0.317,1.285-0.651,1.935-1.001c0.667-0.35,1.335-0.701,2.002-1.084c2.486-1.385,5.055-2.987,7.391-4.772      c2.052-1.552,3.854-3.203,5.272-4.939c0.3-0.367,0.584-0.717,0.851-1.084c0.283-0.367,0.534-0.734,0.767-1.101      c1.502-2.369,2.303-4.872,2.202-7.508c1.435-2.286,2.736-4.572,3.938-6.941c1.652-3.253,1.852-2.72,1.869-20.589v-3.32      c0-7.742-0.017-18.403,0.017-33.269c0-0.851-0.551-1.335-1.268-1.652c2.169-1.768,1.868-3.203,1.802-10.778v-0.084      c-0.017-0.534-0.017-1.084-0.017-1.685c0-2.219-0.717-3.237-1.835-3.254h-0.016c-1.335,0-3.237,1.385-5.222,3.854      c-0.751,0.918-1.502,1.985-2.236,3.17c0,0.017,0,0.017,0,0.017c-1.001,1.602-1.985,3.437-2.886,5.473      c-0.567,1.285-1.101,2.653-1.602,4.088c-2.803,8.159-4.188,15.066-5.122,21.173c-1.318,8.492-1.752,15.417-3.888,21.94v0.017      c-1.652,4.972-4.271,9.694-9.026,14.699c-1.585,0.217-3.27,0.434-5.056,0.651c-1.869,0.234-3.921,0.45-5.99,0.667      c-0.968,0.1-1.952,0.2-2.92,0.284c-0.067,0.017-0.117,0.017-0.184,0.017c-0.517,0.05-1.018,0.1-1.535,0.15      c-1.318,0.117-2.62,0.234-3.804,0.334c-0.401,0.033-0.784,0.067-1.168,0.1c-1.034,0.1-2.002,0.167-2.837,0.233      c-0.183,0.017-0.35,0.034-0.534,0.05c-0.367,0.017-0.701,0.05-1.001,0.067c-0.15,0.017-0.317,0.017-0.484,0.033      c-0.217,0.017-0.417,0.017-0.601,0.034c-4.922,0.3-8.91,0.2-24.66,0.1c-2.152-0.017-3.053,0.017-3.154-1.802      c-0.317-5.189-0.684-10.144-1.084-14.883c-0.234-2.82-0.451-5.239-0.651-7.425c-0.1-1.018-0.2-2.052-0.3-3.054      c-0.117-1.034-0.217-2.019-0.317-3.003v-0.017c-2.72-25.678-6.724-45.399-12.463-66.355c-0.434-1.568-0.868-3.137-1.318-4.705      c-0.3-1.068-0.601-2.152-0.918-3.22c-0.4-1.401-0.818-2.82-1.235-4.255c-0.551-1.852-1.118-3.721-1.685-5.623      c-0.534-1.752-0.501-2.036,0.834-2.97c2.903-2.002,6.908-4.839,17.085-9.494c4.939-2.252,9.944-4.305,15.016-6.207      c7.975-3.02,15.233-5.306,20.072-6.691c0.601-0.167,1.135-0.333,1.635-0.467c2.169-0.584,3.654-0.934,4.255-1.034h0.067      c0.501-0.067,0.934,0.134,1.168,0.584c0.017,0.033,0.033,0.05,0.05,0.084c0.367,0.767,0.701,1.518,0.984,2.303      c0.217,0.617,0.451,1.218,0.701,1.818c8.726,22.041,26.812,33.336,44.848,32.886c0.968-0.017,1.936-0.083,2.887-0.184      c0.801-0.067,1.585-0.167,2.386-0.284h0.017c1.368-0.2,2.719-0.484,4.071-0.834c2.436-0.617,4.822-1.468,7.174-2.553h0.017      c2.352-1.085,4.655-2.386,6.874-3.921c0.184-0.133,0.35-0.25,0.517-0.367c0.017-0.017,0.017-0.017,0.017-0.017      c4.388-3.137,8.459-7.174,11.996-12.147c0.601-0.834,1.185-1.685,1.735-2.586c0.017-0.033,0.034-0.083,0.067-0.117      c0.501-0.768,0.968-1.535,1.402-2.336c0.517-0.834,0.984-1.702,1.435-2.586c0.05-0.1,0.1-0.184,0.134-0.284      c0.2-0.401,0.401-0.768,0.567-1.101c4.138-8.443,2.353-9.043,6.007-8.076c10.161,2.703,23.542,7.124,33.386,11.429      c4.388,1.919,12.013,5.306,17.652,8.559c0.15,0.084,0.35,0.2,0.584,0.35c1.251,0.718,2.386,1.452,3.354,2.136      c1.218,0.868,2.002,1.285,2.369,1.835c0,0.017,0.017,0.017,0.017,0.034c1.201,1.868-2.169,5.539-8.843,34.487      c-4.922,21.323-8.242,41.962-10.178,67.289c-0.25,3.354-0.417,5.94-0.534,7.925c-0.1,1.385-0.183,2.786-0.267,4.204      c0,0.033,0,0.033,0,0.033c-0.067,1.168,0,1.852-0.534,2.236h-0.017c-0.233,0.167-0.567,0.267-1.084,0.35      c-0.15,0-0.3,0.017-0.467,0.034c-0.667,0.067-1.602,0.084-2.803,0.084c-2.186,0-5.289-0.067-9.477-0.067      c-1.168,0-2.286-0.017-3.42-0.034c-15.433-0.15-26.946-1.418-35.589-2.569c-1.936-1.018-3.454-2.436-4.888-4.655      c-1.235-1.919-2.403-4.422-3.637-7.742c-0.25-0.634-0.484-1.301-0.734-2.002c-2.086-5.873-3.053-12.614-3.888-18.754      c-0.217-1.535-0.434-3.053-0.651-4.572c-1.218-8.176-2.786-16.184-6.057-23.626c-1.468-3.37-3.304-6.641-5.606-9.744      c-2.086-2.836-6.123-4.321-6.173-1.451c-0.234,13.114-0.234,11.896,1.001,13.798c-1.218,1.018-1.135,1.969-1.135,4.154      c0,12.08-0.067,24.159-0.067,36.223c0,4.121,0.684,8.359,0.367,12.48c-0.017,0.167-0.033,0.334-0.05,0.501      c-0.017,0.2-0.033,0.417-0.067,0.617c-0.501,4.021,2.486,10.094,5.94,15.3c1.802,6.29,8.426,11.93,14.449,15.15      c5.039,2.686,10.211,5.072,15.5,7.225h0.017c0.785,0.317,1.602,0.651,2.403,0.968h0.017c0.4,0.167,0.801,0.334,1.201,0.484      c9.827,3.804,17.519,6.524,23.542,8.493c1.535,0.501,2.953,0.951,4.271,1.368c1.001,0.3,1.936,0.601,2.82,0.851      c0.3,0.083,0.584,0.167,0.868,0.25c0.634,0.2,1.251,0.367,1.835,0.534c0.885,0.25,1.702,0.467,2.453,0.667      c0.084,0.017,0.15,0.033,0.217,0.05c2.653,0.717,4.538,1.168,5.906,1.485c0.484,0.117,0.901,0.234,1.268,0.334      c1.301,0.334,1.835,0.601,2.085,1.118c0.033,0.05,0.067,0.1,0.083,0.167c0.117,0.3,0.15,0.701,0.184,1.235      c0.05,0.684,0.1,1.335,0.15,2.002c0.017,0.217,0.033,0.434,0.05,0.667c0.851,11.212,1.936,20.906,3.137,29.298      c0.2,1.451,0.417,2.87,0.617,4.238C359.041,435.6,359.257,436.935,359.458,438.236z"/>
				<g style="opacity:0.45;">
					<path style="fill:#000E3F;" d="M357.272,237.872c-1.778,0.467-4.336,3.67-6.069,7.895c-0.934-2.486-2.331-4.683-4.527-6.53       c-3.503-2.945-4.221-1.822-4.491,1.606c-0.177,2.254,0.081,4.992,0.71,7.744c-2.226-1.642-5.69-3.735-8.435-4.153       c-2.849-0.432-1.344,3.14,0,5.685c3.534,6.688,13.465,11.88,16.424,11.217c0.167-0.105,0.491,0.008,1.407-1.088       c3.811-4.554,7.125-9.417,7.311-15.449C359.643,243.45,359.937,237.172,357.272,237.872z"/>
					<path style="fill:#000E3F;" d="M368.283,228.77c-1.051,8.696,1.754,11.648,6.326,4.356       C374.245,232.558,369.442,229.436,368.283,228.77z"/>
					<path style="fill:#000E3F;" d="M357.272,285.876c-1.778,0.467-4.336,3.67-6.069,7.895c-0.934-2.486-2.331-4.683-4.527-6.53       c-3.503-2.945-4.221-1.822-4.491,1.606c-0.177,2.255,0.081,4.993,0.71,7.744c-2.226-1.642-5.69-3.735-8.435-4.154       c-2.849-0.432-1.344,3.14,0,5.685c3.534,6.688,13.465,11.88,16.424,11.217c0.006-0.002,0.013-0.002,0.019-0.004       c1.609-0.379,8.469-9.039,8.699-16.533C359.643,291.454,359.937,285.176,357.272,285.876z"/>
					<path style="fill:#000E3F;" d="M333.285,340.558c-1.508,0.866,1.385,6.229,2.301,7.475c0.419,0.569,0.898,1.115,1.399,1.648       c1.128,0.012,2.255,0.024,3.425,0.024c0,0.001,0,0.002,0,0.002c6.502,0,10.402,0.142,12.272-0.019       c2.657-0.229,1.74,0.555,2.905-14.774c-1.495,1.349-3.149,3.846-4.386,6.861c-0.934-2.486-2.331-4.683-4.527-6.53       c-3.503-2.945-4.221-1.822-4.491,1.606c-0.177,2.254,0.081,4.992,0.71,7.744C340.614,342.914,334.986,339.584,333.285,340.558z       "/>
					<path style="fill:#000E3F;" d="M351.304,405.187c0.319-0.198,0.664-0.54,0.987-0.927c0.977-1.167,1.918-2.356,2.785-3.578       c-0.552-7.217,2.304-2.7-22.202-10.729C333.96,398.874,349.003,407.054,351.304,405.187z"/>
					<path style="fill:#000E3F;" d="M334.459,442.135c1.875,3.548,4.8,5.933,8.387,8.394c0.678,0.465,6.13,3.25,8.037,2.823       c0.006-0.001,0.013-0.002,0.019-0.004c0.116-0.027,0.134-0.007,0.29-0.095c0.415-0.235,0.753-0.576,1.098-0.989       c3.504-4.187,6.556-8.648,7.175-14.026c-0.43-2.603-0.852-5.362-1.263-8.267c-2.301-1.182-5.87,5.059-7,7.813       c-0.934-2.486-2.331-4.684-4.527-6.53c-3.503-2.945-4.221-1.822-4.491,1.606c-0.177,2.254,0.081,4.992,0.71,7.744       c-2.096-1.546-4.649-3.098-7.149-3.831c-0.71-0.208-1.822-0.571-2.459-0.206C332.176,437.202,333.389,440.108,334.459,442.135z       "/>
					<path style="fill:#000E3F;" d="M357.272,477.892c-1.778,0.467-4.336,3.671-6.069,7.895c-0.934-2.486-2.331-4.683-4.527-6.53       c-3.503-2.945-4.221-1.822-4.491,1.606c-0.177,2.254,0.081,4.992,0.71,7.743c-0.865-0.638-1.744-1.233-2.621-1.757       c-1.657-0.989-4-2.12-5.814-2.397c-2.849-0.434-1.344,3.14,0,5.685c1.662,3.145,3.946,5.176,7.002,7.402       c5.638-1.929,11.292-4.213,16.899-6.81c0.714-1.855,1.177-3.809,1.241-5.912C359.643,483.47,359.937,477.192,357.272,477.892z"/>
					<path style="fill:#000E3F;" d="M307.509,237.223c1.778-0.467,4.336-3.671,6.069-7.895c0.935,2.486,2.331,4.683,4.527,6.53       c3.503,2.945,4.221,1.822,4.491-1.606c0.177-2.254-0.081-4.992-0.71-7.744c2.056,1.517,7.889,5.024,9.608,4.037       c0.907-0.521,0.262-2.558-0.589-4.391c-2.006-4.325-4.687-6.633-8.972-9.571c-0.678-0.465-6.129-3.25-8.036-2.823       c-2.178,0.487-2.658,4.58-7.974,12.045C304.945,229.087,304.383,238.044,307.509,237.223z"/>
					<path style="fill:#000E3F;" d="M287.924,261.336c0.167-0.105,0.493,0.006,1.408-1.088c3.811-4.554,7.125-9.417,7.311-15.449       c0.1-3.213-0.016-8.175-2.871-6.713c-2.684,1.904-4.289,4.662-5.528,7.681c-0.463-1.232-1.057-2.386-1.789-3.468       c-2.338,1.069-4.728,1.913-7.15,2.536c0.124,1.217,0.341,2.483,0.632,3.752c-1.478-1.091-3.057-2.096-4.73-2.891       c-2.377,0.364-3.955,0.41-5.258,0.443C271.314,254.297,283.996,262.215,287.924,261.336z"/>
					<path style="fill:#000E3F;" d="M321.934,264.587c-0.678-0.465-6.129-3.25-8.035-2.823c-0.007,0.002-0.014,0.002-0.02,0.004       c-1.609,0.381-8.469,9.064-8.699,16.533c-0.042,1.349-0.336,7.627,2.33,6.927c1.778-0.467,4.336-3.67,6.069-7.895       c0.935,2.486,2.331,4.683,4.527,6.53c3.503,2.945,4.221,1.822,4.491-1.606c0.177-2.254-0.081-4.992-0.71-7.744       c2.096,1.546,4.649,3.098,7.149,3.832c2.532,0.743,4.089,0.599,1.87-4.185C328.9,269.833,326.219,267.525,321.934,264.587z"/>
					<path style="fill:#000E3F;" d="M294.321,285.871c-1.785,0.467-4.338,3.671-6.073,7.892c-0.934-2.486-2.336-4.672-4.538-6.523       c-0.901-0.751-1.602-1.235-2.169-1.485c3.27,7.441,4.838,15.45,6.057,23.626c0.117,0,0.234-0.017,0.334-0.034       c0-0.017,0-0.017,0.017-0.017c1.635-0.383,8.476-9.126,8.693-16.534C296.69,291.461,296.973,285.171,294.321,285.871z"/>
					<path style="fill:#000E3F;" d="M321.934,312.591c-0.678-0.465-6.129-3.25-8.036-2.823c-0.006,0.002-0.013,0.002-0.02,0.004       c-0.114,0.027-0.137,0.008-0.291,0.096c-1.331,0.75-8.17,8.701-8.409,16.437c-0.042,1.349-0.336,7.627,2.33,6.927       c1.778-0.467,4.336-3.671,6.069-7.895c0.934,2.486,2.331,4.683,4.527,6.53c3.503,2.945,4.221,1.822,4.491-1.606       c0.177-2.255-0.081-4.993-0.71-7.744c2.096,1.546,4.649,3.098,7.149,3.832c2.532,0.743,4.089,0.599,1.87-4.185       C330.254,320.756,326.219,315.529,321.934,312.591z"/>
					<path style="fill:#000E3F;" d="M294.321,333.873c-0.451,0.117-0.934,0.401-1.452,0.834c1.235,3.32,2.403,5.823,3.637,7.742       c0.067-0.534,0.117-1.085,0.133-1.635C296.69,339.463,296.973,333.173,294.321,333.873z"/>
					<path style="fill:#000E3F;" d="M294.313,381.884c-1.778,0.467-4.336,3.671-6.069,7.896c-0.934-2.486-2.331-4.683-4.527-6.53       c-3.503-2.945-4.221-1.822-4.491,1.606c-0.177,2.254,0.08,4.992,0.71,7.743c-2.241-1.653-5.701-3.737-8.435-4.153       c-2.848-0.434-1.344,3.14,0,5.685c3.524,6.671,13.457,11.882,16.424,11.217c0.006-0.001,0.013-0.002,0.019-0.004       c0.118-0.029,0.133-0.006,0.291-0.096c1.388-0.794,8.171-8.721,8.409-16.438C296.685,387.462,296.979,381.184,294.313,381.884z       "/>
					<path style="fill:#000E3F;" d="M321.934,408.599c-0.678-0.465-6.13-3.251-8.037-2.823c-0.006,0.002-0.012,0.002-0.019,0.004       c-0.117,0.028-0.133,0.006-0.291,0.096c-1.335,0.756-8.17,8.699-8.409,16.437c-0.042,1.349-0.336,7.627,2.33,6.927       c1.778-0.467,4.336-3.671,6.069-7.895c0.935,2.486,2.331,4.683,4.527,6.529c3.503,2.945,4.221,1.822,4.491-1.606       c0.177-2.254-0.081-4.992-0.71-7.744c0.865,0.638,1.744,1.233,2.621,1.756c1.38,0.824,5.687,3.027,6.987,2.281       c0.907-0.52,0.262-2.557-0.589-4.391C329.552,415.25,328.009,412.765,321.934,408.599z"/>
					<path style="fill:#000E3F;" d="M308.133,380.971c-0.814-0.321-1.626-0.647-2.436-0.978       C306.223,381.359,307.045,381.563,308.133,380.971z"/>
					<path style="fill:#000E3F;" d="M294.313,429.888c-1.778,0.467-4.336,3.671-6.069,7.895c-0.934-2.486-2.331-4.684-4.527-6.53       c-3.503-2.945-4.221-1.822-4.491,1.606c-0.177,2.254,0.08,4.992,0.71,7.744c-2.241-1.653-5.701-3.737-8.435-4.153       c-2.848-0.434-1.345,3.138,0,5.685c1.879,3.556,4.819,5.947,8.387,8.394c0.678,0.465,6.13,3.25,8.037,2.823       c0.006-0.001,0.013-0.002,0.019-0.004c1.35-0.326,8.458-8.697,8.699-16.533C296.685,435.466,296.979,429.188,294.313,429.888z"/>
					<path style="fill:#000E3F;" d="M321.934,456.603c-0.678-0.465-6.129-3.25-8.036-2.823c-0.006,0.002-0.013,0.002-0.02,0.004       c-0.115,0.027-0.135,0.007-0.291,0.095c-1.331,0.75-8.17,8.701-8.409,16.437c-0.042,1.349-0.336,7.627,2.33,6.927       c1.778-0.467,4.336-3.671,6.069-7.895c0.934,2.485,2.331,4.683,4.527,6.529c3.503,2.945,4.221,1.822,4.491-1.606       c0.177-2.255-0.081-4.993-0.71-7.744c0.865,0.638,1.744,1.232,2.621,1.757c1.38,0.824,5.687,3.027,6.987,2.281       c0.907-0.52,0.262-2.557-0.589-4.391C329.551,463.252,328.009,460.769,321.934,456.603z"/>
					<path style="fill:#000E3F;" d="M294.313,477.892c-1.778,0.467-4.336,3.671-6.069,7.895c-0.934-2.486-2.331-4.683-4.527-6.53       c-3.503-2.945-4.221-1.822-4.491,1.606c-0.177,2.254,0.08,4.992,0.71,7.743c-2.241-1.653-5.701-3.737-8.435-4.153       c-2.848-0.434-1.345,3.138,0,5.685c3.521,6.665,13.452,11.881,16.423,11.217c0.007-0.002,0.014-0.002,0.02-0.004       c0.115-0.027,0.137-0.007,0.29-0.095c1.38-0.782,8.171-8.71,8.409-16.437C296.685,483.47,296.979,477.192,294.313,477.892z"/>
					<path style="fill:#000E3F;" d="M313.866,501.795c-0.112,0.028-0.109-0.008-0.278,0.088c-0.42,0.237-0.765,0.591-1.098,0.989       c-0.724,0.866-1.42,1.749-2.09,2.643c3.074-0.587,6.424-1.281,9.503-1.974C318.708,502.971,315.12,501.385,313.866,501.795z"/>
					<path style="fill:#000E3F;" d="M225.118,213.301c0.003-0.001,0.006-0.001,0.009-0.002c-2.372-5.903-1.031-5.529-8.887-3.285       c0.23,0.162,0.463,0.338,0.69,0.494C217.625,210.986,223.359,213.916,225.118,213.301z"/>
					<path style="fill:#000E3F;" d="M231.354,237.872c-1.778,0.467-4.336,3.67-6.069,7.895c-0.934-2.486-2.331-4.683-4.527-6.53       c-3.502-2.945-4.221-1.822-4.491,1.606c-0.177,2.254,0.08,4.992,0.71,7.744c-0.865-0.638-1.744-1.232-2.621-1.756       c-1.663-0.993-4.004-2.121-5.814-2.397c-2.842-0.431-1.354,3.122,0,5.685c3.518,6.663,13.453,11.882,16.424,11.217       c0.006-0.002,0.013-0.002,0.019-0.004c1.639-0.396,8.471-9.129,8.7-16.533C233.726,243.45,234.02,237.172,231.354,237.872z"/>
					<path style="fill:#000E3F;" d="M244.55,285.221c1.785-0.467,4.338-3.671,6.074-7.892c0.934,2.486,2.336,4.688,4.521,6.54       c0.468,0.405,0.881,0.703,1.258,0.957c0.835-2.194,1.655-4.329,3.153-6.19c-0.118-1.33-0.313-2.709-0.624-4.127       c0.651,0.488,1.701,1.168,2.868,1.851c1.648-1.428,3.47-2.671,5.172-4.022c-1.886-3.205-4.37-5.262-7.989-7.756       c-0.684-0.467-6.14-3.237-8.042-2.82h-0.017c-0.117,0.033-0.134,0.017-0.3,0.1c-1.335,0.767-8.159,8.709-8.409,16.434       C242.181,279.648,241.881,285.922,244.55,285.221z"/>
					<path style="fill:#000E3F;" d="M231.354,285.876c-1.778,0.467-4.336,3.67-6.069,7.895c-0.934-2.486-2.331-4.683-4.527-6.53       c-3.502-2.945-4.221-1.822-4.491,1.606c-0.177,2.255,0.08,4.993,0.71,7.744c-0.865-0.638-1.744-1.233-2.621-1.757       c-1.663-0.993-4.004-2.121-5.814-2.397c-2.842-0.431-1.354,3.122,0,5.685c3.515,6.657,13.447,11.884,16.424,11.217       c0.006-0.001,0.012-0.002,0.019-0.004c1.361-0.323,8.459-8.716,8.7-16.533C233.726,291.454,234.02,285.176,231.354,285.876z"/>
					<path style="fill:#000E3F;" d="M244.55,333.24c0.484-0.134,1.035-0.467,1.602-0.951v-0.017       c2.135-6.524,2.569-13.448,3.888-21.94c-2.102,1.952-7.608,9.059-7.825,15.967C242.181,327.65,241.881,333.923,244.55,333.24z"/>
					<path style="fill:#000E3F;" d="M231.354,333.88c-1.778,0.467-4.336,3.67-6.069,7.895c-0.934-2.486-2.331-4.683-4.527-6.53       c-3.502-2.945-4.221-1.822-4.491,1.606c-0.177,2.254,0.08,4.992,0.71,7.744c-2.095-1.546-4.649-3.098-7.149-3.831       c-0.705-0.207-1.821-0.572-2.459-0.206c-1.501,0.861,1.368,6.208,2.301,7.475c0.401,0.545,0.863,1.066,1.34,1.578       c3.234-0.194,13.584-1.067,21.053-1.971c0.934-2.125,1.546-4.379,1.622-6.833C233.726,339.458,234.02,333.18,231.354,333.88z"/>
					<path style="fill:#000E3F;" d="M260.407,361.62c-3.783,6.012-11.849,10.811-18.216,13.998       c-0.011,2.275,0.226,6.176,2.359,5.617c1.778-0.467,4.336-3.67,6.069-7.895c0.934,2.485,2.331,4.683,4.527,6.53       c3.502,2.944,4.221,1.822,4.491-1.606c0.177-2.255-0.08-4.993-0.709-7.744c2.1,1.549,4.654,3.099,7.149,3.831       c2.537,0.745,4.089,0.599,1.87-4.185C266.61,367.283,265.199,365.12,260.407,361.62z"/>
					<path style="fill:#000E3F;" d="M231.354,381.884c-1.778,0.467-4.336,3.671-6.069,7.896c-0.789-2.099-1.923-3.985-3.574-5.634       c-1.905,0.691-3.742,1.341-5.498,1.958c-0.022,1.982,0.246,4.234,0.764,6.495c-2.46-1.814-4.984-3.265-7.812-4.02       c-0.526,0.182-0.506,0.18-2.213,0.756c-0.131,1.166,0.766,3.236,1.59,4.796c1.868,3.537,4.78,5.92,8.387,8.393       c0.678,0.465,6.131,3.251,8.037,2.823c0.006-0.001,0.012-0.002,0.019-0.004c0.116-0.028,0.135-0.007,0.291-0.096       c0.419-0.24,0.748-0.571,1.098-0.989c3.811-4.555,7.125-9.418,7.311-15.449C233.726,387.462,234.02,381.184,231.354,381.884z"/>
					<path style="fill:#000E3F;" d="M268.536,422.561c0.907-0.52,0.262-2.557-0.589-4.391c-2.006-4.325-4.688-6.633-8.972-9.571       c-0.678-0.465-6.131-3.251-8.037-2.823c-0.006,0.001-0.013,0.002-0.019,0.004c-0.116,0.027-0.134,0.007-0.291,0.096       c-1.347,0.768-8.17,8.714-8.409,16.437c-0.042,1.349-0.336,7.627,2.33,6.927c1.778-0.467,4.336-3.671,6.069-7.895       c0.934,2.486,2.331,4.683,4.527,6.529c3.502,2.945,4.221,1.822,4.491-1.606c0.177-2.254-0.08-4.992-0.709-7.744       C260.984,420.041,266.817,423.548,268.536,422.561z"/>
					<path style="fill:#000E3F;" d="M231.354,429.888c-1.778,0.467-4.336,3.67-6.069,7.895c-0.934-2.486-2.331-4.684-4.527-6.53       c-3.502-2.945-4.221-1.822-4.491,1.606c-0.177,2.254,0.08,4.992,0.71,7.744c-0.865-0.638-1.744-1.232-2.621-1.756       c-1.658-0.99-3.999-2.121-5.814-2.397c-2.848-0.434-1.346,3.138,0,5.685c3.925,7.432,15.164,12.41,16.844,11.056       c1.174-0.729,8.057-8.53,8.298-16.376C233.726,435.466,234.02,429.188,231.354,429.888z"/>
					<path style="fill:#000E3F;" d="M258.975,456.603c-0.678-0.465-6.129-3.25-8.036-2.823c-0.006,0.002-0.013,0.002-0.02,0.004       c-1.542,0.367-6.706,7.538-8.054,12.391c-0.877,3.155-1.4,11.879,1.685,11.069c1.778-0.467,4.336-3.671,6.069-7.895       c0.934,2.485,2.331,4.683,4.527,6.529c3.502,2.945,4.221,1.822,4.491-1.606c0.177-2.255-0.08-4.993-0.709-7.744       c2.1,1.55,4.654,3.099,7.149,3.832c2.532,0.742,4.089,0.599,1.87-4.185C267.295,464.768,263.26,459.541,258.975,456.603z"/>
					<path style="fill:#000E3F;" d="M231.354,477.892c-1.778,0.467-4.336,3.671-6.069,7.895c-0.934-2.486-2.331-4.683-4.527-6.53       c-3.502-2.945-4.221-1.822-4.491,1.606c-0.177,2.254,0.08,4.992,0.71,7.743c-0.865-0.638-1.744-1.233-2.621-1.757       c-1.658-0.99-3.999-2.12-5.814-2.397c-2.848-0.434-1.346,3.138,0,5.685c3.525,6.675,13.459,11.88,16.423,11.217       c0.006-0.001,0.013-0.002,0.02-0.004c1.624-0.385,8.471-9.116,8.7-16.533C233.726,483.47,234.02,477.192,231.354,477.892z"/>
					<path style="fill:#000E3F;" d="M250.939,501.784c-0.006,0.002-0.013,0.002-0.019,0.004c-0.043,0.011-0.095,0.013-0.134,0.027       c-0.121,0.043-0.248,0.114-0.268,0.13c-1.117,0.695-4.102,4.892-5.105,6.537c7.849,1.077,13.35,1.707,20.189,1.868       C260.849,504.624,253.065,501.307,250.939,501.784z"/>
					<path style="fill:#000E3F;" d="M181.592,237.223c1.778-0.467,4.336-3.671,6.069-7.895c0.934,2.486,2.331,4.683,4.527,6.53       c3.503,2.945,4.221,1.822,4.491-1.606c0.177-2.254-0.08-4.992-0.71-7.744c2.056,1.517,7.888,5.024,9.608,4.037       c0.907-0.521,0.262-2.558-0.589-4.391c-1.356-2.922-2.88-5.367-8.825-9.466c-5.065,1.904-10.083,3.96-15.023,6.223       c-1.095,2.32-1.797,4.7-1.879,7.385C179.22,231.646,178.926,237.923,181.592,237.223z"/>
					<path style="fill:#000E3F;" d="M164.91,240.991c1.221,4.137,2.375,8.181,3.467,12.177       C172.371,245.609,171.627,231.57,164.91,240.991z"/>
					<path style="fill:#000E3F;" d="M181.592,285.227c1.778-0.467,4.336-3.671,6.069-7.896c0.934,2.486,2.331,4.684,4.527,6.53       c3.503,2.945,4.221,1.822,4.491-1.606c0.177-2.254-0.08-4.992-0.71-7.744c2.056,1.517,7.888,5.024,9.608,4.037       c0.907-0.52,0.262-2.557-0.589-4.391c-2.006-4.324-4.688-6.633-8.972-9.571c-0.678-0.465-6.129-3.25-8.036-2.823       c-0.006,0.002-0.014,0.002-0.02,0.004c-0.116,0.027-0.135,0.007-0.291,0.095c-1.347,0.768-8.171,8.714-8.408,16.437       C179.22,279.65,178.926,285.927,181.592,285.227z"/>
					<path style="fill:#000E3F;" d="M196.017,312.591c-0.678-0.465-6.129-3.25-8.036-2.823c-0.007,0.002-0.013,0.002-0.02,0.004       c-0.115,0.027-0.137,0.008-0.291,0.096c-1.513,0.858-5.468,6.568-6.822,9.679c0.406,3.821,0.8,7.834,1.268,13.48       c1.732-0.876,3.976-3.865,5.546-7.69c0.934,2.486,2.331,4.683,4.527,6.53c3.503,2.945,4.221,1.822,4.491-1.606       c0.177-2.255-0.08-4.993-0.71-7.744c2.096,1.546,4.649,3.098,7.149,3.832c2.532,0.743,4.089,0.599,1.87-4.185       C204.336,320.756,200.301,315.529,196.017,312.591z"/>
					<path style="fill:#000E3F;" d="M196.017,408.599c-0.678-0.465-6.131-3.251-8.037-2.823c-0.006,0.001-0.013,0.002-0.019,0.004       c-0.117,0.028-0.132,0.006-0.291,0.096c-0.418,0.238-0.751,0.575-1.098,0.989c-1.834,2.191-3.542,4.458-4.853,6.888       c-0.558,5.123-1.053,9.471-1.759,14.642c1.77,3.328,6.116-3.188,7.701-7.05c0.934,2.486,2.331,4.683,4.527,6.53       c3.503,2.945,4.221,1.822,4.491-1.606c0.177-2.254-0.08-4.992-0.71-7.744c2.1,1.549,4.654,3.099,7.149,3.832       c2.532,0.742,4.089,0.599,1.87-4.185C204.336,416.764,200.301,411.538,196.017,408.599z"/>
					<path style="fill:#000E3F;" d="M196.017,456.603c-0.678-0.465-6.131-3.251-8.037-2.823c-0.113,0.026-0.27,0.04-0.42,0.161       c-1.086,0.675-6.173,6.909-7.653,12.234c-0.876,3.155-1.4,11.879,1.685,11.069c1.778-0.467,4.336-3.671,6.069-7.895       c0.934,2.486,2.331,4.683,4.527,6.53c3.503,2.945,4.221,1.822,4.491-1.606c0.177-2.255-0.08-4.993-0.71-7.744       c2.1,1.549,4.654,3.099,7.149,3.832c2.532,0.742,4.089,0.599,1.87-4.185C204.336,464.768,200.301,459.541,196.017,456.603z"/>
					<path style="fill:#000E3F;" d="M169.038,477.881c-1.153,4.422-1,6.381,1.556,8.318       C170.828,484.117,171.09,478.317,169.038,477.881z"/>
				</g>
				<g>
					<path style="fill:#FFBBEC;" d="M330.822,219.276c-24.212,62.571-95.016,67.042-124.152,0.894       c-0.327-0.741,0.01-1.606,0.751-1.933c1.224-0.539,2.046,0.775,1.879,0.642c34.608,61.146,90.657,54.979,118.999-0.71       l0.008-0.016c0.345-0.679,1.176-0.949,1.854-0.603C330.796,217.872,331.071,218.626,330.822,219.276z"/>
					<path style="fill:#FFBBEC;" d="M362.601,472.398c-60.578,31.694-125.177,33.241-187.136-0.062       c-0.712-0.382-0.979-1.27-0.596-1.982c0.662-1.231,2.13-0.603,1.963-0.609c3.664,1.606,7.308,3.231,10.929,4.889       c89.83,35.735,157.066,1.061,162.592,0.07c7.993-3.503,11.24-4.863,11.073-4.792       C363.039,469.227,364.147,471.583,362.601,472.398z"/>
				</g>
				<g style="opacity:0.25;">
					<path style="fill:#000E3F;" d="M354.87,397.86c-0.257-3.509,0.718,0.13-31.596-11.184c-3.29-1.152-4.369-2.022-4.583-0.135       c-4.039,35.704-4.62,71.318-36.484,85.621c-37.841,16.985-77.863-17.701-109.774,13.867c-0.911,0.902-0.234,1.328,0.961,1.898       c18.314,8.743,34.828,14.933,70.398,20.342c16.297,2.477,31.451,2.352,37.156,1.528c3.818-0.551,6.588-0.023,24.279-3.305       c19.732-3.661,39.342-8.543,57.913-17.95C378.862,480.575,361.118,483.085,354.87,397.86z"/>
					<path style="fill:#000E3F;" d="M340.247,349.705c0-0.001,0-0.002,0-0.003c4.093,0,8.186,0.026,12.278-0.012       c2.564-0.024,2.132,0.007,2.678-8.944c2.805-46.024,11.222-73.203,10.678-74.917c-0.592-1.868-29.715,34.416-40.362,81.361       C324.87,350.054,324.731,349.705,340.247,349.705z"/>
				</g>
				<g style="opacity:0.65;">
					<path style="fill:#DB5E43;" d="M179.363,313.034c-0.034-0.284-0.067-0.584-0.117-0.868c-0.4,0.367-0.801,0.751-1.218,1.135       c-4.939,4.472-11.329,9.16-18.153,11.412c-12.897,4.238-18.103,13.715-19.304,16.284c-0.192,0.417-0.272,0.637-0.278,0.654       c0.391,0.107,0.779,0.228,1.168,0.343c0.62-0.571,4.167,1.358,13.21,3.463c0.098-0.015,0.2-0.023,0.312-0.001       c1.873,0.373,3.738,0.789,5.602,1.206c0.461,0.051,0.815,0.041,1.109-0.062c-0.063-0.457,0.19-0.965,0.785-0.965       c0.092,0,0.165,0.027,0.241,0.049c0.225-0.328,0.47-0.74,0.777-1.267c16.368-28.031,13.064-26.929,15.634-30.199       C179.413,313.868,179.413,313.468,179.363,313.034z"/>
					<path style="fill:#DB5E43;" d="M396.882,341.665l0.05,0.451c0-0.017,0-0.033-0.017-0.05c-0.467-0.651-0.534,0.2-19.07,4.572       c-1.168,0.267-1.886-0.133-2.47-1.135c-4.238-7.308-7.658-12.23-12.63-23.258c-1.218-2.736-3.237-5.956-3.721-9.06       c4.955,4.505,11.396,9.277,18.27,11.529C392.31,329.652,396.882,341.665,396.882,341.665z"/>
				</g>
			</g>
			<path style="fill:#000E3F;stroke:#000E3F;stroke-width:0.25;stroke-miterlimit:10;" d="M374.707,231.262     c-13.264-9.627-29.532-15.617-45.015-20.522c-22.808-7.208-41.912-10.778-60.966-10.812h-0.267     c-9.527,0.017-19.07,0.918-29.081,2.72c-9.995,1.802-20.472,4.488-31.885,8.092c-15.483,4.906-31.751,10.895-45.015,20.522     c-13.848,10.044-57.145,117.11-51.439,151.648c0.918,5.506,3.454,10.044,8.109,13.314c15.2,10.611,42.563,5.055,61.033,1.435     c1.635-0.317,0.667,1.569,0.617,3.504c-0.3,12.914-4.655,48.185-12.113,71.143c-4.071,12.53-3.27,14.433,10.478,20.472     c7.925,3.487,16.067,6.44,24.343,8.893c23.759,7.041,44.381,10.378,64.953,10.328h0.717c20.422,0,40.928-3.337,64.503-10.328     c8.276-2.453,16.418-5.406,24.343-8.893c13.748-6.039,14.549-7.942,10.478-20.472c-7.458-22.958-11.813-58.23-12.113-71.143     c-0.05-1.936-1.018-3.821,0.617-3.504c18.47,3.621,45.833,9.177,61.032-1.435c4.655-3.27,7.191-7.808,8.109-13.314     C431.853,348.372,388.556,241.307,374.707,231.262z M226.163,208.438c9.277-3.27,24.543-5.906,42.43-5.79     c17.903-0.117,33.152,2.52,42.429,5.79c0.467,0.15,0.684,0.517,0.534,0.951c-7.792,22.908-25.244,34.988-42.963,35.021     c-17.719-0.033-35.171-12.113-42.963-35.021C225.48,208.955,225.697,208.588,226.163,208.438z M164.697,232.998     c15.834-10.411,40.894-19.672,56.478-23.342c1.285-0.317,1.351-0.283,1.869,0.934c1.084,2.536,1.952,5.172,3.27,7.592     c10.645,19.654,26.495,28.781,42.146,28.948v0.017h0.267v-0.017c15.65-0.167,31.501-9.293,42.146-28.948     c1.318-2.42,2.186-5.055,3.27-7.592c0.517-1.218,0.584-1.251,1.869-0.934c15.583,3.67,40.644,12.931,56.478,23.342     c1.902,1.268,0.451,0.684-4.555,19.421c-16.151,60.349-12.78,95.987-15.684,96.221c-13.598,1.051-36.89-0.267-43.18-1.518     c-9.727-1.952-14.416-3.888-17.786-20.939c-1.268-6.374-1.702-12.898-2.92-19.288c-2.202-11.579-6.741-31.885-17.786-36.073     c-0.618-0.233-1.235-0.35-1.852-0.384v-0.033c-0.05,0-0.083,0.017-0.133,0.017c-0.05,0-0.083-0.017-0.134-0.017v0.033     c-0.617,0.034-1.235,0.15-1.852,0.384c-11.045,4.188-15.584,24.493-17.786,36.073c-1.218,6.39-1.652,12.914-2.92,19.288     c-3.37,17.052-8.059,18.987-17.786,20.939c-6.29,1.251-29.582,2.569-43.18,1.518c-2.903-0.234,0.467-35.872-15.684-96.221     C164.247,233.682,162.795,234.266,164.697,232.998z M363.212,328.902c7.775,15.667,10.912,17.235,8.826,17.686     c-1.986,0.434-0.934,0.367-14.132,1.619c-1.869,0.183-1.869,0.167-1.885-1.702c-0.033-3.087,0.284-8.242,0.851-12.697     C359.007,316.838,356.271,314.903,363.212,328.902z M181.165,346.504c-0.017,1.868-0.017,1.885-1.885,1.702     c-13.198-1.251-12.147-1.185-14.132-1.619c-2.086-0.451,1.051-2.019,8.826-17.686c6.941-13.999,4.205-12.063,6.34,4.905     C180.881,338.262,181.198,343.417,181.165,346.504z M146.027,399.411c-40.277,1.084-36.873-22.658-25.678-63.986     c12.564-46.4,35.438-95.153,41.078-99.024c1.135,1.835,5.606,17.719,7.157,24.193c5.439,22.841,7.342,35.689,9.511,51.172     c0.083,0.584,0.1,0.935-0.067,1.535c-0.317,1.051-1.218,2.837-3.387,8.025c-3.471,8.292-10.378,19.405-12.614,23.342     c-0.534,0.918-1.134,1.235-2.252,1.018c-13.965-2.687-17.752-5.373-19.204-4.689c-0.267,0.1-0.45,0.334-0.601,0.667     c-0.2,0.451-0.1,0.868,0.167,1.201c0.35,0.434,1.001,0.767,1.685,0.968c10.845,3.337,21.974,5.589,33.219,6.841     c4.805,0.534,9.644,0.868,14.499,1.034c10.929,0.35,41.462,0.734,50.421-5.623c5.823-4.255,8.259-15.65,9.444-22.324     c1.668-9.327,2.903-18.704,5.105-27.93c1.018-4.288,2.653-8.359,4.388-12.38c1.201-2.82,3.053-5.206,5.072-7.458     c0.484-0.551,1.218-0.868,1.852-1.268c0.384-0.25,1.035,0.017,1.118,0.417c0.016,0.15,0.117,0.283,0.117,0.434     c0.084,9.961,0.551,10.311-1.635,12.147c-4.455,3.721-6.64,11.362-7.625,17.052c-1.185,6.774-0.834,13.565-0.768,20.355     c0.016,1.068,0.4,2.403,1.468,2.436c3.604,0.084-0.951-11.295,3.787-28.447c0.968-3.504,3.287-7.758,4.271-7.675     c0.734,0.067,0.484,0.918,0.5,1.451c0.167,7.308,0.017,14.649,0.017,21.957c-0.017,4.989-0.017,9.977,0,14.966     c0,3.838,0.484,8.042-0.283,11.796c-1.385,6.907-4.272,13.531-8.376,19.254c-7.208,10.044-23.843,15.934-28.014,17.669     c-7.425,3.12-14.983,5.94-22.624,8.526c-1.468,0.484-2.92,0.984-4.388,1.468C187.021,393.955,164.33,398.91,146.027,399.411z      M357.522,436.751c6.607,40.594,14.9,45.799,7.558,49.437c-3.437,1.718-6.807,3.604-10.344,5.089     c-20.989,8.81-44.999,14.299-67.54,16.935c-5.773,0.684-12.03,0.984-18.604,0.918c-6.574,0.067-12.831-0.234-18.604-0.918     c-22.541-2.636-46.55-8.125-67.54-16.935c-3.537-1.485-6.907-3.37-10.344-5.089c-7.341-3.637,0.951-8.843,7.558-49.437     c2.035-12.43,3.737-29.699,4.188-38.275c0.2-3.62,1.351-0.133,30.216-10.711c10.295-3.771,24.66-8.843,34.154-14.265     c16.969-9.661,18.019-22.274,20.372-25.428c2.353,3.153,3.404,15.767,20.372,25.428c9.493,5.422,23.859,10.494,34.154,14.265     c28.865,10.578,30.016,7.091,30.216,10.711C353.785,407.053,355.486,424.321,357.522,436.751z M391.159,399.411     c-18.303-0.501-40.995-5.456-57.362-10.879c-1.468-0.484-2.92-0.984-4.388-1.468c-7.642-2.586-15.2-5.406-22.625-8.526     c-4.171-1.735-20.806-7.625-28.014-17.669c-4.104-5.723-6.991-12.347-8.376-19.254c-0.767-3.754-0.283-7.959-0.283-11.796     c0.017-4.989,0.017-9.978,0-14.966c0-7.308-0.15-14.649,0.017-21.957c0.016-0.534-0.234-1.385,0.501-1.451     c0.984-0.084,3.303,4.171,4.271,7.675c4.738,17.152,0.184,28.531,3.788,28.447c1.068-0.033,1.452-1.368,1.468-2.436     c0.067-6.79,0.417-13.581-0.768-20.355c-0.984-5.69-3.17-13.331-7.625-17.052c-2.186-1.835-1.718-2.186-1.635-12.147     c0-0.15,0.1-0.283,0.117-0.434c0.083-0.401,0.734-0.667,1.118-0.417c0.634,0.401,1.368,0.717,1.852,1.268     c2.019,2.252,3.871,4.639,5.072,7.458c1.735,4.021,3.37,8.092,4.388,12.38c2.202,9.227,3.437,18.604,5.105,27.93     c1.185,6.674,3.621,18.07,9.444,22.324c8.96,6.357,39.493,5.973,50.421,5.623c16.184-0.534,32.235-3.12,47.718-7.875     c1.218-0.367,2.319-1.134,1.852-2.169c-1.051-2.286-3.42,0.868-19.805,4.021c-1.118,0.217-1.718-0.1-2.252-1.018     c-2.236-3.937-9.143-15.049-12.614-23.342c-3.404-8.109-3.687-7.942-3.453-9.561c2.169-15.483,4.071-28.33,9.51-51.172     c1.552-6.474,6.023-22.358,7.158-24.193c5.639,3.871,28.514,52.624,41.078,99.024     C428.032,376.753,431.435,400.496,391.159,399.411z"/>
		</g>
		<g>
			<g>
				<g>
					<path style="fill:#FF967F;" d="M243.184,218.035c2.01-8.743,3.182-15.734,3.852-20.99c0.875-6.791,0.949-10.728,1.098-11.88       c0.037-0.217-0.279-22.341,13.36-30.333c13.453-7.892,27.558,7.992,27.576,30.299c0,3.504,0.391,7.692,1.005,12.013       c1.023,7.391,2.661,15.216,3.926,20.889"/>
					<path style="opacity:0.65;fill:#DB5E43;" d="M290.075,197.146c-5.284,6.69-12.95,10.912-21.491,10.912       c-8.578,0-16.263-4.255-21.547-11.012c0.875-6.791,0.949-10.728,1.098-11.88c0.037-0.217-0.279-22.341,13.36-30.333       c13.453-7.892,27.558,7.992,27.576,30.299C289.07,188.637,289.461,192.825,290.075,197.146z"/>
				</g>
				<path style="fill:#000E3F;" d="M243.187,219.704c-0.124,0-0.249-0.014-0.375-0.043c-0.898-0.206-1.46-1.101-1.253-2      c1.742-7.578,3.027-14.585,3.823-20.826c0.613-4.758,0.826-8.073,0.955-10.054c0.055-0.863,0.096-1.471,0.142-1.828      c0.081-5.5,1.37-24.058,14.172-31.559c5.074-2.977,10.64-3.033,15.674-0.151c8.745,5.003,14.402,17.521,14.413,31.888      c0,3.202,0.332,7.164,0.989,11.78c0.802,5.797,2.079,12.585,3.902,20.761c0.202,0.9-0.365,1.792-1.264,1.992      c-0.896,0.199-1.791-0.365-1.991-1.265c-1.845-8.265-3.138-15.142-3.951-21.024c-0.678-4.765-1.022-8.886-1.022-12.242      c-0.01-12.989-5.128-24.642-12.734-28.994c-4.008-2.295-8.274-2.248-12.329,0.134c-11.593,6.792-12.473,25.135-12.532,28.744      c-0.005,0.262-0.024,0.409-0.029,0.434c-0.029,0.244-0.062,0.783-0.112,1.545c-0.13,2.02-0.349,5.402-0.973,10.263      c-0.81,6.348-2.115,13.465-3.881,21.151C244.634,219.182,243.946,219.704,243.187,219.704z"/>
			</g>
			<g>
				<g>
					<g>
						<g>
							<path style="fill:#FF967F;" d="M307.499,141.434c0,6.442-1.547,13.553,4.474,13.553c17.871,0,20.503-25.218,6.428-25.218         C312.38,129.769,307.499,134.992,307.499,141.434z"/>
							<path style="fill:#FF967F;" d="M230.252,141.434c0,6.442,1.547,13.553-4.474,13.553c-17.871,0-20.503-25.218-6.428-25.218         C225.371,129.769,230.252,134.992,230.252,141.434z"/>
						</g>
						<g style="opacity:0.65;">
							<path style="fill:#DB5E43;" d="M318.72,145.02c-3.136,1.989-4.15,0.624-3.516-0.313c1.048-1.549,2.404-2.673,4.477-5.435         c1.048-1.419,1.58-2.916,2.507-2.271C323.396,137.844,322.631,142.501,318.72,145.02z"/>
							<path style="fill:#DB5E43;" d="M218.069,139.273c1.479,1.97,2.273,2.724,2.872,3.454c1.286,1.457,1.717,2.146,1.603,1.979         c0.45,0.659-0.127,1.533-0.911,1.383c-3.869-0.755-7.283-5.051-6.381-8.636c0.165-0.654,1.018-0.797,1.395-0.257         C216.648,137.195,217.64,138.691,218.069,139.273z"/>
						</g>
					</g>
					<g>
						<path style="fill:#000E3F;" d="M311.972,156.656c-1.849,0-3.325-0.56-4.385-1.663c-2.174-2.264-2.014-6.151-1.846-10.267        c0.044-1.091,0.09-2.201,0.09-3.292c0-7.352,5.638-13.333,12.569-13.333c3.343,0,6.13,1.244,8.061,3.598        c1.686,2.057,2.615,4.907,2.615,8.024C329.076,148.046,322.677,156.656,311.972,156.656z M318.4,131.438        c-5.09,0-9.232,4.484-9.232,9.996c0,1.136-0.047,2.292-0.093,3.428c-0.132,3.236-0.269,6.582,0.921,7.819        c0.15,0.158,0.611,0.637,1.976,0.637c8.942,0,13.767-7.005,13.767-13.596c0-2.347-0.662-4.446-1.859-5.908        C322.586,132.237,320.743,131.438,318.4,131.438z"/>
						<path style="fill:#000E3F;" d="M225.777,156.656c-10.705,0-17.102-8.609-17.102-16.933c0-3.117,0.929-5.967,2.615-8.024        c1.929-2.354,4.717-3.598,8.06-3.598c6.931,0,12.569,5.981,12.569,13.333c0,1.091,0.046,2.2,0.089,3.291        c0.168,4.116,0.328,8.003-1.846,10.267C229.102,156.096,227.628,156.656,225.777,156.656z M219.351,131.438        c-2.343,0-4.188,0.8-5.48,2.377c-1.199,1.463-1.859,3.561-1.859,5.909c0,6.591,4.825,13.596,13.765,13.596        c1.367,0,1.826-0.48,1.978-0.637c1.189-1.238,1.052-4.584,0.92-7.82c-0.046-1.136-0.093-2.292-0.093-3.427        C228.583,135.922,224.441,131.438,219.351,131.438z"/>
					</g>
				</g>
				<g>
					<g>
						<path style="fill:#FF967F;" d="M307.134,169.334c-0.534,1.118-1.101,2.202-1.735,3.22c-5.69,9.26-19.154,22.508-36.356,22.708        h-0.334c-17.202-0.2-30.666-13.448-36.356-22.708c-0.667-1.085-1.268-2.219-1.835-3.421        c-8.275-17.736-5.756-48.202,1.435-63.302c7.425-15.584,20.806-23.842,36.756-24.193c0.067-0.017,0.117-0.017,0.167-0.017        c0.05,0,0.117,0,0.167,0.017c15.951,0.35,29.332,8.609,36.757,24.193C313.007,120.981,315.527,151.632,307.134,169.334z"/>
						<g style="opacity:0.65;">
							<path style="fill:#DB5E43;" d="M294.088,145.553c-5.836,0-10.586,3.883-10.586,8.655c0,4.772,4.749,8.655,10.586,8.655         c5.838,0,10.588-3.883,10.588-8.655C304.676,149.435,299.926,145.553,294.088,145.553z"/>
							<path style="fill:#DB5E43;" d="M243.804,145.553c-5.838,0-10.588,3.883-10.588,8.655c0,4.772,4.75,8.655,10.588,8.655         c5.836,0,10.586-3.883,10.586-8.655C254.39,149.435,249.641,145.553,243.804,145.553z"/>
						</g>
					</g>
					<g>
						<path style="fill:#000E3F;" d="M307.306,105.115c-7.524-15.796-21.05-24.719-38.09-25.14c-0.36-0.048-0.456-0.029-0.673,0        c-17.045,0.418-30.57,9.342-38.095,25.14c-7.546,15.841-9.765,46.887-1.439,64.731c0.623,1.319,1.252,2.491,1.923,3.581        c5.3,8.628,19.22,23.288,37.777,23.503h0.353c18.538-0.215,32.457-14.875,37.753-23.494c0.601-0.965,1.198-2.072,1.825-3.383        c0-0.002,0.002-0.003,0.002-0.005C317.085,152.24,314.9,121.079,307.306,105.115z M305.629,168.614        c-0.267,0.558-0.524,1.063-0.779,1.541c-14.226,0.354-19.711-11.576-28.448-14.863c-4.989-1.884-12.33-1.283-16.902,1.576        c-3.821,2.387-6.924,5.831-10.561,8.462c-4.768,3.441-10.439,5.008-16.094,4.719c-0.274-0.515-0.545-1.05-0.814-1.62        c-7.943-17.023-5.796-46.709,1.429-61.878c6.975-14.641,19.507-22.896,35.286-23.243c0.044-0.001,0.088-0.003,0.132-0.007        c0.043,0.004,0.086,0.006,0.13,0.007c15.779,0.347,28.31,8.601,35.285,23.242        C311.566,121.836,313.681,151.625,305.629,168.614z"/>
						<path style="fill:#000E3F;" d="M281.276,119.335c-0.021,6.458,15.862,10.172,17.544,3.454        C300.802,114.872,281.303,110.915,281.276,119.335z"/>
						<path style="fill:#000E3F;" d="M256.474,119.335c-0.027-8.42-19.526-4.463-17.544,3.454        C240.613,129.506,256.495,125.793,256.474,119.335z"/>
						<path style="fill:#000E3F;" d="M294.849,130.494c-0.922,0-1.669,0.747-1.669,1.668c0,3.778-2.315,5.671-4.466,5.832        c-2.033,0.147-4.6-1.172-5.232-5.394c-0.139-0.91-0.981-1.539-1.898-1.402c-0.911,0.137-1.54,0.986-1.403,1.898        c0.865,5.76,4.654,8.248,8.214,8.248c0.189,0,0.38-0.007,0.567-0.021c3.754-0.28,7.556-3.517,7.556-9.16        C296.518,131.241,295.771,130.494,294.849,130.494z"/>
						<path style="fill:#000E3F;" d="M256.166,131.198c-0.908-0.139-1.76,0.491-1.898,1.402c-0.634,4.221-3.194,5.527-5.234,5.394        c-2.151-0.16-4.466-2.054-4.466-5.832c0-0.921-0.746-1.668-1.668-1.668c-0.922,0-1.669,0.747-1.669,1.668        c0,5.643,3.801,8.878,7.555,9.16c0.187,0.014,0.378,0.021,0.567,0.021c3.56,0,7.348-2.487,8.215-8.248        C257.706,132.184,257.077,131.334,256.166,131.198z"/>
						<path style="fill:#000E3F;" d="M270.153,150.483c-1.677,0-5.365-0.851-6.293-2.218c-0.154-0.258-0.258-0.567-0.026-1.16        c0.026-0.052,4.101-9.671,5.88-13.824c1.058-2.468-2.03-3.852-3.121-1.264c-1.728,4.101-5.777,13.643-5.829,13.772        c-0.799,1.934-0.258,3.404,0.336,4.307c2.037,3.095,7.66,3.739,9.052,3.739c0.928,0,1.676-0.748,1.676-1.676        C271.829,151.231,271.081,150.483,270.153,150.483z"/>
					</g>
					<g>
						<g>
							<path style="fill:#4217A6;" d="M247.314,177.51c-4.273,1.341-5.169-0.718-4.098-1.799l0.104-0.105         c4.553-4.6,10.432-6.13,9.683-5.836c0.652-0.16,1.31,0.239,1.47,0.891C254.822,172.075,251.501,176.171,247.314,177.51z"/>
							<path style="fill:#4217A6;" d="M256.711,183.715c-1.667,1.035-4.345,1.932-4.527-0.001c-0.099-1.048,2.756-4.417,3.477-5.178         c2.582-2.795,4.608-3.747,4.441-3.627c0.598-0.309,1.333-0.074,1.641,0.524C262.286,176.487,260.718,181.192,256.711,183.715         z"/>
							<path style="fill:#4217A6;" d="M292.194,172.326c2.408,1.776,4.286,4.006,4.119,3.84c0.452,0.54,0.38,1.344-0.16,1.795         c-1.018,0.852-5.674,0.084-9.009-4.135c-2.762-3.524-1.223-4.744-0.017-4.339         C287.647,169.742,288.664,169.755,292.194,172.326z"/>
							<path style="fill:#4217A6;" d="M284.777,180.701c0.992,1.419,1.55,2.63,1.467,2.463c0.467,0.933-0.323,1.984-1.326,1.835         c-3.778-0.551-7.475-5.166-7.765-9.115c-0.072-0.987,0.997-1.633,1.833-1.14         C279.376,175.109,281.542,176.028,284.777,180.701z"/>
							<path style="fill:#4217A6;" d="M272.297,181.259c0.484,2.976,0.036,5.593,0.043,5.426c-0.113,0.704-0.776,1.183-1.48,1.07         c-1.026-0.165-2.018-2.004-2.42-2.967C265.662,178.091,270.214,169.12,272.297,181.259z"/>
						</g>
						<path style="fill:#FFFFFF;" d="M260.122,159.751c-0.755,0-1.312,0.704-1.152,1.441c1.289,5.932,5.26,10.129,9.792,10.164        c4.574,0.036,8.607-4.177,9.908-10.164c0.16-0.738-0.397-1.442-1.152-1.442H260.122z"/>
					</g>
				</g>
				<g>
					<path style="fill:#000E3F;" d="M336.846,87.581c-1.25-2.635-4.12-4.676-8.976-5.589c-17.332-3.256-27.626-17.295-42.636-24.723       c-12.115-5.996-30.434-3.522-39.256,7.382c-18.375-0.953-39.811,12.805-35.902,46.081c0.941,8.01,4.169,21.008,14.766,19.616       c7.81-1.026,8.47-18.241,31.076-31.218c0.76-0.436,1.505-0.925,2.239-1.437c4.312,11.899,16.066,16.81,16.669,17.053       c0.203,0.083,0.415,0.122,0.624,0.122c0.66,0,1.285-0.395,1.548-1.044c0.344-0.855-0.069-1.827-0.924-2.172       c-0.13-0.053-10.848-4.531-14.748-15.106c14.948-2.241,22.527,9.38,31.823,13.836c2.518,1.207,4.928,2.102,7.249,2.774       c0.209,1.514,0.502,3.099,0.906,4.768c5.006,20.682,21.516,16.926,19.598-5.442C333.682,107.118,339.471,93.114,336.846,87.581       z"/>
					<g>
						<path style="fill:#4217A6;" d="M245.366,80.778c3.432,13.732-11.734,21.267-18.092,29.198        c-3.861,4.758-3.733,9.788-3.697,9.621c-0.059,1.377-2.043,1.546-2.335,0.199c-1.956-9.046,4.542-15.308,10.901-21.077        c6.127-5.401,10.927-9.648,11.034-17.677l0-0.01c0.008-0.613,0.512-1.103,1.125-1.095        C244.818,79.943,245.246,80.3,245.366,80.778z"/>
						<path style="fill:#4217A6;" d="M218.478,98.309c-1.165,0.411-2.114-1.008-1.29-1.929c2.799-3.129,11.107-9.337,13.64-18.251        l0.069-0.244c0.166-0.583,0.772-0.921,1.356-0.756C235.205,77.969,232.91,93.221,218.478,98.309z"/>
						<path style="fill:#4217A6;" d="M257.604,92.261c-0.104,0.648-0.715,1.09-1.363,0.985c-0.847-0.136-1.078-1.11-0.981-0.943        c-1.325-4.917-2.054-9.931-6.828-18.401c-3.108-5.443-4.693-6.287-3.313-7.231C246.58,65.674,260.032,77.162,257.604,92.261z"/>
						<path style="fill:#4217A6;" d="M253.293,67.297c8.731-6.199,20.597-7.504,31.238-1.259        c14.602,8.583,19.71,24.894,43.297,21.617c0.642-0.089,1.236,0.359,1.325,1.001c0.144,1.04-1.024,1.422-0.856,1.295        c-28.563,8.133-35.708-19.87-54.902-23.661c-10.472-2.135-19.118,2.94-18.951,2.886        C253.23,69.811,252.179,68.086,253.293,67.297z"/>
						<path style="fill:#4217A6;" d="M258.732,76.349c9.125-1.544,19.4,1.27,26.882,8.869c5.534,5.62,10.468,14.153,20.055,16.557        c5.428,1.433,11.436,0.575,17.195-1.217c0.62-0.193,1.279,0.153,1.471,0.773c0.306,0.984-0.768,1.575-0.613,1.408        c-5.945,2.922-12.599,4.419-18.985,3.111c-14.736-2.798-19.039-17.43-29.015-22.888c-8.606-4.98-16.957-4.439-16.79-4.418        C257.571,78.562,257.398,76.574,258.732,76.349z"/>
					</g>
				</g>
			</g>
		</g>
	</g>
	<g>
		<path style="fill:#000E3F;" d="M96.069,243.642c-0.32-0.247-0.7-0.647-1.025-0.998c-0.166-0.201-0.383-0.399-0.573-0.572    c-0.686,0.965-6.16,5.952-6.591,6.854l-0.029-0.023c-4.574-4.352-10.097-8.974-14.651-13.402    c-1.376,0.631-3.678,3.248-4.052,4.251c7.698,6.866,10.659,9.339,18.474,17.109l0.488,0.446c8.128-8.582,9-10.022,9.775-10.704    C98.582,245.845,98.791,245.889,96.069,243.642z"/>
		<path style="fill:#000E3F;" d="M107.54,231.015l-0.049-0.054c-2.39,2.33-4.838,4.166-7.224,6.342l-0.054-0.002    c-0.872-0.792-2.314-2.158-3.091-3.388c0.106-0.644,2.17-1.979,3.009-3.291c-1.242-1.302-2.19-2.672-3.491-3.719l-0.028-0.026    c-1.134,0.986-2.25,2.053-3.406,2.96l-0.052-0.003c-1.134-0.753-1.931-2.113-2.92-3.149l-0.001-0.049l0.083-0.075    c2.189-2.395,4.97-4.187,6.808-6.805l-0.028-0.026c-1.161-1.277-2.159-2.75-3.51-3.851c-0.149-0.163-7.069,6.351-11.076,10.402    c5.311,6.529,11.154,12.277,16.89,18.569c3.769-2.893,7.453-6.751,11.166-10.087C109.874,233.407,108.686,232.106,107.54,231.015z    "/>
		<path style="fill:#000E3F;" d="M120.344,226.809c-10.112-12.455-11.791-14.543-12.104-15.183c-0.023-0.03-0.019-0.079-0.042-0.109    l0.028-0.022l0.06-0.045c1.753-1.512,2.691-2.339,3.527-2.758c-0.883-1.547-2.307-3.367-3.389-4.572    c-4.298,2.662-8.495,6.176-12.404,9.277c0.022,0.029,0.051,0.007,0.076,0.035c1.275,1.936,3.291,4.273,3.664,4.449    c0.573-0.216,2.48-2.127,3.738-2.364l0.053,0.005c8.896,10.424,11.892,14.976,12.249,15.255c1.212-1.318,3.35-2.571,4.584-3.909    l-0.023-0.03L120.344,226.809z"/>
		<path style="fill:#000E3F;" d="M124.225,193.089l-0.739,0.482c-1.828,1.231-2.686,1.659-3.445,2.11    c-0.276,0.181-1.108,0.589-1.303,0.759l0.039,0.062c3.749,7.372,9.728,14.212,13.969,22.007c0.7-0.806,5.181-2.801,5.421-3.919    c-4.945-6.726-9.281-14.329-13.863-21.375L124.225,193.089z"/>
		<path style="fill:#000E3F;" d="M148.678,208.183c-8.322-13.714-9.701-16.011-9.924-16.688c-0.019-0.031-0.005-0.081-0.021-0.114    l0.028-0.017l0.066-0.037c1.943-1.258,2.985-1.949,3.87-2.251c-0.668-1.651-1.827-3.651-2.733-4.992    c-4.624,2.054-9.26,4.961-13.555,7.504c0.017,0.033,0.051,0.013,0.071,0.044c1,2.092,2.677,4.682,3.022,4.907    c0.601-0.137,2.752-1.771,4.028-1.834l0.051,0.012c7.393,11.537,9.743,16.452,10.061,16.777c1.373-1.139,3.665-2.089,5.072-3.248    l-0.02-0.031L148.678,208.183z"/>
		<path style="fill:#000E3F;" d="M170.381,183.475l-0.047-0.019l-0.067,0.03c-0.903,0.407-5.977,2.012-6.796,3.226    c-0.022,0.052-0.056,0.066-0.056,0.066c-0.031,0.013-0.031,0.013-0.018,0.047l0.013,0.034c0.865,1.464,0.904,2.09,1.721,3.453    c0.511-0.03,1.927-0.909,2.507-1.05c0.31-0.019,0.805,1.611,0.871,2.024c0.12,0.71-0.099,1.211-0.494,1.672    c-0.532,0.523-1.226,1.036-1.938,1.237c-0.332,0.07-0.645,0.09-0.908,0.047c-1.138-0.292-1.907-1.556-2.446-2.481    c-1.776-3.225-3.514-7.435-3.842-9.865c-0.068-0.411-0.097-0.921-0.042-1.069c0.292-0.776,1.091-0.976,1.875-1.287    c1.305-0.59,2.853,0.969,3.529,1.751c1.411-0.435,1.886-0.73,3.193-1.318c0.687-0.351,0.966-0.437,1.008-0.618l-0.057-0.214    c-1.826-5.742-7.155-6.318-11.858-3.433c-1.127,0.71-2.132,1.525-2.685,2.701c-0.901,1.494-0.672,3.162-0.241,4.739    c0.415,1.545,1.027,3.082,1.643,4.536c1.394,3.357,2.238,4.789,3.793,7.51c0.505,0.859,1.094,1.721,1.456,2.162    c1.396,1.665,2.806,2.56,4.925,2.531c2.548-0.063,5.069-1.804,6.989-3.435c1.42-1.404,2.176-3.034,1.382-5.414    C173.141,188.432,171.723,185.729,170.381,183.475z"/>
		<path style="fill:#000E3F;" d="M189.247,181.4c-0.684-2.446-1.632-4.64-2.378-7.14c-0.376-1.152-0.788-2.291-1.305-3.391    c-0.365-0.687-0.763-1.363-1.321-1.943c-0.567-0.693-1.312-1.244-2.178-1.594c-3.392-1.078-7.699,0.397-10.201,2.978    c-0.249,0.286-0.414,0.579-0.569,0.909c-0.83,2.133-0.411,4.479,0.3,6.563c1.066,3.712,2.652,7.236,4.083,10.777    c0.52,1.335,1.145,2.63,2.212,3.532c1.488,1.533,3.468,1.285,5.431,0.773c1.382-0.381,2.666-0.923,3.81-1.766    c1.276-0.889,2.4-1.996,2.793-3.386c0.345-1.647,0.113-3.474-0.369-5.134L189.247,181.4z M185.208,185.549    c-0.844,2.099-3.819,2.94-5.377,1.433c-0.994-1.359-1.584-3.096-2.409-4.632c-0.804-1.894-1.478-3.875-1.734-5.772    c-0.072-1.066,0.193-2.06,0.762-2.968c0.526-0.814,1.448-1.497,2.519-1.454c1.256,0.13,2.289,1.047,2.854,2.285    c0.32,0.783,0.837,1.884,0.848,1.919l0.915,2.324l0.598,1.656c0.042,0.103,0.28,0.875,0.58,1.821    C185.314,184.224,185.658,184.099,185.208,185.549z"/>
		<path style="fill:#000E3F;" d="M197.327,183.126c-1.377,0.404-3.285,0.543-4.277,1.333l0.008,0.036    c0.385,1.302,0.788,4.245,1.106,4.151l2.633-0.811l0.068-0.019c0.531-0.158,0.784-0.192,1.35-0.359l0.248-0.074    C198.059,186.01,197.675,184.44,197.327,183.126z"/>
		<path style="fill:#000E3F;" d="M191.224,162.609c-1.418-0.004-3.112,0.876-4.313,1.344l-0.107,0.032    c1.497,6.525,3.688,12.539,5.401,18.772l0.036-0.012c1.363-0.438,3.299-1.007,4.49-1.51    C194.679,175.295,192.888,168.665,191.224,162.609z"/>
	</g>
	<g>
		<g>
			<g>
				<g>
					<path style="fill:#915EFD;" d="M366.63,171.24c-1.958-1.309-5.171-1.383-6.528,0.951c-1.335,2.326,0.151,6.126,2.584,7.34       c1.21,0.729,4.063,1.251,6.312,1.073c-1.406,1.925-2.16,4.501-2.26,5.993c-0.184,2.711,2.339,5.908,5.031,5.923       c2.636,0.077,4.218-2.748,4.147-5.172c-0.21-3.376-1.125-6.518-2.696-9.176C371.576,175.528,369.62,173.056,366.63,171.24z"/>
					<path style="fill:#915EFD;" d="M398.78,196.001c-0.672-0.511-1.361-0.95-2.067-1.313c-0.353-0.185-0.711-0.336-1.071-0.495       c-0.354-0.187-0.713-0.355-1.075-0.504c-0.72-0.319-1.48-0.476-2.221-0.713c-2.998-0.791-6.181-1.038-9.55-0.276       c-2.342,0.511-4.633,2.681-3.96,5.318c0.362,1.274,1.481,2.306,2.801,2.983c1.345,0.626,2.952,0.736,4.215,0.381       c1.391-0.397,3.764-1.994,5.227-3.702c0.379,2.296,1.656,4.705,2.641,5.834c0.897,1.033,2.357,1.588,3.83,1.79       c1.474,0.192,2.962-0.306,3.919-1.176c1.916-1.804,1.039-4.923-0.726-6.591C400.113,196.948,399.455,196.447,398.78,196.001z"/>
					<path style="fill:#915EFD;" d="M425.503,187.192c-3.376,0.21-6.518,1.125-9.176,2.697c-2.643,1.643-5.115,3.599-6.931,6.59       c-1.309,1.958-1.383,5.171,0.951,6.528c2.326,1.335,6.126-0.151,7.339-2.584c0.729-1.211,1.251-4.063,1.073-6.313       c1.925,1.406,4.502,2.161,5.993,2.26c2.711,0.184,5.908-2.339,5.924-5.031C430.752,188.704,427.927,187.121,425.503,187.192z"/>
					<path style="fill:#915EFD;" d="M442.282,161.64c-1.804-1.916-4.922-1.039-6.591,0.726c-0.587,0.629-1.088,1.286-1.535,1.962       c-0.511,0.672-0.95,1.361-1.313,2.067c-0.185,0.353-0.336,0.712-0.495,1.071c-0.187,0.355-0.355,0.713-0.504,1.076       c-0.319,0.721-0.476,1.48-0.713,2.221c-0.792,2.998-1.038,6.182-0.276,9.55c0.511,2.342,2.681,4.633,5.317,3.96       c1.274-0.362,2.306-1.481,2.983-2.801c0.626-1.345,0.737-2.952,0.381-4.215c-0.397-1.391-1.994-3.764-3.702-5.226       c2.296-0.379,4.705-1.656,5.834-2.641c1.033-0.897,1.588-2.357,1.79-3.83C443.65,164.085,443.152,162.597,442.282,161.64z"/>
					<path style="fill:#915EFD;" d="M434.634,153.712c1.958,1.309,5.171,1.383,6.528-0.95c1.335-2.326-0.151-6.126-2.584-7.34       c-1.211-0.729-4.063-1.251-6.313-1.073c1.406-1.925,2.161-4.501,2.26-5.993c0.184-2.712-2.339-5.909-5.031-5.924       c-2.635-0.077-4.218,2.749-4.147,5.172c0.21,3.376,1.125,6.518,2.697,9.176C429.687,149.424,431.643,151.896,434.634,153.712z"/>
					<path style="fill:#915EFD;" d="M418.467,132.254c2.342-0.511,4.633-2.681,3.961-5.318c-0.362-1.274-1.481-2.306-2.801-2.983       c-1.345-0.626-2.952-0.737-4.215-0.381c-1.391,0.397-3.764,1.994-5.227,3.702c-0.379-2.296-1.656-4.705-2.641-5.834       c-0.897-1.033-2.357-1.589-3.83-1.79c-1.475-0.192-2.963,0.305-3.919,1.176c-1.916,1.805-1.039,4.923,0.726,6.592       c0.629,0.587,1.287,1.088,1.962,1.534c0.671,0.511,1.361,0.95,2.067,1.313c0.353,0.185,0.712,0.336,1.071,0.495       c0.354,0.187,0.713,0.355,1.076,0.505c0.72,0.318,1.48,0.476,2.221,0.713C411.916,132.769,415.1,133.015,418.467,132.254z"/>
					<path style="fill:#915EFD;" d="M375.76,137.76c3.376-0.21,6.517-1.125,9.176-2.697c2.644-1.643,5.115-3.599,6.931-6.589       c1.309-1.958,1.383-5.171-0.95-6.528c-2.327-1.335-6.126,0.151-7.34,2.584c-0.729,1.21-1.251,4.063-1.073,6.312       c-1.925-1.406-4.501-2.161-5.993-2.26c-2.711-0.184-5.908,2.339-5.924,5.031C370.511,136.248,373.336,137.831,375.76,137.76z"/>
					<path style="fill:#915EFD;" d="M365.573,162.586c0.587-0.629,1.088-1.287,1.534-1.962c0.512-0.671,0.951-1.361,1.313-2.067       c0.185-0.353,0.336-0.712,0.495-1.071c0.187-0.355,0.355-0.713,0.504-1.076c0.319-0.721,0.476-1.48,0.713-2.221       c0.791-2.998,1.038-6.182,0.276-9.55c-0.512-2.342-2.682-4.633-5.317-3.96c-1.274,0.362-2.306,1.482-2.983,2.801       c-0.626,1.346-0.737,2.952-0.381,4.215c0.397,1.391,1.995,3.764,3.702,5.227c-2.296,0.379-4.705,1.656-5.834,2.641       c-1.033,0.897-1.589,2.357-1.79,3.83c-0.192,1.474,0.305,2.963,1.175,3.919C360.786,165.228,363.904,164.351,365.573,162.586z"/>
				</g>
				<g>
					<path style="fill:#FD8A02;" d="M388.479,168.574c-0.382-0.18-0.859-0.295-1.401-0.353c-1.101-0.101-2.347-0.047-3.498,0.398       c-1.135,0.44-3.194,1.73-4.607,3.423c-0.715,0.842-1.312,1.801-1.591,2.722c-0.257,0.905-0.226,1.79,0.192,2.462       c0.918,1.311,3.124,1.385,5.228,0.633c2.099-0.707,4.018-2.064,4.883-2.931c0.862-0.869,1.465-2.041,1.78-3.062       c0.282-1.01,0.393-1.958-0.051-2.573C389.221,168.963,388.901,168.735,388.479,168.574z"/>
					<path style="fill:#FD8A02;" d="M397.893,175.105c-0.73-0.199-1.564,0.249-2.402,0.883c-0.842,0.688-1.707,1.656-2.199,2.764       c-0.5,1.132-1.026,3.451-0.837,5.669c0.141,2.257,1.113,4.295,2.677,4.664c1.583,0.264,3.192-1.235,4.147-3.26       c0.983-1.982,1.381-4.297,1.379-5.522c-0.005-1.225-0.408-2.48-0.909-3.427C399.23,175.967,398.645,175.204,397.893,175.105z"/>
					<path style="fill:#FD8A02;" d="M413.63,174.928c-0.87-0.863-2.041-1.465-3.062-1.78c-1.01-0.282-1.959-0.393-2.573,0.051       c-0.331,0.193-0.559,0.514-0.72,0.935c-0.18,0.382-0.295,0.858-0.353,1.4c-0.101,1.101-0.047,2.347,0.397,3.498       c0.44,1.135,1.73,3.194,3.423,4.607c0.843,0.714,1.802,1.312,2.722,1.591c0.905,0.257,1.79,0.225,2.461-0.192       c1.312-0.919,1.385-3.124,0.634-5.228C415.854,177.713,414.497,175.793,413.63,174.928z"/>
					<path style="fill:#FD8A02;" d="M424.526,163.335c-1.982-0.983-4.298-1.381-5.522-1.379c-1.224,0.005-2.48,0.408-3.427,0.909       c-0.907,0.519-1.671,1.105-1.77,1.856c-0.199,0.73,0.249,1.564,0.883,2.402c0.688,0.843,1.656,1.707,2.764,2.199       c1.132,0.5,3.451,1.026,5.668,0.837c2.257-0.141,4.296-1.113,4.665-2.677C428.05,165.898,426.55,164.29,424.526,163.335z"/>
					<path style="fill:#FD8A02;" d="M412.836,155.337c0.382,0.18,0.858,0.295,1.4,0.353c1.101,0.101,2.347,0.047,3.498-0.397       c1.135-0.44,3.194-1.73,4.607-3.423c0.715-0.843,1.312-1.801,1.591-2.722c0.257-0.905,0.226-1.79-0.192-2.462       c-0.919-1.312-3.124-1.385-5.228-0.634c-2.099,0.707-4.018,2.064-4.883,2.931c-0.862,0.869-1.465,2.041-1.78,3.062       c-0.282,1.01-0.393,1.958,0.051,2.573C412.094,154.949,412.416,155.176,412.836,155.337z"/>
					<path style="fill:#FD8A02;" d="M408.023,145.161c0.5-1.133,1.026-3.451,0.837-5.668c-0.141-2.257-1.113-4.295-2.677-4.665       c-1.583-0.264-3.192,1.235-4.147,3.26c-0.983,1.982-1.381,4.298-1.379,5.522c0.005,1.225,0.408,2.48,0.909,3.427       c0.52,0.907,1.105,1.67,1.856,1.77c0.73,0.199,1.564-0.249,2.402-0.883C406.667,147.236,407.531,146.268,408.023,145.161z"/>
					<path style="fill:#FD8A02;" d="M394.039,149.777c0.18-0.382,0.295-0.858,0.353-1.4c0.101-1.102,0.047-2.348-0.397-3.499       c-0.44-1.135-1.731-3.194-3.423-4.607c-0.843-0.714-1.802-1.312-2.722-1.59c-0.905-0.258-1.79-0.226-2.462,0.192       c-1.312,0.918-1.385,3.124-0.634,5.228c0.707,2.099,2.064,4.018,2.931,4.883c0.87,0.862,2.041,1.464,3.062,1.78       c1.01,0.282,1.958,0.393,2.572-0.051C393.651,150.519,393.878,150.198,394.039,149.777z"/>
					<path style="fill:#FD8A02;" d="M385.739,161.047c0.907-0.52,1.67-1.105,1.77-1.856c0.199-0.73-0.249-1.564-0.883-2.402       c-0.688-0.842-1.656-1.707-2.763-2.199c-1.133-0.5-3.451-1.026-5.669-0.837c-2.257,0.141-4.295,1.112-4.665,2.676       c-0.264,1.584,1.236,3.192,3.26,4.147c1.982,0.982,4.298,1.381,5.522,1.379C383.537,161.951,384.793,161.548,385.739,161.047z"/>
				</g>
				<circle style="fill:#4217A6;" cx="400.45" cy="162.285" r="6.182"/>
			</g>
			<g>
				<g>
					<path style="fill:#915EFD;" d="M47.644,460.397c-1.958-1.309-5.171-1.383-6.528,0.951c-1.335,2.326,0.151,6.126,2.584,7.34       c1.211,0.729,4.063,1.251,6.313,1.073c-1.406,1.925-2.161,4.501-2.26,5.993c-0.185,2.711,2.339,5.908,5.031,5.923       c2.635,0.077,4.217-2.749,4.147-5.172c-0.21-3.376-1.125-6.518-2.697-9.176C52.591,464.684,50.635,462.213,47.644,460.397z"/>
					<path style="fill:#915EFD;" d="M79.794,485.157c-0.671-0.511-1.361-0.95-2.067-1.313c-0.352-0.185-0.712-0.336-1.071-0.495       c-0.354-0.187-0.713-0.355-1.076-0.504c-0.72-0.319-1.48-0.476-2.221-0.713c-2.998-0.791-6.182-1.038-9.55-0.276       c-2.342,0.511-4.633,2.681-3.961,5.318c0.362,1.274,1.482,2.306,2.801,2.983c1.346,0.626,2.952,0.736,4.215,0.381       c1.391-0.397,3.764-1.994,5.227-3.702c0.379,2.296,1.656,4.705,2.641,5.834c0.897,1.033,2.357,1.588,3.83,1.79       c1.474,0.192,2.963-0.305,3.919-1.176c1.916-1.805,1.039-4.923-0.726-6.592C81.127,486.104,80.469,485.604,79.794,485.157z"/>
					<path style="fill:#915EFD;" d="M106.518,476.348c-3.376,0.21-6.518,1.125-9.176,2.697c-2.644,1.643-5.115,3.599-6.931,6.589       c-1.309,1.958-1.383,5.171,0.95,6.528c2.326,1.335,6.126-0.151,7.34-2.584c0.729-1.211,1.251-4.063,1.073-6.312       c1.925,1.406,4.501,2.161,5.993,2.26c2.711,0.185,5.908-2.339,5.924-5.031C111.766,477.86,108.941,476.278,106.518,476.348z"/>
					<path style="fill:#915EFD;" d="M123.296,450.797c-1.805-1.916-4.923-1.039-6.592,0.726c-0.587,0.629-1.088,1.286-1.535,1.962       c-0.511,0.671-0.95,1.361-1.313,2.067c-0.185,0.353-0.336,0.712-0.495,1.071c-0.187,0.354-0.355,0.713-0.504,1.076       c-0.318,0.721-0.476,1.48-0.713,2.221c-0.791,2.998-1.038,6.182-0.276,9.549c0.512,2.342,2.682,4.633,5.318,3.961       c1.274-0.362,2.306-1.482,2.983-2.801c0.626-1.345,0.736-2.952,0.381-4.215c-0.397-1.391-1.994-3.764-3.702-5.227       c2.296-0.379,4.705-1.656,5.834-2.641c1.033-0.898,1.589-2.357,1.79-3.83C124.664,453.242,124.166,451.753,123.296,450.797z"/>
					<path style="fill:#915EFD;" d="M115.647,442.868c1.958,1.31,5.171,1.383,6.529-0.95c1.335-2.326-0.151-6.126-2.584-7.34       c-1.211-0.729-4.063-1.251-6.312-1.073c1.406-1.925,2.16-4.501,2.26-5.993c0.185-2.711-2.339-5.909-5.031-5.924       c-2.635-0.077-4.218,2.749-4.147,5.172c0.21,3.376,1.125,6.518,2.697,9.176C110.701,438.581,112.657,441.052,115.647,442.868z"/>
					<path style="fill:#915EFD;" d="M99.482,421.41c2.342-0.511,4.633-2.681,3.961-5.318c-0.362-1.274-1.482-2.306-2.801-2.983       c-1.345-0.626-2.952-0.737-4.215-0.381c-1.391,0.397-3.764,1.994-5.227,3.702c-0.379-2.296-1.656-4.705-2.641-5.834       c-0.897-1.033-2.357-1.589-3.83-1.79c-1.474-0.192-2.962,0.306-3.919,1.176c-1.916,1.804-1.039,4.923,0.726,6.591       c0.629,0.587,1.286,1.088,1.962,1.535c0.672,0.511,1.361,0.95,2.067,1.313c0.353,0.185,0.712,0.336,1.071,0.495       c0.354,0.187,0.713,0.355,1.075,0.504c0.721,0.319,1.48,0.476,2.22,0.713C92.93,421.925,96.114,422.172,99.482,421.41z"/>
					<path style="fill:#915EFD;" d="M56.774,426.917c3.376-0.21,6.518-1.125,9.176-2.697c2.643-1.643,5.115-3.599,6.931-6.59       c1.309-1.958,1.383-5.171-0.951-6.528c-2.326-1.335-6.126,0.151-7.34,2.584c-0.729,1.21-1.25,4.063-1.073,6.312       c-1.925-1.406-4.501-2.161-5.993-2.26c-2.712-0.184-5.909,2.339-5.924,5.031C51.525,425.405,54.351,426.987,56.774,426.917z"/>
					<path style="fill:#915EFD;" d="M46.587,451.742c0.587-0.629,1.088-1.286,1.534-1.962c0.511-0.671,0.95-1.361,1.313-2.067       c0.185-0.353,0.336-0.712,0.495-1.071c0.187-0.355,0.355-0.713,0.504-1.076c0.319-0.72,0.477-1.48,0.713-2.22       c0.791-2.998,1.038-6.182,0.276-9.55c-0.511-2.342-2.681-4.633-5.317-3.961c-1.274,0.362-2.306,1.482-2.983,2.801       c-0.626,1.346-0.736,2.952-0.381,4.215c0.397,1.391,1.995,3.764,3.702,5.226c-2.296,0.379-4.705,1.656-5.834,2.641       c-1.033,0.897-1.588,2.357-1.79,3.83c-0.192,1.474,0.306,2.963,1.176,3.919C41.8,454.385,44.918,453.507,46.587,451.742z"/>
				</g>
				<g>
					<path style="fill:#FD8A02;" d="M69.493,457.731c-0.382-0.18-0.858-0.295-1.4-0.353c-1.101-0.101-2.347-0.047-3.499,0.397       c-1.135,0.44-3.194,1.73-4.607,3.423c-0.714,0.843-1.312,1.802-1.59,2.722c-0.258,0.905-0.226,1.79,0.192,2.462       c0.918,1.312,3.124,1.385,5.228,0.633c2.098-0.707,4.019-2.064,4.883-2.931c0.863-0.87,1.465-2.041,1.78-3.062       c0.282-1.01,0.393-1.958-0.05-2.573C70.236,458.119,69.914,457.891,69.493,457.731z"/>
					<path style="fill:#FD8A02;" d="M78.907,464.261c-0.73-0.199-1.563,0.248-2.402,0.882c-0.842,0.688-1.707,1.656-2.199,2.764       c-0.5,1.133-1.026,3.451-0.837,5.669c0.141,2.257,1.112,4.295,2.676,4.664c1.584,0.264,3.192-1.235,4.147-3.26       c0.982-1.982,1.381-4.298,1.379-5.522c-0.005-1.225-0.408-2.48-0.909-3.427C80.244,465.124,79.659,464.361,78.907,464.261z"/>
					<path style="fill:#FD8A02;" d="M94.644,464.085c-0.869-0.862-2.042-1.465-3.062-1.779c-1.01-0.282-1.958-0.393-2.573,0.051       c-0.331,0.193-0.559,0.514-0.719,0.935c-0.18,0.382-0.295,0.858-0.353,1.4c-0.101,1.101-0.047,2.348,0.398,3.498       c0.44,1.135,1.73,3.194,3.423,4.607c0.843,0.714,1.801,1.312,2.722,1.591c0.905,0.257,1.79,0.226,2.462-0.192       c1.311-0.918,1.385-3.124,0.633-5.228C96.869,466.869,95.511,464.949,94.644,464.085z"/>
					<path style="fill:#FD8A02;" d="M105.54,452.491c-1.982-0.982-4.298-1.381-5.522-1.379c-1.225,0.005-2.48,0.408-3.427,0.909       c-0.907,0.52-1.671,1.105-1.77,1.856c-0.199,0.73,0.248,1.564,0.882,2.402c0.688,0.843,1.656,1.707,2.764,2.199       c1.132,0.5,3.451,1.026,5.668,0.837c2.257-0.141,4.295-1.113,4.664-2.677C109.064,455.054,107.565,453.446,105.54,452.491z"/>
					<path style="fill:#FD8A02;" d="M93.85,444.493c0.382,0.18,0.858,0.295,1.4,0.353c1.101,0.101,2.347,0.047,3.498-0.397       c1.135-0.44,3.194-1.73,4.608-3.423c0.714-0.843,1.312-1.802,1.59-2.722c0.257-0.905,0.226-1.79-0.192-2.462       c-0.919-1.311-3.124-1.385-5.228-0.633c-2.098,0.707-4.019,2.064-4.883,2.931c-0.863,0.87-1.465,2.041-1.78,3.062       c-0.282,1.01-0.393,1.959,0.051,2.573C93.108,444.105,93.429,444.333,93.85,444.493z"/>
					<path style="fill:#FD8A02;" d="M89.037,434.317c0.5-1.132,1.026-3.451,0.837-5.668c-0.141-2.257-1.113-4.295-2.676-4.664       c-1.584-0.264-3.193,1.235-4.147,3.26c-0.982,1.982-1.381,4.298-1.379,5.522c0.005,1.225,0.408,2.48,0.908,3.427       c0.52,0.907,1.105,1.671,1.856,1.77c0.73,0.199,1.563-0.249,2.402-0.883C87.681,436.392,88.545,435.425,89.037,434.317z"/>
					<path style="fill:#FD8A02;" d="M75.053,438.934c0.181-0.382,0.296-0.858,0.353-1.4c0.101-1.101,0.047-2.348-0.397-3.499       c-0.44-1.135-1.73-3.194-3.423-4.607c-0.843-0.714-1.802-1.312-2.722-1.59c-0.905-0.257-1.79-0.226-2.462,0.192       c-1.311,0.919-1.385,3.124-0.633,5.228c0.707,2.098,2.064,4.018,2.931,4.883c0.87,0.862,2.041,1.465,3.062,1.78       c1.01,0.282,1.959,0.393,2.573-0.051C74.665,439.676,74.893,439.355,75.053,438.934z"/>
					<path style="fill:#FD8A02;" d="M66.753,450.204c0.907-0.519,1.67-1.104,1.77-1.856c0.199-0.73-0.249-1.564-0.883-2.402       c-0.688-0.842-1.656-1.707-2.763-2.199c-1.133-0.5-3.451-1.026-5.669-0.837c-2.257,0.141-4.295,1.113-4.664,2.676       c-0.264,1.583,1.235,3.192,3.26,4.147c1.982,0.982,4.298,1.381,5.522,1.379C64.551,451.107,65.806,450.704,66.753,450.204z"/>
				</g>
				<circle style="fill:#4217A6;" cx="81.465" cy="451.441" r="6.182"/>
			</g>
			<g>
				<g>
					<path style="fill:#915EFD;" d="M80.751,122.743c-1.958-1.309-5.171-1.383-6.529,0.951c-1.335,2.326,0.151,6.126,2.584,7.34       c1.211,0.729,4.063,1.251,6.313,1.073c-1.406,1.925-2.161,4.501-2.26,5.993c-0.184,2.711,2.339,5.908,5.031,5.924       c2.635,0.077,4.218-2.749,4.147-5.172c-0.21-3.376-1.125-6.518-2.697-9.176C85.698,127.031,83.742,124.559,80.751,122.743z"/>
					<path style="fill:#915EFD;" d="M112.901,147.503c-0.671-0.512-1.361-0.951-2.067-1.313c-0.353-0.185-0.712-0.336-1.071-0.495       c-0.354-0.187-0.713-0.355-1.076-0.504c-0.72-0.319-1.48-0.477-2.22-0.714c-2.999-0.791-6.182-1.038-9.55-0.276       c-2.342,0.512-4.633,2.682-3.961,5.318c0.362,1.274,1.482,2.306,2.801,2.983c1.345,0.626,2.952,0.736,4.215,0.381       c1.391-0.397,3.764-1.994,5.227-3.702c0.379,2.296,1.656,4.704,2.641,5.834c0.897,1.033,2.357,1.588,3.83,1.79       c1.474,0.192,2.963-0.305,3.919-1.176c1.917-1.804,1.039-4.923-0.726-6.591C114.234,148.451,113.576,147.95,112.901,147.503z"/>
					<path style="fill:#915EFD;" d="M139.625,138.695c-3.376,0.21-6.518,1.125-9.176,2.696c-2.643,1.643-5.115,3.599-6.931,6.59       c-1.309,1.958-1.383,5.171,0.951,6.528c2.326,1.335,6.126-0.151,7.34-2.584c0.729-1.211,1.251-4.063,1.073-6.312       c1.925,1.406,4.501,2.161,5.993,2.26c2.712,0.185,5.909-2.339,5.924-5.031C144.874,140.206,142.048,138.624,139.625,138.695z"/>
					<path style="fill:#915EFD;" d="M156.403,113.143c-1.805-1.916-4.923-1.039-6.592,0.726c-0.587,0.629-1.088,1.286-1.534,1.962       c-0.511,0.672-0.951,1.361-1.313,2.067c-0.185,0.352-0.336,0.712-0.495,1.071c-0.187,0.354-0.355,0.713-0.504,1.076       c-0.319,0.72-0.477,1.48-0.713,2.221c-0.791,2.998-1.038,6.182-0.276,9.549c0.511,2.342,2.682,4.633,5.317,3.961       c1.274-0.362,2.306-1.481,2.983-2.801c0.626-1.345,0.736-2.952,0.381-4.215c-0.397-1.391-1.994-3.764-3.702-5.227       c2.296-0.379,4.704-1.656,5.834-2.641c1.033-0.898,1.589-2.357,1.79-3.83C157.771,115.588,157.273,114.099,156.403,113.143z"/>
					<path style="fill:#915EFD;" d="M148.755,105.214c1.958,1.309,5.171,1.383,6.528-0.951c1.335-2.326-0.151-6.126-2.584-7.339       c-1.21-0.729-4.063-1.251-6.312-1.073c1.406-1.925,2.16-4.501,2.26-5.993c0.185-2.712-2.339-5.909-5.031-5.924       c-2.635-0.077-4.217,2.749-4.147,5.172c0.21,3.376,1.125,6.518,2.696,9.176C143.808,100.927,145.764,103.399,148.755,105.214z"/>
					<path style="fill:#915EFD;" d="M132.589,83.757c2.342-0.512,4.633-2.682,3.961-5.318c-0.362-1.274-1.482-2.306-2.801-2.983       c-1.345-0.626-2.952-0.737-4.215-0.381c-1.391,0.397-3.764,1.994-5.227,3.702c-0.379-2.296-1.656-4.704-2.641-5.834       c-0.897-1.033-2.357-1.588-3.83-1.79c-1.474-0.192-2.963,0.306-3.919,1.176c-1.916,1.804-1.039,4.922,0.726,6.591       c0.629,0.587,1.286,1.088,1.962,1.535c0.672,0.512,1.361,0.95,2.067,1.313c0.353,0.185,0.712,0.336,1.071,0.495       c0.354,0.187,0.713,0.355,1.075,0.504c0.721,0.319,1.48,0.477,2.221,0.714C126.037,84.272,129.221,84.518,132.589,83.757z"/>
					<path style="fill:#915EFD;" d="M89.881,89.263c3.376-0.21,6.518-1.125,9.176-2.697c2.644-1.643,5.115-3.599,6.932-6.589       c1.309-1.958,1.383-5.171-0.951-6.528c-2.326-1.335-6.126,0.151-7.34,2.584c-0.729,1.211-1.251,4.064-1.073,6.313       c-1.925-1.406-4.501-2.161-5.993-2.26c-2.711-0.184-5.908,2.34-5.924,5.031C84.632,87.751,87.458,89.334,89.881,89.263z"/>
					<path style="fill:#915EFD;" d="M79.694,114.088c0.587-0.629,1.088-1.286,1.535-1.962c0.511-0.671,0.95-1.361,1.313-2.067       c0.185-0.352,0.336-0.712,0.495-1.071c0.187-0.354,0.355-0.713,0.504-1.076c0.319-0.72,0.476-1.48,0.713-2.221       c0.791-2.998,1.038-6.181,0.276-9.55c-0.511-2.342-2.681-4.633-5.318-3.96c-1.274,0.362-2.306,1.481-2.983,2.801       c-0.626,1.345-0.737,2.952-0.381,4.215c0.397,1.39,1.994,3.764,3.702,5.227c-2.296,0.379-4.705,1.656-5.834,2.641       c-1.033,0.898-1.588,2.357-1.79,3.83c-0.192,1.475,0.306,2.963,1.176,3.919C74.907,116.731,78.025,115.853,79.694,114.088z"/>
				</g>
				<g>
					<path style="fill:#FD8A02;" d="M102.601,120.077c-0.382-0.18-0.858-0.295-1.4-0.353c-1.101-0.101-2.348-0.047-3.499,0.397       c-1.135,0.44-3.194,1.73-4.608,3.423c-0.714,0.843-1.312,1.802-1.59,2.722c-0.257,0.905-0.226,1.79,0.192,2.461       c0.919,1.311,3.124,1.385,5.228,0.634c2.098-0.707,4.018-2.064,4.883-2.931c0.862-0.869,1.464-2.041,1.78-3.062       c0.282-1.01,0.393-1.958-0.051-2.573C103.343,120.466,103.021,120.238,102.601,120.077z"/>
					<path style="fill:#FD8A02;" d="M112.014,126.607c-0.73-0.199-1.563,0.249-2.402,0.883c-0.843,0.688-1.707,1.656-2.199,2.764       c-0.5,1.133-1.026,3.451-0.837,5.668c0.141,2.257,1.113,4.295,2.676,4.664c1.584,0.264,3.193-1.235,4.147-3.26       c0.982-1.982,1.381-4.298,1.379-5.522c-0.005-1.225-0.408-2.48-0.908-3.427C113.351,127.47,112.766,126.707,112.014,126.607z"/>
					<path style="fill:#FD8A02;" d="M127.751,126.431c-0.869-0.862-2.041-1.465-3.062-1.779c-1.01-0.282-1.958-0.393-2.573,0.051       c-0.331,0.193-0.559,0.514-0.719,0.935c-0.181,0.382-0.296,0.858-0.353,1.4c-0.101,1.101-0.047,2.348,0.397,3.498       c0.44,1.135,1.73,3.194,3.423,4.607c0.843,0.714,1.802,1.312,2.722,1.59c0.905,0.257,1.79,0.226,2.462-0.192       c1.311-0.918,1.385-3.124,0.633-5.228C129.976,129.216,128.618,127.296,127.751,126.431z"/>
					<path style="fill:#FD8A02;" d="M138.647,114.837c-1.982-0.982-4.298-1.381-5.522-1.379c-1.225,0.005-2.48,0.408-3.427,0.908       c-0.907,0.519-1.671,1.105-1.77,1.856c-0.199,0.73,0.249,1.564,0.883,2.402c0.688,0.843,1.656,1.707,2.763,2.199       c1.132,0.5,3.451,1.026,5.669,0.837c2.257-0.141,4.295-1.113,4.664-2.676C142.171,117.401,140.672,115.792,138.647,114.837z"/>
					<path style="fill:#FD8A02;" d="M126.958,106.84c0.382,0.18,0.858,0.295,1.4,0.353c1.102,0.101,2.348,0.046,3.499-0.397       c1.135-0.44,3.193-1.73,4.607-3.423c0.714-0.843,1.312-1.802,1.59-2.722c0.257-0.905,0.226-1.79-0.192-2.462       c-0.918-1.312-3.124-1.385-5.228-0.633c-2.098,0.707-4.018,2.064-4.883,2.931c-0.862,0.87-1.464,2.042-1.779,3.062       c-0.282,1.01-0.393,1.958,0.051,2.573C126.215,106.452,126.537,106.679,126.958,106.84z"/>
					<path style="fill:#FD8A02;" d="M122.145,96.664c0.5-1.133,1.026-3.451,0.837-5.669c-0.141-2.257-1.112-4.295-2.676-4.664       c-1.584-0.264-3.192,1.235-4.147,3.26c-0.982,1.982-1.381,4.298-1.379,5.522c0.005,1.225,0.408,2.48,0.908,3.427       c0.52,0.907,1.105,1.67,1.856,1.77c0.73,0.199,1.563-0.249,2.402-0.883C120.788,98.739,121.652,97.771,122.145,96.664z"/>
					<path style="fill:#FD8A02;" d="M108.161,101.28c0.18-0.382,0.295-0.858,0.353-1.4c0.101-1.101,0.047-2.347-0.398-3.498       c-0.44-1.135-1.73-3.194-3.423-4.607c-0.843-0.714-1.802-1.312-2.722-1.59c-0.905-0.258-1.79-0.226-2.462,0.192       c-1.311,0.918-1.385,3.124-0.633,5.227c0.707,2.099,2.064,4.018,2.931,4.883c0.869,0.863,2.041,1.465,3.062,1.78       c1.01,0.282,1.958,0.393,2.573-0.051C107.772,102.022,108,101.701,108.161,101.28z"/>
					<path style="fill:#FD8A02;" d="M99.86,112.55c0.907-0.519,1.671-1.104,1.77-1.856c0.199-0.73-0.249-1.564-0.882-2.402       c-0.688-0.842-1.656-1.707-2.764-2.199c-1.132-0.5-3.451-1.026-5.669-0.837c-2.257,0.141-4.295,1.113-4.664,2.677       c-0.264,1.584,1.235,3.192,3.26,4.146c1.982,0.983,4.298,1.381,5.522,1.38C97.658,113.453,98.913,113.05,99.86,112.55z"/>
				</g>
				<circle style="fill:#4217A6;" cx="114.572" cy="113.787" r="6.182"/>
			</g>
		</g>
		<g>
			<g>
				<g>
					<path style="fill:#FD8A02;" d="M462.188,338.171c-0.382-0.18-0.858-0.295-1.4-0.353c-1.102-0.101-2.347-0.047-3.499,0.397       c-1.135,0.44-3.194,1.73-4.607,3.423c-0.714,0.843-1.312,1.802-1.59,2.722c-0.257,0.905-0.226,1.79,0.192,2.462       c0.919,1.311,3.124,1.385,5.228,0.633c2.098-0.707,4.018-2.064,4.883-2.931c0.862-0.869,1.464-2.041,1.779-3.062       c0.282-1.01,0.393-1.959-0.051-2.573C462.93,338.56,462.609,338.332,462.188,338.171z"/>
					<path style="fill:#FD8A02;" d="M471.602,344.702c-0.73-0.199-1.563,0.249-2.402,0.883c-0.843,0.688-1.707,1.656-2.199,2.764       c-0.5,1.132-1.026,3.451-0.837,5.668c0.141,2.257,1.113,4.295,2.676,4.664c1.584,0.264,3.193-1.235,4.147-3.26       c0.982-1.982,1.381-4.298,1.379-5.522c-0.005-1.225-0.408-2.48-0.908-3.427C472.938,345.565,472.353,344.801,471.602,344.702z"/>
					<path style="fill:#FD8A02;" d="M487.338,344.525c-0.869-0.862-2.041-1.465-3.061-1.779c-1.01-0.282-1.959-0.393-2.573,0.051       c-0.331,0.193-0.558,0.514-0.719,0.935c-0.18,0.382-0.296,0.858-0.353,1.4c-0.101,1.101-0.047,2.347,0.398,3.498       c0.44,1.135,1.73,3.194,3.423,4.607c0.843,0.714,1.802,1.312,2.722,1.59c0.905,0.258,1.79,0.226,2.462-0.192       c1.311-0.918,1.385-3.124,0.633-5.227C489.563,347.31,488.206,345.39,487.338,344.525z"/>
					<path style="fill:#FD8A02;" d="M498.234,332.932c-1.982-0.983-4.298-1.381-5.522-1.379c-1.225,0.005-2.48,0.408-3.427,0.909       c-0.907,0.52-1.67,1.105-1.77,1.856c-0.199,0.73,0.249,1.563,0.883,2.402c0.688,0.842,1.656,1.707,2.763,2.199       c1.132,0.5,3.451,1.026,5.669,0.837c2.257-0.141,4.295-1.113,4.665-2.676C501.758,335.495,500.259,333.887,498.234,332.932z"/>
					<path style="fill:#FD8A02;" d="M486.544,324.934c0.382,0.18,0.858,0.295,1.4,0.353c1.101,0.101,2.348,0.047,3.499-0.397       c1.135-0.44,3.194-1.731,4.607-3.423c0.714-0.843,1.312-1.801,1.59-2.722c0.257-0.905,0.226-1.79-0.192-2.462       c-0.918-1.311-3.124-1.385-5.228-0.633c-2.098,0.707-4.018,2.064-4.883,2.931c-0.862,0.87-1.464,2.041-1.779,3.062       c-0.282,1.01-0.393,1.959,0.051,2.573C485.802,324.546,486.124,324.774,486.544,324.934z"/>
					<path style="fill:#FD8A02;" d="M481.732,314.758c0.5-1.133,1.026-3.451,0.837-5.669c-0.141-2.257-1.113-4.295-2.676-4.664       c-1.584-0.264-3.192,1.235-4.147,3.26c-0.982,1.982-1.381,4.298-1.379,5.522c0.005,1.224,0.408,2.48,0.909,3.426       c0.52,0.907,1.105,1.671,1.856,1.77c0.73,0.199,1.563-0.249,2.402-0.882C480.375,316.833,481.239,315.865,481.732,314.758z"/>
					<path style="fill:#FD8A02;" d="M467.747,319.375c0.18-0.382,0.296-0.859,0.353-1.401c0.101-1.101,0.047-2.347-0.397-3.498       c-0.44-1.135-1.73-3.194-3.423-4.607c-0.843-0.714-1.802-1.312-2.722-1.591c-0.905-0.257-1.79-0.226-2.462,0.192       c-1.311,0.919-1.385,3.124-0.633,5.228c0.707,2.098,2.064,4.018,2.931,4.883c0.869,0.863,2.041,1.465,3.062,1.78       c1.01,0.282,1.958,0.393,2.573-0.051C467.359,320.116,467.587,319.795,467.747,319.375z"/>
					<path style="fill:#FD8A02;" d="M459.447,330.644c0.907-0.519,1.67-1.104,1.77-1.856c0.199-0.73-0.249-1.564-0.883-2.402       c-0.688-0.843-1.656-1.707-2.763-2.199c-1.132-0.5-3.451-1.026-5.669-0.837c-2.257,0.14-4.295,1.112-4.665,2.676       c-0.263,1.583,1.236,3.192,3.26,4.147c1.982,0.983,4.298,1.381,5.522,1.379C457.245,331.548,458.501,331.145,459.447,330.644z"/>
				</g>
				<path style="fill:#4217A6;" d="M467.977,331.882c0,3.414,2.768,6.182,6.182,6.182s6.182-2.768,6.182-6.182      c0-3.414-2.768-6.182-6.182-6.182S467.977,328.468,467.977,331.882z"/>
			</g>
			<g>
				<g>
					<path style="fill:#FD8A02;" d="M206.726,33.777c-0.382-0.18-0.858-0.295-1.4-0.353c-1.101-0.101-2.348-0.047-3.498,0.397       c-1.135,0.44-3.194,1.73-4.607,3.423c-0.714,0.843-1.312,1.802-1.591,2.722c-0.257,0.905-0.226,1.79,0.192,2.462       c0.918,1.311,3.124,1.385,5.227,0.633c2.099-0.707,4.018-2.064,4.883-2.931c0.862-0.869,1.465-2.041,1.78-3.062       c0.282-1.01,0.393-1.958-0.051-2.573C207.468,34.166,207.147,33.938,206.726,33.777z"/>
					<path style="fill:#FD8A02;" d="M216.14,40.308c-0.731-0.199-1.564,0.248-2.402,0.882c-0.842,0.688-1.707,1.656-2.199,2.764       c-0.5,1.132-1.026,3.451-0.837,5.669c0.141,2.257,1.113,4.295,2.677,4.664c1.583,0.264,3.192-1.235,4.146-3.259       c0.983-1.982,1.381-4.298,1.38-5.522c-0.005-1.225-0.408-2.48-0.909-3.427C217.477,41.17,216.891,40.407,216.14,40.308z"/>
					<path style="fill:#FD8A02;" d="M231.877,40.131c-0.87-0.862-2.041-1.464-3.062-1.779c-1.01-0.282-1.959-0.393-2.573,0.051       c-0.331,0.193-0.559,0.514-0.719,0.935c-0.18,0.382-0.295,0.858-0.353,1.4c-0.101,1.101-0.047,2.347,0.397,3.498       c0.44,1.135,1.73,3.194,3.423,4.608c0.843,0.714,1.802,1.312,2.722,1.59c0.905,0.257,1.79,0.226,2.462-0.192       c1.311-0.919,1.385-3.124,0.634-5.228C234.101,42.916,232.744,40.996,231.877,40.131z"/>
					<path style="fill:#FD8A02;" d="M242.773,28.537c-1.982-0.982-4.298-1.38-5.522-1.379c-1.225,0.005-2.48,0.408-3.427,0.908       c-0.907,0.52-1.671,1.105-1.77,1.856c-0.199,0.73,0.249,1.563,0.883,2.402c0.688,0.843,1.656,1.707,2.764,2.199       c1.132,0.5,3.451,1.026,5.668,0.837c2.257-0.141,4.295-1.113,4.664-2.676C246.296,31.101,244.797,29.492,242.773,28.537z"/>
					<path style="fill:#FD8A02;" d="M231.083,20.54c0.382,0.18,0.858,0.296,1.4,0.353c1.101,0.101,2.347,0.047,3.498-0.397       c1.135-0.44,3.194-1.731,4.607-3.423c0.714-0.843,1.312-1.802,1.59-2.722c0.258-0.905,0.226-1.79-0.192-2.462       c-0.919-1.311-3.124-1.385-5.228-0.633c-2.098,0.707-4.019,2.064-4.883,2.931c-0.862,0.869-1.464,2.041-1.78,3.062       c-0.282,1.01-0.393,1.958,0.051,2.573C230.341,20.151,230.662,20.379,231.083,20.54z"/>
					<path style="fill:#FD8A02;" d="M226.27,10.363c0.5-1.133,1.026-3.451,0.837-5.669c-0.14-2.257-1.112-4.295-2.676-4.665       c-1.583-0.264-3.192,1.236-4.147,3.26c-0.982,1.982-1.381,4.298-1.379,5.522c0.005,1.225,0.408,2.48,0.908,3.427       c0.52,0.907,1.105,1.67,1.856,1.77c0.73,0.199,1.564-0.249,2.402-0.883C224.913,12.439,225.778,11.471,226.27,10.363z"/>
					<path style="fill:#FD8A02;" d="M212.286,14.98c0.18-0.382,0.295-0.858,0.353-1.4c0.101-1.101,0.047-2.347-0.397-3.499       c-0.44-1.135-1.73-3.194-3.423-4.607c-0.843-0.714-1.802-1.312-2.722-1.59c-0.905-0.257-1.79-0.226-2.462,0.192       c-1.312,0.918-1.385,3.124-0.634,5.228c0.707,2.098,2.064,4.018,2.931,4.883c0.87,0.863,2.041,1.465,3.062,1.78       c1.01,0.282,1.958,0.393,2.573-0.05C211.897,15.722,212.125,15.401,212.286,14.98z"/>
					<path style="fill:#FD8A02;" d="M203.986,26.25c0.907-0.52,1.67-1.105,1.77-1.856c0.199-0.73-0.249-1.563-0.883-2.402       c-0.688-0.842-1.656-1.707-2.764-2.199c-1.133-0.5-3.451-1.026-5.668-0.837c-2.257,0.141-4.295,1.112-4.664,2.676       c-0.264,1.583,1.235,3.192,3.26,4.147c1.982,0.982,4.298,1.381,5.522,1.379C201.784,27.154,203.039,26.75,203.986,26.25z"/>
				</g>
				<path style="fill:#4217A6;" d="M212.515,27.487c0,3.414,2.768,6.182,6.182,6.182c3.414,0,6.182-2.768,6.182-6.182      c0-3.414-2.768-6.182-6.182-6.182C215.283,21.306,212.515,24.073,212.515,27.487z"/>
			</g>
			<g>
				<g>
					<path style="fill:#FD8A02;" d="M51.586,320.504c-0.382-0.18-0.858-0.295-1.4-0.353c-1.101-0.101-2.348-0.046-3.498,0.398       c-1.135,0.44-3.194,1.73-4.607,3.423c-0.714,0.843-1.312,1.801-1.59,2.722c-0.257,0.905-0.226,1.79,0.192,2.462       c0.918,1.312,3.124,1.385,5.228,0.633c2.098-0.707,4.018-2.064,4.883-2.931c0.862-0.87,1.465-2.041,1.78-3.062       c0.282-1.01,0.393-1.959-0.051-2.573C52.328,320.893,52.007,320.665,51.586,320.504z"/>
					<path style="fill:#FD8A02;" d="M61,327.034c-0.73-0.199-1.564,0.249-2.402,0.883c-0.843,0.688-1.707,1.656-2.199,2.764       c-0.5,1.132-1.026,3.451-0.837,5.669c0.141,2.257,1.113,4.295,2.676,4.664c1.584,0.264,3.192-1.235,4.147-3.26       c0.983-1.982,1.381-4.298,1.379-5.522c-0.005-1.225-0.408-2.48-0.909-3.427C62.336,327.897,61.751,327.134,61,327.034z"/>
					<path style="fill:#FD8A02;" d="M76.737,326.858c-0.87-0.863-2.041-1.465-3.062-1.78c-1.01-0.282-1.959-0.393-2.573,0.051       c-0.331,0.193-0.559,0.514-0.719,0.935c-0.18,0.382-0.295,0.858-0.353,1.4c-0.101,1.101-0.047,2.347,0.397,3.498       c0.44,1.135,1.73,3.194,3.423,4.607c0.843,0.714,1.801,1.312,2.722,1.59c0.905,0.257,1.79,0.226,2.462-0.192       c1.312-0.918,1.385-3.124,0.634-5.228C78.961,329.643,77.603,327.723,76.737,326.858z"/>
					<path style="fill:#FD8A02;" d="M87.632,315.265c-1.982-0.983-4.298-1.381-5.522-1.379c-1.225,0.005-2.48,0.408-3.427,0.909       c-0.907,0.519-1.671,1.104-1.77,1.856c-0.199,0.73,0.249,1.564,0.883,2.402c0.689,0.842,1.656,1.707,2.764,2.199       c1.132,0.5,3.451,1.026,5.668,0.837c2.257-0.141,4.295-1.112,4.664-2.676C91.156,317.828,89.657,316.219,87.632,315.265z"/>
					<path style="fill:#FD8A02;" d="M75.943,307.267c0.382,0.18,0.858,0.295,1.401,0.353c1.101,0.101,2.347,0.047,3.498-0.397       c1.135-0.44,3.194-1.73,4.608-3.423c0.714-0.843,1.312-1.802,1.59-2.722c0.258-0.905,0.226-1.79-0.192-2.462       c-0.918-1.311-3.124-1.385-5.228-0.633c-2.099,0.707-4.019,2.064-4.883,2.931c-0.862,0.869-1.464,2.041-1.78,3.062       c-0.282,1.01-0.393,1.959,0.051,2.573C75.201,306.879,75.522,307.106,75.943,307.267z"/>
					<path style="fill:#FD8A02;" d="M71.13,297.09c0.5-1.132,1.026-3.451,0.837-5.668c-0.141-2.257-1.112-4.295-2.676-4.664       c-1.584-0.264-3.192,1.235-4.147,3.26c-0.983,1.982-1.381,4.298-1.379,5.522c0.005,1.225,0.408,2.48,0.909,3.427       c0.52,0.907,1.105,1.67,1.856,1.77c0.73,0.199,1.564-0.249,2.402-0.883C69.773,299.166,70.638,298.198,71.13,297.09z"/>
					<path style="fill:#FD8A02;" d="M57.146,301.707c0.18-0.382,0.295-0.858,0.353-1.4c0.101-1.101,0.047-2.347-0.397-3.498       c-0.44-1.135-1.73-3.194-3.423-4.607c-0.843-0.714-1.801-1.312-2.722-1.59c-0.905-0.257-1.79-0.226-2.462,0.192       c-1.312,0.918-1.385,3.124-0.633,5.228c0.707,2.099,2.064,4.019,2.931,4.883c0.87,0.862,2.041,1.465,3.062,1.779       c1.01,0.282,1.958,0.393,2.572-0.05C56.757,302.449,56.985,302.128,57.146,301.707z"/>
					<path style="fill:#FD8A02;" d="M48.845,312.977c0.907-0.519,1.671-1.104,1.77-1.856c0.199-0.73-0.249-1.564-0.883-2.402       c-0.689-0.842-1.656-1.707-2.764-2.199c-1.133-0.5-3.451-1.026-5.668-0.837c-2.257,0.141-4.295,1.112-4.665,2.676       c-0.264,1.583,1.236,3.192,3.26,4.147c1.982,0.982,4.298,1.381,5.522,1.379C46.643,313.881,47.899,313.478,48.845,312.977z"/>
				</g>
				<path style="fill:#4217A6;" d="M57.375,314.214c0,3.414,2.768,6.182,6.182,6.182c3.414,0,6.182-2.768,6.182-6.182      s-2.768-6.182-6.182-6.182C60.143,308.033,57.375,310.8,57.375,314.214z"/>
			</g>
		</g>
		<g>
			<path style="fill:#FC09B2;" d="M447.301,235.992c-4.122,0-7.463,3.341-7.463,7.463c0,4.122,3.341,7.463,7.463,7.463     c4.121,0,7.463-3.341,7.463-7.463C454.764,239.333,451.422,235.992,447.301,235.992z"/>
			<path style="fill:#FC09B2;" d="M18.064,376.833c-4.122,0-7.463,3.341-7.463,7.463c0,4.122,3.341,7.463,7.463,7.463     c4.121,0,7.463-3.341,7.463-7.463C25.526,380.175,22.185,376.833,18.064,376.833z"/>
			<path style="fill:#FC09B2;" d="M352.426,38.883c-4.122,0-7.463,3.341-7.463,7.463c0,4.122,3.341,7.463,7.463,7.463     c4.122,0,7.463-3.341,7.463-7.463C359.889,42.224,356.548,38.883,352.426,38.883z"/>
			<path style="fill:#FC09B2;" d="M32.971,183.676c-4.121,0-7.463,3.341-7.463,7.463c0,4.121,3.341,7.463,7.463,7.463     c4.122,0,7.463-3.341,7.463-7.463C40.434,187.017,37.092,183.676,32.971,183.676z"/>
			<circle style="fill:#FC09B2;" cx="435.621" cy="444.313" r="7.463"/>
		</g>
	</g>
</g>















</svg>
