<?xml version="1.0" encoding="UTF-8"?>
<!-- Generator: Adobe Illustrator 25.2.3, SVG Export Plug-In . SVG Version: 6.00 Build 0)  -->
<svg xmlns="http://www.w3.org/2000/svg" xmlns:xlink="http://www.w3.org/1999/xlink" version="1.1" id="Capa_1" x="0px" y="0px" viewBox="0 0 512 512" style="enable-background:new 0 0 512 512;" xml:space="preserve" width="512" height="512">
<g>
	<path style="fill:#091438;" d="M415.317,76.512c27.898,43.749,34.883,94.173,15.602,112.632   c-19.276,18.45-57.518-2.043-85.415-45.793C317.608,99.607,310.621,49.184,329.9,30.727   C349.18,12.27,387.422,32.769,415.317,76.512z"/>
	<polygon style="fill:#FF6C7E;" points="370.958,162.586 506.041,61.333 512,71.073 373.339,169.438  "/>
	<polygon style="fill:#FF6C7E;" points="376.521,172.813 491.741,115.388 495.714,125.59 380.41,178.169  "/>
	<path style="fill:#091438;" d="M243.476,384.806c0,0-0.177,41.818-64.953,38.671C178.523,423.477,244.318,437.509,243.476,384.806z   "/>
	<path style="fill:#091438;" d="M446.111,302.152C433.166,231.93,387.73,71.546,245.007,94.444   C178.64,105.108,114.059,152.66,67.887,211.161l19.19,90.513l170.843,73.1l144.423-24.518L446.111,302.152z"/>
	<path style="fill:#FFDC9F;" d="M4.333,337.877c9.117-41.831,32.054-86.817,63.554-126.716   c37.925,23.428,97.665-48.575,97.665-48.575c39.718,128.521,168.063,73.025,168.063,73.025   c10.322,73.022,42.1,100.272,42.1,100.272c15.854-23.721,45.984-34.348,70.396-33.732c30.681,0.726,52.352,19.222,25.365,51.754   c-35.092,42.295-76.449,31.782-96.596,22.73c-31.847,37.297-138.099,142.71-293.17,102.372   C9.384,460.207-9.825,402.853,4.333,337.877"/>
	<path style="fill:#091438;" d="M119.061,290.141l27.808,90.049c0,0-24.233-3.915-22.247,4.62   c1.986,8.524,44.099,7.558,44.099,7.558s-39.73-5.381-38.93-7.558c0.793-2.18,23.438-2.18,23.438-2.18   S131.769,300.379,119.061,290.141z"/>
	<path style="fill:#091438;" d="M96.635,286.895c-19.239-6.19-44.415-0.973-55.995,16.822c9.622-21.384,36.508-30.406,58.31-27.123   L96.635,286.895z"/>
	<path style="fill:#091438;" d="M153.271,270.958c28.993-14.359,65.182-7.63,84.274,19.183   c-20.238-22.427-53.696-26.367-79.038-10.021L153.271,270.958z"/>
	<g>
		<path style="fill:#FF6C7E;" d="M225.787,390.293c0,5.944-6.503,10.754-14.524,10.754c-8.022,0-14.528-4.811-14.528-10.754    c0-5.936,6.507-10.754,14.528-10.754C219.283,379.539,225.787,384.357,225.787,390.293z"/>
		<path style="fill:#FF6C7E;" d="M249.674,435.382c-4.048,7.08-12.652,8.248-19.224,2.605c-6.57-5.625-8.625-15.944-4.577-23.02    c4.051-7.084,12.653-8.248,19.227-2.613C251.672,417.983,253.722,428.295,249.674,435.382z"/>
		<path style="fill:#FFFFFF;" d="M199.957,398.403c9.899-3.707,16.915-10.501,16.958-21.583    c11.844,7.081,16.252,14.018,22.634,25.771c3.266,12.363,6.092,32.307-8.094,38.974L199.957,398.403z"/>
		<path style="fill:#091438;" d="M241.626,406.485c1,3.781,1.626,7.951,1.738,12.567c0.782,32.285-27.231,22.574-27.231,22.574    s25.909,7.013,24.896-22.34c-1.011-29.353-23.523-40.688-23.523-40.688c-0.857,25.729-34.688,22.635-34.688,22.635    s31.725,0.393,33.613-25.551C216.432,375.681,235.652,383.829,241.626,406.485"/>
		<path style="fill:#091438;" d="M213.117,379.539c0,0,3.425-4.021,10.986-3.731c0,0-7.635-2.92-11.751,1.055L213.117,379.539z"/>
		<polygon style="fill:#091438;" points="224.103,411.349 231.196,390.75 234.681,394.311   "/>
	</g>
	<g>
		
			<rect x="32.516" y="314.686" transform="matrix(0.7206 -0.6933 0.6933 0.7206 -217.2702 114.817)" style="fill:#091438;" width="2.636" height="24.64"/>
		
			<rect x="34.999" y="305.208" transform="matrix(0.7509 -0.6604 0.6604 0.7509 -203.5475 104.1765)" style="fill:#091438;" width="2.639" height="33.387"/>
		<path style="fill:#FFFFFF;" d="M117.25,357.138c0,0-70.583-54.044-86.267-27.024C15.303,357.138,117.25,357.138,117.25,357.138z"/>
		<path style="fill:#091438;" d="M115.646,359.234c-0.501-0.382-50.38-38.345-73.859-33.665c-3.888,0.772-6.676,2.69-8.522,5.869    l-4.563-2.648c2.614-4.507,6.671-7.331,12.06-8.397c25.771-5.151,75.969,33.024,78.091,34.649L115.646,359.234z"/>
		<path style="fill:#091438;" d="M93.145,345.655c0,4.676-4.444,8.482-9.926,8.482c-5.482,0-9.923-3.805-9.923-8.482    c0-4.691,4.441-8.482,9.923-8.482C88.7,337.173,93.145,340.964,93.145,345.655z"/>
	</g>
	<g>
		
			<rect x="235.216" y="317.031" transform="matrix(0.6846 -0.729 0.729 0.6846 -153.4306 282.1359)" style="fill:#091438;" width="28.124" height="2.637"/>
		
			<rect x="230.124" y="308.047" transform="matrix(0.5793 -0.8151 0.8151 0.5793 -147.9469 332.1044)" style="fill:#091438;" width="35.217" height="2.64"/>
		<path style="fill:#FFFFFF;" d="M158.184,357.439c0,0,73.638-61.064,92.414-35.711    C269.376,347.089,158.184,357.439,158.184,357.439z"/>
		<path style="fill:#091438;" d="M159.869,359.471l-3.37-4.064c2.253-1.866,55.439-45.68,83.509-42.288    c5.466,0.662,9.742,3.03,12.71,7.037l-4.241,3.143c-2.101-2.839-5.08-4.454-9.103-4.942    C213.611,315.19,160.404,359.029,159.869,359.471z"/>
		<path style="fill:#091438;" d="M232.429,332.712c0,5.607-5.823,10.167-13.011,10.167c-7.184,0-13.013-4.559-13.013-10.167    c0-5.618,5.829-10.166,13.013-10.166C226.606,322.546,232.429,327.095,232.429,332.712z"/>
	</g>
	<path style="fill:#091438;" d="M447.426,351.343c0,0-9.754-11.498-29.828-9.214c-20.075,2.287-37.373,27.084-10.459,31.127   c26.909,4.06,18.438-11.423,8.72-13.742l15.96,0.085l-22.78-1.841c0,0,18.548,10.369,10.547,13.625   c-8.001,3.26-30.49-1.628-20.836-15.264C415.749,332.114,447.426,351.343,447.426,351.343z"/>
	<path style="opacity:0.1;fill:#FFFFFF;" d="M178.523,152.852c0,0,29.534,110.991,170.581,64.257   C349.104,217.108,224.087,250.211,178.523,152.852z"/>
	<path style="opacity:0.1;fill:#FFFFFF;" d="M189.387,134.354c0,0,45.293,91.035,193.486,65.721   C382.873,200.074,251.763,210.296,189.387,134.354z"/>
	<path style="opacity:0.1;fill:#FFFFFF;" d="M224.103,117.801c0,0,24.081,73.796,130.562,72.923   C354.665,190.723,262.802,184.007,224.103,117.801z"/>
	<path style="fill:#EA4A0C;" d="M444.461,313.225c0,2.828-2.938,5.122-6.56,5.122c-3.62,0-6.554-2.294-6.554-5.122   c0-2.829,2.935-5.119,6.554-5.119C441.523,308.107,444.461,310.397,444.461,313.225z"/>
	<path style="fill:#EA4A0C;" d="M465.519,315.565c0,2.835-2.936,5.122-6.56,5.122c-3.613,0-6.551-2.287-6.551-5.122   c0-2.825,2.938-5.119,6.551-5.119C462.582,310.447,465.519,312.74,465.519,315.565z"/>
</g>















</svg>
