<?xml version="1.0" encoding="UTF-8"?>
<!-- Generator: Adobe Illustrator 25.3.1, SVG Export Plug-In . SVG Version: 6.00 Build 0)  -->
<svg xmlns="http://www.w3.org/2000/svg" xmlns:xlink="http://www.w3.org/1999/xlink" version="1.1" id="Capa_1" x="0px" y="0px" viewBox="0 0 512 512" style="enable-background:new 0 0 512 512;" xml:space="preserve" width="512" height="512">
<g>
	<g>
		<g>
			<g>
				<path style="fill:#DB5E43;" d="M334.009,173.346c0.999,9.751-4.557,12.771-2.628,15.603c0.711,1.043,1.867,2.186,3.667,3.896      c7.376,7.009,11.51,21.431,0.119,30.697c-5.3,4.31-10.614,6.552-17.338,3.802c-1.204-0.492-2.371-1.864-3.641-1.232      c-1.613,0.802-2.697,5.578-10.054,9.122c-12.636,6.087-22.937,3.546-29.172-2.468c-1.287-1.241-2.434-2.629-3.653-3.942      c-1.674-1.801-3.985,6.808-15.261,10.391c-10.989,3.492-22.019-4.314-27.545-14.803c-1.132-2.149-2.669,3.229-10.278,7.434      c-23.684,13.088-49.63-9.515-30.328-34.133c2.383-3.04,1.914-2.963,0.083-5.966c-5.453-8.943-0.909-21.148,6.956-27.078      c2.909-2.194,5.28-3.308,3.411-6.876c-6.817-13.011,3.206-26.813,14.964-32.615c14.517-7.164,30.7-11.042,46.843-11.83      c7.953-0.388,15.644,0.563,23.506,1.06c8.291,0.524,16.501,2.302,24.274,5.236c12.237,4.62,21.424,10.971,20.682,24.517      c-0.227,4.139-2.4,6.672-3.385,10.357C323.794,159.896,333.048,163.965,334.009,173.346z"/>
				<g style="opacity:0.25;">
					<path style="fill:#000E3F;" d="M323.555,186.942c-0.366-0.888-1.382-1.31-2.269-0.944l-0.258,0.106       c-2.079,0.857-3.794,2.821-5.94,2.151c-0.746-0.208-3.194-1.365-3.194-1.365c-1.091-0.45-2.291,0.443-2.142,1.637       c0.493,3.926,4.067,6.588,7.565,6.059C321.89,193.913,324.288,188.716,323.555,186.942z"/>
					<path style="fill:#000E3F;" d="M302.583,174.225c0.346-0.187-2.297,1.11-3.146,1.735c-1.194,0.546-1.86,0.894-3.052,0.522       c-0.746-0.208-3.194-1.365-3.194-1.365c-1.091-0.45-2.291,0.443-2.141,1.637c0.886,7.064,10.069,8.602,13.375,1.379       c0.395-1.168,0.751-2.182,0.429-2.964C304.487,174.282,303.471,173.859,302.583,174.225z"/>
					<path style="fill:#000E3F;" d="M320.613,168.101c3.18-4.601,1.147-6.614-0.7-5.853c0.345-0.187-2.298,1.11-3.146,1.735       c-2.717,1.243-2.621,0.654-6.246-0.843c-0.241-0.1-0.511-0.14-0.788-0.105c-2.531,0.317-1.063,4.105,0.74,5.952       C312.967,171.54,317.351,171.826,320.613,168.101z"/>
					<path style="fill:#000E3F;" d="M320.76,148.724c2.864-4.144,1.033-5.958-0.631-5.272c0.311-0.168-2.069,1-2.834,1.563       c-2.447,1.119-2.36,0.589-5.626-0.759c-0.217-0.09-0.46-0.126-0.71-0.095c-2.28,0.286-0.958,3.698,0.667,5.361       C313.872,151.822,317.821,152.08,320.76,148.724z"/>
					<path style="fill:#000E3F;" d="M211.824,150.069c2.865-4.145,1.033-5.958-0.631-5.272c0.311-0.168-2.069,0.999-2.834,1.563       c-2.447,1.12-2.36,0.589-5.626-0.759c-0.217-0.09-0.46-0.126-0.71-0.095c-2.28,0.286-0.958,3.698,0.667,5.361       C204.937,153.167,208.886,153.425,211.824,150.069z"/>
					<path style="fill:#000E3F;" d="M207.825,188.739l-0.432,0.18c-1.7,0.709-2.888,1.528-4.125,1.297       c-1.171-0.16-3.574-1.859-4.837-2.375c-1.211-0.496-2.539,0.492-2.382,1.815c0.698,5.874,7.681,9.173,11.829,4.927       c1.374-1.408,2.49-3.797,1.986-5.005C209.533,188.783,208.62,188.407,207.825,188.739z"/>
					<path style="fill:#000E3F;" d="M227.646,180.848c-2.145,0.671-3.858-1.292-5.941-2.151c0.18,0.074-0.527-0.297-1.126-0.226       c-3.461,0.411-0.602,7.909,4.837,8.707c5.093,0.772,8.277-4.882,7.457-6.853C231.975,178.173,229.466,180.339,227.646,180.848z       "/>
					<path style="fill:#000E3F;" d="M210.144,167.539c-2.63,0.822-5.185-2.599-7.067-2.376c-3.461,0.412-0.6,7.909,4.837,8.707       c5.093,0.771,7.945-5.682,7.457-6.853C214.474,164.863,211.964,167.03,210.144,167.539z"/>
				</g>
			</g>
			<path style="fill:#000E3F;" d="M250.55,241.874c-9.701,0-18.233-7.229-22.968-15.423c-0.091,0.099-0.182,0.199-0.27,0.294     c-1.49,1.62-3.984,4.331-8.22,6.671c-12.314,6.807-26.537,4.958-34.583-4.494c-5.879-6.905-8.447-19.02,1.977-32.315     c0.291-0.37,1.175-1.497,1.247-1.829c-0.04-0.114-0.404-0.694-0.728-1.206l-0.554-0.891c-6.157-10.095-0.949-23.143,7.406-29.443     c0.331-0.249,0.653-0.483,0.963-0.71c2.671-1.943,2.814-2.234,1.941-3.902c-2.688-5.131-3.142-10.811-1.312-16.425     c2.444-7.502,8.985-14.641,17.072-18.631c14.261-7.037,30.703-11.191,47.547-12.013c6.034-0.292,11.978,0.172,17.727,0.623     c1.988,0.156,3.979,0.312,5.982,0.439c8.474,0.536,16.814,2.335,24.793,5.348c11.277,4.258,22.691,10.712,21.839,26.292     c-0.156,2.858-1.108,4.986-2.031,7.044c-0.548,1.224-1.065,2.381-1.413,3.678c-0.441,1.653,0.835,3.384,2.954,6.071     c2.375,3.009,5.327,6.754,5.877,12.11l0,0c0.613,5.995-1.082,9.723-2.205,12.191c-0.76,1.67-0.96,2.244-0.727,2.586     c0.636,0.932,1.819,2.082,3.422,3.605c5.02,4.771,7.982,11.846,7.728,18.463c-0.226,5.842-2.893,11.002-7.714,14.924     c-4.532,3.686-10.803,7.481-19.149,4.071c-0.513-0.211-0.97-0.502-1.375-0.758c-0.254-0.163-0.62-0.396-0.83-0.477     c-0.212,0.216-0.578,0.738-0.879,1.168c-1.387,1.979-3.707,5.29-9.153,7.914c-11.818,5.694-23.478,4.65-31.195-2.793     c-0.898-0.867-1.723-1.791-2.521-2.685c-0.161-0.181-0.324-0.362-0.485-0.544c-0.24,0.262-0.508,0.573-0.749,0.85     c-2.084,2.409-5.966,6.893-13.37,9.246C254.544,241.575,252.523,241.874,250.55,241.874z M227.891,222.128     c0.103,0,0.208,0.007,0.317,0.021c0.553,0.072,1.329,0.378,1.883,1.427c4.782,9.079,14.778,17.311,25.414,13.931     c6.441-2.047,9.761-5.883,11.745-8.175c1.314-1.518,2.182-2.521,3.527-2.544c0.721,0.017,1.345,0.278,1.846,0.817     c0.422,0.455,0.835,0.917,1.248,1.38c0.788,0.883,1.534,1.718,2.336,2.492c6.686,6.45,16.583,7.235,27.15,2.143     c4.602-2.217,6.509-4.939,7.77-6.74c0.751-1.07,1.343-1.915,2.263-2.373c1.79-0.892,3.369,0.115,4.311,0.715     c0.271,0.172,0.534,0.352,0.807,0.463c5.287,2.164,9.785,1.136,15.528-3.534c3.998-3.252,6.208-7.498,6.392-12.28     c0.214-5.532-2.383-11.705-6.614-15.725c-1.765-1.678-3.079-2.96-3.914-4.185c-1.406-2.066-0.476-4.113,0.424-6.091     c1.077-2.367,2.416-5.312,1.902-10.34c-0.441-4.319-2.93-7.473-5.124-10.255c-2.329-2.955-4.53-5.746-3.602-9.219     c0.42-1.575,1.023-2.918,1.604-4.218c0.825-1.841,1.604-3.58,1.725-5.774c0.585-10.694-5.073-17.283-19.527-22.741     c-7.644-2.887-15.634-4.611-23.753-5.124c-2.019-0.128-4.03-0.285-6.035-0.443c-5.9-0.462-11.47-0.903-17.272-0.616     c-16.359,0.798-32.312,4.825-46.136,11.647c-7.25,3.577-13.093,9.909-15.249,16.525c-1.544,4.741-1.182,9.334,1.079,13.649     c2.381,4.544-0.604,6.719-3.005,8.467c-0.296,0.215-0.603,0.438-0.914,0.673c-7.138,5.382-11.454,16.597-6.506,24.713     l0.527,0.846c1.851,2.937,1.741,4.007-0.73,7.161c-7.721,9.846-8.495,20.23-2.068,27.777c5.667,6.656,17.508,10.65,30.118,3.68     c3.725-2.059,5.884-4.407,7.314-5.96C225.827,223.062,226.687,222.128,227.891,222.128z"/>
		</g>
		<g>
			<g>
				<g>
					<path style="fill:#FFBBEC;" d="M307.517,218.868c-9.02,11.871-26.342,19.904-46.228,19.904s-37.226-8.033-46.246-19.922       c1.381-7.406,3.299-14.489,5.361-20.514c0.359-1.058,0.933-1.614,2.044-1.883c16.103-3.784,34.59-5.29,53.132-3.748       c13.18,1.094,24.62,3.784,24.71,3.801c0.95,0.143,1.435,0.753,1.74,1.596C305.06,206.854,306.513,212.807,307.517,218.868z"/>
					<path style="fill:#FFBBEC;" d="M372.241,263.381c-5.045-21.905-13.122-36.607-31.146-49.541       c-3.3-2.353-12.45-7.781-14.812-8.412c-3.424-0.914,2.047,6.059,5.351,33.491c4.182,34.762,0.206,64.724-6.846,84.996       c-0.489,1.399-0.915,2.498-1.243,3.385c-1.083,2.822-1.261,3.462,0.46,4.031c1.635,0.533,3.873,1.227,6.542,2.081       c7.292,2.351,17.81,5.953,28.282,11.012c0.487,0.233,2.416,1.11,2.173,1.665c-0.161,0.394-14.11-6.242-29.678-11.413       c-11.675-3.878-24.273-6.932-32.741-5.565c-4.971,0.781-8.513,3.092-9.661,7.65c-1.268,5.105,0.183,11.013,3.395,17.011       c8.886,16.728,31.335,34.098,45.57,36.278c2.127,0.33,4.145,0.385,6.069,0.165c10.63-1.044,18.261-9.563,22.055-21.111       c1.673-5.124,10.377-27.345,10.852-60.672C377.103,291.925,375.299,276.597,372.241,263.381z"/>
					<path style="fill:#FFBBEC;" d="M225.603,329.395c-0.461-0.106-0.939-0.195-1.434-0.284c-8.025-1.278-20.62,1.527-32.653,5.405       c-11.677,3.743-22.836,8.495-28.785,11.502c-2.107,1.057-5.741-1.2,29.579-12.766c0.517-0.178,1.051-0.356,1.602-0.534       c6.094-1.992,6.795-0.925,5.105-5.365c-0.786-2.11-2.113-5.474-3.639-11.002c-15.069-54.376,1.831-109.045,2.003-110.376       c0.04-0.415-0.433-0.798-0.832-0.682c-0.915,0.249-0.614,0.116-6.484,3.243c-20.563,10.937-31.972,26.915-37.749,47.023       c-6.574,22.815-6.065,37.634-6.231,43.078h-0.119c-0.845,27.632,2.903,49.565,11.127,72.188       c4.099,11.321,11.733,18.453,21.706,19.37c4.788,0.44,10.109-0.55,15.821-3.224c14.89-6.941,31.608-24.765,35.093-33.003       c0.106-0.252,0.211-0.486,0.299-0.719c2.875-6.839,4.237-9.99,4.024-13.814C233.731,333.929,230.281,330.514,225.603,329.395z"/>
				</g>
				<path style="fill:#FFCF00;" d="M261.373,279.873c13.17,0,30.896,0.885,40.37-9.144c8.394-8.884,9.612-24.139,8.663-36.439      c-2.442-31.642-10.851-37.93-5.196-36.581c8.378,2,13.529,4.548,16.502,5.606c1.138,0.405,1.797,1.051,2.102,2.232      c6.708,25.927,9.752,44.582,7.825,77.442c-1.093,18.636-6.103,37.903-9.995,46.367c-0.417,0.907-0.643,1.037-1.617,0.844      c-8.352-1.656-17.158-4.351-25.034-1.248c-4.686,1.846-7.309,5.415-7.616,10.644c-0.283,4.832,4.691,15.767,7.552,20.154      c1.333,2.045,2.972,3.801,4.559,5.579c12.416,13.909,30.685,29.648,48.185,25.318c4.081-1.009,4.397-2.87,5.214,1.574      c3.599,19.567,11.422,35.502,25.046,59.813c3.174,5.665,4.912,9.514,0.867,15.196c-4.183,5.876-12.298,11.159-21.113,16.127      c-15.122,8.521-27.354,14.617-45.967,19.414c-16.316,4.205-37.485,7.781-54.185,7.355c-3.71-0.095-22.041-2.054-26.687-2.974      c-22.924-4.539-37.717-7.924-62.675-21.856c-11.831-6.605-32.019-17.657-25.507-29.662      c23.007-42.412,22.847-45.319,27.246-64.931c1.044-4.657,5.084,5.076,22.73-1.743c15.214-5.88,35.16-25.837,39.299-37.64      c2.312-6.595,3.898-9.273,2.813-14.238c-0.843-3.861-3.316-6.315-6.677-7.893c-6.852-3.217-18.063-0.619-25.504,1.02      c-1.115,0.246-1.4,0.13-1.799-0.921c-11.815-31.087-12.385-64.506-8.015-96.996c1.632-12.135,5.629-25.594,5.795-26.321      c0.326-1.422,1.153-2.336,2.538-2.832c28.258-10.115,15.522-8.175,12.265,20.137c-0.776,6.751-2.345,15.474-1.393,21.162      c0.316,1.887-0.557,8.639,3.933,18.838C223.458,280.447,242.67,280.036,261.373,279.873z"/>
				<g style="opacity:0.5;">
					<path style="fill:#FD8A02;" d="M301.936,387.403c-0.191-18.159-0.093-11.159-0.416-15.035       c-0.466-5.585,0.466-4.369,3.743-0.954c7.44,7.754,18.614,16.301,28.808,18.936c14.379,3.716,17.695-3.828,18.614,0.598       c1.457,7.016,1.593,10.79,6.344,22.941c15.171,38.798,27.455,42.639,19.725,53.404c-1.816,2.528-3.984,4.733-6.461,6.573       c-13.761,10.218-37.146,22.875-60.636,28.919c-8.87,2.283-25.612,5.776-34.609,6.282c-7.002,0.394-11.474,2.652-36.677-0.555       c-13.273-1.689-26.324-4.459-39.104-8.449c-17.463-5.451-46.84-20.913-55.504-30.157c-2.561-2.732-2.694-3.016,0.414-6.045       c17.286-16.847,51.278-11.607,73.478-5.545c36.18,9.88,64.415,7.623,77.466-29.933c4.866-14.002,5.071-27.175,4.926-40.982       C302.009,387.403,301.973,387.403,301.936,387.403z"/>
					<path style="fill:#FD8A02;" d="M323.717,323.922c-3.457,9.836-0.565,5.617-16.039,3.986c-1.648-0.173-1.711-0.723-0.553-4.861       c9.124-32.601,24.749-54.433,25.023-51.61C332.463,274.671,331.555,301.618,323.717,323.922z"/>
				</g>
				<g>
					<path style="fill:#FD8A02;" d="M369.185,451.585c-55.383,53.451-141.714,63.835-215.476,0.491       c-1.522-1.308,0.277-3.864,1.893-2.688c76.071,55.674,150.502,50.192,211.677-0.223       C368.728,447.967,370.545,450.262,369.185,451.585z"/>
					<path style="fill:#FD8A02;" d="M287.876,376.749c-17.443,32.875-53.882,55.836-90.049,56.367       c-1.922,0.028-2.091-2.977-0.195-3.277c34.133-5.455,65.602-23.991,87.846-54.743       C286.54,373.615,288.734,375.123,287.876,376.749z"/>
					<path style="fill:#FD8A02;" d="M296.119,412.428c-11.516,21.35-35.414,36.244-57.583,37.437       c-1.838,0.098-2.273-2.726-0.48-3.273c46.293-14.138,53.889-39.905,57.785-36.061       C296.346,411.03,296.442,411.823,296.119,412.428z"/>
				</g>
				<g style="opacity:0.35;">
					<path style="fill:#FC09B2;" d="M343.955,390.215c-1.924,0.22-3.942,0.165-6.069-0.165c-14.235-2.18-36.685-19.55-45.57-36.278       c-3.211-5.998-4.662-11.906-3.395-17.011c1.148-4.558,4.69-6.869,9.661-7.65c8.468-1.367,21.067,1.687,32.741,5.565       c0.247,0.356,0.459,0.748,0.672,1.14c7.121,13.106-1.196,29.52,5.006,43.705C338.855,383.774,341.201,387.303,343.955,390.215z       "/>
					<path style="fill:#FC09B2;" d="M228.093,357.046c-9.488,15.403-31.869,34.752-49.294,33.151       c17.831-18.855,3.171-38.211,11.957-54.38c0.249-0.463,0.496-0.891,0.761-1.3c0.805-1.247,6.654-2.036,8.088-2.428       c7.656-2.094,18.896-4.635,26.336-2.508C237.35,332.844,234.456,346.714,228.093,357.046z"/>
				</g>
				<g>
					<path style="fill:#FC09B2;" d="M293.943,275.012c-3.586,1.632-7.334,2.493-11.207,2.995       c-7.137,0.932-14.292,1.327-21.178,0.914c-4.107,0.161-7.908,0.269-11.71,0.018c-16.121-1.058-28.26-2.78-34.017-18.398       c-4.196-11.387-3.515-27.149-0.789-41.692c9.02,11.889,26.36,19.922,46.246,19.922s37.208-8.033,46.228-19.904       c0.61,3.801,1.058,7.657,1.596,12.283C311.05,247.828,309.149,268.073,293.943,275.012z"/>
					<path style="fill:#FC09B2;" d="M377.007,302.478c-46.203-14.206-43.482-13.579-44.265-13.487       c1.547-14.906,1.342-30.917,0-44.166c-3.131-30.899-9.319-40.425-6.43-38.933c26.746,13.819,39.419,27.62,46.93,62.075       c3.374,15.514,3.243,22.055,3.541,31.894C376.951,300.857,377.007,301.686,377.007,302.478z"/>
					<path style="fill:#FC09B2;" d="M145.573,302.478c46.204-14.206,43.483-13.579,44.265-13.487       c-1.547-14.906-1.342-30.917,0-44.166c3.131-30.899,9.319-40.425,6.43-38.933c-26.746,13.819-39.419,27.62-46.931,62.075       c-3.373,15.514-3.243,22.055-3.541,31.894C145.629,300.857,145.573,301.686,145.573,302.478z"/>
				</g>
				<g style="opacity:0.25;">
					<path style="fill:#000E3F;" d="M308.099,222.877c-2.605,1.632-5.024,3.689-6.2,6.068c-3.015,6.1,2.156,11.93,7.791,10.309       c-0.077-2.745-0.272-5.47-0.578-8.103C308.761,228.126,308.444,225.443,308.099,222.877z"/>
					<path style="fill:#000E3F;" d="M301.899,262.462c-1.197,2.422-1.09,4.794-0.19,6.682c3.033-3.51,5.066-7.883,6.314-12.704       C305.447,258.065,303.064,260.105,301.899,262.462z"/>
					<path style="fill:#000E3F;" d="M289.707,232.691c-1.867,0.873-3.812,1.66-5.829,2.36c0.189,4.263,1.379,11.504,4.945,14.957       C297.182,258.104,310.977,243.355,289.707,232.691z"/>
					<path style="fill:#000E3F;" d="M286.871,264.889c-1.254-0.531-2.565-0.826-2.895,0.632c-0.303,1.341-0.156,7.08,1.483,12.061       c2.911-0.53,5.745-1.323,8.483-2.569c1.577-0.72,2.978-1.613,4.28-2.6C296.031,269.846,292.407,267.232,286.871,264.889z"/>
					<path style="fill:#000E3F;" d="M280.929,252.348c-2.007,0.176-12.719,4.157-15.663,10.114       c-3.022,6.114,2.179,11.961,7.83,10.301c6.488-1.906,8.707-11.065,9.319-17.851       C282.537,253.555,282.418,252.217,280.929,252.348z"/>
					<path style="fill:#000E3F;" d="M261.289,238.772c-4.796,0-9.438-0.477-13.856-1.353c0.47,4.221,1.791,9.716,4.757,12.588       c6.834,6.62,17.309-2.034,9.281-11.239C261.41,238.768,261.35,238.772,261.289,238.772z"/>
					<path style="fill:#000E3F;" d="M236.463,239.246c1.931-0.568,3.477-1.787,4.722-3.386c-4.735-1.426-9.129-3.331-13.057-5.648       C226.344,235.834,231.204,240.79,236.463,239.246z"/>
					<path style="fill:#000E3F;" d="M250.238,264.889c-1.254-0.531-2.564-0.826-2.895,0.632c-0.331,1.461-0.126,8.147,1.963,13.381       c0.183,0.012,0.359,0.026,0.542,0.038c3.802,0.251,7.603,0.143,11.709-0.018c0.927,0.055,1.87,0.06,2.806,0.087       C264.371,274.787,260.776,269.349,250.238,264.889z"/>
					<path style="fill:#000E3F;" d="M244.296,252.348c-2.007,0.176-12.719,4.157-15.663,10.114       c-3.022,6.114,2.179,11.961,7.83,10.301c6.488-1.906,8.706-11.065,9.318-17.851       C245.904,253.555,245.785,252.217,244.296,252.348z"/>
					<path style="fill:#000E3F;" d="M213.605,231.372c-0.1-0.042-0.201-0.08-0.302-0.119c-0.467,5.092-0.605,10.144-0.283,14.925       c0.67,1.483,1.497,2.822,2.536,3.829C224.265,258.443,238.9,242.077,213.605,231.372z"/>
					<path style="fill:#000E3F;" d="M376.784,299.862c-0.065-2.123-0.11-4.091-0.174-6.03c-0.582,0.682-1.074,1.398-1.444,2.146       c-1.01,2.044-1.087,4.051-0.549,5.765c0.793,0.244,1.567,0.482,2.391,0.735C377.007,301.686,376.951,300.857,376.784,299.862z"/>
					<path style="fill:#000E3F;" d="M346.363,239.246c4.894-1.438,7.357-7.003,8.535-12.563c-1.859-2.128-3.855-4.129-6.006-6.031       c-3.846,1.746-8.557,4.646-10.359,8.294C335.51,235.059,340.712,240.906,346.363,239.246z"/>
					<path style="fill:#000E3F;" d="M354.196,252.348c-2.007,0.176-12.719,4.157-15.663,10.114       c-3.022,6.114,2.179,11.961,7.83,10.301c6.488-1.906,8.706-11.065,9.318-17.851       C355.804,253.555,355.684,252.217,354.196,252.348z"/>
					<path style="fill:#000E3F;" d="M368.941,252.172c-2.859-8.434-6.317-15.329-10.622-21.225       c-0.513,0.049-0.914,0.339-1.076,1.056c-0.445,1.965,0.073,13.381,4.846,18.004       C364.242,252.093,366.756,252.658,368.941,252.172z"/>
					<path style="fill:#000E3F;" d="M354.196,285.864c-1.478,0.13-7.672,2.329-12.013,5.856c2.987,0.928,6.971,2.165,12.279,3.807       c0.64-2.396,1.019-4.874,1.219-7.099C355.804,287.071,355.684,285.734,354.196,285.864z"/>
					<path style="fill:#000E3F;" d="M360.138,264.889c-1.254-0.531-2.565-0.826-2.895,0.632c-0.445,1.965,0.073,13.381,4.846,18.004       C370.798,291.96,385.433,275.594,360.138,264.889z"/>
					<path style="fill:#000E3F;" d="M337.623,212.306c-3.464-2.186-7.221-4.3-11.311-6.413c-1.799-0.929-0.079,2.416,2.231,12.527       C332.898,219.92,337.408,216.899,337.623,212.306z"/>
					<path style="fill:#000E3F;" d="M331.691,235.969c0.373,2.738,0.729,5.678,1.051,8.856c0.229,2.264,0.412,4.631,0.572,7.037       C338.136,249.974,340.533,242.72,331.691,235.969z"/>
					<path style="fill:#000E3F;" d="M333.053,285.475c4.563-1.577,7.18-7.886,0.728-14.207       C333.696,276.007,333.452,280.774,333.053,285.475z"/>
					<path style="fill:#000E3F;" d="M178.885,216.448c0.013,0.013,0.024,0.029,0.037,0.042c5.89,5.705,14.472,0.064,11.6-7.495       C186.262,211.399,182.394,213.848,178.885,216.448z"/>
					<path style="fill:#000E3F;" d="M176.971,231.372c-1.254-0.531-2.564-0.826-2.894,0.632c-0.445,1.965,0.073,13.381,4.846,18.004       c3.531,3.42,8.034,2.763,10.458,0.06c0.134-1.786,0.286-3.538,0.458-5.241c0.108-1.067,0.22-2.103,0.336-3.119       C188.534,238.3,184.557,234.583,176.971,231.372z"/>
					<path style="fill:#000E3F;" d="M163.197,239.246c6.377-1.874,8.625-10.747,9.281-17.495       c-5.347,4.954-9.716,10.578-13.339,17.435C160.38,239.604,161.774,239.663,163.197,239.246z"/>
					<path style="fill:#000E3F;" d="M171.029,252.348c-2.007,0.176-12.718,4.157-15.663,10.114       c-3.022,6.114,2.179,11.961,7.83,10.301c6.488-1.906,8.706-11.065,9.319-17.851       C172.637,253.555,172.518,252.217,171.029,252.348z"/>
					<path style="fill:#000E3F;" d="M171.029,285.864c-2.007,0.177-12.718,4.157-15.663,10.114c-0.636,1.287-0.89,2.558-0.87,3.754       c6.999-2.156,12.598-3.887,17.064-5.27c0.48-2.057,0.783-4.137,0.954-6.034C172.637,287.071,172.518,285.734,171.029,285.864z"/>
					<path style="fill:#000E3F;" d="M176.971,264.889c-1.254-0.531-2.564-0.826-2.894,0.632c-0.445,1.965,0.073,13.381,4.846,18.004       c3.522,3.411,8.011,2.765,10.438,0.079c-0.262-3.49-0.427-7.012-0.518-10.523C186.728,270.302,182.99,267.436,176.971,264.889z       "/>
					<path style="fill:#000E3F;" d="M148.948,269.816c-1.386,6.635-2.107,11.585-2.504,15.921       C153.112,286.932,159.292,278.072,148.948,269.816z"/>
				</g>
			</g>
			<path style="fill:#000E3F;" d="M380.57,452.43l-1.884-3.448c-11.219-20.515-20.08-36.718-23.968-58.635     c-0.251-1.432,0.397-1.934,1.818-3.033c2.056-1.59,5.495-4.251,9.407-12.361c2.704-5.636,7.675-20.849,9.63-32.823     c5.793-35.393,4.994-83.277-14.615-111.52c-17.198-24.779-55.002-40.326-98.66-40.573c-0.345-0.002-0.688-0.003-1.033-0.003     c-20.409,0-40.173,3.435-57.212,9.95c-18.622,7.119-33.375,17.79-42.665,30.858c-12.895,18.133-19.343,50.592-17.249,86.826     c1.917,33.182,10.64,61.129,21.707,69.542c1.7,1.294,2.112,2.447,1.69,4.747c-3.697,19.841-11.939,35.107-21.483,52.784     l-0.909,1.682c-0.494,0.918-1.003,1.817-1.508,2.704c-4.978,8.782-9.277,16.366,7.835,28.535     c31.253,22.193,70.195,34.338,109.951,34.337c0.909,0,1.823-0.007,2.732-0.019c40.175-0.563,79.031-13.433,109.415-36.24     c2.805-2.095,5.118-4.82,7.069-7.211c0.911-1.132,1.587-2.544,2.193-4.582C384.139,459.304,382.824,456.546,380.57,452.43z      M336.336,492.892c-31.26,13.04-62.947,17.979-94.198,14.682c-29.969-3.164-59.45-13.877-87.62-31.843     c-7.521-4.781-14.286-12.211-10.719-18.729l0.755-1.379c11.89-21.708,22.159-40.456,26.202-62.383     c0.023-0.133,0.044-0.272,0.067-0.413c0.089-0.604,0.193-1.288,0.522-1.498c0.072-0.047,0.159-0.071,0.261-0.071     c0.081,0,0.17,0.015,0.27,0.044c0.27,0.074,0.59,0.175,0.96,0.292c2.073,0.651,5.534,1.745,9.862,1.347     c7.649-0.712,15.897-4.353,24.513-10.823c8.535-6.407,15.587-14.224,20.001-19.653c3.833-4.719,7.019-11.704,8.314-18.227     c1.322-6.668-0.651-12.159-5.413-15.065c-6.337-3.845-15.585-2.501-21.984-1.158c-1.143,0.241-2.082,0.447-2.856,0.618     c-3.432,0.755-3.432,0.756-3.763-0.191l-0.082-0.23c-16.648-45.601-10.365-91.406-2.163-121.8     c0.271-1.001,0.832-1.643,1.761-2.019c0.734-0.277,1.464-0.583,2.17-0.878c0.8-0.335,1.628-0.682,2.455-0.986     c7.092-2.592,11.046-3.885,11.627-3.337c0.189,0.175,0.035,0.708-0.144,1.325l-0.032,0.108     c-5.53,19.131-10.444,45.625-2.444,63.203c7.978,17.53,25.448,17.509,47.628,17.469c1.791-0.002,3.609-0.007,5.456,0.002     c0.172,0.001,0.341,0.001,0.515,0.001c17.897,0,28.854-3.573,35.48-11.555c8.49-10.226,9.976-27.892,4.681-55.598     c-1.156-6.031-2.588-10.186-3.444-12.669c-0.475-1.377-0.923-2.678-0.76-2.847c0,0,0.039-0.026,0.2,0.013l0.758,0.19     c2.963,0.741,7.022,1.755,15.529,5.216c1.059,0.427,1.59,1.029,1.895,2.149c15.049,52.948,7.213,101.989-1.728,122.035     c-0.408,0.92-0.408,0.92-2.637,0.4c-1.373-0.32-3.448-0.805-6.805-1.373c-11.857-1.999-20.233,0.247-23.588,6.321     c-4.283,7.764,0.031,20.395,11.263,32.962c24.271,27.135,41.409,28.204,51.513,24.321c0.392-0.151,0.552-0.106,0.634-0.059     c0.378,0.209,0.588,1.282,0.937,3.058c1.256,6.41,4.591,23.437,26.253,61.009c2.625,4.539,2.389,7.984-0.844,12.288v-0.001     C368.4,479.297,339.59,491.536,336.336,492.892z M194.933,211.565c-2.56,10.285-9.358,37.582-5.914,76.29     c-0.616,0.135-2.11,0.594-5.821,1.735c-7.034,2.161-19.252,5.949-36.319,11.258c0.303-14.781,2.294-29.233,5.924-42.957     c4.648-17.628,11.244-26.393,17.68-33.239c10.23-10.862,24.108-17.418,25.46-17.878     C196.01,207.241,195.532,209.166,194.933,211.565z M167.972,298.02c6.604-2.071,14.078-4.415,21.452-6.701     c1.462,13.227,4.159,24.714,8.733,37.207c0.067,0.182,0.13,0.347,0.189,0.496c0.174,0.444,0.298,0.764,0.221,0.921     c-0.058,0.122-0.268,0.235-0.658,0.354c-9.999,2.969-25.246,8.268-35.31,13.428c-1.576,0.797-2.821,1.426-2.275,2.816     c0.18,0.424,0.448,0.704,0.793,0.832c0.685,0.253,1.578-0.135,2.434-0.557c12.235-5.935,50.239-21.52,63.9-15.49     c2.723,1.203,4.441,3.248,5.104,6.079c1.664,7.099-3.557,17.512-9.111,24.182c-15.147,18.211-31.762,28.488-44.495,27.503     c-7.19-0.56-13.104-4.646-17.58-12.142c-4.973-8.335-9.595-26.06-11.288-35.984c-2.14-12.501-3.229-24.762-3.242-36.447     C148.223,304.206,155.306,301.991,167.972,298.02z M304.34,263.261c-6.851,14.327-24.248,14.485-38.399,14.485     c-0.161,0-0.324,0-0.483,0l-1.515,0.001c-1.464,0.003-2.989,0.024-4.558,0.047c-15.403,0.212-34.574,0.487-41.572-15.3     c-5.147-11.612-4.276-23.484-2.833-35.638c0.173-1.485,0.375-2.988,0.629-4.697c9.866,11.464,27.313,18.567,45.68,18.567     c18.317,0,35.738-7.073,45.614-18.489c0.079,0.562,0.158,1.139,0.231,1.735C308.698,236.367,310.474,250.416,304.34,263.261z      M305.429,217.954c-8.859,11.661-25.773,18.904-44.141,18.904c-18.382,0-35.301-7.25-44.155-18.919     c-0.178-0.238-0.418-0.421-0.73-0.556c1.1-5.891,2.572-11.375,4.914-18.294c0.348-1.027,0.919-1.54,1.907-1.716     c25.416-4.432,43.211-6.645,75.947-0.037c1.149,0.231,1.75,0.767,2.07,1.854c0.368,1.216,0.728,2.373,1.08,3.503     c1.46,4.687,2.725,8.741,3.811,14.72C305.833,217.549,305.602,217.726,305.429,217.954z M341.977,389.121     c-0.208,0.005-0.415,0.008-0.623,0.008c-7.558,0-15.627-3.424-24.642-10.451c-9.717-7.58-16.452-14.506-20.588-21.172     c-6.344-10.209-8.099-18.109-5.071-22.846c2.021-3.163,6.087-4.787,11.885-4.787c1.448,0,3.003,0.101,4.66,0.305     c18.634,2.286,39.336,11.393,48.177,15.282c3.292,1.447,4.66,2.039,5.024,2.004c0.693-0.078,1.245-0.545,1.409-1.191     c0.152-0.602-0.067-1.195-0.569-1.546c-5.954-4.176-28.747-11.92-36.377-14.269c-0.688-0.208-1.019-0.4-1.145-0.662     c-0.234-0.488,0.156-1.465,0.865-3.238c1.786-4.465,5.494-13.737,8.027-35.255c0.545,0.17,1.874,0.586,3.742,1.17     c29.209,9.139,37.366,11.657,38.739,12.03c0.433,22.824-3.937,47.907-11.696,67.132c-4.092,10.135-10.747,16.108-19.245,17.274     C343.69,389.035,342.847,389.104,341.977,389.121z M326.726,206.82c-0.002,0.001,0.04-0.011,0.161,0.053     c14.016,7.326,22.823,14.089,29.442,22.613c7.162,9.222,11.971,20.832,15.594,37.647c2.331,10.838,3.6,19.47,3.618,33.872     c-20.149-6.267-30.677-9.534-36.168-11.236c-2.76-0.855-4.248-1.314-5.047-1.56c-0.322-0.099-0.552-0.169-0.716-0.215     c3.695-36.3-2.865-63.136-5.67-74.607C327.115,210.009,326.402,207.092,326.726,206.82z"/>
		</g>
		<g>
			<g>
				<g>
					<path style="fill:#FFBBEC;" d="M237.112,204.866c1.937-9.397,3.066-16.91,3.712-22.558c0.843-7.298,0.915-11.53,1.058-12.768       c0.036-0.233-0.269-24.011,12.875-32.6c12.965-8.482,26.557,8.589,26.575,32.564c0,3.766,0.376,8.267,0.968,12.911       c0.986,7.944,2.564,16.354,3.784,22.451"/>
					<path style="opacity:0.35;fill:#FC09B2;" d="M282.3,182.415c-5.093,7.19-12.48,11.727-20.711,11.727       c-8.267,0-15.672-4.573-20.765-11.835c0.843-7.298,0.915-11.53,1.058-12.768c0.036-0.233-0.269-24.011,12.875-32.6       c12.965-8.482,26.557,8.589,26.575,32.564C281.332,173.27,281.708,177.77,282.3,182.415z"/>
				</g>
				<path style="fill:#000E3F;" d="M237.113,206.659c-0.119,0-0.242-0.011-0.364-0.037c-0.97-0.2-1.593-1.149-1.394-2.118      c1.678-8.137,2.918-15.673,3.688-22.401c0.59-5.112,0.797-8.678,0.919-10.809c0.054-0.925,0.093-1.579,0.138-1.961      c0.081-5.921,1.327-25.824,13.677-33.893c4.621-3.024,9.735-3.298,14.395-0.779c8.932,4.826,14.941,18.828,14.953,34.841      c0,3.452,0.32,7.719,0.954,12.686c0.771,6.21,2.001,13.511,3.763,22.326c0.194,0.971-0.436,1.916-1.406,2.109      c-0.979,0.196-1.916-0.437-2.11-1.407c-1.779-8.902-3.024-16.288-3.805-22.581c-0.651-5.111-0.982-9.531-0.982-13.132      c-0.011-14.504-5.385-27.535-13.071-31.687c-3.553-1.919-7.162-1.709-10.727,0.624c-11.15,7.286-12.004,27.045-12.062,30.932      c-0.004,0.269-0.021,0.42-0.026,0.446c-0.028,0.27-0.061,0.855-0.109,1.683c-0.126,2.169-0.336,5.799-0.939,11.011      c-0.781,6.831-2.038,14.474-3.737,22.714C238.693,206.075,237.946,206.659,237.113,206.659z"/>
			</g>
			<g>
				<g>
					<g>
						<g>
							<path style="fill:#FFBBEC;" d="M303.108,122.539c0,6.924-1.663,14.566,4.808,14.566c19.207,0,22.036-27.103,6.908-27.103         C308.353,110.003,303.108,115.615,303.108,122.539z"/>
							<path style="fill:#FFBBEC;" d="M220.087,122.539c0,6.924,1.663,14.566-4.808,14.566c-19.207,0-22.036-27.103-6.908-27.103         C214.841,110.003,220.087,115.615,220.087,122.539z"/>
						</g>
						<g style="opacity:0.35;">
							<path style="fill:#FC09B2;" d="M315.167,126.393c-3.371,2.138-4.46,0.671-3.778-0.336c1.126-1.664,2.583-2.872,4.811-5.841         c1.126-1.525,1.698-3.134,2.694-2.44C320.192,118.681,319.371,123.685,315.167,126.393z"/>
							<path style="fill:#FC09B2;" d="M206.994,120.216c1.589,2.117,2.443,2.928,3.087,3.712c1.383,1.566,1.845,2.306,1.723,2.127         c0.483,0.709-0.136,1.648-0.979,1.486c-4.158-0.812-7.827-5.428-6.858-9.281c0.177-0.703,1.094-0.856,1.5-0.276         C205.467,117.983,206.533,119.591,206.994,120.216z"/>
						</g>
					</g>
					<g>
						<path style="fill:#000E3F;" d="M307.916,138.899c-1.988,0-3.574-0.602-4.713-1.787c-2.336-2.434-2.166-6.613-1.986-11.037        c0.047-1.171,0.096-2.363,0.096-3.535c0-7.902,6.061-14.33,13.51-14.33c3.594,0,6.588,1.337,8.663,3.867        c1.812,2.212,2.811,5.274,2.811,8.624C326.297,129.646,319.421,138.899,307.916,138.899z M314.824,111.795        c-5.472,0-9.924,4.82-9.924,10.744c0,1.22-0.051,2.461-0.1,3.681c-0.142,3.479-0.287,7.077,0.99,8.407        c0.163,0.17,0.658,0.685,2.126,0.685c9.61,0,14.795-7.529,14.795-14.613c0-2.523-0.711-4.779-1.998-6.35        C319.322,112.654,317.342,111.795,314.824,111.795z"/>
						<path style="fill:#000E3F;" d="M215.278,138.899c-11.505,0-18.38-9.253-18.38-18.199c0-3.35,0.998-6.413,2.811-8.623        c2.073-2.53,5.068-3.867,8.661-3.867c7.449,0,13.51,6.429,13.51,14.33c0,1.172,0.049,2.365,0.096,3.536        c0.18,4.423,0.352,8.602-1.984,11.036C218.852,138.297,217.267,138.899,215.278,138.899z M208.37,111.795        c-2.518,0-4.499,0.859-5.887,2.554c-1.289,1.572-1.998,3.827-1.998,6.35c0,7.083,5.185,14.613,14.794,14.613        c1.469,0,1.963-0.516,2.126-0.685c1.278-1.331,1.131-4.928,0.989-8.405c-0.049-1.22-0.1-2.462-0.1-3.683        C218.293,116.615,213.842,111.795,208.37,111.795z"/>
					</g>
				</g>
				<g>
					<g>
						<path style="fill:#FFBBEC;" d="M300.853,155.992c-6.119,9.952-20.584,24.19-39.078,24.405h-0.357        c-18.493-0.215-32.958-14.453-39.077-24.405c-11.202-18.219-8.669-54.387-0.425-71.709        c7.972-16.749,22.352-25.625,39.502-26.001c0.068-0.018,0.119-0.018,0.188-0.018c0.05,0,0.119,0,0.169,0.018        c17.151,0.376,31.531,9.253,39.503,26.001C309.522,101.605,312.054,137.774,300.853,155.992z"/>
						<g>
							<path style="fill:#DB5E43;" d="M274.925,98.788c0.029-9.049,20.986-4.796,18.855,3.712         C291.972,109.72,274.902,105.729,274.925,98.788z"/>
							<path style="fill:#DB5E43;" d="M248.27,98.788c-0.029-9.049-20.985-4.796-18.855,3.712         C231.222,109.72,248.292,105.729,248.27,98.788z"/>
						</g>
						<g style="opacity:0.35;">
							<path style="fill:#FC09B2;" d="M288.695,126.965c-6.272,0-11.377,4.173-11.377,9.302c0,5.129,5.105,9.302,11.377,9.302         c6.274,0,11.379-4.173,11.379-9.302C300.074,131.139,294.969,126.965,288.695,126.965z"/>
							<path style="fill:#FC09B2;" d="M234.652,126.965c-6.274,0-11.379,4.173-11.379,9.302c0,5.129,5.104,9.302,11.379,9.302         c6.273,0,11.377-4.173,11.377-9.302C246.03,131.139,240.925,126.965,234.652,126.965z"/>
						</g>
						<path style="fill:#FFFFFF;" d="M250.125,139.391c-0.995,0-1.731,0.928-1.519,1.901c1.7,7.824,6.937,13.36,12.915,13.406        c6.033,0.047,11.351-5.509,13.068-13.405c0.212-0.973-0.523-1.902-1.519-1.902H250.125z"/>
					</g>
					<g>
						<path style="fill:#000E3F;" d="M302.898,83.512c-8.094-17.002-22.658-26.596-41.015-27.022        c-0.21-0.026-0.331-0.04-0.639,0.002c-18.328,0.447-32.864,10.039-40.947,27.02c-7.938,16.681-11.684,53.575,0.518,73.42        c5.7,9.272,20.664,25.026,40.604,25.258h0.376c19.921-0.232,34.885-15.986,40.585-25.258        C314.58,137.09,310.836,100.195,302.898,83.512z M299.326,155.053c-5.316,8.647-19.212,23.338-37.551,23.551h-0.335        c-18.359-0.213-32.254-14.904-37.571-23.551c-10.507-17.088-8.773-52.267-0.333-70c7.488-15.735,20.956-24.606,37.921-24.979        c0.047-0.001,0.093-0.003,0.138-0.008c0.047,0.004,0.093,0.007,0.14,0.008c16.964,0.373,30.433,9.244,37.923,24.979        C308.097,102.788,309.831,137.967,299.326,155.053z"/>
						<path style="fill:#000E3F;" d="M289.513,110.781c-0.991,0-1.793,0.803-1.793,1.793c0,4.059-2.488,6.094-4.8,6.267        c-2.175,0.164-4.942-1.261-5.625-5.798c-0.149-0.979-1.056-1.659-2.04-1.507c-0.979,0.147-1.655,1.06-1.508,2.039        c0.932,6.192,5.003,8.864,8.829,8.864c0.205,0,0.408-0.007,0.611-0.023c4.035-0.301,8.118-3.779,8.118-9.843        C291.306,111.584,290.504,110.781,289.513,110.781z"/>
						<path style="fill:#000E3F;" d="M247.939,111.537c-0.974-0.152-1.891,0.528-2.04,1.507c-0.683,4.537-3.441,5.948-5.625,5.798        c-2.311-0.173-4.8-2.208-4.8-6.267c0-0.99-0.802-1.793-1.793-1.793c-0.991,0-1.793,0.803-1.793,1.793        c0,6.064,4.084,9.542,8.118,9.843c0.203,0.016,0.406,0.023,0.611,0.023c3.826,0,7.898-2.673,8.829-8.864        C249.593,112.597,248.918,111.684,247.939,111.537z"/>
						<path style="fill:#000E3F;" d="M262.974,132.276c-1.802,0-5.766-0.915-6.763-2.384c-0.166-0.277-0.277-0.61-0.028-1.247        c0.028-0.056,4.407-10.394,6.32-14.857c1.137-2.653-2.182-4.14-3.354-1.358c-1.857,4.407-6.209,14.663-6.264,14.801        c-0.859,2.079-0.277,3.658,0.361,4.629c2.189,3.326,8.232,4.019,9.729,4.019c0.997,0,1.801-0.804,1.801-1.801        C264.776,133.079,263.971,132.276,262.974,132.276z"/>
					</g>
				</g>
				<g>
					<g>
						<path style="fill:#DB5E43;" d="M298.89,94.144c-1.102-1.188-13.201-2.161-20.708-15.842c-1.132-2.061-1.761,0.153-5.645,2.265        c-4.919,2.675-9.872,2.58-14.729-0.187c-5.732-3.265-6.577-7.25-7.585-6.804c-0.697,0.308-1.148,2.749-1.425,3.381        c-3.693,8.418-11.525,12.212-20.402,12.663c-3.122,0.159-2.73,0.551-2.777,3.51c-0.033,2.054-0.083,4.11-0.274,6.156        c-0.735,7.851-3.92,15.36-12.901,15.535c-9.517,0.186-15.935-9.55-11.01-17.975c1.072-1.834,1.556-3.604,0.2-4.996        c-11.285-11.594-6.45-28.531,7.314-34.551c3.969-1.737,1.361-1.022,3.028-8.347c2.238-9.836,12.762-16.289,23.479-14.111        c2.979,0.605,4.493,1.832,6.079-1.233c7.713-14.909,28.819-10.582,37.763,0.477c1.119,1.383,1.167,1.416,2.767,0.679        c13.862-6.387,26.782,2.158,28.681,16.701c0.319,2.444,0.422,4.136,3.178,4.312c12.693,0.812,16.385,14.758,12.831,23.845        c-1.933,4.942-4.989,5.239-3.679,9.186c4.77,14.377-9.197,28.179-19.202,21.235C296.596,104.993,300.961,96.377,298.89,94.144        z"/>
						<g style="opacity:0.25;">
							<path style="fill:#000E3F;" d="M241.682,47.825c0.345-0.187-2.289,1.104-3.146,1.735c-2.711,1.239-2.61,0.662-6.246-0.843         c-0.241-0.1-0.511-0.14-0.788-0.105c-2.531,0.318-1.063,4.105,0.74,5.952c3.272,3.348,8.961,2.24,11.281-2.832         c0.396-1.167,0.752-2.182,0.429-2.963C243.585,47.882,242.569,47.459,241.682,47.825z"/>
							<path style="fill:#000E3F;" d="M270.438,59.144l-0.258,0.107c-0.493,0.203-2.715,1.501-2.888,1.629         c-2.71,1.24-2.614,0.66-6.246-0.843c-0.241-0.1-0.511-0.14-0.788-0.105c-3.459,0.434,0.182,8.714,6.211,7.8         c4.613-0.677,6.995-5.808,6.239-7.644C272.341,59.2,271.325,58.777,270.438,59.144z"/>
							<path style="fill:#000E3F;" d="M260.629,45.994c4.613-0.678,6.995-5.809,6.239-7.644c-0.366-0.887-1.382-1.31-2.27-0.944         l-0.258,0.107c-0.493,0.203-2.715,1.501-2.888,1.629c-2.711,1.241-2.614,0.66-6.246-0.843c-0.241-0.1-0.511-0.14-0.788-0.105         C250.958,38.628,254.599,46.908,260.629,45.994z"/>
							<path style="fill:#000E3F;" d="M295.68,45.177c0.182-0.075-0.567,0.178-1.841,0.974c-3.764,2.343-3.889,1.433-7.552-0.082         c-1.089-0.451-2.292,0.441-2.142,1.636c0.206,1.642,0.878,2.964,2.094,4.211c4.134,4.23,11.129,0.962,11.83-4.927         C298.221,45.663,296.899,44.674,295.68,45.177z"/>
							<path style="fill:#000E3F;" d="M311.8,78.76c4.579-0.672,6.969-5.874,6.239-7.643c-0.366-0.887-1.382-1.31-2.27-0.944         l-0.258,0.106c-2.082,0.86-3.796,2.821-5.94,2.15c-0.742-0.207-3.194-1.365-3.194-1.365         c-1.089-0.451-2.291,0.442-2.142,1.636C304.728,76.623,308.304,79.289,311.8,78.76z"/>
							<path style="fill:#000E3F;" d="M293.601,64.988l-0.258,0.106c-2.082,0.86-3.796,2.821-5.94,2.15         c-0.742-0.207-3.194-1.365-3.194-1.365c-1.09-0.451-2.292,0.442-2.142,1.636c0.492,3.922,4.069,6.588,7.565,6.059         c4.578-0.672,6.969-5.874,6.239-7.643C295.504,65.045,294.488,64.622,293.601,64.988z"/>
							<path style="fill:#000E3F;" d="M315.532,91.026c0.346-0.187-2.289,1.104-3.146,1.735c-1.194,0.546-1.86,0.894-3.052,0.521         c-0.746-0.208-3.194-1.365-3.194-1.365c-1.094-0.452-2.291,0.445-2.142,1.637c0.876,6.984,10.041,8.666,13.374,1.379         c0.396-1.167,0.751-2.182,0.429-2.963C317.436,91.083,316.42,90.66,315.532,91.026z"/>
							<path style="fill:#000E3F;" d="M238.248,72.202c0.181-0.075-0.567,0.178-1.841,0.975c-3.686,2.294-3.811,1.478-7.114,0.1         l-0.438-0.183c-0.241-0.1-0.511-0.14-0.789-0.105c-2.531,0.318-1.063,4.105,0.74,5.952c4.134,4.231,11.129,0.962,11.83-4.927         C240.789,72.69,239.469,71.698,238.248,72.202z"/>
							<path style="fill:#000E3F;" d="M218.602,66.393c0.152-1.324-1.168-2.316-2.389-1.812c0.181-0.075-0.567,0.178-1.841,0.975         c-3.687,2.294-3.812,1.478-7.114,0.1l-0.438-0.183c-0.241-0.1-0.511-0.14-0.788-0.105c-2.531,0.318-1.063,4.105,0.74,5.952         C210.906,75.551,217.902,72.282,218.602,66.393z"/>
							<path style="fill:#000E3F;" d="M217.157,94.941c0.345-0.187-2.289,1.104-3.147,1.735c-1.194,0.546-1.86,0.894-3.052,0.521         c-0.745-0.208-3.194-1.365-3.194-1.365c-1.096-0.453-2.291,0.447-2.142,1.637c0.493,3.925,4.067,6.589,7.564,6.059         c3.414-0.501,5.973-3.536,6.359-6.776C219.699,95.43,218.378,94.437,217.157,94.941z"/>
						</g>
					</g>
					<path style="fill:#000E3F;" d="M212.186,116.617c-5.138,0-9.87-2.648-12.4-6.959c-2.483-4.232-2.446-9.361,0.1-13.716       c1.212-2.073,0.706-2.591,0.462-2.84c-5.465-5.616-7.789-12.977-6.376-20.196c1.476-7.542,6.807-13.991,14.258-17.25       c0.289-0.127,0.981-0.43,1.315-0.625c0.004-0.139-0.003-0.3-0.005-0.494c-0.007-1.076-0.019-2.878,0.688-5.984       c2.48-10.893,13.957-17.829,25.584-15.47c0.606,0.124,1.156,0.27,1.66,0.405c1.844,0.496,1.848,0.498,2.467-0.704       c3.117-6.021,8.64-9.724,15.556-10.427c9.029-0.924,19.402,3.439,25.195,10.601c0.103,0.128,0.193,0.242,0.273,0.341       c0.103-0.048,0.219-0.103,0.349-0.164c6.842-3.153,13.871-3.086,19.797,0.185c6.215,3.433,10.375,9.961,11.414,17.912       l0.039,0.294c0.306,2.387,0.373,2.391,1.476,2.461c6.896,0.441,10.715,4.257,12.703,7.38       c3.366,5.283,4.042,12.881,1.685,18.907c-0.856,2.189-1.937,3.6-2.725,4.632c-1.117,1.458-1.417,1.85-0.923,3.337       c3.178,9.582-1.278,18.363-6.763,22.466c-4.923,3.68-10.589,3.98-15.165,0.807c-5.541-3.847-5.315-9.468-5.166-13.187       c0.039-0.957,0.095-2.363-0.073-2.873c-0.301-0.124-0.867-0.311-1.34-0.467c-3.947-1.308-13.106-4.342-19.348-15.268       c-0.042,0.034-0.084,0.068-0.126,0.101c-0.777,0.621-1.842,1.471-3.403,2.319c-5.472,2.975-11.016,2.906-16.473-0.205       c-3.201-1.823-4.998-3.838-6.138-5.308c-0.128,0.451-0.247,0.831-0.341,1.046C246.788,86,238.99,90.877,228.487,91.41       c-0.511,0.026-0.846,0.057-1.065,0.086c-0.005,0.221-0.005,0.494-0.005,0.735l-0.005,0.928       c-0.033,2.013-0.082,4.157-0.284,6.295c-1.018,10.901-6.222,16.996-14.65,17.16       C212.38,116.616,212.283,116.617,212.186,116.617z M231.222,36.207c-8.286,0-15.72,5.337-17.499,13.143       c-0.615,2.7-0.604,4.183-0.597,5.163c0.017,2.564-0.679,3.212-3.458,4.428c-6.374,2.788-10.926,8.265-12.176,14.653       c-1.201,6.137,0.727,12.177,5.427,17.006c1.76,1.807,1.781,4.213,0.063,7.152c-1.911,3.268-1.947,6.946-0.103,10.09       c1.953,3.327,5.534,5.267,9.53,5.186c6.547-0.127,10.3-4.807,11.15-13.909c0.191-2.01,0.236-4.075,0.268-6.017l0.005-0.868       c-0.002-3.279,0.96-4.225,4.474-4.405c6.422-0.327,14.906-2.602,18.851-11.593c0.056-0.137,0.119-0.381,0.198-0.661       c0.431-1.514,0.876-3.079,2.143-3.64c1.707-0.752,2.825,0.76,3.564,1.758c0.981,1.321,2.459,3.319,5.635,5.127       c4.369,2.491,8.621,2.545,12.985,0.171c1.282-0.698,2.168-1.404,2.879-1.972c0.988-0.789,1.923-1.538,3.173-1.286       c1.219,0.243,1.823,1.344,2.021,1.705c5.567,10.145,13.725,12.847,17.645,14.146c1.457,0.482,2.259,0.748,2.807,1.34       c1.231,1.327,1.152,3.283,1.061,5.548c-0.138,3.456-0.296,7.373,3.628,10.097c3.296,2.285,7.292,2.018,10.971-0.733       c4.488-3.358,8.127-10.569,5.507-18.465c-1.091-3.288,0.215-4.995,1.478-6.646c0.732-0.957,1.562-2.041,2.233-3.759       c1.961-5.011,1.411-11.311-1.368-15.675c-1.543-2.423-4.513-5.382-9.906-5.727c-4.122-0.264-4.518-3.339-4.805-5.583       l-0.037-0.286c-0.89-6.808-4.387-12.361-9.595-15.237c-4.9-2.706-10.782-2.731-16.561-0.067       c-2.345,1.083-3.259,0.859-4.91-1.179c-5.073-6.273-14.13-10.096-22.045-9.288c-4.012,0.407-9.475,2.214-12.733,8.507       c-1.942,3.764-4.514,3.075-6.581,2.521c-0.44-0.118-0.918-0.247-1.447-0.355C233.796,36.334,232.499,36.207,231.222,36.207z        M297.557,95.342L297.557,95.342L297.557,95.342L297.557,95.342z"/>
				</g>
			</g>
		</g>
		<g>
			<g>
				<g>
					<g>
						<path style="fill:#4217A6;" d="M315.93,333.163c-16.458,29.782-75.896,32.393-101.465,9.957        c-7.419-6.519-11.992-15.125-11.83-25.803c0.144-10.066,5.096-18.907,12.118-25.731c2.485-2.431,5.258-4.627,8.139-6.518        c34.788-22.724,24.849-29.927,34.41-29.728c1.512,0.018,2.809,0,3.925,0c0.144,0,0.162,0,0.162,0        c2.341,0,4.321-0.162,5.942,0.162c1.441,0.288,2.593,0.972,3.475,2.485c7.346,12.55,17.088,19.356,28.918,27.081        c2.701,1.764,5.24,3.781,7.527,6.014C318.594,302.048,324.284,318.073,315.93,333.163z"/>
						<g>
							<path style="fill:#FC09B2;" d="M222.465,312.55c1.437-0.846,1.699-2.965,0.854-4.382c-0.457-0.764-1.656-2.065-2.859-3.01         c1.492-0.321,3.1-1.054,3.803-1.574c1.312-0.967,1.844-3.029,0.944-4.363c-0.902-1.324-2.893-1.447-4.205-0.502         c-3.647,2.624-5.223,8.419-2.869,12.478C218.968,312.635,221.026,313.405,222.465,312.55z"/>
							<path style="fill:#FC09B2;" d="M236.298,314.88c1.374-0.958,1.482-3.089,0.535-4.432c-0.513-0.716-1.798-1.96-3.069-2.794         c1.468-0.449,3.015-1.265,3.68-1.846c1.24-1.069,1.621-3.165,0.626-4.42c-0.993-1.263-2.988-1.231-4.228-0.2         c-3.449,2.885-4.607,8.778-1.964,12.652C232.814,315.22,234.925,315.83,236.298,314.88z"/>
							<path style="fill:#FC09B2;" d="M250.269,316.196c1.301-1.054,1.253-3.188,0.21-4.459c-0.564-0.674-1.937-1.82-3.265-2.564         c1.431-0.549,2.914-1.477,3.535-2.108c1.159-1.155,1.385-3.274,0.302-4.454c-1.083-1.172-3.068-1.024-4.231,0.114         c-3.227,3.117-3.956,9.078-1.038,12.761C246.82,316.776,248.968,317.259,250.269,316.196z"/>
							<path style="fill:#FC09B2;" d="M264.302,316.494c1.22-1.153,1.015-3.276-0.118-4.462c-0.612-0.649-2.065-1.68-3.444-2.321         c1.387-0.656,2.798-1.701,3.371-2.358c1.07-1.243,1.141-3.373-0.025-4.464c-1.167-1.118-3.135-0.785-4.21,0.415         c-2.99,3.35-3.281,9.348-0.1,12.803C260.904,317.337,263.082,317.621,264.302,316.494z"/>
							<path style="fill:#FC09B2;" d="M278.317,315.753c1.134-1.223,0.774-3.328-0.444-4.442c-0.658-0.606-2.181-1.503-3.605-2.059         c1.337-0.738,2.665-1.908,3.189-2.602c0.978-1.303,0.893-3.431-0.352-4.45c-1.245-1.02-3.183-0.544-4.169,0.723         c-2.736,3.573-2.586,9.576,0.838,12.776C274.991,316.851,277.184,316.975,278.317,315.753z"/>
							<path style="fill:#FC09B2;" d="M292.238,313.998c1.04-1.311,0.529-3.381-0.766-4.398c-0.7-0.556-2.285-1.345-3.745-1.793         c1.278-0.837,2.52-2.095,2.992-2.826c0.88-1.377,0.64-3.496-0.675-4.413c-1.317-0.93-3.216-0.313-4.107,1.023         c-2.469,3.762-1.88,9.739,1.768,12.681C289.002,315.333,291.196,315.297,292.238,313.998z"/>
							<path style="fill:#FC09B2;" d="M305.989,311.238c0.943-1.378,0.285-3.409-1.079-4.332c-0.735-0.49-2.375-1.179-3.864-1.517         c1.215-0.93,2.366-2.259,2.781-3.036c0.779-1.435,0.389-3.529-0.99-4.353c-1.376-0.814-3.235-0.093-4.023,1.325         c-2.195,3.919-1.174,9.837,2.677,12.52C302.856,312.789,305.048,312.627,305.989,311.238z"/>
							<path style="fill:#FC09B2;" d="M222.465,342.917c1.437-0.846,1.699-2.965,0.854-4.382c-0.457-0.764-1.656-2.065-2.859-3.01         c1.492-0.321,3.1-1.054,3.803-1.574c1.312-0.967,1.844-3.029,0.944-4.363c-0.902-1.324-2.893-1.447-4.205-0.502         c-3.647,2.624-5.223,8.419-2.869,12.478C218.968,343.002,221.026,343.772,222.465,342.917z"/>
							<path style="fill:#FC09B2;" d="M236.298,345.246c1.374-0.958,1.482-3.089,0.535-4.432c-0.513-0.716-1.798-1.96-3.069-2.794         c1.468-0.449,3.015-1.265,3.68-1.846c1.24-1.069,1.621-3.165,0.626-4.42c-0.993-1.263-2.988-1.231-4.228-0.2         c-3.449,2.885-4.607,8.778-1.964,12.652C232.814,345.587,234.925,346.197,236.298,345.246z"/>
							<path style="fill:#FC09B2;" d="M250.269,346.563c1.301-1.054,1.253-3.188,0.21-4.459c-0.564-0.674-1.937-1.82-3.265-2.564         c1.431-0.549,2.914-1.477,3.535-2.108c1.159-1.155,1.385-3.274,0.302-4.454c-1.083-1.172-3.068-1.024-4.231,0.114         c-3.227,3.117-3.956,9.078-1.038,12.761C246.82,347.143,248.968,347.626,250.269,346.563z"/>
							<path style="fill:#FC09B2;" d="M264.302,346.861c1.22-1.153,1.015-3.276-0.118-4.462c-0.612-0.649-2.065-1.68-3.444-2.321         c1.387-0.656,2.798-1.701,3.371-2.358c1.07-1.243,1.141-3.373-0.025-4.465c-1.167-1.118-3.135-0.784-4.21,0.415         c-2.99,3.35-3.281,9.348-0.1,12.803C260.904,347.704,263.082,347.988,264.302,346.861z"/>
							<path style="fill:#FC09B2;" d="M278.317,346.12c1.134-1.223,0.774-3.327-0.444-4.442c-0.658-0.606-2.181-1.503-3.605-2.059         c1.337-0.738,2.665-1.908,3.189-2.602c0.978-1.303,0.893-3.431-0.352-4.45c-1.245-1.021-3.183-0.544-4.169,0.723         c-2.736,3.573-2.586,9.576,0.838,12.776C274.991,347.218,277.184,347.342,278.317,346.12z"/>
							<path style="fill:#FC09B2;" d="M292.238,344.365c1.04-1.311,0.529-3.381-0.766-4.398c-0.7-0.556-2.285-1.345-3.745-1.793         c1.278-0.837,2.52-2.095,2.992-2.826c0.88-1.377,0.64-3.495-0.675-4.413c-1.317-0.93-3.216-0.313-4.107,1.024         c-2.469,3.762-1.88,9.739,1.768,12.68C289.002,345.699,291.196,345.664,292.238,344.365z"/>
							<path style="fill:#FC09B2;" d="M305.989,341.605c0.943-1.379,0.285-3.409-1.079-4.332c-0.735-0.49-2.375-1.179-3.864-1.516         c1.215-0.93,2.366-2.259,2.781-3.036c0.779-1.435,0.389-3.529-0.99-4.353c-1.376-0.814-3.235-0.093-4.023,1.325         c-2.195,3.919-1.174,9.836,2.677,12.52C302.856,343.156,305.048,342.993,305.989,341.605z"/>
						</g>
						<g>
							<path style="fill:#915EFD;" d="M314.559,314.507c1.637-0.454,2.446,1.927,0.871,2.567         c-34.297,13.86-73.696,13.942-108.288-0.076c-0.653-0.265-0.968-1.009-0.703-1.663         C208.143,311.13,246.504,333.151,314.559,314.507z"/>
							<path style="fill:#915EFD;" d="M307.251,291.082c-17.43,5.564-36.247,5.762-54.379,5.528         c-12.586-0.198-25.677-1.332-38.119-5.024c2.485-2.431,5.258-4.627,8.139-6.518c34.788-22.724,24.849-29.927,34.41-29.728         c1.512,0.018,2.809,0,3.925,0c0.144,0,0.162,0,0.162,0c4.393,0,7.527-0.594,9.417,2.647         c7.346,12.55,17.088,19.356,28.918,27.081C302.425,286.833,304.964,288.849,307.251,291.082z"/>
						</g>
						<path style="opacity:0.5;fill:#FFFFFF;" d="M231.177,288.247c-1.499,0.061-1.969-2.009-0.595-2.605        c1.756-0.761,3.112-1.128,4.701-1.756c0.18-0.077,3.466-1.47,3.257-1.382c8.271-4.41,14.58-9.146,18.752-20.676l0.056-0.154        c0.24-0.663,0.972-1.006,1.635-0.766C262.31,262.111,257.252,287.197,231.177,288.247z"/>
						<path style="opacity:0.25;fill:#000E3F;" d="M315.93,333.163c-16.458,29.782-75.896,32.393-101.465,9.957        c3.565,0.144,7.13,0.198,10.714,0.144c22.598-0.288,80.146-13.234,55.513-46.204c-11.524-15.413-14.441-30.737-13.361-41.558        c1.441,0.288,2.593,0.972,3.475,2.485c7.346,12.55,17.088,19.356,28.918,27.081c2.701,1.764,5.24,3.781,7.527,6.014        C318.594,302.048,324.284,318.073,315.93,333.163z"/>
					</g>
					<path style="fill:#000E3F;" d="M308.502,289.799c-2.338-2.283-4.961-4.38-7.798-6.233       c-12.176-7.951-21.338-14.505-28.348-26.483c-1.07-1.832-2.597-2.924-4.674-3.34c-1.389-0.278-2.93-0.249-4.569-0.217       c-0.55,0.01-1.126,0.021-1.888,0.021l-1.123,0.003c-0.835,0.004-1.758,0.01-2.765-0.003c-4.84-0.069-6.071,1.842-7.847,4.784       c-2.511,4.164-7.189,11.915-27.584,25.238c-3.077,2.02-5.905,4.286-8.405,6.731c-5.679,5.52-12.486,14.682-12.661,26.99       c-0.159,10.489,4.141,19.887,12.442,27.178c11.137,9.774,29.221,15.339,48.03,15.339c5.336,0,10.734-0.448,16.044-1.375       c19.024-3.322,33.279-11.989,40.14-24.401C326.949,316.966,319.044,299.989,308.502,289.799z M314.36,332.294L314.36,332.294       c-6.232,11.279-19.944,19.518-37.618,22.604c-23.019,4.016-47.566-1.256-61.092-13.126       c-7.591-6.669-11.367-14.888-11.221-24.43c0.157-11.081,6.381-19.423,11.578-24.474c2.34-2.289,4.987-4.409,7.866-6.299       c21.079-13.769,26.031-21.976,28.691-26.385c1.558-2.585,1.844-3.057,4.217-3.057c0.158,0,0.324,0.003,0.501,0.006       c1.044,0.013,1.986,0.007,2.84,0.004l1.268-0.004c0.623,0,1.22-0.011,1.793-0.022c1.495-0.03,2.79-0.052,3.796,0.148       c1.082,0.217,1.722,0.674,2.28,1.634c7.409,12.656,16.893,19.454,29.484,27.676c2.643,1.726,5.084,3.676,7.26,5.802       C315.596,301.644,322.83,317.002,314.36,332.294z"/>
				</g>
				<g>
					<path style="fill:#FFFFFF;" d="M255.622,219.144c2.202-2.865,4.73-5.2,7.757-7.752c3.013-2.731,5.87-5.891,7.746-9.85       c1.844-3.922,2.522-8.746,1.216-12.99c-1.213-4.25-3.678-7.792-6.486-10.725c-2.923-2.869-6.065-5.288-9.693-7.161       c-0.593-0.307-1.339-0.149-1.752,0.403c-0.46,0.616-0.333,1.487,0.282,1.947l0.073,0.055c2.909,2.174,5.757,4.704,7.998,7.532       c2.306,2.771,4.116,5.898,4.795,9.137c1.52,6.526-2.425,12.833-7.866,17.514c-2.81,2.44-5.978,5.352-8.368,8.68       c-2.385,3.367-4.403,7.248-5.032,11.522c-0.682,4.236-0.193,8.62,1.407,12.504c1.64,3.857,4.247,7.282,7.6,9.658       c0.52,0.363,1.25,0.31,1.704-0.162c0.502-0.522,0.485-1.352-0.037-1.854c-5.167-5.043-7.523-12.59-5.927-19.226       C251.816,225.058,253.457,221.942,255.622,219.144z"/>
					<path style="fill:#FFFFFF;" d="M297.898,196.362c-1.196-3.591-3.641-6.364-6.327-8.415c-0.517-0.395-1.256-0.386-1.764,0.06       c-0.579,0.507-0.636,1.387-0.129,1.965l0.053,0.06c2.002,2.283,3.696,4.735,4.15,7.391c0.568,2.605,0,5.298-1.305,7.783       c-2.666,4.984-7.339,9.221-12.299,12.743c-5.14,3.443-10.967,7.286-15.203,12.752c-2.14,2.699-3.885,6.107-4.384,9.679       c-0.498,3.533,0.189,7.603,2.785,10.339c0.417,0.44,1.099,0.545,1.637,0.216c0.618-0.378,0.813-1.186,0.435-1.804l-0.024-0.039       c-1.445-2.363-1.661-5.246-0.882-7.955c0.678-2.767,2.121-5.172,4.147-7.34c2.015-2.155,4.311-4.164,6.804-5.975       c2.511-1.898,4.999-3.413,7.876-5.342c5.376-3.924,10.624-8.561,13.584-15.209       C298.472,203.988,299.047,199.978,297.898,196.362z"/>
				</g>
			</g>
			<g>
				<g>
					<g>
						<path style="fill:#FFBBEC;" d="M324.422,343.906c-2.536,7.801-5.232,11.732-9.54,15.609        c-5.961,5.364-12.737,8.289-20.457,9.267c-8.037,1.018-15.682-2.763-20.908-8.995c-12.66-15.098-7.522-23.841-0.924-15.475        c6.023,7.635,8.06,10.65,10.738,11.949c1.014,0.491,2.328,0.069,2.694-1.481c0.868-3.669-7.395-15.383-9.474-22.944        c-0.903-3.285-0.704-7.767,1.795-10.079c1.16-1.073,1.954-1.151,3.137-0.169c1.041,0.865,1.945,1.871,2.655,3.036        c13.85,22.709,15.665,29.43,16.758,28.792c0.104-0.061,0.218-0.305,0.175-0.391c-14.442-28.381-17.061-26.364-16.159-35.415        c0.086-0.865,0.55-1.66,1.047-2.382c1.481-2.149,4.01-2.528,5.984-0.803c1.432,1.251,2.804,2.585,3.969,4.104        c16.844,21.955,17.182,27.151,18.292,26.765c1.44-0.501-4.479-6.549-4.165-10.42c0.546-6.733-2.421-10.718-5.701-17.087        c-1.794-3.484-0.767-7.61-0.022-8.733c2.186-3.295,3.268-3.599,6.234-1.246c5.548,4.403,11.477,15.434,13.657,22.301        C324.882,332.237,325.723,339.902,324.422,343.906z"/>
						<path style="fill:#FFBBEC;" d="M326.287,328.877c-0.316,0.966-1.087,1.151-1.513-0.035        c-4.661-12.974-8.715-13.05-6.249-16.321c5.065-6.72,10.901-6.403,11.159-0.726        C330.012,318.988,327.744,324.416,326.287,328.877z"/>
					</g>
					<path style="fill:#000E3F;" d="M331.295,309.24c-1.075-3.008-4.148-4.456-7.293-3.453c-2.842,0.906-5.043,3.249-6.884,5.376       c-0.126,0.146-0.206,0.208-0.271,0.209h-0.002c-0.252,0-0.853-0.653-1.94-1.836c-0.595-0.648-1.362-1.482-2.368-2.536       c-1.658-1.735-3.581-2.677-5.313-2.576c-1.312,0.075-2.485,0.751-3.394,1.955c-4.775,6.319-1.949,11.41,0.783,16.332       c1.431,2.574,2.909,5.237,3.24,8.023c0.051,0.431,0.053,0.651,0.042,0.761c-0.355-0.285-1.254-1.561-2.455-3.264       c-1.917-2.721-4.817-6.835-9.328-12.544c-2.427-3.071-6.604-5.688-10.388-2.971c-1.194,0.86-2.005,1.986-2.408,3.345       c-0.412,1.389-0.552,2.33-0.645,2.952c-0.049,0.327-0.1,0.666-0.147,0.717c-0.021,0.006-0.082,0.008-0.345-0.108       c-1.46-0.636-3.366-1.166-5.143,0.381c-1.802,1.565-2.833,4.706-3.028,6.961c-0.431,4.998,2.667,11.065,5.945,17.49       c1.297,2.54,2.637,5.167,3.723,7.695c0.27,0.624,0.464,1.753,0.182,2.033c-0.11,0.109-0.256,0.068-0.345,0.001       c-0.509-0.388-0.968-0.824-1.312-1.161c-1.73-1.707-3.238-3.678-4.695-5.582c-1.55-2.025-3.152-4.119-5.035-5.919       c-1.473-1.411-3.068-2.695-4.861-2.53c-1.07,0.098-2.021,0.654-2.748,1.606c-0.967,1.265-1.431,3.159-1.156,4.713       c1.226,6.935,6.373,14.275,10.931,18.472c5.094,4.69,11.179,7.126,17.731,7.126c0.835,0,1.677-0.039,2.527-0.119       c6.922-0.649,14.111-3.882,20.788-9.352c8.728-7.151,12.475-19.719,11.728-25.674l-0.019-0.159       c-0.17-1.342-0.343-2.73,0.107-4.025l0.303-0.873C329.864,324.798,333.314,314.909,331.295,309.24z M328.579,316.452       c-0.665,5.201-2.03,8.317-2.762,9.991c-0.175,0.403-0.31,0.709-0.392,0.949c-0.002-0.002-0.002-0.005-0.004-0.008       c-2.214-5.651-4.26-8.906-5.485-10.852c-0.858-1.363-1.329-2.114-1.106-2.486c0.944-1.651,3.003-4.522,6.206-5.207       c1.154-0.246,2.003-0.088,2.618,0.476C328.761,310.334,329.064,312.669,328.579,316.452z M282.669,342.86       c-2.254-4.25-4.807-9.066-5.542-13.558c-0.369-2.257,0.522-5.881,2.086-6.893c0.545-0.349,1.114-0.326,1.699,0.06       c2.795,1.851,13.421,21.959,15.396,25.841c0.541,1.063,2.382,4.619,3.387,5.781c0.44,0.507,1.173,0.612,1.781,0.248       c0.611-0.364,0.839-1.046,0.578-1.735c-0.315-0.833-9.533-17.673-9.624-17.84c-0.672-1.219-1.446-2.452-2.194-3.645       c-1.355-2.157-2.755-4.388-3.667-6.703c-1.018-2.586-1.355-7.307,0.695-9.081c1.227-1.064,2.954-1.054,4.192,0.024       c2.101,1.827,3.802,3.971,5.325,6.017c9.214,12.369,13.013,18.99,14.839,22.173c1.564,2.728,1.89,3.296,3.058,2.755       c0.404-0.188,0.669-0.475,0.788-0.854c0.166-0.528,0.03-1.197-0.396-1.933c-0.287-0.495-0.564-0.995-0.842-1.495       c-0.601-1.082-1.222-2.202-1.924-3.248c-1.107-1.65-1.098-2.873-1.086-4.566c0.017-2.612,0.042-6.189-4.255-13.595       c-2.302-3.968-4.178-8.552-0.644-12.473c0.744-0.824,1.338-0.939,2.275-0.419c5.896,3.264,17.27,22.672,15.816,31.32       c-2.065,12.279-8.701,20.993-19.727,25.899c-15.576,6.933-28.23,1.557-36.604-15.547c-1.026-2.096-2.086-6.242-0.54-7.04       c0.151-0.078,0.315-0.116,0.489-0.116c1.59,0,4.086,3.111,6.933,6.658c1.86,2.318,3.966,4.945,6.272,7.314       c1.009,1.033,2.53,1.475,3.793,1.105c1.005-0.298,1.679-1.061,1.897-2.15C287.541,352.046,285.283,347.79,282.669,342.86z"/>
				</g>
				<g>
					<g>
						<path style="fill:#FFBBEC;" d="M198.208,343.906c2.536,7.801,5.232,11.732,9.54,15.609c5.961,5.364,12.737,8.289,20.457,9.267        c8.037,1.018,15.682-2.763,20.908-8.995c12.66-15.098,7.522-23.841,0.924-15.475c-6.023,7.635-8.06,10.65-10.738,11.949        c-1.014,0.491-2.328,0.069-2.694-1.481c-0.868-3.669,7.395-15.383,9.474-22.944c0.903-3.285,0.704-7.767-1.795-10.079        c-1.16-1.073-1.954-1.151-3.136-0.169c-1.041,0.865-1.946,1.871-2.656,3.036c-13.85,22.709-15.665,29.43-16.758,28.792        c-0.104-0.061-0.218-0.305-0.175-0.391c14.442-28.381,17.061-26.364,16.159-35.415c-0.086-0.865-0.55-1.66-1.047-2.382        c-1.481-2.149-4.01-2.528-5.984-0.803c-1.432,1.251-2.804,2.585-3.969,4.104c-16.844,21.955-17.182,27.151-18.292,26.765        c-1.44-0.501,4.479-6.549,4.165-10.42c-0.546-6.733,2.421-10.718,5.701-17.087c1.794-3.484,0.767-7.61,0.022-8.733        c-2.186-3.295-3.268-3.599-6.234-1.246c-5.548,4.403-11.477,15.434-13.657,22.301        C197.748,332.237,196.906,339.902,198.208,343.906z"/>
						<path style="fill:#FFBBEC;" d="M196.343,328.877c0.316,0.966,1.087,1.151,1.513-0.035c4.661-12.974,8.715-13.05,6.249-16.321        c-5.065-6.72-10.901-6.403-11.159-0.726C192.618,318.988,194.885,324.416,196.343,328.877z"/>
					</g>
					<path style="fill:#000E3F;" d="M257.766,340.596c-0.727-0.952-1.677-1.508-2.748-1.606c-2.024-0.174-3.868,1.581-4.861,2.53       c-1.883,1.799-3.485,3.894-5.035,5.919c-1.457,1.904-2.965,3.875-4.695,5.581c-0.343,0.338-0.802,0.774-1.31,1.162       c-0.093,0.068-0.238,0.108-0.347-0.001c-0.282-0.28-0.088-1.409,0.182-2.033c1.086-2.528,2.426-5.155,3.723-7.695       c3.278-6.424,6.376-12.492,5.945-17.49c-0.194-2.255-1.226-5.396-3.028-6.961c-1.778-1.546-3.681-1.016-5.143-0.381       c-0.254,0.11-0.326,0.112-0.334,0.114c-0.058-0.056-0.109-0.394-0.156-0.721c-0.093-0.623-0.233-1.564-0.646-2.955       c-0.403-1.36-1.214-2.486-2.408-3.345c-3.781-2.718-7.959-0.099-10.388,2.971c-4.511,5.71-7.411,9.823-9.328,12.544       c-1.201,1.704-2.1,2.979-2.455,3.264c-0.011-0.11-0.009-0.33,0.042-0.761c0.331-2.786,1.809-5.448,3.24-8.023       c2.732-4.922,5.558-10.013,0.783-16.332c-0.909-1.204-2.082-1.88-3.394-1.955c-1.728-0.096-3.656,0.841-5.313,2.576       c-1.005,1.054-1.772,1.888-2.368,2.536c-1.087,1.183-1.688,1.836-1.94,1.836h-0.002c-0.065-0.001-0.146-0.063-0.272-0.209       c-1.839-2.126-4.038-4.469-6.884-5.376c-3.145-1-6.218,0.446-7.294,3.453c-2.019,5.669,1.431,15.558,3.494,21.466l0.303,0.873       c0.45,1.295,0.277,2.683,0.107,4.025l-0.019,0.159c-0.746,5.956,3.002,18.526,11.728,25.674       c6.677,5.47,13.865,8.703,20.788,9.352c0.85,0.08,1.692,0.119,2.527,0.119c6.551,0,12.636-2.437,17.731-7.126       c4.558-4.198,9.705-11.537,10.931-18.472C259.197,343.755,258.733,341.861,257.766,340.596z M214.038,307.721       c0.375-0.208,0.695-0.315,0.993-0.315c0.443,0,0.835,0.238,1.282,0.733c3.534,3.919,1.658,8.505-0.644,12.473       c-4.297,7.406-4.273,10.983-4.255,13.595c0.012,1.692,0.021,2.916-1.086,4.566c-0.702,1.047-1.324,2.167-1.926,3.25       c-0.277,0.499-0.555,0.999-0.841,1.493c-0.425,0.736-0.562,1.405-0.396,1.933c0.119,0.378,0.383,0.665,0.788,0.854       c1.154,0.54,1.49-0.019,3.059-2.755c1.825-3.182,5.624-9.804,14.837-22.172c1.523-2.046,3.224-4.19,5.325-6.017       c1.241-1.076,2.964-1.086,4.192-0.024c2.052,1.772,1.713,6.494,0.695,9.081c-0.912,2.315-2.312,4.546-3.667,6.703       c-0.748,1.193-1.522,2.426-2.194,3.646c-0.093,0.168-9.311,17.009-9.624,17.838c-0.261,0.691-0.033,1.372,0.578,1.736       c0.606,0.365,1.34,0.258,1.781-0.248c0.963-1.112,2.69-4.413,3.388-5.781c1.977-3.882,12.601-23.992,15.394-25.841       c0.587-0.386,1.157-0.41,1.699-0.06c1.564,1.012,2.455,4.636,2.085,6.893c-0.736,4.491-3.289,9.308-5.542,13.557       c-2.613,4.93-4.87,9.188-4.25,12.305c0.217,1.089,0.889,1.853,1.895,2.15c1.261,0.374,2.786-0.07,3.793-1.104       c2.306-2.369,4.413-4.996,6.272-7.314c3.158-3.933,5.896-7.334,7.422-6.542c1.546,0.798,0.487,4.944-0.539,7.04       c-8.374,17.104-21.038,22.479-36.604,15.547c-11.024-4.906-17.66-13.62-19.727-25.899       C196.768,330.395,208.142,310.986,214.038,307.721z M202.693,316.533c-1.224,1.945-3.271,5.201-5.485,10.853       c-0.002,0.002-0.002,0.003-0.004,0.006c-0.082-0.24-0.217-0.547-0.394-0.951c-0.732-1.674-2.094-4.79-2.76-9.989       c-0.485-3.783-0.182-6.118,0.925-7.136c0.427-0.393,0.97-0.588,1.649-0.588c0.296,0,0.62,0.038,0.968,0.112       c3.203,0.685,5.262,3.556,6.208,5.211C204.022,314.419,203.55,315.17,202.693,316.533z"/>
				</g>
			</g>
		</g>
	</g>
	<g>
		<path style="fill:#000E3F;" d="M91.262,198.887l-0.025-0.029l0.028-0.027l0.115-0.108c1.727-1.848,1.957-3.962,1.376-6.014    c-1.381-6.236-8.989-8.439-13.741-4.393c-3.081,2.31-5.311,5.174-7.166,7.519c2.098,1.653,19.35,19.651,19.117,19.87    c0.293-0.438,3.919-3.264,4.696-5.026c-1.465-1.383-5.354-4.927-6.747-6.866l0.138,0.032c3.531,0.466,8.383,2.396,10.782,3.441    l0.031-0.029c1.826-1.508,3.359-3.275,4.708-4.549l-0.028,0.026C100.418,200.662,95.549,200.212,91.262,198.887z M86.226,196.535    c-0.784,1.011-1.927,1.981-2.901,2.734l-0.028,0.026c-0.952-0.726-2.465-2.499-3.473-3.393c0.835-1.817,2.107-3.287,3.669-3.297    C85.341,192.435,87.389,194.841,86.226,196.535z"/>
		<path style="fill:#000E3F;" d="M114.986,187.479c-2.708,2.356-5.446,4.178-8.136,6.368l-0.059-0.004    c-0.884-0.906-2.352-2.459-3.113-3.823c0.154-0.685,2.449-1.992,3.429-3.35c-1.252-1.473-2.186-3.002-3.522-4.203l-0.022-0.032    c-1.282,0.991-2.541,2.068-3.841,2.973l-0.055-0.006c-1.17-0.878-1.94-2.388-2.943-3.555l0.007-0.056l0.092-0.076    c2.493-2.436,5.587-4.192,7.715-6.89l-0.025-0.03c-1.17-1.437-2.151-3.08-3.536-4.342c-0.149-0.184-7.97,6.385-12.514,10.49    c5.307,7.328,11.224,13.852,17.001,20.948c4.219-2.876,8.404-6.792,12.591-10.147c-0.662-1.496-1.852-2.967-3.017-4.206    L114.986,187.479z"/>
		<path style="fill:#000E3F;" d="M130.575,176.672c-0.129-0.247-0.309-0.505-0.47-0.731c-0.939,0.858-7.824,4.855-8.479,5.705    l-0.024-0.033c-3.821-5.609-8.574-11.719-12.352-17.407c-1.591,0.352-4.601,2.577-5.222,3.547    c6.526,8.963,9.079,12.231,15.524,22.169l0.41,0.58c10.485-7.17,11.733-8.486,12.704-9.027c0.901-0.638,1.111-0.544-1.236-3.524    C131.15,177.621,130.839,177.114,130.575,176.672z"/>
		<path style="fill:#000E3F;" d="M138.838,161.356c-1.92-1.923-8.579-8.713-10.055-10.212c-2.793,2.081-3.457,2.211-4.035,2.704    c3.37,12.739,8.956,25.552,9.244,26.624c0.053,0.014,0.053,0.014,0.087-0.006c3.041-1.91,4.423-2.527,4.729-2.852    c0.036-0.023,0.046-0.075,0.082-0.098c-0.135-1.953-1.702-4.739-1.964-6.522c1.01-0.619,0.858-0.71,2.107-1.245    c1.406,0.943,3.518,3.396,4.939,4.514l0.037-0.022c1.628-0.583,3.403-1.532,4.586-2.627l-0.02-0.035L138.838,161.356z     M134.26,167.169c-3.285-7.468-5.968-12.302,2.486-1.524C135.905,166.161,135.051,166.731,134.26,167.169z"/>
		<path style="fill:#000E3F;" d="M155.003,153.054c-1.592-4.686-1.905-9.727-2.721-14.461c-0.023-0.032,0.012-0.05-0.004-0.086    l-0.035,0.018c-2.657,1.384-4.108,2.183-5.28,2.926l0.02,0.034c0.408,2.41,1.594,6.909,1.737,9.235    c-1.595-1.438-4.755-4.864-6.335-6.531c-0.268-0.172-0.648,0.116-1.912,0.773c-0.836,0.435-1.974,1.072-3.426,1.962    c3.601,3.15,7.286,6.213,10.22,9.888c1.199,4.357,1.657,9.766,2.516,13.722c1.041-0.143,2.194-0.741,3.278-1.306    c0.558-0.291,1.103-0.619,1.61-0.927c-0.121-2.962-1.353-6.101-1.546-9.379l0.052,0.018c2.266,1.622,4.28,4.887,6.458,6.6    l0.055,0.016c0.51-0.132,1.014-0.351,1.611-0.661c0.805-0.418,1.469-0.853,2.202-1.236c0.317-0.163,0.594-0.308,0.93-0.438    C161.484,159.863,157.723,156.662,155.003,153.054z"/>
		<path style="fill:#000E3F;" d="M77.742,167.037c2.442-4.612-2.097-8.919-4.814-12.259c-3.3-3.875-6.982-7.409-10.179-11.168    l-4.244,3.895l0.185,0.205c4.031,4.811,8.297,9.413,12.297,13.72c0.938,1.226,1.434,2.847,0.047,3.661    c-1.49,1.173-3.597-0.651-4.763-1.777l-0.132-0.148l-0.025-0.03c-1.621,1.026-3.767,2.834-4.613,4.014    c2.531,3.135,7.11,7.192,11.16,5.268C74.762,171.228,76.828,169.333,77.742,167.037z"/>
		<path style="fill:#000E3F;" d="M79.582,158.564c3.122,3.721,8.614,1.923,11.877-1.143c2.786-2.599,2.925-6.098,1.146-9.11    c-3.555-5.832-7.744-11.322-12.116-16.471c-1.458,0.179-3.55,2.441-4.633,3.427c3.611,4.94,7.748,10.171,11.391,15.336    c1.062,2.22-1.562,4.696-3.722,3.122c-4.41-4.871-8.458-9.922-12.121-15.122l-0.025-0.029c-1.516,0.621-3.244,2.254-4.527,3.244    l-0.033,0.026l0.059,0.004C71.214,147.274,75.336,153.067,79.582,158.564z"/>
		<path style="fill:#000E3F;" d="M94.557,138.314c0.975,0.114,1.981,0.065,2.98-0.358c2.083-0.854,4.88-2.273,6.536-0.34    c2.549,2.715-2.307,5.823-4.318,3.132c-1.46,1.009-3.622,2.105-5.017,3.356l0.066,0.098l0.063,0.1    c2.496,4.357,8.31,4.068,12.228,1.626c2.769-1.684,4.588-4.587,3.859-7.982c-0.443-2.967-2.345-5.779-5.198-6.734    c-2.523-1.03-5.468-0.98-7.979,0.3c-1.012,0.477-2.019,0.81-3.077-0.003c-0.228-0.276-0.488-0.53-0.588-0.889    c-1.263-2.712,3.604-4.646,4.665-1.895c1.828-0.591,3.587-1.941,4.96-3.224l0.035-0.024c-1.545-3.707-4.309-4.958-7.136-4.652    c-2.739,0.434-5.998,2.159-7.55,4.459C86.021,129.81,87.964,137.131,94.557,138.314z"/>
		<path style="fill:#000E3F;" d="M105.305,121.311c0.645-0.136,2.983-1.854,4.355-1.901l0.057,0.013    c7.746,12.523,10.189,17.845,10.522,18.2c1.498-1.202,3.977-2.186,5.506-3.404l-0.017-0.036l-0.02-0.035    c-8.707-14.877-10.15-17.369-10.377-18.101c-0.023-0.032-0.005-0.086-0.026-0.121l0.034-0.019l0.069-0.037    c2.108-1.319,3.239-2.045,4.196-2.355c-0.685-1.786-1.901-3.954-2.854-5.408c-4.998,2.125-10.029,5.175-14.686,7.831    c0.017,0.036,0.051,0.016,0.071,0.051C103.18,118.252,104.94,121.063,105.305,121.311z"/>
	</g>
	<g>
		<g>
			<g>
				<g>
					<path style="fill:#FC09B2;" d="M370.517,94.036c1.345,0.367,2.383,0.256,2.88-1.905c0.328-1.357,1.54-6.333,2.039-7.633       c0.196-1.061-0.311-1.802-1.629-2.166c-3.417-0.909-7.269-1.789-10.606-0.376c-1.469,0.686-2.323,1.856-2.569,3.162       c-0.243,1.309,0.302,2.791,1.295,4.067C363.046,90.707,366.236,92.887,370.517,94.036z"/>
					<path style="fill:#FC09B2;" d="M375.653,63.236c-1.618-0.074-2.915,0.563-3.738,1.605c-0.819,1.046-1.03,2.605-0.745,4.195       c0.282,1.865,2.101,5.292,5.339,8.295c1.012,0.947,2,1.346,3.437-0.345c0.932-1.044,4.323-4.905,5.37-5.823       c0.665-0.853,0.559-1.745-0.441-2.677C382.267,66.095,379.269,63.54,375.653,63.236z"/>
					<path style="fill:#FC09B2;" d="M395.384,52.436c-1.399-0.821-2.847-0.861-4.063-0.324c-1.214,0.546-2.127,1.832-2.613,3.373       c-0.618,1.784-0.6,5.656,0.882,9.825c0.46,1.311,1.145,2.113,3.203,1.291c1.305-0.499,6.09-2.32,7.445-2.649       c0.986-0.437,1.309-1.274,0.859-2.566C399.905,58.058,398.439,54.374,395.384,52.436z"/>
					<path style="fill:#FC09B2;" d="M414.413,49.866c-1.34,0-2.732,0.619-3.878,1.763c-1.373,1.325-3.156,4.787-3.783,9.127       c-0.203,1.351,0.029,2.447,2.244,2.629c0.694,0.087,2.314,0.296,3.933,0.458c1.588,0.343,3.224,0.489,3.898,0.634       c1.068,0.094,1.738-0.487,1.941-1.845c0.482-3.476,0.929-7.557-0.913-10.564C416.997,50.689,415.745,49.904,414.413,49.866z"/>
					<path style="fill:#FC09B2;" d="M424.814,68.067c0.603,0.35,1.902,1.353,3.278,2.228c1.247,1.048,2.627,1.946,3.16,2.386       c0.905,0.581,1.769,0.378,2.579-0.731c2.041-2.856,4.328-6.258,4.102-9.777c-0.118-1.618-0.846-2.906-2.018-3.544       c-1.181-0.629-2.697-0.735-4.242-0.261c-1.86,0.578-5.022,2.753-7.601,6.306C423.264,65.771,422.957,66.851,424.814,68.067z"/>
					<path style="fill:#FC09B2;" d="M436.674,79.571c0.354,0.6,1.064,2.074,1.863,3.491c0.615,1.503,1.426,2.933,1.687,3.57       c0.527,0.933,1.386,1.155,2.619,0.551c3.136-1.576,6.752-3.525,8.181-6.748c0.649-1.49,0.592-2.969-0.142-4.083       c-0.758-1.105-2.055-1.902-3.645-2.198c-1.901-0.359-5.727,0.114-9.656,2.068C436.358,76.822,435.586,77.638,436.674,79.571z"/>
					<path style="fill:#FC09B2;" d="M453.689,95.379c-1.576-1.198-5.112-2.566-9.507-2.672c-1.361-0.041-2.425,0.321-2.391,2.547       c0.089,0.697-0.019,2.335,0.031,3.969c-0.05,1.628-0.213,3.249-0.112,3.957c0.008,1.066,0.655,1.659,2.033,1.696       c3.576,0.067,7.583,0.003,10.365-2.189C456.824,100.65,456.213,97.36,453.689,95.379z"/>
					<path style="fill:#FC09B2;" d="M442.379,110.392c-1.205-0.674-2.246-0.822-3.315,1.131c-0.175,0.304-0.378,0.851-0.707,1.467       c-0.348,0.608-0.738,1.323-1.111,2.048c-0.765,1.439-1.71,2.773-1.944,3.451c-0.473,0.962-0.192,1.778,1.015,2.456       c3.144,1.731,6.696,3.525,10.192,2.895c1.65-0.276,2.789-1.182,3.261-2.439c0.479-1.25,0.518-2.71-0.244-4.237       C448.694,115.369,446.257,112.536,442.379,110.392z"/>
					<path style="fill:#FC09B2;" d="M429.073,124.667c-0.537,0.45-1.896,1.352-3.241,2.275c-1.352,0.907-2.795,1.665-3.317,2.155       c-0.869,0.62-0.994,1.481-0.241,2.64c1.978,2.987,4.298,6.238,7.687,7.292c3.209,1.072,5.607-1.272,5.77-4.516       c0.094-1.973-0.762-5.623-3.194-9.313C431.786,124.048,430.922,123.422,429.073,124.667z"/>
					<path style="fill:#FC09B2;" d="M414.143,131.653c-1.356,0.384-6.498,0.639-7.882,0.842c-1.069,0.274-1.57,0.863-1.443,2.275       c0.364,3.61,0.918,7.417,3.422,10.013c1.165,1.236,2.553,1.576,3.854,1.287c1.302-0.292,2.518-1.115,3.344-2.607       c1.004-1.702,1.957-5.302,1.518-9.722C416.827,132.361,416.362,131.434,414.143,131.653z"/>
					<path style="fill:#FC09B2;" d="M397.652,130.915c-1.355-0.367-6.057-2.386-7.346-2.922c-1.059-0.273-1.814,0.069-2.346,1.355       c-1.349,3.341-2.636,6.967-1.641,10.459c0.448,1.651,1.562,2.52,2.825,2.928c1.264,0.418,2.776,0.119,4.185-0.773       c1.668-0.999,4.18-3.751,5.854-7.927c0.263-0.638,0.4-1.233,0.208-1.745C399.196,131.788,398.677,131.373,397.652,130.915z"/>
					<path style="fill:#FC09B2;" d="M378.248,116.58c-0.818-0.73-1.626-0.786-2.701,0.112c-2.76,2.346-5.565,4.954-6.3,8.509       c-0.367,1.672,0.206,2.962,1.142,3.903c0.93,0.953,2.396,1.396,4.061,1.254c1.94-0.112,5.445-1.384,8.868-4.298       c0.529-0.442,0.927-0.904,0.996-1.448c0.063-0.539-0.205-1.148-0.903-2.03C382.372,121.628,379.151,117.642,378.248,116.58z"/>
					<path style="fill:#FC09B2;" d="M374.514,110.813c0.306-0.447,0.35-1.109,0.147-2.213c-0.449-1.326-1.495-6.34-1.756-7.714       c-0.34-1.032-1.142-1.453-2.474-1.16c-3.447,0.787-7.222,1.794-9.531,4.594c-1.072,1.299-1.186,2.715-0.8,3.985       c0.367,1.279,1.483,2.35,3.012,3.006c1.766,0.807,5.46,1.313,9.847,0.321C373.633,111.486,374.2,111.262,374.514,110.813z"/>
				</g>
				<g>
					<path style="fill:#FD8A02;" d="M378.67,87.854c3.485,4.478,7.899,7.641,12.531,9.35c0.049-3.425,1.075-6.784,3.119-9.532       C389.561,86.302,384.08,86.263,378.67,87.854z"/>
					<path style="fill:#FD8A02;" d="M402.429,81.756c-3.234-4.484-7.964-8.113-13.765-10.399c0.362,6.189,2.394,11.842,5.655,16.315       C396.28,84.87,399.237,82.835,402.429,81.756z"/>
					<path style="fill:#FD8A02;" d="M412.471,81.756c-0.169-4.946-1.853-10.108-5.021-14.82c-3.168,4.712-4.853,9.874-5.021,14.82       c1.62-0.501,3.304-0.762,5.021-0.802C409.167,80.994,410.852,81.254,412.471,81.756z"/>
					<path style="fill:#FD8A02;" d="M420.581,87.672c3.261-4.473,5.293-10.126,5.655-16.315       c-5.801,2.286-10.531,5.915-13.765,10.399C415.664,82.835,418.621,84.87,420.581,87.672z"/>
					<path style="fill:#FD8A02;" d="M436.231,87.854c-5.41-1.591-10.892-1.552-15.65-0.182c2.044,2.748,3.07,6.107,3.119,9.532       C428.332,95.495,432.746,92.332,436.231,87.854z"/>
					<path style="fill:#FD8A02;" d="M437.857,107.081c-3.971-4.826-8.954-8.17-14.157-9.877c-0.049,3.424-1.075,6.784-3.119,9.532       C425.8,108.441,431.849,108.669,437.857,107.081z"/>
					<path style="fill:#FD8A02;" d="M412.471,112.652c3.059,3.942,7.438,7.087,12.759,9.017c-0.171-5.623-1.849-10.795-4.649-14.933       C418.621,109.537,415.664,111.572,412.471,112.652z"/>
					<path style="fill:#FD8A02;" d="M402.429,112.652c-0.008,5.488,1.677,11.247,5.021,16.529       c3.344-5.281,5.029-11.041,5.021-16.529c-1.62,0.501-3.304,0.761-5.021,0.802C405.734,113.413,404.049,113.153,402.429,112.652       z"/>
					<path style="fill:#FD8A02;" d="M394.32,106.736c-2.801,4.138-4.478,9.31-4.649,14.933c5.321-1.931,9.701-5.076,12.759-9.017       C399.237,111.572,396.28,109.537,394.32,106.736z"/>
					<path style="fill:#FD8A02;" d="M377.044,107.081c6.008,1.588,12.057,1.36,17.275-0.346c-2.044-2.747-3.07-6.107-3.119-9.532       C385.999,98.911,381.015,102.255,377.044,107.081z"/>
				</g>
				<circle style="fill:#4217A6;" cx="407.193" cy="97.612" r="9.118"/>
			</g>
			<g>
				<g>
					<path style="fill:#FC09B2;" d="M32.027,301.598c1.345,0.367,2.383,0.256,2.88-1.904c0.328-1.358,1.54-6.333,2.039-7.634       c0.196-1.061-0.311-1.802-1.629-2.166c-3.417-0.909-7.269-1.789-10.606-0.376c-1.469,0.686-2.323,1.856-2.57,3.162       c-0.243,1.309,0.302,2.791,1.295,4.066C24.555,298.269,27.746,300.45,32.027,301.598z"/>
					<path style="fill:#FC09B2;" d="M37.162,270.798c-1.618-0.074-2.915,0.563-3.738,1.605c-0.819,1.046-1.03,2.605-0.744,4.195       c0.282,1.865,2.101,5.292,5.339,8.295c1.012,0.947,2,1.347,3.437-0.345c0.932-1.044,4.323-4.904,5.37-5.823       c0.665-0.853,0.559-1.745-0.441-2.677C43.777,273.658,40.779,271.102,37.162,270.798z"/>
					<path style="fill:#FC09B2;" d="M56.894,259.998c-1.399-0.821-2.847-0.861-4.063-0.324c-1.214,0.546-2.127,1.832-2.613,3.373       c-0.618,1.784-0.6,5.656,0.882,9.824c0.46,1.312,1.145,2.113,3.203,1.291c1.305-0.499,6.09-2.32,7.445-2.649       c0.986-0.437,1.309-1.273,0.86-2.566C61.414,265.62,59.949,261.937,56.894,259.998z"/>
					<path style="fill:#FC09B2;" d="M75.923,257.429c-1.34,0-2.732,0.62-3.878,1.763c-1.373,1.325-3.156,4.787-3.783,9.127       c-0.203,1.351,0.029,2.447,2.244,2.629c0.694,0.087,2.314,0.296,3.934,0.458c1.588,0.343,3.224,0.489,3.898,0.634       c1.068,0.095,1.738-0.487,1.941-1.845c0.483-3.476,0.929-7.557-0.913-10.564C78.506,258.251,77.254,257.467,75.923,257.429z"/>
					<path style="fill:#FC09B2;" d="M86.323,275.629c0.603,0.35,1.901,1.353,3.278,2.228c1.247,1.048,2.627,1.946,3.16,2.386       c0.905,0.581,1.769,0.378,2.579-0.731c2.041-2.856,4.328-6.258,4.101-9.777c-0.118-1.618-0.846-2.907-2.018-3.544       c-1.181-0.629-2.697-0.735-4.241-0.261c-1.86,0.578-5.022,2.753-7.601,6.306C84.773,273.333,84.467,274.414,86.323,275.629z"/>
					<path style="fill:#FC09B2;" d="M98.184,287.133c0.354,0.6,1.063,2.074,1.863,3.491c0.615,1.503,1.426,2.932,1.687,3.57       c0.527,0.933,1.386,1.156,2.619,0.551c3.135-1.576,6.752-3.525,8.181-6.748c0.648-1.489,0.592-2.969-0.142-4.083       c-0.757-1.105-2.055-1.902-3.645-2.198c-1.901-0.359-5.727,0.114-9.656,2.068C97.867,284.384,97.096,285.2,98.184,287.133z"/>
					<path style="fill:#FC09B2;" d="M115.199,302.941c-1.576-1.198-5.112-2.566-9.507-2.671c-1.361-0.041-2.425,0.321-2.391,2.547       c0.089,0.697-0.019,2.335,0.031,3.969c-0.05,1.629-0.213,3.249-0.112,3.957c0.008,1.066,0.655,1.659,2.033,1.696       c3.576,0.067,7.583,0.003,10.365-2.189C118.334,308.212,117.722,304.922,115.199,302.941z"/>
					<path style="fill:#FC09B2;" d="M103.888,317.954c-1.205-0.674-2.246-0.822-3.315,1.131c-0.175,0.303-0.378,0.851-0.707,1.467       c-0.348,0.608-0.738,1.323-1.111,2.048c-0.765,1.439-1.71,2.773-1.944,3.451c-0.474,0.962-0.192,1.778,1.015,2.456       c3.144,1.731,6.696,3.526,10.191,2.895c1.65-0.276,2.79-1.183,3.261-2.439c0.479-1.249,0.518-2.71-0.244-4.237       C110.204,322.932,107.766,320.098,103.888,317.954z"/>
					<path style="fill:#FC09B2;" d="M90.583,332.23c-0.537,0.45-1.896,1.352-3.241,2.275c-1.352,0.907-2.795,1.665-3.317,2.155       c-0.869,0.62-0.994,1.482-0.241,2.64c1.978,2.987,4.298,6.239,7.687,7.292c3.209,1.072,5.607-1.272,5.77-4.516       c0.094-1.973-0.762-5.624-3.194-9.313C93.296,331.61,92.431,330.984,90.583,332.23z"/>
					<path style="fill:#FC09B2;" d="M75.653,339.215c-1.357,0.384-6.498,0.639-7.882,0.842c-1.068,0.274-1.57,0.863-1.443,2.276       c0.364,3.61,0.918,7.417,3.422,10.013c1.166,1.236,2.553,1.576,3.855,1.287c1.302-0.291,2.518-1.114,3.344-2.607       c1.004-1.702,1.957-5.302,1.518-9.722C78.337,339.924,77.871,338.996,75.653,339.215z"/>
					<path style="fill:#FC09B2;" d="M59.162,338.477c-1.355-0.367-6.057-2.386-7.346-2.922c-1.059-0.273-1.814,0.07-2.346,1.355       c-1.349,3.341-2.636,6.967-1.641,10.459c0.448,1.651,1.562,2.521,2.825,2.928c1.264,0.418,2.776,0.119,4.185-0.773       c1.668-0.999,4.18-3.751,5.854-7.927c0.263-0.638,0.4-1.233,0.208-1.745C60.705,339.35,60.187,338.935,59.162,338.477z"/>
					<path style="fill:#FC09B2;" d="M39.757,324.142c-0.817-0.73-1.626-0.786-2.701,0.112c-2.76,2.346-5.565,4.954-6.3,8.509       c-0.367,1.672,0.205,2.962,1.142,3.903c0.93,0.953,2.396,1.396,4.061,1.254c1.94-0.112,5.445-1.384,8.868-4.298       c0.529-0.442,0.927-0.904,0.996-1.448c0.063-0.539-0.205-1.148-0.903-2.03C43.881,329.191,40.66,325.204,39.757,324.142z"/>
					<path style="fill:#FC09B2;" d="M36.023,318.375c0.307-0.447,0.35-1.109,0.147-2.213c-0.449-1.326-1.495-6.339-1.756-7.714       c-0.34-1.032-1.142-1.453-2.473-1.16c-3.447,0.787-7.222,1.794-9.531,4.594c-1.072,1.299-1.186,2.715-0.8,3.985       c0.367,1.279,1.483,2.35,3.012,3.006c1.766,0.807,5.46,1.313,9.847,0.321C35.143,319.049,35.71,318.824,36.023,318.375z"/>
				</g>
				<g>
					<path style="fill:#FD8A02;" d="M40.179,295.416c3.485,4.478,7.899,7.641,12.531,9.35c0.049-3.425,1.075-6.784,3.119-9.532       C51.071,293.864,45.589,293.825,40.179,295.416z"/>
					<path style="fill:#FD8A02;" d="M63.939,289.318c-3.234-4.484-7.964-8.113-13.765-10.399c0.361,6.189,2.394,11.842,5.655,16.315       C57.79,292.433,60.746,290.397,63.939,289.318z"/>
					<path style="fill:#FD8A02;" d="M73.981,289.318c-0.169-4.946-1.854-10.108-5.021-14.82c-3.168,4.712-4.853,9.874-5.021,14.82       c1.62-0.501,3.304-0.762,5.021-0.802C70.677,288.556,72.361,288.816,73.981,289.318z"/>
					<path style="fill:#FD8A02;" d="M82.091,295.234c3.261-4.473,5.293-10.126,5.655-16.315       c-5.801,2.286-10.531,5.915-13.765,10.399C77.174,290.397,80.13,292.433,82.091,295.234z"/>
					<path style="fill:#FD8A02;" d="M97.741,295.416c-5.41-1.591-10.892-1.552-15.65-0.182c2.044,2.748,3.07,6.107,3.119,9.532       C89.842,303.057,94.256,299.894,97.741,295.416z"/>
					<path style="fill:#FD8A02;" d="M99.366,314.643c-3.971-4.826-8.955-8.169-14.157-9.877c-0.049,3.425-1.075,6.784-3.119,9.532       C87.309,316.003,93.358,316.231,99.366,314.643z"/>
					<path style="fill:#FD8A02;" d="M73.981,320.214c3.058,3.942,7.438,7.087,12.759,9.017c-0.171-5.623-1.849-10.795-4.649-14.933       C80.13,317.099,77.174,319.135,73.981,320.214z"/>
					<path style="fill:#FD8A02;" d="M63.939,320.214c-0.008,5.488,1.677,11.247,5.021,16.529c3.344-5.281,5.029-11.041,5.021-16.529       c-1.62,0.501-3.304,0.762-5.021,0.802C67.243,320.975,65.559,320.715,63.939,320.214z"/>
					<path style="fill:#FD8A02;" d="M55.829,314.298c-2.8,4.138-4.478,9.31-4.649,14.933c5.321-1.931,9.701-5.075,12.759-9.017       C60.746,319.135,57.79,317.099,55.829,314.298z"/>
					<path style="fill:#FD8A02;" d="M38.554,314.643c6.007,1.588,12.057,1.36,17.275-0.346c-2.044-2.747-3.07-6.107-3.119-9.532       C47.508,306.474,42.525,309.817,38.554,314.643z"/>
				</g>
				<path style="fill:#4217A6;" d="M59.584,305.174c0,5.036,4.083,9.118,9.118,9.118c5.036,0,9.118-4.082,9.118-9.118      c0-5.036-4.082-9.118-9.118-9.118C63.667,296.056,59.584,300.138,59.584,305.174z"/>
			</g>
			<g>
				<g>
					<path style="fill:#FC09B2;" d="M405.227,390.421c1.345,0.367,2.383,0.256,2.88-1.904c0.329-1.358,1.541-6.333,2.039-7.634       c0.196-1.061-0.311-1.802-1.629-2.166c-3.417-0.909-7.269-1.789-10.606-0.376c-1.469,0.687-2.323,1.856-2.569,3.162       c-0.243,1.309,0.302,2.791,1.295,4.066C397.756,387.092,400.946,389.273,405.227,390.421z"/>
					<path style="fill:#FC09B2;" d="M410.363,359.621c-1.618-0.074-2.915,0.563-3.738,1.605c-0.819,1.046-1.03,2.605-0.745,4.195       c0.282,1.865,2.101,5.292,5.339,8.295c1.012,0.947,2,1.347,3.437-0.345c0.932-1.044,4.322-4.904,5.37-5.823       c0.665-0.853,0.559-1.745-0.441-2.677C416.977,362.481,413.979,359.925,410.363,359.621z"/>
					<path style="fill:#FC09B2;" d="M430.094,348.821c-1.399-0.821-2.847-0.861-4.063-0.324c-1.214,0.546-2.128,1.832-2.613,3.373       c-0.618,1.784-0.6,5.656,0.882,9.824c0.46,1.312,1.145,2.113,3.203,1.291c1.305-0.499,6.09-2.32,7.445-2.649       c0.986-0.437,1.309-1.273,0.86-2.566C434.615,354.443,433.149,350.76,430.094,348.821z"/>
					<path style="fill:#FC09B2;" d="M449.123,346.252c-1.339,0-2.732,0.62-3.878,1.764c-1.373,1.325-3.156,4.787-3.783,9.127       c-0.203,1.351,0.029,2.447,2.244,2.629c0.694,0.087,2.314,0.296,3.934,0.458c1.588,0.343,3.224,0.489,3.898,0.634       c1.068,0.095,1.738-0.487,1.941-1.845c0.482-3.476,0.929-7.557-0.914-10.564C451.707,347.074,450.455,346.29,449.123,346.252z"/>
					<path style="fill:#FC09B2;" d="M459.524,364.452c0.603,0.35,1.902,1.353,3.278,2.228c1.247,1.048,2.627,1.946,3.16,2.386       c0.905,0.581,1.769,0.378,2.579-0.732c2.041-2.856,4.328-6.258,4.101-9.777c-0.118-1.618-0.846-2.906-2.018-3.544       c-1.181-0.629-2.697-0.734-4.241-0.261c-1.86,0.578-5.023,2.753-7.601,6.306C457.974,362.156,457.667,363.237,459.524,364.452z       "/>
					<path style="fill:#FC09B2;" d="M471.384,375.956c0.354,0.6,1.063,2.074,1.863,3.491c0.615,1.503,1.426,2.933,1.687,3.57       c0.527,0.934,1.386,1.156,2.619,0.551c3.135-1.576,6.752-3.525,8.181-6.748c0.648-1.49,0.592-2.969-0.142-4.083       c-0.757-1.105-2.055-1.902-3.645-2.198c-1.901-0.359-5.728,0.114-9.656,2.068C471.068,373.208,470.296,374.023,471.384,375.956       z"/>
					<path style="fill:#FC09B2;" d="M488.399,391.764c-1.576-1.198-5.112-2.566-9.507-2.671c-1.361-0.041-2.425,0.321-2.391,2.547       c0.088,0.697-0.019,2.335,0.031,3.969c-0.05,1.628-0.213,3.249-0.112,3.957c0.008,1.067,0.655,1.659,2.033,1.696       c3.576,0.067,7.583,0.003,10.365-2.189C491.534,397.035,490.923,393.745,488.399,391.764z"/>
					<path style="fill:#FC09B2;" d="M477.089,406.778c-1.204-0.674-2.246-0.822-3.314,1.131c-0.175,0.304-0.378,0.851-0.707,1.467       c-0.348,0.608-0.738,1.323-1.111,2.048c-0.765,1.439-1.71,2.773-1.944,3.451c-0.474,0.963-0.192,1.778,1.015,2.456       c3.144,1.731,6.696,3.525,10.192,2.895c1.65-0.276,2.789-1.183,3.261-2.439c0.479-1.25,0.518-2.71-0.244-4.238       C483.404,411.755,480.967,408.921,477.089,406.778z"/>
					<path style="fill:#FC09B2;" d="M463.783,421.053c-0.537,0.45-1.896,1.352-3.241,2.275c-1.352,0.907-2.795,1.665-3.317,2.155       c-0.869,0.62-0.993,1.482-0.241,2.64c1.978,2.987,4.298,6.239,7.687,7.292c3.209,1.072,5.607-1.272,5.77-4.516       c0.094-1.973-0.762-5.624-3.194-9.313C466.496,420.433,465.632,419.808,463.783,421.053z"/>
					<path style="fill:#FC09B2;" d="M448.853,428.038c-1.357,0.384-6.498,0.639-7.882,0.842c-1.069,0.273-1.57,0.863-1.443,2.275       c0.363,3.61,0.918,7.417,3.422,10.013c1.165,1.236,2.553,1.576,3.854,1.287c1.302-0.291,2.518-1.114,3.344-2.607       c1.004-1.702,1.957-5.302,1.518-9.722C451.537,428.747,451.072,427.82,448.853,428.038z"/>
					<path style="fill:#FC09B2;" d="M432.363,427.3c-1.355-0.367-6.057-2.386-7.346-2.922c-1.059-0.273-1.814,0.07-2.346,1.355       c-1.349,3.341-2.636,6.967-1.641,10.459c0.448,1.651,1.562,2.521,2.824,2.928c1.264,0.418,2.776,0.119,4.185-0.773       c1.668-0.999,4.18-3.751,5.854-7.927c0.263-0.638,0.4-1.233,0.208-1.745C433.906,428.173,433.387,427.758,432.363,427.3z"/>
					<path style="fill:#FC09B2;" d="M412.958,412.965c-0.817-0.73-1.626-0.786-2.701,0.112c-2.76,2.345-5.565,4.954-6.3,8.509       c-0.366,1.672,0.206,2.962,1.142,3.903c0.929,0.953,2.396,1.396,4.061,1.255c1.939-0.112,5.445-1.384,8.868-4.298       c0.53-0.442,0.928-0.904,0.996-1.448c0.063-0.539-0.205-1.148-0.903-2.03C417.081,418.014,413.861,414.027,412.958,412.965z"/>
					<path style="fill:#FC09B2;" d="M409.224,407.198c0.306-0.447,0.35-1.109,0.147-2.213c-0.449-1.326-1.495-6.339-1.756-7.714       c-0.34-1.032-1.142-1.453-2.474-1.161c-3.447,0.787-7.222,1.794-9.531,4.594c-1.072,1.3-1.185,2.715-0.8,3.986       c0.367,1.278,1.483,2.35,3.011,3.005c1.766,0.807,5.46,1.313,9.847,0.321C408.343,407.872,408.91,407.647,409.224,407.198z"/>
				</g>
				<g>
					<path style="fill:#FD8A02;" d="M413.38,384.239c3.485,4.478,7.898,7.641,12.531,9.35c0.049-3.425,1.075-6.784,3.119-9.532       C424.271,382.688,418.79,382.648,413.38,384.239z"/>
					<path style="fill:#FD8A02;" d="M437.139,378.141c-3.234-4.484-7.964-8.113-13.765-10.399       c0.362,6.189,2.394,11.842,5.655,16.315C430.99,381.256,433.947,379.22,437.139,378.141z"/>
					<path style="fill:#FD8A02;" d="M447.181,378.141c-0.169-4.946-1.853-10.108-5.021-14.82c-3.168,4.712-4.853,9.874-5.021,14.82       c1.619-0.501,3.304-0.762,5.021-0.802C443.877,377.379,445.562,377.64,447.181,378.141z"/>
					<path style="fill:#FD8A02;" d="M455.291,384.057c3.262-4.473,5.293-10.126,5.655-16.315       c-5.801,2.286-10.531,5.915-13.765,10.399C450.374,379.22,453.331,381.256,455.291,384.057z"/>
					<path style="fill:#FD8A02;" d="M470.941,384.239c-5.41-1.591-10.892-1.552-15.65-0.182c2.044,2.748,3.07,6.107,3.119,9.532       C463.042,391.88,467.456,388.717,470.941,384.239z"/>
					<path style="fill:#FD8A02;" d="M472.567,403.466c-3.971-4.826-8.954-8.169-14.157-9.877c-0.049,3.425-1.075,6.784-3.119,9.532       C460.51,404.826,466.559,405.054,472.567,403.466z"/>
					<path style="fill:#FD8A02;" d="M447.181,409.037c3.059,3.942,7.438,7.087,12.759,9.017c-0.171-5.623-1.849-10.795-4.65-14.933       C453.331,405.922,450.374,407.958,447.181,409.037z"/>
					<path style="fill:#FD8A02;" d="M437.139,409.037c-0.008,5.488,1.677,11.247,5.021,16.529       c3.344-5.282,5.029-11.041,5.021-16.529c-1.619,0.501-3.304,0.762-5.021,0.802       C440.444,409.799,438.759,409.538,437.139,409.037z"/>
					<path style="fill:#FD8A02;" d="M429.03,403.121c-2.801,4.138-4.478,9.31-4.65,14.933c5.321-1.931,9.701-5.075,12.759-9.017       C433.947,407.958,430.99,405.922,429.03,403.121z"/>
					<path style="fill:#FD8A02;" d="M411.754,403.466c6.008,1.588,12.057,1.36,17.276-0.346c-2.044-2.747-3.07-6.107-3.119-9.532       C420.708,395.297,415.725,398.641,411.754,403.466z"/>
				</g>
				<path style="fill:#4217A6;" d="M432.784,393.997c0,5.036,4.083,9.118,9.118,9.118c5.036,0,9.118-4.083,9.118-9.118      c0-5.036-4.083-9.118-9.118-9.118C436.867,384.879,432.784,388.961,432.784,393.997z"/>
			</g>
		</g>
		<g>
			<g>
				<g>
					<path style="fill:#FD8A02;" d="M414.382,216.335c3.485,4.478,7.898,7.641,12.531,9.35c0.049-3.425,1.075-6.784,3.119-9.532       C425.274,214.783,419.792,214.744,414.382,216.335z"/>
					<path style="fill:#FD8A02;" d="M438.142,210.237c-3.234-4.484-7.964-8.113-13.765-10.399       c0.362,6.189,2.394,11.842,5.655,16.315C431.993,213.351,434.949,211.316,438.142,210.237z"/>
					<path style="fill:#FD8A02;" d="M448.184,210.237c-0.169-4.946-1.854-10.108-5.021-14.82c-3.167,4.712-4.852,9.874-5.021,14.82       c1.619-0.501,3.305-0.762,5.021-0.802C444.88,209.475,446.565,209.735,448.184,210.237z"/>
					<path style="fill:#FD8A02;" d="M456.294,216.153c3.262-4.473,5.293-10.126,5.655-16.315       c-5.801,2.286-10.531,5.915-13.765,10.399C451.377,211.316,454.334,213.351,456.294,216.153z"/>
					<path style="fill:#FD8A02;" d="M471.944,216.335c-5.41-1.591-10.892-1.552-15.65-0.182c2.044,2.748,3.07,6.107,3.119,9.532       C464.045,223.976,468.459,220.813,471.944,216.335z"/>
					<path style="fill:#FD8A02;" d="M473.57,235.562c-3.971-4.826-8.954-8.17-14.157-9.877c-0.049,3.424-1.075,6.784-3.119,9.532       C461.512,236.922,467.561,237.15,473.57,235.562z"/>
					<path style="fill:#FD8A02;" d="M448.184,241.132c3.059,3.942,7.438,7.087,12.759,9.017c-0.171-5.623-1.849-10.795-4.65-14.933       C454.334,238.018,451.377,240.053,448.184,241.132z"/>
					<path style="fill:#FD8A02;" d="M438.142,241.132c-0.008,5.488,1.677,11.247,5.021,16.529       c3.344-5.281,5.029-11.041,5.021-16.529c-1.62,0.501-3.304,0.761-5.021,0.802C441.447,241.894,439.761,241.634,438.142,241.132       z"/>
					<path style="fill:#FD8A02;" d="M430.033,235.216c-2.8,4.139-4.478,9.311-4.65,14.933c5.321-1.931,9.701-5.075,12.759-9.017       C434.949,240.053,431.993,238.018,430.033,235.216z"/>
					<path style="fill:#FD8A02;" d="M412.757,235.562c6.008,1.588,12.057,1.36,17.276-0.346c-2.044-2.747-3.07-6.107-3.119-9.532       C421.711,227.392,416.728,230.736,412.757,235.562z"/>
				</g>
				<path style="fill:#FC09B2;" d="M433.787,226.093c0,5.036,4.082,9.118,9.118,9.118s9.118-4.083,9.118-9.118      c0-5.036-4.083-9.118-9.118-9.118S433.787,221.057,433.787,226.093z"/>
			</g>
			<g>
				<g>
					<path style="fill:#FD8A02;" d="M126.202,20.918c3.485,4.478,7.899,7.641,12.531,9.35c0.049-3.424,1.075-6.784,3.119-9.532       C137.093,19.366,131.612,19.327,126.202,20.918z"/>
					<path style="fill:#FD8A02;" d="M149.962,14.82c-3.234-4.484-7.964-8.113-13.765-10.399c0.362,6.189,2.394,11.842,5.655,16.315       C143.812,17.935,146.769,15.899,149.962,14.82z"/>
					<path style="fill:#FD8A02;" d="M160.004,14.82C159.835,9.874,158.15,4.712,154.983,0c-3.168,4.712-4.852,9.874-5.021,14.82       c1.619-0.501,3.304-0.762,5.021-0.802C156.699,14.058,158.384,14.318,160.004,14.82z"/>
					<path style="fill:#FD8A02;" d="M168.113,20.736c3.262-4.473,5.293-10.126,5.655-16.315       c-5.801,2.286-10.531,5.915-13.764,10.399C163.196,15.899,166.153,17.935,168.113,20.736z"/>
					<path style="fill:#FD8A02;" d="M183.763,20.918c-5.41-1.591-10.892-1.552-15.65-0.182c2.044,2.748,3.07,6.107,3.119,9.532       C175.865,28.559,180.278,25.396,183.763,20.918z"/>
					<path style="fill:#FD8A02;" d="M185.389,40.145c-3.971-4.826-8.954-8.17-14.157-9.878c-0.049,3.425-1.075,6.785-3.119,9.532       C173.332,41.505,179.381,41.733,185.389,40.145z"/>
					<path style="fill:#FD8A02;" d="M160.004,45.716c3.058,3.942,7.438,7.087,12.759,9.017c-0.171-5.623-1.849-10.795-4.649-14.933       C166.153,42.601,163.196,44.636,160.004,45.716z"/>
					<path style="fill:#FD8A02;" d="M149.962,45.716c-0.008,5.488,1.677,11.247,5.021,16.529c3.344-5.281,5.029-11.041,5.021-16.529       c-1.62,0.501-3.304,0.761-5.021,0.802C153.266,46.477,151.581,46.217,149.962,45.716z"/>
					<path style="fill:#FD8A02;" d="M141.852,39.8c-2.8,4.139-4.478,9.311-4.649,14.933c5.321-1.931,9.701-5.075,12.759-9.017       C146.769,44.636,143.812,42.601,141.852,39.8z"/>
					<path style="fill:#FD8A02;" d="M124.576,40.145c6.008,1.587,12.057,1.36,17.275-0.346c-2.044-2.747-3.07-6.107-3.119-9.532       C133.531,31.976,128.547,35.319,124.576,40.145z"/>
				</g>
				<path style="fill:#FC09B2;" d="M145.607,30.676c0,5.036,4.083,9.118,9.118,9.118c5.036,0,9.118-4.083,9.118-9.118      c0-5.036-4.083-9.118-9.118-9.118C149.689,21.558,145.607,25.64,145.607,30.676z"/>
			</g>
			<g>
				<g>
					<path style="fill:#FD8A02;" d="M49.059,452.537c3.485,4.478,7.899,7.641,12.531,9.35c0.049-3.424,1.075-6.784,3.119-9.532       C59.951,450.986,54.469,450.946,49.059,452.537z"/>
					<path style="fill:#FD8A02;" d="M72.819,446.439c-3.234-4.484-7.964-8.113-13.765-10.399c0.362,6.189,2.394,11.842,5.655,16.315       C66.669,449.554,69.626,447.518,72.819,446.439z"/>
					<path style="fill:#FD8A02;" d="M82.861,446.439c-0.169-4.946-1.854-10.108-5.021-14.82c-3.167,4.712-4.852,9.874-5.021,14.82       c1.62-0.502,3.304-0.762,5.021-0.802C79.556,445.677,81.241,445.937,82.861,446.439z"/>
					<path style="fill:#FD8A02;" d="M90.97,452.355c3.262-4.473,5.293-10.127,5.655-16.315c-5.801,2.286-10.531,5.915-13.765,10.399       C86.054,447.518,89.01,449.554,90.97,452.355z"/>
					<path style="fill:#FD8A02;" d="M106.621,452.537c-5.41-1.591-10.892-1.552-15.65-0.182c2.044,2.747,3.07,6.107,3.119,9.532       C98.722,460.178,103.136,457.015,106.621,452.537z"/>
					<path style="fill:#FD8A02;" d="M108.246,471.764c-3.971-4.826-8.954-8.17-14.157-9.878c-0.049,3.425-1.075,6.784-3.119,9.532       C96.189,473.124,102.238,473.352,108.246,471.764z"/>
					<path style="fill:#FD8A02;" d="M82.861,477.335c3.058,3.942,7.438,7.086,12.759,9.017c-0.171-5.623-1.849-10.795-4.65-14.933       C89.01,474.22,86.054,476.256,82.861,477.335z"/>
					<path style="fill:#FD8A02;" d="M72.819,477.335c-0.008,5.488,1.677,11.247,5.021,16.529c3.344-5.282,5.029-11.041,5.021-16.529       c-1.62,0.501-3.304,0.761-5.021,0.802C76.123,478.096,74.438,477.836,72.819,477.335z"/>
					<path style="fill:#FD8A02;" d="M64.709,471.419c-2.801,4.139-4.478,9.31-4.65,14.933c5.321-1.931,9.701-5.075,12.759-9.017       C69.626,476.256,66.669,474.22,64.709,471.419z"/>
					<path style="fill:#FD8A02;" d="M47.433,471.764c6.008,1.588,12.057,1.36,17.276-0.346c-2.044-2.748-3.07-6.107-3.119-9.532       C56.388,463.595,51.405,466.938,47.433,471.764z"/>
				</g>
				<circle style="fill:#FC09B2;" cx="77.582" cy="462.295" r="9.118"/>
			</g>
		</g>
		<g>
			<circle style="fill:#915EFD;" cx="436.154" cy="305.922" r="8.021"/>
			<path style="fill:#915EFD;" d="M111.626,387.331c-4.43,0-8.021,3.591-8.021,8.021c0,4.43,3.591,8.021,8.021,8.021     c4.43,0,8.021-3.591,8.021-8.021C119.647,390.922,116.056,387.331,111.626,387.331z"/>
			<path style="fill:#915EFD;" d="M342.182,6.403c-4.43,0-8.021,3.591-8.021,8.021c0,4.43,3.591,8.021,8.021,8.021     s8.021-3.591,8.021-8.021C350.203,9.994,346.612,6.403,342.182,6.403z"/>
			<path style="fill:#915EFD;" d="M68.203,77.829c-4.43,0-8.021,3.591-8.021,8.021c0,4.43,3.591,8.021,8.021,8.021     c4.43,0,8.021-3.591,8.021-8.021C76.224,81.42,72.633,77.829,68.203,77.829z"/>
			<path style="fill:#915EFD;" d="M381.135,174.836c-4.43,0-8.021,3.591-8.021,8.021c0,4.43,3.591,8.021,8.021,8.021     c4.43,0,8.021-3.591,8.021-8.021C389.155,178.427,385.564,174.836,381.135,174.836z"/>
			<path style="fill:#915EFD;" d="M412.441,478.757c-4.43,0-8.021,3.591-8.021,8.021c0,4.43,3.591,8.021,8.021,8.021     c4.43,0,8.02-3.591,8.02-8.021C420.462,482.348,416.871,478.757,412.441,478.757z"/>
		</g>
	</g>
</g>















</svg>
