<?xml version="1.0" encoding="UTF-8"?>
<!-- Generator: Adobe Illustrator 25.2.1, SVG Export Plug-In . SVG Version: 6.00 Build 0)  -->
<svg xmlns="http://www.w3.org/2000/svg" xmlns:xlink="http://www.w3.org/1999/xlink" version="1.1" id="Capa_1" x="0px" y="0px" viewBox="0 0 512 512" style="enable-background:new 0 0 512 512;" xml:space="preserve" width="512" height="512">
<g>
	<g>
		<g>
			<g>
				<g>
					<g>
						<path style="fill:#FC09B2;" d="M9.013,176.417c0.463,3.274,3.492,5.552,6.765,5.089c3.274-0.463,5.552-3.492,5.089-6.765        c-0.463-3.274-3.492-5.552-6.765-5.089S8.551,173.143,9.013,176.417z"/>
						<path style="fill:#FC09B2;" d="M15.999,226.29c0.463,3.274,3.492,5.552,6.766,5.089c3.274-0.463,5.552-3.492,5.089-6.766        c-0.463-3.274-3.492-5.552-6.766-5.089C17.815,219.987,15.536,223.016,15.999,226.29z"/>
					</g>
					<path style="fill:#000E3F;" d="M63.817,196.312l-27.279,3.857l-7.865-55.633l7.73-1.094c0.883-0.125,1.499-0.942,1.374-1.826       c-0.126-0.884-0.927-1.49-1.826-1.373l-9.331,1.32c-0.883,0.125-1.499,0.942-1.374,1.826l4.045,28.608L29.278,172l-7.186,1.02       c-1.189-3.326-4.588-5.487-8.206-4.977c-2.015,0.291-3.812,1.335-5.025,2.962c-1.214,1.627-1.724,3.617-1.457,5.632       c0.291,2.015,1.335,3.787,2.962,5.025c1.117,0.825,2.379,1.335,3.739,1.481l4.977,35.275c-3.181,1.262-5.171,4.588-4.686,8.108       c0.534,3.787,3.812,6.531,7.526,6.531c0.34,0,0.704-0.024,1.068-0.073c0.34-0.049,0.68-0.121,0.995-0.218l22.942,40.64       c0.291,0.534,0.85,0.826,1.408,0.826c0.267,0,0.558-0.073,0.801-0.194c0.777-0.461,1.044-1.432,0.607-2.209L26.826,231.26       c1.918-1.627,3.01-4.2,2.622-6.871c-0.51-3.666-3.569-6.361-7.162-6.506l-4.977-35.08c1.481-0.461,2.743-1.384,3.714-2.646       c0.85-1.165,1.384-2.525,1.505-3.933l7.21-1.044h0l3.823,27.042c0.061,0.424,0.287,0.807,0.629,1.065       c0.282,0.212,0.622,0.324,0.971,0.324c0.075,0,0.151-0.005,0.226-0.016l28.88-4.083c0.883-0.125,1.499-0.942,1.374-1.826       C65.517,196.802,64.714,196.192,63.817,196.312z M22.748,221.185c1.797,0.34,3.253,1.772,3.496,3.666       c0.194,1.311-0.243,2.573-1.068,3.496c-0.655,0.753-1.578,1.287-2.646,1.433c-0.073,0-0.146,0.024-0.218,0.024       c-2.306,0.218-4.37-1.432-4.71-3.739c-0.243-1.723,0.583-3.374,1.966-4.273c0.51-0.34,1.092-0.583,1.748-0.68       c0.194-0.024,0.413-0.024,0.607-0.024C22.214,221.088,22.481,221.112,22.748,221.185z M18.44,178.225       c-0.703,0.907-1.776,1.567-2.878,1.689c-2.363,0.263-4.597-1.325-4.953-3.714c-0.17-1.165,0.146-2.306,0.85-3.253       c0.68-0.922,1.724-1.529,2.865-1.699c1.157-0.172,2.321,0.151,3.253,0.85c1.419,1.065,1.976,2.87,1.602,4.588       C19.059,177.237,18.797,177.763,18.44,178.225z"/>
				</g>
				<g>
					<g>
						<path style="fill:#915EFD;" d="M49.175,197.453c-2.31,0-4.295-1.727-4.617-4.015L31.18,98.837        c-0.357-2.549,1.423-4.915,3.969-5.274l6.293-0.89c0.221-0.032,0.442-0.047,0.661-0.047c2.316,0,4.307,1.724,4.629,4.011        l13.378,94.603c0.359,2.547-1.427,4.915-3.986,5.277l-6.291,0.89C49.612,197.438,49.391,197.453,49.175,197.453z"/>
						<path style="opacity:0.25;fill:#000E3F;" d="M38.521,94.717l14.23,100.645l-3.146,0.445c-1.671,0.236-3.212-0.923-3.448-2.594        L32.782,98.61c-0.236-1.671,0.924-3.213,2.594-3.449L38.521,94.717z"/>
					</g>
					<path style="fill:#000E3F;" d="M42.101,94.241c1.499,0,2.817,1.097,3.033,2.623l13.376,94.602       c0.236,1.671-0.941,3.215-2.612,3.451l-6.291,0.89c-0.145,0.021-0.29,0.031-0.432,0.031c-1.497,0-2.801-1.1-3.016-2.625       L32.782,98.61c-0.236-1.671,0.923-3.213,2.594-3.449l6.292-0.89C41.813,94.251,41.958,94.241,42.101,94.241L42.101,94.241z        M42.101,91.01c-0.295,0-0.593,0.021-0.886,0.063l-6.292,0.89c-3.43,0.485-5.826,3.67-5.34,7.1l13.376,94.602       c0.436,3.081,3.107,5.403,6.215,5.403c0.294,0,0.592-0.02,0.884-0.062l6.291-0.89c1.659-0.235,3.13-1.099,4.143-2.434       c1.02-1.344,1.452-3.002,1.216-4.668L48.333,96.412C47.897,93.332,45.218,91.01,42.101,91.01L42.101,91.01z"/>
				</g>
			</g>
			<g>
				<g>
					<path style="fill:#FFBBEC;" d="M295.498,263.377c-2.632-14.083-16.183-23.365-30.266-20.733l-156.035,33.637       c-13.392-12.869-39.259-10.916-51.89,1.88c-10.656,10.796-5.522,27.686,5.917,35.422c15.11,10.219,44.141,3.736,52.233-11.302       l155.911-8.235c1.077-0.065,2.31-0.202,3.398-0.405C288.848,291.01,298.13,277.46,295.498,263.377z"/>
					<path style="fill:#000E3F;" d="M81.64,320.172c-7.413,0-14.21-1.792-19.32-5.249c-6.831-4.619-11.56-12.388-12.34-20.273       c-0.659-6.66,1.534-12.919,6.177-17.622c13.579-13.756,39.796-14.889,53.525-2.501l155.211-33.461       c7.274-1.359,14.606,0.186,20.68,4.345c6.072,4.159,10.161,10.435,11.513,17.67v-0.001c1.353,7.236-0.193,14.565-4.352,20.637       c-4.16,6.073-10.436,10.161-17.672,11.514c-1.085,0.203-2.363,0.356-3.597,0.43l-155.039,8.188       c-4.051,6.787-12.501,12.297-22.827,14.837C89.549,319.683,85.51,320.172,81.64,320.172z M84.975,269.242       c-9.853,0-19.947,3.398-26.519,10.055c-5.071,5.137-5.66,11.011-5.262,15.034c0.689,6.954,4.878,13.819,10.934,17.915       c6.929,4.687,17.924,5.953,28.697,3.302c9.856-2.424,17.784-7.67,21.208-14.031c0.268-0.497,0.775-0.819,1.337-0.848       l155.91-8.235c1.076-0.065,2.242-0.203,3.187-0.38c6.388-1.194,11.926-4.803,15.599-10.163       c3.672-5.36,5.036-11.83,3.842-18.217c0,0,0,0,0-0.001c-1.194-6.386-4.803-11.925-10.163-15.598       c-5.358-3.672-11.83-5.039-18.217-3.843l-155.991,33.629c-0.519,0.115-1.071-0.043-1.46-0.415       C102.353,271.944,93.759,269.242,84.975,269.242z"/>
				</g>
				<g>
					<path style="fill:#FD8A02;" d="M96.658,356.395c-2.454,0-4.684-1.246-5.967-3.332l-53.628-87.16       c-2.023-3.283-0.996-7.603,2.289-9.629c1.108-0.681,2.375-1.04,3.667-1.04c2.452,0,4.684,1.245,5.967,3.332l53.628,87.16       c1.721,2.794,1.25,6.466-1.124,8.73c-0.352,0.336-0.745,0.64-1.166,0.899C99.217,356.036,97.95,356.395,96.658,356.395       L96.658,356.395z"/>
					<path style="fill:#000E3F;" d="M43.02,256.848c1.808,0,3.573,0.911,4.59,2.563l53.629,87.16       c1.356,2.202,0.935,4.999-0.863,6.715c-0.27,0.258-0.569,0.49-0.899,0.693c-0.88,0.542-1.856,0.8-2.819,0.8       c-1.808,0-3.574-0.91-4.59-2.564l-53.629-87.16c-1.56-2.533-0.761-5.852,1.762-7.407       C41.082,257.107,42.057,256.848,43.02,256.848L43.02,256.848z M43.02,253.618c-1.592,0-3.152,0.443-4.513,1.28       c-4.045,2.495-5.308,7.812-2.82,11.853l53.629,87.159c1.579,2.568,4.324,4.101,7.342,4.101c1.592,0,3.152-0.443,4.512-1.279       c0.518-0.32,1-0.692,1.436-1.108c2.919-2.786,3.501-7.305,1.384-10.746l-53.629-87.16       C48.782,255.151,46.037,253.618,43.02,253.618L43.02,253.618z"/>
				</g>
				<g>
					<g>
						<path style="fill:#FFBBEC;" d="M64.513,317.983c-0.238,0.062-0.497,0.141-0.707,0.182c-2.275,0.445-4.686-0.312-6.291-1.976        c-1.517-1.574-2.101-3.694-1.602-5.817c0.044-0.187,0.113-0.373,0.177-0.56c-1.246-0.188-2.469-0.669-3.461-1.472        c-1.404-1.137-2.186-2.687-2.204-4.366c-0.01-0.933,0.201-1.879,0.563-2.819c-1.855-0.191-3.427-0.989-4.45-2.392        c-1.856-2.547-1.233-6.204,1.586-9.317c1.398-1.544,3.286-2.943,5.617-4.158c6.349-3.312,10.451-2.114,12.171,0.113        c1.168,1.512,1.352,3.495,0.646,5.56c0.879-0.099,1.737-0.148,2.531-0.081c1.627,0.136,3.018,0.949,3.918,2.289        c0.946,1.407,1.234,3.233,0.752,4.761c-0.131,0.416-0.318,0.84-0.532,1.265c2.549-0.125,4.425,0.824,5.599,2.864        c0.96,1.668,1.477,4.272-0.931,7.495c0.246,0.019,0.502,0.012,0.739,0.055c1.785,0.327,3.108,1.378,3.723,2.959        c0.784,2.01,0.097,4.352-1.932,6.593c-2.544,2.81-7.406,5.523-11.408,5.018c-1.903-0.241-3.347-1.201-4.176-2.774        C64.282,320.346,64.186,319.182,64.513,317.983z"/>
						<path style="fill:#000E3F;" d="M63.616,322.047c1.048,1.957,2.902,3.201,5.227,3.495c4.468,0.561,9.82-2.388,12.603-5.462        c2.395-2.645,3.181-5.488,2.189-8.013c-0.647-1.64-1.873-2.843-3.528-3.447c1.609-3.22,0.722-5.811-0.094-7.238        c-1.199-2.094-2.91-3.116-4.85-3.429c0.463-1.828,0.083-3.914-1.009-5.545c-1.143-1.7-2.902-2.72-4.944-2.895        c-0.302-0.021-0.604-0.042-0.905-0.039c0.2-1.791-0.222-3.502-1.302-4.917c-2.069-2.653-6.801-4.187-13.896-0.478        c-2.475,1.29-4.494,2.786-6,4.448c-3.274,3.616-3.938,7.944-1.678,11.044c0.942,1.289,2.25,2.174,3.789,2.652        c-0.116,0.583-0.17,1.175-0.177,1.765c0.032,2.092,0.993,4.017,2.723,5.424c0.79,0.647,1.692,1.119,2.67,1.432        c-0.307,2.313,0.443,4.574,2.093,6.297c1.662,1.734,4.042,2.651,6.429,2.497C62.996,320.477,63.216,321.272,63.616,322.047z         M65.478,289.709c-4.799,0.767-10.114,3.497-13.319,7.037c-0.833,0.92-1.506,1.891-1.999,2.866        c-3.61-0.976-4.743-5.143-1.012-9.238c1.209-1.335,2.912-2.659,5.222-3.868C61.97,282.544,66.357,285.37,65.478,289.709z         M72.446,297.509c-0.041,0.147-0.094,0.281-0.172,0.418c-2.917,0.385-6.071,1.793-8.81,3.349        c-1.896,1.081-4.75,2.714-6.712,4.881c-0.616,0.68-1.099,1.366-1.473,2.082c-1.884-0.629-3.454-2.211-3.485-4.279        c0.001-0.457,0.051-0.917,0.161-1.368c0.215-0.997,0.697-1.96,1.349-2.882c0.27-0.374,0.564-0.75,0.895-1.115        c2.396-2.645,6.236-4.785,9.857-5.771c1.211-0.325,2.392-0.54,3.484-0.582c0.504-0.025,0.985-0.025,1.432,0.013        C71.92,292.494,73.069,295.529,72.446,297.509z M77.22,308.137c-4.198,0.028-9.177,2.741-11.812,5.651        c-0.89,0.983-1.548,2.014-1.955,3.045c-3.411,0.602-6.709-2.086-6.303-5.547c0.014-0.193,0.053-0.388,0.103-0.595        c0.176-0.827,0.63-1.607,1.208-2.322c0.09-0.125,0.204-0.251,0.318-0.377c1.677-1.852,4.287-3.316,6.089-4.344        c1.311-0.739,3.257-1.774,5.281-2.44l0.011-0.013c1.314-0.438,2.673-0.698,3.88-0.613c1.473,0.095,2.743,0.718,3.585,2.168        C78.666,304.54,78.337,306.397,77.22,308.137z M66.055,320.771c-0.28-0.552-0.393-1.136-0.325-1.692        c0.063-1.158,0.726-2.346,1.718-3.442c0.091-0.101,0.194-0.214,0.298-0.303c0.011-0.013,0.011-0.013,0.023-0.025        c1.637-1.681,4.033-3.112,6.366-3.865c1.574-0.523,3.129-0.721,4.394-0.446c1.179,0.242,2.09,0.907,2.545,2.076        c0.634,1.629-0.163,3.497-1.669,5.16C75.834,322.175,68.273,324.98,66.055,320.771z"/>
					</g>
					<g>
						<path style="fill:#FFBBEC;" d="M107.643,274.884c-6.369-5.016-14.069-8.303-22.09-9.615        c-13.707-2.243-29.01,4.175-38.543,13.911c-2.888,2.949-7.765,8.882-2.156,11.642c5.194,2.556,12.484-1.044,17.367-4.188        c5.244-3.376,5.607-3.996,6.405-2.986c4.46,5.649,17.053,11.529,24.149,10.105L107.643,274.884z"/>
						<path style="fill:#000E3F;" d="M90.388,295.586c-7.721,0.001-18.277-5.297-22.724-10.562        c-0.461,0.268-1.176,0.741-1.968,1.265c-0.701,0.465-1.555,1.029-2.601,1.703c-5.462,3.519-13.183,7.119-18.955,4.28        c-2.433-1.197-3.192-2.904-3.4-4.124c-0.47-2.752,1.251-6.149,5.115-10.096c10.559-10.782,26.606-16.56,39.96-14.376        c8.428,1.378,16.321,4.816,22.829,9.94c0.701,0.552,0.822,1.568,0.27,2.268c-0.552,0.7-1.567,0.823-2.268,0.27        c-6.081-4.787-13.464-8-21.353-9.29c-12.342-2.016-27.273,3.382-37.129,13.448c-2.967,3.031-4.512,5.69-4.238,7.292        c0.044,0.26,0.179,1.05,1.642,1.77c3.441,1.697,9.047,0.239,15.779-4.097c1.034-0.665,1.876-1.223,2.568-1.681        c2.943-1.947,4.424-2.924,5.979-0.948c4.095,5.185,16.017,10.84,22.564,9.522c0.868-0.178,1.727,0.392,1.902,1.265        c0.175,0.875-0.393,1.727-1.268,1.902C92.244,295.507,91.338,295.586,90.388,295.586z"/>
					</g>
				</g>
			</g>
		</g>
		<g>
			<g>
				<g>
					<path style="fill:#FFCF00;" d="M372.44,253.014c-8.31,33.009-16.334,49.881-13.911,61.315c0.915,4.29,3.913,7.161,7.503,12.259       c0.88,1.238,1.706,2.531,2.513,3.859c19.475,32.703,14.019,92.42,16.1,151.598c-90.823,39.039-182.614-11.272-221.366-37.603       c-1.49-1.005-2.639-2.351-3.41-3.877c-1.274-2.513-1.49-5.492-0.449-8.256c19.69-51.998,40.475-113.097,55.212-132.518       c4.236-5.6-2.298-4.685-8.975-30.926c-11.469-44.927,12.492-84.056,49.09-111.572c24.68-18.559,62.912-14,91.092-1.759       c26.655,11.577,47.691,27.713,45.573,33.349C383.64,209.793,377.896,231.404,372.44,253.014z"/>
					<path style="opacity:0.5;fill:#FD8A02;" d="M384.645,482.045c-90.823,39.039-182.614-11.272-221.366-37.603       c-1.49-1.005-2.639-2.351-3.41-3.877c8.544-4.272,18.829-5.492,30.424-3.805c20.354,2.979,38.34,14.951,58.514,18.649       c36.006,6.623,80.286-9.046,94.574-45.088c10.159-25.757,6.013-56.809,24.518-79.12c0.216-0.251,0.431-0.503,0.646-0.754       C388.019,363.15,382.563,422.867,384.645,482.045z"/>
					<path style="fill:#FD8A02;" d="M348.939,171.232c-20.169,15.145-55.497,40.875-88.422,68.943       c-13.939,11.915-15.741,14.483-19.284,15.005c-3.589,0.53-5.342-2.487-6.346-5.976c-6.77-25.927,0.958-59.459,12.618-83.62       c0.378-0.785,1.321-1.113,2.105-0.735c0.748,0.361,1.082,1.235,0.782,1.996l-0.012,0.031       c-8.75,22.04-15.22,50.717-11.053,74.122c0.456,2.199,1.056,5.838,1.906,7.836c0.38,0.961,0.499,0.548-0.128,0.314       c-0.747-0.301-1.019,0.189-0.222-0.333c3.171-1.911,42.339-39.475,106.372-80.024c0.692-0.438,1.608-0.232,2.046,0.46       C349.718,169.909,349.549,170.771,348.939,171.232z"/>
				</g>
				<path style="fill:#000E3F;" d="M314.373,497.879c-66.349,0-125.139-33.847-152.003-52.101c-1.662-1.122-3.027-2.674-3.944-4.485      c-1.501-2.961-1.69-6.444-0.517-9.555c3.839-10.14,7.779-20.788,11.592-31.084c16.371-44.236,31.837-86.018,43.844-101.841      c1.521-2.012,1.362-2.32-0.594-6.104c-1.984-3.838-5.304-10.263-8.659-23.448c-10.484-41.066,7.162-81.29,49.684-113.261      c26.266-19.754,66.359-13.396,92.706-1.95c24.293,10.552,49.341,27.684,46.444,35.399c-7.97,21.441-13.716,43.353-18.918,63.96      c-2.826,11.223-5.562,20.396-7.975,28.489c-4.479,15.018-7.437,24.94-5.921,32.095c0.603,2.827,2.268,5.019,4.573,8.052      c0.832,1.096,1.73,2.278,2.67,3.611c0.805,1.133,1.623,2.391,2.571,3.95c15.206,25.535,15.446,67.361,15.699,111.644      c0.077,13.314,0.156,27.081,0.636,40.737c0.023,0.666-0.364,1.278-0.976,1.541C361.42,493.787,337.435,497.879,314.373,497.879z       M296.654,146.475c-14.789,0-29.313,3.367-40.936,12.108c-55.877,42.011-54.368,86.877-48.496,109.881      c3.264,12.828,6.479,19.046,8.398,22.762c2.032,3.929,3.05,5.902,0.3,9.538c-11.718,15.443-27.819,58.944-43.39,101.011      c-3.812,10.302-7.756,20.955-11.599,31.105c-0.852,2.262-0.715,4.797,0.379,6.953c0.668,1.322,1.662,2.452,2.871,3.269      c35.634,24.212,128.086,76.202,218.811,37.891c-0.449-13.338-0.524-26.746-0.599-39.724      c-0.251-43.831-0.487-85.23-15.236-109.996c-0.899-1.479-1.677-2.675-2.442-3.75c-0.919-1.303-1.793-2.455-2.605-3.522      c-2.463-3.24-4.407-5.799-5.16-9.335c-1.688-7.963,1.366-18.198,5.986-33.691c2.403-8.062,5.129-17.2,7.937-28.356v-0.001      c5.225-20.692,10.997-42.702,19.025-64.3c1.35-3.593-16.179-18.916-44.703-31.305      C331.448,151.043,313.874,146.475,296.654,146.475z"/>
			</g>
			<g>
				<g>
					<path style="fill:#FFBBEC;" d="M345.841,155.534c-50.912,35.419-89.423,70.827-94.527,73.871       c-7.635,4.542-2.697-24.391-2.256-26.795c5.636-30.815,13.38-45.479,19.44-55.983c6.159-10.708,10.559-17.084,9.148-31.786       c-0.021-0.256-0.039-0.53-0.042-0.784c-0.907-16.754,23.067-15.288,33.732-12.121c14.132,4.199,25.316,14.892,29.677,29.038       C341.638,132.974,347.758,154.029,345.841,155.534z"/>
					<path style="opacity:0.35;fill:#FC09B2;" d="M318.834,127.678c-1.996,9.044-27.154,20.384-50.336,18.949       c6.159-10.708,10.559-17.084,9.148-31.786c-0.021-0.256-0.039-0.53-0.042-0.784c13.593,3.893,32.065,7.012,34.586,6.563       C316.305,119.872,319.881,122.982,318.834,127.678z"/>
				</g>
				<path style="fill:#000E3F;" d="M249.843,231.501c-0.84,0-1.466-0.31-1.848-0.576c-1.199-0.833-4.782-5.36-0.528-28.605      c5.555-30.363,13.047-45.084,19.632-56.499l1.197-2.07c5.425-9.357,9.01-15.54,7.742-28.755      c-0.026-0.319-0.047-0.634-0.051-0.927c-0.261-4.803,1.36-8.663,4.824-11.395c7.756-6.124,22.778-4.723,30.983-2.286      c14.804,4.399,26.303,15.656,30.76,30.11c1.746,5.584,7.222,24.001,4.284,26.308c-0.025,0.019-0.049,0.038-0.075,0.055      c-36.021,25.059-65.909,50.184-81.965,63.682c-6.897,5.797-11.06,9.297-12.659,10.251      C251.257,231.318,250.488,231.501,249.843,231.501z M296.948,101.54c-5.365,0-10.699,0.956-14.137,3.669      c-2.626,2.074-3.802,4.938-3.595,8.761c0.003,0.292,0.021,0.523,0.04,0.741c1.365,14.224-2.633,21.118-8.167,30.661      l-1.192,2.062c-6.452,11.183-13.79,25.612-19.251,55.469c-2.216,12.104-2.605,24.436-0.801,25.375      c-0.002-0.004,0.193,0.007,0.642-0.26c1.372-0.819,5.928-4.649,12.233-9.948c16.046-13.489,45.874-38.563,81.868-63.63      c0.424-2.768-3.287-17.122-5.12-22.983c-4.139-13.426-14.827-23.88-28.594-27.971      C307.309,102.426,302.114,101.54,296.948,101.54z M345.842,155.534h0.017H345.842z"/>
			</g>
		</g>
		<g>
			<g>
				<path style="fill:#915EFD;" d="M325.914,288.731c-1.481-1.289-2.719-2.367-3.583-3.177c-14.135-13.2-26.153-28.09-35.718-44.259      c-0.635-1.07-1.276-2.134-1.918-3.197c-4.869-8.063-9.467-15.678-10.024-25.031c-0.059-1.036,1.181-2.25,5.935-6.726      c1.399-1.317,3.08-2.9,5.092-4.831c0.368-0.353,0.754-0.714,1.153-1.087c4.833-4.505,12.135-11.314,12.649-31.482l-1.614-0.033      l1.618-0.17c0.212-10.024-4.093-11.186-9.542-12.657l-1.273-0.348c-3.59-0.975-7.537-2.344-12.068-5.726      c-2.764-2.07-6.401-4.489-10.737-6.271c0.914-7.349,0.031-15.243-2.72-20.46c-1.623-3.081-3.728-3.728-5.21-3.728      c-5.482,0-11.604,9.161-15.59,16.948c-0.305-0.366-0.614-0.74-0.931-1.123c-3.365-4.08-7.555-9.157-13.637-11.562      c-0.289-0.113-0.578-0.22-0.734-0.251c-0.69-0.207-1.365-0.311-2.007-0.311c-7.385,0-7.746,12.649-7.919,18.728l-0.044,1.344      c-0.102,2.363-0.086,3.995-0.075,5.186c0.025,2.776,0.025,2.776-2.305,5.793l-0.829,1.077      c-5.819,7.597-8.989,16.403-9.162,25.466c-0.101,5.323,0.64,8.877,1.182,11.472c0.629,3.018,0.801,4.129-0.116,5.472      c-0.68,0.995-4.792,3.509-9.148,6.17c-9.839,6.013-24.708,15.1-35.958,27.094c-33.467,35.655-45.204,87.445-30.633,135.158      c0.991,3.26,0.298,4.618-1.379,7.898c-1.117,2.184-2.507,4.903-3.862,9.156c-4.936,15.5-5.371,36.027-1.164,54.909      c6.599,29.639,25.164,63.889,57.474,71.131c3.174,0.713,6.399,1.074,9.585,1.074c14.159,0,24.282-6.754,28.648-12.539      c2.641-3.5,3.618-7.108,2.748-10.158c-1.266-4.453-5.579-7.337-11.131-7.344c-2.79,0.236-5.613,1.387-8.603,2.606      c-3.84,1.566-7.812,3.185-12.28,3.185c-6.68,0-13.252-3.858-20.089-11.797c-24.836-28.831-22.484-66.745-14.798-85.422      c0.829,0.202,2.596,1.22,4.312,2.208c6.21,3.575,17.769,10.228,35.541,10.227c2.906,0,5.91-0.179,8.927-0.53      c0.117-0.014,0.231-0.021,0.338-0.021c1.195,0,1.692,0.952,2.777,4.224c1.404,4.24,3.527,10.648,12.57,11.888      c0.638,0.088,1.418,0.132,2.321,0.132c10.123,0,38.24-5.633,62.605-15.817c2.668-1.107,4.424-3.253,4.819-5.889      c0.464-3.108-1.078-6.386-4.239-8.996c-3.006-2.463-6.568-3.513-11.91-3.513c-3.474,0-7.462,0.422-12.509,0.957      c-4.275,0.453-9.123,0.967-14.831,1.343c0,0-1.013,0.068-1.264,0.081c0.088-0.462,0.224-1.066,0.358-1.657      c0.263-1.159,0.603-2.667,0.964-4.629c0.489-2.696,0.868-5.364,1.155-8.151c0.836-7.871,0.461-14.182,0.1-20.286      c-0.4-6.729-0.778-13.085,0.444-21.152c3.706-24.607,20.58-38.795,25.427-38.795c0.003,0,0.005,0,0.007,0      c0.633,0.082,1.353,0.371,2.284,0.918c1.546,0.884,3.577,2.376,6.389,4.44c1.267,0.93,2.696,1.979,4.324,3.152      c0.824,0.59,2.016,1.478,3.504,2.586c11.858,8.826,39.623,29.496,53.251,29.496c4.379,0,6.44-2.112,7.399-3.884      C356.62,315.485,336.645,298.081,325.914,288.731z"/>
				<path style="opacity:0.25;fill:#000E3F;" d="M276.193,290.048c-1.11-0.652-2.023-1.006-2.877-1.118      c-4.885-0.711-23.275,13.83-27.238,40.157c-2.373,15.674,1.179,25.206-0.552,41.507c-0.341,3.304-0.756,5.929-1.14,8.033      c-19.793-10.749-31.354-33.8-33.923-54.319c-5.552-43.97,32.138-65.33,65.425-34.554      C276,289.859,276.096,289.962,276.193,290.048z"/>
				<path style="fill:#FC09B2;" d="M247.013,142.872c-4.126,4.566-13.768,8.393-16.194,1.197c-1.568-4.622-3.952-13.259-4.221-18.96      c0.193,0.043,0.4,0.125,0.606,0.206C237.051,129.207,241.656,140.651,247.013,142.872z"/>
				<g style="opacity:0.5;">
					<path style="fill:#FFFFFF;" d="M162.6,489.566c-1.165-1.328,0.417-3.282,1.958-2.418c2.076,1.164,3.495,2.204,5.358,3.343       c8.9,4.942,16.223,7.75,27.537,5.561c9.614-1.962,11.857-5.942,13.151-3.459c1.245,2.391-4.312,5.458-5.725,6.233       C192.004,505.888,175.789,504.597,162.6,489.566z"/>
					<path style="fill:#FFFFFF;" d="M186.759,228.754c-29.046,24.505-29.625,43.031-34.798,52.758       c-1.2,2.257-3.675,2.09-3.308-2.065c1.691-19.132,15.753-42.903,36.486-53.175       C186.706,225.495,188.113,227.612,186.759,228.754z"/>
				</g>
			</g>
			<g>
				<path style="fill:#000E3F;" d="M326.964,287.51c-1.432-1.262-2.695-2.355-3.52-3.132c-14.032-13.11-25.952-27.87-35.445-43.917      c-0.631-1.068-1.287-2.136-1.918-3.205c-4.758-7.866-9.25-15.295-9.784-24.229c0.364-0.752,2.598-2.864,5.414-5.511      c1.408-1.335,3.083-2.913,5.098-4.831c0.364-0.364,0.753-0.704,1.141-1.092c5.025-4.685,12.624-11.774,13.158-32.507v-0.146      c0-0.097,0.024-0.17,0.024-0.243c0.194-10.439-4.127-12.381-10.754-14.178c-0.389-0.097-0.826-0.219-1.238-0.34      c-3.472-0.947-7.235-2.258-11.556-5.462c-2.598-1.942-5.924-4.2-9.881-5.996c0.704-7.307-0.34-14.906-3.107-20.199      c-1.991-3.787-4.71-4.588-6.628-4.588c-0.024,0-0.024,0-0.024,0c-6.166,0-12.114,8.715-15.877,15.683      c-3.35-4.079-7.574-8.885-13.668-11.313c-0.243-0.097-0.583-0.218-0.971-0.316c-0.801-0.243-1.602-0.364-2.379-0.364      c-8.958,0-9.347,13.716-9.517,20.32c-0.024,0.486-0.049,0.923-0.049,1.311c-0.097,2.403-0.097,4.054-0.073,5.268      c0,1.141,0,1.87-0.097,2.161c-0.17,0.412-0.874,1.335-1.869,2.622l-0.85,1.092c-6.021,7.866-9.298,16.994-9.492,26.413      c-0.097,5.511,0.655,9.152,1.214,11.847c0.607,2.938,0.631,3.496,0.146,4.224c-0.728,0.85-4.953,3.423-8.667,5.705      c-9.905,6.045-24.884,15.197-36.294,27.36c-17.091,18.208-28.865,41.028-34.061,66.009c-4.928,23.597-3.86,48.069,3.059,70.719      c0.801,2.646,0.316,3.569-1.262,6.701c-1.092,2.112-2.573,5.025-3.981,9.395c-5.001,15.756-5.462,36.61-1.19,55.74      c6.7,30.128,25.661,64.965,58.702,72.37c3.277,0.728,6.628,1.117,9.929,1.117c14.76,0,25.345-7.113,29.934-13.182      c2.962-3.909,4.03-8.036,3.01-11.58c-1.457-5.171-6.385-8.497-12.527-8.521c-0.097,0-0.194,0-0.291,0.024      c-3.035,0.243-5.948,1.432-9.055,2.719c-3.715,1.505-7.526,3.059-11.678,3.059c-6.191,0-12.357-3.69-18.863-11.24      c-23.719-27.53-22.165-63.461-15.149-82.226c0.801,0.412,1.772,0.971,2.622,1.456c6.336,3.666,18.159,10.463,36.343,10.463      c2.986,0,6.045-0.194,9.128-0.558h0.121c0.388,0.461,0.923,2.039,1.262,3.107c1.432,4.346,3.86,11.604,13.886,12.988      c0.728,0.097,1.554,0.146,2.549,0.146c10.245,0,38.673-5.681,63.218-15.95c3.156-1.311,5.317-3.982,5.802-7.137      c0.534-3.69-1.214-7.502-4.807-10.463c-4.2-3.447-9.128-3.909-12.94-3.909c-3.569,0-7.599,0.437-12.673,0.971      c-4.054,0.437-8.594,0.923-13.911,1.287c0.243-1.093,0.558-2.501,0.874-4.249c0.51-2.719,0.898-5.438,1.19-8.278      c0.85-7.987,0.461-14.372,0.097-20.538c-0.388-6.652-0.753-12.915,0.437-20.805c3.69-24.544,20.101-37.265,23.646-37.435      c0.437,0.073,0.971,0.291,1.627,0.68c1.505,0.874,3.496,2.331,6.263,4.37c1.287,0.923,2.719,1.966,4.346,3.156      c0.825,0.583,2.015,1.481,3.496,2.573c35.493,26.413,47.607,29.812,54.211,29.812c5.171,0,7.647-2.573,8.813-4.734      C358.645,315.113,338.058,297.172,326.964,287.51z M257.944,121.163c1.432,0,2.743,0.85,3.787,2.865      c2.403,4.564,3.302,11.119,2.816,17.431c-3.229-1.117-6.798-1.845-10.706-1.845c-1.602,0-3.253,0.146-4.855,0.388      c-0.097,0.024-0.146,0.024-0.194,0.024c-0.146,0-0.316-0.048-0.534-0.121c-1.141-0.486-2.501-1.918-3.981-3.642      C248.258,128.762,253.696,121.163,257.944,121.163z M348.837,326.475c-1.141,2.112-3.229,3.035-5.972,3.035      c-14.833,0-48.773-26.729-55.813-31.779c-5.317-3.836-8.521-6.336-10.852-7.672c-1.117-0.655-2.039-1.02-2.889-1.141      c-0.121,0-0.243-0.025-0.364-0.025c-5.365,0-22.99,14.469-26.874,40.203c-2.379,15.659,1.189,25.2-0.559,41.49      c-0.34,3.302-0.753,5.948-1.141,8.036c-1.287,7.113-2.355,8.206-0.17,8.206c0.461,0,1.068-0.049,1.821-0.097      c12.406-0.801,20.927-2.282,27.239-2.282c4.564,0,7.987,0.777,10.876,3.132c5.535,4.564,4.443,10.245-0.17,12.139      c-23.889,10.002-51.953,15.707-61.979,15.707c-0.825,0-1.529-0.048-2.112-0.121c-13.595-1.869-9.347-16.12-15.562-16.12      c-0.17,0-0.34,0-0.534,0.025c-3.059,0.364-5.972,0.51-8.74,0.51c-24.228,0-36.246-12.454-40.106-12.454      c-0.534,0-0.898,0.243-1.141,0.777c-6.846,16.387-12.066,55.959,14.979,87.349c8.206,9.541,15.197,12.357,21.315,12.357      c8.376,0,15.076-5.292,21.024-5.802c4.079,0.024,8.23,1.991,9.42,6.166c2.282,7.963-11.24,20.66-29.837,20.66      c-2.962,0-6.045-0.34-9.225-1.044c-30.395-6.822-49.355-38.965-56.25-69.894c-3.739-16.8-4.224-37.314,1.117-54.089      c3.399-10.658,7.186-11.677,5.244-18.014c-13.28-43.553-4.783-96.234,30.274-133.572c16.97-18.087,42.728-29.764,45.277-33.454      c2.525-3.714-0.995-6.798-0.801-17.819c0.17-8.958,3.399-17.431,8.837-24.52c4.613-6.045,3.132-3.496,3.544-12.964      c0.17-4.661,0-18.548,6.336-18.548c0.486,0,0.996,0.097,1.554,0.267c0.194,0.024,0.388,0.121,0.607,0.194      c5.826,2.307,9.808,7.259,13.231,11.386c0.777,0.947,1.529,1.845,2.282,2.671c1.457,1.627,2.84,2.913,4.297,3.496      c0.583,0.243,1.165,0.388,1.772,0.388c0.243,0,0.461-0.025,0.704-0.073c1.481-0.218,2.938-0.34,4.346-0.34      c3.739,0,7.162,0.753,10.318,1.942c1.068,0.364,2.088,0.801,3.059,1.287c3.132,1.505,5.948,3.374,8.424,5.22      c4.904,3.642,9.152,5.05,12.624,5.996c1.151,0.323,2.208,0.595,3.171,0.882c-0.963-0.286-2.021-0.556-3.171-0.877      c-9.135,4.442,1.199,11.099,7.183,11.831c-0.506,2.397-1.992,4.352-4.253,5.386c-2.815,1.291-6.204,0.991-8.836-0.785      c-0.742-0.498-1.744-0.301-2.242,0.437c-0.5,0.74-0.303,1.744,0.436,2.243c2.088,1.406,4.531,2.125,6.969,2.125      c1.716,0,3.43-0.358,5.015-1.083c2.319-1.06,4.089-2.789,5.173-4.941c-0.001,0.008-0.001,0.019-0.001,0.027      c-1.287,18.159-8.643,23.476-13.134,27.822c-9.589,9.176-11.653,10.488-11.507,12.794c0.655,11.046,6.725,19.81,12.163,28.963      c9.832,16.63,21.922,31.463,36.003,44.621C327.765,292.851,355.465,314.214,348.837,326.475z"/>
				<path style="fill:#000E3F;" d="M149.529,381.456c-4.58-1.286-10.128-5.158-11.385-9.798c-0.235-0.861-1.12-1.367-1.982-1.137      c-0.861,0.233-1.371,1.121-1.138,1.981c1.587,5.853,8.058,10.5,13.632,12.065c0.146,0.04,0.293,0.061,0.437,0.061      c0.706,0,1.355-0.466,1.555-1.18C150.889,382.59,150.388,381.698,149.529,381.456z"/>
				<path style="fill:#000E3F;" d="M333.05,312.055c-0.593,0.667-0.531,1.688,0.135,2.281c3.109,2.758,4.934,6.774,4.88,10.741      c-0.01,0.892,0.703,1.625,1.595,1.637c0.007,0,0.014,0,0.021,0c0.882,0,1.604-0.709,1.616-1.593      c0.065-4.894-2.165-9.829-5.967-13.202C334.661,311.329,333.642,311.386,333.05,312.055z"/>
				<path style="fill:#000E3F;" d="M266.177,395.577c0.081-0.024,7.99-2.261,10.501,1.818c0.307,0.495,0.836,0.768,1.378,0.768      c0.289,0,0.582-0.077,0.847-0.24c0.759-0.468,0.996-1.464,0.528-2.223c-3.844-6.237-13.76-3.342-14.182-3.216      c-0.854,0.256-1.339,1.157-1.083,2.011C264.421,395.346,265.317,395.832,266.177,395.577z"/>
				<path style="fill:#000E3F;" d="M260.784,166.585c0.534,0,1.068-0.073,1.578-0.194c2.743-0.729,5.341-3.472,4.928-7.987      c-0.073-0.874-0.825-1.529-1.748-1.456c-0.874,0.073-1.529,0.849-1.457,1.748c0.243,2.816-1.214,4.224-2.549,4.564      c-1.262,0.316-3.083-0.145-4.224-2.428c-0.049-0.097-0.073-0.17-0.121-0.267c-0.364-0.825-1.311-1.19-2.136-0.825      c-0.68,0.291-1.044,0.995-0.947,1.675c0,0.17,0.049,0.316,0.121,0.461C255.711,165.226,258.381,166.585,260.784,166.585z"/>
				<path style="fill:#000E3F;" d="M270.158,174.501c-0.112-0.886-0.911-1.522-1.804-1.403      c-13.262,1.655-25.669,6.805-34.934,14.501c-0.685,0.571-0.78,1.589-0.21,2.275c0.319,0.385,0.78,0.583,1.244,0.583      c0.363,0,0.729-0.122,1.031-0.372c8.798-7.308,20.612-12.202,33.269-13.781C269.639,176.193,270.268,175.386,270.158,174.501z"/>
				<path style="fill:#000E3F;" d="M274.24,179.91c-0.242-0.859-1.124-1.359-1.991-1.12c-12.298,3.445-23.597,10.73-31.814,20.511      c-0.573,0.683-0.486,1.703,0.198,2.276c0.303,0.255,0.671,0.379,1.04,0.379c0.459,0,0.917-0.195,1.237-0.576      c7.802-9.289,18.531-16.207,30.212-19.478C273.981,181.66,274.482,180.769,274.24,179.91z"/>
			</g>
		</g>
		<g>
			<g>
				<path style="fill:#FFBBEC;" d="M406.364,215.089c-2.444-28.943-44.447-37.388-59.104,6.964      c-15.802,47.68-25.106,82.748-30.86,104.49c0,0-72.187-0.687-118.436-1.266c-1.608-8.016-7.221-16.877-17.637-25.493      c-2.943-2.435-21.271-16.716-24.648-9.488c-2.315,4.956,12.178,14.711,8.291,18.799c-2.377,2.5-8.044,0.218-11.624-1.155      c-18.856-7.228-31.849-20.413-35.073-12.604c-1.322,3.204,2.435,6.974,7.155,10.325c-3.036-1.565-6.025-3.154-8.911-4.793      c-3.433-1.949-6.686-1.359-8.095,0.577c-2.455,3.37,1.594,7.71,7.699,11.997c-2.285-1.292-5.132-2.559-7.816-2.4      c-3.408,0.203-4.214,3.225-2.432,5.872c3.787,5.623,16.737,12.958,23.082,16.431l-0.004-0.001      c0.005,0.002,0.009,0.004,0.013,0.007c0.167,0.091,0.348,0.191,0.506,0.277c-3.179-1.449-6.634-2.954-10.153-3.268      c-2.591-0.232-5.777,0.991-5.363,4.191c0.684,5.288,24.605,14.07,29.621,15.642c14.533,4.554,31.233,6.558,44.268-1.086      c2.417,0.777,5.265,1.193,8.19,2.126c32.452,10.352,94.471,27.668,128.953,25.985c9.844-0.48,17.557-2.179,24.454-9.604      c19.88-21.403,36.571-70.767,45.437-98.158C398.782,254.304,407.732,231.297,406.364,215.089z"/>
				<path style="fill:#000E3F;" d="M407.974,214.954c-1.148-13.591-10.687-23.757-23.737-25.297      c-13.008-1.533-29.965,6.035-38.51,31.889c-15.628,47.157-24.938,82.104-30.568,103.371      c-9.721-0.093-73.497-0.711-115.898-1.238c-2.112-8.509-8.275-17.174-17.905-25.138c-1.656-1.372-16.421-13.358-23.655-11.721      c-1.593,0.358-2.797,1.325-3.484,2.795c-1.544,3.306,1.607,7.251,4.656,11.067c2.095,2.622,4.964,6.213,3.928,7.302      c-1.562,1.646-6.755-0.351-9.546-1.423l-0.329-0.126c-6.968-2.671-13.273-6.254-18.338-9.134      c-7.055-4.01-12.156-6.915-15.726-5.682c-1.39,0.478-2.426,1.522-3.08,3.104c-0.64,1.552-0.44,3.106,0.221,4.571      c-4.27-2.265-8.181-1.136-9.884,1.203c-0.868,1.192-1.201,2.586-0.961,4.029c0.256,1.543,1.136,3.152,2.699,4.891      c-0.2-0.01-0.431,0.004-0.647,0.016c-2.023,0.12-3.623,1.076-4.389,2.624c-0.84,1.698-0.573,3.852,0.715,5.763      c2.004,2.976,6.4,6.589,13.336,10.942c-1.485,0.145-3.099,0.681-4.231,1.86c-1.05,1.092-1.495,2.523-1.286,4.137      c0.947,7.323,30.443,16.883,30.74,16.977c18.459,5.785,33.578,5.488,44.95-0.879c1.013,0.294,2.066,0.536,3.171,0.791      c1.411,0.324,2.869,0.66,4.33,1.126c19.789,6.313,85.227,26.176,124.527,26.176c1.714,0,3.386-0.038,4.995-0.117      c10.452-0.51,18.373-2.38,25.558-10.118c21.216-22.84,39.069-77.995,45.791-98.759c0.724-2.236,1.535-4.642,2.389-7.173      C402.866,247.775,409.167,229.098,407.974,214.954z M394.743,261.749c-0.859,2.544-1.676,4.963-2.403,7.21      c-6.661,20.577-24.354,75.239-45.083,97.556c-6.442,6.934-13.709,8.619-23.35,9.089c-37.935,1.857-107.859-19.364-128.383-25.91      c-1.586-0.506-3.111-0.858-4.587-1.197c-1.288-0.297-2.507-0.577-3.599-0.928c-0.161-0.052-0.328-0.077-0.494-0.077      c-0.284,0-0.566,0.075-0.817,0.222c-10.619,6.228-25.078,6.545-42.967,0.938c-9.758-3.058-28.077-11.016-28.503-14.308      c-0.109-0.835,0.182-1.248,0.412-1.485c0.622-0.649,1.916-1.004,3.206-0.89c3.167,0.284,6.491,1.673,9.757,3.16l0,0      c7.864,3.794,14.056,4.203,14.324,4.218c0.032,0.002,0.063,0.003,0.095,0.003c0.848,0,1.562-0.663,1.611-1.521      c0.051-0.891-0.629-1.655-1.52-1.706c-0.059-0.004-6.1-0.395-13.656-4.168c-12.428-6.809-20.036-12.176-22.572-15.941      c-0.62-0.922-0.812-1.89-0.498-2.526c0.309-0.622,1.087-0.795,1.686-0.831c1.779-0.091,4.148,0.778,6.818,2.247l0,0      c0.717,0.528,17.698,12.942,32.528,15.091c0.079,0.011,0.156,0.017,0.233,0.017c0.79,0,1.481-0.579,1.597-1.384      c0.128-0.883-0.484-1.702-1.367-1.83c-13.06-1.893-28.592-12.72-30.794-14.295l0,0c-5.949-4.178-7.84-7.105-8.073-8.507      c-0.1-0.602,0.019-1.095,0.386-1.598c0.903-1.241,3.25-1.679,5.991-0.124c2.576,1.462,5.395,2.978,8.852,4.762      c1.328,0.971,17.891,12.911,32.426,15.018c0.079,0.011,0.156,0.017,0.233,0.017c0.791,0,1.481-0.579,1.597-1.384      c0.128-0.882-0.484-1.702-1.367-1.83c-14.019-2.033-30.904-14.372-31.073-14.496c-0.005-0.003,0.005,0.003,0,0l0,0      c-5.017-3.561-7.385-6.557-6.621-8.407c0.382-0.928,0.836-1.176,1.143-1.281c2.189-0.757,7.236,2.115,13.081,5.436      c5.159,2.933,11.581,6.583,18.777,9.342l0.328,0.125c3.982,1.53,9.996,3.838,13.046,0.634c2.976-3.132-0.44-7.409-3.746-11.546      c-2.088-2.614-4.948-6.194-4.252-7.683c0.265-0.568,0.643-0.87,1.266-1.009c4.352-0.983,15.101,6.269,20.888,11.058      c9.534,7.888,15.441,16.383,17.081,24.566c0.151,0.748,0.803,1.288,1.564,1.298c37.627,0.471,93.008,1.019,111.858,1.202      c0.181,0.074,0.376,0.124,0.583,0.127c3.8,0.056,7.176,0.075,10.019,0.075c6.124,0,9.767-0.089,9.819-0.09      c0.892-0.023,1.597-0.764,1.574-1.656c-0.021-0.878-0.74-1.575-1.614-1.575c-0.012,0-0.026,0-0.04,0      c-0.058,0.001-4.437,0.109-11.679,0.087c5.636-21.288,14.888-55.905,30.331-102.503c7.935-24.009,23.316-31.074,35.064-29.695      c11.483,1.355,19.881,10.341,20.897,22.36C405.891,228.701,399.709,247.026,394.743,261.749z"/>
			</g>
			<g>
				<g>
					<path style="fill:#FFCF00;" d="M339.928,206.683c-7.982,19.183-15.441,38.606-23.391,57.735       c-4.758,11.45,25.824,19.331,38.096,14.662c1.602-0.61,4.842-1.532,4.842-1.532s2.06,2.524,3.097,3.853       c10.649,13.659,35.246,12.342,37.095,6.37c7.342-23.717,11.96-51.067,6.264-75.667c-4.858-20.981-23.691-38.349-42.263-47.701       L339.928,206.683z"/>
					<path style="fill:#FD8A02;" d="M339.897,255.1c7.431,2.293,16.119-1.321,25.649-0.287       c10.858,0.931,15.707,10.478,22.614,14.185c3.543,1.922,7.598,1.962,7.421,1.937c1.809,0.099,2.065,2.68,0.308,3.132       c-14.323,3.663-19.911-11.453-31.114-13.297c-8.101-1.243-18.135,1.901-26.368-1.771c-2.971-1.277-9.647-6.296-7.009-8.165       c0.6-0.425,1.406-0.343,1.909,0.16C334.277,251.777,336.056,253.923,339.897,255.1z"/>
				</g>
				<path style="fill:#000E3F;" d="M387.444,293.693c-9.195,0.001-20.088-3.526-26.147-11.3c-0.65-0.835-1.709-2.146-2.4-2.996      c-1.066,0.317-2.715,0.821-3.69,1.192c-10.224,3.892-30.81-0.245-37.973-7.629c-3.471-3.577-3.106-6.957-2.189-9.163      c3.933-9.464,7.812-19.168,11.565-28.553c3.832-9.582,7.793-19.49,11.826-29.182c0.34-0.824,1.287-1.212,2.112-0.871      c0.824,0.343,1.213,1.288,0.871,2.112c-4.025,9.672-7.983,19.569-11.809,29.14c-3.756,9.395-7.642,19.109-11.583,28.593      c-0.803,1.932-0.303,3.789,1.525,5.674c6.221,6.414,25.572,10.26,34.505,6.859c1.649-0.627,4.838-1.538,4.973-1.577      c0.622-0.174,1.286,0.033,1.695,0.532c0,0,2.077,2.543,3.12,3.882c7.388,9.479,21.515,10.931,28.68,9.62      c3.479-0.636,5.318-1.832,5.599-2.734c8.941-28.891,11.039-54.066,6.231-74.824c-4.978-21.508-24.657-38.185-41.413-46.622      c-0.798-0.401-1.118-1.373-0.717-2.169c0.401-0.796,1.369-1.119,2.168-0.716c17.411,8.766,37.879,26.183,43.11,48.778      c4.938,21.323,2.82,47.064-6.295,76.509c-0.734,2.375-3.613,4.136-8.102,4.958C391.342,293.529,389.432,293.693,387.444,293.693      z"/>
			</g>
		</g>
		<g>
			<g>
				<g>
					<path style="fill:#FFBBEC;" d="M338.617,109.923l-19.058,13.352c-17.844,8.448-35.08,7.405-45.714,1.918       c-0.097-0.025-0.17-0.073-0.267-0.121c-13.304-7.016-17.577-21.777-17.212-37.144c0.121-5.826,0.898-11.75,2.136-17.358       c0.146-0.655,0.291-1.311,0.437-1.942c8.861-37.484,36.658-57.682,61.275-57.173c5.608,0.073,11.07,1.262,16.096,3.569       C376.95,33.742,367.07,82.393,338.617,109.923z"/>
					<g style="opacity:0.35;">
						<path style="fill:#FC09B2;" d="M296.726,90.745c3.984-10.79,24.552-5.402,21.824,6.397        c-1.964,8.487-15.829,7.434-20.355,1.149C296.22,95.547,295.921,92.926,296.726,90.745z"/>
						<path style="fill:#FC09B2;" d="M271.127,82.781c-1.408,6.094-8.934,7.283-14.76,5.147c0.121-5.826,0.898-11.75,2.136-17.358        C265.3,70.473,272.85,75.352,271.127,82.781z"/>
					</g>
				</g>
				<g>
					<path style="fill:#000E3F;" d="M364.358,47.621c-2.589-15.229-12.051-27.007-27.362-34.061       c-5.187-2.386-10.824-3.639-16.745-3.722c-12.966-0.254-26.394,4.967-37.644,14.735       c-12.284,10.666-21.013,25.772-25.245,43.684c-2.468,10.443-8.645,45.505,15.471,58.242c0.004,0.003,0.267,0.138,0.272,0.141       c5.045,2.599,12.039,4.446,20.244,4.446c8.035,0,17.232-1.773,26.892-6.35c0.806-0.382,1.15-1.345,0.768-2.151       c-0.382-0.805-1.339-1.148-2.153-0.769c-18.457,8.745-34.971,6.742-44.271,1.951l-0.74,1.436l0.496-1.562       c-22.063-11.654-16.166-44.769-13.833-54.641c6.675-28.263,29.371-56.558,59.688-55.932c5.478,0.077,10.677,1.229,15.449,3.426       c14.298,6.588,23.125,17.539,25.528,31.668c3.345,19.662-5.949,43.445-23.675,60.59c-0.641,0.621-0.657,1.643-0.037,2.284       c0.617,0.641,1.641,0.657,2.284,0.038C358.214,93.211,367.875,68.304,364.358,47.621z"/>
					<path style="fill:#000E3F;" d="M276.871,100.077c1.443,0.736,3.245,1.233,5.192,1.233c2.433,0,5.096-0.776,7.574-2.833       c0.685-0.57,0.78-1.588,0.21-2.275c-0.57-0.686-1.585-0.784-2.275-0.211c-3.257,2.701-6.904,2.394-9.234,1.208       c-2.342-1.194-3.709-3.294-3.567-5.479c0.058-0.89-0.617-1.659-1.507-1.716c-0.943-0.072-1.658,0.617-1.718,1.508       C271.32,95.005,273.361,98.287,276.871,100.077z"/>
					<path style="fill:#000E3F;" d="M291.725,66.612c-0.64-0.628-1.66-0.617-2.286,0.021c-0.291,0.298-7.187,7.326-9.201,9.996       c-1.313,1.74-1.271,3.327-1.006,4.352c0.635,2.444,3.239,4.649,7.961,6.738c0.212,0.094,0.435,0.138,0.652,0.138       c0.621,0,1.213-0.359,1.479-0.962c0.361-0.816-0.009-1.77-0.824-2.132c-4.864-2.151-5.935-3.802-6.14-4.594       c-0.083-0.315-0.125-0.824,0.458-1.595c1.888-2.502,8.857-9.606,8.927-9.678C292.37,68.259,292.361,67.236,291.725,66.612z"/>
					<path style="fill:#000E3F;" d="M341.059,93.079c-0.365-0.812-1.316-1.182-2.133-0.815l-5.926,2.651       c-0.815,0.365-1.18,1.32-0.815,2.135c0.268,0.6,0.857,0.956,1.476,0.956c0.219,0,0.444-0.046,0.657-0.141l5.927-2.651       C341.059,94.849,341.423,93.894,341.059,93.079z"/>
					<path style="fill:#000E3F;" d="M279.251,65.088c0.665-2.368-0.715-4.828-3.084-5.494c-2.369-0.665-4.828,0.716-5.494,3.084       c-0.665,2.369,0.716,4.828,3.084,5.493C276.126,68.837,278.585,67.457,279.251,65.088z"/>
					<path style="fill:#000E3F;" d="M301.772,72.7c-0.665,2.368,0.716,4.828,3.084,5.493c2.369,0.665,4.828-0.715,5.494-3.084       c0.665-2.369-0.715-4.828-3.084-5.494C304.897,68.951,302.438,70.332,301.772,72.7z"/>
				</g>
			</g>
			<g>
				<path style="fill:#000E3F;" d="M330.911,75.298c2.001-5.573-6.161-1.196-29.905-15.82c-3.646-2.246-6.116-4.375-5.805-8.885      c0.417-6.038,0.6-7.06-3.587-1.534c-1.773,2.34-4.029,3.341-7.006,3.16c-5.659-0.346-20.616-4.729-22.8-10.633      c-2.594-7.012,5.254-16.115,9.508-20.688c9.014-9.692,21.451-16.992,34.449-19.675c21.838-4.508,44.888,3.83,60.929,18.805      c21.383,19.961,21.721,42.807,19.406,70.224c-1.71,20.254,4.656,35.505,15.022,52.487c2.864,4.692-3.662,9.469-8.212,12.545      c-3.126,2.113-6.535,3.74-10.286,4.567c-1.735,0.383-3.215,0.115-4.468-1.098c-4.839-4.684-7.909-11.295-8.361-11.2      c-1.638,0.382-4.027,9.746-5.005,11.474c-5.463,9.651-42.574,8.427-53.577,1.917c-1.927-1.14-3.5-2.558-3.381-4.705      C309.212,131.481,323.252,96.624,330.911,75.298z"/>
				<path style="fill:#4217A6;" d="M386.921,146.061c-36.715-38.507-3.479-89.879-30.807-111.246      c-1.337-1.033,0.065-3.091,1.519-2.234c4.54,2.704,8.081,6.973,10.501,11.643c14.243,28.384-7.57,61.828,20.722,100.192      l0.009,0.012c0.417,0.565,0.297,1.362-0.269,1.779C388.076,146.592,387.357,146.519,386.921,146.061z"/>
			</g>
		</g>
	</g>
	<g>
		<path style="fill:#FFBBEC;" d="M162.966,92.952c-0.151,0-0.305-0.021-0.458-0.067c-13.108-3.932-20.205-15.03-23.916-24.052    H60.448c-7.02,0-12.733-5.711-12.733-12.73V19.424c0-7.019,5.713-12.73,12.733-12.73h112.746c7.02,0,12.731,5.711,12.731,12.73    v36.678c0,7.019-5.711,12.73-12.731,12.73h-13.251c-2.074,16.833,3.856,21.113,3.918,21.155c0.657,0.45,0.901,1.32,0.557,2.038    C164.143,92.6,163.574,92.952,162.966,92.952z"/>
		<g>
			<path style="fill:#000E3F;" d="M173.194,5.079H60.447c-7.911,0-14.346,6.436-14.346,14.346v36.678     c0,7.91,6.436,14.346,14.346,14.346h77.075c3.954,9.157,11.296,20.015,24.522,23.984c0.323,0.097,0.654,0.143,0.982,0.143     c1.293,0,2.543-0.723,3.046-1.951c0.622-1.519,0.111-3.198-1.316-3.987c-0.491-0.426-4.739-4.55-3.369-18.189h11.807     c7.911,0,14.346-6.435,14.346-14.346V19.425C187.54,11.514,181.105,5.079,173.194,5.079z M184.309,56.102     c0,6.138-4.976,11.115-11.115,11.115h-14.666c-2.804,19.54,4.444,24.12,4.444,24.12c-12.851-3.856-19.714-14.971-23.285-24.12     h-79.24c-6.138,0-11.115-4.976-11.115-11.115V19.425c0-6.138,4.977-11.115,11.115-11.115h112.747     c6.139,0,11.115,4.976,11.115,11.115V56.102z"/>
			<path style="fill:#000E3F;" d="M89.057,35.681l-0.27-3.537v-0.154c-0.806,0-1.614-0.039-2.422-0.039     c1.423-4.922,1.693-5.23,1.578-5.845c-1.423-0.269-2.922,0.116-4.345-0.153h-0.039H83.52c-0.808,3.076-1.499,5.23-1.923,5.883     c-1.846-0.038-3.192,0.039-4.575,0c1.344-4.461,1.692-5.422,1.692-5.653c-3.308-0.116-4.307-0.116-4.577-0.192v0.039     c-0.307,1.384-1.499,5.152-1.807,5.768c0,0.038-0.039,0.038-0.039,0.077c-0.307,0.039-0.845,0-1.192,0     c-5.267,0.115-5.46-0.231-5.499-0.193l0.077,4.153c5.038-0.039,5.306-0.039,5.306-0.039c-1.23,3.576-1.306,4.576-1.576,4.845     c-3.46,0.116-4.153-0.115-4.23-0.192c0.039,1.384,0,2.845,0.116,4.191c0.768,0.038,1.653-0.077,2.538-0.077     c-0.731,1.961-1.539,3.807-1.961,5.961c2.307-0.116,3.614-0.039,4.114,0c0.154,0,0.27-0.039,0.309-0.077     c0.307-0.577,0.384-0.846,0.538-1.345c1.23-3.192,0.999-2.231,1.807-4.614c3.499-0.077,4.461,0,4.461,0h0.037     c-0.499,1.883-1.383,3.729-1.96,5.998c3.115,0.116,4.268,0,4.384,0h0.075l0.039-0.039c1.001-1.846,2.038-5.499,2.27-5.845h0.077     h0.037c4.077-0.115,4.922,0.039,6.577-0.153v-0.077c-0.193-2.308,0.039-2.769-0.27-3.576c-2.615-0.193-4.423-0.116-4.999-0.154     c0.577-1.654,1.039-3.191,1.616-4.845L89.057,35.681z M80.367,35.797c-0.461,1.691-1.192,3.115-1.537,4.692     c0,0.039-0.039,0.076-0.039,0.115l-4.806,0.039c0.577-1.654,1.076-3.268,1.653-4.922v-0.038h0.077     c1.499,0,2.922,0.038,4.575,0.077h0.039h0.038V35.797z"/>
			<path style="fill:#000E3F;" d="M100.864,29.683c0.424-0.423,1.269-0.501,1.923-0.615c2.999-0.116,2.384,3.076,2.692,5.114     c1.961,0.346,3.73,0.577,5.614,0.154c2.461-7.114-4.845-13.574-11.883-11.267c-0.731,0.193-1.385,0.462-1.961,0.884     c-0.96,0.884-1.653,2-2.114,3.345c-0.309,0.769-0.538,1.692-0.424,2.577c-0.114,8.306-0.077,12.266,0.116,15.958     c0.422,4.307,5.076,5.615,8.729,5.115c5.614-0.116,9.229-5.883,7.498-11.19c-1.462-0.423-3.692-0.039-5.153-0.23     c-0.268,1.269,0.077,2.614-0.5,3.806c-0.499,1.039-1.614,1.462-2.731,1.346c-1.499-0.423-2.037-2.038-2.191-3.537     c-0.309-3.5,0-10.691,0.154-10.96C100.672,30.067,100.75,29.798,100.864,29.683z"/>
			<path style="fill:#000E3F;" d="M126.054,24.684c-0.152,5.961-0.077,12.458-0.345,18.611c-0.5,2.346-4,2.692-4.729,0.193     c-0.501-6.383-0.615-12.69-0.347-18.881v-0.039c-1.537-0.422-3.846-0.192-5.422-0.192h-0.038l0.038,0.039     c0.116,6.768-0.154,13.689-0.154,20.457c0.193,4.73,5.499,6.614,9.844,6.191c3.691-0.346,5.884-2.961,6.306-6.345     c0.731-6.614,0.77-13.343,0.461-19.918C130.437,24.068,127.477,24.568,126.054,24.684z"/>
			<path style="fill:#000E3F;" d="M133.749,23.453c0,0.039,0.038,0.039,0.038,0.077c-0.193,2.422-0.038,5.652,0.154,6.037     c0.613,0.192,3.421-0.153,4.614,0.462l0.038,0.039c0.615,14.343,0.154,20.033,0.27,20.495c1.844-0.308,4.421,0.039,6.305-0.269     v-0.039v-0.039c-0.307-16.804-0.345-19.611-0.191-20.342c0-0.039,0.039-0.077,0.039-0.116h0.037h0.077     c2.422-0.115,3.73-0.192,4.693,0c0.268-1.846,0.268-4.268,0.152-5.96C144.707,23.223,138.977,23.415,133.749,23.453z"/>
			<path style="fill:#000E3F;" d="M168.397,45.295c-3.499,0.116-6.691-0.192-10.074-0.192l-0.039-0.038     c-0.116-1.231-0.27-3.307,0-4.807c0.538-0.422,3.076,0,4.652-0.422c-0.039-1.884,0.193-3.614-0.077-5.345V34.45     c-1.576-0.038-3.19,0-4.729-0.115l-0.039-0.038c-0.345-1.385,0-2.999-0.039-4.5l0.039-0.039h0.116     c3.383-0.307,6.806,0.27,10.075-0.461V29.26c0-1.807,0.268-3.653,0-5.46c0-0.231-9.959-0.077-15.921,0.23     c-0.5,8.806-0.039,17.381-0.039,26.302c4.961,0.422,10.536,0.039,15.767,0.076c0.422-1.538,0.422-3.384,0.307-5.037V45.295z"/>
		</g>
	</g>
	<g>
		<g>
			<g>
				<path style="fill:#FC09B2;" d="M152.517,145.412c3.635,13.731-5.723,29.902-14.776,38.085c-0.718,0.679-1.669,1.055-2.681,1.062      c-6.602,0.133-14.849-1.393-22.111-4.777c-6.163-2.888-11.621-7.127-14.738-12.858c-4.863-8.931-2.332-18.985,5.472-20.356      c10.547-1.922,21.063,8.04,21.063,8.04s0.842-14.461,9.843-20.283c0.961-0.634,2-1.074,3.027-1.256      C143.654,131.722,150.326,137.031,152.517,145.412z"/>
				<path style="opacity:0.25;fill:#000E3F;" d="M152.517,145.412c3.635,13.731-5.723,29.902-14.776,38.085      c-0.718,0.679-1.669,1.055-2.681,1.062c-6.602,0.133-14.849-1.393-22.111-4.777c0.355-5.724,4.687-11.444,12.975-14.727      c13.967-5.533,13.129-23.023,11.694-31.986C143.654,131.722,150.326,137.031,152.517,145.412z"/>
			</g>
			<path style="fill:#000E3F;" d="M134.242,186.183c-7.137,0-15.294-1.823-21.975-4.936c-7.118-3.335-12.468-8.02-15.476-13.55     c-3.036-5.578-3.518-11.96-1.257-16.652c1.59-3.3,4.386-5.456,7.869-6.067c8.251-1.504,16.251,3.539,20.1,6.488     c0.785-4.785,3.171-13.944,10.209-18.497c1.15-0.756,2.405-1.273,3.623-1.49c6.966-1.55,14.352,4.374,16.745,13.521l0,0     c4.061,15.339-6.898,32.144-15.255,39.696c-0.991,0.937-2.333,1.471-3.755,1.479     C134.794,186.179,134.519,186.183,134.242,186.183z M106.455,147.937c-0.826,0-1.655,0.069-2.482,0.219     c-3.127,0.549-4.731,2.636-5.528,4.291c-1.818,3.771-1.364,9.023,1.185,13.705c2.677,4.921,7.52,9.128,14.005,12.167     c6.51,3.032,14.501,4.761,21.392,4.624c0.624-0.003,1.185-0.224,1.605-0.621c9.397-8.493,17.592-24.153,14.324-36.496     c0-0.002,0-0.004-0.002-0.005c-1.916-7.332-7.739-12.345-12.985-11.175c-0.859,0.153-1.695,0.505-2.491,1.028     c-8.205,5.307-9.109,18.893-9.118,19.03c-0.037,0.626-0.435,1.175-1.018,1.405c-0.587,0.232-1.25,0.103-1.704-0.327     C123.547,155.696,115.217,147.937,106.455,147.937z"/>
		</g>
		<g>
			<g>
				<path style="fill:#FC09B2;" d="M472.358,387.788c-7.477,12.076-25.656,16.391-37.821,15.437      c-0.987-0.055-1.914-0.487-2.614-1.218c-4.634-4.704-9.192-11.745-11.724-19.345c-2.138-6.462-2.809-13.34-0.787-19.542      c3.146-9.67,12.19-14.74,18.549-10.014c8.644,6.341,8.634,20.827,8.634,20.827s11.084-9.326,21.499-6.787      c1.122,0.263,2.154,0.715,2.993,1.336C476.213,371.94,476.94,380.436,472.358,387.788z"/>
				<path style="opacity:0.25;fill:#000E3F;" d="M472.358,387.788c-7.477,12.076-25.656,16.391-37.821,15.437      c-0.987-0.055-1.914-0.487-2.614-1.218c-4.634-4.704-9.192-11.745-11.724-19.345c4.402-3.676,11.535-4.459,19.615-0.695      c13.617,6.344,25.748-6.283,31.273-13.485C476.213,371.94,476.94,380.436,472.358,387.788z"/>
			</g>
			<path style="fill:#000E3F;" d="M437.756,404.961c-1.18,0-2.298-0.044-3.346-0.125c-1.358-0.076-2.668-0.684-3.653-1.711     c-5.145-5.222-9.67-12.687-12.091-19.953c-2.468-7.464-2.742-14.57-0.791-20.554c1.965-6.04,6.268-10.775,11.232-12.358     c3.49-1.113,6.978-0.562,9.816,1.548c6.752,4.954,8.596,14.237,9.097,19.059c4.014-2.717,12.303-7.279,20.454-5.294     c1.336,0.313,2.577,0.87,3.572,1.607c5.921,3.993,6.684,13.436,1.681,21.46C466.154,400.871,449.22,404.961,437.756,404.961z      M432.631,352.929c-0.952,0-1.821,0.181-2.544,0.411c-3.988,1.271-7.492,5.209-9.141,10.279     c-1.735,5.325-1.464,11.734,0.785,18.535c2.272,6.818,6.512,13.817,11.342,18.719c0.431,0.451,0.976,0.707,1.551,0.74     c12.643,0.995,29.639-3.82,36.358-14.675c0.002-0.002,0.002-0.003,0.003-0.004c4.011-6.432,3.65-14.109-0.803-17.113     c-0.705-0.519-1.535-0.886-2.459-1.103c-9.537-2.324-19.986,6.363-20.091,6.45c-0.479,0.405-1.15,0.493-1.72,0.229     c-0.57-0.265-0.934-0.836-0.936-1.464c0-0.137-0.105-13.752-7.974-19.525C435.507,353.295,433.986,352.929,432.631,352.929z"/>
		</g>
		<g>
			<g>
				<path style="fill:#FFCF00;" d="M467.672,291.229c-3.827,0.023-7.628-0.575-11.3-1.778      c-11.832-3.876-20.627-13.432-23.528-25.565c-1.524-6.387-1.246-13.07,0.804-19.324c4.774-14.576,18.278-24.429,33.602-24.52      c3.82-0.023,7.614,0.574,11.277,1.774c10.895,3.568,19.45,12.245,22.885,23.209c2.229,7.09,2.18,14.59-0.145,21.687      C496.493,281.286,482.992,291.138,467.672,291.229z"/>
				<path style="opacity:0.5;fill:#FD8A02;" d="M500.16,266.348c-5.919,18.071-25.353,27.915-43.424,21.996      c-11.785-3.86-20.068-13.48-22.757-24.729c41.259,28.464,58.999,2.654,66.323-18.242      C502.379,251.984,502.476,259.277,500.16,266.348z"/>
				<g style="opacity:0.75;">
					<path style="fill:#FFFFFF;" d="M465.995,231.097c-2.927,0.124-6.414,0.696-6.246,0.67c-1.559,0.237-2.478-1.713-1.276-2.769       c7.446-6.427,21.479-4.598,27.043,3.471c0.839,1.221-0.427,2.792-1.799,2.229C478.375,232.507,473.343,230.793,465.995,231.097       z"/>
				</g>
				<g>
					<path style="fill:#FC09B2;" d="M437.86,254.625c-1.01,3.312,2.003,7.165,6.73,8.605c4.726,1.441,9.376-0.076,10.386-3.388       c1.01-3.312-2.003-7.165-6.73-8.606C443.519,249.796,438.869,251.313,437.86,254.625z"/>
					<path style="fill:#FC09B2;" d="M475.074,266.067c-1.01,3.312,2.003,7.165,6.73,8.605c4.727,1.441,9.376-0.076,10.386-3.388       c1.009-3.312-2.004-7.165-6.73-8.605C480.733,261.239,476.084,262.755,475.074,266.067z"/>
				</g>
			</g>
			<g>
				<path style="fill:#000E3F;" d="M502.953,244.542c-3.588-11.462-12.533-20.532-23.923-24.262      c-3.827-1.252-7.886-1.864-11.79-1.854c-16.021,0.096-30.137,10.396-35.129,25.632c-2.142,6.541-2.433,13.528-0.838,20.204      c3.032,12.682,12.226,22.673,24.596,26.725c3.767,1.233,7.665,1.858,11.592,1.858c0.074,0,0.147,0,0.219-0.001      c16.018-0.095,30.131-10.394,35.123-25.629C505.234,259.796,505.284,251.955,502.953,244.542z M499.733,266.209      c-4.558,13.913-17.446,23.318-32.07,23.405c-3.741-0.005-7.283-0.55-10.787-1.698c-11.295-3.699-19.691-12.823-22.461-24.405      c-1.455-6.095-1.19-12.474,0.768-18.447c4.557-13.914,17.447-23.321,32.075-23.407c0.065,0,0.13,0,0.195,0      c3.583,0,7.139,0.57,10.571,1.694c10.402,3.406,18.568,11.689,21.847,22.159C502,252.277,501.952,259.435,499.733,266.209z"/>
				<path style="fill:#000E3F;" d="M491.873,245.59l-10.841,3.331c-0.542,0.167-0.957,0.605-1.092,1.155      c-0.137,0.55,0.025,1.131,0.426,1.532l8.047,8.035c0.315,0.316,0.727,0.472,1.141,0.472c0.414,0,0.828-0.158,1.143-0.474      c0.631-0.631,0.629-1.654-0.002-2.284l-6.146-6.137l8.273-2.543c0.852-0.262,1.33-1.166,1.069-2.018      C493.631,245.808,492.729,245.327,491.873,245.59z"/>
				<path style="fill:#000E3F;" d="M460.788,243.711c0.221-0.522,0.151-1.122-0.184-1.58l-6.687-9.16      c-0.524-0.717-1.535-0.879-2.256-0.353c-0.722,0.527-0.878,1.537-0.352,2.258l5.103,6.99l-8.596,1.235      c-0.883,0.126-1.497,0.946-1.369,1.828c0.116,0.806,0.806,1.386,1.597,1.386c0.075,0,0.154-0.005,0.231-0.017l11.255-1.617      C460.091,244.601,460.569,244.233,460.788,243.711z"/>
				<path style="fill:#000E3F;" d="M477.474,253.362c-0.852-0.266-1.76,0.198-2.032,1.047c-0.775,2.422-2.5,4.378-4.731,5.365      c-1.846,0.817-3.842,0.861-5.469,0.116c-3.332-1.521-4.88-6.007-3.448-9.999c0.3-0.839-0.137-1.765-0.976-2.066      c-0.841-0.3-1.765,0.136-2.067,0.975c-2.016,5.628,0.245,11.789,5.148,14.029c1.197,0.546,2.508,0.819,3.851,0.819      c1.423,0,2.882-0.307,4.266-0.92c3.076-1.36,5.446-4.033,6.503-7.334C478.792,254.544,478.324,253.635,477.474,253.362z"/>
			</g>
		</g>
	</g>
	<g>
		<path style="fill:#FD8A02;" d="M416.517,130.218c1.771-1.977,5.389-4.397,8.688-12.584c0.296-0.734,0.605-1.474,1.011-2.148    c0.565-0.94,1.724-0.973,2.345-0.043c1.402,2.102,1.409,5.392,6.113,11.187c2.761,3.4,5.5,4.514,3.079,6.477    c-6.036,4.894-8.244,12.389-9.368,14.359c-0.485,0.85-1.591,0.892-2.179,0.12c-0.63-0.828-0.941-1.822-1.31-2.783    c-2.721-7.118-6.623-10.432-8.21-12.037C416.288,132.365,415.907,130.899,416.517,130.218z"/>
		<path style="fill:#FD8A02;" d="M402.146,30.913c1.77-1.977,5.389-4.397,8.688-12.585c0.295-0.734,0.605-1.474,1.011-2.148    c0.565-0.94,1.724-0.973,2.345-0.043c1.402,2.102,1.409,5.392,6.113,11.187c2.761,3.4,5.5,4.514,3.079,6.477    c-6.036,4.894-8.244,12.389-9.368,14.359c-0.485,0.851-1.591,0.893-2.179,0.12c-0.63-0.828-0.942-1.822-1.31-2.783    c-2.721-7.118-6.623-10.432-8.21-12.036C401.916,33.058,401.535,31.593,402.146,30.913z"/>
		<path style="fill:#FD8A02;" d="M467.83,76.942c2.039-2.275,6.202-5.052,10.006-14.494c0.341-0.845,0.697-1.697,1.164-2.474    c0.651-1.082,1.986-1.121,2.701-0.049c1.617,2.423,1.623,6.211,7.041,12.885c3.18,3.917,6.335,5.199,3.546,7.46    c-6.952,5.637-9.495,14.269-10.79,16.539c-0.559,0.98-1.833,1.028-2.51,0.139c-0.725-0.954-1.085-2.098-1.508-3.206    c-3.14-8.213-7.65-12.037-9.456-13.863C467.566,79.414,467.127,77.727,467.83,76.942z"/>
		<path style="fill:#FD8A02;" d="M74.968,378.564c-1.771,1.977-5.389,4.397-8.688,12.584c-0.296,0.734-0.605,1.474-1.011,2.148    c-0.565,0.94-1.724,0.973-2.345,0.043c-1.402-2.102-1.409-5.392-6.113-11.187c-2.761-3.4-5.5-4.514-3.079-6.477    c6.036-4.894,8.244-12.389,9.369-14.359c0.485-0.851,1.591-0.893,2.179-0.12c0.63,0.828,0.942,1.822,1.31,2.783    c2.721,7.118,6.623,10.432,8.21,12.036C75.197,376.419,75.578,377.884,74.968,378.564z"/>
		<path style="fill:#FD8A02;" d="M106.656,479.7c-1.77,1.977-5.389,4.397-8.688,12.584c-0.295,0.734-0.605,1.474-1.011,2.148    c-0.565,0.94-1.724,0.973-2.345,0.043c-1.402-2.102-1.409-5.392-6.113-11.187c-2.761-3.401-5.5-4.514-3.079-6.477    c6.036-4.894,8.244-12.389,9.368-14.359c0.485-0.85,1.592-0.892,2.179-0.12c0.63,0.828,0.942,1.822,1.31,2.783    c2.721,7.118,6.623,10.432,8.21,12.037C106.886,477.554,107.266,479.02,106.656,479.7z"/>
		<path style="fill:#FD8A02;" d="M47.46,450.567c-2.039,2.275-6.202,5.052-10.006,14.494c-0.341,0.845-0.697,1.697-1.164,2.474    c-0.651,1.082-1.986,1.121-2.701,0.05c-1.617-2.424-1.623-6.211-7.041-12.885c-3.18-3.917-6.335-5.199-3.546-7.46    c6.952-5.637,9.496-14.269,10.79-16.539c0.559-0.98,1.833-1.028,2.51-0.139c0.725,0.954,1.085,2.098,1.508,3.206    c3.14,8.213,7.65,12.037,9.456,13.863C47.724,448.095,48.163,449.783,47.46,450.567z"/>
	</g>
</g>















</svg>
