<?xml version="1.0" encoding="UTF-8"?>
<!-- Generator: Adobe Illustrator 25.2.3, SVG Export Plug-In . SVG Version: 6.00 Build 0)  -->
<svg xmlns="http://www.w3.org/2000/svg" xmlns:xlink="http://www.w3.org/1999/xlink" version="1.1" id="Capa_1" x="0px" y="0px" viewBox="0 0 512 512" style="enable-background:new 0 0 512 512;" xml:space="preserve" width="512" height="512">
<g>
	<path style="fill:#091438;" d="M360.142,339.212c-8.689,49.167-22.995,97.847-33.522,130.151   c70.92-3.182,156.82-70.404,179.739-127.491c24.571-61.223-37.923-17.252-57.318-61.66   c-15.312-35.019,29.514-124.022,48.599-158.862C374.601-4.533,171.148,27.513,63.652,168.139   c-107.08,140.033-59.696,205.624,1.292,191.84c40.922-9.261-13.809,68.956-10.342,90.94c3.439,21.985,53.876,9.492,53.876,9.492   c-12.883-34.838,30.96-61.48,64.532-76.223l4.873-16.453L360.142,339.212z"/>
	<path style="fill:#FFDEC7;" d="M360.142,339.212c-36.469,31.038-95.778,74.204-107.261,37.992c0,0-36.03,9.931-79.871,6.984   c-22.294-1.525-46.633-6.362-69.291-17.536c0.18-39.986,6.001-256.165,112.54-203.686c0,0,54.314-53.876,125.857,13.788   C373.381,206.316,371.805,273.231,360.142,339.212z"/>
	<path style="fill:#091438;" d="M211.714,259.513l-6.143,71.454c0,0,20.045,8.404,39.12-8.406c0,0-5.015-7.115-9.784-0.325   c0,0,1.055-3.557,4.61,0.646c0,0-11.962,10.67-30.713,6.144L211.714,259.513z"/>
	<path style="fill:#091438;" d="M130.274,245.114c10.871-18.64,38.764-27.062,58.196-17.779l0.378,1.237   c-17.163,6.062-40.574,13.219-58.196,17.778L130.274,245.114z"/>
	<path style="fill:#091438;" d="M234.251,221.808c19.064-14.565,51.019-14.172,69.837,0.648l-0.014,1.292   c-20.882,0.592-48.97,0.337-69.837-0.648L234.251,221.808z"/>
	<g>
		<path style="fill:#FF6C7E;" d="M269.568,344.266c0.436,8.276,8.513,14.579,18.038,14.075c9.525-0.501,16.894-7.616,16.458-15.896    c-0.439-8.276-8.513-14.574-18.037-14.077C276.495,328.875,269.129,335.989,269.568,344.266z"/>
		<path style="fill:#091438;" d="M302.91,320.63c0,0-0.204,32.539-37.606,26.333C265.304,346.963,303.269,361.701,302.91,320.63z"/>
	</g>
	<g>
		
			<rect x="302.379" y="263.285" transform="matrix(0.9618 -0.2737 0.2737 0.9618 -60.6939 96.7763)" style="fill:#091438;" width="28.103" height="5.174"/>
		
			<rect x="300.507" y="252.402" transform="matrix(0.8734 -0.487 0.487 0.8734 -83.7278 187.8575)" style="fill:#091438;" width="37.988" height="5.173"/>
		<path style="fill:#FFFFFF;" d="M225.131,310.382c0,0,68.051,20.755,85.909-24.614C328.897,240.405,259.4,229.299,225.131,310.382z    "/>
		<path style="fill:#091438;" d="M227.513,311.389l-4.766-2.013c19.989-47.298,52.266-64.743,73.792-60.948    c11.708,2.068,19.344,10.534,19.931,22.099l-5.168,0.261c-0.463-9.16-6.316-15.615-15.664-17.265    C276.084,250.07,246.398,266.703,227.513,311.389z"/>
		<path style="fill:#091438;" d="M291.817,284.117c0,9.753-6.405,17.666-14.303,17.666c-7.901,0-14.306-7.913-14.306-17.666    c0-9.758,6.405-17.671,14.306-17.671C285.411,266.445,291.817,274.359,291.817,284.117z"/>
	</g>
	<g>
		
			<rect x="123.509" y="257.503" transform="matrix(0.24 -0.9708 0.9708 0.24 -166.9158 328.1083)" style="fill:#091438;" width="5.174" height="26.312"/>
		
			<rect x="122.218" y="245.431" transform="matrix(0.4095 -0.9123 0.9123 0.4095 -166.5402 269.3453)" style="fill:#091438;" width="5.174" height="35.795"/>
		<path style="fill:#FFFFFF;" d="M204.606,312.983c0,0-60.78,18.538-76.729-21.983C111.926,250.477,174.001,240.56,204.606,312.983z    "/>
		<path style="fill:#091438;" d="M202.224,313.989c-16.063-38.006-41.743-53.456-58.811-51.76    c-8.18,0.824-13.702,5.405-15.15,12.572l-5.072-1.028c1.904-9.402,9.27-15.64,19.705-16.69    c19.526-1.966,46.916,14.249,64.093,54.893L202.224,313.989z"/>
		<path style="fill:#091438;" d="M187.041,289.953c0,7.169-4.704,12.981-10.508,12.981c-5.803,0-10.508-5.812-10.508-12.981    c0-7.167,4.705-12.979,10.508-12.979C182.338,276.974,187.041,282.786,187.041,289.953z"/>
	</g>
	<path style="opacity:0.1;fill:#FFFFFF;" d="M66.124,198.531c0,0-54.962,99.579-9.701,127.707   C56.422,326.238-5.48,299.51,66.124,198.531z"/>
	<path style="opacity:0.1;fill:#FFFFFF;" d="M206.3,138.449c-5.149-6.364-18.599-13.918-53.205-2.329   c-52.065,17.485-99.914,106.303-95.054,160.182c4.859,53.852,60.108-6.312,20.071,121.642c0.777-3.051,18.079-71.362,3.854-82.868   c-14.56-11.748-39.134-18.288-26.512-73.046c12.622-54.779,47.851-110.701,96.348-130.099   C186.148,118.195,200.714,130.247,206.3,138.449z"/>
	<path style="opacity:0.1;fill:#FFFFFF;" d="M225.131,142.636c0,0,83.473-40.451,136.501,14.189   c53.021,54.639-10.347,286.451-10.347,286.451s28.868-80.701,36.21-181.254C395.575,151.328,338.349,88.928,225.131,142.636z"/>
	<path style="opacity:0.1;fill:#FFFFFF;" d="M259.787,114.146c0,0,133.849-32.007,152.602,64.663   c18.753,96.667-14.873,138.114,30.392,138.406c45.265,0.294-5.172,77.565-5.172,77.565s52.699-64.591,18.428-79.663   c-34.272-15.068-37.83,20.369-32.33-64.596C429.203,165.553,412.714,75.027,259.787,114.146z"/>
	<path style="opacity:0.1;fill:#FFFFFF;" d="M230.042,109.943c0,0-40.415-27.158-103.945,23.602   C126.097,133.545,187.364,69.531,230.042,109.943z"/>
	<path style="opacity:0.1;fill:#FFFFFF;" d="M273.69,103.16c0,0,154.913-38.694,159.069,70.804   C432.758,173.964,460.888,59.189,273.69,103.16z"/>
</g>















</svg>
