<?xml version="1.0" encoding="UTF-8"?>
<!-- Generator: Adobe Illustrator 25.2.1, SVG Export Plug-In . SVG Version: 6.00 Build 0)  -->
<svg xmlns="http://www.w3.org/2000/svg" xmlns:xlink="http://www.w3.org/1999/xlink" version="1.1" id="Capa_1" x="0px" y="0px" viewBox="0 0 512 512" style="enable-background:new 0 0 512 512;" xml:space="preserve" width="512" height="512">
<g>
	<g>
		<g>
			<path style="fill:#FFBBEC;" d="M390.98,459.548c5.86-5.896-11.046-12.671-24.778-27.031c-2.608-2.727-6.834-7-5.47-10.109     c2.231-5.083,16.595,4.358,20.212,0.372c5.274-5.813-14.656-17.012-17.985-18.756c-12.236-6.413-22.75-8.034-30.755-6.117     c-13.995-19.614-74.726-119.698-79.338-126.53c-11.891,6.382-23.866,15.148-27.026,27.768     c-4.396,17.553,3.771,30.38,12.885,44.62c8.689,13.575,51.19,57.157,76.831,80.083c0.905,12.593,8.057,24.163,16.022,33.607     c3.335,3.954,20.402,22.319,25.46,20.928c3.062-0.842,2.959-4.198,1.763-6.46c-1.624-3.073-4.304-5.636-6.828-7.969     c0.138,0.111,0.299,0.238,0.446,0.355c0.003,0.003,0.006,0.005,0.009,0.008l-0.003-0.003     c5.565,4.436,17.147,13.396,23.689,14.694c3.08,0.611,5.516-1.27,4.403-4.44c-0.876-2.496-3.109-4.598-5.15-6.179     c6.212,3.909,11.69,5.932,13.814,2.423c1.221-2.015,0.519-5.191-2.555-7.565c-2.585-1.996-5.164-4.104-7.739-6.263     C383.726,459.991,388.576,461.966,390.98,459.548z"/>
			<path style="fill:#000E3F;" d="M382.636,444.557c-4.538-3.501-10.187-7.857-15.26-13.162l-0.235-0.246     c-2.03-2.12-5.809-6.064-4.921-8.088c0.578-1.327,4.916-0.096,8.077,0.805c4.632,1.318,9.422,2.682,11.848,0.005     c1.081-1.191,1.503-2.661,1.22-4.255c-1.28-7.214-17.775-16.048-19.652-17.032c-11.43-5.99-22.051-8.222-30.803-6.494     c-10.214-14.594-40.571-63.905-60.799-96.763c-9.535-15.488-16.425-26.678-17.897-28.859c-0.465-0.689-1.376-0.917-2.115-0.523     c-16.03,8.603-25.133,18.025-27.833,28.804c-4.579,18.284,4.006,31.694,13.094,45.891c8.62,13.47,50.956,56.956,76.632,79.984     c0.957,10.753,6.453,22.147,16.345,33.876c0.19,0.226,18.543,21.565,26.228,21.563c0.321,0,0.624-0.037,0.904-0.115     c1.556-0.428,2.693-1.382,3.291-2.761c0.628-1.451,0.52-3.086,0.108-4.475c6.555,4.605,11.481,7.202,14.934,7.887     c0.494,0.098,0.978,0.147,1.449,0.146c1.658,0,3.127-0.597,4.084-1.701c1.121-1.292,1.383-3.12,0.719-5.015     c-0.061-0.175-0.128-0.35-0.203-0.523c2.147,0.739,3.925,0.917,5.411,0.566c1.412-0.334,2.555-1.171,3.312-2.42     c1.473-2.433,1.024-6.393-2.598-9.408c1.618,0.053,3.011-0.397,4.158-1.55v-0.001c1.193-1.201,1.75-2.548,1.655-4.001     C393.542,452.969,388.967,449.44,382.636,444.557z M389.827,458.403L389.827,458.403c-1.368,1.384-4.967,0.384-10.094-2.806l0,0     l0,0c-0.178-0.106-17.791-10.726-24.971-22.679c-0.462-0.769-1.458-1.022-2.23-0.556c-0.769,0.462-1.017,1.459-0.555,2.229     c7.433,12.375,24.533,22.854,25.964,23.716c2.953,2.473,5.402,4.455,7.694,6.224c2.438,1.882,2.931,4.16,2.159,5.438     c-0.312,0.515-0.707,0.805-1.281,0.941c-1.352,0.32-4.232-0.093-10.279-3.898l0,0c-2.285-1.41-18.476-11.554-25.16-22.681     c-0.463-0.769-1.458-1.023-2.229-0.556c-0.769,0.462-1.017,1.459-0.555,2.229c7.595,12.644,25.543,23.396,26.294,23.845l0,0     c2.363,1.868,3.817,3.591,4.401,5.255c0.194,0.549,0.331,1.308-0.106,1.812c-0.449,0.516-1.389,0.704-2.448,0.497     c-4.37-0.867-12.121-5.719-23.013-14.392c-6.268-5.39-8.965-10.761-8.991-10.815c-0.395-0.804-1.364-1.134-2.173-0.74     c-0.804,0.395-1.137,1.365-0.744,2.171c0.116,0.235,2.973,5.838,9.361,11.51l0,0c2.587,2.391,5.03,4.766,6.495,7.535     c0.592,1.122,0.758,2.415,0.411,3.218c-0.127,0.291-0.384,0.702-1.168,0.918c-3.088,0.832-17.306-12.725-23.789-20.41     c-9.643-11.435-14.905-22.429-15.642-32.676c-0.03-0.421-0.222-0.813-0.538-1.095c-25.482-22.785-67.99-66.381-76.546-79.748     c-9.077-14.179-16.916-26.425-12.678-43.35c2.392-9.555,10.545-18.075,24.908-26.016c2.471,3.877,9.008,14.496,17.019,27.507     c20.676,33.586,51.923,84.342,61.539,97.821c0.384,0.538,1.05,0.795,1.701,0.636c8.183-1.956,18.425,0.108,29.621,5.977     c6.544,3.429,17.206,10.458,17.962,14.721c0.108,0.606-0.019,1.056-0.427,1.504c-1.066,1.183-5.397-0.05-8.552-0.947     c-5.027-1.428-10.222-2.907-11.943,1.014c-1.759,4.01,2.639,8.602,5.548,11.64l0.235,0.244     c5.242,5.482,10.998,9.922,15.623,13.489c5.012,3.865,9.747,7.517,9.894,9.776C390.567,457.217,390.514,457.712,389.827,458.403z     "/>
		</g>
		<g>
			<g>
				<path style="fill:#FFCF00;" d="M302.182,465.615c-18.942,14.306-73.118,15.858-95.309,15.858      c-53.041,0-102.66-14.812-95.367-29.491c15.677-31.598,23.063-62.215,23.421-93.914c0.158-15.114-1.26-30.474-4.175-46.284      c-3.079-16.781-8.848-32.926-12.325-49.619c-3.3-15.846-3.79-40.019,1.536-55.607c33.468-28.331,73.988-28.84,110.664-23.603      c13.112,1.872,26.395,5.191,37.533,12.646c30.72,20.561,26.868,62.883,25.861,93.421c-0.899,27.249-3.683,54.46-3.073,81.748      c0.539,24.126,5.092,47.821,8.24,71.691C300.852,455.079,302.182,465.615,302.182,465.615z"/>
				<path style="opacity:0.5;fill:#FD8A02;" d="M302.182,465.615c-18.942,14.306-73.118,15.858-95.309,15.858      c-53.041,0-102.66-14.812-95.367-29.491c15.677-31.598,23.063-62.215,23.421-93.914c4.305,16.614,33.011,100.681,164.261,84.393      C300.852,455.079,302.182,465.615,302.182,465.615z"/>
				<g>
					<path style="fill:#FD8A02;" d="M212.555,246.777c12.318,3.049,29.15,4.547,40.516-0.857c10.32-4.962,11.618-15.121,11.54-14.94       c0.43-1.866,3.195-1.504,3.14,0.402c-0.803,28.245-42.717,29.543-67.146,16.319c-13.802-7.75-8.461-10.891-6.777-9.312       C194.21,238.593,197.585,242.955,212.555,246.777z"/>
					<path style="fill:#FD8A02;" d="M287.513,455.505c1.968-0.261,2.515,2.622,0.589,3.106c-18.342,4.536-20.37,4.572-30.834,6.338       c-1.583-0.009-56.352,10.438-114.372-9.917c-6.586-2.515-13.074-5.12-19.29-8.69c-1.617-0.927-0.379-3.404,1.335-2.656       C197.165,475.189,290.9,455.056,287.513,455.505z"/>
				</g>
			</g>
			<path style="fill:#000E3F;" d="M206.874,483.097c-45.041,0-88.233-10.564-96.28-23.55c-1.692-2.73-1.879-5.595-0.541-8.287     c15.286-30.809,22.891-61.299,23.249-93.21c0.157-14.941-1.198-29.979-4.145-45.971c-1.65-8.99-4.128-17.978-6.525-26.669     c-2.057-7.463-4.184-15.18-5.795-22.913c-3.331-15.998-3.854-40.53,1.59-56.464c0.095-0.278,0.263-0.525,0.488-0.715     c35.793-30.301,78.625-28.728,111.942-23.972c10.33,1.475,25.528,4.418,38.209,12.904c29.436,19.704,27.978,57.913,26.808,88.616     c-0.081,2.115-0.16,4.188-0.227,6.209c-0.323,9.742-0.894,19.633-1.445,29.198c-0.992,17.193-2.018,34.973-1.629,52.459     c0.398,17.758,3.033,35.63,5.582,52.914c0.897,6.09,1.826,12.389,2.645,18.601c1.664,12.622,2.995,23.163,2.995,23.163     c0.074,0.577-0.167,1.149-0.633,1.5C283.818,481.52,229.381,483.097,206.874,483.097z M121.357,207.507     c-5.103,15.392-4.553,38.905-1.341,54.327c1.59,7.631,3.703,15.298,5.748,22.711c2.415,8.76,4.912,17.817,6.586,26.945     c2.986,16.2,4.361,31.441,4.202,46.594c-0.365,32.412-8.081,63.361-23.589,94.619c-0.835,1.68-0.707,3.358,0.391,5.132     c6.59,10.631,45.741,22.014,93.52,22.014c21.887,0,74.362-1.473,93.576-14.981c-0.363-2.86-1.505-11.824-2.873-22.194     c-0.816-6.188-1.743-12.474-2.638-18.552c-2.563-17.382-5.214-35.356-5.614-53.316c-0.395-17.616,0.636-35.462,1.632-52.719     c0.551-9.546,1.121-19.416,1.442-29.118c0.067-2.027,0.146-4.106,0.227-6.226c1.14-29.894,2.559-67.099-25.37-85.792     c-9.232-6.178-20.944-10.115-36.859-12.388C197.862,179.917,156.098,178.342,121.357,207.507z"/>
		</g>
		<g>
			<g>
				<path style="fill:#FFBBEC;" d="M346.717,248.078c-4.204-4.485-17.948,5.989-17.948,5.988      c7.231-6.778,20.745-15.998,18.063-20.684c-3.404-5.947-20.329,7.431-24.948,11.991c20.058-19.802,23.12-21.812,25.253-25.701      c2.334-4.258-1.377-7.563-5.901-5.858c-7.638,2.878-34.573,27.768-39.291,30.891c-1.096,0.725-2.553-0.17-2.469-1.481      c0.39-6.095,1.737-13.538-1.912-23.979c-1.215-3.478-4.807-10.532-9.638-8.102c-2.487,1.25-1.981,5.268-1.88,7.515      c0.577,12.84-3.508,22.709-6.132,35.129c-1.567,7.419-1.758,13.719-0.85,18.929c-24.543,22.977-82.024,69.511-81.726,66.45      c0,0-10.601-14.367-35.152-92.861c-3.445-11.02-8.548-23.13-19.649-28.272c-5.676-2.619-11.362-2.896-16.527-1.277      c-5.009,1.536-9.345,5.133-9.661,5.682c-18.787,17.23-8.053,47.131,0.881,73.205c7.149,20.785,15.128,41.459,25.547,60.85      c8.661,16.12,17.174,38.172,36.403,43.927c21.004,6.287,35.819-8.993,49.048-22.582c22.652-23.269,54.092-61.379,74.249-86.64      c9.746-0.462,21.431-5.273,33.054-14.44c0,0,14.495-11.276,10.983-16.29c-2.18-3.111-11.133,4.02-11.133,4.02      S350.234,251.829,346.717,248.078z"/>
				<path style="fill:#000E3F;" d="M347.902,246.968c-0.705-0.754-2.703-2.225-7.02-1.234c5.517-4.929,9.461-9.488,7.36-13.158      c-0.724-1.267-1.917-2.048-3.447-2.258c-1.875-0.257-4.188,0.376-6.662,1.496c0.011-0.01,0.021-0.02,0.032-0.03      c6.988-6.733,8.867-8.542,10.397-11.332c1.341-2.445,1.213-4.974-0.342-6.765c-1.686-1.942-4.655-2.489-7.556-1.394      c-5.36,2.02-18.573,13.332-29.189,22.42c-4.796,4.106-8.938,7.651-10.378,8.615c0.053-0.834,0.125-1.693,0.199-2.582      c0.472-5.665,1.059-12.715-2.2-22.037c-0.612-1.753-2.928-7.6-7.025-9.257c-1.597-0.646-3.282-0.562-4.875,0.241      c-3.201,1.608-2.956,5.836-2.809,8.362l0.035,0.677c0.405,8.99-1.569,16.603-3.659,24.664      c-0.833,3.211-1.694,6.532-2.439,10.057c-1.47,6.966-1.806,13.24-1.001,18.668c-22.946,21.378-67.396,57.331-78.025,64.388      c-0.018,0.011-0.038,0.011-0.056,0.022c-0.255,0.168-0.507,0.336-0.761,0.504c-0.137,0.085-0.292,0.186-0.411,0.256      c-2.527-4.219-13.385-24.496-34.332-91.469c-3.571-11.424-8.8-23.834-20.519-29.263c-5.825-2.686-11.941-3.154-17.683-1.354      c-4.729,1.45-9.188,4.719-10.367,6.116c-19.098,17.63-8.947,47.231,0.012,73.352l0.515,1.501      c5.941,17.271,14.227,39.824,25.652,61.09c1.232,2.293,2.46,4.706,3.717,7.174c7.736,15.19,16.502,32.407,33.651,37.54      c3.541,1.059,6.906,1.539,10.119,1.539c16.665-0.002,29.214-12.89,40.559-24.545c25.375-26.066,59.795-68.528,73.904-86.193      c10.279-0.702,22.049-5.917,33.234-14.738c2.624-2.042,15.501-12.527,11.315-18.505c-0.554-0.79-1.382-1.285-2.394-1.431      c-0.395-0.056-0.816-0.055-1.25-0.008c2.45-2.838,4.538-5.919,4.671-8.29C348.935,248.692,348.6,247.711,347.902,246.968z       M334.328,263.251c-0.675,0.575-0.763,1.585-0.199,2.269c0.564,0.684,1.57,0.791,2.265,0.238      c2.438-1.94,6.832-4.719,8.594-4.439c0.157,0.023,0.183,0.058,0.197,0.079c0,0,0,0,0,0.001      c1.712,2.442-5.085,9.744-10.658,14.083c-10.935,8.625-22.343,13.629-32.125,14.093c-0.465,0.022-0.901,0.244-1.192,0.609      c-13.783,17.272-48.594,60.276-74.229,86.608c-12.803,13.154-27.315,28.064-47.334,22.073      c-15.815-4.734-24.247-21.293-31.686-35.902c-1.269-2.49-2.508-4.924-3.75-7.237c-11.315-21.062-19.541-43.455-25.442-60.608      l-0.515-1.5c-8.647-25.217-18.45-53.799-0.804-69.982c0.123-0.112,0.138-0.11,0.22-0.255c0.46-0.542,4.373-3.708,8.828-5.074      c1.969-0.618,3.992-0.925,6.035-0.925c3.107,0,6.259,0.712,9.324,2.126c10.565,4.895,15.422,16.538,18.779,27.284      c21.28,68.03,32.057,87.978,34.733,92.329c-7.586,5.145-13.817,9.801-13.888,9.856c-0.719,0.538-0.865,1.555-0.328,2.273      c0.319,0.426,0.807,0.65,1.303,0.65c0.338,0,0.68-0.106,0.971-0.324c0.085-0.063,8.463-6.327,17.598-12.33      c0.05-0.033,0.077-0.084,0.122-0.121c4.108-2.621,12.378-8.83,29.856-23.046c15.184-12.351,36.075-29.916,49.17-42.175      c0.4-0.374,0.583-0.925,0.49-1.465c-0.909-5.215-0.628-11.377,0.839-18.314c0.73-3.453,1.581-6.737,2.404-9.913      c2.154-8.304,4.188-16.147,3.761-25.624l-0.039-0.718c-0.101-1.729-0.268-4.623,1.026-5.273      c0.767-0.386,1.466-0.428,2.198-0.131c2.108,0.852,4.119,4.289,5.176,7.317c3.031,8.669,2.499,15.058,2.029,20.695      c-0.076,0.91-0.15,1.79-0.204,2.645c-0.077,1.241,0.545,2.401,1.627,3.027c1.059,0.614,2.344,0.578,3.361-0.09      c1.655-1.097,5.667-4.53,10.744-8.878c9.318-7.976,23.397-20.03,28.223-21.848c1.618-0.611,3.174-0.421,3.957,0.484      c0.636,0.732,0.617,1.852-0.053,3.073c-1.292,2.356-3.095,4.092-9.803,10.554c-3.532,3.402-8.368,8.061-15.166,14.772      c-0.64,0.63-0.645,1.659-0.016,2.297c0.629,0.637,1.66,0.644,2.297,0.015c4.805-4.742,16.689-13.633,21.33-12.992      c0.665,0.091,0.913,0.381,1.068,0.652c1.371,2.393-6.851,9.325-11.763,13.467c-2.184,1.841-4.246,3.579-6,5.224      c-0.388,0.364-0.575,0.894-0.497,1.421c0.077,0.526,0.407,0.981,0.883,1.218c0.557,0.276,1.22,0.21,1.708-0.162      c5.24-3.961,13.596-8.498,15.78-6.169c0.033,0.036,0.115,0.122,0.097,0.435C345.468,252.514,338.924,259.332,334.328,263.251z"/>
			</g>
			<g>
				<g>
					<path style="fill:#FFCF00;" d="M182.463,258.415c1.563,8.357,3.392,16.668,6.114,24.85       c3.869,11.628,8.971,22.854,11.992,34.771c2.158,8.513,1.343,7.202-14.481,14.399c-10.622,4.831-12.399,10.799-15.998,15.694       c-12.623,17.162-34.686,17.14-46.149,8.055c-3.404-2.698-5.393-4.172-5.77-8.35c-3.581-39.702-28.35-89.926-10.379-125.846       c7.512-15.014,21.114-22.473,35.16-30.403L182.463,258.415z"/>
					<path style="fill:#FD8A02;" d="M136.108,361.119c-4.614-0.456-8.624-2.392-12.371-5.027c-3.406-2.395-5.555-5.31-5.815-9.717       c-0.54-9.144-3.485-15.027-0.388-13.813c2.755,1.08,7.512,4.072,16.586,4.268c14.799,0.319,18.341-13.893,29.119-24.031       c6.949-6.536,20.714-8.956,30.192-8.817c1.921,0.028,2.964,0.829,3.467,2.421c1.53,4.832,2.98,9.69,4.41,14.552       c1.605,5.457-3.793,6.12-15.525,11.609c-10.335,4.835-12.127,10.653-15.622,15.462c-6.971,9.593-16.585,14.051-28.265,14.231       C139.973,362.286,138.037,361.518,136.108,361.119z"/>
				</g>
				<path style="fill:#000E3F;" d="M142.606,363.856c-7.355,0-14.467-2.271-19.675-6.4l-0.257-0.204      c-3.305-2.616-5.693-4.508-6.121-9.274c-1.142-12.66-4.412-26.205-7.873-40.545c-7.274-30.13-14.794-61.285-2.341-86.174      c7.586-15.162,20.895-22.672,34.986-30.622l0.828-0.468c0.784-0.442,1.771-0.164,2.214,0.616      c0.441,0.781,0.164,1.772-0.617,2.213l-0.83,0.468c-13.645,7.699-26.534,14.972-33.676,29.247      c-11.922,23.827-4.542,54.395,2.594,83.958c3.49,14.459,6.787,28.117,7.95,41.015c0.303,3.378,1.745,4.519,4.902,7.019      l0.257,0.204c5.645,4.474,13.853,6.5,21.959,5.41c8.728-1.169,16.495-5.841,21.874-13.154c0.712-0.968,1.354-1.987,2.034-3.067      c2.69-4.271,5.739-9.112,14.599-13.143c2.383-1.083,4.424-1.974,6.169-2.735c4.41-1.923,7.071-3.084,7.893-4.207      c0.594-0.811,0.402-2.103-0.479-5.579c-1.877-7.398-4.625-14.689-7.283-21.741c-1.588-4.211-3.229-8.564-4.676-12.917      c-2.998-9.005-4.872-18.125-6.171-25.063c-0.164-0.882,0.416-1.731,1.299-1.896c0.885-0.16,1.731,0.417,1.895,1.298      c1.279,6.838,3.123,15.818,6.058,24.635c1.429,4.292,3.058,8.615,4.635,12.796c2.69,7.135,5.471,14.513,7.39,22.089      c2.175,8.574,0.652,9.238-9.262,13.563c-1.731,0.755-3.758,1.64-6.121,2.715c-7.977,3.627-10.63,7.841-13.198,11.917      c-0.68,1.08-1.383,2.198-2.166,3.26c-5.904,8.03-14.449,13.162-24.058,14.45C145.761,363.752,144.178,363.856,142.606,363.856z"/>
			</g>
		</g>
		<g>
			<g>
				<g>
					<path style="fill:#FFBBEC;" d="M172.012,178.603c16.521-23.903,4.941-29.595,27.548-35.154c5.1-1.253,10.306-1.43,15.565-1.624       c14.877-0.618,30.972,7.906,25.907,20.666c-10.263,27.338,22.18,47.862,13.085,66.46c-5.24,10.714-20.015,12.445-30.404,10.017       C187.973,230.616,164.202,189.904,172.012,178.603z"/>
					<path style="opacity:0.35;fill:#FC09B2;" d="M241.527,186.968c-7.681,0.634-13.442,1.252-22.742-4.366       c-19.633-11.858-20.328-29.963-13.446-26.805c2.347,1.059,24.452,6.446,34.776,4.787       C238.55,166.431,238.453,177.395,241.527,186.968z"/>
				</g>
				<path style="fill:#000E3F;" d="M232.19,241.562c-3.001,0-6.007-0.348-8.848-1.012c-24.932-5.828-45.083-27.294-52.101-45.489      c-2.907-7.532-3.105-13.705-0.564-17.383l0,0c6.354-9.193,8.476-15.677,10.027-20.412c2.681-8.185,4.456-11.95,18.469-15.395      c5.192-1.275,10.524-1.472,15.679-1.661l0.213-0.008c10.818-0.45,21.534,3.702,26.071,10.098      c2.721,3.832,3.206,8.255,1.406,12.791c-5.206,13.868,1.084,25.784,7.166,37.308c5.386,10.206,10.475,19.845,5.868,29.266      C251.527,237.947,241.872,241.561,232.19,241.562z M216.702,143.417c-0.502,0-1.005,0.011-1.509,0.032l-0.22,0.008      c-5.222,0.192-10.155,0.374-15.024,1.569c-12.854,3.16-13.753,5.908-16.157,13.252c-1.613,4.923-3.821,11.668-10.443,21.249l0,0      c-1.884,2.726-1.547,7.962,0.924,14.367c6.548,16.971,26.23,37.982,49.81,43.493c8.696,2.031,23.478,1.271,28.575-9.149      c3.881-7.938-0.615-16.457-5.822-26.322c-6.119-11.593-13.055-24.732-7.325-39.995c1.406-3.541,1.057-6.809-1.024-9.741      C234.755,146.918,225.944,143.417,216.702,143.417z M172.013,178.603h0.018H172.013z"/>
			</g>
			<g>
				<g>
					<path style="fill:#FFBBEC;" d="M274.702,137.09c-3.778,17.624-14.396,32.882-32.165,34.293       c-15.377,1.22-28.362-3.707-39.506-13.129l-20.208-25.54c-16.501-32.428-12.626-74.732,27.382-83.819       c17.553-3.97,34.652,4.496,46.178,17.458c12.459,14.038,17.601,30.18,19.514,48.641c0.167,1.65,0.287,3.348,0.311,5.046       C276.4,125.731,275.898,131.518,274.702,137.09z"/>
					<path style="fill:#FFFFFF;" d="M251.26,145.512c3.804-1.278,7.238-4.846,6.735-9.108c-0.555-4.709-5.301-2.032-8.297-1.346       c-3.089,0.708-6.168,0.877-9.305,1.174C230.62,137.16,241.319,148.851,251.26,145.512z M257.053,135.871L257.053,135.871       L257.053,135.871L257.053,135.871z"/>
					<g style="opacity:0.35;">
						<path style="fill:#FC09B2;" d="M233.37,131.647c-1.671-11.444-23.026-10.43-22.801,1.745        c0.163,8.758,14.022,10.611,19.784,5.372C232.868,136.476,233.708,133.96,233.37,131.647z"/>
						<path style="fill:#FC09B2;" d="M274.702,137.09c-6.361,1.387-14.372-1.291-14.492-7.94        c-0.144-8.083,9.207-11.239,15.998-9.111C276.4,125.731,275.898,131.518,274.702,137.09z"/>
					</g>
				</g>
				<g>
					<path style="fill:#000E3F;" d="M277.517,114.82c-2.21-21.244-8.356-36.524-19.925-49.541       c-13.334-15.003-31.179-21.717-47.752-17.957c-15.427,3.501-26.788,12.193-32.855,25.136       c-7.88,16.812-6.195,40.179,4.399,60.982c0.403,0.799,1.38,1.117,2.184,0.711c0.8-0.407,1.118-1.385,0.71-2.185       c-10.149-19.932-11.816-42.206-4.352-58.13c5.626-12.003,16.219-20.076,30.632-23.348c15.397-3.495,32.067,2.842,44.604,16.947       c11.089,12.478,16.987,27.195,19.121,47.72c1.717,16.517-2.568,33.209-11.185,43.564c-5.554,6.675-12.515,10.388-20.695,11.038       c-14.294,1.133-26.846-3.033-38.333-12.745c-0.684-0.576-1.706-0.495-2.289,0.192c-0.578,0.685-0.494,1.71,0.192,2.29       c10.757,9.095,22.867,13.687,36.056,13.687c1.53,0,3.074-0.062,4.632-0.186c8.957-0.711,16.888-4.929,22.936-12.197       C274.753,149.796,279.32,132.178,277.517,114.82z"/>
					<path style="fill:#000E3F;" d="M250.01,93.12c0.648,5.381,13.798,5.39,15.272,0.688       C267.378,87.124,249.031,84.985,250.01,93.12z"/>
					<path style="fill:#000E3F;" d="M216.994,101.524c2.927,3.964,15.355-0.332,14.213-5.631       C229.48,87.885,212.833,95.89,216.994,101.524z"/>
					<path style="fill:#000E3F;" d="M242.963,125.054c-0.878,0.186-1.44,1.047-1.255,1.925c0.162,0.765,0.837,1.29,1.588,1.29       c0.111,0,0.224-0.011,0.337-0.035c5.081-1.073,8.102-2.698,9.236-4.971c0.474-0.953,0.846-2.506-0.083-4.491       c-1.424-3.046-6.743-11.397-6.969-11.751c-0.483-0.755-1.488-0.981-2.242-0.496c-0.758,0.482-0.98,1.487-0.497,2.243       c0.055,0.084,5.43,8.525,6.765,11.38c0.412,0.879,0.264,1.371,0.118,1.665C249.593,122.55,248.196,123.95,242.963,125.054z"/>
					<path style="fill:#000E3F;" d="M191.542,124.349c-0.723-0.531-1.743-0.368-2.268,0.357c-0.529,0.725-0.369,1.741,0.358,2.269       l5.279,3.843c0.287,0.211,0.622,0.311,0.953,0.311c0.502,0,0.998-0.232,1.315-0.668c0.529-0.725,0.368-1.742-0.358-2.269       L191.542,124.349z"/>
					<circle style="fill:#000E3F;" cx="260.593" cy="108.194" r="4.479"/>
					<path style="fill:#000E3F;" d="M222.984,112.495c0.161,2.469,2.292,4.339,4.761,4.179c2.469-0.161,4.339-2.293,4.179-4.762       c-0.161-2.469-2.293-4.339-4.761-4.179C224.694,107.895,222.824,110.027,222.984,112.495z"/>
				</g>
			</g>
			<g>
				<g>
					<path style="fill:#000E3F;" d="M267.677,54.017c2.453,5.109,7.81,6.91,12.724,8.857c9.515,3.771,15.924,9.311,13.375,20.189       c-2.516,10.739,2.054,9.501,4.426,15.266c3.992,9.705-1.54,20.568-10.602,22.076c-12.536,2.086-15.154-16.475-16.365-25.071       c-2.051-14.557-11.318-23.101-25.258-27.414c-11.559-3.577-24.265-24.137-9.38-31.986c5.088-2.683,11.822-2.108,16.915,0.248       C261.076,39.678,264.271,46.921,267.677,54.017z"/>
					<path style="fill:#4217A6;" d="M286.496,89.605c1.325,2.518,3.306,4.125,4.717,8.255c1.929,5.637,2.12,11.64-2.774,14.994       c-1.246,0.854-2.761-0.642-1.931-1.899c0.397-1.059,2.253-2.698,1.145-7.27c-2.202-8.682-7.904-11.138-6.745-17.695       c0.934-6.336,7.448-10.131,8.335-7.618c0.181,0.513,0.019,1.063-0.366,1.402C288.751,79.966,283.613,84.479,286.496,89.605z"/>
				</g>
				<g>
					<g>
						<path style="fill:#000E3F;" d="M206.903,33.088c35.027,0.771,52.907,34.949,33.147,49.53        c-7.119,5.253-20.185,2.094-25.1,9.833c-5.072,7.986-1.733,17.58-12.256,21.985c-7.507,3.143-8.377,1.052-14.414,3.667        c-4.491,1.946-6.886,8.091-2.213,11.293c3.385,2.319,6.329,5.317,9.786,7.519c9.168,5.838,8.344,17.635-2.49,23.03        c-2.835,1.412-6.584,2.578-7.596,6.056c-1.134,3.9,1.121,7.441,0.407,11.407c-1.708,9.49-11.418,14.221-20.368,11.575        c-8.086-2.39-14.156-11.32-13.567-19.715c0.229-3.266,1.298-6.468,1.15-9.739c-0.345-7.614-7.309-7.39-12.564-10.214        c-10.641-5.716-13.571-18.622-6.058-28.055c5.66-7.107,15.598-10.944,9.36-21.388c-2.491-4.171-4.355-8.182-4.518-13.15        c-0.322-9.814,5.404-18.55,14.895-21.412c5.617-1.693,12.633-0.391,17.432-4.297c5.619-4.573,1.556-11.707,12.078-20.675        C190.311,34.97,198.77,32.909,206.903,33.088z"/>
						<g>
							<path style="fill:#4217A6;" d="M207.019,43.153c-11.443,1.743-16.899,10.239-20.487,21.291         c-4.049,12.42-15.239,11.469-21.927,13.417c-22.293,6.287,5.847,24.148-8.302,41.76         c-4.542,5.448-14.689,11.916-14.238,18.494l0.002,0.03c0.119,1.721-2.427,2.002-2.698,0.302         c-1.748-11.21,15.16-17.941,16.246-28.048c1.3-10.604-11.939-23.711-0.861-33.248c9.841-9.089,22.291-1.544,27.281-14.357         c4.41-12.022,12.01-21.946,24.76-22.186c0.707-0.017,1.293,0.542,1.311,1.248C208.122,42.507,207.644,43.055,207.019,43.153z         "/>
							<path style="fill:#4217A6;" d="M249.141,59.105c3.025,4.655,0.919,11.165-1.648,9.638c-0.379-0.226-0.742-0.828-0.603-0.642         c-2.897-4.648-2.159-11.161-2.19-10.354C244.906,56.122,247.027,55.782,249.141,59.105z"/>
						</g>
					</g>
					<g>
						<g>
							<path style="fill:#FC09B2;" d="M272.808,52.191c-4.082-13.985-47.894-21.474-76.239,9.384         c-8.62,9.384-15.097,20.468-18.486,32.512c-5.21,1.861-9.982,6.41-12.683,13.494c-10.088,26.456,14.031,49.594,29.939,30.47         c7.465-8.975,9.244-25.628,1.795-37.056c-0.904-1.387-1.932-2.554-3.026-3.57c6.268-16.029,17.33-30.168,33.135-37.743         c15.833-7.601,27.204-7.575,40.822-2.497C271.73,58.551,273.784,55.535,272.808,52.191z"/>
							<path style="fill:#915EFD;" d="M187.992,132.217c-3.873,6.379-16.078,5.138-16.396-11.579         c-0.105-5.491,1.528-12.349,5.776-16.523c3.162-3.106,8.101-1.922,10.399,0.738         C192.69,110.548,192.803,124.293,187.992,132.217z"/>
							<path style="opacity:0.45;fill:#000E3F;" d="M240.911,49.586c-20.761,3.363-39.53,19.5-50.402,37.172         c-0.874,1.434-3.077,0.303-2.413-1.248c12.577-29.12,47.797-50.182,74.849-36.796c0.635,0.312,0.897,1.08,0.585,1.714         C262.255,53.023,257.152,47.015,240.911,49.586z"/>
							<path style="opacity:0.5;fill:#FFFFFF;" d="M181.571,110.457c7.714,4.604,2.71,17.259-0.307,14.076         c-0.393-0.413-0.468-1.2-0.417-1.002c-0.001-0.007-0.285-3.755-0.511-5.728c-0.023-0.195-0.834-6.547-0.778-6.138         c-0.035-0.735,0.532-1.359,1.266-1.394C181.097,110.257,181.353,110.327,181.571,110.457z"/>
						</g>
						<g>
							<path style="fill:#000E3F;" d="M274.367,51.741c-1.554-5.333-7.963-9.781-17.146-11.933         c-16.286-3.802-42.256-0.67-61.842,20.662c-8.944,9.733-15.305,20.757-18.677,32.38c-5.596,2.272-10.211,7.294-12.818,14.157         c-6.409,16.764,0.263,31.734,9.781,37.306c2.798,1.626,5.691,2.439,8.537,2.439c2.559,0,5.118-0.646,7.557-1.937         c2.415-1.267,4.735-3.181,6.839-5.715c8.442-10.164,9.279-27.645,1.889-38.98c-0.741-1.148-1.578-2.176-2.463-3.109         c6.624-16.357,17.912-29.151,31.925-35.871c8.179-3.922,15.281-5.859,22.408-5.859c5.524,0,11.049,1.148,17.147,3.42         c2.104,0.789,4.137,0.502,5.524-0.789C274.558,56.499,275.061,54.132,274.367,51.741z M195.785,101.889         c7.222,11.096,4.95,27.118-1.698,35.13c-5.5,6.6-12.34,8.25-18.773,4.496c-10.809-6.313-12.746-21.93-8.394-33.36         c1.913-4.998,4.974-8.848,8.681-11.096c1.196-0.741,2.463-1.315,3.778-1.698c0.861-0.263,1.746-0.43,2.631-0.526         c0.502-0.072,1.028-0.096,1.507-0.096c3.18,0,6.17,1.1,8.681,3.133c0.908,0.741,1.746,1.578,2.511,2.535         C195.092,100.86,195.45,101.362,195.785,101.889z M270.828,55.519c-0.598,0.574-1.53,0.382-2.2,0.143         c-14.899-5.548-26.688-4.831-42.089,2.559c-14.444,6.935-26.114,19.92-33.121,36.541c-3.42-2.487-7.533-3.611-11.742-3.156         c-0.407,0.048-0.837,0.096-1.244,0.191c3.348-10.402,9.231-20.327,17.338-29.127c13.727-14.946,31.878-20.973,47.111-20.973         c4.137,0,8.035,0.43,11.598,1.267c7.916,1.841,13.56,5.548,14.779,9.685C271.593,53.821,271.425,54.969,270.828,55.519z"/>
							<path style="fill:#000E3F;" d="M189.878,104.949c-0.287-0.406-0.574-0.789-0.885-1.148c-1.578-1.842-4.137-3.061-6.672-3.157         c-1.578-0.072-3.037,0.287-4.328,1.028c-0.646,0.335-1.244,0.765-1.77,1.291c-0.717,0.694-1.363,1.459-1.913,2.296         c-3.276,4.615-4.424,10.737-4.328,15.401c0.167,8.776,3.611,14.899,9.255,16.429c0.813,0.215,1.626,0.311,2.439,0.311         c3.109,0,6.026-1.578,7.7-4.353c3.994-6.576,4.807-16.716,2.511-23.842C191.361,107.628,190.692,106.169,189.878,104.949z          M186.602,131.375c-1.339,2.224-3.97,3.252-6.529,2.559c-4.161-1.1-6.72-6.098-6.863-13.32         c-0.048-3.228,0.55-7.27,2.176-10.761c0.598-1.291,1.339-2.511,2.224-3.587c0.287-0.359,0.598-0.67,0.909-0.98         c1.148-1.148,2.463-1.387,3.444-1.387h0.239c1.65,0.072,3.324,0.837,4.328,2.009c0.694,0.813,1.292,1.817,1.77,2.965         c0.454,1.1,0.813,2.296,1.052,3.611C190.572,118.533,189.663,126.353,186.602,131.375z"/>
						</g>
					</g>
				</g>
			</g>
		</g>
	</g>
	<g>
		<g>
			<g>
				<path style="fill:#4217A6;" d="M406.554,116.579l9.04,15.001c3.447,5.72,2.45,13.083-2.451,17.618      c-0.866,0.795-1.772,1.613-2.692,2.44c-1.384,1.234-2.828,2.486-4.342,3.744c-0.504,0.431-1.015,0.848-1.527,1.266      c-1.541,1.274-3.156,2.575-4.836,3.86c-0.552,0.441-1.112,0.87-1.693,1.293c-0.573,0.437-1.146,0.873-1.741,1.304      c-1.029,0.766-2.079,1.526-3.165,2.289c-0.701,0.495-1.429,1.006-2.152,1.496c-0.045,0.046-0.099,0.078-0.152,0.11      c-0.682,0.466-1.365,0.932-2.061,1.406c-0.597,0.396-1.195,0.793-1.792,1.189c-0.85,0.549-1.701,1.098-2.573,1.642      c-0.859,0.535-1.736,1.101-2.629,1.639l-0.987,0.595c-1,0.603-1.995,1.184-2.99,1.765c-1.008,0.589-2.011,1.158-3.008,1.704      l-0.04,0.024c-0.474,0.268-0.949,0.536-1.419,0.783c-0.803,0.447-1.6,0.873-2.406,1.286c-9.674,5.121-18.75,8.882-26.679,11.68      c-3.717,1.313-7.669,0.968-10.972-0.713c-2.333-1.157-4.355-2.974-5.777-5.334l-9.041-15c-3.447-5.72-2.458-13.097,2.451-17.619      c8.475-7.834,17.533-14.821,27.042-20.969c4.013-2.601,8.11-5.033,12.26-7.316c9.545-5.244,19.455-9.672,29.594-13.237      c2.425-0.862,4.956-1.006,7.341-0.517C400.981,110.74,404.433,113.059,406.554,116.579z"/>
				<path style="fill:#915EFD;" d="M379.809,152.911c2.627,5.142,5.078,10.718,7.183,16.683c-0.85,0.549-1.701,1.098-2.573,1.642      c-0.859,0.535-1.736,1.101-2.629,1.639l-0.987,0.595c-1,0.603-1.995,1.184-2.99,1.765c-1.008,0.589-2.011,1.158-3.008,1.704      l-0.04,0.024c-2.196-6.238-4.768-12.013-7.507-17.342c-6.237-12.037-13.409-21.675-19.293-28.544      c4.013-2.601,8.11-5.033,12.26-7.316C366.208,130.734,373.521,140.577,379.809,152.911z"/>
				<path style="opacity:0.25;fill:#000E3F;" d="M406.554,116.579l9.04,15.001c3.447,5.72,2.45,13.083-2.451,17.618      c-0.88,0.803-1.772,1.613-2.692,2.44c-1.384,1.234-2.828,2.486-4.342,3.744c-0.504,0.431-1.015,0.848-1.527,1.266      c-1.541,1.274-3.156,2.575-4.836,3.86c-0.56,0.428-1.12,0.856-1.693,1.293c-0.573,0.437-1.146,0.873-1.741,1.304      c-1.029,0.766-2.079,1.526-3.165,2.289c-0.701,0.495-1.429,1.006-2.152,1.496c-0.045,0.046-0.099,0.078-0.152,0.11      c-0.682,0.466-1.365,0.932-2.061,1.406c-0.597,0.396-1.195,0.793-1.792,1.189c-0.85,0.549-1.701,1.098-2.573,1.642      c-0.859,0.535-1.736,1.101-2.629,1.639l-0.987,0.595c-1,0.603-1.995,1.184-2.99,1.765c-1.008,0.589-2.011,1.158-3.008,1.704      l-0.04,0.024c-0.474,0.268-0.949,0.536-1.419,0.783c-0.803,0.447-1.6,0.873-2.406,1.286c-9.674,5.121-18.75,8.882-26.679,11.68      c-3.717,1.313-7.669,0.968-10.972-0.713c0.641-18.782,17.168-22.816,33.969-30.379c4.249-1.907,8.522-4.046,12.551-6.71      c3.493-2.287,6.801-4.972,9.777-8.237c4.505-4.951,7.651-11.555,7.808-18.321c0.133-5.66-2.291-11.161-0.235-16.345      C400.981,110.74,404.433,113.059,406.554,116.579z"/>
				<path style="opacity:0.5;fill:#FFFFFF;" d="M344.416,143.998c0.737-0.205,1.442,0.175,1.574,0.848      c0.16,0.815-0.652,1.449-0.55,1.316c-18.131,14.543-16.128,22.509-19.291,21.213      C323.129,166.137,329.841,148.047,344.416,143.998z"/>
			</g>
			<path style="fill:#000E3F;" d="M416.985,130.741c0,0-9.04-15.001-9.04-15.002c-2.304-3.822-6.125-6.492-10.461-7.323     c-2.73-0.559-5.57-0.362-8.206,0.575c-10.224,3.596-20.263,8.086-29.837,13.346c-4.29,2.359-8.449,4.841-12.361,7.376     c-9.702,6.273-18.873,13.386-27.258,21.137c-5.434,5.005-6.588,13.27-2.742,19.653l9.042,15c1.549,2.571,3.779,4.628,6.431,5.943     c2.196,1.118,4.623,1.683,7.059,1.683c1.754,0,3.513-0.293,5.191-0.886c9.26-3.268,18.311-7.23,26.878-11.766     c3.39-1.735,6.702-3.65,9.962-5.617c8.972-5.413,17.451-11.534,25.507-18.23c2.423-2.014,4.775-4.115,7.099-6.241     C419.671,145.37,420.822,137.106,416.985,130.741z M370.18,177.596c-8.446,4.471-17.349,8.369-26.461,11.584     c-3.171,1.122-6.704,0.893-9.709-0.637c-2.112-1.046-3.879-2.677-5.108-4.717l-9.042-15c-3.051-5.066-2.143-11.621,2.164-15.587     c7.899-7.302,16.52-14.005,25.614-19.981c7.081,8.427,13.211,17.527,18.173,27.105c2.698,5.25,5.019,10.575,6.942,15.853     c-0.069,0.037-0.13,0.074-0.2,0.11C371.77,176.766,370.987,177.182,370.18,177.596z M375.64,174.6     c-1.934-5.239-4.263-10.52-6.94-15.727c-5.014-9.675-11.158-18.887-18.282-27.409c1.252-0.793,2.509-1.586,3.804-2.364     c0.228-0.137,0.446-0.278,0.675-0.414c1.622-0.967,3.289-1.909,4.964-2.844c7.263,8.619,13.485,17.967,18.502,27.807     c0,0.001,0,0.001,0,0.001c2.549,4.993,4.789,10.125,6.662,15.274L375.64,174.6z M412.048,148     c-2.753,2.549-5.591,5.027-8.501,7.395c-3.687,3.001-7.448,5.935-11.336,8.67c-1.458,1.031-2.936,2.033-4.417,3.03     c-1.865-5.032-4.047-10.044-6.538-14.924c-5.031-9.867-11.284-19.224-18.524-27.89c8.9-4.775,18.175-8.902,27.631-12.227     c1.306-0.464,2.676-0.7,4.052-0.7c0.814,0,1.63,0.082,2.439,0.248c3.451,0.662,6.481,2.78,8.31,5.814l9.04,15.001     C417.25,137.471,416.34,144.027,412.048,148z"/>
		</g>
		<g>
			<g>
				<ellipse style="fill:#FC09B2;" cx="382.338" cy="156.948" rx="8.01" ry="9.676"/>
				<path style="fill:#4217A6;" d="M372.709,37.074c0,3.619-2.936,6.555-6.539,6.555h-11.677c-1.793,0-3.431-0.734-4.626-1.929      c-1.178-1.178-1.912-2.817-1.912-4.626c0-0.291,0.017-0.581,0.068-0.853c0.41-3.21,3.158-5.685,6.47-5.685h11.677      c1.793,0,3.431,0.734,4.626,1.912c0.991,1.007,1.657,2.322,1.844,3.773C372.692,36.494,372.709,36.784,372.709,37.074z"/>
				<path style="opacity:0.25;fill:#000E3F;" d="M372.709,37.074c0,3.619-2.936,6.555-6.539,6.555h-11.677      c-1.793,0-3.431-0.734-4.626-1.929c-1.178-1.178-1.912-2.817-1.912-4.626c0-0.291,0.017-0.581,0.068-0.853h24.617      C372.692,36.494,372.709,36.784,372.709,37.074z"/>
			</g>
			<path style="fill:#000E3F;" d="M383.894,145.819v-40.678c0-12.435-9.709-22.671-21.929-23.508V45.26h4.209     c4.496,0,8.155-3.683,8.155-8.179c0-0.406-0.024-0.789-0.072-1.076c-0.239-1.746-1.052-3.42-2.319-4.711     c-1.555-1.531-3.611-2.391-5.763-2.391h-11.67c-4.089,0-7.581,3.061-8.083,7.031c-0.072,0.359-0.096,0.741-0.096,1.148     c0,2.176,0.861,4.233,2.391,5.764c1.555,1.554,3.611,2.415,5.787,2.415h4.209v36.373c-12.244,0.837-21.953,11.072-21.953,23.508     v32.212c0,0.909,0.741,1.626,1.626,1.626c0.909,0,1.626-0.718,1.626-1.626v-32.212c0-11.192,9.111-20.327,20.327-20.327     c11.192,0,20.303,9.135,20.303,20.327v40.702c-4.496,0.932-7.94,5.548-7.94,11.096c0,6.242,4.328,11.312,9.637,11.312     c5.309,0,9.638-5.07,9.638-11.312C391.977,151.343,388.461,146.68,383.894,145.819z M354.503,42.007     c-1.316,0-2.559-0.526-3.491-1.459c-0.933-0.933-1.435-2.152-1.435-3.468c0-0.191,0-0.382,0.048-0.645     c0.311-2.439,2.416-4.281,4.879-4.281h11.67c1.291,0,2.535,0.526,3.467,1.435c0.766,0.789,1.244,1.77,1.411,2.941     c0.024,0.167,0.024,0.359,0.024,0.55c0,2.702-2.2,4.926-4.902,4.926h-4.209h-3.253H354.503z M382.339,164.998     c-3.515,0-6.385-3.611-6.385-8.059c0-3.683,1.985-6.791,4.687-7.748c0.526-0.191,1.1-0.287,1.698-0.287     c0.55,0,1.052,0.096,1.555,0.263c2.774,0.861,4.831,4.018,4.831,7.772C388.725,161.387,385.855,164.998,382.339,164.998z"/>
		</g>
	</g>
	<g>
		<g>
			<g>
				<path style="fill:#FFCF00;" d="M493.885,75.657c0,11.726-5.998,22.057-15.111,28.056c-5.308,3.507-11.672,5.551-18.496,5.551      c-18.564,0-33.607-15.043-33.607-33.607c0-8.896,3.466-16.993,9.112-23.005c6.134-6.527,14.84-10.602,24.495-10.602      C478.841,42.049,493.885,57.093,493.885,75.657z"/>
				<path style="opacity:0.5;fill:#FD8A02;" d="M478.774,103.712c-5.308,3.507-11.672,5.551-18.496,5.551      c-18.564,0-33.607-15.043-33.607-33.607c0-8.896,3.466-16.993,9.112-23.005C434.198,72.461,438.382,102.913,478.774,103.712z"/>
			</g>
			<g>
				<path style="fill:#000E3F;" d="M468.258,50.351c-0.634,0.633-0.634,1.662,0,2.296c12.686,12.687,12.686,33.331,0,46.018      c-0.634,0.634-0.634,1.663,0,2.297c0.317,0.317,0.733,0.476,1.149,0.476c0.416,0,0.832-0.159,1.149-0.476      c13.952-13.953,13.952-36.658,0-50.611C469.922,49.716,468.893,49.716,468.258,50.351z"/>
				<path style="fill:#000E3F;" d="M463.383,57.524c-0.635-0.634-1.664-0.634-2.298,0c-0.635,0.634-0.635,1.663,0,2.296      c4.234,4.233,6.563,9.856,6.563,15.836c0,5.979-2.33,11.602-6.563,15.835c-0.635,0.634-0.635,1.662,0,2.297      c0.317,0.317,0.733,0.476,1.149,0.476c0.416,0,0.832-0.159,1.149-0.476c4.845-4.845,7.513-11.284,7.513-18.132      C470.897,68.809,468.228,62.369,463.383,57.524z"/>
				<path style="fill:#000E3F;" d="M453.716,64.893c-0.634,0.634-0.634,1.663,0,2.297c4.667,4.669,4.667,12.264,0,16.932      c-0.634,0.634-0.634,1.663,0,2.296c0.317,0.317,0.733,0.476,1.149,0.476c0.416,0,0.832-0.159,1.149-0.476      c5.933-5.934,5.933-15.59,0-21.525C455.38,64.26,454.35,64.26,453.716,64.893z"/>
				<circle style="fill:#000E3F;" cx="445.25" cy="75.657" r="5.404"/>
				<path style="fill:#000E3F;" d="M460.278,40.425c-9.681,0-19.04,4.051-25.68,11.114c-6.16,6.56-9.553,15.125-9.553,24.117      c0,19.426,15.806,35.231,35.232,35.231c6.925,0,13.63-2.013,19.389-5.818c9.919-6.53,15.843-17.525,15.843-29.413      C495.51,56.229,479.704,40.425,460.278,40.425z M477.878,102.357c-5.229,3.455-11.315,5.282-17.6,5.282      c-17.635,0-31.982-14.348-31.982-31.982c0-8.163,3.079-15.938,8.672-21.893c6.114-6.506,14.392-10.09,23.311-10.09      c17.636,0,31.983,14.348,31.983,31.983C492.26,86.448,486.884,96.429,477.878,102.357z"/>
			</g>
		</g>
		<g>
			<g>
				<path style="fill:#915EFD;" d="M103.235,98.661c0,11.726-5.998,22.057-15.111,28.056c-5.308,3.507-11.672,5.551-18.496,5.551      c-18.564,0-33.607-15.043-33.607-33.607c0-8.896,3.466-16.993,9.112-23.005c6.134-6.527,14.84-10.602,24.495-10.602      C88.192,65.054,103.235,80.098,103.235,98.661z"/>
				<path style="opacity:0.25;fill:#000E3F;" d="M88.124,126.717c-5.308,3.507-11.672,5.551-18.496,5.551      c-18.564,0-33.607-15.043-33.607-33.607c0-8.896,3.466-16.993,9.112-23.005C43.549,95.466,47.733,125.918,88.124,126.717z"/>
				<path style="fill:#FFCF00;" d="M70.888,77.753l5.547,11.239c0.204,0.415,0.6,0.702,1.058,0.769l12.404,1.802      c1.152,0.167,1.613,1.584,0.779,2.397l-8.975,8.749c-0.331,0.323-0.482,0.788-0.404,1.244l2.119,12.353      c0.197,1.148-1.008,2.023-2.039,1.481l-11.094-5.832c-0.409-0.215-0.898-0.215-1.308,0l-11.094,5.832      c-1.031,0.542-2.236-0.333-2.039-1.481l2.119-12.353c0.078-0.456-0.073-0.921-0.404-1.244l-8.975-8.749      c-0.834-0.813-0.374-2.23,0.779-2.397l12.404-1.802c0.458-0.066,0.853-0.354,1.058-0.769l5.547-11.239      C68.883,76.708,70.373,76.708,70.888,77.753z"/>
			</g>
			<g>
				<path style="fill:#000E3F;" d="M69.628,133.893c-19.426,0-35.232-15.804-35.232-35.231c0-8.993,3.394-17.558,9.554-24.117      c6.638-7.063,15.996-11.114,25.678-11.114c19.426,0,35.232,15.804,35.232,35.232c0,11.887-5.922,22.882-15.841,29.412      C83.257,131.88,76.551,133.893,69.628,133.893z M69.628,66.678c-8.917,0-17.195,3.584-23.309,10.09      c-5.594,5.955-8.673,13.73-8.673,21.893c0,17.635,14.347,31.982,31.983,31.982c6.285,0,12.373-1.827,17.602-5.282      c9.006-5.928,14.38-15.909,14.38-26.7C101.61,81.026,87.263,66.678,69.628,66.678z"/>
				<path style="fill:#000E3F;" d="M57.223,119.576c-0.626,0-1.248-0.197-1.778-0.583c-0.939-0.683-1.401-1.818-1.204-2.963      l2.099-12.24l-8.892-8.668c-0.832-0.809-1.128-1.999-0.769-3.104c0.358-1.106,1.295-1.896,2.446-2.063l12.29-1.786l5.495-11.136      c0.515-1.042,1.556-1.689,2.716-1.689c0.002,0,0.002,0,0.003,0c1.16,0.001,2.2,0.648,2.713,1.689l5.495,11.136l12.292,1.786      c1.149,0.166,2.085,0.957,2.445,2.062c0.359,1.104,0.065,2.294-0.767,3.105l-8.892,8.67l2.099,12.238      c0.196,1.147-0.266,2.282-1.207,2.964c-0.941,0.683-2.164,0.766-3.188,0.23l-10.993-5.779l-10.991,5.778      C58.189,119.459,57.704,119.576,57.223,119.576z M69.629,110.169c0.485,0,0.968,0.116,1.408,0.348l10.702,5.625l-2.044-11.915      c-0.167-0.985,0.159-1.987,0.872-2.683l8.656-8.437l-11.964-1.74c-0.983-0.142-1.836-0.76-2.279-1.653l-5.353-10.846      l-5.351,10.842c-0.441,0.895-1.294,1.515-2.281,1.657l-11.962,1.739l8.655,8.439c0.716,0.697,1.042,1.701,0.871,2.685      l-2.043,11.912l10.7-5.625C68.66,110.286,69.145,110.169,69.629,110.169z M89.664,93.171h0.018H89.664z M69.43,78.471      l0.002,0.001l0,0C69.43,78.471,69.43,78.471,69.43,78.471z"/>
			</g>
		</g>
		<g>
			<g>
				<path style="fill:#FC09B2;" d="M510.376,228.788c0,14.126-7.226,26.572-18.204,33.798c-6.394,4.225-14.061,6.688-22.282,6.688      c-22.364,0-40.486-18.122-40.486-40.486c0-10.717,4.175-20.471,10.978-27.714c7.389-7.862,17.878-12.772,29.508-12.772      C492.253,188.302,510.376,206.425,510.376,228.788z"/>
				<path style="opacity:0.25;fill:#000E3F;" d="M492.172,262.586c-6.394,4.225-14.061,6.688-22.282,6.688      c-22.364,0-40.486-18.122-40.486-40.486c0-10.717,4.175-20.471,10.978-27.714C438.473,224.938,443.513,261.623,492.172,262.586z      "/>
				<path style="fill:#FFBBEC;" d="M469.897,251.857c-0.611,0-1.214-0.114-1.792-0.338c-5.732-2.138-11.788-6.192-16.18-10.834      c-4.51-4.79-7.231-10.091-7.868-15.336c-0.59-4.843,0.682-9.574,3.407-12.652c1.916-2.164,4.429-3.354,7.077-3.354      c0.626,0,1.262,0.065,1.893,0.196c6.657,1.328,11.257,7.317,13.457,10.874c2.2-3.557,6.801-9.547,13.467-10.876      c0.606-0.126,1.227-0.192,1.829-0.192c0.529,0,1.043,0.051,1.532,0.151c5.987,0.95,9.974,7.92,9.005,15.856      c-1.569,13.188-15.253,22.88-24.069,26.176C471.119,251.741,470.516,251.857,469.897,251.857z"/>
			</g>
			<g>
				<path style="fill:#000E3F;" d="M469.89,270.898c-23.219,0-42.112-18.891-42.112-42.11c0-10.749,4.056-20.987,11.419-28.827      c7.933-8.442,19.12-13.284,30.692-13.284c23.219,0,42.11,18.89,42.11,42.111c0,14.208-7.078,27.35-18.935,35.155      C486.179,268.492,478.163,270.898,469.89,270.898z M469.89,189.926c-10.836,0-20.895,4.354-28.323,12.26      c-6.796,7.235-10.538,16.682-10.538,26.602c0,21.428,17.433,38.861,38.861,38.861c7.635,0,15.031-2.22,21.386-6.419      c10.943-7.203,17.474-19.331,17.474-32.442C508.75,207.36,491.319,189.926,469.89,189.926z"/>
				<path style="fill:#000E3F;" d="M454.541,210.967c0.51,0,1.032,0.053,1.564,0.163c8.719,1.74,13.785,12.632,13.785,12.632      s5.065-10.893,13.784-12.632c0.508-0.107,1.017-0.161,1.512-0.161c0.414,0,0.819,0.038,1.206,0.118      c5.066,0.805,8.588,6.936,7.718,14.067c-1.391,11.697-13.545,21.307-23.025,24.851c-0.381,0.152-0.783,0.228-1.188,0.228      c-0.405,0-0.812-0.076-1.204-0.228c-5.131-1.914-11.023-5.61-15.589-10.437c-3.87-4.109-6.784-9.044-7.436-14.415      C444.732,217.475,448.881,210.967,454.541,210.967L454.541,210.967z M454.541,207.719c-3.12,0-6.064,1.386-8.292,3.902      c-3.029,3.421-4.451,8.627-3.804,13.926c0.679,5.588,3.548,11.208,8.296,16.248c4.627,4.892,10.755,8.992,16.818,11.253      c0.725,0.282,1.526,0.433,2.339,0.433c0.824,0,1.629-0.155,2.393-0.46c11.291-4.221,23.564-15.034,25.045-27.485      c1.069-8.769-3.479-16.508-10.365-17.648c-0.574-0.112-1.174-0.169-1.784-0.169c-0.715,0-1.448,0.078-2.178,0.23      c-6.019,1.201-10.452,5.849-13.12,9.555c-2.671-3.707-7.111-8.356-13.148-9.561      C456.022,207.796,455.276,207.719,454.541,207.719L454.541,207.719z"/>
			</g>
		</g>
		<g>
			<g>
				<path style="fill:#915EFD;" d="M419.281,329.176c0,11.726-5.998,22.057-15.111,28.056c-5.308,3.507-11.672,5.551-18.497,5.551      c-18.564,0-33.607-15.043-33.607-33.607c0-8.896,3.466-16.993,9.113-23.005c6.133-6.527,14.84-10.602,24.494-10.602      C404.238,295.568,419.281,310.612,419.281,329.176z"/>
				<path style="opacity:0.25;fill:#000E3F;" d="M404.17,357.232c-5.308,3.507-11.672,5.551-18.497,5.551      c-18.564,0-33.607-15.043-33.607-33.607c0-8.896,3.466-16.993,9.113-23.005C359.595,325.98,363.779,356.433,404.17,357.232z"/>
				<g>
					<path style="fill:#FFCF00;" d="M368.782,335.348c-6.737,0.182-7.041-9.849-0.415-10.107       C374.629,324.907,375.816,334.973,368.782,335.348z"/>
					<path style="fill:#FFCF00;" d="M392.064,349.714c-4.893-4.447,1.968-12.031,6.84-7.436       C403.832,346.851,397.009,354.218,392.064,349.714z"/>
					<path style="fill:#FFCF00;" d="M399.121,312.138c0.108,2.78-2.057,5.144-4.837,5.252c-4.372,0.223-7.056-5.097-3.935-8.465       C393.325,305.654,398.939,307.592,399.121,312.138z"/>
				</g>
			</g>
			<g>
				<path style="fill:#000E3F;" d="M385.674,293.945c-9.681,0-19.042,4.051-25.679,11.114c-6.16,6.558-9.553,15.123-9.553,24.117      c0,19.426,15.806,35.231,35.232,35.231c6.923,0,13.628-2.013,19.389-5.818c9.919-6.531,15.843-17.526,15.843-29.413      C420.907,309.749,405.101,293.945,385.674,293.945z M403.275,355.876c-5.229,3.456-11.317,5.282-17.6,5.282      c-17.635,0-31.982-14.348-31.982-31.983c0-8.165,3.079-15.94,8.672-21.893c6.114-6.506,14.392-10.09,23.311-10.09      c17.636,0,31.983,14.348,31.983,31.983C417.657,339.966,412.281,349.947,403.275,355.876z"/>
				<path style="fill:#000E3F;" d="M395.16,338.347c-2.004,0.072-3.917,0.956-5.307,2.436l-13.951-8.176      c0.253-0.848,0.379-1.751,0.343-2.653c-0.036-0.903-0.235-1.787-0.578-2.599l13.247-9.331c0.47,0.433,1.011,0.812,1.607,1.137      c1.191,0.614,2.49,0.92,3.863,0.866c4.223-0.18,7.526-3.772,7.345-8.013c-0.072-2.021-0.957-3.916-2.472-5.324      c-1.498-1.389-3.466-2.112-5.523-2.003c-2.021,0.072-3.917,0.957-5.342,2.473c-0.469,0.523-0.848,1.083-1.155,1.66      c-0.595,1.173-0.902,2.508-0.848,3.844c0.036,0.957,0.253,1.859,0.614,2.707l-13.193,9.295      c-0.018-0.018-0.018-0.018-0.036-0.036c-1.498-1.39-3.483-2.094-5.523-2.022c-2.743,0.127-5.234,1.715-6.479,4.133      c-0.614,1.137-0.92,2.473-0.884,3.88c0.108,2.039,0.992,3.935,2.49,5.324c0.505,0.469,1.065,0.848,1.66,1.155      c1.21,0.632,2.545,0.92,3.863,0.848c2.076-0.09,3.989-0.993,5.36-2.509l13.933,8.14c-0.289,0.903-0.415,1.823-0.379,2.743      c0.09,2.039,0.975,3.934,2.473,5.324c0.451,0.433,0.992,0.812,1.66,1.173c1.101,0.56,2.31,0.848,3.519,0.848h0.343      c2.04-0.072,3.934-0.957,5.324-2.455c1.39-1.516,2.112-3.465,2.021-5.541c-0.09-2.057-0.975-3.934-2.473-5.324      C399.148,338.96,397.199,338.256,395.16,338.347z M390.341,308.928h0.018c0.902-0.992,2.13-1.57,3.484-1.624      c1.353-0.054,2.635,0.415,3.645,1.317c0.974,0.92,1.57,2.166,1.624,3.519c0.108,2.779-2.057,5.144-4.837,5.252      c-1.408,0.072-2.707-0.451-3.664-1.354c-0.487-0.433-0.884-0.993-1.155-1.606c-0.27-0.578-0.415-1.209-0.451-1.877      C388.951,311.22,389.421,309.921,390.341,308.928z M373.358,331.886c-0.199,0.631-0.523,1.227-0.974,1.733      c-0.036,0.036-0.055,0.054-0.09,0.09c-0.92,0.993-2.166,1.57-3.519,1.642c-1.336,0.036-2.635-0.415-3.628-1.335      c-0.992-0.92-1.57-2.166-1.624-3.519c-0.126-2.78,2.057-5.144,4.837-5.252c1.354-0.072,2.635,0.415,3.628,1.318      c0.036,0.036,0.072,0.072,0.09,0.09c0.505,0.469,0.884,1.029,1.137,1.643c0.253,0.559,0.379,1.155,0.415,1.787      C373.646,330.694,373.556,331.326,373.358,331.886z M399.203,349.428c-0.92,0.993-2.166,1.57-3.501,1.624      c-1.354,0.072-2.635-0.415-3.646-1.336c-0.993-0.902-1.57-2.147-1.625-3.501c-0.018-0.668,0.072-1.299,0.289-1.877      c0.217-0.65,0.56-1.227,1.011-1.715c0.866-0.974,2.13-1.606,3.537-1.678c0.902-0.036,1.769,0.162,2.545,0.577      c0.397,0.199,0.758,0.451,1.083,0.758c0.992,0.92,1.57,2.166,1.642,3.501C400.592,347.136,400.123,348.436,399.203,349.428z"/>
			</g>
		</g>
		<g>
			<g>
				<path style="fill:#4217A6;" d="M84.643,397.833c0,14.089-7.197,26.482-18.111,33.744c-0.044,0.022-0.065,0.044-0.109,0.065      c-6.392,4.218-14.045,6.675-22.286,6.675c-8.261,0-15.98-2.479-22.373-6.74c-10.914-7.24-18.111-19.655-18.111-33.744      c0-10.719,4.174-20.459,10.98-27.721c7.392-7.848,17.872-12.762,29.504-12.762C66.51,357.349,84.643,375.461,84.643,397.833z"/>
				<g>
					<path style="fill:#FC09B2;" d="M30.922,381.316c0,7.305,5.922,13.226,13.226,13.226s13.226-5.922,13.226-13.226       c0-7.305-5.922-13.226-13.226-13.226S30.922,374.011,30.922,381.316z"/>
					<path style="fill:#FC09B2;" d="M66.532,431.576c-0.044,0.022-0.065,0.044-0.109,0.065c-6.392,4.218-14.045,6.675-22.286,6.675       c-8.261,0-15.98-2.479-22.373-6.74c1.196-17.459,10.763-31.048,22.373-31.048C55.77,400.529,65.336,414.117,66.532,431.576z"/>
				</g>
				<path style="opacity:0.25;fill:#000E3F;" d="M66.428,431.633c-6.394,4.225-14.061,6.688-22.282,6.688      c-22.363,0-40.486-18.122-40.486-40.486c0-10.717,4.176-20.471,10.978-27.714C12.73,393.985,17.77,430.67,66.428,431.633z"/>
			</g>
			<g>
				<path style="fill:#000E3F;" d="M44.138,355.726c-11.727,0-22.627,4.714-30.689,13.276c-7.366,7.857-11.421,18.097-11.421,28.831      c0,14.153,7.043,27.273,18.836,35.096c6.883,4.588,14.93,7.012,23.274,7.012c8.281,0,16.295-2.401,23.036-6.858      c0.033-0.018,0.097-0.055,0.146-0.085c0.009-0.005,0.015-0.012,0.023-0.017c0.03-0.017,0.061-0.032,0.09-0.052      c11.793-7.847,18.834-20.968,18.834-35.096C86.267,374.614,67.368,355.726,44.138,355.726z M44.225,436.876      c-12.535,0.192-20.763-6.162-20.763-6.162c1.418-16.094,10.38-28.562,20.676-28.562c10.48,0,19.269,12.208,20.696,28.555      C63.408,431.454,55.908,436.697,44.225,436.876z M67.867,428.613c-2.081-17.122-11.957-29.709-23.729-29.709      c-11.763,0-21.631,12.589-23.708,29.712c-9.532-7.334-15.152-18.645-15.152-30.784c0-9.906,3.744-19.357,10.538-26.607      c7.439-7.901,17.498-12.252,28.322-12.252c21.439,0,38.879,17.432,38.879,38.859C83.017,409.95,77.398,421.26,67.867,428.613z"/>
				<path style="fill:#000E3F;" d="M44.149,366.465c-8.189,0-14.851,6.662-14.851,14.851c0,8.189,6.662,14.851,14.851,14.851      c8.188,0,14.851-6.662,14.851-14.851C59,373.128,52.337,366.465,44.149,366.465z M44.149,392.919      c-6.398,0-11.601-5.205-11.601-11.602c0-6.398,5.203-11.603,11.601-11.603s11.601,5.205,11.601,11.603      C55.75,387.714,50.547,392.919,44.149,392.919z"/>
			</g>
		</g>
	</g>
	<g>
		<path style="fill:#FD8A02;" d="M40.203,232.999c-4.385-2.194-9.736-3.279-14.661-3.704c-0.414-5.776-1.496-12.141-3.856-17.424    c-0.49-1.09-2.049-1.091-2.532,0.008c-2.335,5.319-3.366,11.697-3.743,17.424c-4.901,0.436-10.22,1.527-14.588,3.743    c-1.088,0.551-1.109,2.135,0.009,2.692c4.366,2.18,9.667,3.238,14.588,3.646c0.427,6.269,2.604,17.246,4.551,18.099    c0.745,0.326,1.613-0.013,1.939-0.758c2.32-5.297,3.335-11.672,3.687-17.399c4.909-0.458,10.236-1.57,14.613-3.796    c0.261-0.132,0.484-0.347,0.625-0.629C41.186,234.201,40.903,233.349,40.203,232.999z"/>
		<path style="fill:#FD8A02;" d="M469.106,433.734c-4.385-2.194-9.736-3.279-14.661-3.704c-0.414-5.776-1.496-12.142-3.856-17.425    c-0.49-1.09-2.049-1.091-2.532,0.008c-2.335,5.319-3.366,11.697-3.743,17.424c-4.901,0.436-10.22,1.527-14.588,3.743    c-1.088,0.551-1.109,2.135,0.009,2.692c4.366,2.18,9.667,3.238,14.588,3.646c0.427,6.269,2.604,17.246,4.551,18.099    c0.745,0.326,1.613-0.013,1.939-0.758c2.32-5.297,3.335-11.672,3.687-17.399c4.909-0.458,10.236-1.57,14.614-3.796    c0.261-0.133,0.484-0.347,0.625-0.629C470.09,434.936,469.806,434.085,469.106,433.734z"/>
		<path style="fill:#FD8A02;" d="M70.555,293.699c-3.627-1.815-8.052-2.712-12.125-3.063c-0.342-4.777-1.237-10.042-3.189-14.411    c-0.405-0.902-1.695-0.902-2.094,0.007c-1.932,4.399-2.784,9.674-3.095,14.41c-4.053,0.361-8.452,1.263-12.065,3.095    c-0.9,0.456-0.917,1.765,0.007,2.227c3.611,1.803,7.995,2.678,12.065,3.016c0.353,5.184,2.154,14.263,3.764,14.969    c0.616,0.27,1.333-0.011,1.603-0.627c1.919-4.381,2.759-9.654,3.05-14.39c4.06-0.379,8.466-1.299,12.086-3.139    c0.216-0.11,0.4-0.287,0.517-0.521C71.369,294.694,71.134,293.989,70.555,293.699z"/>
		<path style="fill:#FD8A02;" d="M96.085,177.874c-3.627-1.815-8.052-2.712-12.125-3.064c-0.342-4.777-1.237-10.042-3.189-14.411    c-0.405-0.902-1.695-0.902-2.094,0.007c-1.932,4.399-2.784,9.674-3.095,14.41c-4.053,0.361-8.452,1.263-12.065,3.095    c-0.9,0.456-0.917,1.765,0.007,2.227c3.611,1.803,7.994,2.678,12.065,3.015c0.353,5.184,2.154,14.263,3.764,14.969    c0.616,0.27,1.333-0.011,1.603-0.627c1.919-4.381,2.759-9.653,3.05-14.39c4.06-0.379,8.466-1.298,12.086-3.139    c0.216-0.11,0.401-0.287,0.517-0.52C96.899,178.868,96.664,178.164,96.085,177.874z"/>
		<path style="fill:#FD8A02;" d="M506.594,362.369c-3.627-1.815-8.052-2.712-12.125-3.064c-0.342-4.777-1.237-10.041-3.189-14.41    c-0.405-0.902-1.695-0.902-2.094,0.007c-1.931,4.399-2.784,9.674-3.095,14.41c-4.053,0.361-8.452,1.263-12.065,3.095    c-0.9,0.456-0.917,1.766,0.007,2.227c3.611,1.803,7.995,2.678,12.065,3.015c0.353,5.185,2.154,14.263,3.764,14.969    c0.616,0.27,1.334-0.011,1.603-0.627c1.919-4.381,2.758-9.653,3.05-14.39c4.06-0.379,8.466-1.298,12.086-3.139    c0.216-0.11,0.401-0.287,0.517-0.52C507.407,363.363,507.173,362.659,506.594,362.369z"/>
	</g>
</g>















</svg>
