<?xml version="1.0" encoding="UTF-8"?>
<!-- Generator: Adobe Illustrator 25.2.3, SVG Export Plug-In . SVG Version: 6.00 Build 0)  -->
<svg xmlns="http://www.w3.org/2000/svg" xmlns:xlink="http://www.w3.org/1999/xlink" version="1.1" id="Capa_1" x="0px" y="0px" viewBox="0 0 512 512" style="enable-background:new 0 0 512 512;" xml:space="preserve" width="512" height="512">
<g>
	<path style="fill:#091438;" d="M164.569,23.434c1.476-0.721,2.984-1.453,4.486-2.149   c161.771-75.531,289.033,70.163,328.344,123.034c-26.138,36.147-73.279,109.238-77.474,171.261   c-5.836,86.221,90.1,62.884,66.766,101.128C463.354,454.952,363.322,475.541,358.987,512c0,0-15.562-57.048,36.305-92.053   c0,0-80.389,26.579-87.517,4.541c-3.599-11.172,17.608-37.158,27.896-69.176l-14.609-34.222L154.14,189.374V50.775L164.569,23.434z   "/>
	<g>
		<path style="fill:#FF783E;" d="M400.473,219.637c-18.796,45.383-98.534,33.401-98.534,33.401    c43.466,34.388,43.771,71.153,33.733,102.273c-37.203-15.716-149.219-53.699-316.363-27.805c0,0-45.32-211.496,145.26-304.072    c5.13,157.418,137.37,184.777,137.37,184.777C336.297,168.252,419.277,174.265,400.473,219.637z"/>
	</g>
	<g style="opacity:0.1;">
		<path style="fill:#FFFFFF;" d="M318.156,184.598C244.712,171.569,193.63,102.623,179.428,32.95    c16.844,66.199,68.64,131.951,140.012,141.359L318.156,184.598z"/>
		<path style="fill:#FFFFFF;" d="M462.772,152.072c-96.346,20.163-209.564-8.427-260.01-99.674    c52.456,87.658,163.65,112.612,257.508,89.61L462.772,152.072z"/>
		<path style="fill:#FFFFFF;" d="M394.924,133.839C320.781,135.045,239.726,91.541,206,23.434    c35.747,64.679,115.965,104.375,188.361,100.046L394.924,133.839z"/>
	</g>
	<g>
		<path style="fill:#FFFFFF;" d="M129.46,223.876c0,0,65.758,24.04,85.268-24.813C214.728,199.063,179.332,153.415,129.46,223.876z"/>
		<path style="fill:#091438;" d="M131.62,225.407l-4.32-3.058c18.715-26.439,37.729-40.051,56.511-40.463    c20.459-0.419,32.503,14.903,33.007,15.558l-4.177,3.246c-0.107-0.144-11.231-14.038-28.783-13.512    C166.865,187.582,149.287,200.443,131.62,225.407z"/>
		<path style="fill:#091438;" d="M181.577,206.563c0.703,6.991,4.681,12.316,8.891,11.9c4.213-0.427,7.058-6.429,6.362-13.428    c-0.699-6.992-4.681-12.313-8.89-11.893C183.722,193.565,180.881,199.567,181.577,206.563z"/>
	</g>
	<g>
		<path style="fill:#FFFFFF;" d="M114.053,224.928c0,0-58.531,15.702-70.634-27.554C43.419,197.374,77.994,160.948,114.053,224.928z    "/>
		<path style="fill:#091438;" d="M111.749,226.231c-12.592-22.344-26.189-34.561-40.422-36.323    c-15.205-1.851-25.883,9.174-25.991,9.288l-3.834-3.643c0.504-0.533,12.662-13.082,30.472-10.892    c15.992,1.979,30.921,15.091,44.382,38.972L111.749,226.231z"/>
		<path style="fill:#091438;" d="M83.029,210.334c0.692,6.995,4.677,12.32,8.887,11.9c4.209-0.419,7.054-6.432,6.359-13.424    c-0.703-6.995-4.677-12.324-8.89-11.9C85.17,197.33,82.322,203.343,83.029,210.334z"/>
	</g>
	<path style="fill:#091438;" d="M52.365,170.526c8.85-25.962,39.858-35.033,60.242-15.84c2.144,1.817,3.864,3.041,3.944,5.599   c-19.644,5.434-43.499,10.132-63.737,12.533L52.365,170.526z"/>
	<path style="fill:#091438;" d="M137.107,164.241c16.478-25.628,52.636-24.544,67.848,1.73l-0.062,2.333   c-21.268,0.994-46.66,0.365-67.848-1.733L137.107,164.241z"/>
	<path style="fill:#FFC524;" d="M133.799,137.817c0,8.872-3.522,16.062-7.875,16.062c-4.342,0-7.864-7.19-7.864-16.062   c0-8.864,3.522-16.055,7.864-16.055C130.277,121.762,133.799,128.952,133.799,137.817z"/>
	<g>
		<path style="fill:#091438;" d="M162.751,318.969c0,0-9.222-12.029,10.002-19.157l-7.996-19.661h2.594l9.071,20.522    C176.422,300.673,159.66,305.939,162.751,318.969z"/>
		<path style="fill:#EA4A0C;" d="M192.109,272.228c0,6.451-8.956,11.672-20.018,11.672c-11.054,0-20.018-5.222-20.018-11.672    c0-6.44,8.964-11.665,20.018-11.665C183.152,260.564,192.109,265.789,192.109,272.228z"/>
		<path style="fill:#091438;" d="M122.369,256.001h25.95c0.07-21.52-9.733-4.806-9.733-4.806s2.686-10.164,7.131-6.918    c4.442,3.246,3.794,15.518,3.794,15.518s-16.544,3.363-30.778-3.952c0,0-3.717-46.424,6.278-86.266    C125.011,169.577,121.913,195.155,122.369,256.001z"/>
		<path style="fill:#091438;" d="M181.474,252.921c0,0,4.662-5.623,15.459-1.296c0,0-8.647-9.512-17.292-3.028L181.474,252.921z"/>
		<path style="fill:#091438;" d="M136.426,258.967l-2.628,21.825c0,0,65.287,8.647,52.757-32.195c0,0,7.993,35.223-49.917,29.817    l1.303-20.309L136.426,258.967z"/>
	</g>
	<path style="fill:#091438;" d="M370.862,210.055c0,0-12.592-8.46-31.668-0.364c-19.08,8.092-29.497,37.486-2.042,33.633   c27.448-3.853,18.624-15.797,8.485-15.238l12.107-5.38l-22.822,4.821c0,0,20.92,4.799,13.932,10.333   c-6.973,5.531-30.314,7.268-24.445-8.942C334.737,200.384,370.862,210.055,370.862,210.055z"/>
	<g>
		<polygon style="fill:#FFC524;" points="359.639,297.623 363.201,252.921 370.004,297.244   "/>
		<polygon style="fill:#FFC524;" points="376.47,279.816 367.742,252.921 385.581,274.856   "/>
		<polygon style="fill:#FFC524;" points="344.132,278.197 359.307,254.65 353.74,282.105   "/>
	</g>
</g>















</svg>
