<?xml version="1.0" encoding="UTF-8"?>
<!-- Generator: Adobe Illustrator 25.2.1, SVG Export Plug-In . SVG Version: 6.00 Build 0)  -->
<svg xmlns="http://www.w3.org/2000/svg" xmlns:xlink="http://www.w3.org/1999/xlink" version="1.1" id="Capa_1" x="0px" y="0px" viewBox="0 0 512 512" style="enable-background:new 0 0 512 512;" xml:space="preserve" width="512" height="512">
<g>
	<g>
		<g>
			<g>
				<path style="fill:#DB5E43;" d="M178.496,320.96c-3.476,7.62-5.164,13.759-5.414,20.253c-0.285,7.414-0.169,14.651,6.133,18.09      c12.821,10.24,33.753-1.236,47.342-13.3c97.917-86.924,116.563-93.625,113.811-122.161c-0.716-7.422-2.452-14.562-6.728-20.65      c-13.575-19.327-35.122-20.217-50.445-7.739c-8.021,6.532-15.21,13.943-21.862,21.903      c-11.981,14.334-55.435,60.87-76.557,93.216C182.231,314.473,179.61,318.359,178.496,320.96z"/>
				<path style="fill:#000E3F;" d="M191.455,364.938c-5.488,0-9.943-1.626-13.206-4.185c-7.495-4.197-7.152-13.097-6.904-19.607      c0.256-6.653,1.92-12.9,5.562-20.889c1.054-2.448,3.242-5.789,5.56-9.326l0.856-1.307c16.25-24.885,46.03-58.549,63.823-78.664      c5.624-6.359,10.068-11.382,12.855-14.717c7.29-8.722,14.518-15.963,22.098-22.135c8.259-6.726,18.127-9.694,27.773-8.359      c9.883,1.367,18.594,7.054,25.191,16.447c3.928,5.592,6.163,12.418,7.034,21.481c2.203,22.822-8.236,31.789-58.397,74.88      c-14.842,12.75-33.313,28.618-55.988,48.746C213.178,360.204,200.817,364.937,191.455,364.938z M305.335,188.91      c-7.362,0-14.706,2.731-21.042,7.891c-7.407,6.032-14.48,13.12-21.627,21.67c-2.818,3.373-7.277,8.411-12.919,14.791      c-17.729,20.042-47.403,53.588-63.514,78.261l-0.859,1.312c-2.237,3.415-4.352,6.64-5.281,8.809      c-0.006,0.012-0.011,0.025-0.017,0.037c-3.447,7.559-5.021,13.421-5.258,19.599c-0.281,7.311-0.081,13.6,5.23,16.498      c0.091,0.048,0.173,0.105,0.253,0.168c11.734,9.369,31.627-1.276,45.104-13.241c22.695-20.148,41.178-36.027,56.031-48.785      c49.03-42.118,59.232-50.883,57.204-71.911c-0.812-8.44-2.854-14.738-6.419-19.818c-6.029-8.582-13.92-13.769-22.823-15.001      C308.047,189.003,306.69,188.91,305.335,188.91z M178.496,320.96h0.019H178.496z"/>
			</g>
			<g>
				<path style="fill:#915EFD;" d="M219.102,254.173c-1.336-9.151,3.845-4.969,18.245-17.103      c16.638-14.02,29.052-32.927,47.244-45.471c29.48-20.327,59.513,1.186,58.851,30.087c-0.512,22.336-12.508,34.366-26.964,53.94      c-6.989,9.465-10.735,14.616-12.021,26.548c-1.222,11.338-0.139,10.295-0.29,13.387c-0.153,3.112-1.857,4.902-4.992,4.823      c-5.41-0.136-10.725-0.646-15.733-3.156c-19.946-9.997-23.482-22.591-27.406-26.084      C248.557,284.491,223.556,284.68,219.102,254.173z"/>
				<path style="fill:#000E3F;" d="M299.374,322.124c-0.081,0-0.162-0.001-0.243-0.003c-5.362-0.135-11.069-0.632-16.468-3.339      c-15.194-7.616-21.218-16.833-24.816-22.34c-1.185-1.814-2.122-3.247-2.967-3.998c-1.738-1.547-4.793-2.775-8.328-4.196      c-10.251-4.12-25.741-10.346-29.169-33.823l0,0c-0.929-6.36,1.144-7.71,5.92-10.158c3.027-1.551,7.171-3.674,12.925-8.523      c7.045-5.936,13.474-12.921,19.689-19.677c8.423-9.152,17.132-18.616,27.688-25.895c13.7-9.446,28.871-10.915,41.615-4.033      c12.658,6.833,20.306,20.469,19.957,35.588c-0.449,19.651-9.602,31.646-21.191,46.833c-1.966,2.577-4.012,5.259-6.112,8.1      c-6.734,9.121-10.443,14.146-11.691,25.703c-0.818,7.6-0.579,9.445-0.405,10.792c0.092,0.708,0.177,1.376,0.125,2.493      C305.701,319.718,303.268,322.124,299.374,322.124z M308.347,185.345c-7.546,0-15.375,2.586-22.771,7.685      c-10.236,7.058-18.811,16.377-27.102,25.388c-6.291,6.835-12.795,13.902-20.008,19.981c-6.057,5.103-10.584,7.423-13.579,8.958      c-4.233,2.169-4.676,2.396-4.067,6.565l0,0c3.138,21.5,16.945,27.05,27.028,31.102c3.837,1.542,7.151,2.874,9.342,4.824      c1.189,1.059,2.237,2.663,3.564,4.694c3.626,5.55,9.107,13.938,23.464,21.134c4.791,2.402,10.04,2.848,14.998,2.972      c2.116,0.07,3.104-0.924,3.215-3.171c0.038-0.809-0.019-1.257-0.1-1.878c-0.196-1.519-0.466-3.6,0.398-11.61      c1.347-12.494,5.488-18.102,12.35-27.395c2.109-2.856,4.167-5.552,6.144-8.144c11.643-15.259,20.057-26.284,20.481-44.804      c0.317-13.807-6.632-26.242-18.134-32.452C318.803,186.62,313.645,185.345,308.347,185.345z"/>
			</g>
			<g>
				<g>
					<path style="fill:#DB5E43;" d="M202.555,309.744c-2.821-4.201-5.675-8.009-8.056-11.141       c-22.534-29.631-45.389-59.681-66.107-90.658c-0.25-0.375-2.015-2.44-1.9-2.859c4.067-14.744-3.738-30.653-9.143-53.69       c-1.549-6.603-9.819-9.18-11.557,1.994c-1.879,12.088,3.347,21.785,1.961,26.436c-1.274,4.274-7.094,4.211-10.844,4.882       c-20.713,3.703-32.966-0.332-30.889,4.018c2.196,4.602,8.494,18.296,18.701,27.177c5.815,5.058,11.986,7.463,17.778,7.754       c5.052,16.55,27.415,68.421,45.017,97.881c9.838,16.465,31.78,52.236,55.832,38.999L202.555,309.744z"/>
					<path style="fill:#000E3F;" d="M192.724,365.14c-21.178,0.001-39.209-30.178-46.697-42.712       c-17.539-29.35-39.335-80.05-44.831-97.126c-6.134-0.597-12.199-3.378-17.614-8.088c-10.132-8.815-16.495-22.2-18.89-27.238       l-0.239-0.501c-0.669-1.402-0.367-2.395,0.002-2.981c1.114-1.764,3.645-1.778,9.107-1.756c5.262-0.007,13.24,0.012,23.042-1.74       c0.66-0.119,1.382-0.215,2.132-0.315c3.875-0.516,6.67-1.059,7.354-3.353c0.46-1.546-0.117-4.33-0.786-7.554       c-1.052-5.063-2.36-11.364-1.227-18.654c1.251-8.04,5.468-9.064,7.222-9.131c3.472-0.116,6.76,2.813,7.742,7.007       c1.496,6.377,3.149,12.103,4.747,17.641c4.086,14.163,7.33,25.401,4.533,36.327c0.29,0.433,0.814,1.099,1.042,1.389       c0.226,0.287,0.401,0.515,0.473,0.624c20.664,30.896,43.694,61.179,65.966,90.465c2.522,3.315,5.396,7.159,8.197,11.329       c0.535,0.796,0.322,1.876-0.473,2.41c-0.797,0.537-1.875,0.324-2.411-0.473c-2.75-4.095-5.586-7.887-7.997-11.057       c-22.384-29.434-45.447-59.76-66.169-90.743c-0.053-0.074-0.172-0.222-0.317-0.408c-1.402-1.783-2.12-2.765-1.815-3.876       c2.804-10.167-0.36-21.136-4.367-35.024c-1.612-5.58-3.276-11.35-4.791-17.811c-0.656-2.786-2.693-4.378-4.227-4.329       c-1.864,0.071-3.33,2.386-3.922,6.193c-1.036,6.667,0.2,12.626,1.195,17.414c0.795,3.835,1.425,6.865,0.712,9.252       c-1.376,4.625-6.491,5.306-10.224,5.804c-0.696,0.092-1.366,0.181-1.979,0.29c-10.104,1.807-18.234,1.799-23.656,1.794       c-2.278,0.007-4.617-0.004-5.769,0.184l0.041,0.089c2.31,4.86,8.447,17.77,18.032,26.108c5.179,4.506,10.963,7.041,16.725,7.33       c0.731,0.037,1.361,0.528,1.574,1.228c4.793,15.702,27.026,67.672,44.848,97.497c14.195,23.759,33.102,49.601,53.504,38.368       c0.842-0.462,1.898-0.156,2.358,0.684c0.464,0.841,0.156,1.897-0.684,2.36C200.296,364.199,196.461,365.139,192.724,365.14z        M128.144,204.669L128.144,204.669L128.144,204.669z"/>
				</g>
				<g>
					<g>
						<path style="fill:#4217A6;" d="M112.776,208.192c-0.177,0-0.354-0.007-0.533-0.024l-27.596-2.339        c-2.614-0.203-4.779-2.076-5.377-4.661L61.026,120.61c-0.256-1.142-0.186-2.307,0.198-3.372        c0.746-2.072,2.559-3.569,4.729-3.905c0.27-0.054,0.607-0.085,0.946-0.085c0.435,0,0.876,0.052,1.31,0.154l25.268,5.56        c2.201,0.512,3.926,2.153,4.52,4.289l20.935,76.354c0.317,1.207,0.26,2.455-0.158,3.618l-0.36,0.998        C117.557,206.596,115.292,208.192,112.776,208.192z"/>
						<path style="fill:#FFFFFF;" d="M115.418,201.34l-27.693-2.355c-1.238-0.095-2.275-0.979-2.565-2.197l-18.357-79.504        c-0.2-0.994,0.087-1.956,0.752-2.622c0.454-0.53,1.227-0.885,2.041-0.885c0.211,0,0.424,0.024,0.633,0.071l23.246,5.113        c2.209,0.524,3.931,2.169,4.523,4.299l20.421,74.462c0.239,0.856,0.066,1.764-0.479,2.482        c-0.543,0.717-1.406,1.146-2.305,1.146C115.592,201.348,115.461,201.344,115.418,201.34z"/>
						<path style="opacity:0.18;fill:#000E3F;" d="M115.546,199.608l-27.675-2.354c-0.502-0.039-0.907-0.386-1.023-0.868        l-18.354-79.493c-0.077-0.386,0.039-0.753,0.29-1.003c5.732,0.405,11.058,4.342,13.992,14.802        c4.439,15.806,4.709,44.851,18.797,55.118c3.551,2.586,8.357,2.818,12.757,3.589l2.412,8.781        C116.955,198.932,116.337,199.666,115.546,199.608z"/>
					</g>
					<path style="fill:#000E3F;" d="M120.561,199.189c-0.177-0.886-0.425-1.767-0.663-2.635l-20.225-73.757       c-0.661-2.379-2.43-4.213-4.692-5.108c-0.358-0.143-0.696-0.323-1.078-0.413l-13.376-2.942c0,0-11.682-2.572-11.682-2.572       c-1.069-0.223-2.135-0.333-3.217-0.136c-2.773,0.452-5.084,2.373-6.04,5.025c-0.497,1.378-0.586,2.878-0.258,4.336       l18.244,80.558c0.772,3.344,3.564,5.756,6.953,6.016L112.1,209.9c0.218,0.019,0.446,0.029,0.672,0.029       c3.247,0,6.17-2.058,7.275-5.12C120.736,202.9,120.963,201.2,120.561,199.189z M115.634,199.612       c-0.029,0-0.058-0.001-0.088-0.003l-27.675-2.354c-0.502-0.039-0.907-0.386-1.023-0.868l-18.354-79.493       c-0.077-0.386,0.039-0.753,0.29-1.003c0.2-0.231,0.487-0.376,0.81-0.376c0.082,0,0.166,0.009,0.251,0.029l10.254,2.255       l13.003,2.863c0.24,0.055,0.456,0.164,0.68,0.257c1.216,0.513,2.183,1.52,2.542,2.807l18.006,65.675l2.153,7.836l0.26,0.947       C116.946,198.906,116.381,199.612,115.634,199.612z M112.773,206.456c-0.126,0-0.252-0.005-0.379-0.016l-27.6-2.341       c-1.867-0.143-3.409-1.493-3.83-3.32l-18.243-80.551c-0.177-0.792-0.138-1.637,0.137-2.398c0.418-1.16,1.285-2.025,2.335-2.477       c-0.21,0.708-0.255,1.468-0.104,2.222c0.007,0.034,0.014,0.067,0.022,0.1l18.353,79.493c0.476,1.982,2.137,3.396,4.141,3.55       l27.647,2.352c0.098,0.008,0.284,0.016,0.382,0.016c0.495,0,0.974-0.108,1.436-0.261l-0.291,0.807       C116.168,205.328,114.567,206.456,112.773,206.456z"/>
				</g>
				<g>
					<path style="fill:#DB5E43;" d="M77.508,155.573c2.765-0.397,4.737-1.668,5.505-3.647c1.566-4.038-2.509-9.188-9.478-11.979       c-2.588-1.037-5.219-1.585-7.607-1.585c-3.777,0-6.478,1.383-7.412,3.792c-1.048,2.703,0.471,5.89,3.652,8.548       c-2.105,0.338-3.666,1.279-4.434,2.781c-1.464,2.859,0.362,6.763,4.358,10.135c-2.266,0.308-3.96,1.282-4.782,2.89       c-1.464,2.855,0.204,6.674,3.963,9.924c-1.176,0.532-2.102,1.329-2.646,2.391c-1.864,3.638,1.18,8.835,6.928,11.829       c2.433,1.268,5.049,1.966,7.365,1.966c2.949,0,5.224-1.137,6.242-3.122c1.147-2.24,0.423-5.067-1.635-7.61       c1.878-0.415,3.275-1.358,4.004-2.781c1.4-2.733-0.097-6.342-3.519-9.497c2.507-0.207,4.374-1.171,5.237-2.854       C84.869,163.591,82.432,159.159,77.508,155.573z"/>
					<path style="fill:#000E3F;" d="M84.805,167.548c1.713-3.35,0.179-7.57-3.682-11.277c1.662-0.818,2.864-2.071,3.503-3.708       c1.918-4.961-2.557-11.073-10.433-14.218c-2.813-1.125-5.651-1.714-8.26-1.714c-4.526,0-7.825,1.79-9.027,4.884       c-1.048,2.685-0.205,5.702,2.046,8.413c-1.534,0.818-2.353,1.943-2.762,2.762c-1.534,2.992-0.486,6.7,2.557,10.101       c-1.662,0.844-2.557,2.046-2.992,2.915c-1.611,3.146-0.486,7.032,2.736,10.485c-0.563,0.511-1.048,1.151-1.406,1.841       c-2.353,4.578,0.946,10.664,7.672,14.167c2.659,1.381,5.575,2.148,8.157,2.148c3.631,0,6.47-1.483,7.799-4.066       c1.176-2.302,0.921-4.961-0.486-7.518c1.585-0.844,2.429-2.02,2.838-2.864c1.432-2.788,0.716-6.137-1.688-9.257       C83.347,169.799,84.319,168.469,84.805,167.548z M60.128,142.795c0.69-1.764,2.915-2.685,5.805-2.685       c2.071,0,4.501,0.46,6.956,1.457c5.882,2.353,9.666,6.7,8.515,9.743c-0.486,1.227-1.739,2.046-3.452,2.404       c-0.716,0.179-1.509,0.256-2.353,0.256c-2.071,0-4.501-0.46-6.956-1.458c-2.404-0.972-4.449-2.25-5.958-3.657       C60.486,146.835,59.438,144.585,60.128,142.795z M77.619,188.696c-0.742,1.457-2.506,2.173-4.705,2.173       c-1.969,0-4.296-0.562-6.546-1.764c-4.833-2.506-7.595-6.751-6.189-9.487c0.23-0.435,0.537-0.818,0.921-1.074       c1.202,0.946,2.557,1.79,4.04,2.583c3.401,1.764,7.007,2.736,10.101,2.736c0.563,0,1.074-0.026,1.56-0.077       C77.977,185.525,78.335,187.315,77.619,188.696z M79.997,178.314c-0.358,0.716-1.023,1.253-1.867,1.585       c-0.793,0.332-1.79,0.511-2.89,0.511c-0.665,0-1.355-0.051-2.097-0.179c-1.995-0.307-4.194-1.049-6.393-2.199       c-0.358-0.179-0.69-0.358-1.023-0.562c-1.56-0.921-2.941-1.969-4.066-3.043c-2.608-2.506-3.785-5.242-2.813-7.135       c0.486-0.921,1.432-1.56,2.711-1.841c1.355,1.048,2.915,2.071,4.654,2.966c3.708,1.943,7.569,3.018,10.842,3.018h0.358       C79.844,173.864,80.918,176.473,79.997,178.314z M81.711,165.963c-0.512,0.997-1.586,1.611-3.043,1.866       c-0.026,0-0.026,0-0.026,0c-0.486,0.077-1.023,0.128-1.585,0.128c-2.583,0-5.933-0.869-9.231-2.608       c-2.02-1.049-3.81-2.302-5.217-3.58c-2.915-2.659-4.322-5.549-3.324-7.492c0.435-0.844,1.279-1.432,2.404-1.713       c1.585,1.227,3.503,2.301,5.651,3.171c2.787,1.125,5.651,1.713,8.26,1.713c0.511,0,0.998-0.026,1.458-0.076       C80.867,160.311,82.861,163.738,81.711,165.963z"/>
				</g>
			</g>
		</g>
		<g>
			<g>
				<path style="fill:#DB5E43;" d="M363.752,227.186c-35.259,29.122-84.858,16.057-78.065-7.353      c3.57-12.294,14.532-21.094,21.383-32.345c0,0,0,0,0.019,0c0.598-0.965,1.138-1.949,1.659-2.972      c0.213-0.366,0.386-0.752,0.579-1.138c3.416-7.006,5.404-14.841,4.67-22.117c-0.058-0.617-0.135-1.216-0.232-1.814      c-0.077-0.482-0.174-0.945-0.27-1.428c-0.135-0.598-0.231-1.177-0.27-1.737c-0.965-8.801,6.233-14.397,15.632-16.443      c5.307-1.139,11.309-1.158,16.964,0c5.77,1.158,11.502,2.297,16.906,4.593c23.95,10.209,21.653,17.659,37.286,46.183      C407.329,203.95,372.803,219.718,363.752,227.186z"/>
				<path style="opacity:0.25;fill:#000E3F;" d="M344.588,175.323c-9.434,8.605-24.568,13.188-37.498,12.165      c10.426-17.13,6.26-29.424,6.137-31.207c11.695,0.733,26.291-0.853,28.813-1.486      C358.94,150.556,355.955,164.921,344.588,175.323z"/>
			</g>
			<path style="fill:#000E3F;" d="M318.081,245.649c-10.111,0-19.171-2.353-25.598-6.578c-7.573-4.977-10.658-12.166-8.464-19.722     c2.333-8.039,7.707-14.66,12.903-21.062c3.033-3.737,6.167-7.599,8.666-11.702c0.041-0.07,0.089-0.136,0.141-0.198     c0.486-0.8,0.969-1.672,1.472-2.658c0.173-0.304,0.283-0.533,0.396-0.763l0.181-0.368c3.538-7.257,5.136-14.779,4.493-21.162     c-0.057-0.59-0.128-1.152-0.219-1.713c-0.062-0.389-0.138-0.764-0.215-1.148l-0.043-0.216c-0.155-0.683-0.257-1.336-0.3-1.953     c-0.961-8.748,5.548-15.771,16.996-18.263c5.577-1.197,11.853-1.197,17.682-0.005c5.833,1.17,11.717,2.35,17.235,4.697     c18.879,8.047,22.205,14.922,29.491,29.985c2.324,4.801,4.957,10.243,8.637,16.961c6.331,11.542-12.787,23.444-26.747,32.136     c-4.199,2.614-7.827,4.872-9.932,6.61l0,0C350.399,240.466,333.083,245.649,318.081,245.649z M308.434,188.588     c-2.597,4.227-5.758,8.12-8.815,11.888c-5.207,6.416-10.125,12.478-12.264,19.842c-1.764,6.079,0.735,11.709,7.036,15.85     c12.522,8.23,42.874,10.641,68.254-10.321v-0.001c2.286-1.885,6.003-4.199,10.307-6.879     c12.062-7.509,30.289-18.857,25.539-27.517c-3.724-6.795-6.493-12.519-8.718-17.118c-7.311-15.111-10.045-20.766-27.724-28.301     c-5.192-2.207-10.645-3.3-16.416-4.458c-5.526-1.132-11.299-1.131-16.41-0.035c-3.632,0.79-15.409,4.18-14.271,14.555     c0.038,0.506,0.113,0.989,0.239,1.542l0.051,0.256c0.087,0.429,0.17,0.847,0.239,1.282c0.102,0.634,0.185,1.269,0.245,1.924     c0.907,8.982-2.13,17.49-4.838,23.043l-0.17,0.347c-0.151,0.307-0.3,0.61-0.469,0.903c-0.539,1.066-1.107,2.08-1.683,3.014     C308.526,188.467,308.482,188.529,308.434,188.588z"/>
		</g>
		<g>
			<g>
				<path style="fill:#4217A6;" d="M436.895,239.692c-1.004,16.25-6.562,33.233-13.548,50.158      c-13.066,31.708-31.072,63.32-33.291,89.972c-0.946,11.425,3.126,20.843,4.42,31.612c4.246,35.858-81.597,76.193-146.519,41.648      c-9.283-4.941-26.188-14.822-24.027-27.019c1.621-9.244,8.627-16.597,13.857-24.009c4.149-5.886,6.735-11.965,8.202-18.16      c8.607-36.475-21.789-77.775-5.616-115.853c10.441-24.606,30.551-49.714,54.153-67.315c1.37-1.023,7.372-5.867,7.372-5.867      s-1.621,3.686-2.297,7.005c-2.644,12.834-3.319,25.417,10.441,31.824c32.036,14.919,66.485-42.94,104.408-36.108      C432.341,200.805,438.034,221.397,436.895,239.692z"/>
				<g style="opacity:0.75;">
					<path style="fill:#000E3F;" d="M390.663,400.536c-0.148-0.661-0.295-1.326-0.441-1.992c-0.786-3.582-1.513-7.249-1.847-11.093       l-2.481-0.082c-0.589-0.019-1.131-0.328-1.448-0.824l-4.979-7.774c-0.801-1.249-2.686-1.039-3.191,0.356l-3.142,8.68       c-0.201,0.554-0.661,0.974-1.231,1.123l-8.932,2.332c-1.436,0.375-1.818,2.234-0.647,3.145l7.285,5.671       c0.465,0.362,0.722,0.93,0.688,1.518l-0.542,9.216c-0.087,1.481,1.562,2.419,2.791,1.587l7.644-5.175       c0.488-0.331,1.107-0.4,1.656-0.185l8.598,3.363c0.798,0.312,1.591,0.008,2.05-0.571c-0.42-2.799-0.998-5.55-1.595-8.238       C390.819,401.242,390.742,400.886,390.663,400.536z"/>
					<path style="fill:#000E3F;" d="M430.981,247.17c-0.341,0.393-0.854,0.594-1.371,0.536l-8.105-0.904       c-1.303-0.145-2.207,1.266-1.53,2.389l4.213,6.984c0.269,0.445,0.301,0.996,0.086,1.469l-3.365,7.429       c-0.541,1.194,0.522,2.49,1.799,2.193l7.568-1.761c2.468-8.35,3.974-15.825,4.643-22.881L430.981,247.17z"/>
					<path style="fill:#000E3F;" d="M418.228,215.463l-7.033,0.732c-0.449,0.047-0.892-0.13-1.185-0.474l-1.928-2.259l-2.662-3.119       c-0.738-0.864-2.146-0.507-2.384,0.604l-1.477,6.914c-0.094,0.442-0.4,0.808-0.817,0.981l-6.533,2.703       c-1.05,0.434-1.146,1.885-0.163,2.454l6.12,3.541c0.391,0.226,0.645,0.63,0.68,1.08l0.552,7.049       c0.089,1.133,1.438,1.673,2.284,0.913l4.4-3.954l0.859-0.772c0.336-0.301,0.798-0.419,1.237-0.313l6.875,1.653       c1.105,0.266,2.035-0.851,1.574-1.89l-2.869-6.462c-0.183-0.413-0.152-0.889,0.084-1.274l3.697-6.027       C420.133,216.575,419.358,215.346,418.228,215.463z"/>
					<path style="fill:#000E3F;" d="M418.228,285.968l-7.033,0.732c-0.449,0.047-0.892-0.13-1.185-0.473l-1.928-2.26l-2.662-3.119       c-0.738-0.865-2.146-0.508-2.384,0.603l-1.477,6.914c-0.094,0.442-0.4,0.808-0.817,0.981l-6.533,2.704       c-1.05,0.434-1.146,1.885-0.163,2.454l6.12,3.541c0.391,0.226,0.645,0.63,0.68,1.08l0.552,7.049       c0.089,1.133,1.438,1.673,2.284,0.913l4.4-3.954l0.859-0.772c0.336-0.301,0.798-0.419,1.237-0.313l5.447,1.31       c0.619-1.387,1.228-2.775,1.838-4.166l-1.706-3.842c-0.183-0.413-0.152-0.889,0.084-1.273l3.697-6.027       C420.133,287.08,419.358,285.851,418.228,285.968z"/>
					<path style="fill:#000E3F;" d="M362.324,253.398l7.285,5.671c0.465,0.362,0.722,0.93,0.688,1.518l-0.542,9.215       c-0.087,1.482,1.562,2.42,2.791,1.588l7.644-5.176c0.488-0.33,1.107-0.4,1.656-0.185l8.598,3.363       c1.382,0.541,2.783-0.738,2.372-2.164l-2.56-8.87c-0.163-0.566-0.038-1.177,0.336-1.632l5.855-7.137       c0.941-1.147,0.158-2.876-1.325-2.924l-9.226-0.306c-0.589-0.019-1.131-0.327-1.448-0.824l-4.979-7.774       c-0.801-1.25-2.686-1.039-3.191,0.356l-3.142,8.681c-0.201,0.554-0.661,0.974-1.231,1.123l-8.932,2.333       C361.535,250.628,361.153,252.486,362.324,253.398z"/>
					<path style="fill:#000E3F;" d="M299.112,273.013c-0.8-1.25-2.686-1.039-3.191,0.356l-1.666,4.604l-1.476,4.076       c-0.2,0.554-0.661,0.974-1.231,1.123l-8.932,2.333c-1.436,0.375-1.818,2.233-0.647,3.145l7.284,5.67       c0.465,0.363,0.722,0.93,0.688,1.518l-0.542,9.216c-0.087,1.481,1.562,2.419,2.791,1.587l7.644-5.176       c0.488-0.33,1.107-0.399,1.656-0.185l8.597,3.363c1.382,0.541,2.784-0.738,2.372-2.164l-2.56-8.869       c-0.163-0.566-0.038-1.176,0.336-1.632l5.855-7.137c0.941-1.147,0.158-2.876-1.325-2.925l-9.227-0.306       c-0.589-0.02-1.131-0.328-1.448-0.824l-1.802-2.814L299.112,273.013z"/>
					<path style="fill:#000E3F;" d="M337.872,250.716l-7.033,0.732c-0.449,0.047-0.892-0.13-1.185-0.474l-4.59-5.378       c-0.737-0.864-2.146-0.508-2.384,0.604l-1.477,6.914c-0.094,0.442-0.399,0.808-0.817,0.981l-6.533,2.703       c-1.05,0.434-1.146,1.885-0.163,2.454l6.12,3.541c0.39,0.226,0.645,0.63,0.68,1.08l0.552,7.049       c0.089,1.133,1.438,1.673,2.284,0.913l5.259-4.726c0.336-0.302,0.798-0.419,1.237-0.313l6.874,1.653       c1.105,0.266,2.035-0.851,1.574-1.89l-2.87-6.462c-0.183-0.412-0.152-0.888,0.085-1.273l3.697-6.027       C339.777,251.828,339.003,250.598,337.872,250.716z"/>
					<path style="fill:#000E3F;" d="M263.476,256.174c0.269,0.445,0.301,0.996,0.086,1.469l-3.365,7.429       c-0.541,1.194,0.522,2.49,1.799,2.193l7.944-1.848c0.507-0.118,1.04,0.021,1.424,0.372l6.026,5.496       c0.968,0.883,2.53,0.272,2.642-1.034l0.697-8.126c0.045-0.519,0.341-0.982,0.794-1.239l7.089-4.033       c1.14-0.648,1.041-2.321-0.166-2.832l-7.513-3.174c-0.479-0.203-0.829-0.629-0.934-1.138l-1.644-7.988       c-0.264-1.284-1.886-1.708-2.745-0.717l-5.34,6.164c-0.341,0.393-0.854,0.594-1.371,0.536l-8.105-0.904       c-1.303-0.145-2.207,1.266-1.53,2.389L263.476,256.174z"/>
					<path style="fill:#000E3F;" d="M289.253,223.816c0.465,0.362,0.722,0.93,0.688,1.518l-0.542,9.216       c-0.087,1.482,1.562,2.42,2.791,1.587l7.644-5.176c0.488-0.33,1.107-0.399,1.656-0.185l2.001,0.783       c-8.596-7.341-7.938-18.559-5.628-29.856c-0.787-0.111-1.629,0.296-1.942,1.161l-3.142,8.68       c-0.2,0.554-0.661,0.974-1.231,1.123l-8.932,2.333c-1.436,0.375-1.818,2.233-0.647,3.145L289.253,223.816z"/>
					<path style="fill:#000E3F;" d="M350.296,230.166c0.507-0.118,1.039,0.021,1.424,0.372l6.026,5.496       c0.969,0.884,2.53,0.273,2.642-1.033l0.697-8.126c0.044-0.519,0.341-0.982,0.794-1.24l7.089-4.033       c1.14-0.648,1.041-2.321-0.166-2.832l-3.58-1.513c-0.889,0.6-1.777,1.201-2.663,1.801c-7.063,4.786-13.976,9.466-20.794,12.97       c0.188,0.027,0.383,0.033,0.587-0.015L350.296,230.166z"/>
					<path style="fill:#000E3F;" d="M337.872,391.726l-7.033,0.732c-0.449,0.047-0.892-0.13-1.185-0.474l-4.59-5.379       c-0.737-0.864-2.146-0.508-2.384,0.604l-1.477,6.914c-0.094,0.441-0.399,0.808-0.817,0.98l-6.533,2.703       c-1.05,0.435-1.146,1.885-0.163,2.454l6.12,3.541c0.39,0.226,0.645,0.63,0.68,1.079l0.552,7.049       c0.089,1.133,1.438,1.673,2.284,0.913l5.259-4.726c0.336-0.302,0.798-0.419,1.237-0.313l6.874,1.653       c1.105,0.266,2.035-0.851,1.574-1.89l-2.87-6.461c-0.183-0.413-0.152-0.889,0.085-1.274l3.697-6.027       C339.777,392.838,339.003,391.608,337.872,391.726z"/>
					<path style="fill:#000E3F;" d="M271.365,406.8l6.026,5.496c0.968,0.884,2.53,0.273,2.642-1.033l0.697-8.126       c0.045-0.518,0.341-0.982,0.794-1.239l7.089-4.033c1.14-0.648,1.041-2.322-0.166-2.832l-7.513-3.174       c-0.479-0.203-0.829-0.628-0.934-1.138l-1.644-7.988c-0.264-1.284-1.886-1.708-2.745-0.717l-5.34,6.164       c-0.341,0.394-0.854,0.594-1.371,0.537l-8.105-0.904c-1.303-0.145-2.207,1.266-1.53,2.389l4.213,6.984       c0.269,0.446,0.301,0.995,0.086,1.469l-3.365,7.429c-0.541,1.194,0.522,2.49,1.799,2.193l7.944-1.848       C270.448,406.31,270.98,406.449,271.365,406.8z"/>
					<path style="fill:#000E3F;" d="M257.517,356.473l-7.032,0.732c-0.449,0.047-0.892-0.13-1.185-0.473l-1.149-1.347       c0.834,5.767,1.276,11.51,1.057,17.17c0.087,0.004,0.173-0.022,0.26-0.002l6.875,1.653c1.105,0.266,2.035-0.851,1.574-1.89       l-2.869-6.462c-0.183-0.412-0.152-0.889,0.084-1.273l3.697-6.027C259.422,357.585,258.647,356.356,257.517,356.473z"/>
					<path style="fill:#000E3F;" d="M395.121,317.169l-9.226-0.306c-0.589-0.02-1.131-0.328-1.448-0.824l-4.979-7.774       c-0.801-1.249-2.686-1.039-3.191,0.356l-3.142,8.68c-0.201,0.554-0.661,0.974-1.231,1.123l-8.932,2.333       c-1.436,0.375-1.818,2.233-0.647,3.145l7.285,5.671c0.465,0.362,0.722,0.93,0.688,1.518l-0.542,9.216       c-0.087,1.481,1.562,2.419,2.791,1.587l7.644-5.176c0.488-0.33,1.107-0.399,1.656-0.185l8.598,3.363       c1.382,0.541,2.783-0.738,2.372-2.164l-2.56-8.869c-0.163-0.566-0.038-1.177,0.336-1.632l5.855-7.137       C397.387,318.947,396.604,317.218,395.121,317.169z"/>
					<path style="fill:#000E3F;" d="M316.09,355.347c0.941-1.147,0.158-2.876-1.325-2.925l-9.227-0.306       c-0.589-0.02-1.131-0.328-1.448-0.824l-4.979-7.774c-0.8-1.25-2.686-1.039-3.191,0.356l-3.142,8.68       c-0.2,0.554-0.661,0.974-1.231,1.123l-8.932,2.333c-1.436,0.375-1.818,2.234-0.647,3.145l7.284,5.671       c0.465,0.362,0.722,0.929,0.688,1.518l-0.542,9.216c-0.087,1.481,1.562,2.42,2.791,1.588l7.644-5.176       c0.488-0.33,1.107-0.399,1.656-0.185l8.597,3.363c1.382,0.541,2.784-0.738,2.372-2.164l-2.56-8.87       c-0.163-0.566-0.038-1.176,0.336-1.632L316.09,355.347z"/>
					<path style="fill:#000E3F;" d="M343.832,361.932c0.268,0.446,0.301,0.996,0.086,1.469l-3.365,7.43       c-0.541,1.194,0.522,2.49,1.799,2.193l7.944-1.848c0.507-0.118,1.039,0.021,1.424,0.372l6.026,5.496       c0.969,0.883,2.53,0.273,2.642-1.033l0.697-8.126c0.044-0.519,0.341-0.982,0.794-1.24l7.089-4.032       c1.14-0.648,1.041-2.322-0.166-2.832l-7.513-3.174c-0.48-0.203-0.829-0.628-0.934-1.138l-1.644-7.988       c-0.264-1.284-1.887-1.708-2.745-0.717l-5.34,6.165c-0.341,0.393-0.854,0.594-1.371,0.536l-8.105-0.905       c-1.303-0.145-2.207,1.267-1.53,2.389L343.832,361.932z"/>
					<path style="fill:#000E3F;" d="M337.872,321.221l-7.033,0.732c-0.449,0.047-0.892-0.13-1.185-0.474l-4.59-5.378       c-0.737-0.864-2.146-0.508-2.384,0.604l-1.477,6.914c-0.094,0.441-0.399,0.809-0.817,0.981l-6.533,2.703       c-1.05,0.434-1.146,1.885-0.163,2.454l6.12,3.541c0.39,0.226,0.645,0.63,0.68,1.08l0.552,7.049       c0.089,1.133,1.438,1.672,2.284,0.913l5.259-4.726c0.336-0.302,0.798-0.419,1.237-0.313l6.874,1.653       c1.105,0.266,2.035-0.851,1.574-1.89l-2.87-6.462c-0.183-0.412-0.152-0.889,0.085-1.273l3.697-6.027       C339.777,322.333,339.003,321.103,337.872,321.221z"/>
					<path style="fill:#000E3F;" d="M263.476,326.679c0.269,0.445,0.301,0.995,0.086,1.469l-3.365,7.429       c-0.541,1.194,0.522,2.49,1.799,2.193l7.944-1.848c0.507-0.118,1.04,0.021,1.424,0.372l6.026,5.496       c0.968,0.884,2.53,0.273,2.642-1.034l0.697-8.126c0.045-0.518,0.341-0.982,0.794-1.239l7.089-4.033       c1.14-0.648,1.041-2.321-0.166-2.832l-7.513-3.174c-0.479-0.203-0.829-0.628-0.934-1.138l-1.644-7.988       c-0.264-1.284-1.886-1.707-2.745-0.717l-5.34,6.164c-0.341,0.394-0.854,0.594-1.371,0.536l-8.105-0.904       c-1.303-0.146-2.207,1.266-1.53,2.389L263.476,326.679z"/>
					<path style="fill:#000E3F;" d="M257.517,285.968l-7.032,0.732c-0.449,0.047-0.892-0.13-1.185-0.473l-1.928-2.26l-2.662-3.119       c-0.738-0.865-2.147-0.508-2.384,0.603l-1.477,6.914c-0.094,0.442-0.4,0.808-0.817,0.981l-2.653,1.098       c-0.075,2.131-0.071,4.269,0.021,6.411l2.056,1.19c0.391,0.226,0.645,0.63,0.68,1.08l0.552,7.049       c0.089,1.133,1.438,1.673,2.284,0.913l4.4-3.954l0.859-0.772c0.336-0.301,0.798-0.419,1.237-0.313l6.875,1.653       c1.105,0.266,2.035-0.851,1.574-1.89l-2.869-6.462c-0.183-0.413-0.152-0.889,0.084-1.273l3.697-6.027       C259.422,287.08,258.647,285.851,257.517,285.968z"/>
					<path style="fill:#000E3F;" d="M343.832,291.427c0.268,0.446,0.301,0.995,0.086,1.47l-3.365,7.429       c-0.541,1.194,0.522,2.49,1.799,2.193l7.944-1.848c0.507-0.118,1.039,0.021,1.424,0.372l6.026,5.496       c0.969,0.883,2.53,0.273,2.642-1.033l0.697-8.126c0.044-0.519,0.341-0.982,0.794-1.239l7.089-4.032       c1.14-0.648,1.041-2.322-0.166-2.832l-7.513-3.174c-0.48-0.203-0.829-0.628-0.934-1.138l-1.439-6.989l-0.206-0.999       c-0.264-1.284-1.887-1.707-2.745-0.717l-1.486,1.716l-3.854,4.449c-0.341,0.394-0.854,0.594-1.371,0.537l-8.105-0.904       c-1.303-0.146-2.207,1.266-1.53,2.389L343.832,291.427z"/>
					<path style="fill:#000E3F;" d="M322.681,457.715l-1.16,5.431c2.557-0.365,5.084-0.803,7.579-1.308l-4.035-4.727       C324.327,456.246,322.918,456.603,322.681,457.715z"/>
					<path style="fill:#000E3F;" d="M279.999,461.225l-1.644-7.988c-0.264-1.284-1.886-1.707-2.745-0.717l-5.34,6.164       c-0.341,0.394-0.854,0.594-1.371,0.536l-2.514-0.28c5.062,1.619,10.195,2.873,15.358,3.765l-0.81-0.343       C280.454,462.161,280.104,461.735,279.999,461.225z"/>
					<path style="fill:#000E3F;" d="M257.517,426.978l-7.032,0.732c-0.449,0.046-0.892-0.131-1.185-0.474l-1.928-2.259l-2.662-3.119       c-0.738-0.865-2.147-0.508-2.384,0.604l-1.477,6.915c-0.094,0.441-0.4,0.808-0.817,0.98l-6.533,2.703       c-1.05,0.435-1.146,1.885-0.162,2.454l6.12,3.542c0.391,0.226,0.645,0.63,0.68,1.079l0.529,6.753       c0.729,0.465,1.444,0.906,2.138,1.322c0.056-0.038,0.116-0.065,0.169-0.113l4.4-3.953l0.859-0.773       c0.336-0.302,0.798-0.418,1.237-0.313l6.875,1.653c1.105,0.265,2.035-0.851,1.574-1.889l-2.869-6.463       c-0.183-0.412-0.152-0.888,0.084-1.273l3.697-6.027C259.422,428.09,258.647,426.86,257.517,426.978z"/>
					<path style="fill:#000E3F;" d="M314.765,422.927l-9.227-0.306c-0.589-0.02-1.131-0.327-1.448-0.824l-1.802-2.814l-3.177-4.96       c-0.8-1.25-2.686-1.039-3.191,0.356l-1.666,4.604l-1.476,4.076c-0.2,0.554-0.661,0.974-1.231,1.123l-8.932,2.333       c-1.436,0.375-1.818,2.233-0.647,3.145l7.284,5.671c0.465,0.362,0.722,0.93,0.688,1.518l-0.542,9.216       c-0.087,1.481,1.562,2.42,2.791,1.588l7.644-5.176c0.488-0.33,1.107-0.399,1.656-0.185l8.597,3.363       c1.382,0.541,2.784-0.738,2.372-2.164l-2.56-8.869c-0.163-0.566-0.038-1.177,0.336-1.632l5.855-7.137       C317.031,424.704,316.248,422.976,314.765,422.927z"/>
					<path style="fill:#000E3F;" d="M368.801,430.285l-7.513-3.174c-0.48-0.202-0.829-0.628-0.934-1.138l-1.439-6.989l-0.206-0.999       c-0.264-1.284-1.887-1.708-2.745-0.717l-1.486,1.716l-3.854,4.449c-0.341,0.393-0.854,0.594-1.371,0.536l-8.105-0.905       c-1.303-0.145-2.207,1.267-1.53,2.389l4.213,6.984c0.268,0.446,0.301,0.996,0.086,1.47l-3.365,7.429       c-0.541,1.194,0.522,2.49,1.799,2.193l7.944-1.848c0.507-0.118,1.039,0.021,1.424,0.372l6.026,5.496       c0.969,0.883,2.53,0.272,2.642-1.034l0.697-8.126c0.044-0.519,0.341-0.982,0.794-1.24l7.089-4.032       C370.108,432.468,370.009,430.795,368.801,430.285z"/>
				</g>
				<path style="fill:#915EFD;" d="M286.598,223.594c2.4,5.387,5.965,10.46,10.307,14.147c4.359,3.722,9.645,6.029,15.304,6.712      c2.817,0.412,5.727,0.458,8.65,0.168c2.934-0.158,5.858-0.802,8.806-1.397c5.871-1.402,11.672-3.492,17.521-5.721l0.018-0.006      c0.88-0.335,1.864,0.106,2.199,0.986c0.288,0.757,0.001,1.592-0.646,2.024c-5.349,3.574-11.193,6.513-17.477,8.542      c-6.279,1.965-13.102,3.04-19.99,2.094c-3.418-0.498-6.829-1.447-9.981-2.984c-3.134-1.56-6.033-3.6-8.444-6.073      c-4.863-4.947-8.079-11.03-9.355-17.7c-0.165-0.864,0.401-1.698,1.265-1.863c0.74-0.142,1.459,0.254,1.753,0.914      L286.598,223.594z"/>
			</g>
			<path style="fill:#000E3F;" d="M302.797,467.942c-18.769,0-38.084-3.975-55.657-13.326     c-11.781-6.271-27.183-16.086-24.919-28.855c1.351-7.707,6.107-13.986,10.705-20.06c1.182-1.559,2.35-3.101,3.441-4.648     c3.824-5.423,6.417-11.167,7.931-17.559c3.802-16.108-0.156-33.03-4.348-50.945c-5.039-21.543-10.253-43.82-1.176-65.187     c10.583-24.941,31.037-50.372,54.714-68.028c1.329-0.99,7.258-5.777,7.318-5.826c0.626-0.501,1.51-0.513,2.146-0.028     c0.635,0.486,0.858,1.345,0.535,2.078c-0.015,0.036-1.557,3.563-2.184,6.653c-2.876,13.966-2.367,24.392,9.472,29.904     c15.598,7.263,32.226-4.003,49.835-15.932c17.232-11.677,35.044-23.755,54.147-20.311c19.42,3.498,24.996,25.85,23.871,43.927     l0,0c-0.882,14.292-5.1,29.933-13.675,50.714c-3.528,8.561-7.45,17.192-11.242,25.539     c-10.454,23.005-20.328,44.735-21.924,63.914c-0.583,7.045,0.803,13.25,2.269,19.82c0.82,3.675,1.668,7.475,2.145,11.441     c1.442,12.184-6.847,25.406-22.744,36.277C355.554,459.748,329.738,467.942,302.797,467.942z M298.256,200.008     c-1.155,0.921-2.201,1.745-2.691,2.111c-23.206,17.304-43.24,42.202-53.594,66.602c-8.632,20.323-3.551,42.038,1.363,63.038     c4.097,17.517,8.336,35.631,4.346,52.535c-1.617,6.833-4.389,12.97-8.473,18.762c-1.114,1.577-2.305,3.152-3.509,4.743     c-4.35,5.743-8.849,11.682-10.055,18.565c-2.084,11.764,16.894,21.866,23.131,25.186c41.583,22.125,93.212,13.27,122.725-6.912     c14.793-10.117,22.539-22.144,21.255-32.998c-0.456-3.791-1.285-7.505-2.086-11.096c-1.459-6.534-2.966-13.292-2.339-20.864     c1.645-19.78,11.64-41.777,22.222-65.064c3.779-8.32,7.688-16.922,11.193-25.426c8.423-20.412,12.561-35.711,13.419-49.604l0,0     c1.036-16.654-3.847-37.2-21.018-40.294c-17.716-3.194-34.929,8.481-51.583,19.768c-18.442,12.496-35.854,24.307-53.25,16.205     c-14.725-6.856-14.186-20.273-11.41-33.75C298.002,201.015,298.124,200.509,298.256,200.008z"/>
		</g>
		<g>
			<g>
				<path style="fill:#FFCF00;" d="M506.7,471.725c-30.724,25.629-102.806,39.389-143.662,28.216      c-2.007-0.541-3.937-1.139-5.79-1.815c-2.586-0.946-4.632-2.432-4.42-5.23c0.405-5.423,0.733-10.229,1.023-14.571      c2.142-30.802,2.49-38.116,5.095-72.816c0.154-2.046,0.251-3.512,0.714-4.632c1.312-3.474,5.674-3.783,23.448-7.218      c0.097,0,63.706-11.329,63.706-11.348c16.809-2.644,21.518-3.86,24.046-1.698c1.042,0.907,1.718,2.412,2.722,4.612      c3.416,7.623,6.176,13.799,8.569,19.183c7.604,17.079,11.522,26.111,21.036,47.611c1.776,3.956,3.706,8.357,5.906,13.297      C510.232,467.865,508.823,469.969,506.7,471.725z"/>
				<g>
					<path style="fill:#915EFD;" d="M470.863,380.61c-9.876,20.737-24.425,43.326-41.483,56.306       c-2.961,2.269-5.884,2.917-9.411,1.937c-21.912-6.09-43.192-20.895-60.315-37.98c1.327-3.463,5.672-3.773,23.446-7.216       c0.097,0.007,63.72-11.331,63.722-11.351C463.617,379.673,468.341,378.452,470.863,380.61z"/>
					<path style="fill:#915EFD;" d="M506.7,471.725c-24.298,20.264-74.456,33.117-114.598,32.076       c-0.753-0.02-1.505-0.039-2.258-0.077c-3.011-0.116-5.944-0.309-8.8-0.598c-1.447-0.135-2.856-0.309-4.246-0.482       c-0.694-0.097-1.39-0.193-2.065-0.289c-0.695-0.096-1.37-0.212-2.046-0.328c-1.351-0.212-2.683-0.463-3.976-0.733       c-0.656-0.135-1.293-0.27-1.93-0.424c-0.637-0.135-1.273-0.29-1.891-0.444c-0.618-0.154-1.235-0.309-1.852-0.482       c-2.007-0.541-3.937-1.139-5.79-1.815c-2.586-0.946-4.632-2.432-4.42-5.23c0.405-5.423,0.733-10.229,1.023-14.571       c9.109,1.93,32.287,3.127,41.532,2.972c23.371-0.444,42.458-3.512,58.438-7.913c20.862-5.77,36.436-13.837,49.367-21.364       c1.776,3.956,3.706,8.357,5.906,13.297C510.232,467.865,508.823,469.969,506.7,471.725z"/>
				</g>
				<g>
					<path style="fill:#FD8A02;" d="M474.023,403.154c-0.779,3.399-2.182,6.609-3.871,9.617       c-7.183,13.079-21.284,21.913-21.076,21.733c-0.791,0.537-1.868,0.331-2.405-0.46c-1.15-1.693,0.777-3.762,12.377-17.279       c11.985-13.804,12.181-16.986,14.381-15.276C473.95,401.893,474.16,402.551,474.023,403.154z"/>
					<path style="fill:#FD8A02;" d="M376.234,424.791c12.924,8.174,19.219,11.451,24.667,15.61c1.487,1.131,0.392,3.514-1.448,3.104       c-12.019-2.724-26.935-11.268-33.647-21.724c-0.493-0.764-0.273-1.784,0.492-2.277       C367.854,418.502,368.611,420.2,376.234,424.791z"/>
				</g>
				<path style="fill:#4217A6;" d="M421.707,461.626c6.506,3.026,16.179-0.214,18.092-7.483c2.013-7.65,0.84-15.569,0.112-22.685      c-0.404-3.95-2.671-6.23-6.443-7.176c-7.414-1.859-14.332-0.644-20.565,3.694c-4.096,2.85-4.827,5.834-3.491,10.068      C411.94,446.059,413.61,457.86,421.707,461.626z"/>
				<g style="opacity:0.5;">
					<path style="fill:#FFFFFF;" d="M427.743,436.327c-0.677-4.142-0.642-5.249-0.633-5.052c-0.071-1.633,1.858-2.541,3.076-1.46       c5.338,4.759,7.286,14.864,3.125,21.122c-0.845,1.27-2.797,0.886-3.118-0.587C430.148,450.149,427.708,436.126,427.743,436.327       z"/>
				</g>
				<g style="opacity:0.5;">
					<path style="fill:#FD8A02;" d="M503.188,452.021c-12.93,7.526-28.505,15.594-49.367,21.364       c11.907-8.549,20.148-20.881,23.043-39.196c1.486-9.418,0.714-21.055,5.288-29.778       C489.755,421.49,493.673,430.522,503.188,452.021z"/>
				</g>
				<path style="opacity:0.25;fill:#000E3F;" d="M506.7,471.725c-24.298,20.264-74.456,33.117-114.598,32.076      c-0.753-0.02-1.505-0.039-2.258-0.077c-3.011-0.116-5.944-0.309-8.8-0.598c-1.447-0.135-2.856-0.309-4.246-0.482      c-0.694-0.097-1.39-0.193-2.065-0.289c-0.695-0.096-1.37-0.212-2.046-0.328c-1.351-0.212-2.683-0.463-3.976-0.733      c-0.656-0.135-1.293-0.27-1.93-0.424c-0.637-0.135-1.273-0.29-1.891-0.444c-0.618-0.154-1.235-0.309-1.852-0.482      c7.102-7.18,20.592-6.736,31.033-8.048c23.506-2.953,44.581-7.642,59.75-18.508c20.862-5.77,36.436-13.837,49.367-21.364      c1.776,3.956,3.706,8.357,5.906,13.297C510.232,467.865,508.823,469.969,506.7,471.725z"/>
			</g>
			<path style="fill:#000E3F;" d="M510.678,464.616l-2.557-5.805c-1.202-2.66-2.302-5.165-3.35-7.493     c-4.066-9.18-7.109-16.085-9.845-22.324c-22.46-51.004-21.409-48.24-22.682-49.43c-0.187-0.374-1.634-1.472-3.58-1.687     c-0.767-0.128-1.662-0.153-2.736-0.102c-7.288-44.086-16.213-95.587-23.501-130.442c-0.409-1.918-0.792-3.913-1.176-5.933     c-3.81-19.486-8.515-43.728-34.496-44.444h-1.125c-41.349,0-46.055,64.799-48.101,92.8c-2.554,35.3,2.692,70.27,8.209,105.586     c-8.564,2.093-7.618,4.494-8.515,10.05c-1.713,22.81-2.455,33.652-3.375,47.384c-0.545,8.386-2.299,33.871-2.762,39.994     c-0.415,5.769,5.825,7.28,11.482,8.848h0.026c30.455,8.528,89.384,3.807,130.698-18.846c0.026-0.051,0.077-0.077,0.128-0.077     c5.224-2.893,9.934-5.942,14.397-9.641C511.036,470.395,512.008,467.557,510.678,464.616z M361.006,289.833     c1.943-26.85,6.495-89.425,44.648-89.425c0.332,0,0.665,0.026,0.997,0.026c23.194,0.639,27.439,22.427,31.172,41.631     c0.409,2.046,0.793,4.04,1.202,5.984c7.262,34.752,16.161,86.075,23.424,130.058c-0.121,0.022-9.042,1.32-9.129,1.407     c-10.307,1.767-74.067,12.854-84.182,15.087C369.036,393.859,358.085,329.969,361.006,289.833z M367.118,398.564     c3.09-0.742,17.849-3.503,18.105-3.503c0.545-0.217,58.854-10.514,61.858-11.021l0,0l0,0c2.976-0.541,18.499-3.297,21.48-2.634     c-7.535,15.466-17.567,31.827-29.305,44.213c-7.06-7.753-29.58-2.923-31.914,6.853c-16.652-7.263-33.16-19.556-45.467-31.862     C362.987,399.498,365.877,398.903,367.118,398.564z M432.684,459.783c-3.2,1.484-7.094,1.75-10.255,0.256     c-5.907-2.736-8.081-10.74-10.024-17.824c-1.432-5.37-2.059-6.393-1.816-8.387c1.23-8.121,26.391-13.608,27.592-2.199     C439.082,442.209,441.802,455.473,432.684,459.783z M357.324,453.032c1.021-15.229,1.918-28.592,3.452-48.638     c13.086,12.668,29.413,24.585,46.413,31.786c0.198,1.489,0.516,1.947,1.867,6.956c1.048,3.912,2.199,8.055,3.989,11.686     c4.79,9.647,13.569,11.6,21.122,8.081c11.048-5.186,8.728-19.401,7.467-31.632c-0.103-0.921-0.282-1.764-0.537-2.532     c12.369-12.845,22.215-29.062,30.021-44.674c1.282,2.448,29.249,65.834,29.868,67.229     c-36.474,21.04-78.532,31.721-126.274,27.566c-3.546-0.277-12.375-0.774-19.025-1.943     C356.378,467.122,356.863,459.758,357.324,453.032z M505.589,470.395c-9.859,8.216-23.956,14.822-35.877,19     c-0.026,0.026-0.077,0.026-0.102,0.026c-30.453,10.625-80.126,18.55-111.774,7.084c-4.304-1.592-3.366-1.616-2.378-16.111     c10.459,1.79,31.504,2.762,39.969,2.634c44.311-0.839,75.795-10.587,106.967-28.538v0.025c0.563,1.202,1.1,2.455,1.662,3.733     c0.281,0.639,0.588,1.304,0.87,1.969l2.583,5.805c0.153,0.332,0.256,0.665,0.256,1.074     C507.763,467.94,507.277,468.989,505.589,470.395z"/>
		</g>
		<g>
			<g>
				<path style="fill:#DB5E43;" d="M431.905,230.027c-14.777-33.062-37.438-29.448-54.07-4.383      c-6.114,9.214-11.077,19.024-15.304,29.2c-13.177,31.715-34.055,85.028-44.598,112.952c-3.405-1.089-6.545-2.049-9.13-2.913      c-27.154-9.078-92.631-24.917-117.207-28.362c-2.027-7.941-7.515-16.662-17.09-25.363c-3.04-2.761-22.012-19.015-25.999-11.421      c-2.734,5.208,12.345,16.408,7.966,20.606c-2.679,2.567-8.65-0.168-12.428-1.821c-19.891-8.704-33.189-23.515-37.041-15.288      c-1.58,3.375,2.267,7.612,7.17,11.447c-3.183-1.833-6.314-3.688-9.332-5.593c-3.59-2.264-7.113-1.792-8.724,0.216      c-2.805,3.497,1.327,8.36,7.671,13.269c-2.389-1.502-5.385-3.005-8.275-2.967c-3.67,0.048-4.687,3.253-2.905,6.185      c3.787,6.228,17.328,14.752,23.969,18.799l-0.003-0.001c0.004,0.002,0.007,0.004,0.011,0.006      c0.176,0.107,0.367,0.224,0.533,0.325c-3.342-1.715-6.978-3.503-10.741-4.018c-2.771-0.378-6.254,0.776-5.969,4.234      c0.471,5.714,25.725,16.339,31.034,18.278c13.786,5.035,29.795,8.162,43.944,2.701c0.534-0.206,1.048-0.429,1.56-0.654      c7.956,5.294,18.707,10.516,42.555,21.352c45.459,20.656,88.655,45.327,118.124,38.316c0.24-0.05,0.474-0.116,0.711-0.173      c0.637-0.164,1.267-0.344,1.89-0.539c0.345-0.111,0.693-0.212,1.032-0.336c0.27-0.093,0.547-0.166,0.814-0.265l-0.014-0.07      c11.535-4.647,20.077-17.043,27.242-28.908C442.574,273.514,444.062,257.228,431.905,230.027z"/>
				<path style="fill:#000E3F;" d="M433.477,229.33c-8.72-19.537-19.153-24.37-26.39-24.958      c-10.51-0.869-21.429,6.342-30.712,20.304c-5.754,8.72-10.817,18.361-15.445,29.51c-9.794,23.577-28.322,70.096-44.06,111.467      c-32.373-11.161-99.115-27.018-123.895-30.686c-2.455-8.362-8.413-17.005-17.286-25.086c-1.714-1.56-16.98-15.19-24.831-13.783      c-1.739,0.307-3.069,1.279-3.887,2.838c-1.816,3.478,1.355,7.851,4.449,12.121c2.122,2.915,5.012,6.905,3.861,8.03      c-1.79,1.688-7.237-0.716-10.203-1.995l-0.332-0.153c-7.365-3.222-13.937-7.39-19.256-10.74      c-7.365-4.654-12.709-8.029-16.596-6.879c-1.509,0.435-2.685,1.509-3.452,3.171c-0.767,1.636-0.639,3.324,0,4.935      c-4.475-2.66-8.72-1.637-10.689,0.793c-0.972,1.227-1.406,2.711-1.227,4.27c0.205,1.688,1.074,3.452,2.659,5.396      c-0.23,0-0.46-0.026-0.69-0.026c-2.174,0.051-3.938,0.997-4.859,2.608c-0.972,1.79-0.793,4.117,0.486,6.214      c2.02,3.299,6.546,7.416,13.783,12.428c-1.611,0.077-3.35,0.588-4.629,1.79c-1.202,1.125-1.739,2.634-1.585,4.373      c0.639,7.927,31.837,19.665,32.169,19.767c18.003,6.598,32.783,7.467,45.16,2.685c0.256-0.076,0.511-0.179,0.767-0.307      c8.209,5.345,19.818,10.894,41.989,20.969c7.646,3.478,15.318,7.109,22.708,10.613c23.151,10.963,77.149,38.46,101.188,26.441      c0.026,0,0.051-0.026,0.051-0.026c11.456-4.654,20.227-16.698,28.078-29.663C442.299,277.328,446.518,258.482,433.477,229.33z       M367.808,393.935c-13.47,22.304-23.2,32.488-46.592,30.43c-22.094-1.918-49.584-14.934-78.25-28.513      c-7.416-3.503-15.087-7.135-22.759-10.612c-22.733-10.331-34.215-15.855-42.296-21.225c-0.486-0.332-1.125-0.384-1.662-0.153      c-0.486,0.23-0.972,0.435-1.483,0.639c-11.405,4.398-25.776,3.478-42.731-2.711c-10.331-3.785-29.612-13.246-29.893-16.801      c-0.077-0.895,0.256-1.33,0.511-1.56c0.716-0.665,2.097-0.997,3.478-0.818c3.401,0.486,6.879,2.122,10.305,3.887l0,0      c8.26,4.501,14.908,5.217,15.19,5.242c0.077,0.026,0.128,0.026,0.205,0.026c0.869,0,1.611-0.665,1.713-1.56      c0.102-0.946-0.588-1.816-1.534-1.918c-0.077,0-6.572-0.716-14.55-5.216h-0.026c-12.965-7.902-20.815-14.014-23.347-18.182      c-0.614-1.023-0.767-2.071-0.409-2.736c0.358-0.665,1.202-0.793,1.867-0.818c1.867,0.026,4.45,1.074,7.211,2.762l0,0      c0.742,0.588,18.361,14.781,34.164,17.824c0.128,0.026,0.23,0.051,0.332,0.051c0.818,0,1.56-0.588,1.713-1.432      c0.179-0.921-0.435-1.841-1.381-2.02c-13.937-2.685-30.072-15.087-32.374-16.929l0,0c-6.188-4.782-8.055-7.978-8.234-9.512      c-0.077-0.639,0.077-1.176,0.486-1.688c1.048-1.279,3.58-1.637,6.444,0.153c2.685,1.688,5.754,3.555,9.41,5.652l0,0      c2.225,1.79,18.898,14.78,33.934,17.67c0.128,0.026,0.23,0.026,0.332,0.026c0.818,0,1.56-0.588,1.713-1.406      c0.179-0.946-0.435-1.841-1.381-2.046c-14.96-2.864-32.476-16.954-32.655-17.108l0,0c-5.191-4.066-7.595-7.416-6.674-9.36      c0.46-0.972,0.946-1.227,1.279-1.329c2.429-0.69,7.672,2.634,13.783,6.495c5.396,3.401,12.121,7.646,19.69,10.97l0.358,0.153      c4.194,1.841,10.536,4.629,13.988,1.33c3.35-3.222-0.102-7.978-3.452-12.581c-2.122-2.915-5.012-6.905-4.194-8.464      c0.307-0.588,0.742-0.895,1.406-1.023c4.705-0.818,15.906,7.493,21.889,12.914c8.797,8.004,14.525,16.468,16.571,24.524      c0.179,0.665,0.742,1.176,1.458,1.279c20.29,2.847,79.958,16.288,122.336,30.047c2.204,0.705,3.18,0.983,5.293,1.688      c12.454,3.933,13.489,5.868,14.525,3.452c0.358-0.87-0.077-1.892-0.946-2.25c-4.194-1.713-8.439-3.196-12.351-4.449      c10.587-28.027,30.763-79.529,43.907-111.212c4.552-10.945,9.513-20.407,15.164-28.922      c8.541-12.862,18.284-19.537,27.515-18.769c9.027,0.767,17.159,8.669,23.526,22.912      C442.759,258.558,438.489,276.944,367.808,393.935z"/>
			</g>
			<g>
				<path style="fill:#915EFD;" d="M373.766,308.662c-3.078-0.066-6.144-0.573-9.223-0.77c-11.53-0.74-21.255-10.303-26.379-20.881      c-1.979-4.085-1.655-5.94,1.732-8.978c25.659-23.012,27.974-85.579,70.685-86.569c32.856-0.761,43.943,35.455,35.479,61.731      c-4.086,12.684-7.764,21.706-11.544,34.172c-3.349,11.046,0.086,25.505,2.819,31.224c1.473,3.082,0.823,6.355-2.865,7.419      c-5.2,1.501-10.421,2.617-15.953,1.733C389.403,323.089,391.102,309.033,373.766,308.662z"/>
				<g>
					<path style="fill:#000E3F;" d="M422.522,329.791c-1.404,0-2.831-0.102-4.28-0.333c-16.148-2.58-23.183-8.059-28.836-12.461       c-4.621-3.598-8.27-6.44-15.679-6.598l0,0c-1.879-0.04-3.749-0.238-5.556-0.43c-1.246-0.131-2.492-0.264-3.741-0.344       c-13.123-0.842-22.98-11.842-27.829-21.858c-2.331-4.81-1.813-7.49,2.133-11.027c9.386-8.417,15.528-22.22,22.032-36.834       c10.839-24.354,22.045-49.537,49.774-50.18c12.658-0.26,23.212,4.695,30.475,14.427c9.468,12.688,12.16,32.61,6.696,49.573       c-1.815,5.636-3.558,10.574-5.243,15.349c-2.158,6.111-4.195,11.883-6.291,18.795c-3.368,11.11,0.46,25.234,2.723,29.971       c1.065,2.23,1.195,4.48,0.362,6.334c-0.532,1.183-1.712,2.751-4.314,3.502C431.05,328.803,426.899,329.791,422.522,329.791z        M373.804,306.925c8.558,0.184,12.812,3.496,17.737,7.331c5.618,4.373,11.985,9.331,27.249,11.771       c5.304,0.845,10.434-0.312,15.198-1.688c1.065-0.306,1.773-0.841,2.107-1.586c0.401-0.895,0.283-2.139-0.326-3.414       c-3.149-6.59-6.252-21.467-2.914-32.478c2.118-6.986,4.169-12.794,6.338-18.943c1.679-4.753,3.413-9.667,5.215-15.257       c5.136-15.943,2.654-34.602-6.176-46.43c-6.562-8.794-16.159-13.284-27.611-13.031c-25.528,0.591-36.282,24.752-46.68,48.118       c-6.366,14.304-12.948,29.095-22.888,38.007c-2.776,2.49-2.974,3.525-1.327,6.927c4.222,8.716,13.281,19.159,24.927,19.906       c1.297,0.083,2.589,0.219,3.884,0.355C370.354,306.706,372.07,306.888,373.804,306.925L373.804,306.925z"/>
					<path style="fill:#000E3F;" d="M423.482,314.866c-9.757,0.001-19.763-9.629-22.908-12.937       c-5.117-5.382-12.569-5.696-22.006-6.094c-2.284-0.097-4.644-0.197-7.065-0.377c-4.12-0.307-7.347-1.812-9.589-4.473       c-3.809-4.518-3.266-10.69-3.24-10.95c0.089-0.954,0.909-1.674,1.894-1.563c0.954,0.092,1.653,0.938,1.564,1.89       c-0.008,0.074-0.409,5.027,2.452,8.403c1.619,1.907,4.033,2.994,7.177,3.228c2.382,0.177,4.706,0.275,6.954,0.37       c9.815,0.414,18.293,0.771,24.377,7.171c6.696,7.042,16.41,13.717,23.532,11.368c0.912-0.302,1.894,0.192,2.194,1.104       c0.302,0.911-0.194,1.893-1.104,2.194C426.322,314.661,424.905,314.866,423.482,314.866z"/>
				</g>
			</g>
		</g>
		<g>
			<path style="fill:#000E3F;" d="M338.103,7.91c-13.857-3.995-29.412,0.29-40.49,9.186c-12.506,10.055-14.455,28.022-18.392,42.883     c-2.489,9.418-9.186,17.929-14.918,25.629c-4.968,6.684-8.353,13.99-10.337,21.5c-8.694,20.747-10.501,60.265,22.313,77.536     c0.258,0.136,0.533,0.201,0.807,0.201c0.624,0,1.229-0.338,1.54-0.928c0.447-0.849,0.12-1.9-0.729-2.346     c-21.554-11.345-27.129-33.025-25.712-51.729c2.827,27.818,23.643,52.921,56.565,54.675c0.213-0.366,0.386-0.753,0.579-1.138     c3.416-7.006,5.404-14.841,4.671-22.117c-0.058-0.617-0.135-1.216-0.232-1.814c-0.077-0.482-0.174-0.946-0.27-1.428     c-0.135-0.598-0.231-1.177-0.27-1.737c-0.965-8.801,6.234-14.397,15.632-16.443c-11.039-38.926-26.575-88.081-2.2-92.25     c10.093-1.717,21.827,3.821,27.443-15.806C356.457,23.581,351.42,11.731,338.103,7.91z"/>
			<g>
				<g>
					<path style="fill:#DB5E43;" d="M310.834,163.508c-18.719-3.478-28.359-20.892-30.379-40.071       c-0.639-6.035-0.537-12.249,0.256-18.259c0.256-1.815,0.563-3.605,0.946-5.37c4.117-19.409,11.379-36.005,26.211-49.533       c13.707-12.505,32.834-19.588,51.067-13.4C429.718,60.965,378.011,176.013,310.834,163.508z"/>
					<path style="fill:#FFFFFF;" d="M317.046,126.369c-3.303-0.667-6.559-1.191-9.764-2.29c-3.109-1.065-7.857-4.442-8.973,0.504       c-1.011,4.476,2.242,8.655,6.144,10.439C314.651,139.684,327.337,128.448,317.046,126.369z M299.371,124.122L299.371,124.122       L299.371,124.122L299.371,124.122z"/>
					<g style="opacity:0.25;">
						<path style="fill:#000E3F;" d="M325.029,122.278c3.057-11.984,25.653-8.517,24.053,4.406c-1.153,9.295-16.098,9.716-21.64,3.5        C325.022,127.47,324.411,124.7,325.029,122.278z"/>
						<path style="fill:#000E3F;" d="M296.744,116.635c-0.869,7.032-9.692,9.001-16.289,6.802        c-0.639-6.035-0.537-12.249,0.256-18.259C288.178,103.644,297.818,108.042,296.744,116.635z"/>
					</g>
				</g>
				<g>
					<path style="fill:#000E3F;" d="M359.482,35.234c-17.196-5.852-36.932-0.71-52.79,13.756       c-13.76,12.551-22.004,28.113-26.729,50.458c-3.86,18.256-0.972,37.503,7.533,50.228c5.62,8.407,13.583,13.779,23.027,15.536       c3.521,0.655,6.994,0.967,10.421,0.967c34.018-0.003,62.698-30.823,71.114-62.981       C398.666,77.949,393.577,46.835,359.482,35.234z M388.696,102.319c-8.867,33.893-41.031,66.264-77.535,59.479       c-8.626-1.605-15.617-6.333-20.775-14.051c-8.004-11.975-10.695-30.207-7.022-47.58c4.563-21.587,12.48-36.579,25.67-48.609       c10.895-9.938,23.673-15.215,36.003-15.215c4.542,0,9.024,0.716,13.327,2.181C390.202,49.356,394.91,78.58,388.696,102.319z"/>
					<path style="fill:#000E3F;" d="M311.641,79.445c1.951-8.54-17.8-8.318-16.318-0.975       C296.365,83.634,310.35,85.095,311.641,79.445z"/>
					<path style="fill:#000E3F;" d="M331.327,84.498c-1.807,5.507,10.929,11.465,14.485,7.577       C350.868,86.548,334.059,76.174,331.327,84.498z"/>
					<path style="fill:#000E3F;" d="M314.545,94.698c-0.279,0.352-6.87,8.637-8.724,11.717c-1.21,2.007-0.99,3.7-0.59,4.765       c0.963,2.579,3.907,4.587,9.263,6.319c0.179,0.058,0.358,0.085,0.535,0.085c0.733,0,1.415-0.468,1.653-1.203       c0.294-0.913-0.205-1.892-1.118-2.187c-5.443-1.759-6.772-3.405-7.081-4.229c-0.122-0.328-0.224-0.868,0.311-1.756       c1.74-2.887,8.4-11.263,8.468-11.347c0.597-0.751,0.473-1.843-0.277-2.441C316.232,93.823,315.141,93.949,314.545,94.698z"/>
					<path style="fill:#000E3F;" d="M370.324,119.193l-6.042,3.497c-0.829,0.48-1.114,1.542-0.633,2.373       c0.322,0.557,0.907,0.868,1.506,0.868c0.296,0,0.594-0.075,0.869-0.234l6.042-3.497c0.829-0.48,1.114-1.542,0.633-2.373       C372.217,118.994,371.154,118.709,370.324,119.193z"/>
					<path style="fill:#000E3F;" d="M299.51,89.571c-2.607-0.447-5.083,1.304-5.531,3.911c-0.447,2.608,1.304,5.084,3.911,5.531       c2.607,0.447,5.083-1.304,5.531-3.911C303.868,92.494,302.118,90.018,299.51,89.571z"/>
					<path style="fill:#000E3F;" d="M334.304,97.542c-2.607-0.447-5.083,1.304-5.531,3.911c-0.447,2.608,1.304,5.083,3.911,5.531       c2.607,0.447,5.083-1.304,5.531-3.911C338.662,100.465,336.911,97.989,334.304,97.542z"/>
				</g>
			</g>
			<g>
				<path style="fill:#000E3F;" d="M418.184,76.037c1.311,13.55-1.845,28.568,5.324,41.028c4.823,8.382,11.184,15.696,15.148,24.59      c11.023,24.732-5.475,39.748,7.853,54.709c5.118,5.746,11.682,9.256,15.893,15.946c9.059,14.393,7.313,32.888-3.148,46.011      c-25.85,32.427-83.178,15.265-85.313-28.064c-0.374-7.593,4.016-15.36,0.205-22.74c-2.816-5.455-9.543-6.581-14.073-10.314      c-17.936-14.784-15.042-39.686,1.255-56.089c5.931-5.969,19.595-12.001,18.035-22.285c-1.028-6.779-6.282-6.855-11.491-8.75      c-15.247-5.545-13.991-19.853-15.968-27.732c-2.293-9.136-11.274-13.91-20.027-14.892c-9.84-1.105-22.112,1.046-28.958-7.888      c-10.697-13.963,4.357-31.328,15.353-39.563c27.811-20.826,92.601-13.395,99.817,55.098      C418.122,75.413,418.154,75.725,418.184,76.037z"/>
				<g>
					<path style="fill:#4217A6;" d="M365.477,169.687c5.156,1.171,10.095,3.096,14.665,5.651       c23.93,13.862,16.007,32.731,16.525,45.702c0.868,16.299,16.241,25.387,32.808,31.59c1.807,0.677,0.768,3.191-1.13,2.732       c-16.015-3.857-31.582-12.039-36.582-26.253c-5.601-17.452,9.131-34.664-14.336-50.312c-9.301-6.555-15-5.73-13.736-8.303       C364.003,169.86,364.772,169.526,365.477,169.687z"/>
					<path style="fill:#4217A6;" d="M299.699,52.352c-1.146-4.838-0.969-10.064,0.419-14.974c1.359-4.93,3.959-9.518,7.395-13.34       c3.479-3.784,7.805-6.806,12.591-8.625c4.763-1.846,9.959-2.516,14.894-1.826c0.8,0.111,1.358,0.851,1.246,1.651       c-0.094,0.672-0.63,1.173-1.272,1.25l-0.024,0.002c-4.545,0.548-8.853,1.741-12.783,3.674       c-3.914,1.943-7.462,4.561-10.377,7.775c-2.948,3.184-5.246,6.952-6.841,11.028c-1.582,4.092-2.393,8.501-2.533,13.09       l-0.001,0.02c-0.023,0.759-0.658,1.357-1.418,1.333C300.361,53.391,299.839,52.943,299.699,52.352z"/>
				</g>
			</g>
		</g>
	</g>
	<g>
		<g>
			<path style="fill:#FFCF00;" d="M189.61,219.198c-4.115,0-8.198-0.667-12.138-1.983c-12.697-4.242-22.093-14.573-25.135-27.637     c-1.598-6.877-1.257-14.06,0.987-20.772c5.226-15.641,19.808-26.15,36.285-26.15c4.107,0,8.182,0.666,12.114,1.979     c11.691,3.905,20.835,13.289,24.459,25.1c2.352,7.638,2.251,15.701-0.294,23.317C220.661,208.691,206.082,219.198,189.61,219.198     z"/>
			<path style="fill:#FFFFFF;" d="M196.58,178.049c2.095,1.531,2.425,3.027,1.346,5.116c-5.967,11.552-20.302,5.008-16.996-6.757     c0.391-1.392,1.414-2.14,3.083-2.242C188.065,173.92,193.461,175.769,196.58,178.049z"/>
			<path style="opacity:0.5;fill:#FD8A02;" d="M224.698,192.652c-6.479,19.392-27.437,29.853-46.829,23.374     c-12.647-4.225-21.492-14.621-24.311-26.734c44.181,30.867,63.418,3.228,71.426-19.192     C227.176,177.222,227.233,185.065,224.698,192.652z"/>
			<g style="opacity:0.75;">
				<path style="fill:#FFFFFF;" d="M183.319,156.385c-3.437,0.125-7.533,0.772-7.335,0.743c-1.831,0.268-2.897-2.028-1.478-3.259      c8.784-7.491,25.241-5.247,31.715,4.262c0.977,1.439-0.521,3.274-2.127,2.604C197.839,158.126,191.946,156.078,183.319,156.385z      "/>
			</g>
			<g>
				<path style="fill:#FC09B2;" d="M160.276,181.515c-0.954,3.065,2.208,6.774,7.063,8.286c4.855,1.512,9.565,0.253,10.518-2.812      c0.954-3.065-2.208-6.774-7.063-8.286C165.939,177.192,161.23,178.451,160.276,181.515z"/>
				<path style="fill:#FC09B2;" d="M195.836,192.586c-0.954,3.065,2.208,6.774,7.064,8.286c4.855,1.511,9.564,0.252,10.518-2.812      c0.954-3.065-2.209-6.774-7.064-8.286C201.5,188.262,196.791,189.521,195.836,192.586z"/>
			</g>
		</g>
		<g>
			<path style="fill:#000E3F;" d="M189.61,220.935c-4.303,0-8.571-0.697-12.69-2.073c-13.274-4.434-23.095-15.234-26.276-28.89     c-1.67-7.19-1.314-14.7,1.031-21.717c5.464-16.351,20.707-27.336,37.933-27.336c4.293,0,8.555,0.696,12.663,2.067     c12.222,4.082,21.781,13.891,25.569,26.238c2.46,7.988,2.354,16.418-0.307,24.377C222.07,209.951,206.831,220.935,189.61,220.935     z M189.608,144.392c-15.729,0-29.65,10.032-34.639,24.963c-2.141,6.409-2.467,13.265-0.941,19.83     c2.902,12.471,11.874,22.334,23.992,26.382c3.762,1.257,7.661,1.894,11.589,1.894c15.724,0,29.64-10.031,34.629-24.961     c2.429-7.268,2.527-14.963,0.281-22.256c-3.46-11.278-12.188-20.235-23.349-23.964     C197.419,145.027,193.529,144.392,189.608,144.392z"/>
			<path style="fill:#000E3F;" d="M174.692,167.474c2.478,0.838,3.889,3.654,3.049,6.085c-0.752,2.177-3.324,3.539-5.589,3.06     c-2.563-0.542-4.344-3.71-3.437-6.183C169.553,168.153,172.451,166.716,174.692,167.474z"/>
			<path style="fill:#000E3F;" d="M209.609,179.14c-2.484-0.82-5.304,0.582-6.094,3.03c-0.707,2.192,0.529,4.827,2.627,5.806     c2.374,1.107,5.702-0.354,6.463-2.875C213.308,182.772,211.855,179.882,209.609,179.14z"/>
		</g>
	</g>
	<g>
		<g>
			<path style="fill:#FFBBEC;" d="M118.518,117.583c-0.665,0-1.293-0.384-1.581-1.017c-0.356-0.781-0.087-1.704,0.629-2.173     c0.151-0.107,6.425-4.769,4.21-22.744h-14.248c-7.548,0-13.688-6.14-13.688-13.688V38.525c0-7.548,6.14-13.689,13.688-13.689     h121.226c7.548,0,13.69,6.14,13.69,13.689v39.436c0,7.547-6.142,13.688-13.69,13.688h-84.023     c-3.99,9.7-11.621,21.633-25.715,25.861C118.852,117.559,118.684,117.583,118.518,117.583z"/>
			<path style="fill:#FC09B2;" d="M149.037,54.804c-1.235,10.383-12.023,18.913-20.438,22.059c-0.675,0.27-1.428,0.27-2.123,0     c-4.555-1.698-9.785-4.979-13.837-9.264c-3.435-3.647-6.021-8.028-6.601-12.795c-0.907-7.43,3.551-13.625,9.264-12.448     c7.739,1.544,12.236,11.213,12.236,11.213s4.497-9.669,12.236-11.213c0.83-0.173,1.66-0.193,2.412-0.039     C146.682,43.032,149.809,48.474,149.037,54.804z"/>
			<path style="opacity:0.25;fill:#000E3F;" d="M149.037,54.804c-1.235,10.383-12.023,18.913-20.438,22.059     c-0.675,0.27-1.428,0.27-2.123,0c-4.555-1.698-9.785-4.979-13.837-9.264c1.795-3.821,6.311-6.561,12.872-6.561     c11.058,0,15.227-12.197,16.675-18.721C146.682,43.032,149.809,48.474,149.037,54.804z"/>
		</g>
		<g>
			<path style="fill:#000E3F;" d="M228.756,23.1H107.529c-8.505,0-15.425,6.919-15.425,15.425v39.436     c0,8.505,6.92,15.425,15.425,15.425h12.696c1.473,14.664-3.095,19.098-3.622,19.557c-1.535,0.849-2.084,2.654-1.415,4.287     c0.54,1.32,1.884,2.098,3.274,2.098c0.353,0,0.709-0.05,1.056-0.154c14.221-4.266,22.114-15.941,26.366-25.787h82.872     c8.505,0,15.425-6.92,15.425-15.425V38.525C244.181,30.02,237.262,23.1,228.756,23.1z M240.707,77.961     c0,6.6-5.351,11.951-11.951,11.951h-85.2c-3.84,9.837-11.219,21.789-25.037,25.934c0,0,7.794-4.924,4.779-25.934h-15.769     c-6.601,0-11.951-5.351-11.951-11.951V38.525c0-6.6,5.351-11.951,11.951-11.951h121.227c6.6,0,11.951,5.35,11.951,11.951V77.961z     "/>
			<path style="fill:#000E3F;" d="M171.356,45.577c-2.826-0.235-5.208-0.161-7.784-0.08c-0.319,0.318-4.648,7.071-4.808,8.859     c0,0.476,4.331,1.47,4.808,1.47c0.874,0,1.191-2.304,1.707-2.185c0.227,1.628-0.436,11.22-0.436,15.969c0-0.24,0,3.65,0,3.892     c1.231,0.138,6.314,0.75,6.314-0.437C170.846,65.729,172.012,54.871,171.356,45.577z"/>
			<path style="fill:#000E3F;" d="M182.52,45.577c-2.948,0.131-5.553,1.98-6.554,3.655c-2.344,3.615-2.184,7.984-1.986,12.035     c0.119,4.727,0.276,9.93,5.639,11.917c8.373,2.924,12.919-5.511,12.473-14.22C192.606,52.268,189.316,45.329,182.52,45.577z      M184.982,65.239c-0.61,1.827-1.725,2.285-3.099,1.828c-2.646-0.441-2.436-12.214-1.31-13.982     c0.697-1.194,2.665-1.844,3.774-0.437C186.051,55.095,185.58,63.452,184.982,65.239z"/>
			<path style="fill:#000E3F;" d="M203.058,45.577c-2.948,0.131-5.553,1.98-6.554,3.655c-2.344,3.615-2.184,7.984-1.986,12.035     c0.119,4.727,0.276,9.93,5.639,11.917c8.373,2.924,12.919-5.511,12.474-14.22C213.144,52.268,209.854,45.329,203.058,45.577z      M205.521,65.239c-0.61,1.827-1.725,2.285-3.099,1.828c-2.646-0.441-2.436-12.214-1.31-13.982     c0.697-1.194,2.665-1.844,3.774-0.437C206.589,55.095,206.118,63.452,205.521,65.239z"/>
			<path style="fill:#000E3F;" d="M232.056,46.173c-1.707-0.277-3.692,0-5.402-0.119c-2.225,3.138-3.336,6.435-5.561,9.335     c-0.119,0.119-0.199,0.277-0.199,0.238c-0.118-3.019,0.041-6.515-0.08-9.533c-1.707,0-3.574-0.12-5.322-0.08     c0.039,9.255-0.516,18.471-0.08,27.567c1.39,0.317,4.37,0.397,5.801,0c0-2.979-0.24-7.19-0.121-10.248     c1.668,2.939,3.259,7.825,5.481,10.367c1.709,0.04,3.813,0.278,5.522-0.079l-6.793-14.102     C227.211,55.07,230.785,50.622,232.056,46.173z"/>
			<path style="fill:#000E3F;" d="M142.533,40.615c-0.967-0.196-2.047-0.183-3.098,0.037c-5.776,1.154-9.829,6.162-11.896,9.392     c-2.067-3.229-6.118-8.238-11.887-9.388c-2.731-0.565-5.396,0.203-7.512,2.152c-2.948,2.716-4.412,7.393-3.826,12.206     c0.573,4.715,3.013,9.479,7.064,13.78c3.928,4.152,9.346,7.777,14.471,9.69c0.554,0.215,1.133,0.32,1.706,0.32     c0.569,0,1.131-0.105,1.654-0.314c7.893-2.951,20.145-11.641,21.553-23.48C151.638,47.809,147.993,41.48,142.533,40.615z      M147.312,54.594c0,0.002,0,0.003,0,0.005c-1.083,9.117-10.763,17.437-19.356,20.651c-0.271,0.107-0.567,0.105-0.875-0.014     c-4.672-1.743-9.6-5.045-13.179-8.828c-3.536-3.753-5.658-7.838-6.14-11.814c-0.454-3.723,0.592-7.261,2.731-9.232     c0.741-0.682,1.891-1.412,3.425-1.412c0.33,0,0.678,0.034,1.044,0.109c6.768,1.35,10.961,10.155,11.003,10.243     c0.569,1.221,2.578,1.221,3.147,0c0.041-0.088,4.233-8.893,11.018-10.247c0.613-0.128,1.203-0.138,1.783-0.024     C145.531,44.607,147.953,49.345,147.312,54.594z"/>
		</g>
	</g>
	<g>
		<g>
			<path style="fill:#FFBBEC;" d="M11.018,309.431c-5.117,0-9.282-4.163-9.282-9.281v-66.93c0-5.118,4.165-9.281,9.282-9.281H21.41     c4.614-10.761,12.742-23.25,25.805-24.224c0.041-0.004,0.085-0.005,0.128-0.005c0.609,0,1.176,0.319,1.491,0.847     c0.337,0.564,0.326,1.271-0.028,1.826c-0.085,0.131-7.929,12.49-8.875,21.555h38.018c5.117,0,9.282,4.163,9.282,9.281v66.93     c0,5.118-4.165,9.281-9.282,9.281H11.018z"/>
			<path style="fill:#4217A6;" d="M40.591,289.158c0.214-0.155,0.349-0.4,0.361-0.669c0,0,0.357-7.362,0.429-8.918l0.738-15.241     c0.119-2.446,0.119-2.446-0.368-2.709c-0.003-0.003-0.006-0.004-0.009-0.005c-0.53-0.325-1.093-0.679-1.684-1.051     c-5.146-3.238-12.194-7.672-18.439-5.95c-0.115,0.029-0.232,0.059-0.351,0.098c-0.957,0.26-1.898,0.713-2.755,1.334     c-6.856,4.973-6.688,18.973-6.585,21.729c0.218,6.069,1.233,13.387,7.189,16.114c6.122,2.809,13.853-0.987,19.497-3.759     c0.647-0.317,1.261-0.619,1.839-0.893C40.501,289.217,40.548,289.19,40.591,289.158z"/>
			<path style="opacity:0.25;fill:#000E3F;" d="M40.075,288.448c-5.431,2.579-14.162,7.597-20.593,4.647     c-5.671-2.596-6.479-9.839-6.677-15.349c-0.291-7.782,1.312-20.17,8.736-22.196c-0.069,1.169-0.217,2.341-0.411,3.488     c-0.639,3.775-1.662,7.522-1.556,11.352c0.121,3.831,1.639,7.892,4.944,9.836c3.358,1.994,7.61,1.328,11.398,0.378     c1.507-0.377,3.047-0.784,4.589-1.073C40.385,282.105,40.237,285.064,40.075,288.448z"/>
			<path style="fill:#FFFFFF;" d="M72.748,289.678c1.332-0.966,2.203-2.141,2.519-3.396c0.014-0.037,0.021-0.091,0.029-0.13     c0.376-1.725-0.323-3.475-1.823-4.569c-0.023-0.017-0.047-0.033-0.069-0.05c0.312-0.165,0.626-0.348,0.934-0.572     c0.736-0.534,1.282-1.186,1.721-2.052c0.505-1.017,0.582-2.109,0.225-3.162c-0.348-1.026-1.082-1.919-2.043-2.503     c0.287-0.167,0.557-0.343,0.807-0.524c1.624-1.178,2.448-2.657,2.322-4.166c-0.119-1.426-1.059-2.721-2.669-3.703     c0.231-0.138,0.455-0.286,0.67-0.441c1.394-1.012,2.22-2.231,2.325-3.432c0.057-0.662-0.079-1.662-1.053-2.666     c-3.979-4.106-13.445-2.326-17.211-1.406c0.625-2.122,1.528-5.468,1.739-6.425c0.62-2.778,0.623-7.945-1.316-10.728     c-0.755-1.085-1.723-1.714-2.876-1.87c-0.912-0.127-1.769,0.093-2.543,0.655c-1.636,1.187-2.679,3.761-3.786,6.487     c-0.938,2.314-1.909,4.706-3.247,6.313c-1.52,1.817-3.437,3.406-5.127,4.808l-0.104,0.087c-2.852,2.368-5.801,4.816-7.58,8.354     c-2.464,4.914-2.813,10.983-0.91,15.839c0.127,0.331,0.268,0.646,0.414,0.97c0.159,0.331,0.314,0.65,0.479,0.947     c5.322,9.728,18.621,10.637,24.091,10.576C65.047,292.853,69.917,291.732,72.748,289.678z"/>
			<g style="opacity:0.18;">
				<path style="fill:#000E3F;" d="M58.655,292.04c10.769-0.11,15.056-3.171,15.76-5.972c0.007-0.041,0.011-0.068,0.023-0.101      c0.089-0.559,0.062-1.094-0.06-1.596c-7.411,3.809-16.984,1.81-22.438-4.612c-5.479-6.44-4.129-16.809-9.105-22.938      c-2.866,2.38-5.743,4.744-7.46,8.16c-2.282,4.548-2.745,10.356-0.877,15.124c0.123,0.32,0.257,0.621,0.397,0.929      c0.142,0.295,0.289,0.598,0.446,0.882C39.67,289.828,49.998,292.136,58.655,292.04z"/>
				<path style="fill:#000E3F;" d="M52.1,257c-0.661,0.453-1.515-0.214-1.238-0.965c0.517-1.406,1.879-4.197,3.415-8.334      c0.944-2.543,1.143-2.967,1.109-2.889c0.168-0.394,0.624-0.577,1.018-0.409C57.966,245.066,57.149,253.539,52.1,257z"/>
			</g>
		</g>
		<g>
			<path style="fill:#000E3F;" d="M77.949,222.201h-35.99c1.4-6.934,6.252-15.659,8.312-18.882c0.708-1.109,0.73-2.523,0.056-3.652     c-0.63-1.055-1.766-1.694-2.982-1.694c-0.086,0-0.172,0.003-0.259,0.01c-13.493,1.005-21.929,13.263-26.813,24.219h-9.255     C4.943,222.201,0,227.144,0,233.219v66.931c0,6.075,4.943,11.018,11.018,11.018h66.931c6.075,0,11.018-4.943,11.018-11.018     v-66.931C88.967,227.144,84.024,222.201,77.949,222.201z M85.493,300.15c0,4.166-3.378,7.544-7.544,7.544H11.018     c-4.166,0-7.544-3.378-7.544-7.544v-66.931c0-4.167,3.378-7.544,7.544-7.544h11.546c4.04-9.806,11.89-23.268,24.781-24.229     c0,0-9.265,14.472-9.244,24.229h39.849c4.167,0,7.544,3.378,7.544,7.544V300.15z"/>
			<path style="fill:#000E3F;" d="M77.618,257.361c-1.942-2.002-5.085-3.016-9.34-3.016c-2.53,0-5.044,0.368-6.91,0.731     c0.514-1.845,0.98-3.61,1.132-4.299c0.627-2.811,0.767-8.501-1.526-11.801c-0.971-1.392-2.288-2.236-3.811-2.44     c-0.225-0.032-0.451-0.048-0.677-0.048c-1.011,0-1.997,0.328-2.853,0.949c-1.96,1.421-3.071,4.168-4.247,7.076     c-0.852,2.105-1.816,4.49-3.028,5.945c-1.445,1.736-3.308,3.277-4.954,4.636l-0.107,0.09l-0.075,0.063     c-0.993,0.828-2.017,1.682-2.998,2.585c-4.102-2.489-8.898-4.969-13.647-4.969c-1.135,0-2.236,0.145-3.274,0.432l-0.131,0.035     l-0.27,0.072c-1.145,0.321-2.221,0.841-3.191,1.545c-7.429,5.389-7.252,20-7.142,22.874c0.234,6.465,1.351,14.275,7.975,17.307     c1.613,0.741,3.422,1.116,5.376,1.116c5.359,0,10.865-2.712,15.289-4.891l0.254-0.123c0.553-0.268,1.073-0.521,1.57-0.756     c0.007-0.003,0.015-0.006,0.023-0.01c6.046,3.32,13.336,3.821,17.174,3.821l0.446-0.002c6.761-0.072,11.764-1.251,14.87-3.505     c1.578-1.145,2.623-2.565,3.026-4.11l0.01-0.021l0.031-0.15c0.374-1.713-0.013-3.407-1.052-4.767     c0.703-0.604,1.267-1.335,1.715-2.221c0.658-1.317,0.764-2.807,0.301-4.197c-0.241-0.708-0.628-1.379-1.132-1.966     c1.627-1.393,2.434-3.121,2.28-4.91c-0.108-1.299-0.718-2.52-1.77-3.558c1.244-1.132,1.985-2.459,2.099-3.782     C79.135,260.152,78.951,258.739,77.618,257.361z M74.572,263.313c-0.429,0.311-0.929,0.595-1.447,0.821     c-0.3,0.133-0.451,0.206-0.561,0.285l-0.232,0.17l-0.01,0.351c0.045,0.33,0.324,0.435,0.57,0.528     c0.125,0.047,0.293,0.11,0.491,0.207c1.603,0.8,2.538,1.864,2.632,2.997c0.084,1.016-0.544,2.064-1.767,2.951     c-0.526,0.382-1.185,0.743-1.958,1.074l-0.05,0.021l-0.113,0.07c-0.17,0.123-0.257,0.306-0.237,0.502     c0.035,0.349,0.31,0.474,0.809,0.701c0.153,0.069,0.337,0.153,0.552,0.257c0.818,0.402,1.472,1.125,1.747,1.935     c0.238,0.703,0.186,1.434-0.152,2.114c-0.345,0.671-0.763,1.172-1.31,1.569c-0.378,0.274-0.79,0.48-1.225,0.699     c-0.185,0.093-0.371,0.186-0.558,0.286l-0.028,0.015l-0.096,0.057c-0.249,0.181-0.28,0.407-0.277,0.525     c0.011,0.378,0.317,0.575,0.781,0.872c0.16,0.103,0.346,0.222,0.544,0.363c1.071,0.781,1.555,1.97,1.292,3.178l0,0     c-0.004,0-0.016,0.05-0.027,0.124c-0.228,0.902-0.92,1.811-1.995,2.59c-1.817,1.318-5.598,2.905-13.295,2.98l-0.486,0.002     c-4.44,0-10.837-0.631-16.09-3.636c-0.524-0.295-1.053-0.631-1.616-1.029l-0.053-0.041c-1.98-1.426-3.541-3.165-4.641-5.17     c-0.154-0.278-0.297-0.572-0.435-0.858c-0.131-0.29-0.261-0.583-0.382-0.894c-1.767-4.512-1.438-10.157,0.859-14.734     c0.725-1.445,1.734-2.82,3.082-4.202c0.422-0.443,0.848-0.855,1.271-1.23c0.969-0.896,1.994-1.749,2.984-2.573     c1.734-1.438,3.7-3.068,5.302-4.984c1.47-1.767,2.479-4.256,3.454-6.663c1.032-2.543,2.006-4.946,3.327-5.904     c0.401-0.291,0.813-0.432,1.258-0.432c0.1,0,0.203,0.007,0.308,0.021c0.762,0.103,1.415,0.54,1.944,1.299     c1.525,2.189,1.76,6.717,1.104,9.656c-0.269,1.216-1.753,6.64-2.178,7.813l-0.329,0.903l0.92-0.276     c0.052-0.015,5.218-1.547,10.117-1.548c3.437,0,5.891,0.734,7.294,2.182c0.494,0.51,0.72,1.05,0.671,1.604     C76.27,261.655,75.626,262.548,74.572,263.313z M21.865,255.961l0.006-0.001l0.098-0.024c0.811-0.223,1.671-0.335,2.568-0.335     c2.175,0,4.612,0.636,7.448,1.944c1.302,0.605,2.669,1.334,4.265,2.277c-1.206,1.351-2.149,2.713-2.876,4.15     c-2.633,5.257-3.001,11.748-0.961,16.94c0.135,0.356,0.282,0.696,0.466,1.086c0.156,0.334,0.324,0.686,0.499,0.996     c1.216,2.223,2.898,4.153,5.004,5.744l-0.387,0.189c-4.171,2.043-9.36,4.585-14.094,4.585c-1.56,0-2.979-0.288-4.219-0.856     c-5.276-2.419-6.188-9.248-6.393-14.927c-0.274-7.281,1.139-17.039,6.02-20.58c0.723-0.524,1.515-0.905,2.354-1.132     C21.759,255.984,21.813,255.973,21.865,255.961z"/>
		</g>
	</g>
</g>
<path style="fill:#FD8A02;" d="M61.716,466.915c-4.059-0.075-9.375-0.539-9.191,2.556c0.127,2.157,2.14,2.075,4.539,2.08  c1.374,0.003,5.257-0.402,5.495,0.194c0.324,0.815-0.339,0.711-5.68,5.735c-1.563,1.471-3.304,3.221-1.685,4.626  c2.21,1.917,2.484,0.65,11.478-7.352c2.114-1.881,2.073,1.236,2.659,4.885c0.333,2.072,1.572,4.603,3.557,3.956  c1.642-0.535,1.406-2.209,1.181-3.917c-1.187-9.049-2.384-8.171,7.044-2.278c1.732,1.083,3.955,2.263,4.955,0.411  c1.727-3.2-8.189-6.653-9.932-9.163c1.073-1.298,2.544-1.117,4.063-1.274c2.342-0.146,4.053-0.094,5.478-2.057  c1.485-2.045-1.615-3.079-4.17-2.782c-6.582,0.766-5.566,1.547-2.024-7.222c0.708-1.756,1.419-3.993-0.321-4.698  c-1.875-0.759-2.875,1.324-3.842,3.315c-4.289,8.837-3.465,9.826-5.345-1.075c-0.83-4.813-5.305-4.393-4.313,1.916  c1.472,9.374,1.618,8.475-5.798,2.327c-0.697-0.578-2.717-2.853-4.446-0.53c-0.637,0.855-0.588,1.884,0.324,2.693  C62.845,465.565,65.447,466.668,61.716,466.915L61.716,466.915z"/>
<path style="fill:#FD8A02;" d="M154.512,427.478c1.097-4.26,2.921-9.747-0.388-10.331c-2.305-0.407-2.725,1.735-3.332,4.263  c-0.348,1.448-0.895,5.643-1.583,5.744c-0.941,0.137-0.664-0.536-4.621-7.427c-1.158-2.017-2.566-4.292-4.453-2.937  c-2.575,1.849-1.308,2.456,4.87,13.945c1.452,2.701-1.823,1.875-5.817,1.577c-2.268-0.169-5.247,0.501-5.063,2.757  c0.152,1.865,1.976,2.036,3.833,2.228c9.837,1.02,9.212-0.463,0.633,7.997c-1.576,1.554-3.379,3.601-1.677,5.12  c2.94,2.623,9.069-6.962,12.152-8.171c1.099,1.456,0.539,2.962,0.323,4.603c-0.434,2.505-0.918,4.296,0.793,6.291  c1.783,2.079,3.651-0.93,3.979-3.697c0.844-7.131-0.234-6.255,8.121-0.322c1.673,1.187,3.853,2.498,5.032,0.84  c1.271-1.786-0.675-3.363-2.531-4.882c-8.239-6.739-9.488-6.119,2.474-5.365c5.282,0.333,5.963-4.489-0.938-5.027  c-10.251-0.801-9.34-0.421-0.998-6.696c0.784-0.59,3.689-2.148,1.675-4.554c-0.742-0.886-1.838-1.092-2.921-0.334  C155.652,429.007,153.836,431.474,154.512,427.478L154.512,427.478z"/>
<path style="fill:#FD8A02;" d="M65.168,384.255c4.135-2.672,9.8-5.802,7.521-8.793c-1.588-2.085-3.558-0.64-5.976,0.978  c-1.386,0.927-5.019,3.963-5.661,3.524c-0.878-0.601-0.14-0.945,1.835-9.616c0.578-2.538,1.145-5.478-1.434-5.796  c-3.521-0.433-2.94,1.027-6.577,15.168c-0.855,3.324-2.923,0.159-5.983-3.117c-1.737-1.86-4.697-3.569-6.258-1.574  c-1.29,1.65,0.08,3.174,1.462,4.742c7.319,8.304,7.93,6.61-5.548,7.06c-2.476,0.082-5.512,0.399-5.265,2.94  c0.428,4.389,12.744,1.154,16.198,2.501c-0.201,2.032-1.805,2.846-3.227,4.032c-2.258,1.732-4.015,2.838-4.122,5.777  c-0.111,3.063,3.709,2.006,6.079-0.022c6.106-5.225,4.554-5.324,6.925,5.898c0.475,2.246,1.274,4.979,3.502,4.51  c2.4-0.505,1.997-3.279,1.623-5.936c-1.664-11.797-3.163-12.234,6.107-2.536c4.092,4.283,8.312,0.832,3.044-4.847  c-7.826-8.438-7.364-7.434,4.26-6.266c1.093,0.11,4.665,1.032,4.834-2.475c0.062-1.292-0.684-2.294-2.149-2.491  C64.946,386.377,61.58,387.029,65.168,384.255L65.168,384.255z"/>
<path style="fill:#FD8A02;" d="M495.54,145.102c2.041,3.509,4.402,8.295,6.953,6.533c1.778-1.227,0.664-2.906-0.575-4.96  c-0.71-1.177-3.071-4.286-2.684-4.798c0.529-0.7,0.784-0.079,7.85,1.882c2.068,0.573,4.468,1.154,4.829-0.958  c0.492-2.884-0.733-2.461-12.239-6.001c-2.705-0.832-0.018-2.413,2.798-4.807c1.599-1.359,3.121-3.731,1.538-5.093  c-1.309-1.126-2.618-0.056-3.962,1.022c-7.121,5.708-5.75,6.276-5.601-4.842c0.028-2.042-0.116-4.556-2.218-4.449  c-3.632,0.184-1.442,10.452-2.683,13.245c-1.666-0.244-2.274-1.596-3.196-2.813c-1.339-1.926-2.183-3.416-4.6-3.617  c-2.519-0.209-1.795,2.978-0.216,5.008c4.069,5.23,4.21,3.956-5.125,5.476c-1.868,0.305-4.15,0.857-3.85,2.711  c0.323,1.996,2.623,1.771,4.827,1.565c9.78-0.916,10.198-2.134,1.853,5.127c-3.685,3.206-1.005,6.814,3.875,2.694  c7.251-6.121,6.407-5.779,4.997,3.75c-0.133,0.896-1.03,3.802,1.853,4.076c1.062,0.101,1.915-0.475,2.135-1.674  C493.8,144.837,493.393,142.04,495.54,145.102L495.54,145.102z"/>
<path style="fill:#FD8A02;" d="M444.968,44.314c0.693,4,1.241,9.308,4.246,8.543c2.094-0.532,1.634-2.493,1.186-4.85  c-0.256-1.35-1.388-5.087-0.848-5.432c0.739-0.473,0.762,0.199,6.705,4.495c1.74,1.257,3.787,2.636,4.861,0.781  c1.465-2.532,0.169-2.562-9.388-9.883c-2.246-1.721,0.822-2.269,4.295-3.534c1.972-0.718,4.224-2.413,3.213-4.24  c-0.836-1.511-2.435-0.963-4.07-0.42c-8.662,2.875-7.574,3.885-3.567-6.487c0.736-1.905,1.476-4.311-0.532-4.943  c-3.469-1.091-4.987,9.298-7.123,11.484c-1.477-0.808-1.577-2.287-2.018-3.749c-0.586-2.272-0.858-3.962-3.054-4.991  c-2.289-1.072-2.719,2.168-1.944,4.62c1.995,6.319,2.571,5.173-6.709,3.352c-1.858-0.364-4.189-0.639-4.552,1.202  c-0.391,1.984,1.844,2.573,3.981,3.146c9.488,2.543,10.304,1.547-0.046,5.452c-4.57,1.724-3.313,6.039,2.696,3.874  c8.927-3.216,8.017-3.19,3.38,5.254c-0.436,0.794-2.288,3.206,0.319,4.466c0.96,0.464,1.961,0.221,2.584-0.827  C443.429,43.461,444.021,40.697,444.968,44.314L444.968,44.314z"/>















</svg>
