<?xml version="1.0" encoding="UTF-8"?>
<!-- Generator: Adobe Illustrator 25.2.3, SVG Export Plug-In . SVG Version: 6.00 Build 0)  -->
<svg xmlns="http://www.w3.org/2000/svg" xmlns:xlink="http://www.w3.org/1999/xlink" version="1.1" id="Capa_1" x="0px" y="0px" viewBox="0 0 512 512" style="enable-background:new 0 0 512 512;" xml:space="preserve" width="512" height="512">
<g>
	<path style="fill:#FFDEC7;" d="M86.73,272.245c0,0-27.184,109.973,56.347,76.362l13.837-90.94L86.73,272.245z"/>
	<path style="fill:#091438;" d="M86.223,293.079c0,0,8.278-17.51,24.192-11.11c15.919,6.396,28.649,49.228,7.004,52.286   c-21.647,3.06-14.218-21.136-6.368-23.64l-12.73-1.971h18.249c0,0-15.243,14.508-9.001,20.897   c6.242,6.384,24.395,1.366,17.276-22.213C112.326,265.835,86.223,293.079,86.223,293.079z"/>
	<polygon style="fill:#FFDEC7;" points="386.575,405.045 436.901,163.189 424.182,118.783 225.76,118.855 160.372,155.646    150.271,262.982 145.545,302.584 152.958,408.658 181.872,467.969 232.492,488.728 318.953,467.227 386.737,437.571    401.072,413.848  "/>
	<path style="fill:#EA4A0C;" d="M458.896,56.015c-33.112-65.734-97.86-59.311-99.345,10.873c0,0-55.352-86.493-167.053-62.768   C80.797,27.843,56.085,148.935,82.28,215.658c0,0-33.113-7.908-37.068,0c-3.955,7.907,29.657,56.587,29.657,56.587   s-40.208-15.506-40.532-6.671c-0.94,25.815,41.371,40.25,103.62,31.692c-6.342,46.678-17.911,185.083,63.191,209.993   c97.858,30.062,245.392-92.67,245.392-92.67s-22.062-12.721-59.971-9.521c-0.036,0.248-2.91,19.07-28.636,34.899   c22.587-89.438-56.145-84.933-56.145-84.933c49.808,16.329,27.973,72.427,12.85,101.089c-5.348,1.127-11.083,2.102-17.249,2.896   l-5.794-58.148l-33.855,7.043l-1.464,53.228c-15.088-0.739-27.967-3.986-38.932-9.145c-8.469-30.438-21.476-106.727,61.024-106.536   c0,0-96.72-46.051-91.532,82.444c-32.386-39.946-32.063-105.051-29.974-134.455c56.712-19.852,35.14-125.241,35.14-125.241   s112.689-54.367,166.563,7.412c0,0,39.885-26.923,78.335-12.433c12.011,4.529,23.881,13.048,34.353,27.755   C471.254,190.944,492.011,121.749,458.896,56.015z"/>
	<path style="fill:#091438;" d="M335.334,247.927l-30.766,79.55c-0.369,0.372,30.766,6.673,30.766,6.673s-8.153,16.681-17.79,18.535   c-9.64,1.853-49.303-16.681-49.303-16.681s4.079-20.757,17.424-6.673c0,0-11.491-3.707-12.602,5.19c0,0,42.628,28.913,56.343,1.853   l-30.181-8.433L335.334,247.927z"/>
	<path style="fill:#FFFFFF;" d="M299.214,298.843c0,9.314-14.934,16.867-33.361,16.867c-18.423,0-33.361-7.552-33.361-16.867   c0-9.317,14.937-16.864,33.361-16.864C284.28,281.979,299.214,289.525,299.214,298.843z"/>
	<path style="fill:#FFFFFF;" d="M381.967,300.371c0,8.798-14.105,15.931-31.507,15.931c-17.402,0-31.507-7.134-31.507-15.931   c0-8.798,14.105-15.926,31.507-15.926C367.862,284.445,381.967,291.573,381.967,300.371z"/>
	
		<rect x="238.842" y="252.911" transform="matrix(0.9961 -0.0878 0.0878 0.9961 -21.8113 24.6238)" style="fill:#091438;" width="60.489" height="14.828"/>
	
		<rect x="358.875" y="226.47" transform="matrix(0.3185 -0.9479 0.9479 0.3185 12.5072 517.6588)" style="fill:#091438;" width="14.827" height="47.321"/>
	<path style="fill:#091438;" d="M260.829,297.631c0,4.804-4.174,8.699-9.325,8.699c-5.145,0-9.32-3.896-9.32-8.699   c0-4.805,4.174-8.704,9.32-8.704C256.654,288.927,260.829,292.826,260.829,297.631z"/>
	<path style="fill:#091438;" d="M344.659,298.843c0,4.802-4.174,8.699-9.325,8.699c-5.145,0-9.321-3.898-9.321-8.699   c0-4.807,4.176-8.704,9.321-8.704C340.484,290.138,344.659,294.036,344.659,298.843z"/>
	<path style="opacity:0.5;fill:#FFFFFF;" d="M358.07,162.772c0,0-116.147-107.253-185.343,21.748   C172.727,184.519,240.935,24.384,358.07,162.772z"/>
	<path style="opacity:0.5;fill:#FFFFFF;" d="M369.933,160.3c0,0,60.296-62.273,97.86,11.367   C467.794,171.667,438.632,75.292,369.933,160.3z"/>
	<path style="opacity:0.5;fill:#FFFFFF;" d="M101.063,274.966c0,0,53.377,5.235,55.851-27.038   c2.472-32.271-56.555-69.341-0.847-117.281c55.708-47.944,126.978-55.354,194.393-12.357c0,0-94.696-87.879-198.49,6.968   C48.179,220.104,230.554,230.482,101.063,274.966z"/>
	
		<rect x="203.245" y="301.105" transform="matrix(0.9461 -0.3239 0.3239 0.9461 -86.4343 85.8995)" style="fill:#091438;" width="23.138" height="2.964"/>
	
		<rect x="198.302" y="294.206" transform="matrix(0.9916 -0.1297 0.1297 0.9916 -36.5452 30.1529)" style="fill:#091438;" width="29.909" height="2.966"/>
	
		<rect x="392.422" y="300.788" transform="matrix(0.2515 -0.9679 0.9679 0.2515 -3.4458 611.9307)" style="fill:#091438;" width="2.964" height="14.811"/>
	
		<rect x="392.175" y="296.413" transform="matrix(0.2185 -0.9758 0.9758 0.2185 13.4524 619.7528)" style="fill:#091438;" width="2.966" height="10.129"/>
	<path style="fill:#091438;" d="M242.389,359.653c0,0-7.168,21.251,58.32,20.759C300.709,380.412,227.315,389.798,242.389,359.653z"/>
	<path style="fill:#091438;" d="M246.815,363.238c0,0-10.624-0.985-15.816,5.931c0,0,5.19-12.354,15.816-10.873v3.953"/>
	<path style="opacity:0.5;fill:#FFFFFF;" d="M467.98,155.646c0.299-15.391-1.066-64.025-29.357-70.461   c-23.635-5.368-46.676,13.789-58.331,25.709C467.42,16.533,468.694,130.587,467.98,155.646z"/>
</g>















</svg>
