<?xml version="1.0" encoding="UTF-8"?>
<!-- Generator: Adobe Illustrator 25.2.3, SVG Export Plug-In . SVG Version: 6.00 Build 0)  -->
<svg xmlns="http://www.w3.org/2000/svg" xmlns:xlink="http://www.w3.org/1999/xlink" version="1.1" id="Capa_1" x="0px" y="0px" viewBox="0 0 512 512" style="enable-background:new 0 0 512 512;" xml:space="preserve" width="512" height="512">
<g>
	<path style="fill:#091438;" d="M236.471,318.304c0,0,6.013,35.976,56.343,22.125C292.814,340.43,243.215,363.828,236.471,318.304z"/>
	<path style="fill:#091438;" d="M349.058,228.848l-16.655,79.858c0,0,18.446-4.547,17.365,2.989   c-1.073,7.536-33.538,8.649-33.538,8.649s30.295-6.547,29.566-8.407c-0.728-1.863-18.16-0.811-18.16-0.811   S339.812,238.364,349.058,228.848z"/>
	<path style="fill:#FF6C7E;" d="M401.584,455.42c-1.914,0-59.358-15.955-45.314-37.018c14.037-21.06,121.267-0.639,125.094-26.166   c3.831-25.531-82.972,0.638,30.636-67.015c0,0-6.382-227.213-239.342-312.737c0,0-222.106,109.139-262.955,257.847   c-40.845,148.709,53.613,199.133,164.67,148.071c111.053-51.059,16.592,84.247,68.927,81.058   C295.635,496.269,401.584,455.42,401.584,455.42z"/>
	<path style="fill:#7C3E25;" d="M328.185,374.973v21.731c0,0-139.131,28.083-152.539-103.397   c-13.4-131.474,145.52-229.764,145.52-229.764s155.093,104.67,120.63,290.397L328.185,374.973z"/>
	<path style="fill:#091438;" d="M349.058,228.848l-16.655,79.858c0,0,18.446-4.547,17.365,2.989   c-1.073,7.536-33.538,8.649-33.538,8.649s30.295-6.547,29.566-8.407c-0.728-1.863-18.16-0.811-18.16-0.811   S339.812,238.364,349.058,228.848z"/>
	<g>
		<path style="fill:#FF6C7E;" d="M286.474,338.238c0.858,9.246-9.137,17.726-22.319,18.949    c-13.189,1.221-24.567-5.283-25.419-14.519c-0.865-9.246,9.13-17.728,22.312-18.954    C274.238,322.491,285.619,328.994,286.474,338.238z"/>
		<path style="fill:#091438;" d="M236.471,318.304c0,0,6.013,35.976,56.343,22.125C292.814,340.43,243.215,363.828,236.471,318.304z    "/>
	</g>
	<g>
		<path style="fill:#FFFFFF;" d="M323.281,292.068c0,0-79.4,39.913-109.976-21.232C213.304,270.836,251.947,206.72,323.281,292.068z    "/>
		<path style="fill:#091438;" d="M320.674,294.246c-25.186-30.131-48.659-44.605-69.993-43.009    c-22.256,1.673-34.351,21.161-34.471,21.359l-5.816-3.513c0.556-0.923,13.921-22.627,39.688-24.613    c23.582-1.81,49.099,13.467,75.805,45.421L320.674,294.246z"/>
		<path style="fill:#091438;" d="M255.792,276.293c0,9.207-4.324,16.671-9.65,16.671c-5.334,0-9.654-7.463-9.654-16.671    c0-9.205,4.32-16.671,9.654-16.671C251.469,259.622,255.792,267.088,255.792,276.293z"/>
	</g>
	<g>
		<path style="fill:#FFFFFF;" d="M342.718,291.437c0,0,75.319,12.831,85.072-45.124C427.79,246.313,379.895,203.327,342.718,291.437    z"/>
		<path style="fill:#091438;" d="M345.85,292.758l-6.262-2.642c13.984-33.141,31.223-52.214,51.235-56.691    c21.928-4.906,38.537,9.734,39.238,10.361l-4.532,5.061c-0.148-0.13-14.808-12.941-33.299-8.774    C374.515,244.076,358.909,261.802,345.85,292.758z"/>
		<path style="fill:#091438;" d="M379.775,268.363c0,9.209-4.317,16.673-9.647,16.673c-5.33,0-9.65-7.464-9.65-16.673    c0-9.202,4.32-16.665,9.65-16.665C375.458,251.698,379.775,259.161,379.775,268.363z"/>
	</g>
	
		<rect x="224.693" y="220.094" transform="matrix(0.9809 -0.1943 0.1943 0.9809 -38.7418 55.4815)" style="fill:#091438;" width="77.425" height="10.211"/>
	<rect x="353.079" y="202.988" style="fill:#091438;" width="63.822" height="10.213"/>
	<g>
		<path style="fill:#FFFFFF;" d="M249.045,84.761c-69.634,80.872-188.568,268.894-19.786,314.461    C57.829,356.2,174.244,162.93,243.233,79.772L249.045,84.761z"/>
		<path style="fill:#FFFFFF;" d="M144.394,178.774c-43.5,67.935-76.345,179.288,24.444,213.84    c-103.551-32.246-73.099-147.72-30.91-217.943L144.394,178.774z"/>
		<path style="fill:#FFFFFF;" d="M410.587,125.423c51.142,53.837,62.167,137.74,48.441,207.995    c10.974-69.205-1.932-151.194-53.676-202.403L410.587,125.423z"/>
	</g>
</g>















</svg>
