<?xml version="1.0" encoding="UTF-8"?>
<!-- Generator: Adobe Illustrator 25.2.1, SVG Export Plug-In . SVG Version: 6.00 Build 0)  -->
<svg xmlns="http://www.w3.org/2000/svg" xmlns:xlink="http://www.w3.org/1999/xlink" version="1.1" id="Capa_1" x="0px" y="0px" viewBox="0 0 512 512" style="enable-background:new 0 0 512 512;" xml:space="preserve" width="512" height="512">
<g>
	<g>
		<g>
			<g>
				<path style="fill:#4217A6;" d="M72.249,246.765c6.923-7.591,6.031-17.284,7.763-26.625c7.909-42.671,64.529-60.523,89.14-45.293      c7.123,4.408,5.846,14.183,2.105,20.427c-3.03,5.057-8.999,7.106-14.192,9.148c-14.034,5.518-26.411,16.76-34.772,29.137      c-19.031,28.172-10.272,44.373-16.911,59.35c-11.458,25.849-52.332,14.536-56.145-10.795      C46.554,264.296,62.119,257.873,72.249,246.765z"/>
				<path style="fill:#915EFD;" d="M99.92,213.931c-7.342,13.113-5.31,29.975-14.798,41.354      c-3.549,5.239-11.487,9.504-13.317,10.708c-2.428,1.623-6.143,4.204-6.935,1.923c-0.401-1.153,0.826-1.878,0.68-1.708      c2.15-1.182,4.303-3.348,6.385-4.857c1.675-1.697,9.38-5.495,13.627-18.184c4.142-12.075,2.981-26.263,17.157-40.786      c5.169-5.119,9.712-6.642,9.557-6.555c0.679-0.268,1.447,0.065,1.715,0.744C115.109,199.408,109.843,196.471,99.92,213.931z"/>
			</g>
			<path style="fill:#000E3F;" d="M82.147,309.022c-1.548,0-3.14-0.108-4.767-0.327c-12.983-1.749-27.306-11.367-29.564-26.368     c-2.113-14.027,6.596-21.511,15.018-28.749c2.857-2.455,5.812-4.994,8.353-7.782l0,0c4.89-5.362,5.638-11.904,6.432-18.831     c0.265-2.319,0.539-4.718,0.979-7.088c3.605-19.449,17.664-35.909,38.569-45.161c19.006-8.414,40.2-8.851,52.74-1.091     c7.578,4.689,6.986,15.035,2.582,22.387c-3.083,5.144-8.81,7.374-13.862,9.342l-1.038,0.405     c-12.792,5.031-25.223,15.457-34.105,28.605c-11.879,17.583-12.716,30.162-13.455,41.258c-0.416,6.263-0.811,12.179-3.332,17.87     C102.292,303.428,93.306,309.022,82.147,309.022z M73.31,247.733c-2.66,2.917-5.682,5.514-8.604,8.025     c-8.19,7.038-15.925,13.685-14.049,26.141c2.049,13.601,15.188,22.342,27.107,23.948c12.004,1.616,21.836-3.438,26.304-13.521     c2.317-5.225,2.677-10.633,3.094-16.895c0.725-10.893,1.628-24.45,13.94-42.677c9.2-13.617,22.116-24.432,35.437-29.669     l1.046-0.409c4.849-1.888,9.863-3.84,12.438-8.139c2.95-4.924,5.118-14.293-1.628-18.467c-11.766-7.281-31.886-6.77-50.064,1.276     c-20.024,8.862-33.477,24.556-36.907,43.057c-0.421,2.272-0.689,4.62-0.95,6.891C79.665,234.369,78.827,241.685,73.31,247.733     L73.31,247.733z"/>
		</g>
		<g>
			<g>
				<path style="fill:#FF967F;" d="M371.389,220.831c-0.835-1.628-3.1-1.928-5.811-1.385c0.004-0.418,0.001-0.836-0.008-1.253      c3.003-2.789,4.733-5.877,3.415-8.13c-0.965-1.649-2.897-2.301-5.246-2.242c-0.08-0.208-0.162-0.413-0.247-0.617      c1.411-1.853,2.266-3.823,1.701-5.608c-1.055-3.328-4.446-3.275-7.89-2.167c2.253-2.679,3.355-5.409,2.105-7.326      c-3.328-5.103-19.297,4.526-21.715,11.271c-1.223,0.733-2.496,1.272-3.815,1.091c-3.822-0.556-3.453-7.401-9.088-16.407      c-4.75-7.59-12.468-7.483-13.217-3.257c-0.605,3.411,2.55,9.128,3.757,12.681c6.346,18.677-9.058,32.807,2.559,49.667      c10.912,15.837,36.012,3.245,43.906-11.015c0.875-1.581,1.63-3.518,2.236-5.661      C368.808,227.742,372.828,223.636,371.389,220.831z"/>
				<g>
					<path style="fill:#000E3F;" d="M372.663,220.17c-0.562-1.058-1.793-2.354-4.665-2.419c0.432-0.432,0.777-0.885,1.101-1.339       c1.339-1.857,1.771-3.412,1.771-4.665c0-0.993-0.281-1.792-0.648-2.419c-0.929-1.577-2.505-2.527-4.557-2.829       c1.015-1.749,1.469-3.563,0.907-5.334c-0.561-1.728-1.706-2.959-3.304-3.499c-0.864-0.303-1.836-0.389-2.829-0.324       c1.166-2.289,1.253-4.362,0.173-6.025c-0.799-1.231-2.548-2.57-6.263-1.922c-6.177,1.101-15.398,7.408-17.817,12.979       c-0.842,0.475-1.685,0.777-2.462,0.669c-1.209-0.173-1.879-1.879-3.088-5.118c-1.015-2.743-2.397-6.501-4.967-10.626       c-3.455-5.529-8.401-7.343-11.748-6.695c-2.203,0.432-3.758,1.9-4.103,3.952c-0.518,2.894,1.101,6.782,2.548,10.215       c0.475,1.166,0.95,2.268,1.253,3.175c2.743,8.055,1.209,15.355-0.259,22.417c-1.836,8.768-3.715,17.839,3.002,27.6       c3.607,5.226,8.941,7.969,15.463,7.969c0.389,0,0.777,0,1.166-0.022c11.036-0.54,24.08-8.919,29.717-19.07       c0.82-1.49,1.577-3.347,2.181-5.421c0.022,0,0.022-0.022,0.043-0.022C369.92,228.636,374.628,224.014,372.663,220.17z        M367.739,210.797c0.691,1.145-0.13,2.743-0.95,3.909c0,0.022-0.022,0.022-0.022,0.043c-0.691,0.972-1.62,1.944-2.656,2.829       c-0.454,0.41-0.929,0.799-1.447,1.188c-2.354,1.749-5.14,3.239-7.667,4.082l-0.043,0.022c-1.987,0.648-3.823,0.907-5.183,0.626       c-1.317-0.259-2.073-0.993-2.376-2.311c-0.13-0.605-0.086-1.252,0.151-1.9c2.808-0.583,6.112-2.116,9.654-4.514       c1.469-1.015,3.779-2.721,5.766-4.751c0.216-0.238,0.454-0.497,0.669-0.734c0.13-0.022,0.281-0.022,0.41-0.022       c0.626,0,1.231,0.065,1.749,0.194C366.659,209.674,367.35,210.106,367.739,210.797z M360.979,200.172       c0.497,0,0.95,0.065,1.361,0.195c0.734,0.259,1.209,0.799,1.49,1.663c0.194,0.648,0.108,1.404-0.216,2.224       c-0.302,0.713-0.777,1.447-1.361,2.224c-0.151,0.173-0.281,0.346-0.432,0.54c-1.015,1.188-2.332,2.419-3.779,3.542       c0,0,0,0.022-0.022,0.022c-0.777,0.648-1.598,1.253-2.44,1.814c-1.944,1.317-3.715,2.268-5.248,2.959       c-1.901,0.821-3.477,1.209-4.73,1.296c-1.015,0.086-1.814-0.065-2.354-0.324c-0.648-0.302-0.993-0.821-1.037-1.555       c-0.086-1.253,0.626-3.196,2.592-5.464c4.168-1.123,8.768-4.168,11.705-6.954c0.281-0.259,0.54-0.518,0.756-0.777       c0.324-0.303,0.605-0.605,0.842-0.907c0.756-0.238,1.49-0.389,2.181-0.454C360.526,200.193,360.763,200.172,360.979,200.172z        M354.846,192.224c1.209-0.194,2.764-0.259,3.347,0.669c0.734,1.08,0.108,2.98-1.577,5.118       c-0.043,0.065-0.086,0.13-0.151,0.195c-0.54,0.669-1.188,1.361-1.922,2.073l-0.065,0.065c-3.52,3.304-7.948,5.723-11.209,6.393       c-1.577,0.346-2.872,0.259-3.671-0.324c-0.713-0.518-0.929-1.145-0.713-2.052c0-0.022,0-0.022,0.022-0.043       c0.389-1.663,2.008-3.736,4.211-5.68C346.488,195.615,351.196,192.872,354.846,192.224z M360.548,235.439       c-5.118,9.222-17.385,17.104-27.341,17.601c-4.211,0.194-10.064-0.799-14.146-6.695c-6.025-8.747-4.319-16.823-2.548-25.397       c1.555-7.429,3.175-15.118,0.173-23.929c-0.346-1.015-0.821-2.16-1.317-3.369c-1.231-2.916-2.743-6.522-2.376-8.595       c0.194-1.08,1.101-1.49,1.836-1.62c0.259-0.043,0.54-0.086,0.821-0.086c2.311,0,5.507,1.62,7.926,5.464       c2.419,3.887,3.693,7.343,4.708,10.107c1.361,3.65,2.419,6.544,5.378,6.976c0.022,0,0.022,0,0.022,0       c0.821,0.108,1.576,0.022,2.311-0.195c0.194,1.209,0.842,2.246,1.922,3.045c0.864,0.604,1.879,0.929,2.98,1.015       c-1.123,1.836-1.663,3.607-1.555,5.226c0.13,1.771,1.058,3.175,2.656,3.931c0.734,0.367,1.577,0.583,2.527,0.627       c-0.108,0.756-0.087,1.512,0.086,2.267c0.54,2.419,2.16,4.017,4.6,4.514c0.561,0.108,1.145,0.173,1.771,0.173       c0.151,0,0.302,0,0.475-0.022c-0.194,0.281-0.367,0.562-0.518,0.842c-1.037,1.987-0.993,3.952,0.108,5.529       c0.929,1.361,2.484,1.922,4.341,1.922s4.017-0.562,6.177-1.468C361.26,234.057,360.915,234.769,360.548,235.439z        M366.249,227.297c-0.734,0.562-1.555,1.123-2.44,1.641c-0.324,0.195-0.648,0.389-0.972,0.54       c-2.98,1.663-5.658,2.419-7.429,2.419c-0.993,0-1.685-0.238-2.008-0.691c-0.302-0.432-0.626-1.188,0.086-2.548       c0.561-1.058,1.598-2.181,2.937-3.239c2.613-0.907,5.291-2.375,7.602-4.103h0.065c1.015-0.346,1.987-0.561,2.894-0.648       c0.302-0.022,0.583-0.043,0.864-0.043c0,0,0.022,0,0.043,0c0.821,0.021,1.857,0.173,2.224,0.864       C370.741,222.74,369.121,225.073,366.249,227.297z"/>
					<path style="fill:#000E3F;" d="M334.252,214.472c-0.749,0.263-1.143,1.083-0.879,1.831c0.045,0.132,4.553,13.251,0.15,23.658       c-0.309,0.73,0.033,1.574,0.764,1.884c0.182,0.077,0.373,0.114,0.56,0.114c0.56,0,1.091-0.33,1.324-0.878       c4.842-11.445,0.117-25.153-0.087-25.731C335.82,214.602,335.005,214.21,334.252,214.472z"/>
				</g>
			</g>
			<g>
				<g>
					<path style="fill:#4217A6;" d="M337.696,250.582c5.474,7.368,0.586,15.123-3.089,21.946c-3.104,5.754-9.863,8.152-14.437,5.07       l-19.473-13.124c-4.564-3.076-4.882-10.253-0.634-15.356c4.436-5.325,8.749-11.137,16.252-11.009       C325.028,238.258,332.519,243.62,337.696,250.582z"/>
					<path style="fill:#915EFD;" d="M170.903,348.347c39.803,17.625,64.398,20.96,63.965,20.838       c19.817,5.681,36.93,3.596,51.186-11.519c4.166-4.178,13.569-17.203,13.443-17.033c8.033-10.941,16.035-22.229,22.545-32.941       c8.841-14.376,16.034-24.842,8.63-39.169c-3.868-7.433-15.508-15.399-23.885-16.218c-16.078-1.614-23.245,9.458-33.083,22.624       c-5.363,7.107-18.695,26.249-23.784,33.722c-3.299,4.844-0.069,5.564-22.97-4.502c-18.018-7.919-39.687-16.93-58.41-22.742       L170.903,348.347z"/>
				</g>
				<path style="fill:#000E3F;" d="M338.843,249.714c-6.155-8.271-14.146-12.893-22.504-13.044      c-7.753-0.151-12.224,5.291-16.565,10.56l-0.821,0.972c-0.885,1.058-1.598,2.224-2.116,3.434      c-9.61,2.678-15.765,10.971-22.612,20.193l-1.663,2.225c-5.183,6.867-18.379,25.786-23.843,33.798      c-0.389,0.562-0.691,1.08-0.95,1.533c-1.123,1.922-1.123,1.9-14.038-3.823c-1.836-0.799-3.887-1.706-6.198-2.721      c-24.08-10.604-43.236-18.055-58.57-22.806c-0.756-0.238-1.555,0.194-1.792,0.95c-0.238,0.756,0.173,1.555,0.95,1.793      c15.204,4.73,34.274,12.137,58.246,22.676c2.332,1.037,4.384,1.944,6.198,2.743c14.405,6.393,15.269,6.76,17.688,2.656      c0.237-0.41,0.497-0.885,0.842-1.404c5.442-7.969,18.595-26.823,23.756-33.669l1.663-2.246      c6.241-8.423,11.576-15.593,19.286-18.53c1.015-0.389,2.073-0.691,3.175-0.928c2.311-0.497,4.838-0.627,7.667-0.346      c7.818,0.778,19.092,8.423,22.741,15.441c0.929,1.793,1.62,3.542,2.095,5.226c0.303,1.101,0.519,2.203,0.648,3.283      c1.123,9.092-3.844,17.169-10.172,27.406l-1.145,1.857c-6.954,11.446-15.657,23.562-22.482,32.827c0,0.022,0,0.022-0.022,0.043      c-0.259,0.389-9.265,12.828-13.303,16.867c-8.833,9.373-19.048,13.973-31.444,13.973c-5.615,0-11.706-0.95-18.292-2.851      c-0.13-0.043-0.238-0.043-0.346-0.065c-1.253-0.173-25.268-3.801-63.429-20.711c-0.734-0.324-1.577,0-1.9,0.734      c-0.324,0.734,0,1.576,0.734,1.9c20.473,9.07,36.822,14.275,46.929,17.061c0.151,0.022,12.375,3.369,16.932,3.715      c0.086,0.065,0.173,0.108,0.281,0.13c6.932,1.987,13.303,2.98,19.221,2.98c13.109,0,23.972-4.903,33.388-14.858      c1.749-1.771,4.578-5.205,8.401-10.237c3.218-4.233,4.6-6.047,5.162-6.997l0.022,0.022c6.846-9.33,15.593-21.51,22.612-33.043      l1.123-1.835c6.911-11.209,12.634-20.452,10.215-31.466c0.475-0.605,0.885-1.253,1.253-1.922l0.734-1.339      c2.289-4.211,4.967-9.114,4.967-14.124C341.564,255.07,340.808,252.37,338.843,249.714z M334.07,270.49l-0.518,0.972      c-0.432-1.166-0.972-2.375-1.598-3.606c-4.103-7.861-16.262-16.133-25.03-16.975c-2.289-0.238-4.427-0.216-6.414,0.022      c0.194-0.302,0.41-0.583,0.648-0.864l0.821-0.972c4.039-4.902,7.861-9.524,14.103-9.524h0.216      c10.042,0.173,16.996,7.537,20.236,11.9C341.111,257.597,337.526,264.162,334.07,270.49z"/>
			</g>
		</g>
		<g>
			<g>
				<path style="fill:#4217A6;" d="M118.516,464.459c-1.258-4.163-1.513-12.139,0.476-19.287c0.675-2.428,2.796-3.625,5.332-3.216      c12.331,1.991,23.417,4.725,34.069,3.966c2.06-0.147,4.075,0.47,6.08,0.397c65.808-2.388,90.701-14.915,108.686-13.176      c15.08,1.459,18.518,15.356,13.161,27.862c-8.081,18.866-33.936,22.674-51.681,25.562c-24.199,3.939-49.088,4.301-73.348,0.656      C146.305,484.972,123.67,481.527,118.516,464.459z"/>
				<path style="fill:#000E3F;" d="M195.538,491.201c-11.609,0-23.118-0.852-34.461-2.556c-15.334-2.304-38.507-5.786-43.936-23.771      l0,0c-1.325-4.384-1.591-12.692,0.466-20.088c0.856-3.076,3.647-4.786,6.947-4.25c2.724,0.441,5.387,0.916,8.001,1.383      c9.055,1.619,17.601,3.152,25.738,2.568c1.227-0.088,2.387,0.059,3.51,0.2c0.918,0.115,1.774,0.221,2.62,0.195      c38.496-1.397,62.611-6.207,80.22-9.718c12.198-2.434,21.008-4.192,28.657-3.452c6.491,0.628,11.425,3.494,14.264,8.286      c3.385,5.716,3.415,13.78,0.078,21.573c-8.217,19.185-33.299,23.254-51.611,26.226l-1.16,0.188      C221.706,490.129,208.559,491.2,195.538,491.201z M123.358,443.313c-1.491,0-2.581,0.805-2.981,2.244      c-1.91,6.868-1.69,14.498-0.485,18.486l0,0c4.906,16.244,26.995,19.563,41.613,21.759c23.768,3.57,48.298,3.349,72.903-0.654      l1.162-0.189c17.654-2.865,41.833-6.788,49.43-24.521c2.977-6.952,3.011-14.045,0.09-18.976      c-2.353-3.971-6.527-6.354-12.069-6.89c-7.218-0.697-15.86,1.025-27.818,3.409c-17.704,3.531-41.95,8.366-80.678,9.772      c-1.059,0.034-2.089-0.09-3.081-0.216c-1.029-0.128-1.996-0.248-2.949-0.184c-8.475,0.601-17.209-0.955-26.447-2.606      c-2.596-0.464-5.244-0.937-7.952-1.374C123.84,443.333,123.593,443.313,123.358,443.313z"/>
			</g>
			<g>
				<g>
					<path style="fill:#FF967F;" d="M227.097,244.669c-2.218,0.308-4.303,0.477-6.112,0.495       c-12.818,0.173-25.689-3.879-36.099-11.366c-7.891-5.657-26.518-19.463-21.227-30.881       c11.303-24.416-2.069-31.487,17.133-41.244c21.23-10.838,43.863-2.405,41.71,12.21c-0.771,5.909,0.623,12.044,3.254,17.63       c2.23,4.786,5.373,9.177,8.843,12.661c4.953,4.981,11.912,12.588,14.321,19.185       C253.821,236.786,238.797,242.953,227.097,244.669z"/>
					<path style="opacity:0.65;fill:#DB5E43;" d="M225.757,191.513c-14.506,5.036-30.696-3.794-37.249-18.049       c-0.72-1.576-1.912-6.205-1.988-10.3c2.694-0.955,5.484-1.71,8.274-2.48c2.398-0.659,4.88-1.068,7.336-1.203       c4.729,1.428,10.406,2.89,15.497,3.439c3.559,2.403,5.6,6.05,4.876,10.963C221.732,179.792,223.126,185.927,225.757,191.513z"/>
				</g>
				<path style="fill:#000E3F;" d="M220.186,246.606c-12.874,0-25.677-4.119-36.138-11.642c-6.834-4.899-27.64-19.814-21.691-32.651      c4.665-10.079,5.018-17.059,5.3-22.666c0.388-7.692,0.667-13.25,12.487-19.255c12.981-6.627,28.368-6.725,37.408-0.235      c4.915,3.528,7.179,8.477,6.374,13.936c-0.677,5.196,0.404,11.016,3.133,16.809c2.099,4.504,5.058,8.741,8.561,12.258      c7.93,7.978,12.724,14.424,14.653,19.707c1.604,4.4,1.356,8.413-0.739,11.928c-4.74,7.949-17.121,10.549-22.225,11.297      c-0.005,0-0.008,0.001-0.011,0.002c-2.299,0.319-4.416,0.49-6.296,0.508C220.728,246.604,220.457,246.606,220.186,246.606z       M227.098,244.669h0.016H227.098z M200.344,158.204c-5.752,0-12.273,1.367-18.897,4.749      c-10.337,5.252-10.544,9.367-10.92,16.839c-0.279,5.546-0.663,13.143-5.563,23.729c-4.948,10.679,14.402,24.55,20.76,29.109      c9.976,7.174,22.187,11.103,34.467,11.103c0.259,0,0.516-0.002,0.777-0.006c1.737-0.017,3.786-0.183,5.93-0.481      c9.778-1.435,17.316-5.145,20.167-9.924c1.631-2.736,1.801-5.922,0.507-9.47c-1.759-4.816-6.465-11.096-13.99-18.666      c-3.734-3.749-6.891-8.268-9.125-13.066c-2.96-6.285-4.129-12.657-3.377-18.422c0.644-4.366-1.205-8.337-5.202-11.206      C212.321,159.94,206.821,158.204,200.344,158.204z"/>
			</g>
			<g>
				<g>
					<path style="fill:#915EFD;" d="M287.121,420.733c-0.272-0.987-0.532-2.023-0.762-3.078       c-17.089-78.198,12.372-211.366-60.223-225.612c0.038,11.053,0.637,36.249-3.186,51.665       c-15.884-13.327-33.296-31.149-53.183-43.512c-13.37-8.312-31.23,5.214-40.811,13.85       c-13.203,11.899-18.727,28.42-18.715,45.933c0.032,45.715,34.32,76.025,12.981,129.459c-8.75,21.918-8.875,37.788-9.003,38.583       c-0.729,5.041,0.051,13.484,4.559,17.925c13.546,13.369,51.361,18.428,70.423,19.208c41.718,1.62,87.02-14.816,96.702-25.419       C291.348,433.767,289.019,427.948,287.121,420.733z"/>
					<g>
						<path style="fill:#4217A6;" d="M240.102,242.024c3.56-10.833,4.112-27.513,1.233-38.656c-0.379-1.434-2.461-1.289-2.63,0.182        c-0.843,7.141-1.728,30.632-1.38,38.091C237.402,243.219,239.609,243.525,240.102,242.024z"/>
						<path style="fill:#4217A6;" d="M207.1,245.175c-11.787-14.101-31.911-28.889-49.64-35.99        c-0.557-0.222-1.218-0.044-1.579,0.468c-0.422,0.6-0.278,1.427,0.322,1.85c50.695,35.852,20.918,14.649,48.965,35.704        C206.504,248.21,208.17,246.455,207.1,245.175z"/>
						<path style="fill:#4217A6;" d="M241.158,389.834c3.995-5.995,7.316-12.447,9.727-19.224c2.426-6.763,4-13.838,4.434-20.963        c0.038-0.631-0.383-1.22-1.019-1.369c-0.712-0.167-1.423,0.275-1.589,0.987c-1.594,6.738-3.695,13.276-6.394,19.549        c-2.714,6.261-5.963,12.275-9.793,17.899c-3.786,5.653-8.148,10.914-12.936,15.77c-4.806,4.845-10.078,9.238-15.722,13.235        c-0.55,0.389-0.759,1.132-0.458,1.759c0.336,0.701,1.177,0.996,1.877,0.659c6.439-3.094,12.4-7.225,17.747-12.028        C232.399,401.314,237.119,395.8,241.158,389.834z"/>
						<path style="fill:#4217A6;" d="M265.367,384.454c-0.643-0.354-1.451-0.12-1.805,0.523c-2.245,4.024-4.682,7.84-7.426,11.409        c-2.756,3.553-5.764,6.891-9.077,9.901c-3.277,3.048-6.852,5.766-10.619,8.215c-3.782,2.435-7.781,4.544-11.969,6.448        l-0.009,0.004c-0.573,0.261-0.92,0.884-0.805,1.532c0.136,0.768,0.869,1.281,1.637,1.145        c4.753-0.841,9.362-2.538,13.661-4.807c4.315-2.256,8.298-5.137,11.893-8.431c3.559-3.332,6.738-7.08,9.318-11.206        c2.592-4.109,4.639-8.569,5.845-13.237C266.157,385.379,265.908,384.751,265.367,384.454z"/>
					</g>
					<path style="opacity:0.25;fill:#000E3F;" d="M285.904,439.732c-9.682,10.604-54.984,27.039-96.702,25.419       c-19.062-0.78-56.877-5.839-70.423-19.209c-4.508-4.441-5.288-12.884-4.559-17.925c0.128-0.795,0.253-16.665,9.003-38.583       c3.623-9.072,5.764-18.441,6.526-28.21c1.516-19.651-3.296-35.168-8.517-50.588c15.943-5.481,23.536,7.818,26.485,15.349       c12.126,31.057,0.966,105.65,27.117,112.071c15.113,3.711,32.537-2.075,47.246-5.268c8.326-1.807,69.44-13.774,67.036,0.666       C288.762,435.573,287.809,437.643,285.904,439.732z"/>
				</g>
				<g>
					<path style="fill:#000E3F;" d="M289.049,422.357c-0.179-0.652-0.36-1.315-0.538-1.99c-0.002-0.005-0.003-0.012-0.005-0.017       c-0.265-0.962-0.519-1.973-0.744-3.002c-5.325-24.369-6.12-54.722-6.891-84.076c-1.712-65.208-3.48-132.636-54.46-142.64       c-0.426-0.083-0.859,0.028-1.191,0.303c-0.332,0.274-0.524,0.682-0.522,1.112l0.022,3.535c0.083,11.25,0.234,31.672-2.646,45.5       c-4.001-3.413-8.077-7.066-12.36-10.903c-12.266-10.989-24.949-22.353-39.187-31.204c-10.455-6.499-25.159-1.655-42.533,14.003       c-12.568,11.327-19.203,27.579-19.19,47c0.014,17.76,5.167,33.343,10.153,48.414c8.174,24.712,15.894,48.053,2.932,80.513       c-5.163,12.934-8.38,26.574-9.058,38.407c-0.014,0.256-0.023,0.428-0.031,0.502c-0.87,6.01,0.315,14.569,4.973,19.154       c13.965,13.783,52.793,18.861,71.375,19.621c1.882,0.073,3.771,0.108,5.671,0.108c39.419,0,82.325-15.237,92.148-25.996       C292.43,434.714,290.788,428.712,289.049,422.357z M284.842,438.766c-8.677,9.505-52.647,26.629-95.58,24.953       c-18.197-0.744-56.133-5.63-69.473-18.796c-4.215-4.15-4.789-12.258-4.149-16.674c0.016-0.094,0.036-0.353,0.059-0.772       c0.661-11.533,3.808-24.853,8.858-37.506c13.351-33.433,5.104-58.368-2.872-82.482c-4.913-14.855-9.994-30.215-10.006-47.513       c-0.014-18.584,6.293-34.098,18.239-44.864c8.776-7.909,20.308-16.082,30.486-16.082c3.024,0,5.928,0.721,8.604,2.385       c14.026,8.72,26.614,19.997,38.787,30.904c4.945,4.432,9.616,8.617,14.232,12.489c0.381,0.318,0.9,0.416,1.367,0.266       c0.473-0.154,0.831-0.539,0.951-1.021c3.501-14.121,3.337-36.48,3.25-48.492l-0.011-1.742       c47.032,10.779,48.753,76.219,50.414,139.528c0.774,29.488,1.573,59.98,6.956,84.612c0.235,1.078,0.5,2.137,0.779,3.146       c0.179,0.682,0.362,1.352,0.543,2.01C287.997,429.403,289.239,433.946,284.842,438.766z"/>
					<path style="fill:#000E3F;" d="M226.351,278.775c0.706-2.516,1.374-4.893,1.65-6.923c0.976-7.201-3.039-13.478-7.524-19.189       c-0.491-0.624-1.393-0.735-2.018-0.243c-0.624,0.49-0.733,1.394-0.243,2.018c4.095,5.214,7.77,10.886,6.937,17.028       c-0.249,1.831-0.861,4.01-1.57,6.532c-2.497,8.886-5.918,21.056,3.267,31.86c0.284,0.335,0.688,0.506,1.095,0.506       c0.329,0,0.661-0.112,0.931-0.342c0.605-0.514,0.678-1.42,0.164-2.026C220.847,298.358,223.898,287.5,226.351,278.775z"/>
					<path style="fill:#000E3F;" d="M241.205,269.723c-0.114-1.439-0.14-2.913-0.167-4.337c-0.109-6.006-0.221-12.216-6.945-16.104       c-0.686-0.398-1.564-0.16-1.963,0.525c-0.398,0.688-0.162,1.566,0.525,1.964c5.317,3.074,5.406,7.983,5.509,13.667       c0.027,1.467,0.055,2.984,0.175,4.511c1.007,12.786,5.754,18.719,16.016,27.182c0.267,0.22,0.591,0.328,0.912,0.328       c0.415,0,0.826-0.178,1.11-0.522c0.505-0.613,0.418-1.518-0.195-2.023C246.382,286.83,242.134,281.544,241.205,269.723z"/>
				</g>
			</g>
		</g>
		<g>
			<path style="fill:#000E3F;" d="M191.234,84.286c-1.944,9.042,7.506,17.151,17.008,16.967c5.259-0.102,10.986-1.607,16.12,0.107     c12.687,4.234,12.346,20.881,25.992,22.682c7.29,0.962,14.596-7.047,3.673-14.567c-2.638-1.816-5.765-2.959-5.323-8.176     c1.098-12.952-9.12-23.775-23.3-22.594c-3.632,0.303-5.973,0.281-8.81-2.452c-6.712-6.465-18.279-4.076-23.292,3.325     C192.239,81.149,191.568,82.731,191.234,84.286z"/>
			<g>
				<g>
					<path style="fill:#FF967F;" d="M161.989,146.872c-7.91-12.816-11.836-27.861-9.368-41.901       c2.454-14.007,12.127-24.531,25.121-29.844c14.747-6.016,30.892-1.108,42.823,8.547c12.908,10.441,20.772,26.048,23.839,42.171       c0.11,0.568,0.205,1.153,0.3,1.721c0.898,5.15,1.356,10.415,1.239,15.503c-0.356,15.984-6.323,30.324-22.263,34.274       c-12.06,2.995-24.127,0.768-34.82-4.87L161.989,146.872z"/>
					<g style="opacity:0.65;">
						<path style="fill:#DB5E43;" d="M209.942,143.993c-3.115-9.746-21.606-5.77-19.648,4.823c1.41,7.62,13.774,7.232,18.045,1.825        C210.203,148.281,210.572,145.964,209.942,143.993z"/>
						<path style="fill:#DB5E43;" d="M245.944,143.069c-5.263,1.676-11.923,0.341-12.927-5.137        c-1.229-6.677,5.651-10.726,11.688-10.366C245.602,132.716,246.06,137.982,245.944,143.069z"/>
					</g>
				</g>
				<g>
					<path style="fill:#000E3F;" d="M246.108,127.245c-0.09-0.555-0.184-1.123-0.292-1.669c-3.38-17.779-12.028-33.057-24.345-43.02       c-13.796-11.165-30.345-14.442-44.273-8.76c-14.083,5.758-23.556,17.03-25.992,30.925c-2.417,13.762,0.978,28.999,9.561,42.905       c0.416,0.676,1.302,0.887,1.977,0.468c0.675-0.416,0.886-1.302,0.468-1.977c-8.213-13.306-11.472-27.83-9.175-40.899       c2.261-12.902,11.099-23.385,24.247-28.76c12.936-5.279,28.407-2.163,41.378,8.334c11.791,9.536,20.076,24.211,23.332,41.329       c0.103,0.524,0.192,1.063,0.295,1.693c0.92,5.273,1.33,10.394,1.22,15.223c-0.511,22.993-11.796,30.588-21.174,32.912       c-11.03,2.738-22.719,1.097-33.802-4.746c-0.702-0.373-1.572-0.102-1.942,0.6c-0.371,0.702-0.101,1.572,0.6,1.941       c8.016,4.227,16.348,6.371,24.567,6.371c3.794,0,7.564-0.457,11.269-1.377c14.629-3.625,22.923-16.282,23.354-35.636       C247.495,138.087,247.071,132.777,246.108,127.245z"/>
					<path style="fill:#000E3F;" d="M220.789,109.853c1.9,4.403,13.058,1.111,13.129-3.247       C234.019,100.409,217.917,103.198,220.789,109.853z"/>
					<path style="fill:#000E3F;" d="M191.362,118.841c2.228,3.746,13.546,1.057,13.007-3.708       C203.553,107.931,188.195,113.515,191.362,118.841z"/>
					<path style="fill:#000E3F;" d="M226.139,150.352c-2.044,1.11-5.278,1.47-8.239-0.858c-0.624-0.492-1.528-0.383-2.019,0.242       c-0.49,0.624-0.382,1.527,0.242,2.018c2.161,1.697,4.442,2.345,6.533,2.345c1.835,0,3.526-0.498,4.856-1.221       c3.081-1.675,4.818-4.642,4.536-7.744c-0.073-0.791-0.752-1.376-1.562-1.301c-0.791,0.073-1.372,0.772-1.3,1.562       C229.362,147.335,228.194,149.235,226.139,150.352z"/>
					<path style="fill:#000E3F;" d="M215.339,122.744c-0.591,0.53-0.639,1.439-0.109,2.029c0.061,0.066,5.974,6.654,7.552,8.953       c0.486,0.707,0.429,1.158,0.344,1.434c-0.214,0.696-1.232,2.121-5.638,3.842c-0.739,0.289-1.106,1.122-0.815,1.862       c0.221,0.568,0.764,0.914,1.338,0.914c0.175,0,0.351-0.032,0.522-0.099c4.34-1.695,6.672-3.498,7.341-5.675       c0.276-0.9,0.376-2.309-0.722-3.906c-1.684-2.452-7.535-8.971-7.783-9.247C216.838,122.261,215.929,122.215,215.339,122.744z"/>
					<path style="fill:#000E3F;" d="M176.592,144.564l-5.163-2.591c-0.706-0.357-1.572-0.069-1.929,0.639       c-0.355,0.709-0.068,1.573,0.641,1.929l5.163,2.591c0.206,0.105,0.426,0.154,0.642,0.154c0.527,0,1.034-0.291,1.286-0.793       C177.589,145.783,177.302,144.919,176.592,144.564z"/>
					<path style="fill:#000E3F;" d="M234.204,120.08c-0.498-2.131-2.629-3.456-4.76-2.958c-2.132,0.498-3.456,2.629-2.958,4.76       c0.498,2.132,2.629,3.456,4.76,2.958C233.377,124.342,234.702,122.211,234.204,120.08z"/>
					<path style="fill:#000E3F;" d="M201.41,124.8c-2.131,0.498-3.456,2.629-2.958,4.76c0.498,2.131,2.629,3.456,4.76,2.958       c2.131-0.498,3.456-2.629,2.958-4.761C205.672,125.627,203.541,124.303,201.41,124.8z"/>
				</g>
			</g>
			<g>
				<path style="fill:#000E3F;" d="M133.325,147.405c-3.415,9.123-8.53,19.241-7.846,29.386      c0.795,11.775,14.113,20.049,25.415,17.035c3.545-0.945,7.408-3.188,10.702-0.596c3.986,3.136,7.282,14.123,18.047,13.379      c9.43-0.652,13.78-8.766,11.516-17.422c-2.317-8.856-11.586-15.421-10.127-24.399c0.484-2.98,1.692-6.007-0.64-8.573      c-4.224-4.648-12.378-2.933-15.097-9.26c-1.83-4.26,0.11-8.568,3.991-10.691c3.838-2.099,8.66-2.425,11.857-5.652      c11.531-11.639-7.589-25.714,21.447-34.955c7.36-2.343,10.934-10.062,10.37-16.836c-1.137-13.657-14.405-22.61-26.98-24.593      c-13.99-2.206-30.362,4.723-39.507,15.263c-2.923,3.368-5.754,6.834-7.853,10.817      C124.108,107.847,142.618,122.583,133.325,147.405z"/>
				<path style="fill:#4217A6;" d="M146.019,137.763c3.457,17.108-5.94,24.473-5.788,32.931c0.12,5.592,3.272,9.744,3.196,9.592      c0.793,1.156-0.703,2.518-1.779,1.611c-4.254-3.586-7.009-9.902-5.147-17.3c2.133-8.013,6.04-9.365,7.268-26.619l0.005-0.071      c0.044-0.625,0.588-1.096,1.213-1.051C145.507,136.893,145.92,137.276,146.019,137.763z"/>
			</g>
			<g>
				<g>
					<path style="fill:#FC09B2;" d="M235.946,80.138c0.025,0.302,0.015,0.575,0.006,0.864c-0.173,5.381-5.742,9.212-9.761,12.004       c-9.748,6.829-19.725,12.01-30.062,15.714c-1.137,0.396-2.275,0.793-3.415,1.158c-4.339,1.409-8.731,2.565-13.207,3.472       c-1.608,0.323-3.234,0.614-4.862,0.89c-7.968,1.302-16.173,1.87-24.671,1.773c-4.474-0.054-9.349,0.277-13.107-2.607       c-0.871-0.666-1.589-1.425-2.169-2.259c-0.449-0.604-0.807-1.264-1.12-1.959c-0.001-0.016-0.02-0.047-0.02-0.047       c-0.195-0.433-0.36-0.884-0.526-1.351c-0.087-0.281-0.172-0.546-0.243-0.829c-0.118-0.471-0.222-0.959-0.325-1.447       c-0.018-0.03-0.021-0.062-0.024-0.094c-0.545-2.967-0.531-6.157-0.639-9.079c-0.208-18.197,5.503-36.89,20.51-48.213       c0.016-0.001,0.046-0.02,0.061-0.037c7.759-10.015,28.419-10.871,39.452-8.753c17.347,3.337,31.222,14.837,38.501,25.99       C233.832,70.649,235.81,75.887,235.946,80.138z"/>
					<path style="opacity:0.5;fill:#FFFFFF;" d="M185.059,46.17c0.254-0.506,0.787-0.784,1.319-0.746       c11.296,0.872,24.176,7.014,29.619,17.01c0.337,0.62,0.109,1.395-0.511,1.733c-0.465,0.253-1.017,0.187-1.406-0.122       C195.357,49.164,183.298,49.68,185.059,46.17z"/>
					<path style="opacity:0.25;fill:#000E3F;" d="M226.784,82.631c0.739,4.38-1.303,8.795-3.92,12.495       c-0.069,0.089-0.136,0.195-0.205,0.284c-22.423,14.707-46.127,20.917-72.681,20.602c-4.482-0.053-9.349,0.281-13.115-2.601       c-4.85-3.676-4.905-10.511-5.033-16.032c-0.013-0.352-0.008-0.691-0.021-1.044c-0.208-18.196,5.493-36.892,20.511-48.202       c1.403,2.026,2.4,4.908,2.845,9.004c0.616,5.813-1.984,12.022-0.689,17.732c4.601,20.192,49.125-9.839,62.653-5.15       C222.555,71.615,225.874,77.162,226.784,82.631z"/>
					<g>
						<path style="fill:#FFBBEC;" d="M154.242,35.684c-0.236-6.569,3.5-13.784,10.935-13.438        c13.432,0.626,20.788,27.286,6.764,31.881C162.012,57.381,154.568,44.792,154.242,35.684z"/>
						<path style="fill:#FFBBEC;" d="M235.946,80.138c0.025,0.302,0.015,0.575,0.006,0.864c-0.173,5.381-5.742,9.212-9.761,12.004        c-9.748,6.829-19.725,12.01-30.062,15.714c-1.137,0.396-2.275,0.793-3.415,1.158c-4.339,1.409-8.731,2.565-13.207,3.472        c-1.608,0.323-3.234,0.614-4.862,0.89c-7.968,1.302-16.173,1.87-24.671,1.773c-4.474-0.054-9.349,0.277-13.107-2.607        c-0.871-0.666-1.589-1.425-2.169-2.259c-0.451-0.62-0.807-1.264-1.12-1.959c-0.001-0.016-0.02-0.047-0.02-0.047        c-0.195-0.433-0.36-0.884-0.526-1.351c-0.087-0.281-0.172-0.546-0.243-0.829c-0.118-0.471-0.222-0.959-0.325-1.447        c-0.018-0.03-0.021-0.062-0.024-0.094c-0.504-2.667-0.557-5.498-0.619-8.04c-0.013-0.352-0.008-0.688-0.02-1.04        c4.208,0.332,8.506,0.192,12.722,0.027c10.316-0.403,21.058-1.48,31.07-4.245c12.919-3.273,25.449-8.18,37.136-14.797        c5.683-3.215,12.246-7.832,17.595-11.998C233.832,70.649,235.81,75.887,235.946,80.138z"/>
					</g>
					<g>
						<path style="fill:#FC09B2;" d="M198.365,98.056c0.763,5.629-3.832,4.666-5.805-0.074c-1.156-2.769-0.433-5.092-0.441-4.93        C192.886,89.964,197.579,93.024,198.365,98.056z"/>
						<path style="fill:#FC09B2;" d="M212.122,86.56c0.931,1.152,1.57,2.575,1.773,4.115c0.435,3.94-1.942,5.237-4.627,1.938        c-2.456-3.151-2.374-8.682,0.604-7.813C209.985,84.834,211.581,85.92,212.122,86.56z"/>
						<path style="fill:#FC09B2;" d="M162.798,102.861c2.106,5.222-2.046,10.938-4.546,4.803c-1.513-3.957,0.593-8.692,2.963-7.068        C161.3,100.654,162.46,102.076,162.798,102.861z"/>
						<path style="fill:#FC09B2;" d="M143.617,111.584c-0.156-0.093-0.296-0.213-0.41-0.342c-0.665-0.756-1.03-1.539-1.322-2.329        c-0.93-2.668-0.588-5.573,0.525-7.392c0.473-0.774,1.485-1.018,2.259-0.544C148.353,103.236,147.316,113.802,143.617,111.584z        "/>
						<path style="fill:#FC09B2;" d="M181.462,103.544c-0.035,3.572-1.904,4.156-3.141,3.251c-0.126-0.145-1.831-1.208-2.579-4.03        c-0.761-2.864,0.24-4.972,0.208-4.807C177.2,94.983,181.408,98.687,181.462,103.544z"/>
						<path style="fill:#FC09B2;" d="M228.298,84.693l-0.007,0.034c-0.232,1.102-1.434,1.731-2.495,1.231        c-1.986-0.951-3.475-3.216-3.956-5.547c-0.284-1.549-0.081-2.674-0.086-2.513C222.307,73.821,229.502,78.958,228.298,84.693z"/>
						<path style="fill:#FC09B2;" d="M172.499,33.729c0.706,2.336,0.596,5.715-1.686,5.132c-1.113-0.283-1.885-2.186-6.314-6.961        c-0.131-0.145-2.311-2.542-2.187-2.396c-0.518-0.608-0.445-1.522,0.163-2.04C164.17,26.021,170.71,28.011,172.499,33.729z"/>
					</g>
				</g>
				<path style="fill:#000E3F;" d="M231.53,64.524c-0.022-0.022-0.043-0.043-0.065-0.065c-6.889-10.496-20.819-22.957-39.37-26.542      c-3.391-0.648-7.473-1.015-11.727-0.993c-1.706-7.861-7.256-15.744-15.118-16.111c-3.196-0.151-6.004,0.929-8.207,3.088      c-2.678,2.656-4.255,6.781-4.255,11.144c0,0.238,0.022,0.454,0.022,0.691c0.086,2.484,0.713,5.356,1.814,8.142      c-1.231,0.929-2.311,1.987-3.239,3.153c-18.573,14.059-21.143,36.844-21.013,49.283v0.086l0.022,1.274      c0,0.129,0,0.258,0.021,0.386c0.243,1.478,0.074,3.097,0.209,4.598c0.397,4.415,1.673,9.03,5.364,11.882      c3.736,2.872,8.423,2.894,12.526,2.894l1.447,0.022h1.814c8.012,0,15.765-0.605,23.108-1.793      c1.641-0.281,3.283-0.583,4.902-0.907c4.492-0.907,8.984-2.095,13.368-3.52c1.123-0.345,2.246-0.734,3.455-1.166      c10.647-3.801,20.581-9.006,30.473-15.938c4.276-2.959,10.107-7.019,10.302-13.087c0.022-0.346,0.022-0.648,0-0.994      C237.232,75.538,235.158,70.031,231.53,64.524z M155.683,35.628c-0.151-3.758,1.166-7.472,3.369-9.675      c1.641-1.62,3.671-2.397,6.047-2.267c6.025,0.281,10.733,6.651,12.353,13.325c0.173,0.756,0.324,1.512,0.432,2.268      c0.022,0.173,0.043,0.367,0.065,0.605c0.324,3.066,0.346,10.647-6.457,12.871c-2.743,0.907-5.399,0.475-7.904-1.274      c-2.246-1.555-4.039-3.952-5.356-6.566c-0.454-0.864-0.842-1.771-1.166-2.678C156.223,39.947,155.748,37.615,155.683,35.628z       M153.113,49.321c0.151-0.108,0.302-0.216,0.389-0.346c0.669-0.864,1.447-1.663,2.332-2.397      c1.512,2.873,3.563,5.486,6.112,7.256c2.16,1.49,4.449,2.246,6.825,2.246c1.188,0,2.397-0.195,3.628-0.583      c6.004-1.965,9.2-7.948,8.444-15.679c3.931,0,7.645,0.346,10.712,0.929c17.061,3.283,30.062,14.491,36.822,24.274      c-5.701,4.362-11.619,8.379-16.349,11.057c-11.317,6.393-23.691,11.338-36.822,14.664c-8.617,2.376-18.379,3.715-30.732,4.19      c-3.995,0.151-7.645,0.281-11.23,0.043C133.288,82.903,136.139,62.149,153.113,49.321z M234.608,80.251      c-0.017,0.311-0.046,0.621-0.086,0.929c-0.647,4.974-5.374,7.997-9.147,10.642c-9.61,6.738-19.35,11.813-29.803,15.571      c-1.101,0.389-2.203,0.756-3.304,1.123c-4.276,1.382-8.66,2.548-13.044,3.434c-1.598,0.302-3.196,0.604-4.816,0.864      c-7.71,1.274-15.917,1.858-24.426,1.771l-1.447-0.022c-3.844,0-7.818-0.022-10.798-2.289c-2.473-1.891-3.405-4.37-3.905-7.268      c-0.398-2.303-0.543-4.692-0.543-7.028c0,0,0-0.108,0-0.108c3.693,0.195,7.451,0.086,11.295-0.065      c12.591-0.497,22.568-1.857,31.358-4.298c13.346-3.369,25.958-8.4,37.49-14.922c5.794-3.277,11.137-7.207,16.494-11.135      C232.763,70.847,234.86,75.717,234.608,80.251z"/>
			</g>
		</g>
		<g>
			<g>
				<g>
					<path style="fill:#FD8A02;" d="M358.898,272.976L387.7,407.664c0.719,3.361-1.423,6.669-4.785,7.388l-189.13,40.443       c-3.361,0.719-6.669-1.424-7.388-4.785l-28.801-134.688c-0.719-3.361,1.423-6.669,4.785-7.388l189.13-40.443       C354.872,267.472,358.18,269.615,358.898,272.976z"/>
					<path style="opacity:0.18;fill:#000E3F;" d="M358.898,272.976L387.7,407.664c0.719,3.361-1.423,6.669-4.785,7.388       l-189.13,40.443c-3.361,0.719-6.669-1.424-7.388-4.785l-4.848-22.671c157.674-18.556,160.146-106.206,156.952-157.066       l13.01-2.782C354.872,267.472,358.18,269.615,358.898,272.976z"/>
					<path style="fill:#FFCF00;" d="M274.824,284.59c1.954,9.138,7.232,33.821,9.188,42.969l-10.565-5.691l-7.313,9.514       l-10.565-5.691l-7.313,9.515c-5.27-24.646-4.001-18.708-9.188-42.969C259.255,287.919,254.314,288.975,274.824,284.59z"/>
				</g>
				<g>
					<path style="fill:#000E3F;" d="M389.105,407.364l-28.802-134.688c-0.427-2.001-1.609-3.716-3.326-4.828       c-1.717-1.111-3.763-1.491-5.766-1.061l-76.687,16.398c0,0-0.001,0-0.001,0l-35.756,7.646c0,0,0,0,0,0l-76.686,16.398       c-4.131,0.883-6.774,4.962-5.89,9.093l28.802,134.688c0.769,3.594,3.954,6.06,7.489,6.06c0.529,0,1.067-0.055,1.605-0.171       l189.129-40.443c2-0.427,3.716-1.609,4.828-3.327C389.156,411.413,389.533,409.365,389.105,407.364z M273.72,286.296       l8.238,38.524l-7.829-4.217c-0.621-0.335-1.392-0.169-1.821,0.39l-6.568,8.545l-9.488-5.112       c-0.619-0.335-1.393-0.168-1.821,0.39l-5.419,7.049l-8.238-38.523L273.72,286.296z M385.631,411.568       c-0.694,1.074-1.767,1.812-3.017,2.079L193.484,454.09c-2.574,0.55-5.13-1.099-5.682-3.68L159,315.722       c-0.267-1.251-0.031-2.531,0.664-3.604c0.694-1.074,1.767-1.812,3.017-2.079l75.281-16.098l8.888,41.563       c0.117,0.548,0.541,0.978,1.088,1.102c0.105,0.023,0.212,0.035,0.317,0.035c0.44,0,0.864-0.203,1.14-0.561l6.568-8.545       l9.488,5.112c0.62,0.335,1.391,0.168,1.821-0.39l6.568-8.545l9.49,5.111c0.494,0.265,1.096,0.222,1.544-0.116       c0.449-0.336,0.66-0.902,0.543-1.45l-8.888-41.563l75.283-16.098c0.335-0.072,0.674-0.107,1.011-0.107       c0.912,0,1.807,0.262,2.592,0.77c1.073,0.695,1.81,1.767,2.078,3.016l28.802,134.689       C386.561,409.215,386.326,410.494,385.631,411.568z"/>
					<path style="fill:#000E3F;" d="M300.821,353.242c-0.603-0.669-1.704-0.433-1.981,0.424l-8.894,27.488       c-0.277,0.857,0.477,1.693,1.357,1.504l7.441-1.591l5.563,26.013c0.79,3.692,4.423,6.046,8.115,5.256       c3.693-0.79,6.046-4.423,5.256-8.116l-5.562-26.013l7.441-1.591c0.881-0.188,1.227-1.259,0.624-1.928L300.821,353.242z"/>
					<path style="fill:#000E3F;" d="M343.424,344.131c-0.603-0.669-1.704-0.433-1.981,0.424l-8.895,27.489       c-0.277,0.857,0.477,1.692,1.358,1.504l7.441-1.591l5.563,26.013c0.79,3.692,4.423,6.046,8.115,5.256       c3.693-0.79,6.046-4.423,5.256-8.116l-5.562-26.013l7.441-1.591c0.88-0.188,1.227-1.259,0.624-1.928L343.424,344.131z"/>
				</g>
			</g>
			<g>
				<g>
					<path style="fill:#FF967F;" d="M270.088,443.618c-2.833-0.833-5.697-1.763-8.575-2.738c5.062,0.949,9.796,1.021,11.028-1.805       c3.003-6.89-13.464-7.051-29.744-14.644c-3.092-1.442-8.054-3.656-7.925-6.722c0.212-5.014,15.411-1.773,17.151-6.318       c2.537-6.628-17.929-9.524-21.308-9.902c-43.325-4.845-50.128,32.858-8.907,55.311c4.107,2.237,24.511,12.11,28.317,9.279       c2.303-1.713,1.116-4.508-0.634-6.022c-2.377-2.056-5.475-3.336-8.367-4.474c0.154,0.048,0.332,0.103,0.495,0.154       c0.003,0.001,0.005,0.002,0.008,0.003l-0.003-0.001c6.144,1.912,18.841,5.661,24.779,4.607c2.795-0.496,4.23-2.88,2.253-5.185       c-1.557-1.815-4.128-2.854-6.367-3.516c6.517,1.255,11.795,1.163,12.434-2.491C275.09,447.056,273.457,444.61,270.088,443.618z       "/>
					<path style="fill:#000E3F;" d="M270.798,442.334c1.345-0.482,2.464-1.315,3.061-2.684c0.608-1.396,0.636-2.704,0.083-3.889       c-1.422-3.042-6.428-4.513-13.357-6.548c-4.972-1.46-11.163-3.278-17.18-6.085l-0.278-0.129       c-2.412-1.123-6.903-3.212-6.817-5.229c0.056-1.338,4.128-1.722,7.099-2.004c4.326-0.408,8.796-0.831,9.958-3.862       c0.514-1.347,0.388-2.716-0.366-3.956c-3.435-5.643-20.221-7.675-22.125-7.888c-19.106-2.133-33.324,3.97-37.093,15.936       c-5.046,16.023,10.095,32.673,27.339,42.066c0.212,0.115,18.612,9.909,26.896,9.908c1.252,0,2.274-0.224,2.966-0.738       c1.163-0.866,1.803-2.035,1.853-3.383c0.053-1.453-0.6-2.817-1.427-3.856c7.074,1.746,12.105,2.323,15.245,1.768       c2.018-0.358,3.561-1.52,4.127-3.106c0.518-1.446,0.14-3.061-1.035-4.43c-0.123-0.144-0.253-0.285-0.389-0.423       c2.077-0.075,3.65-0.505,4.797-1.296c1.073-0.739,1.759-1.813,1.985-3.104c0-0.001,0-0.001,0-0.001       C276.582,446.864,274.884,443.664,270.798,442.334z M273.308,448.906c-0.095,0.546-0.337,0.926-0.784,1.234       c-1.04,0.718-3.613,1.317-9.962,0.094l0,0c-2.387-0.438-19.364-3.674-28.652-10.861c-0.627-0.487-1.528-0.369-2.016,0.257       c-0.485,0.628-0.371,1.531,0.257,2.016c10.543,8.157,29.277,11.356,30.057,11.488l0,0l0,0c2.557,0.794,4.328,1.762,5.358,2.963       c0.348,0.405,0.719,1.01,0.51,1.592c-0.212,0.593-0.948,1.07-1.923,1.243c-3.968,0.704-12.092-0.841-24.118-4.574       c-7.063-2.487-11.102-6.135-11.141-6.171c-0.585-0.535-1.492-0.495-2.03,0.087c-0.536,0.584-0.499,1.491,0.083,2.028       c0.175,0.161,4.411,3.939,11.653,6.62l0,0c2.967,1.167,5.808,2.368,7.952,4.223c0.875,0.756,1.442,1.801,1.413,2.6       c-0.011,0.293-0.095,0.735-0.695,1.182c-2.359,1.763-18.783-5.036-26.772-9.389c-22.497-12.254-29.255-28.255-25.973-38.678       c2.872-9.12,12.964-14.349,27.015-14.349c2.242,0,4.588,0.133,7.017,0.405c6.646,0.744,17.949,3.173,19.99,6.526       c0.295,0.485,0.335,0.913,0.136,1.434c-0.522,1.365-4.58,1.749-7.542,2.029c-4.691,0.444-9.54,0.902-9.702,4.743       c-0.165,3.935,5.035,6.355,8.478,7.956l0.274,0.128c6.214,2.899,12.519,4.751,17.586,6.238       c5.737,1.685,10.691,3.14,11.562,5.006c0.122,0.262,0.243,0.705-0.114,1.524c-0.711,1.631-4.064,1.977-9.445,0.967       c-0.005-0.001-0.01,0.001-0.015,0c-0.004-0.001-0.006-0.003-0.01-0.004c-0.184-0.031-18.515-3.204-28.482-10.917       c-0.629-0.486-1.53-0.369-2.016,0.257c-0.485,0.628-0.371,1.531,0.257,2.016c10.317,7.983,28.157,11.199,29.643,11.456       c3.287,1.112,6.001,1.978,8.527,2.721C272.372,445.789,273.542,447.563,273.308,448.906z"/>
				</g>
				<g>
					<g>
						<path style="fill:#4217A6;" d="M200.915,431.521c-7.313,5.548-15.116,0.738-21.976-2.868        c-5.785-3.046-8.251-9.781-5.215-14.385l12.927-19.604c3.03-4.594,10.203-4.985,15.349-0.788        c5.37,4.382,11.224,8.636,11.172,16.141C213.111,418.73,207.824,426.275,200.915,431.521z"/>
						<path style="fill:#915EFD;" d="M121.085,222.738c-13.42,17.495-26.677,52.542-34.712,80.974        c-8.043,28.459-15.715,56.305,6.943,77.249c4.22,4.124,17.339,13.395,17.168,13.27c11.021,7.923,22.389,15.811,33.166,22.212        c14.464,8.696,25.002,15.784,39.254,8.235c7.394-3.942,15.242-15.662,15.977-24.047c1.452-16.093-9.691-23.149-22.956-32.853        c-7.16-5.291-26.436-18.429-33.96-23.444c-4.877-3.25-5.564-0.013,4.271-23.014c7.738-18.096,16.53-39.855,22.153-58.636        L121.085,222.738z"/>
					</g>
					<path style="fill:#000E3F;" d="M203.887,393.547l-0.972-0.777c-1.08-0.885-2.246-1.577-3.455-2.116       c-2.808-9.567-11.122-15.614-20.43-22.396l-2.246-1.641c-6.973-5.159-25.943-18.109-33.996-23.461       c-0.8-0.558-1.622-1.072-2.451-1.566c-0.838-0.957,0.019-2.96,4.549-13.479c0.777-1.836,1.685-3.887,2.678-6.22       c10.345-24.188,17.601-43.431,22.201-58.786c0.238-0.777-0.194-1.576-0.972-1.793c-0.756-0.238-1.555,0.195-1.771,0.95       c-4.578,15.269-11.813,34.403-22.115,58.483c-0.993,2.333-1.879,4.406-2.656,6.22c-2.894,6.716-4.535,10.517-5.034,12.909       c-8.14-4.061-16.258-5.409-16.676-5.476c-0.786-0.129-1.522,0.406-1.648,1.19c-0.126,0.784,0.407,1.521,1.19,1.647       c0.108,0.017,9.784,1.635,18.281,6.531c0.929,0.561,1.908,1.112,2.786,1.749c0,0,0.022,0,0.022,0.022       c8.012,5.335,26.952,18.271,33.906,23.411l2.268,1.641c8.509,6.155,15.722,11.403,18.724,19.091       c0.41,0.994,0.734,2.052,0.972,3.153c0.497,2.311,0.67,4.837,0.411,7.667c-0.691,7.84-8.228,19.178-15.226,22.914       c-1.793,0.95-3.499,1.641-5.183,2.116c-1.101,0.346-2.203,0.562-3.283,0.691c-9.071,1.231-17.191-3.671-27.514-9.891       l-1.857-1.123c-11.511-6.846-23.713-15.42-33.064-22.136c-0.022-0.022-0.022-0.022-0.043-0.022       c-1.663-1.166-13.217-9.459-16.996-13.152c-22.158-20.474-14.21-48.592-6.522-75.804c7.688-27.212,20.776-62.651,34.468-80.49       c0.475-0.626,0.367-1.533-0.259-2.008c-0.648-0.475-1.555-0.367-2.03,0.259c-13.93,18.163-27.19,53.991-34.943,81.462       c-7.926,28.032-16.111,57.015,7.321,78.676c1.771,1.749,5.248,4.535,10.302,8.293c4.254,3.174,6.09,4.535,7.04,5.097       l-0.022,0.022c9.394,6.738,21.661,15.376,33.28,22.266l1.836,1.123c9.416,5.68,17.45,10.517,26.24,10.517       c1.749,0,3.52-0.194,5.356-0.626c0.605,0.475,1.231,0.864,1.922,1.231l1.339,0.713c4.211,2.246,9.071,4.837,14.038,4.837       c2.721,0,5.464-0.777,8.142-2.807c8.206-6.22,12.764-14.275,12.828-22.633C214.663,402.293,209.178,397.845,203.887,393.547z        M200.042,430.369c-6.112,4.643-12.699,1.123-19.091-2.268l-0.972-0.518c1.166-0.453,2.376-0.993,3.607-1.641       c7.818-4.168,15.96-16.413,16.737-25.181c0.216-2.311,0.173-4.427-0.108-6.414c0.302,0.194,0.604,0.41,0.885,0.648l0.972,0.799       c4.989,4.039,9.697,7.861,9.654,14.211C211.661,420.067,204.383,427.086,200.042,430.369z"/>
				</g>
			</g>
		</g>
	</g>
	<g>
		<g>
			<g>
				<g>
					<path style="fill:#FFBBEC;" d="M506.088,393.752c-0.016,0-0.032,0.016-0.048,0.016c-3.433,1.134-7.137-0.719-8.303-4.151       l-12.71-37.635c-1.15-3.449,0.702-7.169,4.135-8.335c3.449-1.166,7.185,0.687,8.351,4.119l12.694,37.651       C511.373,388.85,509.521,392.586,506.088,393.752z"/>
					<path style="fill:#FFBBEC;" d="M491.095,277.814c0,4.215-3.417,7.632-7.632,7.632h-33.451c-2.108,0-4.008-0.862-5.397-2.235       c-1.373-1.373-2.219-3.289-2.219-5.397c0-0.144,0-0.272,0.016-0.415c0.208-4.024,3.529-7.217,7.6-7.217h33.451       c2.108,0,4.008,0.862,5.397,2.235c1.293,1.277,2.124,3.034,2.22,4.982C491.095,277.542,491.095,277.67,491.095,277.814z"/>
				</g>
				<g style="opacity:0.35;">
					<path style="fill:#FC09B2;" d="M506.04,393.768c-3.433,1.134-7.137-0.719-8.303-4.151l-12.71-37.635       c-1.15-3.449,0.702-7.169,4.135-8.335L506.04,393.768z"/>
					<path style="fill:#FC09B2;" d="M491.095,277.814c0,4.215-3.417,7.632-7.632,7.632h-33.451c-2.108,0-4.008-0.862-5.397-2.235       c-1.373-1.373-2.219-3.289-2.219-5.397c0-0.144,0-0.272,0.016-0.415h48.668C491.095,277.542,491.095,277.67,491.095,277.814z"/>
				</g>
				<path style="fill:#FC09B2;" d="M479.455,405.344c0,7.026-5.684,12.71-12.71,12.71c-2.587,0-4.998-0.766-7.01-2.108      c-3.449-2.267-5.716-6.163-5.716-10.602c0-7.025,5.7-12.726,12.726-12.726c0.271,0,0.543,0.016,0.814,0.032      C474.201,393.065,479.455,398.59,479.455,405.344z"/>
				<path style="opacity:0.25;fill:#000E3F;" d="M479.455,405.344c0,7.026-5.684,12.71-12.71,12.71c-2.587,0-4.998-0.766-7.01-2.108      c12.407-6.115,10.986-16.175,7.824-23.296C474.201,393.065,479.455,398.59,479.455,405.344z"/>
			</g>
			<path style="fill:#000E3F;" d="M511.572,384.951l-12.699-37.643c-1.274-3.714-5.01-5.917-8.768-5.356l-18.595-55.071h11.943     c5.01,0,9.071-4.06,9.071-9.071v-0.475c-0.13-2.268-1.058-4.362-2.656-5.939c-1.728-1.706-3.995-2.656-6.414-2.656H450     c-4.816,0-8.768,3.779-9.027,8.509c-0.022,0.195-0.022,0.367-0.022,0.561c0,2.44,0.95,4.708,2.656,6.414     c1.728,1.706,3.995,2.657,6.393,2.657h15.312v104.354c-7.127,0.734-12.72,6.781-12.72,14.102c0,3.11,1.015,6.069,2.829,8.487     l-28.335,75.415c-0.281,0.756,0.108,1.577,0.842,1.858c0.173,0.065,0.346,0.086,0.518,0.086c0.562,0,1.123-0.345,1.339-0.929     l27.838-74.098c0.432,0.367,0.864,0.691,1.317,0.994c1.922,1.274,4.103,2.03,6.371,2.246v70.362c0,0.777,0.626,1.425,1.425,1.425     c0.799,0,1.447-0.648,1.447-1.425v-70.34c2.916-0.302,5.55-1.468,7.667-3.261l27.838,74.098c0.216,0.583,0.777,0.929,1.361,0.929     c0.151,0,0.324-0.022,0.497-0.086c0.756-0.281,1.123-1.102,0.842-1.858l-28.356-75.436c1.814-2.376,2.851-5.313,2.851-8.466     c0-7.256-5.507-13.325-12.699-14.059V286.882h0.281l18.919,55.978c-3.304,1.857-4.967,5.874-3.715,9.589l12.699,37.621     c1.145,3.347,4.276,5.464,7.624,5.464c0.842,0,1.685-0.13,2.505-0.411c0.022,0,0.022,0,0.043,0c0,0,0,0,0-0.022     c2.03-0.669,3.671-2.116,4.622-4.039C512.112,389.141,512.263,386.981,511.572,384.951z M478.011,405.338     c0,1.836-0.454,3.564-1.231,5.097c-0.518,1.037-1.209,2.008-2.03,2.829c-1.728,1.749-4.017,2.916-6.565,3.239     c-0.475,0.087-0.95,0.108-1.447,0.108c-0.475,0-0.95-0.022-1.425-0.108c-1.706-0.194-3.347-0.799-4.795-1.749     c-0.648-0.432-1.252-0.929-1.792-1.49c-0.842-0.821-1.512-1.771-2.03-2.808c-0.799-1.555-1.231-3.304-1.231-5.118     c0-5.744,4.298-10.474,9.848-11.165c0.454-0.086,0.929-0.108,1.425-0.108c0.238,0,0.475,0,0.734,0.021     c0.238,0.022,0.475,0.043,0.713,0.086C473.756,394.864,478.011,399.637,478.011,405.338z M450,284.009     c-1.641,0-3.196-0.648-4.362-1.814c-1.166-1.166-1.814-2.721-1.814-4.384c0-0.086,0-0.173,0.022-0.346     c0.173-3.283,2.872-5.853,6.155-5.853h33.453c1.663,0,3.218,0.648,4.406,1.836c1.08,1.058,1.706,2.484,1.792,4.103v0.259     c0,3.412-2.764,6.198-6.198,6.198H450z M508.591,389.789c-0.626,1.231-1.663,2.16-2.959,2.592     c-0.022,0.022-0.043,0.022-0.043,0.022c-2.678,0.885-5.593-0.583-6.501-3.239L486.39,351.52c-0.734-2.203,0.13-4.557,1.944-5.853     c0.389-0.281,0.821-0.497,1.296-0.669c0.475-0.151,0.95-0.238,1.425-0.238c0.065-0.022,0.151-0.022,0.216-0.022     c2.138,0,4.147,1.339,4.881,3.477l12.699,37.664C509.282,387.176,509.196,388.558,508.591,389.789z"/>
		</g>
		<g>
			<g>
				<g>
					<path style="fill:#915EFD;" d="M479.167,182.759v3.497c0,4.391-3.545,7.936-7.92,7.936h-9.005       c-2.235,0-4.263-0.926-5.701-2.411c-1.389-1.421-2.235-3.385-2.235-5.525v-3.497c0-4.375,3.545-7.936,7.936-7.936h9.005       C475.622,174.823,479.167,178.384,479.167,182.759z"/>
					<path style="fill:#915EFD;" d="M415.075,209.107v39.407l-16.893,7.904c-3.832,1.804-8.239-0.99-8.239-5.221V206.44       c0-4.231,4.407-7.026,8.239-5.237L415.075,209.107z"/>
				</g>
				<path style="fill:#4217A6;" d="M489.522,196.457v64.897c0,4.557-3.693,8.228-8.25,8.228h-29.09      c-4.298,0-7.818-3.261-8.185-7.451c-0.022-0.259-0.043-0.518-0.043-0.777v-12.461H415.29l-0.117-40.148h28.78v-12.288      c0-4.578,3.671-8.272,8.228-8.272h29.09c2.548,0,4.816,1.166,6.328,2.959C488.809,192.591,489.522,194.427,489.522,196.457z"/>
				<g>
					<path style="fill:#915EFD;" d="M468.187,194.414c0.662,5.795,1.012,11.589,1.252,17.384c0.26,5.795,0.335,11.589,0.374,17.384       c-0.02,5.795-0.08,11.589-0.324,17.384c-0.224,5.795-0.56,11.589-1.21,17.384c-0.096,0.853-0.866,1.468-1.719,1.372       c-0.735-0.082-1.293-0.667-1.372-1.372c-0.65-5.795-0.987-11.589-1.211-17.384c-0.244-5.795-0.303-11.589-0.323-17.384       c0.039-5.795,0.114-11.589,0.374-17.384c0.24-5.795,0.59-11.589,1.252-17.384c0.092-0.803,0.817-1.379,1.62-1.287       C467.589,193.205,468.111,193.752,468.187,194.414z"/>
					<path style="fill:#915EFD;" d="M428.89,217.939c10.58-0.038,10.502,3.26,8.692,3.965c-4.689,1.805-12.773,1.727-17.384-0.079       c-0.688-0.27-1.028-1.046-0.758-1.734C420.095,218.419,426.943,217.955,428.89,217.939z"/>
					<path style="fill:#915EFD;" d="M438.397,237.593c-1.092,2.841-20.55,3.069-18.957-0.998       C420.504,233.879,440.034,233.342,438.397,237.593z"/>
				</g>
				<g style="opacity:0.25;">
					<path style="fill:#000E3F;" d="M479.177,182.765v3.499c0,0.669-0.086,1.317-0.238,1.922h-17.558       c3.628-3.542,6.09-8.293,7.494-13.195c0.022-0.065,0.043-0.108,0.065-0.173h2.311       C475.614,174.818,479.177,178.381,479.177,182.765z"/>
					<path style="fill:#000E3F;" d="M396.233,238.79c-2.06,0.16-4.215,0.447-6.291,0.926v11.48c0,4.232,4.407,7.026,8.239,5.221       l16.893-7.904v-25.34c-0.846,0.367-1.661,0.847-2.379,1.421C405.91,229.992,406.389,237.976,396.233,238.79z"/>
					<path style="fill:#000E3F;" d="M487.609,191.148c-10.968,13.995,0.44,45.894-21.424,53.411       c-8.908,3.063-18.784,8.82-22.199,17.569c0.387,4.19,3.908,7.464,8.203,7.464h29.082c4.559,0,8.257-3.679,8.257-8.239v-64.906       C489.528,194.422,488.806,192.592,487.609,191.148z"/>
				</g>
				<g style="opacity:0.5;">
					<path style="fill:#FFFFFF;" d="M400.54,211.274c3.696,1.451,12.096,6.946,9.031,9.042c-2.71,1.853-17.724-7.244-13.91-9.815       C395.955,210.303,399.467,210.87,400.54,211.274z"/>
				</g>
			</g>
			<path style="fill:#000E3F;" d="M488.701,190.216c-1.857-2.203-4.557-3.455-7.429-3.455h-0.691     c0.022-0.151,0.022-0.324,0.022-0.497v-3.499c0-5.183-4.19-9.373-9.351-9.373h-9.006c-5.162,0-9.373,4.19-9.373,9.373v3.499     c0,0.173,0,0.346,0.022,0.497h-0.713c-5.334,0-9.675,4.341-9.675,9.697v10.863h-27.838l-15.873-7.429     c-2.246-1.037-4.859-0.864-6.954,0.475c-2.095,1.317-3.326,3.606-3.326,6.069v44.769c0,2.484,1.253,4.751,3.347,6.069     c1.166,0.756,2.505,1.145,3.844,1.145c1.058,0,2.095-0.238,3.088-0.691l15.83-7.408h27.881v11.036     c0,0.281,0.022,0.54,0.043,0.907c0.475,4.989,4.6,8.768,9.632,8.768h29.09c5.334,0,9.697-4.341,9.697-9.675v-64.897     C490.969,194.147,490.191,192.009,488.701,190.216z M455.745,186.264v-3.499c0-3.585,2.916-6.501,6.501-6.501h9.006     c3.563,0,6.479,2.916,6.479,6.501v3.499c0,0.173,0,0.324-0.022,0.497h-21.942C455.745,186.609,455.745,186.436,455.745,186.264z      M397.564,255.113c-1.339,0.648-2.916,0.54-4.168-0.259c-1.274-0.799-2.008-2.16-2.008-3.65v-44.769     c0-1.49,0.734-2.851,2.008-3.65c0.712-0.454,1.512-0.691,2.332-0.691c0.626,0,1.253,0.13,1.836,0.41l13.908,6.501l2.16,1.015     v37.578l-2.16,1.015L397.564,255.113z M416.504,247.446v-37.254h26.002v37.254H416.504z M488.096,261.355     c0,3.758-3.067,6.803-6.824,6.803h-29.09c-3.52,0-6.436-2.656-6.76-6.177c-0.022-0.216-0.043-0.41-0.043-0.626v-11.036v-2.873     v-37.254v-2.872v-10.863c0-3.779,3.067-6.825,6.803-6.825h1.317h3.197h20.085h3.196h1.296c2.008,0,3.931,0.886,5.226,2.44     c1.037,1.253,1.598,2.765,1.598,4.384V261.355z"/>
		</g>
	</g>
	<g>
		<path style="fill:#FFBBEC;" d="M83.669,170.441c-0.134,0-0.271-0.019-0.407-0.06c-11.66-3.498-17.974-13.37-21.275-21.396h-46.99    c-6.245,0-11.327-5.08-11.327-11.325v-32.628c0-6.244,5.082-11.325,11.327-11.325h77.77c6.245,0,11.325,5.08,11.325,11.325v32.628    c0,6.244-5.08,11.325-11.325,11.325H80.979c-1.845,14.975,3.43,18.782,3.485,18.819c0.585,0.4,0.801,1.174,0.496,1.813    C84.716,170.128,84.21,170.441,83.669,170.441z"/>
		<g>
			<path style="fill:#000E3F;" d="M92.768,92.271H14.997c-7.037,0-12.762,5.725-12.762,12.762v32.628     c0,7.037,5.725,12.762,12.762,12.762h46.038c3.518,8.146,10.049,17.805,21.814,21.336c0.287,0.086,0.582,0.127,0.874,0.127     c1.15,0,2.262-0.644,2.709-1.735c0.553-1.351,0.099-2.844-1.171-3.547c-0.437-0.379-4.216-4.048-2.997-16.18h10.504     c7.037,0,12.762-5.725,12.762-12.762v-32.628C105.53,97.996,99.805,92.271,92.768,92.271z M102.656,137.66     c0,5.461-4.427,9.888-9.888,9.888H79.721c-2.494,17.383,3.954,21.457,3.954,21.457c-11.432-3.43-17.537-13.317-20.714-21.457     H14.997c-5.461,0-9.888-4.427-9.888-9.888v-32.628c0-5.46,4.427-9.887,9.888-9.887h77.771c5.461,0,9.888,4.427,9.888,9.887     V137.66z"/>
			<path style="fill:#000E3F;" d="M31.724,109.378c0.135,3.253,0.135,5.726-0.135,8.844h-0.033c-1.12,0.102-2.541,0.305-3.661,0.033     h-0.033c-0.541-2.879-0.306-5.794-0.712-8.912c-1.288-0.372-2.947,0.17-4.304-0.101H22.78h-0.033v0.033     c-0.138,6.913,0.201,19.789,0.472,23.617c0.814-0.44,3.49,0.441,4.61-0.203c0.439-2.846-0.069-5.964,0.201-9.081     c1.321-0.305,2.61-0.305,3.932-0.068l0.033,0.035c0.372,2.913,0.069,6.336,0.51,9.351h0.033c1.117-0.102,3.184,0.067,4.743-0.203     l-0.913-23.719C35.01,108.904,32.878,109.005,31.724,109.378z"/>
			<path style="fill:#000E3F;" d="M48.132,109.039c-2.982,0.272-3.523,0.069-4.166,0.17c-3.253,10.843-4.914,22.736-5.187,23.651     c0.036,0.033,0.036,0.033,0.069,0.033c3.084-0.033,4.37,0.136,4.743,0.035c0.036,0,0.069-0.035,0.102-0.035     c0.781-1.49,0.883-4.235,1.493-5.657c1.015,0,0.949-0.137,2.099,0.033c0.61,1.321,1.051,4.067,1.592,5.523h0.036     c1.457,0.305,3.184,0.406,4.538,0.135v-0.035l-2.541-11.858C50.369,118.764,48.54,110.802,48.132,109.039z M44.948,123.236     c0.949-6.945,1.15-11.69,2.505,0C46.606,123.236,45.726,123.271,44.948,123.236z"/>
			<path style="fill:#000E3F;" d="M63.56,110.157c-0.138,5.252-0.069,10.978-0.306,16.399c-0.441,2.068-3.523,2.373-4.169,0.17     c-0.439-5.624-0.541-11.182-0.304-16.636v-0.035c-1.355-0.372-3.388-0.168-4.778-0.168H53.97l0.033,0.033     c0.102,5.963-0.135,12.062-0.135,18.025c0.171,4.167,4.845,5.828,8.674,5.456c3.253-0.305,5.184-2.609,5.556-5.591     c0.646-5.828,0.679-11.757,0.408-17.551C67.422,109.615,64.812,110.055,63.56,110.157z"/>
			<path style="fill:#000E3F;" d="M85.016,128.522c0.033-0.237,0.033-0.509,0.033-0.746c-1.084,0.136-7.893-0.473-8.774-0.203     v-0.033c0.099-5.828-0.204-12.469-0.036-18.332c-1.286-0.542-4.505-0.475-5.421-0.101c0.135,9.521,0.306,13.079-0.102,23.243     v0.611c10.912,0.168,12.437-0.136,13.386-0.034c0.946,0,1.049,0.17,0.88-3.083C84.95,129.471,84.983,128.962,85.016,128.522z"/>
		</g>
	</g>
	<g>
		<path style="fill:#FD8A02;" d="M465.684,118.799l-7.94,7.401c-0.507,0.472-0.749,1.164-0.647,1.849l1.596,10.736    c0.256,1.726-1.577,2.997-3.103,2.15l-9.492-5.264c-0.606-0.336-1.338-0.352-1.959-0.044l-9.718,4.835    c-1.562,0.777-3.337-0.574-3.004-2.287l2.073-10.654c0.133-0.68-0.078-1.382-0.563-1.876l-7.602-7.748    c-1.222-1.245-0.485-3.351,1.247-3.564l10.773-1.32c0.688-0.084,1.29-0.502,1.61-1.116l5.02-9.623    c0.807-1.547,3.037-1.497,3.774,0.084l4.585,9.838c0.292,0.628,0.875,1.072,1.559,1.187l10.703,1.8    C466.318,115.473,466.96,117.609,465.684,118.799z"/>
		<path style="fill:#FD8A02;" d="M73.597,436.698l-7.94,7.401c-0.507,0.472-0.749,1.164-0.647,1.849l1.596,10.736    c0.256,1.726-1.577,2.997-3.103,2.15l-9.492-5.264c-0.606-0.336-1.338-0.352-1.959-0.044l-9.718,4.835    c-1.562,0.777-3.337-0.574-3.004-2.287l2.073-10.654c0.132-0.68-0.078-1.382-0.563-1.876l-7.602-7.748    c-1.222-1.245-0.485-3.351,1.247-3.564l10.774-1.32c0.688-0.084,1.29-0.502,1.61-1.116l5.02-9.623    c0.807-1.547,3.037-1.497,3.774,0.084l4.585,9.838c0.293,0.628,0.875,1.072,1.559,1.187l10.703,1.8    C74.231,433.372,74.873,435.509,73.597,436.698z"/>
		<path style="fill:#FD8A02;" d="M338.822,113.833l-9.263-2.169c-0.591-0.138-1.213,0.023-1.662,0.431l-7.038,6.401    c-1.131,1.029-2.952,0.314-3.08-1.21l-0.8-9.48c-0.051-0.605-0.397-1.146-0.924-1.447l-8.263-4.715    c-1.328-0.758-1.21-2.71,0.199-3.303l8.768-3.69c0.56-0.235,0.968-0.731,1.091-1.326l1.932-9.315    c0.31-1.497,2.203-1.989,3.203-0.832l6.219,7.199c0.397,0.46,0.995,0.694,1.598,0.628l9.456-1.042    c1.52-0.167,2.572,1.481,1.781,2.789l-4.925,8.139c-0.314,0.52-0.353,1.161-0.103,1.714l3.913,8.671    C341.553,112.672,340.311,114.182,338.822,113.833z"/>
		<path style="fill:#FD8A02;" d="M405.695,39.394l-2.968,7.766c-0.189,0.496-0.123,1.053,0.178,1.49l4.715,6.847    c0.758,1.101-0.075,2.592-1.41,2.525l-8.303-0.422c-0.53-0.027-1.039,0.208-1.362,0.63l-5.055,6.6    c-0.812,1.061-2.489,0.73-2.837-0.561l-2.164-8.027c-0.138-0.512-0.52-0.924-1.02-1.101l-7.839-2.768    c-1.26-0.445-1.463-2.142-0.343-2.871l6.965-4.538c0.445-0.29,0.718-0.78,0.732-1.31l0.21-8.311    c0.034-1.336,1.585-2.053,2.624-1.214l6.468,5.222c0.413,0.333,0.964,0.442,1.472,0.291l7.969-2.368    C405.01,36.892,406.171,38.146,405.695,39.394z"/>
		<path style="fill:#FD8A02;" d="M29.139,335.55l-2.968,7.766c-0.189,0.496-0.123,1.053,0.178,1.49l4.715,6.847    c0.758,1.101-0.075,2.592-1.41,2.525l-8.303-0.422c-0.53-0.027-1.039,0.208-1.362,0.63l-5.055,6.599    c-0.812,1.061-2.489,0.73-2.837-0.56l-2.164-8.027c-0.138-0.512-0.519-0.924-1.02-1.101l-7.839-2.768    c-1.26-0.445-1.463-2.142-0.343-2.871l6.965-4.538c0.445-0.29,0.718-0.78,0.732-1.31l0.21-8.31    c0.033-1.336,1.585-2.053,2.624-1.214l6.468,5.222c0.413,0.333,0.964,0.442,1.472,0.291l7.969-2.368    C28.454,333.049,29.615,334.302,29.139,335.55z"/>
	</g>
</g>















</svg>
