<?xml version="1.0" encoding="UTF-8"?>
<!-- Generator: Adobe Illustrator 25.2.3, SVG Export Plug-In . SVG Version: 6.00 Build 0)  -->
<svg xmlns="http://www.w3.org/2000/svg" xmlns:xlink="http://www.w3.org/1999/xlink" version="1.1" id="Capa_1" x="0px" y="0px" viewBox="0 0 512 512" style="enable-background:new 0 0 512 512;" xml:space="preserve" width="512" height="512">
<g>
	<path style="fill:#7C3E25;" d="M357.305,364.43c22.217,2.656,54.648-5.141,26.773,41.465   c-26.593,44.459,51.362-11.573,18.269,43.846c0,0,105.36-61.507,100.488-78.562c-4.872-17.048-44.457,10.352-17.053-38.977   c27.407-49.325,42.023-87.694-0.609-80.393c-42.629,7.31-54.812-84.042,14.008-190.616c0,0-85.872-65.163-254.566-32.277   C75.917,61.804,8.927,229.28,0.4,316.369c-8.524,87.088,122.413-3.043,98.662,53.59c-23.753,56.644-8.527,70.648,47.504,54.205   c55.441-16.272,2.336,66.48,1.239,68.19c1.488-0.659,61.097-27.193,77.931-59.661c13.252-25.531-33.765-21.319-33.13-34.153   l15.772-30.404l121.192,9.131L357.305,364.43z"/>
	<path style="fill:#FFDEC7;" d="M357.305,364.43c-22.604,24.192-50.474,49.921-68.233,51.82   c-34.105,3.649-23.751-26.805-23.751-26.805l-72.715,9.094l-49.088,6.137c0,0-119.975-211.328,86.48-332.522   c0,0,67.599,11.571,87.698,60.293c20.097,48.721-37.15,66.991,29.842,84.046c66.991,17.05-24.361,87.083-12.79,129.715   C338.304,359.37,347.391,363.24,357.305,364.43z"/>
	<path style="fill:#091438;" d="M201.102,225.063l9.088,72.472c0,0-25.065-9.332-27.027,0c-1.967,9.332,36.359,30.952,58.965,12.282   c0,0-11.795-21.313-17.199-8.198c0,0,6.388-3.596,10.317,8.198c0,0-27.658,9.582-46.676-8.198c-12.77-11.947,24.036,0,24.036,0   S215.589,251.092,201.102,225.063z"/>
	<g>
		
			<rect x="258.022" y="235.831" transform="matrix(0.9437 -0.3307 0.3307 0.9437 -63.5666 103.9241)" style="fill:#091438;" width="31.239" height="5.897"/>
		
			<rect x="255.734" y="225.992" transform="matrix(0.8782 -0.4782 0.4782 0.8782 -76.0654 159.1461)" style="fill:#091438;" width="37.487" height="5.896"/>
		<path style="fill:#FFFFFF;" d="M274.477,245.009c0,23.932-11.551,43.325-25.798,43.325c-14.24,0-25.795-19.393-25.795-43.325    c0-23.927,11.554-43.318,25.795-43.318C262.926,201.691,274.477,221.082,274.477,245.009z"/>
		<path style="fill:#091438;" d="M271.531,245.098c-0.152-56.315-46.156-54.64-48.646-0.089    c-0.012-60.051,52.193-58.407,54.539-0.089L271.531,245.098z"/>
		<path style="fill:#091438;" d="M268.211,250.518c0,9.342-6.23,16.911-13.903,16.911c-7.673,0-13.903-7.569-13.903-16.911    c0-9.344,6.23-16.908,13.903-16.908C261.981,233.61,268.211,241.174,268.211,250.518z"/>
	</g>
	<g>
		
			<rect x="144.535" y="233.852" transform="matrix(0.1978 -0.9802 0.9802 0.1978 -124.5545 343.3205)" style="fill:#091438;" width="5.896" height="27.816"/>
		
			<rect x="144.657" y="218.62" transform="matrix(0.3681 -0.9298 0.9298 0.3681 -127.932 287.5797)" style="fill:#091438;" width="5.896" height="38.578"/>
		<path style="fill:#FFFFFF;" d="M192.385,253.359c0,19.317-9.327,34.974-20.826,34.974s-20.826-15.657-20.826-34.974    c0-19.308,9.327-34.964,20.826-34.964S192.385,234.052,192.385,253.359z"/>
		<path style="fill:#091438;" d="M147.786,253.271c1.934-47.243,45.08-48.702,44.599,0.089    c-2.115-43.509-38.971-44.987-38.706,0.089L147.786,253.271z"/>
		<path style="fill:#091438;" d="M192.385,257.03c0,8.184-5.459,14.82-12.19,14.82c-6.727,0-12.183-6.636-12.183-14.82    c0-8.193,5.457-14.821,12.183-14.821C186.926,242.21,192.385,248.837,192.385,257.03z"/>
	</g>
	<path style="fill:#7C3E25;" d="M135.648,204.994c5.174-25.372,32.616-38.718,56.737-32.275   c-18.156,0.787-39.419,13.773-37.341,34.165L135.648,204.994z"/>
	<path style="fill:#7C3E25;" d="M213.407,140.567c25.024-2.512,55.276,10.949,60.236,37.838   c-9.683-20.532-36.337-26.75-56.289-18.752L213.407,140.567z"/>
	<g>
		<path style="fill:#FF6C7E;" d="M281.212,318.346c0,6.064-8.141,10.984-18.182,10.984c-10.04,0-18.179-4.92-18.179-10.984    c0-6.071,8.139-10.987,18.179-10.987C273.071,307.359,281.212,312.275,281.212,318.346z"/>
		<path style="fill:#FF6C7E;" d="M311.111,364.397c-5.062,7.231-15.838,8.422-24.064,2.669c-8.225-5.759-10.789-16.296-5.726-23.527    c5.066-7.228,15.841-8.422,24.064-2.669C313.613,346.629,316.177,357.162,311.111,364.397z"/>
		<path style="fill:#FFFFFF;" d="M248.881,326.625c10.044-2.705,21.687-10.425,21.225-22.046    c22.92,8.867,46.102,45.931,21.684,64.512c-0.267,0.701-2.673,1.375-3.472,1.229L248.881,326.625z"/>
		<path style="fill:#091438;" d="M301.041,334.879c1.246,3.857,2.03,8.128,2.169,12.841c0.973,32.976-34.083,23.059-34.083,23.059    s32.427,7.161,31.165-22.825c-1.268-29.982-29.441-41.562-29.441-41.562c-1.077,26.28-43.42,23.125-43.42,23.125    s39.707,0.401,42.065-26.106C269.497,303.412,293.556,311.737,301.041,334.879"/>
		<path style="fill:#091438;" d="M265.349,307.359c0,0,4.296-4.118,13.76-3.813c0,0-9.563-2.98-14.717,1.08L265.349,307.359z"/>
		<path style="fill:#091438;" d="M264.649,345.184c-0.09,0-0.175,0-0.266,0l0.02-2.435c0.081,0,0.164,0,0.244,0    c21.313,0,22.263-24.557,22.293-25.604l2.435,0.067C289.366,317.493,288.328,345.184,264.649,345.184z"/>
		<polygon style="fill:#091438;" points="294.318,368.785 255.683,324.511 256.974,323.387 295.61,367.661   "/>
		
			<rect x="281.422" y="311.091" transform="matrix(0.685 -0.7286 0.7286 0.685 -156.9731 311.9795)" style="fill:#091438;" width="1.715" height="52.839"/>
		
			<rect x="284.012" y="305.199" transform="matrix(0.6305 -0.7762 0.7762 0.6305 -148.2923 341.7991)" style="fill:#091438;" width="1.714" height="42.925"/>
	</g>
	<g style="opacity:0.1;">
		<path style="fill:#FFFFFF;" d="M283.593,73.982c0,0,73.384,36.542,52.372,98.627c-20.079,59.328,87.7,11.294,46.895,94.881    c0,0,23.646-23.44,9.387-49.094c-14.259-25.656-65.855-18.64-52.041-43.927C356.345,144.934,346.624,92.863,283.593,73.982z"/>
		<path style="fill:#FFFFFF;" d="M361.546,111.132c0,0,22.532,25.883,12.483,65.164c-10.048,39.281,80.085,27.959,33.192,131.063    c-46.893,103.105,68.145,15.068,34.105,74.173c0,0,17.966-17.66,8.83-26.183c-9.135-8.526-50.243,14.005-52.071-7.92    c-1.824-21.925,32.277-55.884,28.016-96.918c-4.263-41.023-48.72-43.458-47.808-64.775    C379.207,164.421,397.173,130.316,361.546,111.132z"/>
		<path style="fill:#FFFFFF;" d="M129.671,135.493c0,0-70.131,100.568-23.303,193.837    C106.368,329.33,40.915,253.635,129.671,135.493z"/>
		<path style="fill:#FFFFFF;" d="M75.309,172.719c0,0-131.546,190.956-15.832,173.088C59.476,345.807-42.231,363.872,75.309,172.719    z"/>
	</g>
	<g>
		<path style="fill:#EA4A0C;" d="M140.294,44.342l93.653,5.318c0,0-18.171,67.879-70.638,69.208    C110.842,120.198,140.294,44.342,140.294,44.342z"/>
		<path style="fill:#EA4A0C;" d="M250.111,48.996l93.648,5.325c0,0-18.167,67.872-70.635,69.204    C220.657,124.855,250.111,48.996,250.111,48.996z"/>
		<path style="fill:#EA4A0C;" d="M244.2,84.588c-2.171-6.009-5.151-9.419-8.854-10.135c-6.792-1.301-15.499,6.469-18.272,9.578    l-3.641-3.238c0.482-0.538,11.899-13.217,22.826-11.125c5.512,1.059,9.725,5.522,12.523,13.264L244.2,84.588z"/>
		
			<rect x="236.196" y="47.28" transform="matrix(0.069 -0.9976 0.9976 0.069 162.4263 293.8231)" style="fill:#EA4A0C;" width="4.871" height="25.219"/>
		
			<rect x="354.978" y="60.374" transform="matrix(0.492 -0.8706 0.8706 0.492 99.6154 361.8227)" style="fill:#EA4A0C;" width="9.743" height="70.355"/>
		<path style="fill:#091438;" d="M253.251,52.366c0,0-13.207,64.83,13.795,66.519c26.999,1.692,52.986-21.249,73.284-61.443    L253.251,52.366z"/>
		<path style="fill:#091438;" d="M224.617,52.366c0,0-19.08,62.928-60.696,63.134c-41.619,0.199-20.098-67.397-20.098-67.397    L224.617,52.366z"/>
		
			<rect x="149.916" y="68.502" transform="matrix(0.9647 -0.2634 0.2634 0.9647 -12.2558 48.0408)" style="fill:#FFFFFF;" width="46.185" height="2.438"/>
		
			<rect x="139.881" y="79.464" transform="matrix(0.947 -0.3211 0.3211 0.947 -16.6958 60.1435)" style="fill:#FFFFFF;" width="68.175" height="2.437"/>
		
			<rect x="266.895" y="95.449" transform="matrix(0.9347 -0.3555 0.3555 0.9347 -15.6169 108.3362)" style="fill:#FFFFFF;" width="40.24" height="2.437"/>
		
			<rect x="253.416" y="79.007" transform="matrix(0.9329 -0.36 0.36 0.9329 -9.3104 110.4641)" style="fill:#FFFFFF;" width="76.909" height="2.434"/>
		
			<rect x="261.168" y="72.08" transform="matrix(0.9202 -0.3914 0.3914 0.9202 -6.4395 115.0037)" style="fill:#FFFFFF;" width="35.42" height="2.435"/>
	</g>
</g>















</svg>
