<?xml version="1.0" encoding="UTF-8"?>
<!-- Generator: Adobe Illustrator 25.4.1, SVG Export Plug-In . SVG Version: 6.00 Build 0)  -->
<svg xmlns="http://www.w3.org/2000/svg" xmlns:xlink="http://www.w3.org/1999/xlink" version="1.1" id="Capa_1" x="0px" y="0px" viewBox="0 0 512 512" style="enable-background:new 0 0 512 512;" xml:space="preserve" width="512" height="512">
<g>
	<g>
		<g>
			<path style="fill:#00D5FE;" d="M296.327,419.181c-2.236,0-4.193-0.837-5.658-2.418c-1.795-1.939-2.686-4.847-2.447-7.981     c1.005-13.136,13.68-20.008,25.68-20.008c1.123,0,2.24,0.059,3.343,0.178c-4.417-10.795-3.045-24.906,10.364-33.189     c4.751-2.937,10.263-4.49,15.942-4.49c6.603,0,13.091,2.108,18.868,6.116c4.474-6.253,11.763-10.072,19.421-10.072     c0.689,0,1.381,0.032,2.069,0.094c4.979-11.679,16.604-19.437,29.329-19.437c9.882,0,19.047,4.481,25.145,12.292     c5.225,6.695,7.499,15.032,6.476,23.372c3.355-1.924,6.864-2.928,10.318-2.928c6.602,0,12.762,3.726,16.077,9.722     c3.315,5.998,3.202,13.081-0.263,19.106c0.267-0.048,0.585-0.116,0.96-0.207c1.344-0.328,2.69-0.492,3.999-0.492     c5.155,0,9.851,2.571,12.883,7.055c3.064,4.53,3.844,10.145,2.036,14.655c-0.077,0.2-0.177,0.417-0.278,0.636     c-2.334,4.938-7.046,7.996-12.302,7.996H296.327z"/>
			<g style="opacity:0.25;">
				<path style="fill:#322BBF;" d="M296.327,417.538c0,0,181.863,0,181.963,0c4.703,0,8.818-2.825,10.811-7.04      c0.086-0.186,0.172-0.372,0.244-0.559c-3.455-4.373-8.789-7.671-14.266-8.861c-10.424-2.28-21.163,0.659-31.658,2.466      c-47.229,8.115-30.009-29.379-65.955-19.715c-7.413,1.992-14.639,4.831-22.252,2.064c-12.331-4.502-9.578-23.156-26.741-28.733      c-10.538,6.509-16.044,19.715-8.416,33.909c-13.277-2.896-29.135,3.972-30.196,17.836      C289.516,413.394,291.839,417.538,296.327,417.538z"/>
			</g>
			<g style="opacity:0.75;">
				<path style="fill:#FFFFFF;" d="M404.37,337.939c3.649-1.692,8.045-2.073,12.169-1.076c4.134,0.97,7.984,3.244,10.88,6.396      c2.906,3.143,4.853,7.174,5.481,11.383c0.654,4.201-0.091,8.567-2.088,12.077c-0.509,0.895-1.647,1.207-2.542,0.698      c-0.656-0.373-0.999-1.085-0.934-1.792l0.008-0.081c0.319-3.417,0.076-6.585-0.826-9.523c-0.899-2.93-2.459-5.587-4.479-7.833      c-2.042-2.226-4.549-4.028-7.395-5.202c-2.852-1.176-6.005-1.713-9.458-1.701h-0.072c-0.969,0.004-1.757-0.78-1.76-1.748      C403.351,338.829,403.769,338.218,404.37,337.939z"/>
				<path style="fill:#FFFFFF;" d="M452.626,368.735c2.559-0.434,5.346,0.231,7.694,1.67c2.351,1.447,4.247,3.67,5.353,6.234      c1.112,2.561,1.435,5.476,0.868,8.192c-0.567,2.709-2.016,5.201-4.101,6.764c-0.845,0.633-2.044,0.462-2.678-0.383      c-0.35-0.466-0.454-1.041-0.336-1.569l0.044-0.192c0.459-1.987,0.662-3.685,0.555-5.322c-0.092-1.625-0.458-3.163-1.061-4.618      c-0.614-1.451-1.466-2.799-2.576-4.014c-1.107-1.235-2.483-2.291-4.247-3.353l-0.145-0.087      c-0.852-0.514-1.127-1.622-0.614-2.475C451.664,369.116,452.129,368.822,452.626,368.735z"/>
			</g>
		</g>
		<path style="fill:#000E3F;" d="M413.239,329.617c19.356,0,34.153,18.152,29.293,37.58c4.323-3.405,8.668-4.845,12.646-4.844    c12.738,0.001,21.697,14.766,13.994,27.025c-0.889,1.413-0.447,1.929,0.738,1.929c0.63,0,1.47-0.146,2.431-0.38    c1.251-0.304,2.456-0.445,3.61-0.445c10.405,0.002,16.583,11.507,13.395,19.458c-0.072,0.186-0.158,0.372-0.244,0.559    c-1.993,4.215-6.108,7.04-10.811,7.04c-0.101,0-181.963,0-181.963,0c-4.487,0-6.811-4.144-6.466-8.631    c0.9-11.763,12.452-18.49,24.042-18.49c2.07,0,4.142,0.215,6.154,0.654c-7.628-14.194-2.122-27.4,8.416-33.909    c4.36-2.696,9.578-4.245,15.079-4.245c6.349,0,13.075,2.064,19.289,6.812c4.101-6.738,11.388-10.767,19-10.767    c1.038,0,2.082,0.075,3.124,0.228C389.294,337.761,400.291,329.617,413.239,329.617 M413.239,326.333    c-12.989,0-24.888,7.686-30.361,19.365c-0.346-0.015-0.692-0.022-1.037-0.022c-7.657,0-14.967,3.568-19.792,9.495    c-5.718-3.634-12.05-5.54-18.496-5.54c-5.984,0-11.795,1.638-16.806,4.736c-6.1,3.768-10.52,9.428-12.443,15.936    c-1.602,5.423-1.428,11.157,0.475,16.841c-0.291-0.008-0.583-0.011-0.876-0.011c-12.756,0-26.235,7.393-27.316,21.524    c-0.275,3.589,0.774,6.951,2.879,9.223c1.784,1.926,4.157,2.944,6.863,2.944H478.29c5.899,0,11.179-3.418,13.78-8.921    c0.128-0.278,0.243-0.531,0.34-0.782c1.992-4.967,1.149-11.169-2.215-16.143c-3.343-4.943-8.535-7.778-14.245-7.779    c-0.687,0-1.382,0.041-2.08,0.123c2.251-5.791,1.874-12.157-1.178-17.68c-3.603-6.52-10.314-10.571-17.514-10.572    c-2.825,0-5.677,0.614-8.455,1.804c0.265-7.761-2.169-15.369-7.046-21.617C433.266,331.043,423.629,326.333,413.239,326.333    L413.239,326.333z"/>
	</g>
	<g>
		<g>
			<path style="fill:#DB5E43;" d="M320.612,185.885c7.355,0.234,11.022,0.701,16.959-1.768c13.446-5.593,15.244-19.68,15.673-20.897     c0.251-0.71,0.981-0.519,1.173-0.187c1.184,2.054,3.351,7.688,9.287,12.471c3.905,3.147,8.306,5.087,13.258,5.647     c3.948,0.446,1.698,2.152,1.552,9.909c-0.37,19.605,0.876,17.312,10.406,29.249c13.575,17.003,16.947,25.854-1.891,34.732     c-1.357,0.639-2.535,0.628-3.932,0.019c-9.588-4.18-20.527-3.109-30.327,1.007c-1.4,0.588-2.888,1.01-4.027,2.114     c-0.498,0.483-0.84-0.011-2.994,1.24c-6.976,4.054-18.693,12.324-31.78,10.585c-8.706-1.157-15.415-6.683-19.735-14.288     c-1.293-2.276-1.018-2.501,0.928-3.48c14.427-7.261,15.619-25.241,10.425-41.447     C300.925,196.244,308.421,185.496,320.612,185.885z"/>
			<g>
				<path style="fill:#322BBF;" d="M263.524,267.464c1.54-4.098,4.163-7.291,8.095-9.331c4.435-2.3,7.342-2.032,12.267-2.535      c11.098-1.135,6.003-4.483,11.443,3.47c6.33,9.252,16.689,14.116,29.15,11.329c17.371-3.886,22.56-15.69,44.553-17.1      c0.651-0.042,1.324-0.082,1.959,0.034c1.697,0.309,6.472,0.216,12.074,2.649c0.993,0.431,1.462,1.093,1.441,2.185      c-0.087,4.555,1.071,12.301,4.124,20.4c1.787,4.74,4.072,9.403,5.25,19.939c1.781,15.939-7.435,28.882-27.665,29.404      c-0.787,0.02-1.578-0.264-2.371-0.296c-6.849-0.277-12.558-3.403-14.111-4.144c-6.4-3.052-13.291-2.392-19.445,1.126      c-7.655,4.377-15.497,6.571-24.18,5.513c-16.614-2.023-21.915-15.701-27.42-20.155c-8.647-6.996-9.461-3.695-9.52-7.646      c-0.025-1.682-0.391-3.312-0.718-4.95c-1.556-7.773-6.656-11.323-6.277-21.486C262.172,272.05,262.373,270.527,263.524,267.464z      "/>
				<path style="fill:#322BBF;" d="M352.401,116.119c-7.637,0.183-19.076-2.723-28.5-9.491c-7.308-5.248-15.261-9.37-25.171-10.872      c-1.877-0.284-3.779-0.083-5.665-0.17c-10.629-0.489-21.954,5.43-28.185,17.568c-3.464,6.749-11.821,12.128-19.355,13.107      c-7.429,0.966-8.384-0.711-14.31-0.403c-26.572,1.383-37.859,24.561-30.371,47.342c1.386,4.218,2.353,7.146,1.008,11.716      c-1.076,3.655-3.481,6.852-9.626,9.386c-14.71,6.067-25.492,18.98-25.571,35.252c-0.064,13.223,6.812,27.424,15.581,36.182      c2.018,2.016,0.553,1.331,8.478,8.126c6.04,5.178,9.997,12.021,9.923,23.883c-0.093,14.895,12.127,30.272,30.746,33.909      c24.237,4.734,45.158-18.174,33.57-41.264c-9.763-19.452,0.134-34.934,15.517-35.407c12.243-0.376,22.558-6.165,25.873-18.106      c1.382-4.976,0.899-6.684,0.99-11.463c0.1-5.273-1.752-11.374-3.09-15.988c-3.053-10.528,0.85-21.488,11.848-24.117      c2.631-0.629,5.3-0.549,8.008-0.279c7.744,0.771,14.703-1.035,20.421-6.641c5.775-5.663,8.287-13.768,8.215-20.492      c-0.005-0.5-0.076-1.03,0.263-1.466c0.251-0.323,0.726-0.258,0.822,0.437c1.298,9.424,8.521,17.989,15.508,21.173      c33.478,15.252,51.424-47.009,5.538-59.706C368.802,116.66,361.051,115.911,352.401,116.119z"/>
			</g>
			<path style="fill:#6280FF;" d="M219.792,186.41c-0.712,5.622-2.663,11.265-5.989,16.151c-3.385,4.86-8.078,8.537-12.453,11.797     c-2.157,1.643-4.245,3.259-5.975,4.974c-1.663,1.753-2.938,3.624-3.652,5.716c-0.18,0.524-0.237,1.098-0.383,1.637     c-0.14,0.541-0.271,1.088-0.285,1.685c-0.139,1.168-0.113,2.312,0.007,3.43c0.256,2.235,1.07,4.336,2.342,6.327     c2.517,4.031,6.667,7.499,10.722,11.266c4.044,3.773,8.259,7.999,11.077,13.331c2.926,5.265,4.049,11.468,3.669,17.262     c-0.396,5.832-1.89,11.382-4.046,16.557l-0.008,0.019c-0.341,0.818-1.28,1.205-2.098,0.864c-0.76-0.317-1.147-1.15-0.925-1.924     c2.946-10.277,3.686-21.413-1.575-29.981c-2.567-4.284-6.221-7.961-10.296-11.52c-3.982-3.64-8.506-7.205-11.93-12.483     c-1.661-2.637-2.867-5.786-3.191-9.017c-0.35-3.234,0.086-6.356,1.083-9.486c1.145-3.107,3.135-5.768,5.323-7.914     c2.224-2.103,4.584-3.727,6.871-5.3c4.528-3.089,8.794-6.047,12.018-10.027c3.281-3.924,5.346-8.778,6.729-13.916l0.008-0.028     c0.217-0.805,1.045-1.281,1.85-1.065C219.424,184.962,219.886,185.673,219.792,186.41z"/>
			<g>
				<path style="fill:#FF8EDE;" d="M305.319,486.968c0.091-0.016,25.181-0.721,58.989-8.584      c22.811-5.306,41.076-12.261,54.189-19.022c7.692-3.966,21.82-12.459,26.487-19.189c4.391-6.33,3.557-14.081-0.139-20.839      c-13.843-25.31-42.197-47.488-82.96-55.169c-0.95-0.179-1.736-0.019-2.202,0.932c-13.398,27.337-104.084,31.208-138.952,11.628      c-13.97-7.843-11.167-13.162-14.392-12.592c-25.153,4.441-46.488,14.991-62.826,29.747      c-11.682,10.55-18.97,21.461-21.977,28.704c-3.162,7.618-1.952,15.082,4.328,20.9c24.243,22.456,71.258,34.973,103.903,39.98      c21.081,3.233,32.86,3.397,40.719,3.976C272.661,487.6,299.163,488.009,305.319,486.968z"/>
				<path style="fill:#FF8EDE;" d="M363.62,343.304c0.365-4.165-0.575-8.634-1.715-13.09c-0.82-3.206-1.946-0.95-12.548-5.853      c-6.388-2.954-12.646-2.321-18.996,1.269c-13.492,7.626-28.605,8.313-40.678-2.047c-7.239-6.212-9.09-13.542-18.958-17.617      c-0.961-0.397-1.349-0.199-1.62,0.755c-0.594,2.09-1.417,15.645-17.886,23.657c-12.005,5.841-28.467,2.282-39.189-7.208      c-1.89-1.673-2.078-2.121-3.475,0.697c-6.173,12.457-5.966,29.622,0.771,41.39c15.233,26.606,100.81,28.706,135.028,11.978      c9.469-4.629,13.593-9.723,16.115-15.788C362.468,356.641,363.931,350.872,363.62,343.304z"/>
			</g>
			<g style="opacity:0.5;">
				<path style="fill:#FC09B2;" d="M207.226,360.94c2.266,5.668,5.577,10.389,13.723,14.898c10.09,5.584,21.837,8.239,33.211,10.063      c27.001,4.33,74.27,2.927,96.911-12.672c2.536-1.747,2.509-2.241,0.051-4.023c-30.02-21.753-85.496,6.422-105.688-33.951      c-0.675-1.349-0.963-2.742-2.325-2.434c-7.307,1.653-18.927-0.712-27.835-7.082c-4.787-3.423-4.947-5.151-6.215-2.839      c-1.938,3.535-3.226,7.312-4.011,11.254C203.099,343.946,204.279,353.568,207.226,360.94z"/>
				<path style="fill:#FC09B2;" d="M283.874,487.699c46.194,0,106.264-10.364,144.404-33.865c2.523-1.555,9.208-6.073,10.28-7.344      c0.272-0.323,0.268-0.687-0.01-0.982c-8.517-9.087-21.351-13.056-33.491-14.699c-21.59-2.92-36.415,2.712-66.611,5.827      c-27.702,2.858-67.032,4.038-92.694-1.313c-31.129-6.49-54.505-36.714-45.827-64.984c1.201-3.913,2.178-5.305,0.785-5.093      c-6.288,0.959-20.403,5.166-33.494,12.174c-20.257,10.845-34.796,25.51-42.28,38.672c-3.118,5.484-5.114,9.065-5.06,14.41      c0.081,8.063,4.93,13.022,13.457,19.123c37.597,26.9,103.96,38.077,150.54,38.077      C283.874,487.701,283.874,487.7,283.874,487.699z"/>
			</g>
			<g style="opacity:0.25;">
				<path style="fill:#000E3F;" d="M207.508,315.731c-2.772,0.019,8.017,12.938,24.256,16.015      c24.098,4.566,44.404-18.391,33.388-40.923c-10.321-21.112,0.679-35.4,15.282-35.835c20.78-0.619,33.006-15.335,23.877-45.323      c-2.612-8.582-0.146-16.223,3.865-19.972c0.753-0.703,1.862-1.645,0.96-1.944c-4.946-1.636-11.493-1.113-17.436,2.961      c-9.548,6.545-9.67,13.954-11.617,25.395c-3.491,20.52-16.746,10.664-30.682,21.287c-6.701,5.108-7.755,11.791-7.103,19.475      c0.812,9.576,8.912,49.548-11.613,58.142C227.367,316.399,210.071,315.713,207.508,315.731z"/>
				<path style="fill:#000E3F;" d="M301.181,305.246c-7.594-9.571-7.985-23.16-19.47-35.307c-5.45-5.764-11.622-7.465-13.235-8.162      c-0.897-0.388-1.52-0.083-2.088,0.615c-5.879,7.214-5.259,18.773-0.796,27.245c5.529,10.496,1.81,14.161,5.19,15.399      c7.394,2.708,11.46,8.666,14.131,12.195c11.445,15.118,29.767,16.53,45.19,7.473c6.031-3.541,13.055-4.369,19.627-1.237      c1.556,0.742,7.246,3.863,14.107,4.143c1.157,0.047,2.285,0.43,3.462,0.325c2.638-0.236,7.612-0.707,10.046-1.785      c0.482-0.214,0.629-0.602,0.325-1.059c-5.483-8.24-14.165-12.847-23.689-15.096      C338.381,306.313,312.308,319.268,301.181,305.246z"/>
				<path style="fill:#000E3F;" d="M313.525,249.007c-4.58-12.669,10.021-24.408,24.658-18.09c6.11,2.637,10.406,8.682,9.491,15.486      C345.531,262.333,318.889,263.845,313.525,249.007z"/>
			</g>
			<g>
				<path style="fill:#FC09B2;" d="M301.099,337.749c0.686,2.619,1.049,5.238,1.298,7.858c0.27,2.618,0.347,5.238,0.387,7.857      c-0.02,2.618-0.082,5.238-0.335,7.857c-0.232,2.619-0.581,5.238-1.255,7.858c-0.228,0.885-1.13,1.418-2.014,1.189      c-0.603-0.155-1.043-0.626-1.19-1.189c-0.674-2.62-1.023-5.239-1.255-7.858c-0.253-2.619-0.314-5.239-0.336-7.857      c0.041-2.62,0.118-5.239,0.388-7.857c0.249-2.62,0.612-5.239,1.298-7.858c0.218-0.832,1.069-1.33,1.901-1.112      C300.549,336.784,300.96,337.223,301.099,337.749z"/>
				<path style="fill:#FC09B2;" d="M269.668,337.737c0.706,2.595,1.088,5.194,1.358,7.793c0.289,2.599,0.387,5.199,0.448,7.8      c0,2.602-0.041,5.203-0.274,7.808c-0.247,2.588-0.459,5.227-1.329,7.894l-0.018,0.055c-0.282,0.865-1.212,1.337-2.077,1.055      c-0.589-0.192-0.996-0.687-1.107-1.255c-0.484-2.525-0.966-5.096-1.184-7.707c-0.272-2.598-0.354-5.199-0.395-7.8      c0.02-2.601,0.077-5.203,0.326-7.807c0.228-2.603,0.572-5.208,1.238-7.815c0.213-0.833,1.062-1.337,1.895-1.124      C269.113,336.78,269.525,337.215,269.668,337.737z"/>
				<path style="fill:#FC09B2;" d="M333.838,339.494c0.69,2.146,1.038,4.293,1.308,6.439c0.248,2.146,0.368,4.293,0.378,6.439      c0.01,2.146-0.094,4.293-0.326,6.439c-0.252,2.145-0.586,4.292-1.265,6.438c-0.28,0.885-1.224,1.376-2.108,1.096      c-0.539-0.17-0.934-0.596-1.095-1.096c-0.679-2.146-1.013-4.293-1.265-6.438c-0.232-2.146-0.336-4.293-0.326-6.439      c0.01-2.146,0.13-4.293,0.378-6.439c0.27-2.146,0.618-4.293,1.308-6.439c0.268-0.831,1.16-1.289,1.991-1.021      C333.317,338.634,333.685,339.03,333.838,339.494z"/>
				<path style="fill:#FC09B2;" d="M237.147,339.494c0.691,2.128,1.038,4.257,1.308,6.385c0.249,2.128,0.369,4.256,0.379,6.385      c0.011,2.128-0.093,4.257-0.326,6.387c-0.112,1.066-0.293,2.13-0.478,3.203c-0.12,0.541-0.216,1.068-0.365,1.646      c-0.147,0.634-0.343,1.097-0.534,1.605l-0.024,0.066c-0.323,0.859-1.281,1.295-2.14,0.972c-0.539-0.201-0.913-0.663-1.037-1.183      l-0.364-1.583c-0.12-0.486-0.213-1.023-0.326-1.547c-0.176-1.056-0.355-2.119-0.465-3.182c-0.231-2.126-0.336-4.255-0.326-6.383      c0.009-2.128,0.129-4.256,0.377-6.385c0.269-2.128,0.617-4.257,1.308-6.386c0.27-0.831,1.163-1.288,1.995-1.018      C236.628,338.639,236.994,339.033,237.147,339.494z"/>
				<path style="fill:#FC09B2;" d="M172.419,386.662c8.724,3.716,17.541,7.171,26.572,9.974c8.986,2.919,18.116,5.369,27.349,7.293      c18.454,3.912,37.279,5.857,56.109,5.889c18.83-0.053,37.652-2.013,56.097-5.942c9.229-1.931,18.356-4.384,27.336-7.313      c4.51-1.407,8.964-2.992,13.397-4.644c4.41-1.707,8.803-3.474,13.159-5.344c0.813-0.351,1.757,0.023,2.108,0.836      c0.335,0.774,0.003,1.672-0.731,2.058c-8.514,4.437-17.358,8.249-26.37,11.619c-9.043,3.286-18.28,6.058-27.647,8.326      c-9.364,2.287-18.884,3.948-28.463,5.09c-9.588,1.088-19.234,1.613-28.886,1.697c-9.651-0.095-19.297-0.624-28.882-1.726      c-9.579-1.145-19.094-2.822-28.454-5.113c-9.363-2.275-18.597-5.051-27.635-8.347c-9.007-3.375-17.845-7.194-26.353-11.633      c-0.738-0.385-1.024-1.296-0.639-2.034C170.851,386.648,171.703,386.36,172.419,386.662z"/>
				<path style="fill:#FC09B2;" d="M137.529,413.84c11.049,6.4,22.327,12.382,34.037,17.389      c11.648,5.128,23.611,9.512,35.814,13.026c12.214,3.453,24.59,6.38,37.16,8.107c12.554,1.787,25.222,2.66,37.894,2.702      c12.672-0.061,25.338-0.931,37.89-2.728c12.568-1.73,24.938-4.678,37.148-8.133c12.199-3.521,24.158-7.908,35.798-13.045      c11.705-5.01,22.976-10.997,34.019-17.4l0.01-0.006c0.766-0.445,1.746-0.183,2.19,0.583c0.428,0.738,0.197,1.677-0.504,2.142      c-10.77,7.099-22.056,13.452-33.723,19.034c-11.701,5.513-23.785,10.244-36.152,14.128      c-24.733,7.837-50.718,11.536-76.676,11.806c-25.957-0.295-51.938-3.998-76.661-11.857c-12.361-3.89-24.441-8.625-36.135-14.146      c-11.663-5.587-22.941-11.945-33.705-19.047c-0.695-0.459-0.886-1.393-0.428-2.088c0.442-0.668,1.324-0.871,2.009-0.476      L137.529,413.84z"/>
			</g>
		</g>
		<g>
			<path style="fill:#000E3F;" d="M363.46,362.28c-0.602-0.101-0.759-0.237-0.8-0.308c-0.141-0.249,0.18-1.06,0.551-1.997     c0.963-2.436,2.757-6.967,2.635-15.203c-0.118-7.958-1.025-11.905-1.46-13.801c-0.107-0.467-0.209-0.91-0.222-1.124     c0.161,0.002,0.46,0.027,0.753,0.055c1.622,0.16,4.998,0.497,11.554-1.233c7.429-1.962,13.129-6.342,16.486-12.67     c4.417-8.325,4.432-19.339,0.044-31.852c-0.422-1.204-0.855-2.398-1.287-3.587c-1.933-5.33-3.759-10.362-4.532-15.957     c-0.958-6.942-0.905-6.966,1.87-8.254c1.513-0.7,3.8-1.761,7.014-4.337c5.788-4.64,7.654-9.482,5.708-14.803     c-3.142-8.585-10.93-18.169-15.292-23.117c-3.299-3.746-5.042-5.904-5.495-10.282c-0.764-7.395-0.254-16.798,0.448-20.285     c0.219-1.089,0.219-1.089,1.273-1.269c11.114-1.885,19.56-11.54,21.518-24.598c1.799-11.996-2.292-29.117-19.74-37.884     c-7.799-3.919-17.985-6.105-27.239-5.868c-17.93,0.474-25.279-4.45-33.053-9.66c-5.362-3.594-10.906-7.312-20.185-9.608     c-12.872-3.184-24.998-0.528-33.269,7.284c-4.334,4.095-5.831,6.853-7.153,9.288c-1.412,2.601-2.632,4.85-6.982,8.165     c-7.363,5.615-14.002,5.226-21.035,4.818c-8.077-0.476-16.434-0.959-26.595,7.432c-11.854,9.785-15.806,27.132-9.835,43.164     c2.043,5.487,1.791,12.627-5.045,16.212c-0.731,0.383-1.562,0.762-2.489,1.187c-2.99,1.367-7.084,3.24-12.098,7.195     c-13.28,10.476-18.137,26.855-12.994,43.816c4.741,15.633,15.344,25.51,22.362,32.048c2.624,2.443,4.696,4.375,5.512,5.788     c3.81,6.604,3.937,11.494,4.061,16.223c0.152,5.83,0.309,11.862,7.264,20.924l0.251,0.33c0.356,0.47,0.725,0.959,1.14,1.402     c0.738,0.795,0.565,1.196-0.379,2.969c-1.066,2.003-2.852,5.358-4.018,12.13c-1.557,9.036-0.756,18.092,2.317,26.187     c0.204,0.536,0.209,0.714,0.178,0.77c-0.128,0.228-1.223,0.433-2.609,0.691c-1.486,0.278-3.523,0.658-6.422,1.372     c-23.68,5.848-46.2,18.931-61.788,35.894c-8.696,9.464-14.045,19.387-15.519,23.75c-2.83,8.381-0.532,16.123,6.644,22.394     c26.397,23.058,72.169,33.964,97.102,38.411c21.181,3.778,41.879,5.423,61.636,5.423c74.313,0,135.273-23.283,158.216-43.96     c5.327-4.8,7.619-9.345,7.666-15.193C450.28,411.829,414.639,370.86,363.46,362.28z M202.563,174.412     c-4.554-12.919-3.306-25.614,3.42-34.824c5.799-7.94,15.165-12.434,25.827-12.434c0.376,0,0.754,0.007,1.134,0.018     c1.034,0.03,2.155,0.126,3.342,0.23c4.399,0.376,9.873,0.85,15.75-1.663c9.376-4.01,12.324-9.031,15.175-13.888     c2.808-4.785,5.462-9.304,14.036-12.83c17.278-7.108,34.491,3.234,41.091,8.008c10.856,7.855,22.324,10.385,29.452,10.177     c16.383-0.52,28.997,2.716,37.499,9.658c12.669,10.348,14.352,26.993,9.464,38.085c-4.397,9.981-12.693,15.209-22.196,13.962     c-10.895-1.418-19.797-10.645-21.651-22.438c-0.19-1.215-1.022-1.689-1.74-1.625c-0.785,0.078-1.554,0.821-1.502,2.09     c0.045,1.119-0.098,2.204-0.249,3.354l-0.116,0.909c-0.816,6.859-3.368,12.261-7.801,16.515     c-6.679,6.411-13.239,6.242-19.59,6.082c-6.781-0.169-13.191-0.337-18.738,7.607c-3.471,4.975-4.143,12.001-1.842,19.277     c4.318,13.659,4.003,24.48-0.937,32.164c-5.786,8.999-13.408,9.954-20.78,10.879c-7.7,0.966-14.973,1.878-19.512,11.545     c-3.403,7.244-2.853,16.984,1.401,24.812c3.777,6.951,4.587,14.655,2.281,21.692c-2.381,7.263-7.84,13.079-15.789,16.818     c-13.341,6.281-34.975,0.793-44.691-17.112c-3.21-5.918-3.356-9.826-3.525-14.35c-0.112-3.011-0.229-6.123-1.269-10.13     c-2.081-8.013-6.071-11.511-10.693-15.562c-2.107-1.846-4.287-3.756-6.543-6.285c-19.003-21.303-20.524-45.349-3.875-61.258     c4.747-4.539,8.914-6.442,12.591-8.122c2.499-1.142,4.658-2.128,6.569-3.735C203.493,187.889,204.991,181.301,202.563,174.412z      M331.221,322.778c-0.633,0.312-1.289,0.65-1.974,1.005c-4.526,2.336-10.159,5.244-18.418,5.374     c-0.175,0.004-0.347,0.004-0.52,0.004c-14.903,0-22.607-10.127-26.767-15.597c-0.803-1.055-1.496-1.967-2.104-2.637     c-3.041-3.355-7.743-6.242-9.776-6.836c-1.073-0.312-1.223-1.249-1.485-3.53c-0.293-2.548-0.737-6.399-3.457-11.476     c-4.203-7.846-4.547-17.142-0.876-23.684c2.766-4.927,7.543-7.823,13.454-8.152c5.769-0.324,8.764-1.134,10.374-1.568     c0.622-0.167,1.034-0.28,1.35-0.28c0.622,0,0.872,0.431,1.617,1.711c4.417,7.591,10.701,12.591,18.171,14.46     c8.886,2.228,19.185-0.064,29.791-6.613c12.504-7.721,26.214-14.035,41.751-7.985c0.723,0.282,0.806,0.67,0.791,1.016     c-0.033,0.825,0.076,1.629,0.181,2.406c0.061,0.442,0.12,0.884,0.153,1.329c0.637,8.6,2.843,14.288,4.789,19.308     c0.892,2.299,1.734,4.471,2.358,6.739c5.234,19.033-0.463,28.588-6.166,33.253c-9.214,7.534-23.628,6.631-33.102,1.846     C344.695,319.505,337.922,319.476,331.221,322.778z M382.363,253.389c-10.488-3.931-22.698-2.548-35.318,4.009     c-2.007,1.042-3.976,2.233-5.88,3.382c-2.992,1.809-6.087,3.678-9.368,4.997c-13.15,5.292-23.116,4.082-31.364-3.805     c-1.858-1.777-3.502-3.958-4.885-6.486c-0.155-0.283-0.302-0.524-0.43-0.732c-0.196-0.321-0.398-0.65-0.368-0.763     c0.07-0.253,1.053-0.77,1.377-0.939c8.206-4.314,13.215-13.095,13.398-23.491c0.157-8.87-1.381-14.247-2.617-18.568     c-1.285-4.489-2.299-8.036-0.819-13.518c1.739-6.445,6.653-10.248,13.48-10.433c0.137-0.003,0.277-0.005,0.419-0.005     c0.931,0,1.966,0.075,3.054,0.153c4.237,0.299,9.516,0.684,15.943-2.345c10.624-5.012,13.469-14.23,14.684-18.165     c0.157-0.51,0.317-1.03,0.446-1.36c0.124,0.203,0.277,0.472,0.454,0.78c1.204,2.106,3.712,6.492,8.072,10.066     c5.793,4.747,10.192,5.496,12.82,5.943c2.238,0.38,2.587,0.529,2.444,1.748c-0.705,5.962-0.844,12.369-0.414,19.04     c0.256,3.975,1.56,7.411,3.876,10.211c0.496,0.6,1.077,1.29,1.721,2.055c5.619,6.672,17.312,20.556,15.871,27.492     c-0.819,3.938-5.163,7.853-12.557,11.319c-1.209,0.551-2.157,0.169-3.355-0.315C382.826,253.569,382.599,253.478,382.363,253.389     z M209.404,324.619c0.665-1.119,1.02-1.176,1.046-1.176c0.001,0,0.002,0,0.002,0c0.309,0.21,0.738,0.563,1.281,1.012     c2.997,2.475,10.016,8.27,22.322,9.777c17.339,2.124,33.199-9.446,36.095-26.342c0.085-0.495,0.144-0.648,0.134-0.665     c0.082-0.002,0.307,0.052,0.685,0.191c4.832,1.778,8.05,5.764,11.457,9.986c1.511,1.873,3.075,3.81,4.783,5.519     c10.445,10.449,25.809,12.595,40.094,5.586c0.653-0.321,1.327-0.672,2.024-1.035c4.997-2.609,11.215-5.859,19.235-2.101     c5.399,2.528,8.33,3.236,10.081,3.658c1.613,0.39,1.798,0.46,2.019,1.244c4.865,17.262-0.19,33.308-7.416,39.641v0.002     c-5.749,5.037-23.916,16.732-68.628,16.825l0.003-0.018h-0.538c-9.897,0-59.935-1.021-73.101-21.162     C201.578,351.177,206.099,330.175,209.404,324.619z M206.756,365.372c0.274,0,0.39,0.18,0.703,0.789     c0.105,0.205,0.22,0.43,0.362,0.665c8.106,13.505,31.381,18.881,44.533,20.884c13.993,2.131,36.704,3.446,58.481,0.752     c17.045-2.108,39.385-7.491,49.013-21.171c0.195-0.278,0.331-0.595,0.462-0.901c0.244-0.572,0.414-0.923,0.723-0.998     c1.915-0.494,45.098,7.244,72.207,39.201c4.576,5.394,12.554,16.431,13.436,23.582c0.913,7.415-2.153,11.654-7.758,16.474     c-14.526,12.486-33.031,19.764-47.53,24.71c-101.094,34.493-213.283,11.027-255.402-19.172     c-9.787-7.019-14.954-13.954-14.942-20.056c0.029-14.487,30.037-55.11,85.529-64.74     C206.641,365.379,206.702,365.372,206.756,365.372z"/>
			<path style="fill:#000E3F;" d="M367.204,196.558c-5.088-4.097-19.941-6.846-31.219,5.348c-1.205,1.303-0.723,2.286-0.546,2.555     c0.298,0.458,0.814,0.723,1.336,0.723c0.165,0,0.331-0.027,0.49-0.082c0.418-0.144,0.853-0.599,1.572-1.354     c2.168-2.274,6.678-7.003,15.913-7.204c5.735-0.121,8.726,1.803,10.505,2.956c1.248,0.807,2.327,1.509,3.221,0.225     C368.764,199.313,369.217,198.178,367.204,196.558z"/>
			<path style="fill:#000E3F;" d="M352.978,288.141c2.168-2.274,6.678-7.003,15.913-7.204c5.751-0.109,8.727,1.803,10.505,2.956     c1.247,0.806,2.326,1.508,3.221,0.225c0.288-0.412,0.741-1.547-1.271-3.167c-5.089-4.097-19.942-6.846-31.219,5.348     c-1.205,1.303-0.723,2.286-0.546,2.555c0.298,0.458,0.814,0.723,1.336,0.723c0.165,0,0.331-0.027,0.49-0.082     C351.825,289.351,352.259,288.896,352.978,288.141z"/>
			<path style="fill:#000E3F;" d="M365.018,211.206c-0.573-0.251-1.203-0.13-1.688,0.326c-0.487,0.458-0.678,1.073-0.918,1.853     c-0.332,1.074-0.788,2.548-2.284,4.615c-2.274,3.138-6.036,3.906-9.146,1.867c-3.157-2.069-4.295-5.44-5.049-7.671     c-0.206-0.609-0.384-1.135-0.573-1.563c-0.357-0.806-1.175-1.203-1.946-0.948c-0.72,0.24-1.309,1.076-1.002,2.4     c0.991,4.289,3.167,7.789,6.467,10.401c1.303,1.032,4.08,2.001,5.729,2.001c0.006,0,0.013,0,0.019,0h0.012     c6.84-0.201,11.245-8.008,11.267-12.024C365.907,211.943,365.551,211.437,365.018,211.206z"/>
		</g>
	</g>
	<g>
		<g>
			<g>
				<path style="fill:#FF8EDE;" d="M85.261,231.608c-7.571,0-15.628-2.645-22.106-7.257c-3.241-2.309-6.389-6.429-6.113-10.43      c0.121-1.743,0.976-4.192,4.363-5.957c1.43-0.745,2.837-1.345,4.196-1.79c-5.878-1.932-16.076-6.102-23.444-13.527      c-2.96-2.984-5.261-8.11-3.32-12.313c1.305-2.828,3.71-4.261,7.145-4.261c0.657,0,1.346,0.052,2.081,0.155      c-8.583-5.843-13.647-12.212-15.061-18.951c-0.533-2.539-0.189-4.759,0.968-6.249c0.978-1.259,2.509-1.968,4.428-2.051      c0.187-0.008,0.376-0.012,0.564-0.012c4.823,0,9.395,2.575,12.42,4.279c0.271,0.153,0.528,0.298,0.769,0.432      c-0.129-0.323-0.273-0.65-0.413-0.973c-0.217-0.493-0.426-0.975-0.588-1.429c-1.709-4.805-3.322-9.973-3.547-15.22      c-0.304-7.106,2.133-16.24,10.001-18.597c0.99-0.297,1.966-0.447,2.898-0.447c5.452,0,9.662,5.055,12.172,14.617      c1.396,5.315,1.674,8.708,1.876,11.186c0.08,0.989,0.15,1.826,0.269,2.605c0.391-0.305,0.784-0.63,1.192-0.968      c1.967-1.625,4.195-3.466,6.998-3.466c0.664,0,1.341,0.105,2.013,0.311c4.322,1.325,4.723,6.935,4.695,9.285      c-0.06,4.906-2.086,9.475-4.104,13.893c1.757-0.747,3.426-1.125,4.962-1.125c5.832,0,8.927,5.356,9.407,10.665      c0.433,4.792-0.429,8.977-1.348,11.877c1.717-1.256,3.469-1.976,5.218-2.144c0.313-0.03,0.619-0.044,0.917-0.044      c4.353,0,7.392,3.059,8.56,8.613c1.204,5.725,0.201,13.632-2.615,20.635c-3.207,7.977-8.212,13.794-14.091,16.379      C93.185,230.841,89.363,231.608,85.261,231.608z"/>
				<g>
					<path style="fill:#FC09B2;" d="M83.483,148.153c-0.544,4.601-3.5,12.114-6.399,15.949c-0.58,0.766-1.811,0.277-1.696-0.687       c0.562-4.581,3.555-12.047,6.5-15.908c0.299-0.392,0.858-0.467,1.25-0.168C83.398,147.538,83.518,147.851,83.483,148.153z"/>
					<path style="fill:#FC09B2;" d="M43.263,157.686c6.247,2.752,14.656,10.937,13.77,10.051c0.679,0.679,0.023,1.83-0.912,1.583       c-4.993-1.33-11.025-6.234-13.941-10.297C41.653,158.29,42.43,157.322,43.263,157.686z"/>
					<path style="fill:#FC09B2;" d="M50.291,186.106c7.503,1.744,16.202,6.568,15.769,6.311c0.828,0.491,0.474,1.769-0.493,1.76       c-5.216-0.055-12.395-3.031-16.098-6.56c-0.356-0.339-0.37-0.904-0.03-1.26C49.801,185.979,50.186,186.108,50.291,186.106z"/>
					<path style="fill:#FC09B2;" d="M65.3,215.901c7.682,0.503,17.055,3.854,16.584,3.67c0.895,0.349,0.757,1.668-0.201,1.817       c-5.069,0.777-12.645-0.929-16.948-3.863c-0.748-0.51-0.341-1.682,0.559-1.625L65.3,215.901z"/>
					<path style="fill:#FC09B2;" d="M91.887,173.713c-0.494,4.548-3.345,12.098-6.258,16.023c-0.311,0.419-0.903,0.506-1.322,0.195       c-0.475-0.353-0.388-0.99-0.373-0.884c0.94-8.255,6.835-16.894,6.356-15.964C90.828,172.364,91.982,172.811,91.887,173.713z"/>
					<path style="fill:#FC09B2;" d="M99.598,213.28c-0.358,0.38-0.957,0.398-1.338,0.04c-0.662-0.623-0.268-1.881,2.505-8.942       c2.828-6.703,3.677-7.804,3.618-7.704c0.252-0.422,0.799-0.56,1.222-0.308C107.126,197.273,104.579,207.996,99.598,213.28z"/>
				</g>
			</g>
			<path style="fill:#000E3F;" d="M125.529,237.509c-0.24-0.283-0.576-0.458-0.946-0.488c-7.877-0.67-15.365-3.904-22.268-9.619     c3.996-3.275,7.34-8.079,9.692-13.931c2.957-7.356,3.961-15.371,2.685-21.442c-1.298-6.178-4.915-9.721-9.924-9.721     c-0.344,0-0.698,0.016-1.049,0.052c-0.971,0.093-1.947,0.333-2.91,0.718c0.643-3.079,0.832-6.166,0.559-9.19     c-0.254-2.819-1.24-5.611-2.705-7.66c-2.468-3.455-6.157-4.909-10.513-4.017c1.549-3.596,2.908-7.474,2.958-11.613     c0.069-5.631-2-9.508-5.679-10.636c-0.803-0.246-1.617-0.371-2.422-0.371c-2.937,0-5.21,1.609-7.069,3.115l-0.001-0.009     c-0.206-2.525-0.488-5.986-1.917-11.424c-3.399-12.942-9.229-15.658-13.521-15.658c-1.067,0-2.176,0.169-3.298,0.506     c-3.97,1.19-7.075,4.099-8.979,8.413c-1.475,3.339-2.19,7.452-2.014,11.579c0.215,5.021,1.636,9.909,3.223,14.482     c-2.932-1.506-7.008-3.19-11.095-3.012c-2.958,0.128-4.606,1.479-5.468,2.589c-1.413,1.817-1.851,4.442-1.232,7.391     c1.286,6.121,5.39,11.939,12.204,17.302c-3.596,0.667-5.388,2.974-6.27,4.884c-2.22,4.808,0.307,10.563,3.597,13.878     c6.24,6.289,14.417,10.298,20.522,12.634c-0.309,0.15-0.618,0.305-0.929,0.467c-3.96,2.064-4.964,4.998-5.109,7.096     c-0.314,4.539,3.136,9.127,6.695,11.663c6.706,4.774,15.058,7.513,22.914,7.513c4.295,0,8.306-0.806,11.921-2.395     c0.885-0.389,1.797-0.891,2.848-1.568c7.579,6.415,15.758,10.034,24.296,10.758l0.14,0.007c0.716,0,1.326-0.56,1.387-1.274     C125.885,238.156,125.77,237.794,125.529,237.509z M58.905,129.229c-0.369,0.052-0.696,0.244-0.92,0.54     c-0.225,0.296-0.322,0.663-0.27,1.032c0.036,0.258,3.662,26.2,13.608,52.574c7.34,19.468,16.258,34.185,26.512,43.756     c-0.642,0.379-1.214,0.677-1.774,0.923c-3.257,1.433-6.891,2.16-10.799,2.16c-7.289,0-15.051-2.552-21.297-6.999     c-2.831-2.015-5.769-5.752-5.531-9.197c0.14-2.019,1.357-3.639,3.617-4.817c1.61-0.839,3.186-1.484,4.685-1.917     c0.494-0.142,0.819-0.568,0.825-1.084c0.006-0.515-0.319-0.964-0.809-1.119c-4.514-1.431-15.853-5.606-23.604-13.416     c-2.716-2.735-4.633-7.306-3.044-10.747c1.072-2.322,2.995-3.452,5.88-3.452c1.063,0,2.23,0.15,3.572,0.46     c0.542,0.125,1.053-0.192,1.206-0.713c0.132-0.449-0.037-0.905-0.434-1.16c-9.173-5.9-14.543-12.313-15.961-19.063     c-0.447-2.131-0.197-3.947,0.706-5.107c0.728-0.939,1.868-1.447,3.39-1.513c0.167-0.009,0.334-0.012,0.501-0.012     c4.456,0,8.835,2.466,11.732,4.099c0.809,0.456,1.508,0.848,2.04,1.091c0.36,0.16,0.779,0.055,1.016-0.244     c0.164-0.207,0.223-0.472,0.162-0.732c-0.191-0.805-0.549-1.625-0.896-2.418c-0.203-0.465-0.402-0.919-0.554-1.347     c-1.672-4.699-3.25-9.745-3.467-14.811c-0.284-6.606,1.905-15.075,9.008-17.201c0.858-0.258,1.698-0.388,2.498-0.388     c6.001,0,9.199,7.383,10.825,13.577c1.364,5.194,1.624,8.382,1.835,10.943c0.11,1.354,0.207,2.525,0.454,3.644     c0.123,0.553,0.852,0.832,1.313,0.508c0.665-0.47,1.327-1.019,1.969-1.549c1.873-1.549,3.809-3.149,6.111-3.149     c0.524,0,1.064,0.084,1.605,0.249c3.423,1.05,3.734,5.9,3.709,7.937c-0.058,4.758-2.143,9.318-4.159,13.726l-0.387,0.85     c-0.014,0.03-0.049,0.125-0.092,0.246c-0.065,0.185-0.156,0.456-0.213,0.556l0.346,0.257l0.156,0.447     c0.004-0.002,0.012-0.004,0.023-0.009c0.002,0,0.003,0,0.005-0.002c0.167-0.062,1.002-0.385,2.106-0.859     c1.604-0.686,3.107-1.035,4.467-1.035c5.661,0,7.704,5.905,8.019,9.396c0.458,5.066-0.604,9.425-1.575,12.19     c-0.12,0.344-0.071,0.707,0.136,1c0.361,0.511,1.122,0.631,1.618,0.221c1.741-1.438,3.495-2.251,5.213-2.414     c4.475-0.415,6.558,2.869,7.479,5.608c3.133,9.327-1.468,27.077-11.291,34.799c-15.445-14.184-25.365-38.989-30.977-57.353     c-6.233-20.402-8.695-37.601-8.718-37.768c-0.052-0.371-0.244-0.698-0.544-0.923C59.634,129.274,59.268,129.178,58.905,129.229z"/>
		</g>
		<g>
			<g>
				<path style="fill:#FF8EDE;" d="M461.923,235.539c6.857-0.12,14.196,2.148,20.137,6.221c2.973,2.039,5.889,5.721,5.702,9.349      c-0.082,1.58-0.817,3.812-3.857,5.465c-1.283,0.697-2.548,1.263-3.772,1.688c5.354,1.657,14.658,5.272,21.449,11.879      c2.728,2.655,4.894,7.262,3.202,11.1c-1.137,2.582-3.292,3.918-6.404,3.973c-0.595,0.011-1.22-0.025-1.887-0.107      c7.867,5.155,12.554,10.844,13.942,16.925c0.523,2.292,0.247,4.307-0.777,5.676c-0.865,1.155-2.241,1.822-3.978,1.928      c-0.17,0.01-0.341,0.017-0.51,0.02c-4.368,0.077-8.55-2.183-11.317-3.678c-0.248-0.134-0.483-0.262-0.704-0.379      c0.122,0.291,0.257,0.585,0.39,0.874c0.204,0.444,0.402,0.876,0.555,1.285c1.625,4.325,3.167,8.98,3.454,13.728      c0.388,6.431-1.674,14.743-8.763,17.003c-0.892,0.284-1.773,0.436-2.617,0.451c-4.938,0.087-8.831-4.425-11.257-13.046      c-1.349-4.792-1.654-7.861-1.877-10.102c-0.089-0.895-0.165-1.652-0.285-2.355c-0.349,0.282-0.701,0.583-1.065,0.895      c-1.755,1.503-3.744,3.206-6.283,3.251c-0.602,0.011-1.216-0.074-1.828-0.25c-3.936-1.132-4.388-6.206-4.4-8.336      c-0.024-4.444,1.738-8.615,3.497-12.648c-1.58,0.704-3.085,1.074-4.476,1.098c-5.282,0.093-8.17-4.709-8.69-9.51      c-0.468-4.333,0.246-8.138,1.032-10.779c-1.536,1.165-3.111,1.845-4.692,2.025c-0.283,0.032-0.559,0.05-0.829,0.055      c-3.942,0.069-6.743-2.653-7.89-7.665c-1.181-5.166-0.399-12.343,2.04-18.731c2.778-7.276,7.218-12.624,12.503-15.059      C454.758,236.359,458.208,235.604,461.923,235.539z"/>
				<g>
					<path style="fill:#FC09B2;" d="M464.86,311.098c0.42-4.176,2.977-11.028,5.542-14.547c0.513-0.703,1.636-0.279,1.547,0.595       c-0.436,4.158-3.028,10.968-5.635,14.512c-0.264,0.359-0.77,0.436-1.129,0.172C464.947,311.654,464.833,311.372,464.86,311.098       z"/>
					<path style="fill:#FC09B2;" d="M501.137,301.825c-5.702-2.393-13.448-9.673-12.632-8.885c-0.626-0.605-0.05-1.657,0.801-1.448       c4.543,1.126,10.085,5.471,12.79,9.105C502.585,301.252,501.897,302.141,501.137,301.825z"/>
					<path style="fill:#FC09B2;" d="M494.319,276.196c-6.824-1.46-14.779-5.692-14.383-5.466c-0.758-0.432-0.458-1.594,0.418-1.602       c4.725-0.033,11.275,2.548,14.684,5.686c0.328,0.302,0.349,0.813,0.047,1.14C494.766,276.303,494.415,276.192,494.319,276.196z       "/>
					<path style="fill:#FC09B2;" d="M480.252,249.447c-6.966-0.334-15.508-3.22-15.079-3.061c-0.816-0.302-0.712-1.498,0.153-1.649       c4.579-0.784,11.468,0.64,15.412,3.229c0.685,0.45,0.335,1.518-0.48,1.481L480.252,249.447z"/>
					<path style="fill:#FC09B2;" d="M456.842,288.081c0.375-4.127,2.838-11.011,5.414-14.612c0.275-0.384,0.809-0.473,1.194-0.198       c0.436,0.312,0.367,0.89,0.352,0.794c-0.72,7.492-5.922,15.41-5.503,14.56C457.822,289.286,456.77,288.899,456.842,288.081z"/>
					<path style="fill:#FC09B2;" d="M449.229,252.367c0.319-0.35,0.861-0.376,1.211-0.057c0.61,0.554,0.273,1.7-2.127,8.139       c-2.455,6.116-3.206,7.127-3.154,7.036c-0.222,0.387-0.715,0.52-1.102,0.298C442.665,266.984,444.802,257.232,449.229,252.367z       "/>
				</g>
			</g>
			<path style="fill:#000E3F;" d="M511.71,301.742c-1.259-5.513-5.048-10.706-11.269-15.448c3.2-0.684,4.773-2.79,5.539-4.528     c1.943-4.409-0.445-9.603-3.487-12.563c-5.727-5.57-13.152-9.065-18.711-11.089c0.248-0.126,0.498-0.258,0.748-0.394     c3.57-1.942,4.438-4.631,4.536-6.545c0.213-4.131-2.994-8.247-6.267-10.492c-6.157-4.223-13.772-6.588-20.898-6.451     c-3.899,0.069-7.524,0.864-10.776,2.363c-0.795,0.367-1.607,0.83-2.535,1.452c-6.966-5.683-14.433-8.828-22.305-9.352     c-0.672,0.011-1.233,0.545-1.279,1.217c-0.047,0.718,0.497,1.342,1.214,1.39h0.001c7.12,0.479,13.932,3.277,20.256,8.316     c-3.553,3.033-6.495,7.431-8.529,12.757c-2.565,6.716-3.347,14.001-2.093,19.487c1.263,5.528,4.546,8.682,9.019,8.682     c0.055,0,0.111-0.002,0.166-0.002c0.313-0.005,0.634-0.027,0.953-0.064c0.857-0.096,1.716-0.321,2.563-0.668     c-0.523,2.778-0.64,5.554-0.347,8.265c0.275,2.557,1.216,5.079,2.58,6.917c1.826,2.464,4.331,3.762,7.255,3.762     c0.058,0,0.117,0,0.175-0.002c0.683-0.013,1.392-0.098,2.119-0.255c-1.334,3.263-2.487,6.775-2.467,10.505     c0.027,5.123,1.975,8.616,5.344,9.585c0.736,0.212,1.493,0.303,2.212,0.299c2.641-0.046,4.663-1.509,6.318-2.892     c0.226,2.279,0.544,5.396,1.911,10.252c3.246,11.534,8.491,14.001,12.38,14.001c0.053,0,0.106-0.002,0.159-0.002     c0.976-0.02,1.981-0.191,2.991-0.513c3.589-1.144,6.364-3.836,8.026-7.785c1.285-3.056,1.869-6.798,1.642-10.54     c-0.272-4.508-1.618-8.883-3.116-12.978c2.539,1.24,5.996,2.641,9.457,2.53c0.189-0.004,0.377-0.011,0.567-0.021     c2.692-0.164,4.173-1.422,4.943-2.448C511.962,306.81,512.319,304.413,511.71,301.742z M492.267,303.804     c-0.001,0-0.001,0-0.002,0c-0.247,0.005-0.476,0.125-0.627,0.324c-0.151,0.2-0.201,0.453-0.139,0.697     c0.186,0.734,0.526,1.475,0.855,2.192c0.19,0.415,0.376,0.82,0.52,1.201c1.588,4.227,3.096,8.769,3.373,13.347     c0.36,5.964-1.481,13.648-7.855,15.681c-0.772,0.246-1.527,0.376-2.245,0.388c-0.038,0-0.078,0.002-0.116,0.002     c-5.333,0-8.306-6.565-9.862-12.094c-1.318-4.681-1.604-7.562-1.834-9.877c-0.121-1.226-0.227-2.284-0.471-3.3     c-0.089-0.364-0.413-0.617-0.798-0.617c-0.004,0-0.007,0-0.01,0c-0.166,0.004-0.323,0.059-0.456,0.157     c-0.597,0.438-1.19,0.946-1.765,1.438c-1.664,1.426-3.386,2.899-5.454,2.935c-0.473,0.004-0.959-0.057-1.444-0.198     c-3.088-0.887-3.444-5.253-3.454-7.089c-0.023-4.303,1.792-8.464,3.548-12.488l0.334-0.768c0.013-0.028,0.045-0.119,0.083-0.235     c0.055-0.166,0.13-0.405,0.179-0.497l-0.361-0.25l-0.187-0.428c-0.012,0.005-0.022,0.011-0.033,0.016l-0.001-0.002     c-0.173,0.07-0.886,0.358-1.859,0.797c-1.435,0.645-2.785,0.984-4.013,1.005c-0.043,0-0.084,0.002-0.127,0.002     c-5,0-6.905-5.23-7.241-8.345c-0.494-4.574,0.397-8.532,1.231-11.048c0.108-0.326,0.056-0.668-0.144-0.941     c-0.204-0.278-0.526-0.431-0.88-0.438c-0.241,0.007-0.467,0.094-0.652,0.255c-1.547,1.324-3.115,2.085-4.661,2.261     c-0.241,0.027-0.478,0.041-0.706,0.046c-3.51,0.05-5.293-2.673-6.111-4.979c-2.978-8.377,0.891-24.477,9.63-31.628     c14.193,12.598,23.56,34.881,28.93,51.411c5.996,18.455,8.471,33.91,8.495,34.064c0.054,0.344,0.241,0.647,0.524,0.853     c0.283,0.205,0.622,0.287,0.968,0.234c0.344-0.055,0.647-0.239,0.852-0.52c0.207-0.282,0.29-0.625,0.236-0.968     c-0.035-0.232-3.76-23.743-13.162-47.416c-6.951-17.495-15.251-30.674-24.678-39.185c0.549-0.337,1.049-0.604,1.539-0.832h-0.001     c2.924-1.347,6.197-2.062,9.729-2.124c6.582-0.16,13.655,2.069,19.375,5.993c2.587,1.773,5.299,5.098,5.138,8.204     c-0.094,1.816-1.163,3.291-3.177,4.385c-1.439,0.782-2.854,1.392-4.205,1.809c-0.464,0.144-0.763,0.551-0.76,1.035     c0.002,0.485,0.316,0.903,0.781,1.042c4.108,1.224,14.434,4.818,21.574,11.766c2.492,2.423,4.295,6.511,2.92,9.637     c-0.928,2.105-2.64,3.149-5.232,3.193c-0.977,0.03-2.016-0.1-3.235-0.358c-0.075-0.014-0.146-0.021-0.224-0.021h-0.001     c-0.426,0.007-0.789,0.296-0.905,0.716c-0.118,0.428,0.051,0.857,0.43,1.092c8.393,5.194,13.352,10.909,14.74,16.985     c0.436,1.91,0.241,3.544-0.551,4.601c-0.637,0.852-1.65,1.326-3.01,1.408c-0.151,0.009-0.302,0.016-0.456,0.018     c-4.057,0.064-8.026-2.09-10.672-3.521c-0.741-0.401-1.379-0.745-1.87-0.957C492.501,303.827,492.392,303.804,492.267,303.804z      M494.664,284.949L494.664,284.949L494.664,284.949L494.664,284.949z"/>
		</g>
	</g>
	<g>
		<g>
			<path style="fill:#00D5FE;" d="M122.508,114.945c-5.259,0-9.97-3.06-12.296-7.981c-0.105-0.226-0.204-0.445-0.29-0.665     c-1.802-4.496-1.022-10.113,2.042-14.641c3.033-4.483,7.729-7.055,12.884-7.055c1.309,0,2.654,0.164,3.998,0.49     c0.376,0.093,0.693,0.16,0.961,0.209c-3.466-6.027-3.578-13.109-0.263-19.106c3.313-5.996,9.474-9.721,16.077-9.721     c3.452,0,6.963,1.002,10.316,2.928c-1.023-8.34,1.252-16.679,6.478-23.373c6.098-7.811,15.262-12.291,25.143-12.291     c12.726,0,24.351,7.758,29.33,19.436c0.689-0.061,1.381-0.093,2.07-0.093c7.657,0,14.945,3.818,19.42,10.07     c5.777-4.007,12.265-6.116,18.868-6.116c5.678,0,11.192,1.553,15.942,4.49c13.408,8.283,14.78,22.394,10.364,33.189     c1.102-0.119,2.22-0.178,3.343-0.178c12,0,24.675,6.871,25.68,20.008c0.24,3.134-0.651,6.042-2.447,7.981     c-1.465,1.581-3.421,2.418-5.658,2.418H122.508z"/>
			<g style="opacity:0.25;">
				<path style="fill:#322BBF;" d="M304.471,113.302c0,0-181.863,0-181.963,0c-4.703,0-8.818-2.825-10.811-7.04      c-0.086-0.186-0.172-0.372-0.244-0.559c3.456-4.373,8.789-7.671,14.267-8.861c10.424-2.28,21.163,0.659,31.658,2.466      c47.229,8.115,30.009-29.379,65.955-19.715c7.413,1.992,14.639,4.831,22.252,2.064c12.331-4.502,9.578-23.156,26.74-28.733      c10.538,6.509,16.044,19.715,8.416,33.909c13.277-2.896,29.135,3.972,30.196,17.836      C311.281,109.158,308.958,113.302,304.471,113.302z"/>
			</g>
			<g style="opacity:0.75;">
				<path style="fill:#FFFFFF;" d="M195.612,37.049c-3.454-0.011-6.607,0.525-9.459,1.702c-2.845,1.173-5.352,2.976-7.394,5.202      c-2.021,2.245-3.58,4.902-4.479,7.832c-0.902,2.938-1.145,6.106-0.826,9.524l0.008,0.079c0.095,1.025-0.658,1.933-1.683,2.029      c-0.752,0.07-1.441-0.318-1.793-0.934c-1.998-3.51-2.743-7.875-2.089-12.076c0.629-4.21,2.575-8.241,5.482-11.384      c2.896-3.152,6.746-5.426,10.88-6.396c4.124-0.996,8.52-0.616,12.169,1.076c0.879,0.408,1.261,1.451,0.854,2.33      c-0.298,0.641-0.932,1.017-1.595,1.016L195.612,37.049z"/>
				<path style="fill:#FFFFFF;" d="M148.655,67.909c-1.764,1.062-3.14,2.118-4.246,3.353c-1.11,1.215-1.962,2.563-2.576,4.014      c-0.603,1.455-0.969,2.994-1.061,4.619c-0.107,1.636,0.096,3.334,0.555,5.321l0.042,0.184c0.237,1.029-0.404,2.056-1.433,2.294      c-0.569,0.131-1.143-0.011-1.578-0.334c-2.085-1.564-3.534-4.056-4.101-6.764c-0.567-2.716-0.244-5.631,0.868-8.192      c1.106-2.563,3.002-4.787,5.353-6.234c2.348-1.439,5.135-2.104,7.694-1.67c0.981,0.167,1.643,1.098,1.476,2.08      c-0.091,0.536-0.41,0.976-0.841,1.238L148.655,67.909z"/>
			</g>
		</g>
		<g>
			<path style="fill:#000E3F;" d="M311.334,113.643c2.104-2.272,3.154-5.634,2.879-9.223c-1.081-14.13-14.56-21.523-27.316-21.523     c-0.293,0-0.585,0.004-0.877,0.012c1.904-5.684,2.078-11.418,0.475-16.841c-1.923-6.508-6.342-12.167-12.444-15.937     c-5.009-3.097-10.821-4.735-16.805-4.735c-6.445,0-12.778,1.905-18.496,5.54c-4.825-5.926-12.135-9.495-19.793-9.495     c-0.345,0-0.691,0.007-1.037,0.022c-5.474-11.679-17.373-19.365-30.361-19.365c-10.391,0-20.027,4.71-26.438,12.923     c-4.877,6.248-7.31,13.856-7.046,21.617c-2.778-1.19-5.629-1.804-8.454-1.804c-7.2,0-13.911,4.05-17.514,10.57     c-3.053,5.524-3.429,11.891-1.179,17.682c-0.699-0.082-1.393-0.123-2.08-0.123c-5.709,0-10.901,2.835-14.244,7.777     c-3.365,4.975-4.208,11.177-2.2,16.187c0.081,0.21,0.195,0.463,0.311,0.714c2.614,5.529,7.894,8.947,13.793,8.947h181.963     C307.177,116.587,309.55,115.569,311.334,113.643z M111.697,106.262c-0.086-0.186-0.172-0.372-0.244-0.559     c-3.188-7.95,2.99-19.458,13.395-19.458c1.154,0,2.358,0.141,3.61,0.445c0.961,0.234,1.801,0.38,2.431,0.38     c1.184,0,1.627-0.515,0.738-1.929c-7.703-12.258,1.256-27.025,13.994-27.025c3.978,0,8.323,1.439,12.646,4.844     c-4.86-19.428,9.936-37.58,29.292-37.58c12.947,0,23.945,8.144,28.274,19.571c1.042-0.153,2.087-0.228,3.124-0.228     c7.612,0,14.899,4.028,19,10.767c6.214-4.748,12.94-6.812,19.289-6.812c5.501,0,10.719,1.549,15.079,4.245     c10.538,6.509,16.044,19.715,8.416,33.909c2.012-0.439,4.084-0.654,6.155-0.654c11.59,0,23.141,6.726,24.042,18.49     c0.344,4.487-1.979,8.631-6.467,8.631c0,0-181.863,0-181.963,0C117.805,113.302,113.689,110.477,111.697,106.262z"/>
			<path style="fill:#000E3F;" d="M170.933,124.844c-0.518-0.741-1.544-0.928-2.287-0.404c-0.744,0.519-0.925,1.543-0.405,2.286     l13.012,18.609c0.32,0.456,0.83,0.702,1.348,0.702c0.324,0,0.653-0.096,0.939-0.298c0.744-0.518,0.925-1.543,0.405-2.286     L170.933,124.844z"/>
			<path style="fill:#000E3F;" d="M127.896,124.844c-0.52-0.741-1.543-0.928-2.287-0.404c-0.744,0.519-0.925,1.543-0.405,2.286     l13.013,18.609c0.32,0.456,0.829,0.702,1.348,0.702c0.324,0,0.653-0.096,0.939-0.298c0.744-0.518,0.925-1.543,0.405-2.286     L127.896,124.844z"/>
			<path style="fill:#000E3F;" d="M157.709,147.443c-0.52-0.741-1.544-0.928-2.287-0.404c-0.744,0.518-0.925,1.543-0.406,2.286     l13.013,18.609c0.32,0.456,0.829,0.702,1.348,0.702c0.324,0,0.653-0.096,0.939-0.298c0.744-0.518,0.925-1.543,0.406-2.286     L157.709,147.443z"/>
			<path style="fill:#000E3F;" d="M215.243,124.844c-0.519-0.741-1.543-0.928-2.286-0.404c-0.744,0.519-0.925,1.543-0.404,2.286     l13.014,18.609c0.319,0.456,0.829,0.702,1.347,0.702c0.324,0,0.653-0.096,0.939-0.298c0.744-0.518,0.925-1.543,0.404-2.286     L215.243,124.844z"/>
			<path style="fill:#000E3F;" d="M202.02,147.443c-0.52-0.741-1.544-0.928-2.287-0.404c-0.744,0.518-0.925,1.543-0.406,2.286     l13.013,18.609c0.32,0.456,0.829,0.702,1.348,0.702c0.324,0,0.653-0.096,0.939-0.298c0.744-0.518,0.925-1.543,0.406-2.286     L202.02,147.443z"/>
			<path style="fill:#000E3F;" d="M259.555,124.844c-0.52-0.741-1.543-0.928-2.287-0.404c-0.744,0.519-0.925,1.543-0.405,2.286     l13.013,18.609c0.32,0.456,0.829,0.702,1.348,0.702c0.324,0,0.653-0.096,0.939-0.298c0.744-0.518,0.925-1.543,0.405-2.286     L259.555,124.844z"/>
			<path style="fill:#000E3F;" d="M246.329,147.443c-0.519-0.741-1.544-0.928-2.286-0.404c-0.744,0.518-0.925,1.543-0.405,2.286     l13.014,18.609c0.319,0.456,0.829,0.702,1.347,0.702c0.324,0,0.653-0.096,0.939-0.298c0.744-0.518,0.925-1.543,0.405-2.286     L246.329,147.443z"/>
			<path style="fill:#000E3F;" d="M316.878,143.453l-13.014-18.609c-0.518-0.741-1.542-0.928-2.286-0.404     c-0.744,0.519-0.925,1.543-0.404,2.286l13.013,18.609c0.319,0.456,0.829,0.702,1.347,0.702c0.324,0,0.653-0.096,0.939-0.298     C317.217,145.221,317.398,144.196,316.878,143.453z"/>
			<path style="fill:#000E3F;" d="M290.642,147.443c-0.518-0.741-1.544-0.928-2.287-0.404c-0.744,0.518-0.925,1.543-0.405,2.286     l13.013,18.609c0.32,0.456,0.829,0.702,1.348,0.702c0.324,0,0.653-0.096,0.939-0.298c0.744-0.518,0.925-1.543,0.405-2.286     L290.642,147.443z"/>
		</g>
	</g>
	<g>
		<path style="fill:#000E3F;" d="M110.963,370.764c-0.415-0.089-0.609-0.144-0.663-0.556c-0.214-2.094-0.829-4.391-2.174-6.191    c-5.385-7.199-13.12-1.666-17.208,3.593l-0.007,0.057c5.704,7.361,10.823,14.808,16.631,22.043    c0.294-0.071,0.497-0.273,0.75-0.463c4.761-3.357,12.841-7.293,9.327-14.138C116.065,371.961,113.565,371.427,110.963,370.764z     M102.045,372.974c-1.515-1.223-2.267-2.965-3.108-3.89c0.378-0.834,1.511-1.531,2.498-2.019c0.796-0.344,1.605-0.399,2.462,0.012    c0.861,0.412,1.06,1.413,1.153,2.145C105.336,371.014,103.449,372.174,102.045,372.974z M108.902,381.876l-0.087,0.018    c-1.479-0.501-2.848-2.935-3.464-4.428c0.877-0.504,1.728-1.242,2.7-1.616c0.645-0.281,1.558-0.264,2.197,0.059    c0.846,0.522,1.688,1.447,1.686,2.45C111.835,380.035,110.092,380.989,108.902,381.876z"/>
		<path style="fill:#000E3F;" d="M134.17,365.126c-0.121-0.256-0.292-0.527-0.445-0.764c-0.998,0.829-8.176,4.581-8.881,5.417    l-0.021-0.034c-3.632-5.877-8.19-12.303-11.772-18.256c-1.628,0.283-4.795,2.413-5.47,3.37c6.231,9.407,8.678,12.846,14.783,23.24    l0.392,0.609c10.984-6.818,12.31-8.097,13.322-8.603c0.948-0.609,1.155-0.504-1.098-3.639    C134.708,366.117,134.416,365.587,134.17,365.126z"/>
		<path style="fill:#000E3F;" d="M140.228,337.046c-1.493-0.048-3.952,1.9-5.193,2.719c2.855,5.531,6.198,11.435,9.042,17.199    c0.727,2.395-2.302,4.473-4.227,2.553c-3.667-5.586-6.946-11.296-9.815-17.094l-0.018-0.036c-1.622,0.387-3.617,1.759-5.057,2.552    l-0.036,0.018l0.053,0.018c3.514,6.132,6.747,12.598,10.154,18.789c2.551,4.229,8.353,3.282,12.117,0.709    c3.204-2.172,3.888-5.666,2.577-8.974C147.164,349.081,143.817,342.907,140.228,337.046z"/>
		<path style="fill:#000E3F;" d="M168.383,347.431c-3.265,1.643-6.422,2.75-9.63,4.234l-0.054-0.019    c-0.648-1.116-1.707-3.017-2.106-4.556c0.324-0.636,2.915-1.347,4.223-2.44c-0.862-1.769-1.404-3.51-2.416-5.032l-0.018-0.038    c-1.511,0.656-3.026,1.401-4.533,1.964l-0.05-0.018c-0.937-1.162-1.319-2.844-2.01-4.248l0.018-0.053l0.111-0.05    c3.072-1.775,6.568-2.73,9.344-4.854l-0.018-0.036c-0.791-1.714-1.344-3.582-2.392-5.176c-0.1-0.219-9.476,4.293-14.989,7.199    c3.389,8.564,7.584,16.488,11.497,24.944c4.886-1.773,10-4.581,14.972-6.839c-0.271-1.643-1.08-3.391-1.914-4.909L168.383,347.431    z"/>
		<path style="fill:#000E3F;" d="M162.417,325.439l-0.111,0.044c2.324,6.941,5.335,13.256,7.866,19.853l0.039-0.014    c1.433-0.622,3.482-1.447,4.726-2.12c-2.862-6.248-5.517-13.27-7.965-19.682C165.425,323.664,163.679,324.801,162.417,325.439z"/>
		<path style="fill:#000E3F;" d="M175.785,345.197c-1.454,0.584-3.518,0.941-4.512,1.903l0.011,0.039    c0.556,1.377,1.312,4.535,1.647,4.401l2.776-1.162l0.075-0.03c0.56-0.227,0.834-0.294,1.429-0.533l0.264-0.105    C176.886,348.258,176.302,346.59,175.785,345.197z"/>
		<path style="fill:#000E3F;" d="M67.242,352.866c1.014-1.278,2.4-2.562,3.441-3.865c0.064-0.053,0.066-0.11,0.041-0.141    c-1.433-1.308-3.692-4.457-4.464-4.843c-0.821,0.891-2.511,2.497-3.785,3.361c-0.032,0.027-0.032,0.027-0.087,0.023    c-0.921-0.31-1.976-1.197-2.461-2.648c2.279-2.454,5.563-5.533,7.588-7.602c-0.815-1.101-3.012-3.393-3.947-4.444    c-4.107,2.147-11.615,9.783-13.363,11.982l0.023,0.03c8.297,9.337,11.545,13.113,17.999,20.378l0.059,0.003    c0.49-0.114,3.794-3.104,5.221-4.64c-1.996-2.309-4.262-4.861-6.294-7.57L67.242,352.866z"/>
		<path style="fill:#000E3F;" d="M93.121,337.919l-0.046-0.064c-2.848,2.292-5.708,4.038-8.532,6.162l-0.055-0.007    c-0.868-0.955-2.299-2.593-3.017-4.013c0.185-0.692,2.568-1.932,3.619-3.273c-1.217-1.549-2.11-3.138-3.421-4.412l-0.023-0.032    c-1.34,0.957-2.664,2.003-4.022,2.873l-0.055-0.009c-1.155-0.937-1.88-2.504-2.854-3.732l0.009-0.055l0.094-0.073    c2.634-2.381,5.852-4.047,8.12-6.707l-0.023-0.032c-1.135-1.509-2.069-3.218-3.428-4.558c-0.144-0.192-8.359,6.187-13.142,10.184    c5.11,7.664,10.875,14.532,16.478,21.977c4.401-2.758,8.817-6.579,13.208-9.829C95.414,340.767,94.256,339.227,93.121,337.919z"/>
		<path style="fill:#000E3F;" d="M112.125,331.861c-0.499-1.589-1.54-3.211-2.578-4.598l-0.039-0.068    c-3.01,2.078-5.987,3.61-8.959,5.522l-0.055-0.012c-0.796-1.016-2.104-2.753-2.716-4.223c0.234-0.674,2.701-1.736,3.849-2.999    c-1.101-1.634-1.875-3.284-3.09-4.651l-0.02-0.034c-1.406,0.855-2.803,1.803-4.221,2.57l-0.053-0.012    c-1.087-1.019-1.695-2.634-2.578-3.929l0.014-0.057l0.102-0.064c2.799-2.181,6.13-3.608,8.589-6.098l-0.023-0.032    c-1.019-1.588-1.827-3.361-3.083-4.797c-0.132-0.203-8.794,5.56-13.856,9.196c4.537,8.017,9.788,15.289,14.824,23.126    C102.827,338.27,107.508,334.783,112.125,331.861z"/>
		<path style="fill:#000E3F;" d="M114.148,330.854c11.419-6.071,12.826-7.26,13.871-7.696c0.984-0.545,1.187-0.428-0.852-3.705    c-0.25-0.369-0.506-0.914-0.72-1.392c-0.1-0.266-0.257-0.545-0.392-0.793c-1.051,0.761-8.464,4.029-9.227,4.813l-0.018-0.034    c-3.232-6.107-7.349-12.825-10.528-19.004c-1.648,0.175-4.948,2.088-5.684,2.999c5.592,9.802,7.803,13.398,13.199,24.179    L114.148,330.854z"/>
		<path style="fill:#000E3F;" d="M130.46,322.194c0.873-0.782,6.002-2.349,6.411-3.53c-4.469-7.962-8.158-16.795-12.192-25.058    l-0.068-0.144l-0.866,0.422c-2.149,1.094-3.14,1.443-4.024,1.83c-0.324,0.159-1.28,0.49-1.515,0.65l0.036,0.071    C121.322,304.941,126.899,313.165,130.46,322.194z"/>
		<path style="fill:#000E3F;" d="M137.737,315.228l1.094,2.587c1.148-0.486,2.462-0.782,3.642-1.283    c0.556-0.235,1.062-0.492,1.554-0.875c-0.399-0.836-0.855-1.907-1.34-3.052c-1.757-4.141-3.874-9.437-3.728-9.501    c0.114-0.046,0.531,0.431,0.952,0.907l0.841,0.951c2.481,2.657,5.638,5.373,8.817,8.343c0.998-0.422,2.48-0.834,3.478-1.256    c0.852-0.362,1.048-0.62,1.141-0.702l-0.31-0.741c-0.424-0.998-0.866-1.944-1.29-2.942c-0.584-1.367-1.094-2.676-1.707-4.118    c-0.891-2.108-1.803-4.251-2.719-6.306l-5.046-11.905c-0.766,0.151-1.611,0.422-2.534,0.813c-0.927,0.392-1.778,0.845-2.566,1.352    c0.478,1.235,0.881,2.286,1.322,3.322c0.748,1.775,1.55,3.354,2.384,5.312c0.36,0.852,0.702,1.971,0.602,2.145    c-0.111,0.046-5.132-4.28-5.724-4.857c-1.768-1.693-2.209-1.812-3.682-3.325c-0.093-0.223-2.595,0.665-3.222,0.93    c-0.592,0.253-1.169,0.54-1.604,0.855c1.076,3.25,2.427,6.647,3.87,10.048C133.924,306.55,135.741,310.534,137.737,315.228z"/>
		<path style="fill:#000E3F;" d="M150.549,294.853c1.158,3.803,1.928,5.449,3.321,8.578c0.464,0.989,1.016,1.989,1.358,2.507    c1.34,1.962,2.78,3.086,5.089,3.28c2.78,0.203,5.706-1.42,7.969-2.99c1.696-1.377,2.694-3.068,2.085-5.743    c-0.431-2.906-1.686-5.996-2.904-8.594l-0.046-0.025l-0.078,0.027c-1.026,0.346-6.721,1.549-7.741,2.784    c-0.025,0.052-0.067,0.064-0.067,0.064c-0.036,0.013-0.036,0.013-0.022,0.052l0.011,0.038c0.78,1.684,0.759,2.37,1.5,3.942    c0.559,0.023,2.195-0.784,2.84-0.875c0.342,0.011,0.706,1.837,0.731,2.295c0.057,0.786-0.235,1.306-0.716,1.766    c-0.631,0.51-1.44,0.996-2.242,1.139c-0.364,0.039-0.709,0.028-0.987-0.046c-1.208-0.44-1.914-1.896-2.398-2.962    c-1.589-3.699-3.029-8.464-3.129-11.143c-0.028-0.456-0.003-1.014,0.071-1.167c0.403-0.812,1.294-0.945,2.178-1.201    c1.482-0.503,3.001,1.358,3.653,2.281c1.582-0.323,2.128-0.592,3.614-1.092c0.784-0.308,1.101-0.372,1.165-0.563l-0.043-0.24    c-1.368-6.442-7.11-7.637-12.53-5.002c-1.308,0.654-2.484,1.433-3.215,2.653c-1.137,1.527-1.062,3.366-0.766,5.13    C149.533,291.469,150.036,293.205,150.549,294.853z"/>
	</g>
	<g>
		<g>
			<path style="fill:#FD8A02;" d="M493.628,90.975l-8.741-6.836c-0.558-0.436-0.866-1.119-0.823-1.826l0.676-11.076     c0.108-1.78-1.872-2.913-3.351-1.916l-9.203,6.201c-0.587,0.396-1.332,0.477-1.991,0.218l-10.325-4.065     c-1.66-0.654-3.348,0.88-2.857,2.595l3.054,10.669c0.195,0.681,0.042,1.414-0.408,1.961l-7.057,8.564     c-1.134,1.377-0.198,3.456,1.585,3.519l11.09,0.392c0.708,0.025,1.358,0.397,1.739,0.995l5.964,9.358     c0.959,1.504,3.226,1.256,3.837-0.419l3.8-10.426c0.242-0.666,0.797-1.169,1.483-1.346l10.743-2.78     C494.568,94.307,495.032,92.073,493.628,90.975z"/>
			<path style="fill:#FD8A02;" d="M395.36,48.595c-0.366-0.501-0.462-1.151-0.257-1.737l3.219-9.178     c0.518-1.475-0.881-2.904-2.367-2.417l-9.243,3.028c-0.59,0.193-1.237,0.084-1.731-0.292l-7.734-5.898     c-1.243-0.948-3.034-0.059-3.03,1.504l0.023,9.726c0.001,0.621-0.303,1.203-0.813,1.556l-7.999,5.533     c-1.286,0.89-0.993,2.867,0.495,3.347l9.257,2.984c0.591,0.19,1.05,0.659,1.228,1.254l2.791,9.317     c0.448,1.498,2.42,1.831,3.336,0.564l5.698-7.882c0.364-0.503,0.952-0.795,1.572-0.781l9.724,0.225     c1.563,0.036,2.489-1.736,1.567-2.998L395.36,48.595z"/>
			<path style="fill:#FD8A02;" d="M462.515,173.452l-8.419,1.164c-0.537,0.075-1.077-0.12-1.443-0.521l-5.732-6.275     c-0.921-1.009-2.599-0.523-2.839,0.822l-1.494,8.367c-0.095,0.534-0.447,0.987-0.941,1.211l-7.739,3.513     c-1.244,0.564-1.301,2.31-0.096,2.954l7.495,4.006c0.479,0.256,0.801,0.731,0.861,1.27l0.949,8.446     c0.152,1.358,1.796,1.951,2.78,1.004l6.127-5.891c0.391-0.376,0.942-0.536,1.473-0.426l8.326,1.707     c1.338,0.275,2.411-1.105,1.814-2.334l-3.709-7.647c-0.237-0.488-0.218-1.062,0.05-1.533l4.197-7.391     C464.849,174.71,463.868,173.265,462.515,173.452z"/>
		</g>
		<g>
			<path style="fill:#FD8A02;" d="M41.522,399.731l-8.741-6.836c-0.558-0.436-0.866-1.119-0.823-1.826l0.676-11.076     c0.108-1.78-1.872-2.912-3.351-1.916l-9.203,6.201c-0.587,0.396-1.332,0.477-1.991,0.218L7.764,380.43     c-1.66-0.654-3.348,0.879-2.858,2.595l3.054,10.669c0.195,0.681,0.042,1.414-0.408,1.961l-7.057,8.564     c-1.134,1.376-0.198,3.456,1.585,3.519l11.09,0.392c0.708,0.025,1.358,0.397,1.739,0.995l5.964,9.358     c0.959,1.504,3.226,1.256,3.837-0.419l3.8-10.426c0.242-0.665,0.797-1.169,1.483-1.346l10.743-2.78     C42.462,403.063,42.926,400.829,41.522,399.731z"/>
			<path style="fill:#FD8A02;" d="M47.035,276.65c-0.366-0.501-0.462-1.151-0.257-1.737l3.219-9.178     c0.518-1.475-0.881-2.903-2.367-2.417l-9.243,3.028c-0.59,0.193-1.237,0.084-1.731-0.292l-7.734-5.898     c-1.243-0.948-3.034-0.059-3.03,1.505l0.023,9.726c0.001,0.621-0.303,1.203-0.813,1.556l-7.999,5.533     c-1.286,0.889-0.993,2.867,0.495,3.347l9.257,2.983c0.591,0.19,1.05,0.659,1.228,1.254l2.791,9.317     c0.448,1.498,2.42,1.831,3.336,0.564l5.698-7.882c0.364-0.503,0.952-0.795,1.572-0.781l9.724,0.225     c1.563,0.036,2.489-1.736,1.567-2.998L47.035,276.65z"/>
			<path style="fill:#FD8A02;" d="M101.754,446.627l-8.419,1.164c-0.537,0.075-1.077-0.12-1.443-0.521l-5.732-6.275     c-0.921-1.009-2.6-0.523-2.84,0.822l-1.494,8.367c-0.095,0.534-0.448,0.987-0.941,1.211l-7.739,3.512     c-1.244,0.565-1.301,2.31-0.096,2.955l7.495,4.007c0.478,0.256,0.801,0.731,0.861,1.27l0.949,8.446     c0.152,1.357,1.795,1.951,2.78,1.004l6.127-5.891c0.391-0.376,0.942-0.536,1.473-0.426l8.326,1.707     c1.338,0.275,2.41-1.105,1.814-2.334l-3.709-7.647c-0.237-0.488-0.218-1.061,0.05-1.533l4.197-7.391     C104.088,447.886,103.107,446.44,101.754,446.627z"/>
		</g>
	</g>
</g>















</svg>
