<?xml version="1.0" encoding="UTF-8"?>
<!-- Generator: Adobe Illustrator 25.4.1, SVG Export Plug-In . SVG Version: 6.00 Build 0)  -->
<svg xmlns="http://www.w3.org/2000/svg" xmlns:xlink="http://www.w3.org/1999/xlink" version="1.1" id="Capa_1" x="0px" y="0px" viewBox="0 0 512 512" style="enable-background:new 0 0 512 512;" xml:space="preserve" width="512" height="512">
<g>
	<g>
		<g>
			<path style="fill:#FFCF00;" d="M436.363,262.723c-0.686,1.506-1.349,3.001-2.005,4.48     c-12.957,29.524-15.937,28.572-42.434,44.779c-12.583,7.61-21.888,16.006-24.2,30.844c-1.583,10.041,0.824,20.435,6.509,29.013     c14.8,22.305,46.84,25.466,61.272-0.775c6.282-11.623,3.041-19.905,6.133-28.203c2.487-7.009,8.167-8.074,14.529-10.559     c20.642-8.093,33.08-27.991,34.197-46.597c1.083-10.863,0.065-21.858,0.817-32.407c1.434-21.341,6.293-22.763,17.501-41.098     c4.005-6.551-9.706-2.451-15.534-0.454C461.058,222.738,447.171,238.913,436.363,262.723z"/>
			<g>
				<path style="fill:#FD8A02;" d="M369.009,337.32c-0.566,1.816-0.997,3.656-1.285,5.505c3.128,3.742,10.535,12.023,13.517,20.75      c4.063,11.85,2.967,12.628,8.862,10.755c2.572-0.872,5.227-1.78,7.938-2.071c21.26-2.362,30.167,1.782,34.796,3.069      c0.08-0.104,0.144-0.215,0.224-0.319c0.946-1.353,1.742-2.67,2.444-3.945c-9.212-3.401-18.222-4.691-29.932-4.304      c-6.334,0.212-10.429,1.004-13.022,1.731c-2.581,0.723-3.693,1.369-4.075,1.256c-4.206-12.762-7.582-20.304-19.119-32.104      C369.254,337.534,369.14,337.431,369.009,337.32z"/>
				<path style="fill:#FD8A02;" d="M396.168,309.471c-1.432,0.84-2.858,1.662-4.244,2.51c7.079,12.942,6.564,19.394,5.761,29.503      c-0.741,9.414-1.323,10.388,11.961,7.556c19.717-4.2,26.58-2.54,30.809-1.47c0.245-1.594,0.602-3.152,1.183-4.709      c-0.129-0.042-0.265-0.066-0.406-0.103c-7.613-1.531-15.132-1.684-22.359-0.447c-10.087,1.733-15.606,3.026-16.609,3.055      c0.707-8.913,1.634-17.086-1.731-26.122C399.179,315.585,397.823,312.374,396.168,309.471z"/>
				<path style="fill:#FD8A02;" d="M436.363,262.723c-0.686,1.506-1.349,3.001-2.005,4.48c4.702,4.941,14.025,15.539,13.65,25.254      c-0.121,3.139,2.004,4.101,4.824,2.482c9.72-5.551,24.999-5.948,36.829-4.314c0.294-1.545,0.519-3.088,0.677-4.659      c0.005-0.085,0.021-0.176,0.026-0.262c-8.647-1.349-25.295-1.448-37.691,3.894c-0.026-0.156-0.043-0.357-0.06-0.559      c-0.268-2.624-0.965-9.597-12.662-22.927C439.409,265.499,437.77,263.953,436.363,262.723z"/>
				<path style="fill:#FD8A02;" d="M420.965,291.595c-1.024,1.206-2.118,2.345-3.255,3.419c0.059,0.072,0.118,0.144,0.177,0.216      c5.609,6.789,12.654,18.619,9.678,26.396c-1.1,2.838,0.101,4.462,2.37,4.305c1.734-0.107,16.795-4.623,35.981,0.334      c0.378,0.101,0.757,0.174,1.136,0.248c1.547-1.056,3.031-2.196,4.427-3.41c-18.951-6.769-34.197-2.938-38.634-2.779      C432.769,319.634,435.315,307.662,420.965,291.595z"/>
				<path style="fill:#FD8A02;" d="M452.828,236.422c-1.165,1.267-2.262,2.56-3.302,3.857c1.575,2.687,3.566,6.501,4.846,9.858      c3.8,9.947,1.334,16.197,4.7,17.36c4.338,1.482,7.411-9.521,31.873-9.424c0.05-1.593,0.124-3.196,0.237-4.775      c-9.839-0.113-19.356,1.166-29.52,7.882C460.354,249.464,455.794,240.916,452.828,236.422z"/>
				<path style="fill:#FD8A02;" d="M474.198,219.954c-1.518,0.835-2.962,1.68-4.36,2.532c0.647,3.115,1.573,7.555,0.669,14.3      c-0.501,3.678-0.532,7.447,3.328,6.27c2.055-0.621,7.782-5.37,20.348-6.029c0.36-1.101,0.782-2.186,1.244-3.276      c0.23-0.53,0.466-1.049,0.707-1.556c-1.667,0.037-3.463,0.129-5.118,0.356c-8.176,1.035-11.638,2.554-15.749,4.437      C475.657,231.633,476.255,231.181,474.198,219.954z"/>
			</g>
		</g>
		<path style="fill:#000E3F;" d="M511.366,207.783c-0.735-0.917-2.683-3.344-17.768,1.825    c-33.612,11.513-47.387,29.049-57.73,51.835c-0.653,1.434-1.285,2.858-1.911,4.267l-0.104,0.232    c-11.303,25.757-14.729,27.809-33.743,39.191c-2.423,1.449-5.092,3.048-8.048,4.856c-11.455,6.928-22.407,15.598-24.958,31.974    c-1.575,9.981,0.597,20.337,6.117,29.162c0.209,0.334,0.423,0.665,0.641,0.996c2.638,3.976,5.894,7.459,9.682,10.359    c-3.121,17.137-0.609,34.298,7.271,49.647l0.068,0.12c0.303,0.483,0.833,0.754,1.374,0.754c0.248,0,0.499-0.057,0.73-0.176    c0.791-0.406,1.106-1.381,0.7-2.173c-7.316-14.253-9.808-30.186-7.223-46.124c6.755,4.314,14.292,6.426,21.821,6.115    c12.495-0.519,23.012-7.415,29.614-19.421c3.909-7.23,4.293-13.258,4.631-18.58c0.22-3.441,0.427-6.692,1.605-9.85    c1.881-5.303,5.866-6.754,10.91-8.591c0.877-0.319,1.773-0.647,2.687-1.003c22.875-8.969,34.17-30.549,35.214-47.939    c0.596-5.984,0.564-12.037,0.533-17.89c-0.025-4.82-0.052-9.804,0.289-14.57c1.073-15.976,4.008-20.324,10.439-29.848    c1.977-2.928,4.216-6.247,6.827-10.516C512.199,210.522,512.311,208.958,511.366,207.783z M490.249,267.405    c0.031,5.763,0.063,11.722-0.522,17.592c-0.985,16.406-11.624,36.742-33.172,45.19c-0.887,0.346-1.761,0.665-2.615,0.976    c-5.379,1.96-10.459,3.811-12.84,10.522c-1.336,3.584-1.558,7.067-1.792,10.755c-0.332,5.23-0.677,10.638-4.243,17.235    c-6.032,10.97-15.591,17.269-26.914,17.739c-7.228,0.305-14.693-1.948-21.064-6.333c0.819-3.926,1.944-7.829,3.346-11.606    c8.583-23.126,20.75-31.424,32.517-39.449c12.358-8.428,24.031-16.388,30.458-39.811c6.974-25.426,15.054-49.598,37.022-65.891    c0.351-0.263,0.579-0.645,0.639-1.078c0.06-0.424-0.05-0.846-0.306-1.181c-0.528-0.712-1.539-0.865-2.258-0.335    c-22.793,16.906-31.081,41.638-38.212,67.631c-6.111,22.276-17.307,29.913-29.163,37.999    c-12.185,8.309-24.785,16.901-33.725,40.992c-1.264,3.406-2.321,6.964-3.146,10.587c-2.963-2.468-5.553-5.359-7.706-8.603    c-5.551-8.377-7.775-18.276-6.261-27.872c2.218-14.235,10.977-22.173,23.447-29.715c2.954-1.807,5.614-3.401,8.029-4.847    c19.307-11.557,23.324-13.961,35.041-40.656l0.233-0.528c0.578-1.301,1.162-2.615,1.765-3.938    c10.284-22.656,23.213-38.942,55.838-50.117c9.818-3.365,13.514-3.165,14.105-2.938c-0.033,0.152-0.137,0.475-0.471,1.021    c-2.573,4.212-4.791,7.496-6.748,10.395c-6.561,9.717-9.854,14.595-10.985,31.431    C490.197,257.456,490.224,262.502,490.249,267.405z"/>
	</g>
	<g>
		<g>
			<path style="fill:#FF8EDE;" d="M272.719,264.779c-0.291-6.53,2.741-14.952,8.712-18.546c3.177-1.912,3.171,0.082,7.87,2.5     c0.246,0.127,0.569,0.245,0.766-0.02c0.224-0.301-0.084-0.475-0.286-0.645c-0.089-0.075-17.235-9.459-23.114-25.734     c-7.311-20.236,13.382-30.348,30.332-6.501c3.839,5.402,4.92,11.224,10.484,14.955c9.692,6.5,26.438-1.615,17.147-24.498     c-1.308-3.222-2.15-8.148-1.811-11.296c1.859-17.229,18.027-28.193,34.802-33.049c7.951-2.302,7.204-4.065,8.891-1.774     c10.431,14.18,13.7,42.491,14.077,44.395c3.676,18.541,14.916,21.37,18.041,32.397c0.578,2.041,0.238,3.857-1.285,5.422     c-1.182,1.214-2.476,2.249-3.983,3.039c-3.79,1.986-9.238,3.089-13.553,3.324c-0.457,0.025-1.221,0.117-1.21,0.588     c0.016,0.684,0.761,0.362,1.19,0.383c2.107,0.103,3.073-0.944,3.961,1.122c3.959,9.213,0.66,14.293-4.486,14.529     c-3.778,0.174-8.933-1.664-13.071-1.678c-5.167-0.018-9.941-0.386-16.176,2.617c-1.597,0.769-3.007,1.793-4.065,3.235     c-4.262,5.814,3.806,12.044,12.798,12.179c5.818,0.087,9.976-0.634,14.224,2.341c2.547,1.783,4.18,4.199,4.358,7.31     c0.856,14.968-18.654,20.447-33.542,20.644c-5.585,0.074-11.182,0.313-16.768-0.33c-1.863-0.215-3.757-0.19-5.633-0.446     c-10.222-1.395-20.979-4.267-28.304-11.811c-5.871-6.046-6.158-11.234-6.933-15.354c-0.06-0.318-0.568-0.499-0.652,0.076     c-0.187,1.275,0.14,2.5,0.389,3.732c5.358,26.532,47.449,24.826,49.229,25.342c2.272,0.659-4.842,5.607-9.168,27.078     c-2.439,12.104-1.623,14.114-2.036,16.406c-0.543,3.01,0.055,5.984,0.274,8.969c0.037,0.505,0.617,0.458,0.632,0.055     c0.095-2.591-0.416-12.105,0.989-19.652c0.232-1.25,0.807-1.443,2.148-1.458c6.337-0.074,11.681,0.058,24.753,2.596     c1.39,0.27,1.609,0.689,1.275,2.038c-7.903,31.892-50.858,62.467-95.645,46.179c-23.026-8.374-40.161-27.229-44.863-45.762     c-0.248-0.978-0.591-1.85,0.329-2.222c0.945-0.383,12.593-2.15,13.627-2.297c4.391-0.621,8.91-2.873,10.684-7.098     c1.943-4.625,1.272-6.899,3.957-18.626c0.582-2.541,0.593-2.535,3.115-3.221c11.923-3.243,21.496-12.492,25.418-26.679     C272.176,283.85,273.264,276.984,272.719,264.779z"/>
			<path style="fill:#322BBF;" d="M440.568,410.078c-4.542-25.364-28.683-42.738-52.423-52.545     c-14.216-5.873-30.078-9.321-31.478-9.49c-2.239-0.27-1.127,0.979-4.058,8.039c-17.097,41.179-74.751,61.764-116.826,27.637     c-12.636-10.25-20.228-22.694-23.06-33.494c-0.613-2.34-0.894-2.48-3.22-1.978c-33.098,7.134-71.981,24.469-81.642,57.055     c-1.658,5.592-1.876,8.865,1.029,13.467c5.2,8.237,14.836,13.774,22.743,18.065c17.311,9.394,43.31,18.968,75.191,24.751     C335.771,481.347,445.212,436.017,440.568,410.078z"/>
			<g>
				<rect x="388.421" y="378.831" style="fill:#FC09B2;" width="22.625" height="22.623"/>
				<path style="fill:#FC09B2;" d="M433.671,392.345v9.108h4.502C436.97,398.273,435.456,395.236,433.671,392.345z"/>
				<path style="fill:#FC09B2;" d="M411.046,369.728v9.103h11.423C418.962,375.527,415.113,372.494,411.046,369.728z"/>
				<path style="fill:#FC09B2;" d="M365.8,378.831h22.622v-21.181c-0.092-0.038-0.183-0.079-0.276-0.117      c-1.11-0.458-2.23-0.896-3.352-1.325H365.8v-6.041c-4.973-1.312-8.506-2.048-9.132-2.123c-1.475-0.178-1.5,0.316-2.18,2.686      c-0.352,1.225-0.878,2.945-1.877,5.353c-0.018,0.043-0.04,0.084-0.057,0.126h1.934h11.311v22.623h-11.311h-11.312v22.623h11.312      h11.311v11.313v11.311h22.623v-11.311v-11.313H365.8V378.831z"/>
				<path style="fill:#FC09B2;" d="M388.421,446.705h6.255c5.946-2.294,11.421-4.7,16.37-7.171V424.08h-22.625V446.705z"/>
				<path style="fill:#FC09B2;" d="M433.671,424.503c0.144-0.142,0.278-0.282,0.418-0.423h-0.418V424.503z"/>
				<path style="fill:#FC09B2;" d="M365.8,424.08h-11.313h-11.312v22.625h11.312h11.311v9.187c8.034-2.083,15.605-4.4,22.623-6.88      v-2.307H365.8V424.08z"/>
				<polygon style="fill:#FC09B2;" points="411.046,424.078 433.671,424.078 433.671,412.767 433.671,401.453 411.046,401.453       411.046,412.767     "/>
				<polygon style="fill:#FC09B2;" points="320.55,412.767 320.55,424.078 343.175,424.078 343.175,412.767 343.175,401.453       320.55,401.453     "/>
				<path style="fill:#FC09B2;" d="M297.925,399.445v2.009h22.625v-10.278C313.543,395.054,305.9,397.873,297.925,399.445z"/>
				<path style="fill:#FC09B2;" d="M337.112,378.831h6.063v-6.777C341.3,374.434,339.276,376.698,337.112,378.831z"/>
				<path style="fill:#FC09B2;" d="M275.303,400.447c-3.776-0.41-7.555-1.112-11.313-2.134c-3.806-1.035-7.587-2.381-11.312-4.082      v7.222h11.312h11.311v11.313v11.311h22.623v-11.311v-11.313h-22.621V400.447z"/>
				<path style="fill:#FC09B2;" d="M320.55,464.232c7.764-0.886,15.324-2.017,22.625-3.353v-14.174H320.55V464.232z"/>
				<rect x="297.925" y="424.08" style="fill:#FC09B2;" width="22.625" height="22.625"/>
				<path style="fill:#FC09B2;" d="M275.303,424.08H263.99h-11.312v22.625h11.312h11.311v19.65c7.64,0.158,15.196,0.051,22.623-0.3      v-19.351h-22.621V424.08z"/>
				<polygon style="fill:#FC09B2;" points="230.054,412.767 230.054,424.078 252.679,424.078 252.679,412.767 252.679,401.453       230.054,401.453     "/>
				<rect x="207.429" y="378.831" style="fill:#FC09B2;" width="22.625" height="22.623"/>
				<path style="fill:#FC09B2;" d="M230.054,378.578v0.253h0.258C230.225,378.747,230.139,378.662,230.054,378.578z"/>
				<path style="fill:#FC09B2;" d="M212.724,350.224c-0.614-2.34-0.894-2.48-3.22-1.979c-0.688,0.149-1.382,0.308-2.075,0.465v7.497      h7.299C213.906,354.175,213.235,352.172,212.724,350.224z"/>
				<path style="fill:#FC09B2;" d="M184.807,378.831h22.622v-22.623h-22.622v-0.858c-0.763,0.279-1.522,0.567-2.282,0.858h2.28      v22.623h-11.311h-11.312v22.623h11.312h11.311v11.313v11.311h22.623v-11.311v-11.313h-22.622V378.831z"/>
				<path style="fill:#FC09B2;" d="M230.054,462.14c7.558,1.283,15.112,2.264,22.625,2.955v-18.39h-22.625V462.14z"/>
				<rect x="207.429" y="424.08" style="fill:#FC09B2;" width="22.625" height="22.625"/>
				<path style="fill:#FC09B2;" d="M184.807,424.08h-11.313h-11.312v17.989c3.439,1.569,7.127,3.119,11.016,4.636h0.296h11.311v4.2      c7.011,2.346,14.574,4.548,22.623,6.53v-10.73h-22.622V424.08z"/>
				<polygon style="fill:#FC09B2;" points="139.558,412.767 139.558,424.078 162.183,424.078 162.183,412.767 162.183,401.453       139.558,401.453     "/>
				<path style="fill:#FC09B2;" d="M129.183,401.453h10.375v-17.233C135.153,389.376,131.601,395.108,129.183,401.453z"/>
				<path style="fill:#FC09B2;" d="M144.666,378.831h17.516v-12.968C155.763,369.619,149.817,373.926,144.666,378.831z"/>
				<path style="fill:#FC09B2;" d="M139.558,429.494v-5.414h-6.38C135.118,426.058,137.281,427.855,139.558,429.494z"/>
			</g>
			<g style="opacity:0.5;">
				<path style="fill:#FC09B2;" d="M293.86,311.99c6.445,17.148,19.659,27.595,30.066,30.301c2.778,0.722,0.749-0.419,5.107-13.509      c4.72-14.177,8.516-15.466,5.506-15.638c-8.797-0.503-19.457-0.655-30.908-5.608c-9.409-4.07-11.89-9.428-12.362-6.944      C291.169,301.12,292.04,307.147,293.86,311.99z"/>
				<path style="fill:#FC09B2;" d="M302.468,258.261c-4.67-12.918,10.218-24.888,25.143-18.446c6.23,2.689,10.61,8.852,9.677,15.79      C335.103,271.849,307.938,273.391,302.468,258.261z"/>
			</g>
			<path style="opacity:0.25;fill:#000E3F;" d="M372.086,424.902c-49.37,0-55.74,6.682-91.356,3.436     c-45.611-4.156-81.35-25.016-103.393-54.092c-8.427-11.116-7.631-12.473-9.17-11.643c-1.661,0.896-3.34,1.76-4.982,2.691     c-17.084,9.688-31.846,24.216-36.174,43.312c-4.395,19.39,40.74,36.643,59.633,42.922c58.755,19.527,128.011,20.11,188.062,1.876     c25.167-7.642,45.186-18.055,51.241-22.656c0.429-0.326,0.35-0.784-0.169-0.942c-10.47-3.203-33.957-4.939-43.197-4.987     c-3.498-0.018-6.996-0.005-10.495-0.005C372.086,424.843,372.086,424.873,372.086,424.902z"/>
		</g>
		<g>
			<path style="fill:#000E3F;" d="M442.596,409.369c-7.682-38.361-57.066-60.954-102.601-66.327     c-5.384-0.636-8.531-0.605-10.418-0.581c-0.87,0.01-1.691,0.018-1.824-0.072c-0.05-0.121,0.058-0.64,0.153-1.098l0.051-0.243     c2.363-11.537,5.168-18.134,8.951-25.086c0.709-1.3,1.041-1.806,2.114-1.776c7.939,0.38,16.961-0.877,24.13-3.355     c12.805-4.425,16.811-13.102,16.352-19.188c-0.453-6.011-4.867-10.505-11.517-11.729c-1.85-0.34-3.893-0.335-6.032-0.327     c-4.975,0.004-10.105,0.028-13.935-4.127c-0.819-0.889-1.196-1.839-1.118-2.822c0.086-1.089,0.769-2.236,1.824-3.068     c7.406-5.841,20.616-3.479,26.256-2.47c1.039,0.186,1.791,0.32,2.239,0.355c3.679,0.288,6.601-0.796,8.428-3.139     c2.18-2.799,2.526-7.083,0.949-11.753c-0.172-0.511-0.334-0.934-0.469-1.285c-0.174-0.456-0.372-0.973-0.339-1.091     c0.006-0.007,0.073-0.079,0.444-0.177c0.269-0.071,0.571-0.143,0.902-0.223c2.368-0.572,6.329-1.529,10.346-4.609     c2.145-1.644,3.975-4.695,3.232-7.807c-0.903-3.784-3.55-6.964-6.613-10.648c-4.363-5.246-9.308-11.191-11.4-21.127     c-0.321-3.077-3.442-30.508-14.099-46.04c-0.237-0.344-0.532-0.774-0.527-0.889c0.035-0.116,0.463-0.423,0.882-0.724     c9.178-6.601,14.098-16.477,13.497-27.098c-0.537-9.498-5.58-18.037-13.162-22.283c-5.718-3.203-13.218-4.778-21.115-4.445     c-0.336,0.015-0.747,0.05-1.232,0.092c-2.976,0.254-9.168,0.789-18.862-2.243c-4.342-1.356-7.707-2.974-10.593-5.087     c-15.287-11.198-32.897-14.772-49.582-10.059c-12.882,3.638-21.497,10.65-26.645,14.84c-0.749,0.609-1.418,1.154-2.011,1.615     c-7.583,5.889-14.979,7.23-22.81,8.651c-9.173,1.664-18.659,3.386-30.052,12.12c-5.445,4.175-9.972,9.327-13.453,15.311     c-8.181,14.062-9.353,32.216-3.214,49.806c0.636,1.822,1.406,3.672,2.152,5.461c1.97,4.731,4.009,9.622,3.91,14.741     c-0.068,3.52-0.979,5.685-2.132,8.427c-0.897,2.132-1.913,4.549-2.712,8.098c-2.328,10.345-1.584,18.369,2.415,26.018     c4.245,8.119,11.816,14.782,22.501,19.804c4.678,2.198,7.578,6.045,8.867,11.762c0.41,1.821,0.386,3.628,0.361,5.54l-0.003,0.194     c-0.114,8.897,3.29,16.957,9.585,22.696c5.792,5.279,13.521,7.985,20.697,7.22c1.453-0.154,2.517-0.301,3.293-0.407     c0.6-0.084,1.136-0.157,1.411-0.165c-0.045,0.283-0.244,1.327-0.521,2.784c-0.583,3.07-1.465,7.71-2.058,11.18     c-1.051,6.146-2.826,7.91-6.41,9.539c-0.909,0.413-3.561,0.846-7.232,1.444c-13.575,2.215-41.823,6.824-67.049,23.293     c-24.603,16.062-34.458,38.655-31.866,48.131c5.298,19.359,50.912,36.323,77.029,43.295c26.808,7.156,52.727,10.489,81.57,10.489     l0.465-0.088c52.409-0.072,102.231-12.246,140.339-34.297C431.545,430.153,444.638,419.571,442.596,409.369z M243.53,318.467     c0.114-0.553,0.329-0.625,1.323-0.874l0.474-0.121c25.423-6.779,28.394-34.356,28.699-42.646     c0.008-0.225,0.013-0.371,0.018-0.424c0.223-1.503,0.093-2.93-0.056-4.582c-0.212-2.356-0.453-5.027,0.171-8.99     c1.027-6.526,4.152-11.607,8.572-13.941c0.276-0.146,0.478-0.228,0.689-0.228c0.384,0,0.798,0.272,1.742,0.925     c0.446,0.307,0.989,0.681,1.676,1.118l0.115,0.074c1.049,0.668,2.484,1.584,3.53,1.289c0.383-0.106,0.684-0.363,0.873-0.743     c0.39-0.782-0.048-1.433-0.192-1.647c-0.194-0.288-0.677-0.595-1.849-1.324c-3.347-2.081-11.185-6.956-17.623-16.786     c-5.286-8.069-6.747-15.763-4.009-21.109c1.624-3.171,4.679-5.084,8.38-5.247c7.096-0.309,15.031,5.413,21.262,15.314     c0.703,1.118,1.323,2.329,1.978,3.612c1.707,3.338,3.64,7.121,7.559,9.682c3.976,2.595,7.828,3.143,11.779,1.673     c7.699-2.866,10.993-9.487,9.525-19.147c-0.49-3.225-1.352-5.575-2.186-7.847c-1.394-3.8-2.598-7.082-1.671-13.455     c1.594-10.966,10.113-18.33,16.977-22.577c6.836-4.227,12.822-6.159,17.192-7.569c1.908-0.616,3.556-1.147,4.911-1.742     l0.398-0.177c1.449-0.647,1.449-0.647,2.652,1.196c7.29,11.159,12.001,32.271,12.59,40.955c0.324,4.778,3.02,13.082,8.172,20.026     c1.238,1.669,2.594,3.299,3.904,4.874c3.475,4.177,6.757,8.123,6.447,11.25c-0.117,1.176-0.732,2.198-1.881,3.124     c-2.599,2.099-6.173,3.651-10.062,4.373l-0.172,0.032c-2.019,0.375-4.108,0.763-6.188,0.831c-1.379,0.044-1.934,0.57-2.156,1.002     c-0.236,0.459-0.189,1.015,0.126,1.487c0.38,0.568,1.039,0.888,1.732,0.829c0.323-0.026,0.648-0.045,0.972-0.064     c0.518-0.03,1.036-0.061,1.551-0.122c0.626-0.069,0.98,0.158,1.281,0.861c0.789,1.843,1.293,3.51,1.54,5.096     c0.324,2.079-0.156,4.243-1.252,5.647c-0.739,0.947-1.728,1.502-2.86,1.604c-3.054,0.276-5.146-0.144-7.568-0.632     c-2.586-0.52-5.522-1.118-10.291-0.991c-2.789,0.071-12.253,0.71-16.931,5.964c-1.86,2.089-2.277,4.728-1.141,7.239     c1.566,3.467,6.665,7.494,15.893,7.494c0.056,0,0.114-0.001,0.172-0.001c0.726-0.004,1.409-0.016,2.058-0.028     c3.969-0.069,6.581-0.12,9.872,2c3.139,2.022,4.595,5.954,3.71,10.016c-1.64,7.526-10.469,13.154-23.62,15.053     c-12.736,1.842-33.173,1.185-45.952-3.653c-10.182-3.856-16.727-10.587-18.429-18.954c-0.162-0.797-0.254-1.621-0.343-2.417     c-0.04-0.359-0.08-0.718-0.126-1.077c-0.163-1.261-1.145-1.916-1.975-1.819c-0.78,0.088-1.505,0.803-1.369,2.202     c1.376,14.049,11.652,23.631,29.722,27.711c7.406,1.673,13.359,1.89,18.611,2.08l1.44,0.054c0.085,0.003,0.145,0.009,0.189,0.016     c-0.082,0.278-0.438,0.897-0.807,1.539c-7.078,12.311-11.411,32.411-10.537,48.88c0.07,1.331,0.561,2.325,1.31,2.659     c0.463,0.204,0.958,0.136,1.361-0.191c0.79-0.638,1.038-2.071,0.667-3.835c-0.68-3.229,0.523-15.136,1.014-17.082     c0.444-1.74,19.451,0.871,25.263,2.151c0.307,0.068,0.364,0.169,0.383,0.203c0.197,0.35-0.159,1.407-0.612,2.746l-0.042,0.125     c-6.059,17.976-20.348,32.975-39.205,41.153c-19.777,8.579-42.296,8.067-61.777-1.397c-18.281-8.88-31.986-24.789-36.671-42.459     c0.357-0.539,3.996-1.025,6.92-1.415c3.965-0.53,8.459-1.13,11.036-2.287c6.841-3.07,7.595-7.299,9.415-17.516     C242.288,324.897,242.816,321.939,243.53,318.467z M210.831,349.263c0.332,0,0.389,0.19,0.569,0.789     c1.753,5.821,3.733,10.95,7.698,17.064c18.045,27.822,58.737,46.687,98.61,26.848c19.179-9.544,32.781-25.217,38.3-44.134     c0.135-0.468,0.21-0.6,0.245-0.628c0.089-0.041,0.543,0.055,0.712,0.093c13.45,2.895,33.1,8.603,50.329,19.348     c17.057,10.637,27.656,23.678,31.501,38.758c0.641,2.514,1.127,5.47-0.134,8.333c-5.522,12.532-31.236,27.03-65.508,36.932     c-23.085,6.671-69.984,16.951-124.682,10.85c-34.896-3.892-68.202-13.28-93.784-26.434c-9.68-4.978-18.205-9.806-24.492-18.518     c-2.786-3.86-2.753-10.19,0.091-17.365c7.206-18.183,32.446-42.669,79.863-51.835     C210.462,349.303,210.677,349.263,210.831,349.263z"/>
			<path style="fill:#000E3F;" d="M337.749,199.655c0.221,0.079,1.625,0.155,3.151,0.155c1.319,0,2.73-0.057,3.547-0.218     c7.445-1.464,13.291-5.51,17.375-12.024c1.573-2.509,0.846-3.559,0.461-3.893c-0.523-0.453-1.36-0.448-1.903,0.013     c-0.345,0.292-0.671,0.85-1.122,1.623c-1.359,2.331-3.887,6.67-10.462,9.562c-4.051,1.783-6.42,1.759-8.518,1.727     c-0.756-0.008-1.475-0.018-2.205,0.065c-0.738,0.084-1.289,0.627-1.372,1.351C336.616,198.743,337.038,199.402,337.749,199.655z"/>
			<path style="fill:#000E3F;" d="M361.521,203.471c-0.181,0.258-0.266,0.69-0.395,1.343c-0.265,1.345-0.665,3.379-2.11,4.922     c-4.608,4.925-10.482,1.492-12.989,0.023c-0.464-0.272-0.771-0.45-0.982-0.521c-0.55-0.185-1.147,0.036-1.532,0.551     c-0.383,0.51-0.428,1.157-0.114,1.611c0.307,0.443,0.613,0.78,0.936,1.028c2.695,2.074,5.753,3.148,8.728,3.148     c1.593,0,3.161-0.308,4.637-0.937c3.729-1.586,6.141-4.967,6.618-9.275c0.205-1.856-0.622-2.379-0.988-2.517     C362.708,202.611,361.947,202.873,361.521,203.471z"/>
			<path style="fill:#000E3F;" d="M295.193,236.022c0.526,0,1.012-0.311,1.293-0.719c0.433-0.631,0.356-1.397-0.193-1.906     c-0.233-0.217-0.642-0.493-1.207-0.875c-2.68-1.811-8.957-6.05-12.974-15.219c-0.323-0.736-0.785-1.614-1.497-1.874     c-0.323-0.119-0.665-0.096-0.987,0.063c-0.674,0.33-1,0.904-0.995,1.754l0.027,0.154c2.248,6.266,8.597,14.873,15.935,18.479     C294.795,235.978,294.996,236.022,295.193,236.022z"/>
		</g>
		<path style="fill:#322BBF;" d="M273.074,107.213c-1.509,5.49-4.021,10.81-7.522,15.595c-3.517,4.77-8.364,8.67-13.604,11.364    c-10.499,5.541-22.013,6.821-30.654,11.87c-2.181,1.208-4.151,2.656-5.866,4.366c-1.736,1.688-3.236,3.619-4.477,5.769    c-1.32,2.093-2.292,4.46-3.205,6.847c-0.815,2.365-1.419,4.903-1.944,7.513c-1.015,5.236-1.638,10.788-2.874,16.376    c-1.278,5.537-3.155,11.305-6.788,16.048c-0.628,0.82-1.802,0.976-2.622,0.348c-0.742-0.568-0.94-1.582-0.507-2.377l0.026-0.046    c1.236-2.276,2.169-4.689,2.904-7.185c0.734-2.496,1.146-5.127,1.497-7.776c0.748-5.305,0.969-10.813,1.797-16.492    c0.406-2.842,0.938-5.734,1.86-8.629c0.966-2.809,2.026-5.622,3.57-8.275c2.936-5.347,7.626-9.983,12.936-12.947    c5.33-2.996,10.943-4.656,16.265-6.185c5.343-1.488,10.492-2.933,15.184-5.085c2.355-1.063,4.579-2.331,6.634-3.827    c1.073-0.696,1.999-1.569,2.999-2.367c0.893-0.911,1.877-1.741,2.695-2.74c3.513-3.791,6.168-8.44,8.392-13.357    c0.399-0.887,1.442-1.282,2.328-0.882C272.901,105.501,273.3,106.391,273.074,107.213z"/>
	</g>
	<g>
		<g>
			<path style="fill:#00D5FE;" d="M144.537,195.748c-0.201,0-0.405-0.009-0.613-0.029c-18.83-1.719-31.329-11.513-38.497-19.427     c-1.13-1.249-2.755-1.965-4.461-1.965c-0.773,0-1.533,0.143-2.26,0.426c-8.929,3.467-18.095,5.225-27.247,5.226     c-0.001,0-0.003,0-0.004,0c-20.771,0-38.281-8.942-48.043-24.533c-9.35-14.948-10.079-33.887-2.002-51.962     c5.962-13.37,16.553-25.302,29.82-33.595c12.712-7.955,26.899-12.16,41.026-12.16c20.782,0,38.31,8.954,48.088,24.566     c12.633,20.194,9.008,48.048-9.022,69.312c-0.609,0.727-1.066,1.541-1.35,2.412c-0.45,1.366-0.485,2.805-0.103,4.163     c2.953,10.561,11.511,20.262,18.17,26.541c0.201,0.2,0.366,0.366,0.55,0.532c1.889,1.771,2.465,4.318,1.533,6.673     C149.202,194.248,147.01,195.748,144.537,195.748z"/>
			<g style="opacity:0.25;">
				<path style="fill:#322BBF;" d="M144.082,194.052c-18.447-1.685-30.613-11.377-37.414-18.884      c-2.163-2.392-5.573-3.141-8.569-1.976c-28.388,11.023-59.126,3.951-73.268-18.634c-9.379-14.994-9.421-33.545-1.892-50.391      c0.27,13.435,5.761,26.828,15.306,36.166c16.825,16.471,37.289,15.036,57.982,8.194c13.393-4.43,23.521-2.163,31.611,4.492      c0.187,0.167,0.354,0.312,0.541,0.478c-0.541,1.643-0.603,3.431-0.125,5.136c3.037,10.856,11.709,20.777,18.634,27.307      c0.187,0.187,0.374,0.374,0.582,0.561C150.529,189.372,148.241,194.447,144.082,194.052z"/>
			</g>
			<path style="opacity:0.75;fill:#FFFFFF;" d="M48.045,81.834c4.26-4.141,9.178-7.191,14.464-9.636     c2.626-1.255,5.383-2.194,8.148-3.119l4.234-1.102c1.416-0.349,2.866-0.546,4.299-0.825c5.769-0.836,11.669-1.112,17.437-0.273     c2.904,0.229,5.721,0.998,8.53,1.652c1.412,0.301,2.757,0.859,4.115,1.334c1.354,0.491,2.694,1.009,4.019,1.542     c0.838,0.338,1.243,1.29,0.905,2.128c-0.285,0.708-1.008,1.106-1.731,1.01l-0.155-0.021c-1.374-0.183-2.733-0.383-4.077-0.609     c-1.351-0.192-2.663-0.543-4.03-0.594c-2.701-0.248-5.362-0.64-8.052-0.634c-5.352-0.288-10.696,0.1-15.954,0.897     c-5.281,0.727-10.459,2.133-15.523,3.906c-5.039,1.782-10.054,4.063-14.671,6.71l-0.124,0.071     c-0.737,0.423-1.676,0.168-2.099-0.569C47.426,83.079,47.554,82.311,48.045,81.834z"/>
		</g>
		<g>
			<path style="fill:#000E3F;" d="M149.764,184.06c-0.215-0.194-0.36-0.341-0.506-0.487c-0.023-0.023-0.047-0.046-0.07-0.069     c-6.505-6.134-14.857-15.584-17.707-25.773c-0.292-1.04-0.263-2.141,0.081-3.187c0.22-0.673,0.573-1.301,1.051-1.872     c18.49-21.807,22.173-50.453,9.152-71.266c-10.092-16.113-28.135-25.353-49.504-25.353c0,0-0.003,0-0.003,0     c-14.442,0.001-28.936,4.294-41.915,12.416c-13.546,8.469-24.364,20.662-30.46,34.334c-8.308,18.59-7.539,38.103,2.112,53.531     c10.076,16.091,28.105,25.319,49.466,25.319c9.359,0,18.73-1.796,27.853-5.339c0.534-0.207,1.09-0.312,1.654-0.312     c1.233,0,2.406,0.515,3.219,1.413c7.37,8.136,20.22,18.203,39.593,19.973c0.25,0.024,0.506,0.036,0.759,0.036     c3.165,0,5.968-1.915,7.141-4.879C152.849,189.582,152.098,186.252,149.764,184.06z M144.536,194.073     c-0.149,0-0.3-0.007-0.455-0.022c-18.447-1.685-30.613-11.377-37.414-18.884c-1.49-1.648-3.572-2.515-5.702-2.516     c-0.962,0-1.934,0.177-2.866,0.539c-8.842,3.433-17.916,5.112-26.641,5.112c-19.289,0-36.89-8.195-46.627-23.746     c-9.38-14.995-9.421-33.545-1.892-50.391c5.657-12.686,15.639-24.395,29.178-32.859c12.83-8.029,26.881-11.905,40.139-11.905     c19.297-0.001,36.916,8.21,46.668,23.781c12.686,20.277,8.277,47.105-8.88,67.34c-0.749,0.895-1.31,1.893-1.664,2.974     c-0.541,1.643-0.603,3.431-0.125,5.136c3.037,10.856,11.709,20.777,18.634,27.307c0.187,0.187,0.374,0.374,0.582,0.561     C150.415,189.266,148.403,194.073,144.536,194.073z"/>
			<path style="fill:#000E3F;" d="M129.453,124.765c5.541-6.392,6.673-16.242,2.694-23.422c-4.142-7.469-13.63-11.459-21.605-9.083     c-0.085,0.025-0.17,0.051-0.255,0.078c-0.927-2.824-2.121-5.235-3.607-7.292c-2.987-4.138-7.237-6.805-11.661-7.318     c-5.187-0.605-10.288,1.982-12.425,6.277c-1.905,3.826-1.212,8.05-0.296,10.92c0.496,1.553,1.29,3.231,2.21,5.171     c0.227,0.479,0.46,0.971,0.698,1.477c-5.761-3.435-11.625-6.3-18.107-7.348c-7.077-1.148-16.047,0.435-21.616,6.237     c-1.615,0.175-3.217,0.512-4.776,1.018c-7.618,2.471-13.712,8.791-15.904,16.495c-2.595,9.122,0.706,19.248,7.784,25.305     c1.109,10.785,7.132,16.483,11.327,19.189c6.855,4.419,16.249,5.671,24.664,3.833c0.262,0.062,0.526,0.122,0.792,0.178     c2.143,0.456,4.316,0.679,6.482,0.679c5.903,0,11.748-1.665,16.75-4.843c3.193,1.416,6.522,2.554,10.075,3.072     c6.977,1.015,13.619-0.863,17.77-5.03c7.54-7.568,6.221-18.976,1.153-29.92C124.617,129.131,127.334,127.21,129.453,124.765z      M110.101,124.303c0.469-1.505,0.871-3.031,1.207-4.569c2.004,2.734,3.907,5.708,5.55,8.778     c-1.401,0.334-2.841,0.523-4.289,0.558c-0.8-1.404-1.726-2.747-2.696-4.06C109.951,124.777,110.027,124.541,110.101,124.303z      M87.707,141.292c0.479-0.617,0.931-1.273,1.354-1.966c2.728,0.691,5.479,0.686,8.08-0.06c1.018-0.29,1.998-0.691,2.935-1.195     c0.852,2.346,1.134,4.973,0.703,7.554c-0.339,2.029-1.078,4.023-2.165,5.908c-3.696,0.523-7.594-0.016-10.893-1.515     C88.351,147.289,88.355,144.359,87.707,141.292z M76.245,113.135c-0.18-0.083-0.361-0.163-0.543-0.238     c0.559-0.827,1.202-1.583,1.919-2.265c3.923,2.274,7.567,5.717,11.112,9.067c0.443,0.418,0.886,0.838,1.331,1.256     c0.006,1.794-0.105,3.688-0.363,5.69c-1.634,0.014-3.285,0.238-4.858,0.771c-0.092,0.031-0.183,0.063-0.273,0.095     C85.194,121.871,81.775,115.689,76.245,113.135z M80.859,128.857c-0.125,0.361-0.271,0.709-0.436,1.043     c-0.004,0.004-0.008,0.007-0.012,0.01c-2.645-2.989-4.603-6.557-6.651-10.289c-0.815-1.485-1.638-2.985-2.516-4.46     c1.262,0.162,2.477,0.497,3.596,1.014C79.694,118.417,82.45,124.224,80.859,128.857z M84.033,140.437     c-0.88,0.924-1.848,1.702-2.893,2.321c-0.182,0.107-0.365,0.209-0.55,0.305c-1.066-2.6-1.141-5.495-0.092-7.832     c0.005-0.01,0.01-0.021,0.015-0.032c0.086-0.077,0.172-0.156,0.256-0.236C82.16,136.363,83.331,138.186,84.033,140.437z      M77.409,144.154c-1.631,0.284-3.272,0.164-4.785-0.376c-1.92-0.686-3.621-2.376-4.45-4.417c2.808,0.089,5.692-0.432,8.262-1.563     C76.256,139.906,76.591,142.096,77.409,144.154z M67.703,135.982c0.082-0.572,0.252-1.118,0.511-1.625     c1.064-2.091,3.234-3.109,5.932-2.797c1.223,0.142,2.543,0.567,3.823,1.278c-0.042,0.071-0.082,0.143-0.122,0.214     C75.134,135.239,71.262,136.217,67.703,135.982z M72.352,111.93c-0.966-0.167-1.952-0.251-2.947-0.251     c-0.134,0-0.268,0.002-0.402,0.004c-1.047-1.48-2.195-2.894-3.499-4.196c0.024,0,0.048,0,0.073,0     c3.076,0,6.088,0.531,8.862,1.605C73.656,109.958,72.956,110.905,72.352,111.93z M67.335,115.197     c1.225,1.912,2.344,3.949,3.49,6.036c1.3,2.368,2.622,4.778,4.153,7.061c-0.15-0.024-0.299-0.044-0.446-0.061     c-4.119-0.481-7.593,1.245-9.303,4.603c-0.413,0.811-0.69,1.675-0.829,2.57c-4.448-1.164-8.862-3.609-12.463-6.732     c1.642-4.114,4.294-7.73,7.776-10.336C61.992,116.635,64.665,115.568,67.335,115.197z M57.708,115.657     c-3.618,2.707-6.449,6.365-8.338,10.527c-1.942-2.118-3.497-4.436-4.481-6.808c-0.328-0.791-0.592-1.584-0.793-2.374     c2.223-2.377,4.848-4.409,7.802-5.999c2.868-1.543,5.918-2.584,8.987-3.111c0.104,0.079,0.208,0.158,0.311,0.239     c1.516,1.192,2.821,2.554,3.995,4.036C62.56,112.776,59.99,113.95,57.708,115.657z M50.824,132.132     c4.028,3.227,8.835,5.664,13.705,6.752c0.123,0.555,0.294,1.11,0.513,1.662c1.183,2.976,3.596,5.364,6.456,6.386     c2.405,0.859,5.029,0.943,7.57,0.286c0.141,0.2,0.286,0.397,0.437,0.59c1.157,1.484,2.569,2.753,4.156,3.795     c-0.267,0.637-0.58,1.256-0.937,1.857c-3.718-1.954-7.573-3.784-11.706-4.878c-4.617-1.221-9.458-1.493-14.139-1.754     c-1.951-0.11-3.87-0.217-5.747-0.387c-0.183-0.611-0.343-1.233-0.483-1.869C49.73,140.391,49.833,136.112,50.824,132.132z      M82.303,145.946c0.182-0.097,0.363-0.2,0.542-0.306c0.669-0.395,1.311-0.842,1.924-1.336c0.109,1.335,0.063,2.633-0.136,3.884     C83.765,147.528,82.981,146.78,82.303,145.946z M82.897,132.347c0.054-0.088,0.107-0.178,0.159-0.268     c0.827-0.622,1.789-1.127,2.861-1.491c1.047-0.355,2.135-0.55,3.214-0.591c-0.418,1.901-0.987,3.653-1.692,5.232     C85.885,134.54,84.356,133.575,82.897,132.347z M107.368,121.724c-2.557-3.335-4.872-6.552-5.658-10.294     c-0.077-0.365-0.135-0.733-0.175-1.103c2.491,1.563,4.862,3.571,7.021,5.975C108.257,118.128,107.861,119.938,107.368,121.724z      M108.414,128.735c-0.011-0.002-0.023-0.004-0.035-0.006c0.005-0.008,0.009-0.017,0.013-0.025     C108.399,128.713,108.407,128.725,108.414,128.735z M105.371,124.62c0.246,0.319,0.49,0.637,0.733,0.954     c-0.306,0.773-0.637,1.51-0.99,2.208c-4.199-1.651-7.945-4.797-11.74-8.316c-0.192-5.018-1.223-9.297-2.492-12.935     c2.432,0.237,4.869,0.905,7.238,1.966c-0.039,1.209,0.061,2.424,0.313,3.622C99.443,116.927,102.457,120.838,105.371,124.62z      M92.473,130.387c0.665,0.189,1.303,0.444,1.898,0.765c1.683,0.908,3.11,2.274,4.203,3.923c-0.754,0.414-1.54,0.739-2.354,0.972     c-1.782,0.511-3.669,0.571-5.573,0.201C91.415,134.46,92.03,132.499,92.473,130.387z M95.961,128.204     c-0.918-0.495-1.907-0.873-2.939-1.134c0.138-1.075,0.235-2.12,0.298-3.14c3.123,2.74,6.404,5.207,10.047,6.751     c-0.653,0.906-1.357,1.716-2.106,2.421C99.88,131.053,98.081,129.347,95.961,128.204z M102.892,136.136     c1.395-1.188,2.661-2.646,3.777-4.352c0.063,0.015,0.124,0.03,0.186,0.044c1.204,0.281,2.426,0.46,3.652,0.541     c0.667,1.459,1.124,2.969,1.266,4.572c0.392,4.425-1.924,9.072-5.901,11.838c-0.929,0.646-1.931,1.183-2.986,1.613     c0.555-1.375,0.958-2.786,1.196-4.214C104.657,142.736,104.184,139.221,102.892,136.136z M108.315,98.143     c0.877,4.571,1.126,9.249,0.759,13.879c-2.295-2.211-4.774-4.047-7.361-5.469c0.745-3.773,3.117-7.334,6.382-9.486     C108.171,97.42,108.245,97.778,108.315,98.143z M85.591,85.497c1.497-3.007,5.304-4.871,9.042-4.442     c3.492,0.404,6.893,2.574,9.331,5.951c1.334,1.846,2.405,4.052,3.238,6.676c-4.284,2.417-7.441,6.684-8.602,11.381     c-2.958-1.209-6.01-1.885-9.048-1.969c-0.689-1.63-1.387-3.103-2.019-4.433c-0.868-1.832-1.619-3.415-2.046-4.754     C84.459,90.684,84.495,87.698,85.591,85.497z M86.885,106.537c0.194,0.123,0.388,0.245,0.582,0.368     c0.989,2.684,1.841,5.706,2.28,9.148c-2.924-2.747-5.936-5.465-9.207-7.563C82.407,107.45,84.553,106.78,86.885,106.537z      M66.563,97.53c5.652,0.914,10.917,3.401,16.117,6.442c-2.006,0.602-3.848,1.5-5.475,2.662c-0.353-0.165-0.71-0.323-1.069-0.471     c-3.357-1.379-6.953-2.062-10.613-2.062c-1.277,0-2.564,0.084-3.849,0.249c-3.281-2.162-7.067-3.484-10.952-3.894     C55.366,97.45,61.503,96.707,66.563,97.53z M46.329,104.728c0.236-0.352,0.486-0.69,0.748-1.014     c3.242-0.143,6.547,0.452,9.535,1.722c-2.139,0.643-4.251,1.517-6.299,2.619c-2.444,1.315-4.683,2.902-6.688,4.717     C43.717,109.984,44.622,107.271,46.329,104.728z M32.43,138.402c-4.479-5.267-6.34-12.711-4.405-19.511     c1.862-6.543,7.246-12.126,13.716-14.226c0.285-0.093,0.572-0.178,0.861-0.257c-2.048,3.686-2.763,7.626-2.129,11.632     c-3.583,4.265-6.072,9.399-7.172,15.007C32.783,133.69,32.506,136.138,32.43,138.402z M36.588,131.692     c0.83-4.237,2.544-8.174,4.982-11.6c0.073,0.189,0.148,0.378,0.226,0.567c1.332,3.213,3.519,6.295,6.252,9.002     c-1.533,4.937-1.83,10.357-0.67,15.631c0.054,0.243,0.109,0.484,0.168,0.724c-3.333-0.509-6.501-1.366-9.437-2.969     c-0.795-0.434-1.553-0.92-2.273-1.454C35.65,138.53,35.896,135.216,36.588,131.692z M45.729,159.654     c-4.884-3.15-8.024-7.84-9.301-13.71c0.026,0.014,0.052,0.028,0.078,0.043c3.811,2.081,7.942,3.037,12.144,3.555     c2.425,6.297,6.921,11.212,12.99,14.261C55.936,163.919,50.225,162.552,45.729,159.654z M68.671,162.873     c-7.52-1.967-13.188-6.541-16.217-12.965c1.416,0.105,2.832,0.185,4.238,0.263c4.514,0.252,9.182,0.514,13.47,1.649     c3.634,0.961,7.13,2.588,10.529,4.357c-0.878,0.954-1.893,1.844-3.042,2.663C75.024,160.71,71.943,162.057,68.671,162.873z      M75.857,163.811c-0.015,0-0.029,0-0.044,0c1.33-0.652,2.597-1.4,3.779-2.244c1.603-1.143,2.99-2.402,4.152-3.764     c0.188,0.102,0.376,0.203,0.564,0.305c1.529,0.827,3.072,1.661,4.641,2.46C84.927,162.701,80.413,163.811,75.857,163.811z      M92.28,158.483c-2.118-1.017-4.226-2.156-6.378-3.321c-0.065-0.035-0.129-0.07-0.194-0.104c0.352-0.599,0.668-1.213,0.946-1.841     c2.896,1.264,6.098,1.914,9.374,1.874C94.932,156.317,93.676,157.458,92.28,158.483z M118.075,157.993     c-3.407,3.421-8.983,4.949-14.914,4.08c-2.575-0.375-5.019-1.107-7.413-2.059c1.929-1.625,3.582-3.461,4.908-5.435     c2.552-0.554,4.991-1.564,7.13-3.051c4.944-3.439,7.819-9.28,7.323-14.882c-0.134-1.52-0.487-2.952-0.996-4.317     c1.447-0.126,2.88-0.383,4.274-0.765C122.945,141.332,124.45,151.595,118.075,157.993z M120.116,127.444     c-1.971-3.735-4.332-7.366-6.874-10.72c-0.375-0.494-0.759-0.977-1.148-1.447c0.79-5.894,0.633-11.911-0.49-17.764     c-0.128-0.667-0.266-1.316-0.414-1.947c0.102-0.034,0.205-0.066,0.309-0.097c6.527-1.949,14.311,1.349,17.72,7.499     c3.321,5.992,2.356,14.238-2.297,19.605C125.093,124.682,122.737,126.333,120.116,127.444z"/>
		</g>
	</g>
	<g>
		<path style="fill:#000E3F;" d="M82.689,370.371c-2.4-1.482-10.747-6.743-12.599-7.904c-2.32,2.772-2.958,3.059-3.423,3.695    c6.45,12.056,15.159,23.653,15.706,24.667c0.06,0.001,0.06,0.001,0.087-0.028c2.611-2.655,3.859-3.608,4.092-4.012    c0.027-0.028,0.031-0.086,0.056-0.115c-0.601-1.941-2.853-4.377-3.541-6.116c0.87-0.865,0.698-0.925,1.828-1.76    c1.646,0.612,4.361,2.587,6.067,3.373l0.029-0.028c1.51-0.981,3.072-2.365,4.005-3.752l-0.029-0.029L82.689,370.371z     M79.457,377.336c-5.106-6.755-8.97-10.991,2.146-2.135C80.882,375.922,80.155,376.701,79.457,377.336z"/>
		<path style="fill:#000E3F;" d="M106.395,363.407c-0.978-1.158-1.868-2.28-2.898-3.501c-1.504-1.785-3.036-3.6-4.542-5.328    l-8.498-10.081c-0.702,0.376-1.441,0.894-2.226,1.554c-0.783,0.659-1.483,1.355-2.095,2.088c0.837,1.059,1.546,1.962,2.288,2.838    c1.266,1.503,2.518,2.802,3.919,4.462c0.605,0.72,1.277,1.707,1.23,1.907c-0.093,0.079-6.285-2.629-7.039-3.012    c-2.228-1.119-2.693-1.101-4.579-2.134c-0.16-0.188-2.331,1.428-2.864,1.877c-0.502,0.422-0.978,0.877-1.305,1.313    c2.024,2.846,4.361,5.749,6.79,8.629c3.298,3.914,6.27,7.248,9.621,11.224l1.85,2.191c0.97-0.818,2.159-1.5,3.16-2.345    c0.471-0.396,0.883-0.798,1.247-1.317c-0.636-0.694-1.401-1.602-2.22-2.573c-2.956-3.507-6.608-8.033-6.485-8.138    c0.093-0.079,0.649,0.258,1.199,0.597l1.107,0.675c3.212,1.844,7.108,3.541,11.098,5.48c0.845-0.713,2.166-1.559,3.014-2.272    c0.718-0.606,0.83-0.917,0.899-1.027l-0.529-0.627C107.825,365.041,107.107,364.253,106.395,363.407z"/>
		<path style="fill:#000E3F;" d="M108.401,331.675c-0.02-0.034,0.011-0.057-0.016-0.09l-0.031,0.023    c-2.522,1.819-3.89,2.858-4.98,3.796l0.022,0.033c0.785,2.414,2.673,6.853,3.169,9.22c-1.852-1.238-5.611-4.279-7.482-5.755    c-0.3-0.136-0.652,0.217-1.846,1.08c-0.798,0.574-1.866,1.397-3.223,2.526c4.166,2.697,8.409,5.29,11.974,8.622    c1.886,4.292,3.167,9.777,4.64,13.71c1.048-0.301,2.142-1.09,3.17-1.832c0.532-0.383,1.038-0.8,1.512-1.192    c-0.563-3.023-2.304-6.059-2.993-9.397l0.058,0.009c2.569,1.326,5.124,4.377,7.618,5.807l0.058,0.009    c0.502-0.211,0.992-0.512,1.554-0.919c0.765-0.552,1.381-1.096,2.08-1.6c0.3-0.216,0.563-0.407,0.885-0.59    c-3.528-3.004-7.867-5.73-11.203-9.027C111.028,341.539,109.951,336.411,108.401,331.675z"/>
		<path style="fill:#000E3F;" d="M117.729,325.488l-0.823,0.531c-2.042,1.364-3.005,1.837-3.854,2.333    c-0.309,0.2-1.236,0.651-1.455,0.84l0.044,0.069c4.135,8.241,10.767,15.898,15.45,24.614c0.788-0.895,5.796-3.096,6.063-4.339    c-5.473-7.525-10.261-16.028-15.333-23.909L117.729,325.488z"/>
		<path style="fill:#000E3F;" d="M145.371,331.903c-1.226-2.553-2.691-4.78-3.996-7.384c-0.636-1.193-1.304-2.366-2.082-3.477    c-0.538-0.685-1.106-1.349-1.831-1.877c-0.75-0.655-1.679-1.116-2.696-1.333c-3.939-0.529-8.385,1.924-10.635,5.241    c-0.22,0.362-0.345,0.717-0.451,1.108c-0.502,2.505,0.412,5.002,1.597,7.153c1.886,3.874,4.308,7.44,6.567,11.053    c0.828,1.366,1.762,2.67,3.112,3.455c1.93,1.394,4.057,0.742,6.112-0.199c1.446-0.688,2.755-1.531,3.845-2.675    c1.234-1.225,2.255-2.658,2.42-4.263c0.058-1.874-0.549-3.838-1.396-5.569L145.371,331.903z M141.731,337.243    c-0.521,2.469-3.627,3.965-5.631,2.612c-1.357-1.298-2.337-3.096-3.543-4.623c-1.248-1.928-2.371-3.974-3.018-6.009    c-0.287-1.157-0.185-2.3,0.263-3.407c0.425-0.997,1.305-1.927,2.489-2.086c1.406-0.098,2.716,0.709,3.574,1.962    c0.505,0.797,1.283,1.908,1.305,1.942l1.455,2.376l0.976,1.705c0.06,0.107,0.471,0.909,0.989,1.888    C141.592,335.766,141.947,335.563,141.731,337.243z"/>
		<path style="fill:#000E3F;" d="M155.698,306.657c-1.519-0.13-4.123,1.721-5.434,2.491c2.615,5.781,5.7,11.974,8.293,17.993    c0.605,2.48-2.586,4.434-4.443,2.376c-3.439-5.884-6.468-11.874-9.079-17.932l-0.018-0.037c-1.67,0.308-3.774,1.598-5.285,2.329    l-0.035,0.016l0.053,0.02c3.247,6.431,6.194,13.189,9.33,19.674c2.375,4.443,8.332,3.79,12.302,1.372    c3.378-2.042,4.264-5.562,3.103-9.001C162.121,319.281,159.04,312.815,155.698,306.657z"/>
		<path style="fill:#000E3F;" d="M181.561,311.446c-2.333-1.595-5.329-2.186-8.154-1.438c-1.128,0.263-2.226,0.383-3.12-0.675    c-0.169-0.329-0.382-0.643-0.4-1.03c-0.692-3.025,4.666-3.925,5.138-0.901c1.986-0.202,4.065-1.186,5.74-2.189l0.038-0.016    c-0.761-4.096-3.289-5.967-6.221-6.277c-2.869-0.156-6.554,0.88-8.631,2.875c-4.097,3.921-3.723,11.769,2.706,14.408    c0.961,0.328,1.993,0.498,3.098,0.288c2.298-0.412,5.447-1.241,6.703,1.081c1.99,3.311-3.612,5.402-5.062,2.233    c-1.702,0.707-4.136,1.345-5.82,2.308l0.042,0.115l0.044,0.115c1.583,4.963,7.537,5.94,12.048,4.317    c3.172-1.102,5.653-3.649,5.656-7.252C185.564,316.303,184.248,313.038,181.561,311.446z"/>
		<path style="fill:#000E3F;" d="M193.894,316.297c-1.521,0.484-3.648,0.688-4.733,1.593l0.011,0.038    c0.46,1.444,0.983,4.714,1.335,4.602l2.915-0.97l0.076-0.024c0.585-0.186,0.87-0.234,1.495-0.432l0.274-0.087    C194.781,319.495,194.314,317.753,193.894,316.297z"/>
		<path style="fill:#000E3F;" d="M186.581,293.578c-1.581,0.03-3.447,1.053-4.775,1.604l-0.116,0.036    c1.83,7.238,4.419,13.889,6.485,20.792l0.04-0.012c1.508-0.523,3.656-1.207,4.971-1.797    C190.753,307.631,188.585,300.286,186.581,293.578z"/>
		<path style="fill:#000E3F;" d="M59.094,336.353c0.994-1.333,2.367-2.684,3.39-4.044c0.062-0.056,0.062-0.114,0.036-0.144    c-1.499-1.288-3.899-4.43-4.697-4.8c-0.81,0.932-2.484,2.622-3.754,3.541c-0.033,0.027-0.033,0.027-0.087,0.025    c-0.95-0.287-2.053-1.161-2.591-2.624c2.248-2.571,5.5-5.807,7.502-7.979c-0.863-1.096-3.174-3.366-4.157-4.409    c-4.125,2.313-11.542,10.324-13.255,12.619l0.024,0.031c8.742,9.263,12.164,13.013,18.964,20.221l0.06,0.002    c0.496-0.131,3.774-3.279,5.18-4.888c-2.102-2.292-4.492-4.824-6.645-7.523L59.094,336.353z"/>
		<path style="fill:#000E3F;" d="M88.109,324.726c-0.674-1.561-1.9-3.096-3.098-4.393l-0.049-0.065    c-2.833,2.423-5.694,4.291-8.507,6.541l-0.056-0.006c-0.916-0.947-2.424-2.572-3.2-3.997c0.171-0.71,2.56-2.046,3.588-3.447    c-1.285-1.541-2.244-3.133-3.619-4.393l-0.025-0.032c-1.336,1.017-2.655,2.123-4.01,3.05l-0.056-0.006    c-1.207-0.921-1.995-2.494-3.023-3.717l0.007-0.057l0.094-0.076c2.609-2.506,5.84-4.303,8.073-7.084l-0.025-0.032    c-1.205-1.503-2.207-3.216-3.634-4.54c-0.151-0.193-8.331,6.559-13.086,10.78c5.442,7.655,11.53,14.478,17.465,21.897    C79.35,332.201,83.732,328.172,88.109,324.726z"/>
		<path style="fill:#000E3F;" d="M104.193,313.581c-0.558-1.604-1.668-3.226-2.765-4.608l-0.045-0.068    c-3.003,2.209-5.992,3.862-8.963,5.9l-0.056-0.01c-0.845-1.011-2.23-2.742-2.898-4.221c0.218-0.695,2.702-1.853,3.832-3.175    c-1.17-1.631-2.01-3.289-3.289-4.646l-0.022-0.034c-1.406,0.916-2.804,1.922-4.225,2.749l-0.054-0.011    c-1.137-1.007-1.806-2.635-2.747-3.927l0.013-0.057l0.102-0.069c2.786-2.309,6.138-3.865,8.569-6.476l-0.025-0.033    c-1.088-1.588-1.964-3.37-3.289-4.795c-0.14-0.202-8.792,5.932-13.841,9.793c4.869,8.034,10.44,15.285,15.813,23.119    C94.912,320.396,99.576,316.699,104.193,313.581z"/>
		<path style="fill:#000E3F;" d="M106.228,312.493c11.454-6.536,12.85-7.79,13.902-8.268c0.987-0.584,1.197-0.47-0.979-3.749    c-0.267-0.367-0.543-0.917-0.78-1.395c-0.109-0.268-0.276-0.55-0.421-0.797c-1.047,0.81-8.505,4.363-9.254,5.187l-0.024-0.035    c-3.479-6.125-7.88-12.846-11.307-19.048c-1.677,0.228-4.982,2.278-5.705,3.229c6,9.821,8.362,13.417,14.192,24.242    L106.228,312.493z"/>
		<path style="fill:#000E3F;" d="M122.582,303.171c0.867-0.824,6.049-2.577,6.428-3.794c-4.797-7.978-8.823-16.87-13.186-25.167    l-0.076-0.145l-0.871,0.457c-2.155,1.179-3.156,1.565-4.043,1.987c-0.327,0.172-1.29,0.539-1.524,0.709l0.036,0.072    C112.747,285.864,118.683,294.075,122.582,303.171z"/>
		<path style="fill:#000E3F;" d="M129.79,295.848l1.198,2.605c1.154-0.53,2.486-0.873,3.674-1.419    c0.558-0.257,1.063-0.534,1.553-0.939c-0.431-0.838-0.927-1.917-1.459-3.07c-1.913-4.167-4.232-9.501-4.085-9.57    c0.113-0.051,0.556,0.422,0.998,0.894l0.883,0.946c2.609,2.632,5.913,5.305,9.239,8.234c1.005-0.462,2.506-0.925,3.51-1.387    c0.858-0.394,1.048-0.663,1.139-0.751l-0.338-0.745c-0.463-1.005-0.943-1.955-1.405-2.959c-0.636-1.376-1.196-2.695-1.864-4.146    c-0.974-2.12-1.966-4.278-2.964-6.344l-5.507-11.979c-0.774,0.176-1.63,0.479-2.557,0.906c-0.93,0.428-1.79,0.913-2.578,1.454    c0.529,1.245,0.97,2.304,1.452,3.345c0.818,1.786,1.682,3.372,2.591,5.344c0.394,0.855,0.774,1.986,0.679,2.166    c-0.113,0.051-5.36-4.206-5.981-4.777c-1.853-1.672-2.306-1.779-3.852-3.276c-0.102-0.223-2.624,0.756-3.258,1.047    c-0.594,0.274-1.17,0.584-1.604,0.918c1.194,3.281,2.675,6.701,4.25,10.124C125.64,287.12,127.617,291.124,129.79,295.848z"/>
		<path style="fill:#000E3F;" d="M142.233,274.692c1.296,3.841,2.129,5.495,3.647,8.642c0.5,0.993,1.092,1.995,1.459,2.514    c1.426,1.959,2.927,3.06,5.287,3.188c2.838,0.124,5.771-1.621,8.031-3.289c1.686-1.456,2.651-3.211,1.948-5.919    c-0.525-2.947-1.899-6.06-3.22-8.67l-0.051-0.023l-0.078,0.028c-1.034,0.384-6.801,1.784-7.805,3.073    c-0.024,0.053-0.064,0.067-0.064,0.067c-0.038,0.014-0.038,0.014-0.023,0.053l0.016,0.038c0.847,1.693,0.843,2.393,1.646,3.972    c0.57,0.005,2.211-0.866,2.867-0.978c0.351,0.001,0.778,1.851,0.816,2.316c0.08,0.8-0.198,1.341-0.674,1.823    c-0.629,0.539-1.441,1.058-2.251,1.228c-0.371,0.051-0.721,0.05-1.01-0.017c-1.243-0.412-2.004-1.875-2.535-2.944    c-1.731-3.723-3.345-8.536-3.527-11.262c-0.044-0.464-0.035-1.035,0.036-1.192c0.385-0.842,1.288-1.002,2.186-1.291    c1.494-0.556,3.098,1.293,3.792,2.214c1.602-0.377,2.149-0.668,3.648-1.224c0.79-0.337,1.112-0.412,1.168-0.61l-0.047-0.245    c-1.593-6.523-7.482-7.567-12.926-4.715c-1.312,0.705-2.487,1.535-3.196,2.802c-1.11,1.592-0.979,3.464-0.622,5.252    C141.094,271.273,141.661,273.028,142.233,274.692z"/>
	</g>
	<g>
		<g>
			<path style="fill:#FD8A02;" d="M444.293,179.873c3.698,1.499,6.808,2.927,9.496,2.972c2.667,0.044,3.642-3.485,1.544-4.745     c-3.431-2.062-9.831-3.283-9.844-4.317c-0.013-1.018,1.353-1.1,2.193-1.443c4.67-1.908,7.674-2.686,10.505-4.489     c2.149-1.368,0.327-5.043-1.872-4.719c-2.123,0.314-4.208,1.417-14.321,5.23c-3.352,1.264-1.889-2.401-0.926-6.979     c0.546-2.599,0.232-6.153-2.408-6.289c-2.178-0.113-2.66,1.96-3.174,4.093c-2.702,11.232-0.891,10.736-9.357-0.506     c-1.555-2.065-3.646-4.469-5.668-2.733c-2.062,1.771,0.001,4.079,3.382,9.057c0.445,0.655,1.108,1.171,1.495,1.851     c0.857,1.504,2.269,2.668,2.701,4.426c-1.857,1.047-3.582-0.263-5.379-0.339c-2.88-0.12-4.836-1.724-7.406-0.055     c-1.001,0.65-1.25,2.031-0.44,2.877c3.954,4.131,12.563,2.039,8.852,5.922c-4.798,5.018-6.092,6.002-7.651,8.479     c-1.47,2.338,1.035,4.723,3.348,3.258c3.836-2.43,9.246-9.308,10.342-8.812c1.143,0.517-2.553,10.51-1.52,13.421     c0.746,2.104,2.915,2.328,4.065,0.746c1.748-2.405,1.686-3.887,3.462-11.331c0.138-0.579,0.192-1.363,0.99-1.39     c0.713-0.024,1.036,0.656,1.343,1.191c1.551,2.707,4.957,8.857,5.159,9.121c1.9,2.495,6.266,0.327,4.673-2.746     c-5.536-10.678-8.135-13.063-3.622-11.659C444.269,179.934,444.281,179.903,444.293,179.873z"/>
			<path style="fill:#FD8A02;" d="M458.736,88.238c3.928,1.464,8.948,3.738,9.83,0.661c0.615-2.145-1.373-2.755-3.708-3.583     c-1.338-0.474-5.259-1.41-5.286-2.072c-0.037-0.905,0.574-0.576,7.499-3.64c2.027-0.897,4.323-2.006,3.227-3.929     c-1.496-2.625-2.198-1.484-13.702,3.228c-2.704,1.108-1.595-1.915-0.916-5.67c0.386-2.132,0.046-5.023-2.109-5.073     c-1.783-0.041-2.126,1.67-2.494,3.412c-1.945,9.222-0.478,8.777-7.643-0.196c-1.316-1.648-3.077-3.561-4.686-2.098     c-2.779,2.526,5.697,9.288,6.535,12.331c-1.49,0.896-2.927-0.132-4.395-0.152c-2.352-0.032-3.98-1.297-6.042,0.126     c-2.148,1.483,0.518,3.553,3.108,4.139c6.675,1.51,5.952,0.4-0.503,7.729c-1.291,1.467-2.751,3.403-1.298,4.686     c1.566,1.382,3.255-0.305,4.879-1.913c7.207-7.139,6.743-8.384,4.838,2.879c-0.841,4.973,3.662,6.099,4.858-0.388     c1.778-9.637,1.328-8.811,6.446-0.28c0.481,0.802,1.669,3.71,4.149,2.041c0.913-0.615,1.218-1.634,0.607-2.735     c-4.758-8.572-6.943-10.463-3.224-9.425C458.717,88.288,458.727,88.263,458.736,88.238z"/>
			<path style="fill:#FD8A02;" d="M351.285,72.68c1.677,3.32,2.983,6.229,4.842,7.91c1.845,1.667,4.693-0.212,3.994-2.383     c-1.143-3.55-4.885-8.335-4.261-9.068c0.615-0.722,1.625,0.059,2.424,0.332c4.448,1.525,7.034,2.821,10.126,3.293     c2.348,0.358,3.323-3.339,1.581-4.46c-1.679-1.081-3.803-1.579-13.259-5.114c-3.127-1.169,0.148-2.844,3.631-5.466     c1.977-1.489,3.936-4.176,2.167-5.89c-1.463-1.418-3.079-0.249-4.738,0.926c-8.785,6.225-7.209,6.989-6.256-6.094     c0.174-2.403,0.182-5.373-2.302-5.395c-2.601-0.023-2.531,3.108-3.181,8.431c-0.09,0.732,0.059,1.501-0.086,2.216     c-0.321,1.581-0.043,3.264-0.819,4.763c-1.945-0.405-2.352-2.382-3.567-3.537c-1.947-1.851-2.337-4.176-5.164-4.581     c-1.101-0.158-2.123,0.658-2.074,1.749c0.241,5.32,7.569,9.137,2.58,9.586c-7.672,0.69-12.569,0.45-12.253,3.561     c0.24,2.374,2.966,2.27,5.575,2.181c11.61-0.396,12.209-1.838,1.824,6.167c-4.426,3.412-1.78,8.045,4.376,3.444     c8.977-6.708,7.946-6.344,5.622,4.766c-0.151,0.723-0.387,1.439-0.436,2.169c-0.198,2.914,4.197,4.076,4.963,0.939     c2.654-10.847,2.283-14.179,4.609-10.404C351.231,72.707,351.258,72.693,351.285,72.68z"/>
		</g>
		<g>
			<path style="fill:#FD8A02;" d="M60.705,229.482c-3.931-0.686-7.272-1.426-9.909-0.903c-2.616,0.519-2.826,4.175-0.509,4.963     c3.788,1.293,10.302,1.137,10.532,2.145c0.228,0.993-1.091,1.36-1.84,1.873c-4.163,2.85-6.935,4.244-9.323,6.603     c-1.813,1.79,0.743,4.999,2.824,4.219c2.009-0.754,3.815-2.272,12.897-8.13c3.01-1.942,2.352,1.949,2.376,6.627     c0.014,2.655,1.07,6.063,3.68,5.64c2.153-0.349,2.188-2.477,2.24-4.67c0.274-11.549-1.392-10.683,9.253-1.478     c1.955,1.691,4.506,3.6,6.117,1.477c1.643-2.166-0.861-3.987-5.215-8.141c-0.572-0.546-1.33-0.911-1.852-1.494     c-1.155-1.289-2.781-2.13-3.573-3.758c1.594-1.414,3.557-0.497,5.33-0.803c2.841-0.49,5.091,0.666,7.252-1.507     c0.841-0.846,0.794-2.248-0.176-2.905c-4.736-3.205-12.711,0.655-9.901-3.924c3.632-5.916,4.69-7.151,5.691-9.901     c0.945-2.595-2.007-4.399-3.959-2.479c-3.238,3.184-7.076,11.047-8.252,10.794c-1.227-0.264,0.28-10.812-1.343-13.44     c-1.173-1.9-3.341-1.661-4.131,0.127c-1.202,2.719-0.828,4.155-0.996,11.807c-0.013,0.595,0.1,1.373-0.675,1.568     c-0.692,0.174-1.151-0.423-1.564-0.881c-2.087-2.319-6.713-7.613-6.965-7.829c-2.383-2.039-6.194,1.001-3.989,3.669     c7.663,9.272,10.706,11.056,5.998,10.634C60.716,229.418,60.711,229.45,60.705,229.482z"/>
			<path style="fill:#FD8A02;" d="M9.756,376.939c-4.149-0.603-9.535-1.768-9.748,1.426c-0.15,2.226,1.923,2.404,4.38,2.72     c1.408,0.182,5.438,0.27,5.604,0.911c0.227,0.877-0.44,0.684-6.563,5.139c-1.792,1.305-3.803,2.872-2.327,4.521     c2.015,2.25,2.461,0.988,12.714-6.043c2.41-1.653,1.963,1.535,2.091,5.35c0.072,2.166,1.013,4.92,3.131,4.515     c1.752-0.335,1.727-2.081,1.719-3.86c-0.042-9.425-1.383-8.681,7.512-1.419c1.634,1.333,3.759,2.832,5.023,1.063     c2.184-3.055-7.526-7.879-8.987-10.676c1.267-1.19,2.889-0.488,4.328-0.778c2.306-0.465,4.164,0.429,5.879-1.397     c1.787-1.902-1.255-3.364-3.911-3.391c-6.843-0.069-5.903,0.863-1.137-7.661c0.953-1.706,1.972-3.906,0.281-4.854     c-1.822-1.021-3.118,0.984-4.366,2.898c-5.541,8.497-4.825,9.617-5.336-1.794c-0.226-5.039-4.865-5.19-4.668,1.404     c0.292,9.795,0.559,8.893-6.242,1.632c-0.639-0.683-2.414-3.275-4.486-1.12c-0.763,0.793-0.846,1.854-0.017,2.802     c6.458,7.377,8.993,8.765,5.138,8.534C9.764,376.886,9.76,376.913,9.756,376.939z"/>
			<path style="fill:#FD8A02;" d="M81.536,440.401c-2.339-2.892-4.229-5.461-6.401-6.711c-2.155-1.241-4.543,1.196-3.402,3.171     c1.865,3.229,6.533,7.118,6.077,7.966c-0.45,0.836-1.601,0.285-2.44,0.186c-4.669-0.553-7.471-1.275-10.593-1.084     c-2.37,0.144-2.545,3.964-0.605,4.693c1.869,0.702,4.05,0.742,14.039,2.204c3.303,0.484,0.455,2.811-2.398,6.109     c-1.619,1.872-2.967,4.911-0.877,6.215c1.729,1.078,3.062-0.405,4.437-1.904c7.275-7.936,5.574-8.352,7.4,4.638     c0.336,2.385,0.955,5.291,3.388,4.788c2.547-0.526,1.819-3.571,1.333-8.912c-0.067-0.734-0.374-1.455-0.383-2.185     c-0.019-1.613-0.646-3.2-0.203-4.829c1.987-0.015,2.802,1.833,4.233,2.706c2.294,1.399,3.165,3.59,6.014,3.39     c1.109-0.078,1.936-1.091,1.659-2.147c-1.357-5.15-9.324-7.336-4.543-8.827c7.354-2.291,12.192-3.089,11.227-6.064     c-0.735-2.27-3.377-1.593-5.909-0.957c-11.266,2.834-11.548,4.37-3.083-5.644c3.607-4.268,0.044-8.239-5.003-2.444     c-7.362,8.449-6.43,7.877-6.5-3.474c-0.005-0.738,0.075-1.489-0.031-2.212c-0.421-2.89-4.962-3.1-5.05,0.128     c-0.308,11.163,0.757,14.342-2.313,11.142C81.584,440.363,81.56,440.382,81.536,440.401z"/>
		</g>
	</g>
</g>















</svg>
