<?xml version="1.0" encoding="UTF-8"?>
<!-- Generator: Adobe Illustrator 25.2.3, SVG Export Plug-In . SVG Version: 6.00 Build 0)  -->
<svg xmlns="http://www.w3.org/2000/svg" xmlns:xlink="http://www.w3.org/1999/xlink" version="1.1" id="Capa_1" x="0px" y="0px" viewBox="0 0 512 512" style="enable-background:new 0 0 512 512;" xml:space="preserve" width="512" height="512">
<g>
	<path style="fill:#091438;" d="M76.526,164.082c-39.579-1.633-63.941-33.599-44.044-135.366c0,0,454.28-100.858,420.4,75.461   c0,0,108.006,26.147,15.12,144.747l-17.433,67.762l-59.281,35.806l-82.835-3.466l-184.077-70.071L76.526,164.082z"/>
	<path style="fill:#EA4A0C;" d="M358.174,389.062l8.468,89.312c0,0-244.847,87.003-360.34-41.572L97.157,335.94L44.801,313.6   c0,0,18.51-89.521,31.724-149.518c52.354,2.184,131.383-48.727,169.914-61.444c67.632-22.329,100.962,25.404,100.962,25.404   c-89.325,110.109-3.086,133.974-3.086,133.974l-14.627,47.124l47.735,18.323v-43.117c0,0,55.039-50.633,90.577-35.422   c3.667,1.572,7.12,3.827,10.285,6.927C512.166,288.969,435.94,422.166,358.174,389.062z"/>
	<path style="fill:#FFFFFF;" d="M252.949,291.017c0,11.205-18.73,20.275-41.836,20.275c-23.104,0-41.835-9.069-41.835-20.275   c0-11.197,18.731-20.271,41.835-20.271C234.219,270.746,252.949,279.82,252.949,291.017z"/>
	<path style="fill:#FFFFFF;" d="M132.683,286.031c0,11.197-15.627,20.27-34.899,20.27c-19.281,0-34.908-9.074-34.908-20.27   c0-11.197,15.627-20.271,34.908-20.271C117.056,265.76,132.683,274.834,132.683,286.031z"/>
	<path style="fill:#091438;" d="M142.584,201.446c-0.434-1.472,0,150.913,0,150.913s66.736,25.15,79.57,16.431   c12.83-8.731-22.079-28.745-22.079-28.745s24.127,22.582,14.379,24.632c-9.758,2.055-63.144-17.45-63.144-17.45   S154.906,243.031,142.584,201.446z"/>
	<path style="fill:#091438;" d="M199.052,374.435c0,0-60.573,23.609-25.16,116.52l121.147-3.595c0,0,14.372-207.375-62.626-129.356   c0,0,10.268-32.854,42.094-26.691c31.827,6.163,40.036,130.433,29.772,175.831L162.787,512   C162.787,512,116.924,384.18,199.052,374.435z"/>
	<path style="fill:#091438;" d="M236.789,290.443c0,6.341-5.286,11.474-11.8,11.474c-6.525,0-11.811-5.134-11.811-11.474   c0-6.345,5.286-11.487,11.811-11.487C231.503,278.956,236.789,284.098,236.789,290.443z"/>
	<path style="fill:#091438;" d="M124.374,286.031c0,6.334-5.286,11.476-11.802,11.476c-6.52,0-11.807-5.142-11.807-11.476   c0-6.343,5.287-11.477,11.807-11.477C119.087,274.555,124.374,279.689,124.374,286.031z"/>
	
		<rect x="53.019" y="219.928" transform="matrix(0.9694 -0.2456 0.2456 0.9694 -54.129 30.4044)" style="fill:#091438;" width="83.663" height="24.639"/>
	
		<rect x="198.023" y="157.438" transform="matrix(0.1921 -0.9814 0.9814 0.1921 -31.7858 372.5063)" style="fill:#091438;" width="24.64" height="96.239"/>
	<path style="fill:#091438;" d="M441.536,309.362c0,0-19.379-2.56-39.71,17.195c-20.335,19.746-20.657,58.776,11.963,39.163   c32.62-19.621,11.646-27.142-0.776-20.891l17.596-13.863l-26.415,18.126c0,0,28.194-6.205,21.859,3.925   c-6.334,10.134-34.729,25.083-34.398,3.486C392.247,318.511,441.536,309.362,441.536,309.362z"/>
	<g style="opacity:0.1;">
		<path style="fill:#FFFFFF;" d="M47.881,72.605c0,0,7.182,85.466,87.52,53.128c80.33-32.338,167.333-78.535,235.863-7.698    c0,0-31.818-63.91-118.316-39.267C166.455,103.405,78.68,172.705,47.881,72.605z"/>
		<path style="fill:#FFFFFF;" d="M47.881,41.808c0,0,26.179,78.917,81.614,61.02C184.935,84.928,275.017,24.104,348.165,78    c0,0-51.585-56.212-137.052-13.092C125.649,108.027,86.38,118.036,47.881,41.808z"/>
		<path style="fill:#FFFFFF;" d="M406.774,133.137c-50.062,18.02-87.399,61.043-54.759,113.683    c-37.363-52.427,1.176-101.116,51.493-122.326L406.774,133.137z"/>
		<path style="fill:#FFFFFF;" d="M407.171,155.293c-27.699,11.876-55.27,40.586-48.997,73.031    c-9.639-33.561,17.141-66.106,44.938-81.333L407.171,155.293z"/>
		<path style="fill:#FFFFFF;" d="M460.038,163.352c-44.571,8.508-92.841,42.776-79.048,95.751    c-16.987-51.588,27.503-89.947,70.862-102.936C460.805,153.318,457.147,153.378,460.038,163.352z"/>
	</g>
	<g>
		<path style="fill:#FFFFFF;" d="M234.112,385.02c11.415-0.305,23.836-7.341,26.561-19.046c6.633,6.742,13.621,18.206,15.27,27.644    c4.69,14.35,1.324,34.838-8.852,46.206c-3.335,3.726-4.752,3.929-6.991,3.979L234.112,385.02z"/>
		<path style="fill:#091438;" d="M279.364,407.99c-0.088,4.643-0.739,9.621-2.117,14.92c-9.679,37.125-38.699,16.798-38.699,16.798    s27.492,16.552,35.939-17.304c8.452-33.843-13.712-54.208-13.712-54.208c-9.416,29.091-47.295,14.406-47.295,14.406    s36.342,10.911,47.011-18.085C260.49,364.518,279.915,380.143,279.364,407.99"/>
		<polyline style="fill:#091438;" points="275.301,389.901 257.981,408.249 276.198,393.497 275.689,389.901   "/>
		<path style="fill:#091438;" d="M255.412,367.825c0,0,5.261-3.461,13.855-0.647c0,0-7.821-5.842-13.855-2.66V367.825z"/>
	</g>
</g>















</svg>
