<?xml version="1.0" encoding="UTF-8"?>
<!-- Generator: Adobe Illustrator 25.2.3, SVG Export Plug-In . SVG Version: 6.00 Build 0)  -->
<svg xmlns="http://www.w3.org/2000/svg" xmlns:xlink="http://www.w3.org/1999/xlink" version="1.1" id="Capa_1" x="0px" y="0px" viewBox="0 0 512 512" style="enable-background:new 0 0 512 512;" xml:space="preserve" width="512" height="512">
<g>
	<path style="fill:#091438;" d="M361.164,327.754c-8.48,7.634-14.401,17.709-16.864,28.85c-4.369,19.765-6.24,49.202,18.44,56.817   c38.061,11.738,56.597-41.857,70.62-3.785c14.024,38.061,30.552,42.569,54.1,18.031c23.54-24.549,15.022,15.221,15.022,15.221   s17.53-61.307,5.008-64.312c-12.522-3.005-17.029,24.045-26.045,4.508c-9.015-19.534,32.055-119.708-107.186-67.118   L361.164,327.754z"/>
	<path style="fill:#091438;" d="M79.171,96.579c-5.223-26.304-6.333-56.073-1.986-89.783c0,0,233.207,11.784,383.065,137.226   l-61.697,111.036l-14.077,45.83l-58.088,10.675h-68.193l-189.43-76.611l5.894-85.934L79.171,96.579z"/>
	<g>
		<path style="fill:#FF783E;" d="M445.095,298.091c-25.257,46.308-113.652,30.311-113.652,30.311L274.694,400.2l-260.512-43.45    c-26.715-63.179-21.217-148.608,64.99-260.171c34.184,172.588,244.694,194.778,244.694,194.778    c19.728-24.752,49.229-35.595,74.689-36.298C432.768,254.115,459.573,271.53,445.095,298.091z"/>
	</g>
	<path style="fill:#FFC524;" d="M274.694,400.2l-83.012,105.003c0,0-133.156-43.544-177.507-148.448   c39.638-14.441,139.557-44.618,238.967-24.986L274.694,400.2z"/>
	<g style="opacity:0.2;">
		<path style="fill:#FFFFFF;" d="M124.328,36.446c-0.756,101.345,79.083,181.548,171.191,212.817    c-95.843-28.847-178.961-109.46-181.288-213.169L124.328,36.446z"/>
		<path style="fill:#FFFFFF;" d="M154.192,76.847c38.083,82.178,126.792,145.98,216.535,159.719    c-91.697-10.5-184.617-73.673-225.745-155.566L154.192,76.847z"/>
		<path style="fill:#FFFFFF;" d="M199.491,41.18c10.499,71.41,61.92,135.72,125.211,168.337    c-66.397-30.439-121.32-94.379-135.217-166.938L199.491,41.18z"/>
	</g>
	<path style="fill:#091438;" d="M420.121,291.201c0,0-10.346-15.962-33.156-12.383c-5.513,0.86-10.916,3.563-15.515,7.237   c-14.448,11.546-20.99,32.693,1.889,36.639c30.17,5.188,21.502-16.383,10.656-19.461l18.02-0.169l-25.628-2.175   c0,0,20.355,14.223,11.118,18.937c-9.222,4.722-34.337-1.736-22.642-21.047C385.458,264.786,420.121,291.201,420.121,291.201z"/>
	<g>
		<path style="fill:#FFC524;" d="M381.111,387.728c-16.868,0-30.59-12.295-30.59-27.413c0-15.118,13.722-27.413,30.59-27.413    c16.868,0,30.59,12.296,30.59,27.413C411.702,375.433,397.98,387.728,381.111,387.728z M381.111,336.267    c-15.01,0-27.226,10.789-27.226,24.049c0,13.259,12.216,24.048,27.226,24.048c15.01,0,27.226-10.79,27.226-24.048    C408.337,347.056,396.122,336.267,381.111,336.267z"/>
		<path style="fill:#FFC524;" d="M389.232,357.386c0,8.01-4.141,14.491-9.249,14.491c-5.112,0-9.256-6.481-9.256-14.491    c0-7.994,4.145-14.49,9.256-14.49C385.091,342.896,389.232,349.392,389.232,357.386z"/>
	</g>
	<g>
		<path style="fill:#FFFFFF;" d="M124.655,325.745l81.96-25.655c0,0-4.137-41.066-35.821-41.219    C139.113,258.715,124.655,325.745,124.655,325.745z"/>
		<path style="fill:#091438;" d="M127.318,326.318l-5.326-1.147c0.61-2.822,15.276-69.022,48.692-69.022c0.042,0,0.082,0,0.124,0    c33.744,0.16,38.472,43.234,38.518,43.67l-5.42,0.547c-0.163-1.579-4.288-38.631-33.125-38.772c-0.033,0-0.065,0-0.098,0    C141.613,261.593,127.457,325.672,127.318,326.318z"/>
		<path style="fill:#091438;" d="M169.766,287.504c1.298,7.283,6.125,12.509,10.782,11.684c4.661-0.833,7.394-7.401,6.098-14.682    c-1.296-7.279-6.125-12.502-10.786-11.68C171.2,273.652,168.474,280.221,169.766,287.504z"/>
	</g>
	<g>
		<path style="fill:#FFFFFF;" d="M85.9,329.381l-71.62-4.779c0,0-5.167-46.549,19.455-46.763    C58.353,277.617,85.9,329.381,85.9,329.381z"/>
		<path style="fill:#091438;" d="M83.495,330.661c-0.265-0.505-26.941-50.1-49.596-50.1c-0.048,0-0.094,0-0.14,0    c-4.001,0.034-7.209,1.475-9.807,4.405c-9.957,11.221-6.997,39.055-6.966,39.334l-5.414,0.604    c-0.137-1.243-3.24-30.54,8.306-43.555c3.628-4.087,8.281-6.186,13.833-6.232c0.058,0,0.119,0,0.178,0    c25.918,0,53.261,50.815,54.415,52.983L83.495,330.661z"/>
		<path style="fill:#091438;" d="M47.38,308.62c1.851,7.158,7.068,12.002,11.65,10.817c4.586-1.182,6.792-7.949,4.942-15.106    c-1.849-7.157-7.062-12.005-11.648-10.813C47.742,294.699,45.528,301.462,47.38,308.62z"/>
	</g>
	
		<rect x="5.935" y="245.608" transform="matrix(0.9543 -0.2989 0.2989 0.9543 -74.2813 22.3621)" style="fill:#091438;" width="60.064" height="16.835"/>
	
		<rect x="151.678" y="199.741" transform="matrix(0.1033 -0.9946 0.9946 0.1033 -95.9687 375.1634)" style="fill:#091438;" width="16.836" height="82.138"/>
	
		<rect x="223.027" y="313.924" transform="matrix(0.8269 -0.5623 0.5623 0.8269 -130.1792 211.6012)" style="fill:#091438;" width="111.301" height="6.732"/>
	
		<rect x="239.504" y="362.221" transform="matrix(0.719 -0.6951 0.6951 0.719 -171.7597 306.3938)" style="fill:#091438;" width="106.979" height="6.733"/>
	<g style="opacity:0.2;">
		<polygon style="fill:#FFFFFF;" points="70.2,358.415 192.244,357.884 70.517,366.673   "/>
		<polygon style="fill:#FFFFFF;" points="183.259,387.373 104.653,393.781 182.158,379.183   "/>
		<polygon style="fill:#FFFFFF;" points="76.357,416.162 214.327,411.238 76.9,424.413   "/>
		<polygon style="fill:#FFFFFF;" points="108.174,443.124 192.469,432.786 109.578,451.268   "/>
	</g>
	<path style="fill:#FFFFFF;" d="M86.493,346.784l-8.143-8.927c10.241-9.375,36.107-22.064,60.686-2.978l-7.414,9.543   C109.037,326.873,87.401,345.966,86.493,346.784z"/>
</g>















</svg>
