<?xml version="1.0" encoding="UTF-8"?>
<!-- Generator: Adobe Illustrator 25.4.1, SVG Export Plug-In . SVG Version: 6.00 Build 0)  -->
<svg xmlns="http://www.w3.org/2000/svg" xmlns:xlink="http://www.w3.org/1999/xlink" version="1.1" id="Capa_1" x="0px" y="0px" viewBox="0 0 512 512" style="enable-background:new 0 0 512 512;" xml:space="preserve" width="512" height="512">
<g>
	<g>
		<g>
			<path style="fill:#FC09B2;" d="M3.168,303.542c0.345-4.003,1.456-8.062,2.743-12.76c1.506-5.499,3.212-11.73,4.006-19.269     c0.214-2.243,1.017-3.66,2.388-4.203c1.01-0.399,2.233-0.256,3.738,0.433c6.027,2.823,14.736-0.339,21.736-2.88     c1.929-0.7,3.752-1.361,5.408-1.864l0.258-0.079c7.815-2.374,20.894-6.348,26.083,3.58c2.005,3.836,2.728,8.078,2.274,13.353     c-0.294,3.405-1.04,6.814-1.762,10.111c-0.326,1.483-0.648,2.955-0.924,4.405l-0.374,1.931     c-0.709,3.649-1.379,7.096-1.655,10.297c-0.303,3.513-0.06,6.214,0.741,8.262c0.167,0.429,0.646,0.592,1.417,0.484     c3.178-0.447,10.61-6.297,11.991-20.771c0.067-0.711,0.13-1.401,0.188-2.07c1.084-12.563,0.451-18.114-0.011-22.168     c-0.207-1.826-0.387-3.403-0.366-5.183c0.001-0.086,0.006-0.174,0.013-0.262c0.084-0.976,0.591-1.883,1.391-2.489     c0.809-0.613,1.841-0.854,2.83-0.665c6.069,1.168,13.638,6.205,17.978,10.576c6.236,6.277,9.572,14.504,8.924,22.008     c-0.094,1.092-0.272,2.183-0.529,3.241c-1.151,4.724-3.434,10.035-5.642,15.173c-2.915,6.783-5.927,13.794-6.425,19.564     c-0.141,1.632-0.073,3.123,0.201,4.429c0.032,0.166,0.178,0.254,0.294,0.301c0.477,0.192,1.422,0.096,2.638-0.753     c10.447-7.302,13.081-21.653,15.005-32.13c1.241-6.764,2.061-11.231,4.556-12.533c0.933-0.487,1.981-0.471,3.113,0.044     c2.17,0.98,2.283,1.102,5.156,4.231l1.307,1.419c12.891,13.918,25.08,37.49,23.244,58.778c-0.733,8.506-3.62,15.901-8.578,21.981     c-10.158,12.476-26.938,12.507-38.727,7.224c0.021,0.067,0.043,0.138,0.065,0.21c0.582,1.923,1.556,5.143,1.229,8.937     c-0.567,6.572-4.78,12.421-12.523,17.383c-16.923,10.836-44.384,3.066-61.157-10.707l-0.448-0.369     c-8.496-6.988-8.658-7.12-16.075-15.788l-2.788-3.25c-3.541-4.12-3.912-4.551-4.739-6.036c-0.329-0.588-0.475-1.247-0.418-1.903     c0.152-1.767,1.695-3.1,3.511-3.038c0.952,0.034,2.133,0.151,3.5,0.286c6.961,0.691,18.611,1.845,30.22-4.451     c1.295-0.699,2.565-2.425,2.669-3.624c0.047-0.545-0.169-0.638-0.344-0.714c-4.384-1.893-9.882-1.744-15.199-1.598     c-3.752,0.102-7.632,0.208-11.128-0.405c-13.568-2.404-22.571-14.211-22.938-30.078c-0.005-0.141,0-0.285,0.012-0.426     c0.097-1.126,0.694-2.089,1.638-2.639c1.152-0.673,2.645-0.652,4.201,0.057c0.45,0.205,0.905,0.449,1.409,0.72     c1.828,0.982,4.331,2.326,10.287,3.416l0.791,0.145c5.359,0.972,7.578,1.373,13.364,0.04c2.256-0.516,5.339-2.508,5.405-3.282     c-0.267-0.559-3.286-1.126-6.204-1.677c-2.05-0.386-4.6-0.866-7.643-1.551c-11.974-2.688-19.371-5.043-21.108-15.076     C3.043,307.882,2.972,305.813,3.168,303.542z"/>
			<g style="opacity:0.45;">
				<path style="fill:#000E3F;" d="M58.587,276.692c1.475,8.003-1.417,17.672-5.973,24.374c-0.43,0.633-1.292,0.797-1.925,0.367      c-0.801-0.545-0.596-1.587-0.579-1.431c0.857-5.619,4.946-17.137,3.402-26.348c-0.354-1.943-1.173-3.821-1.111-3.663      c-0.249-0.642,0.07-1.365,0.712-1.615C55.263,267.543,58.072,273.525,58.587,276.692z"/>
				<path style="fill:#000E3F;" d="M35.134,312.473l0.177,0.009c1.405,0.077,1.807,1.972,0.548,2.613      c-16.647,8.407-29.519-8.069-25.539-9.638c0.45-0.177,0.94-0.084,1.29,0.203C21.584,313.835,28.187,312.093,35.134,312.473z"/>
				<path style="fill:#000E3F;" d="M89.373,333.312c-0.404,0.639-1.249,0.828-1.887,0.425c-0.947-0.6-0.555-1.783-0.554-1.628      c3.228-9.99,10.369-25.556,10.519-40.787c-0.171-8.005-1.272-9.607-1.616-14.108c-0.114-1.493,2.009-1.936,2.496-0.514      C98.756,278.879,111.217,298.79,89.373,333.312z"/>
				<path style="fill:#000E3F;" d="M137.502,321.825c10.02,22.912,1.07,48.523-25.03,52.739c-0.745,0.121-1.448-0.386-1.568-1.132      c-0.182-1.126,1.024-1.638,0.862-1.495c9.802-3.841,18.066-9.36,21.911-19.166c5.773-13.719,0.912-32.62,1.394-30.184      c-0.137-0.694,0.314-1.368,1.008-1.506C136.68,320.962,137.266,321.285,137.502,321.825z"/>
				<path style="fill:#000E3F;" d="M114.407,352.756c-2.734,2.026-5.906,3.203-9.05,3.984c-0.735,0.182-1.478-0.265-1.661-1      c-0.255-1.026,0.769-1.674,0.647-1.525c4.235-2.971,9.348-6.247,12.309-11.674c3.397-5.749,3.852-11.866,4.511-16.658      c0.193-1.405,2.196-1.507,2.532-0.129C123.653,326.802,128.258,343.112,114.407,352.756z"/>
				<path style="fill:#000E3F;" d="M92.82,388.749c-16.409,18.871-43.386,21.756-58.377-0.02c-0.429-0.622-0.271-1.474,0.351-1.902      c0.939-0.647,1.919,0.224,1.72,0.138c7.67,7.211,16.198,12.314,26.705,11.587c14.87-0.661,29.866-13.152,27.871-11.672      c0.568-0.422,1.37-0.302,1.792,0.266C93.248,387.637,93.207,388.305,92.82,388.749z"/>
				<path style="fill:#000E3F;" d="M54.977,381.133c-3.002-1.602-5.424-3.964-7.477-6.47c-0.48-0.586-0.394-1.449,0.192-1.929      c0.818-0.67,1.842-0.022,1.655-0.069c4.499,2.554,9.65,5.77,15.822,6.12c6.65,0.607,12.372-1.604,16.984-3.061      c1.352-0.427,2.303,1.339,1.202,2.232C82.389,378.368,69.626,389.517,54.977,381.133z"/>
				<path style="fill:#000E3F;" d="M46.31,348.656c10.749-2.188,7.991-2.332,11.446-3.347c0.369-0.116,5.841-2.801,5.682-2.726      c1.417-0.66,2.648,1.216,1.479,2.254c-3.272,2.901-6.982,5.548-11.235,7.092c-10.588,4.998-27.569,2.691-38.135-6.013      c-1.144-0.943-0.026-2.76,1.331-2.164C28.964,349.066,37.226,349.455,46.31,348.656z"/>
				<path style="fill:#000E3F;" d="M21.238,297c6.486,1.679,9.748,0.431,9.375,2.892c-0.355,2.334-8.974,4.95-15.505,0.064      c-1.87-1.426-4.935-4.672-2.848-5.731c0.338-0.172,0.715-0.183,1.046-0.064C15.479,294.947,17.836,296.13,21.238,297z"/>
				<path style="fill:#000E3F;" d="M38.07,277.95c0.031-1.237-0.024-4.038-0.022-3.882c-0.017-1.278,1.519-1.945,2.445-1.065      c4.306,4.109,3.553,13.27-0.857,17.341c-0.888,0.819-2.33,0.164-2.303-1.04C37.393,286.588,38.005,282.197,38.07,277.95z"/>
				<path style="fill:#000E3F;" d="M43.402,335.955c12.078-4.72,14.06-9.341,15.561-6.762c1.639,2.812-9.084,13.939-20.445,11.208      c-1.245-0.299-1.365-2.032-0.173-2.499C38.345,337.901,43.561,335.892,43.402,335.955z"/>
				<path style="fill:#000E3F;" d="M81.33,312.307c1.767-3.591,2.36-6.281,2.69-7.289c0.696-2.598,2.113-11.566,2.078-11.413      c0.171-0.749,0.917-1.217,1.666-1.046c1.072,0.247,1.232,1.292,1.838,4.504c0.283,3.234,0.54,6.496-0.835,11.03      c-1.581,4.897-4.691,9.681-9.432,11.633c-1.213,0.499-2.303-0.943-1.493-1.974C77.843,317.752,80.322,314.317,81.33,312.307z"/>
			</g>
		</g>
		<path style="fill:#000E3F;" d="M132.758,296.47l-1.305-1.416c-2.915-3.175-3.153-3.434-5.554-4.518    c-1.472-0.67-2.921-0.675-4.188-0.014c-3.027,1.584-3.889,6.283-5.196,13.402c-1.886,10.273-4.469,24.335-14.5,31.344    c-0.486,0.339-0.873,0.5-1.136,0.569c-0.152-1.039-0.173-2.188-0.066-3.432c0.48-5.574,3.453-12.495,6.329-19.185    c2.227-5.181,4.529-10.535,5.707-15.368c0.271-1.119,0.46-2.272,0.56-3.425c0.678-7.859-2.79-16.45-9.277-22.98    c-4.471-4.504-12.302-9.7-18.618-10.917c-1.334-0.257-2.72,0.07-3.805,0.892c-1.074,0.813-1.757,2.036-1.873,3.362    c-0.011,0.119-0.017,0.237-0.018,0.349c-0.021,1.844,0.16,3.44,0.368,5.288c0.462,4.054,1.087,9.532,0.014,21.976    c-0.057,0.668-0.12,1.354-0.187,2.061c-1.339,14.022-8.486,19.327-10.939,19.67c-0.081,0.012-0.147,0.018-0.199,0.019    c-0.651-1.84-0.835-4.277-0.563-7.441c0.271-3.139,0.934-6.554,1.636-10.168l0.375-1.933c0.275-1.444,0.594-2.903,0.917-4.376    c0.73-3.331,1.485-6.774,1.786-10.269c0.476-5.517-0.29-9.975-2.409-14.028c-5.659-10.83-19.345-6.674-27.523-4.19l-0.269,0.083    c-1.709,0.518-3.619,1.212-5.467,1.882c-6.785,2.464-15.228,5.53-20.795,2.922c-1.839-0.841-3.377-0.992-4.712-0.463    c-0.91,0.361-1.981,1.143-2.63,2.831c-0.252,0.655-0.439,1.445-0.53,2.397c-0.781,7.426-2.474,13.606-3.967,19.058    c-1.302,4.758-2.428,8.865-2.782,12.982c-0.205,2.376-0.13,4.549,0.229,6.644c1.863,10.762,9.941,13.349,22.051,16.068    c3.042,0.684,5.592,1.164,7.641,1.551c1.368,0.257,3.154,0.593,4.36,0.896c-0.92,0.625-2.323,1.378-3.564,1.662    c-5.544,1.278-7.54,0.917-12.871-0.05l-0.79-0.145c-5.77-1.057-8.172-2.347-9.925-3.29c-0.528-0.284-1.007-0.54-1.478-0.755    c-1.935-0.881-3.829-0.88-5.334,0c-1.292,0.754-2.111,2.067-2.243,3.595c-0.017,0.192-0.022,0.387-0.016,0.578    c0.38,16.461,9.782,28.731,23.952,31.243c3.613,0.633,7.55,0.526,11.356,0.424c5.006-0.139,10.156-0.279,14.224,1.301    c-0.261,0.789-1.093,1.861-1.948,2.322c-11.282,6.119-22.695,4.986-29.514,4.309c-1.42-0.14-2.6-0.257-3.579-0.291    c-2.472-0.084-4.571,1.749-4.779,4.161c-0.078,0.903,0.12,1.806,0.572,2.611c0.884,1.588,1.338,2.115,4.864,6.217l2.802,3.267    c7.483,8.747,7.647,8.882,16.219,15.932l0.456,0.375c17.111,14.051,45.206,21.929,62.601,10.792    c8.08-5.178,12.483-11.335,13.084-18.313c0.238-2.748-0.161-5.179-0.629-7.086c9.954,7.39,22.276,9.081,35.085,10.162    c0.677,0.057,1.269-0.44,1.329-1.122c0.057-0.677-0.445-1.272-1.122-1.329c-9.988-0.843-19.196-1.99-27.202-5.722    c10.456,1.546,21.908-1.031,29.702-10.603c5.116-6.276,8.094-13.896,8.849-22.652C158.193,334.53,145.835,310.589,132.758,296.47z     M153.875,355.977c-0.712,8.256-3.507,15.422-8.306,21.31c-9.074,11.144-23.625,11.983-34.918,7.833    c-1.62-1.254-3.179-2.655-4.658-4.271c-4.56-4.982-9.562-12.769-15.353-21.787c-9.792-15.244-21.977-34.216-38.299-49.235    c-3.499-3.219-7.135-6.382-10.654-9.441c-8.269-7.191-16.82-14.628-24.02-23.209c-0.436-0.521-1.211-0.589-1.732-0.152    c-0.166,0.139-0.286,0.312-0.358,0.5c-0.155,0.403-0.092,0.878,0.206,1.232c7.323,8.729,15.949,16.23,24.29,23.485    c3.504,3.048,7.128,6.2,10.602,9.396c16.089,14.804,28.179,33.629,37.895,48.754c5.852,9.113,10.907,16.981,15.608,22.119    c0.792,0.865,1.611,1.663,2.445,2.427c-0.07,0.231-0.078,0.479-0.002,0.719l0.062,0.204c0.555,1.833,1.486,4.908,1.179,8.47    c-0.532,6.173-4.556,11.708-11.961,16.453c-16.453,10.535-43.281,2.872-59.713-10.623l-0.448-0.368    c-8.416-6.922-8.577-7.054-15.922-15.638l-2.788-3.251c-3.564-4.146-3.851-4.491-4.598-5.832    c-0.211-0.377-0.303-0.791-0.268-1.201c0.094-1.112,1.082-1.954,2.244-1.914c0.9,0.031,2.044,0.145,3.368,0.275    c7.153,0.711,19.036,1.89,30.98-4.588c1.653-0.893,3.171-3.003,3.307-4.599c0.057-0.651-0.085-1.518-1.079-1.948    c-4.639-2.003-10.273-1.849-15.722-1.699c-3.704,0.1-7.514,0.204-10.882-0.386c-12.963-2.298-21.568-13.64-21.92-28.895    c-0.004-0.109,0-0.202,0.008-0.293c0.06-0.722,0.439-1.336,1.032-1.681c0.797-0.467,1.888-0.426,3.073,0.113    c0.425,0.195,0.857,0.427,1.336,0.684c1.897,1.02,4.495,2.416,10.647,3.544l0.793,0.145c5.373,0.974,7.825,1.418,13.861,0.027    c1.861-0.425,6.191-2.513,6.354-4.374c0.019-0.217-0.021-0.437-0.115-0.633c-0.481-1.013-1.855-1.372-7.059-2.351    c-2.101-0.396-4.628-0.872-7.627-1.548c-12.538-2.815-18.615-5.121-20.167-14.086c-0.323-1.882-0.389-3.851-0.202-6.015    l-0.001,0.001c0.336-3.896,1.433-7.902,2.704-12.542c1.519-5.545,3.239-11.827,4.043-19.465c0.17-1.76,0.71-2.828,1.618-3.188    c0.679-0.268,1.586-0.135,2.774,0.409c6.48,3.036,15.455-0.224,22.667-2.842c1.816-0.66,3.695-1.343,5.345-1.843l0.263-0.081    c7.451-2.262,19.917-6.048,24.632,2.974c1.893,3.622,2.572,7.65,2.138,12.678c-0.288,3.337-1.025,6.701-1.738,9.954    c-0.329,1.494-0.653,2.978-0.93,4.439l-0.373,1.928c-0.715,3.68-1.39,7.156-1.672,10.424c-0.32,3.705-0.051,6.589,0.821,8.815    c0.182,0.467,0.813,1.523,2.732,1.254c3.624-0.51,11.582-6.527,13.045-21.872c0.068-0.716,0.131-1.41,0.189-2.083    c1.094-12.689,0.453-18.309-0.015-22.412c-0.206-1.819-0.379-3.343-0.359-5.029l0.01-0.172c0.053-0.626,0.383-1.218,0.907-1.612    c0.532-0.403,1.208-0.564,1.857-0.439c5.825,1.122,13.131,5.998,17.337,10.236c5.984,6.023,9.189,13.888,8.573,21.035    c-0.089,1.03-0.258,2.059-0.5,3.058c-1.126,4.628-3.389,9.889-5.576,14.977c-2.953,6.872-6.005,13.976-6.52,19.944    c-0.152,1.75-0.076,3.359,0.221,4.787c0.104,0.524,0.481,0.961,1.033,1.186c1.028,0.414,2.413,0.091,3.806-0.882    c10.861-7.59,13.548-22.224,15.51-32.91c1.135-6.183,1.954-10.647,3.917-11.671c0.588-0.307,1.253-0.283,2.035,0.073    c1.946,0.878,1.946,0.878,4.76,3.943l1.309,1.42C143.663,311.862,155.678,335.067,153.875,355.977z"/>
	</g>
	<g>
		<g>
			<g>
				<path style="fill:#FF8EDE;" d="M308.94,344.518c-0.407-0.121-8.662-1.076-13.04-0.997c-3.662,0.066-6.673-1.364-9.301-3.811      c-4.504-4.192-5.518-8.545-6.672-13.043c-0.291-1.136-1.119-1.226-2.678-1.737c-9.089-2.98-15.818-9.47-18.568-18.882      c-3.163-10.825,2.264-10.686-6.034-16.262c-16.499-11.087-15.277-26.506-1.267-39.953c3.965-3.805,7.107-6.826,8.942-11.966      c1.003-2.808,1.467-7.865,0.223-10.518c-1.182-2.521-2.938-4.532-5.368-5.941c-2.821-1.636-5.871-1.474-8.898-1.031      c-4.814,0.705-7.443,3.68-10.553,5.318c-16.723,8.806-32.843-4.284-22.434-31.729c3.766-9.93,4.999-9.395,5.6-13.328      c0.876-5.734-2.784-9.465-8.169-10.05c-7.57-0.822-14.116-3.308-19.697-8.499c-6.82-6.343-5.849-13.144-7.665-11.846      c-7.528,5.378-13.527,16.213-17.106,24.72c-7.058,16.777-4.967,25.68-22.042,39.392c-3.373,2.709-12.784,11.245-12.206,15.55      c0.885,6.594,7.619,11.755,14.059,12.866c5.995,1.035,7.436-2.39,8.151-1.998c0.225,0.124,0.178,0.337,0.058,0.511      c-0.671,0.975-1.678,1.491-2.735,1.89c-2.052,0.774-4.164,0.676-6.266,0.254c-2.095-0.42-2.735-1.11-2.609,2.177      c0.158,4.132-1.439,4.184-2.568,9.278c-0.577,2.603,0.343,4.681,2.048,6.518c3.159,3.403,8.905,3.44,10.036,3.622      c4.562,0.734,17.37-4.174,29.857,5.67c0.362,0.285,0.031,0.86-0.456,0.517c-1.395-0.98-3.384-2.396-5.028-3.175      c-5.116-2.423-12.433-3.112-13.683-2.754c-1.016,0.291-3.528,0.141-4.944,0.36c-6.533,1.011-10.425-0.548-12.52-1.127      c-0.965-0.267-1.12-0.003-1.816,1.586c-2.901,6.622-2.972,12.672-3.308,15.843c0.374,2.148,0.165,8.529,3.582,12.581      c14.449,17.125,51.522,11.895,73.084,6.042c11.46-3.111,15.047-5.215,15.26-4.421c0.278,1.041-19.028,6.808-31.292,8.84      c-6.961,1.154-2.615,0.133,2.459,11.841c4.038,9.319,5.271,22.704,0.845,37.574c-1.28,4.3-3.932,10.589-4.821,11.73      c-0.255,0.328-0.668,0.036-0.544-0.346c0.672-2.068,5.281-9.464,6.954-23.485c0.284-2.376-2.288-1.289-3.451-1.276      c-5.833,0.07-17.248,1.594-24.804,2.923c-1.849,0.325-1.873,0.365-1.604,1.993c0.442,2.677-1.817,26.253,19.35,47.621      c14.798,14.939,43.006,20.576,58.254,18.415c31.885-4.519,56.924-32.201,56.497-66.081      C310.042,344.96,309.835,344.784,308.94,344.518z"/>
				<path style="fill:#FF8EDE;" d="M157.59,348.904c-26.758,8.442-57.918,28.037-63.301,52.723      c-2.891,13.258,31.155,30.268,43.747,35.429c2.739,1.123,1.863,1.403,5.464-8.028c2.646-6.93,4.991-13.964,7.026-21.094      c7.431-26.032,8.863-53.389,8.84-56.69C159.352,349.158,159.493,348.303,157.59,348.904z"/>
				<path style="fill:#FF8EDE;" d="M390.855,398.682c-7.387-23.733-38.987-43.356-63.001-49.975      c-1.707-0.47-1.169,2.517-1.161,3.901c0.124,21.312,5.334,50.637,18.536,83.867c0.489,1.231,0.771,1.351,1.927,0.855      c12.697-5.458,37.368-17.424,43.658-29.781C392.317,404.595,391.842,401.853,390.855,398.682z"/>
			</g>
			<path style="fill:#6280FF;" d="M159.265,444.434c-6.946-2.003-16.455-5.389-17.313-5.826c-0.708-0.36-0.875-0.661-0.61-1.443     c2.955-8.734,11.761-27.305,16.853-61.314c4.124-27.537-0.111-27.173,3.732-28.257c1.478-0.416,10.629-2.884,12.163-2.882     c0.717,0.001,0.857,0.592,0.859,1.301c0.14,52.705,55.069,82.298,98.774,60.517c16.923-8.434,30.092-23.641,35.017-43.014     c2.079-8.177,2.005-13.694,2.122-16.293c0.132-2.94-0.748-2.954,12.908,0.264c3.569,0.84,0.706,1.33,2.547,16.484     c0.443,3.642,0.811,11.327,4.014,26.671c5.19,24.856,11.515,38.693,14.151,46.29c0.477,1.374,0.207,1.465-3.897,2.934     c-23.842,8.533-50.257,14.232-89.322,15.954C226.965,456.889,190.686,453.493,159.265,444.434z"/>
			<g>
				<path style="fill:#DB5E43;" d="M273,322.257c-10.242-5.446-14.927-14.754-14.614-26c0.091-3.279-2.588-5.544-5.393-7.291      c-12.764-7.95-15.891-21.317-4.179-35.13c5.058-5.965,10.765-9.058,12.906-17.719c0.886-3.587,0.884-7.155-1.067-10.395      c-4.171-6.927-11.584-8.217-18.927-4.68c-4.058,1.954-5.74,4.456-11.001,5.847c-13.698,3.622-24.401-7.016-17.855-29.007      c3.467-11.647,6.96-13.24,6.979-19.078c0.01-3.22-2.023-6.631-5.639-8.165c-1.865-0.792-3.855-0.898-5.808-1.22      c-26.571-4.373-35.445-33.637-2.019-52.692c11.218-6.395,22.892-9.597,35.499-11.484      c77.236-11.564,145.348,72.176,116.99,154.241c-8.861,25.644-26.613,46.105-45.742,57.713      c-6.717,4.076-11.462,6.911-19.656,8.132C291.632,325.604,279.2,325.554,273,322.257z"/>
				<path style="fill:#DB5E43;" d="M333.287,138.021c-0.51-0.539-0.69-1.115-0.44-1.81c1.91-5.304,4.061-10.435,9.018-15.477      c4.67-4.75,10.285-7.881,16.908-8.971c2.012-0.331,4.06-0.662,6.121-0.467c8.873,0.84,16.019,3.645,22.764,10.045      c6.032,5.723,10.262,11.991,12.291,20.665c0.497,2.124,0.924,4.264,0.907,6.474c-0.008,1.05,0.338,2.081,0.291,3.154      c-0.356,8.003-2.307,15.538-6.441,22.462c-3.392,5.683-5.495,6.156-3.518,9.301c1.747,2.78,4.701,4.044,8.439,8.072      c29.801,32.112-4.306,65.347-30.416,45.242c-0.837-0.644-1.597-1.388-2.415-2.058c-0.896-0.734-1.271-1.656-1.134-2.801      C369.079,203.246,359.001,165.199,333.287,138.021z"/>
			</g>
			<g style="opacity:0.25;">
				<path style="fill:#000E3F;" d="M258.652,301.442c-0.688-5.484,0.544-6.789-1.928-9.461c-3.389-3.661-31.337-16.558-2.17-44.093      c5.76-5.438,9.75-14.121,6.602-21.237c-1.993-4.508,12.731,5.648,10.229,23.795c-1.343,9.738-5.198,21.003-0.366,34.453      c3.228,8.985,10.841,15.625,20.832,15.591c13.481-0.046,27.446-8.459,44.24-3.853c0.502,0.137,0.64,0.54,0.333,0.901      c-9.485,11.176-28.534,25.697-43.121,27.812C276.629,327.768,260.85,318.956,258.652,301.442z"/>
				<path style="fill:#000E3F;" d="M362.01,190.044c-7.198-26.634-18.093-37.396-17.238-38.467c0.878-1.1,10.726,2.201,17.353,9.953      c10.48,12.256,11.575,23.98,14.409,40.323c3.727,21.494,19.375,28.589,30.897,23.577c0.485-0.211,0.981-0.399,1.479-0.578      c3.043-1.09-5.633,22.245-29.031,17.144c-6.406-1.396-10.493-5.252-13.025-7.282c-0.968-0.776-1.367-1.753-1.19-2.976      C366.938,222.99,366.103,205.188,362.01,190.044z"/>
				<path style="fill:#000E3F;" d="M193.18,430.593c45.815,3.151,97.321-7.538,132.463-37.807      c7.718-6.648,0.962-7.237,12.515,26.837c6.69,19.731,8.125,18.083,4.421,19.475c-63.988,24.05-147.255,20.191-197.892,0.499      c-0.515-0.2-1.341-0.174-1.342-0.917c-0.001-0.584,0.735-0.694,1.19-0.922C157.498,431.256,178.798,429.605,193.18,430.593z"/>
			</g>
			<g>
				<path style="fill:#FD8A02;" d="M324.798,166.068c8.548,9.386,14.747,21.033,18.096,33.486      c3.393,12.452,3.881,25.785,1.204,38.578c-1.395,6.378-3.546,12.616-6.513,18.46c-3.016,5.81-6.732,11.285-11.219,16.034      c-8.886,9.607-20.433,16.39-32.582,19.971c-1.231,0.364-2.523-0.341-2.886-1.571c-0.327-1.11,0.213-2.27,1.225-2.754      l0.019-0.008c10.856-5.193,20.606-12.166,28.03-21.11c7.418-8.912,12.518-19.604,14.894-30.946      c2.481-11.329,2.304-23.251-0.06-34.758c-2.399-11.522-7.078-22.614-13.652-32.71l-0.005-0.008      c-0.658-1.012-0.372-2.366,0.639-3.024C322.902,165.115,324.09,165.288,324.798,166.068z"/>
				<path style="fill:#FD8A02;" d="M360.786,124.323c5.093-0.246,9.906,0.879,14.531,3.157c4.589,2.237,8.788,5.998,11.389,10.78      c2.654,4.759,3.561,10.252,3.146,15.273c-0.348,5.059-1.812,9.788-4.092,13.981c-0.624,1.148-2.061,1.572-3.21,0.948      c-0.842-0.457-1.294-1.352-1.23-2.249l0.004-0.039c0.325-4.446,0.597-8.683,0.264-12.668c-0.333-3.985-1.239-7.645-2.98-10.81      c-1.702-3.183-4.253-5.911-7.436-8.245c-3.164-2.288-7.029-4.228-10.868-5.799l-0.245-0.1c-1.123-0.46-1.662-1.744-1.201-2.867      C359.191,124.87,359.961,124.363,360.786,124.323z"/>
			</g>
			<g style="opacity:0.5;">
				<path style="fill:#FC09B2;" d="M228.929,314.241c-4.371,7.052-11.641,12.64-20.686,14.089c-1.59,0.254-1.785-0.071-1.955-0.949      c-1.373-7.057-3.025-12.96-8.105-19.617c-3.453-4.526,2.657,0.283,33.893-11.195c0.697-0.256,0.992-0.036,1.115,0.638      C233.809,300.568,232.751,308.076,228.929,314.241z"/>
				<path style="fill:#FC09B2;" d="M181.63,255.386c-4.637-12.826,10.146-24.711,24.964-18.315      c6.186,2.67,10.535,8.789,9.608,15.677C214.032,268.877,187.06,270.408,181.63,255.386z"/>
			</g>
		</g>
		<g>
			<path style="fill:#000E3F;" d="M395.535,185.029c-1.126-0.991-2.013-1.774-2.322-2.198c-1.075-1.481-0.925-1.69,0.498-3.687     c1.119-1.566,2.987-4.188,5.302-9.153c4.667-10.011,5.318-22.145,1.744-32.461c-5.755-16.612-20.463-27.903-36.598-28.098     c-0.137-0.001-0.272-0.002-0.41-0.002c-14.47,0-26.552,9.253-32.372,24.827c-0.016,0.043-0.031,0.076-0.041,0.103     c-0.29-0.163-0.942-0.787-1.683-1.497c-0.61-0.582-1.382-1.321-2.37-2.222c-14.153-12.904-31.644-21.986-50.587-26.264     c-6.738-1.523-14.641-2.324-16.989-2.327c-0.056,0-0.108,0-0.164,0c-27.944,0-54.689,9.309-68.165,23.736     c-6.163,6.596-9.155,13.895-8.654,21.104c0.087,1.266-0.377,1.636-1.754,2.734c-1.771,1.41-4.734,3.77-8.98,10.23     c-5.482,8.339-9.965,18.783-13.325,31.04c-1.479,5.393-4.353,10.497-8.788,15.603c-1.264,1.456-3.24,3.144-5.525,5.097     c-4.541,3.88-10.193,8.708-13.514,14.55c-1.55,2.728-0.738,6.383,0.756,8.796c2.843,4.587,5.688,6.245,7.388,7.236     c0.797,0.464,1.373,0.799,1.449,1.152c0.038,0.176,0.079,0.353,0.123,0.53c0.15,0.631,0.305,1.282,0.247,1.858     c-0.168,1.667-0.799,3.301-1.413,4.883c-1.302,3.365-2.648,6.843,0.245,10.876c0.873,1.216,1.559,1.771,2.011,2.139     c0.599,0.484,0.599,0.484-0.18,2.448c-1.869,4.718-2.95,9.925-2.964,14.282l-0.005,0.86c-0.016,2.279-0.033,4.636,0.487,6.938     c1.14,5.03,3.101,8.946,9.341,12.925c12.287,7.831,32.297,8.162,45.698,6.069c0.79-0.119,1.306,0.091,1.804,0.733     c6.603,8.511,9.494,18.049,9.105,30.016c-0.029,0.888-0.029,0.888-3.556,1.124c-2.323,0.155-6.211,0.414-12.354,1.146     c-12.327,1.468-22.096,3.938-29.229,5.927c-14.522,4.05-29.604,11.375-41.379,20.097c-14.08,10.433-23.082,22.435-26.032,34.71     c-0.696,2.896-0.231,5.6,1.467,8.511c5.378,9.224,20.238,18.093,28.615,22.558c31.473,16.778,74.034,25.926,119.222,25.925     c7.171,0,14.412-0.23,21.683-0.697c51.325-3.296,96.972-18.241,122.107-39.979c2.969-2.566,9.697-9.281,8.073-16.175     c-3.734-15.86-17.499-31.13-38.756-42.997c-18.74-10.463-41.278-16.827-58.779-16.54c-2.919,0.031-5.52-0.99-8.143-3.249     c-2.242-1.931-5.105-6.838-5.628-10.794c-0.003-0.028-0.005-0.05-0.009-0.067c0.22-0.04,0.81,0.031,1.387,0.1     c1.773,0.212,4.743,0.568,9.46-0.078c18.071-2.475,51.774-24.747,66.724-64.692c4.411-11.788,5.434-19.221,5.984-23.214     c0.166-1.201,0.323-2.342,0.491-2.69c0.043,0.027,0.101,0.07,0.18,0.141c8.67,7.691,19.834,9.872,29.858,5.826     c9.693-3.908,15.991-12.717,16.846-23.564C414.541,201.777,401.222,190.041,395.535,185.029z M369.779,235.703     c-0.548-0.428-1.079-0.909-1.591-1.375c-0.309-0.279-0.617-0.558-0.931-0.829c-0.483-0.417-0.655-0.911-0.525-1.512     c0.336-1.547,0.343-3.115,0.35-4.631l0.007-0.999c0.009-0.685,0.092-1.387,0.171-2.067c0.119-1.01,0.244-2.056,0.144-3.123     c-0.106-1.163-0.173-2.536-0.251-4.127c-0.397-8.135-1.057-21.751-8.726-41.506c-5.403-13.919-12.253-24.801-23.642-37.563     c-0.727-0.816-0.852-1.52-0.458-2.599c1.658-4.539,3.545-8.035,5.942-11.003c12.657-15.674,29.824-13.448,40.683-6.779     c14.861,9.128,24.794,29.744,15.026,51.487c-1.692,3.769-3.368,6.17-4.591,7.923c-2.105,3.016-3.161,4.53-0.462,8.01     c0.182,0.236,0.615,0.612,1.499,1.372c4.66,4.011,18.843,16.22,17.667,31.746c-0.747,9.848-6.098,17.891-14.311,21.516     C387.387,243.351,377.667,241.876,369.779,235.703z M257.767,291.422c-1.321-1.419-2.887-2.529-4.544-3.705     c-3.153-2.236-6.415-4.549-8.816-9.419c-4.932-10.003,1.611-19.642,5.951-24.498l0.189-0.213c2.564-2.869,2.564-2.869,3.366-3.57     l0.381-0.335c6.157-5.455,9.628-12.788,9.056-19.138c-0.402-4.459-2.769-8.121-6.844-10.593     c-2.152-1.304-4.476-1.956-7.016-1.956c-1.936,0-4,0.379-6.209,1.136c-2.363,0.808-4.193,2.037-5.962,3.225     c-2.82,1.894-5.484,3.684-10.258,4.029c-4.447,0.335-8.261-1.045-10.981-3.963c-3.309-3.546-4.719-8.982-3.872-14.916     c1.628-11.376,4.359-16.724,6.352-20.629c0.985-1.929,1.763-3.454,2.172-5.193c0.723-3.068,0.202-6.054-1.463-8.409     c-1.907-2.692-5.133-4.356-9.331-4.809c-11.358-1.23-20.472-7.895-23.221-16.982c-2.789-9.219,1.369-19.31,11.407-27.686     c9.156-7.639,23.236-13.688,38.632-16.596c30.239-5.712,60.352,2.307,84.803,22.573c26.862,22.264,42.317,55.438,42.449,91.083     l-0.012,0.462c0,30.926-12.619,60.84-34.621,82.069c-13.492,13.017-29.429,21.282-40.915,21.282     c-0.278,0-0.554-0.005-0.828-0.016c-13.882-0.497-27.953-9.391-27.987-25.428c-0.002-0.428,0.005-0.835,0.011-1.226     C259.69,295.498,259.721,293.52,257.767,291.422z M142.95,437.741c-0.59-0.228-0.613-0.237,1.571-5.979     c0.925-2.433,2.215-5.824,3.949-10.573c4.361-11.941,9.435-33.366,11.082-46.786c1.337-10.903,1.384-12.377,1.416-13.453     c0.016-0.503,0.027-0.901,0.164-2.132c0.361-3.228,0.308-5.459,0.271-7.087c-0.054-2.402-0.002-2.803,0.852-3.022     c2.087-0.532,3.819-0.992,5.259-1.374c2.991-0.793,5.013-1.329,5.872-1.329c0.193,0,0.328,0.027,0.401,0.085     c0.142,0.111,0.128,0.677,0.121,0.949c-0.606,24.376,14.788,49.196,37.437,60.358c31.291,15.422,69.414,5.942,88.689-22.052     c8.311-12.069,11.946-26.595,11.807-34.983c-0.011-0.617,0.072-1.23,0.161-1.88c0.092-0.669,0.186-1.362,0.171-2.072     c-0.002-0.11,0.009-0.165,0.005-0.176c0.033-0.009,0.135-0.03,0.408,0.012c3.442,0.504,6.765,1.302,9.276,1.94     c0.409,0.105,0.769,0.187,1.083,0.258c1.771,0.405,1.771,0.405,1.712,3.511c-0.033,1.637-0.079,4.111,0.081,7.782     c0.323,7.335,2.576,25.122,7.46,44.062c3.115,12.08,6.446,20.855,9.666,29.343l1.119,2.949c0.213,0.557,0.431,1.131,0.319,1.382     c-0.015,0.031-0.056,0.123-0.287,0.209c-58.869,22.11-135.609,22.798-195.502,1.753c-1.609-0.565-3.065-1.106-4.452-1.652     L142.95,437.741z M308.04,345.591c0.749,0.112,0.749,0.112,0.749,0.815c0.027,27.377-16.458,51.296-41.999,60.935     c-10.666,4.025-16.85,4.058-25.408,4.103l-0.332,0.002c-0.106,0.001-0.211,0.001-0.316,0.001     c-16.659,0-33.155-7.099-45.306-19.506c-12.314-12.576-18.847-29.028-18.392-46.325c0.005-0.243,0.09-0.346,0.323-0.394     c6.98-1.449,16.056-2.491,21.953-2.881c0.817-0.054,1.523-0.109,2.132-0.156c0.94-0.073,1.732-0.134,2.282-0.134     c0.424,0,0.703,0.036,0.795,0.133c0.123,0.13,0.036,0.792,0,1.075c-1.4,10.818-4.584,17.359-6.114,20.504     c-0.372,0.762-0.639,1.313-0.759,1.684c-0.318,0.967,0.206,1.778,0.858,2.049c0.617,0.257,1.449,0.095,1.919-0.835     c8.409-16.514,10.014-34.509,4.407-49.37c-1.965-5.204-4.086-7.989-5.228-9.486c-0.397-0.521-0.808-1.06-0.846-1.158     c0.177-0.182,1.321-0.36,2.645-0.565c4.213-0.654,12.978-2.015,29.821-7.929c0.896-0.316,2.011-0.708,2.327-1.507     c0.094-0.237,0.155-0.617-0.087-1.081c-0.709-1.357-2.215-0.824-5.867,0.473c-4.952,1.761-14.167,5.039-31.507,7.681     c-8.885,1.351-38.835,4.632-51.364-9.972c-4.712-5.493-3.487-19.63-0.361-26.479c0.734-1.614,0.738-1.606,1.784-1.283     l0.584,0.178c1.268,0.372,2.786,0.754,4.415,0.771c0.272,0.003,0.745,0.065,1.241,0.129c1.007,0.129,1.647,0.201,2.006,0.133     c0.861-0.17,1.759-0.224,2.628-0.276c0.628-0.038,1.256-0.076,1.882-0.154c12.069-1.511,18.244,2.806,21.208,4.88     c0.445,0.312,0.822,0.575,1.136,0.763c0.61,0.365,1.303,0.262,1.766-0.264c0.503-0.573,0.567-1.406,0.146-1.938     c-1.256-1.589-6.633-5.205-13.382-6.362c-4.568-0.784-8.373-0.462-11.723-0.18c-4.353,0.367-8.111,0.682-12.502-1.292     c-3.532-1.588-5.031-4.421-4.223-7.977c0.28-1.236,0.745-2.253,1.196-3.238c0.75-1.643,1.528-3.34,1.398-5.961     c-0.033-0.646,0.079-0.747,0.079-0.748c0.101-0.084,0.718,0.057,1.131,0.15c1.27,0.289,3.403,0.77,6.31-0.098     c1.568-0.469,2.849-1.329,3.807-2.557c0.72-0.925,0.419-1.61,0.04-2.021c-0.299-0.325-0.642-0.495-1.019-0.505     c-0.72-0.062-1.304,0.549-1.694,0.925c-0.086,0.086-0.162,0.161-0.225,0.208c-2.964,2.32-10.913,1.491-16.624-5.08     c-5.865-6.75-0.642-11.358,7.265-18.332c5.953-5.251,13.362-11.788,17.306-21.186c0.325-0.773,0.758-2.205,1.358-4.187     c2.8-9.255,8.629-28.515,20.463-39.092c0.301-0.27,1.102-0.986,1.263-1.026c0.105,0.087,0.271,0.577,0.418,1.011l0.197,0.566     c1.56,4.404,4.248,8.179,7.986,11.219c5.683,4.621,13.866,7.086,19.065,7.423c2.821,0.182,6.141,2.288,6.579,5.374     c0.341,2.408,0.142,4.184-0.644,5.758c-4.956,9.93-10.25,22.808-7.203,34.356c1.876,7.098,8.277,12.117,15.569,12.204     c0.105,0.001,0.209,0.002,0.314,0.002c6.173,0,9.632-2.228,12.976-4.384c2.52-1.624,4.9-3.158,8.382-3.786     c5.1-0.923,9.256,0.969,12.035,5.461c2.194,3.548,1.618,12.31-5.158,18.874c-5.74,5.559-10.335,10.353-12.881,17.175     c-4.074,10.918-0.341,20.107,11.409,28.092l0.285,0.193c2.046,1.384,3.662,2.478,3.615,4.819     c-0.262,13.068,5.297,22.633,16.521,28.428c1.963,1.015,3.33,1.411,4.328,1.7c1.301,0.377,1.609,0.467,1.79,1.367     c2.075,10.28,8.52,16.736,17.243,17.271c0.456,0.029,0.954,0.022,1.559,0.018C299.583,344.774,302.33,344.744,308.04,345.591z      M138.916,436.125c-10.546-4.303-19.22-8.847-27.302-14.299c-11.661-7.868-17.131-14.413-16.258-19.453     c1.575-9.087,7.948-17.387,11.607-21.527c17.956-20.315,46.268-29.838,50.731-30.744c0.087-0.018,0.148-0.022,0.189-0.022     c0.056,0,0.076,0.009,0.076,0.009c0.161,0.133,0.151,1.157,0.142,2.06c-0.004,0.414-0.007,0.883-0.004,1.408     c0.134,16.861-5.024,48.343-16.667,77.623c-0.545,1.371-0.924,2.42-1.211,3.213c-0.346,0.963-0.648,1.796-0.806,1.882     C139.367,436.288,139.258,436.265,138.916,436.125z M346.493,436.274c-0.11-0.061-0.31-0.579-0.511-1.098     c-2.508-6.466-5.394-14.12-7.797-21.848c-5.279-16.99-10.804-44.031-10.462-63.251c0.002-0.092,0.009-0.152,0.007-0.181     c0.031,0.004,0.079,0.013,0.148,0.032c37.556,10.586,59.186,36.643,62.551,51.765c2.587,11.635-25.706,26.974-42.831,34.202     C347.162,436.08,346.618,436.308,346.493,436.274z"/>
			<path style="fill:#000E3F;" d="M189.002,208.004c-3.588,2.203-7.378,2.628-10.395,1.172c-2.939-1.421-4.822-4.396-5.302-8.379     c-0.11-0.911-0.954-1.566-1.849-1.451c-0.913,0.11-1.562,0.938-1.452,1.85c0.612,5.071,3.22,9.071,7.157,10.974     c1.643,0.794,3.433,1.187,5.284,1.187c2.72,0,5.576-0.849,8.297-2.519c0.783-0.48,1.028-1.504,0.547-2.287     C190.809,207.769,189.783,207.524,189.002,208.004z"/>
			<path style="fill:#000E3F;" d="M198.018,185.584c-13.685-3.729-26.391,2.543-26.925,2.812c-0.821,0.412-1.151,1.412-0.738,2.232     c0.29,0.581,0.877,0.917,1.487,0.917c0.251,0,0.505-0.058,0.745-0.178c0.119-0.06,12.092-5.967,24.558-2.575     c0.875,0.244,1.801-0.28,2.04-1.167C199.427,186.739,198.904,185.825,198.018,185.584z"/>
			<path style="fill:#000E3F;" d="M248.718,233.234c0.253-0.883-0.26-1.803-1.144-2.054c-0.891-0.255-1.804,0.262-2.053,1.145     c-0.032,0.111-3.301,11.144-15.486,14.111c-0.893,0.218-1.44,1.117-1.221,2.009c0.184,0.76,0.864,1.27,1.613,1.27     c0.13,0,0.264-0.015,0.395-0.048C244.869,246.246,248.569,233.763,248.718,233.234z"/>
		</g>
		<path style="fill:#322BBF;" d="M331.444,133.699c7.954,5.445,14.701,12.66,20.169,20.66c1.313,2.032,2.645,4.066,3.881,6.155    l3.425,6.418c1.017,2.196,1.967,4.427,2.935,6.649l2.525,6.809l2.016,6.967c0.542,2.353,1.107,4.702,1.609,7.062l1.119,7.148    c0.285,2.393,0.476,4.798,0.667,7.194c0.582,9.601-0.05,19.295-2.332,28.59c-0.369,1.503-1.886,2.421-3.389,2.052    c-1.267-0.311-2.12-1.439-2.133-2.687v-0.026c-0.099-9.118-0.703-18.076-2.012-26.914c-0.407-2.198-0.768-4.397-1.118-6.594    l-1.392-6.526l-1.621-6.46l-1.946-6.36l-2.172-6.277c-0.823-2.052-1.708-4.078-2.502-6.147l-2.763-6.032    c-1.04-1.946-2.068-3.902-3.069-5.885c-4.304-7.746-9.428-15.028-15.364-21.878l-0.015-0.017c-0.953-1.1-0.834-2.764,0.266-3.716    C329.155,133.081,330.48,133.039,331.444,133.699z"/>
	</g>
	<g>
		<g>
			<path style="fill:#FFCF00;" d="M127.273,158.819c-0.206,0-0.42-0.017-0.642-0.054c-9.033-1.547-20.218-3.638-30.692-5.737     c-2.52-0.506-4.162-2.969-3.658-5.491c0.083-0.409,0.193-0.96,7.736-16.381c-6.787,1.949-19.034,5.434-23.117,6.55     c-0.518,0.142-0.999,0.206-1.483,0.206c-2.435,0-4.584-1.643-5.226-3.994c-0.321-1.173-0.236-2.436,0.242-3.557     c0.859-2.01,1.656-3.895,2.504-5.9c2.259-5.346,4.788-11.329,9.697-22.599c-5.946,3.104-17.118,8.887-26.25,13.338     c-0.501,0.245-1.023,0.368-1.548,0.368c-1.503,0-2.854-1.051-3.291-2.555c-0.431-1.49,0.15-2.995,1.479-3.835     c9.767-6.187,21.699-13.294,26.191-15.968l1.777-1.061l9.405-5.538c0.756-0.446,1.616-0.68,2.489-0.68     c1.734,0,3.357,0.927,4.236,2.42c1.452,2.336,1.494,2.398-12.388,35.876l4.238-1.174c9.096-2.524,9.096-2.524,19.274-5.252     l0.325-0.087c0.529-0.142,0.992-0.204,1.452-0.204c1.826,0,3.491,0.949,4.46,2.538c0.956,1.571,1.019,3.487,0.171,5.125     c-3.621,6.963-8.28,15.684-10.689,20.167c8.825,2.26,15.578,4.039,24.23,6.476c1.755,0.493,2.807,2.096,2.558,3.898     C130.504,157.514,129.041,158.819,127.273,158.819z"/>
			<path style="fill:#000E3F;" d="M92.886,87.593c1.113,0,2.197,0.572,2.803,1.601c1.042,1.769,1.639,0.32-13.797,37.546     c17.254-4.782,14.326-3.996,27.108-7.422l0.073-0.019c0.324-0.087,0.642-0.127,0.95-0.127c2.549,0,4.427,2.778,3.154,5.238     c-4.025,7.739-9.543,18.046-11.684,22.015c9.338,2.382,16.548,4.259,26.25,6.992c2.176,0.612,1.602,3.74-0.469,3.74     c-0.118,0-0.241-0.01-0.368-0.031c-9.918-1.698-21.416-3.879-30.639-5.727c-1.626-0.326-2.68-1.909-2.354-3.535     c0.175-0.879,7.846-16.477,9.246-19.344c-4.326,1.261-21.582,6.185-26.698,7.583l-0.05,0.014     c-0.332,0.091-0.665,0.134-0.993,0.134c-1.653,0-3.167-1.098-3.624-2.769c-0.232-0.85-0.152-1.714,0.168-2.466     c3.374-7.905,5.795-13.851,14.084-32.819c0,0,0,0,0,0s0,0,0,0l0,0c-0.118,0.063-17.361,9.159-30.393,15.51     c-0.284,0.138-0.56,0.2-0.819,0.2c-1.585,0-2.552-2.293-0.923-3.322c11.504-7.287,25.764-15.702,27.938-17.011l9.391-5.53     C91.757,87.738,92.325,87.593,92.886,87.593 M92.886,84.268c-1.17,0-2.322,0.315-3.333,0.91l-9.391,5.53     c-0.355,0.213-0.957,0.572-1.783,1.064c-4.498,2.679-16.448,9.796-26.247,16.004c-1.937,1.223-2.816,3.515-2.183,5.7     c0.64,2.211,2.649,3.756,4.886,3.756c0.781,0,1.547-0.18,2.276-0.536c7.29-3.553,15.913-7.972,22.128-11.193     c-3.723,8.588-5.88,13.689-7.835,18.315c-0.846,2.002-1.642,3.884-2.499,5.893c-0.624,1.464-0.737,3.115-0.317,4.648     c0.839,3.072,3.649,5.217,6.831,5.217c0.63,0,1.259-0.085,1.869-0.251c3.469-0.949,12.705-3.57,19.597-5.54     c-6.015,12.342-6.113,12.83-6.232,13.428c-0.685,3.419,1.54,6.761,4.961,7.446c10.502,2.105,21.703,4.199,30.731,5.744     c0.318,0.053,0.626,0.079,0.929,0.079c2.607,0,4.762-1.909,5.125-4.54c0.359-2.605-1.22-5.013-3.756-5.727     c-8.001-2.254-14.365-3.943-22.211-5.959c2.571-4.799,6.557-12.279,9.695-18.313c1.12-2.163,1.035-4.688-0.225-6.759     c-1.252-2.059-3.505-3.338-5.878-3.338c-0.606,0-1.215,0.081-1.811,0.241l-0.302,0.081c-10.251,2.748-10.251,2.748-19.305,5.26     l-1.028,0.285c5.739-13.847,8.792-21.262,10.329-25.393c1.665-4.475,2.159-6.385,0.722-8.695l-0.073-0.119     C97.378,85.509,95.206,84.268,92.886,84.268L92.886,84.268z"/>
		</g>
		<g>
			<path style="fill:#FFCF00;" d="M88.176,213.793c-1.979,0-3.711-1.339-4.211-3.256c-0.126-0.481-0.222-2.006-0.199-15.887     c-4.744,4.267-12.949,11.612-15.771,14.087c-0.954,0.835-2.13,1.278-3.35,1.278c-1.451,0-2.829-0.624-3.785-1.713     c-0.745-0.851-1.187-1.94-1.241-3.069c-0.099-1.967-0.197-3.807-0.301-5.767c-0.271-5.113-0.575-10.826-1.028-21.496     c-3.659,4.943-10.214,13.736-15.632,20.656c-0.641,0.817-1.539,1.266-2.531,1.266c-1.191,0-2.34-0.68-2.926-1.734     c-0.568-1.019-0.529-2.24,0.105-3.264c5.464-8.853,12.3-19.271,14.874-23.192l0.985-1.505l5.407-8.153     c0.848-1.281,2.275-2.047,3.814-2.047c0.9,0,1.775,0.264,2.527,0.763c2.147,1.352,2.213,1.394,4.147,33.546l2.598-2.296     c6.395-5.651,6.395-5.651,13.451-11.776l0.338-0.293c0.951-0.826,2.046-1.239,3.216-1.239c1.319,0,2.607,0.544,3.532,1.492     c0.913,0.936,1.396,2.181,1.364,3.507c-0.18,6.846-0.509,15.579-0.693,20.225c7.873-1.616,13.969-2.82,21.85-4.242     c0.224-0.041,0.44-0.059,0.646-0.059c1.656,0,3.036,1.224,3.28,2.91c0.244,1.691-0.734,3.211-2.38,3.697     c-7.875,2.294-17.708,4.996-26.985,7.416C88.918,213.745,88.548,213.793,88.176,213.793z"/>
			<path style="fill:#000E3F;" d="M62.387,161.661c0.553,0,1.112,0.157,1.607,0.485c1.534,1.017,1.446-0.385,3.611,35.666     c12.027-10.621,9.976-8.839,18.931-16.614l0.051-0.044c0.627-0.545,1.359-0.788,2.077-0.788c1.684,0,3.283,1.345,3.235,3.296     c-0.207,7.815-0.611,18.284-0.779,22.322c8.459-1.743,15.005-3.059,23.894-4.663c0.122-0.022,0.239-0.032,0.351-0.032     c1.831,0,2.371,2.776,0.429,3.349c-8.657,2.522-18.778,5.275-26.934,7.404c-0.228,0.059-0.456,0.088-0.681,0.088     c-1.195,0-2.286-0.802-2.602-2.013c-0.203-0.777-0.142-16.355-0.137-19.213c-2.991,2.713-14.964,13.449-18.538,16.583     l-0.035,0.031c-0.639,0.56-1.431,0.836-2.22,0.836c-0.937,0-1.868-0.388-2.534-1.148c-0.521-0.594-0.795-1.322-0.832-2.053     c-0.383-7.693-0.764-13.434-1.525-31.969c0,0,0,0,0,0s0,0,0,0l0,0c-0.07,0.097-10.396,14.19-18.406,24.419     c-0.347,0.443-0.788,0.629-1.221,0.629c-1.114,0-2.169-1.231-1.408-2.461c6.411-10.385,14.6-22.758,15.839-24.666l5.398-8.14     C60.518,162.119,61.443,161.661,62.387,161.661 M62.387,158.336c-2.098,0-4.042,1.043-5.201,2.791l-5.398,8.14l-1.021,1.559     c-2.575,3.924-9.413,14.349-14.876,23.198c-0.954,1.541-1.009,3.391-0.143,4.946c0.875,1.572,2.595,2.587,4.38,2.587     c1.492,0,2.892-0.694,3.839-1.904c4.251-5.429,9.171-11.969,12.866-16.928c0.346,7.799,0.598,12.544,0.828,16.863     c0.103,1.946,0.2,3.775,0.298,5.73c0.075,1.502,0.662,2.951,1.653,4.081c1.271,1.449,3.106,2.281,5.034,2.281     c1.623,0,3.19-0.59,4.411-1.66c2.328-2.042,8.337-7.413,13.044-11.637c-0.001,11.592,0.111,12.018,0.257,12.578     c0.691,2.647,3.084,4.496,5.819,4.496c0.512,0,1.023-0.066,1.521-0.196c9.29-2.424,19.141-5.132,27.025-7.429     c2.469-0.729,3.931-3.003,3.565-5.533c-0.363-2.511-2.434-4.334-4.924-4.334c-0.312,0-0.629,0.029-0.942,0.086     c-7.186,1.296-12.891,2.412-19.811,3.824c0.188-4.883,0.454-12.205,0.611-18.124c0.044-1.784-0.608-3.456-1.837-4.716     c-1.236-1.267-2.957-1.994-4.722-1.994c-1.554,0-3.066,0.569-4.257,1.603l-0.212,0.184c-7.183,6.236-7.183,6.236-13.494,11.813     l-0.186,0.165c-0.781-12.961-1.22-19.952-1.596-23.819c-0.417-4.29-0.804-6.173-2.989-7.548l-0.098-0.063     C64.806,158.695,63.615,158.336,62.387,158.336L62.387,158.336z"/>
		</g>
		<g>
			<path style="fill:#FFCF00;" d="M162.623,129.152c-0.736,0-1.45-0.253-2.066-0.731c-6.451-5.042-14.389-11.444-21.785-17.569     c-1.847-1.532-2.105-4.281-0.576-6.13c0.319-0.385,1.501-1.354,12.78-9.443c-6.235-1.358-16.99-3.727-20.645-4.571     c-2.749-0.635-4.44-3.343-3.816-6.045c0.253-1.098,0.879-2.092,1.761-2.799c1.517-1.21,2.932-2.346,4.433-3.553     c4.001-3.215,8.472-6.807,16.922-13.452c-6.119-0.08-17.032-0.263-25.897-0.622c-1.786-0.072-3.099-1.425-3.126-3.216     c-0.025-1.792,1.248-3.183,3.029-3.308c10.341-0.732,22.778-1.271,27.459-1.474l1.849-0.081c0,0,9.78-0.374,9.783-0.374     c2.641,0,4.645,1.932,4.739,4.397c0.157,2.533,0.161,2.611-24.805,22.962l3.673,0.834c8.142,1.848,8.142,1.848,17.49,4.057     c2.037,0.481,3.439,1.957,3.797,3.882c0.357,1.929-0.424,3.813-2.04,4.917c-5.679,3.862-12.949,8.692-16.821,11.251     c5.915,5.452,10.456,9.697,16.207,15.258c1.007,0.972,1.315,2.366,0.801,3.636C165.244,128.279,163.98,129.152,162.623,129.152     L162.623,129.152z"/>
			<path style="fill:#000E3F;" d="M162.898,57.444c1.557,0,2.848,1.232,2.908,2.801c0.07,1.839,1.157,0.949-26.838,23.765     c15.646,3.557,13.002,2.934,24.543,5.66l0.065,0.016c2.707,0.639,3.365,4.206,1.067,5.776     c-6.464,4.397-15.197,10.185-18.573,12.408c6.356,5.847,11.248,10.391,17.742,16.67c1.228,1.186,0.156,2.952-1.19,2.952     c-0.342,0-0.702-0.114-1.046-0.381c-7.104-5.553-15.251-12.159-21.743-17.536c-1.145-0.948-1.304-2.645-0.356-3.79     c0.512-0.619,13.191-9.668,15.514-11.335c-3.949-0.843-19.657-4.289-24.288-5.359l-0.045-0.01     c-1.813-0.419-2.943-2.228-2.524-4.041c0.178-0.769,0.608-1.417,1.181-1.875c6.02-4.804,10.457-8.468,25.057-19.912c0,0,0,0,0,0     c0,0,0,0,0,0l0,0c-0.122,0-17.591-0.149-30.572-0.674c-2.011-0.081-2.053-3.064-0.048-3.204     c12.173-0.863,27.001-1.444,29.272-1.553l9.76-0.374C162.822,57.444,162.86,57.444,162.898,57.444 M162.898,54.118     c-0.08,0-0.16,0.002-0.241,0.005l-9.759,0.374l-1.86,0.082c-4.689,0.203-17.145,0.742-27.52,1.477     c-2.643,0.184-4.61,2.329-4.571,4.989c0.039,2.66,2.068,4.747,4.72,4.854c6.878,0.278,15.066,0.452,21.255,0.553     c-6.128,4.837-9.833,7.814-13.205,10.524c-1.518,1.22-2.946,2.367-4.475,3.588c-1.175,0.939-2.008,2.261-2.347,3.725     c-0.831,3.595,1.418,7.197,5.014,8.029c3.016,0.697,10.886,2.436,17.065,3.79c-9.41,6.771-9.69,7.11-10.059,7.556     c-2.114,2.554-1.758,6.354,0.797,8.47c7.395,6.124,15.346,12.537,21.816,17.595c0.92,0.714,1.986,1.087,3.094,1.087     c2.028,0,3.912-1.292,4.689-3.214c0.772-1.911,0.317-4.001-1.188-5.455c-5.248-5.074-9.488-9.053-14.676-13.845     c4.075-2.7,10.176-6.763,15.067-10.091c2.174-1.484,3.222-4.011,2.742-6.597c-0.48-2.583-2.363-4.562-4.915-5.165l-0.273-0.065     c-9.257-2.187-9.257-2.187-17.471-4.052l-0.242-0.055c10.062-8.204,15.48-12.644,18.399-15.209     c3.239-2.844,4.542-4.259,4.381-6.835l-0.007-0.116C169,56.753,166.263,54.118,162.898,54.118L162.898,54.118z"/>
		</g>
	</g>
	<g>
		<path style="fill:#000E3F;" d="M409.306,329.633c-1.492-0.826-4.721-2.287-5.338-2.767c-1.465,0.63-4.941,4.649-5.167,4.387    c-0.074-0.041-0.123-0.117-0.155-0.227c-0.137-1.513,0.963-5.179,0.624-6.668l-0.036-0.02c-1.624-0.76-3.438-2.179-4.934-2.497    c-10.828,19.225-13.224,23.566-13.402,24.302c-0.003,0.092,0.013,0.148,0.047,0.168c1.532,0.848,3.372,2.049,5.037,2.646    c2.158-4.564,4.499-9.305,7.352-13.532c0.076-0.052-1.223,5.731-0.532,6.161c0.393,0.216,3.978-3.327,5.114-3.951    c-1.741,4.238-5.089,9.954-7.158,14.104c1.14,0.631,3.352,1.669,4.676,2.634l6.383-11.284    C404.583,338.678,406.61,334.085,409.306,329.633z"/>
		<path style="fill:#000E3F;" d="M421.964,337.26c-3.18-1.669-3.592-2.226-4.31-2.544c-10.337,8.807-19.756,19.711-20.625,20.454    c0.013,0.058,0.013,0.058,0.047,0.077c3.126,1.974,4.315,2.984,4.759,3.127c0.032,0.02,0.088,0.009,0.123,0.033    c1.757-0.996,3.646-3.695,5.186-4.734c1.025,0.662,1.045,0.48,2.095,1.403c-0.245,1.727-1.589,4.779-1.99,6.603l0.034,0.023    c1.268,1.254,2.944,2.481,4.487,3.094l0.022-0.036l5.163-13.604C417.885,348.515,421.227,339.3,421.964,337.26z M412.037,351.122    c-0.853-0.552-1.763-1.088-2.526-1.631C414.988,343.109,418.284,338.463,412.037,351.122z"/>
		<path style="fill:#000E3F;" d="M431.758,368.542c1.873-1.696,3.393-3.808,5.022-5.787c0.475-0.711,0.953-1.418,1.236-2.271    c0.895-2.02,1.467-4.077,1.611-6.249c0.166-1.853-0.377-3.981-1.51-5.383c-2.585-1.772-5.161-4.301-8.098-5.525    c-0.058,0.007-0.139,0.05-0.197,0.058c-5.47,7.682-11.955,15.165-16.131,22.747l0.054-0.009c2.739,2.04,5.706,4.25,8.645,6.287    c3.195-0.814,6.491-1.907,9.289-3.825C431.701,368.549,431.733,368.573,431.758,368.542z M427.817,363.832    c-0.55,0.197-1.169,0.344-1.786,0.29c-0.3-0.07-0.529-0.04-0.734-0.243c-0.853-0.484-1.896-1.055-2.069-1.844    c2.022-3.056,4.638-6.022,6.224-8.49l0.098-0.132l0.033,0.025l0.063,0.047c0.904,0.42,1.793,1.133,2.47,1.79    c1.077,1.613,0.254,3.534-0.48,5.064C430.804,362.203,429.415,363.249,427.817,363.832z"/>
		<path style="fill:#000E3F;" d="M446.571,355.412l-0.094-0.076c-5.048,5.423-9.195,11.165-13.839,16.604l0.033,0.027    c1.25,0.974,2.975,2.397,4.174,3.175c4.167-5.569,9.123-11.329,13.633-16.617C449.604,357.227,447.746,356.222,446.571,355.412z"/>
		<path style="fill:#000E3F;" d="M431.58,373.806c-0.958,1.158-3.399,3.361-3.117,3.592l2.38,1.907l0.059,0.051    c0.475,0.389,0.666,0.599,1.169,1.014l0.218,0.18c1.007-1.223,2.206-2.551,3.195-3.686c-1.223-1.008-2.538-2.67-3.877-3.087    L431.58,373.806z"/>
		<path style="fill:#000E3F;" d="M387.145,288.593l0.036,0.013c1.615,0.343,3.403,1.021,5.055,1.375    c0.077,0.033,0.128,0.009,0.144-0.027c0.539-1.889,2.374-5.356,2.376-6.231c-1.178-0.343-3.395-1.148-4.754-1.912    c-0.038-0.016-0.038-0.016-0.06-0.069c-0.135-0.976,0.193-2.332,1.288-3.426c3.253,0.956,7.525,2.545,10.316,3.447    c0.628-1.236,1.714-4.263,2.246-5.582c-3.799-2.757-14.106-6.112-16.889-6.706l-0.018,0.034    c-4.716,11.735-6.673,16.379-10.346,25.509l0.024,0.052c0.325,0.393,4.524,2.039,6.561,2.639    C384.316,294.862,385.606,291.654,387.145,288.593z"/>
		<path style="fill:#000E3F;" d="M409.724,309.929c1.127-1.258,2.004-3,2.675-4.62l0.036-0.072c-3.361-1.546-6.235-3.35-9.433-4.95    l-0.018-0.054c0.473-1.218,1.31-3.253,2.273-4.544c0.711-0.144,2.91,1.456,4.6,1.802c0.853-1.801,1.892-3.327,2.455-5.089    l0.02-0.036c-1.472-0.783-3.02-1.512-4.418-2.349l-0.018-0.054c0.33-1.472,1.42-2.836,2.094-4.272l0.054-0.018l0.108,0.054    c3.345,1.313,6.309,3.476,9.744,4.333l0.018-0.036c0.853-1.71,1.983-3.329,2.583-5.163c0.11-0.217-9.377-4.784-15.161-7.317    c-4.638,8.091-8.259,16.417-12.48,24.85C399.344,305.139,404.799,307.414,409.724,309.929z"/>
		<path style="fill:#000E3F;" d="M426.462,319.797c1.214-1.171,2.215-2.845,3.004-4.411l0.043-0.069    c-3.24-1.789-5.973-3.797-9.047-5.627l-0.016-0.056c0.563-1.182,1.546-3.15,2.605-4.366c0.716-0.094,2.793,1.663,4.454,2.132    c0.983-1.732,2.13-3.179,2.82-4.898l0.023-0.034c-1.411-0.886-2.897-1.726-4.234-2.664l-0.012-0.054    c0.433-1.447,1.622-2.724,2.397-4.11l0.058-0.012l0.103,0.063c3.242,1.551,6.038,3.925,9.403,5.033l0.02-0.036    c0.978-1.642,2.221-3.173,2.955-4.959c0.125-0.211-9.005-5.461-14.587-8.407c-5.217,7.728-9.439,15.767-14.268,23.869    C416.459,314.261,421.73,316.931,426.462,319.797z"/>
		<path style="fill:#000E3F;" d="M428.289,321.177c10.655,7.611,12.367,8.349,13.234,9.096c0.936,0.649,0.922,0.886,2.975-2.441    c0.218-0.393,0.599-0.871,0.933-1.281c0.197-0.211,0.382-0.478,0.543-0.713c-1.163-0.608-7.47-5.856-8.524-6.19l0.022-0.033    c4.075-5.685,8.308-12.446,12.473-18.116c-0.904-1.416-4.126-3.543-5.284-3.799c-6.359,9.491-8.622,13.117-15.957,22.873    L428.289,321.177z"/>
		<path style="fill:#000E3F;" d="M449.591,336.27c5.197-7.644,11.54-14.97,17.207-22.356l0.099-0.126l-0.772-0.595    c-1.961-1.452-2.726-2.192-3.474-2.82c-0.291-0.224-1.021-0.936-1.272-1.079l-0.049,0.063    c-6.319,6.63-11.255,15.396-17.833,22.695C444.601,332.49,448.336,336.434,449.591,336.27z"/>
		<path style="fill:#000E3F;" d="M474.157,336.879l8.511-9.946c-0.482-0.626-1.108-1.27-1.88-1.929    c-0.774-0.66-1.568-1.234-2.383-1.719c-0.902,0.994-1.674,1.831-2.414,2.699c-1.27,1.479-2.34,2.919-3.74,4.557    c-0.608,0.713-1.467,1.526-1.669,1.515c-0.094-0.079,1.562-6.581,1.817-7.378c0.738-2.367,0.646-2.82,1.353-4.837    c0.159-0.184-1.772-2.051-2.298-2.501c-0.494-0.424-1.014-0.815-1.496-1.068c-2.462,2.443-4.93,5.199-7.36,8.042    c-3.305,3.86-6.094,7.306-9.449,11.23l-1.851,2.161c0.958,0.821,1.822,1.88,2.809,2.724c0.462,0.395,0.922,0.738,1.492,1.01    c0.575-0.738,1.342-1.634,2.161-2.591c2.96-3.46,6.807-7.768,6.929-7.664c0.094,0.079-0.15,0.675-0.391,1.27l-0.485,1.191    c-1.286,3.447-2.322,7.537-3.583,11.755c0.835,0.714,1.876,1.873,2.711,2.587c0.711,0.608,1.032,0.669,1.151,0.716l0.53-0.617    c0.713-0.833,1.369-1.662,2.084-2.497c0.976-1.144,1.934-2.195,2.964-3.402C471.176,340.43,472.71,338.638,474.157,336.879z"/>
		<path style="fill:#000E3F;" d="M490.232,334.532c-1.18-0.887-2.417-1.604-3.853-1.716c-1.896-0.339-3.529,0.557-4.993,1.622    c-1.434,1.037-2.782,2.277-4.043,3.485c-2.924,2.765-4.068,4.205-6.278,6.879c-0.686,0.864-1.344,1.817-1.66,2.362    c-1.171,2.102-1.541,3.913-0.673,6.094c1.068,2.61,3.859,4.53,6.303,5.874c2.013,0.915,3.998,1.054,6.146-0.704    c2.439-1.699,4.672-4.234,6.478-6.509l0.002-0.056l-0.06-0.06c-0.776-0.772-4.436-5.39-6.018-5.76    c-0.056,0.004-0.087-0.027-0.087-0.027c-0.027-0.031-0.027-0.031-0.056,0l-0.029,0.029c-1.174,1.468-1.807,1.757-2.896,3.137    c0.231,0.516,1.699,1.634,2.075,2.179c0.143,0.316-1.348,1.468-1.75,1.699c-0.687,0.404-1.292,0.377-1.923,0.146    c-0.749-0.341-1.553-0.855-2.044-1.517c-0.202-0.314-0.345-0.628-0.406-0.918c-0.144-1.29,0.858-2.585,1.6-3.511    c2.637-3.106,6.307-6.563,8.688-7.86c0.4-0.231,0.92-0.462,1.091-0.462c0.918-0.004,1.438,0.743,2.073,1.431    c1.12,1.119,0.121,3.332-0.42,4.34c1.007,1.288,1.496,1.662,2.62,2.782c0.633,0.57,0.835,0.83,1.037,0.801l0.2-0.144    C496.575,343.998,495.069,338.258,490.232,334.532z"/>
	</g>
	<g>
		<path style="fill:#FD8A02;" d="M511.218,174.908c-4.374-2.189-9.711-3.271-14.624-3.695c-0.413-5.762-1.492-12.111-3.846-17.381    c-0.488-1.088-2.044-1.088-2.525,0.008c-2.329,5.306-3.358,11.667-3.733,17.38c-4.889,0.435-10.194,1.523-14.551,3.733    c-1.085,0.55-1.106,2.129,0.009,2.686c4.355,2.174,9.642,3.23,14.551,3.637c0.426,6.253,2.598,17.202,4.54,18.053    c0.743,0.325,1.609-0.013,1.934-0.756c2.315-5.284,3.327-11.643,3.678-17.355c4.897-0.457,10.21-1.566,14.577-3.786    c0.26-0.132,0.483-0.346,0.624-0.628C512.2,176.107,511.917,175.258,511.218,174.908z"/>
		<path style="fill:#FD8A02;" d="M492.473,255.534c-3.618-1.81-8.032-2.705-12.095-3.056c-0.341-4.765-1.234-10.016-3.181-14.374    c-0.404-0.9-1.69-0.9-2.089,0.007c-1.926,4.388-2.777,9.649-3.087,14.374c-4.043,0.36-8.431,1.259-12.034,3.087    c-0.898,0.455-0.915,1.761,0.007,2.221c3.602,1.798,7.974,2.671,12.035,3.008c0.353,5.171,2.148,14.227,3.754,14.931    c0.614,0.269,1.33-0.011,1.599-0.625c1.914-4.37,2.752-9.629,3.042-14.353c4.05-0.378,8.444-1.295,12.055-3.131    c0.215-0.109,0.399-0.286,0.516-0.519C493.285,256.526,493.051,255.823,492.473,255.534z"/>
		<path style="fill:#FD8A02;" d="M455.495,88.986c-3.618-1.81-8.032-2.705-12.095-3.056c-0.341-4.765-1.234-10.016-3.181-14.374    c-0.404-0.9-1.69-0.9-2.088,0.007c-1.927,4.388-2.777,9.649-3.088,14.374c-4.043,0.36-8.431,1.26-12.034,3.088    c-0.898,0.454-0.915,1.761,0.007,2.221c3.602,1.798,7.974,2.671,12.034,3.008c0.353,5.171,2.148,14.227,3.754,14.931    c0.615,0.269,1.33-0.011,1.599-0.625c1.914-4.37,2.752-9.629,3.042-14.353c4.05-0.378,8.444-1.295,12.055-3.131    c0.216-0.109,0.4-0.286,0.516-0.519C456.306,89.977,456.072,89.275,455.495,88.986z"/>
	</g>
</g>















</svg>
