<?xml version="1.0" encoding="UTF-8"?>
<!-- Generator: Adobe Illustrator 25.2.3, SVG Export Plug-In . SVG Version: 6.00 Build 0)  -->
<svg xmlns="http://www.w3.org/2000/svg" xmlns:xlink="http://www.w3.org/1999/xlink" version="1.1" id="Capa_1" x="0px" y="0px" viewBox="0 0 512 512" style="enable-background:new 0 0 512 512;" xml:space="preserve" width="512" height="512">
<g>
	<polygon style="fill:#7C3E25;" points="119.694,211.141 309.37,128.804 358.226,355.322 342.277,405.134 163.8,406.421    112.403,389.267 80.889,357.75 80.889,289.838  "/>
	<path style="fill:#091438;" d="M286.206,454.147l4.173,25.951C73.007,522.281,84.13,375.819,84.13,375.819L51.683,342   L39.918,238.416l68.77-22.49l11.006-4.785c5.925,19.684,20.026,77.303-7.756,105.833l3.251,40.762   c0,0,53.944-25.104,132.337,20.975c-2.227,3.029-3.033,6.393-3.033,6.393c22.389,19.377,51.888,4.614,51.888,4.614l-3.169-14.989   c16.741-4.921,46.858-13.957,65.012-19.408l15.101,70.101L286.206,454.147z"/>
	<path style="fill:#7C3E25;" d="M256.536,425.645c0,28.608-25.442,51.796-56.83,51.796c-31.384,0-56.833-23.188-56.833-51.796   c0-28.598,25.449-51.793,56.833-51.793C231.094,373.852,256.536,397.047,256.536,425.645z"/>
	<g>
		<path style="opacity:0.1;fill:#FFFFFF;" d="M233.03,407.2c2.124,10.47-10.405,21.836-27.98,25.401    c-17.581,3.558-33.546-2.039-35.667-12.516c-2.12-10.464,10.406-21.833,27.983-25.395    C214.944,391.132,230.909,396.736,233.03,407.2z"/>
		<path style="fill:#091438;" d="M163.8,392.491c0,0,11.84,40.318,77.973,16.184C241.772,408.675,177.624,443.649,163.8,392.491z"/>
	</g>
	<path style="fill:#FFC524;" d="M510.278,92.656L28.98,261.928c0,0-62.335-187,109.723-230.101   C310.76-11.275,325.708,144.1,325.708,144.1S532.868,7.841,510.278,92.656z"/>
	<path style="fill:#7C3E25;" d="M103.135,365.632c0,0-15.757,60.706-48.204,59.784c-32.44-0.922-66.734-52.834-50.98-106.598   c15.76-53.762,68.595-48.199,92.695,6.488C96.646,325.307,87.378,367.025,103.135,365.632z"/>
	<path style="fill:#091438;" d="M270.906,269.691l25.486,120.041c0,0-29.499,14.756-51.905-4.628c0,0,4.634-19.008,21.781-7.424   c0,0-17.031-1.742-17.379,6.253c0,0,23.984,9.385,43.446,3.821C292.336,387.754,266.853,284.06,270.906,269.691z"/>
	<polygon style="fill:#091438;" points="216.187,480.763 204.746,483.001 166.163,474.661 187.019,439.903 215.176,439.903  "/>
	<g>
		<path style="fill:#EA4A0C;" d="M226.125,375.593c-27.696,0-50.229-26.429-50.229-58.92c0-32.488,22.533-58.917,50.229-58.917    c27.696,0,50.225,26.429,50.225,58.917C276.35,349.164,253.821,375.593,226.125,375.593z M226.125,266.1    c-23.096,0-41.889,22.686-41.889,50.574c0,27.891,18.793,50.58,41.889,50.58c23.096,0,41.885-22.689,41.885-50.58    C268.01,288.786,249.221,266.1,226.125,266.1z"/>
		<path style="fill:#EA4A0C;" d="M328.761,352.549c-27.693,0-50.222-26.429-50.222-58.917c0-32.486,22.529-58.917,50.222-58.917    c27.696,0,50.225,26.431,50.225,58.917C378.986,326.119,356.457,352.549,328.761,352.549z M328.761,243.058    c-23.093,0-41.882,22.686-41.882,50.574c0,27.887,18.789,50.577,41.882,50.577c23.096,0,41.885-22.69,41.885-50.577    C370.646,265.745,351.857,243.058,328.761,243.058z"/>
		
			<rect x="90.561" y="323.096" transform="matrix(0.9986 -0.0521 0.0521 0.9986 -17.0082 7.5227)" style="fill:#EA4A0C;" width="90.502" height="13.904"/>
		
			<rect x="271.574" y="303.21" transform="matrix(0.9898 -0.1425 0.1425 0.9898 -40.9622 42.7202)" style="fill:#EA4A0C;" width="12.483" height="8.343"/>
	</g>
	<path style="fill:#091438;" d="M206.829,320.341c0,6.659-2.564,12.055-5.734,12.055c-3.166,0-5.738-5.396-5.738-12.055   c0-6.669,2.572-12.072,5.738-12.072C204.265,308.269,206.829,313.672,206.829,320.341z"/>
	<path style="fill:#091438;" d="M304.852,301.903c0,6.67-2.568,12.065-5.734,12.065c-3.169,0-5.734-5.396-5.734-12.065   c0-6.663,2.565-12.065,5.734-12.065C302.284,289.838,304.852,295.241,304.852,301.903z"/>
	
		<rect x="163.256" y="236.846" transform="matrix(0.8354 -0.5496 0.5496 0.8354 -102.9108 152.2557)" style="fill:#091438;" width="79.054" height="22.246"/>
	
		<rect x="304.89" y="184.27" transform="matrix(0.0227 -0.9997 0.9997 0.0227 86.4032 533.347)" style="fill:#091438;" width="22.245" height="76.414"/>
	<path style="fill:#FFC524;" d="M121.856,25.756c1.161,2.28-2.34,6.391-7.817,9.171c-5.478,2.78-10.86,3.183-12.018,0.9   c-1.157-2.281,2.34-6.393,7.817-9.169C115.316,23.876,120.695,23.468,121.856,25.756z"/>
	<path style="fill:#FFFFFF;" d="M320.028,149.197l-174.724,61.944c0,0-54.682-131.922,50.054-167.609   C300.102,7.841,320.028,149.197,320.028,149.197z"/>
	<polygon style="fill:#FFC524;" points="195.358,168.202 169.759,132.976 231.049,67.629 287.589,75.509 287.589,146.419  "/>
	<path style="fill:#FFFFFF;" d="M233.266,136.688c0,2.3-3.921,4.168-8.757,4.168c-4.839,0-8.756-1.868-8.756-4.168   c0-2.305,3.917-4.175,8.756-4.175C229.345,132.513,233.266,134.383,233.266,136.688z"/>
	<path style="fill:#FFFFFF;" d="M252.366,137.844c0,1.663-2.373,3.012-5.3,3.012c-2.92,0-5.294-1.349-5.294-3.012   c0-1.661,2.373-3.011,5.294-3.011C249.992,134.833,252.366,136.183,252.366,137.844z"/>
	<path style="fill:#FFFFFF;" d="M280.639,117.452c0,2.428-4.255,4.402-9.504,4.402c-5.246,0-9.501-1.974-9.501-4.402   c0-2.431,4.255-4.404,9.501-4.404C276.384,113.049,280.639,115.021,280.639,117.452z"/>
	<path style="fill:#FFFFFF;" d="M206.829,149.197c0,1.538-2.564,2.785-5.734,2.785c-3.166,0-5.738-1.246-5.738-2.785   c0-1.532,2.572-2.778,5.738-2.778C204.265,146.419,206.829,147.666,206.829,149.197z"/>
	<path style="fill:#FFFFFF;" d="M280.639,137.81c0,2.92-3.508,5.297-7.831,5.297c-4.313,0-7.82-2.377-7.82-5.297   c0-2.927,3.507-5.297,7.82-5.297C277.132,132.513,280.639,134.883,280.639,137.81z"/>
	<polygon style="fill:#091438;" points="285.219,81.716 175.431,132.513 282.767,76.723  "/>
	<path style="fill:#091438;" d="M13.575,338.004c0,0,7.633-30.582,26.894-20.88c19.264,9.695,38.98,81.927,14.128,88.846   c-24.848,6.916-18.967-35.038-10.112-39.922l-15.05-2.383l21.249-1.417c0,0-16.085,25.992-8.094,36.415   c7.998,10.443,28.557,0.451,17.581-39.304C40.847,289.387,13.575,338.004,13.575,338.004z"/>
</g>















</svg>
