<?xml version="1.0" encoding="UTF-8"?>
<!-- Generator: Adobe Illustrator 25.4.1, SVG Export Plug-In . SVG Version: 6.00 Build 0)  -->
<svg xmlns="http://www.w3.org/2000/svg" xmlns:xlink="http://www.w3.org/1999/xlink" version="1.1" id="Capa_1" x="0px" y="0px" viewBox="0 0 512 512" style="enable-background:new 0 0 512 512;" xml:space="preserve" width="512" height="512">
<g>
	<g>
		<g>
			<ellipse style="fill:#000E3F;" cx="340.826" cy="296.04" rx="29.009" ry="34.558"/>
			<ellipse style="fill:#000E3F;" cx="139.096" cy="296.04" rx="29.009" ry="34.558"/>
		</g>
		<g>
			<g>
				<path style="fill:#FF8EDE;" d="M312.184,490.26c-53.552,5.766-91.824,5.671-144.427,0c-29.659-3.179-49.4-11.84-59.935-23.347      c-10.44-11.413-11.792-25.625-4.651-40.028c1.115-2.254,2.444-4.508,3.962-6.762c1.139-1.685,2.396-3.369,3.773-5.054      c6.145-7.545,14.64-14.924,25.341-21.805c1.139-0.736,2.325-1.471,3.512-2.183c0.712-0.427,1.424-0.854,2.135-1.281      c1.827-1.068,3.654-2.088,5.528-3.061c10.986-5.884,22.683-10.559,34.831-14.094c37.133-10.748,78.418-10.653,115.314,0      c12.077,3.488,23.68,8.115,34.499,13.857c1.874,0.973,3.701,1.993,5.528,3.037c0.878,0.498,1.732,1.02,2.586,1.542      c1.044,0.641,2.064,1.281,3.085,1.946c1.613,0.997,3.156,2.041,4.674,3.085c8.518,5.908,15.446,12.172,20.737,18.531      c1.376,1.685,2.657,3.369,3.82,5.054c1.542,2.23,2.871,4.461,4.01,6.691C391.29,455.476,371.573,483.901,312.184,490.26z"/>
				<path style="opacity:0.5;fill:#FC09B2;" d="M312.173,490.268c-53.532,5.751-91.809,5.66-144.418,0      c-29.65-3.178-49.401-11.851-59.935-23.354c8.915-8.203,22.854-11.034,37.414-11.608c16.225-0.635,33.222,1.514,44.921,2.165      c38.458,2.134,85.543,3.511,121.958-11.064c25.321-10.125,28.545-27.259,35.825-50.294      c10.761,7.477,18.994,15.483,24.564,23.581C394.083,450.961,376.133,483.411,312.173,490.268z"/>
				<g>
					<path style="fill:#FC09B2;" d="M239.722,447.148c51.512,0,94.529-22.636,103.545-54.121c-1.02-0.664-2.041-1.305-3.085-1.946       c-0.854-0.522-1.708-1.044-2.586-1.542c-1.827-1.044-3.654-2.064-5.528-3.037c-0.308,0.498-0.498,1.02-0.641,1.59       c-6.264,26.432-45.675,46.339-91.705,46.339c-45.841,0-85.228-19.836-91.658-46.125c-0.142-0.569-0.332-1.091-0.641-1.566       c-1.874,0.973-3.701,1.993-5.528,3.061c-0.712,0.427-1.424,0.854-2.135,1.281c-1.186,0.712-2.373,1.447-3.512,2.183       C145.383,424.583,188.4,447.148,239.722,447.148z"/>
					<path style="fill:#FC09B2;" d="M372.498,419.695c-1.163-1.685-2.444-3.369-3.82-5.054c-0.949,0.712-1.685,1.685-2.135,2.871       c-10.559,28.805-65.083,50.515-126.821,50.515c-34.618,0-67.195-6.549-91.729-18.436c-18.08-8.755-30.489-20.026-34.926-31.723       c-0.451-1.186-1.21-2.135-2.159-2.8c-1.376,1.685-2.634,3.369-3.773,5.054c-1.519,2.254-2.847,4.508-3.962,6.762       c6.667,13.121,20.144,24.842,39.292,34.143c26.218,12.694,60.765,19.693,97.257,19.693c64.87,0,121.008-22.588,136.787-54.335       C375.369,424.156,374.041,421.926,372.498,419.695z"/>
				</g>
			</g>
			<path style="fill:#000E3F;" d="M239.932,496.382c-22.839,0-45.661-1.437-72.372-4.312c-28.407-3.045-49.528-11.32-61.078-23.93     c-12.45-13.605-12.763-31.473-0.861-49.027c7.132-10.544,18.611-20.777,33.195-29.592c0.726-0.434,1.442-0.861,2.174-1.288     c12.464-7.27,26.177-13.098,40.759-17.323c37.47-10.855,78.782-10.855,116.322,0c14.483,4.166,28.088,9.908,40.439,17.064     c0.875,0.507,1.748,1.026,2.606,1.548c2.73,1.653,5.374,3.369,7.86,5.102c10.783,7.49,19.202,15.58,25.022,24.04     c9.378,13.589,11.511,27.69,6.003,39.7c-8.228,17.943-32.247,29.913-67.634,33.705l0,0     C285.621,494.943,262.767,496.382,239.932,496.382z M239.884,366.395c-19.363,0-38.715,2.666-57.125,8.002     c-14.297,4.142-27.736,9.851-39.941,16.972c-0.721,0.42-1.426,0.84-2.133,1.261c-14.131,8.54-25.22,18.404-32.06,28.519     c-11.041,16.283-10.852,32.1,0.531,44.541c10.946,11.948,31.275,19.824,58.791,22.774c53.127,5.718,90.817,5.718,144.033,0l0,0     c34.063-3.651,57.049-14.877,64.721-31.61c5.026-10.96,3.058-23.452-5.693-36.13c-5.571-8.101-13.681-15.879-24.106-23.121     c-2.423-1.69-5.003-3.364-7.669-4.978c-0.84-0.51-1.692-1.019-2.542-1.511c-12.095-7.008-25.425-12.632-39.625-16.717     C278.62,369.063,259.246,366.395,239.884,366.395z"/>
		</g>
		<g>
			<g>
				<path style="fill:#DB5E43;" d="M279.284,398.309c-6.614,17.284-24.594,29.06-43.15,27.561      c-34.674-2.8-44.074-39.896-37.399-70.166c3.602-16.391,11.941-30.784,23.52-36.657c30.875-15.635,51.943,10.08,58.451,39.033      C283.87,372.202,283.583,387.079,279.284,398.309z"/>
				<path style="opacity:0.25;fill:#000E3F;" d="M280.707,358.08c-0.409,1.529-0.09,2.542-0.635,3.965      c-6.614,17.285-25.382,29.499-43.938,28.001c-21.265-1.726-34.501-16.339-38.875-34.35      c3.602-16.391,13.417-30.776,24.996-36.649C253.131,303.412,274.199,329.127,280.707,358.08z"/>
			</g>
			<path style="fill:#000E3F;" d="M239.285,427.811c-1.098,0-2.197-0.044-3.297-0.133c-12.652-1.022-23.124-6.682-30.286-16.372     c-10.018-13.55-13.365-35.004-8.737-55.994c3.943-17.948,13.091-32.111,24.471-37.882c11.704-5.929,22.713-6.54,32.735-1.818     c13.201,6.223,23.783,21.95,28.306,42.068c3.355,14.979,2.81,30.024-1.499,41.277l0,0     C274.422,416.095,257.237,427.811,239.285,427.811z M240.3,316.12c-5.485,0-11.242,1.516-17.224,4.547     c-10.418,5.282-18.855,18.528-22.568,35.427c-4.409,19.996-1.3,40.325,8.112,53.057c6.614,8.946,15.92,13.962,27.659,14.91     c17.544,1.408,34.917-9.686,41.312-26.4l0,0c4.058-10.604,4.549-24.885,1.346-39.184c-4.28-19.034-14.117-33.833-26.315-39.581     C248.699,317.044,244.582,316.12,240.3,316.12z"/>
		</g>
		<g>
			<g>
				<path style="fill:#DB5E43;" d="M352.082,232.219c-3.338,0.766-6.494,2.109-9.393,3.882      c-4.039-22.434-10.509-37.965-12.96-45.308c-0.299-0.896-0.831-1.427-1.72-1.703c-48.951-15.195-78.994-14.004-82.422-14.569      c-7.845-1.293-56.058,1.767-93.395,14.477c-2.143,0.73-1.709,1.516-4.356,8.585c-4.435,11.841-8.104,25.011-10.549,38.555      c-2.914-1.791-6.088-3.148-9.447-3.919c-24.869-5.704-35.874,23.004-13.549,43.519c7.075,6.501,15.832,9.403,20.467,9.378      c0.38,3.846,0.906,7.632,1.619,11.324c5.242,27.133,18.701,45.699,45.583,57.858c38.498,17.413,91.717,14.274,123.507-3.771      c21.476-12.191,34.279-29.292,38.737-57.694c0.403-2.569,0.698-5.147,0.945-7.717c4.632,0.03,13.398-2.87,20.48-9.378      C387.956,255.223,376.951,226.515,352.082,232.219z"/>
				<g style="opacity:0.25;">
					<path style="fill:#000E3F;" d="M286.677,303.494c-10.201-8.596-8.738-22.839,1.904-30.448       c10.456-7.476,25.377-6.488,33.806,2.954c9.489,10.629,4.45,27.597-12.615,32.34       C302.287,310.419,293.284,309.061,286.677,303.494z"/>
					<path style="fill:#000E3F;" d="M193.246,303.494c10.201-8.596,8.738-22.839-1.904-30.448       c-10.456-7.476-25.377-6.488-33.806,2.954c-9.49,10.629-4.45,27.597,12.614,32.34       C177.636,310.419,186.639,309.061,193.246,303.494z"/>
					<path style="fill:#000E3F;" d="M361.393,250.114c-0.251,2.028-0.972,3.914-1.887,5.689c-0.933,1.766-2.107,3.404-3.464,4.87       c-1.356,1.467-2.902,2.76-4.593,3.825c-1.7,1.048-3.528,1.907-5.533,2.307c-0.914,0.182-1.802-0.411-1.984-1.324       c-0.101-0.504,0.035-1.001,0.33-1.375l0.035-0.043c1.179-1.48,2.398-2.734,3.579-4.004l3.529-3.719l3.515-3.742       c1.204-1.255,2.387-2.552,3.797-3.827l0.032-0.029c0.651-0.589,1.657-0.539,2.246,0.113       C361.315,249.207,361.445,249.673,361.393,250.114z"/>
					<path style="fill:#000E3F;" d="M121.206,248.768c1.41,1.275,2.593,2.572,3.797,3.827l3.515,3.742l3.529,3.719       c1.181,1.271,2.399,2.524,3.579,4.004l0.03,0.038c0.581,0.728,0.461,1.79-0.268,2.37c-0.402,0.321-0.913,0.426-1.381,0.335       c-2.005-0.4-3.833-1.259-5.533-2.307c-1.691-1.064-3.236-2.358-4.593-3.825c-1.357-1.466-2.531-3.104-3.464-4.87       c-0.915-1.775-1.636-3.66-1.887-5.689c-0.108-0.871,0.511-1.665,1.383-1.773c0.475-0.059,0.926,0.098,1.257,0.394       L121.206,248.768z"/>
				</g>
				<path style="opacity:0.45;fill:#000E3F;" d="M227.143,277.59c-10.586-9.205,5.685-24.256,13.52-23.722      c7.394,0.504,18.388,10.944,15.5,18.842C252.524,282.665,234.541,284.023,227.143,277.59z"/>
				<path style="fill:#FFFFFF;" d="M270.733,318.682c-14.091,23.732-52.322,23.127-64.051-4.813c-0.015,0-0.015,0-0.015,0      c-0.015-0.045-0.03-0.075-0.046-0.121c-3.269-7.84-3.178-16.18,3.466-21.114c10.019-7.416,34.356-6.977,45.435-5.237      c0.5,0.075,0.999,0.166,1.468,0.257C276.257,291.212,279.981,303.077,270.733,318.682z"/>
				<path style="opacity:0.18;fill:#000E3F;" d="M270.733,318.682c-14.091,23.732-52.322,23.127-64.051-4.813      c0.439,0.046,0.878,0.106,1.317,0.182c3.557,0.605,6.902,2.119,10.398,3.043c10.337,2.694,22.006-0.469,29.574-8.022      c5.63-5.599,8.839-13.485,9.02-21.416C276.257,291.212,279.981,303.077,270.733,318.682z"/>
			</g>
			<g>
				<path style="fill:#000E3F;" d="M376.937,240.451c-4.57-8.692-14.249-12.522-25.261-10c-2.618,0.6-5.189,1.548-7.667,2.825      c-3.328-17.314-8.037-30.4-10.903-38.364c-0.655-1.821-1.221-3.387-1.656-4.693c-0.484-1.453-1.462-2.414-2.902-2.863      c-41.716-12.947-70.148-14.078-79.492-14.448c-1.543-0.062-2.762-0.11-3.173-0.177c-8.374-1.384-56.497,1.688-94.276,14.549      c-2.413,0.82-2.85,2.117-3.908,5.245c-0.372,1.102-0.856,2.535-1.562,4.42c-4.282,11.435-7.778,23.953-10.166,36.362      c-2.498-1.295-5.088-2.253-7.725-2.857c-11.011-2.523-20.685,1.307-25.261,9.998c-4.829,9.181-3.585,24.067,10.079,36.625      c6.407,5.886,14.542,9.212,20.051,9.771c0.384,3.488,0.88,6.824,1.483,9.938c5.576,28.86,19.954,47.108,46.616,59.166      c17.355,7.849,38.173,11.72,58.888,11.718c24.113,0,48.086-5.247,66.261-15.562c23.062-13.091,35.285-31.284,39.636-58.993      c0.299-1.92,0.56-3.942,0.802-6.266c5.511-0.558,13.647-3.881,20.056-9.773C380.524,264.516,381.768,249.632,376.937,240.451z       M364.402,274.402c-7.068,6.496-15.488,8.9-19.186,8.9c-0.023,0-0.053-0.002-0.065,0c-0.933,0-1.717,0.71-1.805,1.641      c-0.282,2.926-0.576,5.345-0.932,7.608c-4.161,26.511-15.831,43.905-37.84,56.397c-32.876,18.66-85.267,20.248-121.865,3.695      c-25.479-11.523-39.218-28.963-44.55-56.548c-0.668-3.465-1.205-7.218-1.594-11.158c-0.092-0.928-0.873-1.635-1.805-1.635      c-0.035,0-0.037,0-0.055,0c-3.692,0-12.119-2.405-19.185-8.9c-12.246-11.252-13.507-24.313-9.323-32.263      c3.828-7.277,11.766-10.322,21.238-8.152c3.061,0.701,6.056,1.945,8.905,3.695c0.51,0.316,1.142,0.353,1.69,0.112      c0.547-0.244,0.939-0.744,1.045-1.334c2.349-13.013,5.966-26.237,10.46-38.242c0.725-1.931,1.221-3.399,1.602-4.53      c0.923-2.73,0.923-2.73,1.64-2.974c37.324-12.705,85.276-15.596,92.515-14.404c0.634,0.104,1.759,0.151,3.621,0.223      c9.226,0.367,37.299,1.483,78.558,14.288c0.308,0.096,0.415,0.179,0.539,0.546c0.443,1.328,1.015,2.921,1.683,4.774      c2.964,8.235,7.924,22.019,11.211,40.279c0.106,0.59,0.496,1.09,1.044,1.334c0.545,0.246,1.178,0.205,1.688-0.108      c2.829-1.731,5.807-2.962,8.852-3.66c9.47-2.168,17.412,0.875,21.24,8.152C377.909,250.091,376.648,263.15,364.402,274.402z"/>
				<path style="fill:#000E3F;" d="M290.278,239.177c-6.095-2.886-12.599-2.007-17.856,2.411c-3.895,3.276-6.159,7.766-6.926,13.729      c-0.128,0.994,0.576,1.902,1.57,2.03c1.001,0.119,1.901-0.576,2.03-1.57c0.643-5.017,2.496-8.751,5.662-11.412      c4.122-3.467,9.213-4.163,13.968-1.911c5.699,2.701,9.468,8.901,9.38,15.428c-0.014,1.002,0.788,1.825,1.789,1.839      c0.009,0,0.018,0,0.025,0c0.99,0,1.8-0.795,1.814-1.789C301.838,250.011,297.234,242.474,290.278,239.177z"/>
				<path style="fill:#000E3F;" d="M196.166,237.347c-8.553,0.439-17.461,7.603-17.943,20.449c-0.037,1.001,0.742,1.842,1.745,1.88      c0.023,0.002,0.046,0.002,0.069,0.002c0.969,0,1.775-0.769,1.81-1.747c0.4-10.667,7.6-16.607,14.505-16.96      c5.745-0.333,13.025,3.352,14.609,14.591c0.14,0.99,1.036,1.69,2.05,1.543c0.992-0.14,1.683-1.057,1.543-2.05      C212.752,242.266,204.033,236.956,196.166,237.347z"/>
			</g>
		</g>
		<g>
			<path style="fill:#000E3F;" d="M279.473,147.264c0,0-6.346-14.278-17.847-24.521c-29.31-26.104-85.778-18.664-115.628,2.371     c-16.944,11.94-32.543,31.449-37.203,52.051c-4.016,17.752-4.809,44.502,10.429,57.578     c43.213,37.081,94.237-44.005,145.661-32.903c26.939,5.816,33.064,40.916,59.892,48.305c16.371,4.509,30.732-5.176,36.576-20.377     C375.18,193.803,342.552,133.693,279.473,147.264z"/>
			<g>
				<path style="fill:#322BBF;" d="M276.314,157.182c-1.241,2.688-2.551,5.441-3.7,8.127c-1.153,2.708-2.144,5.435-3.013,8.171      c-0.886,2.736-1.583,5.505-2.095,8.333c-0.605,2.836-0.763,5.703-1.188,8.761l-0.024,0.173c-0.141,1.013-1.076,1.72-2.089,1.58      c-0.702-0.097-1.257-0.578-1.485-1.2c-1.14-3.126-1.809-6.523-1.68-9.9c0.036-3.38,0.578-6.769,1.65-9.956      c1.03-3.202,2.498-6.239,4.327-9.01c1.852-2.778,3.97-5.277,6.745-7.363c0.768-0.578,1.859-0.423,2.437,0.346      c0.398,0.529,0.448,1.211,0.19,1.773L276.314,157.182z"/>
				<path style="fill:#322BBF;" d="M295.795,160.402c7.49,0.523,14.653,2.406,21.58,5.25c6.911,2.83,13.45,6.883,19.027,12.173      c5.54,5.299,9.922,12.061,12.134,19.47c2.308,7.384,2.418,15.212,1.04,22.48c-0.188,0.992-1.145,1.644-2.137,1.456      c-0.861-0.163-1.465-0.904-1.487-1.746l-0.001-0.044c-0.189-7.004-1.1-13.832-3.553-20.033c-1.183-3.11-2.748-6.045-4.616-8.77      c-1.829-2.75-3.972-5.309-6.415-7.592c-4.791-4.663-10.523-8.462-16.659-11.607c-6.132-3.115-12.752-5.691-19.409-7.65      l-0.107-0.031c-0.909-0.267-1.428-1.221-1.161-2.129C294.263,160.841,295.01,160.346,295.795,160.402z"/>
				<path style="fill:#322BBF;" d="M288.957,184.614c5.687,0.168,11.033,1.711,16.112,4.199c5.061,2.481,9.642,6.163,13.224,10.699      c3.541,4.566,5.981,9.98,7.058,15.533c1.107,5.552,1.078,11.195,0.013,16.541c-0.198,0.996-1.166,1.642-2.162,1.444      c-0.816-0.163-1.397-0.842-1.471-1.629l-0.001-0.019c-0.481-5.141-1.249-10.095-2.673-14.748      c-0.764-2.305-1.559-4.579-2.703-6.672c-1.067-2.123-2.294-4.161-3.788-5.999c-2.871-3.762-6.517-6.946-10.621-9.597      c-4.098-2.609-8.752-4.778-13.429-6.357l-0.157-0.053c-0.898-0.303-1.38-1.277-1.077-2.175      C287.528,185.048,288.223,184.593,288.957,184.614z"/>
				<path style="fill:#322BBF;" d="M249.98,140.877c-12.452-6.48-26.282-9.762-40.031-9.556      c-13.745,0.222-27.381,3.847-39.411,10.422c-12.058,6.519-22.502,16-30.063,27.453c-7.554,11.464-12.117,24.909-13.222,38.882      c-0.079,1.003-0.957,1.753-1.961,1.673c-0.936-0.074-1.65-0.856-1.678-1.773c-0.198-7.321,0.779-14.691,2.627-21.852      c1.931-7.143,4.874-14.044,8.746-20.398c7.703-12.759,19.013-23.242,32.091-30.36c13.11-7.064,28.033-10.819,42.905-10.42      c7.427,0.168,14.814,1.388,21.871,3.571c7.029,2.26,13.778,5.351,19.864,9.408c0.789,0.522,1.006,1.586,0.483,2.375      C251.714,141.037,250.747,141.269,249.98,140.877z"/>
				<path style="fill:#322BBF;" d="M245.691,162.77c-10.442-2.329-21.129-2.829-31.524-1.524      c-10.382,1.353-20.497,4.538-29.544,9.63c-9.083,5.016-17.034,11.994-23.159,20.367c-6.104,8.396-10.339,18.188-12.534,28.617      c-0.207,0.986-1.175,1.617-2.161,1.41c-0.901-0.19-1.505-1.022-1.444-1.915c0.375-5.584,1.59-11.123,3.332-16.51      c1.825-5.36,4.322-10.529,7.467-15.292c6.248-9.573,15.002-17.46,24.965-23.01c9.994-5.519,21.151-8.809,32.438-9.636      c11.283-0.891,22.688,0.723,33.138,4.582c0.889,0.328,1.343,1.314,1.015,2.203C247.379,162.507,246.516,162.955,245.691,162.77z      "/>
				<path style="fill:#322BBF;" d="M228.297,188.02c-5.111,1.245-10.27,2.868-15.137,4.792c-4.873,1.973-9.549,4.298-13.857,7.123      c-4.397,2.71-8.25,6.131-11.744,9.883c-3.641,3.691-6.261,8.171-9.124,12.716l-0.113,0.179c-0.536,0.85-1.659,1.105-2.509,0.57      c-0.707-0.445-1.001-1.298-0.773-2.061c0.407-1.362,0.843-2.73,1.313-4.094l0.72-2.047c0.255-0.678,0.625-1.299,0.934-1.955      l2.034-3.863c0.773-1.231,1.673-2.382,2.513-3.58c0.432-0.59,0.848-1.197,1.298-1.774l1.496-1.602      c1.023-1.041,1.961-2.188,3.067-3.142l3.368-2.81c1.143-0.91,2.385-1.673,3.579-2.509c4.919-3.112,10.235-5.524,15.758-7.07      c5.539-1.543,11.149-2.431,16.975-2.173c0.948,0.042,1.682,0.844,1.64,1.793c-0.034,0.781-0.585,1.417-1.308,1.593      L228.297,188.02z"/>
			</g>
		</g>
	</g>
	<g>
		<path style="fill:#000E3F;" d="M329.409,109.002l-0.073-0.027c-1.004-0.39-6.117-3.102-7.683-2.808    c-0.055,0.021-0.092,0.007-0.092,0.007c-0.037-0.016-0.037-0.016-0.05,0.023l-0.014,0.037c-0.478,1.784-0.932,2.29-1.366,3.964    c0.409,0.372,2.172,0.799,2.723,1.141c0.255,0.225-0.629,1.853-0.9,2.22c-0.461,0.634-1.015,0.847-1.672,0.891    c-0.808-0.014-1.739-0.161-2.437-0.558c-0.307-0.207-0.562-0.432-0.726-0.668c-0.643-1.105-0.25-2.664,0.055-3.789    c1.146-3.833,3.082-8.389,4.712-10.498c0.271-0.365,0.643-0.776,0.799-0.843c0.825-0.367,1.585,0.098,2.429,0.47    c1.449,0.56,1.424,2.948,1.33,4.065c1.419,0.765,2.005,0.907,3.456,1.469c0.794,0.266,1.079,0.418,1.247,0.313l0.124-0.209    c3.056-5.793-0.563-10.359-6.381-11.801c-1.412-0.333-2.806-0.489-4.143-0.023c-1.839,0.443-2.957,1.892-3.853,3.428    c-0.88,1.499-1.603,3.146-2.259,4.73c-1.541,3.64-2.005,5.385-2.93,8.666c-0.278,1.047-0.498,2.161-0.563,2.778    c-0.229,2.351,0.154,4.125,1.795,5.743c1.991,1.927,5.259,2.553,7.987,2.797c2.174,0.03,4.009-0.631,5.249-3.059    c1.523-2.491,2.535-5.651,3.261-8.406L329.409,109.002z"/>
		<path style="fill:#000E3F;" d="M342.663,117.295l0.018-0.034l0.035,0.016l0.143,0.069c2.368,0.972,4.45,0.43,6.182-0.859    c5.403-3.546,4.755-11.534-0.781-14.575c-3.293-2.083-6.8-3.164-9.686-4.078c-0.808,2.579-11.64,25.36-11.925,25.222    c0.519,0.119,4.492,2.535,6.439,2.636c0.781-1.883,2.739-6.832,4.073-8.846l0.018,0.142c0.827,3.506,0.749,8.792,0.62,11.435    l0.035,0.016c2.07,1.181,4.277,1.99,5.961,2.804C344.273,126.593,342.948,121.824,342.663,117.295z M339.414,109.908    c0.344-1.164,1.481-3.229,1.963-4.505c2.019,0.136,3.867,0.815,4.437,2.287c0.824,1.686-0.712,4.491-2.737,3.995    c-1.236-0.378-2.567-1.111-3.628-1.759L339.414,109.908z"/>
		<path style="fill:#000E3F;" d="M343.83,131.257c-0.011-0.005-0.024-0.011-0.035-0.016l0,0L343.83,131.257z"/>
		<path style="fill:#000E3F;" d="M362.043,135.571c-3.21-1.702-5.924-3.625-8.971-5.371l-0.014-0.053    c0.53-1.169,1.463-3.118,2.478-4.328c0.703-0.105,2.769,1.585,4.408,2.018c0.939-1.715,2.037-3.155,2.687-4.852l0.018-0.036    c-1.396-0.845-2.872-1.644-4.197-2.542l-0.013-0.051c0.4-1.426,1.543-2.703,2.284-4.071l0.055-0.016l0.103,0.057    c3.206,1.47,5.988,3.754,9.307,4.781l0.021-0.034c0.932-1.628,2.126-3.15,2.815-4.917c0.121-0.204-8.924-5.203-14.45-8.002    c-4.99,7.672-8.999,15.629-13.599,23.661c4.248,2.939,9.465,5.467,14.156,8.2c1.173-1.167,2.124-2.831,2.871-4.379    L362.043,135.571z"/>
		<path style="fill:#000E3F;" d="M385.271,123.672c-3.1-1.681-3.499-2.234-4.195-2.553c-10.269,8.505-19.658,19.084-20.522,19.803    c0.012,0.056,0.012,0.056,0.044,0.078c3.047,1.979,4.197,2.985,4.629,3.128c0.035,0.023,0.09,0.012,0.124,0.035    c1.736-0.955,3.626-3.58,5.153-4.577c0.997,0.662,1.019,0.487,2.037,1.405c-0.264,1.693-1.624,4.671-2.042,6.455l0.034,0.021    c1.23,1.252,2.859,2.478,4.363,3.096l0.021-0.033l5.251-13.286C381.117,134.665,384.519,125.663,385.271,123.672z     M375.341,137.149c-0.831-0.553-1.717-1.095-2.459-1.637C378.347,129.323,381.644,124.804,375.341,137.149z"/>
		<path style="fill:#000E3F;" d="M395.133,139.016c0.025-0.03,0.08-0.041,0.103-0.071l0.034,0.025l0.064,0.046    c2.083,1.408,3.22,2.158,3.899,2.914c1.368-1.37,2.875-3.38,3.828-4.861c-4.019-3.75-8.901-7.148-13.273-10.363    c-0.023,0.03,0.007,0.053-0.014,0.087c-1.667,1.894-3.543,4.675-3.621,5.114c0.392,0.54,2.939,1.995,3.548,3.251l0.007,0.053    c-8.398,12.303-12.315,16.747-12.505,17.203c1.724,0.889,3.653,2.779,5.408,3.693l0.025-0.03l0.023-0.034    C392.841,141.886,394.55,139.526,395.133,139.016z"/>
		<path style="fill:#000E3F;" d="M391.002,157.065c-0.939,1.139-3.345,3.291-3.068,3.52l2.329,1.878l0.06,0.051    c0.461,0.379,0.652,0.59,1.142,0.996l0.214,0.179c0.994-1.196,2.175-2.498,3.148-3.608c-1.199-0.994-2.487-2.63-3.8-3.045    L391.002,157.065z"/>
		<path style="fill:#000E3F;" d="M405.776,139.05l-0.092-0.075c-4.971,5.309-9.061,10.935-13.633,16.265l0.03,0.025    c1.226,0.964,2.914,2.361,4.088,3.128c4.108-5.454,8.99-11.1,13.436-16.274C408.748,140.839,406.926,139.847,405.776,139.05z"/>
		<path style="fill:#000E3F;" d="M324.428,74.81c0.985-2.868,2.044-6.092,3.355-9.192l0.037,0.01    c1.603,0.234,3.399,0.781,5.04,1.026c0.078,0.028,0.126,0,0.142-0.035c0.406-1.885,1.982-5.401,1.927-6.258    c-1.174-0.259-3.4-0.907-4.78-1.57c-0.039-0.014-0.039-0.014-0.064-0.062c-0.195-0.95,0.041-2.301,1.045-3.44    c3.249,0.728,7.534,2.012,10.326,2.717c0.539-1.252,1.408-4.285,1.842-5.614c-3.897-2.455-14.212-5.086-16.977-5.488l-0.012,0.034    c-3.872,11.798-5.495,16.478-8.507,25.654l0.027,0.053C318.171,73.01,322.392,74.353,324.428,74.81z"/>
		<path style="fill:#000E3F;" d="M351.276,85.083c1.024-1.302,1.77-3.065,2.324-4.694l0.032-0.074    c-3.394-1.3-6.324-2.884-9.562-4.248l-0.019-0.05c0.384-1.224,1.075-3.274,1.938-4.6c0.687-0.186,2.944,1.242,4.62,1.472    c0.723-1.817,1.642-3.38,2.081-5.144l0.018-0.037c-1.493-0.673-3.056-1.288-4.48-2.018l-0.021-0.051    c0.23-1.463,1.21-2.87,1.779-4.319l0.053-0.021l0.11,0.046c3.362,1.072,6.404,3.003,9.825,3.621l0.014-0.037    c0.728-1.731,1.731-3.385,2.202-5.224c0.094-0.218-9.495-4.088-15.321-6.198c-4.028,8.223-7.047,16.613-10.641,25.148    C340.798,81.056,346.287,82.936,351.276,85.083z"/>
		<path style="fill:#000E3F;" d="M368.306,93.683c1.116-1.224,1.99-2.93,2.661-4.516l0.039-0.069    c-3.291-1.545-6.097-3.339-9.226-4.935l-0.018-0.055c0.475-1.19,1.313-3.182,2.269-4.443c0.698-0.138,2.845,1.453,4.503,1.807    c0.852-1.763,1.883-3.252,2.451-4.981l0.018-0.034c-1.438-0.781-2.951-1.506-4.319-2.34l-0.016-0.053    c0.333-1.444,1.415-2.774,2.087-4.181l0.055-0.014l0.106,0.053c3.275,1.313,6.166,3.461,9.536,4.331l0.014-0.037    c0.856-1.67,1.975-3.251,2.581-5.049c0.108-0.214-9.173-4.774-14.831-7.304c-4.618,7.906-8.241,16.053-12.455,24.301    C358.149,88.899,363.486,91.176,368.306,93.683z"/>
		<path style="fill:#000E3F;" d="M370.184,94.92c10.926,6.776,12.653,7.389,13.552,8.067c0.958,0.574,0.958,0.808,2.756-2.585    c0.19-0.397,0.533-0.891,0.833-1.314c0.179-0.22,0.342-0.494,0.487-0.733c-1.18-0.521-7.694-5.26-8.749-5.518l0.019-0.035    c3.63-5.83,7.343-12.726,11.064-18.549c-0.976-1.327-4.271-3.206-5.421-3.383c-5.626,9.707-7.608,13.404-14.171,23.434    L370.184,94.92z"/>
		<path style="fill:#000E3F;" d="M392.022,108.344c4.604-7.821,10.351-15.405,15.431-23.004l0.089-0.131l-0.795-0.533    c-2.014-1.299-2.81-1.975-3.584-2.54c-0.299-0.2-1.059-0.854-1.314-0.976l-0.044,0.065c-5.77,6.898-10.044,15.805-16.023,23.378    C386.891,104.96,390.802,108.584,392.022,108.344z"/>
		<path style="fill:#000E3F;" d="M395.406,107.371l-1.676,2.236c0.992,0.741,1.904,1.724,2.926,2.487    c0.478,0.358,0.951,0.662,1.527,0.895c0.517-0.758,1.212-1.687,1.952-2.679c2.68-3.578,6.172-8.044,6.299-7.95    c0.096,0.073-0.103,0.671-0.301,1.27l-0.399,1.198c-1.042,3.46-1.796,7.532-2.76,11.747c0.863,0.648,1.957,1.716,2.822,2.361    c0.735,0.551,1.054,0.59,1.173,0.629l0.478-0.638c0.647-0.864,1.238-1.716,1.883-2.581c0.886-1.184,1.756-2.277,2.687-3.523    c1.364-1.821,2.751-3.676,4.056-5.49l7.704-10.29c-0.512-0.583-1.167-1.174-1.966-1.77c-0.799-0.599-1.614-1.109-2.444-1.532    c-0.822,1.031-1.522,1.902-2.191,2.799c-1.15,1.532-2.108,3.01-3.373,4.705c-0.549,0.735-1.341,1.589-1.541,1.591    c-0.094-0.073,1.113-6.549,1.311-7.348c0.572-2.365,0.452-2.802,1.018-4.823c0.142-0.191-1.871-1.897-2.414-2.303    c-0.512-0.384-1.045-0.733-1.534-0.951c-2.257,2.551-4.498,5.412-6.698,8.352C400.954,99.754,398.442,103.309,395.406,107.371z"/>
		<path style="fill:#000E3F;" d="M431.737,104.044c-1.215-0.795-2.473-1.419-3.887-1.435c-1.881-0.212-3.424,0.771-4.79,1.908    c-1.339,1.107-2.581,2.408-3.74,3.674c-2.689,2.894-3.718,4.381-5.711,7.144c-0.617,0.889-1.201,1.862-1.474,2.418    c-1.015,2.133-1.259,3.933-0.273,6.014c1.213,2.489,4.073,4.191,6.554,5.352c2.03,0.767,3.984,0.778,5.977-1.082    c2.282-1.823,4.31-4.448,5.931-6.792l-0.004-0.053l-0.06-0.055c-0.81-0.709-4.692-5.001-6.264-5.261    c-0.055,0.007-0.089-0.023-0.089-0.023c-0.028-0.025-0.028-0.025-0.053,0.007l-0.027,0.03c-1.057,1.513-1.658,1.833-2.636,3.257    c0.257,0.491,1.768,1.493,2.17,2.004c0.161,0.299-1.224,1.525-1.605,1.775c-0.647,0.441-1.24,0.453-1.874,0.269    c-0.755-0.287-1.576-0.742-2.101-1.357c-0.216-0.294-0.377-0.595-0.453-0.875c-0.227-1.256,0.67-2.59,1.345-3.538    c2.382-3.217,5.755-6.838,8.007-8.262c0.379-0.252,0.872-0.51,1.038-0.524c0.902-0.059,1.458,0.639,2.124,1.272    c1.171,1.022,0.331,3.256-0.135,4.28c1.068,1.198,1.571,1.532,2.746,2.556c0.657,0.521,0.871,0.762,1.067,0.721l0.186-0.156    C438.555,112.914,436.711,107.382,431.737,104.044z"/>
	</g>
	<g>
		<g>
			<g>
				<path style="fill:#6280FF;" d="M142.705,103.011c-1.616-5.779-2.946-11.738-3.5-17.94c-0.55-6.18-0.382-12.653,1.326-19.024      c0.392-1.592,0.951-3.16,1.54-4.709l0.983-2.297l1.217-2.27c1.722-2.951,3.794-5.69,6.239-7.969l0.897-0.88l0.955-0.801      c0.643-0.526,1.274-1.071,1.933-1.573c1.36-0.935,2.69-1.93,4.139-2.707c2.827-1.688,5.862-2.964,8.978-3.958      c3.107-1.043,6.371-1.569,9.649-1.895c3.296-0.26,6.645-0.084,9.973,0.443c3.322,0.665,6.59,1.671,9.616,3.191      c2.987,1.547,5.852,3.368,8.283,5.58c2.471,2.167,4.698,4.552,6.607,7.095c1.962,2.518,3.642,5.177,5.155,7.888      c3.034,5.424,5.323,11.084,7.246,16.787l4.681-1.559c3.417-1.138,5.206-4.905,3.896-8.26c-1.628-4.171-3.527-8.357-5.859-12.532      c-0.829-1.561-1.842-3.12-2.796-4.669c-1.059-1.547-2.058-3.091-3.274-4.608c-2.294-3.044-5.035-6.01-8.162-8.747      c-3.072-2.773-6.786-5.191-10.71-7.199c-3.981-1.994-8.295-3.347-12.685-4.202c-4.352-0.71-8.677-0.915-12.869-0.585      c-4.168,0.396-8.274,1.094-12.173,2.385c-3.915,1.245-7.709,2.852-11.29,4.977c-1.817,0.99-3.532,2.237-5.25,3.442      c-0.843,0.64-1.663,1.335-2.485,2.013l-1.222,1.037l-1.17,1.135c-3.147,2.958-5.92,6.557-8.215,10.515      c-0.556,1.01-1.099,2.029-1.625,3.054l-1.27,2.957c-0.762,1.981-1.465,3.994-1.965,5.994      c-2.148,8.059-2.292,15.846-1.662,22.979c0.43,4.778,1.237,9.303,2.245,13.644c0.813,3.502,4.407,5.599,7.866,4.618      L142.705,103.011z"/>
				<path style="fill:#FFCF00;" d="M153.298,100.006c-1.487-5.314-2.66-10.655-3.127-15.927c-0.472-5.26-0.283-10.465,1.002-15.207      c1.259-4.831,3.499-8.83,6.993-12.158l0.633-0.633l0.698-0.576c0.47-0.379,0.92-0.779,1.401-1.148      c1.014-0.676,1.973-1.426,3.067-1.997c2.099-1.266,4.4-2.223,6.747-2.973c2.343-0.803,4.793-1.165,7.213-1.423      c2.433-0.193,4.841-0.045,7.181,0.307c2.291,0.483,4.549,1.153,6.655,2.216c2.083,1.102,4.128,2.347,5.941,4.018      c1.839,1.617,3.57,3.441,5.108,5.5c1.576,2.014,2.982,4.232,4.272,6.546c2.593,4.626,4.657,9.688,6.414,14.9l10.828-3.607      c-1.929-5.722-4.226-11.403-7.277-16.857c-1.521-2.725-3.211-5.4-5.187-7.936c-1.923-2.561-4.167-4.966-6.662-7.153      c-2.454-2.232-5.349-4.074-8.368-5.637c-3.06-1.537-6.365-2.554-9.725-3.226c-3.364-0.534-6.748-0.711-10.076-0.449      c-3.309,0.329-6.603,0.861-9.738,1.913c-3.144,1.002-6.206,2.29-9.059,3.994c-1.462,0.784-2.805,1.787-4.178,2.732      c-0.666,0.507-1.303,1.058-1.953,1.588l-0.965,0.81l-0.906,0.889c-2.47,2.303-4.566,5.073-6.309,8.059l-1.231,2.297l-0.994,2.32      c-0.595,1.564-1.159,3.148-1.555,4.754c-1.724,6.43-1.89,12.95-1.337,19.164c0.557,6.236,1.893,12.218,3.514,18.013      L153.298,100.006z"/>
				<path style="fill:#FC09B2;" d="M158.005,98.671c3.228-0.916,5.145-4.194,4.425-7.471c-0.616-2.803-1.068-5.525-1.293-8.111      c-0.394-4.341-0.183-8.279,0.678-11.391c0.183-0.804,0.464-1.514,0.722-2.229c0.154-0.337,0.296-0.683,0.431-1.024      c0.158-0.245,0.301-0.497,0.429-0.757c0.615-1.008,1.336-2.087,2.425-3.059l0.369-0.387l0.441-0.35l0.869-0.723      c0.668-0.416,1.257-0.923,1.995-1.287c1.372-0.845,2.94-1.482,4.516-1.99c1.579-0.563,3.216-0.761,4.778-0.951      c1.57-0.125,3.035-0.006,4.387,0.171c1.26,0.3,2.509,0.635,3.694,1.241c1.179,0.658,2.405,1.327,3.6,2.456      c1.207,1.066,2.441,2.331,3.608,3.906c0.608,0.724,1.156,1.621,1.743,2.444c0.542,0.917,1.132,1.765,1.645,2.76      c1.278,2.274,2.446,4.772,3.518,7.416c1.258,3.103,4.68,4.725,7.857,3.666l5.035-1.677c-1.762-5.23-3.835-10.314-6.444-14.969      c-1.298-2.328-2.713-4.562-4.304-6.595c-1.552-2.077-3.3-3.922-5.163-5.559c-1.836-1.69-3.911-2.956-6.027-4.075      c-2.139-1.079-4.435-1.762-6.763-2.251c-2.377-0.359-4.818-0.507-7.283-0.313c-2.451,0.261-4.932,0.629-7.302,1.441      c-2.374,0.76-4.702,1.728-6.828,3.01c-1.107,0.578-2.079,1.337-3.106,2.023c-0.487,0.373-0.944,0.779-1.421,1.163l-0.707,0.584      l-0.643,0.642c-3.545,3.373-5.831,7.46-7.102,12.343c-1.3,4.801-1.488,10.052-1.014,15.347c0.469,5.305,1.649,10.669,3.14,16      L158.005,98.671z"/>
			</g>
			<path style="fill:#000E3F;" d="M136.207,106.42c-1.433,0-2.845-0.383-4.119-1.134c-1.927-1.137-3.267-2.96-3.771-5.134     c-5.098-21.957-2.471-40.956,7.598-54.944c8.767-12.179,23-19.78,40.079-21.404c0.011-0.001,0.019-0.002,0.03-0.003     c14.877-1.166,42.275,2.942,58.187,43.692c0.813,2.082,0.735,4.346-0.216,6.375c-0.942,2.011-2.691,3.564-4.797,4.268     l-4.301,1.431l-0.014-0.046c-0.434,0.195-0.951,0.367-1.516,0.556l-13.95,4.646c-4.053,1.352-8.494-0.717-10.112-4.705     c-4.333-10.694-9.266-16.81-15.077-18.699c-4.574-1.485-9.725-0.376-15.766,3.39c-0.253,0.183-2.067,1.55-3.516,3.924     c-3.472,7.047-2.09,16.039-0.744,22.177c0.928,4.218-1.577,8.437-5.702,9.607l-5.093,1.444l-0.037-0.133     c-1.253,0.499-3.495,1.135-7.394,2.243l-7.532,2.136C137.702,106.315,136.95,106.42,136.207,106.42z M176.321,27.417     c-16.246,1.549-29.2,8.434-37.462,19.911c-9.438,13.114-11.863,31.096-7.009,52.002c0.28,1.198,1.019,2.202,2.081,2.829     c1.073,0.633,2.328,0.797,3.523,0.455c0.159-0.044,14.714-4.174,14.956-4.243l5.1-1.445c2.282-0.647,3.663-2.992,3.148-5.337     c-1.465-6.673-2.942-16.493,1.112-24.704c0.413-0.687,2.585-3.767,4.457-5.006c0.039-0.039,0.08-0.076,0.124-0.112l0.018,0.021     c0.065-0.042,0.133-0.08,0.198-0.116l-0.027-0.042c6.909-4.306,13.236-5.573,18.808-3.762c6.893,2.24,12.558,9.039,17.318,20.785     c0.9,2.221,3.362,3.366,5.603,2.627l2.032-0.677c1.334-0.445,2.301-0.767,3.017-0.939l-0.019-0.058     c0.083-0.028,2.836-0.946,5.497-1.832l9.256-3.083c1.183-0.395,2.129-1.235,2.659-2.366c0.524-1.12,0.569-2.367,0.121-3.514     C219.672,40.237,200.333,25.543,176.321,27.417z"/>
		</g>
		<g>
			<g>
				<path style="fill:#6280FF;" d="M413.837,283.356c2.083-5.627,4.502-11.233,7.692-16.581c3.181-5.327,7.115-10.47,12.236-14.627      c1.252-1.059,2.624-2.001,4.01-2.909l2.144-1.283l2.317-1.124c3.126-1.379,6.411-2.381,9.728-2.792l1.242-0.186l1.244-0.089      c0.829-0.049,1.661-0.12,2.488-0.139c1.65,0.041,3.311,0.016,4.94,0.237c3.28,0.292,6.485,1.039,9.592,2.063      c3.128,0.979,6.079,2.468,8.925,4.127c2.822,1.724,5.43,3.831,7.816,6.211c2.3,2.488,4.356,5.219,5.915,8.226      c1.511,3.005,2.762,6.161,3.433,9.379c0.73,3.205,1.133,6.442,1.187,9.622c0.111,3.191-0.088,6.329-0.454,9.412      c-0.726,6.173-2.193,12.098-3.982,17.846l4.706,1.484c3.435,1.083,7.094-0.918,8.001-4.403      c1.129-4.333,2.048-8.836,2.609-13.585c0.245-1.75,0.339-3.607,0.475-5.422c0.05-1.874,0.147-3.711,0.053-5.652      c-0.071-3.812-0.551-7.821-1.477-11.872c-0.86-4.049-2.449-8.186-4.448-12.114c-2.053-3.951-4.752-7.577-7.807-10.845      c-3.107-3.129-6.49-5.833-10.077-8.025c-3.607-2.125-7.342-3.97-11.257-5.211c-3.901-1.288-7.916-2.214-12.063-2.594      c-2.053-0.265-4.172-0.261-6.271-0.294c-1.058,0.023-2.13,0.106-3.193,0.172l-1.598,0.122l-1.613,0.233      c-4.284,0.548-8.641,1.836-12.822,3.694c-1.043,0.492-2.08,0.998-3.107,1.519l-2.763,1.649      c-1.779,1.157-3.529,2.375-5.108,3.701c-6.468,5.266-11.154,11.487-14.829,17.633c-2.455,4.121-4.457,8.259-6.188,12.366      c-1.396,3.313,0.284,7.12,3.66,8.355L413.837,283.356z"/>
				<path style="fill:#FFCF00;" d="M424.177,287.138c1.914-5.176,4.098-10.189,6.813-14.731c2.704-4.536,5.912-8.64,9.734-11.726      c3.854-3.173,8.014-5.097,12.796-5.741l0.884-0.141l0.903-0.057c0.603-0.03,1.203-0.091,1.808-0.107      c1.217,0.047,2.434,0.003,3.655,0.182c2.443,0.206,4.867,0.782,7.208,1.551c2.368,0.725,4.565,1.869,6.676,3.08      c2.083,1.272,3.946,2.804,5.634,4.462c1.572,1.735,3.008,3.603,4.089,5.699c1.039,2.115,1.965,4.322,2.454,6.74      c0.541,2.388,0.871,4.881,0.908,7.451c0.095,2.556-0.069,5.177-0.382,7.807c-0.615,5.267-1.913,10.578-3.549,15.829      l10.884,3.433c1.795-5.765,3.269-11.713,3.998-17.919c0.368-3.099,0.569-6.257,0.457-9.47c-0.055-3.202-0.461-6.467-1.198-9.702      c-0.678-3.247-1.941-6.437-3.469-9.475c-1.576-3.04-3.655-5.803-5.981-8.318c-2.411-2.407-5.047-4.535-7.895-6.275      c-2.873-1.676-5.852-3.177-9.008-4.165c-3.134-1.034-6.369-1.787-9.678-2.082c-1.644-0.223-3.321-0.199-4.987-0.239      c-0.836,0.02-1.676,0.092-2.513,0.14l-1.256,0.09l-1.255,0.188c-3.352,0.416-6.674,1.429-9.838,2.825l-2.345,1.138l-2.166,1.295      c-1.4,0.917-2.786,1.869-4.049,2.937c-5.169,4.196-9.129,9.377-12.328,14.733c-3.208,5.376-5.636,11.004-7.724,16.648      L424.177,287.138z"/>
				<path style="fill:#FC09B2;" d="M428.773,288.819c3.151,1.152,6.627-0.377,7.967-3.453c1.146-2.631,2.377-5.101,3.712-7.327      c2.228-3.746,4.71-6.811,7.233-8.826c0.62-0.544,1.264-0.953,1.892-1.381c0.322-0.182,0.64-0.379,0.95-0.577      c0.272-0.106,0.535-0.226,0.792-0.361c1.09-0.455,2.306-0.906,3.759-1.054l0.526-0.096l0.562-0.024l1.128-0.075      c0.785,0.055,1.559-0.01,2.371,0.128c1.607,0.121,3.25,0.525,4.824,1.038c1.609,0.47,3.051,1.271,4.427,2.033      c1.345,0.82,2.461,1.776,3.453,2.713c0.844,0.982,1.659,1.986,2.263,3.172c0.568,1.224,1.169,2.485,1.474,4.101      c0.352,1.572,0.609,3.32,0.63,5.28c0.067,0.944-0.015,1.991-0.023,3.002c-0.099,1.061-0.12,2.093-0.287,3.201      c-0.299,2.591-0.819,5.3-1.503,8.069c-0.802,3.251,1.017,6.572,4.211,7.579l5.061,1.596c1.642-5.27,2.946-10.602,3.565-15.902      c0.315-2.647,0.48-5.287,0.385-7.866c-0.038-2.592-0.371-5.112-0.919-7.53c-0.495-2.446-1.433-4.689-2.489-6.836      c-1.099-2.129-2.557-4.029-4.156-5.791c-1.714-1.685-3.604-3.238-5.714-4.527c-2.138-1.227-4.363-2.384-6.758-3.118      c-2.369-0.777-4.822-1.36-7.295-1.569c-1.235-0.181-2.468-0.137-3.702-0.184c-0.614,0.016-1.222,0.077-1.833,0.108l-0.915,0.058      l-0.897,0.142c-4.85,0.651-9.099,2.619-12.994,5.828c-3.87,3.125-7.104,7.267-9.826,11.832      c-2.733,4.571-4.925,9.606-6.845,14.799L428.773,288.819z"/>
			</g>
			<path style="fill:#000E3F;" d="M500.911,314.335c-0.822,0-1.647-0.124-2.441-0.374l-4.322-1.362     c-0.197-0.064-10.338-3.261-10.499-3.311c-0.005-0.002-0.011-0.004-0.016-0.005l-5.047-1.594     c-4.073-1.282-6.457-5.562-5.424-9.741c2.764-11.204,2.358-19.05-1.24-23.991c-2.825-3.878-7.651-6.005-14.747-6.503     c-0.305,0-2.588,0.042-5.159,1.114c-6.944,3.669-11.103,11.761-13.613,17.521c-1.724,3.959-6.232,5.906-10.253,4.434     l-4.972-1.819l0.044-0.121c-1.708-0.416-5.454-1.807-14.659-5.226c-2.103-0.769-3.761-2.33-4.657-4.391     c-0.893-2.051-0.909-4.312-0.042-6.368c8.756-20.77,22.032-34.614,38.393-40.033c14.246-4.719,30.231-2.521,45.012,6.186     c0.007,0.004,0.016,0.009,0.025,0.014c12.756,7.794,32.51,27.188,21.481,69.52c-0.563,2.163-1.952,3.95-3.913,5.034     C503.646,313.992,502.28,314.335,500.911,314.335z M495.239,309.138l4.322,1.362c1.194,0.381,2.452,0.251,3.543-0.354     c1.081-0.599,1.848-1.584,2.158-2.774c7.734-29.688,0.685-52.95-19.849-65.503c-14.064-8.28-28.593-10.308-42.017-5.86     c-15.339,5.08-27.853,18.219-36.189,37.999c-0.478,1.132-0.47,2.379,0.023,3.509c0.498,1.143,1.417,2.009,2.588,2.436     c0.218,0.081,14.358,5.254,14.598,5.341l4.98,1.821c2.227,0.824,4.723-0.273,5.679-2.475c2.73-6.262,7.295-15.08,15.397-19.351     c0.739-0.313,4.356-1.53,6.54-1.438c0.062-0.009,0.124-0.016,0.188-0.019l0.002,0.032c0.073,0.005,0.144,0.012,0.213,0.021     l0.004-0.051c8.122,0.569,13.987,3.256,17.435,7.989c4.267,5.856,4.866,14.687,1.83,26.993c-0.574,2.326,0.742,4.705,2.996,5.414     l3.392,1.072c0.636,0.2,1.196,0.377,1.655,0.574l0.014-0.048l8.882,2.801c0.608,0.191,1.151,0.363,1.601,0.558L495.239,309.138z"/>
		</g>
		<g>
			<g>
				<path style="fill:#6280FF;" d="M21.201,387.203c-2.482-5.463-4.71-11.147-6.208-17.192c-1.49-6.023-2.317-12.445-1.606-19.002      c0.143-1.633,0.455-3.269,0.801-4.889l0.62-2.421l0.855-2.429c1.249-3.18,2.877-6.204,4.944-8.831l0.751-1.007l0.821-0.938      c0.555-0.618,1.095-1.254,1.669-1.85c1.201-1.133,2.363-2.319,3.675-3.309c2.535-2.101,5.338-3.827,8.265-5.287      c2.911-1.507,6.055-2.527,9.245-3.352c3.218-0.762,6.554-1.102,9.923-1.091c3.385,0.148,6.768,0.641,9.992,1.679      c3.188,1.071,6.299,2.432,9.041,4.245c2.774,1.762,5.34,3.778,7.616,5.998c2.325,2.188,4.393,4.557,6.303,7.005      c3.83,4.895,6.959,10.137,9.734,15.478l4.387-2.258c3.202-1.648,4.393-5.645,2.584-8.76c-2.248-3.872-4.766-7.717-7.71-11.486      c-1.058-1.415-2.298-2.801-3.479-4.185c-1.283-1.366-2.508-2.74-3.941-4.052c-2.734-2.657-5.897-5.167-9.406-7.393      c-3.461-2.27-7.502-4.09-11.687-5.472c-4.239-1.361-8.709-2.036-13.179-2.207c-4.409-0.035-8.715,0.425-12.806,1.394      c-4.058,1.03-8.009,2.349-11.664,4.223c-3.677,1.831-7.181,4-10.394,6.649c-1.645,1.257-3.147,2.752-4.661,4.206      c-0.736,0.762-1.438,1.574-2.147,2.37l-1.048,1.211l-0.982,1.301c-2.657,3.405-4.845,7.387-6.507,11.65      c-0.395,1.083-0.775,2.174-1.138,3.267l-0.802,3.116c-0.449,2.074-0.835,4.171-1.022,6.225      c-0.887,8.293,0.164,16.01,1.88,22.962c1.157,4.656,2.648,9.004,4.31,13.139c1.341,3.336,5.213,4.857,8.481,3.358      L21.201,387.203z"/>
				<path style="fill:#FFCF00;" d="M31.208,382.61c-2.284-5.023-4.262-10.121-5.531-15.259c-1.272-5.126-1.883-10.298-1.341-15.181      c0.504-4.967,2.104-9.261,5.047-13.086l0.529-0.722l0.601-0.676c0.407-0.446,0.79-0.911,1.209-1.349      c0.898-0.823,1.732-1.711,2.724-2.443c1.88-1.573,4.008-2.871,6.211-3.972c2.192-1.152,4.558-1.886,6.91-2.512      c2.375-0.564,4.777-0.787,7.143-0.797c2.338,0.126,4.673,0.442,6.916,1.17c2.227,0.77,4.439,1.687,6.487,3.059      c2.065,1.316,4.055,2.854,5.89,4.653c1.867,1.749,3.595,3.725,5.225,5.814c3.271,4.174,6.087,8.86,8.622,13.741l10.147-5.224      c-2.783-5.358-5.924-10.62-9.774-15.542c-1.92-2.46-4.001-4.844-6.342-7.047c-2.293-2.236-4.879-4.269-7.68-6.047      c-2.767-1.83-5.91-3.206-9.134-4.288c-3.26-1.05-6.681-1.549-10.104-1.698c-3.406-0.013-6.777,0.331-10.025,1.101      c-3.22,0.832-6.393,1.863-9.329,3.383c-2.954,1.472-5.781,3.214-8.34,5.335c-1.325,0.999-2.498,2.196-3.71,3.34      c-0.58,0.603-1.126,1.245-1.686,1.869l-0.829,0.948l-0.759,1.017c-2.087,2.655-3.735,5.713-4.999,8.931l-0.864,2.459      l-0.626,2.445c-0.349,1.637-0.663,3.288-0.808,4.936c-0.718,6.619,0.117,13.086,1.615,19.142      c1.506,6.077,3.744,11.783,6.233,17.262L31.208,382.61z"/>
				<path style="fill:#FC09B2;" d="M35.655,380.569c3.049-1.4,4.442-4.933,3.228-8.061c-1.038-2.676-1.902-5.296-2.521-7.817      c-1.055-4.229-1.449-8.153-1.076-11.36c0.058-0.823,0.227-1.567,0.371-2.313c0.101-0.356,0.188-0.72,0.269-1.078      c0.119-0.267,0.221-0.537,0.308-0.814c0.453-1.09,1-2.267,1.928-3.394l0.306-0.438l0.382-0.413l0.748-0.847      c0.597-0.514,1.101-1.105,1.774-1.578c1.226-1.045,2.678-1.915,4.157-2.659c1.474-0.799,3.062-1.245,4.576-1.672      c1.533-0.364,2.999-0.471,4.362-0.504c1.291,0.104,2.577,0.243,3.841,0.66c1.265,0.47,2.579,0.942,3.934,1.875      c1.356,0.869,2.769,1.929,4.164,3.306c0.712,0.623,1.391,1.425,2.097,2.148c0.676,0.823,1.389,1.571,2.049,2.476      c1.612,2.051,3.149,4.341,4.613,6.789c1.718,2.874,5.349,3.951,8.326,2.419l4.718-2.429c-2.543-4.898-5.371-9.604-8.662-13.804      c-1.64-2.102-3.381-4.093-5.264-5.858c-1.851-1.814-3.862-3.37-5.953-4.701c-2.074-1.389-4.318-2.322-6.581-3.103      c-2.279-0.739-4.652-1.061-7.028-1.188c-2.403,0.01-4.839,0.237-7.245,0.807c-2.382,0.634-4.777,1.378-6.995,2.543      c-2.229,1.115-4.382,2.428-6.286,4.021c-1.005,0.741-1.85,1.64-2.759,2.475c-0.424,0.443-0.814,0.915-1.226,1.367l-0.609,0.685      l-0.537,0.733c-2.986,3.876-4.619,8.265-5.126,13.286c-0.549,4.943,0.07,10.162,1.351,15.321      c1.277,5.171,3.264,10.29,5.555,15.329L35.655,380.569z"/>
			</g>
			<path style="fill:#000E3F;" d="M14.065,391.653c-1.022,0-2.046-0.191-3.008-0.574c-2.078-0.827-3.681-2.423-4.514-4.494     c-8.404-20.917-8.719-40.095-0.912-55.46c6.795-13.378,19.695-23.071,36.323-27.293c0.009-0.004,0.019-0.005,0.028-0.007     c14.551-3.447,42.226-3.573,64.197,34.256c1.121,1.933,1.392,4.181,0.763,6.329c-0.622,2.131-2.113,3.936-4.087,4.953     l-4.028,2.074c-0.121,0.062-3.299,1.699-6.002,3.09l-3.794,1.954l-0.027-0.053c-0.549,0.349-1.311,0.74-2.303,1.252l-2.383,1.226     c-3.805,1.956-8.505,0.592-10.714-3.098c-5.922-9.904-11.734-15.192-17.766-16.168c-4.739-0.76-9.663,1.12-15.059,5.766     c-0.22,0.219-1.805,1.849-2.875,4.418c-2.351,7.5,0.393,16.171,2.668,22.028c1.561,4.025-0.267,8.579-4.165,10.367l-4.811,2.209     l-0.021-0.048c-0.462,0.269-1.05,0.54-1.747,0.859l-4.087,1.876c-3.842,1.762-8.177,3.752-8.275,3.798     C16.395,391.405,15.231,391.653,14.065,391.653z M42.834,307.352c-15.817,4.019-27.564,12.807-33.967,25.417     c-7.32,14.405-6.958,32.547,1.044,52.463c0.459,1.141,1.343,2.019,2.489,2.477c1.162,0.462,2.422,0.43,3.554-0.092     c0.06-0.027,4.418-2.027,8.278-3.8l10.668-4.896c2.156-0.988,3.164-3.516,2.294-5.755c-2.471-6.365-5.438-15.84-2.689-24.582     c0.303-0.744,1.977-4.119,3.639-5.63c0.034-0.046,0.069-0.089,0.106-0.131l0.021,0.018c0.058-0.05,0.119-0.097,0.177-0.143     l-0.032-0.037c6.168-5.316,12.235-7.539,18.007-6.599c7.155,1.157,13.794,7.006,20.301,17.885     c1.228,2.057,3.842,2.819,5.938,1.736l4.703-2.42c0.007-0.003,0.012-0.007,0.019-0.01l3.784-1.949     c3.077-1.584,4.911-2.526,6.057-2.983l-0.055-0.105l4.028-2.074c1.111-0.572,1.917-1.548,2.268-2.747     c0.347-1.185,0.197-2.425-0.42-3.49C87.635,313.371,66.247,301.807,42.834,307.352z"/>
		</g>
	</g>
	<g>
		<g>
			<circle style="fill:#6280FF;" cx="452.078" cy="441.377" r="9.111"/>
			<path style="fill:#6280FF;" d="M60.875,47.488c0,5.032,4.079,9.111,9.111,9.111c5.032,0,9.111-4.079,9.111-9.111     c0-5.032-4.079-9.111-9.111-9.111C64.954,38.376,60.875,42.456,60.875,47.488z"/>
		</g>
		<g>
			<path style="fill:#FC09B2;" d="M387.37,369.57c1.868,2.191,5.729,4.91,9.092,13.877c0.302,0.804,0.618,1.614,1.04,2.356     c0.588,1.034,1.844,1.101,2.542,0.109c1.576-2.243,1.67-5.812,6.924-11.974c3.084-3.616,6.084-4.752,3.509-6.944     c-6.418-5.466-8.616-13.653-9.784-15.82c-0.504-0.935-1.702-1.01-2.36-0.187c-0.704,0.882-1.069,1.951-1.493,2.984     c-3.138,7.648-7.457,11.141-9.22,12.839C387.177,367.237,386.726,368.816,387.37,369.57z"/>
			<path style="fill:#FC09B2;" d="M34.228,255.442c1.876,2.184,5.748,4.889,9.145,13.843c0.304,0.803,0.624,1.612,1.049,2.353     c0.592,1.031,1.849,1.094,2.542,0.099c1.568-2.249,1.648-5.818,6.879-12c3.07-3.627,6.066-4.775,3.482-6.958     c-6.439-5.442-8.668-13.621-9.843-15.783c-0.507-0.933-1.706-1.003-2.361-0.178c-0.701,0.884-1.062,1.955-1.482,2.99     c-3.109,7.661-7.415,11.169-9.172,12.875C34.027,253.11,33.581,254.691,34.228,255.442z"/>
			<path style="fill:#FC09B2;" d="M265.141,37.73c0.451,0.524,0.908,1.049,1.41,1.521c7.083,6.666,8.766,14.406,10.331,17.132     c0.682,1.188,2.129,1.259,2.928,0.114c0.557-0.799,0.978-1.722,1.313-2.643c5.216-14.379,15.071-15.43,10.622-19.191     c-7.416-6.268-9.984-15.688-11.337-18.179c-0.585-1.075-1.966-1.156-2.719-0.205c-0.808,1.019-1.223,2.252-1.707,3.444     c-3.588,8.84-8.564,12.888-10.564,14.828C264.909,35.043,264.394,36.862,265.141,37.73z"/>
		</g>
		<g>
			<g>
				<path style="fill:#FD8A02;" d="M64.29,178.849c-0.416-2.214-2.549-3.671-4.762-3.253c-0.267,0.05-0.52,0.126-0.762,0.222      c-1.774,0.708-2.858,2.593-2.492,4.539c0.624,3.306,1.253,5.257,1.323,5.47c0.703,2.135,3.001,3.292,5.138,2.596      c2.158-0.743,3.304-3.001,2.611-5.141C65.338,183.265,64.811,181.631,64.29,178.849z"/>
				<path style="fill:#FD8A02;" d="M63.25,164.921c0.095-2.928,0.393-5.854,0.885-8.692c0.382-2.218-1.106-4.329-3.324-4.713      c-0.771-0.132-1.527-0.04-2.204,0.23c-1.272,0.508-2.259,1.645-2.51,3.093c-0.554,3.209-0.89,6.512-0.998,9.813      c-0.075,2.251,1.69,4.136,3.941,4.21C61.3,168.933,63.175,167.169,63.25,164.921z"/>
				<path style="fill:#FD8A02;" d="M83.095,111.26c-0.372,0.148-0.729,0.355-1.056,0.621c-2.572,2.084-5.004,4.306-7.227,6.601      c-1.567,1.618-1.525,4.198,0.093,5.766c1.62,1.567,4.204,1.527,5.767-0.092c1.995-2.063,4.184-4.059,6.502-5.938      c1.749-1.417,2.018-3.986,0.601-5.735C86.622,111.059,84.709,110.615,83.095,111.26z"/>
				<path style="fill:#FD8A02;" d="M70.729,129.553c-1.142-0.701-2.493-0.772-3.651-0.31c-0.785,0.315-1.479,0.874-1.958,1.651      c-1.731,2.816-3.262,5.773-4.553,8.784c-0.885,2.071,0.076,4.466,2.146,5.354c2.074,0.887,4.471-0.073,5.354-2.145      c1.132-2.646,2.477-5.245,4.002-7.724C73.248,133.246,72.649,130.735,70.729,129.553z"/>
				<path style="fill:#FD8A02;" d="M103.281,107.819c2.002-1.034,2.786-3.494,1.754-5.495c-0.972-1.883-3.205-2.689-5.133-1.919      c-0.12,0.048-0.242,0.103-0.361,0.163c-1.603,0.829-3.148,1.669-4.641,2.529c-1.951,1.123-2.623,3.615-1.501,5.567      c1.123,1.951,3.609,2.622,5.567,1.501C100.352,109.37,101.791,108.585,103.281,107.819z"/>
			</g>
			<g>
				<path style="fill:#FD8A02;" d="M80.037,476.626c-0.138,0.234-0.248,0.474-0.335,0.72c-0.641,1.799,0.056,3.858,1.758,4.87      c2.893,1.718,4.772,2.535,4.978,2.623c2.066,0.884,4.454-0.075,5.344-2.14c0.871-2.11-0.067-4.462-2.131-5.356      c-0.017-0.006-1.591-0.692-4.024-2.139C83.692,474.053,81.188,474.69,80.037,476.626z"/>
				<path style="fill:#FD8A02;" d="M50.251,440.319c-0.284,0.797-0.322,1.688-0.056,2.56c0.969,3.161,2.176,6.264,3.582,9.224      c0.968,2.033,3.4,2.896,5.436,1.929c2.036-0.969,2.9-3.403,1.93-5.435c-1.237-2.598-2.298-5.327-3.15-8.11      c-0.66-2.152-2.942-3.362-5.095-2.702C51.616,438.178,50.67,439.145,50.251,440.319z"/>
				<path style="fill:#FD8A02;" d="M62.819,459.745c-0.609,0.492-1.04,1.119-1.285,1.806c-0.459,1.29-0.259,2.782,0.662,3.928      c2.041,2.536,4.297,4.972,6.703,7.237c1.64,1.544,4.221,1.466,5.765-0.175c1.548-1.649,1.463-4.222-0.175-5.764      c-2.133-2.007-4.131-4.165-5.936-6.409C67.141,458.613,64.575,458.335,62.819,459.745z"/>
				<path style="fill:#FD8A02;" d="M47.345,416.412c-0.134,0.378-0.215,0.782-0.232,1.203c-0.137,3.308-0.077,6.601,0.175,9.787      c0.179,2.245,2.143,3.919,4.388,3.741c2.246-0.18,3.925-2.146,3.743-4.388c-0.229-2.861-0.28-5.824-0.157-8.804      c0.094-2.25-1.656-4.149-3.906-4.242C49.526,413.635,47.929,414.775,47.345,416.412z"/>
				<path style="fill:#FD8A02;" d="M50.312,396.626c-0.044,0.122-0.083,0.25-0.116,0.38c-0.438,1.75-0.828,3.464-1.171,5.154      c-0.447,2.206,0.979,4.358,3.185,4.806c2.206,0.447,4.353-0.975,4.806-3.185c0.319-1.567,0.681-3.165,1.092-4.789      c0.548-2.186-0.779-4.4-2.963-4.95C53.09,393.529,51.008,394.67,50.312,396.626z"/>
			</g>
			<g>
				<path style="fill:#FD8A02;" d="M470.784,132.643c-0.424-2.209-2.555-3.649-4.765-3.232c-2.236,0.46-3.66,2.554-3.246,4.764      c0.005,0.018,0.318,1.706,0.48,4.532c0.13,2.249,2.059,3.966,4.307,3.836c0.271-0.016,0.532-0.059,0.784-0.124      c1.849-0.477,3.165-2.207,3.052-4.184C471.2,134.876,470.826,132.861,470.784,132.643z"/>
				<path style="fill:#FD8A02;" d="M460.495,172.446c-1.944-1.144-4.444-0.498-5.585,1.444c-1.461,2.479-3.128,4.886-4.957,7.149      c-1.414,1.752-1.14,4.318,0.612,5.735c1.043,0.842,2.374,1.085,3.582,0.774c0.819-0.211,1.579-0.678,2.153-1.387      c2.077-2.572,3.973-5.31,5.638-8.131C463.081,176.09,462.434,173.593,460.495,172.446z"/>
				<path style="fill:#FD8A02;" d="M467.183,149.282c-2.232-0.359-4.318,1.15-4.68,3.371c-0.469,2.892-1.137,5.755-1.988,8.507      c-0.663,2.153,0.543,4.435,2.694,5.101c0.748,0.229,1.51,0.234,2.216,0.053c1.327-0.342,2.45-1.342,2.885-2.747      c0.959-3.112,1.714-6.345,2.244-9.605C470.916,151.738,469.406,149.643,467.183,149.282z"/>
				<path style="fill:#FD8A02;" d="M440.015,190.859c-2.242,1.79-4.668,3.491-7.207,5.058c-1.917,1.181-2.512,3.695-1.329,5.611      c0.962,1.557,2.801,2.244,4.485,1.81c0.387-0.1,0.768-0.259,1.126-0.481c2.817-1.738,5.513-3.63,8.012-5.622      c1.761-1.404,2.049-3.969,0.645-5.731C444.339,189.743,441.771,189.453,440.015,190.859z"/>
				<path style="fill:#FD8A02;" d="M420.083,202.393c-1.477,0.614-3.004,1.208-4.58,1.778c-2.117,0.769-3.209,3.107-2.442,5.225      c0.724,1.992,2.835,3.077,4.846,2.558c0.126-0.031,0.253-0.071,0.379-0.115c1.696-0.618,3.335-1.253,4.926-1.916      c2.079-0.863,3.064-3.249,2.2-5.329C424.548,202.516,422.167,201.532,420.083,202.393z"/>
			</g>
			<g>
				<path style="fill:#FD8A02;" d="M491.038,394.862c2.219,0.371,4.311-1.126,4.688-3.343c0.347-2.256-1.121-4.32-3.337-4.7      c-0.019-0.002-1.71-0.296-4.416-1.127c-2.153-0.66-4.435,0.55-5.094,2.704c-0.08,0.259-0.13,0.519-0.157,0.779      c-0.196,1.899,0.968,3.735,2.861,4.316C488.8,394.475,490.819,394.826,491.038,394.862z"/>
				<path style="fill:#FD8A02;" d="M457.3,371.369c1.749-1.424,2.013-3.993,0.589-5.739c-1.816-2.232-3.493-4.632-4.978-7.134      c-1.15-1.935-3.652-2.571-5.59-1.421c-1.152,0.685-1.843,1.848-1.972,3.089c-0.087,0.842,0.087,1.716,0.551,2.501      c1.688,2.842,3.596,5.572,5.662,8.114C452.984,372.527,455.551,372.788,457.3,371.369z"/>
				<path style="fill:#FD8A02;" d="M476.691,385.698c1.113-1.968,0.424-4.448-1.533-5.56c-2.549-1.445-5-3.069-7.284-4.823      c-1.787-1.37-4.347-1.034-5.72,0.751c-0.475,0.621-0.745,1.334-0.82,2.059c-0.141,1.363,0.406,2.764,1.572,3.66      c2.584,1.982,5.352,3.814,8.225,5.446C473.09,388.343,475.579,387.657,476.691,385.698z"/>
				<path style="fill:#FD8A02;" d="M447.162,345.763c-0.898-2.725-1.649-5.591-2.235-8.517c-0.441-2.208-2.591-3.64-4.799-3.198      c-1.794,0.36-3.078,1.846-3.258,3.575c-0.041,0.398-0.024,0.81,0.06,1.223c0.65,3.246,1.486,6.431,2.484,9.467      c0.704,2.139,3.008,3.301,5.149,2.599C446.703,350.206,447.869,347.899,447.162,345.763z"/>
				<path style="fill:#FD8A02;" d="M443.282,323.064c-0.061-1.598-0.088-3.236-0.074-4.912c0.016-2.252-1.797-4.089-4.049-4.107      c-2.119-0.014-3.871,1.588-4.084,3.654c-0.014,0.128-0.022,0.262-0.024,0.396c-0.01,1.805,0.015,3.563,0.083,5.285      c0.086,2.249,1.98,4.003,4.231,3.916C441.613,327.208,443.363,325.318,443.282,323.064z"/>
			</g>
		</g>
	</g>
</g>















</svg>
