<?xml version="1.0" encoding="UTF-8"?>
<!-- Generator: Adobe Illustrator 25.2.3, SVG Export Plug-In . SVG Version: 6.00 Build 0)  -->
<svg xmlns="http://www.w3.org/2000/svg" xmlns:xlink="http://www.w3.org/1999/xlink" version="1.1" id="Capa_1" x="0px" y="0px" viewBox="0 0 512 512" style="enable-background:new 0 0 512 512;" xml:space="preserve" width="512" height="512">
<g>
	<path style="fill:#091438;" d="M149.442,146.579l66.277,116.361l151.27,54.405l65.12-92.855   c33.124-67.078,40.139-133.013,40.139-133.013l-22.858,33.801l-20.806-97.74l3.12,66.558l-39.516-51.993l5.738,27.042L295.003,0   l11.413,27.539C210.791-5.211,81.636,3.112,81.636,3.112l56.89,31.197l-91.479,4.676l83.68,34.309l-40.544,4.679l34.307,10.914   l-84.739,28.598h92.537l-55.111,32.222c24.076-4.71,47.968-6.491,70.797-6.304"/>
	<path style="fill:#FFDC9F;" d="M426.496,296.821c-17.153,11.946-26.511,34.802-19.742,51.427   c6.766,16.594,1.028,28.605-13.504,31.469c-14.567,2.879-28.6-24.163-28.6-24.163s-22.363,197.518-176.748,148.682   c0,0-4.616-27.83,13.471-30.257c-9.513-31.851-39.921-104.46-119.517-102.84c0,0-7.515-140.253,66.12-227.736   c93.382,0.623,169.044,33.847,169.044,33.847l-15.78,50.953c33.78,4.679,59.258,66.523,59.258,66.523   c12.852-78.214,49.309-93.244,71.611-70.235c1.124,1.128,2.215,2.374,3.245,3.712C457.183,256.277,443.65,284.845,426.496,296.821z   "/>
	<path style="fill:#091438;" d="M117.715,221.96c-1.338-0.956,28.588,130.987,28.588,130.987s46.265,13.001,85.253-18.189   c0,0-16.635-21.316-23.395,1.04c0,0,6.761-10.394,14.557-2.6c0,0-32.752,29.114-72.778,15.593   C149.941,348.791,128.631,229.755,117.715,221.96z"/>
	<path style="fill:#091438;" d="M144.644,262.963c6.045-17.427,29.952-26.797,46.284-18.326l0.459,1.162   c-11.348,5.283-34.396,14.413-46.284,18.326L144.644,262.963z"/>
	<path style="fill:#091438;" d="M219.295,236.804c21.227-12.05,52.91-8.394,70.956,7.795l-0.137,1.239   c-17.9-1.222-53.22-5.1-70.956-7.795L219.295,236.804z"/>
	<path style="fill:#091438;" d="M196.356,349.575l-3.247,43.404c0,0,121.246,22.222,81.09-67.055c0,0,32.358,78.745-76.023,63.546   L196.356,349.575z"/>
	<path style="fill:#091438;" d="M270.818,332.159c0,0,7.279-8.834,24.175,0c0,0-15.855-13.253-25.991-6.235L270.818,332.159z"/>
	<path style="fill:#091438;" d="M208.184,391.415l17.672,89.41c-45.924-24.592-37.946,23.395-37.946,23.395s0-39.768,41.326-20.796   C229.236,483.425,213.379,394.018,208.184,391.415z"/>
	<path style="fill:#091438;" d="M415.125,282.887c0,0-8.639-27.562-25.261-17.497c-16.625,10.077-29.919,77.495-7.315,82.307   c22.604,4.821,14.849-33.277,6.65-37.214l13.298-3.104h-19.058c0,0,15.918,22.837,9.398,32.891   c-6.52,10.057-25.475,2.156-18.043-34.955C387.867,240,415.125,282.887,415.125,282.887z"/>
	<g style="opacity:0.1;">
		<polygon style="fill:#FFFFFF;" points="322.618,163.247 174.506,127.351 324.541,154.087   "/>
		<polygon style="fill:#FFFFFF;" points="357.755,163.029 140.607,73.806 361.138,154.305   "/>
		<polygon style="fill:#FFFFFF;" points="299.618,126.839 187.839,64.451 303.877,118.505   "/>
		<polygon style="fill:#FFFFFF;" points="380.385,160.445 156.2,16.633 385.298,152.478   "/>
		<polygon style="fill:#FFFFFF;" points="386.785,99.965 320.982,26.507 393.452,93.397   "/>
		<polygon style="fill:#FFFFFF;" points="362.51,90.393 301.748,42.731 367.828,82.694   "/>
	</g>
	<g>
		<path style="fill:#FFFFFF;" d="M292.457,294.336l-81.874,11.311C210.583,305.648,269.294,251.254,292.457,294.336z"/>
		<path style="fill:#091438;" d="M276.277,288.755c0,2.867-4.539,5.195-10.136,5.195c-5.6,0-10.14-2.328-10.14-5.195    c0-2.871,4.54-5.199,10.14-5.199C271.737,283.556,276.277,285.884,276.277,288.755z"/>
	</g>
	<g>
		<path style="fill:#FFFFFF;" d="M144.874,297.46l59.258,8.188C204.132,305.648,161.636,266.27,144.874,297.46z"/>
		<path style="fill:#091438;" d="M189.208,295.548c0,2.871-4.535,5.195-10.136,5.195c-5.602,0-10.142-2.324-10.142-5.195    c0-2.879,4.539-5.199,10.142-5.199C184.672,290.349,189.208,292.67,189.208,295.548z"/>
	</g>
</g>















</svg>
