<?xml version="1.0" encoding="UTF-8"?>
<!-- Generator: Adobe Illustrator 25.4.1, SVG Export Plug-In . SVG Version: 6.00 Build 0)  -->
<svg xmlns="http://www.w3.org/2000/svg" xmlns:xlink="http://www.w3.org/1999/xlink" version="1.1" id="Capa_1" x="0px" y="0px" viewBox="0 0 512 512" style="enable-background:new 0 0 512 512;" xml:space="preserve" width="512" height="512">
<g>
	<g>
		<g>
			<g>
				<path style="fill:#FFCF00;" d="M334.853,505.577c-56.237,6.043-96.448,5.947-151.715,0      c-31.147-3.339-51.896-12.449-62.962-24.533c-20.384-22.275-7.775-54.678,33.548-79.673      c13.785-8.331,28.858-14.771,44.646-19.35c39.018-11.305,82.376-11.209,121.139,0c15.9,4.579,31.02,11.051,44.758,19.35      c2.862,1.734,5.581,3.498,8.156,5.295C427.42,444.856,419.438,496.514,334.853,505.577z"/>
				<path style="opacity:0.5;fill:#FD8A02;" d="M334.853,505.577c-56.237,6.043-96.448,5.947-151.715,0      c-31.147-3.339-51.896-12.449-62.962-24.533c19.827-18.221,63.185-11.209,86.494-9.921      c40.401,2.242,89.865,3.689,128.119-11.623c26.6-10.637,29.987-28.635,37.634-52.834      C427.42,444.856,419.438,496.514,334.853,505.577z"/>
				<path style="fill:#FD8A02;" d="M258.991,494.245L258.991,494.245c9.57,0,17.328-7.758,17.328-17.328v-41.568      c0-9.57-7.758-17.328-17.328-17.328l0,0c-9.57,0-17.328,7.758-17.328,17.328v41.568      C241.663,486.487,249.421,494.245,258.991,494.245z"/>
				<path style="opacity:0.75;fill:#FFFFFF;" d="M129.396,448.661c10.942-25.57,41.474-45.153,69.382-44.308      c1.333,0.04,2.38,1.153,2.34,2.485c-0.056,1.867-2.005,2.392-1.813,2.266c-13.821,3.663-19.975,6.858-23.525,8.342      c-39.554,20.391-41.041,37.807-45.756,33.846C129.239,450.635,129.014,449.556,129.396,448.661z"/>
			</g>
			<g>
				<path style="fill:#000E3F;" d="M373.513,405.102c-2.597-1.812-5.376-3.616-8.262-5.363      c-13.703-8.278-28.915-14.855-45.214-19.548c-39.44-11.406-82.839-11.406-122.198,0c-16.272,4.719-31.446,11.296-45.103,19.549      c-25.511,15.43-41.013,34.033-43.652,52.381c-1.596,11.095,1.753,21.541,9.685,30.21c12.131,13.248,34.319,21.941,64.163,25.141      c28.06,3.019,52.034,4.529,76.029,4.529c23.988,0,47.997-1.51,76.094-4.529h-0.001c40.9-4.382,67.565-19.445,73.154-41.326      C413.229,446.495,400.258,423.674,373.513,405.102z M404.517,465.202c-5.174,20.252-30.639,34.278-69.868,38.48h-0.001      c-55.901,6.005-95.495,6.005-151.308,0c-28.908-3.099-50.264-11.373-61.759-23.926c-7.136-7.797-10.152-17.166-8.724-27.093      c2.438-16.948,17.692-35.049,41.852-49.662c13.372-8.08,28.24-14.524,44.192-19.15c19.339-5.603,39.669-8.405,60.01-8.405      c20.34,0,40.692,2.802,60.071,8.406c15.979,4.601,30.883,11.045,44.298,19.148c2.814,1.704,5.523,3.463,8.057,5.23      C396.723,425.86,409.127,447.158,404.517,465.202z"/>
				<path style="fill:#000E3F;" d="M258.991,416.115c-10.605,0-19.234,8.628-19.234,19.234v41.568      c0,10.605,8.628,19.234,19.234,19.234c10.605,0,19.234-8.628,19.234-19.234v-41.568      C278.225,424.744,269.597,416.115,258.991,416.115z M274.414,476.917c0,8.504-6.919,15.423-15.423,15.423      c-8.503,0-15.423-6.919-15.423-15.423v-41.568c0-8.504,6.919-15.423,15.423-15.423c8.503,0,15.423,6.919,15.423,15.423V476.917z      "/>
				<circle style="fill:#000E3F;" cx="258.991" cy="452.636" r="7.666"/>
				<circle style="fill:#000E3F;" cx="258.991" cy="474.803" r="7.666"/>
			</g>
		</g>
		<g>
			<g>
				<path style="fill:#FF8EDE;" d="M300.3,407.907c-6.948,18.157-25.837,30.528-45.33,28.953      c-36.426-2.942-46.3-41.911-39.288-73.711c3.784-17.219,12.545-32.34,24.708-38.509c32.435-16.424,54.567,10.589,61.404,41.005      C305.118,380.48,304.816,396.109,300.3,407.907z"/>
				<path style="opacity:0.5;fill:#FC09B2;" d="M301.795,365.645c-0.429,1.606-0.421-0.983-0.993,0.511      c-6.948,18.158-26.338,34.644-45.831,33.069c-22.339-1.813-34.564-17.73-39.159-36.65c3.784-17.219,12.416-31.766,24.579-37.935      C272.826,308.216,294.958,335.23,301.795,365.645z"/>
			</g>
			<path style="fill:#000E3F;" d="M258.28,438.899c-1.154,0-2.307-0.046-3.463-0.14c-13.29-1.073-24.292-7.02-31.818-17.2     c-10.523-14.234-14.04-36.773-9.178-58.821c4.144-18.857,13.754-33.736,25.708-39.798c12.297-6.228,23.866-6.868,34.389-1.908     c13.869,6.538,24.985,23.059,29.735,44.195c3.526,15.733,2.951,31.537-1.573,43.36     C295.191,426.591,277.139,438.899,258.28,438.899z M259.346,321.565c-5.761,0-11.809,1.593-18.094,4.775     c-10.943,5.551-19.806,19.465-23.708,37.219c-4.632,21.004-1.366,42.36,8.521,55.735c6.949,9.401,16.726,14.671,29.059,15.667     c18.419,1.495,36.677-10.175,43.396-27.735l0,0c4.264-11.14,4.78-26.143,1.415-41.163c-4.495-19.997-14.828-35.541-27.642-41.582     C268.169,322.536,263.845,321.565,259.346,321.565z"/>
		</g>
		<g>
			<g>
				<g>
					<path style="fill:#FF8EDE;" d="M376.776,229.896c-3.507,0.804-6.822,2.215-9.867,4.078       c-4.243-23.567-11.04-39.883-13.615-47.597c-0.314-0.941-0.873-1.499-1.807-1.789c-51.424-15.962-82.985-14.712-86.586-15.305       c-8.242-1.359-58.891,1.856-98.113,15.208c-2.252,0.767-1.795,1.593-4.576,9.019c-4.658,12.439-8.513,26.275-11.082,40.503       c-3.061-1.881-6.395-3.307-9.925-4.116c-26.126-5.992-37.687,24.166-14.233,45.718c7.433,6.83,16.631,9.878,21.501,9.852       c0.4,4.04,0.952,8.018,1.701,11.896c5.508,28.504,19.646,48.008,47.886,60.781c40.442,18.292,96.35,14.995,129.746-3.961       c22.561-12.806,36.011-30.772,40.694-60.608c0.424-2.699,0.733-5.407,0.993-8.107c4.866,0.032,14.075-3.015,21.514-9.851       C414.463,254.062,402.902,223.904,376.776,229.896z"/>
					<g style="opacity:0.5;">
						<path style="fill:#FC09B2;" d="M308.066,304.772c-10.717-9.03-9.179-23.993,2-31.986c10.984-7.854,26.659-6.816,35.514,3.103        c9.969,11.166,4.674,28.992-13.252,33.974C324.465,312.048,315.007,310.621,308.066,304.772z"/>
						<path style="fill:#FC09B2;" d="M209.915,304.772c10.717-9.03,9.179-23.993-2-31.986c-10.984-7.854-26.659-6.816-35.514,3.103        c-9.969,11.166-4.674,28.992,13.252,33.974C193.516,312.048,202.974,310.621,209.915,304.772z"/>
						<path style="fill:#FC09B2;" d="M386.557,248.695c-0.264,2.131-1.021,4.112-1.982,5.976c-0.981,1.855-2.213,3.576-3.639,5.116        c-1.425,1.541-3.048,2.9-4.825,4.018c-1.786,1.101-3.706,2.004-5.812,2.424c-0.96,0.191-1.893-0.432-2.084-1.392        c-0.106-0.53,0.037-1.051,0.347-1.445l0.036-0.046c1.239-1.555,2.519-2.872,3.76-4.206l3.707-3.907l3.693-3.931        c1.265-1.319,2.507-2.681,3.988-4.021l0.033-0.03c0.684-0.619,1.74-0.566,2.359,0.118        C386.475,247.742,386.612,248.232,386.557,248.695z"/>
						<path style="fill:#FC09B2;" d="M134.236,247.282c1.481,1.34,2.724,2.702,3.988,4.021l3.693,3.931l3.707,3.907        c1.24,1.335,2.52,2.652,3.759,4.206l0.031,0.039c0.61,0.765,0.484,1.88-0.281,2.49c-0.422,0.337-0.959,0.448-1.451,0.352        c-2.106-0.42-4.027-1.323-5.812-2.424c-1.776-1.118-3.4-2.477-4.825-4.018c-1.426-1.54-2.659-3.26-3.639-5.116        c-0.961-1.865-1.718-3.845-1.982-5.976c-0.113-0.915,0.537-1.749,1.452-1.862c0.499-0.062,0.973,0.103,1.32,0.414        L134.236,247.282z"/>
					</g>
					<path style="fill:#FC09B2;" d="M245.524,277.559c-11.121-9.67,5.972-25.481,14.203-24.92       c7.768,0.53,19.316,11.498,16.284,19.794C272.188,282.891,253.297,284.318,245.524,277.559z"/>
				</g>
				<g>
					<path style="fill:#000E3F;" d="M402.886,238.543c-4.805-9.132-14.977-13.153-26.536-10.504       c-2.751,0.631-5.452,1.627-8.055,2.968c-3.498-18.195-8.445-31.941-11.457-40.309c-0.687-1.91-1.279-3.554-1.736-4.925       c-0.51-1.524-1.536-2.534-3.051-3.005c-43.822-13.603-73.69-14.789-83.506-15.179c-1.621-0.064-2.902-0.115-3.335-0.187       c-8.797-1.447-59.352,1.775-99.036,15.285c-2.535,0.863-2.995,2.226-4.107,5.516c-0.391,1.157-0.899,2.66-1.639,4.638       c-4.499,12.011-8.174,25.164-10.682,38.2c-2.624-1.36-5.344-2.367-8.114-3.003c-11.562-2.652-21.732,1.372-26.537,10.504       c-5.074,9.645-3.769,25.282,10.588,38.474c6.731,6.185,15.278,9.677,21.064,10.265c0.403,3.663,0.925,7.168,1.557,10.441       c5.858,30.316,20.962,49.486,48.972,62.155c18.23,8.245,40.1,12.31,61.86,12.309c25.335,0,50.517-5.511,69.613-16.35       c24.226-13.751,37.066-32.863,41.636-61.97c0.313-1.992,0.585-4.116,0.843-6.585c5.789-0.585,14.336-4.076,21.072-10.265       C406.655,263.825,407.961,248.188,402.886,238.543z M389.719,274.211c-7.427,6.824-16.271,9.348-20.155,9.348       c-0.023,0.001-0.046,0.005-0.07,0c-0.981,0-1.802,0.745-1.897,1.722c-0.3,3.112-0.611,5.652-0.978,7.994       c-4.372,27.851-16.632,46.122-39.752,59.247c-34.537,19.602-89.575,21.271-128.021,3.883       c-26.768-12.107-41.202-30.429-46.801-59.406c-0.703-3.64-1.266-7.583-1.676-11.722c-0.097-0.976-0.917-1.718-1.896-1.718       c-0.027,0-0.04,0-0.06,0c-3.879,0-12.728-2.526-20.152-9.348c-12.865-11.821-14.189-25.54-9.794-33.893       c4.022-7.645,12.366-10.848,22.312-8.564c3.214,0.737,6.36,2.043,9.353,3.883c0.536,0.33,1.202,0.374,1.775,0.116       c0.575-0.258,0.985-0.781,1.097-1.401c2.467-13.671,6.269-27.562,10.992-40.174c0.759-2.027,1.28-3.568,1.68-4.754       c0.971-2.871,0.971-2.871,1.725-3.128c39.21-13.348,89.584-16.383,97.188-15.132c0.665,0.11,1.847,0.157,3.803,0.235       c9.692,0.384,39.184,1.557,82.528,15.01c0.323,0.1,0.436,0.188,0.565,0.572c0.465,1.394,1.067,3.066,1.766,5.009       c3.114,8.653,8.327,23.135,11.781,42.323c0.112,0.619,0.522,1.144,1.096,1.4c0.573,0.259,1.237,0.215,1.775-0.113       c2.972-1.818,6.1-3.112,9.299-3.846c9.947-2.285,18.289,0.919,22.311,8.564C403.908,248.671,402.584,262.39,389.719,274.211z"/>
					<path style="fill:#000E3F;" d="M281.49,289.774c-1.067-0.095-1.978,0.667-2.081,1.714       c-1.332,13.808-7.663,21.623-18.308,22.602c-5.774,0.528-10.638-0.845-14.461-4.089c-4.599-3.902-7.45-10.46-8.028-18.467       c-0.076-1.049-0.972-1.815-2.038-1.764c-1.051,0.076-1.84,0.988-1.764,2.038c0.652,9.037,3.978,16.53,9.364,21.099       c3.96,3.36,8.978,5.101,14.633,5.101c0.866,0,1.748-0.041,2.642-0.124c7.251-0.666,19.718-4.934,21.754-26.03       C283.304,290.807,282.538,289.876,281.49,289.774z"/>
					<path style="fill:#000E3F;" d="M311.848,237.205c-6.398-3.03-13.235-2.107-18.756,2.533c-4.091,3.44-6.471,8.158-7.277,14.422       c-0.135,1.044,0.603,1.999,1.647,2.133c1.021,0.141,1.999-0.603,2.133-1.647c0.678-5.272,2.625-9.194,5.95-11.99       c4.329-3.643,9.679-4.376,14.672-2.007c5.987,2.837,9.948,9.349,9.856,16.207c-0.014,1.052,0.828,1.917,1.88,1.931       c0.008,0,0.017,0,0.026,0c1.04,0,1.891-0.837,1.905-1.881C323.994,248.586,319.158,240.669,311.848,237.205z"/>
					<path style="fill:#000E3F;" d="M212.983,235.283c-8.985,0.462-18.344,7.988-18.85,21.482c-0.039,1.052,0.782,1.936,1.833,1.976       c0.024,0.001,0.048,0.001,0.073,0.001c1.02,0,1.865-0.807,1.904-1.834c0.419-11.207,7.982-17.446,15.236-17.818       c6.048-0.296,13.685,3.519,15.348,15.329c0.147,1.043,1.115,1.764,2.153,1.621c1.042-0.147,1.768-1.111,1.621-2.153       C230.408,240.448,221.232,234.89,212.983,235.283z"/>
				</g>
			</g>
			<g>
				<g>
					<path style="fill:#6280FF;" d="M377.354,181.687c-1.176,1.944-1.35,1.778,0.649,3.427c5.406,4.462,9.494,9.924,11.859,16.581       c9.783,27.54-17.028,53.322-38.276,41.141c-10.947-6.276-14.845-19.952-11.901-30.386c0.629-2.231-5.765,2.905-16.798-0.083       c-13.31-3.605-21.981-17.7-17.905-34.857c0.589-2.479-0.707,0.43-6.366,3.912c-12.49,7.684-26.271,4.89-34.066-4.686       c-4.658-5.722-4.802-9.257-5.568-8.986c-0.945,0.335-1.56,5.668-7.794,11.469c-7.966,7.413-19.791,9.3-31.313,2.481       c-6.002-3.552-6.292-5.481-6.853-5.065c-0.23,0.171-0.052,0.507,0.014,0.77c5.705,22.638-11.654,40.464-32.426,34.902       c-1.255-0.336-2.467-0.814-2.268,0.034c0.346,1.474,0.493,2.982,0.756,4.464c0.494,2.78,0.159,5.489-0.315,8.192       c-1.782,10.151-9.369,18.96-20.16,20.535c-16.056,2.344-30.907-11.9-32.261-28.318c-0.107-1.298-0.377-2.582-0.303-3.897       c1.277-22.648,16.424-28.187,15.472-30.087c-1.726-3.443-6.37-9.673-5.078-21.042c2.39-21.028,24.228-36.145,44.822-28.746       c4.057,1.458,6.638,3.408,7.321,3.767c1.132,0.594-0.039-2.067,1.892-8.662c8.187-27.965,37.721-34.905,60.363-19.765       c2.528,1.69,4.73,3.765,7.051,5.701c0.467,0.389,0.94,1.163,1.722,0.497c0.627-0.535,1.304-1.016,1.897-1.585       c15.927-15.26,42.921-18.018,58.643,0.656c9.129,10.843,8.254,22.27,8.998,23.214c0.621-0.136,17.98-13.378,38.076,0.718       c7.331,5.142,12.654,13.449,14.122,22.471C382.502,167.475,381.343,175.096,377.354,181.687z"/>
					<g style="opacity:0.25;">
						<path style="fill:#000E3F;" d="M188.214,213.265c-5.653,0.311-10.191-2.3-9.876-0.939        c4.101,17.737-6.632,31.379-19.871,33.228c-14.324,2.001-29.081-9.262-31.979-26.813c-0.871-5.274,5.738,3.289,20.413-3.932        c6.266-3.083,10.375-7.29,15.192-12.191c5.741-5.843,12.924-11.128,21.027-12.706c11.422-2.224,21.403,2.356,26.503,10.385        c0.331,0.52,0.287,1.025-0.059,1.538c-4.667,6.93-11.248,10.605-19.145,11.417        C189.603,213.338,188.77,213.265,188.214,213.265z"/>
						<path style="fill:#000E3F;" d="M329.304,189.312c14.253,0.62,20.884,7.915,30.801,17.459        c6.678,6.427,14.989,11.447,24.252,11.059c5.467-0.229,7.255-1.852,7.276-0.228c0.048,3.56-2.467,11.387-7.075,17.074        c-16.429,20.282-42.278,10.287-45.222-9.394c-1.138-7.608-0.508-5.455-0.185-10.433c0.065-0.996,0.763-1.909,0.384-2.962        c-0.999,0.216-2.002,0.417-2.997,0.65c-11.246,2.633-21.782-1.626-27.675-10.076c-0.755-1.083-0.719-1.932,0.01-2.97        c2.953-4.204,8.622-8.319,14.5-9.525C325.324,189.568,327.29,189.227,329.304,189.312z"/>
					</g>
					<g>
						<path style="fill:#322BBF;" d="M361.327,201.076c-0.087,2.152-0.396,3.879-0.494,5.652c-0.15,1.737-0.152,3.402,0.012,4.919        c0.211,1.515,0.532,2.88,1.167,4.028c0.148,0.292,0.291,0.582,0.491,0.839c0.186,0.264,0.329,0.552,0.573,0.783        c0.22,0.223,0.418,0.546,0.624,0.711c0.209,0.151,0.381,0.356,0.585,0.498c0.785,0.577,1.717,0.865,2.927,0.9        c1.208,0.06,2.596-0.278,3.999-0.795c2.791-1.125,5.504-3.044,7.709-5.561l0.107-0.122c0.705-0.805,1.929-0.886,2.734-0.181        c0.588,0.515,0.789,1.309,0.58,2.012c-1.243,4.163-4.213,7.669-8.091,9.957c-1.942,1.171-4.239,1.925-6.783,2.128        c-2.528,0.187-5.434-0.509-7.675-2.184c-0.552-0.409-1.028-0.893-1.527-1.355c-0.483-0.471-0.803-0.945-1.195-1.429        c-0.392-0.467-0.682-1.018-0.996-1.547c-0.328-0.523-0.588-1.079-0.799-1.656c-0.9-2.277-1.27-4.675-1.122-6.904        c0.199-4.443,1.996-8.382,3.663-11.464l0.091-0.168c0.479-0.885,1.584-1.214,2.468-0.735        C361.005,199.743,361.353,200.405,361.327,201.076z"/>
						<path style="fill:#322BBF;" d="M160.234,200.304c1.667,3.081,3.464,7.021,3.662,11.463c0.148,2.229-0.222,4.627-1.121,6.904        c-0.212,0.577-0.472,1.132-0.799,1.655c-0.313,0.529-0.604,1.08-0.996,1.547c-0.393,0.485-0.713,0.958-1.195,1.43        c-0.498,0.462-0.975,0.946-1.525,1.355c-2.238,1.675-5.145,2.375-7.676,2.187c-2.546-0.203-4.842-0.96-6.784-2.132        c-3.876-2.291-6.84-5.796-8.09-9.952c-0.308-1.025,0.273-2.105,1.298-2.414c0.749-0.225,1.527,0.024,2.013,0.574l0.107,0.122        c2.212,2.516,4.925,4.438,7.716,5.565c1.402,0.517,2.789,0.856,3.996,0.796c1.208-0.034,2.138-0.323,2.924-0.901        c0.204-0.142,0.377-0.348,0.586-0.499c0.206-0.165,0.405-0.488,0.624-0.711c0.243-0.23,0.387-0.519,0.573-0.783        c0.2-0.257,0.343-0.547,0.491-0.839c0.635-1.148,0.956-2.513,1.167-4.028c0.165-1.517,0.162-3.182,0.012-4.919        c-0.098-1.773-0.407-3.5-0.494-5.652c-0.041-1.005,0.741-1.852,1.746-1.893c0.717-0.029,1.353,0.361,1.674,0.951        L160.234,200.304z"/>
						<path style="fill:#322BBF;" d="M189.773,162.586c1.875,3.498,3.053,7.545,2.834,11.972c-0.002,1.097-0.288,2.243-0.492,3.361        c-0.176,0.562-0.386,1.126-0.589,1.689c-0.193,0.566-0.413,1.126-0.757,1.665c-1.071,2.239-3.189,4.147-5.541,5.334        c-2.432,1.249-5.098,1.322-7.498,1.09c-2.343-0.449-4.554-1.157-6.382-2.318c-1.921-1.043-3.477-2.443-4.98-3.834        c-1.43-1.482-2.791-3.188-3.63-5.162c-0.421-0.992,0.041-2.137,1.033-2.558c0.703-0.299,1.484-0.153,2.028,0.31l0.085,0.073        c1.281,1.094,2.593,2.036,4.065,2.881c0.719,0.459,1.489,0.797,2.219,1.181c0.723,0.419,1.46,0.704,2.191,0.99        c1.464,0.588,2.877,0.915,4.206,1.041c0.328,0.009,0.629-0.028,0.942-0.022c0.313,0.009,0.624,0.014,0.887-0.087        c0.275-0.066,0.558-0.099,0.834-0.15c0.24-0.121,0.481-0.229,0.731-0.318c0.275-0.046,0.454-0.263,0.682-0.391        c0.218-0.146,0.469-0.248,0.639-0.482c0.193-0.197,0.397-0.385,0.614-0.568c0.161-0.255,0.324-0.507,0.516-0.745        c0.211-0.218,0.355-0.513,0.489-0.822l0.45-0.902c0.15-0.706,0.49-1.342,0.618-2.104c0.657-2.991,0.589-6.442,0.369-10.068        l-0.005-0.081c-0.061-1.01,0.708-1.878,1.717-1.939C188.784,161.579,189.445,161.977,189.773,162.586z"/>
						<path style="fill:#322BBF;" d="M331.714,163.643c-0.232,3.6-0.306,7.129,0.327,10.139c0.654,3.065,2.022,5.007,4.069,5.959        c1.913,0.959,4.663,0.786,7.603-0.374c2.909-1.145,5.835-3,8.468-5.202l0.099-0.083c0.823-0.688,2.047-0.579,2.735,0.244        c0.504,0.603,0.579,1.423,0.26,2.088c-1.822,3.786-4.777,6.861-8.533,9.064c-1.877,1.121-4.043,1.914-6.449,2.276        c-2.396,0.34-5.118,0.012-7.484-1.145c-2.345-1.123-4.352-3.017-5.579-5.259c-1.208-2.239-1.768-4.592-1.839-6.806        c-0.167-4.432,0.989-8.427,2.887-11.957c0.479-0.891,1.59-1.225,2.481-0.746c0.651,0.35,1.005,1.037,0.961,1.73        L331.714,163.643z"/>
						<path style="fill:#322BBF;" d="M280.215,136.498c0.462,3.506,1.063,6.744,2.331,9.437c1.254,2.694,3.153,4.652,5.345,5.642        c2.195,1.012,4.831,0.9,7.502-0.103c2.686-1.026,5.27-2.99,7.877-5.322l0.094-0.084c0.8-0.716,2.029-0.647,2.745,0.153        c0.519,0.581,0.624,1.388,0.338,2.06c-1.551,3.625-4.175,7.064-8.032,9.306c-3.761,2.234-9.092,3.083-13.585,0.968        c-4.512-2.004-7.483-6.215-8.587-10.368c-1.162-4.201-0.801-8.412,0.405-12.137c0.311-0.961,1.342-1.487,2.303-1.176        c0.692,0.224,1.159,0.823,1.25,1.499L280.215,136.498z"/>
						<path style="fill:#322BBF;" d="M243.252,136.051c1.207,3.732,1.56,7.954,0.391,12.158c-1.113,4.156-4.08,8.36-8.583,10.378        c-4.48,2.144-9.844,1.308-13.616-0.943c-3.87-2.259-6.479-5.732-8.001-9.377c-0.414-0.991,0.054-2.129,1.045-2.542        c0.719-0.3,1.516-0.136,2.057,0.355l0.095,0.087c2.588,2.358,5.16,4.34,7.839,5.369c2.662,1.003,5.296,1.117,7.497,0.083        c2.201-1.001,4.108-2.973,5.368-5.671c1.273-2.698,1.88-5.939,2.341-9.449l0.016-0.123c0.132-1.001,1.05-1.706,2.051-1.574        C242.472,134.896,243.041,135.402,243.252,136.051z"/>
					</g>
					<g style="opacity:0.5;">
						<path style="fill:#FFFFFF;" d="M148.58,155.744c1.122-3.277,3.054-5.938,5.631-8.19c2.558-2.216,5.796-3.901,9.281-4.513        c3.455-0.608,7.066-0.413,10.228,0.698c1.638,0.411,3.048,1.303,4.514,1.989c1.36,0.882,2.648,1.838,3.838,2.885        c0.806,0.71,0.885,1.938,0.175,2.745c-0.449,0.51-1.106,0.729-1.733,0.641l-0.305-0.045c-1.466-0.218-2.792-0.627-4.122-0.927        l-1.979-0.344c-0.649-0.129-1.278-0.292-1.922-0.298c-0.639-0.043-1.265-0.102-1.883-0.2c-0.619-0.036-1.23,0.014-1.838,0.008        c-0.303,0.014-0.607-0.025-0.907-0.009l-0.887,0.115c-0.586,0.086-1.195,0.041-1.76,0.23c-2.326,0.39-4.577,1.234-6.785,2.455        c-2.183,1.202-4.385,2.884-6.434,4.559l-0.242,0.198c-0.777,0.636-1.923,0.521-2.559-0.256        C148.48,156.98,148.385,156.318,148.58,155.744z"/>
						<path style="fill:#FFFFFF;" d="M206.613,124.342c1.122-3.277,3.054-5.938,5.631-8.19c2.558-2.217,5.796-3.901,9.281-4.513        c3.455-0.608,7.066-0.413,10.228,0.698c1.638,0.411,3.048,1.303,4.514,1.989c1.36,0.882,2.648,1.838,3.838,2.885        c0.806,0.71,0.885,1.938,0.175,2.745c-0.449,0.51-1.106,0.729-1.733,0.641l-0.305-0.046c-1.466-0.217-2.792-0.627-4.122-0.926        l-1.979-0.344c-0.649-0.129-1.278-0.292-1.922-0.298c-0.639-0.043-1.265-0.103-1.883-0.2c-0.619-0.036-1.23,0.014-1.838,0.008        c-0.303,0.014-0.607-0.025-0.907-0.009l-0.887,0.115c-0.586,0.087-1.195,0.042-1.76,0.23c-2.326,0.39-4.577,1.234-6.785,2.455        c-2.183,1.202-4.385,2.884-6.434,4.559l-0.242,0.198c-0.778,0.636-1.923,0.521-2.559-0.256        C206.514,125.578,206.419,124.916,206.613,124.342z"/>
					</g>
				</g>
				<path style="fill:#000E3F;" d="M363.043,247.815c-4.28,0-8.516-1.096-12.405-3.326c-11.405-6.538-15.215-19.923-13.326-30.229      c-2.898,0.726-8.146,1.782-14.923-0.054c-13.833-3.746-21.948-17.551-20.005-33.042c-0.788,0.589-1.709,1.227-2.77,1.88      c-12.705,7.818-27.733,5.719-36.542-5.105c-2.025-2.486-3.25-4.598-4.039-6.185c-1.084,2.27-2.938,5.5-6.548,8.859      c-9.157,8.523-22.023,9.567-33.581,2.726c-1.292-0.764-2.339-1.463-3.191-2.086c1.335,10.083-1.622,19.645-8.267,26.192      c-6.991,6.888-16.735,9.365-26.812,6.837c0.03,0.196,0.059,0.393,0.088,0.589c0.078,0.535,0.157,1.069,0.251,1.6      c0.549,3.085,0.173,6.079-0.315,8.855c-2.038,11.61-10.783,20.488-21.762,22.091c-7.5,1.094-15.165-1.124-21.599-6.241      c-7.287-5.794-12.085-14.694-12.837-23.807c-0.033-0.392-0.081-0.782-0.129-1.172c-0.116-0.946-0.236-1.925-0.177-2.989      c0.987-17.502,9.834-25.216,14.085-28.923c0.385-0.335,0.827-0.721,1.15-1.026c-0.115-0.21-0.237-0.429-0.364-0.658      c-2.115-3.811-5.654-10.188-4.468-20.629c1.241-10.92,7.683-20.985,17.233-26.924c9.213-5.731,20.193-6.972,30.126-3.4      c2.316,0.832,4.185,1.819,5.515,2.603c0.142-1.484,0.445-3.574,1.226-6.24c3.791-12.954,12.281-22.412,23.903-26.632      c12.435-4.517,27.148-2.34,39.348,5.819c1.955,1.306,3.712,2.82,5.41,4.283c0.581,0.501,1.16,1,1.748,1.492      c0.031-0.025,0.061-0.049,0.092-0.074c0.357-0.285,0.717-0.568,1.044-0.882c9.098-8.715,21.806-13.52,33.934-12.88      c10.937,0.585,20.44,5.318,27.485,13.685c7.035,8.357,8.427,17.097,8.959,21.412c12.535-6.899,25.865-6.149,37.751,2.186      c7.81,5.478,13.383,14.347,14.909,23.725c1.281,7.875-0.23,15.875-4.255,22.527l-0.284,0.463      c-0.011,0.018-0.022,0.035-0.033,0.052c0.155,0.13,0.329,0.274,0.501,0.417c5.919,4.885,10.105,10.743,12.488,17.451      c5.876,16.541-1.047,31.922-10.512,39.827C375.657,245.466,369.304,247.815,363.043,247.815z M339.347,209.969      c0.628,0,1.182,0.174,1.666,0.669c0.337,0.344,0.851,1.104,0.505,2.329c-2.578,9.139,0.406,22.134,11.016,28.215      c8.282,4.748,18.066,3.545,26.168-3.224c7.834-6.542,14.987-19.798,9.364-35.625c-2.148-6.049-5.943-11.348-11.276-15.749      c-2.225-1.837-2.951-2.83-1.331-5.452l0.265-0.432c3.557-5.879,4.89-12.96,3.754-19.942c-1.365-8.386-6.35-16.318-13.336-21.217      c-15.055-10.562-28.665-5.139-35.44-0.969c-0.524,0.323-0.764,0.47-1.134,0.552c-0.716,0.156-1.453-0.109-1.903-0.681      c-0.499-0.631-0.587-1.374-0.78-3.004c-0.467-3.945-1.44-12.157-8.181-20.163c-6.348-7.541-14.915-11.805-24.773-12.334      c-11.123-0.596-22.743,3.825-31.093,11.826c-0.411,0.394-0.857,0.753-1.305,1.109c-0.226,0.18-0.454,0.362-0.674,0.55      c-0.591,0.504-2.166,1.479-4.038-0.349l-0.14-0.133c-0.623-0.52-1.238-1.049-1.851-1.577c-1.686-1.453-3.279-2.826-5.04-4.003      c-11.194-7.488-24.63-9.508-35.929-5.405c-10.452,3.794-18.104,12.36-21.546,24.12c-0.97,3.311-1.107,5.544-1.189,6.879      c-0.074,1.207-0.144,2.347-1.241,2.965c-0.382,0.213-1.173,0.496-2.176-0.03c-0.171-0.089-0.445-0.259-0.811-0.494      c-1.138-0.729-3.258-2.084-6.269-3.166c-8.83-3.171-18.607-2.059-26.824,3.05c-8.57,5.33-14.349,14.346-15.459,24.118      c-1.05,9.228,1.998,14.717,4.013,18.35c0.332,0.598,0.631,1.138,0.875,1.624c0.912,1.818-0.588,3.126-2.488,4.784      c-3.859,3.364-11.889,10.365-12.784,26.265c-0.041,0.722,0.054,1.492,0.154,2.308c0.054,0.441,0.108,0.882,0.144,1.325      c0.666,8.083,4.932,15.985,11.41,21.137c5.605,4.457,12.242,6.396,18.676,5.452c9.347-1.364,16.806-8.991,18.559-18.978      c0.493-2.811,0.736-5.167,0.316-7.53c-0.101-0.567-0.186-1.138-0.27-1.71c-0.131-0.887-0.26-1.775-0.466-2.651      c-0.198-0.844,0.02-1.644,0.598-2.196c1.016-0.971,2.346-0.592,3.519-0.254l0.5,0.14c8.914,2.385,17.544,0.299,23.669-5.735      c6.614-6.517,9.012-16.559,6.417-26.861c-0.507-1.586,0.219-2.409,0.695-2.764c1.561-1.16,2.913,0.246,3.358,0.704      c0.682,0.706,2.102,2.176,5.604,4.248c10.043,5.946,21.173,5.09,29.044-2.236c3.966-3.69,5.462-7.111,6.356-9.154      c0.594-1.356,1.022-2.336,2.102-2.717c1.971-0.697,2.834,1.288,3.296,2.354c0.637,1.471,1.704,3.932,4.384,7.226      c7.57,9.298,20.559,11.051,31.59,4.265c2.532-1.558,4.134-2.989,5.092-3.845c0.937-0.835,2.001-1.784,3.324-0.996      c1.326,0.791,0.971,2.278,0.801,2.993c-3.632,15.295,3.327,28.996,16.55,32.577c6.43,1.74,11.171,0.513,13.72-0.148      C337.94,210.162,338.685,209.969,339.347,209.969z M260.245,169.112L260.245,169.112L260.245,169.112z"/>
			</g>
			<g>
				<g>
					<path style="fill:#322BBF;" d="M309.277,225.978c-21.887-1.223-26.299-24.69-7.715-27.676       c9.344-1.501,22.019,3.632,24.043,13.477C327.48,220.898,318.141,226.474,309.277,225.978z"/>
					<path style="fill:#000E3F;" d="M310.409,227.916c-0.411,0-0.824-0.011-1.238-0.034l0,0       c-13.341-0.746-20.74-9.224-21.153-17.212c-0.379-7.302,4.82-12.895,13.242-14.248c10.574-1.704,24.027,4.344,26.212,14.975       c0.81,3.939-0.122,7.596-2.695,10.579C321.566,225.697,316.144,227.916,310.409,227.916z M309.383,224.076       c4.959,0.273,9.864-1.524,12.508-4.59c1.797-2.083,2.418-4.546,1.848-7.323c-1.736-8.446-13.186-13.379-21.875-11.979       c-6.468,1.039-10.316,4.982-10.042,10.288C292.148,216.763,298.285,223.455,309.383,224.076L309.383,224.076z"/>
				</g>
				<g>
					<path style="fill:#322BBF;" d="M208.705,225.978c21.887-1.223,26.299-24.69,7.715-27.676       c-9.344-1.501-22.019,3.632-24.043,13.477C190.502,220.898,199.84,226.474,208.705,225.978z"/>
					<path style="fill:#000E3F;" d="M207.572,227.916c-5.735,0-11.155-2.219-14.366-5.94c-2.574-2.982-3.506-6.641-2.696-10.579       c2.186-10.63,15.641-16.677,26.212-14.975c8.423,1.353,13.621,6.946,13.243,14.248c-0.413,7.988-7.812,16.466-21.153,17.212       l0,0C208.397,227.905,207.984,227.916,207.572,227.916z M208.705,225.979h0.019H208.705z M213.079,199.949       c-8.118,0-17.296,4.723-18.836,12.214c-0.571,2.775,0.051,5.239,1.849,7.322c2.645,3.065,7.56,4.866,12.507,4.59       c11.098-0.621,17.234-7.312,17.56-13.604c0.274-5.306-3.573-9.249-10.042-10.288       C215.133,200.026,214.114,199.949,213.079,199.949z"/>
				</g>
			</g>
		</g>
	</g>
	<g>
		<g>
			<g>
				<path style="fill:#FC09B2;" d="M467.243,372.609c-10.133,16.365-34.766,22.211-51.252,20.919      c-1.337-0.075-2.593-0.66-3.542-1.651c-6.279-6.375-12.456-15.915-15.887-26.215c-2.897-8.757-3.806-18.077-1.067-26.482      c4.263-13.103,16.518-19.974,25.135-13.569c11.713,8.593,11.7,28.222,11.7,28.222s15.02-12.638,29.134-9.198      c1.519,0.356,2.919,0.969,4.055,1.811C472.467,351.135,473.453,362.647,467.243,372.609z"/>
				<path style="opacity:0.25;fill:#000E3F;" d="M467.243,372.609c-10.133,16.365-34.766,22.211-51.252,20.919      c-1.337-0.075-2.593-0.66-3.542-1.651c-6.279-6.375-12.456-15.915-15.887-26.215c5.966-4.981,15.631-6.043,26.58-0.941      c18.452,8.597,34.891-8.514,42.377-18.274C472.467,351.135,473.453,362.647,467.243,372.609z"/>
			</g>
			<path style="fill:#000E3F;" d="M420.363,395.597c-1.593,0-3.107-0.059-4.521-0.169c-1.775-0.098-3.484-0.891-4.769-2.23     c-6.945-7.052-13.053-17.127-16.32-26.933c-3.325-10.054-3.696-19.623-1.07-27.675c2.634-8.099,8.397-14.445,15.036-16.561     c4.636-1.48,9.272-0.752,13.047,2.053c9.293,6.819,11.661,19.766,12.263,26.102c5.238-3.614,16.676-10.133,27.884-7.399     c1.778,0.417,3.422,1.156,4.739,2.133c7.902,5.33,8.902,17.957,2.207,28.699C458.659,390.089,435.826,395.597,420.363,395.597z      M413.415,325.087c-1.324,0-2.534,0.251-3.538,0.571c-5.491,1.75-10.307,7.157-12.569,14.111     c-2.373,7.274-2.004,16.021,1.063,25.294c3.091,9.275,8.862,18.801,15.436,25.476c0.632,0.658,1.439,1.036,2.291,1.084     c17.197,1.354,40.358-5.212,49.526-20.018c0.001-0.002,0.002-0.004,0.003-0.005c5.512-8.844,4.986-19.419-1.172-23.574     c-0.972-0.719-2.133-1.233-3.425-1.536c-13.002-3.173-27.33,8.681-27.473,8.801c-0.568,0.476-1.361,0.58-2.029,0.267     c-0.671-0.313-1.101-0.985-1.102-1.726c0-0.187-0.14-18.776-10.921-26.686C417.418,325.598,415.301,325.087,413.415,325.087z"/>
		</g>
		<g>
			<g>
				<path style="fill:#FC09B2;" d="M117.692,334.643c5.484,18.45-6.529,40.735-18.457,52.189c-0.945,0.949-2.217,1.498-3.588,1.548      c-8.937,0.45-20.17-1.28-30.144-5.566c-8.466-3.66-16.033-9.178-20.488-16.813c-6.952-11.897-3.934-25.619,6.579-27.796      c14.206-3.034,28.858,10.029,28.858,10.029s0.549-19.622,12.504-27.875c1.276-0.898,2.665-1.536,4.049-1.825      C105.127,316.462,114.381,323.381,117.692,334.643z"/>
				<path style="opacity:0.25;fill:#000E3F;" d="M117.692,334.643c5.484,18.45-6.529,40.735-18.457,52.189      c-0.945,0.949-2.217,1.498-3.588,1.548c-8.937,0.45-20.17-1.28-30.144-5.566c0.247-7.768,5.881-15.693,16.972-20.478      c18.691-8.065,16.842-31.721,14.531-43.802C105.127,316.462,114.381,323.381,117.692,334.643z"/>
			</g>
			<path style="fill:#000E3F;" d="M92.834,390.355c-9.202,0-19.497-2.101-28.084-5.79c-9.721-4.202-17.112-10.288-21.381-17.604     c-4.297-7.354-5.205-15.877-2.371-22.244c1.982-4.451,5.608-7.426,10.21-8.379c11.263-2.413,22.515,4.435,27.65,8.197     c0.783-6.316,3.523-19.192,13.015-25.745c1.492-1.051,3.137-1.787,4.744-2.122c9.238-2.355,19.331,5.292,22.903,17.435     c6.088,20.488-8.006,43.579-18.966,54.102c-1.254,1.262-2.983,2.011-4.838,2.079C94.77,390.332,93.808,390.355,92.834,390.355z      M56.014,339.654c-1.34,0-2.685,0.128-4.022,0.414c-4.329,0.896-6.473,3.866-7.513,6.2c-2.344,5.265-1.509,12.458,2.18,18.772     c3.857,6.608,10.634,12.149,19.599,16.025c8.983,3.86,19.94,5.88,29.291,5.412c0.912-0.034,1.732-0.385,2.333-0.99     c12.436-11.942,22.944-33.607,17.982-50.3c-0.001-0.002-0.001-0.004-0.002-0.005c-2.939-9.998-11.182-16.634-18.387-14.801     c-1.184,0.249-2.339,0.774-3.423,1.537c-11.047,7.626-11.69,26.183-11.696,26.37c-0.02,0.741-0.469,1.401-1.149,1.695     c-0.676,0.296-1.467,0.169-2.023-0.325C79.06,349.546,67.781,339.654,56.014,339.654z"/>
		</g>
		<g>
			<g>
				<path style="fill:#FC09B2;" d="M437.764,82.75c-7.519,17.718-30.973,27.251-47.464,28.487c-1.333,0.13-2.663-0.257-3.752-1.091      c-7.178-5.343-14.737-13.831-19.698-23.487c-4.198-8.213-6.518-17.286-5.091-26.009c2.216-13.6,13.28-22.259,22.773-17.243      c12.886,6.707,15.866,26.109,15.866,26.109s12.918-14.78,27.391-13.532c1.556,0.12,3.033,0.512,4.284,1.172      C439.653,60.73,442.383,71.958,437.764,82.75z"/>
				<path style="opacity:0.25;fill:#000E3F;" d="M437.764,82.75c-7.519,17.718-30.973,27.251-47.464,28.487      c-1.333,0.13-2.663-0.257-3.752-1.091c-7.178-5.343-14.737-13.831-19.698-23.487c5.136-5.832,14.527-8.355,26.126-4.982      c19.547,5.684,33.184-13.734,39.096-24.521C439.653,60.73,442.383,71.958,437.764,82.75z"/>
			</g>
			<path style="fill:#000E3F;" d="M389.775,113.17c-1.552,0-3.098-0.524-4.385-1.51c-7.939-5.91-15.511-14.936-20.235-24.129     c-4.82-9.429-6.643-18.829-5.277-27.188c1.37-8.408,6.096-15.558,12.336-18.661c4.362-2.169,9.053-2.155,13.207,0.041     c10.224,5.322,14.538,17.757,16.099,23.927c4.626-4.371,14.92-12.561,26.431-11.563c1.821,0.14,3.559,0.619,5.01,1.385     c8.622,4.061,11.534,16.388,6.556,28.025c-8.351,19.672-33.922,28.505-49.074,29.641     C390.221,113.16,389.998,113.17,389.775,113.17z M378.86,43.872c-1.946,0-3.649,0.577-4.948,1.223     c-5.16,2.566-9.096,8.645-10.272,15.863c-1.235,7.552,0.463,16.14,4.908,24.836c4.468,8.696,11.623,17.23,19.139,22.825     c0.724,0.555,1.578,0.803,2.43,0.723c17.193-1.29,39.092-11.306,45.894-27.335c0.001-0.002,0.001-0.004,0.002-0.005     c4.101-9.58,1.968-19.951-4.753-23.12c-1.07-0.562-2.295-0.892-3.618-0.995c-13.394-1.161-25.688,12.746-25.81,12.886     c-0.488,0.556-1.253,0.783-1.965,0.575c-0.712-0.206-1.239-0.807-1.353-1.539c-0.029-0.184-3-18.535-14.862-24.708     C381.962,44.206,380.341,43.872,378.86,43.872z"/>
		</g>
	</g>
	<g>
		<path style="fill:#000E3F;" d="M78.265,124.138c-1.253,1.239-3.633,4.016-4.287,4.489c0.201,1.63,3.177,6.237,2.851,6.383    c-0.061,0.06-0.151,0.089-0.268,0.089c-1.539-0.303-4.851-2.451-6.42-2.546l-0.03,0.03c-1.224,1.388-3.154,2.773-3.899,4.163    c15.909,16.277,19.512,19.907,20.193,20.295c0.089,0.03,0.147,0.031,0.177,0.001c1.278-1.27,3.005-2.745,4.076-4.222    c-3.899-3.453-7.913-7.145-11.277-11.189c-0.026-0.09,5.324,2.866,5.95,2.305c0.326-0.325-2.146-4.899-2.436-6.204    c3.694,2.948,8.387,7.917,11.901,11.163c0.951-0.945,2.618-2.835,3.954-3.867l-9.327-9.582    C85.852,131.429,81.896,128.093,78.265,124.138z"/>
		<path style="fill:#000E3F;" d="M95.635,109.445c-0.279,0.183-0.759,0.532-1.271,0.964c-1.118,0.948-2.536,2.259-3.169,3.069    c0.696,2.377,2.847,6.871,3.283,9.138c-2.12-0.951-6.383-3.388-8.395-4.923c-0.668,0.18-1.208,0.583-1.72,1.016    c-0.926,0.785-1.727,1.79-2.59,2.521c3.925,2.885,9.281,4.67,13.375,7.63l0.054,0.064c1.666,5.016,3.376,10.216,5.177,14.62    l0.067-0.055c0.281-0.184,0.54-0.401,0.795-0.618c0.99-0.839,2.028-1.882,2.927-2.642c0.287-0.243,0.542-0.46,0.826-0.645    c-3.804-9.687-5.226-20.455-9.333-30.108L95.635,109.445z"/>
		<path style="fill:#000E3F;" d="M119.812,110.749c-2.738-0.952-5.856-0.733-8.451,0.765c-1.048,0.563-2.099,0.974-3.268,0.168    c-0.255-0.279-0.547-0.532-0.67-0.911c-1.498-2.803,3.562-5.131,4.839-2.269c1.911-0.732,3.703-2.261,5.09-3.701l0.032-0.025    c-1.85-3.847-4.85-5.019-7.833-4.538c-2.881,0.615-6.242,2.628-7.764,5.157c-2.996,4.976-0.523,12.634,6.539,13.519    c1.038,0.066,2.105-0.042,3.141-0.546c2.164-1.024,5.05-2.687,6.917-0.728c2.853,2.74-2.123,6.308-4.407,3.565    c-1.494,1.155-3.724,2.437-5.138,3.844l0.074,0.101l0.075,0.101c2.896,4.483,9.048,3.85,13.068,1.039    c2.842-1.941,4.61-5.122,3.646-8.686C125.066,114.479,122.892,111.602,119.812,110.749z"/>
		<path style="fill:#000E3F;" d="M143.387,105.028c-3.162,2.138-6.283,3.709-9.407,5.674l-0.056-0.013    c-0.823-1.068-2.172-2.895-2.791-4.435c0.249-0.702,2.838-1.787,4.047-3.093c-1.129-1.716-1.924-3.446-3.179-4.885l-0.02-0.037    c-1.476,0.881-2.944,1.854-4.431,2.641l-0.06-0.013c-1.122-1.077-1.74-2.767-2.644-4.128l0.013-0.058l0.106-0.067    c2.942-2.25,6.431-3.705,9.024-6.277l-0.02-0.036c-1.05-1.668-1.874-3.526-3.173-5.037c-0.132-0.214-9.232,5.713-14.551,9.458    c4.652,8.414,10.06,16.057,15.237,24.288c4.823-2.492,9.744-6.084,14.59-9.086c-0.501-1.666-1.575-3.367-2.641-4.826    L143.387,105.028z"/>
		<path style="fill:#000E3F;" d="M161.172,95.643c-0.104-0.278-0.262-0.573-0.4-0.832c-1.104,0.783-8.879,4.12-9.679,4.934    l-0.022-0.037c-3.313-6.408-7.544-13.464-10.803-19.948c-1.719,0.165-5.188,2.13-5.964,3.073    c5.739,10.293,8.015,14.068,13.54,25.379l0.359,0.665c11.986-6.224,13.466-7.452,14.56-7.898c1.035-0.558,1.241-0.432-0.854-3.876    C161.656,96.717,161.393,96.143,161.172,95.643z"/>
		<path style="fill:#000E3F;" d="M170.214,66.117c-4.762,0.86-14.623,6.131-17.05,7.778l0.017,0.038    c5.358,11.889,7.42,16.663,11.586,25.914l0.058,0.02c0.527,0.039,4.749-1.911,6.651-2.998c-1.273-2.922-2.734-6.172-3.917-9.503    l0.039-0.018c1.409-0.957,3.19-1.805,4.632-2.778c0.08-0.036,0.102-0.091,0.086-0.129c-1.02-1.748-2.293-5.59-2.942-6.217    c-1.094,0.631-3.277,1.708-4.816,2.172c-0.039,0.017-0.039,0.017-0.093-0.005c-0.821-0.595-1.598-1.81-1.63-3.404    c3.035-1.736,7.267-3.781,9.93-5.213C172.295,70.423,170.817,67.454,170.214,66.117z"/>
		<path style="fill:#000E3F;" d="M186.518,85.151c-1.524,0.59-3.685,0.929-4.74,1.922l0.015,0.039    c0.562,1.446,1.301,4.756,1.651,4.62l2.922-1.173l0.077-0.03c0.584-0.226,0.873-0.293,1.5-0.535l0.273-0.106    C187.627,88.364,187.039,86.613,186.518,85.151z"/>
		<path style="fill:#000E3F;" d="M177.632,62.382c-1.615,0.13-3.458,1.292-4.783,1.938l-0.115,0.046    c2.32,7.282,5.382,13.92,7.922,20.848l0.037-0.015c1.513-0.629,3.662-1.459,4.971-2.145    C182.766,76.488,180.097,69.115,177.632,62.382z"/>
		<path style="fill:#000E3F;" d="M75.438,98.003c-0.344-0.311-0.741-0.801-1.077-1.231c-0.17-0.243-0.397-0.489-0.594-0.705    c-0.873,1.033-7.58,6.188-8.149,7.171l-0.032-0.03c-4.796-5.384-10.637-11.169-15.398-16.64c-1.624,0.586-4.494,3.347-5.015,4.452    c8.104,8.545,11.24,11.637,19.393,21.222l0.51,0.554c10.066-8.992,11.197-10.548,12.143-11.251    C78.083,100.75,78.319,100.819,75.438,98.003z"/>
		<path style="fill:#000E3F;" d="M74.778,94.364c1.051,1.254,2.199,2.432,3.683,3.02c2.17,1.117,4.224,0.129,6.162-1.141    c1.356-0.918,2.553-1.973,3.482-3.297c1.063-1.431,1.876-3.039,1.796-4.69c-0.227-1.908-1.145-3.804-2.27-5.426l-0.761-1.162    c-1.636-2.397-3.46-4.429-5.177-6.866c-0.828-1.11-1.69-2.193-2.648-3.199c-0.646-0.612-1.323-1.198-2.142-1.62    c-0.86-0.549-1.866-0.873-2.935-0.936c-4.07,0.069-8.194,3.234-9.963,6.94c-0.166,0.398-0.24,0.779-0.286,1.19    c-0.123,2.614,1.183,5.002,2.715,6.999C68.938,87.81,71.938,91.052,74.778,94.364z M70.17,77.893    c0.272-1.073,1.023-2.151,2.196-2.493c1.411-0.316,2.86,0.301,3.925,1.437c0.633,0.73,1.593,1.734,1.617,1.769l1.837,2.182    l1.254,1.576c0.078,0.099,0.618,0.847,1.286,1.761c1.347,2.036,1.677,1.775,1.718,3.511c-0.149,2.58-3.067,4.572-5.302,3.509    c-1.574-1.107-2.842-2.775-4.299-4.137c-1.558-1.763-3.011-3.661-3.975-5.624C69.958,80.257,69.883,79.084,70.17,77.893z"/>
		<path style="fill:#000E3F;" d="M98.028,85.148c0.893-0.258,2.054-1.006,3.059-1.695c0.968-0.665,1.701-1.373,2.08-1.635    c-3.297-9.537-6.413-18.287-10.488-27.545c-1.777,0.816-3.396,2.386-5.188,3.109c-0.035,0.024-0.045,0.082-0.02,0.116    c1.656,4.56,4.706,9.586,8.076,18.263c-6.964-6.205-11.395-13.389-12.973-14.948c-0.847,0.327-4.582,2.741-4.671,3.718    l0.022,0.035C84.073,72.098,90.827,79.108,98.028,85.148z"/>
		<path style="fill:#000E3F;" d="M110.621,77.175c0.821-0.901,6-3.052,6.301-4.321c-5.454-7.82-10.179-16.628-15.213-24.806    l-0.087-0.143l-0.86,0.528c-2.119,1.353-3.113,1.818-3.994,2.31c-0.32,0.197-1.28,0.64-1.509,0.83l0.045,0.071    C99.37,60.17,106.002,68.151,110.621,77.175z"/>
		<path style="fill:#000E3F;" d="M117.531,69.154l1.407,2.578c1.143-0.624,2.479-1.067,3.655-1.71    c0.555-0.303,1.048-0.621,1.518-1.07c-0.497-0.826-1.081-1.894-1.706-3.033c-2.254-4.122-4.997-9.408-4.852-9.488    c0.112-0.06,0.597,0.391,1.081,0.843l0.971,0.902c2.851,2.505,6.415,5.002,10.027,7.76c0.994-0.543,2.492-1.124,3.483-1.667    c0.847-0.463,1.024-0.751,1.115-0.848l-0.402-0.736c-0.543-0.994-1.103-1.931-1.645-2.924c-0.744-1.361-1.411-2.669-2.196-4.105    c-1.148-2.097-2.311-4.233-3.476-6.272l-6.476-11.849c-0.78,0.235-1.632,0.603-2.549,1.106c-0.92,0.503-1.766,1.059-2.531,1.668    c0.629,1.235,1.156,2.285,1.719,3.316c0.962,1.766,1.958,3.325,3.024,5.276c0.463,0.846,0.936,1.973,0.848,2.164    c-0.112,0.06-5.773-3.918-6.448-4.457c-2.012-1.576-2.482-1.653-4.165-3.075c-0.124-0.221-2.631,0.96-3.257,1.302    c-0.592,0.323-1.159,0.681-1.578,1.053c1.453,3.268,3.212,6.656,5.06,10.042C112.674,60.532,114.978,64.481,117.531,69.154z"/>
		<path style="fill:#000E3F;" d="M128.631,46.716c1.61,3.826,2.585,5.455,4.369,8.556c0.586,0.977,1.262,1.958,1.679,2.459    c1.602,1.894,3.216,2.908,5.637,2.861c2.91-0.085,5.774-2.084,7.963-3.959c1.611-1.612,2.464-3.477,1.545-6.19    c-0.755-2.971-2.393-6.048-3.936-8.614l-0.054-0.021l-0.077,0.034c-1.031,0.471-6.815,2.33-7.745,3.722    c-0.018,0.056-0.056,0.074-0.056,0.074c-0.039,0.018-0.039,0.018-0.022,0.055l0.017,0.039c0.992,1.666,1.04,2.381,1.982,3.932    c0.583-0.035,2.192-1.047,2.856-1.211c0.354-0.025,0.929,1.833,1.007,2.304c0.138,0.812-0.106,1.385-0.558,1.913    c-0.601,0.597-1.39,1.188-2.205,1.423c-0.376,0.08-0.735,0.105-1.035,0.057c-1.301-0.326-2.187-1.764-2.806-2.817    c-2.049-3.673-4.053-8.469-4.442-11.24c-0.078-0.472-0.113-1.054-0.05-1.221c0.328-0.888,1.238-1.119,2.131-1.481    c1.489-0.679,3.264,1.089,4.038,1.98c1.613-0.506,2.149-0.844,3.634-1.522c0.783-0.404,1.107-0.506,1.152-0.711l-0.069-0.246    c-2.112-6.545-8.205-7.171-13.553-3.852c-1.286,0.818-2.425,1.753-3.052,3.099c-1.018,1.709-0.746,3.612-0.248,5.411    C127.217,43.309,127.923,45.06,128.631,46.716z"/>
	</g>
	<g>
		<g>
			<path style="fill:#00D5FE;" d="M485.811,143.243l-5.737-9.383c-0.366-0.599-1.004-0.979-1.705-1.017l-10.982-0.593     c-1.765-0.095-2.655-2.173-1.506-3.517l7.151-8.356c0.456-0.533,0.621-1.257,0.44-1.935l-2.83-10.628     c-0.455-1.708,1.247-3.197,2.879-2.519l10.157,4.219c0.648,0.269,1.388,0.202,1.977-0.179l9.234-5.975     c1.484-0.96,3.425,0.198,3.285,1.96l-0.874,10.963c-0.056,0.7,0.237,1.382,0.781,1.825l8.536,6.935     c1.372,1.115,0.87,3.319-0.849,3.73l-10.697,2.557c-0.683,0.163-1.241,0.652-1.494,1.307l-3.957,10.261     C488.985,144.547,486.734,144.751,485.811,143.243z"/>
			<path style="fill:#00D5FE;" d="M439.725,466.635l4.031-8.756c0.258-0.559,0.223-1.209-0.091-1.738l-4.928-8.285     c-0.792-1.332,0.287-2.994,1.825-2.812l9.573,1.128c0.611,0.072,1.218-0.161,1.624-0.624l6.356-7.247     c1.022-1.165,2.936-0.652,3.239,0.867l1.885,9.453c0.12,0.603,0.53,1.109,1.095,1.352l8.856,3.806     c1.424,0.612,1.527,2.591,0.176,3.348l-8.408,4.714c-0.537,0.301-0.891,0.847-0.947,1.46l-0.883,9.599     c-0.142,1.543-1.992,2.253-3.13,1.202l-7.082-6.54c-0.452-0.417-1.081-0.586-1.681-0.45l-9.402,2.126     C440.324,469.582,439.077,468.043,439.725,466.635z"/>
			<path style="fill:#00D5FE;" d="M33.4,176.705l-7.108-4.521c-0.454-0.288-1.02-0.335-1.515-0.125l-7.753,3.292     c-1.246,0.529-2.559-0.601-2.22-1.912l2.103-8.157c0.134-0.521,0.004-1.074-0.349-1.48l-5.527-6.356     c-0.888-1.022-0.22-2.619,1.132-2.702l8.407-0.521c0.537-0.033,1.022-0.328,1.299-0.789l4.337-7.221     c0.697-1.161,2.423-1.018,2.92,0.242l3.093,7.835c0.197,0.5,0.628,0.871,1.152,0.992l8.207,1.894     c1.32,0.304,1.717,1.99,0.673,2.852l-6.496,5.363c-0.415,0.342-0.634,0.867-0.587,1.402l0.735,8.391     C36.022,176.532,34.542,177.431,33.4,176.705z"/>
		</g>
		<g>
			<path style="fill:#FD8A02;" d="M4.592,270.32c0,5.519,4.473,9.992,9.992,9.992s9.992-4.474,9.992-9.992     c0-5.518-4.473-9.992-9.992-9.992S4.592,264.801,4.592,270.32z"/>
			<path style="fill:#FD8A02;" d="M436.412,189.352c0,5.519,4.474,9.992,9.992,9.992c5.519,0,9.992-4.474,9.992-9.992     c0-5.518-4.473-9.992-9.992-9.992C440.886,179.36,436.412,183.834,436.412,189.352z"/>
			<path style="fill:#FD8A02;" d="M293.035,9.992c0,5.519,4.474,9.992,9.992,9.992c5.519,0,9.992-4.473,9.992-9.992     S308.546,0,303.027,0C297.509,0,293.035,4.473,293.035,9.992z"/>
			<path style="fill:#FD8A02;" d="M52.262,448.574c0,5.519,4.473,9.992,9.992,9.992c5.518,0,9.992-4.473,9.992-9.992     c0-5.519-4.474-9.992-9.992-9.992C56.736,438.581,52.262,443.055,52.262,448.574z"/>
		</g>
		<g>
			<path style="fill:#322BBF;" d="M468.891,256.834c-0.568-2.159-1.042-3.654-1.349-5.182c-1.02-5.077,0.819-9.135,5.271-11.945     c3.575-2.257,7.588-2.963,11.68-3.44c1.737-0.203,3.512-0.273,5.197-0.695c4.761-1.192,6.794-5.344,4.925-9.904     c-0.898-2.191-2.39-4.012-3.89-5.815c-1.939-2.332-1.602-2.985-0.768-4.118c0.998-1.354,2.902-1.415,4.715,0.031     c4.071,3.245,7.332,7.177,7.429,12.645c0.145,8.103-5.381,14.016-13.642,14.73c-3.333,0.288-6.604,0.706-9.744,1.812     c-3.772,1.328-4.532,2.77-3.624,6.683c0.441,1.897,1.134,3.734,1.632,5.62c0.863,3.276,1.026,6.597-0.251,9.779     c-1.931,4.81-5.636,7.432-10.78,7.698c-3.542,0.183-6.986,0.714-10.353,1.759c-3.923,1.218-4.65,2.555-3.206,6.513     c0.932,2.554,2.17,5.007,3.406,7.436c0.761,1.495,0.911,2.944,0.424,4.509c-0.522,1.675-2.201,2.403-3.7,1.594     c-1.224-0.661-2.332-1.511-3.011-2.714c-1.917-3.392-3.932-6.768-4.811-10.615c-1.473-6.447,1.108-11.057,7.264-13.39     c3.313-1.256,6.755-1.846,10.241-2.271c0.578-0.07,1.173,0.009,1.754-0.039c5.976-0.491,7.401-2.563,5.856-8.525     C469.31,258.047,468.981,257.125,468.891,256.834z"/>
			<path style="fill:#322BBF;" d="M66.677,261.296c-2.014-0.963-3.461-1.568-4.825-2.322c-4.532-2.505-6.438-6.532-5.703-11.745     c0.59-4.187,2.647-7.704,4.929-11.134c0.969-1.456,2.063-2.855,2.831-4.413c2.17-4.403,0.317-8.638-4.369-10.161     c-2.253-0.732-4.606-0.771-6.952-0.793c-3.033-0.028-3.313-0.708-3.637-2.077c-0.388-1.636,0.797-3.128,3.073-3.576     c5.107-1.007,10.216-0.951,14.45,2.51c6.274,5.129,7.211,13.168,2.414,19.931c-1.935,2.728-3.732,5.494-4.92,8.605     c-1.427,3.736-0.818,5.248,2.754,7.086c1.732,0.89,3.582,1.549,5.342,2.389c3.057,1.46,5.695,3.483,7.297,6.516     c2.421,4.583,2.024,9.105-1.099,13.2c-2.151,2.82-3.973,5.79-5.353,9.035c-1.608,3.781-1.058,5.199,2.894,6.657     c2.551,0.941,5.222,1.583,7.874,2.21c1.632,0.387,2.835,1.209,3.714,2.593c0.94,1.481,0.41,3.233-1.177,3.853     c-1.296,0.507-2.661,0.801-4.017,0.542c-3.827-0.732-7.705-1.378-11.208-3.195c-5.87-3.045-7.717-7.996-5.516-14.199     c1.185-3.339,2.96-6.346,4.89-9.281c0.32-0.486,0.765-0.889,1.105-1.363c3.49-4.876,2.832-7.303-2.716-9.98     C67.873,261.76,66.958,261.415,66.677,261.296z"/>
			<path style="fill:#322BBF;" d="M256.104,49.373c1.713-1.431,2.865-2.495,4.118-3.422c4.163-3.079,8.618-3.138,13.053-0.3     c3.561,2.278,5.905,5.612,8.074,9.114c0.921,1.487,1.739,3.064,2.836,4.41c3.101,3.804,7.723,3.882,11.058,0.254     c1.603-1.744,2.617-3.868,3.612-5.991c1.288-2.746,2.022-2.718,3.402-2.444c1.649,0.328,2.513,2.026,1.974,4.282     c-1.209,5.063-3.385,9.685-8.294,12.096c-7.274,3.571-14.974,1.08-19.129-6.097c-1.676-2.894-3.444-5.679-5.778-8.053     c-2.804-2.851-4.433-2.927-7.589-0.443c-1.53,1.205-2.899,2.612-4.395,3.863c-2.6,2.173-5.537,3.73-8.961,3.925     c-5.175,0.295-9.122-1.946-11.547-6.49c-1.669-3.129-3.612-6.022-5.989-8.627c-2.769-3.034-4.287-3.125-7.258-0.137     c-1.917,1.928-3.611,4.09-5.286,6.241c-1.03,1.324-2.278,2.075-3.902,2.298c-1.739,0.239-3.11-0.972-3.015-2.673     c0.079-1.389,0.378-2.753,1.178-3.878c2.257-3.176,4.458-6.434,7.568-8.863c5.211-4.071,10.481-3.692,15.207,0.891     c2.544,2.466,4.54,5.332,6.406,8.308c0.309,0.493,0.49,1.065,0.78,1.572c2.983,5.202,5.463,5.613,10.205,1.682     C255.184,50.268,255.879,49.579,256.104,49.373z"/>
		</g>
	</g>
</g>















</svg>
