<?xml version="1.0" encoding="UTF-8"?>
<!-- Generator: Adobe Illustrator 25.2.3, SVG Export Plug-In . SVG Version: 6.00 Build 0)  -->
<svg xmlns="http://www.w3.org/2000/svg" xmlns:xlink="http://www.w3.org/1999/xlink" version="1.1" id="Capa_1" x="0px" y="0px" viewBox="0 0 512 512" style="enable-background:new 0 0 512 512;" xml:space="preserve" width="512" height="512">
<g>
	<polygon style="fill:#FFDEC7;" points="134.813,259.956 112.676,416.606 257.247,418.621 353.516,383.398 369.614,262.312    312.597,189.852  "/>
	<path style="fill:#FFC524;" d="M417.248,289.476l-26.169,28.848c0,0-34.884,156.31-103.308,184.487   c-68.428,28.177-49.646-17.442-49.646-17.442s-50.314,15.426-127.465,0.668l-6.035-89.893l153.626,6.035   c0,0,48.306-65.072,83.858-28.173l16.098-77.151c0,0-54.338-10.731-43.599-83.187c0,0-177.111,33.541-236.82,110.023   c0,0-10.438-44.409,23.457-91.431c-25.493,12.079-55.982,30.058-69.744,51.844c0,0-16.798-92.814,48.46-146.834   c-15.644,5.771-33.572,15.106-50.389,30.107c0,0,14.671-182.475,228.01-166.372C470.918,17.105,417.248,289.476,417.248,289.476z"/>
	<path style="fill:#FFDEC7;" d="M375.321,354.675c0,0,5.941-14.806-3.019-29.983c0,0,54.67-100.624,96.936-77.483   C511.501,270.359,444.753,387.002,375.321,354.675z"/>
	<g>
		<path style="fill:#FFDEC7;" d="M201.23,309.602l1.676,101.976l66.748-8.727c0,0-14.418-45.619-41.591-8.719L201.23,309.602z"/>
		<path style="fill:#091438;" d="M201.23,309.602l1.676,101.976l66.748-8.727c0,0-14.418-45.619-41.591-8.719    c0,0,24.825-25.94,37.568,7.158l-60.156,6.486C205.475,407.776,210.842,337.332,201.23,309.602z"/>
	</g>
	<path style="fill:#FFFFFF;" d="M288.657,342.099c0,6.948-14.561,12.576-32.525,12.576c-17.96,0-32.517-5.628-32.517-12.576   c0-6.944,14.557-12.573,32.517-12.573C274.096,329.526,288.657,335.155,288.657,342.099z"/>
	<path style="fill:#FFFFFF;" d="M196.123,345.66c0,6.956-11.545,12.581-25.79,12.581c-14.244,0-25.79-5.624-25.79-12.581   c0-6.945,11.545-12.573,25.79-12.573C184.578,333.087,196.123,338.715,196.123,345.66z"/>
	<path style="fill:#091438;" d="M273.685,342.636c0,3.806-3.379,6.881-7.553,6.881c-4.166,0-7.545-3.075-7.545-6.881   c0-3.783,3.379-6.865,7.545-6.865C270.306,335.771,273.685,338.854,273.685,342.636z"/>
	<path style="fill:#091438;" d="M189.827,345.66c0,3.806-3.383,6.881-7.549,6.881c-4.17,0-7.549-3.075-7.549-6.881   c0-3.791,3.38-6.878,7.549-6.878C186.444,338.783,189.827,341.869,189.827,345.66z"/>
	
		<rect x="143.926" y="309.773" transform="matrix(0.9754 -0.2203 0.2203 0.9754 -65.27 44.9776)" style="fill:#FFC524;" width="50.206" height="10.729"/>
	
		<rect x="253.329" y="264.118" transform="matrix(0.2311 -0.9729 0.9729 0.2311 -88.0164 478.4552)" style="fill:#FFC524;" width="10.733" height="61.589"/>
	<g>
		<path style="fill:#FFFFFF;" d="M269.128,418.104c10.01-3.548,17.822-11.176,17.675-22.343    c11.953,6.974,17.203,14.845,23.583,26.667c3.419,12.819,6.314,33.469-8.43,40.346L269.128,418.104z"/>
		<path style="fill:#091438;" d="M312.553,426.463c1.043,3.913,1.695,8.233,1.81,13.008c0.81,33.413-28.378,23.362-28.378,23.362    s27.007,7.261,25.947-23.125c-1.055-30.374-24.513-42.109-24.513-42.109c-0.897,26.635-36.149,23.426-36.149,23.426    s33.062,0.411,35.026-26.434C286.298,394.591,306.328,403.013,312.553,426.463"/>
		<polyline style="fill:#091438;" points="304.802,412.289 294.704,431.815 306.423,415.08 305.131,412.191   "/>
		<path style="fill:#091438;" d="M282.839,398.575c0,0,3.581-4.162,11.458-3.862c0,0-7.964-3.016-12.249,1.095L282.839,398.575z"/>
	</g>
	<path style="fill:#091438;" d="M460.519,292.405c0,0-17.912-9.779-43.057,3.099c-25.149,12.881-36.501,53.041,0.431,44.82   c36.931-8.205,18.877-23.706,5.158-21.829l20.845-7.826l-30.54,8.972c0,0,28.888,3.996,19.924,12.118   c-8.96,8.114-40.501,13.062-34.074-9.091C410.517,283.674,460.519,292.405,460.519,292.405z"/>
	<g style="opacity:0.2;">
		<path style="fill:#FFFFFF;" d="M324.596,167.311c-94.749-17.003-224.907-5.384-279.676,86.388    c53.222-94.28,184.837-109.031,281.162-94.3L324.596,167.311z"/>
		<path style="fill:#FFFFFF;" d="M265.891,193.87c-67.19-4.662-149.762,24.657-174.013,93.927    c22.211-71.628,105.905-104.171,174.495-101.962L265.891,193.87z"/>
		<path style="fill:#FFFFFF;" d="M387.518,136.518c-98.817-64.547-251.194-106.591-338.575-0.255    c86.17-109.379,241.863-69.552,343.025-6.453L387.518,136.518z"/>
		<path style="fill:#FFFFFF;" d="M340.919,94.026C264.28,33.463,158.391,13.039,82.484,87.548    c75.14-77.958,184.219-59.078,263.503,0.226L340.919,94.026z"/>
		<path style="fill:#FFFFFF;" d="M341.256,210.181c-10.366,29.009-6.423,65.565,24.75,79.295    c-33.799-11.545-40.737-50.777-32.425-81.718L341.256,210.181z"/>
		<path style="fill:#FFFFFF;" d="M353.401,219.896c-11.907,27.027,9.422,55.111,32.315,67.9    c-26.506-11.452-50.292-40.894-39.761-70.959L353.401,219.896z"/>
	</g>
</g>















</svg>
