<?xml version="1.0" encoding="UTF-8"?>
<!-- Generator: Adobe Illustrator 25.4.1, SVG Export Plug-In . SVG Version: 6.00 Build 0)  -->
<svg xmlns="http://www.w3.org/2000/svg" xmlns:xlink="http://www.w3.org/1999/xlink" version="1.1" id="Capa_1" x="0px" y="0px" viewBox="0 0 512 512" style="enable-background:new 0 0 512 512;" xml:space="preserve" width="512" height="512">
<g>
	<g>
		<g>
			<g>
				<path style="fill:#322BBF;" d="M376.01,452.549c-36.921,24.25-111.579,24.604-155.121,22.556      c-33.411-1.586-68.345-3.572-97.245-22.556c-10.131-6.652-17.475-15.582-21.909-25.913c-3.788-8.838-5.466-18.707-4.927-29.084      c1.801-35.227,31.902-49.315,39.353-83.865c2.525-11.671,3.988-23.511,16.398-28.638c63.711-26.343,129.054-27.067,194.536,0      c1.663,0.677,3.126,1.493,4.419,2.402c8.406,5.881,9.792,16.12,11.979,26.236c7.452,34.55,37.552,48.638,39.353,83.865      C404.001,420.062,394.809,440.201,376.01,452.549z"/>
				<g>
					<path style="fill:#6280FF;" d="M390.272,403.473l-0.127-0.163c-1.992-2.55-4.214-4.82-6.168-7.314       c-1.896-2.54-3.982-4.9-5.671-7.554l-2.66-3.868l-2.402-4.022c-0.848-1.31-1.558-2.697-2.272-4.081       c-0.689-1.396-1.519-2.723-2.089-4.174l-1.941-4.246l-1.664-4.362c-1.08-2.92-2-5.903-2.817-8.919       c-1.608-6.008-2.74-12.319-3.154-18.475l-0.011-0.169c-0.052-0.779-0.628-1.453-1.431-1.596       c-0.947-0.17-1.852,0.461-2.021,1.408c-1.221,6.82-0.862,13.54,0.283,20.208c1.168,6.642,3.175,13.17,6.075,19.285       c2.989,6.05,6.419,11.945,10.857,17.022c2.025,2.691,4.545,4.947,6.879,7.329c2.448,2.274,5.122,4.299,7.755,6.304       c0.653,0.497,1.584,0.515,2.261-0.014C390.758,405.441,390.901,404.278,390.272,403.473z"/>
					<path style="fill:#6280FF;" d="M352.932,387.27c-2.193-1.768-4.091-3.568-5.762-5.555c-1.664-1.984-3.059-4.145-4.237-6.417       c-1.162-2.28-2.1-4.681-2.741-7.199c-0.638-2.525-0.989-5.132-1.132-7.963l-0.004-0.075c-0.033-0.614-0.38-1.195-0.965-1.499       c-0.879-0.456-1.962-0.114-2.419,0.766c-1.519,2.926-2.082,6.334-1.901,9.665c0.176,3.342,1.067,6.652,2.581,9.646       c1.502,3.001,3.637,5.686,6.222,7.82c2.574,2.131,5.658,3.708,8.925,4.227c0.651,0.101,1.339-0.137,1.782-0.686       c0.66-0.819,0.531-2.019-0.288-2.679L352.932,387.27z"/>
					<path style="fill:#6280FF;" d="M142.211,334.505c-0.96-0.065-1.79,0.661-1.855,1.621l-0.011,0.167       c-0.414,6.155-1.546,12.467-3.154,18.475c-0.817,3.016-1.736,5.999-2.817,8.919l-1.665,4.362l-1.94,4.246       c-0.569,1.451-1.4,2.778-2.089,4.174c-0.714,1.384-1.424,2.771-2.272,4.081l-2.402,4.022l-2.66,3.868       c-1.689,2.654-3.775,5.014-5.671,7.554c-1.954,2.494-4.176,4.764-6.168,7.314l-0.129,0.164       c-0.505,0.647-0.533,1.576-0.012,2.26c0.619,0.813,1.781,0.97,2.594,0.351c2.633-2.005,5.306-4.03,7.755-6.304       c2.334-2.383,4.854-4.638,6.879-7.329c4.437-5.077,7.867-10.972,10.857-17.022c2.9-6.115,4.907-12.643,6.075-19.285       c1.145-6.667,1.504-13.388,0.283-20.208C143.672,335.168,143.026,334.56,142.211,334.505z"/>
					<path style="fill:#6280FF;" d="M162.477,358.362c-0.99-0.05-1.832,0.712-1.882,1.701l-0.004,0.072       c-0.143,2.831-0.493,5.438-1.132,7.963c-0.642,2.518-1.579,4.919-2.741,7.199c-1.177,2.272-2.573,4.433-4.237,6.417       c-1.67,1.986-3.568,3.787-5.762,5.555l-0.065,0.052c-0.512,0.414-0.794,1.083-0.684,1.78c0.165,1.039,1.141,1.748,2.18,1.583       c3.267-0.519,6.351-2.096,8.925-4.227c2.585-2.133,4.721-4.819,6.222-7.82c1.514-2.994,2.406-6.304,2.581-9.646       c0.181-3.331-0.382-6.739-1.902-9.665C163.694,358.782,163.135,358.395,162.477,358.362z"/>
				</g>
				<path style="opacity:0.25;fill:#000E3F;" d="M376.01,452.549c-36.921,24.25-111.579,24.604-155.121,22.556      c-33.411-1.586-68.345-3.572-97.245-22.556c-10.131-6.652-17.475-15.582-21.909-25.913c5.42-2.448,11.163-4.681,17.182-6.698      c75.598-25.112,220.935,11.635,232.597-132.488c8.406,5.881,9.792,16.12,11.979,26.236c7.452,34.55,37.552,48.638,39.353,83.865      C404.001,420.062,394.809,440.201,376.01,452.549z"/>
			</g>
			<path style="fill:#000E3F;" d="M253.756,477.758c-10.223,0-21.185-0.257-32.954-0.81c-32.019-1.519-68.309-3.241-98.171-22.856     c-10.274-6.745-17.875-15.737-22.592-26.727c-3.921-9.155-5.63-19.218-5.075-29.908c0.998-19.49,10.602-32.945,19.89-45.957     c7.936-11.117,16.141-22.613,19.504-38.201c0.205-0.951,0.406-1.903,0.602-2.852c2.262-10.827,4.599-22.023,16.896-27.103     c64.999-26.877,130.925-26.877,195.945,0c1.701,0.694,3.31,1.57,4.776,2.598c8.21,5.744,10.198,15.283,12.121,24.509     c0.196,0.948,0.395,1.898,0.6,2.847c3.363,15.589,11.567,27.085,19.504,38.202c9.288,13.012,18.891,26.467,19.89,45.958     c1.213,23.646-8.872,44.288-27.667,56.634l0,0C359.907,465.334,324.88,477.758,253.756,477.758z M249.817,266.888     c-32.262,0-64.521,6.622-96.553,19.867c-10.493,4.335-12.533,14.104-14.692,24.446c-0.2,0.958-0.4,1.918-0.607,2.877     c-3.523,16.332-11.953,28.144-20.107,39.565c-9.392,13.16-18.266,25.589-19.206,44.004c-0.526,10.123,1.081,19.632,4.779,28.264     c4.428,10.311,11.569,18.756,21.226,25.096c29.019,19.062,64.773,20.758,96.32,22.254c41.869,1.973,117.556,1.699,154.02-22.254     c17.671-11.607,27.15-31.056,26.005-53.36c-0.941-18.414-9.814-30.844-19.206-44.004c-8.154-11.421-16.584-23.233-20.107-39.566     c-0.207-0.958-0.407-1.917-0.606-2.874c-1.858-8.913-3.613-17.332-10.627-22.239c-1.24-0.871-2.604-1.613-4.058-2.206     C314.352,273.512,282.081,266.888,249.817,266.888z M376.01,452.549h0.018H376.01z"/>
		</g>
		<g>
			<g>
				<path style="fill:#00D5FE;" d="M249.757,510.155c-22.528,0-45.909-1.387-73.582-4.365      c-28.901-3.099-50.387-11.517-62.133-24.346c-7.682-8.394-10.924-18.509-9.378-29.254c2.555-17.767,17.567-35.782,42.269-50.723      c13.224-7.992,27.919-14.362,43.676-18.932c18.891-5.474,38.786-8.249,59.133-8.249c20.356,0,40.272,2.775,59.198,8.249      c15.786,4.546,30.518,10.915,43.787,18.931c2.8,1.697,5.491,3.443,7.999,5.193c25.898,17.985,38.46,40.083,33.598,59.112      c-5.413,21.189-31.233,35.775-70.841,40.018C295.773,508.768,272.346,510.155,249.757,510.155z"/>
				<g style="opacity:0.75;">
					<path style="fill:#FFFFFF;" d="M384.894,440.235c-0.516,2.277,0.085,15.51,5.617,20.869c0.809,0.784,1.665,1.364,2.536,1.797       c1.269-7.319-0.044-15.109-3.833-22.963c-0.326-0.144-0.627-0.292-0.965-0.435       C386.794,438.887,385.276,438.545,384.894,440.235z"/>
					<path style="fill:#FFFFFF;" d="M379.402,425.444c-4.309,1.355-13.358,5.502-16.197,11.245       c-3.503,7.087,2.526,13.864,9.076,11.94c6.968-2.047,9.684-11.307,10.61-18.914       C381.811,428.286,380.644,426.863,379.402,425.444z"/>
					<path style="fill:#FFFFFF;" d="M363.205,475.539c-3.503,7.087,2.526,13.864,9.076,11.941       c7.52-2.21,10.092-12.826,10.802-20.692c0.142-1.573,0.004-3.123-1.722-2.971C379.035,464.021,366.618,468.635,363.205,475.539       z"/>
					<path style="fill:#FFFFFF;" d="M320.742,397.838c-3.503,7.087,2.526,13.864,9.076,11.94c5.348-1.571,8.186-7.395,9.639-13.457       c-3.858-1.913-7.802-3.692-11.823-5.335C324.728,392.849,322.061,395.17,320.742,397.838z"/>
					<path style="fill:#FFFFFF;" d="M320.742,436.689c-3.503,7.087,2.526,13.864,9.076,11.94c7.52-2.21,10.092-12.826,10.801-20.692       c0.142-1.573,0.004-3.123-1.722-2.971C336.572,425.17,324.155,429.784,320.742,436.689z"/>
					<path style="fill:#FFFFFF;" d="M345.786,400.652c-1.454-0.615-2.973-0.957-3.355,0.732c-0.516,2.278,0.085,15.51,5.617,20.869       C358.142,432.031,375.106,413.061,345.786,400.652z"/>
					<path style="fill:#FFFFFF;" d="M345.786,478.353c-1.454-0.615-2.973-0.957-3.355,0.732c-0.505,2.233,0.074,14.971,5.307,20.522       c5.276-1.383,10.077-2.997,14.421-4.808C362.211,489.894,358.068,483.551,345.786,478.353z"/>
					<path style="fill:#FFFFFF;" d="M338.898,463.817c-2.326,0.204-14.743,4.818-18.156,11.722       c-3.503,7.087,2.526,13.864,9.076,11.941c7.52-2.21,10.092-12.826,10.801-20.692       C340.761,465.215,340.623,463.665,338.898,463.817z"/>
					<path style="fill:#FFFFFF;" d="M345.786,439.503c-1.454-0.616-2.973-0.958-3.355,0.732c-0.516,2.277,0.085,15.51,5.617,20.869       C358.142,470.881,375.106,451.911,345.786,439.503z"/>
					<path style="fill:#FFFFFF;" d="M299.967,401.384c-0.516,2.278,0.085,15.51,5.617,20.869       c10.095,9.778,27.058-9.192-2.262-21.601C301.868,400.037,300.35,399.695,299.967,401.384z"/>
					<path style="fill:#FFFFFF;" d="M287.355,409.778c7.521-2.21,10.092-12.825,10.802-20.692c0.142-1.572,0.004-3.123-1.722-2.971       c-2.326,0.205-14.742,4.819-18.155,11.723C274.776,404.926,280.805,411.703,287.355,409.778z"/>
					<path style="fill:#FFFFFF;" d="M278.279,436.689c-3.503,7.087,2.526,13.864,9.076,11.94       c7.521-2.21,10.092-12.826,10.802-20.692c0.142-1.573,0.004-3.123-1.722-2.971C294.108,425.17,281.692,429.784,278.279,436.689       z"/>
					<path style="fill:#FFFFFF;" d="M278.279,475.539c-3.503,7.087,2.526,13.864,9.076,11.941       c7.521-2.21,10.092-12.826,10.802-20.692c0.142-1.573,0.004-3.123-1.722-2.971       C294.108,464.021,281.692,468.635,278.279,475.539z"/>
					<path style="fill:#FFFFFF;" d="M303.322,439.503c-1.454-0.616-2.973-0.958-3.355,0.732c-0.516,2.277,0.085,15.51,5.617,20.869       C315.679,470.881,332.643,451.911,303.322,439.503z"/>
					<path style="fill:#FFFFFF;" d="M303.322,478.353c-1.454-0.615-2.973-0.957-3.355,0.732c-0.516,2.278,0.085,15.51,5.617,20.869       C315.679,509.732,332.643,490.762,303.322,478.353z"/>
					<path style="fill:#FFFFFF;" d="M263.122,383.402c5.965,5.778,14.322,1.516,14.117-5.496       c-5.983-0.765-12.012-1.283-18.062-1.545C260.064,379.107,261.331,381.668,263.122,383.402z"/>
					<path style="fill:#FFFFFF;" d="M257.504,401.384c-0.516,2.278,0.085,15.51,5.617,20.869       c10.095,9.778,27.059-9.192-2.262-21.601C259.406,400.037,257.887,399.695,257.504,401.384z"/>
					<path style="fill:#FFFFFF;" d="M244.892,409.778c7.52-2.21,10.092-12.825,10.801-20.692c0.142-1.572,0.004-3.123-1.722-2.971       c-2.326,0.205-14.743,4.819-18.155,11.723C232.313,404.926,238.342,411.703,244.892,409.778z"/>
					<path style="fill:#FFFFFF;" d="M235.816,436.689c-3.503,7.087,2.526,13.864,9.076,11.94c7.52-2.21,10.092-12.826,10.801-20.692       c0.142-1.573,0.004-3.123-1.722-2.971C251.645,425.17,239.229,429.784,235.816,436.689z"/>
					<path style="fill:#FFFFFF;" d="M235.816,475.539c-3.503,7.087,2.526,13.864,9.076,11.941       c7.52-2.21,10.092-12.826,10.801-20.692c0.142-1.573,0.004-3.123-1.722-2.971C251.645,464.021,239.229,468.635,235.816,475.539       z"/>
					<path style="fill:#FFFFFF;" d="M260.86,439.503c-1.454-0.616-2.973-0.958-3.355,0.732c-0.516,2.277,0.085,15.51,5.617,20.869       C273.216,470.881,290.18,451.911,260.86,439.503z"/>
					<path style="fill:#FFFFFF;" d="M253.972,502.667c-1.537,0.135-7.476,2.205-12.316,5.581c4.58,0.066,9.149,0.075,13.733,0.029       c0.124-0.902,0.228-1.789,0.304-2.64C255.836,504.066,255.697,502.515,253.972,502.667z"/>
					<path style="fill:#FFFFFF;" d="M260.86,478.353c-1.454-0.615-2.973-0.957-3.355,0.732c-0.516,2.278,0.085,15.51,5.617,20.869       C273.216,509.732,290.18,490.762,260.86,478.353z"/>
					<path style="fill:#FFFFFF;" d="M234.658,376.661c-5.737,0.399-11.448,1.05-17.118,1.906c0.804,1.88,1.821,3.578,3.119,4.835       C226.969,389.515,235.965,384.392,234.658,376.661z"/>
					<path style="fill:#FFFFFF;" d="M215.041,401.384c-0.516,2.278,0.085,15.51,5.617,20.869       c10.095,9.778,27.059-9.192-2.262-21.601C216.942,400.037,215.424,399.695,215.041,401.384z"/>
					<path style="fill:#FFFFFF;" d="M202.429,409.778c7.521-2.21,10.092-12.825,10.802-20.692c0.142-1.572,0.004-3.123-1.722-2.971       c-2.326,0.205-14.743,4.819-18.156,11.723C189.85,404.926,195.879,411.703,202.429,409.778z"/>
					<path style="fill:#FFFFFF;" d="M193.353,436.689c-3.503,7.087,2.526,13.864,9.076,11.94       c7.521-2.21,10.092-12.826,10.802-20.692c0.142-1.573,0.004-3.123-1.722-2.971C209.182,425.17,196.766,429.784,193.353,436.689       z"/>
					<path style="fill:#FFFFFF;" d="M193.353,475.539c-3.503,7.087,2.526,13.864,9.076,11.941       c7.521-2.21,10.092-12.826,10.802-20.692c0.142-1.573,0.004-3.123-1.722-2.971       C209.182,464.021,196.766,468.635,193.353,475.539z"/>
					<path style="fill:#FFFFFF;" d="M218.396,439.503c-1.454-0.616-2.973-0.958-3.355,0.732c-0.516,2.277,0.085,15.51,5.617,20.869       C230.754,470.881,247.717,451.911,218.396,439.503z"/>
					<path style="fill:#FFFFFF;" d="M211.509,502.667c-1.227,0.108-5.262,1.453-9.302,3.703c3.671,0.286,7.291,0.54,10.869,0.763       c0.059-0.507,0.111-1.007,0.154-1.495C213.373,504.066,213.235,502.515,211.509,502.667z"/>
					<path style="fill:#FFFFFF;" d="M218.396,478.353c-1.454-0.615-2.973-0.957-3.355,0.732c-0.516,2.278,0.085,15.51,5.617,20.869       C230.754,509.732,247.717,490.762,218.396,478.353z"/>
					<path style="fill:#FFFFFF;" d="M159.966,409.778c6.741-1.98,9.5-10.71,10.511-18.165c-7.119,2.99-14.007,6.417-20.606,10.282       C149.775,407.241,154.697,411.326,159.966,409.778z"/>
					<path style="fill:#FFFFFF;" d="M150.89,436.689c-3.503,7.087,2.526,13.864,9.076,11.94c7.521-2.21,10.092-12.826,10.801-20.692       c0.142-1.573,0.004-3.123-1.722-2.971C166.72,425.17,154.303,429.784,150.89,436.689z"/>
					<path style="fill:#FFFFFF;" d="M175.933,400.652c-1.454-0.615-2.973-0.957-3.355,0.732c-0.516,2.278,0.085,15.51,5.617,20.869       C188.29,432.031,205.254,413.061,175.933,400.652z"/>
					<path style="fill:#FFFFFF;" d="M150.89,475.539c-3.503,7.087,2.526,13.864,9.076,11.941       c7.521-2.21,10.092-12.826,10.801-20.692c0.142-1.573,0.004-3.123-1.722-2.971C166.72,464.021,154.303,468.635,150.89,475.539z       "/>
					<path style="fill:#FFFFFF;" d="M175.933,439.503c-1.454-0.616-2.973-0.958-3.355,0.732c-0.516,2.277,0.085,15.51,5.617,20.869       C188.29,470.881,205.254,451.911,175.933,439.503z"/>
					<path style="fill:#FFFFFF;" d="M175.933,478.353c-1.454-0.615-2.973-0.957-3.355,0.732c-0.516,2.278,0.085,15.51,5.617,20.869       C188.29,509.732,205.254,490.762,175.933,478.353z"/>
					<path style="fill:#FFFFFF;" d="M143.092,406.084c-4.18,2.745-8.024,5.568-11.511,8.448c0.892,2.998,2.214,5.844,4.151,7.72       C144.431,430.679,158.203,417.759,143.092,406.084z"/>
					<path style="fill:#FFFFFF;" d="M117.503,448.629c7.52-2.21,10.092-12.826,10.802-20.692c0.142-1.573,0.004-3.123-1.722-2.971       c-1.172,0.103-4.903,1.327-8.755,3.397c-4.338,5.466-7.498,10.998-9.425,16.459       C110.092,447.924,113.703,449.746,117.503,448.629z"/>
					<path style="fill:#FFFFFF;" d="M133.47,478.353c-1.454-0.615-2.972-0.957-3.355,0.732c-0.331,1.463-0.193,7.443,1.408,12.956       c4.989,2.554,10.756,4.792,17.261,6.68C151.657,493.769,149.404,485.096,133.47,478.353z"/>
					<path style="fill:#FFFFFF;" d="M121.168,485.472c4.736-4.019,6.558-12.265,7.137-18.684c0.142-1.573,0.004-3.123-1.722-2.971       c-2.022,0.177-11.668,3.691-16.396,9.145c1.385,2.508,3.107,4.932,5.217,7.237       C117.084,482.034,119.023,483.789,121.168,485.472z"/>
					<path style="fill:#FFFFFF;" d="M133.47,439.503c-1.454-0.616-2.972-0.958-3.355,0.732c-0.516,2.277,0.085,15.51,5.617,20.869       C145.827,470.881,162.791,451.911,133.47,439.503z"/>
				</g>
				<path style="opacity:0.25;fill:#322BBF;" d="M323.288,503.956c-54.458,5.851-93.396,5.759-146.915,0      c-30.162-3.233-50.254-12.056-60.97-23.757c19.199-17.645,61.186-10.854,83.757-9.607c39.122,2.171,87.022,3.572,124.066-11.255      c25.758-10.3,29.038-27.729,36.444-51.163C412.927,445.156,405.198,495.18,323.288,503.956z"/>
			</g>
			<path style="fill:#000E3F;" d="M249.742,376.133c19.955,0,39.878,2.736,58.688,8.176c15.396,4.434,30.039,10.701,43.341,18.737     c2.771,1.679,5.404,3.388,7.898,5.127c53.257,36.983,45.528,87.007-36.382,95.782c-27.119,2.914-50.393,4.354-73.532,4.354     c-23.326,0-46.516-1.463-73.383-4.354c-30.162-3.233-50.254-12.056-60.97-23.757c-19.738-21.57-7.529-52.948,32.487-77.152     c13.349-8.067,27.945-14.303,43.234-18.737C209.973,378.848,229.874,376.134,249.742,376.133 M249.747,372.443v3.691     l-0.002-3.691c-20.525,0-40.593,2.8-59.649,8.321c-15.912,4.615-30.754,11.049-44.116,19.124     c-25.186,15.234-40.508,33.715-43.144,52.04c-1.627,11.31,1.777,21.947,9.843,30.762c12.057,13.166,33.946,21.788,63.3,24.935     c27.737,2.985,51.181,4.375,73.776,4.375c22.656,0,46.147-1.39,73.926-4.375c40.415-4.33,66.815-19.418,72.43-41.396     c5.135-20.102-7.38-42.367-34.337-61.087c-2.538-1.77-5.262-3.539-8.091-5.253c-13.411-8.102-28.292-14.537-44.232-19.127     C290.361,375.242,270.273,372.443,249.747,372.443L249.747,372.443z"/>
		</g>
		<g>
			<g>
				<path style="fill:#DB5E43;" d="M289.829,410.409c-6.728,17.583-25.019,29.562-43.896,28.037      c-35.274-2.848-44.835-40.585-38.045-71.378c3.664-16.675,12.148-31.316,23.926-37.291      c31.409-15.905,52.841,10.254,59.461,39.708C294.494,383.849,294.202,398.984,289.829,410.409z"/>
				<path style="opacity:0.25;fill:#000E3F;" d="M291.276,369.484c-0.416,1.555-0.331,2.816-0.886,4.263      c-6.728,17.584-25.581,29.78-44.457,28.255c-21.632-1.755-34.795-16.012-39.244-34.333      c3.664-16.675,13.347-31.918,25.125-37.893C263.224,313.872,284.655,340.031,291.276,369.484z"/>
			</g>
			<path style="fill:#000E3F;" d="M249.137,440.42c-1.115,0-2.233-0.044-3.352-0.135c-12.87-1.039-23.524-6.798-30.812-16.656     c-10.19-13.784-13.595-35.61-8.888-56.959c4.012-18.261,13.319-32.669,24.894-38.54c11.906-6.029,23.108-6.651,33.302-1.847     c13.429,6.33,24.194,22.329,28.795,42.796c3.413,15.238,2.856,30.542-1.525,41.989l0,0     C284.881,428.502,267.4,440.42,249.137,440.42z M250.17,326.799c-5.579,0-11.436,1.543-17.521,4.624     c-10.598,5.375-19.181,18.849-22.958,36.04c-4.485,20.34-1.323,41.02,8.252,53.972c6.729,9.102,16.197,14.207,28.139,15.172     c17.849,1.448,35.519-9.853,42.026-26.857l0,0c4.127-10.786,4.626-25.316,1.37-39.862c-4.354-19.364-14.361-34.417-26.77-40.266     C258.714,327.739,254.527,326.799,250.17,326.799z M289.83,410.409h0.018H289.83z"/>
		</g>
		<g>
			<g>
				<path style="fill:#DB5E43;" d="M363.885,241.448c-3.396,0.779-6.607,2.145-9.555,3.949      c-4.108-22.822-10.691-38.621-13.184-46.091c-0.304-0.911-0.845-1.451-1.75-1.732c-49.797-15.457-80.359-14.246-83.846-14.821      c-7.981-1.316-57.027,1.797-95.009,14.727c-2.181,0.742-1.738,1.542-4.431,8.733c-4.511,12.046-8.244,25.443-10.731,39.221      c-2.964-1.821-6.193-3.202-9.611-3.986c-25.299-5.802-36.494,23.401-13.783,44.271c7.198,6.614,16.105,9.565,20.821,9.54      c0.387,3.912,0.922,7.764,1.648,11.519c5.333,27.602,19.024,46.489,46.371,58.858c39.163,17.714,93.302,14.521,125.641-3.836      c21.847-12.401,34.871-29.798,39.407-58.691c0.41-2.613,0.71-5.236,0.962-7.85c4.712,0.031,13.629-2.92,20.833-9.54      C400.379,264.849,389.184,235.645,363.885,241.448z"/>
				<g style="opacity:0.25;">
					<path style="fill:#000E3F;" d="M297.349,313.955c-10.378-8.744-8.889-23.234,1.937-30.974       c10.637-7.605,25.815-6.601,34.391,3.005c9.654,10.812,4.526,28.074-12.832,32.898C313.229,321,304.07,319.618,297.349,313.955       z"/>
					<path style="fill:#000E3F;" d="M202.303,313.955c10.378-8.744,8.889-23.234-1.937-30.974       c-10.637-7.605-25.815-6.601-34.391,3.005c-9.653,10.812-4.526,28.074,12.833,32.898       C186.423,321,195.582,319.618,202.303,313.955z"/>
					<path style="fill:#000E3F;" d="M373.357,259.652c-0.255,2.063-0.988,3.981-1.919,5.787c-0.949,1.797-2.143,3.462-3.524,4.954       c-1.38,1.492-2.952,2.808-4.672,3.891c-1.729,1.066-3.589,1.94-5.629,2.347c-0.93,0.185-1.833-0.418-2.018-1.348       c-0.102-0.513,0.036-1.018,0.336-1.399l0.035-0.044c1.2-1.506,2.44-2.781,3.641-4.074l3.59-3.783l3.576-3.806       c1.225-1.277,2.428-2.596,3.862-3.894l0.033-0.029c0.662-0.599,1.685-0.548,2.284,0.114       C373.277,258.729,373.41,259.204,373.357,259.652z"/>
					<path style="fill:#000E3F;" d="M129.018,258.283c1.434,1.297,2.637,2.616,3.862,3.894l3.576,3.806l3.59,3.783       c1.201,1.292,2.441,2.568,3.641,4.074l0.03,0.038c0.591,0.741,0.469,1.821-0.273,2.412c-0.409,0.326-0.929,0.434-1.405,0.341       c-2.04-0.407-3.899-1.281-5.629-2.347c-1.72-1.083-3.292-2.398-4.672-3.891c-1.381-1.491-2.574-3.157-3.524-4.954       c-0.931-1.806-1.664-3.723-1.919-5.787c-0.11-0.887,0.52-1.694,1.406-1.804c0.483-0.06,0.942,0.1,1.278,0.401L129.018,258.283z       "/>
				</g>
				<path style="opacity:0.45;fill:#000E3F;" d="M236.786,287.603c-10.769-9.364,5.784-24.675,13.754-24.132      c7.522,0.513,18.705,11.134,15.768,19.168C262.606,292.766,244.313,294.147,236.786,287.603z"/>
			</g>
			<g>
				<path style="fill:#000E3F;" d="M389.17,249.821c-4.653-8.842-14.498-12.741-25.697-10.172c-2.663,0.61-5.278,1.575-7.801,2.875      c-3.386-17.624-8.18-30.937-11.095-39.041c-0.665-1.847-1.238-3.436-1.681-4.763c-0.494-1.477-1.487-2.455-2.952-2.909      c-42.435-13.173-71.36-14.321-80.866-14.699c-1.569-0.062-2.809-0.112-3.227-0.181c-8.517-1.403-57.477,1.719-95.904,14.8      c-2.454,0.836-2.901,2.156-3.979,5.344c-0.378,1.12-0.869,2.575-1.586,4.489c-4.357,11.637-7.917,24.371-10.344,36.992      c-2.541-1.317-5.174-2.292-7.857-2.908c-11.207-2.572-21.046,1.33-25.697,10.173c-4.914,9.339-3.649,24.482,10.254,37.256      c6.518,5.989,14.793,9.371,20.396,9.94c0.391,3.553,0.897,6.947,1.51,10.11c5.671,29.358,20.297,47.921,47.421,60.19      c17.653,7.985,38.833,11.921,59.902,11.921c24.533,0,48.919-5.337,67.41-15.834c23.461-13.317,35.895-31.824,40.319-60.009      c0.303-1.926,0.566-3.983,0.816-6.377c5.604-0.568,13.881-3.948,20.405-9.941C392.818,274.303,394.083,259.16,389.17,249.821z       M376.419,284.36c-7.192,6.609-15.755,9.053-19.514,9.053c-0.025-0.001-0.054-0.002-0.07,0c-0.95,0-1.746,0.722-1.836,1.668      c-0.292,3.019-0.593,5.478-0.95,7.743c-4.231,26.968-16.103,44.662-38.494,57.371c-33.443,18.983-86.74,20.597-123.969,3.76      c-25.921-11.724-39.898-29.466-45.32-57.527c-0.679-3.518-1.225-7.336-1.624-11.35c-0.094-0.944-0.888-1.663-1.836-1.663      c-0.034,0.007-0.038,0.001-0.056,0c-3.755,0-12.326-2.448-19.514-9.054c-12.458-11.447-13.741-24.731-9.486-32.82      c3.896-7.403,11.973-10.505,21.607-8.294c3.112,0.714,6.16,1.979,9.057,3.76c0.519,0.318,1.162,0.361,1.719,0.113      c0.557-0.25,0.955-0.757,1.063-1.357c2.388-13.233,6.068-26.686,10.643-38.903c0.735-1.962,1.238-3.454,1.627-4.601      c0.939-2.783,0.939-2.783,1.67-3.032c37.971-12.925,86.748-15.863,94.113-14.652c0.645,0.106,1.79,0.151,3.683,0.227      c9.385,0.372,37.946,1.507,79.918,14.536c0.312,0.096,0.422,0.181,0.546,0.554c0.449,1.348,1.031,2.965,1.708,4.844      c3.017,8.38,8.064,22.404,11.409,40.99c0.108,0.599,0.505,1.107,1.062,1.356c0.557,0.251,1.198,0.211,1.717-0.109      c2.882-1.762,5.911-3.015,9.007-3.725c9.625-2.21,17.711,0.888,21.605,8.293C390.16,259.628,388.876,272.913,376.419,284.36z"/>
				<path style="fill:#000E3F;" d="M311.058,249.256c-1.036-0.133-1.936,0.585-2.067,1.594c-0.658,5.107-2.541,8.906-5.761,11.612      c-4.197,3.529-9.376,4.233-14.209,1.944c-5.797-2.747-9.632-9.054-9.542-15.693c0.014-1.019-0.802-1.857-1.82-1.871      c-0.009,0-0.018,0-0.025,0c-1.008,0-1.831,0.81-1.845,1.82c-0.108,8.057,4.574,15.724,11.652,19.079      c2.402,1.139,4.869,1.701,7.3,1.701c3.839,0,7.59-1.403,10.865-4.155c3.961-3.329,6.266-7.897,7.048-13.965      C312.783,250.311,312.069,249.386,311.058,249.256z"/>
				<path style="fill:#000E3F;" d="M222.222,246.643c-1.027-0.025-1.874,0.757-1.912,1.775      c-0.407,10.852-7.731,16.894-14.753,17.255c-5.875,0.275-13.253-3.407-14.863-14.845c-0.142-1.008-1.049-1.711-2.085-1.569      c-1.009,0.142-1.712,1.076-1.57,2.085c1.77,12.558,10.102,18.036,17.864,18.036c0.281,0,0.564-0.007,0.843-0.021      c8.699-0.447,17.763-7.735,18.251-20.802C224.035,247.538,223.24,246.682,222.222,246.643z"/>
				<path style="fill:#000E3F;" d="M264.19,308.598c-4.421-3.751-10.2-5.426-16.729-4.819c-7.021,0.644-19.093,4.776-21.064,25.205      c-0.099,1.014,0.645,1.917,1.66,2.015c0.059,0.005,0.119,0.008,0.178,0.008c0.939,0,1.743-0.714,1.834-1.668      c1.29-13.371,7.421-20.939,17.73-21.886c5.588-0.514,10.301,0.818,14.002,3.959c4.455,3.778,7.215,10.128,7.776,17.882      c0.074,1.017,0.973,1.77,1.973,1.708c1.016-0.074,1.78-0.957,1.707-1.973C272.627,320.279,269.407,313.023,264.19,308.598z"/>
			</g>
		</g>
		<g>
			<g>
				<path style="fill:#6280FF;" d="M313.196,318.256c-4.674,7.933-18.228,9.885-25.785-2.748      c-4.503-7.512-4.452-16.784-3.379-24.061c0.453-3.092,1.086-5.824,1.63-7.907c0.48-1.839,2.788-2.422,4.109-1.055      c18.776,19.44,22.795,19.315,24.6,26.216C315.319,312.329,314.736,315.63,313.196,318.256z"/>
				<path style="opacity:0.25;fill:#000E3F;" d="M313.196,318.256c-4.674,7.933-18.228,9.885-25.785-2.748      c-4.503-7.512-4.452-16.784-3.379-24.061c0.743,2.512,1.873,4.842,3.623,6.828c4.48,5.082,11.805,6.453,17.46,10.191      C308.685,310.835,311.581,314.303,313.196,318.256z"/>
			</g>
			<path style="fill:#000E3F;" d="M301.669,326.442c-6.273,0-12.043-3.637-15.842-9.988c-3.912-6.525-5.13-15.03-3.62-25.277     c0.384-2.618,0.93-5.27,1.669-8.104c0.395-1.51,1.53-2.649,3.04-3.045c1.497-0.389,3.103,0.057,4.181,1.173     c7.716,7.989,13.009,12.729,16.512,15.865c5.197,4.655,7.349,6.581,8.547,11.167c1.02,3.902,0.546,7.691-1.37,10.956     c0,0.001,0,0.003-0.002,0.004c-2.624,4.454-7.63,7.231-13.061,7.249C301.705,326.442,301.687,326.442,301.669,326.442z      M288.015,283.577c-0.063,0-0.119,0.01-0.162,0.021c-0.146,0.039-0.337,0.141-0.405,0.407c-0.707,2.702-1.225,5.223-1.589,7.708     c-1.382,9.383-0.328,17.068,3.136,22.845c4.258,7.119,9.755,8.193,12.678,8.193c0.014,0,0.027,0,0.04,0     c4.136-0.014,7.927-2.094,9.893-5.43c1.409-2.4,1.748-5.221,0.98-8.154c-0.917-3.511-2.429-4.866-7.439-9.352     c-3.541-3.172-8.893-7.965-16.703-16.05C288.3,283.617,288.141,283.577,288.015,283.577z M313.195,318.256h0.018H313.195z"/>
		</g>
		<g>
			<g>
				<path style="fill:#322BBF;" d="M375.837,211.421c-0.637,10.913-3.032,23.915-10.059,32.673      c-10.003,12.467-21.335,1.114-29.605-6.655c-20.345-19.113-40.725-13.013-61.505-22.804      c-23.37-11.012-23.608-28.209-24.929-27.762c-1.126,0.381-1.742,15.357-21.762,26.234      c-21.824,11.858-40.178,4.265-62.311,22.662c-5.745,4.776-10.947,14.52-19.03,15.075c-7.949,0.545-13.815-6.981-16.691-13.435      c-8.904-19.978-7.787-45.752-0.444-66.487c21.08-59.523,85.573-71.98,118.9-38.049c0.673,0.685,1.258,1.52,1.946,0.92      c2.362-2.056,10.021-11.022,25.938-16.308C326.05,100.959,379.598,146.938,375.837,211.421z"/>
				<g>
					<path style="fill:#6280FF;" d="M267.537,129.104c12.103-2.071,24.406-1.617,36.424,1.152       c6.002,1.368,11.866,3.473,17.455,6.201c5.575,2.762,10.811,6.262,15.545,10.352c1.14,1.071,2.362,2.059,3.423,3.21l3.214,3.42       c1.958,2.434,3.989,4.819,5.636,7.472c1.813,2.545,3.176,5.35,4.691,8.054c1.257,2.827,2.676,5.594,3.603,8.535       c4.244,11.587,5.984,23.806,6.026,35.837c0.004,1.025-0.824,1.858-1.849,1.862c-0.948,0.003-1.732-0.706-1.847-1.623       c-1.473-11.663-4.113-23.087-8.481-33.669c-0.998-2.691-2.428-5.164-3.627-7.743c-1.467-2.427-2.769-4.961-4.484-7.21       c-1.547-2.37-3.378-4.512-5.16-6.692l-2.917-3.048c-0.957-1.031-2.075-1.896-3.097-2.859       c-8.419-7.466-18.752-12.68-29.76-15.825c-5.512-1.563-11.192-2.662-16.948-3.322c-5.731-0.729-11.644-0.899-17.346-0.659       l-0.137,0.006c-0.96,0.041-1.77-0.705-1.811-1.664C266.056,130.007,266.686,129.249,267.537,129.104z"/>
					<path style="fill:#6280FF;" d="M264.362,148.853c10.39,0.559,20.454,2.872,30.158,6.553c9.678,3.671,18.93,8.823,26.96,15.637       c3.967,3.441,7.742,7.167,10.945,11.372c0.852,1.008,1.56,2.129,2.325,3.204c0.755,1.082,1.522,2.155,2.17,3.307       c0.671,1.136,1.368,2.256,2.013,3.404l1.745,3.546c4.547,9.516,6.661,19.976,6.964,30.236c0.03,1.024-0.775,1.878-1.799,1.909       c-0.914,0.027-1.693-0.612-1.871-1.478l-0.017-0.085l-0.75-3.632c-0.24-1.208-0.412-2.425-0.76-3.605       c-0.62-2.375-1.177-4.755-2.028-7.042c-1.416-4.658-3.418-9.082-5.64-13.337c-4.575-8.454-10.695-15.997-18.074-22.175       c-7.281-6.301-15.751-11.244-24.655-15.269c-4.469-1.988-9.062-3.756-13.753-5.273c-4.658-1.571-9.516-2.815-14.264-3.806       l-0.118-0.025c-0.941-0.196-1.544-1.119-1.348-2.06C262.743,149.382,263.518,148.806,264.362,148.853z"/>
					<path style="fill:#6280FF;" d="M268.248,168.735c2.916,4.38,6.579,8.602,10.345,12.448c3.83,3.847,7.924,7.423,12.234,10.744       c2.173,1.643,4.337,3.299,6.637,4.783c2.195,1.638,4.589,2.98,6.884,4.501c1.136,0.783,2.359,1.416,3.546,2.124l3.571,2.125       c2.412,1.374,4.881,2.656,7.282,4.155l0.108,0.067c0.872,0.545,1.137,1.693,0.593,2.565c-0.445,0.713-1.295,1.019-2.066,0.811       c-2.78-0.754-5.536-1.627-8.268-2.586c-2.656-1.13-5.392-2.132-7.963-3.482c-5.221-2.555-10.176-5.681-14.838-9.225       c-4.579-3.647-8.9-7.673-12.573-12.282c-3.663-4.633-6.859-9.555-8.719-15.436c-0.29-0.916,0.218-1.894,1.134-2.184       c0.756-0.239,1.554,0.065,1.973,0.693L268.248,168.735z"/>
					<path style="fill:#6280FF;" d="M231.612,132.55c-5.702-0.24-11.616-0.07-17.346,0.659c-5.756,0.661-11.436,1.759-16.948,3.322       c-11.008,3.145-21.341,8.359-29.76,15.825c-1.022,0.963-2.14,1.827-3.097,2.859l-2.917,3.048       c-1.782,2.179-3.613,4.322-5.16,6.692c-1.715,2.248-3.017,4.783-4.484,7.21c-1.199,2.579-2.629,5.052-3.627,7.743       c-4.368,10.582-7.007,22.006-8.481,33.669c-0.128,1.016-1.056,1.737-2.072,1.609c-0.941-0.119-1.627-0.923-1.623-1.847       c0.042-12.031,1.782-24.25,6.026-35.837c0.928-2.941,2.346-5.708,3.603-8.535c1.516-2.704,2.878-5.509,4.691-8.054       c1.646-2.652,3.678-5.037,5.636-7.472l3.214-3.42c1.061-1.15,2.283-2.139,3.423-3.21c4.734-4.091,9.97-7.591,15.545-10.352       c5.59-2.728,11.454-4.833,17.455-6.201c12.018-2.77,24.322-3.223,36.425-1.152c0.947,0.162,1.583,1.061,1.421,2.007       c-0.149,0.873-0.925,1.482-1.787,1.444L231.612,132.55z"/>
					<path style="fill:#6280FF;" d="M235.622,152.319c-4.748,0.992-9.606,2.235-14.264,3.806c-4.691,1.517-9.283,3.285-13.753,5.273       c-8.904,4.025-17.375,8.968-24.656,15.269c-7.378,6.178-13.499,13.721-18.074,22.175c-2.222,4.255-4.224,8.68-5.64,13.337       c-0.851,2.287-1.408,4.667-2.028,7.042c-0.348,1.181-0.521,2.398-0.76,3.605l-0.75,3.632l-0.018,0.085       c-0.207,1.003-1.188,1.648-2.191,1.441c-0.895-0.185-1.505-0.987-1.478-1.871c0.303-10.26,2.417-20.72,6.964-30.236       l1.745-3.546c0.645-1.148,1.342-2.268,2.013-3.404c0.648-1.152,1.415-2.225,2.17-3.307c0.765-1.074,1.472-2.196,2.325-3.204       c3.203-4.206,6.978-7.931,10.945-11.372c8.03-6.814,17.282-11.967,26.96-15.637c9.704-3.681,19.768-5.994,30.158-6.553       c0.96-0.052,1.78,0.685,1.832,1.644c0.047,0.87-0.554,1.625-1.382,1.798L235.622,152.319z"/>
					<path style="fill:#6280FF;" d="M234.631,170.046c-1.86,5.881-5.056,10.803-8.719,15.436       c-3.673,4.608-7.993,8.635-12.572,12.282c-4.661,3.544-9.617,6.67-14.838,9.225c-2.572,1.351-5.308,2.352-7.963,3.482       c-2.732,0.959-5.488,1.832-8.268,2.586c-0.992,0.269-2.015-0.317-2.284-1.309c-0.22-0.811,0.131-1.642,0.809-2.065l0.11-0.068       c2.401-1.499,4.87-2.781,7.282-4.155l3.571-2.125c1.186-0.708,2.41-1.342,3.546-2.124c2.296-1.521,4.689-2.862,6.884-4.501       c2.3-1.484,4.464-3.14,6.637-4.783c4.31-3.321,8.405-6.897,12.234-10.744c3.765-3.846,7.429-8.068,10.345-12.448l0.119-0.178       c0.533-0.8,1.613-1.017,2.413-0.484C234.596,168.512,234.858,169.326,234.631,170.046z"/>
					<path style="fill:#6280FF;" d="M251.567,140.065c0.793,3.379,1.212,6.757,1.5,10.136c0.286,3.379,0.442,6.757,0.449,10.136       c0.019,3.379-0.122,6.757-0.388,10.136c-0.268,3.379-0.671,6.757-1.45,10.136c-0.236,1.023-1.256,1.66-2.279,1.425       c-0.731-0.168-1.265-0.74-1.425-1.425c-0.779-3.379-1.182-6.757-1.45-10.136c-0.265-3.379-0.407-6.757-0.388-10.136       c0.006-3.379,0.162-6.757,0.449-10.136c0.288-3.379,0.707-6.757,1.5-10.136c0.226-0.962,1.188-1.558,2.15-1.332       C250.917,138.893,251.416,139.426,251.567,140.065z"/>
				</g>
			</g>
			<path style="fill:#000E3F;" d="M145.834,252.719c-8.153,0.001-14.391-7.416-17.574-14.556     c-8.432-18.916-8.621-44.916-0.497-67.856c10.477-29.585,32.259-50.047,59.756-56.139c23.191-5.14,46.443,1.371,62.198,17.413     l0.141,0.148c0.132-0.126,0.272-0.263,0.422-0.408c3.354-3.251,11.205-10.863,25.423-15.586     c22.198-7.37,46.286-2.89,66.089,12.295c24.427,18.733,37.843,49.947,35.886,83.497c-0.861,14.799-4.383,26.143-10.461,33.721     c-3.091,3.851-6.614,5.941-10.472,6.209c-7.796,0.537-15.168-6.393-21.084-11.967l-0.752-0.706     c-12.103-11.37-24.045-13.492-36.69-15.739c-7.918-1.406-16.105-2.862-24.337-6.741c-16.334-7.696-21.816-18.359-24.063-24.355     c-2.053,5.56-6.958,15.17-20.963,22.78c-9.574,5.203-18.514,6.768-27.161,8.281c-11.591,2.028-22.539,3.945-34.85,14.18     c-1.671,1.388-3.327,3.263-5.078,5.247c-4.064,4.601-8.67,9.815-15.006,10.25C146.451,252.708,146.141,252.719,145.834,252.719z      M203.098,116.137c-4.873,0-9.827,0.537-14.78,1.634c-26.229,5.811-47.032,25.408-57.077,53.768     c-7.819,22.081-7.672,47.035,0.389,65.12c2.795,6.268,8.158,12.792,14.88,12.345c4.824-0.332,8.722-4.744,12.492-9.011     c1.849-2.095,3.597-4.073,5.484-5.642c13.07-10.863,25.018-12.954,36.575-14.977c8.353-1.462,16.99-2.973,26.034-7.888     c15.409-8.372,18.833-19.272,20.124-23.375c0.51-1.628,0.818-2.61,1.93-2.986c0.465-0.158,1.101-0.114,1.539,0.107     c0.923,0.461,1.196,1.301,1.742,2.972c1.471,4.498,5.379,16.445,23.025,24.76c7.789,3.67,15.73,5.082,23.411,6.446     c12.62,2.243,25.669,4.562,38.571,16.683l0.755,0.711c5.393,5.081,12.131,11.393,18.298,10.972     c2.827-0.197,5.395-1.78,7.848-4.838c5.512-6.869,8.852-17.805,9.657-31.625l0,0c1.885-32.328-10.993-62.367-34.45-80.355     c-18.815-14.428-41.658-18.706-62.677-11.721c-13.418,4.457-20.846,11.658-24.018,14.733c-0.533,0.515-0.962,0.929-1.292,1.217     c-0.883,0.768-2.334,1.259-4.231-0.766l-0.241-0.253C235.581,122.456,219.814,116.137,203.098,116.137z"/>
		</g>
	</g>
	<g>
		<g>
			<g>
				<path style="fill:#00D5FE;" d="M175.815,65.547c-32.309,0.001-34.034-1.908-36.641-4.797c-0.398-0.416-0.779-0.888-1.11-1.376      c-2.705-3.728-3.15-8.532-1.132-12.488c2.372-4.648,7.607-7.345,14.393-7.426c-2.685-7.04-2.683-18.478,4.197-26.67      c4.862-5.783,12.061-9.099,19.751-9.099c10.102,0,21.664,6.075,24.924,19.319c3.015-2.421,6.626-3.724,10.454-3.724      c1.425,0,2.854,0.183,4.247,0.543c6.493,1.674,11.202,6.75,12.492,13.241c1.297-0.34,2.598-0.512,3.887-0.512      c8.733,0,14.734,7.523,15.948,14.601c0.991,5.786-0.971,13.037-9.459,16.036c-3.341,1.179-6.763,1.355-10.571,1.452      C205.237,65.253,188.429,65.547,175.815,65.547z"/>
				<path style="opacity:0.25;fill:#322BBF;" d="M237.151,61.456c-3.137,1.107-6.385,1.255-10.002,1.347      c-81.71,2.252-83.685-0.055-86.619-3.303c-0.35-0.369-0.664-0.756-0.941-1.162c0.756-0.517,1.513-0.997,2.307-1.44      c11.736-6.643,33.215-4.262,47.922-8.507c19.93-5.776,18.952-16.073,24.617-26.775c5.942,1.531,10.924,6.661,11.422,13.914      C242.521,28.647,254.442,55.348,237.151,61.456z"/>
				<path style="opacity:0.75;fill:#FFFFFF;" d="M184.483,21.931c-14.807-1.365-17.585,2.875-19.786,15.718l-0.021,0.121      c-0.339,1.975-3.089,2.242-3.793,0.35c-6.237-16.911,10.776-29.738,24.942-19.543c1.531,1.102,0.627,3.532-1.254,3.363      L184.483,21.931z"/>
			</g>
			<g>
				<path style="fill:#000E3F;" d="M249.044,46.848c-1.341-7.821-8.023-16.133-17.765-16.133c-0.84,0-1.683,0.064-2.525,0.192      c-1.882-6.317-6.81-11.167-13.398-12.864c-1.54-0.399-3.124-0.601-4.704-0.601c-3.357,0-6.56,0.897-9.402,2.592      c-4.26-12.449-15.809-18.188-25.977-18.188c-8.237,0-15.95,3.556-21.162,9.756c-6.616,7.874-7.278,18.573-5.252,26.152      c-6.313,0.661-11.178,3.601-13.571,8.292c-2.328,4.563-1.835,10.082,1.284,14.416c0.371,0.539,0.791,1.058,1.25,1.545      c3.298,3.641,6.367,5.386,37.994,5.386c12.63,0,29.455-0.294,51.435-0.9c3.958-0.101,7.534-0.287,11.129-1.556      C246.265,62.151,250.45,55.051,249.044,46.848z M237.151,61.456c-3.137,1.107-6.385,1.255-10.002,1.347      c-22.677,0.625-39.214,0.899-51.333,0.899c-31.549,0-33.165-1.855-35.285-4.202c-0.35-0.369-0.664-0.756-0.941-1.162      c-4.888-6.743-1.211-17.035,12.054-17.035c0.857,0,1.753,0.043,2.69,0.132c-3.728-5.961-4.576-18.914,2.602-27.458      c4.791-5.699,11.589-8.44,18.337-8.44c11.081,0,22.027,7.39,23.736,21.21c3.282-3.888,7.511-5.614,11.644-5.614      c1.281,0,2.552,0.166,3.783,0.484c5.942,1.531,10.924,6.661,11.422,13.914c1.878-0.776,3.697-1.125,5.419-1.125      C244.839,34.403,252.494,56.036,237.151,61.456z"/>
				<path style="fill:#000E3F;" d="M179.035,70.305c-0.89-0.505-2.014-0.199-2.519,0.686l-13.2,23.066      c-0.506,0.884-0.198,2.012,0.685,2.518c0.29,0.165,0.606,0.243,0.915,0.243c0.64,0,1.263-0.333,1.604-0.929l13.2-23.066      C180.227,71.939,179.918,70.812,179.035,70.305z"/>
				<path style="fill:#000E3F;" d="M199.096,70.305c-0.888-0.505-2.015-0.199-2.519,0.686l-13.2,23.066      c-0.506,0.884-0.198,2.012,0.685,2.518c0.29,0.165,0.606,0.243,0.916,0.243c0.64,0,1.263-0.333,1.604-0.929l13.2-23.066      C200.287,71.939,199.979,70.812,199.096,70.305z"/>
				<path style="fill:#000E3F;" d="M219.157,70.306c-0.89-0.509-2.015-0.2-2.519,0.685l-13.202,23.066      c-0.506,0.884-0.198,2.012,0.685,2.517c0.29,0.166,0.606,0.244,0.916,0.244c0.64,0,1.263-0.333,1.604-0.929l13.202-23.066      C220.348,71.939,220.04,70.812,219.157,70.306z"/>
				<path style="fill:#000E3F;" d="M239.217,70.306c-0.888-0.509-2.013-0.2-2.519,0.685l-13.202,23.066      c-0.506,0.884-0.198,2.012,0.685,2.517c0.29,0.166,0.605,0.244,0.915,0.244c0.64,0,1.263-0.333,1.604-0.929l13.202-23.066      C240.408,71.939,240.1,70.812,239.217,70.306z"/>
				<path style="fill:#000E3F;" d="M158.975,70.305c-0.888-0.505-2.013-0.199-2.519,0.686l-13.2,23.066      c-0.506,0.884-0.198,2.012,0.685,2.518c0.29,0.165,0.605,0.243,0.915,0.243c0.64,0,1.263-0.333,1.604-0.929l13.2-23.066      C160.166,71.939,159.858,70.812,158.975,70.305z"/>
			</g>
		</g>
		<g>
			<g>
				<path style="fill:#00D5FE;" d="M426.042,233.85c-3.867,0-7.043-2.99-7.23-6.808c-0.047-0.301-0.047-0.763,0.014-1.22      c0.908-9.116,6.349-14.17,15.314-14.17c3.101,0,6.008,0.604,7.981,1.141c-0.034-2.146-0.054-4.328-0.011-6.504      c0.169-8.043,0.865-15.719,7.439-21.255c3.862-3.257,9.266-5.125,14.831-5.125c8.437,0,15.676,4.125,18.893,10.766      c1.474,3.049,2.363,6.617,2.638,10.607c0,0,0.133,1.174,0.169,1.543c1.57-0.636,3.332-0.965,5.221-0.965      c3.055,0,6.383,0.892,9.131,2.446c3.584,2.042,6.482,5.668,7.954,9.953c1.48,4.301,1.089,10.688-0.888,14.539      c-2.42,4.711-7.578,4.738-10.991,4.757C492.535,233.576,426.046,233.85,426.042,233.85z"/>
				<path style="opacity:0.75;fill:#FFFFFF;" d="M472.957,195.004c-13.876-1.279-16.478,2.694-18.541,14.729l-0.019,0.113      c-0.317,1.851-2.895,2.101-3.554,0.328c-5.845-15.846,10.097-27.866,23.372-18.313c1.434,1.032,0.587,3.309-1.175,3.151      L472.957,195.004z"/>
				<path style="opacity:0.25;fill:#322BBF;" d="M505.857,227.956c-1.848,3.598-5.879,3.736-9.36,3.755      c-3.972,0.02-50.909,0.217-70.415,0.295c-2.91,0.02-5.289-2.261-5.427-5.053c12.978-4.837,31.914-3.225,45.462-7.806      c9.832-3.323,14.885-7.865,18.09-13.077c4.208-3.539,10.835-2.693,15.318-0.156c3.382,1.927,5.86,5.289,7.118,8.946      C507.921,218.576,507.685,224.396,505.857,227.956z"/>
			</g>
			<g>
				<path style="fill:#000E3F;" d="M468.663,241.759c-0.888-0.505-2.013-0.199-2.519,0.686l-13.2,23.066      c-0.506,0.884-0.198,2.012,0.685,2.518c0.29,0.165,0.605,0.243,0.915,0.243c0.64,0,1.263-0.333,1.604-0.929l13.2-23.066      C469.854,243.394,469.546,242.266,468.663,241.759z"/>
				<path style="fill:#000E3F;" d="M488.723,241.759c-0.888-0.505-2.015-0.199-2.519,0.686l-13.2,23.066      c-0.506,0.884-0.198,2.012,0.685,2.518c0.29,0.165,0.606,0.243,0.916,0.243c0.64,0,1.263-0.333,1.604-0.929l13.2-23.066      C489.914,243.394,489.606,242.266,488.723,241.759z"/>
				<path style="fill:#000E3F;" d="M448.602,241.759c-0.89-0.505-2.013-0.199-2.519,0.686l-13.2,23.066      c-0.506,0.884-0.198,2.012,0.685,2.518c0.29,0.165,0.605,0.243,0.915,0.243c0.64,0,1.263-0.333,1.604-0.929l13.2-23.066      C449.793,243.394,449.485,242.266,448.602,241.759z"/>
				<path style="fill:#000E3F;" d="M510.133,213.659c-1.618-4.703-4.819-8.695-8.781-10.953c-3.071-1.737-6.636-2.691-10.049-2.691      c-1.256,0-2.464,0.13-3.611,0.385c-0.337-3.882-1.267-7.444-2.759-10.528c-3.526-7.284-11.401-11.808-20.552-11.808      c-6.08,0-11.77,1.975-16.021,5.561c-7.162,6.03-7.915,14.142-8.094,22.624c-0.028,1.409-0.03,2.815-0.019,4.208      c-1.787-0.362-3.902-0.65-6.107-0.65c-9.88,0-16.129,5.774-17.152,15.843c-0.067,0.541-0.07,1.088-0.011,1.629      c0.309,4.732,4.264,8.417,9.067,8.417c19.56-0.078,66.5-0.275,70.472-0.295c3.389-0.019,9.693-0.053,12.624-5.759      C511.356,225.328,511.783,218.456,510.133,213.659z M505.857,227.956c-1.848,3.598-5.879,3.736-9.36,3.755      c-3.972,0.02-50.909,0.217-70.415,0.295c-0.013,0-0.026,0-0.038,0c-2.893,0-5.252-2.273-5.389-5.053      c-0.039-0.295-0.039-0.59,0-0.884c1.016-10.189,7.575-12.571,13.485-12.571c5.188,0,9.875,1.835,9.875,1.835      c-0.059-2.99-0.118-5.998-0.059-9.006c0.157-7.453,0.688-14.748,6.784-19.88c3.687-3.11,8.676-4.691,13.641-4.691      c7.058,0,14.067,3.192,17.23,9.725c1.495,3.088,2.222,6.509,2.458,9.931c0.058,0.639,0.573,4.131,0.028,4.731      c0.031-0.029,0.065-0.056,0.11-0.072c1.986-1.67,4.511-2.364,7.095-2.364c2.891,0,5.855,0.868,8.223,2.207      c3.382,1.927,5.86,5.289,7.118,8.947C507.921,218.576,507.685,224.396,505.857,227.956z"/>
			</g>
		</g>
		<g>
			<g>
				<path style="fill:#00D5FE;" d="M31.825,318.484c-3.415-0.02-8.576-0.049-10.993-4.758c-1.979-3.85-2.37-10.236-0.89-14.538      c1.476-4.286,4.373-7.913,7.949-9.95c2.754-1.558,6.082-2.45,9.136-2.45c1.89,0,3.651,0.329,5.222,0.965      c0.036-0.369,0.173-1.583,0.173-1.583c0.272-3.948,1.161-7.517,2.635-10.566c3.217-6.642,10.454-10.766,18.891-10.766      c5.563,0,10.969,1.869,14.831,5.127c6.574,5.533,7.269,13.21,7.439,21.252c0.043,2.173,0.023,4.357-0.011,6.506      c1.975-0.538,4.882-1.143,7.983-1.143c8.965,0,14.406,5.055,15.321,14.234c0.054,0.394,0.054,0.857-0.007,1.314      c-0.177,3.663-3.354,6.652-7.219,6.652C102.286,318.779,35.797,318.504,31.825,318.484z"/>
				<path style="opacity:0.75;fill:#FFFFFF;" d="M55.374,279.932c13.875-1.279,16.478,2.695,18.54,14.729l0.019,0.113      c0.317,1.851,2.895,2.101,3.554,0.328c5.845-15.846-10.097-27.866-23.372-18.313c-1.434,1.032-0.587,3.309,1.175,3.151      L55.374,279.932z"/>
				<path style="opacity:0.25;fill:#322BBF;" d="M22.474,312.883c1.848,3.599,5.879,3.736,9.36,3.755      c3.972,0.02,50.909,0.217,70.415,0.295c2.91,0.02,5.289-2.261,5.427-5.053c-12.978-4.837-31.914-3.225-45.462-7.806      c-9.832-3.323-14.885-7.866-18.09-13.077c-4.208-3.539-10.835-2.693-15.318-0.156c-3.382,1.927-5.86,5.289-7.118,8.946      C20.409,303.504,20.645,309.324,22.474,312.883z"/>
			</g>
			<g>
				<path style="fill:#000E3F;" d="M111.342,310.577c-1.024-10.068-7.273-15.842-17.152-15.843c-2.205,0-4.32,0.288-6.108,0.65      c0.011-1.394,0.009-2.798-0.019-4.203c-0.179-8.486-0.932-16.599-8.097-22.631c-4.248-3.583-9.937-5.559-16.018-5.559      c0,0-0.002,0-0.002,0c-9.149,0-17.024,4.525-20.55,11.808c-1.484,3.066-2.411,6.605-2.758,10.528      c-1.147-0.255-2.355-0.385-3.611-0.385c-3.413,0-6.979,0.954-10.04,2.686c-3.972,2.263-7.172,6.255-8.79,10.958      c-1.65,4.798-1.223,11.669,0.993,15.983c2.93,5.706,9.235,5.74,12.622,5.759c3.974,0.02,50.914,0.217,70.42,0.295      c4.855,0,8.81-3.685,9.12-8.416C111.413,311.666,111.409,311.118,111.342,310.577z M107.675,311.88      c-0.137,2.78-2.496,5.053-5.389,5.053c-0.012,0-0.026,0-0.038,0c-19.506-0.078-66.443-0.275-70.415-0.295      c-3.48-0.019-7.511-0.157-9.36-3.755c-1.829-3.559-2.065-9.38-0.786-13.096c1.258-3.657,3.736-7.02,7.118-8.946      c2.367-1.34,5.332-2.208,8.223-2.208c2.584,0,5.109,0.694,7.095,2.364c0.045,0.015,0.079,0.042,0.11,0.071      c-0.545-0.601-0.03-4.092,0.028-4.731c0.236-3.422,0.964-6.843,2.458-9.931c3.163-6.533,10.173-9.726,17.23-9.725      c4.965,0,9.955,1.581,13.641,4.691c6.096,5.133,6.627,12.428,6.784,19.881c0.059,3.008,0,6.016-0.059,9.006      c0,0,4.687-1.835,9.875-1.835c5.91,0,12.469,2.382,13.485,12.571C107.715,311.291,107.715,311.585,107.675,311.88z"/>
				<path style="fill:#000E3F;" d="M62.186,327.373c-0.506-0.884-1.631-1.193-2.519-0.685c-0.883,0.505-1.191,1.634-0.685,2.518      l13.202,23.066c0.341,0.596,0.964,0.929,1.604,0.929c0.31,0,0.625-0.078,0.916-0.244c0.883-0.505,1.191-1.633,0.685-2.517      L62.186,327.373z"/>
				<path style="fill:#000E3F;" d="M42.126,327.373c-0.506-0.884-1.629-1.193-2.519-0.685c-0.883,0.505-1.191,1.634-0.685,2.518      l13.202,23.066c0.341,0.596,0.964,0.929,1.604,0.929c0.31,0,0.625-0.078,0.915-0.244c0.883-0.505,1.191-1.633,0.685-2.517      L42.126,327.373z"/>
				<path style="fill:#000E3F;" d="M82.247,327.373c-0.504-0.884-1.629-1.19-2.519-0.685c-0.883,0.506-1.191,1.635-0.685,2.518      l13.2,23.066c0.341,0.596,0.964,0.929,1.604,0.929c0.31,0,0.625-0.078,0.915-0.243c0.883-0.506,1.191-1.634,0.685-2.518      L82.247,327.373z"/>
			</g>
		</g>
	</g>
	<g>
		<path style="fill:#000E3F;" d="M351.361,75.656c0.492-2.152,0.658-4.278,0.385-6.437c-0.193-1.847-1.13-3.829-2.512-4.988    c-2.871-1.245-5.878-3.229-8.994-3.869c-0.054,0.02-0.126,0.076-0.18,0.094c-3.896,8.578-8.825,17.152-11.472,25.386l0.054-0.021    c3.074,1.479,6.406,3.076,9.679,4.514c2.972-1.409,5.995-3.111,8.372-5.525c0.018-0.038,0.054-0.02,0.072-0.056    c1.512-2.022,2.6-4.383,3.817-6.635C350.916,77.334,351.248,76.546,351.361,75.656z M345.076,76.734    c-0.458,1.988-1.616,3.278-3.073,4.156c-0.506,0.297-1.083,0.56-1.697,0.625c-0.31-0.013-0.526,0.059-0.764-0.098    c-0.933-0.314-2.064-0.674-2.384-1.414c1.398-3.383,3.397-6.79,4.478-9.513l0.072-0.146l0.036,0.016l0.072,0.034    c0.966,0.24,1.973,0.769,2.763,1.283C345.944,73.054,345.506,75.096,345.076,76.734z"/>
		<path style="fill:#000E3F;" d="M370.414,83.614c0.317-0.802,0.6-1.624,0.687-2.508c0.18-0.973,0.11-1.997-0.216-2.975    c-1.526-3.633-5.857-6.203-9.823-6.461c-0.42-0.005-0.788,0.065-1.175,0.169c-2.393,0.831-4.069,2.867-5.314,4.959    c-2.363,3.559-4.197,7.423-6.154,11.168c-0.75,1.397-1.393,2.853-1.389,4.397c-0.222,2.353,1.406,3.847,3.242,5.13    c1.315,0.89,2.694,1.586,4.22,1.944c1.667,0.44,3.404,0.591,4.86-0.072c1.631-0.894,3.006-2.399,4.058-3.995l0.773-1.101    c1.564-2.334,2.735-4.705,4.307-7.125C369.189,85.998,369.856,84.838,370.414,83.614z M364.718,83.021    c-0.429,0.831-0.987,2.056-1.007,2.09l-1.299,2.438l-0.968,1.69c-0.06,0.108-0.539,0.863-1.117,1.795    c-1.346,1.943-0.993,2.145-2.541,2.802c-2.371,0.797-5.213-1.11-5.06-3.499c0.429-1.811,1.472-3.555,2.173-5.356    c1.022-2.033,2.206-4.02,3.62-5.597c0.847-0.827,1.874-1.314,3.049-1.485c1.061-0.14,2.301,0.148,3.029,1.078    C365.39,80.133,365.358,81.659,364.718,83.021z"/>
		<path style="fill:#000E3F;" d="M391.985,89.739c-0.698-0.568-1.418-1.099-2.195-1.618c-0.806-0.543-1.638-1.049-2.53-1.404    l-0.022,0.034c-3.015,3.698-7.244,10.302-10.216,13.931c0.364-1.712,2.755-7.25,2.553-7.825c-0.056,0.013-0.081,0.045-0.182,0.124    c-1.861,1.687-3.588,3.314-5.518,4.954c1.622-4.534,6.421-10.313,8.72-14.543c-0.788-0.576-1.653-1.252-2.565-1.865    c-0.777-0.521-1.562-0.95-2.303-1.301l-0.025,0.032c-5.089,7.884-9.064,16.514-13.141,24.928l0.034,0.024    c0.461,0.407,0.843,0.713,1.215,0.958c0.64,0.431,1.123,0.658,1.764,0.941c1.479-0.67,4.226-4.11,5.577-4.377l0.032,0.021    c-0.025,1.791-1.928,5.504-1.854,7.07l0.406,0.27l1.213,0.813c0.44,0.296,0.824,0.6,1.195,0.703    c5.886-7.396,11.952-14.478,17.851-21.818L391.985,89.739z"/>
		<path style="fill:#000E3F;" d="M396.362,117.924c1.414-1.831,2.854-3.691,4.215-5.512l7.996-10.34    c-0.508-0.598-1.168-1.211-1.969-1.833c-0.802-0.62-1.622-1.151-2.46-1.595c-0.853,1.036-1.579,1.908-2.278,2.808    c-1.191,1.541-2.186,3.029-3.503,4.73c-0.569,0.739-1.386,1.597-1.591,1.593c-0.094-0.074,1.236-6.643,1.451-7.45    c0.62-2.393,0.506-2.844,1.113-4.889c0.15-0.189-1.872-1.961-2.416-2.38c-0.514-0.397-1.053-0.764-1.545-0.99    c-2.337,2.554-4.662,5.426-6.947,8.382c-3.103,4.015-5.713,7.588-8.868,11.665l-1.739,2.249c0.997,0.769,1.907,1.782,2.934,2.577    c0.481,0.371,0.955,0.687,1.537,0.934c0.539-0.766,1.26-1.696,2.029-2.692c2.781-3.595,6.406-8.078,6.532-7.983    c0.097,0.077-0.115,0.683-0.328,1.288l-0.421,1.211c-1.117,3.5-1.95,7.628-2.995,11.901c0.865,0.67,1.963,1.777,2.829,2.443    c0.737,0.573,1.061,0.616,1.184,0.662l0.496-0.643c0.672-0.867,1.285-1.727,1.955-2.593    C394.492,120.277,395.393,119.176,396.362,117.924z"/>
		<path style="fill:#000E3F;" d="M396.171,122.834c-0.977,1.14-3.458,3.29-3.182,3.526l2.339,1.95l0.061,0.052    c0.465,0.398,0.652,0.613,1.146,1.036l0.216,0.184c1.029-1.204,2.253-2.505,3.26-3.62c-1.2-1.029-2.485-2.716-3.813-3.157    L396.171,122.834z"/>
		<path style="fill:#000E3F;" d="M411.498,104.751l-0.092-0.077c-5.145,5.32-9.401,10.973-14.139,16.321l0.031,0.025    c1.229,0.999,2.924,2.451,4.11,3.253c4.266-5.483,9.326-11.144,13.933-16.336C414.491,106.621,412.655,105.583,411.498,104.751z"/>
		<path style="fill:#000E3F;" d="M338.361,41.246c1.137-2.869,2.366-6.095,3.846-9.182l0.036,0.013    c1.62,0.312,3.419,0.957,5.075,1.28c0.079,0.032,0.128,0.007,0.144-0.029c0.505-1.896,2.271-5.394,2.258-6.267    c-1.182-0.321-3.413-1.085-4.783-1.822c-0.04-0.016-0.04-0.016-0.061-0.067c-0.153-0.973,0.15-2.334,1.224-3.447    c3.266,0.896,7.561,2.404,10.365,3.253c0.606-1.245,1.633-4.289,2.137-5.617c-3.846-2.682-14.2-5.844-16.99-6.383l-0.016,0.034    c-4.496,11.807-6.365,16.484-9.863,25.667l0.025,0.054C332.09,39.119,336.316,40.684,338.361,41.246z"/>
		<path style="fill:#000E3F;" d="M365.158,52.959c1.101-1.276,1.944-3.033,2.584-4.664l0.036-0.072    c-3.388-1.481-6.289-3.231-9.515-4.77l-0.018-0.052c0.449-1.227,1.249-3.274,2.186-4.583c0.706-0.157,2.932,1.402,4.628,1.716    c0.82-1.815,1.827-3.359,2.357-5.131l0.018-0.034c-1.483-0.755-3.042-1.454-4.453-2.265l-0.02-0.052    c0.303-1.476,1.366-2.858,2.011-4.305l0.054-0.018l0.11,0.05c3.366,1.249,6.363,3.355,9.811,4.147l0.018-0.036    c0.822-1.725,1.921-3.359,2.487-5.204c0.104-0.218-9.457-4.604-15.278-7.026c-4.482,8.165-7.947,16.547-12.005,25.049    C354.7,48.369,360.189,50.539,365.158,52.959z"/>
		<path style="fill:#000E3F;" d="M382.054,62.503c1.193-1.189,2.161-2.88,2.919-4.46l0.042-0.067    c-3.269-1.73-6.037-3.683-9.14-5.453l-0.014-0.058c0.537-1.189,1.483-3.173,2.517-4.408c0.714-0.106,2.82,1.611,4.489,2.051    c0.95-1.752,2.069-3.217,2.726-4.947l0.022-0.034c-1.426-0.86-2.926-1.669-4.28-2.584l-0.013-0.052    c0.407-1.451,1.57-2.752,2.319-4.15l0.058-0.011l0.104,0.059c3.265,1.489,6.102,3.81,9.483,4.853l0.02-0.038    c0.946-1.656,2.159-3.21,2.86-5.006c0.121-0.213-9.095-5.289-14.723-8.127c-5.071,7.817-9.136,15.923-13.809,24.104    C371.962,57.162,377.279,59.728,382.054,62.503z"/>
		<path style="fill:#000E3F;" d="M383.905,63.851c10.782,7.403,12.508,8.109,13.387,8.839c0.948,0.629,0.937,0.867,2.925-2.494    c0.211-0.396,0.584-0.881,0.908-1.297c0.193-0.213,0.373-0.485,0.53-0.721c-1.173-0.586-7.57-5.709-8.628-6.022l0.02-0.034    c3.968-5.752,8.068-12.586,12.123-18.323c-0.928-1.397-4.186-3.462-5.347-3.698c-6.176,9.598-8.369,13.26-15.514,23.14    L383.905,63.851z"/>
		<path style="fill:#000E3F;" d="M405.459,78.529c5.051-7.729,11.25-15.164,16.772-22.645l0.097-0.13l-0.782-0.578    c-1.986-1.417-2.763-2.141-3.521-2.752c-0.294-0.218-1.04-0.917-1.29-1.056l-0.05,0.067c-6.187,6.736-10.955,15.582-17.388,22.994    C400.406,74.847,404.208,78.714,405.459,78.529z"/>
		<path style="fill:#000E3F;" d="M429.949,78.641l8.317-10.09c-0.492-0.616-1.132-1.251-1.914-1.894    c-0.782-0.645-1.586-1.202-2.411-1.671c-0.883,1.009-1.638,1.86-2.359,2.739c-1.243,1.503-2.285,2.959-3.651,4.622    c-0.595,0.721-1.438,1.55-1.64,1.543c-0.096-0.077,1.44-6.603,1.679-7.405c0.692-2.375,0.593-2.827,1.261-4.853    c0.155-0.189-1.809-2.016-2.343-2.456c-0.503-0.413-1.027-0.795-1.514-1.038c-2.413,2.485-4.826,5.284-7.203,8.169    c-3.229,3.916-5.949,7.41-9.228,11.393l-1.808,2.191c0.971,0.802,1.853,1.843,2.853,2.665c0.47,0.389,0.937,0.721,1.51,0.984    c0.564-0.748,1.31-1.656,2.112-2.629c2.892-3.509,6.651-7.882,6.778-7.779c0.094,0.076-0.137,0.678-0.368,1.276l-0.461,1.196    c-1.222,3.467-2.182,7.571-3.361,11.807c0.847,0.697,1.906,1.836,2.755,2.534c0.721,0.595,1.043,0.649,1.162,0.694l0.517-0.625    c0.697-0.845,1.339-1.687,2.035-2.534c0.955-1.159,1.892-2.229,2.9-3.453C427.039,82.241,428.536,80.423,429.949,78.641z"/>
		<path style="fill:#000E3F;" d="M446.018,76.042c-1.195-0.865-2.444-1.557-3.88-1.642c-1.901-0.305-3.516,0.62-4.958,1.712    c-1.414,1.061-2.737,2.325-3.973,3.555c-2.869,2.815-3.988,4.274-6.141,6.988c-0.671,0.874-1.31,1.836-1.615,2.388    c-1.132,2.119-1.467,3.936-0.561,6.098c1.114,2.588,3.938,4.453,6.405,5.75c2.027,0.874,4.011,0.979,6.125-0.818    c2.404-1.743,4.59-4.314,6.349-6.621v-0.056l-0.06-0.058c-0.789-0.755-4.53-5.302-6.116-5.64    c-0.056,0.002-0.086-0.029-0.086-0.029c-0.029-0.027-0.029-0.027-0.058,0.004l-0.027,0.031c-1.146,1.487-1.771,1.786-2.835,3.184    c0.241,0.512,1.728,1.604,2.114,2.139c0.148,0.312-1.319,1.492-1.717,1.728c-0.68,0.418-1.281,0.404-1.917,0.184    c-0.755-0.328-1.568-0.827-2.069-1.477c-0.207-0.31-0.357-0.622-0.423-0.91c-0.168-1.287,0.807-2.6,1.535-3.53    c2.575-3.157,6.176-6.677,8.531-8.017c0.394-0.238,0.908-0.478,1.079-0.483c0.917-0.02,1.451,0.719,2.098,1.393    c1.141,1.096,0.184,3.327-0.341,4.343c1.029,1.267,1.525,1.633,2.669,2.728c0.642,0.559,0.849,0.815,1.051,0.782l0.196-0.149    C452.529,85.379,450.918,79.671,446.018,76.042z"/>
	</g>
	<g>
		<g>
			<path style="fill:#FD8A02;" d="M76.392,48.406c0,4.971,4.03,9.001,9.002,9.001c4.971,0,9.001-4.03,9.001-9.001     c0-4.972-4.03-9.002-9.001-9.002C80.422,39.405,76.392,43.435,76.392,48.406z"/>
			<path style="fill:#FD8A02;" d="M462.393,118.131c0,4.971,4.03,9.001,9.001,9.001s9.002-4.03,9.002-9.001     c0-4.972-4.03-9.002-9.002-9.002S462.393,113.159,462.393,118.131z"/>
			<circle style="fill:#FD8A02;" cx="9.867" cy="387.386" r="9.001"/>
			<circle style="fill:#FD8A02;" cx="498.445" cy="388.978" r="9.001"/>
		</g>
		<g>
			<path style="fill:#FC09B2;" d="M472.053,476.001c-2.985-3.883-6.343-7.27-9.817-10.507c-2.137-1.972-4.349-3.847-6.594-5.678     c2.245-1.831,4.457-3.707,6.595-5.679c3.472-3.237,6.832-6.624,9.816-10.507c0.245-0.321,0.322-0.76,0.162-1.163     c-0.243-0.609-0.933-0.906-1.543-0.664c-4.55,1.812-8.724,4.121-12.785,6.58c-1.742,1.068-3.445,2.189-5.133,3.327     c-0.107-1.675-0.216-3.35-0.394-5.026c-0.488-4.373-1.163-8.747-2.461-13.12c-0.113-0.37-0.406-0.686-0.805-0.805     c-0.632-0.188-1.297,0.173-1.485,0.805c-1.298,4.373-1.974,8.747-2.462,13.12c-0.176,1.673-0.285,3.345-0.392,5.018     c-1.679-1.134-3.37-2.252-5.102-3.316c-4.056-2.465-8.228-4.777-12.779-6.588c-0.387-0.153-0.845-0.105-1.2,0.167     c-0.538,0.413-0.638,1.182-0.226,1.72c2.983,3.885,6.345,7.268,9.822,10.499c2.128,1.956,4.327,3.817,6.56,5.633     c-2.233,1.816-4.432,3.677-6.56,5.633c-3.477,3.23-6.839,6.614-9.822,10.499c-0.253,0.331-0.332,0.785-0.167,1.2     c0.251,0.629,0.964,0.937,1.592,0.686c4.551-1.811,8.723-4.123,12.779-6.588c1.727-1.061,3.412-2.175,5.085-3.306     c0.104,1.662,0.21,3.323,0.383,4.985c0.48,4.373,1.151,8.747,2.451,13.12c0.118,0.382,0.419,0.708,0.831,0.831     c0.653,0.194,1.34-0.178,1.534-0.831c1.301-4.373,1.972-8.747,2.452-13.12c0.174-1.664,0.279-3.329,0.383-4.993     c1.684,1.134,3.38,2.251,5.116,3.316c4.061,2.458,8.235,4.768,12.785,6.58c0.376,0.148,0.819,0.102,1.162-0.162     C472.355,477.267,472.452,476.521,472.053,476.001z"/>
			<path style="fill:#FC09B2;" d="M91.589,137.868c-2.985-3.883-6.343-7.27-9.817-10.507c-2.137-1.972-4.349-3.847-6.594-5.678     c2.245-1.831,4.457-3.707,6.595-5.679c3.472-3.237,6.832-6.624,9.816-10.507c0.245-0.321,0.322-0.76,0.162-1.163     c-0.243-0.609-0.933-0.907-1.543-0.664c-4.55,1.812-8.724,4.121-12.785,6.58c-1.742,1.068-3.445,2.189-5.133,3.327     c-0.107-1.675-0.216-3.35-0.394-5.026c-0.488-4.373-1.163-8.747-2.461-13.12c-0.113-0.371-0.406-0.686-0.805-0.805     c-0.632-0.188-1.297,0.173-1.485,0.805c-1.298,4.373-1.974,8.747-2.462,13.12c-0.176,1.673-0.285,3.345-0.392,5.018     c-1.679-1.134-3.37-2.252-5.101-3.316c-4.057-2.465-8.228-4.777-12.779-6.588c-0.387-0.153-0.845-0.105-1.2,0.167     c-0.538,0.413-0.638,1.182-0.226,1.72c2.982,3.885,6.345,7.268,9.822,10.499c2.128,1.956,4.328,3.817,6.56,5.633     c-2.233,1.816-4.432,3.677-6.56,5.633c-3.477,3.23-6.839,6.614-9.821,10.499c-0.253,0.331-0.332,0.785-0.167,1.2     c0.251,0.629,0.964,0.937,1.592,0.686c4.552-1.811,8.723-4.123,12.779-6.588c1.726-1.061,3.412-2.175,5.085-3.306     c0.104,1.662,0.209,3.323,0.382,4.985c0.48,4.373,1.151,8.747,2.451,13.12c0.117,0.382,0.419,0.708,0.831,0.831     c0.653,0.194,1.34-0.178,1.534-0.831c1.301-4.373,1.972-8.747,2.452-13.12c0.174-1.664,0.28-3.329,0.383-4.992     c1.684,1.134,3.38,2.251,5.117,3.316c4.061,2.458,8.235,4.767,12.785,6.58c0.376,0.148,0.819,0.102,1.162-0.162     C91.891,139.133,91.988,138.388,91.589,137.868z"/>
			<path style="fill:#FC09B2;" d="M71.974,456.512c-2.379-3.097-5.058-5.797-7.827-8.378c-1.704-1.572-3.468-3.068-5.258-4.528     c1.79-1.46,3.553-2.956,5.259-4.528c2.769-2.581,5.448-5.282,7.827-8.378c0.195-0.256,0.257-0.606,0.129-0.927     c-0.194-0.486-0.744-0.722-1.23-0.529c-3.628,1.445-6.956,3.286-10.194,5.247c-1.389,0.851-2.747,1.745-4.093,2.652     c-0.086-1.336-0.173-2.671-0.314-4.007c-0.389-3.487-0.927-6.974-1.963-10.462c-0.09-0.295-0.323-0.547-0.642-0.642     c-0.504-0.15-1.035,0.138-1.184,0.642c-1.035,3.487-1.574,6.975-1.963,10.462c-0.14,1.334-0.227,2.668-0.313,4.001     c-1.338-0.905-2.687-1.796-4.068-2.644c-3.235-1.966-6.561-3.809-10.19-5.253c-0.309-0.122-0.674-0.084-0.957,0.133     c-0.429,0.329-0.509,0.943-0.181,1.371c2.378,3.098,5.059,5.796,7.832,8.371c1.697,1.56,3.451,3.043,5.231,4.491     c-1.781,1.448-3.534,2.932-5.231,4.491c-2.773,2.576-5.453,5.274-7.831,8.372c-0.202,0.264-0.265,0.626-0.133,0.957     c0.2,0.502,0.768,0.747,1.27,0.547c3.629-1.444,6.956-3.287,10.19-5.253c1.377-0.846,2.721-1.734,4.055-2.636     c0.083,1.325,0.167,2.65,0.305,3.975c0.383,3.487,0.918,6.974,1.954,10.462c0.094,0.305,0.334,0.565,0.663,0.663     c0.521,0.155,1.069-0.142,1.223-0.663c1.037-3.487,1.573-6.975,1.955-10.462c0.138-1.327,0.223-2.654,0.306-3.981     c1.343,0.904,2.695,1.795,4.08,2.644c3.238,1.96,6.567,3.802,10.194,5.247c0.3,0.118,0.653,0.082,0.927-0.129     C72.214,457.521,72.292,456.926,71.974,456.512z"/>
			<path style="fill:#FC09B2;" d="M306.308,34.521c-2.38-3.097-5.058-5.797-7.827-8.378c-1.704-1.572-3.468-3.068-5.258-4.528     c1.79-1.46,3.553-2.956,5.259-4.528c2.769-2.581,5.448-5.282,7.827-8.378c0.195-0.256,0.257-0.606,0.129-0.927     c-0.194-0.486-0.744-0.723-1.231-0.529c-3.628,1.445-6.956,3.286-10.194,5.246c-1.389,0.852-2.747,1.745-4.093,2.652     c-0.086-1.336-0.173-2.672-0.314-4.007c-0.389-3.487-0.927-6.975-1.963-10.462c-0.09-0.295-0.323-0.547-0.642-0.642     c-0.504-0.15-1.034,0.138-1.184,0.642c-1.035,3.487-1.574,6.974-1.963,10.462c-0.141,1.334-0.227,2.667-0.313,4.001     c-1.338-0.904-2.687-1.796-4.068-2.644c-3.235-1.966-6.561-3.81-10.189-5.253c-0.309-0.122-0.674-0.084-0.957,0.133     c-0.429,0.329-0.509,0.943-0.181,1.371c2.378,3.098,5.059,5.795,7.832,8.371c1.697,1.56,3.451,3.044,5.231,4.491     c-1.781,1.448-3.534,2.932-5.231,4.492c-2.773,2.576-5.453,5.274-7.831,8.371c-0.202,0.264-0.265,0.626-0.133,0.957     c0.2,0.502,0.768,0.747,1.27,0.547c3.629-1.444,6.956-3.287,10.189-5.253c1.377-0.846,2.721-1.734,4.055-2.636     c0.083,1.325,0.167,2.65,0.305,3.975c0.382,3.487,0.918,6.974,1.954,10.462c0.094,0.305,0.334,0.565,0.663,0.663     c0.521,0.155,1.069-0.142,1.223-0.663c1.037-3.487,1.573-6.974,1.955-10.462c0.138-1.327,0.223-2.654,0.306-3.981     c1.342,0.904,2.695,1.795,4.08,2.644c3.238,1.96,6.567,3.801,10.194,5.246c0.3,0.119,0.653,0.082,0.927-0.129     C306.548,35.529,306.626,34.935,306.308,34.521z"/>
		</g>
		<g>
			<path style="fill:#6280FF;" d="M57.838,191.212c0.266,4.68-1.646,8.123-5.159,10.741c-4.15,3.091-7.825,2.174-6.322,5.303     c1.989,4.142,5.187,7.171,9.221,9.186c3.618,1.807,3.62,1.582,4.64-2.003c1.495-5.247,4.946-8.723,10.161-10.461     c5.623-1.874,11.972,3.361,9.625,9.875c-4.043,11.219-17.274,8.35-10.41,14.031c4.739,3.922,12.12,3.105,11.286,7.221     c-0.379,1.872-2.679,2.641-4.315,2.277c-6.486-1.446-12.036-4.374-15.238-10.494c-1.01-1.931-2.306-2.929-4.336-3.547     c-6.719-2.048-11.758-6.31-15.322-12.314c-2.931-4.94-1.013-6.362-5.338-8.215c-6.717-2.878-11.804-10.895-9.078-19.494     c1.451-4.575,5.336-3.496,5.107-1.294c-0.34,3.254-2.647,9.342,5.256,15.048c1.623,1.171,1.796-1.438,3.175-4.034     c2.929-5.511,9.096-9.316,14.506-6.156C56.987,187.867,57.64,189.544,57.838,191.212z M72.548,209.736     c-4.512,0.224-7.87,6.925-6.375,8.127c1.148,0.923,6.593-1.663,8.058-5.773C74.654,210.907,73.75,209.677,72.548,209.736z      M46.607,198.286c4.194-0.081,7.076-7.063,4.228-6.58C47.079,192.344,43.96,198.336,46.607,198.286z"/>
			<path style="fill:#6280FF;" d="M432.927,353.517c2.18-4.149,5.59-6.119,9.95-6.555c5.149-0.515,7.828,2.162,8.149-1.294     c0.426-4.575-0.758-8.818-3.18-12.621c-2.172-3.411-2.29-3.219-5.01-0.671c-3.982,3.731-8.73,4.935-14.095,3.742     c-3.067-0.682-4.923-2.772-5.72-5.512c-2.266-7.794,7.171-12.061,15.523-10.896c3.702,0.516,4.378-0.26,3.17-3.686     c-1.282-3.637-5.149-7.102-6.143-8.796c-1.932-3.294,2.35-5.501,5.053-2.935c4.818,4.577,8.07,9.944,7.666,16.839     c-0.127,2.176,0.471,3.698,1.893,5.272c7.577,8.391,7.427,19.866,6.245,22.794c-2.248,5.566,6.193,6.881,3.346,19.497     c-0.82,3.631-4.403,8.401-7.759,8.749c-1.774,0.183-2.815-1.814-1.97-2.939c1.975-2.627,7.077-6.649,3.235-15.608     c-0.788-1.839-2.28,0.309-4.798,1.825c-5.347,3.219-12.592,3.308-15.606-2.185C431.936,356.823,432.239,355.049,432.927,353.517z      M429.844,330.064c2.567,1.372,6.751,0.328,9.303-2.386c2.423-2.574-5.595-3.735-9.536-0.5     C428.641,327.976,428.783,329.497,429.844,330.064z M446.197,353.229c-3.634-2.086-9.702,2.415-7.011,3.467     C441.49,357.595,448.489,354.547,446.197,353.229z"/>
		</g>
	</g>
</g>















</svg>
