<?xml version="1.0" encoding="UTF-8"?>
<!-- Generator: Adobe Illustrator 25.2.3, SVG Export Plug-In . SVG Version: 6.00 Build 0)  -->
<svg xmlns="http://www.w3.org/2000/svg" xmlns:xlink="http://www.w3.org/1999/xlink" version="1.1" id="Capa_1" x="0px" y="0px" viewBox="0 0 512 512" style="enable-background:new 0 0 512 512;" xml:space="preserve" width="512" height="512">
<g>
	<path style="fill:#7C3E25;" d="M81.532,182.593c-17.767,8.805-32.853,13.889-37.814,9.173   c-14.625-13.859,32.824-70.05,32.824-70.05s-26.944,2.032-32.053-4.618c-5.139-6.688,33.873-12.597,33.873-12.597   S18.809,86.031,20.35,50.614c1.541-35.406,137.297-63.887,229.151-18.719c0,0-13.089-29.247-5.147-31.808   c7.975-2.579,80.827,53.117,80.827,53.117s-7.945-32.329,5.913-33.627c13.855-1.292,35.414,47.728,35.414,47.728   s33.62-35.652,55.421-21.551c21.805,14.101-30.267,81.356-5.634,82.617c24.632,1.288,81.076-21.558,74.917,12.839   c-4.41,24.57-52.131,63.154-70.329,92.342l-6.137,47.14l-293.452,53.727V204.334L81.532,182.593z"/>
	<path style="fill:#7C3E25;" d="M335.2,389.851c0,0,55.942,13.338,70.824,5.638c14.879-7.689-34.382-24.886-11.295-30.017   c23.099-5.132,68.003-9.754,54.914-29.512c-13.088-19.754-64.66-38.998-45.934-56.191l-101.865,27.967L335.2,389.851z"/>
	<path style="fill:#FFDEC7;" d="M315.945,275.151c40.583-38.216,80.645-47.669,104.939-41.599   c23.062,5.727,31.99,25.399,13.885,47.758c-37.223,45.938-110.603,46.95-110.603,46.95l28.484,90.072   c0,0-65.431,95.665-135.481,93.636c-32.302-0.926-41.696-17.335-38.644-34.275l-113.777,4.525   C44.737,382.914,96.31,225.643,96.31,225.643l-31.562-3.61l16.784-39.44c34.513-17.063,79.193-48.067,79.193-48.067   c5.389,61.859,135.976,31.071,135.976,31.071s-24.108,50.285-13.844,54.383c10.264,4.108,24.119-6.673,24.119-6.673   S280.688,257.968,315.945,275.151z"/>
	<g>
		<path style="fill:#FFFFFF;" d="M200.039,352.126c38.069-16.074,25.459-54.368,34.03-43.739    c18.208,20.122,34.346,64.54,0.321,85.211c0.002-0.001-24.537,9.915-24.537,9.915L200.039,352.126z"/>
		<path style="fill:#091438;" d="M173.546,325.767l4.429,31.83c57.293-2.992,53.816-50.214,53.816-50.214    c62.354,85.345-31.562,96.856-31.562,96.856l23.1,35.645c-23.836-2.862-47.371,24.688-45.209,46.553    c0,0,11.336-45.786,50.977-44.245l-23.669-36.757c0,0,46.489-8.079,50.568-40.989c4.086-32.909-26.128-61.583-26.128-61.583    s1.924,48.885-49.842,52.153l-4.042-30.215L173.546,325.767z"/>
		
			<rect x="218.85" y="344.871" transform="matrix(0.9326 -0.3609 0.3609 0.9326 -119.0801 104.5411)" style="fill:#091438;" width="3.08" height="52.521"/>
		
			<rect x="232.827" y="332.562" transform="matrix(0.8435 -0.5372 0.5372 0.8435 -155.9345 182.0273)" style="fill:#091438;" width="3.079" height="52.028"/>
		<polygon style="fill:#091438;" points="254.02,356.7 225.918,324.758 228.233,322.726 256.334,354.668   "/>
		<path style="fill:#091438;" d="M203.325,370.551l-0.119-3.074c28.138-1.061,42.206-38.588,42.347-38.968l2.888,1.057    C247.845,331.193,233.503,369.416,203.325,370.551z"/>
		<path style="fill:#091438;" d="M225.13,308.514c0,0,4.868-7.451,20.777-5.653c0,0-15.139-7.436-22.578,0L225.13,308.514z"/>
		<path style="fill:#091438;" d="M203.828,323.742l-52.864,7.86l1.794-102.896c0,0,8.47,70.816,2.572,97.25l44.71-2.698    c0,0-1.09-12.445-10.071-2.434C189.969,320.824,201.003,304.591,203.828,323.742z"/>
	</g>
	<g>
		<path style="fill:#FFFFFF;" d="M169.791,301.547l75.215-17.584c0,0-21.298-34.044-48.498-27.461    C169.31,263.089,169.791,301.547,169.791,301.547z"/>
		<path style="fill:#091438;" d="M219.447,271.704c0,5.85-3.982,10.588-8.902,10.588c-4.916,0-8.902-4.737-8.902-10.588    c0-5.839,3.986-10.58,8.902-10.58C215.465,261.124,219.447,265.865,219.447,271.704z"/>
	</g>
	<g>
		<path style="fill:#FFFFFF;" d="M84.576,298.012l62.733,5.177c0,0-8.005-31.726-30.747-33.427    C93.824,268.069,84.576,298.012,84.576,298.012z"/>
		<path style="fill:#091438;" d="M130.551,287.294c-1.463,4.529-5.735,7.205-9.549,5.984c-3.811-1.236-5.72-5.913-4.261-10.442    c1.466-4.533,5.739-7.208,9.553-5.977C130.108,278.091,132.021,282.761,130.551,287.294z"/>
	</g>
	<path style="fill:#7C3E25;" d="M99.707,254.198c5.657-19.268,29.89-25.592,44.36-11.931l0.402,1.488   c-11.374,4.09-32.838,9.845-44.36,11.931L99.707,254.198z"/>
	<path style="fill:#7C3E25;" d="M172.265,231.14c15.862-17.391,47.317-17.181,63.12,0v1.541c-18.858,0.931-44.261,0.938-63.12,0   V231.14z"/>
	<path style="fill:#091438;" d="M405.775,273.632c0,0-13.61-15.5-39.78-9.832c-26.177,5.66-47.118,43.582-11.522,46.288   c35.596,2.713,23.386-18.712,10.472-20.926l20.941-1.746h-30.014c0,0,25.061,12.839,14.801,18.5   c-10.264,5.653-40.11,1.21-28.414-19.664C362.851,249.517,405.775,273.632,405.775,273.632z"/>
	<g style="opacity:0.2;">
		<path style="fill:#FFFFFF;" d="M144.388,88.856c0,0,35.339,74.664,128.366,47.981c93.03-26.683,65.848,88.784,65.848,88.784    s28.99-97.511-30.81-96.483C247.987,130.165,212.346,165.061,144.388,88.856z"/>
		<path style="fill:#FFFFFF;" d="M40.115,62.437c0,0,19.158-67.232,215.881-12.832C255.995,49.605,85.789,8.55,40.115,62.437z"/>
		<path style="fill:#FFFFFF;" d="M177.397,88.856c0,0,15.136,48.524,101.352,18.749c86.22-29.78,98.169,96.986,98.169,96.986    s-6.308-113.42-62.242-108.798C258.735,100.411,224.352,133.752,177.397,88.856z"/>
	</g>
	<path style="fill:#091438;" d="M235.029,292.742c32.423-4.732,56.281,27.074,68.04,53.247   c-12.308-24.84-36.016-55.488-67.325-50.255L235.029,292.742z"/>
	<path style="fill:#091438;" d="M145.169,325.127c-19.346,9.185-26.3,34.754-22.742,54.438c-4.694-20.34,1.732-46.805,21.402-57.207   L145.169,325.127z"/>
</g>















</svg>
