<?xml version="1.0" encoding="UTF-8"?>
<!-- Generator: Adobe Illustrator 25.4.1, SVG Export Plug-In . SVG Version: 6.00 Build 0)  -->
<svg xmlns="http://www.w3.org/2000/svg" xmlns:xlink="http://www.w3.org/1999/xlink" version="1.1" id="Capa_1" x="0px" y="0px" viewBox="0 0 512 512" style="enable-background:new 0 0 512 512;" xml:space="preserve" width="512" height="512">
<g>
	<g>
		<g>
			<g>
				<path style="fill:#322BBF;" d="M331.193,503.621c-57.536,6.182-98.675,6.084-155.219,0c-31.867-3.416-53.095-12.737-64.417-25.1      c-20.854-22.79-7.955-55.942,34.323-81.514c14.104-8.523,29.525-15.112,45.678-19.797c39.919-11.566,84.279-11.468,123.938,0      c16.267,4.685,31.737,11.306,45.792,19.797c2.928,1.774,5.71,3.579,8.345,5.417      C425.899,441.498,417.734,494.349,331.193,503.621z"/>
				<g>
					<path style="fill:#6280FF;" d="M381.596,439.93h0.012c7.293-0.003,13.299-5.463,14.186-12.517       c-3.802-5.44-8.724-10.843-14.721-16.09c-7.657,0.281-13.782,6.557-13.788,14.28v0.02       C367.291,433.524,373.696,439.927,381.596,439.93z"/>
					<path style="fill:#6280FF;" d="M403.316,442.073c-2.463,1.891-4.057,4.856-4.057,8.201c0,4.059,2.344,7.562,5.746,9.255       C405.855,453.909,405.28,448.037,403.316,442.073z"/>
					<path style="fill:#6280FF;" d="M381.602,461.182c-7.903,0-14.311,6.404-14.316,14.307v0.019       c0.005,7.67,6.044,13.909,13.624,14.272c6.022-3.346,10.908-7.138,14.686-11.271c0.208-0.971,0.323-1.977,0.323-3.011       C395.919,467.592,389.509,461.182,381.602,461.182z"/>
					<path style="fill:#6280FF;" d="M328.936,390.045h0.012c4.034-0.002,7.671-1.678,10.273-4.364       c-7.658-3.302-15.592-6.129-23.725-8.471c-0.267-0.077-0.539-0.141-0.807-0.217       C315.33,384.305,321.459,390.042,328.936,390.045z"/>
					<path style="fill:#6280FF;" d="M356.942,410.731c5.563,0,10.087-4.396,10.321-9.901c-1.927-1.288-3.901-2.567-5.976-3.824       c-3.168-1.913-6.418-3.719-9.723-5.442c-2.974,1.817-4.966,5.083-4.966,8.823C346.599,406.101,351.23,410.731,356.942,410.731z       "/>
					<path style="fill:#6280FF;" d="M328.942,411.297c-7.903,0-14.311,6.404-14.317,14.307v0.02       c0.006,7.901,6.41,14.304,14.311,14.307h0.012c7.904-0.003,14.311-6.411,14.311-14.317       C343.259,417.707,336.849,411.297,328.942,411.297z"/>
					<path style="fill:#6280FF;" d="M356.942,439.93c-5.712,0-10.343,4.632-10.343,10.344c0,5.713,4.631,10.343,10.343,10.343       c5.713,0,10.344-4.631,10.344-10.343C367.286,444.562,362.655,439.93,356.942,439.93z"/>
					<path style="fill:#6280FF;" d="M328.942,461.182c-7.903,0-14.311,6.404-14.317,14.307v0.019       c0.006,7.901,6.411,14.305,14.313,14.307h0.008c7.905-0.003,14.313-6.412,14.313-14.317       C343.259,467.592,336.849,461.182,328.942,461.182z"/>
					<path style="fill:#6280FF;" d="M356.942,489.816c-5.712,0-10.343,4.631-10.343,10.343c0,0.404,0.029,0.801,0.074,1.193       c7.303-1.386,13.898-3.137,19.807-5.198C364.915,492.431,361.235,489.816,356.942,489.816z"/>
					<path style="fill:#6280FF;" d="M263.739,368.828c-1.127,2.044-1.772,4.391-1.774,6.89v0.019       c0.006,7.901,6.41,14.304,14.311,14.307h0.012c7.904-0.003,14.31-6.412,14.31-14.317c0-1.463-0.222-2.875-0.63-4.204       C281.318,370.123,272.55,369.22,263.739,368.828z"/>
					<circle style="fill:#6280FF;" cx="304.282" cy="400.388" r="10.343"/>
					<path style="fill:#6280FF;" d="M276.282,411.297c-7.904,0-14.311,6.404-14.317,14.307v0.02       c0.006,7.901,6.41,14.304,14.311,14.307h0.012c7.904-0.003,14.31-6.411,14.31-14.317       C290.598,417.707,284.189,411.297,276.282,411.297z"/>
					<path style="fill:#6280FF;" d="M304.282,439.93c-5.713,0-10.343,4.632-10.343,10.344c0,5.713,4.631,10.343,10.343,10.343       c5.712,0,10.343-4.631,10.343-10.343C314.625,444.562,309.994,439.93,304.282,439.93z"/>
					<path style="fill:#6280FF;" d="M276.282,461.182c-7.904,0-14.311,6.404-14.317,14.307v0.019       c0.006,7.901,6.411,14.305,14.313,14.307h0.008c7.905-0.003,14.312-6.412,14.312-14.317       C290.598,467.592,284.189,461.182,276.282,461.182z"/>
					<path style="fill:#6280FF;" d="M304.282,489.816c-5.713,0-10.343,4.631-10.343,10.343c0,2.491,0.882,4.777,2.349,6.562       c5.513-0.373,11.139-0.817,16.906-1.33c0.904-1.536,1.432-3.32,1.432-5.232C314.625,494.446,309.994,489.816,304.282,489.816z"/>
					<path style="fill:#6280FF;" d="M209.592,372.865c-0.187,0.922-0.286,1.876-0.287,2.854v0.019       c0.006,7.901,6.41,14.304,14.311,14.307h0.011c7.904-0.003,14.311-6.412,14.311-14.317c0-2.342-0.573-4.545-1.57-6.497       C227.359,369.905,218.408,371.122,209.592,372.865z"/>
					<path style="fill:#6280FF;" d="M251.622,390.045c-5.713,0-10.344,4.631-10.344,10.343c0,5.712,4.631,10.343,10.344,10.343       c5.712,0,10.343-4.631,10.343-10.343C261.965,394.676,257.334,390.045,251.622,390.045z"/>
					<path style="fill:#6280FF;" d="M223.621,411.297c-7.903,0-14.311,6.404-14.316,14.307v0.02       c0.006,7.901,6.41,14.304,14.311,14.307h0.011c7.904-0.003,14.311-6.411,14.311-14.317       C237.938,417.707,231.528,411.297,223.621,411.297z"/>
					<path style="fill:#6280FF;" d="M251.622,439.93c-5.713,0-10.344,4.632-10.344,10.344c0,5.713,4.631,10.343,10.344,10.343       c5.712,0,10.343-4.631,10.343-10.343C261.965,444.562,257.334,439.93,251.622,439.93z"/>
					<path style="fill:#6280FF;" d="M223.621,461.182c-7.903,0-14.311,6.404-14.316,14.307v0.019       c0.006,7.901,6.41,14.305,14.312,14.307h0.008c7.905-0.003,14.313-6.412,14.313-14.317       C237.938,467.592,231.528,461.182,223.621,461.182z"/>
					<path style="fill:#6280FF;" d="M251.622,489.816c-5.713,0-10.344,4.631-10.344,10.343c0,3.223,1.476,6.101,3.786,7.998       c4.354,0.062,8.699,0.078,13.055,0.044c2.344-1.896,3.846-4.792,3.846-8.042C261.965,494.446,257.334,489.816,251.622,489.816z       "/>
					<path style="fill:#6280FF;" d="M170.967,390.045c6.667-0.003,12.253-4.569,13.843-10.741       c-7.377,2.416-14.577,5.245-21.547,8.482c2.223,1.422,4.858,2.257,7.693,2.259H170.967z"/>
					<path style="fill:#6280FF;" d="M198.961,390.045c-5.712,0-10.343,4.631-10.343,10.343c0,5.712,4.631,10.343,10.343,10.343       c5.713,0,10.344-4.631,10.344-10.343C209.305,394.676,204.674,390.045,198.961,390.045z"/>
					<path style="fill:#6280FF;" d="M170.961,411.297c-7.903,0-14.311,6.404-14.316,14.307v0.02       c0.005,7.901,6.409,14.304,14.31,14.307h0.011c7.904-0.003,14.311-6.411,14.311-14.317       C185.278,417.707,178.868,411.297,170.961,411.297z"/>
					<path style="fill:#6280FF;" d="M198.961,439.93c-5.712,0-10.343,4.632-10.343,10.344c0,5.713,4.631,10.343,10.343,10.343       c5.713,0,10.344-4.631,10.344-10.343C209.305,444.562,204.674,439.93,198.961,439.93z"/>
					<path style="fill:#6280FF;" d="M170.961,461.182c-7.903,0-14.311,6.404-14.316,14.307v0.019       c0.005,7.901,6.41,14.305,14.312,14.307h0.008c7.906-0.003,14.313-6.412,14.313-14.317       C185.278,467.592,178.868,461.182,170.961,461.182z"/>
					<path style="fill:#6280FF;" d="M198.961,489.816c-5.712,0-10.343,4.631-10.343,10.343c0,1.756,0.441,3.408,1.213,4.857       c5.908,0.554,11.67,1.038,17.316,1.449c1.348-1.747,2.158-3.929,2.158-6.306C209.305,494.446,204.674,489.816,198.961,489.816z       "/>
					<path style="fill:#6280FF;" d="M145.88,397.007c-3.364,2.036-6.521,4.123-9.512,6.245c1.243,4.318,5.215,7.479,9.933,7.479       c5.712,0,10.343-4.631,10.343-10.343c0-3.007-1.291-5.706-3.34-7.596C150.797,394.147,148.312,395.538,145.88,397.007z"/>
					<path style="fill:#6280FF;" d="M124.515,412.73c-7.796,7.088-13.629,14.437-17.436,21.757c2.621,3.31,6.666,5.441,11.216,5.442       h0.012c7.904-0.003,14.311-6.411,14.311-14.317C132.618,419.936,129.305,415.046,124.515,412.73z"/>
					<path style="fill:#6280FF;" d="M146.301,439.93c-5.713,0-10.343,4.632-10.343,10.344c0,5.713,4.631,10.343,10.343,10.343       c5.712,0,10.343-4.631,10.343-10.343C156.644,444.562,152.013,439.93,146.301,439.93z"/>
					<path style="fill:#6280FF;" d="M118.301,461.182c-5.768,0-10.726,3.418-12.994,8.334c1.561,3.141,3.641,6.154,6.251,9.005       c3.329,3.635,7.539,6.998,12.599,10.034c4.985-2.239,8.462-7.237,8.462-13.056       C132.618,467.592,126.208,461.182,118.301,461.182z"/>
					<path style="fill:#6280FF;" d="M146.301,489.816c-3.801,0-7.114,2.056-8.912,5.111c5.703,2.202,12.114,4.09,19.235,5.621       c0.005-0.13,0.02-0.258,0.02-0.389C156.644,494.446,152.013,489.816,146.301,489.816z"/>
					<path style="fill:#6280FF;" d="M101.844,456.555c1.337-1.743,2.14-3.916,2.14-6.281c0-1.687-0.412-3.274-1.128-4.681       C101.968,449.31,101.624,452.976,101.844,456.555z"/>
				</g>
				<path style="opacity:0.25;fill:#000E3F;" d="M331.193,503.621c-57.536,6.182-98.675,6.084-155.219,0      c-31.867-3.416-53.095-12.737-64.417-25.1c20.285-18.642,64.645-11.468,88.492-10.15c41.334,2.294,91.941,3.773,131.079-11.891      c27.215-10.883,30.68-29.296,38.504-54.055C425.899,441.498,417.734,494.349,331.193,503.621z"/>
			</g>
			<path style="fill:#000E3F;" d="M253.55,510.193c-24.546,0-49.08-1.544-77.784-4.634c-30.533-3.273-53.234-12.166-65.646-25.72     c-8.115-8.87-11.542-19.557-9.909-30.908c2.701-18.773,18.561-37.804,44.66-53.592c13.978-8.446,29.502-15.174,46.145-19.999     c40.274-11.671,84.673-11.669,125.021-0.002c16.672,4.802,32.236,11.53,46.259,19.999c2.961,1.795,5.804,3.642,8.451,5.489     c27.362,19.001,40.633,42.349,35.498,62.453c-5.718,22.386-32.999,37.797-74.844,42.281     C302.652,508.649,278.095,510.193,253.55,510.193z M253.498,370.485c-20.81,0-41.61,2.865-61.397,8.6     c-16.315,4.729-31.526,11.321-45.213,19.59c-24.717,14.951-40.324,33.471-42.818,50.812c-1.46,10.156,1.626,19.742,8.926,27.719     c11.761,12.842,33.612,21.307,63.187,24.477c57.102,6.146,97.612,6.146,154.803,0h0.001     c40.135-4.301,66.189-18.649,71.482-39.369c4.716-18.461-7.975-40.251-33.948-58.287c-2.583-1.803-5.355-3.602-8.242-5.352     c-13.728-8.292-28.977-14.883-45.322-19.59C295.13,373.352,274.309,370.485,253.498,370.485z"/>
		</g>
		<g>
			<g>
				<path style="fill:#FF8EDE;" d="M295.843,404.786c-7.108,18.577-26.434,31.233-46.377,29.622      c-37.268-3.009-47.37-42.879-40.196-75.413c3.871-17.617,12.834-33.087,25.279-39.399      c33.184-16.804,55.828,10.834,62.823,41.953C300.772,376.725,300.463,392.716,295.843,404.786z"/>
				<path style="opacity:0.5;fill:#FC09B2;" d="M297.372,361.548c-0.439,1.643,0.02,2.38-0.566,3.91      c-7.108,18.578-27.397,32.057-47.34,30.446c-22.855-1.854-37.399-17.973-42.1-37.33c3.871-17.617,14.739-32.666,27.183-38.978      C267.734,302.792,290.378,330.43,297.372,361.548z"/>
			</g>
			<path style="fill:#000E3F;" d="M252.852,436.494c-1.18,0-2.36-0.048-3.543-0.143c-13.597-1.099-24.853-7.184-32.551-17.596     c-10.767-14.563-14.365-37.624-9.391-60.181c4.24-19.29,14.072-34.514,26.301-40.717c12.582-6.369,24.418-7.025,35.184-1.951     c14.19,6.689,25.563,23.592,30.424,45.214c3.606,16.1,3.019,32.268-1.611,44.364l0,0     C290.616,423.901,272.147,436.494,252.852,436.494z M253.942,316.449c-5.895,0-12.082,1.63-18.512,4.886     c-11.196,5.679-20.264,19.915-24.256,38.078c-4.739,21.49-1.397,43.339,8.718,57.023c7.109,9.617,17.113,15.009,29.731,16.027     c18.843,1.531,37.525-10.41,44.399-28.374l0,0c4.363-11.397,4.89-26.748,1.449-42.115c-4.599-20.458-15.171-36.361-28.282-42.541     C262.97,317.443,258.545,316.449,253.942,316.449z"/>
		</g>
		<g>
			<g>
				<g>
					<g>
						<path style="fill:#DB5E43;" d="M426.409,324.356c1.72,14.585-2.882,28.468-11.651,38.873        c-8.078,9.59-19.649,16.248-33.088,17.833c-28.007,3.304-53.402-16.733-56.706-44.74c-1.044-8.854,0.247-17.464,3.395-25.184        c6.777-16.678,22.191-29.261,41.344-31.521C397.728,276.312,423.105,296.35,426.409,324.356z"/>
						<g style="opacity:0.45;">
							<path style="fill:#000E3F;" d="M382.048,295.94c4.557,1.031,8.559,3.037,12.309,5.64c3.735,2.595,6.998,5.928,9.664,9.711         c1.368,1.869,2.397,3.971,3.451,6.027c0.797,2.183,1.77,4.296,2.148,6.59c1.16,4.471,1.087,9.127,0.421,13.524         c-0.163,1.077-1.169,1.819-2.246,1.655c-0.815-0.123-1.437-0.729-1.622-1.482l-0.045-0.185         c-0.984-4.043-1.706-7.915-3.195-11.52c-1.327-3.634-3.103-7.043-5.321-10.17c-2.133-3.184-4.713-6.099-7.563-8.826         c-2.855-2.682-6.084-5.236-9.316-7.528l-0.166-0.117c-0.835-0.592-1.032-1.749-0.439-2.583         C380.573,296.047,381.34,295.781,382.048,295.94z"/>
							<path style="fill:#000E3F;" d="M378.322,317.973c3.719,2.827,6.53,6.312,8.863,10.235c2.324,3.91,3.911,8.296,4.768,12.844         c0.47,2.268,0.535,4.607,0.642,6.915c-0.18,2.317-0.171,4.643-0.778,6.887c-0.798,4.55-2.795,8.756-5.224,12.481         c-0.595,0.913-1.818,1.17-2.73,0.575c-0.69-0.45-1.006-1.259-0.861-2.022l0.036-0.187c0.781-4.087,1.73-7.91,1.869-11.808         c0.299-3.857,0.096-7.696-0.626-11.46c-0.621-3.781-1.76-7.504-3.223-11.167c-1.486-3.624-3.366-7.287-5.357-10.713         l-0.102-0.176c-0.514-0.885-0.214-2.019,0.671-2.533C376.936,317.459,377.744,317.535,378.322,317.973z"/>
							<path style="fill:#000E3F;" d="M361.127,333.773c2.037,2.7,3.37,5.602,4.413,8.7c1.009,3.089,1.704,6.33,1.827,9.684         c0.126,3.35-0.28,6.798-1.363,10.104c-1.163,3.292-3.127,6.371-5.8,8.553c-0.855,0.698-2.113,0.571-2.811-0.283         c-0.46-0.563-0.562-1.302-0.333-1.939l0.073-0.201c0.986-2.729,1.681-5.228,2.109-7.848c0.335-2.648,0.395-5.332,0.334-8.087         c-0.086-2.757-0.372-5.576-0.709-8.441c-0.354-2.847-0.785-5.818-1.106-8.757l-0.016-0.145         c-0.113-1.036,0.635-1.967,1.671-2.08C360.1,332.959,360.74,333.263,361.127,333.773z"/>
						</g>
						<path style="opacity:0.25;fill:#000E3F;" d="M414.758,363.229c-8.078,9.59-19.649,16.248-33.088,17.833        c-28.007,3.304-53.402-16.733-56.706-44.74c-1.044-8.854,0.247-17.464,3.395-25.184c8.768-0.713,17.772,1.641,24.937,6.75        c10.799,7.721,16.711,20.542,26.113,29.912C388.733,357.107,401.635,362.488,414.758,363.229z"/>
					</g>
					<path style="fill:#000E3F;" d="M375.582,383.371c-11.851,0-23.286-3.951-32.736-11.407       c-11.121-8.773-18.159-21.35-19.818-35.413c-1.048-8.882,0.172-17.925,3.527-26.15c7.281-17.918,23.727-30.455,42.92-32.719       c29.036-3.425,55.444,17.411,58.87,46.446l0,0c1.71,14.497-2.7,29.206-12.096,40.358c-8.722,10.354-20.922,16.93-34.351,18.512       C379.786,383.247,377.678,383.371,375.582,383.371z M375.722,281.213c-1.912,0-3.844,0.11-5.79,0.341       c-17.782,2.096-33.019,13.714-39.766,30.316c-3.107,7.619-4.236,15.995-3.265,24.223c1.537,13.029,8.057,24.681,18.361,32.809       c10.303,8.13,23.154,11.761,36.18,10.222c12.441-1.466,23.744-7.559,31.826-17.153c8.706-10.329,12.79-23.957,11.206-37.387       C421.529,299.63,400.259,281.213,375.722,281.213z"/>
				</g>
				<g>
					<g>
						<path style="fill:#DB5E43;" d="M80.75,324.356c-1.72,14.585,2.882,28.468,11.651,38.873        c8.078,9.59,19.649,16.248,33.088,17.833c28.007,3.304,53.402-16.733,56.705-44.74c1.045-8.854-0.246-17.464-3.395-25.184        c-6.777-16.678-22.191-29.261-41.344-31.521C109.431,276.312,84.053,296.35,80.75,324.356z"/>
						<g style="opacity:0.45;">
							<path style="fill:#000E3F;" d="M126.426,299.376c-3.232,2.292-6.462,4.846-9.316,7.528c-2.85,2.727-5.431,5.642-7.563,8.826         c-2.218,3.126-3.994,6.536-5.321,10.17c-1.49,3.604-2.211,7.477-3.195,11.52l-0.045,0.184         c-0.258,1.059-1.325,1.708-2.384,1.451c-0.801-0.195-1.367-0.855-1.484-1.622c-0.666-4.397-0.739-9.052,0.421-13.524         c0.378-2.294,1.351-4.407,2.148-6.59c1.054-2.056,2.084-4.158,3.452-6.027c2.666-3.783,5.929-7.117,9.664-9.711         c3.75-2.603,7.752-4.609,12.309-5.64c0.998-0.226,1.99,0.4,2.216,1.398c0.17,0.752-0.143,1.5-0.734,1.92L126.426,299.376z"/>
							<path style="fill:#000E3F;" d="M131.458,320.555c-1.991,3.426-3.871,7.089-5.357,10.713         c-1.463,3.663-2.602,7.386-3.223,11.167c-0.722,3.764-0.925,7.603-0.626,11.46c0.139,3.897,1.088,7.72,1.868,11.808         l0.035,0.186c0.205,1.071-0.498,2.104-1.568,2.308c-0.809,0.155-1.598-0.211-2.023-0.86         c-2.429-3.725-4.426-7.931-5.224-12.481c-0.607-2.244-0.598-4.571-0.778-6.887c0.107-2.308,0.172-4.647,0.642-6.915         c0.858-4.548,2.445-8.934,4.768-12.844c2.333-3.923,5.144-7.408,8.863-10.235c0.815-0.619,1.977-0.461,2.596,0.354         c0.466,0.613,0.492,1.424,0.128,2.051L131.458,320.555z"/>
							<path style="fill:#000E3F;" d="M149.398,335.259c-0.321,2.939-0.752,5.91-1.106,8.757c-0.337,2.865-0.622,5.684-0.709,8.441         c-0.061,2.755-0.001,5.439,0.334,8.087c0.427,2.62,1.123,5.118,2.109,7.848l0.071,0.197c0.375,1.038-0.162,2.183-1.2,2.558         c-0.684,0.247-1.417,0.096-1.943-0.332c-2.673-2.183-4.636-5.262-5.8-8.553c-1.082-3.306-1.489-6.754-1.363-10.104         c0.124-3.354,0.819-6.595,1.827-9.684c1.043-3.097,2.376-6,4.413-8.7c0.628-0.832,1.811-0.997,2.642-0.37         c0.549,0.414,0.808,1.07,0.74,1.708L149.398,335.259z"/>
						</g>
						<path style="opacity:0.25;fill:#000E3F;" d="M92.401,363.229c8.078,9.59,19.649,16.248,33.088,17.833        c28.007,3.304,53.402-16.733,56.705-44.74c1.045-8.854-0.246-17.464-3.395-25.184c-8.768-0.713-17.772,1.641-24.937,6.75        c-10.799,7.721-16.711,20.542-26.113,29.912C118.426,357.107,105.524,362.488,92.401,363.229z"/>
					</g>
					<path style="fill:#000E3F;" d="M131.576,383.371c-2.096,0-4.203-0.124-6.316-0.373c-13.428-1.582-25.627-8.158-34.35-18.512       c-9.397-11.151-13.806-25.861-12.097-40.358l0,0c3.423-29.035,29.831-49.875,58.869-46.446       c19.194,2.264,35.641,14.801,42.922,32.723c3.354,8.223,4.572,17.265,3.525,26.147c-1.658,14.063-8.697,26.64-19.818,35.413       C154.863,379.42,143.427,383.371,131.576,383.371z M82.686,324.585c-1.584,13.43,2.5,27.059,11.206,37.387       c8.082,9.594,19.385,15.687,31.825,17.153c13.027,1.534,25.878-2.092,36.18-10.222c10.303-8.128,16.824-19.78,18.36-32.809       c0.971-8.229-0.158-16.604-3.263-24.22c-6.748-16.606-21.986-28.224-39.768-30.32       C110.316,278.39,85.858,297.684,82.686,324.585L82.686,324.585z"/>
				</g>
			</g>
			<g>
				<g>
					<path style="fill:#FF8EDE;" d="M374.086,226.274c-3.588,0.823-6.98,2.266-10.095,4.172       c-4.341-24.112-11.295-40.804-13.929-48.696c-0.321-0.963-0.893-1.533-1.849-1.83c-52.612-16.331-84.901-15.052-88.586-15.659       c-8.432-1.39-60.251,1.899-100.379,15.559c-2.304,0.784-1.837,1.629-4.682,9.227c-4.766,12.727-8.71,26.882-11.338,41.438       c-3.132-1.924-6.543-3.383-10.154-4.211c-26.729-6.13-38.557,24.724-14.562,46.774c7.604,6.988,17.015,10.106,21.998,10.079       c0.409,4.133,0.974,8.203,1.741,12.17c5.635,29.162,20.099,49.117,48.992,62.185c41.377,18.715,98.576,15.341,132.743-4.053       c23.082-13.102,36.843-31.482,41.634-62.008c0.434-2.761,0.75-5.532,1.016-8.294c4.978,0.032,14.4-3.085,22.011-10.079       C412.643,250.998,400.815,220.143,374.086,226.274z"/>
					<g style="opacity:0.5;">
						<path style="fill:#FC09B2;" d="M303.789,302.88c-10.964-9.238-9.391-24.547,2.046-32.725        c11.238-8.036,27.274-6.974,36.335,3.174c10.199,11.424,4.782,29.661-13.558,34.758        C320.566,310.323,310.89,308.863,303.789,302.88z"/>
						<path style="fill:#FC09B2;" d="M203.37,302.88c10.964-9.238,9.391-24.547-2.046-32.725        c-11.238-8.036-27.274-6.974-36.335,3.174c-10.199,11.424-4.782,29.661,13.558,34.758        C186.592,310.323,196.269,308.863,203.37,302.88z"/>
						<path style="fill:#FC09B2;" d="M384.093,245.507c-0.27,2.18-1.044,4.206-2.028,6.114c-1.003,1.898-2.264,3.658-3.723,5.234        c-1.458,1.577-3.119,2.967-4.936,4.111c-1.827,1.126-3.792,2.05-5.947,2.48c-0.982,0.196-1.937-0.442-2.132-1.424        c-0.108-0.542,0.037-1.076,0.355-1.478l0.037-0.047c1.268-1.591,2.577-2.938,3.846-4.304l3.793-3.997l3.778-4.022        c1.294-1.35,2.565-2.743,4.081-4.114l0.034-0.031c0.7-0.633,1.781-0.579,2.413,0.121        C384.009,244.532,384.149,245.034,384.093,245.507z"/>
						<path style="fill:#FC09B2;" d="M125.942,244.061c1.516,1.371,2.787,2.764,4.081,4.114l3.778,4.022l3.793,3.997        c1.269,1.365,2.579,2.713,3.846,4.304l0.032,0.04c0.624,0.783,0.495,1.924-0.288,2.548c-0.432,0.345-0.981,0.458-1.484,0.36        c-2.155-0.43-4.12-1.353-5.947-2.48c-1.818-1.143-3.478-2.534-4.936-4.111c-1.459-1.576-2.72-3.336-3.723-5.234        c-0.984-1.908-1.758-3.934-2.028-6.114c-0.116-0.936,0.55-1.79,1.486-1.905c0.51-0.063,0.996,0.106,1.351,0.424        L125.942,244.061z"/>
					</g>
					<path style="fill:#FC09B2;" d="M239.802,275.038c-11.378-9.893,6.11-26.069,14.531-25.496       c7.947,0.542,19.763,11.763,16.66,20.252C267.082,280.493,247.754,281.952,239.802,275.038z"/>
					<g>
						<path style="fill:#FFFFFF;" d="M269.673,327.321c-10.569-3.257-21.51-3.142-31.779-0.095        c-16.737,4.967-23.513-7.565-18.816-18.976c10.135-24.621,58.742-24.742,69.019-0.126        C292.96,319.772,285.764,332.279,269.673,327.321z"/>
						<circle style="fill:#FFFFFF;" cx="297.907" cy="244.295" r="20.088"/>
						<circle style="fill:#FFFFFF;" cx="209.252" cy="244.295" r="20.088"/>
					</g>
				</g>
				<g>
					<path style="fill:#000E3F;" d="M400.799,235.119c-4.916-9.34-15.323-13.457-27.149-10.746       c-2.814,0.645-5.577,1.664-8.241,3.037c-3.578-18.617-8.64-32.681-11.722-41.241c-0.703-1.953-1.309-3.635-1.776-5.036       c-0.522-1.561-1.572-2.595-3.122-3.077c-44.833-13.916-75.392-15.13-85.434-15.528c-1.659-0.067-2.969-0.118-3.412-0.191       c-8.993-1.489-60.722,1.816-101.325,15.637c-2.593,0.882-3.065,2.275-4.202,5.641c-0.4,1.184-0.92,2.723-1.677,4.747       c-4.604,12.295-8.364,25.75-10.929,39.082c-2.684-1.39-5.466-2.422-8.301-3.071c-11.829-2.711-22.234,1.403-27.15,10.748       c-5.191,9.866-3.856,25.865,10.832,39.362c6.887,6.327,15.63,9.9,21.551,10.502c0.412,3.751,0.947,7.336,1.594,10.681       c5.993,31.019,21.445,50.631,50.103,63.591c18.653,8.436,41.026,12.596,63.29,12.594c25.917,0,51.684-5.639,71.219-16.726       c24.786-14.072,37.924-33.625,42.598-63.403c0.32-2.037,0.599-4.21,0.862-6.736c5.921-0.6,14.665-4.172,21.558-10.504       C404.654,260.986,405.991,244.987,400.799,235.119z M387.327,271.612c-7.639,7.016-16.742,9.557-20.679,9.565       c-1.031,0.044-1.856,0.758-1.953,1.763c-0.307,3.183-0.626,5.782-1,8.177c-4.472,28.492-17.015,47.187-40.671,60.615       c-35.335,20.056-91.646,21.762-130.978,3.972c-27.386-12.385-42.154-31.129-47.881-60.777       c-0.72-3.722-1.297-7.757-1.715-11.993c-0.099-0.998-0.937-1.757-1.94-1.757c-0.016,0-0.039,0-0.059,0       c-3.968,0-13.023-2.585-20.62-9.565c-13.162-12.094-14.517-26.129-10.02-34.676c4.115-7.82,12.653-11.092,22.827-8.762       c3.289,0.754,6.509,2.09,9.568,3.971c0.551,0.339,1.23,0.381,1.818,0.12c0.588-0.263,1.008-0.799,1.122-1.434       c2.524-13.98,6.412-28.193,11.245-41.102c0.777-2.075,1.31-3.652,1.72-4.865c0.993-2.938,0.993-2.938,1.764-3.2       c40.114-13.653,91.651-16.758,99.435-15.481c0.681,0.112,1.889,0.162,3.891,0.24c9.916,0.394,40.089,1.594,84.433,15.357       c0.331,0.103,0.447,0.192,0.578,0.587c0.476,1.426,1.092,3.136,1.807,5.123c3.186,8.851,8.519,23.668,12.053,43.299       c0.114,0.634,0.534,1.171,1.12,1.434c0.589,0.263,1.267,0.219,1.816-0.114c3.042-1.862,6.243-3.185,9.514-3.935       c10.178-2.332,18.712,0.942,22.826,8.762C401.844,245.481,400.489,259.518,387.327,271.612z"/>
					<path style="fill:#000E3F;" d="M253.651,287.772c-0.046,0-0.094,0-0.141,0.002c-17.094,0.042-31.318,7.787-36.235,19.732       c-2.753,6.69-1.944,13.638,2.114,18.133c2.424,2.685,8.125,6.7,19.059,3.456c10.118-3.004,20.717-2.974,30.65,0.089       c2.572,0.792,5.042,1.182,7.344,1.182c4.612,0,8.555-1.567,11.311-4.602c4.15-4.571,4.97-11.62,2.142-18.392       C284.921,295.457,270.705,287.772,253.651,287.772z M267.874,324.822c-4.061-1.059-8.204-1.655-12.374-1.788v-31.312       c6.776,0.239,12.975,1.78,18.1,4.369L267.874,324.822z M233.622,296.113c5.093-2.574,11.247-4.12,17.978-4.383v31.312       c-4.106,0.152-8.208,0.75-12.254,1.796L233.622,296.113z M222.283,323.026c-2.996-3.316-3.546-8.827-1.402-14.034       c1.765-4.289,4.971-7.946,9.183-10.79l5.5,27.6C229.798,327.116,225.116,326.165,222.283,323.026z M284.867,323.144       c-2.882,3.174-7.55,4.088-13.217,2.678l5.509-27.641c4.177,2.821,7.365,6.444,9.139,10.696       C288.503,314.155,287.942,319.757,284.867,323.144z"/>
					<path style="fill:#000E3F;" d="M297.907,222.258c-12.151,0-22.037,9.885-22.037,22.036c0,12.151,9.886,22.038,22.037,22.038       c12.151,0,22.037-9.887,22.037-22.038C319.944,232.143,310.058,222.258,297.907,222.258z M297.907,262.433       c-10.001,0-18.138-8.138-18.138-18.139c0-10.001,8.136-18.137,18.138-18.137c10.001,0,18.138,8.136,18.138,18.137       C316.045,254.296,307.908,262.433,297.907,262.433z"/>
					<path style="fill:#000E3F;" d="M297.907,232.637c-6.438,0-11.658,5.219-11.658,11.658c0,6.438,5.219,11.658,11.658,11.658       c6.439,0,11.658-5.22,11.658-11.658C309.565,237.857,304.345,232.637,297.907,232.637z"/>
					<path style="fill:#000E3F;" d="M231.289,244.294c0-12.151-9.886-22.036-22.037-22.036c-12.152,0-22.038,9.885-22.038,22.036       c0,12.151,9.886,22.038,22.038,22.038C221.403,266.332,231.289,256.445,231.289,244.294z M209.252,262.433       c-10.001,0-18.139-8.138-18.139-18.139c0-10.001,8.137-18.137,18.139-18.137c10.001,0,18.138,8.136,18.138,18.137       C227.39,254.296,219.254,262.433,209.252,262.433z"/>
					<path style="fill:#000E3F;" d="M209.252,232.637c-6.438,0-11.658,5.219-11.658,11.658c0,6.438,5.219,11.658,11.658,11.658       c6.439,0,11.658-5.22,11.658-11.658C220.91,237.857,215.691,232.637,209.252,232.637z"/>
				</g>
			</g>
			<g>
				<g>
					<path style="fill:#DB5E43;" d="M386.713,194.55c-1.082,18.549-9.386,46.503-28.087,40.895       c-8.248-2.477-14.085-14.332-21.48-19.185c-22.408-14.704-36.036-8.286-57.32-18.315       c-24.691-11.634-24.942-29.803-26.339-29.331c-1.19,0.402-1.841,16.225-22.993,27.717c-13.346,7.251-29.07,8.491-34.317,9.553       c-35.819,7.253-36.273,26.218-48.271,29.737c-9.825,2.882-17.387-5.543-20.984-13.614c-9.407-21.108-8.228-48.338-0.469-70.246       c22.272-62.888,90.41-76.049,125.62-40.2c0.711,0.724,1.329,1.606,2.056,0.973c2.495-2.172,10.587-11.645,27.405-17.23       C334.112,77.844,390.688,126.422,386.713,194.55z"/>
					<g style="opacity:0.45;">
						<path style="fill:#000E3F;" d="M272.291,107.58c12.787-2.188,25.786-1.709,38.484,1.217        c6.341,1.446,12.536,3.669,18.442,6.552c5.89,2.918,11.422,6.616,16.424,10.937c1.205,1.131,2.496,2.175,3.617,3.391        l3.396,3.613c2.069,2.572,4.215,5.091,5.954,7.894c1.916,2.689,3.355,5.652,4.956,8.509c1.328,2.987,2.827,5.909,3.807,9.017        c4.484,12.241,6.322,25.151,6.367,37.863c0.004,1.083-0.871,1.963-1.953,1.967c-1.001,0.004-1.83-0.746-1.952-1.715        c-1.557-12.322-4.345-24.392-8.96-35.572c-1.054-2.843-2.565-5.456-3.832-8.18c-1.55-2.564-2.926-5.242-4.737-7.617        c-1.635-2.503-3.569-4.767-5.451-7.07l-3.082-3.22c-1.011-1.09-2.192-2.003-3.272-3.02        c-8.895-7.888-19.812-13.397-31.442-16.719c-5.824-1.651-11.825-2.812-17.906-3.511c-6.055-0.77-12.302-0.949-18.327-0.696        l-0.145,0.006c-1.014,0.043-1.87-0.745-1.913-1.758C270.726,108.533,271.393,107.733,272.291,107.58z"/>
						<path style="fill:#000E3F;" d="M268.937,128.445c10.977,0.591,21.61,3.034,31.862,6.924c10.225,3.878,20,9.322,28.484,16.521        c4.191,3.636,8.179,7.572,11.564,12.015c0.9,1.065,1.648,2.25,2.456,3.385c0.798,1.143,1.608,2.278,2.293,3.494        c0.709,1.2,1.445,2.384,2.127,3.596l1.844,3.746c4.805,10.054,7.038,21.105,7.358,31.946c0.032,1.082-0.819,1.984-1.901,2.016        c-0.965,0.028-1.789-0.647-1.977-1.561l-0.018-0.09l-0.793-3.837c-0.253-1.276-0.435-2.562-0.803-3.809        c-0.655-2.51-1.243-5.024-2.142-7.441c-1.495-4.921-3.611-9.595-5.958-14.091c-4.834-8.932-11.3-16.901-19.095-23.428        c-7.692-6.657-16.641-11.88-26.049-16.132c-4.722-2.101-9.575-3.968-14.53-5.571c-4.922-1.66-10.054-2.974-15.07-4.022        l-0.125-0.026c-0.994-0.208-1.632-1.182-1.424-2.176C267.226,129.004,268.045,128.396,268.937,128.445z"/>
						<path style="fill:#000E3F;" d="M273.042,149.451c3.081,4.628,6.951,9.088,10.929,13.152        c4.046,4.064,8.372,7.843,12.926,11.351c2.296,1.736,4.582,3.485,7.013,5.053c2.319,1.731,4.848,3.148,7.274,4.755        c1.2,0.827,2.493,1.496,3.746,2.244l3.772,2.245c2.548,1.452,5.157,2.806,7.694,4.39l0.114,0.071        c0.921,0.575,1.202,1.788,0.627,2.71c-0.47,0.753-1.368,1.077-2.183,0.856c-2.937-0.796-5.849-1.719-8.735-2.732        c-2.805-1.194-5.696-2.252-8.413-3.679c-5.516-2.7-10.751-6.002-15.676-9.746c-4.838-3.853-9.402-8.107-13.283-12.976        c-3.87-4.895-7.247-10.095-9.212-16.308c-0.306-0.968,0.23-2.001,1.198-2.307c0.799-0.253,1.642,0.068,2.084,0.732        L273.042,149.451z"/>
						<path style="fill:#000E3F;" d="M234.335,111.22c-6.025-0.254-12.272-0.074-18.327,0.696        c-6.081,0.698-12.082,1.859-17.906,3.511c-11.63,3.322-22.547,8.831-31.442,16.719c-1.08,1.017-2.261,1.93-3.272,3.02        l-3.082,3.22c-1.883,2.302-3.817,4.566-5.451,7.07c-1.812,2.376-3.188,5.054-4.737,7.617c-1.267,2.725-2.778,5.337-3.832,8.18        c-4.615,11.18-7.403,23.25-8.96,35.572c-0.135,1.074-1.115,1.835-2.19,1.699c-0.994-0.125-1.719-0.975-1.715-1.951        c0.045-12.712,1.883-25.621,6.367-37.863c0.981-3.108,2.479-6.031,3.807-9.017c1.601-2.857,3.041-5.82,4.956-8.509        c1.739-2.803,3.886-5.322,5.954-7.894l3.396-3.613c1.121-1.216,2.412-2.26,3.617-3.391c5.001-4.322,10.533-8.02,16.424-10.937        c5.906-2.883,12.101-5.106,18.442-6.552c12.698-2.926,25.697-3.405,38.484-1.217c1,0.171,1.672,1.121,1.501,2.121        c-0.158,0.922-0.977,1.565-1.888,1.526L234.335,111.22z"/>
						<path style="fill:#000E3F;" d="M238.572,132.107c-5.016,1.048-10.149,2.362-15.07,4.022c-4.956,1.603-9.808,3.47-14.53,5.571        c-9.408,4.252-18.357,9.475-26.049,16.132c-7.796,6.527-14.262,14.496-19.095,23.428c-2.348,4.496-4.463,9.17-5.958,14.091        c-0.899,2.417-1.488,4.931-2.142,7.441c-0.368,1.247-0.55,2.533-0.803,3.809l-0.793,3.837l-0.018,0.089        c-0.219,1.06-1.255,1.741-2.315,1.522c-0.946-0.196-1.59-1.043-1.562-1.977c0.32-10.84,2.553-21.892,7.358-31.946l1.844-3.746        c0.682-1.213,1.417-2.397,2.127-3.596c0.685-1.217,1.495-2.351,2.293-3.494c0.808-1.135,1.556-2.32,2.456-3.385        c3.384-4.443,7.372-8.379,11.564-12.015c8.484-7.199,18.259-12.643,28.484-16.521c10.253-3.89,20.886-6.333,31.863-6.924        c1.014-0.055,1.88,0.723,1.935,1.737c0.049,0.919-0.585,1.717-1.46,1.899L238.572,132.107z"/>
						<path style="fill:#000E3F;" d="M237.525,150.836c-1.965,6.213-5.342,11.414-9.212,16.308        c-3.881,4.869-8.445,9.123-13.283,12.976c-4.925,3.744-10.16,7.047-15.677,9.746c-2.717,1.427-5.608,2.485-8.413,3.679        c-2.886,1.013-5.798,1.936-8.735,2.732c-1.048,0.284-2.128-0.335-2.413-1.383c-0.232-0.857,0.139-1.735,0.854-2.182        l0.116-0.072c2.537-1.584,5.146-2.939,7.694-4.39l3.773-2.245c1.253-0.748,2.546-1.417,3.746-2.244        c2.425-1.607,4.954-3.024,7.274-4.755c2.431-1.568,4.717-3.317,7.013-5.053c4.554-3.508,8.88-7.287,12.926-11.351        c3.978-4.064,7.849-8.524,10.929-13.152l0.125-0.188c0.563-0.845,1.704-1.074,2.549-0.511        C237.488,149.216,237.765,150.076,237.525,150.836z"/>
						<path style="fill:#000E3F;" d="M255.419,119.16c0.838,3.57,1.281,7.139,1.585,10.709c0.302,3.57,0.468,7.139,0.474,10.709        c0.02,3.57-0.13,7.139-0.41,10.709c-0.284,3.57-0.709,7.139-1.532,10.709c-0.249,1.081-1.327,1.754-2.408,1.505        c-0.772-0.178-1.337-0.782-1.505-1.505c-0.823-3.57-1.249-7.139-1.532-10.709c-0.281-3.57-0.43-7.139-0.41-10.709        c0.007-3.569,0.172-7.139,0.474-10.709c0.304-3.57,0.747-7.139,1.585-10.709c0.238-1.016,1.255-1.646,2.271-1.408        C254.732,117.922,255.259,118.485,255.419,119.16z"/>
					</g>
				</g>
				<path style="fill:#000E3F;" d="M144,238.15c-8.772,0-15.493-7.797-18.859-15.347c-8.907-19.988-9.108-47.457-0.526-71.691      c11.07-31.257,34.082-52.876,63.134-59.313c24.507-5.42,49.069,1.451,65.715,18.398l0.148,0.156      c0.139-0.135,0.288-0.28,0.448-0.434c3.542-3.435,11.84-11.475,26.86-16.463c23.453-7.789,48.901-3.054,69.824,12.991      c25.809,19.791,39.982,52.771,37.915,88.218c-0.821,14.064-5.51,33.1-16.023,40.456c-4.357,3.048-9.262,3.779-14.57,2.191      c-5.329-1.601-9.54-6.467-13.611-11.174c-2.829-3.271-5.501-6.359-8.379-8.248c-12.296-8.069-21.739-9.575-31.737-11.17      c-7.778-1.241-15.82-2.523-25.343-7.012c-17.256-8.13-23.047-19.397-25.422-25.73c-2.169,5.874-7.349,16.027-22.147,24.067      c-11.203,6.085-24.146,8.065-31.099,9.129c-1.545,0.236-2.825,0.432-3.762,0.623c-22.464,4.548-30.349,13.527-36.686,20.743      c-3.555,4.048-6.624,7.543-11.424,8.952C146.919,237.943,145.432,238.15,144,238.15z M204.211,93.88      c-5.15,0-10.384,0.567-15.618,1.727c-27.711,6.138-49.691,26.846-60.301,56.808c-8.262,23.327-8.105,49.691,0.411,68.8      c1.185,2.66,7.655,15.765,18.654,12.536c3.715-1.089,6.309-4.042,9.592-7.782c6.368-7.252,15.089-17.185,38.842-21.994      c0.982-0.198,2.325-0.405,3.947-0.653c7.189-1.1,19.222-2.942,29.826-8.703c16.28-8.844,19.897-20.361,21.259-24.696      c0.541-1.721,0.866-2.759,2.041-3.155c0.492-0.168,1.161-0.12,1.626,0.114c0.974,0.487,1.263,1.375,1.841,3.139      c1.554,4.752,5.683,17.375,24.326,26.16c9.023,4.252,16.787,5.491,24.295,6.689c9.964,1.59,20.268,3.233,33.263,11.761      c3.331,2.186,6.309,5.628,9.188,8.956c3.707,4.286,7.541,8.716,11.783,9.99c4.171,1.251,7.838,0.712,11.213-1.651      c8.772-6.136,13.536-23.251,14.366-37.49l1.947,0.114l-1.947-0.114c1.993-34.155-11.612-65.891-36.394-84.896      c-19.879-15.245-44.016-19.757-66.221-12.383c-14.175,4.707-22.024,12.313-25.375,15.563c-0.564,0.544-1.017,0.982-1.366,1.287      c-0.932,0.807-2.465,1.331-4.472-0.809l-0.254-0.267C238.529,100.556,221.871,93.88,204.211,93.88z"/>
			</g>
			<g>
				<g>
					<path style="fill:#DB5E43;" d="M299.345,228.783c-22.906,2.131-32.815-8.777-11.349-22.564       c7.32-4.701,17.951-8.09,26.919-6.948c13.153,1.675,15.641,15.024,4.586,23.649       C314.057,227.169,306.423,228.125,299.345,228.783z"/>
					<path style="fill:#000E3F;" d="M293.873,230.997c-10.307,0-17.507-2.961-19.296-8.153c-1.088-3.157-0.927-9.729,12.365-18.266       c8.553-5.493,19.633-8.341,28.219-7.241c6.566,0.836,11.357,4.51,12.817,9.828c1.619,5.9-1.169,12.526-7.278,17.291       c-5.769,4.501-13.624,5.563-21.175,6.268l0,0C297.555,230.908,295.668,230.997,293.873,230.997z M299.345,228.783h0.019       H299.345z M311.291,201.001c-7.134,0-15.511,2.536-22.242,6.86c-7.953,5.106-11.985,10.234-10.786,13.714       c1.199,3.478,8.132,6.466,20.9,5.266c6.976-0.649,14.2-1.605,19.137-5.457c4.845-3.781,7.111-8.832,5.916-13.186       c-1.044-3.802-4.526-6.352-9.55-6.991C313.585,201.068,312.454,201.001,311.291,201.001z"/>
				</g>
				<g>
					<path style="fill:#DB5E43;" d="M207.814,228.783c22.906,2.131,32.815-8.777,11.349-22.564       c-7.32-4.701-17.951-8.09-26.919-6.948c-13.153,1.675-15.641,15.024-4.586,23.649       C193.101,227.169,200.736,228.125,207.814,228.783z"/>
					<path style="fill:#000E3F;" d="M213.286,230.997c-1.794,0-3.681-0.09-5.653-0.272l0,0c-7.551-0.704-15.407-1.767-21.174-6.268       c-6.109-4.765-8.898-11.391-7.278-17.291c1.459-5.318,6.252-8.992,12.817-9.828c8.593-1.097,19.666,1.75,28.219,7.241       c13.292,8.537,13.453,15.109,12.365,18.266C230.793,228.037,223.592,230.997,213.286,230.997z M207.995,226.841       c12.768,1.19,19.702-1.79,20.9-5.266c1.199-3.48-2.833-8.608-10.786-13.714c-7.83-5.03-17.889-7.648-25.618-6.654       c-5.026,0.64-8.507,3.189-9.551,6.993c-1.195,4.352,1.073,9.406,5.917,13.185C193.794,225.236,201.019,226.192,207.995,226.841       L207.995,226.841z"/>
				</g>
			</g>
		</g>
	</g>
	<g>
		<path style="fill:#000E3F;" d="M112.084,114.304c-12.869-13.624-15.007-15.911-15.431-16.629    c-0.027-0.032-0.023-0.093-0.055-0.124l0.034-0.029l0.063-0.057c1.912-1.915,2.932-2.961,3.871-3.524    c-1.165-1.723-2.987-3.72-4.351-5.028c-4.775,3.478-9.354,7.939-13.64,11.896c0.029,0.032,0.059,0.004,0.087,0.036    c1.662,2.142,4.212,4.689,4.661,4.861c0.651-0.301,2.704-2.694,4.15-3.082l0.065,0.002c11.271,11.367,15.165,16.406,15.608,16.699    c1.291-1.639,3.673-3.288,4.996-4.956l-0.027-0.032L112.084,114.304z"/>
		<path style="fill:#000E3F;" d="M124.102,92.35c-1.679-2.447-3.551-4.52-5.312-7.008c-0.849-1.135-1.729-2.241-2.715-3.267    c-0.661-0.625-1.358-1.22-2.193-1.653c-0.882-0.556-1.912-0.887-3.004-0.948c-4.158,0.078-8.37,3.324-10.173,7.119    c-0.168,0.408-0.242,0.796-0.293,1.218c-0.12,2.671,1.224,5.112,2.795,7.151c2.57,3.709,5.645,7.016,8.56,10.398    c1.074,1.281,2.248,2.483,3.77,3.08c2.22,1.137,4.32,0.122,6.296-1.178c1.388-0.943,2.612-2.026,3.556-3.383    c1.083-1.464,1.91-3.109,1.826-4.798c-0.238-1.95-1.178-3.886-2.336-5.543L124.102,92.35z M115.769,102.058    c-1.611-1.127-2.915-2.831-4.404-4.219c-1.599-1.799-3.088-3.737-4.082-5.742c-0.48-1.154-0.558-2.351-0.264-3.57    c0.276-1.099,1.037-2.201,2.241-2.555c1.437-0.326,2.924,0.301,4.013,1.462c0.647,0.744,1.63,1.771,1.658,1.803l1.885,2.228    l1.283,1.611c0.08,0.101,0.634,0.865,1.321,1.797c1.38,2.079,1.719,1.813,1.761,3.587    C121.037,101.098,118.061,103.141,115.769,102.058z"/>
		<path style="fill:#000E3F;" d="M141.319,80.745c-1.064-2.448-2.654-4.687-4.082-6.985c-0.546-0.718-1.093-1.436-1.85-2.007    c-1.714-1.582-3.578-2.85-5.695-3.738c-1.799-0.792-4.111-0.973-5.896-0.316c-2.65,1.98-6.051,3.695-8.272,6.216    c-0.014,0.059,0,0.154-0.008,0.213c5.816,8.078,11.092,17.103,17.251,23.854l0.011-0.059c2.966-2.043,6.184-4.257,9.221-6.504    c0.266-3.467,0.295-7.132-0.668-10.58C141.306,80.804,141.338,80.779,141.319,80.745z M134.955,84.968    c-0.177,0.278-0.221,0.514-0.493,0.651c-0.775,0.689-1.702,1.534-2.549,1.441c-2.363-3.059-4.44-6.683-6.372-9.105l-0.093-0.143    l0.032-0.023l0.07-0.049c0.727-0.76,1.742-1.405,2.629-1.86c1.978-0.527,3.621,0.946,4.899,2.201    c1.58,1.464,2.153,3.206,2.193,5.001C135.278,83.702,135.219,84.368,134.955,84.968z"/>
		<path style="fill:#000E3F;" d="M151.943,67.703c-2.072-2.109-9.257-9.55-10.85-11.196c-3.056,2.242-3.776,2.375-4.406,2.906    c3.553,13.885,9.522,27.87,9.824,29.04c0.059,0.014,0.059,0.014,0.097-0.008c3.322-2.05,4.831-2.709,5.166-3.061    c0.038-0.023,0.055-0.082,0.091-0.105c-0.131-2.125-1.811-5.169-2.083-7.111c1.106-0.665,0.943-0.767,2.302-1.335    c1.527,1.034,3.796,3.724,5.335,4.95l0.036-0.023c1.78-0.621,3.722-1.639,5.017-2.82l-0.021-0.036L151.943,67.703z     M146.911,73.988c-3.507-8.154-6.382-13.434,2.723-1.639C148.716,72.903,147.783,73.514,146.911,73.988z"/>
		<path style="fill:#000E3F;" d="M166.79,43.254c-0.327,0.119-0.882,0.355-1.493,0.669c-1.335,0.685-3.05,1.664-3.867,2.325    c0.141,2.532,1.253,7.508,1.162,9.87c-1.896-1.437-5.577-4.851-7.231-6.847c-0.708,0.026-1.338,0.302-1.951,0.616    c-1.104,0.568-2.13,1.385-3.164,1.915c3.248,3.781,8.174,6.797,11.572,10.694l0.04,0.076c0.501,5.386,1.005,10.963,1.786,15.77    l0.078-0.038c0.322-0.118,0.628-0.276,0.935-0.432c1.182-0.607,2.46-1.411,3.526-1.959c0.345-0.175,0.651-0.333,0.975-0.451    c-1.557-10.534-0.486-21.599-2.349-32.17L166.79,43.254z"/>
		<path style="fill:#000E3F;" d="M174.173,39.523c-1.641,0.224-3.458,1.516-4.773,2.25l-0.116,0.053    c2.783,7.306,6.287,13.912,9.278,20.842l0.038-0.017c1.508-0.727,3.659-1.7,4.956-2.473    C180.224,53.637,177.077,46.259,174.173,39.523z"/>
		<path style="fill:#000E3F;" d="M184.546,62.271c-1.521,0.687-3.713,1.16-4.733,2.233l0.017,0.038    c0.657,1.447,1.601,4.783,1.95,4.626l2.917-1.365l0.076-0.034c0.585-0.265,0.878-0.35,1.502-0.632l0.276-0.124    C185.86,65.491,185.161,63.735,184.546,62.271z"/>
		<path style="fill:#000E3F;" d="M82.261,70.753c-1.015-3.1-3.562-5.769-6.789-6.277c-2.892-0.645-6.034-0.059-8.495,1.765    c-0.996,0.695-2.018,1.236-3.298,0.554c-0.295-0.253-0.623-0.478-0.792-0.847c-1.849-2.673,3.021-5.63,4.653-2.871    c1.856-0.967,3.494-2.73,4.735-4.356l0.032-0.029c-2.33-3.693-5.515-4.533-8.489-3.695c-2.856,0.961-6.038,3.4-7.285,6.146    c-2.468,5.407,0.944,12.899,8.223,12.971c1.062-0.053,2.134-0.287,3.126-0.921c2.081-1.293,4.821-3.321,6.94-1.546    c3.223,2.448-1.413,6.654-4.057,4.135c-1.382,1.348-3.501,2.913-4.768,4.507l0.086,0.093l0.088,0.093    c3.465,4.219,9.639,2.858,13.4-0.47C82.227,77.701,83.653,74.26,82.261,70.753z"/>
		<path style="fill:#000E3F;" d="M83.754,66.226c1.074,1.285,2.247,2.49,3.766,3.092c2.22,1.142,4.32,0.133,6.302-1.165    c1.39-0.937,2.618-2.018,3.568-3.374c1.082-1.462,1.917-3.107,1.837-4.796c-0.234-1.951-1.171-3.891-2.323-5.551l-0.779-1.189    c-1.672-2.453-3.538-4.532-5.297-7.025c-0.844-1.137-1.725-2.245-2.704-3.275c-0.661-0.626-1.356-1.226-2.191-1.658    c-0.882-0.56-1.912-0.892-3.006-0.958c-4.156,0.069-8.381,3.307-10.194,7.098c-0.167,0.408-0.242,0.796-0.293,1.218    c-0.126,2.673,1.211,5.118,2.774,7.162C77.779,59.52,80.849,62.837,83.754,66.226z M79.044,49.375c0.28-1.098,1.051-2.2,2.25-2.55    c1.441-0.322,2.925,0.309,4.013,1.472c0.645,0.746,1.624,1.776,1.653,1.81l1.881,2.233l1.278,1.613    c0.08,0.101,0.632,0.867,1.319,1.801c1.378,2.083,1.715,1.816,1.751,3.593c-0.15,2.639-3.134,4.676-5.42,3.587    c-1.611-1.133-2.909-2.841-4.396-4.234c-1.594-1.802-3.082-3.745-4.069-5.753C78.825,51.793,78.749,50.594,79.044,49.375z"/>
		<path style="fill:#000E3F;" d="M112.345,53.618c1.557-0.99,3.604-2.09,5-3.334c-3.145-4.303-6.359-8.868-8.84-13.645    c-0.011-0.095,4.697,4.027,5.447,3.601c0.396-0.252-1.076-5.366-1.083-6.734c3.048,3.754,6.66,9.744,9.466,13.755    c1.16-0.739,3.239-2.265,4.802-3.005l-7.241-11.613c-2.696-4.793-5.927-8.99-8.697-13.738c-1.517,0.967-4.505,3.225-5.262,3.553    c-0.154,1.675,1.82,6.929,1.458,7.005c-0.072,0.046-0.168,0.056-0.284,0.03c-1.476-0.638-4.318-3.506-5.87-3.943l-0.034,0.022    c-1.523,1.121-3.756,2.087-4.806,3.315c12.362,19.742,15.174,24.156,15.77,24.693C112.25,53.629,112.313,53.641,112.345,53.618z"/>
		<path style="fill:#000E3F;" d="M128.723,43.208c3.402-1.907,4.937-2.501,5.287-2.839c0.038-0.021,0.055-0.079,0.093-0.1    c-0.04-2.129-1.59-5.24-1.776-7.19c1.129-0.616,0.973-0.726,2.353-1.237c1.479,1.099,3.636,3.88,5.119,5.171l0.038-0.021    c1.803-0.544,3.785-1.48,5.129-2.604l-0.023-0.037l-10.013-11.634c-1.98-2.193-8.844-9.93-10.363-11.641    c-3.147,2.109-3.876,2.213-4.531,2.716c2.963,14.02,8.333,28.239,8.587,29.42C128.685,43.228,128.685,43.228,128.723,43.208z     M132.424,27.26c-0.94,0.514-1.896,1.085-2.785,1.521C126.482,20.489,123.832,15.095,132.424,27.26z"/>
		<path style="fill:#000E3F;" d="M147.217,33.216c3.281-1.498,6.828-3.121,10.207-4.807c0.868-3.366,1.529-6.969,1.175-10.532    c-0.017-0.039,0.021-0.057,0.002-0.096c-0.617-2.593-1.799-5.072-2.804-7.582c-0.411-0.803-0.824-1.603-1.472-2.298    c-1.415-1.853-3.027-3.426-4.964-4.664c-1.63-1.093-3.874-1.671-5.748-1.333c-2.951,1.49-6.597,2.59-9.221,4.686    c-0.023,0.056-0.025,0.152-0.046,0.21c4.328,8.96,7.956,18.76,12.852,26.473L147.217,33.216z M143.486,12.147l0.038-0.018    l0.078-0.035c0.847-0.624,1.957-1.083,2.907-1.377c2.041-0.178,3.402,1.558,4.442,3.016c1.306,1.714,1.567,3.528,1.296,5.303    c-0.101,0.611-0.276,1.257-0.642,1.801c-0.219,0.242-0.307,0.469-0.594,0.555c-0.883,0.545-1.944,1.217-2.761,0.978    c-1.801-3.422-3.216-7.348-4.695-10.067L143.486,12.147z"/>
	</g>
	<g>
		<g>
			<g>
				<path style="fill:#FFCF00;" d="M402.366,150.905c-0.692,0-1.352-0.296-1.805-0.814c-0.452-0.514-0.651-1.179-0.562-1.874      l0.047-0.328c1.719-12.118,6.118-43.082,6.599-46.362c0.257-1.749,0.267-1.817-3.813-4.016c-1.92-1.035-4.55-2.453-8.038-4.669      c-1.077-0.683-1.967-1.203-2.688-1.622c-3.806-2.223-4.073-3.14-2.038-7.005c12.732-24.282,20.079-38.478,24.467-46.959      c6.533-12.624,6.533-12.624,7.822-12.624c0.2,0,0.497,0.069,0.702,0.149c0.807,0.228,1.925,0.93,1.529,3.114l-0.037,0.222      c-0.743,5.658-1.954,14.811-3.192,23.876c-1.406,10.241-2.461,17.497-3.224,22.185c-0.286,1.72,0.081,2.365,1.871,3.288      c3.941,2.045,7.732,4.363,11.399,6.602l1.336,0.815c2.01,1.22,4.087,2.48,2.143,6.288      c-13.862,27.278-25.901,49.98-30.434,58.475C404.019,150.438,403.242,150.905,402.366,150.905z"/>
				<path style="opacity:0.5;fill:#FD8A02;" d="M433.495,90.463c-13.666,26.894-25.67,49.549-30.42,58.45      c-0.437,0.801-1.646,0.408-1.53-0.495l0.044-0.306c3.584-10.592,9.222-27.623,12.456-39.409      c1.224-4.429,4.079-10.737,2.637-15.297c-2.666-8.348-15.239-7.226-1.151-34.062c1.34-2.564,2.768-5.085,4.283-7.561      c-1.151,8.377-2.331,16.696-3.22,22.145c-0.423,2.549,0.466,3.773,2.695,4.924c4.21,2.185,8.187,4.647,12.223,7.11      C433.888,87.418,434.864,87.782,433.495,90.463z"/>
			</g>
			<path style="fill:#000E3F;" d="M402.366,152.854c-1.257,0-2.449-0.539-3.272-1.479c-0.824-0.938-1.19-2.15-1.028-3.406     l0.052-0.36c1.718-12.115,6.119-43.084,6.6-46.364c0.02-0.139,0.042-0.261,0.056-0.37c-0.499-0.371-1.796-1.072-2.866-1.649     c-1.989-1.072-4.642-2.504-8.157-4.739c-1.051-0.666-1.919-1.173-2.623-1.582c-4.708-2.747-5.305-4.809-2.784-9.598     c12.995-24.785,20.453-39.202,24.46-46.947c7.078-13.678,7.078-13.678,9.553-13.678c0.638,0,1.242,0.217,1.412,0.283     c1.607,0.445,3.312,2.112,2.738,5.278l-0.032,0.196c-0.733,5.592-1.944,14.749-3.183,23.818     c-1.407,10.25-2.465,17.523-3.232,22.235c-0.088,0.535-0.056,0.693-0.052,0.71c-0.024-0.04,0.164,0.154,0.894,0.531     c4,2.075,7.816,4.407,11.506,6.662l1.351,0.824c1.966,1.192,5.633,3.416,2.864,8.838c-13.867,27.289-25.914,50.005-30.45,58.506     C405.386,152.003,403.967,152.854,402.366,152.854z M422.457,26.639c-0.773,1.043-2.693,4.754-6.191,11.513     c-4.009,7.749-11.469,22.171-24.471,46.97c-1.474,2.799-1.474,2.799,1.295,4.415c0.734,0.426,1.646,0.96,2.749,1.658     c3.4,2.161,5.983,3.554,7.868,4.571c4.109,2.214,5.334,2.875,4.867,6.043c-0.481,3.278-4.88,34.236-6.597,46.353l-0.048,0.333     c-0.019,0.15,0.042,0.246,0.097,0.308c0.084,0.097,0.207,0.15,0.34,0.15c0.059,0,0.24,0,0.371-0.242     c4.523-8.474,16.556-31.165,30.409-58.426c1.122-2.197,0.585-2.523-1.416-3.735l-1.34-0.819     c-3.651-2.23-7.407-4.526-11.282-6.536c-2.151-1.11-3.387-2.391-2.897-5.339c0.761-4.672,1.814-11.913,3.216-22.13     c1.238-9.06,2.448-18.209,3.19-23.865l0.048-0.289c0.101-0.555,0.037-0.81,0.007-0.858     C422.633,26.705,422.537,26.67,422.457,26.639z"/>
		</g>
		<g>
			<g>
				<path style="fill:#FFCF00;" d="M452.024,442.775c-0.692,0-1.352-0.296-1.805-0.814c-0.452-0.514-0.651-1.179-0.562-1.874      l0.047-0.328c1.719-12.118,6.118-43.082,6.599-46.362c0.257-1.749,0.267-1.817-3.813-4.016c-1.92-1.035-4.55-2.453-8.038-4.669      c-1.077-0.683-1.967-1.203-2.688-1.622c-3.806-2.223-4.073-3.14-2.038-7.005c12.732-24.282,20.079-38.478,24.466-46.959      c6.533-12.624,6.533-12.624,7.822-12.624c0.2,0,0.497,0.069,0.702,0.149c0.807,0.228,1.925,0.93,1.529,3.114l-0.037,0.221      c-0.743,5.658-1.954,14.811-3.192,23.876c-1.406,10.241-2.461,17.497-3.224,22.185c-0.286,1.72,0.081,2.365,1.871,3.288      c3.941,2.045,7.732,4.363,11.399,6.602l1.337,0.815c2.01,1.22,4.087,2.48,2.143,6.288      c-13.862,27.278-25.901,49.98-30.434,58.475C453.677,442.308,452.901,442.775,452.024,442.775z"/>
				<path style="opacity:0.5;fill:#FD8A02;" d="M483.154,382.332c-13.666,26.894-25.67,49.548-30.42,58.45      c-0.437,0.801-1.646,0.408-1.529-0.495l0.044-0.306c3.584-10.591,9.221-27.623,12.456-39.409      c1.224-4.429,4.079-10.737,2.637-15.297c-2.666-8.348-15.239-7.226-1.151-34.062c1.34-2.564,2.768-5.085,4.283-7.561      c-1.151,8.377-2.331,16.696-3.22,22.145c-0.423,2.55,0.466,3.773,2.695,4.924c4.21,2.185,8.187,4.647,12.223,7.11      C483.547,379.287,484.523,379.651,483.154,382.332z"/>
			</g>
			<path style="fill:#000E3F;" d="M452.024,444.725c-1.255,0-2.446-0.539-3.271-1.479c-0.826-0.94-1.192-2.153-1.028-3.41     l0.049-0.35c1.72-12.12,6.12-43.09,6.601-46.37c0.02-0.139,0.042-0.261,0.056-0.371c-0.499-0.371-1.795-1.07-2.865-1.647     c-1.952-1.053-4.615-2.488-8.158-4.737c-1.051-0.668-1.919-1.175-2.623-1.584c-4.706-2.749-5.303-4.811-2.784-9.6     c12.957-24.711,20.44-39.175,24.46-46.945c7.079-13.678,7.079-13.678,9.554-13.678c0.639,0,1.241,0.215,1.411,0.282     c1.607,0.446,3.311,2.113,2.739,5.276l-0.032,0.196c-0.734,5.596-1.945,14.752-3.183,23.82     c-1.403,10.224-2.461,17.497-3.232,22.232c-0.088,0.537-0.057,0.697-0.053,0.712c-0.001-0.023,0.128,0.137,0.896,0.533     c3.97,2.06,7.761,4.375,11.427,6.612l1.428,0.872c1.966,1.194,5.63,3.42,2.864,8.838c-13.887,27.327-25.921,50.02-30.45,58.508     C455.043,443.874,453.624,444.725,452.024,444.725z M472.116,318.509c-0.773,1.044-2.693,4.752-6.192,11.513     c-4.021,7.774-11.507,22.243-24.471,46.968c-1.473,2.799-1.473,2.799,1.295,4.417c0.734,0.427,1.646,0.96,2.749,1.658     c3.426,2.176,6.019,3.574,7.913,4.596c4.064,2.19,5.288,2.85,4.823,6.016c-0.481,3.281-4.879,34.238-6.597,46.355l-0.047,0.327     c-0.02,0.154,0.04,0.249,0.095,0.312c0.151,0.171,0.448,0.398,0.713-0.09c4.515-8.463,16.534-31.127,30.408-58.426     c1.121-2.197,0.583-2.523-1.417-3.738l-1.34-0.819c-3.702-2.26-7.434-4.537-11.282-6.534c-2.151-1.112-3.387-2.393-2.896-5.341     c0.765-4.697,1.816-11.94,3.216-22.129c1.237-9.061,2.447-18.209,3.19-23.864l0.048-0.289c0.1-0.556,0.037-0.811,0.007-0.859     C472.292,318.574,472.197,318.54,472.116,318.509z"/>
		</g>
		<g>
			<g>
				<path style="fill:#FFCF00;" d="M15.49,312.277c-0.692,0-1.352-0.296-1.805-0.814c-0.452-0.514-0.651-1.179-0.562-1.874      l0.047-0.328c1.719-12.118,6.118-43.082,6.599-46.362c0.257-1.749,0.268-1.817-3.813-4.018      c-1.922-1.034-4.552-2.451-8.038-4.667c-1.077-0.683-1.967-1.203-2.686-1.622c-3.806-2.221-4.073-3.138-2.04-7.005      c12.732-24.28,20.079-38.476,24.468-46.957c6.533-12.626,6.533-12.626,7.822-12.626c0.199,0,0.497,0.069,0.702,0.149      c0.805,0.23,1.92,0.93,1.529,3.107l-0.036,0.223c-0.746,5.663-1.955,14.816-3.195,23.881      c-1.404,10.23-2.459,17.487-3.224,22.185c-0.286,1.72,0.081,2.365,1.871,3.288c3.941,2.045,7.732,4.363,11.399,6.602      l1.337,0.815c2.01,1.22,4.087,2.48,2.143,6.288c-13.862,27.278-25.901,49.98-30.434,58.475      C17.142,311.81,16.366,312.277,15.49,312.277z"/>
				<path style="opacity:0.5;fill:#FD8A02;" d="M46.619,251.834c-13.666,26.894-25.67,49.549-30.42,58.45      c-0.437,0.801-1.646,0.408-1.529-0.495l0.044-0.306c3.584-10.592,9.221-27.623,12.456-39.409      c1.224-4.429,4.079-10.737,2.637-15.297c-2.666-8.348-15.239-7.226-1.151-34.062c1.34-2.564,2.768-5.085,4.283-7.561      c-1.151,8.377-2.331,16.696-3.22,22.145c-0.423,2.549,0.466,3.773,2.695,4.924c4.21,2.185,8.187,4.647,12.223,7.11      C47.012,248.789,47.988,249.153,46.619,251.834z"/>
			</g>
			<path style="fill:#000E3F;" d="M15.49,314.226c-1.258,0-2.449-0.539-3.272-1.479c-0.824-0.939-1.19-2.15-1.028-3.406l0.051-0.358     c1.718-12.117,6.119-43.086,6.6-46.366c0.02-0.139,0.042-0.261,0.056-0.369c-0.499-0.373-1.796-1.074-2.866-1.651     c-1.812-0.973-4.555-2.447-8.158-4.737c-1.051-0.666-1.92-1.173-2.622-1.582c-4.705-2.745-5.302-4.808-2.785-9.598     c12.599-24.024,19.941-38.208,24.326-46.682l0.136-0.263c7.078-13.68,7.078-13.68,9.553-13.68c0.624,0,1.227,0.211,1.397,0.276     c1.619,0.457,3.318,2.123,2.753,5.274l-0.029,0.183c-0.74,5.617-1.949,14.775-3.19,23.843     c-1.407,10.251-2.464,17.522-3.232,22.234c-0.089,0.535-0.056,0.693-0.053,0.71c-0.007-0.034,0.164,0.154,0.894,0.531     c4,2.075,7.815,4.407,11.505,6.662l1.351,0.824c1.969,1.194,5.631,3.419,2.865,8.838c-13.847,27.251-25.908,49.993-30.451,58.506     C18.51,313.375,17.091,314.226,15.49,314.226z M35.584,188.01c-0.773,1.044-2.693,4.754-6.192,11.517l-0.136,0.263     c-4.389,8.476-11.733,22.666-24.337,46.703c-1.473,2.799-1.473,2.799,1.295,4.413c0.735,0.428,1.646,0.961,2.748,1.66     c3.483,2.214,6.151,3.648,7.916,4.596c4.061,2.19,5.285,2.85,4.82,6.018c-0.481,3.278-4.88,34.236-6.597,46.353l-0.049,0.333     c-0.019,0.152,0.046,0.251,0.097,0.309c0.084,0.097,0.208,0.15,0.34,0.15c0.059,0,0.24,0,0.371-0.242     c4.53-8.488,16.576-31.203,30.409-58.426c1.122-2.195,0.635-2.49-1.413-3.735l-1.343-0.819c-3.651-2.23-7.407-4.526-11.282-6.536     c-2.151-1.11-3.387-2.391-2.897-5.339c0.76-4.672,1.813-11.913,3.216-22.13c1.239-9.061,2.448-18.211,3.195-23.871l0.042-0.272     c0.101-0.569,0.037-0.822,0.008-0.87C35.76,188.077,35.662,188.041,35.584,188.01z"/>
		</g>
	</g>
	<g>
		<g>
			<path style="fill:#FD8A02;" d="M22.757,113.988c-0.028,0.899-0.078,2.429-0.213,4.938c0.048-1.054-0.712,15.557-0.723,15.806     c0.01-0.251-0.065,1.725-0.074,1.976c-0.026,5.294,4.161,7.736,8.217,6.526c-0.241,0.082,0.756-0.258,0.998-0.34     c-0.276,0.094,7.125-2.438,7.483-2.561c-0.199,0.07,7.904-2.782,12.114-4.264c-0.047,2.83-0.11,8.533-0.283,19.574     c0.002-0.258-1.195,6.848,4.69,8.358c2.527,0.671,4.158-0.427,4.881-0.602c-0.202,0.077,15.787-6.044,20.342-7.787     c0.059,5.926,0.29,27.934,2.441,28.13c2.859,0.26,2.115-1.74,3.651-22.84c-0.023,0.412,0.357-6.329,0.371-6.585     c0.198-3.196-2.603-6.096-6.023-5.867c-0.942,0.051-1.537,0.327-2.152,0.508c0.246-0.081-8.52,2.811-8.764,2.892     c0.692-0.233-7.399,2.489-11.411,3.839c0.448-15.524,0.571-19.774,0.598-20.715c-0.005,0.161-0.008,0.261,0.006-0.197     c0,0.013-0.001,0.027-0.001,0.044c0.002-0.077,0.002-0.1,0.003-0.085c0.231-5.559-3.782-8.927-8.945-7.216     c0.276-0.1-4.1,1.484-4.338,1.571c0.98-0.361-11.205,4.121-16.147,5.939c-0.02-5.746-0.069-21.017-0.071-21.226     c0.006,0.26,0.406-2.729-1.587-4.746c-1.409-1.502-3.766-2.079-5.696-1.382c-11.114,4.545-13.262,5.35-19.609,8.094     c-0.946,0.412-1.47,1.473-1.179,2.492C2.144,121.098,3.765,119.722,22.757,113.988z"/>
			<path style="fill:#FD8A02;" d="M431.159,191.787c0.894,0.096,2.416,0.262,4.908,0.587c-1.048-0.128,15.458,1.89,15.705,1.92     c-0.25-0.028,1.715,0.196,1.965,0.224c5.277,0.428,8.03-3.562,7.131-7.698c-0.038-0.149-0.212-0.825-0.263-1.021     c0.073,0.283-1.891-7.29-1.986-7.656c0.055,0.205-2.174-8.092-3.332-12.402c2.818,0.261,8.5,0.757,19.495,1.767     c-0.257-0.022,6.739,1.711,8.69-4.042c0.86-2.47-0.11-4.178-0.23-4.912c0.061,0.207-4.829-16.2-6.222-20.875     c5.913,0.39,27.875,1.83,28.234-0.3c0.476-2.83-1.574-2.241-22.497-5.373c0.409,0.054-6.283-0.836-6.537-0.87     c-3.172-0.44-6.276,2.133-6.308,5.561c-0.02,0.943,0.21,1.557,0.343,2.184c-0.062-0.251,2.157,8.708,2.219,8.958     c-0.18-0.708,1.92,7.566,2.962,11.67c-16.428-1.728-20.165-2.121-20.753-2.183c-0.021-0.003-0.039-0.004-0.063-0.007     c0.005,0,0.012,0.001,0.018,0.002c-0.016-0.002-0.022-0.002-0.031-0.004c0.003,0.001,0.004,0.001,0.007,0.001     c-0.01,0-0.015-0.001-0.026-0.003c-0.008-0.001-0.007-0.001,0,0c-5.525-0.652-9.188,3.094-7.874,8.372     c-0.079-0.282,1.158,4.16,1.235,4.436c0.215,0.76,3.363,11.851,4.699,16.56c-5.735-0.417-20.961-1.526-21.171-1.541     c0.261,0.016-2.69-0.612-4.853,1.223c-1.604,1.292-2.359,3.598-1.81,5.575c3.688,11.427,4.328,13.63,6.583,20.167     c0.339,0.974,1.357,1.578,2.395,1.365C436.684,212.88,435.435,211.159,431.159,191.787z"/>
		</g>
		<g>
			<path style="fill:#6280FF;" d="M214.339,23.988c0,5.127,4.156,9.283,9.283,9.283c5.127,0,9.283-4.156,9.283-9.283     c0-5.127-4.156-9.283-9.283-9.283C218.495,14.705,214.339,18.861,214.339,23.988z"/>
			<path style="fill:#6280FF;" d="M440.463,474.868c0,5.127,4.156,9.283,9.283,9.283c5.127,0,9.283-4.156,9.283-9.283     c0-5.127-4.156-9.283-9.283-9.283C444.62,465.585,440.463,469.742,440.463,474.868z"/>
			<path style="fill:#6280FF;" d="M18.287,365.155c0,5.127,4.156,9.283,9.283,9.283s9.283-4.156,9.283-9.283     c0-5.127-4.156-9.283-9.283-9.283S18.287,360.028,18.287,365.155z"/>
		</g>
		<g>
			<path style="fill:#FC09B2;" d="M67.981,445.758c-6.031-3.042-13.396-4.559-20.178-5.167c-0.545-7.958-2.007-16.731-5.234-24.018     c-0.67-1.504-2.817-1.511-3.487,0c-3.24,7.316-4.688,16.097-5.233,23.984c-6.753,0.579-14.083,2.057-20.11,5.09     c-1.501,0.754-1.537,2.935,0,3.709c6.005,3.022,13.301,4.503,20.078,5.087c0.561,8.636,3.511,23.766,6.189,24.95     c1.024,0.452,2.221-0.011,2.674-1.035c3.219-7.286,4.646-16.063,5.156-23.949c6.764-0.609,14.106-2.117,20.146-5.164     c0.36-0.182,0.668-0.476,0.864-0.864C69.331,447.418,68.944,446.243,67.981,445.758z"/>
			<path style="fill:#FC09B2;" d="M510.926,256.697c-6.031-3.042-13.396-4.559-20.178-5.167c-0.545-7.958-2.007-16.731-5.234-24.018     c-0.67-1.504-2.817-1.511-3.487,0c-3.24,7.317-4.688,16.097-5.232,23.984c-6.753,0.579-14.083,2.057-20.11,5.09     c-1.501,0.754-1.537,2.935,0,3.709c6.005,3.022,13.301,4.503,20.078,5.087c0.561,8.636,3.511,23.767,6.189,24.95     c1.024,0.453,2.221-0.011,2.674-1.035c3.219-7.286,4.646-16.063,5.156-23.949c6.764-0.609,14.106-2.117,20.146-5.164     c0.36-0.182,0.668-0.476,0.864-0.864C512.276,258.357,511.889,257.182,510.926,256.697z"/>
			<path style="fill:#FC09B2;" d="M337.146,39.777c-4.988-2.516-11.079-3.771-16.688-4.274c-0.451-6.581-1.66-13.837-4.329-19.863     c-0.554-1.244-2.33-1.25-2.884,0c-2.68,6.051-3.878,13.312-4.328,19.835c-5.585,0.479-11.648,1.702-16.632,4.21     c-1.241,0.624-1.271,2.427,0,3.067c4.966,2.499,11,3.724,16.605,4.207c0.464,7.143,2.904,19.656,5.118,20.635     c0.847,0.374,1.837-0.009,2.211-0.856c2.663-6.026,3.842-13.285,4.264-19.807c5.594-0.504,11.666-1.751,16.661-4.27     c0.298-0.15,0.553-0.394,0.715-0.715C338.263,41.15,337.943,40.179,337.146,39.777z"/>
		</g>
	</g>
</g>















</svg>
