<?xml version="1.0" encoding="UTF-8"?>
<!-- Generator: Adobe Illustrator 25.2.3, SVG Export Plug-In . SVG Version: 6.00 Build 0)  -->
<svg xmlns="http://www.w3.org/2000/svg" xmlns:xlink="http://www.w3.org/1999/xlink" version="1.1" id="Capa_1" x="0px" y="0px" viewBox="0 0 512 512" style="enable-background:new 0 0 512 512;" xml:space="preserve" width="512" height="512">
<g>
	<path style="fill:#FF6C7E;" d="M355.736,266.25c64.59,26.519,29.252-48.777,29.252-48.777s69.409,3.332,60.525-44.421   c-8.885-47.753-54.973-42.201-54.973-42.201s47.197-115.497-4.441-129.378c-51.642-13.882-87.178,74.96-87.178,74.96   s-13.329-27.208-26.1-29.984c-12.769-2.777-16.658,31.096-16.658,31.096S214.518-2.97,162.877,43.118   c-51.639,46.087,7.774,137.153,7.774,137.153s-52.197,2.775-61.082,18.879c-8.883,16.104,21.101,36.093,21.101,36.093   s-65.522-2.777-64.965,39.424c0.443,33.65,47.819,45.755,67.01,49.289l26.275,61.211l119.939-19.434l47.755-82.183L355.736,266.25z   "/>
	<path style="fill:#7C3E25;" d="M405.778,378.723c-31.494,118.899-156.433,146.506-190.707,128.049   c-36.092-19.435-22.209-97.729-22.209-97.729c-36.648,42.201-67.188,21.656-71.631-28.318c-2.242-25.322,3.199-44.223,11.483-56.77   c8.106-12.24,18.902-18.48,27.941-18.749c18.323-0.557,11.662,53.861,11.662,53.861c53.86,11.105,37.757-86.068,37.757-86.068   c19.99,26.654,38.87-24.986,38.87-24.986c25.541,46.088,107.167-18.322,107.167-18.322c-1.043,13.148-1.088,25.321-0.377,36.559   C359.801,329.753,388.72,363.909,405.778,378.723z"/>
	<g>
		<path style="fill:#FF6C7E;" d="M282.755,431.011c0.219,8.198-9.472,15.114-21.653,15.444    c-12.179,0.326-22.234-6.052-22.453-14.252c-0.224-8.198,9.471-15.114,21.65-15.443    C272.482,416.43,282.532,422.805,282.755,431.011z"/>
		<path style="fill:#091438;" d="M238.062,410.593c0,0,3.322,32.067,50.378,22.709C288.44,433.301,241.469,451.118,238.062,410.593z    "/>
	</g>
	<path style="fill:#091438;" d="M298.418,352.256l9.281,38.213c0,0,14.819-3.914,18.151,3.027   c3.332,6.942-27.933,18.25-46.034,10.198c0,0,1.335-15.547,12.996-5.275c0,0-10.273-1.664-10.273,4.72   c0,0,22.381,4.217,36.927-5.756c9.716-6.663-14.438-3.129-14.438-3.129S299.252,386.407,298.418,352.256z"/>
	<g>
		
			<rect x="240.599" y="366.816" transform="matrix(0.9773 -0.2117 0.2117 0.9773 -72.2937 60.7292)" style="fill:#091438;" width="13.636" height="2.221"/>
		
			<rect x="244.095" y="371.481" transform="matrix(0.9276 -0.3735 0.3735 0.9276 -121.1598 119.8809)" style="fill:#091438;" width="9.353" height="2.221"/>
		<path style="fill:#FFFFFF;" d="M283.097,364.065c0,11.662-8.195,21.1-18.324,21.1c-10.106,0-18.325-9.439-18.325-21.1v-0.335    l35.65-6.528C282.74,359.36,283.097,361.666,283.097,364.065z"/>
		<path style="fill:#091438;" d="M261.877,366.481c0,2.408-2.775,4.364-6.198,4.364c-3.424,0-6.201-1.956-6.201-4.364    c0-2.412,2.777-4.362,6.201-4.362C259.101,362.119,261.877,364.069,261.877,366.481z"/>
		<path style="fill:#091438;" d="M244.393,363.986c8.703-6.626,28.201-10.122,38.673-7.002l0.079,0.437    c-9.668,2.013-28.913,5.498-38.673,7.003L244.393,363.986z"/>
	</g>
	<g>
		
			<rect x="333.251" y="348.516" transform="matrix(0.9883 -0.1527 0.1527 0.9883 -49.3802 56.2265)" style="fill:#091438;" width="16.295" height="2.22"/>
		
			<rect x="335.705" y="353.238" transform="matrix(0.9997 -0.0237 0.0237 0.9997 -8.2958 8.1881)" style="fill:#091438;" width="11.709" height="2.221"/>
		<path style="fill:#FFFFFF;" d="M344.43,352.25c0,11.659-8.219,21.1-18.325,21.1c-10.083,0-18.234-9.349-18.325-20.924    l35.785-6.572C344.119,347.876,344.43,350.026,344.43,352.25z"/>
		<path style="fill:#091438;" d="M322.426,355.237c0,2.412-2.777,4.364-6.2,4.364c-3.424,0-6.201-1.952-6.201-4.364    c0-2.407,2.777-4.365,6.201-4.365C319.649,350.872,322.426,352.83,322.426,355.237z"/>
		<path style="fill:#091438;" d="M307.068,352.637c8.702-6.624,28.203-10.123,38.675-7l0.078,0.437    c-9.669,2.012-28.913,5.497-38.674,7.002L307.068,352.637z"/>
	</g>
	<path style="fill:#FF6C7E;" d="M272.268,332.036c-2.446,12.999-16.741,20.867-29.231,18.836   c10.595-0.335,22.501-8.086,22.62-19.657L272.268,332.036z"/>
	<path style="fill:#FF6C7E;" d="M296.786,309.704c14.518-8.561,35.111-4.81,44.611,9.453c-10.159-11.462-28.887-13.449-40.971-3.873   L296.786,309.704z"/>
	<path style="fill:#091438;" d="M130.669,362.613c0,0,13.483-14.673,26.735-3.458c13.25,11.205,11.912,57.28-9.831,53.606   c-21.741-3.674-6.952-25.188,1.373-25.226l-11.596-5.873l17.519,5.633c0,0-19.225,9.57-15.253,17.783   c3.965,8.212,22.975,8.879,23.61-16.516C164.341,343.866,130.669,362.613,130.669,362.613z"/>
	<path style="fill:#091438;" d="M244.536,467.2c0,0,33.873,15.546,76.444-17.397C320.981,449.803,282.479,487.931,244.536,467.2z"/>
	<g style="opacity:0.1;">
		<path style="fill:#FFFFFF;" d="M198.213,292.538c-14.602,2.893-28.269,1.833-40.764-6.748    c-13.798-9.475-23.733-38.278,7.675-34.547c5.184,0.615,10.255,2.52,15.114,4.344c2.528,0.95,4.856,2.237,6.989,3.864    c5.988,3.335,5.331,5.766-1.972,7.296c-6.574-4.111-11.503-11.139-14.322-18.174c-10.607-26.462-1.897-79.895,35.929-73.589    c2.984,0.498,6.619-3.675,2.305-4.394c-29.916-4.989-45.495,20.519-48.383,47.057c-1.483,13.639,0.682,28.092,7.255,40.176    c4.023,7.396,16.558,19.552,26.045,15.149c11.503-5.339,0.342-16.979-6.761-20.056c-14.575-6.315-31.813-10.454-46.001-1.325    c-12.541,8.07,0.529,28.708,7.865,34.971c14.512,12.386,32.011,13.646,50.119,10.058    C203.347,295.819,202.166,291.755,198.213,292.538L198.213,292.538z"/>
		<path style="fill:#FFFFFF;" d="M264.394,159.075c-23.302,10.764-38.381,81.296-2.043,82.967    c31.516,1.449,43.145-37.49,40.733-63.047c-0.726-7.704-7.357-10.343-13.24-5.883c-9.46,7.171,10.852,25.401,15.64,28.164    c21.993,12.695,49.452-3.583,50.612-27.805c0.048-1.004-6.344-0.2-6.436,1.724c-1.274,26.611-30.254,34.606-47.927,16.142    c-2.754-2.876-4.092-5.66-5.404-9.15c-0.419-1.116-2.355-9.81-0.206-4.075c2.523,6.736,0.567,16.264-0.535,23.08    c-1.223,7.558-3.854,14.833-7.113,21.726c-8.736,18.475-30.396,21.133-38.636,2.41c-5.269-11.975-1.597-27.369,2.086-39.118    c2.669-8.515,7.583-22.262,16.19-26.237C271.981,158.187,265.935,158.364,264.394,159.075L264.394,159.075z"/>
		<g>
			<path style="fill:#FFFFFF;" d="M394.241,247.96c-0.31-2.508-0.784-5.05-1.36-7.546c-5.109,4.849-2.421,12.404,1.411,18.277     c0.331-2.15,0.408-4.46,0.293-6.85c-0.409-1.239-0.761-2.473-1.064-3.659C393.595,248.473,393.861,248.327,394.241,247.96z"/>
			<path style="fill:#FFFFFF;" d="M363.25,254.464c-1.858-9.292,0.796-19.349,5.111-27.543c0.355-0.675-2.723-0.399-3.194,0.494     c-5.813,11.041-8.326,32.298,0.749,42.425c2.569,0.738,4.929,1.268,7.088,1.603C368.137,267.802,364.535,260.884,363.25,254.464z     "/>
		</g>
		<path style="fill:#FFFFFF;" d="M389.393,207.905c13.977-2.852,48.034-25.081,28.038-41.321    c-10.08-8.185-37.193,0.048-34.434,15.131c0.058,0.321,0.45,0.402,0.707,0.449c5.597,1.027,8.25-6.353,10.089-10.442    c4.236-9.418,2.174-21.271-3.839-29.268c-8.753-11.64-26.193-7.355-27.765,6.654c-0.118,1.061,2.13,0.71,2.232-0.205    c1.489-13.276,16.34-12.436,23.498-5.51c3.233,3.128,4.35,7.729,5.263,11.938c1.5,6.92-0.435,13.869-3.24,20.103    c-3.296-2.441-2.88-4.438,1.246-5.991c3.48-2.187,7.241-3.525,11.287-4.017c10.8-1.807,18.399,3.987,17.403,14.928    c-1.366,15.001-18.023,23.555-30.856,26.173C387.639,206.808,388.036,208.183,389.393,207.905L389.393,207.905z"/>
		<path style="fill:#FFFFFF;" d="M215.879,198.917c-10.34-1.687-18.018-7.354-22.336-16.811c-4.973-10.889,8.904-20.117,18.5-14.365    c3.619,2.171,6.847,5.25,8.441,9.214c-2.735,2.811-4.679,2.326-5.833-1.456c-1.416-2.254-2.197-4.977-3.036-7.475    c-5.918-17.605-3.973-35.077,4.006-51.701c4.616-9.62,17.592-25.704,30.957-17.895c5.051,2.952,5.794,10.264,4.955,15.374    c-0.507,3.099-1.954,6.149-3.164,9.01c-3.937,9.31-9.247,9.462-7.385-1.938c5.451-33.363,64.632-57.566,77.752-18.366    c0.656,1.959,7.046,0.095,6.437-1.724c-8.238-24.614-33.814-24.741-54.599-17.166c-14.347,5.227-47.111,31.677-33.82,49.714    c8.425,11.432,20.263-16.95,21.179-20.472c5.663-21.777-21.393-23.109-33.561-13.771c-16.915,12.978-24.969,35.751-22.231,56.628    c1.14,8.685,6.229,35.794,20.914,25.864c6.952-4.701,2.543-10.156-2.713-14.597c-6.616-5.59-14.35-6.003-22.403-3.734    c-5.806,1.636-11.852,7.579-11.701,13.979c0.332,14.071,12.737,22.725,25.606,24.824    C213.593,202.338,219.381,199.488,215.879,198.917L215.879,198.917z"/>
		<path style="fill:#FFFFFF;" d="M335.376,96.86c-9.076-3.966-5.009-26.114-3.342-32.628c2.662-10.393,9.633-17.146,18.367-22.563    c3.588-2.225,13.137-7.694,15.427-1.573c1.613,4.311-2.102,10.515-4.127,14.144c-2.148,3.847-0.018-7.783,0.538-9.146    c3.255-7.969,24.43-25.489,26.85-9.598c0.181,1.194,6.672-0.18,6.436-1.724c-1.361-8.942-9.874-8.362-17.12-6.421    c-10.125,2.714-18.072,9.408-22.504,18.917c-1.561,3.344-5.331,14.858,2.47,13.177c8.308-1.791,11.774-8.385,13.758-16.465    c4.289-17.475-23.969-3.041-28.812-0.038c-8.892,5.513-14.102,12.494-17.622,22.463c-2.613,7.402-5.598,29.586,3.605,33.608    C331.015,99.762,335.93,97.102,335.376,96.86L335.376,96.86z"/>
		<path style="fill:#FFFFFF;" d="M165.312,59.615c-14.195,14.024-25.492,38.314-7.598,54.288    c11.722,10.466,22.969-8.428,21.843-18.526c-0.51-4.568-3.965-5.9-7.836-5.014c-6.104,1.398-6.514,11.598-6.82,16.218    c-1.058,16.024,5.897,33.1,24.114,30.463c3.246-0.469,5.198-4.6,0.771-3.959c-12.82,1.854-16.246-8.826-17.951-18.36    c-0.692-3.867-0.535-7.846-0.277-11.744c0.169-2.562,2.38-12.071,1.65-0.792c-0.521,8.094-9.46,10.134-14.074,4.209    c-3.716-4.773-4.305-11.046-4.117-16.785c0.368-11.245,7.919-21.128,15.532-28.649C173.312,58.238,166.997,57.951,165.312,59.615    L165.312,59.615z"/>
		<path style="fill:#FFFFFF;" d="M349.624,86.66c8.141,8.203,15.15,16.82,17.768,28.34c4.102,18.065-19.217,25.877-30.48,14.006    c-4.759-5.013-2.356-18.024,0.396-8.559c1.115,3.83-0.099,8.334-1.165,12.029c-4.637,16.066-20.57,16.833-34.086,11.723    c-2.889-1.093-9.647,3.073-4.946,4.85c19.318,7.304,39.513,3.282,47.312-17.466c2.463-6.555,3.02-18.018-4.711-21.125    c-4.226-1.697-10.999,0.789-13.066,4.926c-9.63,19.26,18.791,29.211,32.981,22.708c26.974-12.362,13.939-38.35-2.386-54.798    C355.001,81.037,347.176,84.193,349.624,86.66L349.624,86.66z"/>
		<path style="fill:#FFFFFF;" d="M136.3,297.769c-12.868,6.408-25.322,6.302-35.19-4.708c-3.887-4.337-10.339-14.281-4.664-19.54    c4.437-4.114,13.294-1.398,16.887,2.257c3.388,3.446-3.047,3.418-5.163,2.792c-1.965-0.58-3.733-1.757-5.449-2.839    c-5.354-3.373-17.545-14.196-9.047-20.276c1.778-1.272-0.834-2.46-2.147-1.519c-12.045,8.618,5.557,22.498,13.447,26.31    c2.644,1.277,10.761,2.84,12.295-1.103c1.914-4.92-4.926-8.204-8.619-9.341c-12.624-3.886-21.318,6.209-15.27,17.549    c3.36,6.301,8.743,12.771,15.543,15.564c10.211,4.194,19.271,1.563,28.818-3.191C139.707,298.743,137.948,296.948,136.3,297.769    L136.3,297.769z"/>
	</g>
	<path style="fill:#FFC524;" d="M142.75,464.919c-13.983,0-25.358-10.961-25.358-24.432c0-13.475,11.375-24.437,25.358-24.437v6.665   c-10.307,0-18.694,7.972-18.694,17.772c0,9.798,8.387,17.768,18.694,17.768c10.308,0,18.694-7.97,18.694-17.768   c0-1.698-0.25-3.376-0.743-4.989l6.369-1.952c0.689,2.245,1.038,4.579,1.038,6.94C168.108,453.958,156.733,464.919,142.75,464.919z   "/>
</g>















</svg>
