<?xml version="1.0" encoding="UTF-8"?>
<!-- Generator: Adobe Illustrator 25.2.3, SVG Export Plug-In . SVG Version: 6.00 Build 0)  -->
<svg xmlns="http://www.w3.org/2000/svg" xmlns:xlink="http://www.w3.org/1999/xlink" version="1.1" id="Capa_1" x="0px" y="0px" viewBox="0 0 512 512" style="enable-background:new 0 0 512 512;" xml:space="preserve" width="512" height="512">
<g>
	<path style="fill:#FF6C7E;" d="M115.678,352.623c-0.76-67.527,17.367-192.409,163.374-184.103   c66.694,3.788,103.524,39.861,123.04,86.184c0,0-55.981,80.848-55.115,81.268c0.862,0.418-175.842,70.269-175.842,70.269   l-51.315-14.315L115.678,352.623z"/>
	<path style="fill:#7C3E25;" d="M287.571,509.941c0,0-119.592,23.375-140.417-87.393c0,0-82.673,9.138-76.362-43.243   c3.531-29.358,24.132-33.143,44.885-26.682c16.278,5.049,32.638,16.434,40.943,26.682l47.962-97.19   c0,0,68.794,17.041,96.562-29.658l-10.733-42.916l18.933,41.02c0,0,55.263,19.616,92.748,4.143   c38.778,92.162,8.858,224.945,8.858,224.945l-116.752,11.359C294.198,491.008,306.82,507.102,287.571,509.941z"/>
	<path style="fill:#FF6C7E;" d="M235.861,190.607c0,0-28.396,44.178-39.755,44.178c-11.362,0-6.943-29.66-6.943-29.66   s-50.488,30.29-60.587,20.194c-10.095-10.097,23.346-34.711,23.346-34.711s-23.991-0.648-25.244-5.688   c-1.26-5.039,25.244-8.195,25.244-8.195s-39.755-25.876-30.289-39.13c9.47-13.251,30.289-4.417,30.289-4.417   s-30.289-77.623-1.889-83.933c28.403-6.313,51.749,15.776,51.749,15.776s8.772-66.265,44.776-65.003   c36.007,1.264,49.258,57.43,49.258,57.43s4.419-19.563,14.518-18.301c10.095,1.262,3.155,26.505,3.155,26.505   s24.613-26.505,39.755-13.882c15.146,12.62-22.717,71.251-22.717,71.251s18.512-10.038,26.294-2.463   c7.789,7.573-11.148,22.089-11.148,22.089s25.241,0.632,26.508,10.727c1.264,10.098-41.022,10.098-41.022,10.098   s42.335,10.08,41.045,21.449c-1.29,11.37-58.087,6.319-58.087,6.319s12.622,8.837,6.311,13.886   c-6.311,5.048-19.565-15.148-19.565-15.148S253.534,241.096,235.861,190.607z"/>
	<path style="fill:#091438;" d="M345.674,142.646c0,0,25.241,0.632,26.508,10.727c1.264,10.098-41.022,10.098-41.022,10.098   s42.335,10.08,41.045,21.449c-1.29,11.37-58.087,6.319-58.087,6.319s12.622,8.837,6.311,13.886   c-6.311,5.048-19.565-15.148-19.565-15.148s-47.33,51.119-65.003,0.63c0,0-28.396,44.178-39.755,44.178   c-11.362,0-6.943-29.66-6.943-29.66s-50.488,30.29-60.587,20.194c-10.095-10.097,23.346-34.711,23.346-34.711   s-27.054,28.581-20.759,32.609c6.301,4.022,60.166-22.663,60.166-22.663s-3.188,30.14,4.63,30.236   c7.818,0.092,41.44-45.441,41.44-45.441s14.142,51.751,61.87,0.423c0,0,12.813,18.078,17.861,16.827   c5.054-1.247-8.842-13.882-8.842-13.882s61.232,1.13,60.143-5.049c-1.089-6.178-43.128-21.036-43.128-21.036   s43.651-4.413,43.128-9.676C367.904,147.688,345.674,142.646,345.674,142.646z"/>
	<g>
		<polygon style="opacity:0.3;fill:#FF6C7E;" points="242.238,421.38 323.861,414.227 327.224,313.252 228.774,328.621   "/>
		<polygon style="opacity:0.3;fill:#FF6C7E;" points="352.627,406.241 434.246,399.084 437.613,298.11 339.159,313.478   "/>
		<path style="fill:#EA4A0C;" d="M239.004,425.465L224.49,325.457l106.673-16.651l-3.63,108.899L239.004,425.465z M233.061,331.784    l12.412,85.512l74.716-6.548l3.1-93.049L233.061,331.784z"/>
		<path style="fill:#EA4A0C;" d="M349.392,410.324l-14.521-100.01l106.68-16.651l-3.633,108.899L349.392,410.324z M343.446,316.642    l12.415,85.514l74.71-6.55l3.103-93.049L343.446,316.642z"/>
		
			<rect x="149.676" y="374.883" transform="matrix(1 -0.0048 0.0048 1 -1.8178 0.9313)" style="fill:#EA4A0C;" width="86.331" height="7.574"/>
		
			<rect x="325.15" y="365.341" transform="matrix(0.9862 -0.1655 0.1655 0.9862 -56.4651 60.7339)" style="fill:#EA4A0C;" width="21.977" height="7.574"/>
	</g>
	<path style="fill:#091438;" d="M343.216,378.453l-7.078,53.445c0,0,24.744-17.252,20.963,11.359c0,0-35.343-4.205-44.177,0   c0,0-5.047-19.775,8.835-9.677c0,0-7.992-1.682-6.314,6.309c0,0,26.929-3.364,39.551,0c0,0-0.503-18.089-20.239-4.624   C334.756,435.264,333.96,388.12,343.216,378.453z"/>
	
		<rect x="247.498" y="335.549" transform="matrix(0.9636 -0.2672 0.2672 0.9636 -81.3798 83.1346)" style="fill:#091438;" width="34.582" height="10.098"/>
	
		<rect x="361.095" y="314.894" transform="matrix(0.1383 -0.9904 0.9904 0.1383 -12.1497 647.6843)" style="fill:#091438;" width="10.098" height="31.862"/>
	<path style="fill:#FFC524;" d="M115.391,462.61c-15.893,0-28.824-12.456-28.824-27.768c0-15.314,12.931-27.773,28.824-27.773v7.573   c-11.721,0-21.25,9.062-21.25,20.2c0,11.135,9.529,20.195,21.25,20.195c11.714,0,21.243-9.06,21.243-20.195   c0-1.935-0.283-3.842-0.846-5.666l7.242-2.224c0.78,2.548,1.178,5.202,1.178,7.891C144.209,450.154,131.281,462.61,115.391,462.61z   "/>
	<g>
		<path style="fill:#FF6C7E;" d="M261.675,453.153c0.247,9.322-10.769,17.178-24.612,17.553    c-13.84,0.375-25.271-6.877-25.521-16.197c-0.25-9.318,10.767-17.178,24.606-17.546    C249.994,436.581,261.419,443.834,261.675,453.153z"/>
		<path style="opacity:0.2;fill:#FFFFFF;" d="M261.675,453.153c0.247,9.322-10.769,17.178-24.612,17.553    c-13.84,0.375-25.271-6.877-25.521-16.197c-0.25-9.318,10.767-17.178,24.606-17.546    C249.994,436.581,261.419,443.834,261.675,453.153z"/>
		<path style="fill:#091438;" d="M210.874,429.945c0,0,3.774,36.452,57.26,25.81C268.134,455.755,214.75,476.01,210.874,429.945z"/>
	</g>
	<path style="fill:#7C3E25;" d="M293.566,242.149c0,0-31.974,46.701-112.333,26.505   C181.233,268.654,252.334,280.016,293.566,242.149z"/>
	<path style="fill:#7C3E25;" d="M287.943,226.363c0,0-37.359,46.702-131.269,26.506C156.674,252.869,239.764,264.23,287.943,226.363   z"/>
	<path style="fill:#7C3E25;" d="M284.317,210.576c0,0-37.367,46.701-131.27,26.508C153.047,237.083,236.135,248.442,284.317,210.576   z"/>
	<path style="fill:#7C3E25;" d="M381.921,233.161c0,0-33.806,38.201-76.753,3.22C305.169,236.381,345.154,261.137,381.921,233.161z"/>
	<path style="fill:#7C3E25;" d="M376.022,217.375c0,0-33.803,38.202-76.753,3.219C299.269,220.595,339.257,245.349,376.022,217.375z   "/>
	<path style="fill:#7C3E25;" d="M362.962,200.553c0,0-30.891,35.647-69.504,3.565C293.458,204.118,329.472,226.746,362.962,200.553z   "/>
	<g style="opacity:0.2;">
		<path style="fill:#FFFFFF;" d="M204.359,187.824c-20.348,8.385-47.211-16.551-42.032-37.145c4.159-16.52,35.672,0.98,38.001,11.74    c2.511,11.596-18.209-11.339-18.42-11.656c-5.811-8.731-8.259-19.525-9.585-29.754c-1.217-9.373,0.069-18.973,3.294-27.799    c3.465-9.49,11.839-17.476,24.524-10.763c5.982,3.167,8.963,10.921,11.513,16.791c0.806,1.856,7.924-0.563,7.315-1.961    c-5.89-13.568-15.797-24.356-31.762-20.077c-15.129,4.054-20.595,18.636-22.329,32.827c-2.474,20.294,5.765,44.342,22.52,56.561    c6.324,4.608,17.936,5.434,20.197-3.917c4.514-18.68-37.294-26.695-48.321-16.518c-12.165,11.225-0.747,28.66,8.943,37.177    c10.75,9.447,25.732,11.624,38.703,6.276C211.723,187.628,207.172,186.665,204.359,187.824L204.359,187.824z"/>
		<path style="fill:#FFFFFF;" d="M277.979,129.515c-22.28,3.236-38.613,28.666-36.093,50.34    c2.514,21.592,28.258,21.515,41.588,11.048c9.691-7.616,14.82-21.388,10.802-33.04c-2.839-8.238-10.19-7.928-15.689-3.387    c-7.157,5.91,0.582,16.195,5.988,19.881c10.661,7.267,23.543,9.011,35.672,4.799c4.301-1.494,3.218-5.972-1.188-4.441    c-9.355,3.248-17.722,1.65-26.422-2.695c-2.593-1.583-4.817-3.562-6.676-5.938c-1.747-11.035-0.938-11.729,2.438-2.083    c5.62,16.299-16.59,34.826-31.019,26.97c-22.925-12.479,1.369-53.975,19.802-56.652    C280.987,133.766,282.987,128.788,277.979,129.515L277.979,129.515z"/>
		<path style="fill:#FFFFFF;" d="M258.266,102.15c-17.906,7.285-38.162-26.924-35.435-41.504c2.514-13.448,24.103,0.984,29.17,4.733    c3.471,2.57,6.488,5.714,9.055,9.172c0.655,0.885,5.377,11.419-0.665,7.971c-18.864-10.765-30.74-40.838-26.761-61.319    c4.745-24.402,32.398,13.058,35.231,17.748c7.88,13.07,11.73,28.435,15.205,43.135c0.378,1.609,7.716-0.25,7.315-1.961    c-5.88-24.905-14.205-50.272-35.248-66.416c-11.135-8.547-25.096-3.966-29.719,8.782c-6.364,17.568,6.183,40.601,17.39,53.547    c6.074,7.015,17.598,17.084,26.005,7.324c8.078-9.373-15.452-23.884-20.921-26.84c-8.95-4.837-20.223-6.948-29.091-0.956    c-12.523,8.466,0.54,28.714,6.851,36.47c8.493,10.436,21.151,17.066,34.148,11.775C265.62,101.851,261.037,101.023,258.266,102.15    L258.266,102.15z"/>
		<path style="fill:#FFFFFF;" d="M308.653,139.737c-11.602-7.874-15.85-19.422-13.099-33.058c3.327-16.503,14.475-1.29,16.245,2.343    c0.586,1.196,2.379,13.496,0.049,7.637c-2.583-6.482,0.142-15.919,1.652-22.482c1.353-5.878,19.081-45.895,28.581-25.652    c1.274,2.711,8.447,0.449,7.315-1.961c-9.986-21.278-35.273,6.5-39.992,17.758c-2.241,5.345-12.418,49.021,5.452,41.182    c13.8-6.051,1.813-31.937-11.935-30.511c-26.212,2.719-14.86,38.401-0.043,48.457    C305.024,144.906,311.729,141.826,308.653,139.737L308.653,139.737z"/>
		<path style="fill:#FFFFFF;" d="M196.277,97.106c-12.115,16.813-3.656,47.264,18.604,49.89    c18.071,2.132,31.417-11.267,28.814-29.397c-0.796-5.551-7.157-7.32-11.431-4.309c-5.403,3.809-7.114,15.5-3.603,20.942    c4.488,6.959,13.382,9.672,21.056,5.447c9.684-5.335,13.402-14.381,16.831-24.507c1.05-3.106-6.403-2.229-7.384,0.67    c-1.592,4.718-3.346,9.11-5.771,13.45c-10.342,8.606-16.623,8.313-18.857-0.88c-0.099-1.823-0.016-3.636,0.247-5.441    c0.75-7.524,2.027,0.448,1.839,3.562c-0.3,5.067-2.833,9.668-6.666,12.965c-8.749,7.525-21.424,0.28-26.998-7.197    c-6.63-8.899-6.048-25.82,0.257-34.573C205.438,94.643,197.965,94.758,196.277,97.106L196.277,97.106z"/>
	</g>
	<path style="fill:#091438;" d="M104.204,380.921c0,0,10.5-11.191,26.353-4.116c15.86,7.079,24.458,39.656,1.625,38.426   c-22.839-1.231-12.497-17.328-4.061-17.874l-13.027-3.417l18.976,2.877c0,0-17.423,7.95-11.622,13.498   c5.801,5.541,25.212,4.82,20.368-13.131C134.288,365.594,104.204,380.921,104.204,380.921z"/>
	<g>
		<path style="fill:#091438;" d="M272.534,379.618c0,6.802-2.451,12.308-5.475,12.308c-3.017,0-5.466-5.507-5.466-12.308    c0-6.791,2.448-12.303,5.466-12.303C270.082,367.315,272.534,372.826,272.534,379.618z"/>
		<rect x="254.864" y="378.356" style="fill:#091438;" width="13.27" height="2.525"/>
		
			<rect x="259.184" y="366.762" transform="matrix(0.1751 -0.9846 0.9846 0.1751 -153.9378 565.4202)" style="fill:#091438;" width="2.525" height="15.621"/>
		
			<rect x="259.7" y="361.424" transform="matrix(0.5776 -0.8163 0.8163 0.5776 -190.9043 368.8672)" style="fill:#091438;" width="2.522" height="14.938"/>
	</g>
	<g>
		<path style="fill:#091438;" d="M368.43,367.315c0,6.798-2.448,12.303-5.468,12.303c-3.017,0-5.472-5.505-5.472-12.303    c0-6.795,2.455-12.308,5.472-12.308C365.983,355.007,368.43,360.52,368.43,367.315z"/>
		
			<rect x="362.901" y="365.212" transform="matrix(0.9897 -0.1434 0.1434 0.9897 -48.7425 56.6695)" style="fill:#091438;" width="11.717" height="2.524"/>
		<polygon style="fill:#091438;" points="363.403,364.921 362.521,362.556 376.009,357.507 376.89,359.874   "/>
		
			<rect x="361.805" y="354.591" transform="matrix(0.8206 -0.5716 0.5716 0.8206 -137.315 274.3207)" style="fill:#091438;" width="12.857" height="2.523"/>
	</g>
</g>















</svg>
