<?xml version="1.0" encoding="UTF-8"?>
<!-- Generator: Adobe Illustrator 25.4.1, SVG Export Plug-In . SVG Version: 6.00 Build 0)  -->
<svg xmlns="http://www.w3.org/2000/svg" xmlns:xlink="http://www.w3.org/1999/xlink" version="1.1" id="Capa_1" x="0px" y="0px" viewBox="0 0 512 512" style="enable-background:new 0 0 512 512;" xml:space="preserve" width="512" height="512">
<g>
	<g>
		<g>
			<g>
				<path style="fill:#FFCF00;" d="M55.207,258.184c16.336-3.802,25.002-28.074,26.512-44.578c0.185-2.022-0.296-3.393-2.424-3.114      c-8.552,1.121-19.584,8.391-24.636,19.656c-4.342,9.683-4.235,20.883-1.869,27.042C53.13,258.076,54.275,258.401,55.207,258.184      z"/>
			</g>
			<g>
				<path style="fill:#FFCF00;" d="M94.689,293.136c1.068-3.815,1.943-6.443-2.623-6.586c-20.578-0.644-33.211,12.963-34.527,26.412      c-0.094,0.964,0.552,1.853,1.45,2.144C70.399,318.806,89.977,309.968,94.689,293.136z"/>
			</g>
			<g>
				<path style="fill:#FFCF00;" d="M38.957,312.285c6.658-0.356,0.336-15.531-1.104-18.35      c-5.177-10.137-14.311-17.771-26.551-21.212c-5.746-1.615-8.646,0.876-7.176,7.185C8.732,299.677,27.6,312.892,38.957,312.285z"/>
			</g>
			<g>
				<path style="fill:#FFCF00;" d="M41.554,337.783c2.322-1.019,3.605-2.471,2.781-4.859c-1.068-3.097-3.453-5.989-5.695-8.333      c-5.525-5.778-13.4-9.077-21.254-10.086c-2.069-0.266-17.852-1.085-15.76,4.014C7.928,333.876,25.954,344.627,41.554,337.783z"/>
			</g>
			<g>
				<path style="fill:#FFCF00;" d="M62.008,268.284c-1.171,1.743-8.067,13.51-4.048,14.462c6.762,1.603,15.525-1.813,21.541-4.933      c7.768-4.028,14.565-10.171,19.096-17.697c2.132-3.541,3.212-7.787-0.9-8.13C83.333,250.789,70.234,256.036,62.008,268.284z"/>
			</g>
			<g>
				<path style="fill:#FFCF00;" d="M42.335,372.06c3.925-0.634,19.672-4.093,13.523-10.739      c-11.228-12.129-31.156-11.374-44.331-2.789c-7.168,4.671,4.576,9.832,8.235,11.24C26.837,372.497,34.773,373.281,42.335,372.06      z"/>
			</g>
			<g>
				<path style="fill:#FFCF00;" d="M71.367,349.939c13.059-4.511,23.425-14.909,25.376-28.5c0.285-1.989-0.095-3.955-2.533-3.992      c-5.955-0.091-11.387,2.814-16.002,6.364c-7.097,5.458-13.31,15.55-14.024,24.618C63.931,351.656,68.308,350.995,71.367,349.939      z"/>
			</g>
			<g>
				<path style="fill:#FFCF00;" d="M123.993,379.239c-0.207-2.902-2.153-16.631-7.453-12.481      c-14.452,11.317-15.519,30.206-7.755,35.768c2.099,1.504,6.262-1.995,8.202-3.684      C122.48,394.059,124.496,386.295,123.993,379.239z"/>
			</g>
			<g>
				<path style="fill:#FFCF00;" d="M81.351,370.128c1.035,22.321,20.89,6.151,25.47-8.055c1.706-5.292,2.094-10.713,0.828-16.173      c-0.824-3.555-1.965-4.267-5.509-3.437C90.217,345.254,80.729,356.726,81.351,370.128z"/>
			</g>
			<g>
				<path style="fill:#FFCF00;" d="M80.78,396.131c3.308-5.575-14.031-13.357-32.441-6.147c-4.058,1.589-17.239,7.205-11.839,13.143      C45.202,412.698,72.985,409.268,80.78,396.131z"/>
			</g>
			<g>
				<path style="fill:#FFCF00;" d="M88.064,411.392c-9.139,0.498-15.357,4.04-22.368,9.981c-1.516,1.284-2.718,2.848-3.787,4.511      c-0.685,1.066-0.508,2.475,0.446,3.31c9.245,8.092,27.217,5.886,36.49-1.986c3.851-3.268,8.012-7.639,4.519-11.297      C101.229,413.675,95.475,410.989,88.064,411.392z"/>
			</g>
			<g>
				<path style="fill:#FFCF00;" d="M42.955,277.943c2.013-0.187,2.344-2.75,2.417-4.337c1.327-29.037-32.853-57.628-25.089-23.135      C24.349,268.541,39.322,278.281,42.955,277.943z"/>
			</g>
		</g>
		<path style="fill:#000E3F;" d="M136.518,425.595c-8.935-3.982-17.357-8.679-25.236-13.913c-0.618-2.244-0.886-4.756-0.878-7.391    c2.404-0.223,5.184-2.325,7.526-4.365c5.293-4.606,8.095-12.378,7.496-20.789c-0.008-0.123-0.925-12.231-5.543-14.28    c-0.945-0.421-2.448-0.625-4.228,0.77c-9.89,7.744-13.245,18.375-13.087,25.742c0.112,5.241,1.934,9.565,4.993,12.001    c-0.045,2.082,0.053,4.116,0.334,6.052c-8.346-5.841-15.967-12.349-22.793-19.356c0.337-2.755,0.773-5.318,1.294-7.676    c0.244,0.059,0.487,0.109,0.724,0.141c0.321,0.043,0.644,0.063,0.975,0.063c7.435,0,17.052-10.646,20.094-20.08c0,0,0,0,0-0.001    c1.848-5.731,2.138-11.43,0.861-16.938c-0.391-1.688-0.949-3.372-2.378-4.26c-1.426-0.887-3.178-0.645-4.858-0.252    c-13.113,3.069-22.526,15.593-21.898,29.131c0.281,6.049,1.906,9.232,3.835,10.853c-0.455,1.987-0.855,4.107-1.189,6.369    c-8.053-8.68-14.842-18.098-20.171-28.004c0-0.002,0.001-0.003,0.002-0.005c0.295-2.529,1.273-5.058,2.644-7.518    c0.614,0.218,1.272,0.354,1.982,0.354c1.724,0,3.58-0.518,4.819-0.946c14.324-4.947,24.413-16.31,26.329-29.653    c0.27-1.876-0.026-3.335-0.881-4.336c-0.494-0.578-1.424-1.272-3.053-1.297c-5.462-0.091-10.961,2.096-16.899,6.661    c-7.872,6.054-13.869,16.599-14.581,25.644c-0.046,0.592,0.041,1.063,0.171,1.483c-1.082,1.842-1.955,3.737-2.562,5.665    c-2.91-5.914-5.342-11.974-7.154-18.155c-1.115-3.804-2.002-7.667-2.748-11.557c2.046-3.276,4.72-6.46,7.717-9.472    c0.128,0.059,0.234,0.15,0.371,0.195c1.881,0.61,3.956,0.909,6.142,0.909c4.698,0,9.913-1.38,14.834-4.019    c8.221-4.408,14.253-11.64,16.549-19.839l0.09-0.323c0.722-2.562,1.346-4.776,0.139-6.422c-1.032-1.408-2.886-1.625-4.189-1.666    c-21.53-0.669-34.638,13.773-36.001,27.707c-0.044,0.45,0.023,0.887,0.15,1.305c-2.408,2.418-4.625,4.95-6.519,7.573    c-1.539-9.708-1.947-19.594-1.278-29.444c2.14-3.191,4.879-6.111,7.888-8.76c0.354,0.31,0.784,0.533,1.277,0.65    c1.316,0.312,2.688,0.451,4.091,0.451c6.336,0,13.304-2.841,18.443-5.507c8.146-4.224,15.13-10.698,19.667-18.23    c1.171-1.947,2.942-5.595,1.636-8.148c-0.451-0.882-1.45-1.972-3.649-2.155h0.002c-15.662-1.299-28.796,4.705-37.003,16.927    c-0.062,0.092-5.349,8.287-5.51,13.099c-2.3,1.963-4.468,4.085-6.4,6.371c0.994-9.232,2.924-18.388,5.794-27.275    c0.285-0.004,0.567-0.032,0.834-0.094c17.559-4.087,26.136-29.657,27.617-45.846c0.164-1.789-0.165-3.052-1.004-3.86    c-0.734-0.706-1.76-0.978-3.039-0.81c-8.748,1.148-20.406,8.555-25.76,20.493c-4.495,10.024-4.358,21.747-1.899,28.146    c0.138,0.359,0.34,0.659,0.579,0.917c-2.254,6.951-3.952,14.063-5.087,21.25c-0.34-0.762-0.701-1.544-1.075-2.341    c0.5-0.862,0.861-2.088,0.942-3.862c0.795-17.41-10.93-34.894-19.35-39.28c-3.616-1.883-5.875-1.116-7.136-0.145    c-2.92,2.247-3.405,7.813-1.441,16.541c4.23,18.795,19.413,28.599,23.953,28.599c0.089,0,0.175-0.004,0.254-0.012    c0.139-0.013,0.283-0.044,0.427-0.074c1.013,2.177,1.911,4.232,2.578,6.009c0.023,0.061,0.083,0.088,0.113,0.144    c-1.081,9.276-1.21,18.626-0.379,27.882c-0.834-1.244-1.699-2.469-2.597-3.672c0.978-5.893-4.037-16.266-4.096-16.381    c-5.471-10.713-15.215-18.505-27.442-21.942c-4.255-1.198-6.52-0.139-7.669,0.96c-1.706,1.63-2.141,4.3-1.294,7.935    c2.166,9.296,7.618,18.031,15.353,24.598c6.628,5.627,14.067,8.91,20.102,8.91c0.288,0,0.572-0.007,0.853-0.022    c1.121-0.06,2.052-0.456,2.77-1.13c1.757,2.427,3.394,4.922,4.799,7.463c0.849,5.986,2.072,11.915,3.758,17.724    c-1.416-1.094-2.878-2.129-4.368-3.113c0.061-0.779-0.068-1.538-0.299-2.209c-1.241-3.601-4.027-6.78-6.015-8.858    c-5.396-5.644-13.248-9.379-22.108-10.517c-0.14-0.018-13.859-1.349-16.901,2.616c-0.738,0.961-0.87,2.156-0.373,3.369    c3.673,8.949,11.162,16.432,20.035,20.017c3.726,1.505,7.477,2.258,11.151,2.258c3.661,0,7.244-0.748,10.649-2.241    c1.204-0.529,2.037-1.139,2.641-1.782c2.471,1.646,4.862,3.425,7.034,5.372c0.057,0.051,0.127,0.075,0.19,0.115    c2.507,7.333,5.777,14.495,9.773,21.403c-1.037-0.433-2.12-0.809-3.247-1.132c-0.228-0.831-0.702-1.75-1.61-2.73    c-11.962-12.924-32.87-11.683-46.169-3.016c-2.64,1.72-3.036,3.571-2.903,4.821c0.437,4.148,7.333,7.397,11.405,8.965    c5.041,1.94,10.588,2.936,16.128,2.936c2.414,0,4.825-0.189,7.192-0.571c2.293-0.37,13.617-2.453,15.759-7.493    c2.027,0.625,3.898,1.429,5.494,2.481c0.209,0.138,0.445,0.185,0.678,0.204c5.002,7.905,10.907,15.446,17.648,22.483    c0.037,0.22,0.111,0.426,0.239,0.602c-0.302-0.017-0.599-0.029-0.899-0.042c-0.085-0.113-0.131-0.231-0.225-0.342    c-4.124-4.854-18.404-8.616-33.444-2.725c-5.756,2.253-12.84,5.886-13.895,10.4c-0.287,1.226-0.257,3.098,1.516,5.048    c3.474,3.82,9.802,5.936,17.405,5.936c1.438,0,2.922-0.076,4.441-0.23c8.775-0.891,19.88-4.758,24.736-12.936    c0.416-0.701,0.561-1.452,0.552-2.21c1.001,0.061,2.008,0.129,3.038,0.236c0.079,0.008,0.15-0.017,0.226-0.02    c7.412,7.231,15.704,13.865,24.721,19.777c-1.98-0.029-4.038,0.077-6.132,0.294c-0.007-0.007-0.011-0.015-0.018-0.022    c-2.559-2.68-8.786-5.37-16.416-4.961c-9.793,0.533-16.365,4.511-23.22,10.32c-1.439,1.219-2.732,2.754-4.066,4.83    c-1.067,1.66-0.762,3.881,0.708,5.168c4.331,3.79,10.322,5.445,16.497,5.445c8.075,0,16.466-2.83,21.868-7.417    c2.853-2.421,6.152-5.642,6.332-9.078c0.027-0.529-0.045-1.037-0.162-1.534c3.681-0.311,7.196-0.259,10.129,0.42    c6.145,3.706,12.561,7.116,19.276,10.109c0.19,0.084,0.388,0.125,0.583,0.125c0.55,0,1.076-0.318,1.314-0.853    C137.569,426.768,137.243,425.919,136.518,425.595z M105.441,391.307c-0.143-6.672,2.931-16.327,11.985-23.418    c0.482-0.377,0.804-0.469,1.014-0.469c0.136,0,0.224,0.039,0.278,0.062c1.888,0.838,3.538,7.583,3.843,11.858    c0.535,7.515-1.902,14.4-6.517,18.417c-3.011,2.622-4.656,3.43-5.533,3.635c0.758-11.354,5.369-23.551,5.432-23.714    c0.284-0.741-0.087-1.571-0.828-1.855c-0.744-0.282-1.571,0.086-1.857,0.828c-0.25,0.651-4.407,11.675-5.471,22.824    C106.349,397.466,105.512,394.628,105.441,391.307z M82.787,370.062c-0.566-12.177,7.896-23.441,19.681-26.2    c0.783-0.184,1.403-0.275,1.869-0.275c0.365,0,0.636,0.056,0.815,0.168c0.413,0.256,0.77,1.064,1.096,2.469    c1.158,4.994,0.89,10.178-0.795,15.407c-2.955,9.161-12.478,18.77-17.954,18.051c-0.155-0.021-0.279-0.095-0.425-0.133    c3.968-15.069,10.938-21.217,11.044-21.309c0.605-0.512,0.68-1.416,0.168-2.022c-0.511-0.607-1.417-0.684-2.024-0.172    c-0.373,0.314-7.439,6.478-11.66,21.608C83.364,375.708,82.909,372.709,82.787,370.062z M79.086,324.95    c5.306-4.081,10.167-6.068,14.852-6.068c0.082,0,0.167,0,0.251,0.002c0.446,0.007,0.752,0.104,0.911,0.289    c0.278,0.326,0.362,1.097,0.223,2.062c-1.763,12.273-11.121,22.751-24.424,27.346c-1.85,0.639-3.35,0.834-4.284,0.758    c7.149-10.491,20.703-19.064,20.882-19.175c0.674-0.42,0.878-1.307,0.458-1.98c-0.419-0.671-1.303-0.88-1.98-0.458    c-0.692,0.432-12.149,7.664-19.785,17.313C67.89,337.694,72.923,329.689,79.086,324.95z M90.675,287.965    c0.444,0,0.893,0.007,1.346,0.021c1.52,0.048,1.885,0.389,1.962,0.493c0.379,0.517-0.134,2.338-0.586,3.945l-0.09,0.324    c0,0.001,0,0.001,0,0.001c-2.086,7.451-7.604,14.042-15.141,18.082c-6,3.219-12.626,4.371-17.636,3.178    c12.64-11.743,29.183-20.344,29.403-20.457c0.705-0.363,0.982-1.229,0.619-1.935c-0.362-0.706-1.229-0.983-1.935-0.621    c-0.893,0.46-16.705,8.69-29.371,20.267C61.354,299.516,72.609,287.965,90.675,287.965z M63.201,269.085    c6.915-10.297,17.643-15.83,30.492-15.83c1.274,0,2.571,0.054,3.885,0.164c0,0,0,0,0.002,0c1.067,0.089,1.263,0.473,1.327,0.599    c0.385,0.753,0.059,2.702-1.539,5.356c-4.267,7.084-10.847,13.179-18.527,17.162c-4.659,2.415-13.316,6.158-20.028,4.881    c11.776-9.378,26.23-14.69,26.424-14.761c0.747-0.27,1.134-1.093,0.864-1.839c-0.271-0.748-1.099-1.131-1.84-0.864    c-0.774,0.28-13.84,5.092-25.435,13.8C59.82,275.01,61.658,271.382,63.201,269.085z M21.683,250.155    c-2.373-10.544-0.301-13.1,0.39-13.632c0.38-0.292,0.838-0.409,1.325-0.409c0.907,0,1.918,0.402,2.73,0.826    c7.758,4.041,18.552,20.308,17.807,36.6c0,0,0,0,0,0.001c0,0.003,0,0.007-0.001,0.01c-5.451-10.92-12.527-22.898-12.929-23.576    c-0.404-0.684-1.285-0.907-1.969-0.504c-0.683,0.404-0.907,1.286-0.503,1.968c0.103,0.174,8.055,13.635,13.609,24.987    C38.414,275.51,25.474,266.995,21.683,250.155z M38.882,310.85c-10.241,0.557-28.783-11.644-33.355-31.268    c-0.585-2.503-0.413-4.352,0.48-5.205c0.483-0.462,1.247-0.695,2.231-0.695c0.765,0,1.667,0.141,2.676,0.424    c11.611,3.264,20.484,10.347,25.658,20.483c1.152,2.252,3.135,7.395,3.745,11.341c-10.507-12.828-23.018-22.365-23.705-22.884    c-0.634-0.479-1.534-0.353-2.011,0.281c-0.479,0.633-0.354,1.534,0.279,2.013c0.177,0.133,14.45,11.004,25.182,24.899    C39.886,310.527,39.599,310.812,38.882,310.85z M40.977,336.467c-6.1,2.676-12.865,2.659-19.569-0.05    c-8.17-3.301-15.069-10.196-18.452-18.444c-0.145-0.35-0.072-0.444-0.008-0.528c0.985-1.284,5.897-1.729,9.932-1.729    c1.728,0,3.293,0.081,4.324,0.214c8.21,1.055,15.454,4.482,20.398,9.653c1.626,1.7,3.78,4.207,4.974,6.933    c-12.502-7.428-25.556-11.14-26.27-11.339c-0.776-0.22-1.558,0.235-1.771,0.998c-0.212,0.764,0.234,1.557,0.998,1.77    c0.176,0.049,14.104,4.013,26.755,11.78C41.966,335.97,41.547,336.217,40.977,336.467z M42.106,370.642    c-7.308,1.179-15.06,0.396-21.829-2.209c-5.454-2.099-9.392-4.807-9.579-6.584c-0.07-0.658,0.474-1.368,1.614-2.112    c12.262-7.987,31.421-9.232,42.373,2.446c-13.524-2.445-30.09,0.875-30.988,1.061c-0.778,0.161-1.277,0.921-1.118,1.697    c0.16,0.778,0.92,1.277,1.698,1.117c0.22-0.046,17.97-3.619,31.159-0.82C53.84,367.723,46.903,369.867,42.106,370.642z     M55.97,230.736c4.922-10.976,15.554-17.776,23.512-18.819c0.134-0.018,0.243-0.024,0.332-0.024c0.256,0,0.34,0.055,0.34,0.055    c0.003,0.002,0.249,0.278,0.134,1.526c-1.323,14.474-9.137,38.541-24.465,43.006c3.584-10.219,8.357-20.061,14.364-29.198    c0.436-0.664,0.253-1.554-0.412-1.99c-0.661-0.434-1.554-0.252-1.99,0.411c-5.937,9.031-10.694,18.736-14.315,28.811    C51.928,248.414,52.263,239.002,55.97,230.736z M79.544,395.398c-3.548,5.982-12.401,10.513-22.553,11.545    c-8.527,0.861-15.961-0.968-19.428-4.781c-1.012-1.113-0.967-1.936-0.845-2.46c0.586-2.499,5.125-5.631,12.146-8.38    c12.213-4.781,23.308-2.69,28.237,0.329c-16.294,0.213-27.559,5.568-28.106,5.836c-0.714,0.348-1.01,1.208-0.664,1.921    c0.249,0.511,0.761,0.809,1.294,0.809c0.21,0,0.426-0.047,0.627-0.146c0.135-0.066,12.369-5.879,29.471-5.525    C79.768,394.967,79.629,395.255,79.544,395.398z M103.235,419.076c-0.137,2.638-4.038,5.949-5.32,7.037    c-8.486,7.203-25.816,9.697-34.614,1.999c-0.415-0.362-0.491-0.973-0.184-1.451c1.177-1.829,2.292-3.161,3.508-4.192    c6.595-5.589,12.495-9.151,21.518-9.643c0.486-0.027,0.965-0.039,1.433-0.039c4.757,0,8.532,1.305,10.85,2.682    c-11.184,1.768-21.94,5.742-22.617,5.996c-0.744,0.278-1.121,1.107-0.842,1.85c0.217,0.577,0.764,0.933,1.346,0.933    c0.168,0,0.338-0.03,0.503-0.092c0.174-0.064,12.501-4.622,24.237-6.153C103.189,418.347,103.255,418.699,103.235,419.076z"/>
	</g>
	<g>
		<g>
			<path style="fill:#DB5E43;" d="M193.731,206.628c0.359-0.075,0.716-0.17,1.079-0.21c3.179-0.352-5.605,8.03-4.812,22.31     c0.78,14.031,10.214,20.532,20.322,18.61c6.872-1.306,8.951-4.474,16.391-5.634c19.551-3.048,20.762,20.396,4.985,29.987     c-11.486,6.982-8.481,27.18,9.261,32.583c9.141,2.784,13.473-3.411,13.131,0.156c-0.624,6.505,1.07,12.349,5.009,17.55     c1.738,2.295,1.718,2.289,1.246,5.188c-1.263,7.764-0.508,7.321-1.009,10.056c-0.187,1.024-0.271,2.077-0.089,3.071     c0.452,2.464,0.324,4.967,0.698,7.443c0.712,4.706,2.566,10.661,5.706,14.098c3.419,3.742,6.075,0.669,33.803,6.771     c3.867,0.851,13.032,3.341,13.635,3.572c0.998,0.381,1.118,0.685,0.575,1.64c-15.981,28.093-48.76,63.79-81.038,69.593     c-20.892,3.756-44.786-11.896-60.364-26.354c-15.467-14.354-24.194-26.617-33.941-42.265c-1.22-1.96-0.745-2.324,0.453-2.711     c5.258-1.699,17.212-4.648,29.861-6.597c7.857-1.211,9.168-1.454,8.786,0.456c-1.895,9.493-4.166,11.845-3.237,12.098     c0.117,0.032,0.348-0.017,0.389-0.1c3.056-6.267,4.667-14.687,4.728-21.774c0.018-2.086,0.368-2.586,0.253-3.055     c-0.724-2.953,0.613-6.223-2.254-18.087c-3.935-16.279-7.897-15.811-3.776-17.152c11.993-3.903,28.687-13.196,27.923-14.214     c-0.961-1.278-23.823,18.288-54.659,17.356c-13.99-0.423-20.666-8.295-20.495-15.644c0.15-6.441,0.471-4.582,0.409-5.479     c-0.284-4.061-0.755-8.051-3.713-11.239c-3.246-3.499-3.151-8.216-0.739-11.039c1.807-2.114,2.836,3.454,13.847-1.531     c0.699-0.316,3.056-1.569,3.611-2.419c0.062-0.096-0.156-0.521-0.317-0.437c-2.241,1.18-4.426,3.062-9.707,3.924     c-7.289,1.189-12.623-5.963-8.665-11.749c0.564-0.824,2.71-3.25,3.58-4.741c0.742-1.271,1.657-1.665,3.077-1.512     c1.908,0.205,7.853-0.177,7.119-1.391c-0.23-0.38-0.632-0.066-3.617,0.394c-10.237,1.577-18.433-7.265-12.018-15.844     c8.825-11.802,11.782-13.552,14.08-16.909c5.38-7.86-1.758-20.767,8.72-38.733c1.055-1.808,3.522-0.949,8.576-2.962     c11.999-4.78,12.515-10.935,14.213-10.075c0.648,0.328,0.266,1.032,0.2,1.6C162.75,194.089,174.357,210.665,193.731,206.628z"/>
			<path style="fill:#6280FF;" d="M65.522,445.017c-2.85-2.815-4.194-6.338-4.375-10.29c-0.783-17.157,20.655-35.224,35.01-44.121     c11.779-7.3,24.849-12.939,38.261-17.232c0.949-0.304,1.654-0.47,2.195,0.306c0.921,1.319,32.335,57.487,78.197,69.805     c35.1,9.427,75.546-31.502,95.38-62.209c5.413-8.381,4.409-8.701,6.716-7.958c29.479,9.494,49.556,23.528,57.034,31.733     c1.127,1.236,10,9.059,14.175,18.634c2.936,6.734,3.471,15.253-1.524,20.525c-24.86,26.242-73.179,39.705-108.843,45.447     C213.658,499.978,111.532,490.452,65.522,445.017z"/>
			<g>
				<path style="fill:#FC09B2;" d="M359.171,430.369c0,4.177,3.387,7.564,7.565,7.564c4.177,0,7.564-3.386,7.564-7.564      c0-4.177-3.386-7.564-7.564-7.564C362.559,422.804,359.171,426.192,359.171,430.369z"/>
				<path style="fill:#FC09B2;" d="M329.805,409.388c0-4.177-3.386-7.563-7.564-7.563c-4.178,0-7.565,3.386-7.565,7.563      c0,4.178,3.387,7.565,7.565,7.565C326.419,416.952,329.805,413.566,329.805,409.388z"/>
				<path style="fill:#FC09B2;" d="M317.997,373.686c1.066,0.725,2.335,1.15,3.696,1.249      C320.48,374.511,319.244,374.097,317.997,373.686z"/>
				<path style="fill:#FC09B2;" d="M277.747,479.893c4.178,0,7.564-3.386,7.564-7.563c0-4.177-3.386-7.565-7.564-7.565      c-4.177,0-7.564,3.387-7.564,7.565C270.183,476.507,273.57,479.893,277.747,479.893z"/>
				<path style="fill:#FC09B2;" d="M322.242,458.913c4.177,0,7.564-3.386,7.564-7.564c0-4.177-3.386-7.564-7.564-7.564      c-4.178,0-7.565,3.386-7.565,7.564C314.677,455.527,318.064,458.913,322.242,458.913z"/>
				<path style="fill:#FC09B2;" d="M277.747,437.932c4.178,0,7.564-3.386,7.564-7.564c0-4.177-3.386-7.564-7.564-7.564      c-4.177,0-7.564,3.387-7.564,7.564C270.183,434.546,273.57,437.932,277.747,437.932z"/>
				<path style="fill:#FC09B2;" d="M233.253,485.746c-4.177,0-7.564,3.386-7.564,7.564c0,0.039,0.011,0.075,0.012,0.113      c5.112,0.018,10.151-0.073,15.101-0.26C240.721,489.054,237.38,485.746,233.253,485.746z"/>
				<path style="fill:#FC09B2;" d="M188.759,479.893c4.178,0,7.564-3.386,7.564-7.563c0-4.177-3.386-7.565-7.564-7.565      c-4.178,0-7.564,3.387-7.564,7.565C181.195,476.507,184.581,479.893,188.759,479.893z"/>
				<path style="fill:#FC09B2;" d="M240.817,451.349c0-3.699-2.66-6.767-6.169-7.423c-1.59,0.312-3.179,0.528-4.764,0.685      c-2.478,1.242-4.195,3.778-4.195,6.739c0,4.178,3.387,7.564,7.564,7.564C237.431,458.913,240.817,455.527,240.817,451.349z"/>
				<path style="fill:#FC09B2;" d="M188.759,437.932c2.416,0,4.543-1.154,5.928-2.917c-4.362-2.498-8.524-5.326-12.484-8.353      c-0.623,1.1-1.008,2.352-1.008,3.707C181.195,434.546,184.581,437.932,188.759,437.932z"/>
				<path style="fill:#FC09B2;" d="M144.265,416.952c4.177,0,7.564-3.386,7.564-7.565c0-4.177-3.387-7.563-7.564-7.563      c-4.178,0-7.564,3.386-7.564,7.563C136.7,413.566,140.087,416.952,144.265,416.952z"/>
				<path style="fill:#FC09B2;" d="M99.77,395.971c4.177,0,7.564-3.386,7.564-7.564c0-1.298-0.357-2.5-0.932-3.566      c-3.5,1.799-6.928,3.708-10.245,5.765c-0.904,0.56-1.837,1.157-2.791,1.788C94.702,394.535,97.061,395.971,99.77,395.971z"/>
				<path style="fill:#FC09B2;" d="M99.77,464.765c-1.64,0-3.146,0.535-4.386,1.421c3.83,2,7.803,3.875,11.898,5.636      C107.017,467.886,103.774,464.765,99.77,464.765z"/>
				<path style="fill:#FC09B2;" d="M144.265,458.913c4.177,0,7.564-3.386,7.564-7.564c0-4.177-3.387-7.564-7.564-7.564      c-4.178,0-7.564,3.386-7.564,7.564C136.7,455.527,140.087,458.913,144.265,458.913z"/>
				<path style="fill:#FC09B2;" d="M92.206,430.369c0,4.177,3.386,7.564,7.564,7.564c4.177,0,7.564-3.386,7.564-7.564      c0-4.177-3.387-7.564-7.564-7.564C95.592,422.804,92.206,426.192,92.206,430.369z"/>
			</g>
			<g>
				<path style="fill:#FFFFFF;" d="M380.029,417.712c1.487,0,2.868-0.397,4.102-1.038c-4.276-6.176-9.356-10.708-10.19-11.623      c-0.392-0.429-0.839-0.885-1.299-1.345c-0.985,1.439-1.567,3.177-1.567,5.052C371.074,413.703,375.083,417.712,380.029,417.712z      "/>
				<path style="fill:#FFFFFF;" d="M386.387,444.417c-1.623-1.637-3.871-2.654-6.358-2.654c-4.946,0-8.955,4.01-8.955,8.955      c0,1.971,0.656,3.777,1.735,5.255C377.83,452.431,382.406,448.587,386.387,444.417z"/>
				<path style="fill:#FFFFFF;" d="M326.58,387.777c0,4.946,4.009,8.955,8.955,8.955c4.946,0,8.955-4.009,8.955-8.955      c0-1.239-0.253-2.419-0.707-3.492c-3.398-1.709-7.012-3.396-10.872-5.026C329.255,380.385,326.58,383.751,326.58,387.777z"/>
				<path style="fill:#FFFFFF;" d="M291.041,417.712c4.945,0,8.955-4.009,8.955-8.955c0-3.309-1.816-6.166-4.486-7.717      c-3.679,4.371-7.629,8.699-11.801,12.837C285.328,416.191,288.003,417.712,291.041,417.712z"/>
				<path style="fill:#FFFFFF;" d="M335.535,462.744c-4.945,0-8.955,4.009-8.955,8.955c0,2.143,0.784,4.083,2.039,5.624      c5.365-1.81,10.669-3.805,15.834-5.986C344.259,466.563,340.357,462.744,335.535,462.744z"/>
				<path style="fill:#FFFFFF;" d="M283.024,488.762c4.505-0.796,9.17-1.712,13.935-2.755c-1.581-1.403-3.639-2.281-5.919-2.281      C287.507,483.725,284.481,485.79,283.024,488.762z"/>
				<path style="fill:#FFFFFF;" d="M344.49,429.738c0-4.946-4.009-8.955-8.955-8.955c-4.945,0-8.955,4.009-8.955,8.955      c0,4.945,4.009,8.955,8.955,8.955C340.481,438.693,344.49,434.683,344.49,429.738z"/>
				<path style="fill:#FFFFFF;" d="M299.996,450.718c0-4.945-4.01-8.955-8.955-8.955c-4.946,0-8.955,4.01-8.955,8.955      c0,4.946,4.009,8.955,8.955,8.955C295.986,459.673,299.996,455.664,299.996,450.718z"/>
				<path style="fill:#FFFFFF;" d="M246.547,480.654c4.945,0,8.955-4.009,8.955-8.955c0-4.946-4.01-8.955-8.955-8.955      c-4.946,0-8.955,4.009-8.955,8.955C237.592,476.645,241.601,480.654,246.547,480.654z"/>
				<path style="fill:#FFFFFF;" d="M202.052,483.725c-4.684,0-8.484,3.608-8.878,8.189c5.958,0.535,11.898,0.923,17.791,1.172      c0.006-0.138,0.041-0.267,0.041-0.407C211.007,487.734,206.998,483.725,202.052,483.725z"/>
				<path style="fill:#FFFFFF;" d="M211.007,450.718c0-4.945-4.009-8.955-8.954-8.955c-4.946,0-8.955,4.01-8.955,8.955      c0,4.946,4.009,8.955,8.955,8.955C206.998,459.673,211.007,455.664,211.007,450.718z"/>
				<path style="fill:#FFFFFF;" d="M122.018,408.757c0-4.945-4.009-8.954-8.955-8.954c-4.945,0-8.954,4.009-8.954,8.954      c0,4.946,4.009,8.955,8.954,8.955C118.009,417.712,122.018,413.703,122.018,408.757z"/>
				<path style="fill:#FFFFFF;" d="M157.558,480.654c4.945,0,8.954-4.009,8.954-8.955c0-4.946-4.009-8.955-8.954-8.955      c-4.946,0-8.955,4.009-8.955,8.955C148.603,476.645,152.612,480.654,157.558,480.654z"/>
				<path style="fill:#FFFFFF;" d="M148.603,429.738c0,4.945,4.009,8.955,8.955,8.955c4.945,0,8.954-4.01,8.954-8.955      c0-4.946-4.009-8.955-8.954-8.955C152.612,420.783,148.603,424.792,148.603,429.738z"/>
				<path style="fill:#FFFFFF;" d="M113.064,441.763c-4.945,0-8.954,4.01-8.954,8.955c0,4.946,4.009,8.955,8.954,8.955      c4.946,0,8.955-4.009,8.955-8.955C122.018,445.773,118.009,441.763,113.064,441.763z"/>
				<path style="fill:#FFFFFF;" d="M77.524,429.738c0-4.946-4.009-8.955-8.955-8.955c-1.589,0-3.06,0.449-4.354,1.175      c-2.089,4.21-3.262,8.517-3.068,12.768c0,0.008,0.002,0.016,0.002,0.024c1.61,2.379,4.332,3.943,7.42,3.943      C73.515,438.693,77.524,434.683,77.524,429.738z"/>
			</g>
			<g>
				<path style="fill:#00D5FE;" d="M353.339,398.514c-1.615,0-3.139,0.368-4.511,1.01c-3.642,1.702-6.17,5.388-6.17,9.673      c0,4.285,2.529,7.97,6.17,9.672c1.372,0.642,2.897,1.01,4.511,1.01c5.901,0,10.682-4.782,10.682-10.682      C364.021,403.297,359.239,398.514,353.339,398.514z"/>
				<path style="fill:#00D5FE;" d="M353.339,440.475c-1.615,0-3.139,0.369-4.511,1.01c-3.642,1.702-6.17,5.388-6.17,9.673      c0,4.285,2.529,7.97,6.17,9.672c1.372,0.642,2.897,1.011,4.511,1.011c5.901,0,10.682-4.783,10.682-10.683      S359.239,440.475,353.339,440.475z"/>
				<path style="fill:#00D5FE;" d="M388.586,424.843c-0.908,1.571-1.435,3.388-1.435,5.333c0,2.795,1.082,5.331,2.838,7.234      C390.794,433.37,390.126,428.857,388.586,424.843z"/>
				<path style="fill:#00D5FE;" d="M312.193,378.076c-0.552,0.911-1.2,1.957-2.003,3.2c-2.831,4.382-6.094,8.976-9.69,13.599      c1.958,2.449,4.965,4.022,8.345,4.022c5.9,0,10.682-4.783,10.682-10.683C319.527,383.486,316.451,379.482,312.193,378.076z"/>
				<path style="fill:#00D5FE;" d="M264.351,482.436c-1.615,0-3.14,0.369-4.512,1.01c-3.447,1.611-5.884,5-6.136,8.992      c2.067-0.156,4.116-0.328,6.136-0.52c5.094-0.485,10.016-1.089,14.761-1.792C273.304,485.683,269.21,482.436,264.351,482.436z"/>
				<path style="fill:#00D5FE;" d="M308.845,461.455c-5.9,0-10.683,4.783-10.683,10.683c0,5.9,4.783,10.683,10.683,10.683      c0.925,0,1.818-0.13,2.674-0.351c0.188-0.05,0.377-0.102,0.566-0.152c4.315-1.372,7.442-5.409,7.442-10.18      C319.527,466.238,314.744,461.455,308.845,461.455z"/>
				<path style="fill:#00D5FE;" d="M264.351,440.475c-1.615,0-3.14,0.369-4.512,1.01c-3.642,1.702-6.171,5.388-6.171,9.673      c0,4.285,2.529,7.97,6.171,9.672c1.372,0.642,2.897,1.011,4.512,1.011c5.9,0,10.682-4.783,10.682-10.683      S270.25,440.475,264.351,440.475z"/>
				<path style="fill:#00D5FE;" d="M311.648,419.879c-0.895-0.244-1.832-0.384-2.804-0.384c-0.972,0-1.909,0.14-2.804,0.384      c-4.537,1.233-7.879,5.37-7.879,10.298c0,5.899,4.783,10.682,10.683,10.682c5.9,0,10.682-4.783,10.682-10.682      C319.527,425.248,316.186,421.112,311.648,419.879z"/>
				<path style="fill:#00D5FE;" d="M175.362,482.436c-1.614,0-3.139,0.369-4.511,1.01c-2.199,1.028-3.986,2.778-5.06,4.95      c1.683,0.285,3.37,0.554,5.06,0.814c4.985,0.767,9.995,1.425,15.01,1.976C184.95,486.21,180.601,482.436,175.362,482.436z"/>
				<path style="fill:#00D5FE;" d="M219.856,461.455c-5.899,0-10.682,4.783-10.682,10.683c0,5.9,4.782,10.683,10.682,10.683      c5.9,0,10.683-4.783,10.683-10.683C230.538,466.238,225.756,461.455,219.856,461.455z"/>
				<path style="fill:#00D5FE;" d="M175.362,440.475c-1.614,0-3.139,0.369-4.511,1.01c-3.642,1.702-6.171,5.388-6.171,9.673      c0,4.285,2.529,7.97,6.171,9.672c1.372,0.642,2.897,1.011,4.511,1.011c5.9,0,10.683-4.783,10.683-10.683      S181.261,440.475,175.362,440.475z"/>
				<path style="fill:#00D5FE;" d="M170.85,418.868c0.942,0.441,1.957,0.746,3.025,0.895c-1.027-0.92-2.034-1.848-3.025-2.784      c-2.084-1.969-4.088-3.965-6.006-5.968C165.444,414.505,167.735,417.413,170.85,418.868z"/>
				<path style="fill:#00D5FE;" d="M86.373,398.514c-0.548,0-1.082,0.054-1.607,0.134c-0.971,0.772-1.941,1.569-2.904,2.389      c-1.97,1.675-3.91,3.442-5.768,5.284c-0.256,0.916-0.403,1.877-0.403,2.875c0,4.285,2.53,7.97,6.171,9.672      c1.372,0.642,2.897,1.01,4.512,1.01c5.9,0,10.683-4.782,10.683-10.682C97.056,403.297,92.273,398.514,86.373,398.514z"/>
				<path style="fill:#00D5FE;" d="M130.867,377.533c-5.9,0-10.682,4.783-10.682,10.683c0,5.9,4.782,10.683,10.682,10.683      c5.9,0,10.683-4.783,10.683-10.683C141.55,382.315,136.767,377.533,130.867,377.533z"/>
				<path style="fill:#00D5FE;" d="M130.867,461.455c-5.9,0-10.682,4.783-10.682,10.683c0,1.889,0.494,3.66,1.354,5.2      c4.581,1.581,9.269,3.041,14.046,4.374c3.53-1.743,5.964-5.37,5.964-9.573C141.55,466.238,136.767,461.455,130.867,461.455z"/>
				<path style="fill:#00D5FE;" d="M86.373,440.475c-1.614,0-3.139,0.369-4.512,1.01c-3.641,1.702-6.171,5.388-6.171,9.673      c0,1.02,0.152,2.004,0.419,2.939c1.858,1.405,3.779,2.764,5.752,4.086c1.842,1.234,3.731,2.431,5.666,3.593      c5.356-0.576,9.528-5.109,9.528-10.618C97.056,445.258,92.273,440.475,86.373,440.475z"/>
				<path style="fill:#00D5FE;" d="M133.671,419.879c-0.895-0.244-1.832-0.384-2.804-0.384c-0.972,0-1.909,0.14-2.804,0.384      c-4.537,1.233-7.878,5.37-7.878,10.298c0,5.899,4.782,10.682,10.682,10.682c5.9,0,10.683-4.783,10.683-10.682      C141.55,425.248,138.209,421.112,133.671,419.879z"/>
			</g>
			<g style="opacity:0.25;">
				<path style="fill:#000E3F;" d="M179.354,339.235c-2.292,1.639-0.424-4.171-6.896-18.27c-2.314-5.04-0.113,0.826,28.597-16.517      c0.966-0.584,1.246-0.407,1.261,0.775C202.408,312.451,195.268,327.851,179.354,339.235z"/>
				<path style="fill:#000E3F;" d="M142.373,273.363c-0.027,3.414-1.197,6.459-3.047,9.272c-5.495,8.352-16.649,8.826-18.4,2.611      c-0.719-2.553-0.715-5.094,1.066-7.328c0.74-0.928,0.955-1.043,2.047-0.556c5.214,2.325,13.469-1.172,15.689-3.732      c0.123-0.141-0.283-0.448-0.375-0.402c-1.899,0.947-4.056,2.984-9.708,3.933c-7.613,1.278-12.836-6.741-8.362-12.154      c0.558-0.675,1.202-1.024,2.113-0.854c8.803,1.644,9.569,5.055,15.848,5.645C142.623,270.114,142.368,270.725,142.373,273.363z"/>
				<path style="fill:#000E3F;" d="M160.027,272.297c-4.626-12.796,10.122-24.653,24.905-18.272      c6.171,2.664,10.51,8.769,9.586,15.641C192.354,285.757,165.445,287.284,160.027,272.297z"/>
				<path style="fill:#000E3F;" d="M390.636,431.194c-1.13-8.162-5.156-14.2-11.285-21.297c-0.88-1.017-1.857-1.963-2.804-2.878      c-0.77-0.745-1.569-1.517-2.298-2.315c-6.207-6.781-21.966-17.244-27.954-19.709c-0.315-0.129-0.619-0.139-0.895-0.02      c-0.574,0.243-0.844,0.929-1.159,1.723c-0.063,0.16-0.128,0.326-0.198,0.491c-16.549,39.304-57.656,64.812-112.778,69.983      c-36.723,3.448-61.81-1.186-83.944-5.275c-12.028-2.223-22.416-4.141-33.067-4.463c-23.041-0.693-39.208,3.542-39.64,5.164      c-0.196,0.752,0.367,1.146,0.67,1.357c0.059,0.041,0.119,0.083,0.173,0.126c4.231,3.385,13.887,9.461,25.087,14.8      c34.644,16.515,79.748,24.956,125.123,24.954c36.69,0,73.559-5.516,105.217-16.745c14.177-5.027,40.294-15.926,55.919-32.434      C389.961,441.316,391.358,436.41,390.636,431.194z"/>
			</g>
		</g>
		<g>
			<path style="fill:#000E3F;" d="M392.303,429.551c-3.535-18.216-28.156-39.953-59.877-52.859     c-24.992-10.171-40.882-12.107-51.396-13.39c-10.421-1.271-15.178-1.85-17.897-9.4c-3.07-8.522-1.915-18.667-0.522-26.673     c0.111,0.074,0.243,0.18,0.313,0.237l0.122,0.097c5.729,4.465,14.222,6.247,22.704,4.759c9.359-1.64,17.218-6.837,22.134-14.639     c3.637-5.775,4.377-10.628,4.868-13.839c0.079-0.517,0.151-0.997,0.23-1.44c0.042-0.236,0.056-0.335,1.114-0.171     c11.772,1.839,22.481-3.671,27.303-14.011c5.545-11.889,1.479-27.198-9.67-36.401c-1.229-1.015-2.277-1.733-3.042-2.259     c-0.436-0.299-0.884-0.605-1.098-0.797c0.124-0.016,0.299-0.025,0.471-0.036c1.062-0.061,3.272-0.189,7.534-1.719     c10.264-3.686,17.705-11.846,19.902-21.826c2.277-10.347-1.218-21.012-9.589-29.261c-7.487-7.377-15.338-9.089-19.11-9.91     c-0.569-0.124-1.071-0.234-1.46-0.338c0.27-0.131,0.677-0.333,1.303-0.662c13.817-7.269,21.272-19.168,19.938-31.829     c-1.262-11.974-10.383-21.759-23.806-25.537c-10.478-2.952-17.602-1.497-21.029-0.801c-0.823,0.167-1.663,0.328-1.983,0.308     c0.018-0.087,0.068-0.247,0.203-0.527c7.021-14.593-0.103-27.618-9.111-34.939c-14.604-11.871-31.354-9.533-40.742-2.334     c-1.402,1.076-2.298,1.98-2.891,2.579c-0.355,0.36-0.723,0.731-0.808,0.767c-0.009-0.003-0.088-0.049-0.268-0.326     c-6.751-10.398-17.863-16.267-29.786-15.772c-11.218,0.491-20.926,6.452-25.969,15.942c-0.821,1.546-1.265,2.757-1.559,3.558     c-0.104,0.288-0.212,0.583-0.299,0.77c-7.343-8.158-17.897-11.281-28.219-8.353c-9.719,2.755-16.84,10.417-18.586,19.996     c-0.146,0.802-0.241,1.443-0.317,1.949c-0.095,0.63-0.183,1.224-0.223,1.307c-0.103,0.03-0.481-0.101-0.812-0.205     c-0.747-0.234-1.875-0.589-3.67-0.839c-9.202-1.269-17.35,2.707-21.253,10.392c-3.906,7.692-2.347,16.591,4.069,23.226     c1.382,1.429,2.586,2.295,3.384,2.867c0.333,0.239,0.704,0.506,0.85,0.661c-0.011,0.009-0.024,0.018-0.038,0.029     c-5.234,3.815-10.151,12.294-8.954,20.492c1.737,11.918,12.717,17.897,22.829,18.536c0.473,0.03,1.458,0.094,1.584,0.155     c0.013,0.16-0.29,0.715-0.581,1.253c-1.328,2.446-4.436,8.173-5.169,21.399c-0.09,1.631-0.081,3.137-0.072,4.593     c0.029,4.559,0.051,8.16-3.126,11.476c-3.627,3.781-11.851,13.318-13.869,16.929c-3.086,5.514-1.645,11.592,3.587,15.122     c0.804,0.543,1.494,0.862,1.998,1.094c0.311,0.146,0.74,0.342,0.781,0.441c0.074,0.284-0.941,1.566-2.345,3.342l-0.754,0.954     c-2.53,3.209-2.831,7.174-0.803,10.606c0.45,0.761,0.853,1.222,1.148,1.559c0.482,0.551,0.482,0.551,0.016,1.233     c-2.658,3.875-2.187,8.871,1.202,12.728c3.578,4.075,3.299,8.364,3.031,12.512c-0.128,1.971-0.248,3.832,0.061,5.576     c2.563,14.396,20.152,16.975,35.76,14.582c4.24-0.65,6.648-1.321,8.086-1.723c1.708-0.477,1.71-0.479,2.093,0.416     c5.986,14.008,8.198,27.564,6.576,40.286c-0.068,0.536-0.344,0.799-0.889,0.849c-12.761,1.177-35.224,6.02-53.47,13.003     c-13.632,5.216-32.992,14.564-47.82,29.48c-5.925,5.961-13.976,15.132-15.457,25.893c-1.357,9.87,2.84,14.294,9.915,20.41     c32.193,27.816,90.277,44.221,156.074,44.221c1.6,0,3.209-0.011,4.818-0.03c67.947-0.823,126.735-18.975,157.261-48.556     C391.858,442.245,393.613,436.304,392.303,429.551z M175.908,366.87c-0.276,1.314-0.562,2.673-0.943,3.97     c-0.481,1.622-1.316,3.88-1.814,5.23c-0.241,0.65-0.409,1.107-0.439,1.224c-0.277,1.035,0.29,1.792,0.934,2.059     c0.765,0.317,1.593,0.005,2.027-0.749c1.244-2.165,3.047-8.23,3.513-10.563c2.928-14.609,1.588-29.389-3.987-43.925     c-0.509-1.326-0.979-2.313-1.323-3.034c-0.38-0.796-0.679-1.424-0.589-1.64c0.117-0.274,1.06-0.59,2.365-1.028     c2.415-0.81,6.456-2.165,13.183-5.523c2.205-1.1,10.963-5.677,13.558-7.993c0.585-0.522,0.713-1.282,0.327-1.937     c-0.401-0.686-1.191-1.006-1.886-0.77c-0.45,0.156-1.285,0.68-2.669,1.548c-6.029,3.781-20.147,12.638-40.697,15.687     c-8.286,1.228-16.23,0.429-21.779-2.199c-5.963-2.826-9.002-8.079-8.135-14.056c0.673-4.642,0.16-11.394-3.501-15.153     c-2.754-2.824-3.175-6.681-1.026-9.377c0.239-0.304,0.254-0.32,0.965,0.009c1.164,0.538,3.331,1.541,8.536,0.113     c1.776-0.488,6.979-2.557,8.175-4.327c0.405-0.599,0.351-1.378-0.135-1.938c-0.466-0.535-1.168-0.686-1.785-0.382     c-0.059,0.029-0.205,0.115-0.421,0.245c-1.069,0.644-3.911,2.358-6.645,3.088c-3.083,0.819-5.849,0.619-7.788-0.572     c-1.524-0.936-2.516-2.446-2.948-4.485c-0.527-2.496,0.848-4.17,2.59-6.288c0.857-1.04,1.827-2.221,2.629-3.616     c0.058-0.099,0.135-0.221,0.686-0.117c2.534,0.491,4.935-0.023,7.586-0.693c0.734-0.186,1.298-0.599,1.544-1.134     c0.142-0.308,0.249-0.806-0.056-1.424c-0.551-1.114-1.481-0.891-2.466-0.651c-0.252,0.059-0.527,0.128-0.831,0.184     c-5.689,1.071-10.737-0.371-13.169-3.751c-1.776-2.469-1.82-5.637-0.117-8.688c1.726-3.099,8.472-10.725,12.095-14.823     c1.134-1.282,1.953-2.206,2.266-2.595c2.907-3.601,2.921-7.055,2.943-11.835c0.016-3.628,0.036-8.146,1.281-14.287     c0.999-4.926,2.246-8.526,4.087-11.751c1.015-1.778,1.292-2.203,2.313-2.352c7.685-1.119,14.929-5.146,19.398-10.786     c0.009,0.155,0.005,0.311-0.011,0.38c-0.515,2.018-0.295,4.026-0.081,5.97c0.043,0.392,0.086,0.786,0.122,1.179     c1.462,15.575,11.22,25.48,24.986,25.287c2.003-0.03,3.389-0.349,4.305-0.558c0.257-0.059,0.536-0.122,0.731-0.151     c-0.117,0.293-0.355,0.779-0.587,1.253c-0.436,0.889-1.031,2.106-1.576,3.509c-4.05,10.442-3.105,19.922-1.066,24.868     c2.072,5.02,5.596,8.572,10.196,10.269c5.02,1.852,10.991,1.334,16.393-1.427c15.818-8.086,21.419-1.08,22.756,1.262     c3.526,6.155,0.763,16.914-8.968,23.115c-5.756,3.67-8.299,9.818-6.979,16.871c1.665,8.891,8.914,16.319,17.632,18.063     c5.435,1.091,8.547-0.007,10.217-0.598c0.389-0.138,0.83-0.293,0.887-0.234c0.054,0.434,0.058,1.026,0.063,1.711     c0.022,3.229,0.065,9.24,5.414,16.231c1.46,1.911,1.278,2.854,0.792,5.376c-0.52,2.702-1.307,6.785-0.776,15.032     c0.452,7.025,1.377,14.9,6.683,19.459c3.94,3.387,9.897,3.76,15.152,4.089c0.97,0.061,1.913,0.119,2.806,0.196     c10.27,0.884,27.618,4.374,29.002,5.837c2.091,2.212-5.013,10.791-8.045,14.456c-0.786,0.95-1.409,1.702-1.751,2.174     c-14.062,19.358-30.954,35.135-47.568,44.424c-15.133,8.461-29.149,12.455-48.348,4.458     c-28.525-11.884-53.101-40.799-66.587-63.898l-0.178-0.295c-0.137-0.221-0.367-0.592-0.293-0.725     c5.801-2.428,28.824-6.947,36.876-7.523c0.013,0,0.025,0,0.038,0c0.088,0,0.119,0.029,0.104,0.106L175.908,366.87z      M210.779,443.587c11.295,3.589,18.66,3.002,26.883,0.893c12.1-3.103,25.429-10.685,38.544-21.925     c11.045-9.467,21.824-21.428,30.352-33.681c4.352-6.253,6.526-9.884,7.825-12.055c1.514-2.53,1.521-2.525,2.397-2.23l0.279,0.092     c45.23,14.531,62.625,36.82,68.005,45.727c4.075,6.749,6.544,16.97,0.094,23.559c-9.143,9.339-22.848,17.651-32.625,22.316     c-45.68,21.801-103.649,30.339-163.228,24.047c-53.437-5.642-100.502-23.297-122.823-46.073     c-3.927-4.008-5.133-9.182-3.585-15.383c4.262-17.055,30.168-41.132,71.434-54.157c0.473-0.15,0.763-0.241,0.975-0.241     c0.335,0,0.481,0.225,0.853,0.804c0.895,1.386,1.76,2.763,2.637,4.156c4.867,7.734,9.899,15.73,21.794,28.998     C172.236,421.423,191.535,437.479,210.779,443.587z"/>
			<path style="fill:#000E3F;" d="M168.077,207.865c-6.467-5.279-14.945-5.637-21.099-0.893c-0.272,0.209-0.511,0.437-0.707,0.677     c-0.472,0.574-0.446,1.382,0.063,2.014c0.5,0.623,1.274,0.812,1.926,0.475c0.286-0.148,0.621-0.367,1.01-0.624     c1.962-1.301,5.248-3.475,11.285-1.803c6.179,1.715,8.544,5.954,9.816,8.231c0.247,0.443,0.448,0.799,0.619,1.04     c0.29,0.401,0.725,0.616,1.191,0.616c0.232,0,0.473-0.052,0.707-0.164c0.732-0.347,1.107-1.105,0.909-1.841     C173.289,213.703,171.282,210.48,168.077,207.865z"/>
			<path style="fill:#000E3F;" d="M166.531,224.099c-0.583-0.29-1.235-0.178-1.704,0.283c-0.151,0.149-0.349,0.403-0.603,0.74     c-0.63,0.826-1.681,2.212-3.396,3.531c-2.093,1.611-4.562,2.262-6.598,1.751c-1.593-0.403-2.837-1.515-3.6-3.221     c-0.456-1.013-0.607-1.958-0.729-2.718c-0.11-0.684-0.198-1.226-0.477-1.586c-0.417-0.531-1.009-0.77-1.605-0.639     c-0.551,0.124-0.986,0.547-1.107,1.078c-0.437,1.929,0.173,4.402,1.674,6.787c1.577,2.5,3.99,3.83,7.17,3.951h0.018     c0.131,0,0.261,0.004,0.392,0.007c0.141,0.005,0.279,0.009,0.418,0.009c0.189,0,0.376-0.007,0.563-0.031     c4.654-0.58,10.165-5.874,10.482-8.391C167.506,225.036,167.137,224.398,166.531,224.099z"/>
			<path style="fill:#000E3F;" d="M216.882,265.913l0.317,0.038l0.088-0.022c8.043-2.061,13.498-9.343,13.648-11.866     c0.047-0.79-0.389-1.49-1.085-1.74c-0.659-0.236-1.353-0.005-1.803,0.61c-0.166,0.227-0.356,0.565-0.592,0.984     c-1.179,2.097-3.632,6.461-10.446,8.601c-0.749,0.234-2.142,0.671-1.944,1.969C215.251,265.735,216.271,265.847,216.882,265.913z     "/>
		</g>
		<g>
			<path style="fill:#322BBF;" d="M219.908,158.566c0.289,3.703,0.034,7.563-1.35,11.347c-0.401,0.93-0.842,1.863-1.312,2.778     c-0.535,0.895-1.204,1.751-1.826,2.621c-0.757,0.795-1.578,1.564-2.465,2.251l-1.476,0.902l-0.75,0.431l-0.828,0.302     l-1.683,0.527c-0.574,0.11-1.164,0.148-1.747,0.21c-1.176,0.185-2.315-0.037-3.456-0.174c-1.105-0.238-2.162-0.638-3.179-1.043     c-0.934-0.529-1.948-0.988-2.742-1.667c-3.365-2.542-5.537-6.017-6.719-9.618c-0.283-0.861,0.186-1.788,1.047-2.071     c0.655-0.214,1.348,0.005,1.767,0.502l0.049,0.059c2.186,2.611,4.492,4.891,7.033,6.31c2.538,1.461,5.176,1.76,7.378,0.922     c2.283-0.713,4.232-2.899,5.743-5.57c1.477-2.738,2.42-5.936,3.482-9.262l0.033-0.105c0.258-0.81,1.124-1.256,1.933-0.998     C219.455,157.415,219.86,157.961,219.908,158.566z"/>
			<path style="fill:#322BBF;" d="M309.354,156.25c0.289,3.704,0.034,7.563-1.35,11.347c-0.402,0.93-0.842,1.863-1.312,2.778     c-0.534,0.895-1.204,1.751-1.826,2.621c-0.756,0.795-1.577,1.564-2.465,2.251l-1.476,0.902l-0.75,0.431l-0.828,0.302     l-1.683,0.527c-0.574,0.11-1.164,0.148-1.747,0.21c-1.176,0.186-2.315-0.037-3.457-0.174c-1.105-0.239-2.162-0.638-3.178-1.043     c-0.934-0.529-1.948-0.988-2.742-1.667c-3.365-2.542-5.537-6.018-6.718-9.618c-0.283-0.861,0.186-1.788,1.047-2.071     c0.655-0.214,1.349,0.005,1.767,0.502l0.049,0.059c2.186,2.611,4.492,4.891,7.033,6.31c2.539,1.461,5.177,1.76,7.377,0.922     c2.283-0.713,4.232-2.899,5.743-5.57c1.477-2.738,2.421-5.936,3.482-9.262l0.033-0.105c0.258-0.81,1.124-1.256,1.934-0.998     C308.901,155.099,309.306,155.645,309.354,156.25z"/>
			<path style="fill:#322BBF;" d="M227.441,108.544c0.711,3.439,0.769,7.182-0.591,10.899c-0.582,1.875-1.773,3.662-3.277,5.229     c-1.539,1.551-3.697,2.7-6.003,3.065c-2.31,0.338-4.656-0.083-6.625-1.015c-1.959-0.972-3.635-2.296-4.853-3.96     c-2.514-3.323-3.228-7.117-3.358-10.527c-0.035-0.911,0.675-1.676,1.586-1.711c0.683-0.026,1.285,0.367,1.558,0.949l0.005,0.012     c1.398,2.996,2.734,5.755,4.586,7.515c0.924,0.869,1.968,1.589,3.035,1.965c1.047,0.42,2.099,0.571,3.074,0.4     c0.988-0.101,1.923-0.548,2.775-1.29c0.863-0.728,1.675-1.688,2.311-2.907c1.349-2.377,2.076-5.408,2.737-8.573l0.011-0.054     c0.175-0.837,0.994-1.374,1.832-1.199C226.863,107.472,227.32,107.959,227.441,108.544z"/>
			<path style="fill:#322BBF;" d="M286.564,238.768c0.711,3.439,0.768,7.182-0.591,10.899c-0.582,1.875-1.773,3.662-3.277,5.229     c-1.539,1.551-3.697,2.7-6.003,3.065c-2.31,0.338-4.656-0.083-6.625-1.015c-1.959-0.972-3.635-2.296-4.853-3.96     c-2.514-3.323-3.228-7.117-3.358-10.527c-0.035-0.911,0.675-1.676,1.585-1.711c0.683-0.026,1.285,0.367,1.558,0.949l0.005,0.012     c1.398,2.996,2.734,5.755,4.586,7.515c0.924,0.869,1.968,1.589,3.035,1.965c1.047,0.42,2.099,0.571,3.074,0.4     c0.988-0.101,1.923-0.548,2.775-1.29c0.862-0.728,1.674-1.688,2.311-2.907c1.349-2.377,2.076-5.408,2.737-8.573l0.011-0.054     c0.174-0.837,0.994-1.374,1.831-1.199C285.986,237.695,286.442,238.183,286.564,238.768z"/>
			<path style="fill:#322BBF;" d="M257.625,197.008c0.711,3.439,0.769,7.183-0.591,10.899c-0.582,1.876-1.773,3.662-3.278,5.23     c-1.539,1.551-3.697,2.7-6.002,3.064c-2.31,0.338-4.656-0.082-6.625-1.015c-1.959-0.972-3.635-2.295-4.854-3.959     c-2.514-3.324-3.227-7.117-3.358-10.527c-0.035-0.911,0.675-1.677,1.586-1.712c0.683-0.026,1.285,0.367,1.558,0.949l0.005,0.012     c1.398,2.995,2.734,5.754,4.585,7.514c0.924,0.87,1.969,1.59,3.035,1.966c1.047,0.42,2.099,0.57,3.074,0.4     c0.988-0.102,1.923-0.549,2.775-1.291c0.863-0.728,1.675-1.687,2.311-2.906c1.35-2.377,2.077-5.408,2.737-8.574l0.011-0.054     c0.175-0.837,0.994-1.374,1.831-1.199C257.046,195.935,257.503,196.423,257.625,197.008z"/>
			<path style="fill:#322BBF;" d="M168.857,129.845c0.91,2.72,0.917,5.728-0.059,8.661c-0.471,1.478-1.297,2.908-2.427,4.199     c-1.154,1.272-2.693,2.288-4.388,2.876c-1.718,0.551-3.563,0.644-5.247,0.321c-1.677-0.362-3.23-1.016-4.52-1.984     c-2.587-1.859-4.434-4.759-4.565-7.893c-0.038-0.912,0.669-1.68,1.581-1.719c0.594-0.024,1.128,0.268,1.438,0.727l0.11,0.165     c1.184,1.763,2.777,3.028,4.463,3.806c1.702,0.75,3.392,0.93,4.718,0.454c1.383-0.4,2.604-1.497,3.638-3.204     c1.006-1.708,1.72-3.845,2.226-6.143l0.024-0.107c0.186-0.843,1.02-1.376,1.862-1.19     C168.266,128.937,168.687,129.343,168.857,129.845z"/>
			<path style="fill:#322BBF;" d="M271.915,126.477c0.91,2.72,0.917,5.729-0.059,8.662c-0.471,1.479-1.298,2.909-2.427,4.2     c-1.154,1.271-2.693,2.288-4.387,2.875c-1.718,0.551-3.563,0.644-5.247,0.321c-1.677-0.362-3.23-1.015-4.52-1.983     c-2.587-1.86-4.434-4.759-4.565-7.894c-0.038-0.911,0.67-1.68,1.581-1.718c0.594-0.025,1.128,0.267,1.438,0.726l0.11,0.165     c1.184,1.763,2.776,3.028,4.463,3.807c1.702,0.75,3.392,0.93,4.719,0.453c1.383-0.399,2.603-1.496,3.638-3.203     c1.006-1.709,1.72-3.845,2.226-6.144l0.023-0.108c0.186-0.842,1.02-1.375,1.862-1.19     C271.325,125.569,271.746,125.975,271.915,126.477z"/>
			<path style="fill:#322BBF;" d="M327.479,212.436c0.91,2.72,0.917,5.728-0.059,8.661c-0.471,1.478-1.298,2.908-2.427,4.199     c-1.154,1.272-2.694,2.288-4.387,2.876c-1.718,0.551-3.563,0.644-5.247,0.321c-1.677-0.363-3.229-1.016-4.52-1.984     c-2.587-1.859-4.435-4.759-4.565-7.893c-0.038-0.912,0.67-1.68,1.581-1.719c0.594-0.024,1.128,0.268,1.438,0.727l0.11,0.164     c1.184,1.764,2.776,3.029,4.463,3.807c1.703,0.75,3.392,0.93,4.719,0.454c1.383-0.4,2.604-1.497,3.638-3.204     c1.006-1.708,1.72-3.845,2.226-6.144l0.023-0.107c0.186-0.843,1.02-1.376,1.863-1.189     C326.887,211.528,327.309,211.934,327.479,212.436z"/>
			<path style="fill:#322BBF;" d="M296.002,288.514c0.91,2.721,0.918,5.729-0.059,8.662c-0.471,1.477-1.298,2.908-2.427,4.199     c-1.154,1.272-2.693,2.288-4.387,2.876c-1.718,0.551-3.563,0.643-5.247,0.321c-1.677-0.363-3.23-1.016-4.52-1.984     c-2.587-1.859-4.434-4.76-4.565-7.893c-0.038-0.912,0.67-1.681,1.581-1.719c0.594-0.024,1.127,0.267,1.438,0.726l0.11,0.165     c1.184,1.763,2.776,3.028,4.463,3.807c1.703,0.75,3.392,0.93,4.719,0.454c1.383-0.4,2.603-1.497,3.638-3.203     c1.006-1.709,1.72-3.845,2.226-6.143l0.023-0.107c0.186-0.843,1.019-1.376,1.862-1.19     C295.411,287.606,295.833,288.012,296.002,288.514z"/>
		</g>
		<g>
			<g>
				<path style="fill:#FFCF00;" d="M219.369,296.988c-1.184,0-2.327-0.16-3.398-0.472c-5.495-1.488-9.357-6.544-9.357-12.283      c0-7.043,5.721-12.771,12.755-12.771c0.311,0,0.617,0.007,0.929,0.058c6.566,0.365,11.843,5.959,11.843,12.714      C232.14,291.267,226.411,296.988,219.369,296.988z"/>
				<path style="opacity:0.5;fill:#FD8A02;" d="M230.481,284.234c0,6.137-4.976,11.095-11.113,11.095      c-1.014,0-1.99-0.129-2.93-0.405c7.501-7.465,5.916-16.2,3.594-21.766C225.874,273.49,230.481,278.318,230.481,284.234z"/>
			</g>
			<path style="fill:#000E3F;" d="M219.368,273.121c0.221,0,0.442,0,0.663,0.037c5.842,0.332,10.45,5.16,10.45,11.076     c0,6.137-4.976,11.095-11.113,11.095c-1.014,0-1.991-0.129-2.931-0.405c-4.7-1.272-8.164-5.566-8.164-10.69     C208.273,278.097,213.249,273.121,219.368,273.121 M219.368,269.804c-7.947,0-14.412,6.473-14.412,14.43     c0,6.488,4.365,12.201,10.615,13.892c1.149,0.338,2.45,0.52,3.797,0.52c7.957,0,14.43-6.465,14.43-14.412     c0-7.585-5.886-13.872-13.428-14.379C219.968,269.804,219.627,269.804,219.368,269.804L219.368,269.804z"/>
		</g>
	</g>
	<g>
		<g>
			<path style="fill:#FFCF00;" d="M422.534,186.325c-1.645,0-3.085-1.049-3.583-2.612l-7.556-23.737     c-0.07-0.225-0.27-0.302-0.419-0.302c-0.074,0-0.148,0.018-0.218,0.052l-22.19,11.252c-0.536,0.272-1.105,0.409-1.694,0.409     c-1.127,0-2.226-0.531-2.939-1.42c-0.709-0.885-0.972-2.034-0.722-3.151l5.326-24.32c0.034-0.158-0.034-0.286-0.077-0.347     c-0.05-0.07-0.142-0.158-0.29-0.176c-0.032-0.004-0.065-0.009-0.097-0.015l-24.803-1.341c-1.479-0.092-2.734-0.994-3.283-2.354     c-0.547-1.353-0.275-2.863,0.711-3.941l16.77-18.39c0.117-0.131,0.119-0.281,0.108-0.358c-0.011-0.09-0.054-0.212-0.187-0.299     l-20.852-13.608c-1.233-0.806-1.875-2.209-1.677-3.661c0.198-1.451,1.186-2.626,2.579-3.067l23.736-7.557     c0.151-0.049,0.225-0.158,0.261-0.243c0.032-0.074,0.072-0.223-0.011-0.39l-11.25-22.193c-0.592-1.173-0.536-2.538,0.151-3.655     c0.689-1.122,1.877-1.792,3.177-1.792c0.279,0,0.56,0.032,0.835,0.093c0,0,24.338,5.325,24.347,5.325     c0.281,0,0.491-0.165,0.506-0.427l1.346-24.841c0.124-2.001,1.78-3.56,3.772-3.56c0.929,0,1.825,0.352,2.522,0.989l18.392,16.77     c0.103,0.093,0.22,0.113,0.299,0.113c0.088,0,0.252-0.025,0.358-0.191l13.606-20.853c0.702-1.073,1.879-1.711,3.148-1.711     c1.645,0,3.083,1.05,3.581,2.611l7.557,23.739c0.065,0.205,0.268,0.299,0.43,0.299c0.07,0,0.139-0.017,0.205-0.049l22.19-11.252     c0.526-0.269,1.091-0.408,1.672-0.408c0.67,0,1.332,0.189,1.917,0.546c1.397,0.747,2.138,2.385,1.766,4.031l-5.324,24.315     c-0.036,0.169,0.034,0.295,0.079,0.355c0.049,0.061,0.153,0.167,0.331,0.177l24.857,1.346c1.481,0.092,2.734,0.994,3.283,2.356     c0.547,1.353,0.274,2.863-0.713,3.941l-16.769,18.388c-0.119,0.131-0.121,0.283-0.11,0.36c0.013,0.088,0.054,0.212,0.187,0.297     l20.854,13.606c1.233,0.808,1.874,2.21,1.675,3.662c-0.198,1.449-1.186,2.624-2.577,3.067l-23.737,7.557     c-0.158,0.049-0.23,0.155-0.265,0.234c-0.032,0.076-0.072,0.227,0.014,0.403l11.252,22.188c0.592,1.173,0.537,2.54-0.151,3.657     c-0.689,1.121-1.879,1.791-3.178,1.791c-0.277,0-0.558-0.03-0.835-0.094l-24.319-5.324c-0.009,0-0.02,0-0.029,0     c-0.279,0-0.49,0.158-0.504,0.41l-1.346,24.857c-0.124,2.001-1.782,3.56-3.774,3.56c-0.929,0-1.825-0.351-2.522-0.988     l-18.39-16.77c-0.103-0.092-0.22-0.113-0.299-0.113c-0.088,0-0.252,0.025-0.36,0.193l-13.606,20.852     C424.978,185.686,423.803,186.325,422.534,186.325z"/>
			<g style="opacity:0.5;">
				<path style="fill:#FD8A02;" d="M507.225,120.622l-23.737,7.556c-1.235,0.387-1.806,1.788-1.235,2.949l11.261,22.208      c0.793,1.567-0.589,3.373-2.323,2.986l-24.327-5.326c-1.253-0.276-2.469,0.645-2.543,1.936l-1.345,24.861      c-0.111,1.769-2.212,2.636-3.52,1.438l-18.393-16.771c-0.958-0.867-2.469-0.682-3.17,0.406l-13.601,20.843      c-0.976,1.493-3.225,1.18-3.76-0.498l-7.555-23.737c-0.388-1.235-1.788-1.806-2.949-1.235l-22.208,11.26      c-1.566,0.793-3.373-0.589-2.986-2.322l5.326-24.328c0.258-1.198-0.571-2.378-1.787-2.525c0.185-0.036,0.368-0.074,0.553-0.11      c7.759-1.382,15.758,1.492,23.572,0.479c13.085-1.714,22.448-13.785,27.11-26.134c4.681-12.347,6.192-25.783,11.703-37.762      c5.731-12.477,15.831-22.816,28.013-29.083c0.755,0.406,1.235,1.272,1.013,2.249l-5.326,24.328      c-0.276,1.253,0.645,2.469,1.936,2.543l24.861,1.345c1.769,0.111,2.636,2.212,1.437,3.52l-16.77,18.393      c-0.866,0.959-0.682,2.469,0.405,3.169l20.844,13.601C509.215,117.84,508.902,120.088,507.225,120.622z"/>
			</g>
			<path style="fill:#FD8A02;" d="M469.679,113.601c-2.784,20.494-21.655,34.833-42.13,32.049     c-4.018-0.552-7.815-1.714-11.279-3.391c-14.191-6.856-23-22.263-20.77-38.739c2.636-19.462,19.793-33.395,39.089-32.326     c1.013,0.055,2.027,0.148,3.041,0.295C458.104,74.272,472.461,93.125,469.679,113.601z"/>
			<path style="opacity:0.18;fill:#000E3F;" d="M469.679,113.601c-2.784,20.494-21.655,34.833-42.13,32.049     c-4.018-0.552-7.815-1.714-11.279-3.391c39.587-15.721,28.658-51.014,18.319-71.065c1.013,0.055,2.027,0.148,3.041,0.295     C458.104,74.272,472.461,93.125,469.679,113.601z"/>
			<path style="opacity:0.5;fill:#FFFFFF;" d="M404.958,109.86c-0.71-3.204-0.444-6.614,0.524-9.815     c0.966-3.205,2.639-6.257,4.925-8.792c2.265-2.534,5.073-4.544,8.17-5.887c3.084-1.338,6.542-1.99,9.859-1.464     c1.037,0.164,1.743,1.137,1.579,2.173c-0.111,0.696-0.584,1.242-1.198,1.478l-0.098,0.037c-2.601,0.991-4.908,2.172-7.056,3.606     c-2.138,1.435-4.071,3.131-5.782,4.993c-1.693,1.864-3.159,3.95-4.384,6.251c-1.222,2.306-2.195,4.785-3.062,7.509l-0.022,0.069     c-0.3,0.942-1.308,1.463-2.25,1.162C405.534,110.978,405.093,110.46,404.958,109.86z"/>
		</g>
		<g>
			<path style="fill:#000E3F;" d="M509.539,114.087l-19.648-12.82l15.803-17.332c1.417-1.546,1.811-3.723,1.024-5.674     c-0.79-1.96-2.594-3.26-4.705-3.392l-23.457-1.27l5.02-22.926c0.528-2.327-0.515-4.669-2.603-5.836     c-0.825-0.486-1.758-0.742-2.702-0.742c-0.848,0-1.668,0.2-2.437,0.595L454.92,55.295l-7.122-22.373     c-0.719-2.254-2.793-3.767-5.163-3.767c-1.83,0-3.525,0.919-4.533,2.458l-12.822,19.65l-17.332-15.804     c-0.999-0.914-2.292-1.42-3.638-1.42c-2.865,0-5.249,2.241-5.428,5.101l-1.27,23.457l-22.925-5.019     c-0.381-0.085-0.783-0.13-1.182-0.13c-1.881,0-3.597,0.965-4.591,2.582c-0.991,1.611-1.073,3.582-0.219,5.271l10.615,20.934     l-22.371,7.122c-2.008,0.639-3.433,2.334-3.718,4.423c-0.286,2.093,0.638,4.114,2.411,5.273l19.647,12.821l-15.804,17.332     c-1.417,1.548-1.81,3.724-1.023,5.676c0.791,1.96,2.593,3.259,4.705,3.391l23.457,1.269l-5.02,22.926     c-0.357,1.598,0.025,3.256,1.051,4.537c1.024,1.278,2.606,2.041,4.232,2.041c0.851,0,1.672-0.197,2.442-0.587l20.933-10.613     l7.121,22.371c0.718,2.254,2.793,3.768,5.163,3.768c1.832,0,3.527-0.92,4.534-2.461l12.82-19.647l17.332,15.804     c0.999,0.914,2.292,1.42,3.638,1.42c2.865,0,5.25-2.241,5.429-5.102l1.269-23.457l22.925,5.02c0.382,0.085,0.784,0.13,1.183,0.13     c1.881,0,3.598-0.965,4.592-2.583c0.991-1.612,1.072-3.582,0.217-5.271l-10.614-20.932l22.372-7.122     c2.009-0.64,3.433-2.335,3.718-4.424C512.234,117.267,511.311,115.247,509.539,114.087z M507.225,120.622l-23.737,7.556     c-1.235,0.387-1.806,1.788-1.235,2.949l11.261,22.208c0.719,1.421-0.351,3.039-1.85,3.039c-0.154,0-0.312-0.017-0.473-0.053     l-24.327-5.326c-0.151-0.033-0.301-0.049-0.449-0.049c-1.081,0-2.029,0.85-2.094,1.985l-1.345,24.861     c-0.075,1.205-1.075,1.992-2.118,1.992c-0.488,0-0.985-0.172-1.402-0.554l-18.393-16.771c-0.407-0.368-0.914-0.547-1.416-0.547     c-0.68,0-1.351,0.327-1.754,0.952l-13.601,20.843c-0.426,0.652-1.095,0.959-1.758,0.959c-0.855,0-1.701-0.512-2.002-1.457     l-7.555-23.737c-0.285-0.908-1.118-1.457-2-1.457c-0.318,0-0.642,0.071-0.949,0.222l-22.208,11.26     c-0.311,0.158-0.633,0.229-0.944,0.229c-1.254,0-2.352-1.163-2.042-2.551l5.326-24.328c0.258-1.198-0.571-2.378-1.787-2.525     c-0.037-0.018-0.093-0.018-0.148-0.018l-24.862-1.345c-1.769-0.111-2.635-2.212-1.437-3.52l16.771-18.393     c0.866-0.958,0.681-2.469-0.406-3.169l-20.844-13.602c-1.493-0.977-1.18-3.225,0.498-3.759l23.737-7.556     c1.217-0.387,1.807-1.788,1.235-2.949l-11.26-22.207c-0.718-1.421,0.352-3.039,1.85-3.039c0.154,0,0.312,0.017,0.473,0.053     l24.327,5.325c0.151,0.034,0.302,0.049,0.45,0.049c1.081,0,2.029-0.851,2.094-2.002l1.345-24.844     c0.075-1.205,1.074-1.991,2.117-1.991c0.488,0,0.986,0.172,1.403,0.554l18.393,16.771c0.407,0.368,0.915,0.546,1.417,0.546     c0.68,0,1.351-0.327,1.753-0.952l13.601-20.844c0.427-0.651,1.095-0.959,1.758-0.959c0.855,0,1.7,0.512,2.001,1.456l7.557,23.738     c0.286,0.898,1.124,1.454,2.01,1.454c0.314,0,0.634-0.07,0.938-0.22L477.35,47.64c0.305-0.157,0.618-0.229,0.922-0.229     c0.374,0,0.735,0.109,1.051,0.303c0.755,0.406,1.235,1.272,1.013,2.249l-5.326,24.328c-0.276,1.253,0.645,2.469,1.936,2.543     l24.861,1.346c1.769,0.111,2.636,2.212,1.437,3.52l-16.77,18.393c-0.866,0.958-0.682,2.469,0.405,3.169l20.844,13.601     C509.215,117.84,508.902,120.088,507.225,120.622z"/>
			<path style="fill:#000E3F;" d="M437.868,69.847c-1.009-0.147-2.054-0.248-3.187-0.31c-20.165-1.137-38.11,13.71-40.825,33.759     c-2.278,16.83,6.44,33.087,21.689,40.454c3.679,1.782,7.642,2.973,11.779,3.542c1.787,0.243,3.573,0.363,5.347,0.363     c8.49,0,16.706-2.754,23.581-7.982c8.311-6.321,13.664-15.501,15.069-25.85C474.223,92.477,459.208,72.748,437.868,69.847z      M468.036,113.378c-1.287,9.471-6.186,17.872-13.792,23.656c-7.602,5.783-17.006,8.266-26.469,6.973     c-3.79-0.522-7.419-1.611-10.784-3.242c-13.956-6.742-21.932-21.619-19.848-37.022c2.396-17.695,17.746-30.948,35.4-30.948     c0.65,0,1.301,0.018,1.956,0.054c1.035,0.057,1.982,0.148,2.907,0.283C456.949,75.788,470.69,93.843,468.036,113.378z"/>
		</g>
	</g>
	<g>
		<path style="fill:#000E3F;" d="M361.784,351.467l-0.072-0.03c-0.995-0.459-6.008-3.531-7.615-3.333    c-0.054,0.02-0.092,0.002-0.092,0.002c-0.036-0.016-0.036-0.016-0.052,0.02l-0.018,0.036c-0.596,1.778-1.089,2.266-1.634,3.934    c0.394,0.403,2.151,0.947,2.689,1.33c0.243,0.245-0.756,1.839-1.053,2.192c-0.508,0.615-1.084,0.796-1.753,0.799    c-0.819-0.065-1.751-0.272-2.437-0.722c-0.297-0.227-0.54-0.471-0.693-0.722c-0.583-1.161-0.086-2.718,0.295-3.839    c1.406-3.814,3.655-8.312,5.441-10.345c0.297-0.353,0.702-0.747,0.864-0.806c0.862-0.318,1.602,0.202,2.433,0.63    c1.434,0.66,1.258,3.079,1.092,4.208c1.389,0.866,1.974,1.048,3.411,1.706c0.79,0.32,1.067,0.493,1.247,0.396l0.137-0.203    c3.466-5.678,0.086-10.541-5.723-12.372c-1.409-0.427-2.815-0.673-4.201-0.284c-1.892,0.335-3.119,1.731-4.123,3.232    c-0.986,1.463-1.825,3.089-2.59,4.654c-1.793,3.592-2.372,5.335-3.521,8.601c-0.347,1.046-0.639,2.16-0.747,2.781    c-0.376,2.368-0.103,4.192,1.458,5.939c1.899,2.081,5.173,2.921,7.923,3.339c2.201,0.169,4.107-0.384,5.516-2.768    c1.703-2.43,2.927-5.57,3.839-8.319L361.784,351.467z"/>
		<path style="fill:#000E3F;" d="M375,374.946c-0.011-0.006-0.024-0.012-0.034-0.018v0L375,374.946z"/>
		<path style="fill:#000E3F;" d="M374.699,360.715l0.02-0.034l0.034,0.02l0.14,0.077c2.341,1.139,4.487,0.718,6.326-0.479    c5.704-3.252,5.549-11.394,0.128-14.828c-3.205-2.322-6.697-3.639-9.566-4.75c-0.981,2.568-13.405,24.981-13.686,24.822    c0.518,0.153,4.395,2.855,6.364,3.081c0.91-1.859,3.207-6.756,4.687-8.713l0.011,0.144c0.617,3.607,0.203,8.961-0.096,11.634    l0.034,0.02c2.026,1.327,4.212,2.287,5.869,3.218C375.743,370.244,374.701,365.328,374.699,360.715z M371.873,353.019    c0.419-1.159,1.704-3.182,2.273-4.442c2.039,0.266,3.87,1.067,4.355,2.599c0.729,1.762-1.006,4.507-3.027,3.879    c-1.231-0.464-2.532-1.29-3.567-2.016L371.873,353.019z"/>
		<path style="fill:#000E3F;" d="M393.197,380.471c-3.151-1.928-5.781-4.05-8.76-6.011l-0.011-0.054    c0.61-1.154,1.681-3.069,2.788-4.233c0.718-0.059,2.705,1.784,4.341,2.325c1.058-1.679,2.262-3.07,3.031-4.75l0.022-0.034    c-1.364-0.947-2.809-1.852-4.096-2.844l-0.009-0.056c0.497-1.418,1.737-2.642,2.574-3.983l0.056-0.011l0.101,0.067    c3.157,1.69,5.835,4.181,9.136,5.435l0.023-0.032c1.048-1.593,2.354-3.062,3.164-4.809c0.137-0.202-8.72-5.842-14.146-9.028    c-5.547,7.462-10.111,15.278-15.286,23.133c4.121,3.247,9.253,6.143,13.835,9.209c1.263-1.109,2.333-2.736,3.191-4.258    L393.197,380.471z"/>
		<path style="fill:#000E3F;" d="M417.503,369.876c-3.04-1.899-3.409-2.486-4.094-2.855c-10.95,7.977-21.14,18.109-22.062,18.784    c0.009,0.056,0.009,0.056,0.042,0.083c2.962,2.199,4.066,3.29,4.496,3.465c0.031,0.025,0.09,0.018,0.122,0.043    c1.82-0.858,3.902-3.401,5.514-4.316c0.968,0.736,1.003,0.558,1.978,1.555c-0.376,1.699-1.942,4.633-2.48,6.414l0.031,0.025    c1.17,1.346,2.743,2.695,4.229,3.416l0.025-0.032l6.162-13.142C412.595,380.763,416.614,371.85,417.503,369.876z M406.58,382.915    c-0.808-0.614-1.674-1.22-2.39-1.818C410.122,375.169,413.751,370.794,406.58,382.915z"/>
		<path style="fill:#000E3F;" d="M426.531,386.059c0.027-0.031,0.083-0.036,0.11-0.065l0.031,0.025l0.063,0.052    c2.023,1.559,3.128,2.392,3.769,3.202c1.476-1.301,3.128-3.247,4.19-4.688c-3.841-4.057-8.574-7.811-12.802-11.348    c-0.029,0.031,0.002,0.056-0.022,0.09c-1.811,1.812-3.889,4.516-3.997,4.955c0.364,0.574,2.855,2.21,3.395,3.521l0.002,0.056    c-9.292,11.945-13.545,16.203-13.768,16.654c1.694,1.009,3.529,3.049,5.253,4.085l0.025-0.029l0.027-0.032    C424.026,388.826,425.908,386.54,426.531,386.059z"/>
		<path style="fill:#000E3F;" d="M421.229,404.072l-0.027,0.03c-1.024,1.094-3.601,3.124-3.335,3.375l2.242,2.05l0.061,0.058    c0.441,0.414,0.621,0.639,1.093,1.082l0.208,0.196c1.08-1.152,2.361-2.397,3.418-3.463    C423.736,406.318,422.535,404.576,421.229,404.072z"/>
		<path style="fill:#000E3F;" d="M437.319,386.767l-0.086-0.083c-5.376,5.072-9.881,10.518-14.854,15.633l0.031,0.027    c1.181,1.055,2.804,2.579,3.947,3.432c4.512-5.274,9.818-10.687,14.656-15.653C440.222,388.77,438.436,387.648,437.319,386.767z"/>
		<path style="fill:#000E3F;" d="M358.893,316.483c1.181-2.847,2.459-6.049,3.983-9.11l0.038,0.014    c1.611,0.338,3.398,1.006,5.046,1.359c0.077,0.032,0.128,0.007,0.146-0.029c0.529-1.886,2.352-5.351,2.351-6.224    c-1.175-0.338-3.391-1.136-4.748-1.895c-0.038-0.016-0.038-0.016-0.059-0.066c-0.138-0.974,0.185-2.329,1.276-3.422    c3.247,0.945,7.512,2.516,10.3,3.409c0.623-1.235,1.697-4.257,2.223-5.576c-3.798-2.739-14.091-6.058-16.867-6.639l-0.018,0.034    c-4.672,11.72-6.611,16.36-10.248,25.476l0.023,0.054C352.664,314.259,356.86,315.889,358.893,316.483z"/>
		<path style="fill:#000E3F;" d="M385.469,328.598c1.119-1.258,1.989-2.999,2.655-4.615l0.036-0.074    c-3.36-1.534-6.231-3.322-9.427-4.912l-0.018-0.054c0.468-1.216,1.298-3.248,2.257-4.539c0.707-0.148,2.905,1.445,4.593,1.783    c0.848-1.798,1.877-3.324,2.435-5.086l0.018-0.036c-1.47-0.776-3.015-1.497-4.413-2.329l-0.018-0.054    c0.324-1.467,1.408-2.833,2.077-4.267l0.054-0.018l0.11,0.054c3.34,1.3,6.301,3.45,9.731,4.293l0.018-0.036    c0.848-1.706,1.971-3.324,2.563-5.158c0.108-0.216-9.37-4.746-15.145-7.253c-4.604,8.085-8.194,16.4-12.381,24.828    C375.099,323.85,380.547,326.105,385.469,328.598z"/>
		<path style="fill:#000E3F;" d="M402.196,338.396c1.209-1.17,2.203-2.842,2.986-4.408l0.042-0.068    c-3.238-1.776-5.97-3.771-9.042-5.588l-0.014-0.056c0.556-1.179,1.532-3.146,2.583-4.363c0.716-0.095,2.793,1.652,4.451,2.117    c0.977-1.733,2.116-3.179,2.801-4.895l0.023-0.034c-1.411-0.882-2.899-1.714-4.233-2.646l-0.013-0.054    c0.428-1.443,1.609-2.723,2.379-4.107l0.057-0.012l0.104,0.063c3.238,1.539,6.033,3.898,9.393,4.994l0.02-0.038    c0.974-1.64,2.208-3.171,2.934-4.957c0.124-0.21-8.999-5.421-14.575-8.344c-5.185,7.727-9.371,15.757-14.166,23.854    C392.2,332.903,397.468,335.55,402.196,338.396z"/>
		<path style="fill:#000E3F;" d="M404.021,339.767c10.653,7.561,12.363,8.292,13.23,9.037c0.936,0.642,0.922,0.878,2.961-2.444    c0.216-0.394,0.596-0.873,0.927-1.283c0.196-0.209,0.378-0.479,0.54-0.711c-1.163-0.603-7.471-5.819-8.524-6.15l0.022-0.034    c4.051-5.682,8.252-12.44,12.393-18.107c-0.907-1.409-4.129-3.522-5.284-3.776c-6.317,9.488-8.562,13.111-15.853,22.866    L404.021,339.767z"/>
		<path style="fill:#000E3F;" d="M425.316,354.763c5.164-7.64,11.47-14.969,17.102-22.353l0.101-0.128l-0.775-0.59    c-1.958-1.443-2.723-2.18-3.472-2.802c-0.292-0.223-1.022-0.932-1.272-1.075l-0.051,0.065    c-6.283,6.632-11.182,15.39-17.722,22.694C420.325,351.005,424.063,354.929,425.316,354.763z"/>
		<path style="fill:#000E3F;" d="M449.77,355.256l8.465-9.947c-0.483-0.625-1.11-1.265-1.881-1.919    c-0.774-0.659-1.568-1.228-2.385-1.708c-0.898,0.993-1.665,1.832-2.399,2.698c-1.263,1.481-2.325,2.921-3.716,4.559    c-0.605,0.711-1.461,1.526-1.663,1.516c-0.093-0.079,1.541-6.571,1.794-7.368c0.729-2.361,0.634-2.815,1.336-4.825    c0.158-0.185-1.775-2.043-2.302-2.489c-0.493-0.423-1.013-0.81-1.495-1.062c-2.45,2.444-4.903,5.201-7.32,8.045    c-3.286,3.861-6.058,7.307-9.393,11.232l-1.839,2.16c0.958,0.817,1.822,1.87,2.806,2.709c0.464,0.394,0.925,0.734,1.492,1.004    c0.576-0.738,1.335-1.634,2.151-2.592c2.944-3.459,6.767-7.768,6.889-7.663c0.094,0.079-0.146,0.673-0.387,1.267l-0.479,1.191    c-1.274,3.441-2.296,7.523-3.542,11.737c0.835,0.709,1.879,1.861,2.714,2.572c0.709,0.607,1.031,0.666,1.148,0.713l0.528-0.617    c0.711-0.835,1.364-1.663,2.071-2.498c0.972-1.143,1.922-2.198,2.948-3.403C446.807,358.807,448.33,357.014,449.77,355.256z"/>
		<path style="fill:#000E3F;" d="M465.858,352.911c-1.181-0.884-2.416-1.593-3.85-1.699c-1.893-0.335-3.52,0.565-4.978,1.632    c-1.427,1.038-2.768,2.279-4.024,3.486c-2.908,2.766-4.048,4.208-6.242,6.884c-0.682,0.864-1.334,1.814-1.648,2.36    c-1.163,2.1-1.526,3.907-0.655,6.079c1.073,2.603,3.864,4.509,6.306,5.844c2.012,0.905,3.99,1.04,6.13-0.72    c2.428-1.704,4.649-4.238,6.443-6.513v-0.056l-0.058-0.059c-0.777-0.767-4.444-5.363-6.02-5.727c-0.056,0-0.086-0.03-0.086-0.03    c-0.029-0.027-0.029-0.027-0.058,0.003l-0.025,0.029c-1.17,1.467-1.798,1.757-2.881,3.135c0.232,0.516,1.701,1.629,2.075,2.169    c0.146,0.317-1.337,1.47-1.74,1.699c-0.686,0.409-1.287,0.382-1.918,0.155c-0.747-0.34-1.553-0.849-2.043-1.508    c-0.202-0.313-0.345-0.626-0.407-0.914c-0.149-1.289,0.846-2.584,1.589-3.502c2.617-3.114,6.269-6.573,8.643-7.874    c0.398-0.232,0.914-0.463,1.085-0.464c0.916-0.004,1.438,0.74,2.072,1.425c1.123,1.109,0.131,3.322-0.407,4.33    c1.008,1.282,1.497,1.652,2.622,2.765c0.634,0.57,0.835,0.826,1.038,0.799l0.198-0.146    C472.211,362.336,470.692,356.611,465.858,352.911z"/>
	</g>
	<g>
		<path style="fill:#FD8A02;" d="M397.597,252.201c0.774,1.196,2.251,1.174,2.988-0.013c0.529-0.852,0.937-1.789,1.327-2.719    c4.351-10.372,9.005-13.39,11.297-15.877c0.79-0.856,0.331-2.73-0.169-3.25c-1.993-2.073-6.904-6.367-10.242-15.484    c-0.451-1.232-0.831-2.503-1.618-3.57c-0.735-0.995-2.145-0.961-2.778,0.114c-1.468,2.49-4.417,12-12.196,18.126    c-3.121,2.457,0.349,3.926,3.805,8.308C395.899,245.305,395.848,249.498,397.597,252.201z"/>
		<path style="fill:#FD8A02;" d="M221.277,58.314c0.774,1.196,2.251,1.174,2.988-0.013c0.529-0.852,0.937-1.789,1.327-2.719    c4.351-10.372,9.005-13.39,11.296-15.877c0.79-0.856,0.331-2.73-0.169-3.25c-1.993-2.073-6.904-6.367-10.242-15.485    c-0.452-1.232-0.831-2.503-1.618-3.57c-0.735-0.995-2.145-0.961-2.778,0.114c-1.468,2.49-4.417,12-12.196,18.126    c-3.121,2.458,0.349,3.926,3.805,8.308C219.579,51.418,219.528,55.611,221.277,58.314z"/>
		<path style="fill:#FD8A02;" d="M466.537,418.751c-0.451-1.232-0.831-2.503-1.618-3.57c-0.735-0.995-2.145-0.961-2.778,0.114    c-1.468,2.49-4.417,12-12.196,18.126c-3.12,2.458,0.349,3.926,3.805,8.308c5.889,7.469,5.838,11.661,7.587,14.364    c0.774,1.196,2.251,1.174,2.988-0.013c0.529-0.852,0.937-1.789,1.327-2.719c4.351-10.372,9.005-13.39,11.296-15.876    c0.79-0.856,0.331-2.73-0.169-3.25C474.786,432.162,469.875,427.869,466.537,418.751z"/>
		<path style="fill:#FD8A02;" d="M58.92,134.726c-0.451-1.232-0.831-2.503-1.618-3.57c-0.735-0.995-2.145-0.961-2.779,0.114    c-1.468,2.49-4.417,12-12.196,18.126c-3.12,2.458,0.349,3.926,3.805,8.308c5.889,7.468,5.838,11.661,7.587,14.364    c0.774,1.196,2.251,1.174,2.988-0.013c0.529-0.852,0.937-1.789,1.327-2.719c4.351-10.372,9.005-13.39,11.297-15.876    c0.79-0.856,0.331-2.73-0.169-3.25C67.17,148.137,62.258,143.844,58.92,134.726z"/>
		<path style="fill:#FD8A02;" d="M502.438,288.784c-2.269-2.359-7.945-7.313-11.797-17.835c-0.52-1.419-0.957-2.883-1.864-4.112    c-0.846-1.146-2.47-1.107-3.2,0.131c-1.69,2.868-5.087,13.821-14.047,20.876c-3.594,2.83,0.402,4.521,4.383,9.569    c6.783,8.602,6.722,13.427,8.738,16.544c0.891,1.378,2.593,1.353,3.442-0.014c0.609-0.981,1.079-2.061,1.528-3.132    c5.018-11.961,10.372-15.424,13.011-18.286C503.543,291.542,503.014,289.383,502.438,288.784z"/>
		<path style="fill:#FD8A02;" d="M109.142,61.185c-2.269-2.359-7.945-7.313-11.797-17.835c-0.52-1.419-0.957-2.883-1.864-4.112    c-0.845-1.146-2.47-1.107-3.2,0.131c-1.69,2.868-5.087,13.821-14.047,20.876c-3.594,2.83,0.403,4.521,4.383,9.569    c6.783,8.602,6.722,13.427,8.738,16.544c0.891,1.378,2.593,1.353,3.442-0.014c0.609-0.981,1.079-2.061,1.528-3.132    c5.018-11.961,10.372-15.424,13.011-18.286C110.246,63.943,109.717,61.784,109.142,61.185z"/>
	</g>
</g>















</svg>
