<?xml version="1.0" encoding="UTF-8"?>
<!-- Generator: Adobe Illustrator 25.2.3, SVG Export Plug-In . SVG Version: 6.00 Build 0)  -->
<svg xmlns="http://www.w3.org/2000/svg" xmlns:xlink="http://www.w3.org/1999/xlink" version="1.1" id="Capa_1" x="0px" y="0px" viewBox="0 0 512 512" style="enable-background:new 0 0 512 512;" xml:space="preserve" width="512" height="512">
<g>
	<g>
		<path style="fill:#7C3E25;" d="M399.57,170.143c17.286-5.089,36.156-13.483,43.776-26.868    c15.52-27.308-58.122-22.345-58.122-22.345s28.133-19.862,22.348-27.308c-5.812-7.449-34.757,10.748-34.757,10.748    s20.677-59.578-3.329-62.884c-23.986-3.326-67.85,36.395-67.85,36.395S304.937-3.2,265.212,0.098    c-39.722,3.305-73.637,103.453-73.637,103.453s-12.414-30.637-28.155-19.858c-15.443,10.547-5.337,43.472-4.992,44.663    c-0.766-0.672-32.472-28.751-49.627-13.234c-17.381,15.741,25.201,60.428,25.201,60.428s-31.807-4.96-36.771,5.788    c-4.965,10.751,23.984,19.858,23.984,19.858l-9.558,62.737l5.014,107.952l51.517,12.409l35.378-5.583l54.619-76.34l132.202-59.919    l6.829-54.288L399.57,170.143z"/>
		<path style="fill:#FF783E;" d="M208.93,476.779c-38.48-31.528-47.992-72.818-47.992-72.818    c-7.448,24.03-45.509,52.139-73.637-8.295c-28.154-60.404-30.637-123.288,10.748-133.22c5.067-1.218,9.586-0.57,13.608,1.487    c28.749,14.677,31.904,101.943,31.904,101.943l32.274,4.148l-12.416-29.795c0,0,57.104-3.305,11.597-141.516    c0,0,64.55,47.992,57.1-10.748c0,0,147.301,59.582,133.248-10.775c0,0,16.229-1.709,34.205-7.047    c26.338,37.842,37.154,109.218,41.341,172.671L208.93,476.779z"/>
	</g>
	<path style="fill:#FFC524;" d="M442.329,468.507l-91.044,19.865v21.499c-68.921,8.49-113.684-9.602-142.355-33.096l14.921-105.094   c0,0,159.462-21.346,217.059-28.867C445.378,410.118,442.329,468.507,442.329,468.507z"/>
	<g style="opacity:0.1;">
		<path style="fill:#FFFFFF;" d="M215.061,173.264c-12.665,2.302-25.703-1.69-29.691-14.368c-0.866-2.751,0.442-5.729,3.087-6.88    c4.752-2.069,10.245-0.854,14.795,1.178c3.215,1.582,5.201,2.154,5.28,3.721c0.067,1.317-1.519,2.08-2.527,1.23    c-2.288-1.932-4.247-4.757-5.472-7.116c-7.103-13.691-2.621-44.737,18.083-41.811c0.8,0.113,4.008-1.241,2.224-1.494    c-15.726-2.224-24.25,9.325-26.366,23.968c-1.126,7.787-0.089,17.294,4.741,23.727c2.299,3.066,8.019,9.039,12.605,6.464    c11.624-6.529-17.674-15.888-26.145-11.693c-8.252,4.093-2.759,13.272,1.399,18.371c6.486,7.951,18.323,7.739,27.373,6.095    C215.868,174.396,217.483,172.824,215.061,173.264L215.061,173.264z"/>
		<path style="fill:#FFFFFF;" d="M160.385,245.439c-13.388,2.432-27.164-2.149-30.257-16.522c-0.755-3.701,2.022-6.278,14.831-5.656    c2.946,0.747,5.722,1.91,8.333,3.486c4.031,2.318,0.696,3.411-2.357,2.291c-0.968-0.355-1.795-1.014-2.467-1.796    c-1.032-1.201-1.893-2.527-2.586-3.975c-6.929-13.35-2.978-44.728,18.096-41.75c0.875,0.123,4.033-1.34,2.193-1.603    c-15.755-2.224-24.243,9.376-26.356,23.999c-1.131,7.825-0.084,17.314,4.753,23.767c2.278,3.039,8.082,9.06,12.617,6.508    c11.536-6.487-17.614-16.324-26.182-11.819c-8.133,4.281-2.836,13.235,1.421,18.453c6.483,7.948,18.356,7.791,27.385,6.15    C161.288,246.704,162.797,244.999,160.385,245.439L160.385,245.439z"/>
		<path style="fill:#FFFFFF;" d="M262.249,107.757c-11.351,6.068-21.013,43.281-2.2,44.922    c17.781,1.552,23.875-18.958,23.136-33.427c-0.172-3.384-2.993-6.682-6.509-4.547c-5.354,3.254,3.01,12.603,5.329,14.585    c11.618,9.929,28.669,0.641,29.621-13.275c0.095-1.412-3.38-0.72-3.459,0.437c-1.013,14.813-17.084,18.555-26.45,8.05    c-1.496-1.678-2.846-8.868-1.992-4.325c0.648,3.452-0.186,7.589-0.769,11.034c-0.674,3.977-2.169,7.831-3.924,11.437    c-5.308,10.898-18.005,8.671-21.128-0.999c-2.787-8.623,1.81-28.229,10.49-32.868    C266.452,107.678,263.373,107.157,262.249,107.757L262.249,107.757z"/>
		<path style="fill:#FFFFFF;" d="M361.163,125.886c-13.371,7.142-19.943,39.198-2.896,45.375    c17.481,6.331,24.064-22.229,23.491-33.509c-0.16-3.152-3.07-7.078-6.552-4.694c-5.188,3.551,2.879,12.638,5.389,14.78    c11.696,9.994,28.652,0.805,29.614-13.279c0.113-1.637-3.39-1.037-3.486,0.341c-0.918,13.446-14.514,18.688-24.777,9.922    c-2.896-2.476-2.763-5.434-4.035-8.197c1.467,3.182,0.351,7.879-0.095,11.263c-0.484,3.65-1.661,7.194-2.988,10.611    c-3.816,9.806-18.579,13.34-22.352,1.648c-2.783-8.633,1.48-27.874,10.148-32.503    C364.713,126.527,362.807,125.009,361.163,125.886L361.163,125.886z"/>
		<path style="fill:#FFFFFF;" d="M318.642,171.125c-4.148,7.872-5.314,25.783,7.374,26.141c6.941,0.198,16.11-11.519,12.545-18.088    c-0.812-1.497-2.79-3.36-4.554-1.453c-3.94,4.264-0.802,9.779,2.596,13.426c5.785,6.214,14.438,1.023,13.766-6.477    c-0.577,0.153-1.156,0.31-1.733,0.464c1.238,6.518,8.524,6.689,11.229,1.211c0.396-0.802-1.344-0.662-1.623-0.096    c-4.83,3.315-7.453,2.79-7.872-1.579c-0.13-0.682-1.794-0.229-1.733,0.464c0.604,6.709-7.542,8.415-11.665,3.987    c-1.997-2.146-2.862-4.885-2.946-7.787c0.189-3.276,3.03-3.2,3.166-0.51c0.21,1.676,0.074,3.304-0.414,4.889    c-0.624,2.684-2.466,5.14-4.243,7.142c-6.975,7.862-13.661-0.467-14.97-7.013c-0.979-4.884,0.444-10.342,2.701-14.626    C320.682,170.433,318.936,170.569,318.642,171.125L318.642,171.125z"/>
		<path style="fill:#FFFFFF;" d="M332.497,166.227c-9.677-2.459-16.338-7.89-20.636-16.911c-1.375-2.886-1.648-6.102-1.897-9.227    c-0.87-10.901,12.402-10.993,19.057-7.047c2.548,1.514,5.858,5.397,5.29,6.713c-1.747,2.223-3.244-1.741-4.158-4.182    c-0.686-2.336-0.502-4.624-0.502-7.062c0-5.146,0.499-8.891,1.844-13.152c1.989-6.237,5.273-8.641,11.748-6.66    c3.416,1.045,5.913,4.135,5.987,7.707c0,0.02,0.001,0.039,0.001,0.059c0.044,0.42,1.787,0.068,1.733-0.464    c-1.231-12.017-12.742-14.275-19.101-5.867c-4.866,6.435-7.664,37.015,3.626,34.467c0.188-0.044,0.676-0.23,0.771-0.464    c4.637-11.421-13.869-17.43-23.136-13.16c-6.01,2.766-5.062,10.714-3.994,15.847c2.197,10.56,12.153,17.638,21.963,20.131    C331.532,167.069,333.074,166.374,332.497,166.227L332.497,166.227z"/>
		<path style="fill:#FFFFFF;" d="M257.825,78.856c-9.679-2.459-16.342-7.896-20.638-16.918c-1.373-2.886-1.646-6.102-1.893-9.223    c-0.863-10.911,12.387-11.011,19.052-7.057c2.04,1.212,3.461,3.1,4.541,5.153c0.408,0.775-0.44,1.631-1.223,1.237    c-3.341-1.68-3.557-8.922-3.465-11.009c0.201-4.544,0.205-7.591,1.554-11.851c1.956-5.806,6.315-11.203,13.856-9.039    c2.351,0.675,4.566,4.829,4.843,7.259c0.063,0.554,0.1,1.113,0.111,1.676c0.041,0.395,1.782,0.051,1.729-0.464    c-1.236-12.006-12.537-14.487-19.1-5.86c-6.907,9.08-10.637,31.146,2.682,34.566c0.967,0.248,1.57-0.099,1.706-0.573    c3.435-11.93-13.862-17.413-23.126-13.142c-6.008,2.773-5.067,10.697-3.999,15.837c2.191,10.56,12.151,17.631,21.96,20.124    C256.846,79.682,258.383,79,257.825,78.856L257.825,78.856z"/>
		<path style="fill:#FFFFFF;" d="M229.922,148.46c-3.329-1.822-7.562-4.986-10.533-8.136c-6.259-7.977,12.122-12.878,11.022-4.785    c-0.092,0.68-1.016,0.872-1.36,0.278c-1.172-2.027-1.715-5.012-2.214-6.983c-1.332-5.27-1.274-10.172-0.288-15.489    c0.86-4.635,2.981-8.894,5.712-12.69c1.261-1.752,2.876-3.204,4.731-4.307c6.357-3.78,10.595-3.307,12.14,2.566    c0.353,3.125-0.232,6.058-1.756,8.8c-5.282,7.178-2.081-5.509-0.677-8.019c7.293-13.043,31.885-20.053,38.579-2.896    c0.524,1.34,3.95,0.324,3.462-0.928c-5.292-13.562-18.207-13.521-30.187-9.155c-5.71,2.081-27.68,21.154-16.49,27.352    c5.94,3.292,9.941-8.913,10.654-12.347c2.471-11.911-12.832-11.874-18.869-6.481c-10.006,8.94-13.031,21.704-10.471,34.522    c1.334,6.675,5.226,14.199,12.049,8.418c2.07-1.757-1.242-5.335-2.461-6.269c-4.463-3.418-7.998-3.991-13.398-2.391    c-14.152,4.189,0.641,19.204,8.278,20.981C229.08,150.786,231.945,148.93,229.922,148.46L229.922,148.46z"/>
		<path style="fill:#FFFFFF;" d="M301.953,119.497c-3.725-1.623-2.115-12.109-1.682-14.708c0.965-5.771,4.359-9.895,9.015-13.006    c1.978-1.32,4.151-2.394,6.402-3.152c5.468-1.842,2.718,4.793,1.934,6.515c-1.92,4.226-2.841,0.391-0.31-3.24    c1.615-2.317,12.784-13.804,14.145-4.867c0.229,1.497,3.698,0.641,3.459-0.928c-0.778-5.103-5.14-4.833-9.37-4.062    c-5.812,1.061-10.236,6.286-12.348,11.464c-0.904,2.21-1.883,7.821,2.371,6.907c4.444-0.952,6.515-6.396,6.945-10.485    c0.982-9.339-15.312,0.225-17.628,1.89c-5.096,3.66-7.466,9.417-8.475,15.451c-0.689,4.12-1.015,12.47,3.515,14.445    C301.281,122.308,303.948,120.367,301.953,119.497L301.953,119.497z"/>
		<path style="fill:#FFFFFF;" d="M291.119,161.851c2.749,3.571-3.22,12.392-5.041,14.82c-3.375,4.506-7.908,6.249-13.164,6.931    c-1.826,0.239-9.721,1.18-9.827-2.255c0.109-1.585,0.667-2.376,1.473-3.21c1.682-1.74,6.178-2.523,2.969,0.573    c-3.259,3.684-18.98,8.071-16.755-0.737c0.413-1.637-3.126-1.207-3.503,0.28c-1.528,6.054,4.584,7.303,9.568,7.562    c5.732,0.297,11.092-3.322,14.711-7.412c1.953-2.21,1.975-5.277-1.381-5.652c-3.368-0.372-7.93,3.619-9.479,6.314    c-5.081,8.855,10.893,7.412,15.273,6.498c6.199-1.296,10.72-4.871,14.493-9.902c2.452-3.275,6.907-11.328,3.837-15.319    C293.355,159.125,290.053,160.466,291.119,161.851L291.119,161.851z"/>
		<path style="fill:#FFFFFF;" d="M177.519,98.564c-7.629,7.538-13.71,20.589-4.088,29.174c6.293,5.614,12.349-4.547,11.745-9.953    c-0.274-2.459-2.132-3.158-4.211-2.684c-3.285,0.751-3.505,6.222-3.67,8.708c-0.568,8.623,3.169,17.785,12.964,16.369    c1.734-0.253,2.805-2.446,0.423-2.101c-6.895,0.996-8.742-4.768-9.658-9.892c-0.372-2.081-0.288-4.223-0.15-6.321    c0.09-1.378,1.281-6.48,0.892-0.412c-0.281,4.355-5.085,5.447-7.569,2.261c-1.999-2.568-2.318-5.949-2.215-9.035    c0.2-6.044,4.255-11.365,8.349-15.41C181.808,97.807,178.411,97.685,177.519,98.564L177.519,98.564z"/>
		<path style="fill:#FFFFFF;" d="M129.878,120.875c-7.628,7.538-13.709,20.605-4.083,29.188c6.302,5.621,12.349-4.53,11.744-9.96    c-0.275-2.456-2.133-3.172-4.214-2.695c-3.281,0.751-3.503,6.235-3.667,8.718c-0.57,8.616,3.172,17.802,12.967,16.383    c1.746-0.252,2.795-2.473,0.416-2.128c-6.895,0.999-8.737-4.748-9.655-9.875c-0.372-2.077-0.288-4.219-0.148-6.314    c0.09-1.378,1.279-6.491,0.889-0.43c-0.281,4.349-5.088,5.451-7.567,2.268c-1.999-2.565-2.316-5.938-2.214-9.022    c0.198-6.048,4.257-11.365,8.35-15.41C134.179,120.132,130.784,119.978,129.878,120.875L129.878,120.875z"/>
		<path style="fill:#FFFFFF;" d="M198.044,190.155c-6.519,3.244-12.968,3.578-18.298-1.839c-2.349-2.384-5.074-6.419-4.056-9.929    c1.032-3.558,7.105-2.169,9.121-0.87c2.4,1.549-0.256,2.797-1.893,2.313c-1.057-0.314-2.007-0.945-2.93-1.528    c-2.877-1.811-9.436-7.63-4.865-10.898c0.955-0.686-0.449-1.323-1.156-0.819c-6.476,4.632,2.993,12.099,7.233,14.146    c1.649,0.798,5.678,1.463,6.689-0.723c1.107-2.398-3.097-4.632-4.84-4.925c-6.593-1.112-11.607,2.862-8.082,9.469    c1.806,3.391,4.702,6.87,8.357,8.371c5.492,2.258,10.362,0.839,15.496-1.716C199.876,190.68,198.931,189.715,198.044,190.155    L198.044,190.155z"/>
	</g>
	<path style="fill:#091438;" d="M81.808,337.824c0,0,13.618-26.018,34.568-14.305c5.062,2.831,9.59,8.916,13.127,16.55   c11.091,23.958,12.392,63.167-10.384,64.841c-30.026,2.197-16.695-34.232-5.621-37.175l-17.172-4.516l24.983,2.115   c0,0-22.763,20.588-15.054,31.155c7.707,10.574,33.211,4.949,26.557-32.216C121.1,298.881,81.808,337.824,81.808,337.824z"/>
	<g>
		<path style="fill:#FFFFFF;" d="M322.38,319.78c1.153,13.371-18.548,25.991-44.001,28.188c-25.459,2.19-47.028-6.87-48.177-20.244    c-1.153-13.384,18.548-25.998,44.002-28.188C299.657,297.343,321.228,306.406,322.38,319.78z"/>
		<path style="fill:#091438;" d="M276.012,320.527c0.546,6.334-5.259,12.01-12.968,12.671c-7.709,0.658-14.403-3.933-14.943-10.267    c-0.549-6.341,5.26-12.01,12.968-12.671C268.776,309.591,275.467,314.186,276.012,320.527z"/>
	</g>
	<g>
		<path style="fill:#FFFFFF;" d="M427.014,311.355c1.058,12.242-16.979,23.795-40.283,25.8c-23.303,2.012-43.052-6.286-44.11-18.532    c-1.051-12.242,16.987-23.795,40.29-25.797C406.214,290.818,425.964,299.117,427.014,311.355z"/>
		<path style="fill:#091438;" d="M382.16,311.966c0.45,5.195-4.311,9.837-10.628,10.39c-6.324,0.542-11.802-3.223-12.252-8.422    c-0.45-5.185,4.311-9.837,10.635-10.379C376.232,303.012,381.717,306.774,382.16,311.966z"/>
	</g>
	<path style="fill:#7C3E25;" d="M241.571,295.375l-18.545-7.108c0.309-0.815,7.804-20.073,28.74-29.347   c16.156-7.156,35.363-6.454,57.101,2.098l-7.272,18.48C256.464,261.747,242.96,291.882,241.571,295.375z"/>
	<path style="fill:#7C3E25;" d="M405.853,272.303c-4.768-9.646-11.103-15.67-19.371-18.415c-15.908-5.301-33.952,3.496-34.129,3.588   l-8.998-17.709c1.033-0.518,25.439-12.682,49.39-4.728c13.374,4.444,23.774,14.022,30.913,28.464L405.853,272.303z"/>
	
		<rect x="187.633" y="325.299" transform="matrix(0.1366 -0.9906 0.9906 0.1366 -204.6523 509.7861)" style="fill:#091438;" width="4.965" height="93.988"/>
	<path style="fill:#091438;" d="M220.524,475.199c-1.535-0.894-37.897-22.42-61.804-70.125l4.438-2.224   c23.213,46.317,59.5,67.847,59.863,68.058L220.524,475.199z"/>
	<g style="opacity:0.2;">
		<polygon style="fill:#FFFFFF;" points="415.659,370.756 254.926,395.468 413.851,360.994   "/>
		<polygon style="fill:#FFFFFF;" points="275.767,414.116 381.301,407.881 276.818,423.994   "/>
		<polygon style="fill:#FFFFFF;" points="427.856,432.306 245.152,456.916 426.267,422.503   "/>
		<polygon style="fill:#FFFFFF;" points="395.111,469.315 281.153,473.053 394.354,459.41   "/>
	</g>
	<path style="fill:#FFFFFF;" d="M323.742,366.281l-6.979-7.068c0.928-0.911,23.051-22.277,53.128-8.602l-4.113,9.039   C341.864,348.783,323.919,366.104,323.742,366.281z"/>
</g>















</svg>
