<?xml version="1.0" encoding="UTF-8"?>
<!-- Generator: Adobe Illustrator 25.2.3, SVG Export Plug-In . SVG Version: 6.00 Build 0)  -->
<svg xmlns="http://www.w3.org/2000/svg" xmlns:xlink="http://www.w3.org/1999/xlink" version="1.1" id="Capa_1" x="0px" y="0px" viewBox="0 0 512 512" style="enable-background:new 0 0 512 512;" xml:space="preserve" width="512" height="512">
<g>
	<path style="fill:#FFC524;" d="M150.315,142.994c-19.771,69.149-61.89,117.754-94.082,108.544   c-32.191-9.199-42.255-72.72-22.482-141.869C53.517,40.516,95.637-8.083,127.832,1.118   C160.02,10.325,170.092,73.844,150.315,142.994z"/>
	<path style="fill:#FFC524;" d="M447.234,147.366c-61.833-86.185-171.675-97.015-171.675-97.015S42.457,97.662,124.198,323.3   l21.244,51.37h157.274l123.932-136.063l20.585-67.357V147.366z"/>
	<path style="opacity:0.2;fill:#FFFFFF;" d="M447.234,147.366c-61.833-86.185-171.675-97.015-171.675-97.015   S42.457,97.662,124.198,323.3l21.244,51.37h157.274l123.932-136.063l20.585-67.357V147.366z"/>
	<path style="fill:#FFDEC7;" d="M329.662,512c-105.13-18.187-141.773-67.055-154.463-101.516   c-33.136,4.689-96.209,8.143-108.011-30.551c-12.15-39.795,12.209-69.968,57.011-56.632c14.871,4.396,31.982,13.572,50.76,28.802   c0,0,34.135-73.633-10.774-158.069c0,0,184.414,52.698,283.05-46.666c21.982,30.585,37.88,70.645,40.712,123.074   C496.888,436.75,364.09,459.333,329.662,512z"/>
	<g>
		<path style="fill:#FF6C7E;" d="M284.482,423.367c0.267,9.948-11.486,18.328-26.265,18.732    c-14.77,0.404-26.967-7.339-27.234-17.286c-0.267-9.94,11.488-18.335,26.259-18.728    C272.023,405.68,284.213,413.415,284.482,423.367z"/>
		<path style="fill:#091438;" d="M230.27,398.594c0,0,4.031,38.905,61.11,27.549C291.38,426.143,234.406,447.762,230.27,398.594z"/>
	</g>
	<path style="fill:#091438;" d="M83.814,362.761c0,0,11.903-8.98,29.328-0.989c17.422,7.998,26.207,38.19,0.906,34.736   c-25.297-3.458-16.777-15.967-7.414-15.589l-11.043-5.326l20.978,4.547c0,0-19.505,5.356-13.195,10.938   c6.299,5.582,27.849,6.934,22.89-9.707C117.538,352.068,83.814,362.761,83.814,362.761z"/>
	<path style="fill:#091438;" d="M354.248,304.123l9.156,96.42l-50.358,7.624c0,0,1.001-13.476,15.363-9.662   c0,0-11.173,1.734-10.229,6.523l35.414-8.762C353.594,396.266,345.386,341.394,354.248,304.123z"/>
	<polygon style="fill:#EA4A0C;" points="123.464,454.381 110.177,440.523 123.464,422.029 137.122,438.203  "/>
	<g>
		<path style="fill:#FFFFFF;" d="M341.856,347.532c0,0-83.794,42.126-116.058-22.405    C225.798,325.127,266.577,257.461,341.856,347.532z"/>
		<path style="fill:#091438;" d="M339.106,349.83c-26.578-31.804-51.437-47.052-73.864-45.388    c-23.489,1.764-36.249,22.335-36.377,22.538l-6.138-3.703c0.587-0.975,14.69-23.884,41.882-25.977    c24.899-1.942,51.812,14.206,79.999,47.93L339.106,349.83z"/>
		<path style="fill:#091438;" d="M270.635,330.891c0,9.714-4.562,17.59-10.183,17.59c-5.63,0-10.186-7.876-10.186-17.59    c0-9.718,4.557-17.598,10.186-17.598C266.073,313.293,270.635,321.172,270.635,330.891z"/>
	</g>
	<g>
		<path style="fill:#FFFFFF;" d="M362.374,346.872c0,0,79.482,13.539,89.771-47.619    C452.145,299.253,401.596,253.884,362.374,346.872z"/>
		<path style="fill:#091438;" d="M365.676,348.262l-6.606-2.783c14.753-34.973,32.942-55.102,54.059-59.828    c23.14-5.174,40.675,10.274,41.411,10.934l-4.783,5.345c-0.156-0.141-15.657-13.661-35.143-9.266    C395.92,296.892,379.457,315.594,365.676,348.262z"/>
		<path style="fill:#091438;" d="M401.478,322.518c0,9.714-4.553,17.594-10.181,17.594s-10.188-7.879-10.188-17.594    c0-9.707,4.56-17.586,10.188-17.586S401.478,312.811,401.478,322.518z"/>
	</g>
	<path style="fill:#091438;" d="M221.774,282.534c26.123-18.304,65.009-26.505,96.322-20.54l0.226,1.057   c-24.07,5.775-71.993,15.99-96.322,20.537L221.774,282.534z"/>
	<path style="fill:#091438;" d="M357.984,239.081c27.181-10.508,63.866-7.788,89.287,6.412l-0.076,1.075   c-22.476-0.978-66.906-4.163-89.287-6.412L357.984,239.081z"/>
	<path style="fill:#FFC524;" d="M268.515,204.356c-3.766-14.87-15.652-27.44-28.401-35.734   c-29.931-19.305-69.541-22.027-103.762-21.256c35.067-3.222,75.582-2.838,107.576,14.953c15.415,8.555,29.818,22.55,35.064,39.507   L268.515,204.356z"/>
	<path style="fill:#FFC524;" d="M386.028,177.867c6.505-29.672-5.089-64.479-29.505-84.926   c-19.506-17.632-48.156-28.243-72.697-33.832c25.342,4.191,54.903,13.32,75.819,30.075c27.962,20.733,42.272,58.307,36.919,90.947   L386.028,177.867z"/>
	<path style="fill:#FFC524;" d="M344.213,195.706c-22.465-29.914-59.741-57.329-98.155-66.725   c-32.43-8.679-69.71-4.021-99.602,8.259c29.827-13.943,67.307-20.251,100.68-13.023c40.603,7.921,80.784,34.801,105.69,65.016   L344.213,195.706z"/>
	<path style="fill:#FFC524;" d="M364.029,189.722c-36.802-63.591-101.557-106.033-177.164-88.183   c76.753-22.236,145.922,19.669,186.56,82.903L364.029,189.722z"/>
	<path style="fill:#FFC524;" d="M256.121,206.3c-15.81-21.248-42.655-33.938-68.934-36.353c-22.224-2.71-47.173,2.432-67.678,9.053   c20.386-8.21,45.234-15.083,68.008-13.925c28.761,0.619,58.581,12.785,77.26,34.806L256.121,206.3z"/>
	<path style="opacity:0.2;fill:#FFFFFF;" d="M88.05,214.491c-8.055,14.521-26.715,14.981-33.909,0.53   c-2.444-4.909-3.175-10.78-3.984-16.125c-2.796-18.448-0.652-37.315,2.904-55.475c7.362-37.606,23.689-73.854,48.188-103.228   c5.08-6.09,13.802-17.266,23.795-11.869c5.68,3.069,6.988,11.91,7.839,17.481c2.346,15.376-2.329,33.681-5.059,48.533   c-5.02,27.297-12.008,54.806-21.55,80.907c-6.316,17.266-13.832,35.964-26.489,49.616c-12.833,13.838-21.758-10.142-23.909-19.684   c-3.473-15.396-0.313-33.101,2.828-48.225c3.125-15.048,8.692-29.454,15.602-43.133c4.388-8.686,24.363-42.838,38.401-34.882   c9.549,5.413,0.493,30.023-1.462,37.831c-1.559,6.217-3.705,12.207-6.145,18.122c-3.057,7.412-11.152,17.749-11.093,3.771   c0.004-1.241-7.798-0.139-7.809,2.092c-0.037,9.079,1.818,14.203,11.145,10.843c13.473-4.852,18.283-24.276,21.6-36.211   c2.328-8.376,9.631-28.629,3.128-36.629c-5.517-6.792-14.868-5.598-21.934-1.516c-32.319,18.68-46.514,60.992-51.709,95.69   c-2.487,16.608-3.719,66.936,25.794,59.029c19.89-5.33,29.647-32.942,36.502-49.691c14.221-34.749,22.642-72.633,28.186-109.613   c1.853-12.368,6.44-34.246-3.802-44.322c-6.816-6.705-16.365-7.196-24.562-2.146c-36.196,22.292-53.912,73.563-63.756,112.3   c-6.318,24.862-13.723,67.724,6.392,88.402c12.27,12.615,36.226-2.344,42.567-13.78C96.317,212.08,89.134,212.536,88.05,214.491   L88.05,214.491z"/>
	<ellipse style="fill:#091438;" cx="220.813" cy="350.489" rx="4.985" ry="2.958"/>
</g>















</svg>
