<?xml version="1.0" encoding="UTF-8"?>
<!-- Generator: Adobe Illustrator 25.2.3, SVG Export Plug-In . SVG Version: 6.00 Build 0)  -->
<svg xmlns="http://www.w3.org/2000/svg" xmlns:xlink="http://www.w3.org/1999/xlink" version="1.1" id="Capa_1" x="0px" y="0px" viewBox="0 0 512 512" style="enable-background:new 0 0 512 512;" xml:space="preserve" width="512" height="512">
<g>
	<g>
		<path style="fill:#091438;" d="M191.795,222.871c0,0-13.724,37.187-25.32,34.574c-11.594-2.609-1.56-24.094-1.56-24.094    s-49.583,54.286-28.673-6.884c0,0-75.625,46.562-54.931-17.955c0,0-51.305-24.234-48.14-68.799    c3.166-44.568,58.546-50.836,58.546-50.836S74.621,19.409,126.212,2.629c51.594-16.783,95.716,52.281,95.716,52.281    s6.02-21.222,13.471-20.362c7.451,0.86,7.69,35.795,7.69,35.795s14.379-27.141,34.524-17.018    c20.148,10.123-8.622,74.49-8.622,74.49s51.508-34.924,42.648,25.469L191.795,222.871z"/>
		<g style="opacity:0.1;">
			<path style="fill:#FFFFFF;" d="M105.657,184.847c-9.786,2.442-18.179,2.067-26.508-4.397c-9.679-7.51-10.8-21.062,9.187-18.092     c1.286,0.318,2.569,0.637,3.853,0.955c5.477,0.6,7.979,2.007,7.507,4.22c-0.443,2.076-3.037,2.859-4.73,1.579     c-3.011-2.276-5.409-5.81-6.938-8.937c-7.257-14.849-3.979-45.88,17.992-44.148c1.52,0.116,3.948-2.064,1.415-2.263     c-17.588-1.382-25.52,12.803-26.41,28.764c-0.462,8.248,1.352,17.994,6.84,24.409c2.599,3.043,9.527,9.487,14.132,6.499     c11.746-7.622-20.553-18.938-29.486-11.309c-8.483,7.241-0.581,16.913,6.249,22.212c7.689,5.971,18.728,4.715,27.442,2.54     C108.478,186.313,107.92,184.28,105.657,184.847L105.657,184.847z"/>
			<path style="fill:#FFFFFF;" d="M152.273,111.519c-13.405,8.283-18.714,49.252,3.874,48.034     c17.48-0.948,23.337-26.067,19.09-39.905c-0.845-2.746-5.263-3.453-7.178-1.427c-4.593,4.849,5.649,14.195,9.205,15.724     c13.688,5.88,29.11-1.756,29.11-17.472c0-0.759-3.741-0.175-3.741,1.004c0,15.829-17.076,21.408-27.965,10.456     c-2.277-2.295-2.221-5.73-3.173-7.279c1.788,2.921,1.121,7.979,0.99,11.204c-0.441,10.837-12.731,39.318-25.378,19.526     c-5.885-9.207-1.892-33.469,8.063-39.622C156.803,110.756,153.018,111.057,152.273,111.519L152.273,111.519z"/>
			<path style="fill:#FFFFFF;" d="M116.982,173.353c-13.306,8.227-18.76,49.493,3.857,47.958     c17.451-1.186,23.402-25.854,19.099-39.86c-0.852-2.777-5.223-3.341-7.171-1.406c-4.743,4.708,5.796,14.223,9.196,15.681     c13.639,5.852,29.111-1.763,29.114-17.451c0-0.686-3.741-0.122-3.741,1.004c-0.003,15.727-17.182,21.299-27.96,10.47     c-2.281-2.291-2.224-5.737-3.176-7.297c1.786,2.924,1.118,7.982,0.987,11.208c-0.145,3.575-0.902,7.038-1.751,10.501     c-2.468,10.078-16.056,20.88-23.626,9.018c-6.004-9.409-1.926-33.48,8.054-39.646     C121.468,172.538,117.69,172.912,116.982,173.353L116.982,173.353z"/>
			<path style="fill:#FFFFFF;" d="M217.76,175.497c-3.199,7.241-4.553,28.243,8.397,27.774c7.428-0.266,19.335-12.747,13.679-20.362     c-2.216-2.984-3.837-2.466-6.16,0.039c-3.377,3.645,2.349,10.567,4.827,12.908c6.625,6.241,15.703,0.283,14.443-7.843     c-0.623,0.168-1.245,0.332-1.868,0.497c1.753,6.846,9.632,6.835,12.213,0.647c0.378-0.913-1.494-0.752-1.761-0.112     c-4.951,4.005-7.813,3.663-8.584-1.032c-0.191-0.745-1.987-0.259-1.868,0.497c1.495,5.471-1.649,7.962-9.437,7.479     c-2.774-1.175-4.756-4.722-6.022-7.171c-1.45-2.819,3.211-6.727,2.998-0.601c-0.082,2.414-1.21,4.705-2.286,6.807     c-2.093,4.1-7.073,8.563-12.496,6.191c-3.194-1.4-4.787-5.265-5.849-8.277c-1.936-5.52-0.759-12.141,1.536-17.329     C219.916,174.71,218.039,174.864,217.76,175.497L217.76,175.497z"/>
			<path style="fill:#FFFFFF;" d="M232.39,169.372c-11.54-2.218-19.73-8.567-24.523-19.337     c-6.457-14.524,7.484-23.874,20.374-14.965c2.462,1.7,3.715,4.239,4.538,6.952c0.167,0.549-0.478,1.008-0.937,0.664     c-2.083-1.56-3.456-3.63-4.123-6.21c-0.904-2.477-1.532-5.016-1.883-7.629c-0.913-4.803-0.285-9.812,0.871-14.495     c1.609-6.025,6.134-8.439,13.577-7.237c3.606,0.582,6.326,3.605,6.643,7.244l0.005,0.063c0.075,0.451,1.959,0.024,1.868-0.5     c-2.169-12.75-13.236-13.954-21.034-5.104c-5.588,6.342-5.835,40.507,6.286,36.953c0.281-0.084,0.735-0.243,0.845-0.588     c4.19-13.194-16.25-17.763-25.867-12.558c-6.549,3.547-4.681,12.31-3.029,17.91c3.234,10.987,14.347,17.585,24.867,19.603     C231.335,170.233,232.972,169.484,232.39,169.372L232.39,169.372z"/>
			<path style="fill:#FFFFFF;" d="M145.58,80.229c-11.53-2.217-19.613-8.595-24.33-19.211c-5.724-12.869,6.078-22.552,18.539-16.203     c1.191,0.962,2.384,1.924,3.575,2.886c1.005,0.713,1.704,1.446,2.098,2.198c0.974,1.863-1.947,3.27-2.943,1.418     c-1.856-3.451-2.656-8.072-3.305-11.487c-0.932-4.911-0.285-9.725,0.883-14.461c1.62-6.337,5.768-9.34,12.447-9.009     c3.233,0.16,6.091,2.246,7.066,5.333c0.376,1.19,0.609,2.426,0.699,3.708c0.11,0.647,1.989,0.199,1.87-0.5     c-2.151-12.673-13.09-14.209-21.051-5.174c-5.401,6.139-5.745,40.696,6.342,37.163c0.245-0.07,0.782-0.263,0.81-0.591     c1.116-13.275-16.161-18.088-25.903-12.81c-6.507,3.526-4.625,12.498-2.998,18.029c3.271,11.113,14.428,17.689,25.058,19.732     C145.038,81.366,146.645,80.432,145.58,80.229L145.58,80.229z"/>
			<path style="fill:#FFFFFF;" d="M120.627,157.524c-3.128-1.462-6.255-2.929-9.382-4.393c-1.393-0.652-2.629-1.634-3.479-2.916     c-3.217-4.857-0.63-8.696,7.76-11.521c6.783,2.011,5.747,9.857,2.134,2.812c-3.274-6.38-4.091-14.1-3.342-21.103     c0.438-4.096,1.793-8.036,3.615-11.72c1.409-2.848,3.769-5.133,6.634-6.507c9.988-4.789,14.442-3.104,13.364,5.054     c-0.302,1.448-0.706,2.872-1.21,4.268c-0.673,3.729-2.087,3.309-4.238-1.263c0.917-3.285,2.307-6.37,4.172-9.249     c8.399-14.44,32.383-20.141,39.907-3.372c0.54,1.2,4.196,0.01,3.741-1.004c-6.384-14.223-20.761-13.156-33.116-7.727     c-5.016,2.207-28.949,24.965-16.257,30.198c6.994,2.886,10.353-9.511,10.903-13.709c1.625-12.39-13.945-12.022-20.233-6.097     c-10.7,10.081-13.179,24.434-9.49,38.202c1.838,6.853,6.668,14.94,13.553,8.301c2.751-2.659-3.325-6.604-4.845-7.618     c-3.804-2.54-7.82-1.966-11.951-0.745c-15.83,4.677,0.478,20.53,9.431,22.006C119.373,159.599,122.692,157.867,120.627,157.524     L120.627,157.524z"/>
			<path style="fill:#FFFFFF;" d="M196.264,121.18c-4.437-1.605-3.085-14.422-2.734-16.951c0.936-6.748,4.939-11.064,10.177-14.72     c1.545-1.077,3.213-1.941,4.927-2.714c5.94-2.676,3.508,4.82,2.749,6.825c-1.503,3.96-1.739,0.392-1.238-1.511     c0.416-1.406,0.993-2.742,1.735-4.012c2.575-5.208,7.173-6.618,13.8-4.226c0.334,1.525,4.08,0.556,3.739-1.004     c-2.781-12.698-20.477,1.966-22.611,8.34c-0.764,2.284-2.574,8.818,2.101,8.35c4.848-0.483,6.62-6.342,7.327-10.396     c2.053-11.726-15.831-0.549-18.575,1.672c-5.146,4.163-7.37,9.983-8.264,16.434c-0.632,4.547-0.57,14.303,4.644,16.195     C195.425,123.965,198.433,121.967,196.264,121.18L196.264,121.18z"/>
			<path style="fill:#FFFFFF;" d="M206.202,191.679c3.942,4.484-3.461,15.37-5.975,18.504c-3.405,4.243-7.996,5.744-13.065,6.604     c-3.155,0.539-11.734,1.455-8.904-4.121c1.014-1.997,7.435-5.789,3.787-1.084c-0.376,0.402-0.752,0.808-1.128,1.214     c-4.855,5.341-10.532,5.114-17.03-0.682c0.324-1.749-3.487-1.207-3.772,0.34c-0.974,5.282,3.367,7.577,8.418,7.514     c7.295-0.091,13.28-3.148,17.738-8.899c1.978-2.55,1.76-6.3-2.212-5.936c-4.311,0.388-8.192,4.943-10.003,8.507     c-4.38,8.622,14.8,5.38,17.688,4.673c5.434-1.326,10.417-4.897,13.48-9.585c2.681-4.107,8.509-13.988,4.418-18.645     C208.602,188.902,205.035,190.346,206.202,191.679L206.202,191.679z"/>
			<path style="fill:#FFFFFF;" d="M60.501,106.915c-6.56,7.374-14.452,24.364-2.875,31.657c7.99,5.027,15.075-4.576,12.049-12.33     c-0.794-2.036-2.977-2.382-4.759-1.539c-3.454,1.641-2.977,7.968-2.832,10.973c0.45,9.329,5.394,17.767,15.561,15.559     c2.345-0.507,1.644-2.987-0.665-2.483c-7.19,1.557-9.504-5.006-10.686-10.308c-0.46-2.064-0.511-4.201-0.497-6.311     c0.011-1.536,0.864-7.3,0.864-0.766c0,4.866-5.594,6.107-8.343,2.63c-2.041-2.574-2.515-5.744-2.617-8.899     c-0.208-6.531,3.796-12.502,7.914-17.133C65.182,106.205,61.591,105.694,60.501,106.915L60.501,106.915z"/>
			<path style="fill:#FFFFFF;" d="M178.421,31.967c-6.525,7.335-14.506,24.147-2.933,31.426c7.888,4.964,15.064-4.561,12.072-12.232     c-0.797-2.043-2.998-2.109-4.71-1.357c-3.108,1.375-3.072,6.727-2.938,9.483c0.462,9.634,4.612,19.05,15.567,16.679     c2.312-0.5,1.707-2.603-0.563-2.109c-6.214,1.343-8.886-3.806-10.356-8.794c-1-3.386,0.352-10.099-0.262-11.676     c0.748,1.92-0.341,13.219-6.909,7.066c-1.803-1.693-2.701-4.187-3.433-6.475c-2.419-7.542,2.76-15.888,7.51-21.229     C182.977,31.05,179.348,30.925,178.421,31.967L178.421,31.967z"/>
			<path style="fill:#FFFFFF;" d="M64.909,198.244c-0.592-1.304-0.947-2.675-0.933-4.047c0.051-4.642,7.412-3.827,9.88-2.452     c2.076,1.077,1.639,2.011-1.313,2.809c-1.327-0.14-2.903-1.063-4.012-1.686c-3.16-1.767-10.441-7.461-5.821-11.271     c0.98-0.812-0.512-1.49-1.249-0.885c-6.601,5.44,3.839,12.726,8.603,14.716c2.186,0.91,5.614,1.099,7.202-0.941     c1.917-2.466-3.772-4.771-5.184-5.132c-6.196-1.571-10.193,2.098-9.585,7.023l1.203,0.941L64.909,198.244z"/>
			<path style="fill:#FFFFFF;" d="M79.694,207.694c3.103-0.205,6.243-1.41,9.385-3.23l0,0c0.934-0.542,1.932,0.497,0.836,1.133     c-2.975,1.724-5.852,3.002-8.786,3.489l0.183-0.575L79.694,207.694z"/>
		</g>
	</g>
	<g>
		<path style="fill:#091438;" d="M467.785,235.159c-18.913-62.041-60.907-105.374-119.208-103.083    c-133.412,5.268-172.478,87.107-172.478,87.107l13.392,96.888l6.162,59.9l33.66,21.607l31.951-15.203l47.457-45.656    l111.824-47.992L467.785,235.159z"/>
		<path style="opacity:0.05;fill:#FFFFFF;" d="M467.785,235.159c-18.913-62.041-60.907-105.374-119.208-103.083    c-133.412,5.268-172.478,87.107-172.478,87.107l13.392,96.888l6.162,59.9l33.66,21.607l31.951-15.203l47.457-45.656    l111.824-47.992L467.785,235.159z"/>
	</g>
	<path style="fill:#7C3E25;" d="M406.066,499.116l-145.783-19.357c-19.084-14.92-33.053-36.521-36-67.649   c-6.912,10.368-18.744,21.967-36.423,20.044c-41.234-4.453-53.808-114.861-15.117-119.352c6.244-0.727,11.785,0.553,16.747,3.271   c25.742,13.901,34.74,65.343,34.74,65.343l22.081-157.39c0,0,125.487,31.832,221.472,11.134   c13.607,44.636,15.255,98.948,2.426,152.904C470.21,388.063,435.568,461.853,406.066,499.116z"/>
	<path style="fill:#FF6C7E;" d="M470.198,388.061c-10.116,42.669-29.335,85.127-58.836,122.384c0,0-96.465,12.002-151.086-30.677   l22.17-92.043L470.198,388.061z"/>
	<path style="fill:#7C3E25;" d="M311.385,232.518c-0.15-5.054-1.581-8.65-4.257-10.679c-4.32-3.288-10.784-1.749-10.851-1.735   l-3.431,0.846l0.101-3.536c0.422-13.415-18.736-15.241-19.552-15.311l-3.306-0.287l0.971-3.173   c1.224-3.988,0.969-6.958-0.782-9.067c-3.904-4.704-14.517-4.628-18.275-4.204l-2.884,0.322l-0.096-2.9   c-0.129-3.907-1.412-6.646-3.914-8.364c-6.552-4.491-20.23-1.214-24.949,0.427l-1.768-5.069c0.794-0.273,19.612-6.727,29.745,0.214   c3.288,2.253,5.296,5.565,5.989,9.861c4.958-0.175,15.306,0.294,20.283,6.29c2.415,2.91,3.259,6.608,2.515,11.012   c8.189,1.462,19.676,6.318,21.222,17.266c3.155-0.252,8.126,0.035,12.194,3.106c4.05,3.057,6.209,8.042,6.412,14.817   L311.385,232.518z"/>
	<path style="fill:#7C3E25;" d="M285.142,231.951l-5.298-0.847c0.829-5.194-0.009-9.186-2.487-11.862   c-4.712-5.076-14.004-4.355-14.104-4.355L261,215.077l-0.574-2.186c-0.957-3.683-2.637-6.045-4.997-7.01   c-4.808-1.969-11.46,1.858-11.521,1.899l-3.252,1.941l-0.755-3.712c-0.852-4.183-2.522-6.821-4.962-7.842   c-5.042-2.109-12.425,2.557-12.498,2.606l-2.361,1.543l-1.422-2.435c-2.178-3.715-4.869-5.754-8.232-6.23   c-9.004-1.266-19.706,8.805-19.813,8.906l-3.706-3.883c0.512-0.486,12.684-11.939,24.253-10.34   c4.268,0.598,7.85,2.826,10.683,6.639c3.34-1.658,9.67-4.047,15.164-1.759c3.372,1.41,5.809,4.25,7.271,8.458   c3.237-1.305,8.467-2.69,13.187-0.755c3.475,1.423,5.999,4.299,7.526,8.567c3.746,0.052,11.4,0.857,16.276,6.09   C284.946,219.519,286.249,225.029,285.142,231.951z"/>
	<path style="fill:#7C3E25;" d="M369.176,236.034l-5.016-1.899c2.2-5.81,2.222-10.33,0.07-13.429   c-3.746-5.39-13.055-5.446-13.289-5.446h-0.004l-3.256,0.018l0.601-3.201c1.036-5.464,0.364-9.644-1.997-12.436   c-3.669-4.331-10.455-4.226-10.522-4.232l-2.805,0.063l0.056-2.805c0.14-6.031-1.329-10.323-4.369-12.758   c-4.992-3.995-12.89-2.081-12.974-2.06l-3.351,0.833l0.014-3.453c0.024-3.921-1.064-6.72-3.337-8.567   c-5.212-4.24-14.957-2.2-15.052-2.179l-3.3,0.71l0.046-3.372c0.047-2.966-0.89-5.31-2.865-7.157   c-6.242-5.852-20.178-4.803-20.311-4.786l-0.437-5.352c0.668-0.053,16.425-1.252,24.407,6.209c2.358,2.207,3.811,4.904,4.346,8.052   c4.086-0.406,11.449-0.423,16.535,3.694c2.879,2.333,4.603,5.572,5.146,9.651c3.631-0.36,9.717-0.21,14.454,3.561   c3.939,3.134,6.079,8.01,6.387,14.52c3.162,0.395,8.395,1.696,11.995,5.918c2.987,3.505,4.212,8.196,3.641,13.975   c3.995,0.486,10.868,2.116,14.632,7.513C371.855,222.262,372.044,228.46,369.176,236.034z"/>
	<path style="fill:#7C3E25;" d="M425.249,239.392l-5.023-1.882c3.068-8.192,3.18-14.524,0.343-18.83   c-3.813-5.778-11.827-6.212-11.907-6.216l-3.708-0.172l1.329-3.466c1.497-3.928,1.515-7.328,0.045-10.106   c-2.812-5.331-10.183-7.143-10.26-7.16l-2.955-0.707l1.063-2.851c0.787-2.099,1.455-4.929,0.15-6.492   c-2.127-2.564-8.609-2.081-10.707-1.703l-4.565,0.808l1.567-4.359c1.119-3.099,1.011-5.695-0.325-7.93   c-2.956-4.932-11.452-7.174-14.478-7.622l-2.753-0.406l0.504-2.739c0.822-4.383,0.098-7.979-2.2-10.998   c-5.639-7.391-18.662-8.556-18.791-8.563l0.444-5.352c0.633,0.052,15.545,1.396,22.615,10.665   c2.735,3.586,3.928,7.818,3.557,12.607c4.142,1.004,12.096,3.634,15.699,9.637c1.557,2.595,2.141,5.471,1.749,8.584   c3.624-0.112,8.903,0.448,11.806,3.928c1.934,2.319,2.459,5.387,1.577,9.144c3.183,1.231,8.34,3.904,11.029,8.965   c1.802,3.386,2.208,7.217,1.214,11.417c3.617,0.798,9.298,2.854,12.782,8.133C428.883,221.541,428.953,229.506,425.249,239.392z"/>
	<path style="fill:#091438;" d="M162.272,366.222c0,0,9.039-20.796,25.459-12.799c3.97,1.935,7.69,6.412,10.739,12.135   c9.558,17.962,12.448,48.206-4.703,50.648c-22.615,3.208-14.3-25.623-6.062-28.46l-13.213-2.624l19.008,0.378   c0,0-16.227,17.063-9.877,24.84c6.344,7.783,25.369,2.155,18.527-26.242C190.108,334.138,162.272,366.222,162.272,366.222z"/>
	<path style="fill:#FFC524;" d="M201.319,442.031c0.736,11.39-2.709,20.894-7.697,21.212c-4.986,0.325-9.63-8.654-10.368-20.043   c-0.736-11.404,2.709-20.904,7.699-21.226C195.941,421.652,200.581,430.631,201.319,442.031z"/>
	<g>
		
			<rect x="334.338" y="333.499" transform="matrix(0.2099 -0.9777 0.9777 0.2099 -72.9844 604.0043)" style="fill:#091438;" width="5.743" height="27.319"/>
		
			<rect x="333.474" y="321.994" transform="matrix(0.3827 -0.9239 0.9239 0.3827 -104.6078 519.35)" style="fill:#091438;" width="5.74" height="31.926"/>
		<path style="fill:#FFFFFF;" d="M375.434,358.6c-7.913,14.755-22.244,22.475-32.021,17.228c-9.781-5.24-11.295-21.45-3.39-36.204    c7.912-14.751,22.247-22.468,32.028-17.224C381.832,327.639,383.343,343.849,375.434,358.6z"/>
		<path style="fill:#091438;" d="M338.085,354.564l-5.691-0.728c0.664-5.202,2.427-10.585,5.096-15.566    c8.654-16.13,24.77-24.388,35.918-18.396c6.884,3.687,10.578,12.009,9.875,22.262l-5.723-0.395    c0.542-7.933-2.026-14.216-6.863-16.808c-8.227-4.411-21.114,2.935-28.148,16.049    C340.209,345.353,338.666,350.051,338.085,354.564z"/>
		<path style="fill:#091438;" d="M362.813,354.707c-0.836,9.403-7.136,16.525-14.072,15.913c-6.937-0.612-11.89-8.735-11.054-18.137    c0.832-9.403,7.136-16.535,14.066-15.916C358.692,337.185,363.642,345.304,362.813,354.707z"/>
	</g>
	<g>
		
			<rect x="442.334" y="331.391" transform="matrix(0.9559 -0.2937 0.2937 0.9559 -78.1693 147.8993)" style="fill:#091438;" width="22.202" height="5.741"/>
		
			<rect x="439.508" y="321.797" transform="matrix(0.8756 -0.483 0.483 0.8756 -100.4426 259.2682)" style="fill:#091438;" width="27.392" height="5.736"/>
		<path style="fill:#FFFFFF;" d="M446.391,357.831c-7.906,14.754-22.244,22.464-32.017,17.221    c-9.784-5.24-11.302-21.443-3.39-36.204c7.905-14.751,22.247-22.464,32.031-17.221C452.785,326.863,454.3,343.076,446.391,357.831    z"/>
		<path style="fill:#091438;" d="M409.351,351.859l-5.646-1.056c0.85-4.533,2.445-9.014,4.75-13.313    c4.089-7.626,9.938-13.761,16.482-17.28c6.919-3.722,13.824-4.11,19.431-1.116c6.475,3.474,10.102,10.896,9.959,20.369    l-5.737-0.084c0.109-7.255-2.417-12.803-6.933-15.223c-3.848-2.071-8.826-1.672-14.003,1.109    c-5.559,2.991-10.582,8.294-14.139,14.936C411.488,343.982,410.089,347.903,409.351,351.859z"/>
		<path style="fill:#091438;" d="M431.108,352.72c-0.801,8.994-6.821,15.815-13.46,15.22c-6.636-0.581-11.365-8.354-10.575-17.343    c0.798-8.997,6.825-15.825,13.457-15.234C427.169,335.951,431.906,343.723,431.108,352.72z"/>
	</g>
	
		<rect x="322.868" y="288.943" transform="matrix(0.999 -0.0441 0.0441 0.999 -12.6812 15.9324)" style="fill:#091438;" width="64.46" height="13.414"/>
	
		<rect x="435.98" y="252.791" transform="matrix(0.1945 -0.9809 0.9809 0.1945 80.1372 661.2374)" style="fill:#091438;" width="13.416" height="58.067"/>
	
		<rect x="254.79" y="351.932" transform="matrix(0.2603 -0.9655 0.9655 0.2603 -183.4536 537.09)" style="fill:#FFFFFF;" width="8.047" height="72.694"/>
	
		<rect x="244.473" y="403.986" transform="matrix(0.7978 -0.6029 0.6029 0.7978 -217.5459 239.6462)" style="fill:#FFFFFF;" width="8.049" height="80.319"/>
	<g style="opacity:0.2;">
		<polygon style="fill:#FFFFFF;" points="435.935,416.705 311.966,414.442 435.83,408.796   "/>
		<polygon style="fill:#FFFFFF;" points="324.534,432.852 404.397,442.472 323.978,440.74   "/>
		<polygon style="fill:#FFFFFF;" points="435.484,468.896 295.137,463.453 435.568,460.99   "/>
		<polygon style="fill:#FFFFFF;" points="405.251,494.609 319.508,481.761 406.066,486.743   "/>
	</g>
	<path style="fill:#FFFFFF;" d="M366.049,397.225l-6.898-8.223c1.084-0.899,26.795-21.957,57.983-4.597l-5.219,9.375   C387.093,379.959,366.255,397.05,366.049,397.225z"/>
</g>















</svg>
