<?xml version="1.0" encoding="UTF-8"?>
<!-- Generator: Adobe Illustrator 25.2.3, SVG Export Plug-In . SVG Version: 6.00 Build 0)  -->
<svg xmlns="http://www.w3.org/2000/svg" xmlns:xlink="http://www.w3.org/1999/xlink" version="1.1" id="Capa_1" x="0px" y="0px" viewBox="0 0 512 512" style="enable-background:new 0 0 512 512;" xml:space="preserve" width="512" height="512">
<g>
	<path style="fill:#091438;" d="M138.724,45.349c6.389-12.937,15.762-23.097,28.98-28.959   c58.745-26.023,168.479-31.961,222.329,66.053c18.319,33.326,30.17,78.682,31.331,139.37l5.761,42.621l-48.004,45.696   l-70.761-6.856l-154.131-143.49L138.724,45.349z"/>
	<path style="fill:#FFDC9F;" d="M410.854,308.234c0,0-11.953,190.765-189.457,203.4c-177.503,12.631-336.685-305.712-68.222-253.582   c0,0-48.158-144.707-14.451-212.702c26.429,13.874,95.887,43.587,200.773,40.806c-4.37,46.01-10.435,166.385,48.029,146.905   l-3.156,37.47c0,0,15.618-27.391,36.994-48.718c18.922-18.896,42.37-33.022,63.446-19.074   C529.662,232.426,480.92,326.545,410.854,308.234z"/>
	<path style="opacity:0.1;fill:#FFFFFF;" d="M384.37,270.53l3.156-37.47c-58.465,19.48-52.4-100.895-48.029-146.905   c16.02-0.404,32.87-1.592,50.536-3.712c18.319,33.326,30.17,78.682,31.331,139.37C399.988,243.139,384.37,270.53,384.37,270.53z"/>
	<path style="fill:#091438;" d="M221.855,216.818l7.089,77.902c0,0-43.376-23.586-43.797,0c0,0,43.096,21.898,74.4,6.312   c31.299-15.572-4.498-19.784-6.598-10.937c0,0,12.956-2.884,14.319,1.26c1.359,4.137-31.165,21.051-78.33,2.108   c0,0,6.319-13.062,42.533,4.212C231.471,297.675,231.607,223.979,221.855,216.818z"/>
	<path style="fill:#091438;" d="M169.388,402.347c0,0,0.161,24.705,23.554,35.801c14.514,6.881,37.95,8.522,75.837-4.212   C268.779,433.936,160.544,480.256,169.388,402.347z"/>
	<path style="fill:#FFFFFF;" d="M245.613,253.691c0,0,53.067-30.315,64.851-15.156C322.255,253.691,245.613,253.691,245.613,253.691   z"/>
	<path style="fill:#091438;" d="M296.145,242.629c0,2.025-2.45,3.673-5.472,3.673c-3.029,0-5.475-1.648-5.475-3.673   c0-2.025,2.446-3.673,5.475-3.673C293.696,238.956,296.145,240.604,296.145,242.629z"/>
	<g>
		<path style="fill:#FFFFFF;" d="M213.675,256.748c0,0-45.81-28.627-55.986-14.312C147.507,256.748,213.675,256.748,213.675,256.748    z"/>
		<path style="fill:#091438;" d="M195.482,248.879c0,1.915-2.312,3.47-5.167,3.47c-2.853,0-5.168-1.555-5.168-3.47    c0-1.913,2.316-3.469,5.168-3.469C193.17,245.411,195.482,246.966,195.482,248.879z"/>
	</g>
	
		<rect x="153.751" y="202.949" transform="matrix(0.9806 -0.1961 0.1961 0.9806 -37.3252 39.0318)" style="fill:#091438;" width="49.384" height="10.108"/>
	
		<rect x="272.777" y="166.44" transform="matrix(0.1369 -0.9906 0.9906 0.1369 44.396 445.4731)" style="fill:#091438;" width="10.106" height="61.641"/>
	<g>
		<path style="fill:#FFFFFF;" d="M265.114,325.179c12.931-0.57,25.865-7.724,29.192-20.935c20.6,20.715,26.6,57.84,7.05,81.14    c-2.481,1.333-9.063,5.364-11.982,5.358C289.374,390.743,265.114,325.179,265.114,325.179z"/>
		<path style="fill:#091438;" d="M314.849,350.427c-0.102,5.087-0.812,10.563-2.333,16.387    c-10.637,40.785-42.519,18.453-42.519,18.453s30.202,18.181,39.49-19.011c9.285-37.191-15.071-59.562-15.071-59.562    c-10.347,31.963-51.962,15.83-51.962,15.83s39.927,11.982,51.648-19.872C294.102,302.652,315.452,319.823,314.849,350.427"/>
		<polyline style="fill:#091438;" points="310.379,330.538 291.341,350.699 311.368,334.481 310.803,330.538   "/>
		<path style="fill:#091438;" d="M288.524,306.281c0,0,5.783-3.809,15.23-0.702c0,0-8.6-6.422-15.23-2.927V306.281z"/>
	</g>
	<g style="opacity:0.1;">
		<path style="fill:#FFFFFF;" d="M184.053,31.013c-0.917,1.547-4.447,4.693-7.358,4.602c-1.687-0.053-2.876-1.73-2.52-3.38    c1.455-6.745,14.798-11.536,18.574-4.355c2.268,5.819-4.195,10.886-9.086,12.716c-6.315,2.572-18.109-0.354-15.747-9.098    c2.856-8.821,17.474-14.505,26.867-11.779c3.036,0.881,5.488,3.091,6.502,6.085c4.375,12.917-20.553,26.027-31.433,23.111    c11.399,1.358,27.347-5.662,30.83-17.784c0.802-2.79,0.376-5.883-1.51-8.09c-5.755-6.737-20.272-1.902-26.474,3.029    c-9.744,8.84,0.663,16.995,10.512,13.214c16.597-7.005,5.139-20.679-6.246-8.548c-1.208,1.485-1.367,2.777-0.331,2.918    c2.435,0.108,4.919-2.587,5.779-3.836L184.053,31.013z"/>
		<path style="fill:#FFFFFF;" d="M280.28,57.013c-1.005,1.522-4.173,4.572-7.14,4.587c-1.255,0.006-2.435-0.806-2.854-1.99    c-1.257-3.547,4.738-7.376,9.153-8.85c0.887-0.296,1.807-0.496,2.741-0.539c7.209-0.327,9.55,7.56,3.809,12.95    c-9.728,9.269-29.317,1.951-19.673-9.815c1.176-1.435,2.612-2.637,4.196-3.602c7.604-4.632,20.989-7.747,25.921-0.39    c1.517,2.263,1.767,5.133,1.009,7.75c-3.571,12.333-19.787,19.31-31.364,17.801c11.406,1.357,27.133-5.724,30.573-17.865    c0.789-2.784,0.368-5.862-1.504-8.069c-5.23-6.168-17.725-2.569-24.538,1.879c-1.381,0.902-2.634,2.005-3.555,3.373    c-1.897,2.819-2.619,6.498-0.232,9.2c5.602,6.343,23.298-0.702,20.766-8.065c-0.656-1.909-2.493-3.229-4.508-3.359    c-4.738-0.306-12.033,4.502-10.906,7.458c0.103,0.234,0.461,0.272,0.786,0.296c2.436,0.108,4.816-2.697,5.671-3.945L280.28,57.013    z"/>
		<path style="fill:#FFFFFF;" d="M271.9,18.69c-0.995,1.508-4.109,4.508-7.049,4.583c-1.198,0.031-2.361-0.66-2.85-1.754    c-1.768-3.952,6.304-8.897,10.294-9.445c8.37-1.566,11.832,7.528,5.137,12.591c-15.773,13.666-33.762-6.24-11.203-15.315    c40.321-13.983,21.192,31.66-8.526,27.238c11.397,1.356,26.676-6.111,30.156-18.234c0.801-2.791,1.046-5.435-0.841-7.642    c-5.758-6.734-20.269-1.899-26.472,3.033c-2.027,1.611-3.692,4.491-3.91,7.076c-0.23,2.729,1.74,5.098,4.115,6.19    c1.723,0.792,3.724,0.915,5.589,0.753c3.903-0.34,8.078-1.952,10.893-4.737c1.121-1.109,2.087-2.528,2.215-4.142    c0.116-1.464-0.666-3.607-1.992-4.4c-4.584-2.741-13.495,1.76-13.493,6.505c0.04,0.339,0.368,0.322,0.519,0.335    c2.443,0.113,4.91-2.589,5.783-3.832L271.9,18.69z"/>
		<path style="fill:#FFFFFF;" d="M345.89,57.013c-1.199,1.797-5.375,5.735-8.752,4.261c-3.707-2.465,1.374-7.168,4.025-8.946    c8.568-6.027,19.462,1.813,10.588,10.896c-10.829,10.59-31.759,1.073-17.909-11.905c6.844-5.387,22.719-10.119,28.193-1.958    c1.518,2.263,1.769,5.133,1.011,7.751c-3.569,12.334-19.784,19.313-31.361,17.803c11.399,1.356,27.345-5.667,30.828-17.788    c0.802-2.79,0.375-5.882-1.511-8.089c-5.757-6.735-20.275-1.902-26.474,3.033c-3.102,2.798-5.132,8.139-2.034,11.653    c6.26,7.079,27.51-2.821,18.94-10.92c-4.589-2.734-13.65,1.836-13.658,6.579c0.021,0.236,0.552,0.499,0.906,0.519    c2.44,0.109,4.702-2.84,5.56-4.084L345.89,57.013z"/>
		<path style="fill:#FFFFFF;" d="M313.398,36.502c1.596-1.179,6.833-2.897,9.292-0.95c0.98,0.776,1.155,2.216,0.513,3.289    c-2.837,4.738-12.379,5.438-16.797,1.489c-2.33-2.082-2.504-5.662-0.663-8.188c5.077-6.968,20.018-5.259,23.703,2.862    c3.679,14.975-22.347,15.278-31.151,7.13c-1.604-1.485-2.501-3.552-2.65-5.732c-1.072-15.642,27.959-17.93,37.787-10.902    c-9.982-5.661-27.168-5.384-35.039,4.434c-1.817,2.266-2.624,5.279-1.759,8.051c2.636,8.443,17.691,9.622,25.324,7.475    c12.403-4.372,5.98-15.927-4.572-16.252c-11.581-0.873-15.909,10.636-5.613,11.913c2.451,0.304,4.961-0.039,7.222-1.032    c1.573-0.691,2.965-1.633,2.752-2.618c-0.049-0.197-0.312-0.41-0.485-0.525c-2.206-1.045-5.535,0.481-6.813,1.296L313.398,36.502z    "/>
		<path style="fill:#FFFFFF;" d="M233.995,56.238c8.777-6.241,8.359,5.289-1.411,4.167c-7.736-1.92-3.468-10.206,3.062-10.723    c6.819-0.406,12.055,8.328,5.062,12.352c-6.029,3.182-17.823,1.974-17.615-6.621c0.597-8.768,14.542-12.249,21.754-8.444    c-7.381-4.804-24.911,2.134-20.628,11.503c0.773,1.691,2.182,3.055,3.923,3.707c6.359,2.379,17.646,0.05,14.648-7.931    c-2.8-4.762-10.97-4.527-13.177,0.447c-1.384,5.603,7.152,5.772,9.256,2.305c0.338-0.557-0.046-1.307-0.696-1.352    c-1.194-0.081-2.854,1.057-3.282,1.548L233.995,56.238z"/>
		<path style="fill:#FFFFFF;" d="M202.611,56.236c0.672-0.793,2.862-2.011,4.535-1.804c1.354,0.168,1.895,1.655,1.404,2.89    c-2.976,7.483-17.943,0.708-8.452-6.089c4.836-3.628,14.746,0.519,12.289,7.266c-2.842,5.82-11.971,6.66-17.329,3.334    c-1.873-1.163-3.144-3.114-3.323-5.312c-0.744-9.141,14.717-13.829,21.731-9.552c-7.166-4.666-23.9,1.741-20.944,10.694    c0.751,2.274,2.634,4.046,4.923,4.748c6.447,1.978,16.864-0.465,13.964-8.166c-2.803-4.76-10.974-4.521-13.179,0.452    c-1.375,5.567,7.048,5.767,9.217,2.366c0.369-0.579-0.048-1.402-0.735-1.418c-1.189-0.027-2.79,1.075-3.207,1.553L202.611,56.236z    "/>
		<path style="fill:#FFFFFF;" d="M242.475,14.609c0.851-1.002,4.133-2.686,5.722-1.301c0.557,0.486,0.682,1.307,0.4,1.99    c-3.236,7.837-18.301,1.237-8.631-5.688c3.823-2.498,9.516-1.459,11.985,2.622c3.758,9.679-11.601,12.039-17.586,7.655    c-0.232-0.17-0.441-0.379-0.622-0.603c-8.544-10.606,11.395-19.397,19.592-13.94c-7.572-4.926-25.824,2.501-20.251,12.234    c0.668,1.167,1.662,2.148,2.886,2.704c6.195,2.812,18.41,0.601,15.308-7.66c-2.8-4.763-10.974-4.52-13.177,0.452    c-1.398,5.643,7.268,5.764,9.294,2.231c0.274-0.478,0.028-1.13-0.51-1.248c-1.201-0.264-3.058,0.997-3.514,1.517L242.475,14.609z"/>
		<path style="fill:#FFFFFF;" d="M218.261,36.19c8.838-6.233,8.299,5.313-1.406,4.173c-7.184-1.78-3.825-9.193,1.75-10.365    c0.829-0.174,1.695-0.146,2.534-0.031c12.838,1.759,6.489,16.364-5.306,13.75c-20.382-3.967,1.775-23.768,13.282-16.793    c-7.998-5.202-25.82,6.164-18.664,13.606c5.209,4.239,19.924,2.315,16.608-6.326c-2.609-4.434-9.873-4.534-12.641-0.51    c-0.402,0.584-0.666,1.272-0.69,1.98c-0.14,4.134,6.284,4.563,8.65,2.067c3.419-3.145-2.435-2.111-3.226-0.587L218.261,36.19z"/>
		<path style="fill:#FFFFFF;" d="M311.651,71.148c2.246-3.057,9.286-1.939,4.992,2.602c-3.252,3.362-12.189,1.587-10.316-4.482    c2.618-5.743,11.607-5.93,14.803-0.495c3.238,8.363-7.943,11.439-14.906,9.295c-2.404-0.74-4.394-2.578-5.205-4.958    c-3.144-9.232,14.073-16.172,21.492-11.227c-7.166-4.664-23.899,1.737-20.946,10.69c0.75,2.274,2.633,4.048,4.922,4.751    c6.445,1.98,16.864-0.466,13.966-8.164c-2.798-4.762-10.968-4.52-13.179,0.449c-1.387,5.642,7.257,5.77,9.295,2.239    c0.277-0.479,0.03-1.136-0.51-1.254c-1.202-0.263-3.054,0.996-3.514,1.517L311.651,71.148z"/>
		<path style="fill:#FFFFFF;" d="M253.288,45.1c0.804-0.956,3.789-2.512,5.454-1.497c0.746,0.454,0.984,1.439,0.642,2.243    c-3.295,7.744-18.248,1.161-8.613-5.747c3.827-2.496,9.515-1.464,11.989,2.62c3.475,8.953-9.41,11.649-16.098,8.527    c-1.24-0.664-2.363-1.643-3.085-2.879c-5.817-9.953,12.732-17.749,20.563-12.535c-7.164-4.663-23.906,1.749-20.943,10.697    c0.753,2.273,2.637,4.045,4.926,4.747c6.446,1.978,16.86-0.472,13.96-8.171c-2.803-4.759-10.976-4.513-13.176,0.458    c-1.385,5.624,7.215,5.764,9.278,2.265c0.291-0.493,0.031-1.186-0.531-1.292c-1.203-0.228-3.025,1.008-3.473,1.527L253.288,45.1z"/>
		<path style="fill:#FFFFFF;" d="M208.967,12.904c4.474,1.231-0.016,5.03-2.694,2.67c-3.21-3.465,4.046-6.871,7.051-5.464    c5.778,3.31-2.643,8.748-7.779,8.809c-4.204-0.076-4.101-5.743-2.024-7.911c5.262-6.406,21.003-4.782,14.597,4.576    c6.884-10.514-13.819-10.635-15.199-1.696c-0.901,5.311,5.502,4.627,8.359,2.644c8.908-5.655-2.797-8.646-4.832-3.058    c-0.25,0.687,0.06,1.502,0.741,1.771c1.671,0.66,4.482-0.546,1.561-1.481L208.967,12.904z"/>
		<path style="fill:#FFFFFF;" d="M240.346,31.028c4.477,1.225,0.158,4.703-2.694,2.668c-3.277-3.115,4.043-6.87,7.05-5.462    c1.241,0.71,2.122,1.892,1.676,3.361c-0.438,1.444-1.721,2.577-2.92,3.405c-2.647,1.828-8.974,3.415-9.832-1.285    c-0.308-1.687,0.239-3.197,1.21-4.59c4.416-6.337,21.067-4.778,14.664,4.582c5.661-7.787-6.658-10.496-11.967-6.135    c-7.066,4.786-1.844,11.607,5.13,7.082c2.063-1.137,4.71-4.196,1.849-5.805c-4.073-2.029-11.084,5.362-3.657,4.534    c1.274-0.653-0.062-1.416-0.724-1.496L240.346,31.028z"/>
		<path style="fill:#FFFFFF;" d="M223.011,18.404c4.475,1.228-0.007,5.037-2.688,2.672c-3.184-3.338,4.058-6.922,7.042-5.468    c5.792,3.304-3.351,8.876-7.737,8.526c-4.001-0.553-3.909-5.215-1.992-7.668c4.409-6.341,20.949-4.735,14.527,4.617    c6.894-10.512-13.811-10.633-15.201-1.694c-1.082,5.095,5.508,4.625,8.367,2.642c8.907-5.661-2.81-8.644-4.837-3.056    c-0.249,0.688,0.062,1.502,0.742,1.77c1.671,0.66,4.484-0.545,1.562-1.482L223.011,18.404z"/>
		<path style="fill:#FFFFFF;" d="M248.833,68.989c4.476,1.227-0.021,5.036-2.694,2.669c-2.9-3.215,4.049-6.874,7.053-5.463    c3.94,1.36,0.693,5.494-1.633,6.88c-7.529,4.638-13.227-2.631-5.779-7.941c5.685-4.158,18.231-1.715,12.203,6.534    c6.892-10.514-13.809-10.631-15.201-1.701c-0.691,4.799,5.503,4.631,8.363,2.651c8.837-5.624-2.633-8.609-4.792-3.169    c-0.317,0.799,0.138,1.748,0.969,1.968c1.678,0.445,4.057-0.681,1.295-1.569L248.833,68.989z"/>
		<path style="fill:#FFFFFF;" d="M364.788,74.491c4.482,1.218-0.01,5.035-2.686,2.669c-2.942-3.123,4.044-6.874,7.042-5.468    c5.791,3.299-3.089,8.847-7.738,8.354c-5.373-0.664-3.513-7.298,0.165-9.53c6.696-3.823,18.186-1.302,12.371,6.651    c6.89-10.514-13.813-10.626-15.197-1.692c-1.076,5.096,5.224,4.444,8.282,2.585c8.851-5.628-2.606-8.562-4.723-3.087    c-0.306,0.791,0.143,1.718,0.961,1.942c1.681,0.46,4.092-0.677,1.312-1.563L364.788,74.491z"/>
		<path style="fill:#FFFFFF;" d="M339.744,39.985c4.469,1.243-0.03,5.035-2.7,2.668c-3.205-3.465,4.19-7.068,7.191-5.663    c5.777,3.313-3.595,9.185-7.869,8.637c-5.217-0.657-3.529-7.014,0.219-9.601c6.379-4.143,18.134-1.188,12.311,6.64    c6.879-10.52-13.811-10.63-15.205-1.694c-1,7.414,11.32,3.409,11.681-1.518c-0.727-4.696-11.998,0.271-7.114,2.937    c1.701,0.797,3.88-1.022,1.268-1.545L339.744,39.985z"/>
		<path style="fill:#FFFFFF;" d="M155.708,39.153c4.798,1.36-0.928,5.42-3.14,2.232c-2.04-3.96,6.151-7.094,8.694-4.292    c0.753,0.83,0.742,2.061,0.24,3.063c-2.388,4.767-13.187,7.203-12.199-0.079c1.298-9.312,22.55-8.712,15.558,1.753    c7.176-11.306-16.521-10.212-15.225-0.371c0.144,1.095,0.859,2.072,1.896,2.453c3.242,1.192,8.163-1.203,9.508-4.286    c0.326-0.746,0.276-1.642-0.316-2.202c-2.278-2.155-9.539,0.867-7.245,3.753c0.926,1.118,4.699,0.291,2.625-0.974    c-0.361-0.186-0.562-0.254-0.562-0.254S155.653,39.476,155.708,39.153z"/>
		<path style="fill:#FFFFFF;" d="M298.712,18.404c4.895,1.516-0.87,5.319-3.146,2.233c-1.944-3.384,4.543-6.425,7.724-4.981    c1.361,0.618,1.847,2.292,1.185,3.631c-1.731,3.498-7.259,5.896-10.707,4.097c-0.891-0.465-1.462-1.384-1.607-2.379    c-1.497-10.202,23.578-12.452,15.701,0.079c6.411-11.11-13.809-10.627-15.201-1.692c-1.083,5.093,5.508,4.625,8.363,2.638    c8.846-5.617-2.644-8.603-4.793-3.167c-0.317,0.801,0.141,1.752,0.974,1.973c1.68,0.445,4.054-0.689,1.288-1.572L298.712,18.404z"/>
	</g>
	<g>
		<path style="fill:#EA4A0C;" d="M181.624,278.541c-21.904,0-39.723-11.943-39.723-26.622c0-14.684,17.819-26.631,39.723-26.631    c21.907,0,39.73,11.946,39.73,26.631C221.353,266.598,203.531,278.541,181.624,278.541z M181.624,230.34    c-19.118,0-34.671,9.68-34.671,21.579c0,11.894,15.552,21.566,34.671,21.566c19.12,0,34.678-9.673,34.678-21.566    C216.302,240.02,200.744,230.34,181.624,230.34z"/>
		<path style="fill:#EA4A0C;" d="M280.213,278.541c-27.352,0-48.776-12.3-48.776-28.004c0-15.706,21.423-28.007,48.776-28.007    c27.356,0,48.781,12.301,48.781,28.007C328.995,266.241,307.57,278.541,280.213,278.541z M280.213,227.581    c-23.698,0-43.724,10.511-43.724,22.955c0,12.439,20.026,22.948,43.724,22.948c23.702,0,43.726-10.51,43.726-22.948    C323.939,238.092,303.916,227.581,280.213,227.581z"/>
		
			<rect x="174.844" y="223.908" transform="matrix(0.9997 -0.0262 0.0262 0.9997 -5.8629 6.0481)" style="fill:#EA4A0C;" width="105.389" height="5.054"/>
		
			<rect x="223.932" y="244.499" transform="matrix(0.0282 -0.9996 0.9996 0.0282 -31.9616 471.3906)" style="fill:#EA4A0C;" width="5.052" height="15.268"/>
		<rect x="326.146" y="242.535" style="fill:#EA4A0C;" width="71.068" height="10.107"/>
	</g>
	<path style="fill:#091438;" d="M476.034,250.383c0,0-7.174-21.944-27.497-17.113c-20.324,4.837-42.741,52.97-17.002,60.203   c25.725,7.234,20.663-22.421,11.554-26.681l15.759-0.166l-22.114-3.078c0,0,16.105,19.596,7.491,26.05   c-8.593,6.439-29.778-2.499-17.319-28.984C448.858,214.011,476.034,250.383,476.034,250.383z"/>
</g>















</svg>
