<?xml version="1.0" encoding="UTF-8"?>
<!-- Generator: Adobe Illustrator 25.2.3, SVG Export Plug-In . SVG Version: 6.00 Build 0)  -->
<svg xmlns="http://www.w3.org/2000/svg" xmlns:xlink="http://www.w3.org/1999/xlink" version="1.1" id="Capa_1" x="0px" y="0px" viewBox="0 0 512 512" style="enable-background:new 0 0 512 512;" xml:space="preserve" width="512" height="512">
<g>
	<path style="fill:#FF6C7E;" d="M453.76,262.598c54.592-93.32,9.684-118.405-18.152-125.139   C445.056,70.834,416.316-2.188,243.299,0.05C-47.217,3.827,26.383,423.554,26.383,423.554l21.379-33.432   C55.562,482.437,127.093,512,127.093,512c-18.697-23.837-29.695-65.076-31.866-111.579l119.328-46.803l163.026-48.201   L453.76,262.598z"/>
	<path style="fill:#FFDC9F;" d="M487.976,293.792c-23.884,40.026-98.777,29.699-98.777,29.699   c-16.554,22.455-35.646,41.456-54.921,57.31l-136.152,46.788c0,0-102.395-83.643-97.335-112.124   c10.113-56.925,33.336-111.197,71.494-143.036c89.736-74.892,174.953-25.182,174.953-25.182   c-43.899,87.798,20.659,135.574,20.659,135.574c23.577-14.022,58.958-21.277,85.864-20.223   C481.392,263.685,500.059,273.519,487.976,293.792z"/>
	<path style="fill:#091438;" d="M334.271,380.793c-56.626,46.588-114.862,66.006-114.862,66.006L95.227,400.421   c-1.264-27.321,0.515-56.479,5.552-84.959l202.56,6.068L334.271,380.793z"/>
	<g style="opacity:0.2;">
		<path style="fill:#FFFFFF;" d="M369.935,152.482c-25.688,30.1-13.157,75.208,8.94,103.522    c-26.863-28.628-41.961-75.614-16.893-110.116L369.935,152.482z"/>
		<path style="fill:#FFFFFF;" d="M380.963,175.075c-12.63,28.669,12.701,57.793,34.065,74.174    c-26.19-15.247-55.091-45.83-43.406-78.579L380.963,175.075z"/>
		<path style="fill:#FFFFFF;" d="M347.238,110.657c0,0-232.409-14.862-263.4,163.224C83.837,273.88,81.255,92.133,347.238,110.657z"/>
		<path style="fill:#FFFFFF;" d="M188.423,20.069c0,0-151.067,25.872-158.813,276.662C29.611,296.731,35.423,88.496,188.423,20.069z    "/>
		<path style="fill:#FFFFFF;" d="M87.068,176.294c0,0-63.916,116.857-13.56,248.555C73.508,424.849,40.584,315.738,87.068,176.294z"/>
	</g>
	<g>
		
			<rect x="264.758" y="280.962" transform="matrix(0.8293 -0.5588 0.5588 0.8293 -110.5823 203.1622)" style="fill:#091438;" width="24.994" height="3.251"/>
		
			<rect x="261.869" y="277.527" transform="matrix(0.7266 -0.687 0.687 0.7266 -117.3755 263.3279)" style="fill:#091438;" width="20.652" height="3.248"/>
		<path style="fill:#FFFFFF;" d="M207.281,304.791c0,0,54.819,13.067,71.354-21.152    C278.635,283.639,233.368,271.703,207.281,304.791z"/>
		<path style="fill:#091438;" d="M208.556,305.796l-2.55-2.01c26.443-33.539,72.575-21.839,73.044-21.717l-0.829,3.14    C277.781,285.102,233.665,273.952,208.556,305.796z"/>
		<path style="fill:#091438;" d="M240.143,293.581c0.876,5.636,5.759,9.884,10.907,9.483c5.146-0.404,8.604-5.292,7.732-10.928    c-0.873-5.629-5.759-9.888-10.907-9.484C242.729,283.046,239.269,287.941,240.143,293.581z"/>
	</g>
	<g>
		
			<rect x="110.426" y="268.398" transform="matrix(0.7227 -0.6912 0.6912 0.7227 -163.4043 155.2991)" style="fill:#091438;" width="2.805" height="25.765"/>
		
			<rect x="116.15" y="270.54" transform="matrix(0.785 -0.6195 0.6195 0.785 -148.7994 133.242)" style="fill:#091438;" width="2.803" height="20.887"/>
		<path style="fill:#FFFFFF;" d="M177.35,304.058c0,0-45.7,10.002-64.522-19.997C112.828,284.061,150.421,274.81,177.35,304.058z"/>
		<path style="fill:#091438;" d="M176.318,305.006c-26.026-28.265-62.789-19.679-63.156-19.582l-0.669-2.725    c0.381-0.093,38.71-9.108,65.888,20.412L176.318,305.006z"/>
		<path style="fill:#091438;" d="M162.579,297.461c-0.014,4.116-3.118,7.13-6.934,6.73c-3.816-0.386-6.901-4.051-6.883-8.16    c0.011-4.112,3.111-7.13,6.927-6.733C159.506,289.697,162.592,293.348,162.579,297.461z"/>
	</g>
	<polygon style="fill:#091438;" points="93.135,249.774 167.123,236.332 96.525,262.233  "/>
	<polygon style="fill:#091438;" points="206.368,216.028 292.689,242.969 203.41,228.594  "/>
	<path style="fill:#091438;" d="M463.991,284.358c0,0-10.689-16.51-34.258-12.809c-5.696,0.887-11.282,3.69-16.038,7.495   c-14.923,11.951-21.685,33.826,1.945,37.905c31.172,5.371,22.218-16.957,11.014-20.144l18.624-0.168l-26.481-2.257   c0,0,21.027,14.719,11.486,19.604c-9.53,4.881-35.485-1.792-23.387-21.782C428.174,257.034,463.991,284.358,463.991,284.358z"/>
	<path style="fill:#FFC524;" d="M463.991,317.036c0,3.747-3.233,6.776-7.213,6.776c-3.987,0-7.216-3.029-7.216-6.776   c0-3.741,3.229-6.78,7.216-6.78C460.759,310.255,463.991,313.295,463.991,317.036z"/>
	<polygon style="fill:#FFC524;" points="479.522,311.546 467.317,303.093 474.741,294.389 485.719,302.971  "/>
	<polygon style="fill:#FFC524;" points="479.522,281.54 493.94,271.005 493.94,290.566  "/>
	
		<rect x="280.826" y="304.556" transform="matrix(0.8555 -0.5177 0.5177 0.8555 -111.6706 214.0673)" style="fill:#091438;" width="93.863" height="5.166"/>
	
		<rect x="297.928" y="347.917" transform="matrix(0.839 -0.5441 0.5441 0.839 -134.7598 245.5432)" style="fill:#091438;" width="99.264" height="5.166"/>
	<g style="opacity:0.2;">
		<polygon style="fill:#FFFFFF;" points="257.401,347.858 138.464,337.991 257.787,340.255   "/>
		<polygon style="fill:#FFFFFF;" points="149.395,356.45 225.498,370.647 148.368,363.989   "/>
		<polygon style="fill:#FFFFFF;" points="253.719,397.961 119.251,384.007 254.292,390.373   "/>
		<polygon style="fill:#FFFFFF;" points="223.087,420.78 141.526,403.114 224.357,413.277   "/>
	</g>
	<path style="fill:#FFFFFF;" d="M166.416,327.678l-6.111-8.325c1.09-0.801,27.103-19.429,55.981-0.812l-5.596,8.683   C187.717,312.412,166.626,327.524,166.416,327.678z"/>
</g>















</svg>
