<?xml version="1.0" encoding="UTF-8"?>
<!-- Generator: Adobe Illustrator 25.2.3, SVG Export Plug-In . SVG Version: 6.00 Build 0)  -->
<svg xmlns="http://www.w3.org/2000/svg" xmlns:xlink="http://www.w3.org/1999/xlink" version="1.1" id="Capa_1" x="0px" y="0px" viewBox="0 0 512 512" style="enable-background:new 0 0 512 512;" xml:space="preserve" width="512" height="512">
<g>
	<path style="fill:#091438;" d="M153.425,289.818l-54.351-89.099C120.294,86.151,289.885,0,289.885,0s3.659,10.719,7.2,25.984   l56.867,54.076L323.14,206.819l-78.104,121.118l-42.65-3.627l-54.81,14.565l-6.085-14.996L153.425,289.818z"/>
	<path style="fill:#A85E43;" d="M452.279,447.474C262.387,582.8,164.035,463.25,164.035,463.25l32.048-119.084   c0,0-85.722,36.541-126.32-4.058c-36.562-36.565,34.862-60.682,83.662-50.289c5.383,1.161,10.475,2.733,15.128,4.735l-0.46,28.417   l40.598-9.933l-17.593-32.475c0,0,43.303-31.56,9.473-87.045c-33.832-55.481,1.354-62.711,66.771-64.956   c46.359-1.623,38.325-65.47,29.742-102.577C463.053-5.25,357.875,242.183,400.86,294.097   C446.432,349.146,452.279,447.474,452.279,447.474z"/>
	<path style="fill:#FFFFFF;" d="M300.837,292.522l-53.118,16.243c0,0-13.193-41.956,18.944-50.749   C298.806,249.22,300.837,292.522,300.837,292.522z"/>
	<path style="fill:#FFFFFF;" d="M358.801,274.544l-50.539,15.449c0,0-12.555-39.918,18.021-48.284   C356.87,233.337,358.801,274.544,358.801,274.544z"/>
	
		<rect x="228.531" y="220.291" transform="matrix(0.849 -0.5283 0.5283 0.849 -81.9532 175.4208)" style="fill:#091438;" width="74.914" height="21.653"/>
	
		<rect x="350.063" y="148.944" transform="matrix(0.1177 -0.993 0.993 0.1177 127.699 527.8165)" style="fill:#091438;" width="21.654" height="86.196"/>
	<path style="fill:#FFFFFF;" d="M310.817,372.536l-36.198,57.005c-19.727,2.958-54.02,2.625-52.946-25.209   c0.435-12.386,8.263-27.134,16.407-36.196c-0.001,0,19.284-18.435,19.284-18.435L310.817,372.536z"/>
	<path style="fill:#091438;" d="M269.035,338.875c0,0-57.857,37.891-48.041,75.108c9.809,37.214,93.033,6.762,93.033,6.762   l-16.578,41.614c0,0,60.465-17.59,43.937,41.115c0,0,26.707-53.631-35.678-46.865l14.073-41.61c0,0-82.882,33.829-94.728-1.699   c-11.839-35.518,47.884-72.393,47.884-72.393l-3.396-2.031"/>
	<path style="fill:#091438;" d="M381.015,338.889l-19.62-1.543l12.858,24.409c-28.556,19.571-52.017,24.63-70.804,22.382   c-24.765-2.922-41.332-18.538-50.475-30.23c-5.822-7.468-8.636-13.343-8.636-13.343c18.132-14.401,50.368-15.559,68.421-14.91   c1.436-6.281,6.467-12.616,22.841-2.708c-1.162-0.484-17.184-6.872-19.945,2.811c-0.406,1.411-0.517,3.175-0.271,5.334   l43.545,1.628l20.736,0.759c0,0,7.988-20.928,4.062-25.065c-3.93-4.115-22.332-4.054-22.332-4.054s10.475-65.887,5.547-102.096   c3.627,19.916,9.666,64.441-0.488,100.736c0,0,19.652,0.352,21.655,5.088C390.164,312.823,381.015,338.889,381.015,338.889z"/>
	
		<rect x="243.993" y="402.141" transform="matrix(0.4899 -0.8718 0.8718 0.4899 -211.0695 446.2714)" style="fill:#091438;" width="63.615" height="2.703"/>
	
		<rect x="218.687" y="395.288" transform="matrix(0.6468 -0.7626 0.7626 0.6468 -211.1225 337.3981)" style="fill:#091438;" width="80.057" height="2.705"/>
	
		<rect x="212.728" y="380.572" transform="matrix(0.7455 -0.6665 0.6665 0.7455 -191.4621 262.403)" style="fill:#091438;" width="70.324" height="2.705"/>
	<path style="fill:#091438;" d="M279.418,396.664c-30.932,0-42.946-26.65-43.089-26.971l2.483-1.083   c0.641,1.461,16.093,35.557,59.082,22.364l0.795,2.583C291.581,395.744,285.171,396.664,279.418,396.664z"/>
	<path style="fill:#091438;" d="M268.017,284.951c0,4.689-3.025,8.497-6.766,8.497c-3.734,0-6.762-3.809-6.762-8.497   c0-4.692,3.028-8.494,6.762-8.494C264.992,276.458,268.017,280.259,268.017,284.951z"/>
	<path style="fill:#091438;" d="M323.14,270.069c0,4.689-3.025,8.494-6.766,8.494c-3.738,0-6.763-3.805-6.763-8.494   c0-4.699,3.025-8.501,6.763-8.501C320.116,261.569,323.14,265.37,323.14,270.069z"/>
	<path style="fill:#091438;" d="M84.192,320.922c0,0,12.783-11.494,37.371-7.297c24.59,4.197,44.261,32.315,10.817,34.324   c-33.433,2.006-21.961-13.878-9.83-15.516l-19.674-1.29h28.196c0,0-23.547,9.513-13.906,13.71   c9.637,4.197,37.684,0.898,26.693-14.579C124.513,303.036,84.192,320.922,84.192,320.922z"/>
	<g style="opacity:0.1;">
		<path style="fill:#FFFFFF;" d="M282.831,19.654c14.085,32.186,24.207,93.521-22.282,103.895    c44.045-12.673,30.534-70.517,14.932-100.454L282.831,19.654z"/>
		<path style="fill:#FFFFFF;" d="M277.921,42.073c28.944,59.921-34.05,80.072-81.981,81.477    c41.669-3.736,105.067-23.876,75.033-77.271L277.921,42.073z"/>
		<path style="fill:#FFFFFF;" d="M264.186,29.548c13.295,29.241,10.635,70.556-28,78.436c35.582-10.402,35.699-48.055,20.728-74.83    L264.186,29.548z"/>
	</g>
</g>















</svg>
