<?xml version="1.0" encoding="UTF-8"?>
<!-- Generator: Adobe Illustrator 25.2.3, SVG Export Plug-In . SVG Version: 6.00 Build 0)  -->
<svg xmlns="http://www.w3.org/2000/svg" xmlns:xlink="http://www.w3.org/1999/xlink" version="1.1" id="Capa_1" x="0px" y="0px" viewBox="0 0 512 512" style="enable-background:new 0 0 512 512;" xml:space="preserve" width="512" height="512">
<g>
	<g>
		<path style="fill:#091438;" d="M460.911,378.36l28.43,29.985C187.28,630.164,105.41,426.96,105.41,426.96L126.6,324.505    l-28.083-79.422C27.292,50.274,168.917-9.769,317.217,1.254c37.933,2.824,62.076,22.303,76.914,50.259l-33.847,272.055    L460.911,378.36z"/>
		<g style="opacity:0.1;">
			<polygon style="fill:#FFFFFF;" points="122.972,442.13 156.244,403.588 130.738,447.655    "/>
			<polygon style="fill:#FFFFFF;" points="137.559,460.151 161.801,431.782 145.536,465.363    "/>
			<polygon style="fill:#FFFFFF;" points="157.475,472.277 176.495,442.504 166.126,476.274    "/>
			<polygon style="fill:#FFFFFF;" points="197.218,495.68 211.044,444.892 206.603,497.343    "/>
			<polygon style="fill:#FFFFFF;" points="247.979,505.823 251.154,462.755 257.502,505.468    "/>
			<polygon style="fill:#FFFFFF;" points="274.233,497.184 272.998,454.815 283.67,495.838    "/>
			<polygon style="fill:#FFFFFF;" points="306.077,497.59 299.601,448.581 315.362,495.433    "/>
			<polygon style="fill:#FFFFFF;" points="335.574,485.672 330.576,454.815 344.638,482.728    "/>
			<polygon style="fill:#FFFFFF;" points="366.365,474.561 354.845,438.565 375.004,470.533    "/>
			<polygon style="fill:#FFFFFF;" points="386.678,460.525 381.01,438.565 395.199,456.258    "/>
			<polygon style="fill:#FFFFFF;" points="412.105,450.637 404.043,424.24 420.6,446.32    "/>
			<polygon style="fill:#FFFFFF;" points="436.619,434.954 424.296,413.912 443.741,428.619    "/>
			<polygon style="fill:#FFFFFF;" points="457.632,423.326 443.754,403.588 464.19,416.416    "/>
		</g>
	</g>
	<g>
		<path style="fill:#7C3E25;" d="M460.911,378.36c-190.266,143.821-309.974,9.402-309.974,9.402l10.608-153.543    c0,0-69.891-23.287-37.074-122.852C150.713,31.783,325.223,43.6,394.132,51.513c46.476,87.524,1.429,257.903,1.429,257.903    L460.911,378.36z"/>
		<path style="fill:#091438;" d="M344.955,329.528c0,0-35.743,18.796-82.073,0.795c0,0-12.442-20.123,30.182-10.058    c0,0-10.595-91.602-20.919-99.283l18.268,97.69c0,0-42.888-13.499-30.18,11.914c0,0,42.093,24.622,88.158,0    c0,0,0.004-25.941-32.826-12.442c0,0,15.617-35.212,9.531-116.752c0,0-2.38,96.633-13.235,120.989    C311.863,322.38,341.776,308.614,344.955,329.528z"/>
		<g>
			<path style="fill:#7C3E25;" d="M272.998,368.182c0,11.547-18.137,20.907-40.508,20.907c-22.373,0-40.506-9.359-40.506-20.907     c0-11.555,18.133-20.918,40.506-20.918C254.861,347.264,272.998,356.628,272.998,368.182z"/>
			<path style="opacity:0.2;fill:#FFFFFF;" d="M272.998,368.182c0,11.547-18.137,20.907-40.508,20.907     c-22.373,0-40.506-9.359-40.506-20.907c0-11.555,18.133-20.918,40.506-20.918C254.861,347.264,272.998,356.628,272.998,368.182z"/>
			<path style="fill:#091438;" d="M191.985,337.735c0,0,4.502,45.271,91.337,33.885C283.322,371.62,196.223,394.919,191.985,337.735     z"/>
		</g>
		
			<rect x="210.754" y="213.969" transform="matrix(0.962 -0.2731 0.2731 0.962 -51.0767 73.7471)" style="fill:#091438;" width="57.161" height="12.706"/>
		
			<rect x="353.931" y="169.387" transform="matrix(0.1854 -0.9827 0.9827 0.1854 95.4725 518.2124)" style="fill:#091438;" width="12.708" height="64.273"/>
		<g>
			<path style="fill:#FFFFFF;" d="M276.305,258.845c0,8.916-12.192,16.142-27.228,16.142c-15.039,0-27.23-7.226-27.23-16.142     c0-8.924,12.191-16.153,27.23-16.153C264.113,242.691,276.305,249.921,276.305,258.845z"/>
			<path style="fill:#091438;" d="M247.182,260.921c0,5.089-3.731,9.221-8.341,9.221c-4.607,0-8.337-4.132-8.337-9.221     c0-5.096,3.731-9.232,8.337-9.232C243.451,251.688,247.182,255.824,247.182,260.921z"/>
		</g>
		<g>
			<ellipse style="fill:#FFFFFF;" cx="355.935" cy="253.992" rx="27.23" ry="16.15"/>
			<path style="fill:#091438;" d="M353.213,253.992c0,5.093-3.734,9.221-8.339,9.221c-4.608,0-8.343-4.128-8.343-9.221     c0-5.093,3.734-9.224,8.343-9.224C349.478,244.767,353.213,248.899,353.213,253.992z"/>
		</g>
	</g>
	<g>
		<path style="fill:#7C3E25;" d="M137.179,273.386L126.6,324.505c-83.996,14.398-127.268-45.999-91.081-79.198    c18.424-16.871,42.761-10.899,62.998-0.224C120.184,256.553,137.179,273.386,137.179,273.386z"/>
		<path style="fill:#091438;" d="M35.818,276.318c0,0,15.488-14.259,45.273-9.051c29.784,5.216,53.61,40.085,13.104,42.573    c-40.506,2.492-26.607-17.207-11.914-19.247l-23.825-1.605h34.153c0,0-28.526,11.817-16.846,17.014    c11.68,5.201,45.645,1.111,32.33-18.083C84.665,254.138,35.818,276.318,35.818,276.318z"/>
	</g>
</g>















</svg>
