<?xml version="1.0" encoding="UTF-8"?>
<!-- Generator: Adobe Illustrator 25.2.3, SVG Export Plug-In . SVG Version: 6.00 Build 0)  -->
<svg xmlns="http://www.w3.org/2000/svg" xmlns:xlink="http://www.w3.org/1999/xlink" version="1.1" id="Capa_1" x="0px" y="0px" viewBox="0 0 512 512" style="enable-background:new 0 0 512 512;" xml:space="preserve" width="512" height="512">
<g>
	<path style="fill:#091438;" d="M491.396,433.796c-65.984-63.455-161.79-71.643-161.79-71.643l14.978-184.9h125.02   C469.603,177.252,525.735,296.828,491.396,433.796z"/>
	<path style="opacity:0.1;fill:#FFFFFF;" d="M491.396,433.796c-65.984-63.455-161.79-71.643-161.79-71.643l14.978-184.9h125.02   C469.603,177.252,525.735,296.828,491.396,433.796z"/>
	<path style="fill:#091438;" d="M454.811,193.233c33.069,0.316,54.415,1.634,54.415,1.634S544.438,31.971,363.948,37.251   C183.455,42.534,9.114,232.725,0.295,355.69c-8.803,122.949,182.261,119.173,182.261,119.173   c-26.626-36.052-38.57-74.961-42.133-111.861L454.811,193.233z"/>
	<path style="fill:#FFDC9F;" d="M472.243,311.964l-174.334,80.118c0,0-99.239,4.546-157.486-29.08   c-4.884-50.162,5.623-96.631,15.507-127.131c82.466-38.787,222.2-43.38,298.881-42.638   C468.072,227.099,481.065,273.773,472.243,311.964z"/>
	<g>
		
			<rect x="198.783" y="251.68" transform="matrix(0.4479 -0.8941 0.8941 0.4479 -131.7049 329.8653)" style="fill:#091438;" width="4.888" height="39.779"/>
		
			<rect x="205.814" y="249.716" transform="matrix(0.5748 -0.8183 0.8183 0.5748 -129.1559 283.5207)" style="fill:#091438;" width="4.889" height="32.665"/>
		<path style="fill:#FFFFFF;" d="M315.27,295.758c0,0-81.988,24.957-115.929-22.518C199.341,273.24,266.769,250.982,315.27,295.758z    "/>
		<path style="fill:#091438;" d="M313.613,297.554c-46.899-43.293-112.844-22.207-113.507-21.994l-1.531-4.64    c0.683-0.233,69.358-22.191,118.352,23.043L313.613,297.554z"/>
		<path style="fill:#091438;" d="M261.526,283.27c0,8.219-6.566,14.887-14.647,14.887c-8.097,0-14.655-6.668-14.655-14.887    c0-8.227,6.558-14.891,14.655-14.891C254.96,268.379,261.526,275.043,261.526,283.27z"/>
	</g>
	<g>
		
			<rect x="409.151" y="251.188" transform="matrix(0.6263 -0.7796 0.7796 0.6263 -37.6493 428.0606)" style="fill:#091438;" width="36.982" height="4.221"/>
		
			<rect x="403.774" y="251.403" transform="matrix(0.5403 -0.8414 0.8414 0.5403 -20.8678 468.8265)" style="fill:#091438;" width="29.819" height="4.22"/>
		<path style="fill:#FFFFFF;" d="M331.373,293.427c0,0,73.391,9.324,95.38-36.009C426.752,257.418,366.142,248.276,331.373,293.427z    "/>
		<path style="fill:#091438;" d="M333.046,294.713l-3.346-2.573c35.129-45.613,96.745-36.896,97.369-36.809l-0.628,4.175    C425.853,259.406,366.628,251.105,333.046,294.713z"/>
		<path style="fill:#091438;" d="M352.723,282.288c1.018,5.923,6.566,9.916,12.397,8.921c5.832-0.99,9.738-6.609,8.728-12.531    c-1.014-5.927-6.562-9.928-12.39-8.929C355.619,270.742,351.713,276.353,352.723,282.288z"/>
	</g>
	<polygon style="fill:#091438;" points="210.89,241.702 285.362,235.034 212.571,252.134  "/>
	<polygon style="fill:#091438;" points="333.448,212.583 408.52,220.837 333.03,223.141  "/>
	<path style="fill:#091438;" d="M315.736,318.076c0,0-9.328-4.376-8.566,6.128l35.531,2.948c0,0,0.379-17.152-1.267-19.788   c-1.653-2.632-13.908,2.419-13.908,2.419l-6.7-73.457c0,0,0.051,51.752,6.187,77.064c0,0,12.638-7.082,13.569-2.284   c0.927,4.798,0.608,13.92,0.608,13.92l-32.016-3.756C309.174,321.267,307.067,318.076,315.736,318.076z"/>
	<g>
		<path style="fill:#FF6C7E;" d="M255.997,328.595c0,3.859-4.376,6.98-9.773,6.98c-5.402,0-9.782-3.121-9.782-6.98    c0-3.855,4.38-6.972,9.782-6.972C251.622,321.623,255.997,324.74,255.997,328.595z"/>
		<path style="fill:#FF6C7E;" d="M237.749,365.582c-5.619,5.646-14.994,5.422-20.94-0.489c-5.946-5.926-6.222-15.298-0.604-20.94    c5.603-5.635,14.978-5.414,20.928,0.509C243.079,350.58,243.351,359.944,237.749,365.582z"/>
		<path style="fill:#091438;" d="M257.292,331.349c-8.744-0.404-19.31-3.651-22.463-12.741    c-9.264,7.912-11.598,13.227-14.863,24.673c0.344,12.664,4.157,26.038,18.662,27.995L257.292,331.349z"/>
		<path style="fill:#091438;" d="M219.022,346.717c0.079,3.105,0.627,6.436,1.795,9.987c8.184,24.835,32.73,11.23,32.73,11.23    s-23.248,11.076-30.398-11.573c-7.145-22.644,11.6-36.269,11.6-36.269c7.959,19.464,39.99,9.635,39.99,9.635    s-30.737,7.304-39.753-12.105C234.986,317.622,218.557,328.086,219.022,346.717"/>
		<path style="fill:#091438;" d="M239.279,319.843c0,0-4.455-2.324-11.723-0.43c0,0,6.617-3.91,11.723-1.791V319.843z"/>
		<path style="fill:#FFFFFF;" d="M235.452,321.627c0,0,7.449,12.082,20.545,10.555l-4.533,7.082l-23.907-8.823    C227.557,330.441,230.457,321.37,235.452,321.627z"/>
		<path style="fill:#FF6C7E;" d="M234.509,368.43c0,0-10.425-1.985-12.887-19.811C221.622,348.619,236.494,354.396,234.509,368.43z"/>
	</g>
	<g style="opacity:0.1;">
		<path style="fill:#FFFFFF;" d="M299.246,190.388c-5.793-54.948-58.877-77.088-108.318-74.768    c52.47-5.231,107.229,16.735,116.21,74.026L299.246,190.388z"/>
		<path style="fill:#FFFFFF;" d="M485.572,184.809c-25.685-92.946-106.21-138.665-200.21-122.46    C381.328,42.776,464.5,88.988,493.266,182.907L485.572,184.809z"/>
		<path style="fill:#FFFFFF;" d="M333.164,188.324c-5.771-47.443-45.006-77.745-91.383-79.305    c48.925-1.102,90.352,29.207,99.243,78.295L333.164,188.324z"/>
		<path style="fill:#FFFFFF;" d="M406.708,156.344c-18.866-72.719-112.954-77.757-174.484-71.986    c64.026-8.978,161.326-4.785,182.296,70.668L406.708,156.344z"/>
		<path style="fill:#FFFFFF;" d="M131.936,240.976c0,0-62.512,158.602,21.567,210.998    C153.503,451.973,87.91,394.954,131.936,240.976z"/>
		<path style="fill:#FFFFFF;" d="M139.184,200.584c0,0-89.58,103.456-65.361,194.591C73.823,395.175,26.633,318.636,139.184,200.584    z"/>
	</g>
</g>















</svg>
