<?xml version="1.0" encoding="UTF-8"?>
<!-- Generator: Adobe Illustrator 25.3.1, SVG Export Plug-In . SVG Version: 6.00 Build 0)  -->
<svg xmlns="http://www.w3.org/2000/svg" xmlns:xlink="http://www.w3.org/1999/xlink" version="1.1" id="Capa_1" x="0px" y="0px" viewBox="0 0 512 512" style="enable-background:new 0 0 512 512;" xml:space="preserve" width="512" height="512">
<g>
	<g>
		<g>
			<g>
				<g>
					<g>
						<path style="fill:#DB5E43;" d="M182.731,171.989c0.357,0.248,0.729,0.497,1.008,0.823c6.27,7.434,7.915,9.824,8.847,10.32        c0.419,0.202,0.698,0.062,1.164-0.202c2.375-1.273,17.77-13.936,36.952-28.851c5.37-4.174,10.755-8.132,15.954-12.198        c12.198-9.529,23.372-19.586,30.822-34.236c2.219-4.376,1.63-1.381,1.754-53.185c0-0.791-0.512-1.242-1.179-1.536        c2.173-1.754,1.691-3.182,1.66-11.671c0-2.762-1.086-3.445-2.809-2.638c-13.377,6.254-15.581,45.798-18.064,54.038        c-3.042,10.134-10.274,19.198-20.485,22.363c-10.134,3.151-19.943,6.378-29.798,10.305        c-12.183,4.873-24.319,10.196-35.617,16.87c-7.682,4.532-15.861,10.755-18.499,19.306c-1.288,4.19-1.971,8.458-1.645,12.834        c0,1.645-0.124,3.321,0.031,4.951c3.989,39.218,50.128,129.82,56.351,137.378c0.264,0.326,0.931,0.248,1.133-0.14        c0.248-0.45,0.435-0.931,0.605-1.412c11.252-32.638,1.552-4.237,23.496-64.064c0.466-1.257,0.326-2.359-0.357-3.476        c-22.829-37.309-36.44-56.118-43.936-65.632c-6.379-8.117-8.349-9.482-7.822-9.793        C182.436,172.067,182.653,171.942,182.731,171.989z"/>
						<path style="fill:#DB5E43;" d="M395.596,148.493c-9.948-8.21-22.41-13.704-34.159-18.794        c-44.323-19.197-48.917-11.996-58.524-31.411c-2.529-5.106-3.864-10.553-4.376-16.187c-0.404-4.206-1.087-8.35-1.801-12.493        c-1.055-6.114-2.716-12.058-4.811-17.894c-1.335-3.756-3.368-7.092-5.727-10.274c-0.854-1.164-1.971-1.987-3.275-2.576        c-1.242-0.575-2.452-0.031-2.468,1.242c-0.062,3.507-0.047,7.014-0.047,10.538c0,0.884,0.528,1.583,0.994,2.281        c-0.559,0.465-0.947,1.04-0.994,1.769c-0.062,0.698-0.077,1.397-0.077,2.095c0,48.777-0.512,46.543,1.397,50.36        c7.123,14.294,18.655,24.94,31.039,34.701c6.58,5.215,13.409,10.165,19.942,15.302c25.468,20.036,31.691,25.328,33.584,26.166        c0.76,0.341,0.838-0.031,1.18-0.466c0.031-0.046,0.078-0.093,0.124-0.155c1.583-1.986,6.968-9.017,8.908-10.584        c0.558-0.45,0.869,0.186,0.62,0.497c-2.374,2.871-4.764,5.851-7.154,8.908c-16.994,21.774-33.863,47.505-44.417,65.802        c-0.745,1.304-0.978,2.499-0.435,3.942c1.071,2.793,6.068,17.257,9.467,25.917c12.012,30.527,13.346,36.719,14.262,38.861        c0.403,0.978,1.164,1.102,1.738,0.264c8.163-11.562,39.109-75.254,49.15-108.14        C406.459,186.205,413.412,163.189,395.596,148.493z"/>
						<path style="fill:#DB5E43;" d="M299.207,229.819c-0.018-21.895-13.503-37.486-26.365-29.74        c-13.04,7.845-12.738,29.56-12.773,29.773c-0.211,1.673-0.224,7.854-2.268,19.832c-4.788,16.169-7.667,21.197-7.068,38.209        c1.039,29.486,57.525,28.541,58.044-0.743C309.256,260.1,299.207,254.949,299.207,229.819z"/>
					</g>
					<path style="fill:#FFBBEC;" d="M192.175,480.457c-8.389-8.641,4.674-13.858,17.577-60.285       c6.469-23.276,1.004-38.885-2.17-62.325c-4.527-33.43,10.323-55.794,27.838-106.647c0.5-1.452,1.278-2.261,2.858-2.612       c5.259-1.167,10.527-2.204,15.917-2.52c0.689-0.04,1.37-0.226,2.059-0.265c0.751-0.042,1.324,0.613,1.183,1.37       c-0.907,4.84-11.001,27.984-7.122,44.963c5.351,23.426,49.559,25.073,57.818,3.223c3.171-8.389,1.94-19.74-0.303-28.46       c-4.557-17.716-7.705-21.438-4.35-21.087c6.053,0.633,8.067,0.676,17.466,2.704c3.758,0.811,1.51,0.248,16.732,39.297       c18.566,47.627,16.839,53.224,11.21,89.07c-4.084,26.007-4.975,38.438,20.216,93.817c1.917,4.215,0.194,7.903-2.004,10.002       C322.84,522.94,226.372,515.683,192.175,480.457z"/>
					<path style="opacity:0.35;fill:#FC09B2;" d="M271.514,509.575c-15.779-0.445-39.459-8.003-39.414-9.186       c0.051-1.3,8.669,1.636,24.939-3.629c23.988-7.762,42.73-24.103,52.774-51.52c13.674-37.323,6.239-82.601,39.495-118.58       c0.637-0.689,1.283-0.498,1.504,0.436c0.499,2.109,1.695,8.441,1.709,11.563c0.245,53.569-21.126,50.921,16.58,132.052       c1.948,4.192,0.203,7.902-2.007,9.992c-14.021,13.262-54.024,26.433-73.464,28.462       C289.307,509.616,274.566,509.662,271.514,509.575z"/>
					<g>
						<path style="fill:#FC09B2;" d="M246.881,252.762c-4.272,14.487-11.975,33.93-6.414,46.472        c3.233,7.247,8.705,12.183,16.163,15.073c19.781,7.36,54.542,5.442,62.587-14.972c2.913-6.964,2.236-15.642,0.611-22.982        c-3.779-18.194-9.917-23.664-6.886-24.886c0.665-0.268,1.42,0.033,1.734,0.664c9.789,19.956,18.178,45.25,1.57,60.033        c-20.253,18.95-84.079,17.117-82.071-24.165c0.589-11.629,5.531-23.567,10.277-36.052c0.249-0.663,0.989-0.998,1.651-0.748        C246.733,251.437,247.064,252.126,246.881,252.762z"/>
						<path style="fill:#FC09B2;" d="M361.031,467.465c-31.917,23.357-55.618,29.929-81.316,30.022        c-31.868-0.475-59.32-11.921-81.208-30.273c-0.577-0.484-0.652-1.344-0.169-1.921c0.801-0.956,2.001-0.192,1.845-0.228        c89.244,62.551,158.45-3.808,161.186,0.699C361.717,466.336,361.558,467.075,361.031,467.465z"/>
						<path style="fill:#FC09B2;" d="M306.336,381.929c-11.341,29.265-40.85,54.355-69.663,66.797        c-1.562,0.675-2.692-1.559-1.24-2.427c27.058-16.2,53.339-37.837,68.578-65.45        C304.775,379.453,306.908,380.438,306.336,381.929z"/>
						<path style="fill:#FC09B2;" d="M310.599,415.827c-10.038,15.748-28.344,30.832-46.555,36.926        c-0.718,0.24-1.495-0.148-1.736-0.866c-0.584-1.749,0.981-1.387,12.903-9.505c27.686-18.998,32.834-30.611,35.225-28.148        C310.86,414.672,310.911,415.334,310.599,415.827z"/>
					</g>
					<g style="opacity:0.25;">
						<path style="fill:#000E3F;" d="M183.402,170.761c-0.851,0.221,1.324,4.928,3.519,7.14c1.244,1.254,2.338,2.832,3.564,4.215        c4.925,2.467-2.081,5.217,47.755-32.548c0.943-0.713,4.82-3.408,4.882-4.702c0.125-2.618-5.948,1.354-6.822,1.857        C216.734,157.983,197.761,167.028,183.402,170.761z"/>
						<path style="fill:#000E3F;" d="M376.209,170.761c0.851,0.221-1.324,4.928-3.519,7.14c-1.244,1.254-2.338,2.832-3.564,4.215        c-4.925,2.467,2.081,5.217-47.755-32.548c-0.943-0.713-4.82-3.408-4.882-4.702c-0.125-2.618,5.948,1.354,6.822,1.857        C342.877,157.983,361.85,167.028,376.209,170.761z"/>
						<path style="fill:#000E3F;" d="M300.168,241.611c-5.052,6.567-12.382,10.711-20.547,10.711        c-8.201,0-15.548-4.176-20.601-10.809c0.836-6.665,0.908-10.53,1.05-11.66c0.036-0.213-0.267-21.929,12.773-29.773        c12.862-7.746,26.347,7.845,26.365,29.74C299.207,233.259,299.581,237.37,300.168,241.611z"/>
					</g>
					<g style="opacity:0.45;">
						<path style="fill:#000E3F;" d="M354.934,211.799c1.463,2.494,5.444-2.312,6.307-3.317c0.766-0.893,7.437-9.407,3.539-9.036        C363.618,199.556,353.244,209.001,354.934,211.799z"/>
						<path style="fill:#000E3F;" d="M373.385,205.219c-1.681-0.869-12.831,12.104-8.709,13.895        c2.039,0.886,5.763-5.665,6.631-7.031C371.928,211.106,375.324,206.221,373.385,205.219z"/>
						<path style="fill:#000E3F;" d="M374.989,224.6c2.394-0.001,8.136-13.144,6.608-14.816        C379.463,207.451,369.921,224.603,374.989,224.6z"/>
						<path style="fill:#000E3F;" d="M385.544,228.587c1.903,0.208,2.814-3.372,3.25-4.666c0.431-1.28,3.073-10.521,1.407-10.925        c-0.73-0.177-1.409,0.891-1.75,1.56c-1.003,1.969-1.994,3.941-2.832,5.987c-0.654,1.596-2.984,6.52-0.847,7.769        C385.046,228.473,385.303,228.56,385.544,228.587z"/>
						<path style="fill:#000E3F;" d="M365.234,188.065l-0.078-0.054c-1.185-0.806-2.62,0.649-1.776,1.822        c6.328,8.806,20.575,17.971,35.178,19.522c0.562,0.058,1.128-0.235,1.387-0.773        C401.521,205.301,392.992,207.026,365.234,188.065z"/>
					</g>
				</g>
				<path style="fill:#000E3F;" d="M400.139,150.083c-0.528-0.504-1.056-1.008-1.583-1.488c-7.964-7.077-18.064-12.21-26.915-16.456      c-19.887-9.571-32.577-13.65-41.836-16.648c-11.898-3.814-17.32-5.565-23.629-14.729c-4.558-6.597-5.518-14.465-6.453-22.069      c-0.36-2.807-0.72-5.733-1.247-8.54c-4.054-21.326-11.107-34.064-18.855-34.064c-7.748,0-14.777,12.738-18.831,34.064      c-0.527,2.807-0.888,5.733-1.247,8.54c-0.936,7.604-1.895,15.472-6.453,22.069c-6.309,9.164-11.73,10.915-23.629,14.729      c-9.26,2.999-21.95,7.077-41.836,16.648c-8.852,4.246-18.951,9.379-26.915,16.456c-0.552,0.504-1.08,1.008-1.584,1.488      c-7.364,7.269-10.219,18.807-8.06,32.528c4.966,31.665,26.459,76.86,37.998,101.161c8.876,18.663,13.913,26.939,16.625,31.401      c2.351,3.886,2.71,4.486,2.159,6.333c-5.47,18.687-3.143,32.769,0.072,52.272c0.384,2.351,0.768,4.774,1.175,7.293      c3.406,21.494,0.864,33.728-6.501,54.742c-4.102,11.754-7.844,19.886-10.555,25.836c-4.87,10.555-6.669,14.513-1.727,19.839      c2.063,2.207,4.51,3.958,6.645,5.397c12.45,8.324,27.131,13.674,38.55,17.392c16.144,5.278,30.178,7.724,44.163,7.724h0.48      c13.77-0.048,27.635-2.519,43.587-7.724c11.419-3.718,26.123-9.068,38.574-17.392c2.135-1.439,4.582-3.191,6.621-5.397      c4.965-5.326,3.142-9.283-1.703-19.839c-2.71-5.949-6.453-14.081-10.555-25.836c-7.365-20.99-9.907-33.248-6.501-54.742      c0.384-2.519,0.792-4.942,1.175-7.293c3.214-19.503,5.541-33.584,0.048-52.272c-0.528-1.847-0.168-2.447,2.183-6.333      c2.711-4.462,7.724-12.738,16.6-31.401c5.781-12.139,14.034-29.53,21.47-47.809c7.436-18.304,14.057-37.519,16.552-53.351      C410.358,168.89,407.479,157.351,400.139,150.083z M365.763,466.469c0.863,1.991,1.703,3.862,2.447,5.589      c1.103,2.567,0.215,5.71-2.255,8.012c-10.699,10.052-37.782,20.007-53.351,24.229c-20.654,5.59-45.29,5.59-65.945,0      c-15.593-4.222-42.652-14.177-53.375-24.229c-2.471-2.303-3.334-5.445-2.231-8.012c0.744-1.727,1.559-3.598,2.423-5.589      c8.876-20.27,22.285-50.88,20.486-70.982c-1.008-11.131-2.399-19.959-3.622-27.731c-2.591-16.313-4.294-27.083-0.024-42.82      c3.934-14.633,9.739-29.626,15.353-44.115c3.742-9.643,7.605-19.623,10.795-29.194c0.384-1.175,1.032-1.775,2.183-2.015      c4.702-1.008,8.612-1.679,12.306-2.135l1.151-0.144c1.392-0.192,2.399-0.312,3.071-0.312c1.443,0,1.12,0.331-0.528,5.566      c-3.934,12.546-8.012,25.548-5.614,38.909c1.799,10.027,9.98,17.368,21.398,19.143c7.821,1.175,27.035,2.543,36.079-10.195      c1.847-2.591,3.118-5.685,3.694-8.948c2.423-13.362-1.655-26.364-5.589-38.909c-0.408-1.296-0.816-2.615-1.223-3.91      c-0.216-0.744-0.336-1.248-0.144-1.439c0.288-0.36,1.559-0.192,3.91,0.096l1.151,0.144c3.694,0.456,7.604,1.127,12.282,2.135      c1.175,0.24,1.823,0.839,2.207,2.015c3.191,9.572,7.053,19.551,10.795,29.194c5.614,14.489,11.419,29.482,15.353,44.115      c4.246,15.737,2.543,26.508-0.024,42.82c-0.6,3.886-1.271,8.036-1.895,12.594c-0.624,4.582-1.223,9.571-1.727,15.137      C343.501,415.589,356.911,446.199,365.763,466.469z M261.449,230.069c0.75-9.581,2.2-19.258,9.166-26.23      c3.872-3.876,9.273-5.526,14.306-2.828c7.58,4.054,12.066,15.631,12.69,28.81c0.616,13.022,1.512,16.147,4.054,24.133      c1.008,3.166,1.991,6.333,2.879,9.571c2.399,8.636,3.982,17.583,2.519,27.131c-1.727,11.442-13.506,16.84-23.701,17.032      c-0.672,0-1.367,0.024-2.063,0.024c-10.435,0-22.333-1.583-27.323-11.371c-0.888-1.727-1.367-3.526-1.799-5.685      c-1.439-9.524,0.144-18.472,2.519-27.107C260.162,243.669,259.621,253.43,261.449,230.069z M336.833,163.253      c9.547,7.532,23.965,18.927,25.98,20.294c0.863,0.576,1.247,0.936,1.295,1.223c0.048,0.264-0.168,0.552-0.504,1.008      l-0.048,0.072c-2.831,3.958-5.11,7.125-6.981,9.691c-8.228,11.443-8.228,11.443-13.842,20.055      c-1.295,1.967-2.902,4.39-4.942,7.532c-5.781,8.804-9.403,14.945-11.802,18.999c-0.912,1.536-1.607,2.735-2.159,3.622      c-0.072,0.12-0.144,0.216-0.192,0.312c-0.48,0.791-0.48,0.791-3.55,0.168c-1.175-0.24-2.783-0.551-4.99-0.96      c-4.174-0.767-8.564-1.343-13.05-1.775c-0.096-0.72-0.192-1.415-0.288-2.087c-0.624-4.534-0.936-8.444-0.936-11.586      c-0.024-14.273-5.781-26.963-14.345-31.545c-4.678-2.495-9.812-2.327-14.489,0.48c-12.21,7.365-13.434,25.524-13.506,30.897      c-0.048,0.36-0.096,0.96-0.144,1.799c-0.12,1.943-0.336,5.206-0.912,9.884c-0.096,0.719-0.192,1.463-0.288,2.207      c-4.774,0.456-9.164,1.032-12.978,1.727c-2.231,0.408-3.838,0.72-5.014,0.96c-3.047,0.624-3.047,0.624-3.526-0.168      c-0.048-0.096-0.12-0.192-0.192-0.312c-0.552-0.887-1.272-2.087-2.159-3.598c-2.399-4.078-6.021-10.219-11.803-19.023      c-2.063-3.143-3.646-5.565-4.941-7.532c-5.613-8.612-5.613-8.612-13.841-20.055c-1.871-2.567-4.15-5.733-7.005-9.691      l-0.048-0.072c-0.312-0.456-0.528-0.744-0.504-1.008c0.072-0.288,0.432-0.648,1.32-1.223c2.015-1.367,16.504-12.81,26.076-20.39      c4.054-3.19,7.269-5.733,8.588-6.741c36.439-28.307,38.766-32.265,44.403-41.812c0.528-0.888,1.056-1.799,1.655-2.782      l0.072-0.096c1.128-1.895,1.823-3.023,2.375-3.119c0.576,0.096,1.271,1.223,2.399,3.119l0.072,0.096      c0.6,0.983,1.127,1.895,1.655,2.782c5.637,9.548,7.964,13.506,44.403,41.812C329.468,157.447,332.731,160.014,336.833,163.253z       M276.285,52.185c-4.198,3.526-6.213,10.627-7.149,16.001c-0.936,5.325-0.84,10.747-0.768,16      c0.024,0.983,0.048,1.967,0.048,2.951c0.024,1.103,0.432,2.423,1.559,2.447c0.024,0,0.024,0,0.048,0      c0.36,0,0.648-0.12,0.888-0.336c0.767-0.768,0.72-2.71,0.648-5.901c-0.096-4.654-0.264-11.706,2.135-20.366      c0.864-3.095,2.999-7.1,3.742-6.98c0.144,0.024,0.288,0.336,0.312,1.151c0.024,1.439,0.024,8.444,0.024,16.552      c-0.024,10.555-0.024,22.526,0.048,26.915c0.072,4.414-2.855,9.044-5.181,12.738l-0.504,0.792      c-7.293,11.587-18.448,20.39-32.577,31.545c-1.247,1.008-2.543,2.015-3.838,3.047c-5.493,4.342-10.987,8.684-16.48,13.002      c-5.301,4.174-10.075,7.916-14.993,11.754c-3.382,2.639-6.765,5.277-10.171,7.892c-0.144,0.12-0.288,0.24-0.384,0.336      c-0.288,0.24-0.456,0.36-0.6,0.336c-0.384-0.024-1.08-0.912-2.783-3.047c-0.983-1.223-2.303-2.878-4.102-5.086      c-0.551-0.672-1.175-1.319-1.799-1.943l-0.336-0.36c-0.6-0.6-1.343-0.864-2.039-0.696c-0.552,0.144-0.984,0.552-1.127,1.079      c-0.144,0.432,0,0.912,0.36,1.271c15.545,16,51.576,72.47,52.344,76.164c0.192,0.912-0.24,1.823-0.72,2.807      c-0.192,0.408-0.408,0.816-0.552,1.248c-5.685,16-7.556,20.774-9.715,26.267c-1.703,4.39-3.67,9.356-7.94,21.062      c-1.608,4.414-2.663,7.581-3.431,9.883c-0.863,2.567-1.415,4.27-1.727,4.318c-0.024,0-0.072-0.024-0.216-0.216      c-9.715-13.146-57.165-112.003-55.725-141.149c0.6-11.754,2.855-18.759,14.033-26.699c9.595-6.813,20.774-11.898,30.538-16.12      c13.817-5.997,26.484-10.699,38.67-14.369c12.378-3.718,20.15-11.803,23.773-24.685c0.575-2.111,1.103-5.661,1.775-10.195      c2.087-14.081,5.254-35.383,14.537-41.188c0.12-0.072,0.288-0.072,0.456,0c0.144,0.048,0.264,0.168,0.288,0.264      c0,0.096,0.024,0.168,0.072,0.216c0.024,0.072,0.048,0.12,0.048,0.144c0,1.607,0.024,2.927,0.048,4.054      C277.892,50.41,277.916,50.841,276.285,52.185z M349.738,315.029c-0.312-0.048-0.888-1.751-1.727-4.318      c-0.768-2.303-1.823-5.469-3.454-9.883c-4.27-11.706-6.213-16.672-7.94-21.062c-2.159-5.517-4.006-10.267-9.691-26.267      c-0.144-0.432-0.36-0.84-0.552-1.248c-0.48-0.984-0.936-1.895-0.72-2.807c0.768-3.694,36.799-60.164,52.343-76.164      c0.36-0.36,0.48-0.84,0.36-1.271c-0.144-0.528-0.6-0.935-1.151-1.079c-0.12-0.024-0.264-0.048-0.408-0.048      c-0.552,0-1.127,0.264-1.607,0.744l-0.336,0.36c-0.6,0.624-1.247,1.247-1.799,1.943c-1.823,2.207-3.143,3.862-4.102,5.086      c-1.703,2.135-2.399,3.023-2.783,3.047c-0.144,0.024-0.312-0.096-0.6-0.336c-0.12-0.096-0.24-0.216-0.384-0.336      c-3.191-2.447-6.357-4.918-9.5-7.365l-0.671-0.528c-4.942-3.838-9.932-7.772-14.777-11.587l-0.215-0.168      c-5.494-4.318-10.987-8.66-16.481-13.002c-1.319-1.031-2.591-2.039-3.838-3.023c-14.129-11.155-25.284-19.982-32.577-31.569      l-0.504-0.792c-2.327-3.694-5.254-8.324-5.182-12.738c0.072-4.39,0.072-16.36,0.048-26.915c0-8.108-0.024-15.113,0.024-16.552      c0.024-1.056,0.264-1.151,0.312-1.151c0,0,0,0,0.024,0c0.767,0,2.878,3.934,3.718,6.98c2.399,8.66,2.231,15.713,2.135,20.366      c-0.096,3.191-0.12,5.134,0.648,5.901c0.216,0.216,0.528,0.336,0.887,0.336c0.024,0,0.024,0,0.048,0      c1.104-0.024,1.536-1.319,1.56-2.447c0-0.984,0.023-1.967,0.023-2.951c0.096-5.254,0.192-10.675-0.743-16      c-0.96-5.374-2.951-12.474-7.173-16.001c-1.607-1.343-1.607-1.799-1.512-7.1c0.024-1.127,0.048-2.447,0.048-4.054      c0-0.024,0.024-0.072,0.048-0.144c0.024-0.048,0.072-0.12,0.072-0.192c0.024-0.12,0.144-0.24,0.288-0.288      c0.168-0.072,0.336-0.072,0.456,0c9.283,5.805,12.426,27.107,14.513,41.188c0.672,4.534,1.199,8.084,1.799,10.195      c3.623,12.882,11.395,20.966,23.773,24.685c12.186,3.67,24.828,8.372,38.67,14.369c9.763,4.222,20.942,9.308,30.538,16.12      c11.179,7.94,13.433,14.945,14.009,26.699c0.024,0.432,0.024,0.912,0.024,1.367c0,30.753-46.154,126.828-55.725,139.782      C349.81,315.005,349.738,315.029,349.738,315.029z"/>
			</g>
			<g>
				<g>
					<path style="fill:#FFCF00;" d="M245.709,380.391c-5.912,0-11.469-1.963-16.065-5.675c-6.082-4.881-9.572-12.153-9.572-19.947       c0-14.137,11.5-25.638,25.637-25.638c6.356,0,12.432,2.329,17.108,6.558c5.418,4.84,8.53,11.796,8.53,19.08       C271.346,368.897,259.846,380.391,245.709,380.391z"/>
					<path style="opacity:0.5;fill:#FD8A02;" d="M269.794,354.769c0,13.289-10.782,24.071-24.086,24.071       c-5.721,0-10.962-1.997-15.091-5.331c31.218-4.189,32.45-26.083,31.158-36.669       C266.701,341.239,269.794,347.636,269.794,354.769z"/>
					<g>
						<path style="fill:#FC09B2;" d="M229.419,361.586c-2.135-1.064-2.585-3.043-1.623-4.455c2.826-4.149,11.71-2.283,10.123,2.292        C237.147,361.647,232.824,363.282,229.419,361.586z"/>
						<path style="fill:#FC09B2;" d="M261.998,361.586c2.136-1.064,2.585-3.043,1.623-4.455c-2.826-4.149-11.71-2.283-10.123,2.292        C254.27,361.647,258.594,363.282,261.998,361.586z"/>
					</g>
				</g>
				<g>
					<path style="fill:#000E3F;" d="M263.844,334.525c-4.946-4.474-11.392-6.946-18.135-6.946c-14.992,0-27.189,12.198-27.189,27.19       c0,8.267,3.701,15.979,10.155,21.16c4.871,3.933,10.764,6.014,17.034,6.014c14.993,0,27.19-12.191,27.19-27.175       C272.898,347.044,269.598,339.665,263.844,334.525z M245.709,378.839c-5.721,0-10.962-1.997-15.091-5.33       c-5.481-4.4-8.995-11.157-8.995-18.74c0-13.304,10.781-24.086,24.086-24.086c6.172,0,11.818,2.312,16.067,6.156       c4.925,4.4,8.019,10.797,8.019,17.929C269.795,368.058,259.013,378.839,245.709,378.839z"/>
					<path style="fill:#000E3F;" d="M250.773,350.374c-0.771,0.007-1.391,0.637-1.385,1.409c0.018,2.103-1.179,4.459-3.436,4.683       c-0.902,0.085-1.71-0.192-2.402-0.837c-0.961-0.896-1.555-2.395-1.516-3.819c0.023-0.771-0.585-1.414-1.356-1.435       c-0.814-0.053-1.414,0.587-1.435,1.357c-0.064,2.224,0.858,4.501,2.404,5.941c1.121,1.045,2.522,1.603,3.997,1.603       c0.194,0,0.39-0.01,0.585-0.03c3.906-0.388,5.984-4.147,5.955-7.487C252.175,350.987,251.614,350.374,250.773,350.374z"/>
					<path style="fill:#000E3F;" d="M261.141,345.84c-0.003,0-0.006,0-0.009,0c-0.771,0.005-1.393,0.635-1.388,1.406       c0.011,1.543-0.742,3.224-2.022,3.368c-0.424,0.046-0.794-0.087-1.147-0.41c-0.677-0.623-1.115-1.801-1.087-2.932       c0.02-0.771-0.59-1.413-1.361-1.432c-0.012,0-0.024,0-0.035,0c-0.756,0-1.378,0.602-1.396,1.361       c-0.05,1.95,0.712,3.89,1.992,5.061c0.829,0.761,1.811,1.156,2.863,1.156c0.159,0,0.321-0.009,0.483-0.028       c2.983-0.335,4.522-3.354,4.504-6.164C262.532,346.46,261.908,345.84,261.141,345.84z"/>
					<path style="fill:#000E3F;" d="M237.334,345.84c-0.003,0-0.006,0-0.009,0c-0.771,0.005-1.393,0.635-1.388,1.406       c0.011,1.543-0.741,3.224-2.02,3.368c-0.421,0.046-0.796-0.087-1.149-0.411c-0.679-0.623-1.115-1.8-1.087-2.931       c0.02-0.771-0.59-1.413-1.361-1.432c-0.852-0.012-1.412,0.591-1.43,1.361c-0.05,1.95,0.712,3.889,1.99,5.061       c0.83,0.761,1.813,1.156,2.866,1.156c0.159,0,0.321-0.009,0.483-0.028c2.981-0.335,4.521-3.354,4.503-6.164       C238.726,346.46,238.101,345.84,237.334,345.84z"/>
				</g>
			</g>
		</g>
		<g>
			<g>
				<ellipse style="fill:#000E3F;" cx="324.994" cy="221.955" rx="22.323" ry="22.002"/>
				<g>
					<path style="fill:#4217A6;" d="M326.389,206.82c-0.807,1.786,2.339,1.232,6.391,5.41c5.059,5.302,5.855,12.614,2.922,19.391       l-0.012,0.029c-0.178,0.414-0.09,0.912,0.256,1.24c0.444,0.419,1.142,0.399,1.561-0.045c1.952-2.067,3.218-4.798,3.725-7.664       C343.959,210.592,327.692,203.94,326.389,206.82z"/>
					<path style="fill:#4217A6;" d="M321.883,213.334c-1.328,0.989,0.539,1.914,2.602,5.72c3.549,6.551,1.646,11.952,1.434,13.983       c-0.268,1.131,1.165,1.868,1.929,0.991c2.657-3.05,3.523-7.551,2.548-11.611C328.851,216.096,323.055,212.46,321.883,213.334z"/>
					<path style="fill:#4217A6;" d="M317.291,223.047c-1.791,0.108-0.513,2.143-1.134,6.591c-0.3,2.159-0.621,3.133-1.282,5.264       c-0.297,0.958,0.688,1.829,1.605,1.403c1.157-0.538,2.082-1.479,2.745-2.556C322.299,228.765,319.217,222.929,317.291,223.047z       "/>
				</g>
			</g>
			<g>
				<g>
					<g>
						<g>
							<path style="fill:#DB5E43;" d="M315.818,190.95c0,5.992-1.439,12.607,4.161,12.607c16.623,0,19.071-23.457,5.979-23.457         C320.358,180.1,315.818,184.958,315.818,190.95z"/>
							<path style="fill:#DB5E43;" d="M243.966,190.95c0,5.992,1.439,12.607-4.161,12.607c-16.623,0-19.071-23.457-5.979-23.457         C239.426,180.1,243.966,184.958,243.966,190.95z"/>
						</g>
						<g style="opacity:0.25;">
							<g>
								<path style="fill:#000E3F;" d="M326.255,194.285c-2.917,1.85-3.86,0.581-3.27-0.29c0.975-1.441,2.236-2.486,4.164-5.055          c0.975-1.32,1.47-2.712,2.332-2.112C330.605,187.61,329.894,191.942,326.255,194.285z"/>
							</g>
							<g>
								<path style="fill:#000E3F;" d="M232.635,188.939c1.375,1.832,2.115,2.534,2.672,3.212c1.196,1.356,1.597,1.996,1.491,1.841          c0.418,0.613-0.118,1.426-0.847,1.286c-3.599-0.702-6.774-4.698-5.935-8.033c0.153-0.608,0.947-0.741,1.298-0.239          C231.313,187.007,232.235,188.398,232.635,188.939z"/>
							</g>
						</g>
					</g>
					<g>
						<path style="fill:#000E3F;" d="M319.979,205.108c-1.72,0-3.093-0.521-4.078-1.547c-2.022-2.106-1.873-5.721-1.717-9.55        c0.041-1.015,0.083-2.047,0.083-3.062c0-6.839,5.244-12.403,11.691-12.403c3.11,0,5.702,1.157,7.497,3.347        c1.569,1.913,2.432,4.564,2.432,7.463C335.887,197.1,329.938,205.108,319.979,205.108z M325.958,181.651        c-4.735,0-8.587,4.172-8.587,9.299c0,1.056-0.044,2.132-0.086,3.189c-0.123,3.01-0.25,6.122,0.856,7.273        c0.14,0.147,0.569,0.593,1.839,0.593c8.317,0,12.805-6.515,12.805-12.647c0-2.184-0.614-4.135-1.729-5.496        C329.851,182.395,328.137,181.651,325.958,181.651z"/>
						<path style="fill:#000E3F;" d="M239.805,205.108c-9.959,0-15.909-8.008-15.909-15.751c0-2.899,0.864-5.55,2.432-7.463        c1.796-2.19,4.388-3.347,7.498-3.347c6.447,0,11.691,5.564,11.691,12.403c0,1.015,0.042,2.047,0.083,3.062        c0.156,3.828,0.305,7.444-1.717,9.55C242.898,204.588,241.525,205.108,239.805,205.108z M233.826,181.651        c-2.179,0-3.894,0.744-5.097,2.21c-1.115,1.361-1.729,3.312-1.729,5.496c0,6.131,4.488,12.647,12.805,12.647        c1.27,0,1.699-0.445,1.838-0.593c1.106-1.151,0.979-4.263,0.856-7.273c-0.042-1.056-0.086-2.132-0.086-3.189        C242.413,185.823,238.561,181.651,233.826,181.651z"/>
					</g>
				</g>
				<g>
					<g>
						<path style="fill:#DB5E43;" d="M313.867,219.903c-5.296,8.613-17.815,20.935-33.821,21.122h-0.309        c-16.005-0.186-28.524-12.509-33.82-21.122c-9.695-15.768-7.503-47.071-0.368-62.062        c6.899-14.495,19.345-22.177,34.188-22.503c0.059-0.016,0.103-0.016,0.162-0.016c0.044,0,0.103,0,0.147,0.016        c14.844,0.326,27.289,8.008,34.188,22.503C321.369,172.832,323.561,204.135,313.867,219.903z"/>
						<g style="opacity:0.25;">
							<path style="fill:#000E3F;" d="M303.344,194.781c-5.429,0-9.847,3.612-9.847,8.051s4.418,8.051,9.847,8.051         c5.43,0,9.848-3.611,9.848-8.051S308.774,194.781,303.344,194.781z"/>
							<path style="fill:#000E3F;" d="M256.572,194.781c-5.43,0-9.848,3.612-9.848,8.051s4.418,8.051,9.848,8.051         c5.429,0,9.847-3.611,9.847-8.051S262.001,194.781,256.572,194.781z"/>
						</g>
					</g>
					<g>
						<path style="fill:#000E3F;" d="M315.637,157.174c-7.003-14.713-19.605-23.016-35.493-23.387        c-0.187-0.022-0.293-0.036-0.562,0.001c-15.857,0.389-28.438,8.69-35.434,23.385c-6.87,14.436-10.112,46.366,0.449,63.542        c4.933,8.025,17.884,21.66,35.142,21.86h0.327c17.24-0.201,30.19-13.836,35.124-21.86        C325.748,203.54,322.507,171.61,315.637,157.174z M312.545,219.09c-4.601,7.484-16.628,20.198-32.498,20.383h-0.291        c-15.889-0.185-27.915-12.899-32.516-20.383c-9.094-14.789-7.593-45.235-0.288-60.582        c6.482-13.618,18.138-21.296,32.819-21.619c0.041-0.001,0.082-0.003,0.121-0.007c0.039,0.004,0.08,0.006,0.121,0.007        c14.683,0.323,26.339,8.001,32.82,21.619C320.138,173.855,321.638,204.301,312.545,219.09z"/>
						<path style="fill:#000E3F;" d="M291.427,170.394c-0.019,6.007,14.754,9.461,16.319,3.212        C309.589,166.243,291.452,162.562,291.427,170.394z"/>
						<path style="fill:#000E3F;" d="M268.357,170.394c-0.025-7.832-18.162-4.151-16.318,3.212        C253.603,179.855,268.377,176.401,268.357,170.394z"/>
						<path style="fill:#000E3F;" d="M304.053,180.774c-0.858,0-1.552,0.695-1.552,1.552c0,3.513-2.154,5.274-4.154,5.424        c-1.888,0.139-4.277-1.091-4.868-5.017c-0.127-0.847-0.92-1.435-1.766-1.304c-0.847,0.127-1.432,0.918-1.305,1.765        c0.806,5.358,4.33,7.671,7.642,7.671c0.177,0,0.353-0.006,0.527-0.02c3.493-0.261,7.027-3.271,7.027-8.519        C305.605,181.469,304.911,180.774,304.053,180.774z"/>
						<path style="fill:#000E3F;" d="M268.07,181.428c-0.839-0.13-1.637,0.458-1.766,1.304c-0.59,3.926-2.996,5.144-4.868,5.017        c-2-0.15-4.154-1.911-4.154-5.424c0-0.857-0.694-1.552-1.552-1.552c-0.858,0-1.552,0.695-1.552,1.552        c0,5.248,3.534,8.258,7.028,8.519c0.174,0.013,0.35,0.02,0.527,0.02c3.311,0,6.835-2.313,7.641-7.671        C269.503,182.346,268.918,181.556,268.07,181.428z"/>
						<path style="fill:#000E3F;" d="M289.963,205.564c-0.852-0.169-1.658,0.385-1.82,1.227c-0.753,3.874-4.219,6.674-8.251,6.674        c-0.015,0-0.032,0-0.047,0c-4.006-0.023-7.455-2.829-8.204-6.674c-0.164-0.842-0.98-1.396-1.82-1.227        c-0.841,0.164-1.39,0.978-1.226,1.819c1.029,5.292,5.753,9.154,11.232,9.185c0.023,0,0.042,0,0.065,0        c5.514,0,10.26-3.854,11.297-9.185C291.353,206.542,290.804,205.727,289.963,205.564z"/>
						<path style="fill:#000E3F;" d="M281.08,202.485c0.863,0,1.559-0.695,1.559-1.559c0-0.864-0.696-1.559-1.559-1.559        c-1.56,0-4.99-0.792-5.853-2.063c-0.144-0.24-0.24-0.528-0.024-1.079c0.024-0.048,3.814-8.996,5.469-12.858        c0.984-2.296-1.888-3.583-2.903-1.175c-1.607,3.814-5.373,12.69-5.421,12.81c-0.743,1.799-0.239,3.167,0.312,4.006        C274.555,201.885,279.784,202.485,281.08,202.485z"/>
					</g>
				</g>
			</g>
			<g>
				<path style="fill:#000E3F;" d="M331.055,141.213c-7.32-25.103-41.294-35.243-58.259-20.154      c-16.947-15.306-44.415,2.386-47.872,28.186c-1.117,8.332,0.872,18.19,5.173,25.549c1.904,3.256,4.73,7.588,9.139,6.345      c1.833-0.517,3.203-2.002,4.471-3.421c4.169-4.665,14.211-15.557,22.212-26.508c1.715,3.976,4.428,7.567,8.049,10.379      c8.037,6.243,17.346,3.236,14.819-1.346c-1.416-2.566-1.658-1.575-5.518-9.701c-0.111-0.234-0.276-0.663-0.048-0.786      c0.346-0.188,0.939,1.183,2.157,2.239c10.438,9.046,18.765,6.418,24.602,14.832c2.531,3.647,5.747,14.244,10.356,15.453      C328.191,184.339,336.671,160.473,331.055,141.213z"/>
				<g>
					<path style="fill:#4217A6;" d="M265.814,135.888c-0.74,4.343-0.317,8.241,0.804,12.523l0.006,0.024       c0.155,0.593-0.2,1.199-0.793,1.354c-0.445,0.116-0.898-0.055-1.162-0.398c-1.489-1.943-2.495-4.285-3.006-6.734       c-1.516-6.996,1.161-15.161,6.717-20.169c0.843-0.76,2.126,0.194,1.642,1.22C270.024,123.707,266.476,131.508,265.814,135.888z       "/>
					<path style="fill:#4217A6;" d="M276.288,139.966c0.147,2.381,0.66,4.681,1.257,6.958c1.407,5.388,3.977,7.388,2.156,8.221       c-0.425,0.195-0.912,0.093-1.227-0.217c-1.906-1.88-3.568-4.142-4.586-6.685c-1.051-2.519-1.728-5.209-1.928-7.906       c-0.192-2.698-0.077-5.398,0.411-8.018c0.489-2.627,1.234-5.151,2.506-7.567c0.531-1.008,2.077-0.533,1.943,0.603       C276.247,130.219,275.834,135.041,276.288,139.966z"/>
					<path style="fill:#4217A6;" d="M286.003,122.149c25.547-4.679,45.784,13.385,37.942,49.379c-0.128,0.59-0.711,0.963-1.3,0.835       c-0.539-0.117-0.897-0.613-0.857-1.148l0.001-0.013c1.406-19.01-0.581-37.397-18.33-44.327       c-7.829-3.106-17.411-2.697-17.238-2.697c-0.565,0.019-1.038-0.424-1.057-0.989       C285.148,122.677,285.512,122.239,286.003,122.149z"/>
					<path style="fill:#4217A6;" d="M283.677,133.911c6.247-1.366,13.824,0.207,19.91,5.331c2.728,2.344,4.969,5.278,6.4,8.566       c1.45,3.271,2.111,6.867,1.856,10.341c-0.044,0.605-0.571,1.06-1.177,1.016c-0.501-0.037-0.898-0.404-0.996-0.872l-0.004-0.021       c-0.65-3.137-1.671-6.079-3.164-8.74c-8.302-14.655-25.495-13.766-22.673-13.579c-0.57-0.038-1.001-0.531-0.963-1.101       C282.897,134.383,283.239,134.007,283.677,133.911z"/>
					<path style="fill:#4217A6;" d="M237.603,144.848c-3.542,9.161-1.994,18.164,2.165,26.964l0.007,0.015       c0.258,0.546,0.024,1.198-0.521,1.456c-0.487,0.23-1.059,0.069-1.36-0.357c-2.909-4.11-5.15-8.899-5.975-14.086       c-2.565-15.598,8.223-30.472,21.838-37.835c1.097-0.593,2.099,0.931,1.127,1.704       C253.988,123.575,242.175,132.322,237.603,144.848z"/>
					<path style="fill:#4217A6;" d="M258.37,130.389c-6.593,9.284-7.44,14.412-8.599,17.978c-1.013,7.84-0.754,7.953,0.899,15.129       l0.036,0.157c0.135,0.585-0.231,1.169-0.816,1.304c-2.247,0.518-9.585-13.96,0.456-28.833c1.844-2.722,3.961-5.177,6.599-7.208       c0.933-0.72,2.149,0.453,1.47,1.411L258.37,130.389z"/>
				</g>
			</g>
		</g>
	</g>
	<g>
		<path style="fill:#000E3F;" d="M115.997,99.543c-0.227,0.147-0.619,0.428-1.04,0.776c-0.921,0.765-2.083,1.819-2.604,2.474    c0.545,1.942,2.264,5.617,2.604,7.465c-1.719-0.79-5.171-2.807-6.796-4.073c-0.551,0.144-0.992,0.467-1.41,0.815    c-0.762,0.632-1.421,1.445-2.128,2.033c3.171,2.381,7.517,3.873,10.829,6.315l0.043,0.053c1.319,4.098,2.671,8.344,4.106,11.944    l0.052-0.044c0.23-0.147,0.441-0.323,0.653-0.498c0.811-0.675,1.668-1.518,2.404-2.128c0.235-0.196,0.443-0.37,0.676-0.519    c-3.021-7.917-4.096-16.696-7.366-24.586L115.997,99.543z"/>
		<path style="fill:#000E3F;" d="M137.42,103.991c-1.217-2.024-2.607-3.759-3.89-5.82c-0.621-0.941-1.267-1.863-1.997-2.726    c-0.499-0.527-1.023-1.034-1.667-1.416c-0.674-0.486-1.48-0.795-2.343-0.898c-3.307-0.135-6.809,2.245-8.423,5.175    c-0.154,0.317-0.231,0.622-0.289,0.954c-0.22,2.118,0.732,4.121,1.882,5.816c1.868,3.069,4.153,5.844,6.308,8.668    c0.793,1.07,1.671,2.08,2.851,2.628c1.712,1.009,3.427,0.302,5.061-0.639c1.147-0.682,2.168-1.484,2.985-2.518    c0.929-1.113,1.664-2.382,1.678-3.728c-0.095-1.56-0.753-3.143-1.592-4.516L137.42,103.991z M134.81,108.708    c-0.243,2.089-2.703,3.572-4.472,2.604c-1.225-0.974-2.182-2.389-3.3-3.564c-1.182-1.504-2.275-3.115-2.971-4.754    c-0.326-0.939-0.332-1.896-0.043-2.851c0.27-0.859,0.934-1.7,1.901-1.924c1.163-0.19,2.313,0.379,3.122,1.352    c0.48,0.622,1.216,1.484,1.232,1.513l1.393,1.859l0.942,1.34c0.06,0.083,0.463,0.717,0.964,1.491    C134.58,107.492,134.859,107.296,134.81,108.708z"/>
		<path style="fill:#000E3F;" d="M144.313,82.276c-1.271-0.005-3.31,1.713-4.345,2.441c2.567,4.63,5.555,9.566,8.124,14.395    c0.674,2.018-1.847,3.861-3.531,2.278c-3.26-4.657-6.19-9.43-8.777-14.287l-0.016-0.03c-1.365,0.369-3.03,1.588-4.234,2.297    l-0.029,0.017l0.045,0.012c3.138,5.125,6.054,10.543,9.103,15.72c2.28,3.531,7.19,2.58,10.323,0.298    c2.667-1.928,3.165-4.916,1.965-7.697C150.517,92.332,147.516,87.167,144.313,82.276z"/>
		<path style="fill:#000E3F;" d="M172.249,93.758l0.03-0.015C172.269,93.747,172.258,93.754,172.249,93.758L172.249,93.758z"/>
		<path style="fill:#000E3F;" d="M162.25,87.117l0.029-0.016l0.123-0.059c1.907-1.08,2.639-2.768,2.691-4.615    c0.47-5.51-5.25-9.296-10.223-7.178c-3.14,1.112-5.727,2.904-7.864,4.363c1.309,1.908,10.917,21.238,10.671,21.357    c0.354-0.287,4.081-1.684,5.177-2.939c-0.856-1.522-3.151-5.455-3.804-7.417l0.11,0.061c2.796,1.297,6.309,4.144,8.021,5.628    l0.03-0.015c1.891-0.769,3.6-1.825,5.037-2.529c-2.873-2.78-6.782-4.409-9.985-6.61L162.25,87.117z M158.711,83.903    c-0.911,0.633-2.106,1.139-3.103,1.511l-0.03,0.015c-0.603-0.846-1.396-2.703-1.997-3.701c1.158-1.287,2.591-2.173,3.883-1.778    C159.037,80.286,160.108,82.803,158.711,83.903z"/>
		<path style="fill:#000E3F;" d="M187.305,62.605c-1.349,0.485-4.064,1.714-4.707,1.836c-0.417,1.275,0.193,5.701-0.097,5.696    c-0.067,0.024-0.141,0.015-0.229-0.026c-1.032-0.755-2.738-3.481-3.865-4.092l-0.032,0.012c-1.377,0.604-3.282,0.962-4.312,1.731    c6.141,17.498,7.549,21.42,7.918,21.941c0.057,0.053,0.102,0.072,0.131,0.061c1.384-0.497,3.165-0.991,4.463-1.713    c-1.687-3.892-3.38-8.002-4.471-12.146c0.01-0.076,2.945,3.95,3.597,3.751c0.356-0.127,0.105-4.355,0.34-5.42    c1.712,3.45,3.466,8.735,4.942,12.341c1.029-0.369,2.913-1.191,4.253-1.492l-3.588-10.288    C190.395,70.603,188.623,66.776,187.305,62.605z"/>
		<path style="fill:#000E3F;" d="M196.493,59.651l-0.787,0.237c-1.949,0.622-2.829,0.779-3.624,0.982    c-0.297,0.09-1.144,0.237-1.359,0.337l0.019,0.066c1.416,7.56,4.969,15.225,6.718,23.291c0.836-0.536,5.358-1.148,5.859-2.083    c-2.655-7.294-4.539-15.212-6.786-22.7L196.493,59.651z"/>
		<path style="fill:#000E3F;" d="M218.104,75.43c-0.295-1.228-0.541-2.399-0.853-3.693c-0.452-1.893-0.915-3.819-1.396-5.67    l-2.565-10.692c-0.663,0.017-1.409,0.127-2.238,0.325c-0.831,0.201-1.611,0.457-2.344,0.773c0.231,1.105,0.42,2.043,0.644,2.972    c0.38,1.595,0.829,3.032,1.252,4.792c0.184,0.764,0.315,1.751,0.207,1.882c-0.098,0.023-3.705-4.308-4.12-4.877    c-1.242-1.668-1.598-1.829-2.622-3.304c-0.045-0.2-2.27,0.194-2.835,0.33c-0.53,0.126-1.054,0.287-1.461,0.49    c0.446,2.878,1.103,5.917,1.837,8.971c0.995,4.151,1.963,7.747,2.974,11.965l0.558,2.324c1.031-0.247,2.174-0.31,3.235-0.566    c0.499-0.119,0.956-0.263,1.422-0.517c-0.217-0.755-0.446-1.72-0.693-2.748c-0.892-3.72-1.925-8.46-1.793-8.491    c0.098-0.023,0.386,0.434,0.67,0.892l0.57,0.918c1.706,2.576,3.978,5.297,6.227,8.234c0.896-0.214,2.199-0.352,3.095-0.567    c0.765-0.183,0.965-0.373,1.058-0.43l-0.162-0.663C218.561,77.182,218.317,76.328,218.104,75.43z"/>
		<path style="fill:#000E3F;" d="M232.892,62.446c-0.147-0.703-0.29-1.406-0.634-2.079c-0.678-1.726-1.577-3.28-2.787-4.648    c-1.016-1.19-2.607-2.118-4.116-2.266c-2.584,0.502-5.614,0.555-8.081,1.592c-0.027,0.038-0.049,0.111-0.08,0.15    c1.378,7.803,2.035,16.095,4.112,23.064l0.03-0.04c2.835-0.437,5.905-0.911,8.859-1.47c1.39-2.39,2.681-5.008,3.179-7.814    c-0.005-0.034,0.03-0.039,0.025-0.074C233.482,66.742,233.118,64.586,232.892,62.446z M228.255,68.445    c-0.207,0.447-0.484,0.904-0.879,1.242c-0.222,0.137-0.333,0.293-0.577,0.296c-0.796,0.227-1.754,0.513-2.327,0.153    c-0.635-3.011-0.872-6.327-1.416-8.729l-0.022-0.134l0.038-0.006l0.064-0.009c0.786-0.295,1.735-0.407,2.526-0.425    c1.604,0.306,2.267,1.931,2.75,3.273C229.039,65.7,228.846,67.147,228.255,68.445z"/>
		<path style="fill:#000E3F;" d="M116.511,64.832c1.718,2.872,3.11,5.662,6.199,6.361c1.789,0.403,3.161,0.298,5.183-0.714    c1.255-0.631,2.532-1.953,2.668-2.791c0.426,0.182,1.412,0.429,1.643,0.289c0.443-0.264,0.747-0.884,0.947-1.282    c0.248-0.586,0.458-1.031,0.126-1.587c-0.16-0.263-0.627-0.381-1.085-0.546c-0.117-0.925-0.232-1.652-0.395-2.191    c-0.071-0.317-0.196-0.598-0.308-0.851c-0.329-1.077-0.983-2.038-1.474-3.057c-0.612-1.226-1.017-1.9-1.734-3.101    c-1.405-2.345-3.017-4.644-4.956-6.35c-3.194-2.347-4.687-1.651-7.414-0.019c-2.991,1.788-4.634,4.364-4.207,6.338    C112.594,58.619,114.881,62.106,116.511,64.832z M118.435,53.412c1.845-1.104,2.982-0.471,3.94,0.865    c0.99,1.319,1.539,2.105,2.361,3.483c0.528,0.878,1.585,2.514,2.005,3.416c0.143,0.434,0.735,1.553,0.871,1.987    c-0.794-0.201-1.551-1.062-2.048-0.764c-0.44,0.263-0.457,0.832-0.656,1.23c-0.248,0.584-0.741,0.959-0.405,1.515    c0.209,0.353,0.764,0.617,1.315,0.805c0.329,0.082,0.672,0.195,1.049,0.287c-0.192,0.154-0.306,0.223-0.509,0.345    c-1.176,0.703-2.48,0.846-3.623-0.062c-1.08-0.944-2.601-3.817-3.25-4.901c-0.981-1.641-1.501-2.643-2.337-4.373    C116.101,55.166,116.207,54.745,118.435,53.412z"/>
		<path style="fill:#000E3F;" d="M133.853,60.924c2.036,3.679,7,3.063,10.281,0.999c2.794-1.743,3.494-4.691,2.484-7.548    c-2.053-5.542-4.701-10.902-7.559-16.003c-1.269-0.089-3.422,1.486-4.503,2.143c2.246,4.796,4.895,9.926,7.128,14.919    c0.538,2.061-2.104,3.729-3.679,2.035c-2.936-4.872-5.537-9.834-7.787-14.857l-0.017-0.03c-1.389,0.275-3.131,1.378-4.384,2.006    L125.79,44.6l0.047,0.016C128.621,49.944,131.161,55.549,133.853,60.924z"/>
		<path style="fill:#000E3F;" d="M151.28,58.152c0.769-0.633,5.186-1.779,5.573-2.769c-3.508-6.927-6.327-14.566-9.458-21.733    l-0.053-0.127l-0.753,0.33c-1.861,0.85-2.717,1.112-3.482,1.408c-0.278,0.123-1.104,0.371-1.311,0.498l0.028,0.063    C144.136,43.162,148.579,50.351,151.28,58.152z"/>
		<path style="fill:#000E3F;" d="M171.934,49.626c-0.129-1.41-0.705-2.945-1.318-4.284l-0.022-0.065    c-2.875,1.19-5.622,1.93-8.438,2.989l-0.043-0.021c-0.478-0.988-1.257-2.665-1.501-3.995c0.315-0.519,2.558-0.962,3.736-1.806    c-0.621-1.553-0.972-3.064-1.735-4.418l-0.011-0.032c-1.322,0.459-2.653,0.996-3.965,1.38l-0.045-0.019    c-0.72-1.043-0.939-2.492-1.44-3.727l0.02-0.045l0.098-0.036c2.714-1.312,5.742-1.901,8.228-3.53l-0.011-0.032    c-0.565-1.503-0.916-3.12-1.705-4.538c-0.075-0.191-8.305,3.048-13.162,5.164c2.334,7.477,5.398,14.459,8.182,21.875    C163.062,53.288,167.575,51.227,171.934,49.626z"/>
		<path style="fill:#000E3F;" d="M183.095,46.112l-0.008-0.033l-0.008-0.033c-4.541-14.22-5.287-16.599-5.344-17.259    c-0.007-0.032,0.014-0.075,0.006-0.108l0.032-0.01l0.066-0.02c2.03-0.714,3.126-1.113,3.992-1.194    c-0.242-1.638-0.86-3.7-1.387-5.11c-4.63,0.849-9.455,2.471-13.895,3.834c0.008,0.033,0.041,0.024,0.052,0.056    c0.451,2.11,1.403,4.82,1.668,5.098c0.572,0.006,2.872-1.002,4.043-0.782l0.041,0.023c4.174,12.048,5.229,17.008,5.444,17.371    C179.291,47.214,181.572,46.853,183.095,46.112z"/>
	</g>
	<g>
		<g>
			<g>
				<g>
					<path style="fill:#915EFD;" d="M66.303,179.839l-0.045-0.95l-0.679-0.372c-1.822-0.998-10.436,2.474-13.423,4.731       c-0.562,0.425-2.268,1.714-1.907,3.35c0.204,0.984,0.963,1.954,2.49,1.954c0.162,0,0.33-0.011,0.508-0.033       C55.895,188.182,66.402,181.466,66.303,179.839z"/>
					<path style="fill:#915EFD;" d="M70.192,183.011l-0.771,0.059c-2.113,0.163-7.494,7.774-8.771,11.294       c-0.234,0.648-0.949,2.616,0.232,3.782c0.499,0.505,1.082,0.758,1.696,0.758c0.555,0,1.134-0.208,1.691-0.627       c2.027-1.526,7.429-12.819,6.48-14.496L70.192,183.011z"/>
					<path style="fill:#915EFD;" d="M76.573,184.661l-0.9-0.312l-0.6,0.48c-1.715,1.375-2.061,10.93-1.178,14.464       c0.419,1.678,1.167,2.63,2.216,2.826c0.185,0.034,0.365,0.052,0.541,0.052c1.139,0,2.043-0.718,2.474-2.001       C79.982,197.624,78.281,185.515,76.573,184.661z"/>
					<path style="fill:#915EFD;" d="M82.05,182.295c-0.026,0-0.054,0.001-0.08,0.005l-0.913,0.214l-0.237,0.74       c-0.637,1.98,4.17,10.424,7.007,12.97c0.867,0.779,1.677,1.17,2.42,1.17c0.286,0,0.565-0.059,0.829-0.176       c0.487-0.209,1.966-1.05,1.342-3.32C91.531,190.663,83.999,182.295,82.05,182.295z"/>
					<path style="fill:#915EFD;" d="M85.222,177.409c-0.349,0.303-0.536,0.742-0.515,1.206c0.023,0.554,0.347,1.094,0.897,1.49       c0.091,0.064,8.825,6,13.091,6c0.248,0,0.483-0.02,0.698-0.063c0.876-0.173,1.349-0.65,1.591-1.024       c0.295-0.445,1.061-1.955-0.752-3.569C97.423,178.952,86.762,176.084,85.222,177.409z"/>
					<path style="fill:#915EFD;" d="M100.349,166.767c-3.109-0.542-14.494,2.748-14.995,4.733l-0.152,0.894l0.555,0.506       c0.541,0.491,2.132,0.701,4.109,0.701c3.434,0,8.035-0.636,10.303-1.545c0.597-0.24,2.408-0.966,2.535-2.566       C102.757,168.934,102.722,167.186,100.349,166.767z"/>
					<path style="fill:#915EFD;" d="M82.243,166.397l0.344,0.959l0.848,0.101c0.04,0.005,0.082,0.007,0.126,0.007       c2.223-0.001,10.312-5.883,12.308-9.999c0.408-0.861,0.18-1.913-0.579-2.681c-0.729-0.738-1.748-0.971-2.598-0.577       C88.65,156.027,81.725,164.666,82.243,166.397z"/>
					<path style="fill:#915EFD;" d="M77.855,164.27c0.218,0,0.438-0.05,0.649-0.154c1.935-0.956,5.529-10.906,5.011-15.144       c-0.124-0.948-0.893-1.709-1.956-1.941c-1.021-0.22-1.994,0.139-2.486,0.918c-2.591,4.001-3.474,14.569-2.181,15.926       C77.157,164.135,77.501,164.27,77.855,164.27z"/>
					<path style="fill:#915EFD;" d="M65.931,147.91c-1.017,0.356-1.68,1.191-1.689,2.127c-0.077,5.119,5.222,14.355,6.81,14.616       l0.986,0.043l0.422-0.719c1.054-1.804-0.914-11.788-3.914-15.459C67.957,147.797,66.936,147.556,65.931,147.91z"/>
					<path style="fill:#915EFD;" d="M66.067,168.399c0.379,0,0.689-0.08,0.913-0.256c0.19-0.15,1.082-0.97-0.028-2.407       c-0.075-0.091-7.607-9.183-11.566-9.564c-0.907-0.088-1.464,0.23-1.799,0.514c-0.595,0.493-1.741,1.887,0.211,4.313       C55.569,163.2,63.019,168.399,66.067,168.399z"/>
					<path style="fill:#915EFD;" d="M64.827,173.968c0.218-0.402,0.248-0.878,0.082-1.304c-0.194-0.503-0.632-0.894-1.244-1.106       c-1.481-0.496-14.508-4.733-16.131-0.43l-0.024,0.069c-0.157,0.505-0.485,2.231,1.809,3.267       c1.392,0.629,4.524,0.962,7.618,0.962C60.606,175.427,64.221,174.959,64.827,173.968z"/>
				</g>
				<path style="fill:#FC09B2;" d="M75.05,180.317c7.602,0,7.613-11.5,0-11.5C67.448,168.817,67.438,180.317,75.05,180.317z"/>
			</g>
			<g>
				<g>
					<path style="fill:#915EFD;" d="M428.19,277.02l-0.045-0.95l-0.679-0.373c-1.822-0.998-10.437,2.474-13.423,4.731       c-0.562,0.425-2.268,1.714-1.907,3.35c0.204,0.984,0.963,1.954,2.49,1.954c0.162,0,0.33-0.011,0.508-0.033       C417.781,285.364,428.288,278.648,428.19,277.02z"/>
					<path style="fill:#915EFD;" d="M432.079,280.192l-0.771,0.059c-2.113,0.163-7.494,7.774-8.771,11.294       c-0.234,0.648-0.949,2.616,0.232,3.782c0.499,0.505,1.082,0.758,1.696,0.758c0.555,0,1.134-0.208,1.691-0.627       c2.026-1.526,7.429-12.819,6.48-14.496L432.079,280.192z"/>
					<path style="fill:#915EFD;" d="M438.46,281.843l-0.9-0.312l-0.6,0.48c-1.715,1.375-2.062,10.93-1.178,14.464       c0.419,1.678,1.167,2.63,2.216,2.826c0.185,0.034,0.366,0.052,0.541,0.052c1.139,0,2.043-0.718,2.474-2.001       C441.868,294.806,440.168,282.697,438.46,281.843z"/>
					<path style="fill:#915EFD;" d="M443.937,279.477c-0.026,0-0.054,0.001-0.08,0.005l-0.914,0.214l-0.237,0.74       c-0.637,1.981,4.17,10.424,7.007,12.97c0.867,0.779,1.677,1.17,2.42,1.17c0.286,0,0.565-0.059,0.829-0.176       c0.487-0.208,1.966-1.049,1.342-3.32C453.418,287.845,445.886,279.477,443.937,279.477z"/>
					<path style="fill:#915EFD;" d="M447.109,274.59c-0.349,0.303-0.536,0.742-0.516,1.206c0.023,0.554,0.347,1.094,0.897,1.49       c0.091,0.064,8.825,6,13.091,6c0.248,0,0.483-0.02,0.698-0.063c0.876-0.173,1.349-0.65,1.591-1.024       c0.295-0.445,1.061-1.955-0.752-3.569C459.309,276.134,448.648,273.265,447.109,274.59z"/>
					<path style="fill:#915EFD;" d="M462.236,263.949c-3.109-0.542-14.494,2.748-14.995,4.733l-0.152,0.894l0.555,0.506       c0.541,0.491,2.132,0.701,4.109,0.701c3.434,0,8.035-0.636,10.303-1.545c0.597-0.24,2.408-0.966,2.535-2.566       C464.644,266.115,464.609,264.368,462.236,263.949z"/>
					<path style="fill:#915EFD;" d="M444.129,263.578l0.344,0.959l0.848,0.101c0.04,0.005,0.082,0.007,0.126,0.007       c2.223-0.001,10.312-5.884,12.308-10c0.408-0.861,0.18-1.913-0.579-2.681c-0.729-0.738-1.748-0.971-2.598-0.577       C450.536,253.209,443.612,261.847,444.129,263.578z"/>
					<path style="fill:#915EFD;" d="M439.741,261.451c0.218,0,0.438-0.05,0.649-0.154c1.935-0.956,5.529-10.906,5.011-15.144       c-0.124-0.948-0.893-1.709-1.956-1.941c-1.021-0.22-1.993,0.139-2.485,0.918c-2.591,4.001-3.474,14.569-2.181,15.927       C439.043,261.317,439.388,261.451,439.741,261.451z"/>
					<path style="fill:#915EFD;" d="M427.817,245.092c-1.017,0.356-1.68,1.191-1.689,2.127c-0.077,5.119,5.222,14.355,6.81,14.616       l0.986,0.043l0.422-0.719c1.054-1.804-0.914-11.788-3.915-15.459C429.844,244.979,428.822,244.738,427.817,245.092z"/>
					<path style="fill:#915EFD;" d="M427.953,265.58c0.379,0,0.689-0.08,0.914-0.256c0.19-0.15,1.082-0.97-0.028-2.407       c-0.075-0.091-7.607-9.183-11.566-9.564c-0.907-0.088-1.464,0.23-1.799,0.514c-0.595,0.493-1.741,1.887,0.211,4.313       C417.456,260.382,424.905,265.58,427.953,265.58z"/>
					<path style="fill:#915EFD;" d="M426.714,271.15c0.218-0.402,0.249-0.877,0.082-1.304c-0.194-0.502-0.633-0.894-1.244-1.106       c-1.481-0.496-14.508-4.733-16.131-0.43l-0.023,0.069c-0.157,0.505-0.485,2.231,1.809,3.267       c1.392,0.629,4.524,0.962,7.618,0.962C422.493,272.608,426.107,272.141,426.714,271.15z"/>
				</g>
				<path style="fill:#FC09B2;" d="M436.937,277.498c7.602,0,7.613-11.5,0-11.5C429.335,265.998,429.324,277.498,436.937,277.498z"/>
			</g>
			<g>
				<g>
					<path style="fill:#915EFD;" d="M114.868,454.427l-0.045-0.95l-0.679-0.373c-1.822-0.998-10.437,2.474-13.423,4.731       c-0.562,0.425-2.268,1.714-1.907,3.35c0.204,0.984,0.963,1.954,2.49,1.954c0.162,0,0.33-0.01,0.508-0.033       C104.459,462.77,114.966,456.054,114.868,454.427z"/>
					<path style="fill:#915EFD;" d="M118.756,457.599l-0.771,0.059c-2.113,0.163-7.494,7.774-8.771,11.294       c-0.234,0.648-0.949,2.616,0.232,3.782c0.499,0.505,1.082,0.758,1.696,0.758c0.555,0,1.134-0.208,1.691-0.627       c2.027-1.526,7.429-12.819,6.48-14.496L118.756,457.599z"/>
					<path style="fill:#915EFD;" d="M125.138,459.249l-0.9-0.312l-0.6,0.48c-1.715,1.375-2.061,10.929-1.178,14.464       c0.419,1.678,1.167,2.63,2.216,2.826c0.185,0.034,0.365,0.052,0.541,0.052c1.138,0,2.043-0.718,2.474-2.001       C128.546,472.212,126.846,460.103,125.138,459.249z"/>
					<path style="fill:#915EFD;" d="M130.615,456.883c-0.026,0-0.054,0.001-0.08,0.005l-0.913,0.214l-0.237,0.74       c-0.637,1.981,4.17,10.424,7.007,12.97c0.867,0.779,1.678,1.17,2.42,1.17c0.286,0,0.565-0.059,0.829-0.176       c0.487-0.208,1.966-1.049,1.342-3.32C140.096,465.251,132.564,456.883,130.615,456.883z"/>
					<path style="fill:#915EFD;" d="M133.787,451.996c-0.349,0.303-0.536,0.743-0.515,1.207c0.023,0.554,0.347,1.094,0.897,1.49       c0.091,0.065,8.825,6,13.091,6c0.248,0,0.483-0.02,0.698-0.063c0.876-0.173,1.349-0.65,1.591-1.024       c0.295-0.445,1.061-1.955-0.752-3.569C145.987,453.54,135.326,450.672,133.787,451.996z"/>
					<path style="fill:#915EFD;" d="M148.913,441.355c-3.109-0.542-14.494,2.748-14.995,4.733l-0.152,0.894l0.555,0.506       c0.541,0.491,2.132,0.702,4.109,0.702c3.434,0,8.035-0.636,10.303-1.545c0.597-0.24,2.408-0.966,2.535-2.567       C151.322,443.522,151.286,441.774,148.913,441.355z"/>
					<path style="fill:#915EFD;" d="M130.807,440.985l0.344,0.959l0.848,0.101c0.04,0.005,0.082,0.007,0.126,0.007       c2.223-0.001,10.312-5.883,12.308-9.999c0.408-0.861,0.18-1.913-0.579-2.681c-0.729-0.738-1.748-0.971-2.598-0.577       C137.214,430.615,130.289,439.254,130.807,440.985z"/>
					<path style="fill:#915EFD;" d="M126.419,438.858c0.218,0,0.438-0.05,0.649-0.154c1.935-0.956,5.529-10.906,5.011-15.144       c-0.124-0.948-0.893-1.709-1.956-1.941c-1.021-0.22-1.994,0.139-2.486,0.919c-2.591,4.001-3.474,14.569-2.181,15.926       C125.721,438.723,126.066,438.858,126.419,438.858z"/>
					<path style="fill:#915EFD;" d="M114.495,422.498c-1.017,0.356-1.68,1.191-1.689,2.127c-0.077,5.119,5.222,14.355,6.81,14.616       l0.986,0.043l0.422-0.719c1.054-1.804-0.914-11.788-3.914-15.459C116.521,422.385,115.5,422.144,114.495,422.498z"/>
					<path style="fill:#915EFD;" d="M114.631,442.987c0.38,0,0.689-0.08,0.913-0.257c0.19-0.15,1.082-0.97-0.028-2.407       c-0.075-0.091-7.607-9.183-11.566-9.564c-0.907-0.088-1.464,0.23-1.799,0.514c-0.595,0.493-1.741,1.887,0.211,4.313       C104.134,437.788,111.583,442.987,114.631,442.987z"/>
					<path style="fill:#915EFD;" d="M113.392,448.556c0.218-0.402,0.248-0.877,0.082-1.304c-0.194-0.503-0.632-0.894-1.244-1.106       c-1.481-0.495-14.508-4.733-16.131-0.43l-0.024,0.069c-0.157,0.505-0.485,2.231,1.809,3.267       c1.392,0.629,4.524,0.962,7.618,0.962C109.17,450.015,112.785,449.547,113.392,448.556z"/>
				</g>
				<path style="fill:#FC09B2;" d="M123.615,454.905c7.602,0,7.613-11.5,0-11.5C116.013,443.405,116.002,454.905,123.615,454.905z"/>
			</g>
		</g>
		<g>
			<g>
				<g>
					<path style="fill:#FC09B2;" d="M89.979,334.423c-0.235-0.771-1.806-1.088-3.59-1.266c-1.73-0.179-3.661-0.189-4.637,0.032       c-0.972,0.218-1.866,0.854-2.44,1.743c-0.518,0.87-0.698,1.994-0.359,3.074c0.304,1.093,1.194,1.857,2.165,2.23       c0.973,0.378,2.052,0.36,2.962-0.047c0.911-0.406,2.495-1.538,3.801-2.687C89.189,336.339,90.179,335.207,89.979,334.423z"/>
					<path style="fill:#FC09B2;" d="M91.633,344.269c-1.678,0.462-3.498,1.165-4.325,1.722c-1.654,1.069-2.381,3.772-0.864,5.503       c1.416,1.815,4.21,1.599,5.567,0.176c0.702-0.708,1.766-2.331,2.56-3.868c0.763-1.524,1.363-3.018,0.853-3.644       C94.919,343.529,93.288,343.84,91.633,344.269z"/>
					<path style="fill:#FC09B2;" d="M102.526,351.514c-0.596,0.266-1.292,0.715-1.996,1.235c-1.406,1.043-2.854,2.358-3.424,3.176       c-0.571,0.818-0.793,1.874-0.607,2.902c0.175,1.038,0.771,2.028,1.781,2.542c0.997,0.532,2.117,0.6,3.087,0.22       c0.982-0.394,1.773-1.145,2.172-2.059c0.401-0.913,0.806-2.806,0.99-4.516c0.176-1.721,0.207-3.349-0.509-3.721       C103.663,351.097,103.138,351.223,102.526,351.514z"/>
					<path style="fill:#FC09B2;" d="M114.592,354.846c-0.806-0.06-1.768,1.086-2.719,2.603c-0.934,1.494-1.809,3.252-2.045,4.222       c-0.505,1.908,0.802,4.303,3.074,4.651c2.287,0.241,4.188-1.57,4.234-3.618c0.041-0.996-0.269-2.881-0.716-4.604       C115.962,356.393,115.395,354.923,114.592,354.846z"/>
					<path style="fill:#FC09B2;" d="M128.629,356.684c-1.043-1.435-2.066-2.481-2.869-2.367c-0.792,0.156-1.256,1.684-1.599,3.439       c-0.33,1.759-0.525,3.635-0.393,4.641c0.126,0.975,0.682,1.969,1.507,2.57c0.819,0.601,1.922,0.891,3.029,0.661       c1.117-0.189,1.951-1.048,2.419-1.956c0.468-0.93,0.551-2.003,0.23-2.947C130.634,359.779,129.654,358.094,128.629,356.684z"/>
					<path style="fill:#FC09B2;" d="M139.501,350.976c-1.451-0.904-2.869-1.62-3.547-1.182c-0.681,0.431-0.509,2.105-0.236,3.789       c0.303,1.711,0.834,3.586,1.313,4.461c0.918,1.757,3.531,2.712,5.401,1.367c1.946-1.235,1.974-4.055,0.688-5.527       C142.479,353.119,140.959,351.91,139.501,350.976z"/>
					<path style="fill:#FC09B2;" d="M152.003,343.127c-0.872-0.483-2.72-1.062-4.409-1.405c-1.676-0.321-3.314-0.513-3.748,0.167       c-0.227,0.338-0.158,0.867,0.083,1.509c0.22,0.626,0.594,1.353,1.049,2.103c0.907,1.494,2.083,3.056,2.845,3.699       c0.761,0.644,1.794,0.963,2.837,0.873c0.521-0.044,1.042-0.188,1.523-0.433c0.449-0.268,0.853-0.641,1.169-1.108       c0.62-0.945,0.811-2.041,0.499-3.055C153.55,344.464,152.877,343.608,152.003,343.127z"/>
					<path style="fill:#FC09B2;" d="M156.415,329.883c-1.003-0.136-2.88,0.004-4.629,0.29c-1.747,0.298-3.269,0.724-3.426,1.514       c-0.116,0.801,0.931,1.864,2.346,2.95c1.397,1.068,3.064,2.102,4.007,2.426c1.843,0.677,4.39-0.389,4.915-2.628       c0.233-1.108-0.054-2.213-0.653-3.035C158.387,330.574,157.387,330.012,156.415,329.883z"/>
					<path style="fill:#FC09B2;" d="M151.484,317.882c-1.521,0.905-2.694,1.834-2.612,2.639c0.074,0.806,1.545,1.411,3.255,1.914       c1.727,0.49,3.62,0.852,4.612,0.814c2.048-0.042,3.862-1.934,3.629-4.217c-0.33-2.271-2.732-3.586-4.639-3.09       C154.759,316.172,152.988,316.992,151.484,317.882z"/>
					<path style="fill:#FC09B2;" d="M145.542,308.478c-0.304,0.603-0.43,1.116-0.236,1.474c0.369,0.716,2.027,0.711,3.755,0.583       c1.729-0.142,3.643-0.496,4.558-0.892c1.847-0.758,3.017-3.259,1.861-5.252c-0.271-0.496-0.638-0.905-1.059-1.216       c-0.445-0.296-0.959-0.485-1.472-0.579c-1.031-0.188-2.09,0.03-2.91,0.599c-0.82,0.567-2.165,1.97-3.232,3.338       C146.276,307.217,145.815,307.895,145.542,308.478z"/>
					<path style="fill:#FC09B2;" d="M141.864,300.573c1.569-0.764,3.231-1.791,3.942-2.491c0.711-0.699,1.124-1.7,1.133-2.748       c0.031-1.066-0.406-2.114-1.29-2.819c-1.736-1.511-4.418-0.82-5.505,0.845c-0.561,0.824-1.309,2.613-1.806,4.265       c-0.466,1.63-0.811,3.246-0.176,3.745C138.793,301.874,140.307,301.306,141.864,300.573z"/>
					<path style="fill:#FC09B2;" d="M132.197,284.969c-1.08-0.34-2.205-0.162-3.079,0.354c-0.887,0.55-1.531,1.457-1.753,2.423       c-0.225,0.976-0.269,2.893-0.137,4.62c0.133,1.77,0.415,3.33,1.185,3.566c0.783,0.2,1.952-0.778,3.157-2.067       c1.192-1.288,2.375-2.851,2.786-3.759c0.412-0.908,0.434-1.985,0.059-2.957C134.04,286.192,133.29,285.272,132.197,284.969z"/>
					<path style="fill:#FC09B2;" d="M116.918,282.793c-2.286,0.176-3.817,2.379-3.499,4.341c0.14,0.987,0.794,2.83,1.543,4.414       c0.761,1.587,1.586,2.901,2.392,2.828c0.809,0.009,1.546-1.392,2.203-3.042c0.645-1.651,1.18-3.547,1.233-4.543       C120.931,284.8,119.213,282.782,116.918,282.793z"/>
					<path style="fill:#FC09B2;" d="M104.992,286.396c-0.927-0.471-2.05-0.512-3.096-0.078c-1.056,0.414-1.749,1.338-2.021,2.358       c-0.284,1.007-0.166,2.08,0.325,2.949c0.489,0.869,1.762,2.34,3.026,3.53c1.27,1.176,2.506,2.09,3.263,1.808       c0.746-0.304,0.906-1.925,0.926-3.69c0.021-1.73-0.153-3.667-0.462-4.615C106.646,287.71,105.932,286.885,104.992,286.396z"/>
					<path style="fill:#FC09B2;" d="M89.498,300.577c0.769,0.635,2.482,1.544,4.084,2.193c1.584,0.617,3.144,1.092,3.71,0.516       c0.57-0.572,0.127-2.149-0.456-3.763c-0.616-1.631-1.484-3.379-2.116-4.151c-1.21-1.54-3.981-2.031-5.558-0.354       C87.492,296.602,87.948,299.349,89.498,300.577z"/>
					<path style="fill:#FC09B2;" d="M82.732,312.781c0.947,0.314,2.867,0.541,4.584,0.565c1.758,0.026,3.356-0.103,3.663-0.848       c0.28-0.759-0.614-2.027-1.769-3.338c-1.17-1.305-2.615-2.627-3.482-3.119c-0.866-0.494-1.938-0.616-2.942-0.335       c-1.003,0.277-1.959,0.951-2.371,2.008c-0.441,1.042-0.38,2.174,0.061,3.094C80.962,311.751,81.785,312.469,82.732,312.781z"/>
					<path style="fill:#FC09B2;" d="M85.363,325.479c1.652-0.613,3.056-1.315,3.05-2.124c0.035-0.806-1.243-1.662-2.833-2.468       c-1.579-0.792-3.414-1.501-4.401-1.645c-1.959-0.326-4.169,1.2-4.349,3.49c-0.017,2.295,1.997,4.019,3.987,3.881       C81.813,326.563,83.711,326.08,85.363,325.479z"/>
				</g>
				<g>
					<path style="fill:#4217A6;" d="M108.358,330.3c0.192-0.171,0.317-0.378,0.308-0.553c0.024-0.309-0.318-0.444-0.77-0.332       c-1.159,0.294-2.295,0.64-3.42,1c-1.126,0.368-2.222,0.759-3.305,1.206c-1.08,0.445-2.15,0.95-3.161,1.541       c-1.008,0.604-1.99,1.269-2.839,2.206c-0.196,0.221-0.281,0.582-0.19,0.98c0.134,0.667,0.74,1.134,1.26,1.059       c1.262-0.174,2.369-0.608,3.441-1.097c1.066-0.502,2.077-1.09,3.059-1.729c0.981-0.638,1.933-1.325,2.869-2.04       C106.544,331.821,107.468,331.084,108.358,330.3z"/>
					<path style="fill:#4217A6;" d="M112.424,334.498c-0.819,0.874-1.59,1.779-2.342,2.689c-0.741,0.905-1.456,1.83-2.126,2.79       c-0.67,0.96-1.293,1.955-1.835,3.009c-0.526,1.058-0.991,2.141-1.201,3.388c-0.046,0.291,0.077,0.64,0.369,0.925       c0.474,0.484,1.227,0.569,1.63,0.216c0.971-0.828,1.669-1.792,2.309-2.784c0.627-0.998,1.162-2.039,1.644-3.106       c0.482-1.067,0.913-2.159,1.315-3.264c0.396-1.109,0.776-2.226,1.103-3.364c0.071-0.251,0.058-0.478-0.034-0.639       C113.108,334.087,112.745,334.16,112.424,334.498z"/>
					<path style="fill:#4217A6;" d="M120.861,339.698c-0.266-1.148-0.547-2.272-0.889-3.418c-0.076-0.251-0.214-0.464-0.379-0.546       c-0.273-0.137-0.541,0.132-0.628,0.594c-0.217,1.199-0.375,2.331-0.515,3.503c-0.133,1.164-0.233,2.331-0.277,3.501       c-0.044,1.17-0.029,2.342,0.088,3.52c0.13,1.168,0.326,2.379,0.822,3.525c0.118,0.268,0.409,0.489,0.808,0.564       c0.657,0.123,1.336-0.188,1.485-0.682c0.368-1.219,0.434-2.422,0.436-3.603c-0.012-1.182-0.125-2.349-0.296-3.507       C121.347,341.991,121.12,340.842,120.861,339.698z"/>
					<path style="fill:#4217A6;" d="M133.451,341.476c-0.652-0.988-1.38-1.908-2.151-2.789c-0.771-0.881-1.584-1.723-2.42-2.543       c-0.838-0.811-1.695-1.616-2.613-2.405c-0.199-0.168-0.427-0.27-0.607-0.246c-0.3,0.033-0.362,0.429-0.2,0.841       c0.447,1.092,0.946,2.159,1.46,3.216c0.52,1.054,1.068,2.091,1.665,3.098c0.596,1.007,1.243,1.984,1.976,2.909       c0.745,0.916,1.547,1.8,2.605,2.521c0.252,0.171,0.623,0.207,0.991,0.043c0.615-0.261,1.013-0.898,0.869-1.397       C134.689,343.519,134.092,342.474,133.451,341.476z"/>
					<path style="fill:#4217A6;" d="M140.441,330.827c-1.083-0.479-2.193-0.86-3.318-1.184c-1.124-0.324-2.263-0.593-3.409-0.831       c-1.139-0.228-2.323-0.452-3.507-0.617c-0.258-0.035-0.503,0.003-0.639,0.12c-0.221,0.194-0.078,0.549,0.283,0.81       c0.967,0.678,1.965,1.308,2.968,1.921c1.007,0.607,2.028,1.185,3.073,1.712c1.045,0.527,2.117,1.001,3.232,1.383       c1.121,0.369,2.272,0.68,3.55,0.716c0.294,0.003,0.648-0.157,0.866-0.496c0.374-0.555,0.362-1.31-0.029-1.653       C142.566,331.87,141.528,331.322,140.441,330.827z"/>
					<path style="fill:#4217A6;" d="M144.152,318.015c-1.257-0.193-2.441-0.09-3.607,0.075c-1.163,0.18-2.3,0.457-3.421,0.792       c-1.122,0.334-2.23,0.724-3.331,1.145c-1.099,0.427-2.195,0.873-3.274,1.372c-0.233,0.11-0.413,0.273-0.456,0.442       c-0.085,0.284,0.178,0.516,0.649,0.536c1.192,0.047,2.376,0.038,3.556,0.011c1.179-0.034,2.352-0.099,3.517-0.221       c1.165-0.122,2.32-0.301,3.462-0.581c1.139-0.295,2.27-0.654,3.354-1.312c0.252-0.156,0.438-0.479,0.466-0.886       C145.136,318.711,144.657,318.094,144.152,318.015z"/>
					<path style="fill:#4217A6;" d="M127.81,316.246c1.031-0.608,2.024-1.259,3.002-1.923c0.97-0.665,1.913-1.35,2.826-2.084       c0.912-0.733,1.791-1.514,2.604-2.373c0.796-0.864,1.551-1.777,2.102-2.914c0.127-0.267,0.107-0.636-0.093-0.991       c-0.317-0.599-1.021-0.884-1.503-0.662c-1.162,0.522-2.104,1.25-2.996,2.021c-0.882,0.781-1.688,1.63-2.451,2.518       c-0.763,0.888-1.483,1.815-2.181,2.763c-0.692,0.953-1.371,1.919-2.005,2.921c-0.138,0.22-0.194,0.448-0.143,0.621       C127.038,316.446,127.407,316.48,127.81,316.246z"/>
					<path style="fill:#4217A6;" d="M125.884,299.128c-0.039-0.292-0.256-0.59-0.619-0.779c-0.597-0.316-1.337-0.213-1.625,0.248       c-0.696,1.073-1.093,2.198-1.426,3.331c-0.319,1.136-0.537,2.287-0.697,3.446s-0.264,2.328-0.336,3.501       c-0.065,1.174-0.113,2.352-0.102,3.532c0.003,0.255,0.08,0.476,0.211,0.613c0.218,0.215,0.545,0.039,0.758-0.378       c0.536-1.068,1.024-2.17,1.482-3.237c0.454-1.078,0.879-2.168,1.251-3.279c0.371-1.11,0.688-2.24,0.908-3.404       C125.899,301.548,126.037,300.381,125.884,299.128z"/>
					<path style="fill:#4217A6;" d="M114.031,305.784c-0.287-1.135-0.63-2.255-1.072-3.35c-0.456-1.091-0.975-2.167-1.787-3.16       c-0.194-0.238-0.534-0.357-0.938-0.314c-0.666,0.075-1.231,0.573-1.235,1.091c-0.02,1.247,0.264,2.434,0.596,3.565       c0.347,1.131,0.786,2.219,1.278,3.281c0.492,1.062,1.035,2.1,1.606,3.123c0.578,1.021,1.167,2.02,1.825,3.04       c0.143,0.218,0.333,0.381,0.512,0.41c0.296,0.052,0.469-0.295,0.424-0.754c-0.12-1.17-0.296-2.334-0.49-3.492       C114.549,308.069,114.318,306.919,114.031,305.784z"/>
					<path style="fill:#4217A6;" d="M99.897,311.867c0.903,0.765,1.86,1.445,2.847,2.074c0.987,0.629,2.004,1.21,3.036,1.762       c1.03,0.543,2.086,1.08,3.184,1.578c0.238,0.106,0.486,0.139,0.651,0.065c0.276-0.119,0.229-0.511-0.042-0.862       c-0.735-0.924-1.514-1.809-2.304-2.679c-0.795-0.866-1.612-1.708-2.467-2.507c-0.855-0.8-1.75-1.556-2.713-2.237       c-0.972-0.67-1.989-1.293-3.205-1.689c-0.286-0.091-0.659-0.028-0.965,0.234c-0.516,0.423-0.719,1.147-0.44,1.586       C98.139,310.255,98.997,311.087,99.897,311.867z"/>
					<path style="fill:#4217A6;" d="M99.699,324.262c1.171-0.005,2.345-0.068,3.522-0.162c1.177-0.102,2.357-0.222,3.539-0.4       c0.256-0.04,0.478-0.148,0.572-0.3c0.138-0.255-0.058-0.552-0.491-0.701c-1.123-0.378-2.26-0.699-3.398-1.003       c-1.139-0.297-2.282-0.562-3.435-0.771c-1.152-0.209-2.313-0.36-3.489-0.41c-1.179-0.036-2.368-0.008-3.6,0.32       c-0.287,0.079-0.561,0.336-0.706,0.719c-0.195,0.634,0.036,1.352,0.51,1.57c1.147,0.535,2.309,0.768,3.472,0.937       C97.36,324.214,98.528,324.267,99.699,324.262z"/>
				</g>
				<circle style="fill:#FD8A02;" cx="118.609" cy="324.568" r="5.75"/>
			</g>
			<g>
				<g>
					<path style="fill:#FC09B2;" d="M358.518,82.681c-0.235-0.771-1.805-1.088-3.589-1.266c-1.73-0.178-3.661-0.189-4.638,0.032       c-0.972,0.219-1.866,0.854-2.44,1.744c-0.518,0.871-0.698,1.994-0.359,3.074c0.304,1.093,1.194,1.857,2.165,2.23       c0.973,0.379,2.051,0.36,2.962-0.047c0.911-0.406,2.495-1.538,3.801-2.687C357.729,84.598,358.718,83.466,358.518,82.681z"/>
					<path style="fill:#FC09B2;" d="M360.172,92.528c-1.678,0.462-3.498,1.165-4.324,1.722c-1.654,1.069-2.381,3.772-0.864,5.503       c1.416,1.816,4.21,1.599,5.566,0.176c0.702-0.708,1.767-2.331,2.561-3.868c0.763-1.524,1.363-3.019,0.853-3.645       C363.458,91.787,361.828,92.098,360.172,92.528z"/>
					<path style="fill:#FC09B2;" d="M371.066,99.772c-0.596,0.265-1.292,0.716-1.996,1.235c-1.406,1.042-2.854,2.358-3.424,3.176       c-0.571,0.817-0.793,1.874-0.607,2.902c0.175,1.038,0.772,2.028,1.782,2.542c0.997,0.532,2.117,0.6,3.087,0.22       c0.982-0.394,1.773-1.145,2.172-2.059c0.4-0.913,0.806-2.805,0.989-4.516c0.176-1.721,0.207-3.349-0.508-3.721       C372.203,99.355,371.678,99.482,371.066,99.772z"/>
					<path style="fill:#FC09B2;" d="M383.131,103.104c-0.806-0.06-1.768,1.086-2.719,2.603c-0.934,1.494-1.809,3.253-2.045,4.222       c-0.505,1.908,0.802,4.303,3.073,4.651c2.287,0.241,4.187-1.57,4.234-3.618c0.042-0.996-0.269-2.881-0.715-4.603       C384.501,104.651,383.934,103.181,383.131,103.104z"/>
					<path style="fill:#FC09B2;" d="M397.169,104.942c-1.043-1.435-2.066-2.481-2.869-2.367c-0.792,0.156-1.256,1.684-1.599,3.439       c-0.33,1.76-0.525,3.635-0.393,4.641c0.126,0.975,0.682,1.969,1.507,2.57c0.819,0.601,1.922,0.891,3.03,0.661       c1.117-0.189,1.951-1.048,2.419-1.956c0.468-0.93,0.551-2.003,0.23-2.947C399.174,108.038,398.193,106.353,397.169,104.942z"/>
					<path style="fill:#FC09B2;" d="M408.04,99.234c-1.451-0.904-2.869-1.62-3.547-1.182c-0.681,0.432-0.509,2.105-0.236,3.789       c0.303,1.711,0.834,3.586,1.313,4.461c0.919,1.756,3.531,2.712,5.401,1.367c1.945-1.235,1.973-4.055,0.688-5.527       C411.019,101.377,409.499,100.168,408.04,99.234z"/>
					<path style="fill:#FC09B2;" d="M420.544,91.385c-0.873-0.483-2.721-1.062-4.41-1.404c-1.676-0.321-3.314-0.514-3.748,0.166       c-0.227,0.338-0.158,0.866,0.083,1.509c0.22,0.625,0.594,1.352,1.049,2.103c0.907,1.494,2.083,3.056,2.845,3.699       c0.762,0.644,1.794,0.963,2.837,0.873c0.521-0.044,1.042-0.188,1.522-0.433c0.449-0.269,0.853-0.641,1.169-1.109       c0.619-0.944,0.811-2.04,0.499-3.055C422.09,92.722,421.416,91.867,420.544,91.385z"/>
					<path style="fill:#FC09B2;" d="M424.955,78.141c-1.003-0.136-2.88,0.004-4.629,0.29c-1.746,0.297-3.269,0.724-3.426,1.514       c-0.116,0.801,0.931,1.865,2.346,2.95c1.396,1.068,3.064,2.102,4.007,2.426c1.843,0.677,4.39-0.389,4.915-2.628       c0.232-1.108-0.054-2.213-0.653-3.035C426.927,78.832,425.926,78.271,424.955,78.141z"/>
					<path style="fill:#FC09B2;" d="M420.024,66.141c-1.521,0.905-2.695,1.834-2.612,2.639c0.074,0.806,1.545,1.411,3.255,1.914       c1.726,0.49,3.62,0.852,4.612,0.814c2.048-0.042,3.863-1.935,3.629-4.218c-0.33-2.271-2.732-3.586-4.639-3.09       C423.299,64.43,421.527,65.25,420.024,66.141z"/>
					<path style="fill:#FC09B2;" d="M414.081,56.736c-0.305,0.603-0.43,1.116-0.235,1.474c0.369,0.716,2.027,0.711,3.755,0.583       c1.728-0.142,3.642-0.496,4.558-0.891c1.848-0.758,3.018-3.259,1.861-5.253c-0.27-0.496-0.638-0.905-1.059-1.216       c-0.446-0.296-0.959-0.485-1.471-0.579c-1.031-0.188-2.09,0.031-2.91,0.599c-0.82,0.567-2.166,1.97-3.232,3.338       C414.816,55.476,414.355,56.153,414.081,56.736z"/>
					<path style="fill:#FC09B2;" d="M410.404,48.831c1.569-0.764,3.231-1.791,3.942-2.491c0.711-0.699,1.124-1.699,1.132-2.748       c0.031-1.066-0.405-2.113-1.29-2.819c-1.736-1.51-4.418-0.82-5.505,0.845c-0.562,0.824-1.309,2.612-1.807,4.265       c-0.466,1.63-0.81,3.246-0.176,3.745C407.332,50.133,408.846,49.564,410.404,48.831z"/>
					<path style="fill:#FC09B2;" d="M400.736,33.228c-1.079-0.34-2.205-0.162-3.078,0.354c-0.888,0.549-1.532,1.457-1.753,2.423       c-0.225,0.976-0.269,2.893-0.137,4.619c0.133,1.77,0.415,3.33,1.185,3.566c0.784,0.201,1.952-0.778,3.158-2.067       c1.191-1.288,2.375-2.85,2.786-3.76c0.412-0.908,0.434-1.985,0.059-2.957C402.58,34.45,401.829,33.531,400.736,33.228z"/>
					<path style="fill:#FC09B2;" d="M385.458,31.051c-2.286,0.175-3.817,2.379-3.499,4.34c0.14,0.987,0.794,2.83,1.543,4.415       c0.761,1.587,1.586,2.901,2.391,2.828c0.809,0.009,1.546-1.392,2.203-3.042c0.645-1.651,1.18-3.548,1.233-4.543       C389.472,33.059,387.753,31.04,385.458,31.051z"/>
					<path style="fill:#FC09B2;" d="M373.532,34.654c-0.928-0.471-2.051-0.512-3.096-0.078c-1.056,0.414-1.749,1.338-2.021,2.358       c-0.285,1.007-0.166,2.08,0.325,2.949c0.489,0.869,1.762,2.34,3.026,3.53c1.27,1.176,2.506,2.09,3.263,1.808       c0.746-0.304,0.906-1.925,0.927-3.69c0.02-1.731-0.153-3.667-0.462-4.615C375.186,35.968,374.472,35.143,373.532,34.654z"/>
					<path style="fill:#FC09B2;" d="M358.038,48.836c0.77,0.635,2.482,1.544,4.084,2.192c1.584,0.617,3.144,1.093,3.71,0.517       c0.57-0.573,0.127-2.15-0.456-3.763c-0.616-1.631-1.484-3.379-2.116-4.151c-1.209-1.54-3.981-2.031-5.558-0.354       C356.032,44.86,356.489,47.608,358.038,48.836z"/>
					<path style="fill:#FC09B2;" d="M351.272,61.04c0.946,0.314,2.866,0.541,4.584,0.564c1.758,0.026,3.356-0.103,3.663-0.848       c0.281-0.759-0.613-2.027-1.769-3.338c-1.169-1.305-2.614-2.627-3.481-3.119c-0.867-0.493-1.938-0.616-2.943-0.334       c-1.004,0.277-1.96,0.951-2.371,2.008c-0.441,1.042-0.38,2.174,0.061,3.094C349.502,60.009,350.325,60.727,351.272,61.04z"/>
					<path style="fill:#FC09B2;" d="M353.903,73.737c1.652-0.613,3.056-1.315,3.05-2.124c0.036-0.806-1.243-1.662-2.833-2.468       c-1.578-0.793-3.414-1.501-4.401-1.646c-1.96-0.326-4.17,1.2-4.349,3.49c-0.017,2.295,1.997,4.019,3.987,3.882       C350.353,74.821,352.25,74.339,353.903,73.737z"/>
				</g>
				<g>
					<path style="fill:#4217A6;" d="M376.898,78.559c0.192-0.171,0.317-0.378,0.309-0.553c0.024-0.309-0.318-0.444-0.77-0.332       c-1.159,0.294-2.294,0.64-3.42,1c-1.126,0.368-2.222,0.759-3.305,1.206c-1.079,0.445-2.15,0.95-3.161,1.541       c-1.008,0.604-1.989,1.269-2.839,2.206c-0.197,0.221-0.282,0.582-0.191,0.981c0.134,0.667,0.74,1.133,1.26,1.059       c1.262-0.174,2.37-0.608,3.442-1.098c1.065-0.502,2.077-1.09,3.058-1.728c0.982-0.638,1.934-1.325,2.869-2.04       C375.083,80.08,376.008,79.343,376.898,78.559z"/>
					<path style="fill:#4217A6;" d="M380.964,82.757c-0.819,0.874-1.59,1.779-2.343,2.689c-0.74,0.905-1.456,1.831-2.126,2.79       c-0.67,0.96-1.293,1.955-1.834,3.009c-0.526,1.058-0.991,2.141-1.201,3.388c-0.046,0.291,0.077,0.64,0.369,0.925       c0.474,0.484,1.227,0.569,1.631,0.216c0.97-0.828,1.669-1.792,2.308-2.784c0.627-0.998,1.162-2.039,1.644-3.106       c0.482-1.067,0.913-2.159,1.315-3.265c0.396-1.109,0.776-2.226,1.103-3.364c0.072-0.252,0.057-0.478-0.034-0.638       C381.648,82.346,381.285,82.418,380.964,82.757z"/>
					<path style="fill:#4217A6;" d="M389.401,87.956c-0.266-1.148-0.547-2.272-0.889-3.418c-0.076-0.251-0.214-0.463-0.379-0.545       c-0.273-0.137-0.541,0.132-0.628,0.594c-0.217,1.199-0.375,2.331-0.515,3.503c-0.133,1.164-0.233,2.331-0.277,3.501       c-0.044,1.17-0.029,2.343,0.088,3.52c0.131,1.168,0.326,2.379,0.822,3.525c0.118,0.268,0.409,0.489,0.808,0.563       c0.657,0.123,1.336-0.188,1.485-0.682c0.367-1.219,0.434-2.422,0.436-3.603c-0.012-1.182-0.125-2.348-0.296-3.507       C389.887,90.25,389.66,89.1,389.401,87.956z"/>
					<path style="fill:#4217A6;" d="M401.991,89.734c-0.652-0.988-1.38-1.908-2.151-2.789c-0.771-0.881-1.584-1.723-2.42-2.543       c-0.838-0.811-1.695-1.616-2.612-2.405c-0.199-0.169-0.428-0.27-0.607-0.246c-0.301,0.033-0.362,0.43-0.2,0.841       c0.447,1.091,0.946,2.159,1.46,3.216c0.52,1.053,1.068,2.09,1.665,3.098c0.596,1.008,1.243,1.984,1.976,2.908       c0.745,0.916,1.547,1.8,2.604,2.521c0.252,0.171,0.622,0.207,0.991,0.043c0.615-0.261,1.013-0.898,0.869-1.397       C403.229,91.777,402.632,90.732,401.991,89.734z"/>
					<path style="fill:#4217A6;" d="M408.981,79.085c-1.084-0.479-2.194-0.86-3.318-1.184c-1.125-0.324-2.264-0.593-3.409-0.831       c-1.139-0.228-2.323-0.452-3.507-0.617c-0.258-0.035-0.504,0.003-0.639,0.12c-0.222,0.194-0.078,0.55,0.283,0.811       c0.967,0.679,1.964,1.308,2.968,1.921c1.007,0.607,2.028,1.185,3.073,1.712c1.045,0.527,2.117,1.001,3.232,1.383       c1.121,0.369,2.272,0.68,3.55,0.716c0.294,0.003,0.649-0.157,0.866-0.497c0.374-0.554,0.362-1.309-0.029-1.652       C411.105,80.128,410.068,79.58,408.981,79.085z"/>
					<path style="fill:#4217A6;" d="M412.692,66.273c-1.257-0.192-2.441-0.09-3.607,0.076c-1.163,0.179-2.3,0.457-3.422,0.792       c-1.122,0.334-2.23,0.724-3.331,1.145c-1.098,0.428-2.195,0.873-3.274,1.372c-0.233,0.109-0.413,0.273-0.456,0.442       c-0.084,0.284,0.178,0.516,0.649,0.536c1.191,0.048,2.376,0.038,3.556,0.012c1.179-0.034,2.352-0.099,3.517-0.221       c1.164-0.122,2.32-0.301,3.462-0.581c1.139-0.294,2.271-0.653,3.355-1.312c0.252-0.156,0.438-0.478,0.466-0.886       C413.676,66.969,413.197,66.352,412.692,66.273z"/>
					<path style="fill:#4217A6;" d="M396.349,64.504c1.031-0.608,2.024-1.259,3.003-1.922c0.97-0.666,1.912-1.35,2.826-2.084       c0.912-0.733,1.79-1.515,2.604-2.373c0.797-0.864,1.551-1.777,2.102-2.913c0.126-0.267,0.106-0.636-0.093-0.991       c-0.317-0.598-1.021-0.883-1.504-0.662c-1.162,0.522-2.104,1.25-2.995,2.021c-0.882,0.781-1.688,1.63-2.451,2.518       c-0.763,0.888-1.484,1.814-2.181,2.763c-0.692,0.953-1.372,1.919-2.005,2.921c-0.137,0.22-0.193,0.448-0.143,0.621       C395.578,64.704,395.946,64.738,396.349,64.504z"/>
					<path style="fill:#4217A6;" d="M394.424,47.387c-0.038-0.292-0.256-0.59-0.619-0.779c-0.597-0.316-1.338-0.213-1.625,0.248       c-0.695,1.073-1.093,2.198-1.426,3.331c-0.318,1.136-0.536,2.287-0.696,3.446c-0.16,1.16-0.264,2.328-0.336,3.501       c-0.065,1.174-0.112,2.352-0.102,3.532c0.004,0.255,0.081,0.476,0.211,0.613c0.219,0.214,0.546,0.039,0.757-0.378       c0.537-1.069,1.025-2.17,1.483-3.237c0.454-1.078,0.879-2.168,1.251-3.279c0.372-1.11,0.688-2.24,0.909-3.404       C394.439,49.806,394.577,48.639,394.424,47.387z"/>
					<path style="fill:#4217A6;" d="M382.571,54.043c-0.286-1.135-0.63-2.256-1.072-3.35c-0.456-1.091-0.975-2.166-1.787-3.159       c-0.194-0.238-0.534-0.357-0.938-0.314c-0.666,0.075-1.231,0.572-1.235,1.091c-0.019,1.248,0.265,2.434,0.596,3.565       c0.347,1.132,0.786,2.219,1.278,3.281c0.491,1.062,1.035,2.1,1.606,3.122c0.578,1.021,1.167,2.02,1.825,3.04       c0.143,0.219,0.334,0.381,0.512,0.411c0.296,0.052,0.469-0.295,0.424-0.754c-0.12-1.17-0.297-2.334-0.49-3.492       C383.089,56.327,382.858,55.178,382.571,54.043z"/>
					<path style="fill:#4217A6;" d="M368.436,60.126c0.903,0.765,1.86,1.445,2.847,2.074c0.987,0.629,2.004,1.21,3.036,1.762       c1.03,0.543,2.085,1.08,3.184,1.577c0.238,0.106,0.485,0.139,0.65,0.065c0.275-0.119,0.23-0.511-0.042-0.862       c-0.735-0.924-1.514-1.809-2.304-2.68c-0.795-0.865-1.612-1.707-2.467-2.507c-0.855-0.8-1.75-1.555-2.712-2.237       c-0.972-0.67-1.989-1.293-3.205-1.689c-0.286-0.091-0.659-0.028-0.965,0.234c-0.516,0.423-0.719,1.147-0.441,1.586       C366.678,58.513,367.537,59.345,368.436,60.126z"/>
					<path style="fill:#4217A6;" d="M368.239,72.52c1.171-0.005,2.345-0.067,3.522-0.162c1.177-0.102,2.357-0.222,3.54-0.4       c0.256-0.04,0.478-0.148,0.572-0.3c0.139-0.255-0.058-0.552-0.491-0.701c-1.124-0.378-2.26-0.699-3.398-1.003       c-1.139-0.297-2.283-0.563-3.435-0.771c-1.152-0.209-2.313-0.36-3.49-0.41c-1.178-0.036-2.368-0.008-3.6,0.32       c-0.286,0.079-0.561,0.336-0.705,0.719c-0.195,0.634,0.036,1.352,0.511,1.57c1.146,0.534,2.308,0.768,3.472,0.937       C365.9,72.472,367.068,72.525,368.239,72.52z"/>
				</g>
				<path style="fill:#FD8A02;" d="M381.399,72.826c0,3.176,2.574,5.75,5.75,5.75c3.176,0,5.75-2.574,5.75-5.75      c0-3.176-2.574-5.75-5.75-5.75C383.973,67.076,381.399,69.65,381.399,72.826z"/>
			</g>
			<g>
				<g>
					<path style="fill:#FC09B2;" d="M391.678,401.642c-0.235-0.771-1.805-1.088-3.589-1.266c-1.731-0.179-3.662-0.189-4.638,0.032       c-0.972,0.219-1.866,0.854-2.44,1.743c-0.518,0.87-0.698,1.994-0.359,3.074c0.304,1.093,1.194,1.857,2.165,2.23       c0.974,0.378,2.052,0.36,2.962-0.047c0.911-0.406,2.495-1.538,3.801-2.687C390.889,403.558,391.878,402.426,391.678,401.642z"/>
					<path style="fill:#FC09B2;" d="M393.332,411.488c-1.678,0.462-3.498,1.164-4.324,1.722c-1.654,1.069-2.381,3.772-0.863,5.503       c1.416,1.816,4.21,1.599,5.566,0.176c0.702-0.708,1.766-2.331,2.56-3.868c0.763-1.524,1.363-3.018,0.853-3.645       C396.618,410.748,394.988,411.058,393.332,411.488z"/>
					<path style="fill:#FC09B2;" d="M404.226,418.732c-0.596,0.266-1.292,0.715-1.996,1.235c-1.406,1.042-2.854,2.358-3.424,3.176       c-0.571,0.817-0.793,1.874-0.607,2.902c0.175,1.038,0.771,2.029,1.781,2.542c0.997,0.532,2.117,0.601,3.087,0.22       c0.982-0.394,1.773-1.145,2.172-2.059c0.4-0.913,0.805-2.806,0.989-4.516c0.176-1.721,0.207-3.349-0.508-3.721       C405.363,418.316,404.838,418.442,404.226,418.732z"/>
					<path style="fill:#FC09B2;" d="M416.291,422.065c-0.806-0.06-1.768,1.086-2.718,2.603c-0.934,1.494-1.81,3.252-2.045,4.222       c-0.505,1.908,0.802,4.303,3.073,4.651c2.287,0.241,4.187-1.57,4.234-3.618c0.042-0.996-0.269-2.881-0.715-4.604       C417.661,423.611,417.094,422.141,416.291,422.065z"/>
					<path style="fill:#FC09B2;" d="M430.329,423.903c-1.043-1.435-2.066-2.481-2.869-2.367c-0.792,0.156-1.255,1.684-1.599,3.439       c-0.33,1.76-0.525,3.635-0.393,4.641c0.126,0.975,0.682,1.969,1.506,2.57c0.82,0.601,1.922,0.891,3.03,0.661       c1.117-0.189,1.951-1.048,2.419-1.956c0.468-0.93,0.551-2.003,0.23-2.947C432.334,426.998,431.353,425.314,430.329,423.903z"/>
					<path style="fill:#FC09B2;" d="M441.2,418.195c-1.451-0.904-2.869-1.62-3.547-1.182c-0.681,0.432-0.509,2.105-0.237,3.789       c0.303,1.711,0.834,3.586,1.313,4.461c0.919,1.756,3.531,2.711,5.401,1.367c1.945-1.235,1.973-4.055,0.688-5.527       C444.179,420.338,442.659,419.129,441.2,418.195z"/>
					<path style="fill:#FC09B2;" d="M453.703,410.345c-0.873-0.483-2.721-1.062-4.41-1.404c-1.676-0.321-3.314-0.514-3.748,0.166       c-0.227,0.338-0.158,0.867,0.083,1.509c0.22,0.625,0.594,1.352,1.049,2.103c0.907,1.494,2.083,3.056,2.845,3.699       c0.761,0.644,1.794,0.963,2.837,0.873c0.52-0.044,1.042-0.188,1.523-0.433c0.449-0.268,0.853-0.641,1.169-1.108       c0.619-0.944,0.81-2.04,0.498-3.055C455.25,411.683,454.576,410.827,453.703,410.345z"/>
					<path style="fill:#FC09B2;" d="M458.114,397.102c-1.003-0.136-2.88,0.004-4.629,0.29c-1.746,0.298-3.269,0.724-3.426,1.514       c-0.116,0.801,0.931,1.864,2.346,2.95c1.397,1.068,3.064,2.102,4.007,2.426c1.843,0.677,4.39-0.389,4.915-2.628       c0.232-1.108-0.054-2.213-0.653-3.036C460.087,397.793,459.086,397.231,458.114,397.102z"/>
					<path style="fill:#FC09B2;" d="M453.184,385.101c-1.521,0.905-2.694,1.834-2.612,2.638c0.074,0.806,1.545,1.411,3.255,1.914       c1.726,0.49,3.62,0.852,4.612,0.814c2.048-0.042,3.862-1.935,3.629-4.218c-0.33-2.271-2.732-3.586-4.639-3.09       C456.459,383.391,454.687,384.211,453.184,385.101z"/>
					<path style="fill:#FC09B2;" d="M447.241,375.697c-0.304,0.603-0.43,1.116-0.235,1.474c0.369,0.716,2.027,0.711,3.755,0.583       c1.729-0.142,3.643-0.496,4.558-0.892c1.848-0.758,3.018-3.259,1.861-5.252c-0.27-0.496-0.638-0.905-1.059-1.216       c-0.445-0.296-0.959-0.485-1.472-0.579c-1.031-0.188-2.09,0.031-2.909,0.599c-0.82,0.567-2.166,1.97-3.232,3.338       C447.976,374.436,447.515,375.113,447.241,375.697z"/>
					<path style="fill:#FC09B2;" d="M443.564,367.792c1.569-0.764,3.232-1.791,3.942-2.491c0.711-0.699,1.124-1.7,1.132-2.748       c0.032-1.066-0.406-2.114-1.29-2.819c-1.736-1.511-4.418-0.82-5.505,0.845c-0.562,0.824-1.309,2.612-1.807,4.265       c-0.466,1.63-0.81,3.245-0.176,3.745C440.492,369.093,442.006,368.525,443.564,367.792z"/>
					<path style="fill:#FC09B2;" d="M433.896,352.188c-1.079-0.34-2.205-0.162-3.078,0.354c-0.887,0.55-1.531,1.457-1.753,2.423       c-0.225,0.976-0.269,2.893-0.137,4.62c0.133,1.77,0.415,3.33,1.185,3.566c0.783,0.2,1.952-0.779,3.158-2.067       c1.192-1.288,2.375-2.851,2.786-3.759c0.411-0.908,0.434-1.985,0.059-2.957C435.74,353.41,434.989,352.491,433.896,352.188z"/>
					<path style="fill:#FC09B2;" d="M418.618,350.012c-2.287,0.175-3.817,2.379-3.499,4.34c0.14,0.987,0.794,2.83,1.543,4.414       c0.761,1.587,1.586,2.901,2.392,2.828c0.809,0.009,1.546-1.392,2.203-3.042c0.645-1.651,1.18-3.547,1.233-4.543       C422.632,352.019,420.913,350.001,418.618,350.012z"/>
					<path style="fill:#FC09B2;" d="M406.692,353.614c-0.927-0.471-2.051-0.512-3.096-0.078c-1.056,0.414-1.749,1.338-2.021,2.358       c-0.285,1.007-0.165,2.08,0.325,2.949c0.489,0.869,1.762,2.34,3.026,3.53c1.27,1.176,2.506,2.09,3.263,1.808       c0.746-0.304,0.906-1.925,0.927-3.69c0.02-1.73-0.153-3.667-0.462-4.615C408.346,354.928,407.632,354.104,406.692,353.614z"/>
					<path style="fill:#FC09B2;" d="M391.198,367.796c0.769,0.634,2.482,1.544,4.084,2.192c1.585,0.617,3.145,1.093,3.711,0.516       c0.57-0.572,0.127-2.149-0.456-3.763c-0.615-1.631-1.484-3.379-2.116-4.151c-1.209-1.54-3.981-2.031-5.558-0.354       C389.192,363.82,389.648,366.568,391.198,367.796z"/>
					<path style="fill:#FC09B2;" d="M384.432,380c0.947,0.314,2.866,0.541,4.583,0.564c1.758,0.026,3.356-0.103,3.663-0.848       c0.28-0.759-0.614-2.027-1.769-3.339c-1.17-1.305-2.614-2.626-3.481-3.119c-0.867-0.494-1.938-0.616-2.943-0.335       c-1.004,0.277-1.96,0.951-2.371,2.008c-0.441,1.042-0.38,2.174,0.06,3.094C382.662,378.97,383.485,379.688,384.432,380z"/>
					<path style="fill:#FC09B2;" d="M387.063,392.697c1.652-0.613,3.056-1.315,3.05-2.124c0.036-0.806-1.243-1.662-2.833-2.468       c-1.578-0.793-3.414-1.501-4.401-1.645c-1.96-0.326-4.169,1.2-4.349,3.49c-0.017,2.295,1.997,4.019,3.987,3.881       C383.512,393.782,385.41,393.299,387.063,392.697z"/>
				</g>
				<g>
					<path style="fill:#4217A6;" d="M410.058,397.519c0.192-0.171,0.317-0.378,0.308-0.553c0.024-0.309-0.317-0.444-0.77-0.332       c-1.159,0.294-2.295,0.64-3.42,1c-1.125,0.368-2.222,0.759-3.305,1.206c-1.08,0.445-2.15,0.95-3.161,1.541       c-1.008,0.605-1.989,1.269-2.839,2.206c-0.196,0.221-0.281,0.582-0.19,0.98c0.134,0.667,0.74,1.134,1.26,1.06       c1.262-0.174,2.37-0.608,3.442-1.097c1.065-0.502,2.077-1.09,3.059-1.729c0.981-0.638,1.933-1.325,2.869-2.04       C408.243,399.04,409.167,398.303,410.058,397.519z"/>
					<path style="fill:#4217A6;" d="M414.123,401.717c-0.819,0.874-1.59,1.779-2.342,2.689c-0.741,0.905-1.457,1.83-2.126,2.79       c-0.67,0.96-1.293,1.955-1.835,3.009c-0.526,1.058-0.991,2.141-1.201,3.388c-0.046,0.291,0.077,0.64,0.369,0.925       c0.474,0.484,1.227,0.569,1.63,0.216c0.971-0.828,1.67-1.792,2.309-2.784c0.627-0.998,1.162-2.039,1.644-3.106       c0.482-1.067,0.913-2.158,1.315-3.264c0.396-1.109,0.776-2.226,1.103-3.364c0.072-0.251,0.058-0.478-0.034-0.639       C414.807,401.306,414.444,401.379,414.123,401.717z"/>
					<path style="fill:#4217A6;" d="M422.561,406.917c-0.266-1.148-0.547-2.272-0.889-3.418c-0.076-0.251-0.214-0.463-0.379-0.545       c-0.273-0.137-0.541,0.132-0.628,0.594c-0.217,1.199-0.375,2.331-0.515,3.503c-0.133,1.164-0.233,2.331-0.276,3.501       c-0.043,1.17-0.029,2.342,0.088,3.52c0.13,1.168,0.326,2.379,0.822,3.525c0.118,0.268,0.41,0.489,0.808,0.564       c0.657,0.123,1.336-0.188,1.485-0.682c0.368-1.219,0.434-2.422,0.436-3.603c-0.012-1.182-0.125-2.349-0.296-3.507       C423.047,409.21,422.82,408.061,422.561,406.917z"/>
					<path style="fill:#4217A6;" d="M435.15,408.695c-0.652-0.988-1.379-1.908-2.15-2.789c-0.771-0.881-1.584-1.723-2.42-2.543       c-0.838-0.811-1.694-1.616-2.612-2.405c-0.199-0.169-0.428-0.27-0.607-0.246c-0.301,0.033-0.362,0.429-0.201,0.841       c0.447,1.091,0.946,2.159,1.46,3.216c0.52,1.054,1.068,2.091,1.665,3.098c0.596,1.008,1.243,1.985,1.976,2.908       c0.745,0.917,1.547,1.8,2.605,2.521c0.251,0.171,0.622,0.207,0.991,0.043c0.615-0.261,1.013-0.898,0.869-1.397       C436.389,410.738,435.792,409.692,435.15,408.695z"/>
					<path style="fill:#4217A6;" d="M442.141,398.046c-1.084-0.479-2.194-0.86-3.318-1.185c-1.124-0.324-2.263-0.593-3.409-0.831       c-1.139-0.228-2.323-0.452-3.507-0.617c-0.258-0.035-0.504,0.003-0.639,0.12c-0.222,0.194-0.078,0.55,0.282,0.81       c0.967,0.679,1.965,1.308,2.968,1.921c1.007,0.607,2.028,1.185,3.074,1.711c1.045,0.527,2.117,1.001,3.232,1.383       c1.121,0.369,2.272,0.68,3.55,0.716c0.294,0.004,0.649-0.157,0.866-0.496c0.374-0.554,0.363-1.309-0.028-1.652       C444.265,399.089,443.228,398.541,442.141,398.046z"/>
					<path style="fill:#4217A6;" d="M445.852,385.234c-1.257-0.192-2.441-0.09-3.607,0.076c-1.163,0.179-2.3,0.457-3.422,0.792       c-1.122,0.334-2.23,0.724-3.331,1.145c-1.099,0.427-2.194,0.873-3.274,1.372c-0.233,0.109-0.413,0.272-0.456,0.442       c-0.084,0.284,0.178,0.516,0.649,0.536c1.191,0.048,2.376,0.038,3.556,0.011c1.18-0.034,2.353-0.099,3.517-0.221       c1.164-0.122,2.32-0.301,3.462-0.581c1.139-0.295,2.271-0.653,3.354-1.312c0.252-0.156,0.438-0.478,0.466-0.886       C446.836,385.929,446.357,385.313,445.852,385.234z"/>
					<path style="fill:#4217A6;" d="M429.509,383.464c1.031-0.608,2.024-1.259,3.002-1.923c0.97-0.665,1.913-1.35,2.826-2.084       c0.912-0.733,1.79-1.514,2.604-2.373c0.797-0.864,1.551-1.777,2.102-2.914c0.127-0.267,0.107-0.636-0.093-0.991       c-0.317-0.599-1.021-0.883-1.503-0.662c-1.162,0.522-2.104,1.25-2.996,2.021c-0.882,0.781-1.688,1.63-2.451,2.517       c-0.763,0.888-1.484,1.814-2.181,2.763c-0.692,0.953-1.371,1.919-2.005,2.921c-0.138,0.219-0.193,0.448-0.143,0.621       C428.738,383.665,429.107,383.699,429.509,383.464z"/>
					<path style="fill:#4217A6;" d="M427.583,366.347c-0.038-0.292-0.256-0.59-0.618-0.778c-0.597-0.316-1.338-0.213-1.625,0.248       c-0.696,1.073-1.093,2.198-1.426,3.331c-0.318,1.136-0.537,2.287-0.697,3.446c-0.16,1.16-0.264,2.328-0.336,3.501       c-0.065,1.174-0.112,2.352-0.102,3.532c0.004,0.255,0.08,0.476,0.211,0.613c0.219,0.214,0.546,0.038,0.758-0.378       c0.536-1.069,1.025-2.17,1.483-3.237c0.454-1.078,0.879-2.168,1.251-3.279c0.371-1.11,0.688-2.24,0.908-3.404       C427.599,368.767,427.737,367.6,427.583,366.347z"/>
					<path style="fill:#4217A6;" d="M415.731,373.003c-0.287-1.135-0.63-2.256-1.072-3.35c-0.456-1.091-0.975-2.167-1.787-3.16       c-0.194-0.238-0.534-0.357-0.938-0.314c-0.666,0.075-1.231,0.572-1.235,1.091c-0.02,1.247,0.264,2.434,0.596,3.565       c0.347,1.131,0.786,2.219,1.278,3.281c0.492,1.062,1.035,2.1,1.606,3.123c0.578,1.021,1.167,2.02,1.825,3.04       c0.143,0.218,0.334,0.381,0.512,0.41c0.296,0.052,0.469-0.295,0.424-0.754c-0.12-1.17-0.297-2.334-0.49-3.492       C416.249,375.287,416.018,374.138,415.731,373.003z"/>
					<path style="fill:#4217A6;" d="M401.596,379.086c0.903,0.766,1.86,1.445,2.847,2.074c0.987,0.629,2.004,1.21,3.036,1.762       c1.03,0.542,2.085,1.08,3.184,1.578c0.238,0.106,0.486,0.139,0.651,0.065c0.275-0.119,0.23-0.511-0.042-0.862       c-0.735-0.924-1.514-1.809-2.305-2.679c-0.795-0.866-1.612-1.708-2.467-2.507c-0.855-0.799-1.75-1.555-2.713-2.237       c-0.972-0.671-1.989-1.293-3.205-1.689c-0.286-0.091-0.659-0.028-0.966,0.234c-0.516,0.423-0.719,1.147-0.441,1.586       C399.838,377.474,400.697,378.306,401.596,379.086z"/>
					<path style="fill:#4217A6;" d="M401.399,391.48c1.171-0.005,2.345-0.067,3.522-0.162c1.177-0.102,2.358-0.222,3.54-0.401       c0.256-0.04,0.478-0.148,0.572-0.3c0.139-0.255-0.058-0.552-0.491-0.701c-1.123-0.377-2.26-0.699-3.398-1.003       c-1.139-0.297-2.282-0.562-3.434-0.771c-1.152-0.209-2.313-0.36-3.49-0.41c-1.178-0.036-2.368-0.008-3.6,0.32       c-0.287,0.079-0.561,0.336-0.706,0.719c-0.195,0.634,0.036,1.352,0.511,1.57c1.146,0.534,2.308,0.768,3.472,0.937       C399.06,391.433,400.228,391.486,401.399,391.48z"/>
				</g>
				<circle style="fill:#FD8A02;" cx="420.309" cy="391.787" r="5.75"/>
			</g>
		</g>
		<g>
			<path style="fill:#FD8A02;" d="M447.213,157.094c-3.834,0-6.942,3.108-6.942,6.942c0,3.834,3.108,6.942,6.942,6.942     s6.942-3.108,6.942-6.942C454.155,160.202,451.047,157.094,447.213,157.094z"/>
			<path style="fill:#FD8A02;" d="M284.701,0c-3.834,0-6.942,3.108-6.942,6.942c0,3.834,3.108,6.942,6.942,6.942     c3.834,0,6.942-3.108,6.942-6.942C291.642,3.108,288.534,0,284.701,0z"/>
			<path style="fill:#FD8A02;" d="M105.392,235.046c-3.834,0-6.942,3.108-6.942,6.942c0,3.834,3.108,6.942,6.942,6.942     c3.834,0,6.942-3.108,6.942-6.942C112.334,238.153,109.226,235.046,105.392,235.046z"/>
			<circle style="fill:#FD8A02;" cx="425.387" cy="478.578" r="6.942"/>
			<path style="fill:#FD8A02;" d="M172.678,391.039c-3.834,0-6.942,3.108-6.942,6.941c0,3.834,3.108,6.942,6.942,6.942     c3.834,0,6.942-3.108,6.942-6.942C179.62,394.147,176.512,391.039,172.678,391.039z"/>
		</g>
	</g>
</g>















</svg>
