<?xml version="1.0" encoding="UTF-8"?>
<!-- Generator: Adobe Illustrator 25.2.3, SVG Export Plug-In . SVG Version: 6.00 Build 0)  -->
<svg xmlns="http://www.w3.org/2000/svg" xmlns:xlink="http://www.w3.org/1999/xlink" version="1.1" id="Capa_1" x="0px" y="0px" viewBox="0 0 512 512" style="enable-background:new 0 0 512 512;" xml:space="preserve" width="512" height="512">
<g>
	<path style="fill:#EA4A0C;" d="M356.079,359.204c12.812,37.911,50.179,49.174,72.242,52.493   c-7.24-10.843-10.253-22.339-11.349-31.681c31.552,27.42,70.897,36.728,95.028,39.862C426.038,292.742,434.525,43.4,434.525,43.4   C198.701,28.947,19.924,114.909,1.664,262.494c-14.513,117.454,69.719,165.202,104.712,179.807   c-7.244-18.804-7.244-33.862-4.66-45.155c21.787,70.874,65.031,73.029,65.031,73.029c-9.434-44.637-11.898-85.319-9.401-122.176   l136.398-37.578L356.079,359.204z"/>
	<path style="fill:#FFDEC7;" d="M420.335,328.347c0,0-15.506,15.58-58.964,24.532c-51.512,10.642-185.616,2.785-185.616,2.785   c-6.27-2.232-12.418-4.777-18.408-7.666C170.641,152.945,323.46,64.7,323.46,64.7s73.824,55.745,98.653,178.252   C427.843,271.223,421.333,292.83,420.335,328.347z"/>
	<path style="fill:#FF6C7E;" d="M429.966,338.566c0,0-145.521,55.808-254.213,17.107l25.988-95.462   c0,0,135.807,22.033,220.404-17.009C427.864,271.405,430.968,303.15,429.966,338.566z"/>
	<g style="opacity:0.2;">
		<path style="fill:#FFFFFF;" d="M129.41,120.928c0,0-147.347,86.461-93.009,207.42C36.401,328.347-39.839,218.961,129.41,120.928z"/>
		<path style="fill:#FFFFFF;" d="M197.785,144.817c0,0-101.528,48.3-57.152,226.924C140.633,371.74,103.347,223.554,197.785,144.817    z"/>
		<path style="fill:#FFFFFF;" d="M89.579,250.321c0,0-21.904,95.217,39.831,178.203C129.41,428.524,84.473,358.028,89.579,250.321z"/>
	</g>
	<g>
		<path style="fill:#091438;" d="M261.459,237.474c0,7.096-2.552,12.846-5.709,12.846c-3.149,0-5.701-5.75-5.701-12.846    c0-7.088,2.552-12.843,5.701-12.843C258.907,224.632,261.459,230.386,261.459,237.474z"/>
		<rect x="242.823" y="235.955" style="fill:#091438;" width="12.928" height="3.04"/>
		
			<rect x="247.13" y="222.974" transform="matrix(0.3393 -0.9407 0.9407 0.3393 -52.5574 386.2076)" style="fill:#091438;" width="3.047" height="15.089"/>
	</g>
	<g>
		<path style="fill:#091438;" d="M370.249,231.407c0,7.096-2.556,12.839-5.709,12.839c-3.153,0-5.705-5.743-5.705-12.839    c0-7.092,2.552-12.85,5.705-12.85C367.693,218.557,370.249,224.314,370.249,231.407z"/>
		
			<rect x="364.433" y="228.692" transform="matrix(0.9839 -0.179 0.179 0.9839 -35.2129 70.1482)" style="fill:#091438;" width="13.404" height="3.043"/>
		
			<rect x="363.63" y="220.616" transform="matrix(0.879 -0.4768 0.4768 0.879 -61.0124 203.8246)" style="fill:#091438;" width="15.01" height="3.045"/>
	</g>
	<polygon style="fill:#EA4A0C;" points="234.818,205.926 270.465,202.145 238.137,217.638  "/>
	<polygon style="fill:#EA4A0C;" points="355.799,194.21 383.393,204.047 354.181,206.277  "/>
	<g>
		
			<rect x="189.298" y="249.456" transform="matrix(0.0737 -0.9973 0.9973 0.0737 -91.6837 442.4398)" style="fill:#FF6C7E;" width="6.088" height="42.241"/>
		
			<rect x="175.448" y="317.108" transform="matrix(0.4933 -0.8698 0.8698 0.4933 -204.6932 327.1683)" style="fill:#FF6C7E;" width="6.085" height="44.364"/>
		<g style="opacity:0.2;">
			<polygon style="fill:#FFFFFF;" points="373.269,289.555 235.988,310.779 371.999,282.554    "/>
			<polygon style="fill:#FFFFFF;" points="254.658,320.325 345.138,312.533 255.543,327.387    "/>
			<polygon style="fill:#FFFFFF;" points="385.699,325.618 229.464,347.768 384.542,318.594    "/>
			<polygon style="fill:#FFFFFF;" points="358.805,349.065 260.945,355.76 358.064,341.988    "/>
		</g>
		<path style="fill:#FFFFFF;" d="M315.668,277.802l-7.206-9.814c1.289-0.945,31.93-22.914,65.974-0.956l-6.601,10.23    C340.775,259.802,315.918,277.616,315.668,277.802z"/>
	</g>
	<g>
		<polygon style="opacity:0.2;fill:#FFFFFF;" points="437.134,186.891 346.076,187.567 351.304,269.019 439.947,268.532   "/>
		<polygon style="opacity:0.4;fill:#FFFFFF;" points="322.391,188.206 227.074,193.223 235.135,274.603 327.929,269.889   "/>
		<path style="fill:#091438;" d="M347.803,272.773l-5.709-88.911l98.646-0.734l3.074,89.119L347.803,272.773z M350.056,191.272    l4.749,73.993l81.274-0.45l-2.552-74.163L350.056,191.272z"/>
		<path style="fill:#091438;" d="M231.769,278.516L222.97,189.7l102.899-5.417l6.045,89.145L231.769,278.516z M231.177,196.747    l7.325,73.944l85.442-4.34l-5.032-74.22L231.177,196.747z"/>
		
			<rect x="325.558" y="231.153" transform="matrix(1 -0.0081 0.0081 1 -1.8849 2.7305)" style="fill:#091438;" width="23.55" height="7.471"/>
		
			<rect x="176.045" y="238.08" transform="matrix(0.9976 -0.0698 0.0698 0.9976 -16.389 14.8297)" style="fill:#091438;" width="55.72" height="7.474"/>
		<path style="opacity:0.6;fill:#FFFFFF;" d="M317.627,234.787c0,17.266-16.177,31.25-36.135,31.25    c-19.958,0-36.136-13.984-36.136-31.25c0-17.262,16.179-31.25,36.136-31.25C301.45,203.536,317.627,217.525,317.627,234.787z"/>
		<path style="opacity:0.6;fill:#FFFFFF;" d="M433.641,227.959c0,17.254-16.177,31.254-36.134,31.254    c-19.961,0-36.135-13.999-36.135-31.254c0-17.262,16.173-31.257,36.135-31.257C417.463,196.701,433.641,210.697,433.641,227.959z"/>
	</g>
</g>















</svg>
