<?xml version="1.0" encoding="UTF-8"?>
<!-- Generator: Adobe Illustrator 25.2.3, SVG Export Plug-In . SVG Version: 6.00 Build 0)  -->
<svg xmlns="http://www.w3.org/2000/svg" xmlns:xlink="http://www.w3.org/1999/xlink" version="1.1" id="Capa_1" x="0px" y="0px" viewBox="0 0 512 512" style="enable-background:new 0 0 512 512;" xml:space="preserve" width="512" height="512">
<g>
	<path style="fill:#EA4A0C;" d="M211.429,396.974c0,0-75.61,32.159-102.492,73.206c0,0,1.986-41.072,38.226-69.844   c36.239-28.775-63.009,36.121-54.607,5.46s35.283-76.027-18.903-51.666c-54.185,24.362-105.85-18.481-48.723-133.575   c57.127-115.094,198.262-249.507,169.279-76.45c-28.984,173.06,20.581,206.245,20.581,206.245L211.429,396.974z"/>
	<path style="fill:#EA4A0C;" d="M137.383,301.395c-12.879-59.175,5.619-199.379,154.697-243.408   c124.448-36.77,185.792-2.042,208.78,17.767c-21.019,35.486-68.929,124.477-21.85,125.485c58.797,1.26,26.463,50.809-0.857,65.527   c-27.295,14.693,14.289,29.387,14.289,29.387s-24.879,5.268-46.197,4.11l-28.979,48.198h-212.64l-22.178-19.653L137.383,301.395z"/>
	<path style="opacity:0.1;fill:#FFFFFF;" d="M137.383,301.395c-12.879-59.175,5.619-199.379,154.697-243.408   c124.448-36.77,185.792-2.042,208.78,17.767c-21.019,35.486-68.929,124.477-21.85,125.485c58.797,1.26,26.463,50.809-0.857,65.527   c-27.295,14.693,14.289,29.387,14.289,29.387s-24.879,5.268-46.197,4.11l-28.979,48.198h-212.64l-22.178-19.653L137.383,301.395z"/>
	<path style="fill:#091438;" d="M231.75,362.664c0,0,3.214,31.014,48.723,21.96C280.473,384.624,235.047,401.861,231.75,362.664z"/>
	<path style="fill:#FFDEC7;" d="M446.246,300.263l-13.005,84.632c-96.125,48.614-149.15,30.568-149.15,30.568   s-15.524,38.208-58.37,17.213c-42.846-20.994-44.962-79.387-44.962-79.387s-55.018,14.693-68.049-18.475   c-6.805-17.336,6.58-29.509,24.673-33.418c16.532-3.554,37.022-0.227,49.675,12.424c0,0,30.672-35.308,15.123-82.338   c0,0,107.541-85.688,156.259-58.821c48.741,26.89-46.626,88.207-3.352,85.687c43.272-2.519,87.377-36.115,64.695,10.939   C408.693,292.298,425.832,299.229,446.246,300.263z"/>
	<path style="fill:#091438;" d="M340.384,295.321c0,0,9.619,32.83,2.732,77.292c0,0-48.726,4.619-54.605-6.931   c-5.882-11.553,22.944-8.403,22.944-8.403s-23.804,2.695-20.424,7.772c3.377,5.075,49.984,4.828,49.984,4.828   S345.212,331.447,340.384,295.321z"/>
	<g>
		<path style="fill:#FF6C7E;" d="M274.979,382.413c0.213,7.93-9.16,14.616-20.943,14.932c-11.78,0.32-21.504-5.85-21.715-13.78    c-0.216-7.93,9.16-14.617,20.935-14.934C265.04,368.31,274.763,374.48,274.979,382.413z"/>
		<path style="fill:#091438;" d="M231.75,362.664c0,0,3.214,31.014,48.723,21.96C280.473,384.624,235.047,401.861,231.75,362.664z"/>
	</g>
	<g>
		
			<rect x="238.211" y="310.74" transform="matrix(0.0487 -0.9988 0.9988 0.0487 -94.2893 548.3475)" style="fill:#091438;" width="5.041" height="25.868"/>
		
			<rect x="237.159" y="301.952" transform="matrix(0.1133 -0.9936 0.9936 0.1133 -101.4462 518.3572)" style="fill:#091438;" width="5.042" height="28.122"/>
		
			<rect x="239.441" y="292.833" transform="matrix(0.3003 -0.9538 0.9538 0.3003 -124.1733 446.0499)" style="fill:#091438;" width="5.041" height="29.67"/>
		<path style="fill:#FFFFFF;" d="M327.752,342.227l-86.111-9.239c0,0-3.151-34.865,28.352-39.695    C301.497,288.461,327.752,342.227,327.752,342.227z"/>
		<path style="fill:#091438;" d="M325.488,343.332c-0.255-0.52-25.853-52.008-55.113-47.549    c-28.831,4.42-26.345,35.65-26.225,36.978l-5.019,0.454c-0.035-0.372-2.978-37.283,30.48-42.413    c32.916-5.068,59.3,48.055,60.406,50.319L325.488,343.332z"/>
		<path style="fill:#091438;" d="M279.292,317.024c0,8.585-5.316,15.54-11.873,15.54c-6.558,0-11.873-6.955-11.873-15.54    c0-8.585,5.315-15.54,11.873-15.54C273.975,301.484,279.292,308.438,279.292,317.024z"/>
	</g>
	<g>
		
			<rect x="404.873" y="311.083" transform="matrix(0.9532 -0.3025 0.3025 0.9532 -75.2686 141.1417)" style="fill:#091438;" width="26.443" height="5.041"/>
		
			<rect x="401.696" y="302.538" transform="matrix(0.8912 -0.4537 0.4537 0.8912 -92.9874 222.5182)" style="fill:#091438;" width="31.143" height="5.041"/>
		
			<rect x="398.659" y="292.848" transform="matrix(0.8529 -0.5221 0.5221 0.8529 -93.3523 259.4337)" style="fill:#091438;" width="30.043" height="5.038"/>
		<path style="fill:#FFFFFF;" d="M350.677,341.316l68.888-19.108c0,0-6.723-39.276-30.872-34.237    C364.538,293.012,350.677,341.316,350.677,341.316z"/>
		<path style="fill:#091438;" d="M353.1,342.012l-4.846-1.391c0.583-2.032,14.571-49.827,39.924-55.117    c5.923-1.241,11.405-0.186,16.279,3.135c13.338,9.082,17.426,32.165,17.593,33.144l-4.968,0.852    c-0.038-0.219-3.902-21.967-15.469-29.836c-3.746-2.547-7.801-3.322-12.404-2.362C366.822,295.11,353.234,341.543,353.1,342.012z"/>
		<path style="fill:#091438;" d="M383.124,316.113c0,6.266-3.878,11.342-8.663,11.342c-4.786,0-8.664-5.076-8.664-11.342    c0-6.262,3.878-11.342,8.664-11.342C379.246,304.771,383.124,309.851,383.124,316.113z"/>
	</g>
	<polygon style="fill:#EA4A0C;" points="241.221,271.437 299.326,267.598 242.755,281.402  "/>
	<polygon style="fill:#EA4A0C;" points="363.824,266.998 412.423,277.363 362.731,277.02  "/>
	<path style="fill:#091438;" d="M127.979,322.123c0,0,12.238-7.905,33.923-2.657c21.671,5.247,37.285,28.69,7.256,27.553   c-30.03-1.134-18.653-12.555-7.703-12.854l-17.49-2.595l25.206,2.275c0,0-21.715,5.506-13.399,9.538   c8.329,4.039,33.623,3.737,24.886-9.178C165.275,311.471,127.979,322.123,127.979,322.123z"/>
	<path style="fill:#EA4A0C;" d="M197.568,211.523c0,0,123.18-93.251,176.893-64.898c53.714,28.354-47.097,110.597-2.993,99.088   c44.104-11.509,72.636-29.414,66.157,11.435c0,0,10.279-31.33-6.482-33.024c-18.721-1.891-74.796,32.448-63.455,13.546   c11.342-18.9,57.967-94.195,3.151-99.549C316.023,132.764,215.525,182.224,197.568,211.523z"/>
	<path style="fill:#EA4A0C;" d="M246.399,148.515c0,0,149.013-57.02,164.134-19.532c15.123,37.49-30.321,103.645,6.734,87.896   c37.057-15.753,47.137,24.571,35.481,55.13c0,0,16.381-42.216-2.205-56.075c-18.587-13.862-53.556,12.599-42.529-17.013   c11.025-29.612,16.382-75.293-2.52-81.278C386.59,111.657,328.94,107.561,246.399,148.515z"/>
	<path style="fill:#EA4A0C;" d="M483.307,77.948c0,0-34.654,68.677-34.654,99.866s14.609,32.84,37.488,33.394   c22.881,0.555,0,40.954,0,40.954s18.735-37.247-5.669-38.118C454.009,213.098,411.478,197.432,483.307,77.948z"/>
	<path style="fill:#091438;" d="M150.052,371.065c-4.586,0-8.319-4.806-8.319-10.712c0-5.907,3.734-10.713,8.319-10.713v2.332   c-3.853,0-6.988,3.76-6.988,8.382s3.135,8.381,6.988,8.381c3.853,0,6.988-3.759,6.988-8.381c0-0.764-0.089-1.523-0.26-2.254   l1.229-0.89c0.241,1.015,0.362,2.073,0.362,3.144C158.371,366.259,154.637,371.065,150.052,371.065z"/>
</g>















</svg>
