<?xml version="1.0" encoding="UTF-8"?>
<!-- Generator: Adobe Illustrator 25.2.3, SVG Export Plug-In . SVG Version: 6.00 Build 0)  -->
<svg xmlns="http://www.w3.org/2000/svg" xmlns:xlink="http://www.w3.org/1999/xlink" version="1.1" id="Capa_1" x="0px" y="0px" viewBox="0 0 512 512" style="enable-background:new 0 0 512 512;" xml:space="preserve" width="512" height="512">
<g>
	<path style="fill:#091438;" d="M270.55,409.306c0,0-116.297,51.453-118.807,102.694c0,0-40.998-21.544-15.059-37.436   c25.937-15.899,57.728-29.284,15.059-36.817c-42.668-7.528-66.094-34.3-9.203-39.319c0,0-133.021-52.709-118.8-184.062   c14.222-131.35,245.971-349.714,217.524-100.394C212.82,363.29,270.55,409.306,270.55,409.306z"/>
	<g>
		<path style="fill:#091438;" d="M141.084,277.25C117.54,54.293,374.08,63.355,374.08,63.355    c-0.379,6.753-0.978,13.326-1.759,19.703l19.641,71.907L323.88,277.25l-86.85,31.684l-85.39,4.783L141.084,277.25z"/>
		<path style="opacity:0.05;fill:#FFFFFF;" d="M141.084,277.25C117.54,54.293,374.08,63.355,374.08,63.355    c-0.379,6.753-0.978,13.326-1.759,19.703l19.641,71.907L323.88,277.25l-86.85,31.684l-85.39,4.783L141.084,277.25z"/>
	</g>
	<path style="fill:#FFDC9F;" d="M482.257,374.887c-248.858,115.103-291.226,5.847-298.227-41.942   c-20.079,7.752-45.633,11.92-68.47-1.659c-34.262-20.377-10.845-56.119,25.525-54.037c12.899,0.726,27.43,6.25,41.565,18.898   c0,0,168.186-39.104,189.672-213.09C415.367,100.528,516.867,164.656,482.257,374.887z"/>
	<g>
		<path style="fill:#FF6C7E;" d="M332.262,359.47c0.275,10.127-11.697,18.668-26.745,19.073    c-15.048,0.409-27.463-7.47-27.734-17.603c-0.275-10.122,11.697-18.663,26.742-19.07    C319.573,341.46,331.991,349.342,332.262,359.47z"/>
		<path style="fill:#091438;" d="M277.059,334.248c0,0,4.104,39.611,62.226,28.051C339.284,362.299,281.269,384.31,277.059,334.248z    "/>
	</g>
	<path style="fill:#091438;" d="M111.213,305.547c0,0,10.597-6.084,27.009,0.528c16.407,6.612,25.809,29.14,2.325,25.521   c-23.482-3.624-16.159-12.438-7.508-11.758l-10.413-4.38l19.546,4.234c0,0-17.763,3.101-11.704,7.462   c6.049,4.37,25.982,6.278,20.7-6.141C141.862,299.145,111.213,305.547,111.213,305.547z"/>
	<g style="opacity:0.1;">
		<path style="fill:#FFFFFF;" d="M351.652,79.741c-15.701,90.002-79.743,184.071-175.646,200.559    c93.568-19.622,153.176-112.718,165.705-201.953L351.652,79.741z"/>
		<path style="fill:#FFFFFF;" d="M310.694,111.413c-7.138,59.453-45.263,117.971-100.385,142.853    c52.075-27.052,86.579-85.457,90.372-143.591L310.694,111.413z"/>
		<path style="fill:#FFFFFF;" d="M281.412,82.766c1.247,80.774-47.186,155.946-129.669,171.5    c79.587-18.782,123.949-91.961,119.649-170.915L281.412,82.766z"/>
		<path style="fill:#FFFFFF;" d="M224.364,113.277c10.685,49.622-19.818,99.872-63.418,122.236    c39.513-23.744,67.018-73.402,53.712-119.674L224.364,113.277z"/>
	</g>
	<g>
		
			<rect x="275.215" y="274.321" transform="matrix(0.448 -0.894 0.894 0.448 -105.7416 407.3997)" style="fill:#091438;" width="3.69" height="30.027"/>
		
			<rect x="280.518" y="272.839" transform="matrix(0.5751 -0.8181 0.8181 0.5751 -113.3105 352.1878)" style="fill:#091438;" width="3.689" height="24.657"/>
		<path style="fill:#FFFFFF;" d="M363.136,307.59c0,0-61.88,18.839-87.501-16.996C275.634,290.594,326.528,273.794,363.136,307.59z"/>
		<path style="fill:#091438;" d="M361.883,308.946c-35.399-32.683-85.171-16.766-85.671-16.6l-1.156-3.504    c0.521-0.169,52.352-16.743,89.332,17.393L361.883,308.946z"/>
		<path style="fill:#091438;" d="M322.567,298.163c0,6.207-4.949,11.235-11.055,11.235c-6.11,0-11.055-5.028-11.055-11.235    c0-6.206,4.946-11.235,11.055-11.235C317.617,286.927,322.567,291.957,322.567,298.163z"/>
	</g>
	<g>
		
			<rect x="443.536" y="272.855" transform="matrix(0.6262 -0.7796 0.7796 0.6262 -42.8586 459.5908)" style="fill:#091438;" width="28.696" height="3.277"/>
		
			<rect x="439.361" y="273.022" transform="matrix(0.5413 -0.8409 0.8409 0.5413 -24.087 505.1698)" style="fill:#091438;" width="23.142" height="3.276"/>
		<path style="fill:#FFFFFF;" d="M383.183,305.629c0,0,56.952,7.237,74.012-27.942C457.196,277.687,410.164,270.593,383.183,305.629    z"/>
		<path style="fill:#091438;" d="M384.478,306.629l-2.59-1.998c27.252-35.391,75.079-28.637,75.55-28.562l-0.485,3.236    C456.5,279.243,410.542,272.788,384.478,306.629z"/>
		<path style="fill:#091438;" d="M399.748,296.981c0.789,4.598,5.096,7.703,9.62,6.928c4.525-0.771,7.554-5.129,6.769-9.727    c-0.785-4.598-5.085-7.695-9.613-6.924C401.999,288.032,398.963,292.383,399.748,296.981z"/>
	</g>
	<g>
		<path style="fill:#091438;" d="M352.505,331.131c0,0,15.27-12.968,25.939-9.414c10.666,3.556,0,16.943,0,16.943    S389.945,314.188,352.505,331.131z"/>
		<polygon style="fill:#091438;" points="368.224,323.644 376.353,286.422 373.184,324.388   "/>
	</g>
	<path style="fill:#FF6C7E;" d="M123.709,329.882c0,5.147-4.889,9.31-10.918,9.31c-6.029,0-10.918-4.163-10.918-9.31   c0-5.141,4.889-9.31,10.918-9.31C118.821,320.572,123.709,324.742,123.709,329.882z"/>
	<path style="fill:#FF6C7E;" d="M142.818,339.192c0,3.163-3.001,5.72-6.707,5.72c-3.704,0-6.708-2.557-6.708-5.72   c0-3.16,3.005-5.722,6.708-5.722C139.817,333.47,142.818,336.032,142.818,339.192z"/>
	<path style="fill:#FF6C7E;" d="M108.583,309.398c0,3.165-3.003,5.722-6.709,5.722c-3.704,0-6.707-2.557-6.707-5.722   c0-3.158,3.003-5.72,6.707-5.72C105.58,303.678,108.583,306.239,108.583,309.398z"/>
	<path style="fill:#091438;" d="M261.992,401.561c0,0,49.259,17.569,111.167-19.662   C373.159,381.899,317.171,424.982,261.992,401.561z"/>
	<path style="fill:#091438;" d="M288.214,266.277c9.054-20.751,35.996-34.571,58.14-30.035l0.578,1.113   c-14.256,8.202-43.202,23.154-58.141,30.037L288.214,266.277z"/>
	<path style="fill:#091438;" d="M389.988,221.129c19.63-9.846,48.245-2.701,61.095,15.061l-0.3,1.217   c-15.514-3.057-45.934-10.556-61.095-15.059L389.988,221.129z"/>
</g>















</svg>
