<?xml version="1.0" encoding="UTF-8"?>
<!-- Generator: Adobe Illustrator 25.3.1, SVG Export Plug-In . SVG Version: 6.00 Build 0)  -->
<svg xmlns="http://www.w3.org/2000/svg" xmlns:xlink="http://www.w3.org/1999/xlink" version="1.1" id="Capa_1" x="0px" y="0px" viewBox="0 0 512 512" style="enable-background:new 0 0 512 512;" xml:space="preserve" width="512" height="512">
<g>
	<g>
		<g>
			<path style="fill:#FFCF00;" d="M498.376,502.079H13.621c-6.559,0-11.705-5.146-12.106-11.303c-0.075-1.115,0-2.26,0.253-3.406     l29.389-135.091c1.205-5.577,6.143-9.548,11.854-9.548h425.977c5.711,0,10.649,3.971,11.854,9.548L510.23,487.37     C511.881,494.925,506.125,502.079,498.376,502.079z"/>
			<g>
				<path style="fill:#FFFFFF;" d="M63.907,502.079h8.225c3.094-33.851,13.773-129.335,17.149-159.349h-7.213      C78.869,370.453,69.306,454.545,63.907,502.079z"/>
				<path style="fill:#FFFFFF;" d="M127.206,494.479c-0.208,2.707-0.446,5.22-0.655,7.6h8.047      c6.514-90.517,10.084-140.296,11.482-159.349h-7.228C136.918,367.553,131.519,438.14,127.206,494.479z"/>
				<path style="fill:#FFFFFF;" d="M195.607,343.712c-3.867,97.864-5.726,139.285-6.277,158.367h8.046      c0.521-19.38,2.097-61.544,5.458-158.367c0.015-0.327,0.03-0.655,0.03-0.982h-7.228      C195.637,343.057,195.622,343.385,195.607,343.712z"/>
				<path style="fill:#FFFFFF;" d="M252.422,342.73c-0.06,28.883-0.283,118.627-0.327,159.349h7.898      c-0.03-40.767-0.253-130.466-0.342-159.349H252.422z"/>
				<path style="fill:#FFFFFF;" d="M316.465,342.73h-7.214c0.372,11.036,1.026,30.073,1.592,46.106      c2.29,66.14,3.495,97.403,3.926,113.243h7.987c-0.491-15.78-1.844-47.073-4.462-113.243      C318.101,383.928,317.045,357.127,316.465,342.73z"/>
				<path style="fill:#FFFFFF;" d="M373.295,342.73h-7.273c2.395,32.929,10.381,144.149,11.482,159.349h7.942      c-1.056-18.532-4.402-57.99-11.348-148.655C373.726,348.65,373.473,345.229,373.295,342.73z"/>
				<path style="fill:#FFFFFF;" d="M430.035,342.73h-7.243c3.362,30.013,13.951,125.543,17.119,159.349h7.972      C444.566,468.258,433.53,372.729,430.035,342.73z"/>
			</g>
			<g>
				<path style="fill:#FD8A02;" d="M31.692,478.684c-1.398,10.322-2.558,17.758-3.272,23.395h16.048      c0.774-6.946,2.157-16.792,4.001-31.516c6.648-53.066,13.371-106.848,16.018-127.833H50.03      C48.067,357.187,43.248,393.001,31.692,478.684z"/>
				<path style="fill:#FD8A02;" d="M93.549,478.684c-1.011,10.337-1.844,17.773-2.365,23.395h16.048      c5.116-57.93,11.75-133.47,14.055-159.349h-14.472C105.477,356.354,102.145,390.681,93.549,478.684z"/>
				<path style="fill:#FD8A02;" d="M154.111,502.079h15.959c1.473-33.36,6.455-129.246,8.032-159.349h-14.486      C161.771,372.818,155.867,468.719,154.111,502.079z"/>
				<path style="fill:#FD8A02;" d="M217.009,502.079h15.87c0.268-40.737,1.561-130.495,1.993-159.349H220.4      C219.672,371.599,217.455,461.312,217.009,502.079z"/>
				<path style="fill:#FD8A02;" d="M277.215,342.73c0.432,28.868,1.725,118.627,1.993,159.349h15.825      c-0.461-40.722-2.633-130.48-3.347-159.349H277.215z"/>
				<path style="fill:#FD8A02;" d="M334.015,342.73c1.681,32.824,7.273,142.617,7.288,142.766      c0.342,6.797,0.669,12.166,0.892,16.583h15.795c-1.74-33.36-7.645-129.276-9.504-159.349H334.015z"/>
				<path style="fill:#FD8A02;" d="M405.301,342.73H390.8c2.721,30.088,11.318,125.974,13.876,159.349h16.137      c-1.383-18.561-5.652-58.257-14.561-149.488C405.821,348.263,405.524,345.095,405.301,342.73z"/>
				<path style="fill:#FD8A02;" d="M462.056,342.73h-14.471c3.852,30.013,16.033,125.528,19.662,159.349h15.929      C479.249,468.288,466.206,372.759,462.056,342.73z"/>
			</g>
			<g style="opacity:0.5;">
				<path style="fill:#FD8A02;" d="M498.373,502.085H13.618c-6.559,0-11.705-5.146-12.107-11.303      c8.686-8.716,20.168-14.888,32.051-18.487c24.645-7.436,23.232-5.503,352.355-10.337c16.583-0.238,34.714-1.056,47.133-12.047      c11.943-10.56,15.275-27.738,15.989-43.652c0.743-16.405-0.461-33.226,4.492-48.887c1.636-5.161,4.194-10.203,7.466-14.635      h7.987c5.711,0,10.649,3.971,11.854,9.548l29.389,135.091C511.877,494.931,506.121,502.085,498.373,502.085z"/>
			</g>
		</g>
		<path style="fill:#000E3F;" d="M498.376,503.566H13.621c-7.157,0-13.126-5.576-13.591-12.693c-0.086-1.292,0.01-2.579,0.285-3.823    l29.388-135.087c1.341-6.211,6.938-10.72,13.307-10.72h425.977c6.369,0,11.966,4.509,13.308,10.722l29.388,135.089    c0.883,4.041-0.099,8.21-2.695,11.434C506.39,501.716,502.522,503.566,498.376,503.566z M43.01,344.218    c-4.978,0-9.351,3.522-10.4,8.375L3.221,487.686c-0.215,0.974-0.289,1.979-0.222,2.991c0.363,5.56,5.029,9.915,10.623,9.915    h484.754c3.241,0,6.264-1.447,8.296-3.969c2.028-2.519,2.796-5.776,2.105-8.935l-29.389-135.093    c-1.049-4.855-5.423-8.377-10.401-8.377H43.01z"/>
	</g>
	<g>
		<g>
			<g>
				<g>
					<g>
						<path style="fill:#FF967F;" d="M447.163,420.373l-2.632,3.525l-4.061-0.893l-1.874,0.714        c-0.446,1.012-0.892,2.023-1.323,3.034c-0.565,1.294-2.023,2.305-3.451,2.008c-1.398-0.283-1.919-2.276-2.707-3.347        c-0.298-0.416-0.64-0.699-1.101-0.684c-0.03,0-1.814,0.044-2.841,0.059c-0.416,0.015-0.714,0.015-0.714,0.015l-3.332-3.317        l-1.844-12.226l-0.357-11.393l-0.624-6.083c0,0.268-0.699,0.238-1.443,0.639c-0.431,0.238-0.893,0.625-1.249,1.324        c-0.045,0.104-0.104,0.223-0.134,0.342c-1.145,3.168,0.119,12.731-5.354,17.178c-8.061,6.544-10.114-31.457-10.039-41.139        c-3.123-1.428-6.485-3.435-9.965-5.86c-1.829-1.279-3.689-2.662-5.578-4.165c-17.059-13.445-35.858-34.758-45.496-48.173        c-1.592-2.216-3.079-4.477-4.507-6.767c-5.28-8.567-9.489-17.625-13.534-26.95c-0.982-2.261-1.993-4.61-3.02-7.035        c0.193-0.788,0.417-1.606,0.654-2.424c0.669-2.216,1.517-4.536,2.633-6.931c5.012-10.857,4.848-23.544,1.665-34.862        c-0.372-1.339-0.788-2.603-1.249-3.882c-0.149-0.416-0.298-0.833-0.461-1.265c-0.149-0.416-0.312-0.833-0.491-1.264        c-0.877-2.275-1.859-4.61-2.885-7.288c-0.089-0.238-0.179-0.461-0.268-0.699c-1.026-2.662-2.083-5.667-3.168-9.251        c-0.134-0.461-0.283-0.922-0.416-1.413c-0.223-0.773-0.461-1.577-0.684-2.41c-0.134-0.491-0.268-0.996-0.402-1.517        c-5.815-22.354-4.269-31.902-4.417-36.469c-0.015-0.461-0.045-0.877-0.104-1.249c14.992,3.421,30.758,31.412,37.525,46.047        c8.908,19.305,12.999,39.294,17.357,59.908c1.919,9.057,4.402,18.175,10.218,25.567c15.17,19.275,32.646,41.867,42.953,64.772        c10.099,3.674,19.617,11.779,25.388,21C454.079,393.928,448.918,417.338,447.163,420.373z"/>
						<path style="fill:#FF967F;" d="M64.816,420.373l2.632,3.525l4.061-0.893l1.874,0.714c0.446,1.012,0.892,2.023,1.323,3.034        c0.565,1.294,2.023,2.305,3.451,2.008c1.398-0.283,1.919-2.276,2.707-3.347c0.298-0.416,0.64-0.699,1.101-0.684        c0.03,0,1.814,0.044,2.841,0.059c0.417,0.015,0.714,0.015,0.714,0.015l3.332-3.317l1.844-12.226l0.357-11.393l0.624-6.083        c0,0.268,0.699,0.238,1.443,0.639c0.431,0.238,0.893,0.625,1.249,1.324c0.045,0.104,0.104,0.223,0.134,0.342        c1.145,3.168-0.119,12.731,5.354,17.178c8.061,6.544,10.114-31.457,10.039-41.139c3.123-1.428,6.485-3.435,9.965-5.86        c1.829-1.279,3.689-2.662,5.578-4.165c17.059-13.445,35.859-34.758,45.496-48.173c1.592-2.216,3.079-4.477,4.507-6.767        c5.28-8.567,9.489-17.625,13.534-26.95c0.982-2.261,1.993-4.61,3.02-7.035c-0.194-0.788-0.417-1.606-0.655-2.424        c-0.669-2.216-1.517-4.536-2.632-6.931c-5.012-10.857-4.849-23.544-1.666-34.862c0.372-1.339,0.788-2.603,1.249-3.882        c0.149-0.416,0.298-0.833,0.461-1.265c0.149-0.416,0.312-0.833,0.491-1.264c0.877-2.275,1.859-4.61,2.885-7.288        c0.089-0.238,0.179-0.461,0.268-0.699c1.026-2.662,2.083-5.667,3.168-9.251c0.134-0.461,0.283-0.922,0.416-1.413        c0.223-0.773,0.461-1.577,0.684-2.41c0.134-0.491,0.268-0.996,0.402-1.517c5.815-22.354,4.268-31.902,4.417-36.469        c0.015-0.461,0.045-0.877,0.104-1.249c-14.992,3.421-30.757,31.412-37.525,46.047c-8.909,19.305-12.999,39.294-17.357,59.908        c-1.919,9.057-4.402,18.175-10.218,25.567c-15.17,19.275-32.646,41.867-42.953,64.772c-10.099,3.674-19.617,11.779-25.388,21        C57.9,393.928,63.061,417.338,64.816,420.373z"/>
						<path style="fill:#FF967F;" d="M208.88,435.762c-39.929,2.18-99.078,11.878-130.555-14.146        c-14.514-12-10.502-31.67,3.164-41.963c12.496-9.412,29.829-14.913,45.193-18.239c6.878-1.489,22.404-4.053,27.789-3.955        c1.556,0.028,4.496-0.588,5.833-0.612c14.088-0.255,14.341-0.517,16.538,0.944c21.613,14.366,38.329,30.063,44.814,35.92        c2.71,2.448,4.842,5.423,7.35,8.057c0.632,0.664,0.82,1.426,0.216,2.263c-0.159,0.22,0.083,0.469,0.433,0.366        c7.364-2.174,6.548-4.078,17.537-8.898c10.096-4.428,18.247-0.319,27.459,5.496c10.464,6.604,19.233,3.969,38.493,11.184        c4.461,1.671,8.772,3.7,12.491,6.776c2.654,2.195,3.823,3.728,3.486,8.443c-0.194,2.711-1.46,4.785-3.834,6.127        c-5.164,2.919-7.814,2.395-15.522,2.395C309.767,433.473,214.129,435.475,208.88,435.762z"/>
						<path style="fill:#FF967F;" d="M274.997,269.583c13.081,1.06,28.726,1.649,41.125,6.518c0.564,0.221,0.864,0.806,0.817,1.362        c-1.003,11.718-1.505,12.79-0.997,16.285c0.737,5.072,0.23,8.009,1.158,11.675c0.168,0.663,0.121,1.392,0.101,2.088        c-0.027,0.909-0.479,1.674-1.283,2.026c-9.208,4.031-19.676,6.745-28.172,7.988c-18.453,2.698-12.951,2.673-43.065,2.458        c-10.071-0.072-40.153-5.266-48.974-10.469c-0.937-0.553-1.314-1.41-1.241-2.477c0.263-3.857,2.531-4.829,0.728-25.465        c-0.583-6.668-4.653-5.14,25.119-10.397C238.336,267.993,256.832,268.112,274.997,269.583z"/>
						<path style="fill:#FF967F;" d="M290.946,154.379c1.257,0.325,1.671,1.322,1.965,2.487        c16.642,65.822-84.768,66.091-75.323,7.146c0.93-5.802,0.574-9.358,4.251-9.939c4.217-0.667,12.789-2.622,17.829-2.548        C248.788,149.754,275.79,150.465,290.946,154.379z"/>
						<path style="fill:#FF967F;" d="M334.441,437.563c-0.977-0.037-1.978-0.042-2.921-0.263c-3.134-0.735-8.738-0.11-7.912-1.872        c0.443-0.946,1.435-1.281,2.224-1.826c4.621-3.192,4.882-9.461,2.16-12.541c-1.577-1.785-3.259-3.446-5.339-4.684        c-5.575-3.319-11.589-5.55-17.802-7.299c-5.313-1.496-6.284-1.288-5.018-2.863c1.151-1.433-10.348,0.984-17.131-2.307        c-0.441-0.214-0.694-1.086-0.406-1.464c10.417-13.621,36.373-33.513,50.515-43.228c4.141-2.845,2.881-2.537,8.115-2.543        c29.081-0.033,84.148,8.805,99.006,33.271c3.148,5.184,2.621,8.401,2.683,11.647c0.202,10.56-6.931,19.387-15.941,25.001        C397.129,445.001,343.545,437.91,334.441,437.563z"/>
					</g>
					<path style="fill:#FFBBEC;" d="M321.802,261.183c-5.421,11.625-2.222,15.003-7.705,13.828       c-4.568-0.979-14.702-3.316-21.019-3.874c-4.901-0.433-10.501-1.423-13.319-1.546c-12.608-0.55-6.923-0.765-11.289-0.778       c-23.57-0.07-25.131-0.226-28.936,0.419c-2.774,0.471-8.143-0.007-11.7,0.868c-0.672,0.165-1.387,0.189-2.084,0.212       c-3.506,0.114-6.935,0.841-10.396,1.301c-19.463,2.585-20.426,6.063-21.634,1.052c-3.996-16.565-14.213-23.898-1.478-55.857       c7.348-18.438,10.584-37.002,10.668-47.66c0.031-3.93,0.781-4.494,0.446-7.929c-0.133-1.361,0.179-1.892,1.261-2.32       c4.04-1.597,8.233-2.688,12.452-3.683c0.661-0.156,1.408,0.577,1.333,1.247c-0.047,0.417-0.068,0.845-0.183,1.244       c-0.854,2.974-0.944,6.074-1.491,9.099c-0.246,1.361-0.186,2.791-0.151,4.187c0.276,10.91,3.996,21.146,12.438,27.788       c8.848,6.962,16.497,7.612,25.324,8.963c0.55,0.084,1.121,0.12,1.674,0.074c16.064-1.317,29.883-6.705,36.027-21.61       c5.672-13.761,1.769-22.587,1.581-29.66c-0.016-0.618,0.872-1.316,1.483-1.171c4.044,0.959,5.362,1.255,11.669,3.386       c2.263,0.765,1.938,2.708,1.978,5.436c0.556,37.828,12.629,51.85,15.578,67.414       C325.948,240.152,326.798,250.468,321.802,261.183z"/>
					<path style="fill:#915EFD;" d="M279.916,403.033c-0.442-0.114-0.882-0.146-1.241-0.334       c-16.829-8.814-20.876-15.023-41.519-2.235c-10.89,6.746,0.844,1.707-51.754-37.081c-6.54-4.823-9.193-5.781-8.445-7.498       c2.754-6.32-0.057,1.195,7.838-16.245c5.211-11.512,7.709-23.04,8.54-26.319c1.671-6.592,0.546-1.873,21.663,2.875       c12.372,2.782,24.752,4.285,35.327,4.41c42.501,0.505,61.995-9.429,65.864-10.495c3.255-0.897,1.574,11.472,13.297,35.138       c4.089,8.255,4.953,9.403,5.27,10.95c0.518,2.53-9.633,6.153-34.35,27.758c-8.468,7.402-16.858,16.495-19.355,18.631       C280.756,402.839,280.291,402.893,279.916,403.033z"/>
					<path style="fill:#FFCF00;" d="M216.898,405.768c0-0.012,0-0.025,0-0.037c-5.561,0-4.479-0.069-5.077,0.288       c0.713,0.253,9.002,0.389,9.947-0.064C221.391,405.705,222.255,405.768,216.898,405.768z M140.735,391.548       c-0.127,0.001-0.254,0.097-0.381,0.149c0.695,0.338-0.621,0.342,7.683,0.27c0.201-0.002,0.401-0.183,0.601-0.281       c-0.13-0.048-0.258-0.136-0.389-0.137C147.224,391.538,142.189,391.536,140.735,391.548z M132.705,392.79       c1.226-0.059,0.77,0.032,1.786-0.288c-1.172-0.363-1.205-0.286-2.696,0.045C132.165,392.646,132.536,392.745,132.705,392.79z        M155.316,392.492c1.664,0.581,2.234,0.184,2.668,0.041C156.534,392.039,156.107,392.263,155.316,392.492z M206.971,405.326       c-0.268-0.321-0.097-0.416-1.123-0.371c-0.051,0.002-0.096,0.148-0.143,0.227C206.094,405.226,206.483,405.27,206.971,405.326z        M163.967,393.543c-0.092-0.183-0.126-0.329-0.174-0.334c-1-0.099-0.862,0.023-1.033,0.2       C163.141,393.45,163.523,393.493,163.967,393.543z M169.129,394.408c-0.263-0.317-0.09-0.408-1.101-0.367       c-0.05,0.002-0.094,0.143-0.142,0.22C168.268,394.306,168.65,394.351,169.129,394.408z M225.821,405.301       c0.165-0.085,0.312-0.16,0.46-0.235c-0.406-0.11-0.237-0.118-0.646,0.029C225.698,405.164,225.761,405.235,225.821,405.301z        M201.996,404.351c-0.056-0.064-0.108-0.171-0.188-0.201C201.27,403.947,201.085,404.662,201.996,404.351z M198.629,403.511       c-0.059-0.064-0.112-0.168-0.191-0.197C197.9,403.114,197.728,403.82,198.629,403.511z M175.923,395.952       c-0.057-0.063-0.108-0.164-0.186-0.194C175.206,395.559,175.041,396.251,175.923,395.952z M172.282,394.881       c-0.109,0.027-0.218,0.053-0.326,0.08c0.553,0.326,0.379,0.285,0.64,0.057C172.492,394.973,172.387,394.927,172.282,394.881z        M124.623,394.149c-0.105-0.037-0.213-0.112-0.313-0.103c-0.617,0.056-0.242,0.421,0.16,0.29       C124.535,394.315,124.573,394.214,124.623,394.149z M127.982,393.267c-0.219,0.021-0.437,0.042-0.656,0.063       c0.139,0.108,0.248,0.303,0.603,0.162C127.97,393.477,127.966,393.347,127.982,393.267z"/>
					<g>
						<path style="fill:#FC09B2;" d="M324.535,251.683c-0.595,2.707-7.6-3.436-29.552-7.362c-23.051-4.1-47.902-4.483-68.52-1.532        c-36.781,4.863-39.057,14.367-39.77,6.633c-0.565-6.083-1.13-6.47,0.164-13.326c0.164-0.907,0.744-1.547,1.561-1.844        c41.273-15.131,92.796-13,134.303-0.223c2.404,0.756,2.451,2.984,2.796,5.741        C325.635,240.886,325.398,247.777,324.535,251.683z"/>
						<path style="fill:#FC09B2;" d="M320.058,265.01c-0.645,3.121-1.711,5.214-2.127,8.121c-0.164,1.089-0.684,1.342-0.684,1.472        c-1.12,1.681-2.058-0.189-18.784-2.737c-31.356-4.964-65.917-4.636-97.433,2.38c0,0,0,0-0.014,0        c-0.015-0.015-0.015-0.015-0.03,0c-8.364,1.838-5.636,2.129-9.281-8.76c-0.178-0.655,0.194-1.502,0.818-1.77        c14.644-6.232,22.086-6.776,22.086-7.183C264.805,244.723,317.203,259.864,320.058,265.01z"/>
						<path style="fill:#FC09B2;" d="M297.377,215.022c-56.695-7.481-100.823,3.51-104.334,3.078        c-0.297-0.03-0.743-0.669-0.684-0.937c0.119-0.551,0.208-1.101,0.402-1.621c5.964-15.914,4.864-17.907,7.303-18.339        c7.407-1.323,14.962-2.216,22.458-2.721c1.189-0.075,2.186,0.327,3.019,1.16c16.405,16.628,44.366,13.996,57.529,2.811        c5.905-5.027,0.877-5.057,27.917-1.398c2.867,0.394,2.335,2.078,5.771,12.404c0.548,1.557,1.304,3.526,1.457,3.941        c0.586,1.522,0.379,1.028,0.625,1.666C320.341,219.365,317.95,217.744,297.377,215.022z"/>
						<path style="fill:#FC09B2;" d="M202.339,187.435c-0.644,0.031-1.337-0.843-1.141-1.889        c2.076-11.047,0.703-13.886,3.356-14.497c3.842-0.885,5.104-1.023,8.618-1.522c5.418-0.769,2.128,3.064,5.176,13.021        c0.162,0.53,0.279,1.075,0.384,1.619c0.105,0.543-0.495,1.438-1.087,1.615c-0.53,0.158-1.073,0.383-1.611,0.383        C212.103,186.167,209.042,187.117,202.339,187.435z"/>
						<path style="fill:#FC09B2;" d="M301.632,186.624c-13.031-1.391-7.594,1.461-6.352-15.593c0.075-1.021,1.023-1.779,2.077-1.601        c8.181,1.381,11.081,0.9,11.445,3.45C311.309,190.478,312.436,187.778,301.632,186.624z"/>
					</g>
					<g style="opacity:0.65;">
						<path style="fill:#DB5E43;" d="M160.812,381.874c6.968,0,8.734,0.196,13.355-0.776c4.086-0.859,8.114-3.964,8.364-8.724        c0.273-5.204-0.618-5.983-1.697-9.826c-0.266-0.95,0.074-1.447,1.438-0.932c0.935,0.353,30.567,21.485,46.875,40.378        c0.749,0.868,0.392,1.853-0.793,2.257c-2.257,0.77-4.565,1.357-6.96,1.39c-6.195,0.084-17.332,0.988-34.744-6.34        c-5.54-2.332-14.942-4.917-17.629-5.305c-8.294-1.199-21.423-3.066-29.582-2.305c-7.094,0.662-9.553,0.731-13.167,2.101        c-1.059,0.402-1.358-0.873-0.994-1.541c1.513-2.779,7.919-5.932,11.182-7.06c10.446-3.61,16.941-3.344,24.35-3.344        C160.812,381.856,160.812,381.865,160.812,381.874z"/>
						<path style="fill:#DB5E43;" d="M351.275,381.861c6.273,0,13.134-0.425,23.948,3.33c3.258,1.131,12.713,5.938,11.212,8.249        c-0.129,0.198-0.498,0.449-0.653,0.39c-3.446-1.31-7.072-1.397-10.676-1.796c-11.006-1.218-14.398,0.072-17.551,0.109        c-3.656,0.043-7.213,0.869-10.824,1.26c-6.624,0.716-16.468,3.675-21.78,5.925c-23.388,9.905-45.244,6.518-42.576,2.887        c7.233-9.84,47.602-43.381,48.358-40.617c0.35,1.278,0.193-0.17-1.278,6.041c-1.235,5.217,0.599,10.571,5.67,12.565        c5.385,2.117,7.966,1.667,16.149,1.667C351.275,381.867,351.275,381.864,351.275,381.861z"/>
						<path style="fill:#DB5E43;" d="M259.474,304.817c1.95,1.554,1.536,4.215-0.487,5.481c-1.803,1.128-5.521,1.029-7.123-0.428        c-1.001-0.91-1.442-2.202-0.949-3.454C252.142,303.294,257.145,302.962,259.474,304.817z"/>
						<path style="fill:#DB5E43;" d="M338.203,305.791c0.075,0.416-0.773,0.446-0.907,0.298c-0.223-0.238-0.476-0.551-0.759-0.922        c-3.257-4.432-9.712-17.61-16.598-33.806c0.015-0.059,0.03-0.119,0.045-0.179c0.193-0.788,0.417-1.606,0.654-2.424        c0.669-2.216,1.517-4.536,2.633-6.931c5.012-10.857,4.848-23.544,1.665-34.862c-0.372-1.339-0.788-2.603-1.249-3.882        c-0.149-0.416-0.298-0.833-0.461-1.265c-0.164-0.416-0.312-0.847-0.491-1.264c-0.877-2.275-1.859-4.61-2.885-7.288        c-0.089-0.238-0.179-0.461-0.268-0.699c-1.026-2.662-2.083-5.667-3.168-9.251c17.134,15.036,18.695,42.983,18.695,65.396        h-0.089c0,27.5,0.283,21.03,3.079,36.528c0.03,0.148,0.06,0.312,0.089,0.476C338.189,305.747,338.203,305.762,338.203,305.791        z"/>
						<path style="fill:#DB5E43;" d="M363.214,287.081c-0.164,1.666-3.361,1.279-15.111,8.805c-0.149,0.104-4.685,3.094-4.685,3.094        c-0.624,0.401-1.457,0.223-1.859-0.402c-1.487-2.335,8.731-14.055,20.51-12.895        C362.768,285.757,363.288,286.382,363.214,287.081z"/>
						<path style="fill:#DB5E43;" d="M173.775,305.791c-0.074,0.416,0.773,0.446,0.907,0.298c0.223-0.238,0.476-0.551,0.759-0.922        c3.257-4.432,9.712-17.61,16.598-33.806c-0.015-0.059-0.03-0.119-0.044-0.179c-0.194-0.788-0.417-1.606-0.655-2.424        c-0.669-2.216-1.517-4.536-2.632-6.931c-5.012-10.857-4.849-23.544-1.666-34.862c0.372-1.339,0.788-2.603,1.249-3.882        c0.149-0.416,0.298-0.833,0.461-1.265c0.164-0.416,0.312-0.847,0.491-1.264c0.877-2.275,1.859-4.61,2.885-7.288        c0.089-0.238,0.179-0.461,0.268-0.699c1.026-2.662,2.083-5.667,3.168-9.251c-17.134,15.036-18.695,42.983-18.695,65.396h0.089        c0,27.5-0.283,21.03-3.079,36.528c-0.03,0.148-0.06,0.312-0.089,0.476C173.79,305.747,173.775,305.762,173.775,305.791z"/>
						<path style="fill:#DB5E43;" d="M148.765,287.081c0.164,1.666,3.362,1.279,15.111,8.805c0.149,0.104,4.685,3.094,4.685,3.094        c0.624,0.401,1.457,0.223,1.859-0.402c1.487-2.335-8.731-14.055-20.51-12.895C149.211,285.757,148.69,286.382,148.765,287.081        z"/>
					</g>
					<g style="opacity:0.35;">
						<path style="fill:#FC09B2;" d="M325.517,239.74c-0.298-2.81-0.504-4.99-2.796-5.711c-7.585-2.335-15.512-4.313-23.648-5.89        c4.551-4.67,6.99-8.358,8.462-11.586c11.289,1.919,12.806,2.811,11.304-1.487c0.327,0.848,0.684,1.755,1.071,2.737        C323.434,226.771,325.07,233.866,325.517,239.74z"/>
						<path style="fill:#FC09B2;" d="M325.635,243.994c-0.231,12.198-5.404,18.644-7.6,28.526c0.55-2.96,1.383-4.417,2.022-7.511        c-2.855-5.146-55.253-20.287-105.449-8.477c24.898-15.622,38.539-2.893,65.069-14.367        c36.721,3.864,44.096,12.982,44.857,9.519C325.1,249.126,325.532,246.597,325.635,243.994z"/>
					</g>
					<g style="opacity:0.25;">
						<g>
							<path style="fill:#000E3F;" d="M307.535,216.553c2.499-5.428,2.201-9.489,4.596-14.561c0.253-0.52,1.056-1.086,1.279-0.892         c1.513,1.339,0.6,1.195,4.328,11.036c0.149,0.402,0.312,0.833,0.476,1.264C320.518,219.54,320.188,218.704,307.535,216.553z"/>
						</g>
						<g>
							<path style="fill:#000E3F;" d="M320.058,265.01c-0.639,3.094-1.472,4.551-2.022,7.511c-0.483,1.992-0.788,1.933-0.788,2.082         c-0.03,0.045-0.059,0.075-0.119,0.119c-1.972,2.63-9.275-3.949-47.474-5.681c-40.693-1.695-60.206,4.045-68.624,5.206         c0,0,0,0-0.014,0c-0.015-0.015-0.015-0.015-0.03,0c-0.759,0.089-1.428,0.164-2.008,0.179         c-0.506,0.015-1.071-0.699-0.893-1.145c2.241-5.599,10.581-13.015,16.509-16.732c0,0,0.015,0,0.015-0.015         C264.805,244.723,317.203,259.864,320.058,265.01z"/>
						</g>
						<g>
							<path style="fill:#000E3F;" d="M324.535,251.683c-0.778,3.541-8.026-5.643-44.857-9.519         c6.195-2.675,11.735-6.236,19.395-14.026c8.135,1.577,16.063,3.555,23.648,5.89c2.24,0.705,2.473,2.663,2.796,5.711         c0,0.015,0,0.03,0,0.03C325.82,243.608,325.652,246.629,324.535,251.683z"/>
						</g>
					</g>
					<path style="fill:#4217A6;" d="M321.235,327.519c-2.428,2.632-2.532,3.506-6.011,5.767c-9.938,6.461-17.652-0.355-18.986-0.064       c-3.307,4.212-5.112,7.343-11.785,9.501c-4.131,1.336-8.003,0.7-11.685-1.463c-0.48-0.282-0.897-0.667-1.358-0.983       c-2.189-1.503-0.661,1.304-8.054,5.66c-4.902,2.888-10.547,2.816-15.868-0.568c-1.753-1.115-3.43-2.388-4.727-4.105       c-1.686-2.231-2.483-0.444-6.215,1.163c-5.324,2.292-13.122,0.375-18.088-5.44c-2.29-2.681-2.589-4.414-3.989-3.666       c-0.616,0.329-1.205,0.712-1.832,1.02c-8.956,4.401-18.179-0.268-22.027-7.21c-0.708-1.277-0.685-0.674,3.086-15.445       c0.654-2.56,2.59-1.414,4.84-0.5c18.665,7.589,50.57,12.189,82.655,7.767c32.065-4.42,35.61-11.941,36.739-7.54       c4.297,16.761,3.494,13.551,3.553,15.912L321.235,327.519z"/>
					<path style="opacity:0.25;fill:#000E3F;" d="M321.482,327.324c0.458,0.692,1.079,1.326,1.347,2.085       c3.04,8.594,6.974,16.78,11.203,24.837c2.134,4.067,0.969,2.261-15.715,15.112c-45.847,35.314-32.392,37.617-45.049,30.307       c-7.039-4.065-8.848-5.377-15.8-6.364c-8.545-1.214-19.014,6.686-24.631,9.463c-1.51,0.746-2.476-0.294-3.571-1.437       c-0.512-0.535-0.802-1.194-0.647-1.909c2.361-10.837,13.63-23.83,32.934-29.295c5.745-1.626,17.722-2.846,33.133-10.336       c12.221-5.939,23.335-15.694,25.83-28.995c0.206-1.098,0.477-2.183,0.719-3.274L321.482,327.324z"/>
				</g>
				<path style="fill:#000E3F;" d="M446.392,378.815c-5.535-11.19-14.803-19.133-26.807-22.976      c-2.954-8.588-9.629-18.698-13.622-24.748c-0.575-0.871-1.099-1.664-1.552-2.362c-12.587-19.396-19.935-28.49-24.799-34.507      c-8.254-10.213-8.927-11.047-15.214-37.88c-5.147-21.947-11.097-45.083-22.158-65.51c-7.898-14.585-15.495-23.579-24.633-29.159      c-9.057-5.531-19.668-7.783-32.598-10.154c-29.071-5.328-59.125-2.875-84.628,6.91c-8.362,3.209-16.336,10.447-24.376,22.127      c-5.729,8.323-10.743,18.27-15.327,30.41c-5.727,15.168-9.683,30.772-13.104,45.376c-6.287,26.833-6.961,27.668-15.21,37.88      c-4.86,6.017-12.206,15.111-24.788,34.508c-0.453,0.699-0.977,1.492-1.552,2.362c-3.993,6.05-10.668,16.16-13.622,24.748      c-12.007,3.842-21.275,11.782-26.809,22.969c-6.287,12.706-6.929,28.264-1.762,42.683c0.79,2.218,2.205,3.696,3.882,4.055      c1.377,0.296,2.783-0.207,3.963-1.409c0.119,0.13,0.399,0.599,1,2.241c0.032,0.088,0.055,0.149,0.064,0.173l0.135,0.364      c0.44,1.195,0.895,2.43,2.053,3.149c1.667,1.036,4.086,0.599,5.388-0.976c0.574-0.692,0.957-1.192,1.237-1.557      c0.296-0.386,0.471-0.614,0.606-0.72c16.338,11.234,40.099,14.271,62.646,14.271c11.153,0,22.012-0.744,31.523-1.606      c10.771-0.971,20.488-1.618,29.707-1.977c62.361-2.406,80.8-1.139,121.2,1.638l0.188,0.012      c11.523,0.807,21.921,1.494,32.491,1.726c11.045,0.253,20.631-0.103,29.31-1.087c10.48-1.197,19.281-3.181,26.906-6.065      c5.18-1.965,9.728-4.32,13.516-6.999c0.184,0.039,0.331,0.222,0.819,0.858c0.274,0.357,0.649,0.844,1.192,1.505      c1.315,1.571,3.736,2.01,5.402,0.976c1.128-0.711,1.587-1.926,2.03-3.102l0.155-0.408c0.011-0.028,0.036-0.096,0.07-0.191      c0.59-1.627,0.864-2.095,0.982-2.226c1.185,1.204,2.592,1.701,3.972,1.407c1.681-0.359,3.098-1.837,3.888-4.054      C453.32,407.077,452.678,391.522,446.392,378.815z M440.8,418.788c0.391-1.97,0.737-3.995,1.028-6.02      c0.834-5.977,1.476-14.322-0.199-20.126c-0.022-0.076-2.441-7.703-4.79-8.304c-0.434-0.11-0.833,0.015-1.189,0.373      c-0.538,0.558-0.383,1.07-0.136,1.537c0.144,0.285,0.357,0.612,0.604,0.99c1.633,2.505,5.032,7.72,3.541,22.585      c-0.235,2.361-0.6,4.941-1.113,7.883c-0.354,1.977-0.789,4.12-1.292,6.372c-0.527,2.329-1.417,3.684-2.445,3.718      c-0.013,0.001-0.026,0.001-0.039,0.001c-0.98,0-1.98-1.235-2.556-3.166c-0.122-0.409-0.227-0.874-0.321-1.418      c-0.083-0.521-0.143-1.089-0.191-1.782c-0.142-2.521,0.129-5.648,0.416-8.958c0.341-3.936,0.727-8.397,0.476-12.637      c-0.265-4.712-1.257-8.864-2.948-12.341c-0.16-0.33-0.471-0.592-0.812-0.686c-0.09-0.025-0.179-0.036-0.266-0.036      c-0.184,0-0.359,0.054-0.519,0.16c-1.286,0.893-0.25,3.631,0.248,4.947l0.101,0.269c2.174,5.75,1.567,13.207,1.032,19.786      c-0.344,4.224-0.669,8.216-0.199,11.144c-0.005,0.004-0.01,0.008-0.014,0.011c-1.419,1.113-3.511,0.744-4.452-0.793      c-0.132-0.215-0.254-0.449-0.365-0.705c-2.16-5.028-2.245-11.197-2.326-17.163c-0.076-5.635-0.156-11.461-2.029-16.163      c-0.723-1.813-1.617-2.817-2.396-2.678c-0.439,0.077-0.725,0.524-0.744,1.171c0,0.02,0.142,1.572,0.487,2.266      c-1.962,0.431-2.136,4.041-2.336,8.187c-0.169,3.51-0.359,7.487-1.686,10.047c-1.085,2.15-2.249,2.951-3.562,2.438      c-2.319-0.872-3.782-6.925-4.568-10.177c-0.098-0.404-0.188-0.776-0.27-1.102c-2.098-8.289-2.431-17.176-1.081-28.817      c0.065-0.598-0.881-1.086-3.166-2.266c-0.914-0.472-2.052-1.06-3.368-1.784c-2.761-1.53-5.427-3.176-8.15-5.033      c-10.453-7.196-21.164-17.351-31.835-30.188c-0.423-0.508-0.881-1.052-1.367-1.632c-4.591-5.476-11.529-13.75-17.657-23.084      c-4.192-6.362-7.368-12.326-9.443-17.728c-0.831-2.007-1.879-4.479-3.091-7.342c-1.47-3.469-3.135-7.398-4.959-11.783      c0.693-2.338,1.565-4.644,2.589-6.858c4.616-9.997,5.211-22.423,1.676-34.99c-0.936-3.337-2.121-6.278-3.494-9.683      c-1.996-4.951-4.259-10.563-6.529-19.302c-4.842-18.599-4.581-28.415-4.441-33.688c0.025-0.943,0.046-1.771,0.036-2.481      c8.114,2.519,15.772,12.049,19.905,17.192c13.139,16.369,20.499,38.647,25.444,56.227c3.282,11.686,5.174,20.441,6.694,27.474      c3.12,14.437,4.686,21.683,13.418,32.486c7.429,9.203,32.365,40.891,41.306,62.259c0.155,0.361,0.447,0.635,0.821,0.771      c6.876,2.505,12.753,6.124,17.469,10.755c16.566,16.273,14.9,42.949,9.401,52.095l-0.003,0.005      c-0.68,1.216-1.625,1.705-2.587,1.35C441.436,421.96,440.466,420.42,440.8,418.788z M83.574,392.148l0.107-0.283      c0.499-1.312,1.536-4.043,0.24-4.932c-0.227-0.156-0.504-0.2-0.782-0.122c-0.34,0.095-0.655,0.365-0.799,0.684      c-1.707,3.511-2.677,7.547-2.964,12.341c-0.238,4.203,0.145,8.626,0.482,12.527c0.3,3.469,0.583,6.745,0.396,9.347      c-0.044,0.528-0.103,1.033-0.177,1.501c-0.102,0.598-0.232,1.134-0.396,1.64c-0.585,1.825-1.529,2.946-2.474,2.946      c-0.017,0-0.035-0.001-0.053-0.001c-1.019-0.045-1.903-1.4-2.424-3.717c-0.447-2.009-0.836-3.928-1.158-5.704      c-0.468-2.503-0.842-5-1.114-7.423c-1.791-15.739,1.712-21.124,3.396-23.713c0.283-0.434,0.505-0.778,0.647-1.083      c0.288-0.596,0.233-1.028-0.184-1.446c-0.355-0.357-0.757-0.482-1.187-0.372c-2.345,0.599-4.768,8.228-4.79,8.304      c-1.853,6.413-0.807,16.044-0.019,21.214c0.25,1.654,0.54,3.313,0.863,4.932c0.327,1.635-0.652,3.176-1.77,3.589      c-0.959,0.356-1.905-0.137-2.587-1.357c-5.487-9.149-7.143-35.83,9.399-52.095c4.71-4.625,10.592-8.243,17.483-10.755      c0.36-0.132,0.643-0.396,0.822-0.773c8.975-21.449,33.885-53.076,41.305-62.258c8.733-10.803,10.298-18.05,13.419-32.488      c1.52-7.033,3.412-15.787,6.694-27.472c4.949-17.594,12.312-39.885,25.429-56.227l0.1-0.124      c4.809-5.983,10.259-12.764,17.442-16.137c0.431-0.203,0.882-0.377,1.32-0.546c0.396-0.153,0.803-0.31,1.2-0.49      c0.558,2.759-1.232,18.302-1.799,21.955c-2.24,14.457-5.812,23.817-8.964,32.076c-3.206,8.4-5.975,15.655-6.388,25.892      c-0.351,8.802,1.844,14.588,4.168,20.713c0.836,2.205,1.701,4.484,2.468,6.964c-1.529,3.652-2.951,7.014-4.214,9.999      c-1.437,3.398-2.678,6.332-3.63,8.638c-2.057,5.36-5.239,11.322-9.455,17.724c-6.119,9.339-13.059,17.616-17.652,23.094      c-0.484,0.576-0.938,1.118-1.359,1.622c-10.615,12.773-21.262,22.879-31.643,30.039c-2.773,1.921-5.54,3.639-8.224,5.106      c-1.378,0.763-2.56,1.372-3.51,1.862c-2.278,1.174-3.22,1.661-3.143,2.264c0.9,7.868,1.592,18.253-1.081,28.816      c-0.091,0.357-0.192,0.769-0.302,1.219c-0.84,3.441-2.245,9.199-4.553,10.061c-1.309,0.508-2.44-0.27-3.56-2.44      c-1.317-2.554-1.51-6.524-1.68-10.026c-0.201-4.153-0.376-7.769-2.338-8.206c0.35-0.693,0.483-2.247,0.483-2.272      c-0.02-0.642-0.303-1.088-0.741-1.165c-0.768-0.13-1.662,0.867-2.384,2.679c-1.882,4.707-1.96,10.539-2.036,16.18      c-0.079,5.961-0.161,12.123-2.32,17.145c-0.255,0.588-0.58,1.075-0.943,1.467c-1.007,1.086-2.708,1.176-3.891,0.284      l-0.015-0.011c-0.005-0.013-0.01-0.024-0.015-0.037c0.517-2.977,0.183-7.048-0.171-11.364      C82.011,405.354,81.4,397.898,83.574,392.148z M295.166,158.314c-0.051-0.353,0.044-0.664,0.27-0.874      c0.26-0.243,0.666-0.324,1.115-0.227c2.358,0.501,3.434,0.73,8.828,2.582c1.583,0.542,1.659,2.612,1.825,7.147      c0.25,6.831,0.715,19.547,7.428,40.7c0.564,1.773,1.216,3.682,1.996,5.838c0.608,1.639,1.278,3.291,1.925,4.89      c1.334,3.293,2.714,6.699,3.632,10.174c4.396,16.749,0.31,27.141-2.674,34.729c-0.716,1.82-1.391,3.539-1.846,5.106      c-0.269,0.93-0.47,1.733-0.632,2.378c-0.823,3.279-0.825,3.281-5.377,2.198c-3.258-0.774-8.71-2.07-18.198-3.146      c-0.391-0.044-1.051-0.133-1.937-0.254c-4.639-0.633-15.503-2.115-26.476-2.127c-1.894-0.003-3.646-0.007-5.28-0.011      c-16.432-0.038-20.847-0.05-37.039,1.723c-11.206,1.229-17.761,2.796-21.677,3.733c-4.891,1.167-5.519,1.318-6.128-1.199      c-0.867-3.502-2-6.614-3.095-9.622c-3.864-10.613-7.513-20.638,1.794-45.148c3.309-8.717,7.36-20.339,9.336-32.936      c1.103-7.006,1.892-18.489,1.936-22.158c0.014-1.026,0.537-1.75,1.474-2.04c2.062-0.636,4.174-1.259,6.216-1.86l2.215-0.654      c0.722-0.211,1.2-0.202,1.458,0.029c0.575,0.51,0.286,2.234-0.113,4.619c-1,5.969-2.862,17.078,5.001,30.206      c5.98,9.997,18.852,16.437,33.593,16.805c15.139,0.359,28.449-5.784,35.599-16.484c5.319-7.964,7.41-19.449,5.457-29.972      c-0.168-0.916-0.298-1.85-0.424-2.752C295.301,159.241,295.235,158.777,295.166,158.314z M195.513,312.047      c0.54-0.272,1.372,0.018,2.487,0.461c14.419,5.801,34.771,9.248,55.839,9.457c0.689,0.007,1.376,0.01,2.063,0.01      c21.697,0,42.353-3.401,58.363-9.63c0.887-0.346,1.47-0.402,1.882-0.18c0.825,0.441,1.184,2.065,1.834,5.013      c1.207,5.469,3.453,15.649,11.816,31.949c3.094,6.027,3.134,6.152,3.298,6.674c0.029,0.094,0.063,0.201,0.116,0.352      c-0.521,0.914-3.766,3.264-8.218,6.487c-8.044,5.823-21.506,15.569-33.578,27.556c-3.126,3.101-5.371,5.397-7.011,7.074      c-4.259,4.357-4.41,4.47-5.344,4.016c-2.448-1.187-4.086-2.213-5.669-3.207c-1.894-1.188-3.853-2.416-7.187-3.905      c-12.116-5.435-20.304-0.587-28.97,4.546c-1.301,0.77-2.646,1.567-3.991,2.317c-1.551,0.861-1.783,0.612-4.619-2.428      c-4.703-5.039-15.715-16.842-49.706-41.599c-0.838-0.611-0.365-1.582,1.405-4.855c2.812-5.198,8.662-16.015,14.535-39.077v0.001      C194.999,312.538,195.213,312.199,195.513,312.047z M196.749,282.648c-0.373-3.44-0.561-5.167,0.856-5.608      c21.542-6.69,76.048-10.029,115.879-0.264c1.156,0.289,1.745,1.073,1.703,2.269c-0.025,0.873-0.062,1.869-0.103,2.962      c-0.242,6.562-0.61,16.479,0.552,24.125c0.178,1.152,0.216,1.94-0.838,2.372c-26.662,10.735-55.081,11.156-74.23,9.622      c-22.772-1.826-39.788-7.014-44.117-9.944c-0.574-0.397-0.585-0.404,0.004-5.618c0.123-1.099,0.273-2.424,0.448-4.025      C197.688,291.305,197.123,286.095,196.749,282.648z M193.719,286.464c0.322,2.874,0.654,5.845-0.235,11.968      c-0.253,1.736-0.485,3.492-0.709,5.19c-0.654,4.954-1.33,10.078-2.604,15.092c-2.8,10.91-7.251,21.979-13.606,33.837      l-0.078,0.142c-0.378,0.693-1.011,1.852-2.068,1.979c-0.099,0.01-0.5,0.014-1.107,0.019      c-18.632,0.169-33.746,2.342-43.371,4.201c15.847-11.948,28.733-28.001,39.587-42.144      c10.543-13.693,14.333-22.434,18.345-31.687c0.84-1.938,1.709-3.942,2.647-6.007c0.699-1.536,1.294-2.871,1.852-4.154      c0.57,2.77,0.924,5.606,1.079,8.652v0.001C193.508,284.579,193.611,285.495,193.719,286.464z M318.368,282.695      c0.196-2.109,0.459-4.953,1.075-8.176l0.141,0.319c0.649,1.472,1.271,2.88,1.882,4.214c0.923,2.037,1.779,4.015,2.608,5.928      c4.016,9.274,7.809,18.034,18.37,31.766c11.452,14.887,23.95,30.4,39.78,42.295c-13.401-2.559-28.664-4.068-43.082-4.252      l-0.374-0.002c-1.28-0.004-2.291-0.007-2.89-0.981c-10.386-16.577-20.228-48.904-17.747-68.785      C318.213,284.359,318.285,283.588,318.368,282.695z M289.508,187.347c-3.402,6.565-9.407,11.912-16.908,15.055      c-7.136,3.02-15.138,4.045-23.149,2.961c-9.654-1.3-17.658-5.39-23.148-11.827c-5.491-6.439-8.206-14.919-7.85-24.525      c0.145-3.975,0.925-7.98,1.781-12.075c0.138-0.662,0.618-1.154,1.252-1.283c12.249-2.43,23.348-3.644,34.448-3.644      c10.898,0,21.797,1.171,33.777,3.51c1.05,0.205,1.643,0.774,1.816,1.739c0.091,0.505,0.186,1.019,0.282,1.539      C293.273,166.736,295.095,176.618,289.508,187.347z M92.459,404.577c0.094-5.144,0.184-10.015,1.088-13.537      c0.88,2.023,0.963,4.708,1.051,7.54c0.136,4.384,0.29,9.355,3.587,12.776c1.187,1.217,2.542,1.888,3.808,1.837      c1.008-0.025,1.905-0.476,2.665-1.338c3.1-3.492,8.888-23.342,6.49-41.669c3.972-1.784,7.892-3.921,11.977-6.529      c16.976-4.033,36.64-6.126,51.329-5.463c13.63,8.661,44.753,32.553,52.822,44.152c0.038,0.058,0.039,0.225-0.035,0.421      c-0.081,0.213-0.206,0.346-0.29,0.367c-13.187,3.514-28.795-0.829-39.565-5.094c-17.097-6.775-38.582-9.455-56.076-7.001      l-0.134,0.018c-4.267,0.595-9.555,1.661-10.513,3.365c-0.189,0.338-0.208,0.687-0.056,1.04c0.853,1.936,4.426,0.667,6.787-0.172      c0.64-0.227,1.192-0.423,1.527-0.494c11.721-2.48,32.441-2.063,52.301,4.471c1.014,0.333,2.283,0.829,3.752,1.404      c5.419,2.121,13.609,5.324,24.468,6.606c16.513,1.934,23.538-2.245,30.334-6.283c3.605-2.142,7.333-4.357,12.432-5.574      c5.64-1.365,12.898,1.316,17.813,4.277c0.453,0.271,0.949,0.604,1.522,0.988c2.65,1.777,6.654,4.464,14.029,6.217      c0.329,0.078,1.018,0.195,2.059,0.371c6.807,1.15,27.522,4.652,37.56,13.14c2.362,1.996,3.295,5.09,2.378,7.885      c-1.182,3.598-5.023,5.874-10.54,6.244c-2.167,0.142-6.224-0.038-12.365-0.309c-17.484-0.774-50.03-2.211-103.79,0.442      c-6.863,0.338-13.865,0.823-20.636,1.291c-31.851,2.204-61.936,4.284-87.123-6.704c-2.191-0.962-4.261-2.013-6.162-3.127      C92.109,423.533,92.286,413.9,92.459,404.577z M326.911,434.688c2.69-1.739,4.328-5.113,4.174-8.593      c-0.118-2.653-1.404-7.677-8.694-11.523c-7.41-3.925-12.336-5.451-14.983-6.271c-1.54-0.478-2.47-0.766-2.564-1.109      c-0.037-0.139-0.01-0.182,0.001-0.198c0.115-0.178,0.771-0.283,1.763-0.443c2.755-0.443,8.487-1.365,19.883-5.816      c2.598-1.026,5.415-1.98,8.372-2.835c12.24-3.526,22.728-4.623,31.161-4.623c10.677,0,18.055,1.761,21.5,2.583      c1.256,0.299,2.003,0.469,2.362,0.454c0.465-0.038,0.893-0.467,1.105-0.715c0.289-0.324,0.319-0.71,0.086-1.088      c-1.956-3.161-26.347-8.121-57.981,0.532c-1.453,0.397-3.406,1.128-5.879,2.054c-5.044,1.888-11.953,4.474-19.541,5.99      c-6.875,1.381-19.961,1.549-21.661,0.959c-0.906-0.319-1.42-0.729-1.527-1.219c-0.205-0.937,1.02-2.122,2.004-3.074      c0.275-0.266,0.535-0.518,0.745-0.747c2.853-3.148,12.903-12.502,13.342-12.895c5.129-4.597,10.797-9.235,17.836-14.596      l1.289-0.98c4.616-3.509,9.389-7.137,14.301-10.39c0.385-0.251,0.725-0.481,1.033-0.691c1.415-0.959,2.142-1.452,3.634-1.452      c0.035,0,0.07,0,0.107,0.001c19.724,0.342,35.153,2.081,50.055,5.643l0.014,0.009c4.087,2.604,8.006,4.741,11.974,6.53      c-2.389,18.36,3.404,38.194,6.503,41.669c0.761,0.863,1.656,1.314,2.662,1.338c1.282,0.035,2.613-0.621,3.799-1.837      c3.307-3.423,3.458-8.395,3.591-12.782c0.086-2.829,0.168-5.514,1.046-7.534c0.907,3.527,0.999,8.399,1.097,13.545      c0.174,9.193,0.354,18.694,5.323,21.439c-0.89,0.532-1.849,1.057-2.856,1.561c-4.344,2.186-9.052,3.982-14.394,5.491      c-10.8,3.022-22.695,4.528-37.432,4.737c-9.754,0.149-42.309-1.548-43.445-2.679      C326.691,435.055,326.813,434.76,326.911,434.688z"/>
			</g>
		</g>
		<g>
			<g>
				<g>
					<path style="fill:#FF967F;" d="M235.839,159.966c1.606-7.794,2.543-14.026,3.079-18.71c0.699-6.053,0.759-9.563,0.878-10.59       c0.03-0.193-0.223-19.915,10.679-27.039c10.753-7.035,22.027,7.124,22.042,27.009c0,3.123,0.312,6.857,0.803,10.709       c0.818,6.589,2.127,13.564,3.138,18.621"/>
					<path style="opacity:0.65;fill:#DB5E43;" d="M273.319,141.345c-4.224,5.964-10.351,9.727-17.178,9.727       c-6.857,0-12.999-3.793-17.223-9.816c0.699-6.053,0.759-9.563,0.878-10.59c0.03-0.193-0.223-19.915,10.679-27.039       c10.753-7.035,22.027,7.124,22.042,27.009C272.515,133.759,272.828,137.493,273.319,141.345z"/>
				</g>
				<path style="fill:#000E3F;" d="M235.84,161.453c-0.1,0-0.201-0.009-0.301-0.03c-0.805-0.166-1.322-0.953-1.157-1.757      c1.392-6.753,2.421-13.004,3.058-18.579c0.49-4.243,0.661-7.2,0.764-8.967c0.045-0.767,0.078-1.308,0.115-1.625      c0.065-4.907,1.093-21.415,11.342-28.112c3.832-2.507,8.071-2.736,11.941-0.645c7.408,4.002,12.392,15.615,12.402,28.897      c0,2.861,0.266,6.4,0.791,10.522c0.642,5.172,1.663,11.227,3.121,18.517c0.161,0.805-0.361,1.589-1.166,1.75      c-0.81,0.158-1.589-0.361-1.75-1.166c-1.473-7.362-2.505-13.489-3.156-18.73c-0.54-4.241-0.814-7.908-0.814-10.892      c-0.009-12.03-4.468-22.838-10.842-26.282c-2.947-1.59-5.939-1.418-8.899,0.518c-9.253,6.047-9.955,22.435-10.001,25.659      c-0.004,0.217-0.018,0.341-0.021,0.362c-0.025,0.229-0.052,0.713-0.091,1.399c-0.105,1.799-0.28,4.81-0.779,9.135      c-0.646,5.661-1.689,12.001-3.099,18.839C237.151,160.969,236.531,161.453,235.84,161.453z"/>
			</g>
			<g>
				<path style="fill:#000E3F;" d="M236.208,163.053c-1.378,1.553,0.643,1.911,1.989,6.528c1.55,5.315,0.142,10.093-2.6,14.634      c-0.625,1.034-1.31,2.031-2.201,2.868c-2.217,2.086,1.634,2.125,1.56,13.131c-0.023,3.356-0.92,6.415-2.721,9.227      c-0.828,1.293-1.52,1.823-0.61,2.925c8.836,10.706,9.706,30.962-1.902,40.356c-1.77,1.433-4.065,0.451-4.358-1.81      c-0.319-2.46,2.811-8.407-3.96-15.458c-4.522-4.709-9.026-7.77-9.381-16.112c-0.153-3.592,2.049-5.42-0.125-7.374      c-7.323-6.581-4.266-17.619,1.433-25.638c0.747-1.051,0.809-1.141-0.046-2.16c-2.99-3.563-4.011-8.406-3.492-11.405      c2.024-11.695,8.017-12.771,7.296-15.76c-2.955-12.251,8.587-31.68,19.395-25.583      C246.285,136.952,242.965,155.434,236.208,163.053z"/>
				<g>
					<path style="fill:#FFCF00;" d="M222.111,212.274c3.663-0.371,9.07-1.535,8.919-1.51c1.123-0.182,1.806,1.21,0.96,1.99       c-3.903,3.551-9.792,4.674-14.603,3.743c-6.811-1.258-5.701-3.738-4.359-3.783       C215.828,212.621,218.803,212.643,222.111,212.274z"/>
					<g>
						<path style="fill:#4217A6;" d="M224.701,156.89c1.581-13.255,2.846-13.764,2.147-14.662c-1.854-2.38-8.387,7.443-4.18,15.002        C223.173,158.125,224.521,157.903,224.701,156.89z"/>
						<path style="fill:#4217A6;" d="M232.929,149.166c-1.721,0.774-2.953,2.496-3.477,4.083c-0.96,2.939-0.086,5.29,0.599,5.724        c0.542,0.343,1.26,0.182,1.603-0.361c0.071-0.149,0.972-1.497,1.743-4.036c1.099-3.458,0.95-4.151,0.998-4.393        C234.446,149.408,233.649,148.842,232.929,149.166z"/>
						<path style="fill:#4217A6;" d="M221.293,170.617c0.016-0.398,0.157-3.833,0.149-3.634c0.01-0.292-0.105-0.585-0.341-0.793        c-1.813-1.604-4.078,4.346-3.981,7.87c0.078,3.219,1.84,8.055,3.488,8.04C222.667,182.08,221.056,179.358,221.293,170.617z"/>
						<path style="fill:#4217A6;" d="M228.843,181.408l0.046-0.115c0.818-2.056,1.596-8.165,0.916-9.145        c-1.624-2.333-6.481,4.87-2.97,9.529c0.123,0.163,0.294,0.299,0.498,0.38C227.93,182.295,228.606,182.004,228.843,181.408z"/>
						<path style="fill:#4217A6;" d="M217.827,194.764c0.016-0.403,0.158-3.855,0.148-3.634c0.034-0.943-1.139-1.416-1.766-0.706        c-3.293,3.724-3.532,11.077,0.081,15.428c0.666,0.793,1.945,0.309,1.935-0.709l-0.001-0.08        C218.204,202.758,217.674,200.389,217.827,194.764z"/>
						<path style="fill:#4217A6;" d="M226.339,196.295c-0.912-1.311-2.528,0.447-3.28,1.851c-1.889,3.59-0.425,7.567,0.808,8.059        c1.469,0.585,1.826-1.399,2.152-2.943C226.228,202.083,227.02,197.276,226.339,196.295z"/>
						<path style="fill:#4217A6;" d="M229.515,221.012c-0.697-0.808-2.004-0.092-1.705,0.927c3.305,11.76,2.557,14.927,0.71,23.254        c-0.261,1.103,1.177,1.785,1.866,0.884c2.918-3.813,4.092-8.306,3.803-12.705        C233.863,228.187,231.949,223.841,229.515,221.012z"/>
						<path style="fill:#4217A6;" d="M221.908,220.78c-0.713-0.392-1.604,0.157-1.546,0.991c0.375,2.611,0.851,5.074,2.697,9.187        c0.434,0.801,1.611,0.799,2.028-0.036C226.354,228.388,225.075,222.513,221.908,220.78z"/>
					</g>
				</g>
			</g>
			<g>
				<g>
					<g>
						<g>
							<path style="fill:#FF967F;" d="M290.577,91.683c0,5.743-1.379,12.082,3.988,12.082c15.93,0,18.277-22.48,5.73-22.48         C294.928,81.284,290.577,85.94,290.577,91.683z"/>
							<path style="fill:#FF967F;" d="M221.718,91.683c0,5.743,1.379,12.082-3.988,12.082c-15.93,0-18.277-22.48-5.73-22.48         C217.367,81.284,221.718,85.94,221.718,91.683z"/>
						</g>
						<g style="opacity:0.65;">
							<path style="fill:#DB5E43;" d="M300.579,94.879c-2.796,1.773-3.699,0.556-3.134-0.278c0.934-1.381,2.142-2.382,3.991-4.845         c0.934-1.265,1.408-2.599,2.234-2.024C304.747,88.482,304.066,92.633,300.579,94.879z"/>
							<path style="fill:#DB5E43;" d="M210.858,89.756c1.318,1.756,2.027,2.429,2.56,3.078c1.147,1.299,1.53,1.913,1.429,1.764         c0.401,0.588-0.113,1.366-0.812,1.233c-3.449-0.673-6.492-4.502-5.688-7.698c0.147-0.583,0.907-0.71,1.244-0.229         C209.591,87.904,210.476,89.237,210.858,89.756z"/>
						</g>
					</g>
					<g>
						<path style="fill:#000E3F;" d="M294.565,105.251c-1.649,0-2.965-0.499-3.909-1.482c-1.938-2.018-1.797-5.484-1.647-9.153        c0.04-0.972,0.081-1.961,0.081-2.933c0-6.554,5.026-11.885,11.205-11.885c2.98,0,5.465,1.109,7.184,3.208        c1.503,1.834,2.331,4.374,2.331,7.153C309.81,97.576,304.108,105.251,294.565,105.251z M300.294,82.772        c-4.538,0-8.23,3.997-8.23,8.911c0,1.012-0.041,2.043-0.083,3.054c-0.118,2.885-0.239,5.868,0.821,6.972        c0.135,0.141,0.545,0.568,1.763,0.568c7.97,0,12.271-6.244,12.271-12.119c0-2.093-0.588-3.964-1.657-5.267        C304.026,83.485,302.383,82.772,300.294,82.772z"/>
						<path style="fill:#000E3F;" d="M217.73,105.251c-9.543,0-15.246-7.675-15.246-15.094c0-2.779,0.828-5.319,2.331-7.153        c1.72-2.099,4.204-3.208,7.184-3.208c6.179,0,11.205,5.332,11.205,11.885c0,0.972,0.041,1.962,0.081,2.933        c0.15,3.67,0.29,7.135-1.647,9.153C220.694,104.752,219.379,105.251,217.73,105.251z M212,82.772        c-2.089,0-3.732,0.713-4.884,2.118c-1.069,1.303-1.657,3.174-1.657,5.267c0,5.875,4.301,12.119,12.271,12.119        c1.218,0,1.627-0.427,1.763-0.568c1.059-1.104,0.938-4.086,0.821-6.972c-0.042-1.012-0.083-2.042-0.083-3.054        C220.23,86.769,216.538,82.772,212,82.772z"/>
					</g>
				</g>
				<g>
					<g>
						<path style="fill:#FF967F;" d="M288.707,119.429c-5.075,8.254-17.073,20.064-32.412,20.242h-0.296        c-15.339-0.179-27.336-11.988-32.411-20.242c-9.291-15.111-7.19-45.11-0.353-59.477c6.612-13.891,18.539-21.254,32.764-21.566        c0.056-0.015,0.099-0.015,0.156-0.015c0.042,0,0.098,0,0.14,0.015c14.225,0.312,26.152,7.674,32.764,21.566        C295.897,74.32,297.997,104.319,288.707,119.429z"/>
						<g style="opacity:0.65;">
							<path style="fill:#DB5E43;" d="M278.622,95.354c-5.203,0-9.437,3.461-9.437,7.715c0,4.254,4.234,7.715,9.437,7.715         c5.204,0,9.438-3.461,9.438-7.715C288.06,98.815,283.827,95.354,278.622,95.354z"/>
							<path style="fill:#DB5E43;" d="M233.799,95.354c-5.204,0-9.438,3.461-9.438,7.715c0,4.254,4.234,7.715,9.438,7.715         c5.202,0,9.436-3.461,9.436-7.715C243.235,98.815,239.001,95.354,233.799,95.354z"/>
						</g>
						<path style="fill:#FFFFFF;" d="M246.632,105.66c-0.825,0-1.436,0.77-1.26,1.576c1.41,6.489,5.754,11.081,10.712,11.119        c5.004,0.039,9.415-4.57,10.839-11.118c0.175-0.807-0.434-1.577-1.26-1.577H246.632z"/>
					</g>
					<g>
						<path style="fill:#000E3F;" d="M290.402,59.313c-6.712-14.102-18.79-22.06-34.018-22.413c-0.177-0.02-0.276-0.032-0.531,0.001        c-15.2,0.371-27.258,8.327-33.961,22.411c-6.585,13.835-9.692,44.437,0.428,60.896c4.729,7.691,17.14,20.757,33.678,20.95        h0.314c16.521-0.192,28.933-13.259,33.662-20.95C300.093,103.749,296.986,73.148,290.402,59.313z M287.44,118.65        c-4.409,7.172-15.935,19.357-31.145,19.534h-0.279c-15.226-0.177-26.752-12.362-31.161-19.534        c-8.714-14.173-7.277-43.35-0.277-58.059c6.212-13.051,17.382-20.409,31.453-20.718c0.038-0.001,0.077-0.003,0.116-0.006        c0.038,0.003,0.077,0.006,0.115,0.006c14.071,0.309,25.242,7.667,31.454,20.718C294.716,75.299,296.154,104.477,287.44,118.65        z"/>
						<path style="fill:#000E3F;" d="M267.201,71.983c-0.018,5.757,14.139,9.067,15.639,3.078        C284.607,68.005,267.226,64.477,267.201,71.983z"/>
						<path style="fill:#000E3F;" d="M245.093,71.983c-0.025-7.506-17.406-3.978-15.639,3.078        C230.954,81.05,245.111,77.74,245.093,71.983z"/>
						<path style="fill:#000E3F;" d="M279.302,81.931c-0.821,0-1.487,0.666-1.487,1.487c0,3.367-2.064,5.054-3.981,5.198        c-1.796,0.128-4.099-1.045-4.666-4.809c-0.122-0.814-0.884-1.373-1.692-1.25c-0.812,0.122-1.372,0.879-1.25,1.691        c0.772,5.136,4.15,7.352,7.322,7.352c0.169,0,0.339-0.006,0.506-0.019c3.347-0.25,6.734-3.134,6.734-8.164        C280.789,82.597,280.123,81.931,279.302,81.931z"/>
						<path style="fill:#000E3F;" d="M244.819,82.557c-0.809-0.124-1.569,0.436-1.691,1.25c-0.566,3.765-2.874,4.936-4.666,4.809        c-1.917-0.144-3.981-1.832-3.981-5.198c0-0.821-0.666-1.487-1.487-1.487c-0.821,0-1.487,0.666-1.487,1.487        c0,5.03,3.388,7.914,6.734,8.164c0.168,0.013,0.337,0.019,0.506,0.019c3.173,0,6.551-2.217,7.322-7.352        C246.19,83.437,245.631,82.679,244.819,82.557z"/>
						<path style="fill:#000E3F;" d="M257.292,99.756c-1.515,0-4.785-0.745-5.603-1.996c-0.144-0.216-0.24-0.481-0.024-1.01        c0.045-0.136,3.362-7.96,4.998-11.816c0.105-0.247,0.412-1.049,0.412-1.265c0-0.818-0.673-1.491-1.491-1.491        c-1.254,0-1.475,1.165-1.702,1.702c-1.652,3.911-4.936,11.669-4.959,11.715c-0.721,1.707-0.24,3.03,0.289,3.823        c1.827,2.765,6.829,3.318,8.079,3.318c0.818,0,1.491-0.674,1.491-1.491C258.783,100.429,258.11,99.756,257.292,99.756z"/>
					</g>
				</g>
			</g>
			<g>
				<path style="fill:#000E3F;" d="M281.16,14.451c-15.859-8.486-37.946-5.456-47.558,6.313c-1.14-0.129-2.43-0.057-3.91,0.28      c-21.422,4.894-36.475,40.925-20.743,59.074c8.4,9.69,15.937-7.894,20.378-15.026c2.128-3.417,4.109-7.367,5.791-11.47      c1.93,3.625,4.222,6.937,8.029,9.498c5.785,3.892,10.836,1.167,11.367-4.586c0.06-0.652-0.056-1.553,0.305-1.7      c1.269-0.514,5.676,8.671,15.731,8.705c4.979,0.017,6.19-4.491,6.902-5.606c0.265-0.416,8.007,10.476,8.669,11.54      c2.367,3.802,5.309,9.386,9.87,10.823c9.666,3.047,13.194-11.264,13.334-18.025C309.691,46.551,299.002,23.998,281.16,14.451z"/>
				<g>
					<path style="fill:#4217A6;" d="M231.596,26.128c-0.007-1.089-1.513-1.381-1.927-0.374c-3.315,8.061-1.95,19.727,3.232,26.822       c0.688,0.939,2.17,0.244,1.892-0.882C232.148,41.202,231.606,37.164,231.596,26.128z"/>
					<path style="fill:#4217A6;" d="M299.677,50.152c-7.613-29.144-39.285-40.433-63.645-24.528       c-1.033,0.681-0.108,2.258,0.987,1.692c1.146-0.504,5.371-2.883,11.723-4.25c21.083-4.898,40.81,6.671,47.399,28.105       c1.226,3.933,1.99,8.034,2.372,12.182c0.435,4.133,0.46,8.387,0.115,12.491l-0.007,0.078c-0.042,0.528,0.322,1.013,0.854,1.11       c0.567,0.103,1.11-0.273,1.213-0.841C302.253,67.559,301.908,58.712,299.677,50.152z"/>
					<path style="fill:#4217A6;" d="M238.332,33.757c-1.084,0.506-0.476,2.16,0.682,1.836c15.818-4.035,31.346-3.73,39.904,10.171       c5.933,9.674,4.54,14.985,6.725,14.787c0.577-0.052,1.001-0.562,0.949-1.138C284.125,32.206,261.194,23.065,238.332,33.757z"/>
					<path style="fill:#4217A6;" d="M240.582,44.295c-0.34,0.239-0.506,0.679-0.379,1.099c0.158,0.525,0.712,0.823,1.237,0.665       l0.023-0.007c2.584-0.779,5.156-1.194,7.712-1.175c5.433,0.07,10.241,1.914,13.99,4.993c3.131,2.605,4.342,5.194,4.845,5.943       c0.571,1.05,2.181,0.482,1.967-0.694C267.842,43.382,251.308,36.751,240.582,44.295z"/>
					<path style="fill:#4217A6;" d="M221.293,34.995c0.642-0.951-0.591-2.052-1.464-1.308c-9.622,8.195-13.753,25.453-11.168,37.774       c0.095,0.454,0.484,0.806,0.969,0.835c0.58,0.034,1.079-0.409,1.113-0.99l0.001-0.01       C212.231,46.016,220.741,36.316,221.293,34.995z"/>
					<path style="fill:#4217A6;" d="M225.089,48.609c-9.043,8.509-10.076,23.148-7.421,23.679c0.576,0.115,1.135-0.258,1.25-0.834       l0.013-0.062c2.583-12.919,8.845-21.39,7.574-22.74C226.125,48.25,225.492,48.23,225.089,48.609z"/>
				</g>
			</g>
		</g>
	</g>
	<g>
		<path style="fill:#000E3F;" d="M97.86,190.077c-11.105-11.185-12.949-13.062-13.319-13.656c-0.026-0.026-0.026-0.076-0.053-0.102    l0.031-0.026l0.052-0.05c1.566-1.649,2.399-2.548,3.181-3.041c-1.017-1.425-2.588-3.067-3.764-4.137    c-3.942,3.024-7.7,6.868-11.217,10.285c0.021,0.026,0.047,0.001,0.073,0.027c1.442,1.765,3.637,3.856,4.018,3.99    c0.545-0.268,2.222-2.323,3.429-2.679l0.052,0.002c9.71,9.318,13.089,13.474,13.466,13.712c1.052-1.405,3.021-2.841,4.099-4.271    l-0.026-0.027L97.86,190.077z"/>
		<path style="fill:#000E3F;" d="M107.487,171.385c-1.457-2.024-3.072-3.727-4.608-5.783c-0.738-0.935-1.502-1.847-2.348-2.69    c-0.569-0.511-1.164-1-1.877-1.343c-0.752-0.452-1.631-0.708-2.544-0.738c-3.496,0.152-6.972,2.968-8.408,6.195    c-0.136,0.347-0.189,0.674-0.22,1.03c-0.045,2.248,1.13,4.275,2.497,5.956c2.238,3.064,4.887,5.783,7.404,8.566    c0.934,1.056,1.95,2.04,3.237,2.513c1.891,0.909,3.635,0.014,5.27-1.121c1.151-0.821,2.15-1.757,2.924-2.917    c0.873-1.253,1.534-2.654,1.433-4.072c-0.24-1.635-1.072-3.244-2.078-4.613L107.487,171.385z M105.159,176.581    c-0.066,2.222-2.53,4.001-4.474,3.138c-1.378-0.915-2.51-2.321-3.792-3.459c-1.381-1.478-2.669-3.078-3.549-4.743    c-0.424-0.959-0.518-1.965-0.297-2.996c0.211-0.929,0.827-1.871,1.834-2.194c1.202-0.303,2.463,0.192,3.406,1.146    c0.56,0.613,1.407,1.456,1.428,1.484l1.632,1.833l1.107,1.329c0.074,0.081,0.556,0.712,1.15,1.484    C104.809,175.323,105.089,175.09,105.159,176.581z"/>
		<path style="fill:#000E3F;" d="M130.838,159.038c-0.117-0.228-0.277-0.467-0.42-0.675c-0.873,0.769-7.228,4.317-7.842,5.083    l-0.017-0.03c-3.408-5.186-7.656-10.844-11.024-16.101c-1.458,0.296-4.25,2.285-4.83,3.161c5.83,8.292,8.112,11.32,13.85,20.503    l0.364,0.537c9.7-6.394,10.854-7.575,11.751-8.054c0.836-0.57,1.029-0.482-1.071-3.241    C131.348,159.913,131.071,159.446,130.838,159.038z"/>
		<path style="fill:#000E3F;" d="M143.293,147.606c-1.11-2.233-2.432-4.174-3.612-6.452c-0.573-1.041-1.183-2.066-1.882-3.033    c-0.478-0.596-0.988-1.174-1.636-1.63c-0.669-0.566-1.49-0.96-2.395-1.138c-3.471-0.415-7.355,1.803-9.294,4.754    c-0.186,0.321-0.292,0.636-0.381,0.981c-0.407,2.213,0.425,4.4,1.5,6.28c1.713,3.385,3.89,6.494,5.93,9.646    c0.744,1.192,1.582,2.329,2.78,3.002c1.722,1.204,3.583,0.601,5.383-0.255c1.265-0.624,2.408-1.384,3.351-2.406    c1.073-1.096,1.949-2.37,2.075-3.785c0.028-1.65-0.532-3.374-1.303-4.886L143.293,147.606z M140.156,152.358    c-0.424,2.18-3.142,3.539-4.921,2.371c-1.209-1.125-2.099-2.695-3.182-4.023c-1.122-1.682-2.136-3.469-2.735-5.252    c-0.264-1.016-0.193-2.024,0.193-3.005c0.353-0.882,1.121-1.714,2.158-1.868c1.24-0.105,2.403,0.588,3.174,1.68    c0.455,0.695,1.158,1.663,1.175,1.695l1.311,2.072l0.882,1.49c0.056,0.092,0.431,0.793,0.892,1.649    C140.015,151.057,140.327,150.875,140.156,152.358z"/>
		<path style="fill:#000E3F;" d="M146.585,126.96c-0.031,0.016-0.05,0.065-0.033,0.096c0.898,4.075,2.936,8.706,4.823,16.484    c-5.237-6.077-8.2-12.702-9.372-14.211c-0.756,0.184-4.215,1.82-4.404,2.644l0.017,0.032c4.389,7.115,9.356,13.856,14.817,19.818    c0.791-0.119,1.869-0.626,2.799-1.1c0.899-0.458,1.608-0.979,1.958-1.158c-1.732-8.506-3.405-16.316-5.83-24.672    C149.754,125.39,148.192,126.546,146.585,126.96z"/>
		<path style="fill:#000E3F;" d="M176.018,135.878l-0.03-0.065c-2.979,1.381-5.85,2.284-8.772,3.522l-0.049-0.019    c-0.553-1.02-1.444-2.757-1.76-4.152c0.308-0.563,2.655-1.126,3.865-2.07c-0.724-1.614-1.161-3.193-2.024-4.59l-0.013-0.033    c-1.377,0.544-2.759,1.17-4.135,1.633l-0.04-0.02c-0.807-1.069-1.102-2.59-1.685-3.872l0.019-0.047l0.1-0.043    c2.812-1.505,5.98-2.26,8.533-4.088l-0.013-0.034c-0.657-1.561-1.106-3.254-1.999-4.717c-0.086-0.199-8.635,3.581-13.666,6.029    c2.789,7.791,6.328,15.031,9.595,22.737c4.44-1.452,9.121-3.826,13.651-5.707C177.394,138.86,176.724,137.264,176.018,135.878z"/>
		<path style="fill:#000E3F;" d="M79.057,145.959c-0.295-0.27-0.634-0.695-0.921-1.067c-0.143-0.211-0.334-0.425-0.504-0.614    c-0.758,0.882-6.573,5.263-7.076,6.106l-0.021-0.026c-4.085-4.675-9.068-9.702-13.118-14.452c-1.401,0.491-3.898,2.844-4.353,3.79    c6.901,7.422,9.575,10.111,16.517,18.429l0.434,0.481c8.737-7.655,9.726-8.984,10.545-9.582    C81.305,148.346,81.514,148.406,79.057,145.959z"/>
		<path style="fill:#000E3F;" d="M82.456,147.716c0.6-0.861,4.772-3.276,4.889-4.393c-5.531-6.053-10.554-13.03-15.761-19.435    l-0.091-0.113l-0.674,0.546c-1.652,1.393-2.448,1.9-3.142,2.418c-0.254,0.204-1.023,0.69-1.193,0.876l0.043,0.057    C70.953,134.485,77.504,140.543,82.456,147.716z"/>
		<path style="fill:#000E3F;" d="M84.885,130.353c0.894,0.066,1.81-0.019,2.708-0.444c1.87-0.861,4.37-2.267,5.952-0.565    c2.431,2.38-1.874,5.407-3.819,3.027c-1.291,0.98-3.224,2.063-4.447,3.261l0.065,0.088l0.06,0.087    c2.446,3.882,7.744,3.39,11.23,1.007c2.458-1.644,4.005-4.365,3.209-7.437c-0.518-2.693-2.366-5.186-5.007-5.947    c-2.342-0.843-5.03-0.68-7.276,0.585c-0.902,0.475-1.807,0.819-2.81,0.118c-0.217-0.243-0.465-0.464-0.568-0.79    c-1.265-2.424,3.107-4.382,4.178-1.91c1.653-0.613,3.206-1.913,4.407-3.139l0.031-0.022c-1.556-3.324-4.13-4.358-6.696-3.971    c-2.485,0.504-5.39,2.206-6.722,4.368C76.756,122.922,78.817,129.531,84.885,130.353z"/>
		<path style="fill:#000E3F;" d="M93.98,114.429c0.584-0.154,2.644-1.824,3.898-1.926l0.053,0.011    c7.614,11.1,10.075,15.856,10.397,16.166c1.312-1.162,3.535-2.167,4.882-3.349l-0.017-0.03l-0.022-0.031    c-8.594-13.211-10.023-15.424-10.262-16.081c-0.022-0.03-0.008-0.081-0.03-0.11l0.036-0.02l0.057-0.038    c1.87-1.295,2.871-2.006,3.732-2.33c-0.704-1.603-1.907-3.529-2.839-4.816c-4.475,2.158-8.939,5.158-13.079,7.789    c0.022,0.03,0.053,0.01,0.07,0.041C91.909,111.727,93.634,114.218,93.98,114.429z"/>
		<path style="fill:#000E3F;" d="M131.702,115.115c-0.336-1.458-1.155-2.983-1.981-4.296l-0.035-0.064    c-2.84,1.652-5.614,2.815-8.407,4.32l-0.049-0.015c-0.642-0.965-1.689-2.61-2.133-3.968c0.254-0.589,2.542-1.368,3.652-2.417    c-0.868-1.539-1.446-3.07-2.438-4.378l-0.017-0.031c-1.317,0.668-2.636,1.418-3.957,2.005l-0.049-0.014    c-0.903-0.988-1.336-2.475-2.032-3.697l0.014-0.049l0.099-0.052c2.655-1.756,5.738-2.802,8.109-4.857l-0.017-0.031    c-0.802-1.493-1.401-3.136-2.427-4.508c-0.099-0.191-8.252,4.361-13.036,7.263c3.497,7.493,7.688,14.367,11.653,21.731    C122.936,120.201,127.368,117.407,131.702,115.115z"/>
		<path style="fill:#000E3F;" d="M132.657,111.892l1.045,2.298c1.017-0.461,2.186-0.756,3.239-1.233    c0.492-0.223,0.936-0.464,1.373-0.821c-0.379-0.739-0.812-1.69-1.27-2.71c-1.671-3.678-3.688-8.385-3.557-8.445    c0.1-0.044,0.485,0.374,0.875,0.791l0.775,0.837c2.285,2.329,5.182,4.697,8.101,7.293c0.886-0.403,2.205-0.805,3.091-1.207    c0.759-0.343,0.93-0.578,1.012-0.655l-0.3-0.657c-0.403-0.886-0.82-1.725-1.222-2.612c-0.553-1.215-1.039-2.379-1.622-3.66    c-0.848-1.871-1.709-3.777-2.581-5.599l-4.798-10.574c-0.679,0.152-1.437,0.414-2.254,0.786c-0.823,0.373-1.579,0.796-2.278,1.27    c0.461,1.098,0.845,2.033,1.265,2.952c0.716,1.576,1.466,2.976,2.259,4.717c0.343,0.755,0.676,1.751,0.587,1.909    c-0.099,0.045-4.7-3.728-5.245-4.232c-1.621-1.48-2.022-1.577-3.379-2.902c-0.085-0.198-2.314,0.654-2.87,0.907    c-0.529,0.239-1.04,0.511-1.417,0.802c1.033,2.896,2.323,5.913,3.694,8.935C129.04,104.187,130.768,107.721,132.657,111.892z"/>
	</g>
	<g>
		<path style="fill:#915EFD;" d="M66.856,78.358c-1.831,2.03-5.567,4.509-8.996,12.93c-0.307,0.755-0.629,1.516-1.05,2.209    c-0.586,0.965-1.78,0.996-2.416,0.036c-1.437-2.171-1.431-5.56-6.255-11.547c-2.831-3.513-5.648-4.671-3.147-6.684    c6.236-5.018,8.539-12.73,9.704-14.756c0.503-0.874,1.643-0.913,2.245-0.116c0.645,0.856,0.963,1.88,1.338,2.872    c2.776,7.342,6.782,10.771,8.411,12.429C67.1,76.148,67.487,77.66,66.856,78.358z"/>
		<path style="fill:#915EFD;" d="M172.617,29.739c-2.109,2.336-6.407,5.181-10.362,14.892c-0.354,0.869-0.724,1.746-1.209,2.544    c-0.675,1.112-2.05,1.147-2.782,0.04c-1.656-2.502-1.648-6.403-7.204-13.299c-3.261-4.047-6.506-5.38-3.625-7.698    c7.183-5.78,9.835-14.663,11.177-16.995c0.58-1.007,1.892-1.052,2.586-0.133c0.743,0.985,1.109,2.165,1.541,3.308    c3.204,8.472,7.834,12.428,9.688,14.316C172.898,27.194,173.344,28.935,172.617,29.739z"/>
		<path style="fill:#915EFD;" d="M101.445,246.996c-2.109,2.336-6.407,5.181-10.362,14.892c-0.354,0.869-0.725,1.746-1.209,2.545    c-0.675,1.112-2.05,1.146-2.782,0.04c-1.656-2.502-1.648-6.403-7.204-13.299c-3.261-4.047-6.506-5.379-3.624-7.698    c7.182-5.78,9.835-14.662,11.177-16.995c0.579-1.007,1.892-1.052,2.586-0.133c0.743,0.985,1.109,2.165,1.542,3.308    c3.204,8.472,7.834,12.428,9.688,14.316C101.726,244.451,102.172,246.192,101.445,246.996z"/>
		<path style="fill:#915EFD;" d="M435.62,296.817c-2.109,2.336-6.407,5.181-10.362,14.892c-0.354,0.869-0.725,1.746-1.209,2.545    c-0.675,1.112-2.05,1.147-2.782,0.04c-1.656-2.502-1.648-6.403-7.204-13.299c-3.261-4.047-6.506-5.38-3.625-7.698    c7.182-5.78,9.835-14.663,11.177-16.995c0.579-1.007,1.892-1.052,2.586-0.133c0.743,0.985,1.109,2.165,1.541,3.308    c3.204,8.472,7.834,12.428,9.688,14.316C435.901,294.272,436.347,296.013,435.62,296.817z"/>
		<path style="fill:#915EFD;" d="M403.767,183.829c-0.44,0.487-0.886,0.975-1.374,1.412c-6.876,6.166-8.65,13.473-10.197,16.024    c-0.674,1.112-2.05,1.147-2.782,0.041c-0.51-0.771-0.889-1.657-1.185-2.539c-4.623-13.767-13.953-14.99-9.644-18.458    c7.183-5.779,9.835-14.662,11.177-16.995c0.579-1.007,1.892-1.052,2.586-0.133c0.743,0.985,1.109,2.165,1.541,3.308    c3.204,8.472,7.835,12.428,9.688,14.316C404.048,181.284,404.496,183.022,403.767,183.829z"/>
		<path style="fill:#915EFD;" d="M465.683,223.27c-1.831,2.03-5.567,4.509-8.997,12.93c-0.307,0.755-0.629,1.516-1.05,2.209    c-0.586,0.966-1.78,0.996-2.415,0.036c-1.437-2.17-1.431-5.56-6.255-11.547c-2.831-3.513-5.648-4.67-3.147-6.684    c6.236-5.018,8.539-12.73,9.704-14.755c0.503-0.874,1.643-0.913,2.245-0.116c0.646,0.856,0.963,1.88,1.339,2.872    c2.776,7.342,6.782,10.771,8.411,12.43C465.927,221.06,466.314,222.571,465.683,223.27z"/>
	</g>
</g>















</svg>
