<?xml version="1.0" encoding="UTF-8"?>
<!-- Generator: Adobe Illustrator 25.3.1, SVG Export Plug-In . SVG Version: 6.00 Build 0)  -->
<svg xmlns="http://www.w3.org/2000/svg" xmlns:xlink="http://www.w3.org/1999/xlink" version="1.1" id="Capa_1" x="0px" y="0px" viewBox="0 0 512 512" style="enable-background:new 0 0 512 512;" xml:space="preserve" width="512" height="512">
<g>
	<g>
		<g>
			<path style="fill:#FD8A02;" d="M498.376,500.751H13.622c-6.559,0-11.705-5.146-12.107-11.303c-0.075-1.115,0-2.261,0.253-3.406     l29.389-135.091c1.205-5.577,6.143-9.548,11.854-9.548h425.976c5.711,0,10.649,3.971,11.854,9.548l29.389,135.091     C511.881,493.597,506.125,500.751,498.376,500.751z"/>
			<g style="opacity:0.5;">
				<path style="fill:#FFCF00;" d="M13.622,500.751h8.283C37.606,441.42,49.381,388.548,57.79,341.402h-6.399      c-13.747,47.129-26.822,99.98-39.007,159.286C12.79,500.729,13.203,500.751,13.622,500.751z"/>
				<path style="fill:#FFCF00;" d="M51.763,500.751c13.959-59.331,24.179-112.203,31.204-159.349h-6.4      C64.2,388.548,52.674,441.42,42.229,500.751H51.763z"/>
				<path style="fill:#FFCF00;" d="M81.621,500.751c12.215-59.331,20.883-112.203,26.522-159.349h-6.399      C90.761,388.548,80.789,441.42,72.086,500.751H81.621z"/>
				<path style="fill:#FFCF00;" d="M111.478,500.751c10.472-59.331,17.586-112.203,21.841-159.349h-6.4      c-9.597,47.146-18.016,100.017-24.975,159.349H111.478z"/>
				<path style="fill:#FFCF00;" d="M141.337,500.751c8.729-59.331,14.289-112.203,17.158-159.349h-6.399      c-8.211,47.146-15.077,100.017-20.293,159.349H141.337z"/>
				<path style="fill:#FFCF00;" d="M171.194,500.751c6.986-59.331,10.993-112.203,12.478-159.349h-6.399      c-6.826,47.146-12.139,100.017-15.612,159.349H171.194z"/>
				<path style="fill:#FFCF00;" d="M201.052,500.751c5.243-59.331,7.697-112.203,7.796-159.349h-6.399      c-5.442,47.146-9.201,100.017-10.93,159.349H201.052z"/>
				<path style="fill:#FFCF00;" d="M230.91,500.751c3.5-59.331,4.4-112.203,3.114-159.349h-6.399      c-4.056,47.146-6.262,100.017-6.249,159.349H230.91z"/>
				<path style="fill:#FFCF00;" d="M251.234,500.751h9.534c1.757-59.331,1.104-112.203-1.567-159.349h-6.399      C250.13,388.548,249.477,441.42,251.234,500.751z"/>
				<path style="fill:#FFCF00;" d="M281.092,500.751h9.534c0.013-59.331-2.193-112.203-6.249-159.349h-6.399      C276.691,388.548,277.592,441.42,281.092,500.751z"/>
				<path style="fill:#FFCF00;" d="M320.483,500.751c-1.73-59.331-5.489-112.203-10.93-159.349h-6.399      c0.099,47.146,2.553,100.017,7.795,159.349H320.483z"/>
				<path style="fill:#FFCF00;" d="M350.341,500.751c-3.472-59.331-8.785-112.203-15.612-159.349h-6.4      c1.485,47.146,5.492,100.017,12.478,159.349H350.341z"/>
				<path style="fill:#FFCF00;" d="M380.199,500.751c-5.216-59.331-12.082-112.203-20.294-159.349h-6.399      c2.869,47.146,8.43,100.017,17.159,159.349H380.199z"/>
				<path style="fill:#FFCF00;" d="M410.057,500.751c-6.959-59.331-15.379-112.203-24.975-159.349h-6.4      c4.254,47.146,11.369,100.017,21.841,159.349H410.057z"/>
				<path style="fill:#FFCF00;" d="M439.915,500.751c-8.702-59.331-18.675-112.203-29.657-159.349h-6.399      c5.64,47.146,14.307,100.017,26.522,159.349H439.915z"/>
				<path style="fill:#FFCF00;" d="M469.773,500.751c-10.445-59.331-21.971-112.203-34.338-159.349h-6.4      c7.024,47.146,17.245,100.017,31.203,159.349H469.773z"/>
				<path style="fill:#FFCF00;" d="M498.376,500.751c0.42,0,0.832-0.03,1.24-0.071c-12.184-59.302-25.258-112.151-39.005-159.277      h-6.399c8.41,47.146,20.184,100.017,35.885,159.349H498.376z"/>
			</g>
			<g style="opacity:0.5;">
				<path style="fill:#DB5E43;" d="M498.376,500.751H13.622c-6.559,0-11.705-5.146-12.107-11.303      c8.686-8.716,20.168-14.888,32.051-18.487c24.645-7.436,23.232-5.503,352.355-10.337c16.583-0.238,34.714-1.056,47.133-12.047      c11.943-10.56,15.275-27.738,15.989-43.652c0.743-16.405-0.461-33.226,4.492-48.887c1.636-5.161,4.194-10.203,7.466-14.635      h7.987c5.711,0,10.649,3.971,11.854,9.548l29.389,135.091C511.881,493.597,506.125,500.751,498.376,500.751z"/>
			</g>
		</g>
		<path style="fill:#000E3F;" d="M498.376,502.238H13.622c-7.157,0-13.126-5.576-13.591-12.694c-0.086-1.293,0.01-2.58,0.285-3.824    l29.388-135.085c1.341-6.211,6.938-10.72,13.307-10.72h425.976c6.369,0,11.966,4.509,13.308,10.722l29.388,135.089    c0.884,4.041-0.099,8.21-2.694,11.434C506.39,500.387,502.522,502.238,498.376,502.238z M43.011,342.889    c-4.978,0-9.352,3.522-10.4,8.375L3.221,486.357c-0.215,0.974-0.29,1.978-0.223,2.991c0.363,5.56,5.029,9.915,10.623,9.915    h484.755c3.241,0,6.264-1.447,8.295-3.969c2.028-2.52,2.796-5.777,2.105-8.936l-29.389-135.093    c-1.049-4.855-5.423-8.377-10.401-8.377H43.011z"/>
	</g>
	<g>
		<g>
			<g>
				<g>
					<g>
						<path style="fill:#FFBBEC;" d="M487.223,154.018c-3.485,1.318-1.622,7.673-2.439,15.676l-0.172-0.05        c0.115-7.466-7.452-19.485-10.809-21.05c-2.844-1.326-3.404,2.134-3.146,4.118c0.45,3.468,3.882,8.157,5.926,14.311        c-3.274-9.322-9.593-16.319-12.027-17.241c-0.64-0.243-1.406-0.201-1.961,0.199c-3.112,2.242,1.732,7.563,5.167,14.804        c0,0-2.528-0.729-2.558-0.704c-3.963-1.184-11.243-2.625-13.295-1.211c-1.514,1.044-1.098,3.088,0.013,4.231        c1.295,1.332,3.281,1.907,4.964,2.563c1.048,0.409,2.028,0.94,2.945,1.56c2.097,1.988,5.411,6.06,5.386,11.942        c-0.018,4.229-1.324,6.526-2.647,7.775c-0.062-0.102-0.107-0.213-0.172-0.313c-5.31-8.174-1.808-11.096-4.422-17.188        c-0.928-2.162-5.107-6.064-7.366-3.531c-1.868,2.094-0.538,6.041-0.505,8.513c0.19,14.273-6.639,25.874-2.653,35.958        c-24.783,10.878-62.753,39.679-64.654,40.548c-0.132-6.371-41.731-73.488-70.494-88.261c-7.1-3.646-16.315-3.607-21.405,3.221        c-4.342,5.827-3.995,13.967-1.546,19.417c16.629,37.004,40.529,69.673,56.828,85.765c7.079,6.989,17.344,17.062,27.474,21.375        c1.615,0.688,3.286,1.423,4.999,1.668c4.354,0.622,8.687,0.323,12.787-1.439c22.251-9.565,40.305-28.068,55.824-46.159        c19.27-22.463,19.507-27.015,26.611-32.511C499.725,198.01,495.286,150.968,487.223,154.018z M476.697,167.362        c-0.015-0.043-0.026-0.087-0.041-0.129c0.015,0.044,0.031,0.086,0.045,0.13L476.697,167.362z"/>
						<g style="opacity:0.35;">
							<path style="fill:#FC09B2;" d="M359.479,216.249c1.961,0.552,17.145,25.277,22.163,35.373         c1.796,3.613,2.308,2.256-9.58,11.478c-1.336,1.036-2.99-2.035-3.733-3.546c-4.014-8.163-4.919-28.36-9.286-42.011         c-0.108-0.337,0.043-0.765,0.112-1.144C359.167,216.332,359.366,216.298,359.479,216.249z"/>
							<path style="fill:#FC09B2;" d="M460.527,220.553c0.516,0.104,4.363,0.154,3.959,0.157c0.716,0.074,1.237,0.714,1.163,1.431         c-0.159,1.534-5.232,4.359-10.011,2.357c-3.178-1.301-5.534-4.276-6.011-7.482c-0.162-1.086,1.087-1.823,1.96-1.157         C452.6,216.494,456.149,220.23,460.527,220.553z"/>
						</g>
					</g>
					<path style="fill:#000E3F;" d="M486.767,152.813c-2.749,1.04-3.061,3.956-3.057,7.755       c-7.975-17.554-14.583-15.344-14.385-8.484c-1.676-1.844-3.218-3.091-4.311-3.505c-1.078-0.41-2.294-0.274-3.173,0.358       c-3.89,2.802,0.465,8.309,3.451,13.837c-3.98-1.148-11.529-2.746-14.116-0.963c-2.14,1.477-1.93,4.471-0.103,6.254       c-4.233,1.67-2.29,8.156-2.258,10.376c0.175,13.316-6.087,24.691-3.051,34.9c-26.027,11.887-59.023,37.03-61.353,38.346       c-0.818,0.46-1.965-2.151-2.671-3.542c-11.883-23.387-53.436-85.642-79.635-85.642c-0.497,0-0.993,0.023-1.479,0.069       c-9.02,0.862-15.123,8.516-14.845,18.614c0.226,8.567,12.938,33.726,28.941,57.274c9.453,13.909,34.008,47.537,57.804,59.355       c4.38,2.176,10.204,2.947,15.06,1.832c25.279-5.742,60.515-45.979,76.715-68.104c10.792-14.74,5.622-8.124,13.019-14.388       C499.632,198.259,497.907,148.602,486.767,152.813z M450.943,243.938c-10.614,12.794-23.068,25.977-36.023,36.402       c-6.33,5.094-12.268,9.142-18.152,12.375c-7.56,4.153-12.092,4.705-16.961,4.244c-8.351-0.804-23.415-13.584-29.006-19.291       c-0.629-0.643-1.297-1.309-2.016-2.025c-3.654-3.641-8.66-8.628-16.409-18.546c-25.529-32.675-37.431-57.997-41.364-67.368       c-1.302-3.09-1.879-5.986-1.715-8.624c-0.042-2.76,0.006-5.23,1.021-7.518c2.061-4.602,5.538-7.253,10.334-7.879       c0.592-0.077,1.189-0.114,1.791-0.114c11.738,0,25.181,14.123,33.374,22.731l0.415,0.436       c6.732,7.075,24.442,27.289,43.451,62.123c1.745,3.207,1.745,3.207-1.972,5.992c-1.357,1.017-3.217,2.41-5.639,4.444       c-0.353,0.294-0.757,0.929-0.793,1.442c-0.017,0.231,0.042,0.428,0.166,0.567c0.231,0.272,0.667,0.719,1.089,0.686       c0.456-0.026,0.955-0.389,1.356-0.682c0.11-0.08,0.212-0.154,0.302-0.214c1.118-0.731,2.223-1.52,3.291-2.285l0.106-0.076       c2.337-1.67,4.699-3.389,6.982-5.052c1.417-1.031,2.833-2.062,4.253-3.088c5.864-4.24,10.78-7.724,15.472-10.963       c6.437-4.443,12.22-8.268,17.677-11.692c6.35-3.985,14.5-9.22,21.443-12.337c2.106-0.946,5.102-1.662,4.868-4.019       c-0.62-6.241-2.082-3.928,0.925-18.262c1.061-5.062,2.264-10.799,2.182-16.937c-0.009-0.749-0.118-1.564-0.234-2.426       c-0.259-1.935-0.552-4.127,0.413-5.211c0.303-0.34,0.638-0.451,1.121-0.371c1.581,0.257,3.578,2.332,4.101,3.553       c0.975,2.27,1.013,4.081,1.056,5.997c0.06,2.745,0.151,5.859,2.878,10.434c0.022,0.064,0.024,0.131,0.056,0.192       c0.062,0.106,0.148,0.186,0.231,0.27c0.101,0.163,0.196,0.322,0.304,0.489c2.557,3.93,2.302,9.089,1.243,12.648       c-0.202,0.683,0.188,1.401,0.868,1.602c0.682,0.203,1.4-0.185,1.602-0.868c1.516-5.099,0.969-10.549-1.363-14.444       c1.932-1.788,3.049-5.124,2.839-8.846c-0.341-6.013-3.762-10.855-9.152-12.958c-0.277-0.108-0.563-0.214-0.852-0.321       c-1.363-0.507-2.773-1.03-3.657-1.94c-0.428-0.442-0.676-1.069-0.627-1.57c0.03-0.301,0.164-0.525,0.421-0.702       c1.566-1.08,9.959,0.441,13.76,1.902c0.154,0.06,0.312,0.08,0.468,0.079c1.547,3.384,2.707,7.128,2.525,11.151       c-0.031,0.71,0.517,1.313,1.229,1.346c0.712,0.032,1.313-0.519,1.345-1.229c0.336-7.452-3.437-14.015-6.191-18.808       c-2.292-3.989-3.635-6.477-2.427-7.347c0.175-0.124,0.483-0.142,0.752-0.039c1.885,0.715,8.195,7.5,11.373,16.779       c0.882,2.752,1.46,5.784,1.325,9.125c-0.027,0.711,0.524,1.311,1.235,1.34c0.711,0.028,1.311-0.525,1.34-1.235       c0.076-1.904-0.051-3.703-0.322-5.407c0.048-0.189,0.065-0.387,0.019-0.59c-0.297-1.327-0.67-2.624-1.094-3.887       c-0.999-3.155-2.368-5.935-3.586-8.4c-1.203-2.437-2.243-4.542-2.454-6.165c-0.171-1.316,0.143-2.622,0.538-2.911       c0.182-0.132,0.611,0.043,0.785,0.124c2.496,1.163,6.081,7.253,8.354,12.424c2.42,5.5,1.78,8.62,1.095,11.961       c-0.204,0.81-0.435,1.625-0.726,2.448c-0.237,0.67,0.114,1.408,0.785,1.644c0.655,0.232,1.362-0.103,1.618-0.741       c0.234-0.193,0.41-0.461,0.461-0.785c0.107-0.69,0.246-1.363,0.384-2.038c1.154-4.622,1.117-8.894,1.071-12.438       c-0.052-4.126-0.016-6.487,1.377-7.014c0.392-0.148,0.62-0.062,0.808,0.053c0.715,0.442,2.487,2.479,3.489,11.927       c1.067,10.082-0.859,20.767-4.489,30.175c-2.755,7.139-6.993,14.314-13.113,18.851       C463.07,224.604,472.626,217.805,450.943,243.938z M458.641,171.999c4.536,2.943,5.2,7.94,5.292,9.569       c0.146,2.599-0.503,5.022-1.607,6.385c-1.774-3.366-1.85-5.664-1.902-8.062c-0.046-2.078-0.094-4.228-1.264-6.957       C459.036,172.646,458.851,172.327,458.641,171.999z"/>
				</g>
				<g>
					<g>
						<path style="fill:#FFBBEC;" d="M38.324,218.006c7.104,5.496,7.341,10.047,26.611,32.511        c15.519,18.091,33.573,36.594,55.824,46.159c4.1,1.762,8.433,2.061,12.787,1.439c1.713-0.245,3.384-0.98,4.999-1.668        c10.13-4.313,20.395-14.386,27.474-21.375c16.299-16.091,40.198-48.761,56.828-85.765c2.449-5.451,2.796-13.591-1.546-19.417        c-5.089-6.829-14.305-6.867-21.405-3.221c-28.763,14.773-70.362,81.89-70.494,88.261c-1.901-0.869-39.871-29.67-64.654-40.548        c3.986-10.084-2.843-21.685-2.653-35.958c0.033-2.472,1.363-6.418-0.505-8.513c-2.26-2.533-6.439,1.368-7.366,3.531        c-2.614,6.092,0.888,9.014-4.422,17.188c-0.064,0.1-0.11,0.211-0.172,0.313c-1.323-1.249-2.629-3.547-2.647-7.775        c-0.025-5.882,3.289-9.954,5.386-11.942c0.917-0.62,1.897-1.152,2.945-1.56c1.683-0.656,3.669-1.231,4.964-2.563        c1.111-1.143,1.527-3.187,0.013-4.231c-2.052-1.414-9.331,0.027-13.295,1.211c-0.031-0.025-2.558,0.704-2.558,0.704        c3.435-7.241,8.279-12.562,5.167-14.804c-0.556-0.4-1.321-0.442-1.961-0.199c-2.435,0.922-8.753,7.919-12.027,17.241        c2.044-6.154,5.475-10.843,5.925-14.311c0.258-1.985-0.302-5.444-3.146-4.118c-3.357,1.565-10.923,13.584-10.809,21.05        l-0.172,0.05c-0.818-8.003,1.045-14.358-2.439-15.676C16.913,150.968,12.475,198.01,38.324,218.006z M35.499,167.363        c0.014-0.044,0.03-0.086,0.045-0.13c-0.015,0.042-0.026,0.086-0.041,0.129L35.499,167.363z"/>
						<g style="opacity:0.35;">
							<path style="fill:#FC09B2;" d="M152.721,216.249c-1.961,0.552-17.145,25.277-22.163,35.373         c-1.796,3.613-2.308,2.256,9.58,11.478c1.336,1.036,2.99-2.035,3.733-3.546c4.014-8.163,4.919-28.36,9.286-42.011         c0.108-0.337-0.043-0.765-0.112-1.144C153.033,216.332,152.834,216.298,152.721,216.249z"/>
							<path style="fill:#FC09B2;" d="M51.673,220.553c-0.516,0.104-4.363,0.154-3.959,0.157c-0.716,0.074-1.237,0.714-1.163,1.431         c0.159,1.534,5.232,4.359,10.011,2.357c3.178-1.301,5.534-4.276,6.011-7.482c0.162-1.086-1.087-1.823-1.96-1.157         C59.6,216.494,56.051,220.23,51.673,220.553z"/>
						</g>
					</g>
					<path style="fill:#000E3F;" d="M34.879,217.155c7.397,6.264,2.227-0.352,13.019,14.388       c16.199,22.125,51.435,62.362,76.715,68.104c4.856,1.114,10.68,0.343,15.06-1.832c23.796-11.818,48.351-45.446,57.804-59.355       c16.003-23.549,28.715-48.707,28.941-57.274c0.279-10.098-5.825-17.753-14.845-18.614c-0.486-0.046-0.981-0.069-1.479-0.069       c-26.199,0-67.752,62.256-79.635,85.642c-0.706,1.391-1.853,4.002-2.671,3.542c-2.33-1.316-35.326-26.459-61.353-38.346       c3.035-10.209-3.226-21.584-3.052-34.9c0.032-2.22,1.976-8.706-2.258-10.376c1.827-1.783,2.038-4.778-0.103-6.254       c-2.587-1.783-10.136-0.185-14.116,0.963c2.986-5.528,7.341-11.035,3.451-13.837c-0.878-0.632-2.094-0.768-3.173-0.358       c-1.093,0.414-2.635,1.661-4.311,3.505c0.198-6.86-6.41-9.07-14.385,8.484c0.005-3.799-0.308-6.715-3.057-7.755       C14.293,148.602,12.568,198.259,34.879,217.155z M37.827,216.227c-6.12-4.537-10.359-11.712-13.113-18.851       c-3.629-9.407-5.556-20.093-4.489-30.175c1.001-9.448,2.774-11.484,3.489-11.927c0.188-0.115,0.415-0.201,0.808-0.053       c1.392,0.527,1.429,2.888,1.377,7.014c-0.045,3.544-0.082,7.816,1.071,12.438c0.139,0.675,0.277,1.347,0.384,2.038       c0.051,0.324,0.227,0.592,0.461,0.785c0.256,0.638,0.963,0.973,1.618,0.741c0.671-0.236,1.022-0.974,0.785-1.644       c-0.291-0.823-0.522-1.638-0.726-2.448c-0.685-3.34-1.325-6.461,1.095-11.961c2.273-5.17,5.859-11.261,8.354-12.424       c0.174-0.081,0.603-0.257,0.785-0.124c0.396,0.289,0.71,1.595,0.538,2.911c-0.211,1.623-1.251,3.728-2.455,6.165       c-1.218,2.465-2.587,5.245-3.586,8.4c-0.424,1.263-0.797,2.56-1.094,3.887c-0.046,0.203-0.028,0.401,0.019,0.59       c-0.271,1.703-0.399,3.503-0.322,5.407c0.028,0.711,0.629,1.264,1.34,1.235c0.711-0.028,1.262-0.629,1.235-1.34       c-0.134-3.341,0.444-6.373,1.325-9.125c3.178-9.279,9.488-16.064,11.373-16.779c0.269-0.103,0.577-0.085,0.752,0.039       c1.208,0.87-0.136,3.358-2.427,7.347c-2.754,4.793-6.527,11.356-6.191,18.808c0.032,0.71,0.633,1.261,1.345,1.229       c0.712-0.032,1.259-0.636,1.229-1.346c-0.182-4.023,0.979-7.767,2.525-11.151c0.155,0.001,0.314-0.02,0.467-0.079       c3.801-1.461,12.194-2.982,13.76-1.902c0.258,0.177,0.391,0.401,0.421,0.702c0.05,0.501-0.198,1.128-0.627,1.57       c-0.884,0.909-2.294,1.433-3.657,1.94c-0.289,0.107-0.575,0.213-0.852,0.321c-5.39,2.103-8.811,6.946-9.152,12.958       c-0.21,3.722,0.907,7.057,2.839,8.846c-2.332,3.895-2.879,9.345-1.363,14.444c0.203,0.683,0.92,1.071,1.602,0.868       c0.68-0.201,1.07-0.919,0.868-1.602c-1.059-3.559-1.315-8.719,1.242-12.648c0.108-0.166,0.203-0.326,0.304-0.489       c0.083-0.084,0.169-0.164,0.231-0.27c0.032-0.062,0.035-0.128,0.056-0.192c2.727-4.575,2.818-7.688,2.878-10.434       c0.042-1.917,0.081-3.728,1.056-5.997c0.523-1.22,2.52-3.296,4.101-3.553c0.482-0.079,0.818,0.032,1.121,0.371       c0.965,1.084,0.672,3.276,0.413,5.211c-0.116,0.863-0.225,1.678-0.234,2.426c-0.082,6.139,1.121,11.876,2.182,16.937       c3.007,14.335,1.545,12.021,0.925,18.262c-0.234,2.357,2.762,3.073,4.868,4.019c6.943,3.118,15.093,8.353,21.443,12.337       c5.458,3.424,11.24,7.249,17.677,11.692c4.692,3.239,9.608,6.723,15.472,10.963c1.42,1.027,2.836,2.058,4.253,3.088       c2.283,1.663,4.645,3.382,6.982,5.052l0.106,0.076c1.068,0.764,2.172,1.554,3.291,2.285c0.09,0.06,0.193,0.134,0.302,0.214       c0.401,0.293,0.9,0.656,1.356,0.682c0.422,0.033,0.858-0.413,1.089-0.686c0.124-0.139,0.183-0.336,0.166-0.567       c-0.037-0.513-0.441-1.148-0.793-1.442c-2.422-2.035-4.282-3.428-5.639-4.444c-3.718-2.785-3.718-2.785-1.973-5.992       c19.009-34.834,36.719-55.048,43.451-62.123l0.415-0.436c8.193-8.608,21.636-22.731,33.374-22.731       c0.602,0,1.199,0.037,1.791,0.114c4.796,0.626,8.273,3.277,10.334,7.879c1.016,2.288,1.064,4.758,1.021,7.518       c0.164,2.638-0.413,5.534-1.715,8.624c-3.933,9.37-15.835,34.692-41.364,67.368c-7.749,9.918-12.755,14.905-16.409,18.546       c-0.719,0.716-1.387,1.381-2.016,2.025c-5.591,5.707-20.655,18.487-29.006,19.291c-4.869,0.461-9.401-0.091-16.961-4.244       c-5.884-3.232-11.822-7.281-18.152-12.375c-12.955-10.425-25.409-23.607-36.023-36.402       C39.574,217.805,49.13,224.604,37.827,216.227z M53.04,172.934c-1.17,2.728-1.218,4.878-1.264,6.957       c-0.052,2.398-0.128,4.696-1.902,8.062c-1.104-1.364-1.753-3.786-1.607-6.385c0.092-1.628,0.756-6.625,5.292-9.569       C53.349,172.327,53.164,172.646,53.04,172.934z"/>
				</g>
			</g>
			<g>
				<g>
					<g>
						<path style="fill:#FFBBEC;" d="M216.206,451.743c-3.888-1.62,7.548-4.647,25.616-33.4c5.106-8.125-0.24-1.356,18.895-13.232        c5.093-3.161,1.719,1.322,11.635,16.654c7.033,10.874,10.084,13.649,16.427,21.039c0.761,0.887,0.386,2.013-0.774,2.333        c-5.76,1.593-21.088,3.53-26.035,4.174c-7.346,0.956-17.395,1.197-20.705,1.795c-2.1,0.38-14.785,0.047-18.181,0.743        C221.771,452.117,217.449,452.261,216.206,451.743z"/>
						<path style="fill:#FFBBEC;" d="M296.692,450.854c-0.226,0.297-0.608,1.353-1.945,1.077c-2.417-0.499-4.893-0.365-7.305-0.707        c-8.82-1.251-16.265-0.238-16.031-1.68c0.201-1.236-0.949-0.753,17.974-4.161c1.085-0.195,1.995,0.047,2.791,0.769        c1.387,1.259,2.769,2.527,4.128,3.818C296.492,450.15,296.535,450.481,296.692,450.854z"/>
						<path style="fill:#FFBBEC;" d="M246.345,412.069c-0.628-1.079-1.089,0.341,1.726-7.232c0.176-0.473,0.976-0.757,1.443-0.598        c1.48,0.505,2.831,1.242,4.055,2.209c0.731,0.577,0.775,1.664,0.007,2.147C247.136,412.643,247.22,412.069,246.345,412.069z"/>
						<path style="fill:#FFBBEC;" d="M292.088,161.637c3.735,0.657,7.437,1.498,11.156,2.255c1.538,0.314,2.201,1.161,2.412,2.712        c0.034,0.251,0.072,0.522,0.011,0.761c-0.614,2.385-0.325,4.827-0.432,7.247c-1.393,31.453-18.596,55.101-51.86,53.826        c-33.89-1.298-47.74-30.694-46.532-62.175c0.045-1.173,0.506-2.02,1.725-2.296        C237.663,157.38,265.704,156.998,292.088,161.637z"/>
						<path style="fill:#FFBBEC;" d="M145.357,421.176c1.635,0.29,2.184,0.781,10.052,7.013        c7.572,5.997,22.425,16.066,31.897,20.776c6.41,3.188,7.054,3.364,6.827,4.586c-0.148,0.797-0.937,1.04-1.65,1.221        c-9.073,2.309-26.084,5.731-34.29,5.339c-2.181-0.104-4.306,0.95-6.475,0.449c-5.961-1.376-27.291,2.403-37.656-22.145        c-1.282-3.036-1.931-6.225-1.719-9.58c0.255-4.046,1.901-6.316,5.817-7.737C127.657,417.653,138.007,419.871,145.357,421.176z        "/>
						<path style="fill:#FFBBEC;" d="M382.436,419.347c5.611,0.486,16.222,0.362,17.131,8.297c0.38,3.316,0.126,6.549-1.131,9.666        c-3.452,8.564-10.214,17.393-19.079,20.196c-26.978,8.528-69.017-1.657-59.929-5.83c12.9-5.926,31.116-18.242,41.646-26.902        c5.427-4.463,4.829-3.093,9.884-4.454C374.81,420.026,378.578,419.013,382.436,419.347z"/>
					</g>
					<path style="fill:#915EFD;" d="M327.959,268.554c-6.498,14.712-7.671,28.614-7.642,44.175c0.003,1.624,0.573,4.335,0.604,4.861       c0.998,16.778,5.852,22.875,3.377,23.522c-5.101,1.333-29.39,3.262-66.009,17.722c-5.962,2.355-10.455-5.5-51.805-14.281       c-28.066-5.961-17.813,2.033-15.625-23.27c0.094-1.089,0.047-2.201,0.268-3.265c2.335-11.246-0.18-34.795-7.586-50.95       c-6.378-13.912,0.193-36.357,8.186-49.388c10.952-17.853,12.22-38.303,14.131-39.495c0.192-0.12,0.798,0.379,0.858,0.694       c0.072,0.377,0.169,0.752,0.203,1.133c1.083,12.138,6.033,26.929,15.331,35.482c2.358,2.169,4.565,4.485,7.36,6.216       c23.049,14.278,65.971,10.182,74.566-35.152c1.752-9.242,0.39-5.3,1.509-7.888c0.146-0.339,0.964-0.111,1.007,0.008       c1.256,3.459,4.053,22.867,13.018,37.959c6.189,10.418,9.435,20.194,10.524,27.724       C330.614,246.989,331.705,260.074,327.959,268.554z"/>
					<g>
						<path style="fill:#FFCF00;" d="M270.082,227.159c0.005,0.013,0.01,0.026,0.015,0.04c1.228,3.489,4.545,5.995,8.454,5.995        c3.91,0,7.227-2.506,8.455-5.995c0.328-0.932,0.516-1.93,0.516-2.975c0-1.89-0.588-3.642-1.587-5.089        C281.102,222.957,275.7,225.583,270.082,227.159z"/>
						<path style="fill:#FFCF00;" d="M278.551,304.806c-4.954,0-8.97,4.017-8.97,8.97c0,1.044,0.188,2.042,0.516,2.975        c1.228,3.489,4.545,5.995,8.454,5.995c3.91,0,7.227-2.506,8.455-5.995c0.328-0.932,0.516-1.93,0.516-2.975        C287.521,308.823,283.505,304.806,278.551,304.806z"/>
						<path style="fill:#FFCF00;" d="M300.939,260.03c-4.954,0-8.97,4.016-8.97,8.97c0,4.954,4.016,8.97,8.97,8.97        c4.954,0,8.97-4.016,8.97-8.97C309.909,264.046,305.893,260.03,300.939,260.03z"/>
						<path style="fill:#FFCF00;" d="M256.163,260.03c-0.772,0-1.517,0.108-2.231,0.291c-3.872,0.994-6.739,4.497-6.739,8.679        c0,4.182,2.866,7.686,6.739,8.679c0.715,0.183,1.459,0.291,2.231,0.291c4.954,0,8.97-4.016,8.97-8.97        C265.133,264.046,261.117,260.03,256.163,260.03z"/>
						<path style="fill:#FFCF00;" d="M325.111,227.198c-1.473-3.401-3.248-6.938-5.401-10.561c-0.095-0.16-0.186-0.323-0.279-0.484        c-3,1.451-5.073,4.514-5.073,8.07c0,1.044,0.187,2.042,0.516,2.975c1.228,3.489,4.544,5.995,8.454,5.995        c1.365,0,2.654-0.314,3.813-0.859C326.547,230.666,325.871,228.953,325.111,227.198z"/>
						<path style="fill:#FFCF00;" d="M256.163,349.583c-0.772,0-1.517,0.108-2.231,0.291c-3.24,0.831-5.77,3.419-6.511,6.694        c2.834,1.132,4.862,1.958,6.511,2.375c1.685,0.427,2.985,0.432,4.358-0.11c2.231-0.881,4.415-1.714,6.554-2.505        C263.852,352.453,260.347,349.583,256.163,349.583z"/>
						<path style="fill:#FFCF00;" d="M320.801,316.751c-0.176-1.07-0.481-2.834-0.483-4.023c-0.005-2.518,0.027-4.989,0.103-7.431        c-3.526,1.209-6.063,4.544-6.063,8.479c0,1.044,0.187,2.042,0.516,2.975c1.015,2.886,3.459,5.094,6.487,5.772        c-0.178-1.538-0.333-3.164-0.439-4.934C320.914,317.448,320.865,317.144,320.801,316.751z"/>
						<path style="fill:#FFCF00;" d="M192.692,216.056c-0.313,0.543-0.634,1.084-0.964,1.623c-1.714,2.794-3.351,6.037-4.821,9.52        c-0.688,1.631-1.346,3.304-1.944,5.029c1.214,0.613,2.581,0.967,4.035,0.967c3.91,0,7.226-2.506,8.455-5.995        c0.328-0.932,0.516-1.93,0.516-2.975C197.968,220.588,195.801,217.465,192.692,216.056z"/>
						<path style="fill:#FFCF00;" d="M233.774,304.806c-4.954,0-8.97,4.017-8.97,8.97c0,1.044,0.188,2.042,0.516,2.975        c1.228,3.489,4.545,5.995,8.454,5.995c3.91,0,7.227-2.506,8.455-5.995c0.328-0.932,0.516-1.93,0.516-2.975        C242.744,308.823,238.728,304.806,233.774,304.806z"/>
						<path style="fill:#FFCF00;" d="M191.914,305.301c0.14,4.379-0.053,8.3-0.573,11.45c-0.07,0.425-0.132,0.87-0.214,1.266        c-0.221,1.063-0.174,2.175-0.268,3.265c-0.039,0.449-0.086,0.865-0.129,1.294c3.137-0.615,5.68-2.865,6.722-5.825        c0.328-0.932,0.516-1.93,0.516-2.975C197.968,309.845,195.435,306.512,191.914,305.301z"/>
						<path style="fill:#FFCF00;" d="M211.386,260.03c-4.954,0-8.97,4.016-8.97,8.97c0,4.954,4.016,8.97,8.97,8.97        c4.954,0,8.97-4.016,8.97-8.97C220.356,264.046,216.34,260.03,211.386,260.03z"/>
						<path style="fill:#FFCF00;" d="M233.774,233.194c3.91,0,7.227-2.506,8.455-5.995c0.009-0.025,0.019-0.05,0.028-0.076        c-4.586-1.252-8.884-3.082-12.647-5.412c-1.187-0.735-2.256-1.588-3.287-2.478c-0.958,1.428-1.518,3.144-1.518,4.992        c0,1.044,0.188,2.042,0.516,2.975C226.548,230.688,229.865,233.194,233.774,233.194z"/>
					</g>
					<g>
						<path style="fill:#FD8A02;" d="M306.273,226.15l5.688-0.963c0.397-0.068,0.729-0.38,0.8-0.8c0.09-0.532-0.268-1.036-0.8-1.126        l-5.688-0.963c-0.208-0.035-0.433-0.037-0.653,0c-1.064,0.18-1.781,1.189-1.6,2.253        C304.201,225.614,305.209,226.33,306.273,226.15z"/>
						<path style="fill:#FD8A02;" d="M314.61,216.868c0.329,0.233,0.784,0.247,1.131,0c0.44-0.312,0.544-0.922,0.231-1.362        l-3.341-4.703c-0.123-0.171-0.28-0.333-0.461-0.462c-0.88-0.625-2.1-0.418-2.725,0.462c-0.625,0.88-0.418,2.1,0.461,2.725        L314.61,216.868z"/>
						<path style="fill:#FD8A02;" d="M295.605,222.298l-5.689,0.963c-0.398,0.068-0.729,0.38-0.8,0.8        c-0.09,0.532,0.268,1.036,0.8,1.127l5.689,0.963c0.208,0.035,0.433,0.037,0.652,0c1.064-0.18,1.781-1.189,1.6-2.253        C297.678,222.834,296.669,222.117,295.605,222.298z"/>
						<path style="fill:#FD8A02;" d="M312.762,313.94c0.09-0.532-0.268-1.036-0.8-1.126l-5.688-0.964        c-0.208-0.034-0.433-0.037-0.653,0c-1.064,0.18-1.781,1.189-1.6,2.253c0.18,1.064,1.189,1.78,2.253,1.6l5.688-0.964        C312.359,314.672,312.691,314.36,312.762,313.94z"/>
						<path style="fill:#FD8A02;" d="M312.17,299.894c-0.88-0.625-2.1-0.418-2.725,0.461c-0.625,0.88-0.418,2.1,0.461,2.725        l4.703,3.341c0.329,0.233,0.784,0.247,1.131,0c0.44-0.312,0.544-0.922,0.231-1.362l-3.341-4.703        C312.508,300.184,312.351,300.023,312.17,299.894z"/>
						<path style="fill:#FD8A02;" d="M278.225,294.47c-1.064,0.18-1.781,1.189-1.6,2.253l0.963,5.688        c0.068,0.397,0.379,0.729,0.8,0.8c0.532,0.09,1.036-0.268,1.127-0.8l0.963-5.688c0.034-0.208,0.037-0.433,0-0.653        C280.298,295.006,279.289,294.289,278.225,294.47z"/>
						<path style="fill:#FD8A02;" d="M295.605,311.85l-5.689,0.964c-0.398,0.068-0.729,0.38-0.8,0.8        c-0.09,0.532,0.268,1.036,0.8,1.126l5.689,0.964c0.208,0.034,0.433,0.037,0.652,0c1.064-0.18,1.781-1.189,1.6-2.253        C297.678,312.387,296.669,311.67,295.605,311.85z"/>
						<path style="fill:#FD8A02;" d="M267.985,313.94c0.09-0.532-0.268-1.036-0.8-1.126l-5.688-0.964        c-0.208-0.034-0.433-0.037-0.652,0c-1.064,0.18-1.781,1.189-1.601,2.253c0.181,1.064,1.189,1.78,2.253,1.6l5.688-0.964        C267.583,314.672,267.914,314.36,267.985,313.94z"/>
						<path style="fill:#FD8A02;" d="M267.393,299.894c-0.88-0.625-2.1-0.418-2.725,0.461c-0.625,0.88-0.418,2.1,0.461,2.725        l4.703,3.341c0.329,0.233,0.784,0.247,1.131,0c0.44-0.312,0.544-0.922,0.231-1.362l-3.341-4.703        C267.731,300.184,267.575,300.023,267.393,299.894z"/>
						<path style="fill:#FD8A02;" d="M287.269,306.421l4.703-3.341c0.171-0.123,0.333-0.28,0.462-0.461        c0.625-0.88,0.418-2.1-0.462-2.725c-0.88-0.625-2.1-0.418-2.725,0.461l-3.341,4.704c-0.233,0.329-0.247,0.784,0,1.132        C286.219,306.631,286.829,306.734,287.269,306.421z"/>
						<path style="fill:#FD8A02;" d="M300.613,249.693c-1.064,0.18-1.781,1.189-1.6,2.253l0.963,5.688        c0.068,0.398,0.38,0.729,0.8,0.8c0.532,0.09,1.036-0.268,1.127-0.8l0.963-5.688c0.034-0.208,0.037-0.433,0-0.653        C302.686,250.23,301.677,249.513,300.613,249.693z"/>
						<path style="fill:#FD8A02;" d="M301.265,288.308c1.064-0.181,1.781-1.189,1.6-2.253l-0.963-5.689        c-0.068-0.398-0.38-0.729-0.8-0.8c-0.532-0.09-1.036,0.268-1.127,0.8l-0.963,5.689c-0.034,0.208-0.038,0.433,0,0.652        C299.192,287.771,300.201,288.488,301.265,288.308z"/>
						<path style="fill:#FD8A02;" d="M317.993,267.074l-5.689,0.963c-0.397,0.068-0.729,0.38-0.8,0.8        c-0.09,0.532,0.268,1.036,0.8,1.126l5.689,0.963c0.208,0.035,0.433,0.037,0.652,0c1.064-0.18,1.781-1.189,1.6-2.253        C320.066,267.61,319.057,266.893,317.993,267.074z"/>
						<path style="fill:#FD8A02;" d="M290.374,269.163c0.09-0.532-0.268-1.037-0.8-1.127l-5.688-0.963        c-0.208-0.035-0.433-0.037-0.653,0c-1.064,0.18-1.781,1.189-1.6,2.253c0.18,1.064,1.189,1.78,2.253,1.6l5.688-0.963        C289.971,269.895,290.302,269.583,290.374,269.163z"/>
						<path style="fill:#FD8A02;" d="M309.657,276.356c-0.329-0.233-0.784-0.247-1.131,0c-0.44,0.312-0.543,0.922-0.231,1.362        l3.341,4.703c0.123,0.171,0.28,0.333,0.461,0.462c0.88,0.625,2.1,0.418,2.725-0.462c0.625-0.88,0.418-2.099-0.461-2.724        L309.657,276.356z"/>
						<path style="fill:#FD8A02;" d="M290.242,255.579c-0.122-0.171-0.28-0.333-0.461-0.462c-0.88-0.625-2.1-0.418-2.725,0.462        c-0.625,0.88-0.418,2.1,0.461,2.725l4.704,3.341c0.329,0.233,0.784,0.247,1.132,0c0.44-0.312,0.543-0.922,0.231-1.362        L290.242,255.579z"/>
						<path style="fill:#FD8A02;" d="M314.822,257.842c0.625-0.88,0.418-2.1-0.462-2.725c-0.88-0.625-2.1-0.418-2.725,0.461        l-3.341,4.704c-0.233,0.329-0.247,0.784,0,1.132c0.312,0.44,0.922,0.543,1.362,0.231l4.703-3.341        C314.532,258.181,314.693,258.024,314.822,257.842z"/>
						<path style="fill:#FD8A02;" d="M292.221,276.355l-4.704,3.341c-0.171,0.123-0.332,0.28-0.461,0.461        c-0.625,0.88-0.419,2.1,0.461,2.725c0.88,0.625,2.1,0.419,2.725-0.461l3.341-4.704c0.233-0.329,0.247-0.784,0-1.131        C293.271,276.146,292.661,276.043,292.221,276.355z"/>
						<path style="fill:#FD8A02;" d="M255.837,249.693c-1.064,0.18-1.781,1.189-1.6,2.253l0.963,5.688        c0.068,0.398,0.38,0.729,0.8,0.8c0.532,0.09,1.036-0.268,1.127-0.8l0.963-5.688c0.034-0.208,0.037-0.433,0-0.653        C257.909,250.23,256.901,249.513,255.837,249.693z"/>
						<path style="fill:#FD8A02;" d="M256.489,288.308c1.064-0.181,1.781-1.189,1.6-2.253l-0.963-5.689        c-0.068-0.398-0.38-0.729-0.8-0.8c-0.532-0.09-1.037,0.268-1.127,0.8l-0.963,5.689c-0.035,0.208-0.038,0.433,0,0.652        C254.416,287.771,255.425,288.488,256.489,288.308z"/>
						<path style="fill:#FD8A02;" d="M273.217,267.074l-5.689,0.963c-0.398,0.068-0.729,0.38-0.8,0.8        c-0.09,0.532,0.268,1.036,0.8,1.126l5.689,0.963c0.208,0.035,0.433,0.037,0.652,0c1.064-0.18,1.781-1.189,1.6-2.253        C275.29,267.61,274.281,266.893,273.217,267.074z"/>
						<path style="fill:#FD8A02;" d="M264.88,276.356c-0.329-0.233-0.784-0.247-1.132,0c-0.44,0.312-0.543,0.922-0.231,1.362        l3.341,4.703c0.123,0.171,0.28,0.333,0.461,0.462c0.88,0.625,2.1,0.418,2.725-0.462c0.625-0.88,0.418-2.099-0.461-2.724        L264.88,276.356z"/>
						<path style="fill:#FD8A02;" d="M264.881,261.645l4.704-3.341c0.171-0.123,0.333-0.28,0.462-0.461        c0.625-0.88,0.418-2.1-0.462-2.725c-0.88-0.625-2.1-0.418-2.725,0.461l-3.341,4.704c-0.233,0.329-0.247,0.784,0,1.132        C263.831,261.854,264.441,261.957,264.881,261.645z"/>
						<path style="fill:#FD8A02;" d="M324.29,235.59c-0.068-0.398-0.38-0.729-0.8-0.8c-0.532-0.09-1.036,0.269-1.127,0.8        l-0.963,5.688c-0.034,0.208-0.037,0.433,0,0.653c0.18,1.064,1.189,1.781,2.253,1.601c1.064-0.181,1.781-1.189,1.601-2.253        L324.29,235.59z"/>
						<path style="fill:#FD8A02;" d="M315.972,231.81c-0.313-0.44-0.923-0.543-1.362-0.231l-4.703,3.341        c-0.171,0.123-0.333,0.28-0.461,0.461c-0.625,0.88-0.419,2.1,0.461,2.725c0.88,0.625,2.099,0.419,2.725-0.461l3.341-4.704        C316.205,232.613,316.218,232.158,315.972,231.81z"/>
						<path style="fill:#FD8A02;" d="M278.877,243.531c1.064-0.181,1.781-1.189,1.6-2.253l-0.963-5.688        c-0.068-0.398-0.38-0.729-0.8-0.8c-0.532-0.09-1.037,0.269-1.127,0.8l-0.963,5.688c-0.035,0.208-0.037,0.433,0,0.653        C276.804,242.995,277.813,243.711,278.877,243.531z"/>
						<path style="fill:#FD8A02;" d="M289.247,237.645c0.122,0.171,0.279,0.333,0.461,0.462c0.88,0.625,2.1,0.418,2.725-0.462        c0.625-0.88,0.418-2.099-0.461-2.724l-4.703-3.341c-0.329-0.233-0.785-0.247-1.132,0c-0.44,0.312-0.543,0.922-0.231,1.362        L289.247,237.645z"/>
						<path style="fill:#FD8A02;" d="M267.854,237.645l3.341-4.704c0.233-0.329,0.247-0.784,0-1.131        c-0.313-0.44-0.923-0.543-1.362-0.231l-4.704,3.341c-0.171,0.123-0.332,0.28-0.461,0.461c-0.625,0.88-0.419,2.1,0.461,2.725        C266.009,238.732,267.229,238.525,267.854,237.645z"/>
						<path style="fill:#FD8A02;" d="M300.613,339.246c-1.064,0.18-1.781,1.189-1.6,2.253l0.73,4.31        c0.849-0.197,1.679-0.384,2.489-0.564l0.634-3.746c0.034-0.208,0.037-0.433,0-0.653        C302.686,339.783,301.677,339.066,300.613,339.246z"/>
						<path style="fill:#FD8A02;" d="M289.781,344.67c-0.88-0.625-2.1-0.418-2.725,0.461c-0.625,0.88-0.418,2.1,0.461,2.725        l1.097,0.779c1.179-0.326,2.327-0.634,3.456-0.93l-1.828-2.573C290.12,344.96,289.963,344.799,289.781,344.67z"/>
						<path style="fill:#FD8A02;" d="M255.837,339.246c-1.064,0.18-1.781,1.189-1.6,2.253l0.963,5.688        c0.068,0.398,0.38,0.729,0.8,0.8c0.532,0.09,1.036-0.268,1.127-0.8l0.963-5.688c0.034-0.208,0.037-0.433,0-0.653        C257.909,339.783,256.901,339.066,255.837,339.246z"/>
						<path style="fill:#FD8A02;" d="M266.86,345.132l-3.341,4.703c-0.233,0.329-0.247,0.784,0,1.132        c0.312,0.44,0.922,0.543,1.362,0.231l4.704-3.341c0.171-0.123,0.333-0.28,0.462-0.462c0.625-0.88,0.418-2.1-0.462-2.725        C268.704,344.046,267.484,344.252,266.86,345.132z"/>
						<path style="fill:#FD8A02;" d="M314.609,321.132l-4.703,3.341c-0.171,0.123-0.333,0.28-0.461,0.462        c-0.625,0.88-0.419,2.1,0.461,2.724c0.88,0.625,2.099,0.419,2.725-0.461l3.341-4.704c0.233-0.329,0.247-0.784,0-1.131        C315.659,320.923,315.049,320.82,314.609,321.132z"/>
						<path style="fill:#FD8A02;" d="M278.714,324.342c-0.532-0.09-1.037,0.268-1.127,0.8l-0.963,5.689        c-0.035,0.208-0.037,0.433,0,0.653c0.18,1.064,1.189,1.781,2.253,1.6c1.064-0.181,1.781-1.189,1.6-2.253l-0.963-5.689        C279.446,324.745,279.134,324.413,278.714,324.342z"/>
						<path style="fill:#FD8A02;" d="M287.269,321.133c-0.329-0.233-0.785-0.247-1.132,0c-0.44,0.312-0.543,0.922-0.231,1.362        l3.341,4.703c0.122,0.171,0.279,0.333,0.461,0.461c0.88,0.625,2.1,0.418,2.725-0.461c0.625-0.88,0.418-2.1-0.461-2.725        L287.269,321.133z"/>
						<path style="fill:#FD8A02;" d="M269.833,321.132l-4.704,3.341c-0.171,0.123-0.332,0.28-0.461,0.462        c-0.625,0.88-0.419,2.1,0.461,2.724c0.88,0.625,2.1,0.419,2.725-0.461l3.341-4.704c0.233-0.329,0.247-0.784,0-1.131        C270.883,320.923,270.272,320.82,269.833,321.132z"/>
						<path style="fill:#FD8A02;" d="M216.72,226.15l5.688-0.963c0.398-0.068,0.729-0.38,0.8-0.8c0.09-0.532-0.268-1.036-0.8-1.126        l-5.688-0.963c-0.208-0.035-0.434-0.037-0.652,0c-1.064,0.18-1.781,1.189-1.601,2.253        C214.648,225.614,215.656,226.33,216.72,226.15z"/>
						<path style="fill:#FD8A02;" d="M206.052,222.298l-5.688,0.963c-0.398,0.068-0.729,0.38-0.8,0.8        c-0.09,0.532,0.268,1.036,0.8,1.127l5.688,0.963c0.208,0.035,0.433,0.037,0.653,0c1.064-0.18,1.78-1.189,1.6-2.253        C208.125,222.834,207.116,222.117,206.052,222.298z"/>
						<path style="fill:#FD8A02;" d="M197.716,216.868l4.704-3.341c0.171-0.123,0.333-0.28,0.461-0.461        c0.625-0.88,0.418-2.1-0.461-2.725c-0.88-0.625-2.1-0.418-2.725,0.462l-3.341,4.704c-0.233,0.329-0.247,0.784,0,1.132        C196.666,217.078,197.276,217.181,197.716,216.868z"/>
						<path style="fill:#FD8A02;" d="M233.449,294.47c-1.064,0.18-1.781,1.189-1.6,2.253l0.963,5.688        c0.068,0.397,0.379,0.729,0.8,0.8c0.532,0.09,1.037-0.268,1.127-0.8l0.963-5.688c0.034-0.208,0.037-0.433,0-0.653        C235.521,295.006,234.512,294.289,233.449,294.47z"/>
						<path style="fill:#FD8A02;" d="M250.829,311.85l-5.688,0.964c-0.398,0.068-0.729,0.38-0.8,0.8        c-0.09,0.532,0.268,1.036,0.8,1.126l5.688,0.964c0.208,0.034,0.433,0.037,0.653,0c1.064-0.18,1.78-1.189,1.6-2.253        C252.901,312.387,251.893,311.67,250.829,311.85z"/>
						<path style="fill:#FD8A02;" d="M223.209,313.94c0.09-0.532-0.268-1.036-0.8-1.126l-5.688-0.964        c-0.208-0.034-0.434-0.037-0.652,0c-1.064,0.18-1.781,1.189-1.601,2.253c0.18,1.064,1.189,1.78,2.253,1.6l5.688-0.964        C222.806,314.672,223.137,314.36,223.209,313.94z"/>
						<path style="fill:#FD8A02;" d="M222.617,299.894c-0.88-0.625-2.1-0.418-2.725,0.461c-0.625,0.88-0.418,2.1,0.462,2.725        l4.703,3.341c0.329,0.233,0.784,0.247,1.132,0c0.44-0.312,0.543-0.922,0.231-1.362l-3.341-4.703        C222.955,300.184,222.798,300.023,222.617,299.894z"/>
						<path style="fill:#FD8A02;" d="M242.492,306.421l4.704-3.341c0.171-0.123,0.333-0.28,0.462-0.461        c0.625-0.88,0.418-2.1-0.462-2.725c-0.88-0.625-2.1-0.418-2.725,0.461l-3.341,4.704c-0.233,0.329-0.247,0.784,0,1.132        C241.443,306.631,242.052,306.734,242.492,306.421z"/>
						<path style="fill:#FD8A02;" d="M206.052,311.85l-5.688,0.964c-0.398,0.068-0.729,0.38-0.8,0.8        c-0.09,0.532,0.268,1.036,0.8,1.126l5.688,0.964c0.208,0.034,0.433,0.037,0.653,0c1.064-0.18,1.78-1.189,1.6-2.253        C208.125,312.387,207.116,311.67,206.052,311.85z"/>
						<path style="fill:#FD8A02;" d="M197.716,306.421l4.704-3.341c0.171-0.123,0.333-0.28,0.461-0.461        c0.625-0.88,0.418-2.1-0.461-2.725c-0.88-0.625-2.1-0.418-2.725,0.461l-3.341,4.704c-0.233,0.329-0.247,0.784,0,1.132        C196.666,306.631,197.276,306.734,197.716,306.421z"/>
						<path style="fill:#FD8A02;" d="M245.597,269.163c0.09-0.532-0.268-1.037-0.8-1.127l-5.688-0.963        c-0.208-0.035-0.433-0.037-0.652,0c-1.064,0.18-1.781,1.189-1.601,2.253c0.18,1.064,1.189,1.78,2.253,1.6l5.688-0.963        C245.194,269.895,245.526,269.583,245.597,269.163z"/>
						<path style="fill:#FD8A02;" d="M245.005,255.117c-0.88-0.625-2.1-0.418-2.725,0.462c-0.625,0.88-0.418,2.1,0.462,2.725        l4.703,3.341c0.329,0.233,0.784,0.247,1.131,0c0.44-0.312,0.544-0.922,0.231-1.362l-3.341-4.703        C245.344,255.407,245.186,255.246,245.005,255.117z"/>
						<path style="fill:#FD8A02;" d="M247.445,276.355l-4.704,3.341c-0.171,0.123-0.332,0.28-0.461,0.461        c-0.625,0.88-0.419,2.1,0.461,2.725c0.88,0.625,2.1,0.419,2.725-0.461l3.341-4.704c0.233-0.329,0.247-0.784,0-1.131        C248.494,276.146,247.884,276.043,247.445,276.355z"/>
						<path style="fill:#FD8A02;" d="M211.06,249.693c-1.064,0.18-1.781,1.189-1.601,2.253l0.964,5.688        c0.068,0.398,0.38,0.729,0.8,0.8c0.532,0.09,1.036-0.268,1.127-0.8l0.963-5.688c0.034-0.208,0.037-0.433,0-0.653        C213.133,250.23,212.124,249.513,211.06,249.693z"/>
						<path style="fill:#FD8A02;" d="M211.712,288.308c1.064-0.181,1.781-1.189,1.601-2.253l-0.963-5.689        c-0.068-0.398-0.38-0.729-0.8-0.8c-0.532-0.09-1.036,0.268-1.126,0.8l-0.963,5.689c-0.034,0.208-0.037,0.433,0,0.652        C209.639,287.771,210.648,288.488,211.712,288.308z"/>
						<path style="fill:#FD8A02;" d="M228.44,267.074l-5.689,0.963c-0.397,0.068-0.729,0.38-0.8,0.8        c-0.09,0.532,0.268,1.036,0.8,1.126l5.689,0.963c0.208,0.035,0.433,0.037,0.653,0c1.064-0.18,1.781-1.189,1.6-2.253        C230.513,267.61,229.504,266.893,228.44,267.074z"/>
						<path style="fill:#FD8A02;" d="M200.82,269.163c0.09-0.532-0.268-1.037-0.8-1.127l-5.688-0.963        c-0.208-0.035-0.434-0.037-0.653,0c-1.064,0.18-1.781,1.189-1.6,2.253c0.18,1.064,1.189,1.78,2.253,1.6l5.688-0.963        C200.418,269.895,200.749,269.583,200.82,269.163z"/>
						<path style="fill:#FD8A02;" d="M220.104,276.356c-0.329-0.233-0.784-0.247-1.131,0c-0.44,0.312-0.543,0.922-0.231,1.362        l3.342,4.703c0.122,0.171,0.28,0.333,0.461,0.462c0.88,0.625,2.1,0.418,2.725-0.462c0.625-0.88,0.418-2.099-0.461-2.724        L220.104,276.356z"/>
						<path style="fill:#FD8A02;" d="M200.689,255.579c-0.123-0.171-0.28-0.333-0.461-0.462c-0.88-0.625-2.099-0.418-2.725,0.462        c-0.625,0.88-0.418,2.1,0.462,2.725l4.703,3.341c0.329,0.233,0.784,0.247,1.132,0c0.44-0.312,0.543-0.922,0.231-1.362        L200.689,255.579z"/>
						<path style="fill:#FD8A02;" d="M225.269,257.842c0.625-0.88,0.418-2.1-0.462-2.725c-0.88-0.625-2.1-0.418-2.725,0.461        l-3.341,4.704c-0.233,0.329-0.247,0.784,0,1.132c0.312,0.44,0.923,0.543,1.362,0.231l4.703-3.341        C224.979,258.181,225.141,258.024,225.269,257.842z"/>
						<path style="fill:#FD8A02;" d="M202.668,276.355l-4.704,3.341c-0.171,0.123-0.332,0.28-0.461,0.461        c-0.625,0.88-0.419,2.1,0.461,2.725c0.88,0.625,2.1,0.419,2.725-0.461l3.342-4.704c0.233-0.329,0.247-0.784,0-1.131        C203.718,276.146,203.108,276.043,202.668,276.355z"/>
						<path style="fill:#FD8A02;" d="M234.1,243.531c1.064-0.181,1.781-1.189,1.6-2.253l-0.963-5.688        c-0.068-0.398-0.38-0.729-0.8-0.8c-0.532-0.09-1.036,0.269-1.126,0.8l-0.963,5.688c-0.035,0.208-0.038,0.433,0,0.653        C232.028,242.995,233.036,243.711,234.1,243.531z"/>
						<path style="fill:#FD8A02;" d="M244.471,237.645c0.122,0.171,0.28,0.333,0.461,0.462c0.88,0.625,2.1,0.418,2.725-0.462        c0.625-0.88,0.418-2.099-0.461-2.724l-4.704-3.341c-0.329-0.233-0.784-0.247-1.132,0c-0.44,0.312-0.543,0.922-0.23,1.362        L244.471,237.645z"/>
						<path style="fill:#FD8A02;" d="M219.891,235.382c-0.625,0.88-0.419,2.1,0.461,2.725c0.88,0.625,2.1,0.419,2.725-0.461        l3.341-4.704c0.233-0.329,0.247-0.784,0-1.131c-0.313-0.44-0.923-0.543-1.363-0.231l-4.703,3.341        C220.182,235.043,220.02,235.2,219.891,235.382z"/>
						<path style="fill:#FD8A02;" d="M189.161,234.789c-0.532-0.09-1.036,0.269-1.126,0.8l-0.963,5.688        c-0.034,0.208-0.037,0.433,0,0.653c0.18,1.064,1.189,1.781,2.253,1.601c1.064-0.181,1.781-1.189,1.601-2.253l-0.963-5.688        C189.892,235.192,189.581,234.86,189.161,234.789z"/>
						<path style="fill:#FD8A02;" d="M197.715,231.58c-0.329-0.233-0.784-0.247-1.132,0c-0.44,0.312-0.543,0.922-0.231,1.362        l3.341,4.703c0.123,0.171,0.28,0.333,0.461,0.462c0.88,0.625,2.1,0.418,2.725-0.462c0.625-0.88,0.418-2.099-0.461-2.724        L197.715,231.58z"/>
						<path style="fill:#FD8A02;" d="M245.466,345.132c-0.122-0.171-0.28-0.333-0.461-0.461c-0.88-0.625-2.1-0.418-2.725,0.461        c-0.625,0.88-0.418,2.1,0.462,2.725l4.703,3.341c0.329,0.233,0.784,0.247,1.131,0c0.44-0.312,0.544-0.922,0.231-1.362        L245.466,345.132z"/>
						<path style="fill:#FD8A02;" d="M211.06,339.246c-1.064,0.18-1.781,1.189-1.601,2.253l0.651,3.842        c0.842,0.188,1.648,0.373,2.457,0.56l0.746-4.402c0.034-0.208,0.037-0.433,0-0.653        C213.133,339.783,212.124,339.066,211.06,339.246z"/>
						<path style="fill:#FD8A02;" d="M222.083,345.132l-1.862,2.622c1.195,0.306,2.34,0.609,3.451,0.909l1.136-0.807        c0.172-0.123,0.333-0.28,0.462-0.462c0.625-0.88,0.418-2.1-0.462-2.725C223.928,344.046,222.708,344.252,222.083,345.132z"/>
						<path style="fill:#FD8A02;" d="M233.937,324.342c-0.532-0.09-1.036,0.268-1.126,0.8l-0.963,5.689        c-0.035,0.208-0.038,0.433,0,0.653c0.18,1.064,1.189,1.781,2.253,1.6c1.064-0.181,1.781-1.189,1.6-2.253l-0.963-5.689        C234.669,324.745,234.357,324.413,233.937,324.342z"/>
						<path style="fill:#FD8A02;" d="M244.932,327.66c0.88,0.625,2.1,0.418,2.725-0.461c0.625-0.88,0.418-2.1-0.461-2.725        l-4.704-3.341c-0.329-0.233-0.784-0.247-1.132,0c-0.44,0.312-0.543,0.922-0.23,1.362l3.341,4.703        C244.593,327.37,244.751,327.531,244.932,327.66z"/>
						<path style="fill:#FD8A02;" d="M225.056,321.132l-4.703,3.341c-0.171,0.123-0.332,0.28-0.461,0.462        c-0.625,0.88-0.419,2.1,0.461,2.724c0.88,0.625,2.1,0.419,2.725-0.461l3.341-4.704c0.233-0.329,0.247-0.784,0-1.131        C226.106,320.923,225.496,320.82,225.056,321.132z"/>
						<path style="fill:#FD8A02;" d="M197.715,321.133c-0.329-0.233-0.784-0.247-1.132,0c-0.44,0.312-0.543,0.922-0.231,1.362        l3.341,4.703c0.123,0.171,0.28,0.333,0.461,0.461c0.88,0.625,2.1,0.418,2.725-0.461c0.625-0.88,0.418-2.1-0.461-2.725        L197.715,321.133z"/>
					</g>
					<path style="fill:#FC09B2;" d="M179.724,340.982c25.354,2.029,56.119,10.614,75.232,18.671       c2.385,1.005,0.536-0.758,32.531-10.248c26.966-8,77.312-15.829,100.874-0.099c16.252,10.85,15.27,34.65,0.39,49.635       c-9.33,9.396-12.842,13.892-27.972,25.712c-8.656,6.762-46.352,34.595-56.559,29.826c-8.957-4.185-20.016-16.662-25.844-24.574       c-16.54-22.457-12.958-28.35-14.72-27.236c-8.971,5.667-6.13,5.536-15.21,0.044c-0.459-0.278-0.809-0.134-0.836,0.403       c-0.588,11.923-24.441,43.538-38.877,50.975c-2.148,1.107-4.373,1.398-6.729,0.702c-24.878-7.357-60.475-36.571-78.062-55.157       c-10.316-10.902-15.161-24.126-9.953-38.214C121.974,339.824,156.625,339.137,179.724,340.982z"/>
					<path style="opacity:0.35;fill:#FC09B2;" d="M235.433,451.341c-3.653,0.162-3.834-0.785-2.743-3.702       c0.252-0.674,0.539-1.345,0.893-1.972c6.323-11.215,10.565-12.542,16.852-17.552c5.514-4.395,9.426-9.931,11.86-16.467       c0.686-1.841-0.061-1.523,1.483-4.82c0.117-0.25,0.612-0.255,0.741-0.027c0.345,0.612,0.73,1.216,0.973,1.87       c6.022,16.192,21.518,31.554,23.597,34.647c0.257,0.383-0.03,1.327-0.467,1.506c-4.123,1.691-22.773,3.991-26.834,4.521       c-2.888,0.376-5.488,0.185-8.625,0.831c-1.987,0.409-7.69,0.146-11.664,0.907C240.091,451.352,236.302,451.303,235.433,451.341       z"/>
					<path style="fill:#4217A6;" d="M255.995,237.589l3.913-0.149c18.326-0.214,38.891-11.686,43.957-30.133       c0.177-0.646,0.876-1.029,1.561-0.855c1.124,0.286,0.977,1.52,0.943,1.382c-6.277,37.693-70.255,47.917-94.384,14.6       c-3.106-4.422-5.38-9.415-6.174-14.658c-0.094-0.623,0.363-1.205,1.022-1.301c0.614-0.089,1.185,0.276,1.337,0.829       C208.271,207.445,215.082,237.391,255.995,237.589z"/>
					<g style="opacity:0.45;">
						<path style="fill:#000E3F;" d="M222.024,392.201c-4.788,18.536-19.184,37.77-35.709,47.942        c-1.372,0.844-2.799-0.969-1.638-2.101c34.682-33.837,32.662-49.271,36.703-47.248        C221.912,391.061,222.165,391.653,222.024,392.201z"/>
						<path style="fill:#000E3F;" d="M326.991,437.588c0.541,0.522,0.561,1.375,0.044,1.905c-0.444,0.456-1.144,0.522-1.674,0.202        c-16.405-9.991-30.698-29.134-35.38-47.496c-0.17-0.667,0.24-1.339,0.915-1.501        C294.305,389.877,295.092,406.635,326.991,437.588z"/>
						<path style="fill:#000E3F;" d="M257.25,367.404c0.569,2.858,0.87,5.719,1.078,8.584c0.57,7.272,0.456,18.474-0.989,25.941        c-0.279,1.443-2.385,1.452-2.67,0c-0.561-2.896-0.85-5.789-1.041-8.679c-0.527-7.297-0.335-18.479,1.131-25.846        c0.134-0.675,0.801-1.115,1.489-0.983C256.769,366.521,257.153,366.922,257.25,367.404z"/>
					</g>
					<g style="opacity:0.25;">
						<path style="fill:#000E3F;" d="M320.964,318.071c0.441,6.981,1.788,13.831,3.841,20.59c1.286,4.233-0.329,1.215-27.48,7.739        c-17.143,4.12-29.582,8.765-39.065,12.446c-5.02,1.949-2.331-1.62-44.359-12.653c-1.404-0.368-1.404-1.377-0.825-1.628        c12.461-5.421,17.933-11.706,24.297-17.678c6.249-5.865,8.586-12.817,25.997-24.215c11.778-7.711,18.217-7.88,27.087-15.894        c20.173-18.226,24.132-39.325,23.276-66.74c-0.15-4.802-0.225-2.802-2.174-18.973c-0.011-0.093,0.169-0.296,0.236-0.287        c0.242,0.033,0.605,0.074,0.687,0.224c1.77,3.25,2.42,7.589,8.074,17.128c6.706,11.315,10.596,23.943,10.449,37.807        C330.853,270.134,318.327,276.367,320.964,318.071z"/>
						<path style="fill:#000E3F;" d="M400.381,371.43c-0.155,10.348-3.663,18.523-10.369,26.119        c-23.862,27.027-74.71,61.467-84.796,57.267c-2.718-1.131-6.597-2.884-10.81-7.138c-2.818-2.845-18.45-17.175-26.849-35.062        c-0.808-1.721-2.781-6.523-2.806-8.001c-0.083-4.979,10.571,10.425,41.852,8.59c27.256-1.599,53.75-18.272,73.248-36.741        c6.833-6.473,19.333-10.583,20.01-7.582C400.075,369.832,400.253,370.79,400.381,371.43z"/>
						<path style="fill:#000E3F;" d="M131.909,376.189c10.24,9.424,19.755,17.247,32.315,24.063        c19.615,10.645,43.31,17.005,65.099,10.669c12.607-3.666,17.752-9.034,17.919-6.648c0.69,9.877-31.554,53.998-44.713,50.624        c-2.945-0.755-5.817-1.692-8.556-2.98c-20.007-9.41-47.698-28.568-69.967-52.221c-6.447-6.848-10.562-13.86-11.842-22.996        c-0.431-3.081-1.214-9.066,1.739-8.906C118.293,368.032,126.287,371.015,131.909,376.189z"/>
					</g>
				</g>
				<path style="fill:#000E3F;" d="M382.863,417.355c-1.669-0.036-3.339,0.166-4.953,0.368c-1.615,0.202-3.277,0.415-4.926,0.362      c-0.085-0.017-0.362-0.218-0.423-0.408c-0.021-0.066-0.006-0.101,0.025-0.133c1.133-1.189,2.664-2.59,4.437-4.213      c4.896-4.482,11.602-10.619,18.137-19.585c6.463-8.867,8.595-19.966,5.703-29.691c-2.809-9.449-10.007-16.798-20.269-20.696      c-11.282-4.285-23.786-4.869-32.21-4.936c-7.895-0.069-12.791,0.37-16.033,0.657c-5.55,0.49-5.548,0.49-6.507-3.65      c-0.26-1.12-0.583-2.514-1.091-4.27c-0.797-2.753-2.747-18.121-2.711-22.309c0.166-19.363,3.991-29.997,7.064-38.542      c2.073-5.766,3.864-10.746,3.781-16.734c-0.253-18.045-8.45-32.254-12.389-39.082c-0.844-1.463-1.511-2.617-1.876-3.416      c-4.137-9.033-7.207-18.779-9.127-28.965c-1.439-7.634-1.598-12.093-1.694-14.757c-0.142-3.974-0.15-4.211-3.917-5.055      c-13.122-2.936-24.973-4.574-36.231-5.006c-23.618-0.912-31.365-0.572-59.798,5.083c-3.663,0.728-3.635,2.349-3.582,5.292      c0.023,1.32,0.052,2.962-0.248,4.949c-4.048,26.735-9.21,36.043-14.203,45.044c-2.814,5.072-5.47,9.863-7.696,17.545      c-0.078,0.267-0.154,0.535-0.23,0.804c-1.578,5.599-3.309,12.984-2.682,20.445c0.394,4.695,2.017,9.348,3.898,14.736      c4.41,12.638,10.451,29.945,3.941,61.164c-0.37,1.775-0.93,3.552-1.472,5.271l-0.089,0.285c-0.317,1.005-0.914,1.385-2.07,1.361      c-0.715-0.023-1.854-0.102-3.295-0.203c-6.305-0.44-18.039-1.26-29.269-0.004c-2.216,0.248-4.268,0.535-6.274,0.876      c-15.444,2.622-25.408,8.162-30.461,16.934c-6.755,11.728-4.935,27.535,4.529,39.335c6.213,7.747,12.483,13.526,16.631,17.35      c2.245,2.068,4.365,4.022,4.232,4.385c0,0-0.032,0.033-0.173,0.039c-0.421,0.017-1.266-0.057-2.337-0.157      c-4.873-0.45-15.015-1.389-22.155,2.984c-2.481,1.52-3.938,3.985-4.332,7.327c-0.209,1.768-0.156,3.604,0.16,5.46      c1.241,7.306,6.652,16.084,13.158,21.347c14.237,11.519,48.521,7.426,68.092,1.864c5.364-1.524,7.746-0.836,9.849-0.228      c1.806,0.522,3.365,0.973,6.315-0.239c1.341-0.551,2.087-0.967,2.632-1.27c1.744-0.97,1.744-0.97,14.286-1.532      c1.973-0.089,4.255-0.191,6.901-0.313c8.964-0.413,16.892-0.693,24.24-0.855c2.088-0.046,4.264-0.138,6.367-0.227      c6.821-0.287,13.872-0.584,20.449,0.482c2.315,0.376,5.041,0.584,7.678,0.785c4.67,0.356,9.08,0.692,11.056,1.88      c3.191,1.919,6.464,2.271,9.737,1.048c1.934-0.725,4.004-0.72,6.709,0.012c1.989,0.539,4.163,1.075,6.646,1.637      c11.06,2.502,22.477,4.601,33.546,4.601c7.279-0.001,14.41-0.908,21.185-3.207c8.287-2.811,11.281-6.694,13.466-9.529      c0.376-0.488,0.731-0.949,1.085-1.368c2.508-2.972,4.556-6.64,6.445-11.54c1.086-2.817,1.393-5.882,0.939-9.37      C400.878,423.117,397.18,417.724,382.863,417.355z M191.53,453.112c-0.652,1.365-27.544,6.93-45.292,5.559      c-11.85-0.913-19.201-4.181-24.578-10.93c-6.166-7.739-8.723-14.263-7.819-19.946c0.337-2.115,1.445-3.671,3.295-4.625      c3.843-1.981,8.379-2.755,12.935-2.755c5.883,0,11.8,1.29,16.299,2.937c1.405,0.515,2.642,1.574,3.837,2.599      c0.463,0.396,0.941,0.805,1.414,1.17c20.685,15.918,30.882,21.051,35.781,23.518      C189.489,451.689,190.751,452.324,191.53,453.112z M293.15,449.48c-0.033,0.111-0.227,0.216-0.531,0.288      c-1.267,0.301-4.085,0.004-5.147-0.108c-0.191-0.019-0.332-0.035-0.404-0.04c-5.051-0.378-7.011-0.46-7.848-0.495      c-0.445-0.019-0.583-0.025-0.717-0.055c0.161-0.15,0.612-0.237,4.681-0.995c1.567-0.291,3.662-0.681,6.473-1.212      c1.082-0.209,1.908,0.695,3.279,2.185C293.103,449.231,293.18,449.384,293.15,449.48z M248.029,409.687      c0.11-0.949,0.449-1.893,1.065-2.964c0.185-0.32,0.851-0.564,1.277-0.381c0.51,0.225,0.984,0.556,1.379,0.851      c0.169,0.126,0.224,0.258,0.182,0.431c-0.202,0.817-2.36,1.995-3.766,2.238c-0.022-0.026-0.053-0.066-0.075-0.096      C248.07,409.74,248.05,409.713,248.029,409.687z M220.516,447.574l0.498-0.471c6.802-6.446,13.928-15.239,20.065-24.761      c1.041-1.616,1.769-2.919,2.353-3.966c1.232-2.209,1.85-3.318,3.561-4.1c5.102-2.335,8.543-4.408,11.055-5.921      c2.392-1.442,3.837-2.312,4.596-2.038c0.301,0.108,0.53,0.407,0.72,0.943c4.672,13.197,14.472,25.018,19.737,31.37      c2.026,2.444,3.94,4.752,3.798,5.122c0,0-0.002,0.001-0.007,0.003c-5.39,1.846-39.353,6.812-67.765,6.24      c-0.045-0.001-0.138-0.044-0.179-0.076C218.861,449.133,219.006,448.997,220.516,447.574z M344.725,362.505      c1.312-0.468,2.105-0.751,2.304-0.835c0.347-0.147,0.578-0.582,0.652-0.947c0.068-0.336,0.013-0.625-0.151-0.794      c-1.091-1.123-2.128-0.81-3.844-0.294l-0.393,0.118c-8.087,2.394-15.82,5.377-24.367,8.745      c-44.109,17.384-51.395,26.291-55.748,31.612c-1.277,1.561-2.285,2.794-3.941,3.771c-0.275,0.162-0.534,0.327-0.781,0.484      c-1.213,0.773-2.089,1.33-3.325,0.661c-4.35-2.358-5.298-2.908-6.08-4.35c-8.65-15.935-66.872-36.754-80.819-41.054      l-0.235-0.073c-0.881-0.277-1.79-0.561-2.772-0.208c-0.232,0.083-0.558,0.233-0.714,0.571c-0.15,0.322-0.119,0.758,0.094,1.336      c0.223,0.604,2.712,1.476,8.826,3.564c8.288,2.83,22.158,7.566,37.645,14.76l0.937,0.434c5.674,2.63,15.173,7.031,22.712,11.999      c1.97,1.297,7.438,5.221,9.09,6.934c2.264,2.349,2.813,4.54,1.778,7.105c-0.231,0.571-0.441,1.161-0.644,1.731      c-0.31,0.869-0.631,1.768-1.029,2.619c-8.003,17.11-24.303,35.377-34.506,41.703c-2.6,1.616-5.349,1.937-8.171,0.955      c-25.809-8.966-65.347-40.191-80.874-60.066c-8.573-10.973-9.263-27.351-1.57-37.286c14.638-18.904,61.336-14.896,86.621-9.547      c18.277,3.867,32.148,8.457,47.352,14.159c0.381,0.142,0.717,0.28,1.022,0.405c1.342,0.549,2.154,0.88,3.569,0.352      c40.411-15.087,74.097-21.506,100.102-19.083c13.018,1.213,26.238,3.565,34.759,12.485c6.189,6.48,7.147,16.017,5.981,22.781      c-2.976,17.249-18.143,29.688-31.525,40.663c-1.439,1.181-2.857,2.343-4.237,3.493c-11.547,9.625-34.817,25.994-51.592,31.64      c-3.028,1.02-5.903,0.631-8.568-1.169c-2.232-1.509-4.54-3.071-6.495-4.986c-11.614-11.382-24.219-25.278-29.649-42.044      C263.464,396.592,291.373,381.555,344.725,362.505z M303.421,179.955c-1.548,10.163-3.735,20.942-11.825,31.176      c-10.065,12.736-28.439,18.854-45.718,15.228c-17.415-3.656-30.103-16.11-34.811-34.17c-3.37-12.919-3.23-23.564-2.802-25.778      c0.194-1.004,1.082-1.219,1.939-1.427c32.235-7.835,70.42-5.41,92.257,0.158c0.76,0.194,1.228,0.694,1.392,1.488      C303.986,167.272,304.058,175.774,303.421,179.955z M281.934,223.634c18.389-10.703,22.639-31.727,24.036-38.635      c0.165-0.819,0.298-1.479,0.405-1.871c0.456,1.123,1.376,4.904,2.134,8.02c0.676,2.778,1.376,5.651,1.869,7.252      c1.638,5.314,4.508,11.128,7.546,17.283c7.949,16.101,16.957,34.35,8.656,52.465c-2.338,5.103-4.092,10.837-5.518,18.042      c-4.797,24.241-0.762,40.55,1.648,50.293c0.198,0.797,0.384,1.551,0.554,2.263c0.073,0.306,0.048,0.536-0.08,0.726      c-0.474,0.703-2.444,0.999-6.019,1.537c-4.597,0.692-12.29,1.85-23.773,4.941l-0.169,0.045      c-15.824,4.258-15.824,4.258-36.034,11.74c-1.19,0.443-1.301,0.416-5.764-1.277c-1.702-0.646-4.031-1.53-7.289-2.713      c-23.629-8.577-39.428-11.115-47.916-12.479c-4.431-0.712-7.104-1.142-7.473-1.92c-0.373-0.789,0.138-2.115,0.548-3.18      c0.148-0.386,0.288-0.751,0.373-1.054c5.388-19.375,4.498-43.742-2.266-62.079c-0.579-1.569-1.123-2.897-1.602-4.068      c-1.344-3.281-2.315-5.652-2.959-10.304c-1.633-11.783,2.244-27.014,10.371-40.745c7.598-12.835,10.28-25.283,11.569-31.264      c0.357-1.658,0.652-3.027,0.884-3.563c0.238,0.553,0.464,1.681,0.76,3.152c1.085,5.397,3.104,15.441,10.612,25.649      c6.933,9.426,17.716,15.741,30.364,17.781C259.417,231.611,272.007,229.412,281.934,223.634z M324.576,450.754      c4.354-2.328,12.46-6.66,24.06-14.84c8.193-5.776,12.167-8.965,14.542-10.871c2.622-2.104,3.025-2.428,4.826-2.702l1.344-0.206      c4.569-0.702,9.259-1.423,13.962-1.423c1.33,0,2.664,0.058,3.994,0.19c3.86,0.384,8.876,1.932,10.309,5.034      c1.768,3.828,0.612,9.675-3.171,16.041c-3.439,5.787-8.508,10.928-12.915,13.097c-10.781,5.309-31.401,4.892-59.63-1.203      c-1.14-0.246-1.398-0.43-1.413-0.54C320.433,452.968,322.171,452.039,324.576,450.754z"/>
			</g>
		</g>
		<g>
			<g>
				<g>
					<path style="fill:#DB5E43;" d="M363.993,146.211c-0.779-2.518-5.068-5.575-7.285-18.57       c-4.469-26.193,15.071-48.176-3.801-77.811c-17.83-27.998-51.984-23.385-58.877-8.984c-10.944-8.264-24.402-9.891-36.108-5.127       c-1.283,0.522-2.367,0.471-3.656-0.025c-2.608-1.006-5.324-1.738-8.089-2.154c-10.336-1.557-20.085,1.516-27.963,7.444       c-6.741-14.509-41.056-19.24-58.942,8.846c-18.872,29.635,0.667,51.618-3.802,77.811c-2.217,12.995-6.506,16.053-7.285,18.57       c-0.552,1.784,0.805,3.417,2.682,3.254c3.597-0.311,6.934-1.5,10.097-3.189c8.686-4.635,11.042-10.241,12.073-9.676       c0.125,0.069,0.215,0.327,0.204,0.493c-0.507,7.66-4.942,12.447-2.222,14.009c1.276,0.732,2.254,0.004,3.2-0.768       c24.004-19.601,9.516-48.944,11.72-70.733c1.015-10.042,7.518-18.168,17.222-19.54c0.068-0.01,0.136-0.021,0.204-0.031       c-19.042,41.209,7.687,97.963,56.332,94.91c37.561-2.357,60.273-41.759,54.373-77.27c-1.103-6.635-2.901-12.5-5.218-17.635       c0.056,0.008,0.112,0.017,0.168,0.025c9.703,1.371,16.207,9.498,17.223,19.54c2.203,21.789-12.284,51.132,11.72,70.733       c0.945,0.772,1.924,1.5,3.199,0.768c2.72-1.562-1.715-6.349-2.222-14.009c-0.011-0.167,0.08-0.424,0.204-0.493       c1.031-0.565,3.387,5.041,12.073,9.676c3.164,1.688,6.5,2.878,10.098,3.189C363.188,149.628,364.545,147.996,363.993,146.211z"/>
					<g>
						<path style="fill:#4217A6;" d="M292.734,37.599c10.682,4.283,19.583,16.914,20.096,27.925c0.043,0.916-0.665,1.692-1.58,1.735        c-2.734,0.127-2.799-6.53-14.875-20.953c-4.954-5.915-6.919-7-5.24-8.442C291.592,37.472,292.211,37.391,292.734,37.599z"/>
						<path style="fill:#4217A6;" d="M219.442,37.599c-10.682,4.283-19.583,16.914-20.096,27.925        c-0.043,0.916,0.665,1.692,1.58,1.735c2.734,0.127,2.799-6.53,14.875-20.953c4.954-5.915,6.919-7,5.24-8.442        C220.584,37.472,219.965,37.391,219.442,37.599z"/>
					</g>
					<g style="opacity:0.45;">
						<path style="fill:#000E3F;" d="M353.917,136.895c-16.411-32.879,6.264-62.251-14.864-88.299        c-9.515-10.143-21.103-14.327-33.693-9.486c-0.498,0.193-0.779,0.739-0.629,1.263c0.51,1.782,2.129-0.262,8.769-0.529        c7.785-0.07,14.884,3.242,20.089,8.474c23.529,23.153-1.22,56.677,18.607,89.525c0.263,0.432,0.821,0.602,1.281,0.371        C353.963,137.972,354.16,137.381,353.917,136.895z"/>
						<path style="fill:#000E3F;" d="M322.784,52.589c-6.328-4.122-12.818-3.46-12.497-1.407c0.089,0.571,0.624,0.962,1.196,0.873        c3.396-0.515,6.743,0.903,9.493,3.08c20.969,15.966,9.298,46.098,9.062,61.983c0.007,3.875,0.371,7.815,1.537,11.54        c0.148,0.465,0.624,0.764,1.116,0.674c1.908-0.347-0.491-2.841,0.366-12.086c0.537-7.301,2.274-13.021,3.785-22.155        C339.506,78.597,336.539,61.953,322.784,52.589z"/>
						<path style="fill:#000E3F;" d="M178.646,48.318c5.205-5.232,12.304-8.544,20.089-8.474c6.64,0.267,8.259,2.311,8.769,0.529        c0.15-0.523-0.131-1.07-0.629-1.263c-12.59-4.841-24.177-0.657-33.693,9.486c-21.128,26.048,1.547,55.42-14.864,88.299        c-0.243,0.486-0.046,1.077,0.439,1.319c0.461,0.231,1.019,0.061,1.281-0.371C179.866,104.994,155.116,71.47,178.646,48.318z"/>
						<path style="fill:#000E3F;" d="M201.947,51.181c0.321-2.052-6.168-2.714-12.497,1.407        c-13.755,9.365-16.721,26.008-14.058,42.501c1.511,9.135,3.248,14.855,3.785,22.155c0.856,9.245-1.542,11.738,0.366,12.086        c0.492,0.09,0.968-0.209,1.116-0.674c1.167-3.725,1.531-7.665,1.537-11.54c-0.236-15.885-11.908-46.018,9.061-61.983        c2.751-2.177,6.098-3.595,9.494-3.08C201.322,52.143,201.858,51.752,201.947,51.181z"/>
						<path style="fill:#000E3F;" d="M308.947,85.089l-0.035-0.008c-9.827-2.291-30.305-21.344-36.708-30.101        c-3.256-4.611-5.739-9.343-7.485-14.112c-0.415-1.134-2.128-0.653-1.89,0.533c5.217,25.965,36.977,45.267,45.823,45.753        C309.921,87.226,310.187,85.379,308.947,85.089z"/>
						<path style="fill:#000E3F;" d="M295.969,65.835c4.603,3.261,6.153,3.63,9.419,4.723c1.158,0.388,1.936-1.191,0.923-1.873        c-1.483-0.999-3.014-1.749-4.197-2.679c-16.478-12.623-22.963-25.846-22.963-25.846c-0.558-0.999-2.095-0.388-1.813,0.723        C279.77,50.449,287.493,59.925,295.969,65.835z"/>
						<path style="fill:#000E3F;" d="M246.96,40.284c-2.117-0.777-0.837,3.494-8.748,14.697        c-6.457,8.83-26.854,27.803-36.708,30.101c0.149-0.097-0.893,0.173-0.843,1.085c0.032,0.578,0.526,1.02,1.103,0.988        c11.323-0.622,32.283-18.822,39.483-30.134c3.02-4.787,5.233-10.112,6.339-15.619C247.68,40.934,247.422,40.453,246.96,40.284        z"/>
						<path style="fill:#000E3F;" d="M203.694,69.895c0.185,0.551,0.782,0.849,1.334,0.663c-1.727,1.184,22.473-7.751,28.048-29.675        c0.282-1.111-1.254-1.723-1.813-0.722c0.083-0.149-1.205,2.39-5.463,8.413C212.876,66.158,202.921,67.593,203.694,69.895z"/>
					</g>
				</g>
				<path style="fill:#000E3F;" d="M256.062,156.544c-19.068,0.001-36.265-9.288-47.617-25.87      c-13.717-20.036-16.585-46.644-7.592-68.601c-7.371,2.136-12.541,8.817-13.436,17.679c-0.64,6.321,0.161,13.293,1.009,20.674      c1.98,17.238,4.225,36.777-13.269,51.061c-0.865,0.707-2.665,2.178-4.881,0.906c-2.568-1.476-1.57-4.255-0.513-7.197      c0.523-1.456,1.131-3.148,1.545-5.07c-1.834,1.985-4.824,4.891-9.647,7.463c-3.666,1.956-7.155,3.054-10.669,3.357      c-1.392,0.119-2.718-0.428-3.556-1.468c-0.837-1.038-1.083-2.389-0.675-3.707c0.272-0.878,0.799-1.69,1.466-2.717      c1.574-2.426,4.209-6.485,5.775-15.664c1.669-9.781-0.078-18.835-1.926-28.42c-2.956-15.325-6.012-31.173,5.94-49.94      c9.042-14.2,23.7-22.057,39.203-21.038c9.587,0.635,17.787,4.805,21.495,10.795c8.349-5.778,18.114-8.159,27.683-6.719      c2.83,0.426,5.657,1.179,8.402,2.237c0.991,0.382,1.685,0.392,2.56,0.036c11.906-4.848,25.311-3.219,36.182,4.317      c3.777-5.972,12.035-10.099,21.638-10.68c15.405-0.93,29.992,6.938,38.979,21.052c11.952,18.767,8.896,34.614,5.94,49.94      c-1.848,9.585-3.595,18.639-1.926,28.42c1.566,9.179,4.2,13.238,5.775,15.664c0.667,1.027,1.193,1.839,1.465,2.716      c0,0,0,0.001,0.001,0.001c0.408,1.319,0.161,2.669-0.675,3.707c-0.838,1.039-2.167,1.587-3.556,1.468      c-3.512-0.304-7.002-1.402-10.669-3.357c-4.823-2.574-7.813-5.479-9.646-7.464c0.414,1.922,1.022,3.614,1.545,5.071      c1.058,2.943,2.057,5.722-0.512,7.197c-2.215,1.272-4.017-0.199-4.882-0.906c-17.493-14.284-15.248-33.823-13.268-51.061      c0.848-7.381,1.649-14.353,1.009-20.674c-0.895-8.858-6.062-15.539-13.431-17.678c1.886,4.738,3.298,9.89,4.206,15.355      c3.32,19.978-2.133,41.256-14.586,56.919c-10.521,13.233-25.139,21.074-41.161,22.079      C258.539,156.506,257.296,156.544,256.062,156.544z M203.174,58.575c0.483,0,0.999,0.208,1.28,0.585      c0.325,0.437,0.487,1.001,0.258,1.496c-9.938,21.507-7.51,48.331,6.186,68.337c11.649,17.017,28.936,25.712,48.702,24.465      c15.17-0.952,29.027-8.396,39.018-20.962c11.937-15.015,17.164-35.419,13.98-54.58c-1.039-6.248-2.756-12.057-5.107-17.268      c-0.223-0.495-0.159-1.071,0.167-1.505c0.325-0.434,0.861-0.656,1.399-0.579l-0.039,1.395l0.012-0.006l0.193-1.365      c9.942,1.406,17.374,9.79,18.494,20.863c0.671,6.64-0.147,13.768-1.014,21.312c-1.985,17.287-4.039,35.162,12.195,48.419      c1.081,0.882,1.235,0.792,1.518,0.63c0.408-0.234-0.237-2.029-0.805-3.612c-0.809-2.251-1.917-5.333-2.16-9.009      c-0.041-0.63,0.244-1.49,0.966-1.891c1.422-0.779,2.503,0.431,3.754,1.832c1.675,1.879,4.48,5.025,9.741,7.832      c3.305,1.763,6.421,2.75,9.525,3.019c0.409,0.034,0.765-0.101,0.985-0.372c0.208-0.258,0.261-0.599,0.149-0.961l0,0      c-0.15-0.484-0.577-1.143-1.119-1.977c-1.699-2.618-4.543-7-6.212-16.784c-1.76-10.313,0.12-20.058,1.938-29.483      c2.977-15.433,5.788-30.01-5.527-47.778c-8.399-13.188-21.962-20.546-36.291-19.68c-9.349,0.564-17.196,4.702-19.991,10.539      c-0.192,0.403-0.555,0.698-0.99,0.803c-0.434,0.105-0.891,0.011-1.248-0.258c-10.259-7.746-23.212-9.589-34.651-4.935      c-1.586,0.645-3.052,0.639-4.752-0.015c-2.543-0.981-5.159-1.678-7.775-2.072c-9.314-1.403-18.846,1.141-26.848,7.162      c-0.359,0.27-0.818,0.363-1.256,0.254c-0.435-0.11-0.798-0.409-0.987-0.816c-2.718-5.851-10.507-10.03-19.842-10.648      c-14.421-0.961-28.049,6.399-36.498,19.668c-11.315,17.768-8.504,32.346-5.527,47.778c1.817,9.425,3.697,19.17,1.937,29.483      c-1.669,9.784-4.513,14.165-6.212,16.784c-0.542,0.834-0.969,1.492-1.119,1.977c-0.112,0.362-0.059,0.703,0.149,0.961      c0.219,0.272,0.578,0.407,0.984,0.372c3.105-0.269,6.221-1.256,9.525-3.019c5.262-2.808,8.067-5.954,9.743-7.833      c1.25-1.4,2.326-2.61,3.745-1.835c0.732,0.404,1.017,1.269,0.972,1.901c-0.243,3.67-1.351,6.753-2.159,9.004      c-0.569,1.583-1.214,3.378-0.806,3.612c0.283,0.164,0.437,0.253,1.519-0.63c16.234-13.256,14.18-31.132,12.195-48.419      c-0.867-7.545-1.686-14.672-1.014-21.312c1.12-11.074,8.552-19.457,18.494-20.863C203.024,58.58,203.098,58.575,203.174,58.575z       M171.754,136.996c0,0.001,0,0.004,0,0.006C171.754,137,171.754,136.997,171.754,136.996z"/>
			</g>
			<g>
				<g>
					<path style="fill:#FFBBEC;" d="M235.974,169.769c1.606-7.794,2.543-14.025,3.079-18.71c0.699-6.053,0.759-9.563,0.878-10.59       c0.03-0.193-0.223-19.915,10.679-27.039c10.753-7.035,22.027,7.124,22.042,27.009c0,3.123,0.312,6.857,0.803,10.709       c0.818,6.589,2.127,13.564,3.138,18.621"/>
					<path style="opacity:0.35;fill:#FC09B2;" d="M273.454,151.148c-4.224,5.964-10.351,9.727-17.178,9.727       c-6.856,0-12.999-3.793-17.223-9.816c0.699-6.053,0.759-9.563,0.878-10.59c0.03-0.193-0.223-19.915,10.679-27.039       c10.753-7.035,22.027,7.124,22.042,27.009C272.651,143.563,272.964,147.296,273.454,151.148z"/>
				</g>
				<path style="fill:#000E3F;" d="M235.976,171.257c-0.1,0-0.201-0.01-0.301-0.031c-0.805-0.166-1.322-0.953-1.157-1.757      c1.392-6.753,2.421-13.004,3.058-18.579c0.49-4.243,0.661-7.2,0.764-8.967c0.045-0.767,0.078-1.309,0.115-1.625      c0.065-4.907,1.093-21.415,11.342-28.113c3.832-2.507,8.072-2.734,11.941-0.646c7.408,4.003,12.392,15.616,12.402,28.898      c0,2.86,0.266,6.399,0.791,10.523c0.642,5.169,1.663,11.225,3.121,18.516c0.161,0.805-0.361,1.589-1.166,1.75      c-0.811,0.16-1.589-0.362-1.75-1.166c-1.473-7.365-2.505-13.491-3.156-18.73c-0.54-4.243-0.814-7.909-0.814-10.892      c-0.009-12.031-4.468-22.839-10.842-26.283c-2.947-1.591-5.94-1.418-8.899,0.518c-9.253,6.046-9.955,22.435-10.001,25.659      c-0.004,0.217-0.018,0.341-0.021,0.362c-0.025,0.229-0.052,0.713-0.091,1.4c-0.105,1.798-0.28,4.809-0.779,9.134      c-0.646,5.661-1.689,12.001-3.099,18.839C237.286,170.773,236.667,171.257,235.976,171.257z"/>
			</g>
			<g>
				<g>
					<g>
						<path style="fill:#FFBBEC;" d="M290.713,101.486c0,5.743-1.379,12.081,3.988,12.081c15.931,0,18.277-22.48,5.73-22.48        C295.063,91.088,290.713,95.744,290.713,101.486z"/>
						<path style="fill:#FFBBEC;" d="M221.853,101.486c0,5.743,1.379,12.081-3.988,12.081c-15.931,0-18.277-22.48-5.73-22.48        C217.503,91.088,221.853,95.744,221.853,101.486z"/>
					</g>
					<g style="opacity:0.35;">
						<path style="fill:#FC09B2;" d="M300.715,104.683c-2.796,1.773-3.699,0.556-3.134-0.278c0.934-1.381,2.142-2.382,3.99-4.845        c0.934-1.265,1.408-2.599,2.234-2.024C304.883,98.286,304.202,102.437,300.715,104.683z"/>
						<path style="fill:#FC09B2;" d="M210.994,99.56c1.318,1.756,2.027,2.429,2.56,3.078c1.146,1.299,1.53,1.913,1.429,1.764        c0.401,0.588-0.113,1.366-0.812,1.233c-3.449-0.673-6.492-4.502-5.688-7.698c0.146-0.583,0.907-0.711,1.244-0.229        C209.727,97.708,210.611,99.041,210.994,99.56z"/>
					</g>
				</g>
				<g>
					<path style="fill:#000E3F;" d="M294.7,115.055c-1.649,0-2.965-0.499-3.909-1.482c-1.938-2.018-1.797-5.484-1.647-9.153       c0.04-0.972,0.081-1.961,0.081-2.933c0-6.553,5.026-11.885,11.205-11.885c2.98,0,5.465,1.109,7.184,3.208       c1.503,1.834,2.331,4.374,2.331,7.153C309.946,107.38,304.243,115.055,294.7,115.055z M300.43,92.575       c-4.538,0-8.23,3.997-8.23,8.911c0,1.012-0.041,2.043-0.083,3.054c-0.118,2.885-0.239,5.868,0.821,6.972       c0.135,0.141,0.545,0.568,1.763,0.568c7.97,0,12.271-6.244,12.271-12.119c0-2.093-0.588-3.964-1.657-5.267       C304.162,93.289,302.519,92.575,300.43,92.575z"/>
					<path style="fill:#000E3F;" d="M217.866,115.055c-9.543,0-15.246-7.675-15.246-15.094c0-2.779,0.828-5.319,2.331-7.153       c1.72-2.099,4.204-3.208,7.184-3.208c6.179,0,11.205,5.332,11.205,11.885c0,0.972,0.041,1.962,0.081,2.933       c0.15,3.67,0.29,7.135-1.647,9.153C220.83,114.556,219.515,115.055,217.866,115.055z M212.136,92.575       c-2.089,0-3.732,0.713-4.884,2.118c-1.069,1.303-1.657,3.174-1.657,5.267c0,5.875,4.301,12.119,12.271,12.119       c1.218,0,1.627-0.427,1.763-0.568c1.059-1.104,0.938-4.086,0.821-6.972c-0.042-1.012-0.083-2.042-0.083-3.054       C220.366,96.572,216.674,92.575,212.136,92.575z"/>
				</g>
			</g>
			<g>
				<g>
					<path style="fill:#FFBBEC;" d="M288.839,129.232c-5.071,8.254-17.074,20.064-32.408,20.242h-0.297       c-15.334-0.179-27.337-11.988-32.408-20.242c-5.25-8.538-6.866-24.767-6.04-38.056c0.197-3.162,2.001-5.974,4.74-7.567       c18.318-10.663,33.377-35.94,33.248-35.791c1.841,1.053,6.512,17.098,33.797,35.054c3.23,2.126,5.289,5.67,5.484,9.532       C295.607,105.415,293.931,120.953,288.839,129.232z"/>
					<g>
						<path style="fill:#DB5E43;" d="M267.337,81.787c0.024-7.506,17.406-3.978,15.639,3.078        C281.476,90.854,267.319,87.543,267.337,81.787z"/>
						<path style="fill:#DB5E43;" d="M245.229,81.787c-0.024-7.506-17.406-3.978-15.639,3.078        C231.089,90.854,245.247,87.543,245.229,81.787z"/>
					</g>
					<g style="opacity:0.35;">
						<path style="fill:#FC09B2;" d="M278.758,105.157c-5.203,0-9.437,3.461-9.437,7.715c0,4.254,4.234,7.715,9.437,7.715        c5.204,0,9.438-3.461,9.438-7.715C288.196,108.619,283.962,105.157,278.758,105.157z"/>
						<path style="fill:#FC09B2;" d="M233.934,105.157c-5.204,0-9.438,3.461-9.438,7.715c0,4.254,4.234,7.715,9.438,7.715        c5.203,0,9.437-3.461,9.437-7.715C243.371,108.619,239.137,105.157,233.934,105.157z"/>
					</g>
				</g>
				<g>
					<path style="fill:#000E3F;" d="M296.437,92.328c-0.216-4.307-2.516-8.307-6.151-10.7c-21.191-13.945-28.47-26.58-31.578-31.976       c-1.069-1.856-1.557-2.702-2.298-3.127c-0.688-0.394-1.567-0.179-1.993,0.492c-0.025,0.038-0.047,0.078-0.068,0.118       c-0.484,0.823-15.001,24.899-32.673,35.186c-3.203,1.865-5.251,5.14-5.476,8.761c-0.749,12.045,0.44,29.467,6.257,38.927       c4.726,7.691,17.133,20.758,33.676,20.951h0.315c16.525-0.192,28.933-13.26,33.657-20.95       C295.714,120.892,297.054,104.567,296.437,92.328z M287.572,128.453L287.572,128.453c-4.407,7.172-15.928,19.357-31.141,19.534       h-0.28c-15.23-0.177-26.752-12.362-31.158-19.534c-5.453-8.868-6.545-25.573-5.823-37.185c0.163-2.627,1.66-5.011,4.003-6.375       c12.984-7.557,25.387-23.21,30.934-31.65c-1.302,8.563,2.162,16.418,10.037,22.445c0.27,0.207,0.587,0.307,0.903,0.307       c0.447,0,0.889-0.201,1.182-0.583c0.5-0.652,0.375-1.586-0.277-2.085c-7.272-5.566-10.246-12.569-8.764-20.383       c3.731,6.285,11.752,18.197,31.464,31.17c2.846,1.873,4.646,5,4.816,8.365C294.033,103.731,292.83,119.904,287.572,128.453z"/>
					<path style="fill:#000E3F;" d="M279.437,91.734c-0.821,0-1.487,0.666-1.487,1.487c0,3.367-2.064,5.055-3.981,5.198       c-1.815,0.138-4.099-1.046-4.666-4.808c-0.122-0.813-0.888-1.376-1.691-1.25c-0.812,0.122-1.372,0.879-1.25,1.691       c0.772,5.135,4.15,7.352,7.322,7.352c0.169,0,0.339-0.006,0.506-0.019c3.347-0.25,6.734-3.134,6.734-8.164       C280.924,92.4,280.258,91.734,279.437,91.734z"/>
					<path style="fill:#000E3F;" d="M244.954,92.361c-0.805-0.126-1.57,0.436-1.691,1.25c-0.567,3.762-2.864,4.934-4.666,4.808       c-1.917-0.144-3.981-1.832-3.981-5.198c0-0.821-0.666-1.487-1.487-1.487s-1.487,0.666-1.487,1.487       c0,5.03,3.388,7.914,6.734,8.164c0.169,0.013,0.337,0.019,0.506,0.019c3.173,0,6.551-2.217,7.322-7.352       C246.326,93.24,245.767,92.483,244.954,92.361z"/>
					<path style="fill:#000E3F;" d="M265.934,115.491c-0.81-0.157-1.587,0.371-1.744,1.176c-0.723,3.712-4.043,6.396-7.906,6.396       c-0.015,0-0.031,0-0.047,0c-3.839-0.021-7.145-2.711-7.862-6.396c-0.157-0.806-0.934-1.338-1.744-1.176       c-0.806,0.157-1.333,0.938-1.176,1.744c0.986,5.072,5.514,8.774,10.766,8.802c0.021,0,0.041,0,0.063,0       c5.285,0,9.832-3.693,10.826-8.802C267.267,116.429,266.74,115.648,265.934,115.491z"/>
					<path style="fill:#000E3F;" d="M257.428,112.541c0.817,0,1.491-0.673,1.491-1.491s-0.673-1.491-1.491-1.491       c-1.515,0-4.785-0.745-5.603-1.996c-0.144-0.216-0.241-0.481-0.024-1.01c0.045-0.136,3.362-7.96,4.998-11.816       c0.105-0.246,0.412-1.049,0.412-1.265c0-0.818-0.673-1.491-1.491-1.491c-1.254,0-1.475,1.165-1.702,1.702       c-1.651,3.911-4.936,11.67-4.959,11.716c-0.721,1.707-0.24,3.03,0.289,3.823C251.176,111.988,256.178,112.541,257.428,112.541z       "/>
				</g>
			</g>
		</g>
	</g>
	<g>
		<path style="fill:#000E3F;" d="M16.259,113.702c0.844-1.694,1.479-3.731,1.321-5.745c-0.631-8.05-9.159-7.562-14.786-5.53    l-0.036,0.039c0.799,8.326,1.11,16.439,2.048,24.716c0.261,0.091,0.513,0.034,0.796,0.012c5.223-0.264,13.248,0.624,13.865-6.259    c0.333-3.136-1.311-4.741-2.966-6.492C16.224,114.174,16.105,114.04,16.259,113.702z M13.588,120.674    c-0.881,1.226-2.661,1.112-3.988,1.215l-0.078-0.03c-0.88-1.089-0.749-3.594-0.503-5.024c0.907,0.038,1.909-0.111,2.827,0.068    c0.623,0.096,1.31,0.55,1.643,1.101C13.875,118.807,14.07,119.911,13.588,120.674z M12.749,110.432    c-0.643,1.498-2.631,1.473-4.084,1.406c-0.566-1.656-0.3-3.34-0.492-4.444c0.686-0.452,1.881-0.436,2.867-0.334    c0.766,0.12,1.41,0.469,1.862,1.193C13.357,108.975,13.026,109.832,12.749,110.432z"/>
		<path style="fill:#000E3F;" d="M32.593,115.109l-0.001-0.038l0.038,0.001l0.144,0c2.306-0.132,3.793-1.385,4.702-3.109    c3.022-4.994-0.622-11.251-6.314-11.572c-3.495-0.417-6.78,0.071-9.484,0.451c0.348,2.418,0.4,25.201,0.113,25.2    c0.466-0.106,4.646,0.312,6.273-0.362c-0.098-1.84-0.43-6.635-0.131-8.798l0.074,0.108c2.037,2.535,4.033,6.874,4.958,9.078    l0.035-0.001c2.161,0.157,4.291-0.048,5.985-0.038l-0.035-0.001C37.528,122.057,34.59,118.688,32.593,115.109z M30.745,110.374    c-1.153,0.176-2.524,0.094-3.639-0.019l-0.038-0.001c-0.176-1.083-0.056-3.207-0.156-4.434c1.7-0.676,3.464-0.847,4.504,0.132    C32.748,107.105,32.586,109.989,30.745,110.374z"/>
		<path style="fill:#000E3F;" d="M46.09,121.517c-0.023-1.158-0.025-3.109,0.329-4.494c0.534-0.36,2.879,0.211,4.382-0.076    c0.094-1.766,0.427-3.369,0.294-5.005l0.001-0.038c-1.474-0.142-2.986-0.218-4.417-0.43l-0.032-0.037    c-0.23-1.32,0.204-2.808,0.271-4.213l0.039-0.034l0.107,0.011c3.186-0.058,6.347,0.716,9.455,0.257l0.003-0.038    c0.12-1.688,0.499-3.397,0.374-5.105c0.013-0.216-9.311-0.754-14.908-0.874c-1.07,8.202-1.222,16.255-1.835,24.598    c4.611,0.735,9.852,0.757,14.741,1.149c0.5-1.409,0.625-3.138,0.633-4.691l0.005-0.071c-3.28-0.131-6.245-0.636-9.412-0.869    L46.09,121.517z"/>
		<path style="fill:#000E3F;" d="M56.434,127.383c0.032,0.044,0.032,0.044,0.066,0.048c3.257,0.414,4.589,0.782,4.997,0.727    c0.038,0.006,0.078-0.026,0.114-0.02c1.038-1.46,1.546-4.339,2.395-5.75c1.073,0.148,1.023-0.006,2.212,0.341    c0.453,1.483,0.516,4.442,0.877,6.059l0.031,0.004c1.495,0.535,3.303,0.893,4.773,0.807l0.001-0.038l-0.95-12.876    c-0.238-2.475-1.008-11.139-1.179-13.057c-3.187-0.149-3.727-0.442-4.424-0.427C60.341,114.16,56.853,126.458,56.434,127.383z     M66.985,118.501c-0.894-0.125-1.827-0.215-2.644-0.366C66.355,110.949,67.26,105.975,66.985,118.501z"/>
		<path style="fill:#000E3F;" d="M89.477,107.499c-4.751-1.458-10.064-2.286-14.889-3.171c-0.004,0.036,0.028,0.042,0.026,0.078    c-0.604,2.197-1.032,5.2-0.92,5.588c0.53,0.284,3.179,0.461,4.166,1.235l0.03,0.044c-1.955,13.32-3.38,18.483-3.356,18.929    c1.754,0.04,4.069,0.813,5.859,0.862l0.006-0.036l0.006-0.036c2.67-15.535,3.131-18.126,3.399-18.775    c0.006-0.034,0.048-0.064,0.057-0.097l0.036,0.006l0.069,0.012c2.255,0.321,3.473,0.48,4.322,0.826    C88.862,111.313,89.288,109.079,89.477,107.499z"/>
		<path style="fill:#000E3F;" d="M101.825,110.584c-0.729,3.388-1.389,5.937-2.503,9.077l-0.037-0.011    c-1.177-0.192-2.698-0.365-3.777-0.942l-0.036-0.008c0.21-3.112,1.232-6.052,1.647-9.373c-1.228-0.727-3.08-0.614-4.406-1.255    l-0.07-0.019l-0.034-0.009l-0.009,0.034c-1.987,7.087-5.082,20.447-5.822,24.464c0.954-0.235,3.477,1.386,4.801,1.024    c1.215-2.814,1.523-6.165,2.635-9.304c1.445,0.039,2.773,0.382,4.07,0.98l0.025,0.045c-0.393,3.104-1.624,6.547-1.977,9.772    l0.036,0.008c1.179,0.194,3.265,0.922,4.941,1.057l5.395-24.685C105.336,110.973,103.11,110.506,101.825,110.584z"/>
		<path style="fill:#000E3F;" d="M111.21,113.399c-3.102,7.672-5.277,15.43-7.966,23.355c4.278,1.871,9.347,3.211,13.983,4.821    c0.837-1.24,1.393-2.879,1.792-4.384l0.022-0.066c-3.143-0.953-5.886-2.189-8.892-3.212l-0.023-0.043    c0.268-1.127,0.76-3.019,1.449-4.271c0.607-0.214,2.735,0.928,4.261,1.028c0.533-1.686,1.261-3.154,1.543-4.773l0.011-0.034    c-1.386-0.51-2.835-0.961-4.168-1.527l-0.021-0.045c0.108-1.336,0.901-2.667,1.321-4.009l0.047-0.023l0.102,0.035    c3.098,0.747,5.965,2.29,9.091,2.627l0.008-0.034c0.545-1.604,1.34-3.164,1.646-4.851    C125.489,117.789,116.594,114.924,111.21,113.399z"/>
		<path style="fill:#000E3F;" d="M35.171,83.607c2.154,0.524,4.714,0.553,6.759-0.406c4.514-1.546,4.188-7.256,4.468-11.182    c0.224-4.647-0.018-9.311,0.202-13.816l-5.266-0.059l-0.004,0.253c-0.327,5.73-0.362,11.465-0.39,16.839    c-0.145,1.405-0.828,2.796-2.262,2.471c-1.732-0.151-1.99-2.683-2.06-4.165l0.004-0.18l0.001-0.038    c-1.725-0.331-4.281-0.467-5.587-0.21C30.763,76.786,31.272,82.356,35.171,83.607z"/>
		<path style="fill:#000E3F;" d="M48.468,78.697c-0.231,4.431,4.557,6.649,8.652,6.631c3.477-0.001,5.748-2.254,6.436-5.376    c1.255-6.109,1.876-12.388,2.158-18.553c-1.085-0.788-3.893-0.577-5.23-0.596c-0.662,5.552-1.154,11.626-1.936,17.345    c-0.673,2.147-3.969,2.164-4.433-0.231c0.088-6.002,0.526-11.899,1.312-17.656l0.006-0.034c-1.4-0.527-3.576-0.513-5.044-0.651    l-0.036-0.001l0.032,0.039C49.908,65.94,49.055,72.378,48.468,78.697z"/>
		<path style="fill:#000E3F;" d="M74.78,87.345c2.901,0.589,5.927-0.23,7.544-2.96c1.546-2.27,2.013-5.336,0.691-7.746    c-1.053-2.258-3.061-4.053-5.544-4.753c-0.97-0.306-1.855-0.708-2.06-1.912c0.016-0.325-0.001-0.658,0.158-0.961    c0.832-2.606,5.301-0.883,4.304,1.623c1.597,0.739,3.612,0.925,5.331,0.916l0.038,0.006c1.259-3.45,0.18-6.004-1.902-7.553    c-2.109-1.408-5.368-2.274-7.839-1.694c-4.866,1.139-8.106,7.26-4.411,12.144c0.584,0.683,1.289,1.271,2.222,1.609    c1.927,0.719,4.686,1.501,4.599,3.828c0.023,3.404-5.163,2.476-4.841-0.579c-1.607-0.229-3.74-0.835-5.453-0.86L67.6,78.562    l-0.016,0.105C66.552,83.141,70.633,86.554,74.78,87.345z"/>
		<path style="fill:#000E3F;" d="M94.585,91.012l0.009-0.034l0.008-0.036c3.326-15.411,3.895-17.985,4.19-18.619    c0.008-0.034,0.051-0.062,0.059-0.095l0.034,0.006l0.072,0.017c2.238,0.414,3.449,0.624,4.285,1.007    c0.642-1.628,1.162-3.84,1.418-5.41c-4.689-1.657-9.963-2.711-14.746-3.797c-0.009,0.034,0.028,0.042,0.019,0.078    c-0.697,2.17-1.247,5.153-1.156,5.545c0.52,0.309,3.159,0.595,4.117,1.412l0.028,0.044c-2.517,13.23-4.159,18.328-4.152,18.776    C90.52,90.02,92.797,90.888,94.585,91.012z"/>
	</g>
	<g>
		<path style="fill:#915EFD;" d="M39.645,38.972c-4.133-2.068-9.176-3.09-13.818-3.491c-0.39-5.444-1.41-11.443-3.634-16.422    c-0.461-1.028-1.931-1.028-2.386,0.008c-2.201,5.013-3.173,11.024-3.527,16.422c-4.619,0.411-9.632,1.439-13.749,3.527    c-1.026,0.519-1.045,2.012,0.008,2.537c4.115,2.054,9.111,3.052,13.749,3.437c0.403,5.908,2.455,16.254,4.29,17.058    c0.702,0.307,1.52-0.013,1.827-0.714c2.187-4.992,3.143-11.001,3.475-16.398c4.627-0.432,9.647-1.48,13.773-3.577    c0.246-0.125,0.456-0.327,0.589-0.593C40.572,40.105,40.305,39.302,39.645,38.972z"/>
		<path style="fill:#915EFD;" d="M420.531,181.133c-4.133-2.068-9.176-3.09-13.818-3.491c-0.39-5.444-1.41-11.443-3.634-16.422    c-0.462-1.028-1.931-1.028-2.386,0.008c-2.201,5.013-3.172,11.024-3.527,16.422c-4.619,0.411-9.632,1.439-13.749,3.527    c-1.026,0.519-1.045,2.012,0.008,2.538c4.115,2.054,9.111,3.052,13.749,3.436c0.403,5.908,2.455,16.254,4.29,17.058    c0.702,0.308,1.52-0.012,1.827-0.714c2.187-4.992,3.143-11.001,3.475-16.398c4.627-0.432,9.647-1.48,13.773-3.577    c0.246-0.125,0.456-0.327,0.589-0.593C421.458,182.266,421.191,181.463,420.531,181.133z"/>
		<path style="fill:#915EFD;" d="M142.282,26.867c-3.418-1.71-7.589-2.556-11.428-2.887c-0.323-4.502-1.166-9.464-3.006-13.582    c-0.382-0.85-1.597-0.85-1.973,0.006c-1.82,4.146-2.624,9.117-2.917,13.581c-3.82,0.34-7.966,1.19-11.371,2.917    c-0.848,0.429-0.864,1.664,0.007,2.099c3.404,1.699,7.535,2.524,11.371,2.842c0.333,4.886,2.03,13.443,3.548,14.108    c0.58,0.254,1.257-0.01,1.511-0.591c1.809-4.129,2.6-9.098,2.874-13.562c3.827-0.357,7.979-1.224,11.391-2.959    c0.204-0.103,0.378-0.271,0.487-0.491C143.049,27.804,142.828,27.141,142.282,26.867z"/>
		<path style="fill:#915EFD;" d="M134.51,186.048c-3.418-1.71-7.589-2.556-11.428-2.887c-0.323-4.502-1.166-9.464-3.005-13.582    c-0.382-0.85-1.597-0.85-1.973,0.006c-1.82,4.146-2.624,9.117-2.917,13.582c-3.82,0.34-7.966,1.19-11.371,2.917    c-0.848,0.43-0.865,1.664,0.007,2.099c3.403,1.699,7.535,2.524,11.371,2.842c0.333,4.886,2.03,13.443,3.548,14.108    c0.58,0.254,1.257-0.01,1.511-0.591c1.809-4.129,2.6-9.098,2.874-13.562c3.827-0.357,7.979-1.224,11.391-2.959    c0.203-0.103,0.377-0.271,0.487-0.491C135.277,186.985,135.055,186.321,134.51,186.048z"/>
		<path style="fill:#915EFD;" d="M475.602,112.564c-3.418-1.71-7.589-2.556-11.428-2.887c-0.323-4.502-1.166-9.464-3.006-13.582    c-0.382-0.85-1.597-0.85-1.973,0.006c-1.82,4.146-2.624,9.117-2.917,13.582c-3.82,0.34-7.966,1.19-11.371,2.917    c-0.848,0.43-0.864,1.664,0.007,2.099c3.404,1.699,7.535,2.524,11.371,2.842c0.333,4.886,2.03,13.443,3.548,14.108    c0.58,0.254,1.257-0.01,1.511-0.591c1.809-4.129,2.6-9.098,2.874-13.562c3.827-0.357,7.979-1.224,11.391-2.959    c0.204-0.103,0.378-0.271,0.487-0.491C476.368,113.501,476.147,112.837,475.602,112.564z"/>
		<path style="fill:#915EFD;" d="M470.923,296.178c-3.418-1.71-7.589-2.556-11.428-2.887c-0.323-4.502-1.166-9.464-3.005-13.582    c-0.382-0.85-1.597-0.85-1.973,0.007c-1.82,4.146-2.624,9.117-2.917,13.581c-3.82,0.34-7.966,1.19-11.371,2.917    c-0.848,0.429-0.864,1.664,0.007,2.099c3.403,1.699,7.535,2.524,11.371,2.842c0.333,4.886,2.03,13.443,3.548,14.108    c0.58,0.254,1.257-0.01,1.511-0.591c1.809-4.129,2.6-9.098,2.874-13.562c3.827-0.357,7.979-1.224,11.391-2.959    c0.203-0.103,0.378-0.271,0.487-0.491C471.69,297.115,471.469,296.451,470.923,296.178z"/>
	</g>
</g>















</svg>
