<?xml version="1.0" encoding="UTF-8"?>
<!-- Generator: Adobe Illustrator 25.2.3, SVG Export Plug-In . SVG Version: 6.00 Build 0)  -->
<svg xmlns="http://www.w3.org/2000/svg" xmlns:xlink="http://www.w3.org/1999/xlink" version="1.1" id="Capa_1" x="0px" y="0px" viewBox="0 0 512.219 512.219" style="enable-background:new 0 0 512.219 512.219;" xml:space="preserve" width="512" height="512">
<g>
	<path style="fill:#091438;" d="M286.741,350.944c0,0,5.715,39.503-66.854,46.799C219.887,397.743,295.131,400.56,286.741,350.944z"/>
	<path style="fill:#7C3E25;" d="M66.529,127.947c-10.482,21.772-16.239,45.626-16.239,71.105   c0,128.025,110.645,267.409,110.645,267.409c-32.544,0-23.593,27.66-23.593,27.66c213.159,69.157,218.855-149.437,218.855-149.437   s13.018,32.283,51.257,24.146c38.239-8.135,76.052-108.53,39.863-129.618c-13.571-7.909-30.363-1.593-46.049,9.372l-37.787-40.678   L328.533,65.989l-208.276,50.074L66.529,127.947z"/>
	<path style="fill:#091438;" d="M428.054,71.19c-7.064-36.221-27.892-63.133-71.857-68.471   C227.809-12.934,108.835,40.34,66.529,127.947c31.89,5.891,97.53,8.071,223.444-20.113   c-26.102,151.977,53.206,116.573,53.206,116.573l8.951,73.642c0,0,23.036-31.206,49.139-49.463   C420.047,194.333,438.207,123.162,428.054,71.19z"/>
	<path style="opacity:0.1;fill:#FFFFFF;" d="M401.268,248.584c-26.102,18.257-49.139,49.463-49.139,49.463l-8.951-73.642   c0,0-79.308,35.405-53.206-116.573c39.735-8.916,85.49-20.828,138.081-36.644C438.207,123.162,420.047,194.333,401.268,248.584z"/>
	<path style="fill:#091438;" d="M208.507,350.48c0,0,21.556-6.915,30.1,12.204l-75.662,14.98c0,0-10.984-20.268-8.951-23.929   c2.034-3.661,31.728-1.628,31.728-1.628l-28.882-89.496c0,0,30.514,61.542,32.138,93.62c0,0-31.728-4.332-30.916,1.67   c0.816,6.003,6.917,16.745,6.917,16.745l67.527-14.811C232.507,359.837,229.046,353.494,208.507,350.48z"/>
	<path style="fill:#FFFFFF;" d="M227.059,299.136c1.817,17.681-5.637,32.938-16.653,34.069   c-11.015,1.131-21.42-12.287-23.237-29.969c-1.821-17.687,5.633-32.942,16.649-34.073   C214.837,268.031,225.241,281.445,227.059,299.136z"/>
	<path style="fill:#FFFFFF;" d="M158.29,313.413c1.489,14.484-4.62,26.984-13.644,27.912c-9.028,0.926-17.546-10.068-19.035-24.558   c-1.492-14.486,4.617-26.984,13.645-27.912C148.28,287.929,156.802,298.919,158.29,313.413z"/>
	<polygon style="fill:#091438;" points="288.856,139.67 419.251,107.833 292.552,152.15  "/>
	<polygon style="fill:#091438;" points="303.826,158.7 395.248,143.47 306.865,171.359  "/>
	<polygon style="fill:#091438;" points="293.882,195.36 416.401,168.886 297.284,207.921  "/>
	<polygon style="fill:#091438;" points="316.168,211.552 412.334,197.264 318.936,224.273  "/>
	<polygon style="fill:#091438;" points="347.935,241.136 406.638,225.235 352.659,253.265  "/>
	<polygon style="fill:#091438;" points="347.923,263.109 388.741,254.117 352.671,275.23  "/>
	<path style="fill:#091438;" d="M261.779,501.036c-37.73,16.99-88.562,14.357-124.475-6.099l-0.192-1.637   c37.271,0.838,89.32,3.052,126.492,5.87L261.779,501.036z"/>
	<polygon style="fill:#091438;" points="231.316,376.066 202.809,400.923 218.232,366.388  "/>
	<polygon style="fill:#091438;" points="244.152,344.495 307.762,341.854 246.897,360.533  "/>
	<g>
		<path style="opacity:0.1;fill:#FFFFFF;" d="M227.523,392.786c2.385,9.854,18.984,14.288,37.075,9.91    c18.091-4.387,30.823-15.922,28.434-25.777c-2.386-9.856-18.984-14.29-37.079-9.911    C237.865,371.388,225.133,382.929,227.523,392.786z"/>
		<path style="fill:#091438;" d="M286.741,350.944c0,0,5.715,39.503-66.854,46.799C219.887,397.743,295.131,400.56,286.741,350.944z    "/>
	</g>
	<path style="fill:#091438;" d="M220.652,305.676c0,5.27-2.683,9.54-6.001,9.54c-3.309,0-6.001-4.27-6.001-9.54   c0-5.266,2.691-9.536,6.001-9.536C217.969,296.14,220.652,300.41,220.652,305.676z"/>
	<path style="fill:#091438;" d="M156.415,313.894c0,5.108-2.606,9.251-5.819,9.251c-3.209,0-5.815-4.143-5.815-9.251   c0-5.103,2.606-9.248,5.815-9.248C153.809,304.646,156.415,308.791,156.415,313.894z"/>
	<path style="fill:#091438;" d="M116.12,269.978l-16.185-1.639c1.195-12.394,12.322-35.828,45.875-35.828v16.27   C119.356,248.78,116.375,267.808,116.12,269.978z"/>
	<path style="fill:#091438;" d="M221.077,230.913c-22.854-26.466-49.092-10.262-52.007-8.325l-9.094-13.496   c13.919-9.421,47.166-19.21,73.42,11.184L221.077,230.913z"/>
	<path style="fill:#091438;" d="M442.963,312.655c0,0-3.576-23.757-24.877-21.938c-21.3,1.821-51.906,47.986-27.173,59.458   c24.73,11.466,24.575-19.91,16.104-25.723l15.907,2.275l-21.784-6.613c0,0,12.972,22.725,3.225,28.035   c-9.751,5.309-29.605-7.215-12.628-32.592C421.609,270.9,442.963,312.655,442.963,312.655z"/>
</g>















</svg>
