<?xml version="1.0" encoding="UTF-8"?>
<!-- Generator: Adobe Illustrator 25.2.3, SVG Export Plug-In . SVG Version: 6.00 Build 0)  -->
<svg xmlns="http://www.w3.org/2000/svg" xmlns:xlink="http://www.w3.org/1999/xlink" version="1.1" id="Capa_1" x="0px" y="0px" viewBox="0 0 512 512" style="enable-background:new 0 0 512 512;" xml:space="preserve" width="512" height="512">
<g>
	<path style="fill:#091438;" d="M184.674,133.679c0,0-101.687,3.458-91.738,110.342c0,0-34.183-4.758-27.694-28.991   c0,0-32.885,3.458-23.8-19.046c0,0-33.749,10.385-26.394-17.305c0,0-25.898-9.521-1.05-56.687c0,0-18.858,1.298-12.799-25.962   c0,0,61.881-132.412,187.802,3.028L184.674,133.679z"/>
	<path style="fill:#EA4A0C;" d="M204.582,141.466c-1.301,0-31.589,2.596-31.589,2.596l13.845-57.983l26.829,23.366L204.582,141.466z   "/>
	<path style="fill:#091438;" d="M474.51,111.478C440.757,49.582,385.173,7.364,311.903,17.701   C199.144,33.614,181.385,182.853,178.658,237.034l14.669,65.835c0,0,81.785,12.551,83.085,10.603   c1.298-1.948,157.675-107.103,157.675-107.103L474.51,111.478z"/>
	<path style="fill:#7C3E25;" d="M510.078,298.98l-65.35,14.703l47.179,104.734c0,0-27.265,53.644-131.969,61.428   c-104.558,7.791-143.086-69.37-126.029-135.058c-1.196,3.585-11.814,32.923-41.436,32.499c-31.597-0.409-59.3-28.975-58.419-79.602   c0.521-30.82,17.578-61.473,44.604-60.651c17.371,0.548,38.814,14.104,62.703,48.964l-1.739-130.694   c0,0,110.627-66.051,234.888-43.825C504.371,166.182,517.195,236.259,510.078,298.98z"/>
	<path style="fill:#091438;" d="M412.597,336.163c0,0-33.181,17.447-76.192,0.743c0,0-11.558-18.682,28.02-9.345   c0,0-9.837-85.048-19.417-92.172l16.958,90.709c0,0-39.816-12.543-28.02,11.05c0,0,39.081,22.858,81.845,0   c0,0,0.004-24.086-30.471-11.551c0,0,14.495-32.688,8.848-108.401c0,0-2.209,89.719-12.293,112.326   C381.876,329.524,409.649,316.746,412.597,336.163z"/>
	<path style="fill:#FFFFFF;" d="M336.561,285.998c0,9.322-11.724,16.871-26.181,16.871c-14.457,0-26.178-7.549-26.178-16.871   c0-9.328,11.721-16.882,26.178-16.882C324.836,269.115,336.561,276.67,336.561,285.998z"/>
	<path style="fill:#FFFFFF;" d="M454.664,279.959c0,9.328-11.717,16.876-26.174,16.876c-14.461,0-26.186-7.549-26.186-16.876   c0-9.32,11.725-16.873,26.186-16.873C442.947,263.086,454.664,270.639,454.664,279.959z"/>
	<g>
		<path style="opacity:0.1;fill:#FFFFFF;" d="M370.769,380.334c0,9.436-14.817,17.091-33.101,17.091s-33.105-7.655-33.105-17.091    c0-9.443,14.821-17.091,33.105-17.091S370.769,370.89,370.769,380.334z"/>
		<path style="fill:#091438;" d="M304.562,355.452c0,0,3.684,36.993,74.646,27.694C379.208,383.145,308.03,402.184,304.562,355.452z    "/>
	</g>
	<path style="fill:#091438;" d="M280.132,249.889c8.771-17.526,34.813-24.753,51.454-14.28l0.349,1.25   c-12.711,4.324-38.334,11.438-51.454,14.281L280.132,249.889z"/>
	<path style="fill:#091438;" d="M406.371,226.51c15.589-11.437,41.626-5.699,51.06,11.251l-0.28,1.269   c-12.98-2.078-38.411-7.675-51.06-11.251L406.371,226.51z"/>
	<path style="fill:#091438;" d="M312.998,287.097c0,5.374-4.794,9.739-10.717,9.739c-5.927,0-10.724-4.366-10.724-9.739   c0-5.388,4.797-9.76,10.724-9.76C308.204,277.337,312.998,281.708,312.998,287.097z"/>
	<path style="fill:#091438;" d="M431.761,279.959c0,5.387-4.801,9.76-10.724,9.76c-5.919,0-10.728-4.373-10.728-9.76   c0-5.381,4.809-9.748,10.728-9.748C426.959,270.211,431.761,274.578,431.761,279.959z"/>
	<path style="fill:#091438;" d="M225.351,250.515c0,0-35.483,184.334,33.753,225.875c69.234,41.541,197.319,14.279,242.323-59.715   l-17.398-15.734c0,0-57.945,62.8-157.442,61.17c-79.708-1.296-85.699-211.596-85.699-211.596H225.351z"/>
	<path style="fill:#091438;" d="M300.212,470.766c0,0-45.006-138.036,28.561-125.493c0,0-67.944-45.428-62.312,82.217   L300.212,470.766z"/>
	<path style="fill:#091438;" d="M379.208,470.766c0.625-0.864,23.127-112.935-17.117-115.314c0,0,60.534-18.402,40.214,107.099   L379.208,470.766z"/>
	<polygon style="fill:#091438;" points="312.998,477.079 328.774,412.627 347.812,412.627 355.599,474.229  "/>
	<g>
		<path style="fill:#7C3E25;" d="M303.437,129.37c-0.042-5.137-0.928-11.681-4.932-13.695c-5.089-2.558-13.756,2.393-16.668,4.519    l-3.098,2.26l-0.95-3.715c-1.084-4.244-2.927-6.808-5.478-7.623c-5.277-1.679-13.235,3.712-15.855,5.933l-3.318,2.813    l-0.904-4.253c-0.908-4.298-2.38-6.946-4.04-7.268c-3.42-0.703-9.709,6.041-12.901,10.777l-3.204,4.756l-1.461-5.544    c-0.904-3.435-2.584-7.635-5.449-8.142c-4.759-0.822-12.236,7.173-15.87,12.418l-4.269-2.958    c1.156-1.667,11.545-16.213,21.037-14.575c3.35,0.59,5.999,2.99,7.905,7.153c3.574-4.316,9.513-10.091,15.202-8.985    c3.153,0.612,5.527,3.13,7.082,7.5c4.07-2.721,11.334-6.577,17.612-4.576c3.511,1.116,6.143,3.784,7.852,7.946    c4.362-2.526,12.689-6.306,19.108-3.075c5.093,2.564,7.714,8.718,7.789,18.292L303.437,129.37z"/>
		<path style="fill:#7C3E25;" d="M345.491,121.153l-4.877-1.781c2.482-6.802,2.501-11.654,0.057-14.419    c-3.882-4.39-13.64-3.293-17.07-2.499l-3.629,0.837l0.47-3.693c0.546-4.309-0.218-7.213-2.336-8.885    c-5.078-4.007-17.102-0.765-21.306,0.822l-3.159,1.192l-0.343-3.358c-0.413-4.047-1.69-6.563-3.797-7.477    c-5.093-2.202-14.955,3.926-18.006,6.251l-3.657,2.783l-0.498-4.568c-0.275-2.52-1.012-5.667-2.969-6.357    c-3.771-1.313-11.524,4.756-14.683,7.912l-3.456,3.458l-0.928-4.802c-0.87-4.492-2.374-7.215-4.237-7.666    c-3.744-0.898-10.249,5.521-12.807,8.774l-4.089-3.2c1.008-1.292,10.088-12.564,18.11-10.624c3.13,0.754,5.468,3.261,6.981,7.469    c4.126-3.395,11.262-8.172,16.833-6.22c2.677,0.943,4.555,3.158,5.605,6.607c4.76-2.988,13.421-7.367,19.861-4.585    c3.225,1.396,5.364,4.267,6.381,8.553c5.501-1.654,16.882-4.163,23.373,0.953c2.92,2.3,4.421,5.724,4.483,10.205    c4.909-0.591,13.938-0.783,18.762,4.676C348.363,105.815,348.676,112.424,345.491,121.153z"/>
		<path style="fill:#7C3E25;" d="M393.379,116.285l-4.589-2.429c2.09-3.949,4.119-9.39,1.921-12.897    c-2.937-4.684-11.986-4.489-12.084-4.5l-3.805,0.137l1.262-3.591c1.148-3.269,1.063-5.77-0.254-7.437    c-2.925-3.697-11.543-3.699-14.334-3.399l-2.685,0.282l-0.178-2.692c-0.262-3.922-1.483-6.458-3.735-7.752    c-4.922-2.825-14.069,0.57-17.177,2.113l-4.157,2.067l0.411-4.621c0.436-4.862-0.538-8.161-2.895-9.806    c-5.409-3.786-17.384,0.474-21.545,2.433l-3.395,1.603l-0.299-3.744c-0.334-4.184-1.637-6.793-3.989-7.979    c-5.654-2.853-16.482,2.484-20.171,4.785l-3.267,2.035l-0.665-3.792c-0.572-3.265-1.825-5.277-3.829-6.15    c-4.777-2.073-13.294,2.291-15.903,3.984l-2.827-4.354c1.272-0.822,12.644-7.948,20.803-4.39c2.762,1.203,4.754,3.403,5.948,6.561    c5.072-2.636,15.177-6.882,22.25-3.316c3.217,1.624,5.328,4.549,6.302,8.724c5.55-2.128,16.746-5.421,23.563-0.658    c3.132,2.189,4.862,5.669,5.165,10.378c4.653-1.669,12.572-3.638,18.256-0.381c3.227,1.849,5.248,4.989,6.031,9.356    c4.246-0.087,12.41,0.451,16.395,5.493c1.931,2.44,2.584,5.485,1.959,9.081c3.92,0.423,10.182,1.876,13.25,6.772    C397.932,102.702,397.348,108.786,393.379,116.285z"/>
		<path style="fill:#7C3E25;" d="M432.494,108.323l-4.49-2.607c3.513-6.055,4.377-10.959,2.567-14.57    c-2.984-5.955-12.426-7.121-12.521-7.132l-3.598-0.419L416,80.323c1.54-3.247,0.603-4.671,0.294-5.138    c-2.533-3.837-12.782-4.908-18.618-4.686l-3.515,0.134l0.906-3.397c0.891-3.342,0.555-5.798-1.029-7.503    c-4.521-4.879-17.998-3.6-22.811-2.69l-4.009,0.754l1.014-3.952c0.858-3.345-0.319-4.591-0.705-5    c-3.541-3.755-15.039-2.495-18.784-1.76l-3.748,0.739l0.691-3.756c0.722-3.911-0.659-5.129-1.114-5.529    c-3.799-3.352-14.798-0.881-18.351,0.25l-2.831,0.9l-0.513-2.928c-0.743-4.25-2.371-6.883-4.833-7.827    c-5.838-2.241-15.878,4.167-19.258,6.825l-3.212-4.079c1.478-1.164,14.722-11.27,24.319-7.596c3.612,1.38,6.112,4.402,7.46,9.002    c5.027-1.253,15.41-3.062,20.655,1.557c1.413,1.247,2.906,3.371,3.06,6.829c5.368-0.663,15.566-1.137,20.236,3.806    c1.169,1.24,2.359,3.214,2.423,6.141c6.15-0.741,18.451-1.319,24.114,4.777c2.227,2.397,3.176,5.451,2.84,9.112    c5.491,0.155,16.128,1.23,19.946,7.018c1.008,1.529,1.878,3.896,1.152,7.139c3.928,0.995,10.474,3.481,13.421,9.332    C437.86,94.073,436.949,100.644,432.494,108.323z"/>
	</g>
	<g style="opacity:0.1;">
		<path style="fill:#FFFFFF;" d="M67.406,210.7c0,0,3.464-92.378,103.423-87.298C170.829,123.402,61.783,102.518,67.406,210.7z"/>
		<path style="fill:#FFFFFF;" d="M44.906,190.798c0,0,6.49-66.489,77.889-73.274C122.796,117.524,38.415,117.232,44.906,190.798z"/>
		<path style="fill:#FFFFFF;" d="M18.077,173.918c0,0,24.234-94.938,143.664-66.636C161.74,107.281,44.04,60.545,18.077,173.918z"/>
		<path style="fill:#FFFFFF;" d="M20.24,120.262c0,0,40.459-62.745,122.785-34.183C143.026,86.079,50.098,41.941,20.24,120.262z"/>
	</g>
	<path style="fill:#091438;" d="M144.115,312.289c0,0-0.752-22.669,16.79-21.752c17.54,0.925,49.445,43.572,31.163,55.38   c-18.282,11.816-22.976-17.954-17.005-23.79l-12.545,2.751l16.638-7.086c0,0-7.02,22.055,1.698,26.716   c8.718,4.676,22.885-7.958,5.226-31.4C154.999,271.863,144.115,312.289,144.115,312.289z"/>
</g>















</svg>
