<?xml version="1.0" encoding="UTF-8"?>
<!-- Generator: Adobe Illustrator 25.2.3, SVG Export Plug-In . SVG Version: 6.00 Build 0)  -->
<svg xmlns="http://www.w3.org/2000/svg" xmlns:xlink="http://www.w3.org/1999/xlink" version="1.1" id="Capa_1" x="0px" y="0px" viewBox="0 0 511.452 511.452" style="enable-background:new 0 0 511.452 511.452;" xml:space="preserve" width="512" height="512">
<g>
	<path style="fill:#EA4A0C;" d="M377.369,299.514c0,0-20.745,52.627,10.721,62.33c31.459,9.703,46.778-34.589,58.367-3.13   c11.589,31.459,25.254,35.183,44.708,14.903c19.453-20.28,12.422,12.586,12.422,12.586s14.486-50.666,4.141-53.154   c-10.352-2.487-14.076,19.87-21.531,3.724c-7.448-16.146,26.498-98.937-88.589-55.47L377.369,299.514z"/>
	<polygon style="fill:#091438;" points="401.011,280.041 379.808,303.245 358.284,291.643 359.938,266.4 381.462,250.254  "/>
	<path style="fill:#FFDEC7;" d="M362.179,314.39c5.917-4.769,6.86-14.582,2.733-26.061c-7.448-20.685,93.959-86.927,39.323-106.797   c-4.824-1.74-9.313-2.636-13.543-2.759c-34.971-1.339-70.994-9.975-61.666,68.555l-10.9,42.669l15.736,19.453L362.179,314.39z"/>
	<path style="fill:#091438;" d="M383.86,233.064c0,0-0.806-21.264-14.998-17.603c-14.192,3.65-37.458,48.51-21.865,56.611   c15.593,8.105,17.547-20.413,12.333-24.899l10.359,0.571l-13.96-3.965c0,0,7.086,19.448,0.294,25.184   c-6.792,5.753-19.091-3.775-6.205-28.44C372.49,197.108,383.86,233.064,383.86,233.064z"/>
	<path style="fill:#FFDEC7;" d="M101.091,290.42c-4.598-38.621-6.04-112.835,38.374-165.222c0,0,94.188-30.135,96.494-28.594   c2.303,1.542,99.476-6.267,99.967-4.785c0.499,1.484-3.724,30.07-3.724,30.07l-0.622,93.802l-3.102,38.427l-46.136,45.813   l-50.729,43.334l-103.97,21.244l-46.922-27.011l9.935-31.37L101.091,290.42z"/>
	<path style="fill:#EA4A0C;" d="M368.643,332.64c-5.692,12.176-31.671-1.114-32.689-1.64c0.793,1.619,33.283,65.945,16.543,77.396   c-16.618,11.329-36.016-24.086-36.836-25.63c0.321,1.408,7.701,33.529,1.216,35.565c-6.608,2.064-14.479-12.026-14.479-12.026   s8.275,46.375-3.724,49.676c-11.999,3.334-45.133-26.075-45.133-26.075s9.117,34.377-4.964,38.497   c-14.059,4.148-74.513-16.543-74.513-16.543s7.052,15.572,0,17.089c-6.833,1.49-20.741-12.197-21.486-12.942   c0.246,0.868,5.689,19.098-14.53,21.927c-20.687,2.883-64.974-43.881-64.974-43.881s0.816,16.146-4.568,17.806   c-5.371,1.64-10.755-19.474-10.755-19.474s-20.294,27.749-43.468,16.146C-7.552,437.628-20.879,315.88,102.989,289.75   c1.886,15.798,2.373,26.32,2.373,26.32l102.983,2.964l-0.776-24.761c18.825-13.967,55.314-36.442,105.188-46.08   c4.448-0.871,8.473-1.49,12.074-1.91c4.243-0.502,7.919-0.695,11.097-0.625c38.996,0.548,2.856,38.55,1.695,39.766   c0.67-0.369,14.178-8.167,16.365-4.12c2.234,4.141-12.272,12.839-12.272,12.839s12.299,9.812,20.465,20.246   C367.345,320.997,370.878,327.844,368.643,332.64z"/>
	<path style="fill:#EA4A0C;" d="M390.693,178.773c-34.971-1.339-50.12,47.386-54.766,66.886c-3.496,6.472-7.105,5.704-11.097,0.625   c-6.484-27.694-19.494-93.167-9.593-134.696c0,0-91.501-7.055-127.914,36.833c0,0-28.364-7.624-47.858-23.223   c-7.38-5.885-13.465-12.89-16.321-21.061c0,0,85.692-83.206,216.513-69.149C429.272,44.625,411.062,127.533,390.693,178.773z"/>
	<g>
		<path style="fill:#091438;" d="M184.388,340.088c0,0,64.609,5.794,63.782-34.363h5.378    C253.548,305.725,253.069,356.228,184.388,340.088z"/>
		<path style="fill:#091438;" d="M243.616,309.449c0,0,8.486-4.756,23.387,0c0,0-11.589-11.172-23.387-4.551V309.449z"/>
	</g>
	<path style="fill:#091438;" d="M107.217,314.39l99.556,3.758c-2.9-37.048-28.565-24.428-28.565-24.428s4.257-14.365,19.87-9.108   c15.62,5.268,12.832,36.016,12.832,36.016s-65.405,18.216-105.559-4.557c0,0-19.361-79.633,8.961-148.941   C114.313,167.13,96.869,209.685,107.217,314.39z"/>
	<path style="fill:#FFFFFF;" d="M163.244,253.817c0,10.878-7.967,19.703-17.8,19.703c-9.833,0-17.8-8.825-17.8-19.703   c0-10.88,7.967-19.697,17.8-19.697C155.276,234.12,163.244,242.938,163.244,253.817z"/>
	<path style="fill:#FFFFFF;" d="M227.254,250.254c0,14.079-10.311,25.501-23.037,25.501c-12.72,0-23.034-11.421-23.034-25.501   c0-14.081,10.314-25.49,23.034-25.49C216.944,224.764,227.254,236.173,227.254,250.254z"/>
	
		<rect x="125.844" y="209.482" transform="matrix(0.8896 -0.4567 0.4567 0.8896 -82.8073 88.7218)" style="fill:#EA4A0C;" width="32.641" height="12.419"/>
	
		<rect x="194.561" y="174.815" transform="matrix(0.0966 -0.9953 0.9953 0.0966 -13.9445 377.104)" style="fill:#EA4A0C;" width="12.419" height="42.838"/>
	<path style="fill:#091438;" d="M158.755,255.642c0,2.962-2.317,5.378-5.173,5.378c-2.863,0-5.176-2.415-5.176-5.378   c0-2.979,2.313-5.388,5.176-5.388C156.438,250.254,158.755,252.663,158.755,255.642z"/>
	<path style="fill:#091438;" d="M216.281,253.817c0,2.973-2.316,5.384-5.176,5.384c-2.86,0-5.176-2.412-5.176-5.384   c0-2.972,2.316-5.381,5.176-5.381C213.964,248.437,216.281,250.845,216.281,253.817z"/>
	<g style="opacity:0.2;">
		<path style="fill:#FFFFFF;" d="M379.47,106.469c-61.353-21.277-151.877-28.32-195.078,31.189    c42.404-61.16,134.199-55.926,196.739-35.869L379.47,106.469z"/>
		<path style="fill:#FFFFFF;" d="M341.144,83.775c-46.717-10.62-124.193-16.556-153.001,34.428    c27.809-52.46,106.48-48.618,154.156-39.259L341.144,83.775z"/>
		<path style="fill:#FFFFFF;" d="M388.479,81.209c-70.356-25.353-188.666-42.2-225.235,43.203    c35.451-86.933,155.334-72.076,226.944-47.866L388.479,81.209z"/>
	</g>
</g>















</svg>
